{
  "header": {
    "PPQ": 384,
    "timeSignature": [
      4,
      4
    ],
    "bpm": 112.00005973336519,
    "name": ""
  },
  "tempo": [
    {
      "absoluteTime": 0,
      "seconds": 0,
      "bpm": 112.00005973336519
    }
  ],
  "timeSignature": [
    {
      "absoluteTime": 0,
      "seconds": 0,
      "numerator": 4,
      "denominator": 2,
      "click": 24,
      "notesQ": 8
    }
  ],
  "startTime": 0,
  "duration": 333.7498220000037,
  "tracks": [
    {
      "startTime": 0,
      "duration": 333.7498220000037,
      "length": 2725,
      "notes": [
        {
          "name": "F5",
          "midi": 77,
          "time": 0,
          "velocity": 0.3937007874015748,
          "duration": 0.267857
        },
        {
          "name": "A2",
          "midi": 45,
          "time": 0,
          "velocity": 0.3937007874015748,
          "duration": 0.267857
        },
        {
          "name": "A5",
          "midi": 81,
          "time": 0.535714,
          "velocity": 0.3937007874015748,
          "duration": 0.267857
        },
        {
          "name": "C3",
          "midi": 48,
          "time": 0.535714,
          "velocity": 0.3937007874015748,
          "duration": 0.267857
        },
        {
          "name": "G5",
          "midi": 79,
          "time": 1.071428,
          "velocity": 0.3937007874015748,
          "duration": 1.071428
        },
        {
          "name": "A#2",
          "midi": 46,
          "time": 1.071428,
          "velocity": 0.3937007874015748,
          "duration": 1.071428
        },
        {
          "name": "D3",
          "midi": 50,
          "time": 1.071428,
          "velocity": 0.3937007874015748,
          "duration": 1.071428
        },
        {
          "name": "E5",
          "midi": 76,
          "time": 2.142856,
          "velocity": 0.3937007874015748,
          "duration": 0.26785700000000023
        },
        {
          "name": "G2",
          "midi": 43,
          "time": 2.142856,
          "velocity": 0.3937007874015748,
          "duration": 0.26785700000000023
        },
        {
          "name": "G5",
          "midi": 79,
          "time": 2.6785700000000006,
          "velocity": 0.3937007874015748,
          "duration": 0.26785700000000023
        },
        {
          "name": "C3",
          "midi": 48,
          "time": 2.6785700000000006,
          "velocity": 0.3937007874015748,
          "duration": 0.26785700000000023
        },
        {
          "name": "F5",
          "midi": 77,
          "time": 3.214284000000001,
          "velocity": 0.3937007874015748,
          "duration": 1.071428
        },
        {
          "name": "A2",
          "midi": 45,
          "time": 3.214284000000001,
          "velocity": 0.3937007874015748,
          "duration": 1.071428
        },
        {
          "name": "C3",
          "midi": 48,
          "time": 3.214284000000001,
          "velocity": 0.3937007874015748,
          "duration": 1.071428
        },
        {
          "name": "D5",
          "midi": 74,
          "time": 4.285712000000001,
          "velocity": 0.3937007874015748,
          "duration": 0.26785700000000023
        },
        {
          "name": "G2",
          "midi": 43,
          "time": 4.285712000000001,
          "velocity": 0.3937007874015748,
          "duration": 0.5357140000000005
        },
        {
          "name": "F5",
          "midi": 77,
          "time": 4.8214260000000015,
          "velocity": 0.3937007874015748,
          "duration": 0.26785700000000023
        },
        {
          "name": "C3",
          "midi": 48,
          "time": 4.8214260000000015,
          "velocity": 0.3937007874015748,
          "duration": 0.5357140000000005
        },
        {
          "name": "E5",
          "midi": 76,
          "time": 5.357140000000002,
          "velocity": 0.3937007874015748,
          "duration": 1.071428000000001
        },
        {
          "name": "C3",
          "midi": 48,
          "time": 5.357140000000002,
          "velocity": 0.3937007874015748,
          "duration": 0.26785700000000023
        },
        {
          "name": "A#2",
          "midi": 46,
          "time": 5.624997000000002,
          "velocity": 0.3937007874015748,
          "duration": 0.26785700000000023
        },
        {
          "name": "G2",
          "midi": 43,
          "time": 5.8928540000000025,
          "velocity": 0.3937007874015748,
          "duration": 0.26785700000000023
        },
        {
          "name": "A2",
          "midi": 45,
          "time": 6.160711000000003,
          "velocity": 0.3937007874015748,
          "duration": 0.26785700000000023
        },
        {
          "name": "C5",
          "midi": 72,
          "time": 6.428568000000003,
          "velocity": 0.3937007874015748,
          "duration": 0.26785700000000023
        },
        {
          "name": "F2",
          "midi": 41,
          "time": 6.428568000000003,
          "velocity": 0.3937007874015748,
          "duration": 0.26785700000000023
        },
        {
          "name": "E2",
          "midi": 40,
          "time": 6.696425000000003,
          "velocity": 0.3937007874015748,
          "duration": 0.26785700000000023
        },
        {
          "name": "D5",
          "midi": 74,
          "time": 6.964282000000003,
          "velocity": 0.3937007874015748,
          "duration": 0.26785700000000023
        },
        {
          "name": "F2",
          "midi": 41,
          "time": 6.964282000000003,
          "velocity": 0.3937007874015748,
          "duration": 0.26785700000000023
        },
        {
          "name": "G2",
          "midi": 43,
          "time": 7.232139000000004,
          "velocity": 0.3937007874015748,
          "duration": 0.26785700000000023
        },
        {
          "name": "A4",
          "midi": 69,
          "time": 7.499996000000004,
          "velocity": 0.3937007874015748,
          "duration": 1.071428
        },
        {
          "name": "D2",
          "midi": 38,
          "time": 7.499996000000004,
          "velocity": 0.3937007874015748,
          "duration": 1.071428
        },
        {
          "name": "F2",
          "midi": 41,
          "time": 7.499996000000004,
          "velocity": 0.3937007874015748,
          "duration": 1.071428
        },
        {
          "name": "F5",
          "midi": 77,
          "time": 8.571424000000004,
          "velocity": 0.3937007874015748,
          "duration": 0.26785699999999935
        },
        {
          "name": "A2",
          "midi": 45,
          "time": 8.571424000000004,
          "velocity": 0.3937007874015748,
          "duration": 0.5357139999999987
        },
        {
          "name": "A5",
          "midi": 81,
          "time": 9.107138000000003,
          "velocity": 0.3937007874015748,
          "duration": 0.26785699999999935
        },
        {
          "name": "C3",
          "midi": 48,
          "time": 9.107138000000003,
          "velocity": 0.3937007874015748,
          "duration": 0.5357139999999987
        },
        {
          "name": "G5",
          "midi": 79,
          "time": 9.642852000000001,
          "velocity": 0.3937007874015748,
          "duration": 1.071428000000001
        },
        {
          "name": "A#2",
          "midi": 46,
          "time": 9.642852000000001,
          "velocity": 0.3937007874015748,
          "duration": 1.071428000000001
        },
        {
          "name": "D3",
          "midi": 50,
          "time": 9.642852000000001,
          "velocity": 0.3937007874015748,
          "duration": 1.071428000000001
        },
        {
          "name": "C6",
          "midi": 84,
          "time": 10.714280000000002,
          "velocity": 0.3937007874015748,
          "duration": 0.26785699999999935
        },
        {
          "name": "E3",
          "midi": 52,
          "time": 10.714280000000002,
          "velocity": 0.3937007874015748,
          "duration": 0.5357139999999987
        },
        {
          "name": "G5",
          "midi": 79,
          "time": 11.249994000000001,
          "velocity": 0.3937007874015748,
          "duration": 0.26785699999999935
        },
        {
          "name": "C3",
          "midi": 48,
          "time": 11.249994000000001,
          "velocity": 0.3937007874015748,
          "duration": 0.5357139999999987
        },
        {
          "name": "A5",
          "midi": 81,
          "time": 11.785708,
          "velocity": 0.3937007874015748,
          "duration": 1.071428000000001
        },
        {
          "name": "D3",
          "midi": 50,
          "time": 11.785708,
          "velocity": 0.3937007874015748,
          "duration": 0.5357140000000005
        },
        {
          "name": "E3",
          "midi": 52,
          "time": 11.785708,
          "velocity": 0.3937007874015748,
          "duration": 0.5357140000000005
        },
        {
          "name": "F3",
          "midi": 53,
          "time": 12.321422,
          "velocity": 0.3937007874015748,
          "duration": 0.5357140000000005
        },
        {
          "name": "A5",
          "midi": 81,
          "time": 12.857136,
          "velocity": 0.3937007874015748,
          "duration": 0.26785699999999935
        },
        {
          "name": "E3",
          "midi": 52,
          "time": 12.857136,
          "velocity": 0.3937007874015748,
          "duration": 0.26785699999999935
        },
        {
          "name": "G5",
          "midi": 79,
          "time": 13.124993,
          "velocity": 0.3937007874015748,
          "duration": 0.26785699999999935
        },
        {
          "name": "D3",
          "midi": 50,
          "time": 13.124993,
          "velocity": 0.3937007874015748,
          "duration": 0.26785699999999935
        },
        {
          "name": "A5",
          "midi": 81,
          "time": 13.39285,
          "velocity": 0.3937007874015748,
          "duration": 0.26785699999999935
        },
        {
          "name": "C3",
          "midi": 48,
          "time": 13.39285,
          "velocity": 0.3937007874015748,
          "duration": 0.26785699999999935
        },
        {
          "name": "C6",
          "midi": 84,
          "time": 13.660706999999999,
          "velocity": 0.3937007874015748,
          "duration": 0.26785699999999935
        },
        {
          "name": "E3",
          "midi": 52,
          "time": 13.660706999999999,
          "velocity": 0.3937007874015748,
          "duration": 0.26785699999999935
        },
        {
          "name": "D6",
          "midi": 86,
          "time": 13.928563999999998,
          "velocity": 0.3937007874015748,
          "duration": 0.5357140000000005
        },
        {
          "name": "A#2",
          "midi": 46,
          "time": 13.928563999999998,
          "velocity": 0.3937007874015748,
          "duration": 0.5357140000000005
        },
        {
          "name": "E3",
          "midi": 52,
          "time": 13.928563999999998,
          "velocity": 0.3937007874015748,
          "duration": 0.5357140000000005
        },
        {
          "name": "F6",
          "midi": 89,
          "time": 14.464277999999998,
          "velocity": 0.3937007874015748,
          "duration": 0.26785699999999935
        },
        {
          "name": "D3",
          "midi": 50,
          "time": 14.464277999999998,
          "velocity": 0.3937007874015748,
          "duration": 0.5357139999999987
        },
        {
          "name": "C3",
          "midi": 48,
          "time": 14.999991999999997,
          "velocity": 0.3937007874015748,
          "duration": 0.26785699999999935
        },
        {
          "name": "E6",
          "midi": 88,
          "time": 15.133920499999997,
          "velocity": 0.3937007874015748,
          "duration": 0.13392849999999967
        },
        {
          "name": "D6",
          "midi": 86,
          "time": 15.267848999999996,
          "velocity": 0.3937007874015748,
          "duration": 0.26785699999999935
        },
        {
          "name": "G2",
          "midi": 43,
          "time": 15.267848999999996,
          "velocity": 0.3937007874015748,
          "duration": 0.26785699999999935
        },
        {
          "name": "C6",
          "midi": 84,
          "time": 15.535705999999996,
          "velocity": 0.3937007874015748,
          "duration": 0.26785699999999935
        },
        {
          "name": "A2",
          "midi": 45,
          "time": 15.535705999999996,
          "velocity": 0.3937007874015748,
          "duration": 0.26785699999999935
        },
        {
          "name": "E6",
          "midi": 88,
          "time": 15.803562999999995,
          "velocity": 0.3937007874015748,
          "duration": 0.2678570000000011
        },
        {
          "name": "C3",
          "midi": 48,
          "time": 15.803562999999995,
          "velocity": 0.3937007874015748,
          "duration": 0.2678570000000011
        },
        {
          "name": "D6",
          "midi": 86,
          "time": 16.071419999999996,
          "velocity": 0.3937007874015748,
          "duration": 1.071428000000001
        },
        {
          "name": "A2",
          "midi": 45,
          "time": 16.071419999999996,
          "velocity": 0.3937007874015748,
          "duration": 1.071428000000001
        },
        {
          "name": "D3",
          "midi": 50,
          "time": 16.071419999999996,
          "velocity": 0.3937007874015748,
          "duration": 1.071428000000001
        },
        {
          "name": "D4",
          "midi": 62,
          "time": 17.142847999999997,
          "velocity": 0.3937007874015748,
          "duration": 0.5357139999999987
        },
        {
          "name": "F4",
          "midi": 65,
          "time": 17.142847999999997,
          "velocity": 0.3937007874015748,
          "duration": 0.5357139999999987
        },
        {
          "name": "D4",
          "midi": 62,
          "time": 17.678561999999996,
          "velocity": 0.3937007874015748,
          "duration": 0.5357139999999987
        },
        {
          "name": "A4",
          "midi": 69,
          "time": 17.678561999999996,
          "velocity": 0.3937007874015748,
          "duration": 0.5357139999999987
        },
        {
          "name": "A#3",
          "midi": 58,
          "time": 18.214275999999995,
          "velocity": 0.3937007874015748,
          "duration": 0.803570999999998
        },
        {
          "name": "D4",
          "midi": 62,
          "time": 18.214275999999995,
          "velocity": 0.3937007874015748,
          "duration": 0.803570999999998
        },
        {
          "name": "G4",
          "midi": 67,
          "time": 18.214275999999995,
          "velocity": 0.3937007874015748,
          "duration": 0.803570999999998
        },
        {
          "name": "A#1",
          "midi": 34,
          "time": 18.214275999999995,
          "velocity": 0.3937007874015748,
          "duration": 0.13392849999999967
        },
        {
          "name": "F2",
          "midi": 41,
          "time": 18.348204499999994,
          "velocity": 0.3937007874015748,
          "duration": 0.13392849999999967
        },
        {
          "name": "A#2",
          "midi": 46,
          "time": 18.482132999999994,
          "velocity": 0.3937007874015748,
          "duration": 0.13392849999999967
        },
        {
          "name": "F2",
          "midi": 41,
          "time": 18.616061499999994,
          "velocity": 0.3937007874015748,
          "duration": 0.13392849999999967
        },
        {
          "name": "A#1",
          "midi": 34,
          "time": 18.749989999999993,
          "velocity": 0.3937007874015748,
          "duration": 0.13392849999999967
        },
        {
          "name": "F2",
          "midi": 41,
          "time": 18.883918499999993,
          "velocity": 0.3937007874015748,
          "duration": 0.13392849999999967
        },
        {
          "name": "A4",
          "midi": 69,
          "time": 19.017846999999993,
          "velocity": 0.3937007874015748,
          "duration": 0.26785699999999935
        },
        {
          "name": "A#2",
          "midi": 46,
          "time": 19.017846999999993,
          "velocity": 0.3937007874015748,
          "duration": 0.13392849999999967
        },
        {
          "name": "F2",
          "midi": 41,
          "time": 19.151775499999992,
          "velocity": 0.3937007874015748,
          "duration": 0.13392849999999967
        },
        {
          "name": "A#3",
          "midi": 58,
          "time": 19.285703999999992,
          "velocity": 0.3937007874015748,
          "duration": 0.401785499999999
        },
        {
          "name": "D4",
          "midi": 62,
          "time": 19.285703999999992,
          "velocity": 0.3937007874015748,
          "duration": 0.401785499999999
        },
        {
          "name": "A#1",
          "midi": 34,
          "time": 19.285703999999992,
          "velocity": 0.3937007874015748,
          "duration": 0.13392849999999967
        },
        {
          "name": "F2",
          "midi": 41,
          "time": 19.41963249999999,
          "velocity": 0.3937007874015748,
          "duration": 0.13392849999999967
        },
        {
          "name": "A#2",
          "midi": 46,
          "time": 19.55356099999999,
          "velocity": 0.3937007874015748,
          "duration": 0.13392849999999967
        },
        {
          "name": "E4",
          "midi": 64,
          "time": 19.68748949999999,
          "velocity": 0.3937007874015748,
          "duration": 0.401785499999999
        },
        {
          "name": "F2",
          "midi": 41,
          "time": 19.68748949999999,
          "velocity": 0.3937007874015748,
          "duration": 0.13392849999999967
        },
        {
          "name": "A#1",
          "midi": 34,
          "time": 19.82141799999999,
          "velocity": 0.3937007874015748,
          "duration": 0.13392849999999967
        },
        {
          "name": "F2",
          "midi": 41,
          "time": 19.95534649999999,
          "velocity": 0.3937007874015748,
          "duration": 0.13392849999999967
        },
        {
          "name": "F4",
          "midi": 65,
          "time": 20.08927499999999,
          "velocity": 0.3937007874015748,
          "duration": 0.26785699999999935
        },
        {
          "name": "A#2",
          "midi": 46,
          "time": 20.08927499999999,
          "velocity": 0.3937007874015748,
          "duration": 0.13392849999999967
        },
        {
          "name": "F2",
          "midi": 41,
          "time": 20.22320349999999,
          "velocity": 0.3937007874015748,
          "duration": 0.13392849999999967
        },
        {
          "name": "A#3",
          "midi": 58,
          "time": 20.35713199999999,
          "velocity": 0.3937007874015748,
          "duration": 1.0714279999999974
        },
        {
          "name": "F4",
          "midi": 65,
          "time": 20.35713199999999,
          "velocity": 0.3937007874015748,
          "duration": 1.0714279999999974
        },
        {
          "name": "A4",
          "midi": 69,
          "time": 20.35713199999999,
          "velocity": 0.3937007874015748,
          "duration": 1.0714279999999974
        },
        {
          "name": "A#1",
          "midi": 34,
          "time": 20.35713199999999,
          "velocity": 0.3937007874015748,
          "duration": 0.13392849999999967
        },
        {
          "name": "F2",
          "midi": 41,
          "time": 20.49106049999999,
          "velocity": 0.3937007874015748,
          "duration": 0.13392849999999967
        },
        {
          "name": "A#2",
          "midi": 46,
          "time": 20.62498899999999,
          "velocity": 0.3937007874015748,
          "duration": 0.13392849999999967
        },
        {
          "name": "F2",
          "midi": 41,
          "time": 20.75891749999999,
          "velocity": 0.3937007874015748,
          "duration": 0.13392849999999967
        },
        {
          "name": "A#1",
          "midi": 34,
          "time": 20.892845999999988,
          "velocity": 0.3937007874015748,
          "duration": 0.13392849999999967
        },
        {
          "name": "F2",
          "midi": 41,
          "time": 21.026774499999988,
          "velocity": 0.3937007874015748,
          "duration": 0.13392849999999967
        },
        {
          "name": "A#2",
          "midi": 46,
          "time": 21.160702999999987,
          "velocity": 0.3937007874015748,
          "duration": 0.13392849999999967
        },
        {
          "name": "F2",
          "midi": 41,
          "time": 21.294631499999987,
          "velocity": 0.3937007874015748,
          "duration": 0.13392849999999967
        },
        {
          "name": "A#3",
          "midi": 58,
          "time": 21.428559999999987,
          "velocity": 0.3937007874015748,
          "duration": 0.5357139999999987
        },
        {
          "name": "F4",
          "midi": 65,
          "time": 21.428559999999987,
          "velocity": 0.3937007874015748,
          "duration": 0.5357139999999987
        },
        {
          "name": "A#1",
          "midi": 34,
          "time": 21.428559999999987,
          "velocity": 0.3937007874015748,
          "duration": 0.5357139999999987
        },
        {
          "name": "A#2",
          "midi": 46,
          "time": 21.428559999999987,
          "velocity": 0.3937007874015748,
          "duration": 0.5357139999999987
        },
        {
          "name": "A#3",
          "midi": 58,
          "time": 21.964273999999985,
          "velocity": 0.3937007874015748,
          "duration": 0.5357139999999987
        },
        {
          "name": "A4",
          "midi": 69,
          "time": 21.964273999999985,
          "velocity": 0.3937007874015748,
          "duration": 0.5357139999999987
        },
        {
          "name": "C2",
          "midi": 36,
          "time": 21.964273999999985,
          "velocity": 0.3937007874015748,
          "duration": 0.5357139999999987
        },
        {
          "name": "C3",
          "midi": 48,
          "time": 21.964273999999985,
          "velocity": 0.3937007874015748,
          "duration": 0.5357139999999987
        },
        {
          "name": "D4",
          "midi": 62,
          "time": 22.499987999999984,
          "velocity": 0.3937007874015748,
          "duration": 0.803570999999998
        },
        {
          "name": "G4",
          "midi": 67,
          "time": 22.499987999999984,
          "velocity": 0.3937007874015748,
          "duration": 0.803570999999998
        },
        {
          "name": "D2",
          "midi": 38,
          "time": 22.499987999999984,
          "velocity": 0.3937007874015748,
          "duration": 0.13392849999999967
        },
        {
          "name": "A2",
          "midi": 45,
          "time": 22.633916499999984,
          "velocity": 0.3937007874015748,
          "duration": 0.13392849999999967
        },
        {
          "name": "D3",
          "midi": 50,
          "time": 22.767844999999983,
          "velocity": 0.3937007874015748,
          "duration": 0.13392849999999967
        },
        {
          "name": "A2",
          "midi": 45,
          "time": 22.901773499999983,
          "velocity": 0.3937007874015748,
          "duration": 0.13392849999999967
        },
        {
          "name": "D2",
          "midi": 38,
          "time": 23.035701999999983,
          "velocity": 0.3937007874015748,
          "duration": 0.13392849999999967
        },
        {
          "name": "A2",
          "midi": 45,
          "time": 23.169630499999982,
          "velocity": 0.3937007874015748,
          "duration": 0.13392849999999967
        },
        {
          "name": "A4",
          "midi": 69,
          "time": 23.303558999999982,
          "velocity": 0.3937007874015748,
          "duration": 0.26785699999999935
        },
        {
          "name": "D3",
          "midi": 50,
          "time": 23.303558999999982,
          "velocity": 0.3937007874015748,
          "duration": 0.13392849999999967
        },
        {
          "name": "A2",
          "midi": 45,
          "time": 23.437487499999982,
          "velocity": 0.3937007874015748,
          "duration": 0.13392849999999967
        },
        {
          "name": "D4",
          "midi": 62,
          "time": 23.57141599999998,
          "velocity": 0.3937007874015748,
          "duration": 0.401785499999999
        },
        {
          "name": "D2",
          "midi": 38,
          "time": 23.57141599999998,
          "velocity": 0.3937007874015748,
          "duration": 0.13392849999999967
        },
        {
          "name": "A2",
          "midi": 45,
          "time": 23.70534449999998,
          "velocity": 0.3937007874015748,
          "duration": 0.13392849999999967
        },
        {
          "name": "D3",
          "midi": 50,
          "time": 23.83927299999998,
          "velocity": 0.3937007874015748,
          "duration": 0.13392849999999967
        },
        {
          "name": "E4",
          "midi": 64,
          "time": 23.97320149999998,
          "velocity": 0.3937007874015748,
          "duration": 0.401785499999999
        },
        {
          "name": "A2",
          "midi": 45,
          "time": 23.97320149999998,
          "velocity": 0.3937007874015748,
          "duration": 0.13392849999999967
        },
        {
          "name": "D2",
          "midi": 38,
          "time": 24.10712999999998,
          "velocity": 0.3937007874015748,
          "duration": 0.13392849999999967
        },
        {
          "name": "A2",
          "midi": 45,
          "time": 24.24105849999998,
          "velocity": 0.3937007874015748,
          "duration": 0.13392849999999967
        },
        {
          "name": "C5",
          "midi": 72,
          "time": 24.37498699999998,
          "velocity": 0.3937007874015748,
          "duration": 0.26785699999999935
        },
        {
          "name": "D3",
          "midi": 50,
          "time": 24.37498699999998,
          "velocity": 0.3937007874015748,
          "duration": 0.13392849999999967
        },
        {
          "name": "A2",
          "midi": 45,
          "time": 24.50891549999998,
          "velocity": 0.3937007874015748,
          "duration": 0.13392849999999967
        },
        {
          "name": "D4",
          "midi": 62,
          "time": 24.64284399999998,
          "velocity": 0.3937007874015748,
          "duration": 1.0714279999999974
        },
        {
          "name": "F4",
          "midi": 65,
          "time": 24.64284399999998,
          "velocity": 0.3937007874015748,
          "duration": 1.0714279999999974
        },
        {
          "name": "A4",
          "midi": 69,
          "time": 24.64284399999998,
          "velocity": 0.3937007874015748,
          "duration": 1.0714279999999974
        },
        {
          "name": "D2",
          "midi": 38,
          "time": 24.64284399999998,
          "velocity": 0.3937007874015748,
          "duration": 0.13392849999999967
        },
        {
          "name": "A2",
          "midi": 45,
          "time": 24.77677249999998,
          "velocity": 0.3937007874015748,
          "duration": 0.13392849999999967
        },
        {
          "name": "D3",
          "midi": 50,
          "time": 24.910700999999978,
          "velocity": 0.3937007874015748,
          "duration": 0.13392849999999967
        },
        {
          "name": "A2",
          "midi": 45,
          "time": 25.044629499999978,
          "velocity": 0.3937007874015748,
          "duration": 0.13392849999999967
        },
        {
          "name": "D2",
          "midi": 38,
          "time": 25.178557999999978,
          "velocity": 0.3937007874015748,
          "duration": 0.13392849999999967
        },
        {
          "name": "A2",
          "midi": 45,
          "time": 25.312486499999977,
          "velocity": 0.3937007874015748,
          "duration": 0.13392849999999967
        },
        {
          "name": "D3",
          "midi": 50,
          "time": 25.446414999999977,
          "velocity": 0.3937007874015748,
          "duration": 0.13392849999999967
        },
        {
          "name": "A2",
          "midi": 45,
          "time": 25.580343499999977,
          "velocity": 0.3937007874015748,
          "duration": 0.13392849999999967
        },
        {
          "name": "G4",
          "midi": 67,
          "time": 25.714271999999976,
          "velocity": 0.3937007874015748,
          "duration": 0.26785699999999935
        },
        {
          "name": "A4",
          "midi": 69,
          "time": 25.714271999999976,
          "velocity": 0.3937007874015748,
          "duration": 0.26785699999999935
        },
        {
          "name": "D2",
          "midi": 38,
          "time": 25.714271999999976,
          "velocity": 0.3937007874015748,
          "duration": 0.5357139999999987
        },
        {
          "name": "D3",
          "midi": 50,
          "time": 25.714271999999976,
          "velocity": 0.3937007874015748,
          "duration": 0.5357139999999987
        },
        {
          "name": "G4",
          "midi": 67,
          "time": 26.249985999999975,
          "velocity": 0.3937007874015748,
          "duration": 0.26785699999999935
        },
        {
          "name": "A#4",
          "midi": 70,
          "time": 26.249985999999975,
          "velocity": 0.3937007874015748,
          "duration": 0.26785699999999935
        },
        {
          "name": "F2",
          "midi": 41,
          "time": 26.249985999999975,
          "velocity": 0.3937007874015748,
          "duration": 0.5357139999999987
        },
        {
          "name": "F3",
          "midi": 53,
          "time": 26.249985999999975,
          "velocity": 0.3937007874015748,
          "duration": 0.5357139999999987
        },
        {
          "name": "G4",
          "midi": 67,
          "time": 26.785699999999974,
          "velocity": 0.3937007874015748,
          "duration": 0.803570999999998
        },
        {
          "name": "C5",
          "midi": 72,
          "time": 26.785699999999974,
          "velocity": 0.3937007874015748,
          "duration": 0.803570999999998
        },
        {
          "name": "A#1",
          "midi": 34,
          "time": 26.785699999999974,
          "velocity": 0.3937007874015748,
          "duration": 0.13392849999999967
        },
        {
          "name": "F2",
          "midi": 41,
          "time": 26.919628499999973,
          "velocity": 0.3937007874015748,
          "duration": 0.13392849999999967
        },
        {
          "name": "A#2",
          "midi": 46,
          "time": 27.053556999999973,
          "velocity": 0.3937007874015748,
          "duration": 0.13392849999999967
        },
        {
          "name": "F2",
          "midi": 41,
          "time": 27.187485499999973,
          "velocity": 0.3937007874015748,
          "duration": 0.13392849999999967
        },
        {
          "name": "A#1",
          "midi": 34,
          "time": 27.321413999999972,
          "velocity": 0.3937007874015748,
          "duration": 0.13392849999999967
        },
        {
          "name": "F2",
          "midi": 41,
          "time": 27.455342499999972,
          "velocity": 0.3937007874015748,
          "duration": 0.13392849999999967
        },
        {
          "name": "D5",
          "midi": 74,
          "time": 27.58927099999997,
          "velocity": 0.3937007874015748,
          "duration": 0.26785699999999935
        },
        {
          "name": "A#2",
          "midi": 46,
          "time": 27.58927099999997,
          "velocity": 0.3937007874015748,
          "duration": 0.13392849999999967
        },
        {
          "name": "F2",
          "midi": 41,
          "time": 27.72319949999997,
          "velocity": 0.3937007874015748,
          "duration": 0.13392849999999967
        },
        {
          "name": "F4",
          "midi": 65,
          "time": 27.85712799999997,
          "velocity": 0.3937007874015748,
          "duration": 0.401785499999999
        },
        {
          "name": "A#1",
          "midi": 34,
          "time": 27.85712799999997,
          "velocity": 0.3937007874015748,
          "duration": 0.13392849999999967
        },
        {
          "name": "F2",
          "midi": 41,
          "time": 27.99105649999997,
          "velocity": 0.3937007874015748,
          "duration": 0.13392849999999967
        },
        {
          "name": "A#2",
          "midi": 46,
          "time": 28.12498499999997,
          "velocity": 0.3937007874015748,
          "duration": 0.13392849999999967
        },
        {
          "name": "G4",
          "midi": 67,
          "time": 28.25891349999997,
          "velocity": 0.3937007874015748,
          "duration": 0.13392849999999967
        },
        {
          "name": "F2",
          "midi": 41,
          "time": 28.25891349999997,
          "velocity": 0.3937007874015748,
          "duration": 0.13392849999999967
        },
        {
          "name": "G4",
          "midi": 67,
          "time": 28.39284199999997,
          "velocity": 0.3937007874015748,
          "duration": 0.26785699999999935
        },
        {
          "name": "A#1",
          "midi": 34,
          "time": 28.39284199999997,
          "velocity": 0.3937007874015748,
          "duration": 0.13392849999999967
        },
        {
          "name": "F2",
          "midi": 41,
          "time": 28.52677049999997,
          "velocity": 0.3937007874015748,
          "duration": 0.13392849999999967
        },
        {
          "name": "A4",
          "midi": 69,
          "time": 28.66069899999997,
          "velocity": 0.3937007874015748,
          "duration": 0.26785699999999935
        },
        {
          "name": "A#2",
          "midi": 46,
          "time": 28.66069899999997,
          "velocity": 0.3937007874015748,
          "duration": 0.13392849999999967
        },
        {
          "name": "F2",
          "midi": 41,
          "time": 28.79462749999997,
          "velocity": 0.3937007874015748,
          "duration": 0.13392849999999967
        },
        {
          "name": "C4",
          "midi": 60,
          "time": 28.92855599999997,
          "velocity": 0.3937007874015748,
          "duration": 0.803570999999998
        },
        {
          "name": "G4",
          "midi": 67,
          "time": 28.92855599999997,
          "velocity": 0.3937007874015748,
          "duration": 0.803570999999998
        },
        {
          "name": "C5",
          "midi": 72,
          "time": 28.92855599999997,
          "velocity": 0.3937007874015748,
          "duration": 0.803570999999998
        },
        {
          "name": "C2",
          "midi": 36,
          "time": 28.92855599999997,
          "velocity": 0.3937007874015748,
          "duration": 0.13392849999999967
        },
        {
          "name": "G2",
          "midi": 43,
          "time": 29.062484499999968,
          "velocity": 0.3937007874015748,
          "duration": 0.13392849999999967
        },
        {
          "name": "C3",
          "midi": 48,
          "time": 29.196412999999968,
          "velocity": 0.3937007874015748,
          "duration": 0.13392849999999967
        },
        {
          "name": "G2",
          "midi": 43,
          "time": 29.330341499999967,
          "velocity": 0.3937007874015748,
          "duration": 0.13392849999999967
        },
        {
          "name": "C2",
          "midi": 36,
          "time": 29.464269999999967,
          "velocity": 0.3937007874015748,
          "duration": 0.13392849999999967
        },
        {
          "name": "G2",
          "midi": 43,
          "time": 29.598198499999967,
          "velocity": 0.3937007874015748,
          "duration": 0.13392849999999967
        },
        {
          "name": "D5",
          "midi": 74,
          "time": 29.732126999999966,
          "velocity": 0.3937007874015748,
          "duration": 0.26785699999999935
        },
        {
          "name": "C3",
          "midi": 48,
          "time": 29.732126999999966,
          "velocity": 0.3937007874015748,
          "duration": 0.13392849999999967
        },
        {
          "name": "G2",
          "midi": 43,
          "time": 29.866055499999966,
          "velocity": 0.3937007874015748,
          "duration": 0.13392849999999967
        },
        {
          "name": "F4",
          "midi": 65,
          "time": 29.999983999999966,
          "velocity": 0.3937007874015748,
          "duration": 0.401785499999999
        },
        {
          "name": "C2",
          "midi": 36,
          "time": 29.999983999999966,
          "velocity": 0.3937007874015748,
          "duration": 0.13392849999999967
        },
        {
          "name": "G2",
          "midi": 43,
          "time": 30.133912499999965,
          "velocity": 0.3937007874015748,
          "duration": 0.13392849999999967
        },
        {
          "name": "C3",
          "midi": 48,
          "time": 30.267840999999965,
          "velocity": 0.3937007874015748,
          "duration": 0.13392849999999967
        },
        {
          "name": "E5",
          "midi": 76,
          "time": 30.401769499999965,
          "velocity": 0.3937007874015748,
          "duration": 0.401785499999999
        },
        {
          "name": "G2",
          "midi": 43,
          "time": 30.401769499999965,
          "velocity": 0.3937007874015748,
          "duration": 0.13392849999999967
        },
        {
          "name": "C2",
          "midi": 36,
          "time": 30.535697999999964,
          "velocity": 0.3937007874015748,
          "duration": 0.13392849999999967
        },
        {
          "name": "G2",
          "midi": 43,
          "time": 30.669626499999964,
          "velocity": 0.3937007874015748,
          "duration": 0.13392849999999967
        },
        {
          "name": "C5",
          "midi": 72,
          "time": 30.803554999999964,
          "velocity": 0.3937007874015748,
          "duration": 0.26785699999999935
        },
        {
          "name": "C3",
          "midi": 48,
          "time": 30.803554999999964,
          "velocity": 0.3937007874015748,
          "duration": 0.13392849999999967
        },
        {
          "name": "G2",
          "midi": 43,
          "time": 30.937483499999963,
          "velocity": 0.3937007874015748,
          "duration": 0.13392849999999967
        },
        {
          "name": "D4",
          "midi": 62,
          "time": 31.071411999999963,
          "velocity": 0.3937007874015748,
          "duration": 1.071428000000001
        },
        {
          "name": "F4",
          "midi": 65,
          "time": 31.071411999999963,
          "velocity": 0.3937007874015748,
          "duration": 1.071428000000001
        },
        {
          "name": "A4",
          "midi": 69,
          "time": 31.071411999999963,
          "velocity": 0.3937007874015748,
          "duration": 2.1428559999999983
        },
        {
          "name": "D2",
          "midi": 38,
          "time": 31.071411999999963,
          "velocity": 0.3937007874015748,
          "duration": 0.26785699999999935
        },
        {
          "name": "A2",
          "midi": 45,
          "time": 31.339268999999963,
          "velocity": 0.3937007874015748,
          "duration": 0.26785699999999935
        },
        {
          "name": "D3",
          "midi": 50,
          "time": 31.607125999999962,
          "velocity": 0.3937007874015748,
          "duration": 0.26785699999999935
        },
        {
          "name": "A2",
          "midi": 45,
          "time": 31.87498299999996,
          "velocity": 0.3937007874015748,
          "duration": 0.2678570000000029
        },
        {
          "name": "D4",
          "midi": 62,
          "time": 32.142839999999964,
          "velocity": 0.3937007874015748,
          "duration": 1.0714279999999974
        },
        {
          "name": "F4",
          "midi": 65,
          "time": 32.142839999999964,
          "velocity": 0.3937007874015748,
          "duration": 1.0714279999999974
        },
        {
          "name": "D2",
          "midi": 38,
          "time": 32.142839999999964,
          "velocity": 0.3937007874015748,
          "duration": 0.26785699999999935
        },
        {
          "name": "A2",
          "midi": 45,
          "time": 32.41069699999996,
          "velocity": 0.3937007874015748,
          "duration": 0.26785699999999935
        },
        {
          "name": "D3",
          "midi": 50,
          "time": 32.67855399999996,
          "velocity": 0.3937007874015748,
          "duration": 0.26785699999999935
        },
        {
          "name": "A2",
          "midi": 45,
          "time": 32.94641099999996,
          "velocity": 0.3937007874015748,
          "duration": 0.26785699999999935
        },
        {
          "name": "E4",
          "midi": 64,
          "time": 33.21426799999996,
          "velocity": 0.3937007874015748,
          "duration": 1.0714279999999974
        },
        {
          "name": "G4",
          "midi": 67,
          "time": 33.21426799999996,
          "velocity": 0.3937007874015748,
          "duration": 1.0714279999999974
        },
        {
          "name": "C2",
          "midi": 36,
          "time": 33.21426799999996,
          "velocity": 0.3937007874015748,
          "duration": 1.0714279999999974
        },
        {
          "name": "G2",
          "midi": 43,
          "time": 33.21426799999996,
          "velocity": 0.3937007874015748,
          "duration": 1.0714279999999974
        },
        {
          "name": "C3",
          "midi": 48,
          "time": 33.21426799999996,
          "velocity": 0.3937007874015748,
          "duration": 1.0714279999999974
        },
        {
          "name": "D4",
          "midi": 62,
          "time": 34.28569599999996,
          "velocity": 0.3937007874015748,
          "duration": 0.5357139999999987
        },
        {
          "name": "F4",
          "midi": 65,
          "time": 34.28569599999996,
          "velocity": 0.3937007874015748,
          "duration": 0.5357139999999987
        },
        {
          "name": "D4",
          "midi": 62,
          "time": 34.82140999999996,
          "velocity": 0.3937007874015748,
          "duration": 0.5357139999999987
        },
        {
          "name": "A4",
          "midi": 69,
          "time": 34.82140999999996,
          "velocity": 0.3937007874015748,
          "duration": 0.5357139999999987
        },
        {
          "name": "A#3",
          "midi": 58,
          "time": 35.357123999999956,
          "velocity": 0.3937007874015748,
          "duration": 0.8035710000000194
        },
        {
          "name": "D4",
          "midi": 62,
          "time": 35.357123999999956,
          "velocity": 0.3937007874015748,
          "duration": 0.8035710000000194
        },
        {
          "name": "G4",
          "midi": 67,
          "time": 35.357123999999956,
          "velocity": 0.3937007874015748,
          "duration": 0.8035710000000194
        },
        {
          "name": "A#1",
          "midi": 34,
          "time": 35.357123999999956,
          "velocity": 0.3937007874015748,
          "duration": 0.13392850000000323
        },
        {
          "name": "F2",
          "midi": 41,
          "time": 35.49105249999996,
          "velocity": 0.3937007874015748,
          "duration": 0.13392850000000323
        },
        {
          "name": "A#2",
          "midi": 46,
          "time": 35.62498099999996,
          "velocity": 0.3937007874015748,
          "duration": 0.13392850000000323
        },
        {
          "name": "F2",
          "midi": 41,
          "time": 35.758909499999966,
          "velocity": 0.3937007874015748,
          "duration": 0.13392850000000323
        },
        {
          "name": "A#1",
          "midi": 34,
          "time": 35.89283799999997,
          "velocity": 0.3937007874015748,
          "duration": 0.13392850000000323
        },
        {
          "name": "F2",
          "midi": 41,
          "time": 36.02676649999997,
          "velocity": 0.3937007874015748,
          "duration": 0.13392850000000323
        },
        {
          "name": "A4",
          "midi": 69,
          "time": 36.160694999999976,
          "velocity": 0.3937007874015748,
          "duration": 0.26785700000000645
        },
        {
          "name": "A#2",
          "midi": 46,
          "time": 36.160694999999976,
          "velocity": 0.3937007874015748,
          "duration": 0.13392850000000323
        },
        {
          "name": "F2",
          "midi": 41,
          "time": 36.29462349999998,
          "velocity": 0.3937007874015748,
          "duration": 0.13392850000000323
        },
        {
          "name": "A#3",
          "midi": 58,
          "time": 36.42855199999998,
          "velocity": 0.3937007874015748,
          "duration": 0.4017855000000097
        },
        {
          "name": "D4",
          "midi": 62,
          "time": 36.42855199999998,
          "velocity": 0.3937007874015748,
          "duration": 0.4017855000000097
        },
        {
          "name": "A#1",
          "midi": 34,
          "time": 36.42855199999998,
          "velocity": 0.3937007874015748,
          "duration": 0.13392850000000323
        },
        {
          "name": "F2",
          "midi": 41,
          "time": 36.562480499999985,
          "velocity": 0.3937007874015748,
          "duration": 0.13392850000000323
        },
        {
          "name": "A#2",
          "midi": 46,
          "time": 36.69640899999999,
          "velocity": 0.3937007874015748,
          "duration": 0.13392850000000323
        },
        {
          "name": "E4",
          "midi": 64,
          "time": 36.83033749999999,
          "velocity": 0.3937007874015748,
          "duration": 0.4017855000000097
        },
        {
          "name": "F2",
          "midi": 41,
          "time": 36.83033749999999,
          "velocity": 0.3937007874015748,
          "duration": 0.13392850000000323
        },
        {
          "name": "A#1",
          "midi": 34,
          "time": 36.964265999999995,
          "velocity": 0.3937007874015748,
          "duration": 0.13392850000000323
        },
        {
          "name": "F2",
          "midi": 41,
          "time": 37.0981945,
          "velocity": 0.3937007874015748,
          "duration": 0.13392850000000323
        },
        {
          "name": "F4",
          "midi": 65,
          "time": 37.232123,
          "velocity": 0.3937007874015748,
          "duration": 0.26785700000000645
        },
        {
          "name": "A#2",
          "midi": 46,
          "time": 37.232123,
          "velocity": 0.3937007874015748,
          "duration": 0.13392850000000323
        },
        {
          "name": "F2",
          "midi": 41,
          "time": 37.366051500000005,
          "velocity": 0.3937007874015748,
          "duration": 0.13392850000000323
        },
        {
          "name": "A#3",
          "midi": 58,
          "time": 37.49998000000001,
          "velocity": 0.3937007874015748,
          "duration": 1.0714280000000258
        },
        {
          "name": "F4",
          "midi": 65,
          "time": 37.49998000000001,
          "velocity": 0.3937007874015748,
          "duration": 1.0714280000000258
        },
        {
          "name": "A4",
          "midi": 69,
          "time": 37.49998000000001,
          "velocity": 0.3937007874015748,
          "duration": 1.0714280000000258
        },
        {
          "name": "A#1",
          "midi": 34,
          "time": 37.49998000000001,
          "velocity": 0.3937007874015748,
          "duration": 0.13392850000000323
        },
        {
          "name": "F2",
          "midi": 41,
          "time": 37.63390850000001,
          "velocity": 0.3937007874015748,
          "duration": 0.13392850000000323
        },
        {
          "name": "A#2",
          "midi": 46,
          "time": 37.767837000000014,
          "velocity": 0.3937007874015748,
          "duration": 0.13392850000000323
        },
        {
          "name": "F2",
          "midi": 41,
          "time": 37.90176550000002,
          "velocity": 0.3937007874015748,
          "duration": 0.13392850000000323
        },
        {
          "name": "A#1",
          "midi": 34,
          "time": 38.03569400000002,
          "velocity": 0.3937007874015748,
          "duration": 0.13392850000000323
        },
        {
          "name": "F2",
          "midi": 41,
          "time": 38.169622500000024,
          "velocity": 0.3937007874015748,
          "duration": 0.13392850000000323
        },
        {
          "name": "A#2",
          "midi": 46,
          "time": 38.30355100000003,
          "velocity": 0.3937007874015748,
          "duration": 0.13392850000000323
        },
        {
          "name": "F2",
          "midi": 41,
          "time": 38.43747950000003,
          "velocity": 0.3937007874015748,
          "duration": 0.13392850000000323
        },
        {
          "name": "A#3",
          "midi": 58,
          "time": 38.571408000000034,
          "velocity": 0.3937007874015748,
          "duration": 0.5357139999999987
        },
        {
          "name": "F4",
          "midi": 65,
          "time": 38.571408000000034,
          "velocity": 0.3937007874015748,
          "duration": 0.5357139999999987
        },
        {
          "name": "A#1",
          "midi": 34,
          "time": 38.571408000000034,
          "velocity": 0.3937007874015748,
          "duration": 0.5357139999999987
        },
        {
          "name": "A#2",
          "midi": 46,
          "time": 38.571408000000034,
          "velocity": 0.3937007874015748,
          "duration": 0.5357139999999987
        },
        {
          "name": "A#3",
          "midi": 58,
          "time": 39.10712200000003,
          "velocity": 0.3937007874015748,
          "duration": 0.5357139999999987
        },
        {
          "name": "A4",
          "midi": 69,
          "time": 39.10712200000003,
          "velocity": 0.3937007874015748,
          "duration": 0.5357139999999987
        },
        {
          "name": "C2",
          "midi": 36,
          "time": 39.10712200000003,
          "velocity": 0.3937007874015748,
          "duration": 0.5357139999999987
        },
        {
          "name": "C3",
          "midi": 48,
          "time": 39.10712200000003,
          "velocity": 0.3937007874015748,
          "duration": 0.5357139999999987
        },
        {
          "name": "D4",
          "midi": 62,
          "time": 39.64283600000003,
          "velocity": 0.3937007874015748,
          "duration": 0.8035710000000194
        },
        {
          "name": "G4",
          "midi": 67,
          "time": 39.64283600000003,
          "velocity": 0.3937007874015748,
          "duration": 0.8035710000000194
        },
        {
          "name": "D2",
          "midi": 38,
          "time": 39.64283600000003,
          "velocity": 0.3937007874015748,
          "duration": 0.13392850000000323
        },
        {
          "name": "A2",
          "midi": 45,
          "time": 39.776764500000034,
          "velocity": 0.3937007874015748,
          "duration": 0.13392850000000323
        },
        {
          "name": "D3",
          "midi": 50,
          "time": 39.91069300000004,
          "velocity": 0.3937007874015748,
          "duration": 0.13392850000000323
        },
        {
          "name": "A2",
          "midi": 45,
          "time": 40.04462150000004,
          "velocity": 0.3937007874015748,
          "duration": 0.13392850000000323
        },
        {
          "name": "D2",
          "midi": 38,
          "time": 40.178550000000044,
          "velocity": 0.3937007874015748,
          "duration": 0.13392850000000323
        },
        {
          "name": "A2",
          "midi": 45,
          "time": 40.31247850000005,
          "velocity": 0.3937007874015748,
          "duration": 0.13392850000000323
        },
        {
          "name": "A4",
          "midi": 69,
          "time": 40.44640700000005,
          "velocity": 0.3937007874015748,
          "duration": 0.26785700000000645
        },
        {
          "name": "D3",
          "midi": 50,
          "time": 40.44640700000005,
          "velocity": 0.3937007874015748,
          "duration": 0.13392850000000323
        },
        {
          "name": "A2",
          "midi": 45,
          "time": 40.580335500000054,
          "velocity": 0.3937007874015748,
          "duration": 0.13392850000000323
        },
        {
          "name": "D4",
          "midi": 62,
          "time": 40.71426400000006,
          "velocity": 0.3937007874015748,
          "duration": 0.4017855000000097
        },
        {
          "name": "D2",
          "midi": 38,
          "time": 40.71426400000006,
          "velocity": 0.3937007874015748,
          "duration": 0.13392850000000323
        },
        {
          "name": "A2",
          "midi": 45,
          "time": 40.84819250000006,
          "velocity": 0.3937007874015748,
          "duration": 0.13392850000000323
        },
        {
          "name": "D3",
          "midi": 50,
          "time": 40.98212100000006,
          "velocity": 0.3937007874015748,
          "duration": 0.13392850000000323
        },
        {
          "name": "E4",
          "midi": 64,
          "time": 41.11604950000007,
          "velocity": 0.3937007874015748,
          "duration": 0.4017855000000097
        },
        {
          "name": "A2",
          "midi": 45,
          "time": 41.11604950000007,
          "velocity": 0.3937007874015748,
          "duration": 0.13392850000000323
        },
        {
          "name": "D2",
          "midi": 38,
          "time": 41.24997800000007,
          "velocity": 0.3937007874015748,
          "duration": 0.13392850000000323
        },
        {
          "name": "A2",
          "midi": 45,
          "time": 41.38390650000007,
          "velocity": 0.3937007874015748,
          "duration": 0.13392850000000323
        },
        {
          "name": "C5",
          "midi": 72,
          "time": 41.517835000000076,
          "velocity": 0.3937007874015748,
          "duration": 0.26785700000000645
        },
        {
          "name": "D3",
          "midi": 50,
          "time": 41.517835000000076,
          "velocity": 0.3937007874015748,
          "duration": 0.13392850000000323
        },
        {
          "name": "A2",
          "midi": 45,
          "time": 41.65176350000008,
          "velocity": 0.3937007874015748,
          "duration": 0.13392850000000323
        },
        {
          "name": "D4",
          "midi": 62,
          "time": 41.78569200000008,
          "velocity": 0.3937007874015748,
          "duration": 1.0714280000000258
        },
        {
          "name": "F4",
          "midi": 65,
          "time": 41.78569200000008,
          "velocity": 0.3937007874015748,
          "duration": 1.0714280000000258
        },
        {
          "name": "A4",
          "midi": 69,
          "time": 41.78569200000008,
          "velocity": 0.3937007874015748,
          "duration": 1.0714280000000258
        },
        {
          "name": "D2",
          "midi": 38,
          "time": 41.78569200000008,
          "velocity": 0.3937007874015748,
          "duration": 0.13392850000000323
        },
        {
          "name": "A2",
          "midi": 45,
          "time": 41.919620500000086,
          "velocity": 0.3937007874015748,
          "duration": 0.13392850000000323
        },
        {
          "name": "D3",
          "midi": 50,
          "time": 42.05354900000009,
          "velocity": 0.3937007874015748,
          "duration": 0.13392850000000323
        },
        {
          "name": "A2",
          "midi": 45,
          "time": 42.18747750000009,
          "velocity": 0.3937007874015748,
          "duration": 0.13392850000000323
        },
        {
          "name": "D2",
          "midi": 38,
          "time": 42.321406000000096,
          "velocity": 0.3937007874015748,
          "duration": 0.13392850000000323
        },
        {
          "name": "A2",
          "midi": 45,
          "time": 42.4553345000001,
          "velocity": 0.3937007874015748,
          "duration": 0.13392850000000323
        },
        {
          "name": "D3",
          "midi": 50,
          "time": 42.5892630000001,
          "velocity": 0.3937007874015748,
          "duration": 0.13392850000000323
        },
        {
          "name": "A2",
          "midi": 45,
          "time": 42.723191500000105,
          "velocity": 0.3937007874015748,
          "duration": 0.13392850000000323
        },
        {
          "name": "G4",
          "midi": 67,
          "time": 42.85712000000011,
          "velocity": 0.3937007874015748,
          "duration": 0.5357139999999987
        },
        {
          "name": "A4",
          "midi": 69,
          "time": 42.85712000000011,
          "velocity": 0.3937007874015748,
          "duration": 0.5357139999999987
        },
        {
          "name": "D2",
          "midi": 38,
          "time": 42.85712000000011,
          "velocity": 0.3937007874015748,
          "duration": 0.5357139999999987
        },
        {
          "name": "D3",
          "midi": 50,
          "time": 42.85712000000011,
          "velocity": 0.3937007874015748,
          "duration": 0.5357139999999987
        },
        {
          "name": "G4",
          "midi": 67,
          "time": 43.39283400000011,
          "velocity": 0.3937007874015748,
          "duration": 0.5357139999999987
        },
        {
          "name": "A#4",
          "midi": 70,
          "time": 43.39283400000011,
          "velocity": 0.3937007874015748,
          "duration": 0.5357139999999987
        },
        {
          "name": "F2",
          "midi": 41,
          "time": 43.39283400000011,
          "velocity": 0.3937007874015748,
          "duration": 0.5357139999999987
        },
        {
          "name": "F3",
          "midi": 53,
          "time": 43.39283400000011,
          "velocity": 0.3937007874015748,
          "duration": 0.5357139999999987
        },
        {
          "name": "G4",
          "midi": 67,
          "time": 43.928548000000106,
          "velocity": 0.3937007874015748,
          "duration": 0.8035710000000051
        },
        {
          "name": "C5",
          "midi": 72,
          "time": 43.928548000000106,
          "velocity": 0.3937007874015748,
          "duration": 0.8035710000000051
        },
        {
          "name": "A#2",
          "midi": 46,
          "time": 43.928548000000106,
          "velocity": 0.3937007874015748,
          "duration": 2.008927500000013
        },
        {
          "name": "D3",
          "midi": 50,
          "time": 43.928548000000106,
          "velocity": 0.3937007874015748,
          "duration": 2.008927500000013
        },
        {
          "name": "G2",
          "midi": 43,
          "time": 43.928548000000106,
          "velocity": 0.3937007874015748,
          "duration": 2.142856000000016
        },
        {
          "name": "G3",
          "midi": 55,
          "time": 44.06247650000011,
          "velocity": 0.3937007874015748,
          "duration": 2.008927500000013
        },
        {
          "name": "D5",
          "midi": 74,
          "time": 44.73211900000011,
          "velocity": 0.3937007874015748,
          "duration": 0.26785699999999935
        },
        {
          "name": "F4",
          "midi": 65,
          "time": 44.99997600000011,
          "velocity": 0.3937007874015748,
          "duration": 0.40178550000000257
        },
        {
          "name": "G4",
          "midi": 67,
          "time": 45.40176150000011,
          "velocity": 0.3937007874015748,
          "duration": 0.40178550000000257
        },
        {
          "name": "A4",
          "midi": 69,
          "time": 45.803547000000115,
          "velocity": 0.3937007874015748,
          "duration": 0.26785700000000645
        },
        {
          "name": "C4",
          "midi": 60,
          "time": 46.07140400000012,
          "velocity": 0.3937007874015748,
          "duration": 0.8035710000000051
        },
        {
          "name": "G4",
          "midi": 67,
          "time": 46.07140400000012,
          "velocity": 0.3937007874015748,
          "duration": 0.8035710000000051
        },
        {
          "name": "C5",
          "midi": 72,
          "time": 46.07140400000012,
          "velocity": 0.3937007874015748,
          "duration": 0.8035710000000051
        },
        {
          "name": "C3",
          "midi": 48,
          "time": 46.07140400000012,
          "velocity": 0.3937007874015748,
          "duration": 2.008927500000013
        },
        {
          "name": "E3",
          "midi": 52,
          "time": 46.07140400000012,
          "velocity": 0.3937007874015748,
          "duration": 2.008927500000013
        },
        {
          "name": "A2",
          "midi": 45,
          "time": 46.07140400000012,
          "velocity": 0.3937007874015748,
          "duration": 2.142856000000016
        },
        {
          "name": "A3",
          "midi": 57,
          "time": 46.205332500000125,
          "velocity": 0.3937007874015748,
          "duration": 2.008927500000013
        },
        {
          "name": "D5",
          "midi": 74,
          "time": 46.87497500000013,
          "velocity": 0.3937007874015748,
          "duration": 0.26785699999999935
        },
        {
          "name": "F4",
          "midi": 65,
          "time": 47.142832000000126,
          "velocity": 0.3937007874015748,
          "duration": 0.40178550000000257
        },
        {
          "name": "E5",
          "midi": 76,
          "time": 47.54461750000013,
          "velocity": 0.3937007874015748,
          "duration": 0.40178550000000257
        },
        {
          "name": "C5",
          "midi": 72,
          "time": 47.94640300000013,
          "velocity": 0.3937007874015748,
          "duration": 0.26785700000000645
        },
        {
          "name": "D4",
          "midi": 62,
          "time": 48.21426000000014,
          "velocity": 0.3937007874015748,
          "duration": 1.0714280000000045
        },
        {
          "name": "F4",
          "midi": 65,
          "time": 48.21426000000014,
          "velocity": 0.3937007874015748,
          "duration": 1.0714280000000045
        },
        {
          "name": "A4",
          "midi": 69,
          "time": 48.21426000000014,
          "velocity": 0.3937007874015748,
          "duration": 2.0089275000000058
        },
        {
          "name": "D3",
          "midi": 50,
          "time": 48.21426000000014,
          "velocity": 0.3937007874015748,
          "duration": 2.0089275000000058
        },
        {
          "name": "F3",
          "midi": 53,
          "time": 48.21426000000014,
          "velocity": 0.3937007874015748,
          "duration": 2.0089275000000058
        },
        {
          "name": "A#2",
          "midi": 46,
          "time": 48.21426000000014,
          "velocity": 0.3937007874015748,
          "duration": 2.142856000000009
        },
        {
          "name": "A#3",
          "midi": 58,
          "time": 48.34818850000014,
          "velocity": 0.3937007874015748,
          "duration": 2.0089275000000058
        },
        {
          "name": "D4",
          "midi": 62,
          "time": 49.28568800000014,
          "velocity": 0.3937007874015748,
          "duration": 1.0714280000000045
        },
        {
          "name": "F4",
          "midi": 65,
          "time": 49.28568800000014,
          "velocity": 0.3937007874015748,
          "duration": 1.0714280000000045
        },
        {
          "name": "E4",
          "midi": 64,
          "time": 50.35711600000015,
          "velocity": 0.3937007874015748,
          "duration": 1.0714280000000116
        },
        {
          "name": "G4",
          "midi": 67,
          "time": 50.35711600000015,
          "velocity": 0.3937007874015748,
          "duration": 1.0714280000000116
        },
        {
          "name": "E3",
          "midi": 52,
          "time": 50.35711600000015,
          "velocity": 0.3937007874015748,
          "duration": 0.9374995000000084
        },
        {
          "name": "C3",
          "midi": 48,
          "time": 50.35711600000015,
          "velocity": 0.3937007874015748,
          "duration": 1.0714280000000116
        },
        {
          "name": "G3",
          "midi": 55,
          "time": 50.49104450000015,
          "velocity": 0.3937007874015748,
          "duration": 0.9374995000000084
        },
        {
          "name": "C4",
          "midi": 60,
          "time": 50.62497300000015,
          "velocity": 0.3937007874015748,
          "duration": 0.8035710000000051
        },
        {
          "name": "D4",
          "midi": 62,
          "time": 51.42854400000016,
          "velocity": 0.3937007874015748,
          "duration": 0.26785699999999935
        },
        {
          "name": "F4",
          "midi": 65,
          "time": 51.42854400000016,
          "velocity": 0.3937007874015748,
          "duration": 0.26785699999999935
        },
        {
          "name": "F2",
          "midi": 41,
          "time": 51.42854400000016,
          "velocity": 0.3937007874015748,
          "duration": 0.26785699999999935
        },
        {
          "name": "F3",
          "midi": 53,
          "time": 51.42854400000016,
          "velocity": 0.3937007874015748,
          "duration": 0.26785699999999935
        },
        {
          "name": "D4",
          "midi": 62,
          "time": 51.96425800000016,
          "velocity": 0.3937007874015748,
          "duration": 0.26785699999999935
        },
        {
          "name": "E4",
          "midi": 64,
          "time": 51.96425800000016,
          "velocity": 0.3937007874015748,
          "duration": 0.26785699999999935
        },
        {
          "name": "F2",
          "midi": 41,
          "time": 51.96425800000016,
          "velocity": 0.3937007874015748,
          "duration": 0.26785699999999935
        },
        {
          "name": "E3",
          "midi": 52,
          "time": 51.96425800000016,
          "velocity": 0.3937007874015748,
          "duration": 0.26785699999999935
        },
        {
          "name": "A#3",
          "midi": 58,
          "time": 52.499972000000156,
          "velocity": 0.3937007874015748,
          "duration": 0.13392850000000323
        },
        {
          "name": "D4",
          "midi": 62,
          "time": 52.499972000000156,
          "velocity": 0.3937007874015748,
          "duration": 0.13392850000000323
        },
        {
          "name": "A#2",
          "midi": 46,
          "time": 52.499972000000156,
          "velocity": 0.3937007874015748,
          "duration": 1.0714280000000187
        },
        {
          "name": "F3",
          "midi": 53,
          "time": 52.499972000000156,
          "velocity": 0.3937007874015748,
          "duration": 1.0714280000000187
        },
        {
          "name": "F4",
          "midi": 65,
          "time": 52.63390050000016,
          "velocity": 0.3937007874015748,
          "duration": 0.13392850000000323
        },
        {
          "name": "E4",
          "midi": 64,
          "time": 52.76782900000016,
          "velocity": 0.3937007874015748,
          "duration": 0.13392850000000323
        },
        {
          "name": "F4",
          "midi": 65,
          "time": 52.901757500000166,
          "velocity": 0.3937007874015748,
          "duration": 0.13392850000000323
        },
        {
          "name": "D4",
          "midi": 62,
          "time": 53.03568600000017,
          "velocity": 0.3937007874015748,
          "duration": 0.40178550000000257
        },
        {
          "name": "A#3",
          "midi": 58,
          "time": 53.43747150000017,
          "velocity": 0.3937007874015748,
          "duration": 0.26785700000000645
        },
        {
          "name": "D4",
          "midi": 62,
          "time": 53.43747150000017,
          "velocity": 0.3937007874015748,
          "duration": 0.26785700000000645
        },
        {
          "name": "A#2",
          "midi": 46,
          "time": 53.571400000000175,
          "velocity": 0.3937007874015748,
          "duration": 1.0714280000000116
        },
        {
          "name": "F3",
          "midi": 53,
          "time": 53.571400000000175,
          "velocity": 0.3937007874015748,
          "duration": 1.0714280000000116
        },
        {
          "name": "E4",
          "midi": 64,
          "time": 53.70532850000018,
          "velocity": 0.3937007874015748,
          "duration": 0.13392850000000323
        },
        {
          "name": "F4",
          "midi": 65,
          "time": 53.83925700000018,
          "velocity": 0.3937007874015748,
          "duration": 0.13392850000000323
        },
        {
          "name": "C5",
          "midi": 72,
          "time": 53.973185500000184,
          "velocity": 0.3937007874015748,
          "duration": 0.13392850000000323
        },
        {
          "name": "A4",
          "midi": 69,
          "time": 54.10711400000019,
          "velocity": 0.3937007874015748,
          "duration": 0.5357139999999987
        },
        {
          "name": "C4",
          "midi": 60,
          "time": 54.642828000000186,
          "velocity": 0.3937007874015748,
          "duration": 0.13392850000000323
        },
        {
          "name": "D4",
          "midi": 62,
          "time": 54.642828000000186,
          "velocity": 0.3937007874015748,
          "duration": 0.13392850000000323
        },
        {
          "name": "C3",
          "midi": 48,
          "time": 54.642828000000186,
          "velocity": 0.3937007874015748,
          "duration": 1.0714280000000187
        },
        {
          "name": "G3",
          "midi": 55,
          "time": 54.642828000000186,
          "velocity": 0.3937007874015748,
          "duration": 1.0714280000000187
        },
        {
          "name": "F4",
          "midi": 65,
          "time": 54.77675650000019,
          "velocity": 0.3937007874015748,
          "duration": 0.13392850000000323
        },
        {
          "name": "E4",
          "midi": 64,
          "time": 54.91068500000019,
          "velocity": 0.3937007874015748,
          "duration": 0.13392850000000323
        },
        {
          "name": "F4",
          "midi": 65,
          "time": 55.044613500000196,
          "velocity": 0.3937007874015748,
          "duration": 0.13392850000000323
        },
        {
          "name": "D4",
          "midi": 62,
          "time": 55.1785420000002,
          "velocity": 0.3937007874015748,
          "duration": 0.40178550000000257
        },
        {
          "name": "C4",
          "midi": 60,
          "time": 55.5803275000002,
          "velocity": 0.3937007874015748,
          "duration": 0.26785700000000645
        },
        {
          "name": "D4",
          "midi": 62,
          "time": 55.5803275000002,
          "velocity": 0.3937007874015748,
          "duration": 0.26785700000000645
        },
        {
          "name": "C3",
          "midi": 48,
          "time": 55.714256000000205,
          "velocity": 0.3937007874015748,
          "duration": 1.0714280000000116
        },
        {
          "name": "G3",
          "midi": 55,
          "time": 55.714256000000205,
          "velocity": 0.3937007874015748,
          "duration": 1.0714280000000116
        },
        {
          "name": "E4",
          "midi": 64,
          "time": 55.84818450000021,
          "velocity": 0.3937007874015748,
          "duration": 0.13392850000000323
        },
        {
          "name": "F4",
          "midi": 65,
          "time": 55.98211300000021,
          "velocity": 0.3937007874015748,
          "duration": 0.13392850000000323
        },
        {
          "name": "C5",
          "midi": 72,
          "time": 56.116041500000215,
          "velocity": 0.3937007874015748,
          "duration": 0.13392850000000323
        },
        {
          "name": "A4",
          "midi": 69,
          "time": 56.24997000000022,
          "velocity": 0.3937007874015748,
          "duration": 0.5357139999999987
        },
        {
          "name": "A3",
          "midi": 57,
          "time": 56.78568400000022,
          "velocity": 0.3937007874015748,
          "duration": 0.13392850000000323
        },
        {
          "name": "D4",
          "midi": 62,
          "time": 56.78568400000022,
          "velocity": 0.3937007874015748,
          "duration": 0.13392850000000323
        },
        {
          "name": "A2",
          "midi": 45,
          "time": 56.78568400000022,
          "velocity": 0.3937007874015748,
          "duration": 1.0714280000000187
        },
        {
          "name": "D3",
          "midi": 50,
          "time": 56.78568400000022,
          "velocity": 0.3937007874015748,
          "duration": 1.0714280000000187
        },
        {
          "name": "F4",
          "midi": 65,
          "time": 56.91961250000022,
          "velocity": 0.3937007874015748,
          "duration": 0.13392850000000323
        },
        {
          "name": "E4",
          "midi": 64,
          "time": 57.05354100000022,
          "velocity": 0.3937007874015748,
          "duration": 0.13392850000000323
        },
        {
          "name": "F4",
          "midi": 65,
          "time": 57.187469500000226,
          "velocity": 0.3937007874015748,
          "duration": 0.13392850000000323
        },
        {
          "name": "D4",
          "midi": 62,
          "time": 57.32139800000023,
          "velocity": 0.3937007874015748,
          "duration": 0.40178550000000257
        },
        {
          "name": "A3",
          "midi": 57,
          "time": 57.72318350000023,
          "velocity": 0.3937007874015748,
          "duration": 0.26785700000000645
        },
        {
          "name": "D4",
          "midi": 62,
          "time": 57.72318350000023,
          "velocity": 0.3937007874015748,
          "duration": 0.26785700000000645
        },
        {
          "name": "A2",
          "midi": 45,
          "time": 57.857112000000235,
          "velocity": 0.3937007874015748,
          "duration": 1.0714280000000116
        },
        {
          "name": "D3",
          "midi": 50,
          "time": 57.857112000000235,
          "velocity": 0.3937007874015748,
          "duration": 1.0714280000000116
        },
        {
          "name": "E4",
          "midi": 64,
          "time": 57.99104050000024,
          "velocity": 0.3937007874015748,
          "duration": 0.13392850000000323
        },
        {
          "name": "F4",
          "midi": 65,
          "time": 58.12496900000024,
          "velocity": 0.3937007874015748,
          "duration": 0.13392850000000323
        },
        {
          "name": "C5",
          "midi": 72,
          "time": 58.258897500000245,
          "velocity": 0.3937007874015748,
          "duration": 0.13392850000000323
        },
        {
          "name": "A4",
          "midi": 69,
          "time": 58.39282600000025,
          "velocity": 0.3937007874015748,
          "duration": 0.5357139999999987
        },
        {
          "name": "A3",
          "midi": 57,
          "time": 58.92854000000025,
          "velocity": 0.3937007874015748,
          "duration": 0.40178550000000257
        },
        {
          "name": "C4",
          "midi": 60,
          "time": 58.92854000000025,
          "velocity": 0.3937007874015748,
          "duration": 0.40178550000000257
        },
        {
          "name": "A2",
          "midi": 45,
          "time": 58.92854000000025,
          "velocity": 0.3937007874015748,
          "duration": 1.0714280000000045
        },
        {
          "name": "E3",
          "midi": 52,
          "time": 58.92854000000025,
          "velocity": 0.3937007874015748,
          "duration": 1.0714280000000045
        },
        {
          "name": "G4",
          "midi": 67,
          "time": 59.33032550000025,
          "velocity": 0.3937007874015748,
          "duration": 0.40178550000000257
        },
        {
          "name": "F4",
          "midi": 65,
          "time": 59.73211100000025,
          "velocity": 0.3937007874015748,
          "duration": 0.26785699999999935
        },
        {
          "name": "A3",
          "midi": 57,
          "time": 59.99996800000025,
          "velocity": 0.3937007874015748,
          "duration": 0.13392850000000323
        },
        {
          "name": "E4",
          "midi": 64,
          "time": 59.99996800000025,
          "velocity": 0.3937007874015748,
          "duration": 0.13392850000000323
        },
        {
          "name": "A2",
          "midi": 45,
          "time": 59.99996800000025,
          "velocity": 0.3937007874015748,
          "duration": 1.0714280000000045
        },
        {
          "name": "E3",
          "midi": 52,
          "time": 59.99996800000025,
          "velocity": 0.3937007874015748,
          "duration": 1.0714280000000045
        },
        {
          "name": "D4",
          "midi": 62,
          "time": 60.133896500000255,
          "velocity": 0.3937007874015748,
          "duration": 0.26785699999999935
        },
        {
          "name": "C4",
          "midi": 60,
          "time": 60.401753500000254,
          "velocity": 0.3937007874015748,
          "duration": 0.40178550000000257
        },
        {
          "name": "E4",
          "midi": 64,
          "time": 60.80353900000026,
          "velocity": 0.3937007874015748,
          "duration": 0.26785699999999935
        },
        {
          "name": "A#3",
          "midi": 58,
          "time": 61.071396000000256,
          "velocity": 0.3937007874015748,
          "duration": 0.13392850000000323
        },
        {
          "name": "D4",
          "midi": 62,
          "time": 61.071396000000256,
          "velocity": 0.3937007874015748,
          "duration": 0.13392850000000323
        },
        {
          "name": "A#2",
          "midi": 46,
          "time": 61.071396000000256,
          "velocity": 0.3937007874015748,
          "duration": 1.0714280000000187
        },
        {
          "name": "F3",
          "midi": 53,
          "time": 61.071396000000256,
          "velocity": 0.3937007874015748,
          "duration": 1.0714280000000187
        },
        {
          "name": "F4",
          "midi": 65,
          "time": 61.20532450000026,
          "velocity": 0.3937007874015748,
          "duration": 0.13392850000000323
        },
        {
          "name": "E4",
          "midi": 64,
          "time": 61.33925300000026,
          "velocity": 0.3937007874015748,
          "duration": 0.13392850000000323
        },
        {
          "name": "F4",
          "midi": 65,
          "time": 61.473181500000265,
          "velocity": 0.3937007874015748,
          "duration": 0.13392850000000323
        },
        {
          "name": "D4",
          "midi": 62,
          "time": 61.60711000000027,
          "velocity": 0.3937007874015748,
          "duration": 0.40178550000000257
        },
        {
          "name": "A#3",
          "midi": 58,
          "time": 62.00889550000027,
          "velocity": 0.3937007874015748,
          "duration": 0.26785700000000645
        },
        {
          "name": "D4",
          "midi": 62,
          "time": 62.00889550000027,
          "velocity": 0.3937007874015748,
          "duration": 0.26785700000000645
        },
        {
          "name": "A#2",
          "midi": 46,
          "time": 62.142824000000275,
          "velocity": 0.3937007874015748,
          "duration": 1.0714280000000116
        },
        {
          "name": "F3",
          "midi": 53,
          "time": 62.142824000000275,
          "velocity": 0.3937007874015748,
          "duration": 1.0714280000000116
        },
        {
          "name": "E4",
          "midi": 64,
          "time": 62.27675250000028,
          "velocity": 0.3937007874015748,
          "duration": 0.13392850000000323
        },
        {
          "name": "F4",
          "midi": 65,
          "time": 62.41068100000028,
          "velocity": 0.3937007874015748,
          "duration": 0.13392850000000323
        },
        {
          "name": "C5",
          "midi": 72,
          "time": 62.544609500000284,
          "velocity": 0.3937007874015748,
          "duration": 0.13392850000000323
        },
        {
          "name": "A4",
          "midi": 69,
          "time": 62.67853800000029,
          "velocity": 0.3937007874015748,
          "duration": 0.5357139999999987
        },
        {
          "name": "C4",
          "midi": 60,
          "time": 63.214252000000286,
          "velocity": 0.3937007874015748,
          "duration": 0.13392850000000323
        },
        {
          "name": "D4",
          "midi": 62,
          "time": 63.214252000000286,
          "velocity": 0.3937007874015748,
          "duration": 0.13392850000000323
        },
        {
          "name": "C3",
          "midi": 48,
          "time": 63.214252000000286,
          "velocity": 0.3937007874015748,
          "duration": 1.0714280000000116
        },
        {
          "name": "G3",
          "midi": 55,
          "time": 63.214252000000286,
          "velocity": 0.3937007874015748,
          "duration": 1.0714280000000116
        },
        {
          "name": "F4",
          "midi": 65,
          "time": 63.34818050000029,
          "velocity": 0.3937007874015748,
          "duration": 0.13392850000000323
        },
        {
          "name": "E4",
          "midi": 64,
          "time": 63.48210900000029,
          "velocity": 0.3937007874015748,
          "duration": 0.13392850000000323
        },
        {
          "name": "F4",
          "midi": 65,
          "time": 63.616037500000296,
          "velocity": 0.3937007874015748,
          "duration": 0.13392850000000323
        },
        {
          "name": "D4",
          "midi": 62,
          "time": 63.7499660000003,
          "velocity": 0.3937007874015748,
          "duration": 0.40178550000000257
        },
        {
          "name": "C4",
          "midi": 60,
          "time": 64.1517515000003,
          "velocity": 0.3937007874015748,
          "duration": 0.26785699999999224
        },
        {
          "name": "D4",
          "midi": 62,
          "time": 64.1517515000003,
          "velocity": 0.3937007874015748,
          "duration": 0.26785699999999224
        },
        {
          "name": "C3",
          "midi": 48,
          "time": 64.2856800000003,
          "velocity": 0.3937007874015748,
          "duration": 1.0714279999999832
        },
        {
          "name": "G3",
          "midi": 55,
          "time": 64.2856800000003,
          "velocity": 0.3937007874015748,
          "duration": 1.0714279999999832
        },
        {
          "name": "E4",
          "midi": 64,
          "time": 64.4196085000003,
          "velocity": 0.3937007874015748,
          "duration": 0.13392849999999612
        },
        {
          "name": "F4",
          "midi": 65,
          "time": 64.55353700000029,
          "velocity": 0.3937007874015748,
          "duration": 0.13392849999999612
        },
        {
          "name": "C5",
          "midi": 72,
          "time": 64.68746550000029,
          "velocity": 0.3937007874015748,
          "duration": 0.13392849999999612
        },
        {
          "name": "A4",
          "midi": 69,
          "time": 64.82139400000028,
          "velocity": 0.3937007874015748,
          "duration": 0.5357139999999987
        },
        {
          "name": "A3",
          "midi": 57,
          "time": 65.35710800000028,
          "velocity": 0.3937007874015748,
          "duration": 0.13392849999999612
        },
        {
          "name": "D4",
          "midi": 62,
          "time": 65.35710800000028,
          "velocity": 0.3937007874015748,
          "duration": 0.13392849999999612
        },
        {
          "name": "A2",
          "midi": 45,
          "time": 65.35710800000028,
          "velocity": 0.3937007874015748,
          "duration": 1.0714279999999832
        },
        {
          "name": "D3",
          "midi": 50,
          "time": 65.35710800000028,
          "velocity": 0.3937007874015748,
          "duration": 1.0714279999999832
        },
        {
          "name": "F4",
          "midi": 65,
          "time": 65.49103650000028,
          "velocity": 0.3937007874015748,
          "duration": 0.13392849999999612
        },
        {
          "name": "E4",
          "midi": 64,
          "time": 65.62496500000027,
          "velocity": 0.3937007874015748,
          "duration": 0.13392849999999612
        },
        {
          "name": "F4",
          "midi": 65,
          "time": 65.75889350000027,
          "velocity": 0.3937007874015748,
          "duration": 0.13392849999999612
        },
        {
          "name": "D4",
          "midi": 62,
          "time": 65.89282200000027,
          "velocity": 0.3937007874015748,
          "duration": 0.40178550000000257
        },
        {
          "name": "A3",
          "midi": 57,
          "time": 66.29460750000027,
          "velocity": 0.3937007874015748,
          "duration": 0.26785699999999224
        },
        {
          "name": "D4",
          "midi": 62,
          "time": 66.29460750000027,
          "velocity": 0.3937007874015748,
          "duration": 0.26785699999999224
        },
        {
          "name": "A2",
          "midi": 45,
          "time": 66.42853600000026,
          "velocity": 0.3937007874015748,
          "duration": 1.0714279999999832
        },
        {
          "name": "D3",
          "midi": 50,
          "time": 66.42853600000026,
          "velocity": 0.3937007874015748,
          "duration": 1.0714279999999832
        },
        {
          "name": "E4",
          "midi": 64,
          "time": 66.56246450000026,
          "velocity": 0.3937007874015748,
          "duration": 0.13392849999999612
        },
        {
          "name": "F4",
          "midi": 65,
          "time": 66.69639300000026,
          "velocity": 0.3937007874015748,
          "duration": 0.13392849999999612
        },
        {
          "name": "C5",
          "midi": 72,
          "time": 66.83032150000025,
          "velocity": 0.3937007874015748,
          "duration": 0.13392849999999612
        },
        {
          "name": "A4",
          "midi": 69,
          "time": 66.96425000000025,
          "velocity": 0.3937007874015748,
          "duration": 0.5357139999999987
        },
        {
          "name": "A3",
          "midi": 57,
          "time": 67.49996400000025,
          "velocity": 0.3937007874015748,
          "duration": 0.40178550000000257
        },
        {
          "name": "C4",
          "midi": 60,
          "time": 67.49996400000025,
          "velocity": 0.3937007874015748,
          "duration": 0.40178550000000257
        },
        {
          "name": "A2",
          "midi": 45,
          "time": 67.49996400000025,
          "velocity": 0.3937007874015748,
          "duration": 1.0714280000000116
        },
        {
          "name": "E3",
          "midi": 52,
          "time": 67.49996400000025,
          "velocity": 0.3937007874015748,
          "duration": 1.0714280000000116
        },
        {
          "name": "G4",
          "midi": 67,
          "time": 67.90174950000025,
          "velocity": 0.3937007874015748,
          "duration": 0.40178550000000257
        },
        {
          "name": "F4",
          "midi": 65,
          "time": 68.30353500000025,
          "velocity": 0.3937007874015748,
          "duration": 0.26785700000000645
        },
        {
          "name": "A3",
          "midi": 57,
          "time": 68.57139200000026,
          "velocity": 0.3937007874015748,
          "duration": 0.13392849999999612
        },
        {
          "name": "E4",
          "midi": 64,
          "time": 68.57139200000026,
          "velocity": 0.3937007874015748,
          "duration": 0.13392849999999612
        },
        {
          "name": "A2",
          "midi": 45,
          "time": 68.57139200000026,
          "velocity": 0.3937007874015748,
          "duration": 1.0714280000000116
        },
        {
          "name": "E3",
          "midi": 52,
          "time": 68.57139200000026,
          "velocity": 0.3937007874015748,
          "duration": 1.0714280000000116
        },
        {
          "name": "D4",
          "midi": 62,
          "time": 68.70532050000025,
          "velocity": 0.3937007874015748,
          "duration": 0.26785700000000645
        },
        {
          "name": "C4",
          "midi": 60,
          "time": 68.97317750000026,
          "velocity": 0.3937007874015748,
          "duration": 0.40178550000000257
        },
        {
          "name": "E4",
          "midi": 64,
          "time": 69.37496300000026,
          "velocity": 0.3937007874015748,
          "duration": 0.26785700000000645
        },
        {
          "name": "A#4",
          "midi": 70,
          "time": 69.64282000000027,
          "velocity": 0.3937007874015748,
          "duration": 0.13392849999999612
        },
        {
          "name": "D5",
          "midi": 74,
          "time": 69.64282000000027,
          "velocity": 0.3937007874015748,
          "duration": 0.13392849999999612
        },
        {
          "name": "A#2",
          "midi": 46,
          "time": 69.64282000000027,
          "velocity": 0.3937007874015748,
          "duration": 0.5357139999999845
        },
        {
          "name": "F3",
          "midi": 53,
          "time": 69.64282000000027,
          "velocity": 0.3937007874015748,
          "duration": 0.5357139999999845
        },
        {
          "name": "F5",
          "midi": 77,
          "time": 69.77674850000027,
          "velocity": 0.3937007874015748,
          "duration": 0.13392849999999612
        },
        {
          "name": "E5",
          "midi": 76,
          "time": 69.91067700000026,
          "velocity": 0.3937007874015748,
          "duration": 0.13392849999999612
        },
        {
          "name": "F5",
          "midi": 77,
          "time": 70.04460550000026,
          "velocity": 0.3937007874015748,
          "duration": 0.13392849999999612
        },
        {
          "name": "D5",
          "midi": 74,
          "time": 70.17853400000025,
          "velocity": 0.3937007874015748,
          "duration": 0.40178550000000257
        },
        {
          "name": "A#2",
          "midi": 46,
          "time": 70.17853400000025,
          "velocity": 0.3937007874015748,
          "duration": 0.40178550000000257
        },
        {
          "name": "F3",
          "midi": 53,
          "time": 70.17853400000025,
          "velocity": 0.3937007874015748,
          "duration": 0.40178550000000257
        },
        {
          "name": "A#4",
          "midi": 70,
          "time": 70.58031950000026,
          "velocity": 0.3937007874015748,
          "duration": 0.26785699999999224
        },
        {
          "name": "D5",
          "midi": 74,
          "time": 70.58031950000026,
          "velocity": 0.3937007874015748,
          "duration": 0.26785699999999224
        },
        {
          "name": "A#2",
          "midi": 46,
          "time": 70.58031950000026,
          "velocity": 0.3937007874015748,
          "duration": 0.13392849999999612
        },
        {
          "name": "F3",
          "midi": 53,
          "time": 70.58031950000026,
          "velocity": 0.3937007874015748,
          "duration": 0.13392849999999612
        },
        {
          "name": "E5",
          "midi": 76,
          "time": 70.84817650000025,
          "velocity": 0.3937007874015748,
          "duration": 0.13392849999999612
        },
        {
          "name": "F5",
          "midi": 77,
          "time": 70.98210500000025,
          "velocity": 0.3937007874015748,
          "duration": 0.13392849999999612
        },
        {
          "name": "C6",
          "midi": 84,
          "time": 71.11603350000024,
          "velocity": 0.3937007874015748,
          "duration": 0.13392849999999612
        },
        {
          "name": "A5",
          "midi": 81,
          "time": 71.24996200000024,
          "velocity": 0.3937007874015748,
          "duration": 0.5357139999999987
        },
        {
          "name": "A#2",
          "midi": 46,
          "time": 71.24996200000024,
          "velocity": 0.3937007874015748,
          "duration": 0.5357139999999987
        },
        {
          "name": "F3",
          "midi": 53,
          "time": 71.24996200000024,
          "velocity": 0.3937007874015748,
          "duration": 0.5357139999999987
        },
        {
          "name": "C5",
          "midi": 72,
          "time": 71.78567600000024,
          "velocity": 0.3937007874015748,
          "duration": 0.13392849999999612
        },
        {
          "name": "D5",
          "midi": 74,
          "time": 71.78567600000024,
          "velocity": 0.3937007874015748,
          "duration": 0.13392849999999612
        },
        {
          "name": "C3",
          "midi": 48,
          "time": 71.78567600000024,
          "velocity": 0.3937007874015748,
          "duration": 0.5357139999999845
        },
        {
          "name": "G3",
          "midi": 55,
          "time": 71.78567600000024,
          "velocity": 0.3937007874015748,
          "duration": 0.5357139999999845
        },
        {
          "name": "F5",
          "midi": 77,
          "time": 71.91960450000023,
          "velocity": 0.3937007874015748,
          "duration": 0.13392849999999612
        },
        {
          "name": "E5",
          "midi": 76,
          "time": 72.05353300000023,
          "velocity": 0.3937007874015748,
          "duration": 0.13392849999999612
        },
        {
          "name": "F5",
          "midi": 77,
          "time": 72.18746150000023,
          "velocity": 0.3937007874015748,
          "duration": 0.13392849999999612
        },
        {
          "name": "D5",
          "midi": 74,
          "time": 72.32139000000022,
          "velocity": 0.3937007874015748,
          "duration": 0.40178550000000257
        },
        {
          "name": "C3",
          "midi": 48,
          "time": 72.32139000000022,
          "velocity": 0.3937007874015748,
          "duration": 0.40178550000000257
        },
        {
          "name": "G3",
          "midi": 55,
          "time": 72.32139000000022,
          "velocity": 0.3937007874015748,
          "duration": 0.40178550000000257
        },
        {
          "name": "C5",
          "midi": 72,
          "time": 72.72317550000022,
          "velocity": 0.3937007874015748,
          "duration": 0.26785699999999224
        },
        {
          "name": "D5",
          "midi": 74,
          "time": 72.72317550000022,
          "velocity": 0.3937007874015748,
          "duration": 0.26785699999999224
        },
        {
          "name": "C3",
          "midi": 48,
          "time": 72.72317550000022,
          "velocity": 0.3937007874015748,
          "duration": 0.13392849999999612
        },
        {
          "name": "G3",
          "midi": 55,
          "time": 72.72317550000022,
          "velocity": 0.3937007874015748,
          "duration": 0.13392849999999612
        },
        {
          "name": "E5",
          "midi": 76,
          "time": 72.99103250000022,
          "velocity": 0.3937007874015748,
          "duration": 0.13392849999999612
        },
        {
          "name": "F5",
          "midi": 77,
          "time": 73.12496100000021,
          "velocity": 0.3937007874015748,
          "duration": 0.13392849999999612
        },
        {
          "name": "C6",
          "midi": 84,
          "time": 73.25888950000021,
          "velocity": 0.3937007874015748,
          "duration": 0.13392849999999612
        },
        {
          "name": "A5",
          "midi": 81,
          "time": 73.3928180000002,
          "velocity": 0.3937007874015748,
          "duration": 0.5357139999999987
        },
        {
          "name": "C3",
          "midi": 48,
          "time": 73.3928180000002,
          "velocity": 0.3937007874015748,
          "duration": 0.5357139999999987
        },
        {
          "name": "G3",
          "midi": 55,
          "time": 73.3928180000002,
          "velocity": 0.3937007874015748,
          "duration": 0.5357139999999987
        },
        {
          "name": "A4",
          "midi": 69,
          "time": 73.9285320000002,
          "velocity": 0.3937007874015748,
          "duration": 0.13392849999999612
        },
        {
          "name": "D5",
          "midi": 74,
          "time": 73.9285320000002,
          "velocity": 0.3937007874015748,
          "duration": 0.13392849999999612
        },
        {
          "name": "A2",
          "midi": 45,
          "time": 73.9285320000002,
          "velocity": 0.3937007874015748,
          "duration": 0.5357139999999845
        },
        {
          "name": "D3",
          "midi": 50,
          "time": 73.9285320000002,
          "velocity": 0.3937007874015748,
          "duration": 0.5357139999999845
        },
        {
          "name": "F5",
          "midi": 77,
          "time": 74.0624605000002,
          "velocity": 0.3937007874015748,
          "duration": 0.13392849999999612
        },
        {
          "name": "E5",
          "midi": 76,
          "time": 74.1963890000002,
          "velocity": 0.3937007874015748,
          "duration": 0.13392849999999612
        },
        {
          "name": "F5",
          "midi": 77,
          "time": 74.33031750000019,
          "velocity": 0.3937007874015748,
          "duration": 0.13392849999999612
        },
        {
          "name": "D5",
          "midi": 74,
          "time": 74.46424600000019,
          "velocity": 0.3937007874015748,
          "duration": 0.40178550000000257
        },
        {
          "name": "A2",
          "midi": 45,
          "time": 74.46424600000019,
          "velocity": 0.3937007874015748,
          "duration": 0.40178550000000257
        },
        {
          "name": "D3",
          "midi": 50,
          "time": 74.46424600000019,
          "velocity": 0.3937007874015748,
          "duration": 0.40178550000000257
        },
        {
          "name": "A4",
          "midi": 69,
          "time": 74.86603150000019,
          "velocity": 0.3937007874015748,
          "duration": 0.26785699999999224
        },
        {
          "name": "D5",
          "midi": 74,
          "time": 74.86603150000019,
          "velocity": 0.3937007874015748,
          "duration": 0.26785699999999224
        },
        {
          "name": "A2",
          "midi": 45,
          "time": 74.86603150000019,
          "velocity": 0.3937007874015748,
          "duration": 0.13392849999999612
        },
        {
          "name": "D3",
          "midi": 50,
          "time": 74.86603150000019,
          "velocity": 0.3937007874015748,
          "duration": 0.13392849999999612
        },
        {
          "name": "E5",
          "midi": 76,
          "time": 75.13388850000018,
          "velocity": 0.3937007874015748,
          "duration": 0.13392849999999612
        },
        {
          "name": "F5",
          "midi": 77,
          "time": 75.26781700000018,
          "velocity": 0.3937007874015748,
          "duration": 0.13392849999999612
        },
        {
          "name": "C6",
          "midi": 84,
          "time": 75.40174550000017,
          "velocity": 0.3937007874015748,
          "duration": 0.13392849999999612
        },
        {
          "name": "A5",
          "midi": 81,
          "time": 75.53567400000017,
          "velocity": 0.3937007874015748,
          "duration": 0.5357139999999987
        },
        {
          "name": "A2",
          "midi": 45,
          "time": 75.53567400000017,
          "velocity": 0.3937007874015748,
          "duration": 0.5357139999999987
        },
        {
          "name": "D3",
          "midi": 50,
          "time": 75.53567400000017,
          "velocity": 0.3937007874015748,
          "duration": 0.5357139999999987
        },
        {
          "name": "E4",
          "midi": 64,
          "time": 76.07138800000017,
          "velocity": 0.3937007874015748,
          "duration": 0.40178550000000257
        },
        {
          "name": "C5",
          "midi": 72,
          "time": 76.07138800000017,
          "velocity": 0.3937007874015748,
          "duration": 0.40178550000000257
        },
        {
          "name": "A2",
          "midi": 45,
          "time": 76.07138800000017,
          "velocity": 0.3937007874015748,
          "duration": 1.0714280000000116
        },
        {
          "name": "E3",
          "midi": 52,
          "time": 76.07138800000017,
          "velocity": 0.3937007874015748,
          "duration": 1.0714280000000116
        },
        {
          "name": "G5",
          "midi": 79,
          "time": 76.47317350000017,
          "velocity": 0.3937007874015748,
          "duration": 0.40178550000000257
        },
        {
          "name": "F5",
          "midi": 77,
          "time": 76.87495900000017,
          "velocity": 0.3937007874015748,
          "duration": 0.26785700000000645
        },
        {
          "name": "E4",
          "midi": 64,
          "time": 77.14281600000018,
          "velocity": 0.3937007874015748,
          "duration": 0.13392849999999612
        },
        {
          "name": "E5",
          "midi": 76,
          "time": 77.14281600000018,
          "velocity": 0.3937007874015748,
          "duration": 0.13392849999999612
        },
        {
          "name": "A2",
          "midi": 45,
          "time": 77.14281600000018,
          "velocity": 0.3937007874015748,
          "duration": 1.0714280000000116
        },
        {
          "name": "E3",
          "midi": 52,
          "time": 77.14281600000018,
          "velocity": 0.3937007874015748,
          "duration": 1.0714280000000116
        },
        {
          "name": "D5",
          "midi": 74,
          "time": 77.27674450000018,
          "velocity": 0.3937007874015748,
          "duration": 0.26785700000000645
        },
        {
          "name": "C5",
          "midi": 72,
          "time": 77.54460150000018,
          "velocity": 0.3937007874015748,
          "duration": 0.40178550000000257
        },
        {
          "name": "E5",
          "midi": 76,
          "time": 77.94638700000019,
          "velocity": 0.3937007874015748,
          "duration": 0.26785700000000645
        },
        {
          "name": "A#4",
          "midi": 70,
          "time": 78.21424400000019,
          "velocity": 0.3937007874015748,
          "duration": 0.13392849999999612
        },
        {
          "name": "D5",
          "midi": 74,
          "time": 78.21424400000019,
          "velocity": 0.3937007874015748,
          "duration": 0.13392849999999612
        },
        {
          "name": "A#2",
          "midi": 46,
          "time": 78.21424400000019,
          "velocity": 0.3937007874015748,
          "duration": 0.5357139999999845
        },
        {
          "name": "F3",
          "midi": 53,
          "time": 78.21424400000019,
          "velocity": 0.3937007874015748,
          "duration": 0.5357139999999845
        },
        {
          "name": "F5",
          "midi": 77,
          "time": 78.34817250000019,
          "velocity": 0.3937007874015748,
          "duration": 0.13392849999999612
        },
        {
          "name": "E5",
          "midi": 76,
          "time": 78.48210100000018,
          "velocity": 0.3937007874015748,
          "duration": 0.13392849999999612
        },
        {
          "name": "F5",
          "midi": 77,
          "time": 78.61602950000018,
          "velocity": 0.3937007874015748,
          "duration": 0.13392849999999612
        },
        {
          "name": "D5",
          "midi": 74,
          "time": 78.74995800000018,
          "velocity": 0.3937007874015748,
          "duration": 0.40178550000000257
        },
        {
          "name": "A#2",
          "midi": 46,
          "time": 78.74995800000018,
          "velocity": 0.3937007874015748,
          "duration": 0.40178550000000257
        },
        {
          "name": "F3",
          "midi": 53,
          "time": 78.74995800000018,
          "velocity": 0.3937007874015748,
          "duration": 0.40178550000000257
        },
        {
          "name": "A#4",
          "midi": 70,
          "time": 79.15174350000018,
          "velocity": 0.3937007874015748,
          "duration": 0.26785699999999224
        },
        {
          "name": "D5",
          "midi": 74,
          "time": 79.15174350000018,
          "velocity": 0.3937007874015748,
          "duration": 0.26785699999999224
        },
        {
          "name": "A#2",
          "midi": 46,
          "time": 79.15174350000018,
          "velocity": 0.3937007874015748,
          "duration": 0.13392849999999612
        },
        {
          "name": "F3",
          "midi": 53,
          "time": 79.15174350000018,
          "velocity": 0.3937007874015748,
          "duration": 0.13392849999999612
        },
        {
          "name": "E5",
          "midi": 76,
          "time": 79.41960050000017,
          "velocity": 0.3937007874015748,
          "duration": 0.13392849999999612
        },
        {
          "name": "F5",
          "midi": 77,
          "time": 79.55352900000017,
          "velocity": 0.3937007874015748,
          "duration": 0.13392849999999612
        },
        {
          "name": "C6",
          "midi": 84,
          "time": 79.68745750000016,
          "velocity": 0.3937007874015748,
          "duration": 0.13392849999999612
        },
        {
          "name": "A5",
          "midi": 81,
          "time": 79.82138600000016,
          "velocity": 0.3937007874015748,
          "duration": 0.5357139999999987
        },
        {
          "name": "A#2",
          "midi": 46,
          "time": 79.82138600000016,
          "velocity": 0.3937007874015748,
          "duration": 0.5357139999999987
        },
        {
          "name": "F3",
          "midi": 53,
          "time": 79.82138600000016,
          "velocity": 0.3937007874015748,
          "duration": 0.5357139999999987
        },
        {
          "name": "C5",
          "midi": 72,
          "time": 80.35710000000016,
          "velocity": 0.3937007874015748,
          "duration": 0.13392849999999612
        },
        {
          "name": "D5",
          "midi": 74,
          "time": 80.35710000000016,
          "velocity": 0.3937007874015748,
          "duration": 0.13392849999999612
        },
        {
          "name": "C3",
          "midi": 48,
          "time": 80.35710000000016,
          "velocity": 0.3937007874015748,
          "duration": 0.5357139999999845
        },
        {
          "name": "G3",
          "midi": 55,
          "time": 80.35710000000016,
          "velocity": 0.3937007874015748,
          "duration": 0.5357139999999845
        },
        {
          "name": "F5",
          "midi": 77,
          "time": 80.49102850000016,
          "velocity": 0.3937007874015748,
          "duration": 0.13392849999999612
        },
        {
          "name": "E5",
          "midi": 76,
          "time": 80.62495700000015,
          "velocity": 0.3937007874015748,
          "duration": 0.13392849999999612
        },
        {
          "name": "F5",
          "midi": 77,
          "time": 80.75888550000015,
          "velocity": 0.3937007874015748,
          "duration": 0.13392849999999612
        },
        {
          "name": "D5",
          "midi": 74,
          "time": 80.89281400000014,
          "velocity": 0.3937007874015748,
          "duration": 0.40178550000000257
        },
        {
          "name": "C3",
          "midi": 48,
          "time": 80.89281400000014,
          "velocity": 0.3937007874015748,
          "duration": 0.40178550000000257
        },
        {
          "name": "G3",
          "midi": 55,
          "time": 80.89281400000014,
          "velocity": 0.3937007874015748,
          "duration": 0.40178550000000257
        },
        {
          "name": "C5",
          "midi": 72,
          "time": 81.29459950000015,
          "velocity": 0.3937007874015748,
          "duration": 0.26785700000000645
        },
        {
          "name": "D5",
          "midi": 74,
          "time": 81.29459950000015,
          "velocity": 0.3937007874015748,
          "duration": 0.26785700000000645
        },
        {
          "name": "C3",
          "midi": 48,
          "time": 81.29459950000015,
          "velocity": 0.3937007874015748,
          "duration": 0.26785700000000645
        },
        {
          "name": "G3",
          "midi": 55,
          "time": 81.29459950000015,
          "velocity": 0.3937007874015748,
          "duration": 0.26785700000000645
        },
        {
          "name": "E5",
          "midi": 76,
          "time": 81.56245650000015,
          "velocity": 0.3937007874015748,
          "duration": 0.13392849999999612
        },
        {
          "name": "F5",
          "midi": 77,
          "time": 81.69638500000015,
          "velocity": 0.3937007874015748,
          "duration": 0.13392849999999612
        },
        {
          "name": "C6",
          "midi": 84,
          "time": 81.83031350000014,
          "velocity": 0.3937007874015748,
          "duration": 0.13392849999999612
        },
        {
          "name": "A5",
          "midi": 81,
          "time": 81.96424200000014,
          "velocity": 0.3937007874015748,
          "duration": 0.5357139999999987
        },
        {
          "name": "C3",
          "midi": 48,
          "time": 81.96424200000014,
          "velocity": 0.3937007874015748,
          "duration": 0.5357139999999987
        },
        {
          "name": "G3",
          "midi": 55,
          "time": 81.96424200000014,
          "velocity": 0.3937007874015748,
          "duration": 0.5357139999999987
        },
        {
          "name": "A4",
          "midi": 69,
          "time": 82.49995600000014,
          "velocity": 0.3937007874015748,
          "duration": 0.13392849999999612
        },
        {
          "name": "D5",
          "midi": 74,
          "time": 82.49995600000014,
          "velocity": 0.3937007874015748,
          "duration": 0.13392849999999612
        },
        {
          "name": "A2",
          "midi": 45,
          "time": 82.49995600000014,
          "velocity": 0.3937007874015748,
          "duration": 0.5357139999999845
        },
        {
          "name": "D3",
          "midi": 50,
          "time": 82.49995600000014,
          "velocity": 0.3937007874015748,
          "duration": 0.5357139999999845
        },
        {
          "name": "F5",
          "midi": 77,
          "time": 82.63388450000014,
          "velocity": 0.3937007874015748,
          "duration": 0.13392849999999612
        },
        {
          "name": "E5",
          "midi": 76,
          "time": 82.76781300000013,
          "velocity": 0.3937007874015748,
          "duration": 0.13392849999999612
        },
        {
          "name": "F5",
          "midi": 77,
          "time": 82.90174150000013,
          "velocity": 0.3937007874015748,
          "duration": 0.13392849999999612
        },
        {
          "name": "D5",
          "midi": 74,
          "time": 83.03567000000012,
          "velocity": 0.3937007874015748,
          "duration": 0.40178550000000257
        },
        {
          "name": "A2",
          "midi": 45,
          "time": 83.03567000000012,
          "velocity": 0.3937007874015748,
          "duration": 0.40178550000000257
        },
        {
          "name": "D3",
          "midi": 50,
          "time": 83.03567000000012,
          "velocity": 0.3937007874015748,
          "duration": 0.40178550000000257
        },
        {
          "name": "A4",
          "midi": 69,
          "time": 83.43745550000013,
          "velocity": 0.3937007874015748,
          "duration": 0.26785699999999224
        },
        {
          "name": "D5",
          "midi": 74,
          "time": 83.43745550000013,
          "velocity": 0.3937007874015748,
          "duration": 0.26785699999999224
        },
        {
          "name": "A2",
          "midi": 45,
          "time": 83.43745550000013,
          "velocity": 0.3937007874015748,
          "duration": 0.13392849999999612
        },
        {
          "name": "D3",
          "midi": 50,
          "time": 83.43745550000013,
          "velocity": 0.3937007874015748,
          "duration": 0.13392849999999612
        },
        {
          "name": "E5",
          "midi": 76,
          "time": 83.70531250000012,
          "velocity": 0.3937007874015748,
          "duration": 0.13392849999999612
        },
        {
          "name": "F5",
          "midi": 77,
          "time": 83.83924100000011,
          "velocity": 0.3937007874015748,
          "duration": 0.13392849999999612
        },
        {
          "name": "C6",
          "midi": 84,
          "time": 83.97316950000011,
          "velocity": 0.3937007874015748,
          "duration": 0.13392849999999612
        },
        {
          "name": "A5",
          "midi": 81,
          "time": 84.10709800000011,
          "velocity": 0.3937007874015748,
          "duration": 0.5357139999999987
        },
        {
          "name": "A2",
          "midi": 45,
          "time": 84.10709800000011,
          "velocity": 0.3937007874015748,
          "duration": 0.5357139999999987
        },
        {
          "name": "D3",
          "midi": 50,
          "time": 84.10709800000011,
          "velocity": 0.3937007874015748,
          "duration": 0.5357139999999987
        },
        {
          "name": "E4",
          "midi": 64,
          "time": 84.6428120000001,
          "velocity": 0.3937007874015748,
          "duration": 0.40178550000000257
        },
        {
          "name": "C#5",
          "midi": 73,
          "time": 84.6428120000001,
          "velocity": 0.3937007874015748,
          "duration": 0.40178550000000257
        },
        {
          "name": "A2",
          "midi": 45,
          "time": 84.6428120000001,
          "velocity": 0.3937007874015748,
          "duration": 1.0714280000000116
        },
        {
          "name": "E3",
          "midi": 52,
          "time": 84.6428120000001,
          "velocity": 0.3937007874015748,
          "duration": 1.0714280000000116
        },
        {
          "name": "G5",
          "midi": 79,
          "time": 85.04459750000011,
          "velocity": 0.3937007874015748,
          "duration": 0.40178550000000257
        },
        {
          "name": "F5",
          "midi": 77,
          "time": 85.44638300000011,
          "velocity": 0.3937007874015748,
          "duration": 0.26785700000000645
        },
        {
          "name": "E4",
          "midi": 64,
          "time": 85.71424000000012,
          "velocity": 0.3937007874015748,
          "duration": 0.13392849999999612
        },
        {
          "name": "E5",
          "midi": 76,
          "time": 85.71424000000012,
          "velocity": 0.3937007874015748,
          "duration": 0.13392849999999612
        },
        {
          "name": "A2",
          "midi": 45,
          "time": 85.71424000000012,
          "velocity": 0.3937007874015748,
          "duration": 1.0714280000000116
        },
        {
          "name": "E3",
          "midi": 52,
          "time": 85.71424000000012,
          "velocity": 0.3937007874015748,
          "duration": 1.0714280000000116
        },
        {
          "name": "D5",
          "midi": 74,
          "time": 85.84816850000011,
          "velocity": 0.3937007874015748,
          "duration": 0.26785700000000645
        },
        {
          "name": "C#5",
          "midi": 73,
          "time": 86.11602550000012,
          "velocity": 0.3937007874015748,
          "duration": 0.40178550000000257
        },
        {
          "name": "E5",
          "midi": 76,
          "time": 86.51781100000012,
          "velocity": 0.3937007874015748,
          "duration": 0.26785700000000645
        },
        {
          "name": "A#4",
          "midi": 70,
          "time": 86.78566800000013,
          "velocity": 0.3937007874015748,
          "duration": 0.13392849999999612
        },
        {
          "name": "D5",
          "midi": 74,
          "time": 86.78566800000013,
          "velocity": 0.3937007874015748,
          "duration": 0.13392849999999612
        },
        {
          "name": "A#2",
          "midi": 46,
          "time": 86.78566800000013,
          "velocity": 0.3937007874015748,
          "duration": 0.5357139999999845
        },
        {
          "name": "F3",
          "midi": 53,
          "time": 86.78566800000013,
          "velocity": 0.3937007874015748,
          "duration": 0.5357139999999845
        },
        {
          "name": "F5",
          "midi": 77,
          "time": 86.91959650000013,
          "velocity": 0.3937007874015748,
          "duration": 0.13392849999999612
        },
        {
          "name": "E5",
          "midi": 76,
          "time": 87.05352500000012,
          "velocity": 0.3937007874015748,
          "duration": 0.13392849999999612
        },
        {
          "name": "F5",
          "midi": 77,
          "time": 87.18745350000012,
          "velocity": 0.3937007874015748,
          "duration": 0.13392849999999612
        },
        {
          "name": "D5",
          "midi": 74,
          "time": 87.32138200000011,
          "velocity": 0.3937007874015748,
          "duration": 0.40178550000000257
        },
        {
          "name": "A#2",
          "midi": 46,
          "time": 87.32138200000011,
          "velocity": 0.3937007874015748,
          "duration": 0.40178550000000257
        },
        {
          "name": "F3",
          "midi": 53,
          "time": 87.32138200000011,
          "velocity": 0.3937007874015748,
          "duration": 0.40178550000000257
        },
        {
          "name": "A#4",
          "midi": 70,
          "time": 87.72316750000012,
          "velocity": 0.3937007874015748,
          "duration": 0.26785699999999224
        },
        {
          "name": "D5",
          "midi": 74,
          "time": 87.72316750000012,
          "velocity": 0.3937007874015748,
          "duration": 0.26785699999999224
        },
        {
          "name": "A#2",
          "midi": 46,
          "time": 87.72316750000012,
          "velocity": 0.3937007874015748,
          "duration": 0.13392849999999612
        },
        {
          "name": "F3",
          "midi": 53,
          "time": 87.72316750000012,
          "velocity": 0.3937007874015748,
          "duration": 0.13392849999999612
        },
        {
          "name": "E5",
          "midi": 76,
          "time": 87.99102450000011,
          "velocity": 0.3937007874015748,
          "duration": 0.13392849999999612
        },
        {
          "name": "F5",
          "midi": 77,
          "time": 88.1249530000001,
          "velocity": 0.3937007874015748,
          "duration": 0.13392849999999612
        },
        {
          "name": "C6",
          "midi": 84,
          "time": 88.2588815000001,
          "velocity": 0.3937007874015748,
          "duration": 0.13392849999999612
        },
        {
          "name": "A5",
          "midi": 81,
          "time": 88.3928100000001,
          "velocity": 0.3937007874015748,
          "duration": 0.5357139999999987
        },
        {
          "name": "A#2",
          "midi": 46,
          "time": 88.3928100000001,
          "velocity": 0.3937007874015748,
          "duration": 0.5357139999999987
        },
        {
          "name": "F3",
          "midi": 53,
          "time": 88.3928100000001,
          "velocity": 0.3937007874015748,
          "duration": 0.5357139999999987
        },
        {
          "name": "C5",
          "midi": 72,
          "time": 88.9285240000001,
          "velocity": 0.3937007874015748,
          "duration": 0.13392849999999612
        },
        {
          "name": "D5",
          "midi": 74,
          "time": 88.9285240000001,
          "velocity": 0.3937007874015748,
          "duration": 0.13392849999999612
        },
        {
          "name": "C3",
          "midi": 48,
          "time": 88.9285240000001,
          "velocity": 0.3937007874015748,
          "duration": 0.5357139999999845
        },
        {
          "name": "G3",
          "midi": 55,
          "time": 88.9285240000001,
          "velocity": 0.3937007874015748,
          "duration": 0.5357139999999845
        },
        {
          "name": "F5",
          "midi": 77,
          "time": 89.06245250000009,
          "velocity": 0.3937007874015748,
          "duration": 0.13392849999999612
        },
        {
          "name": "E5",
          "midi": 76,
          "time": 89.19638100000009,
          "velocity": 0.3937007874015748,
          "duration": 0.13392849999999612
        },
        {
          "name": "F5",
          "midi": 77,
          "time": 89.33030950000008,
          "velocity": 0.3937007874015748,
          "duration": 0.13392849999999612
        },
        {
          "name": "D5",
          "midi": 74,
          "time": 89.46423800000008,
          "velocity": 0.3937007874015748,
          "duration": 0.40178550000000257
        },
        {
          "name": "C3",
          "midi": 48,
          "time": 89.46423800000008,
          "velocity": 0.3937007874015748,
          "duration": 0.40178550000000257
        },
        {
          "name": "G3",
          "midi": 55,
          "time": 89.46423800000008,
          "velocity": 0.3937007874015748,
          "duration": 0.40178550000000257
        },
        {
          "name": "C5",
          "midi": 72,
          "time": 89.86602350000008,
          "velocity": 0.3937007874015748,
          "duration": 0.26785699999999224
        },
        {
          "name": "D5",
          "midi": 74,
          "time": 89.86602350000008,
          "velocity": 0.3937007874015748,
          "duration": 0.26785699999999224
        },
        {
          "name": "C3",
          "midi": 48,
          "time": 89.86602350000008,
          "velocity": 0.3937007874015748,
          "duration": 0.13392849999999612
        },
        {
          "name": "G3",
          "midi": 55,
          "time": 89.86602350000008,
          "velocity": 0.3937007874015748,
          "duration": 0.13392849999999612
        },
        {
          "name": "E5",
          "midi": 76,
          "time": 90.13388050000007,
          "velocity": 0.3937007874015748,
          "duration": 0.13392849999999612
        },
        {
          "name": "F5",
          "midi": 77,
          "time": 90.26780900000007,
          "velocity": 0.3937007874015748,
          "duration": 0.13392849999999612
        },
        {
          "name": "C6",
          "midi": 84,
          "time": 90.40173750000007,
          "velocity": 0.3937007874015748,
          "duration": 0.13392849999999612
        },
        {
          "name": "A5",
          "midi": 81,
          "time": 90.53566600000006,
          "velocity": 0.3937007874015748,
          "duration": 0.5357139999999987
        },
        {
          "name": "C3",
          "midi": 48,
          "time": 90.53566600000006,
          "velocity": 0.3937007874015748,
          "duration": 0.5357139999999987
        },
        {
          "name": "G3",
          "midi": 55,
          "time": 90.53566600000006,
          "velocity": 0.3937007874015748,
          "duration": 0.5357139999999987
        },
        {
          "name": "A4",
          "midi": 69,
          "time": 91.07138000000006,
          "velocity": 0.3937007874015748,
          "duration": 0.13392849999999612
        },
        {
          "name": "D5",
          "midi": 74,
          "time": 91.07138000000006,
          "velocity": 0.3937007874015748,
          "duration": 0.13392849999999612
        },
        {
          "name": "A2",
          "midi": 45,
          "time": 91.07138000000006,
          "velocity": 0.3937007874015748,
          "duration": 0.5357139999999845
        },
        {
          "name": "D3",
          "midi": 50,
          "time": 91.07138000000006,
          "velocity": 0.3937007874015748,
          "duration": 0.5357139999999845
        },
        {
          "name": "F5",
          "midi": 77,
          "time": 91.20530850000006,
          "velocity": 0.3937007874015748,
          "duration": 0.13392849999999612
        },
        {
          "name": "E5",
          "midi": 76,
          "time": 91.33923700000005,
          "velocity": 0.3937007874015748,
          "duration": 0.13392849999999612
        },
        {
          "name": "F5",
          "midi": 77,
          "time": 91.47316550000005,
          "velocity": 0.3937007874015748,
          "duration": 0.13392849999999612
        },
        {
          "name": "D5",
          "midi": 74,
          "time": 91.60709400000005,
          "velocity": 0.3937007874015748,
          "duration": 0.40178550000000257
        },
        {
          "name": "A2",
          "midi": 45,
          "time": 91.60709400000005,
          "velocity": 0.3937007874015748,
          "duration": 0.40178550000000257
        },
        {
          "name": "D3",
          "midi": 50,
          "time": 91.60709400000005,
          "velocity": 0.3937007874015748,
          "duration": 0.40178550000000257
        },
        {
          "name": "A4",
          "midi": 69,
          "time": 92.00887950000005,
          "velocity": 0.3937007874015748,
          "duration": 0.26785699999999224
        },
        {
          "name": "D5",
          "midi": 74,
          "time": 92.00887950000005,
          "velocity": 0.3937007874015748,
          "duration": 0.26785699999999224
        },
        {
          "name": "A2",
          "midi": 45,
          "time": 92.00887950000005,
          "velocity": 0.3937007874015748,
          "duration": 0.13392849999999612
        },
        {
          "name": "D3",
          "midi": 50,
          "time": 92.00887950000005,
          "velocity": 0.3937007874015748,
          "duration": 0.13392849999999612
        },
        {
          "name": "E5",
          "midi": 76,
          "time": 92.27673650000004,
          "velocity": 0.3937007874015748,
          "duration": 0.13392849999999612
        },
        {
          "name": "F5",
          "midi": 77,
          "time": 92.41066500000004,
          "velocity": 0.3937007874015748,
          "duration": 0.13392849999999612
        },
        {
          "name": "C6",
          "midi": 84,
          "time": 92.54459350000003,
          "velocity": 0.3937007874015748,
          "duration": 0.13392849999999612
        },
        {
          "name": "A5",
          "midi": 81,
          "time": 92.67852200000003,
          "velocity": 0.3937007874015748,
          "duration": 0.5357139999999987
        },
        {
          "name": "A2",
          "midi": 45,
          "time": 92.67852200000003,
          "velocity": 0.3937007874015748,
          "duration": 0.5357139999999987
        },
        {
          "name": "D3",
          "midi": 50,
          "time": 92.67852200000003,
          "velocity": 0.3937007874015748,
          "duration": 0.5357139999999987
        },
        {
          "name": "E4",
          "midi": 64,
          "time": 93.21423600000003,
          "velocity": 0.3937007874015748,
          "duration": 0.40178550000000257
        },
        {
          "name": "C5",
          "midi": 72,
          "time": 93.21423600000003,
          "velocity": 0.3937007874015748,
          "duration": 0.40178550000000257
        },
        {
          "name": "A2",
          "midi": 45,
          "time": 93.21423600000003,
          "velocity": 0.3937007874015748,
          "duration": 1.0714280000000116
        },
        {
          "name": "E3",
          "midi": 52,
          "time": 93.21423600000003,
          "velocity": 0.3937007874015748,
          "duration": 1.0714280000000116
        },
        {
          "name": "G5",
          "midi": 79,
          "time": 93.61602150000003,
          "velocity": 0.3937007874015748,
          "duration": 0.40178550000000257
        },
        {
          "name": "F5",
          "midi": 77,
          "time": 94.01780700000003,
          "velocity": 0.3937007874015748,
          "duration": 0.26785700000000645
        },
        {
          "name": "E4",
          "midi": 64,
          "time": 94.28566400000004,
          "velocity": 0.3937007874015748,
          "duration": 0.13392849999999612
        },
        {
          "name": "E5",
          "midi": 76,
          "time": 94.28566400000004,
          "velocity": 0.3937007874015748,
          "duration": 0.13392849999999612
        },
        {
          "name": "A2",
          "midi": 45,
          "time": 94.28566400000004,
          "velocity": 0.3937007874015748,
          "duration": 1.0714280000000116
        },
        {
          "name": "E3",
          "midi": 52,
          "time": 94.28566400000004,
          "velocity": 0.3937007874015748,
          "duration": 1.0714280000000116
        },
        {
          "name": "D5",
          "midi": 74,
          "time": 94.41959250000004,
          "velocity": 0.3937007874015748,
          "duration": 0.26785700000000645
        },
        {
          "name": "C5",
          "midi": 72,
          "time": 94.68744950000004,
          "velocity": 0.3937007874015748,
          "duration": 0.40178550000000257
        },
        {
          "name": "E5",
          "midi": 76,
          "time": 95.08923500000004,
          "velocity": 0.3937007874015748,
          "duration": 0.26785700000000645
        },
        {
          "name": "A#4",
          "midi": 70,
          "time": 95.35709200000005,
          "velocity": 0.3937007874015748,
          "duration": 0.13392849999999612
        },
        {
          "name": "D5",
          "midi": 74,
          "time": 95.35709200000005,
          "velocity": 0.3937007874015748,
          "duration": 0.13392849999999612
        },
        {
          "name": "A#2",
          "midi": 46,
          "time": 95.35709200000005,
          "velocity": 0.3937007874015748,
          "duration": 0.5357139999999845
        },
        {
          "name": "F3",
          "midi": 53,
          "time": 95.35709200000005,
          "velocity": 0.3937007874015748,
          "duration": 0.5357139999999845
        },
        {
          "name": "F5",
          "midi": 77,
          "time": 95.49102050000005,
          "velocity": 0.3937007874015748,
          "duration": 0.13392849999999612
        },
        {
          "name": "E5",
          "midi": 76,
          "time": 95.62494900000004,
          "velocity": 0.3937007874015748,
          "duration": 0.13392849999999612
        },
        {
          "name": "F5",
          "midi": 77,
          "time": 95.75887750000004,
          "velocity": 0.3937007874015748,
          "duration": 0.13392849999999612
        },
        {
          "name": "D5",
          "midi": 74,
          "time": 95.89280600000004,
          "velocity": 0.3937007874015748,
          "duration": 0.40178550000000257
        },
        {
          "name": "A#2",
          "midi": 46,
          "time": 95.89280600000004,
          "velocity": 0.3937007874015748,
          "duration": 0.40178550000000257
        },
        {
          "name": "F3",
          "midi": 53,
          "time": 95.89280600000004,
          "velocity": 0.3937007874015748,
          "duration": 0.40178550000000257
        },
        {
          "name": "A#4",
          "midi": 70,
          "time": 96.29459150000004,
          "velocity": 0.3937007874015748,
          "duration": 0.26785699999999224
        },
        {
          "name": "D5",
          "midi": 74,
          "time": 96.29459150000004,
          "velocity": 0.3937007874015748,
          "duration": 0.26785699999999224
        },
        {
          "name": "A#2",
          "midi": 46,
          "time": 96.29459150000004,
          "velocity": 0.3937007874015748,
          "duration": 0.13392849999999612
        },
        {
          "name": "F3",
          "midi": 53,
          "time": 96.29459150000004,
          "velocity": 0.3937007874015748,
          "duration": 0.13392849999999612
        },
        {
          "name": "E5",
          "midi": 76,
          "time": 96.56244850000003,
          "velocity": 0.3937007874015748,
          "duration": 0.13392849999999612
        },
        {
          "name": "F5",
          "midi": 77,
          "time": 96.69637700000003,
          "velocity": 0.3937007874015748,
          "duration": 0.13392849999999612
        },
        {
          "name": "C6",
          "midi": 84,
          "time": 96.83030550000002,
          "velocity": 0.3937007874015748,
          "duration": 0.13392849999999612
        },
        {
          "name": "A5",
          "midi": 81,
          "time": 96.96423400000002,
          "velocity": 0.3937007874015748,
          "duration": 0.5357139999999987
        },
        {
          "name": "A#2",
          "midi": 46,
          "time": 96.96423400000002,
          "velocity": 0.3937007874015748,
          "duration": 0.5357139999999987
        },
        {
          "name": "F3",
          "midi": 53,
          "time": 96.96423400000002,
          "velocity": 0.3937007874015748,
          "duration": 0.5357139999999987
        },
        {
          "name": "C5",
          "midi": 72,
          "time": 97.49994800000002,
          "velocity": 0.3937007874015748,
          "duration": 0.13392849999999612
        },
        {
          "name": "D5",
          "midi": 74,
          "time": 97.49994800000002,
          "velocity": 0.3937007874015748,
          "duration": 0.13392849999999612
        },
        {
          "name": "C3",
          "midi": 48,
          "time": 97.49994800000002,
          "velocity": 0.3937007874015748,
          "duration": 0.5357139999999845
        },
        {
          "name": "G3",
          "midi": 55,
          "time": 97.49994800000002,
          "velocity": 0.3937007874015748,
          "duration": 0.5357139999999845
        },
        {
          "name": "F5",
          "midi": 77,
          "time": 97.63387650000001,
          "velocity": 0.3937007874015748,
          "duration": 0.13392849999999612
        },
        {
          "name": "E5",
          "midi": 76,
          "time": 97.76780500000001,
          "velocity": 0.3937007874015748,
          "duration": 0.13392849999999612
        },
        {
          "name": "F5",
          "midi": 77,
          "time": 97.9017335,
          "velocity": 0.3937007874015748,
          "duration": 0.13392849999999612
        },
        {
          "name": "D5",
          "midi": 74,
          "time": 98.035662,
          "velocity": 0.3937007874015748,
          "duration": 0.40178550000000257
        },
        {
          "name": "C3",
          "midi": 48,
          "time": 98.035662,
          "velocity": 0.3937007874015748,
          "duration": 0.40178550000000257
        },
        {
          "name": "G3",
          "midi": 55,
          "time": 98.035662,
          "velocity": 0.3937007874015748,
          "duration": 0.40178550000000257
        },
        {
          "name": "C5",
          "midi": 72,
          "time": 98.4374475,
          "velocity": 0.3937007874015748,
          "duration": 0.26785700000000645
        },
        {
          "name": "D5",
          "midi": 74,
          "time": 98.4374475,
          "velocity": 0.3937007874015748,
          "duration": 0.26785700000000645
        },
        {
          "name": "C3",
          "midi": 48,
          "time": 98.4374475,
          "velocity": 0.3937007874015748,
          "duration": 0.26785700000000645
        },
        {
          "name": "G3",
          "midi": 55,
          "time": 98.4374475,
          "velocity": 0.3937007874015748,
          "duration": 0.26785700000000645
        },
        {
          "name": "E5",
          "midi": 76,
          "time": 98.70530450000001,
          "velocity": 0.3937007874015748,
          "duration": 0.13392849999999612
        },
        {
          "name": "F5",
          "midi": 77,
          "time": 98.83923300000001,
          "velocity": 0.3937007874015748,
          "duration": 0.13392849999999612
        },
        {
          "name": "C6",
          "midi": 84,
          "time": 98.9731615,
          "velocity": 0.3937007874015748,
          "duration": 0.13392849999999612
        },
        {
          "name": "A5",
          "midi": 81,
          "time": 99.10709,
          "velocity": 0.3937007874015748,
          "duration": 0.5357139999999987
        },
        {
          "name": "C3",
          "midi": 48,
          "time": 99.10709,
          "velocity": 0.3937007874015748,
          "duration": 0.5357139999999987
        },
        {
          "name": "G3",
          "midi": 55,
          "time": 99.10709,
          "velocity": 0.3937007874015748,
          "duration": 0.5357139999999987
        },
        {
          "name": "A4",
          "midi": 69,
          "time": 99.642804,
          "velocity": 0.3937007874015748,
          "duration": 0.13392849999999612
        },
        {
          "name": "D5",
          "midi": 74,
          "time": 99.642804,
          "velocity": 0.3937007874015748,
          "duration": 0.13392849999999612
        },
        {
          "name": "A2",
          "midi": 45,
          "time": 99.642804,
          "velocity": 0.3937007874015748,
          "duration": 0.5357139999999845
        },
        {
          "name": "D3",
          "midi": 50,
          "time": 99.642804,
          "velocity": 0.3937007874015748,
          "duration": 0.5357139999999845
        },
        {
          "name": "F5",
          "midi": 77,
          "time": 99.7767325,
          "velocity": 0.3937007874015748,
          "duration": 0.13392849999999612
        },
        {
          "name": "E5",
          "midi": 76,
          "time": 99.91066099999999,
          "velocity": 0.3937007874015748,
          "duration": 0.13392849999999612
        },
        {
          "name": "F5",
          "midi": 77,
          "time": 100.04458949999999,
          "velocity": 0.3937007874015748,
          "duration": 0.13392849999999612
        },
        {
          "name": "D5",
          "midi": 74,
          "time": 100.17851799999998,
          "velocity": 0.3937007874015748,
          "duration": 0.40178550000000257
        },
        {
          "name": "A2",
          "midi": 45,
          "time": 100.17851799999998,
          "velocity": 0.3937007874015748,
          "duration": 0.40178550000000257
        },
        {
          "name": "D3",
          "midi": 50,
          "time": 100.17851799999998,
          "velocity": 0.3937007874015748,
          "duration": 0.40178550000000257
        },
        {
          "name": "A4",
          "midi": 69,
          "time": 100.58030349999999,
          "velocity": 0.3937007874015748,
          "duration": 0.26785699999999224
        },
        {
          "name": "D5",
          "midi": 74,
          "time": 100.58030349999999,
          "velocity": 0.3937007874015748,
          "duration": 0.26785699999999224
        },
        {
          "name": "A2",
          "midi": 45,
          "time": 100.58030349999999,
          "velocity": 0.3937007874015748,
          "duration": 0.13392849999999612
        },
        {
          "name": "D3",
          "midi": 50,
          "time": 100.58030349999999,
          "velocity": 0.3937007874015748,
          "duration": 0.13392849999999612
        },
        {
          "name": "E5",
          "midi": 76,
          "time": 100.84816049999998,
          "velocity": 0.3937007874015748,
          "duration": 0.13392849999999612
        },
        {
          "name": "F5",
          "midi": 77,
          "time": 100.98208899999997,
          "velocity": 0.3937007874015748,
          "duration": 0.13392849999999612
        },
        {
          "name": "C6",
          "midi": 84,
          "time": 101.11601749999997,
          "velocity": 0.3937007874015748,
          "duration": 0.13392849999999612
        },
        {
          "name": "A5",
          "midi": 81,
          "time": 101.24994599999997,
          "velocity": 0.3937007874015748,
          "duration": 0.5357139999999987
        },
        {
          "name": "A2",
          "midi": 45,
          "time": 101.24994599999997,
          "velocity": 0.3937007874015748,
          "duration": 0.5357139999999987
        },
        {
          "name": "D3",
          "midi": 50,
          "time": 101.24994599999997,
          "velocity": 0.3937007874015748,
          "duration": 0.5357139999999987
        },
        {
          "name": "C#5",
          "midi": 73,
          "time": 101.78565999999996,
          "velocity": 0.3937007874015748,
          "duration": 0.40178550000000257
        },
        {
          "name": "A2",
          "midi": 45,
          "time": 101.78565999999996,
          "velocity": 0.3937007874015748,
          "duration": 0.26785700000000645
        },
        {
          "name": "C#3",
          "midi": 49,
          "time": 102.05351699999997,
          "velocity": 0.3937007874015748,
          "duration": 0.26785699999999224
        },
        {
          "name": "G5",
          "midi": 79,
          "time": 102.18744549999997,
          "velocity": 0.3937007874015748,
          "duration": 0.40178550000000257
        },
        {
          "name": "E3",
          "midi": 52,
          "time": 102.32137399999996,
          "velocity": 0.3937007874015748,
          "duration": 0.26785700000000645
        },
        {
          "name": "F5",
          "midi": 77,
          "time": 102.58923099999997,
          "velocity": 0.3937007874015748,
          "duration": 0.26785700000000645
        },
        {
          "name": "A3",
          "midi": 57,
          "time": 102.58923099999997,
          "velocity": 0.3937007874015748,
          "duration": 0.26785700000000645
        },
        {
          "name": "E5",
          "midi": 76,
          "time": 102.85708799999998,
          "velocity": 0.3937007874015748,
          "duration": 0.13392849999999612
        },
        {
          "name": "C#4",
          "midi": 61,
          "time": 102.85708799999998,
          "velocity": 0.3937007874015748,
          "duration": 0.5357139999999987
        },
        {
          "name": "D5",
          "midi": 74,
          "time": 102.99101649999997,
          "velocity": 0.3937007874015748,
          "duration": 0.26785700000000645
        },
        {
          "name": "C#5",
          "midi": 73,
          "time": 103.25887349999998,
          "velocity": 0.3937007874015748,
          "duration": 0.40178550000000257
        },
        {
          "name": "C#3",
          "midi": 49,
          "time": 103.39280199999997,
          "velocity": 0.3937007874015748,
          "duration": 0.5357140000000129
        },
        {
          "name": "E5",
          "midi": 76,
          "time": 103.66065899999998,
          "velocity": 0.3937007874015748,
          "duration": 0.26785700000000645
        },
        {
          "name": "A#4",
          "midi": 70,
          "time": 103.92851599999999,
          "velocity": 0.3937007874015748,
          "duration": 1.4732135000000142
        },
        {
          "name": "F4",
          "midi": 65,
          "time": 103.92851599999999,
          "velocity": 0.3937007874015748,
          "duration": 1.6071420000000103
        },
        {
          "name": "A#2",
          "midi": 46,
          "time": 103.92851599999999,
          "velocity": 0.3937007874015748,
          "duration": 0.40178550000000257
        },
        {
          "name": "D5",
          "midi": 74,
          "time": 104.06244449999998,
          "velocity": 0.3937007874015748,
          "duration": 1.4732135000000142
        },
        {
          "name": "D3",
          "midi": 50,
          "time": 104.33030149999999,
          "velocity": 0.3937007874015748,
          "duration": 0.40178550000000257
        },
        {
          "name": "F3",
          "midi": 53,
          "time": 104.73208699999999,
          "velocity": 0.3937007874015748,
          "duration": 0.26785700000000645
        },
        {
          "name": "A#3",
          "midi": 58,
          "time": 104.999944,
          "velocity": 0.3937007874015748,
          "duration": 1.0714280000000116
        },
        {
          "name": "A4",
          "midi": 69,
          "time": 105.535658,
          "velocity": 0.3937007874015748,
          "duration": 0.26785700000000645
        },
        {
          "name": "C5",
          "midi": 72,
          "time": 105.803515,
          "velocity": 0.3937007874015748,
          "duration": 0.26785700000000645
        },
        {
          "name": "C5",
          "midi": 72,
          "time": 106.07137200000001,
          "velocity": 0.3937007874015748,
          "duration": 0.669642500000009
        },
        {
          "name": "G4",
          "midi": 67,
          "time": 106.07137200000001,
          "velocity": 0.3937007874015748,
          "duration": 0.8035710000000051
        },
        {
          "name": "C3",
          "midi": 48,
          "time": 106.07137200000001,
          "velocity": 0.3937007874015748,
          "duration": 0.40178550000000257
        },
        {
          "name": "D5",
          "midi": 74,
          "time": 106.2053005,
          "velocity": 0.3937007874015748,
          "duration": 0.669642500000009
        },
        {
          "name": "E3",
          "midi": 52,
          "time": 106.47315750000001,
          "velocity": 0.3937007874015748,
          "duration": 0.40178550000000257
        },
        {
          "name": "F5",
          "midi": 77,
          "time": 106.87494300000002,
          "velocity": 0.3937007874015748,
          "duration": 0.26785700000000645
        },
        {
          "name": "G3",
          "midi": 55,
          "time": 106.87494300000002,
          "velocity": 0.3937007874015748,
          "duration": 0.26785700000000645
        },
        {
          "name": "G5",
          "midi": 79,
          "time": 107.14280000000002,
          "velocity": 0.3937007874015748,
          "duration": 0.13392849999999612
        },
        {
          "name": "C4",
          "midi": 60,
          "time": 107.14280000000002,
          "velocity": 0.3937007874015748,
          "duration": 1.0714280000000116
        },
        {
          "name": "F5",
          "midi": 77,
          "time": 107.27672850000002,
          "velocity": 0.3937007874015748,
          "duration": 0.26785700000000645
        },
        {
          "name": "E5",
          "midi": 76,
          "time": 107.54458550000003,
          "velocity": 0.3937007874015748,
          "duration": 0.40178550000000257
        },
        {
          "name": "F5",
          "midi": 77,
          "time": 107.94637100000003,
          "velocity": 0.3937007874015748,
          "duration": 0.26785700000000645
        },
        {
          "name": "A4",
          "midi": 69,
          "time": 108.21422800000003,
          "velocity": 0.3937007874015748,
          "duration": 0.9374995000000013
        },
        {
          "name": "F4",
          "midi": 65,
          "time": 108.21422800000003,
          "velocity": 0.3937007874015748,
          "duration": 1.0714279999999974
        },
        {
          "name": "D2",
          "midi": 38,
          "time": 108.21422800000003,
          "velocity": 0.3937007874015748,
          "duration": 0.40178550000000257
        },
        {
          "name": "D5",
          "midi": 74,
          "time": 108.34815650000003,
          "velocity": 0.3937007874015748,
          "duration": 0.9374995000000013
        },
        {
          "name": "A2",
          "midi": 45,
          "time": 108.61601350000004,
          "velocity": 0.3937007874015748,
          "duration": 0.40178550000000257
        },
        {
          "name": "D3",
          "midi": 50,
          "time": 109.01779900000004,
          "velocity": 0.3937007874015748,
          "duration": 0.26785699999999224
        },
        {
          "name": "A4",
          "midi": 69,
          "time": 109.28565600000003,
          "velocity": 0.3937007874015748,
          "duration": 0.26785700000000645
        },
        {
          "name": "F3",
          "midi": 53,
          "time": 109.28565600000003,
          "velocity": 0.3937007874015748,
          "duration": 1.0714280000000116
        },
        {
          "name": "A4",
          "midi": 69,
          "time": 109.55351300000004,
          "velocity": 0.3937007874015748,
          "duration": 0.13392849999999612
        },
        {
          "name": "C5",
          "midi": 72,
          "time": 109.68744150000003,
          "velocity": 0.3937007874015748,
          "duration": 0.26785700000000645
        },
        {
          "name": "C5",
          "midi": 72,
          "time": 109.95529850000004,
          "velocity": 0.3937007874015748,
          "duration": 0.13392849999999612
        },
        {
          "name": "F5",
          "midi": 77,
          "time": 110.08922700000004,
          "velocity": 0.3937007874015748,
          "duration": 0.26785700000000645
        },
        {
          "name": "C5",
          "midi": 72,
          "time": 110.35708400000004,
          "velocity": 0.3937007874015748,
          "duration": 0.9374995000000013
        },
        {
          "name": "G4",
          "midi": 67,
          "time": 110.35708400000004,
          "velocity": 0.3937007874015748,
          "duration": 1.0714279999999974
        },
        {
          "name": "C3",
          "midi": 48,
          "time": 110.35708400000004,
          "velocity": 0.3937007874015748,
          "duration": 0.40178550000000257
        },
        {
          "name": "E5",
          "midi": 76,
          "time": 110.49101250000004,
          "velocity": 0.3937007874015748,
          "duration": 0.9374995000000013
        },
        {
          "name": "E3",
          "midi": 52,
          "time": 110.75886950000005,
          "velocity": 0.3937007874015748,
          "duration": 0.40178550000000257
        },
        {
          "name": "G3",
          "midi": 55,
          "time": 111.16065500000005,
          "velocity": 0.3937007874015748,
          "duration": 0.26785699999999224
        },
        {
          "name": "F4",
          "midi": 65,
          "time": 111.42851200000004,
          "velocity": 0.3937007874015748,
          "duration": 0.40178550000000257
        },
        {
          "name": "A4",
          "midi": 69,
          "time": 111.42851200000004,
          "velocity": 0.3937007874015748,
          "duration": 0.40178550000000257
        },
        {
          "name": "D5",
          "midi": 74,
          "time": 111.42851200000004,
          "velocity": 0.3937007874015748,
          "duration": 0.40178550000000257
        },
        {
          "name": "D2",
          "midi": 38,
          "time": 111.42851200000004,
          "velocity": 0.3937007874015748,
          "duration": 0.40178550000000257
        },
        {
          "name": "D3",
          "midi": 50,
          "time": 111.42851200000004,
          "velocity": 0.3937007874015748,
          "duration": 0.40178550000000257
        },
        {
          "name": "G4",
          "midi": 67,
          "time": 111.83029750000004,
          "velocity": 0.3937007874015748,
          "duration": 0.40178550000000257
        },
        {
          "name": "C5",
          "midi": 72,
          "time": 111.83029750000004,
          "velocity": 0.3937007874015748,
          "duration": 0.40178550000000257
        },
        {
          "name": "F5",
          "midi": 77,
          "time": 111.83029750000004,
          "velocity": 0.3937007874015748,
          "duration": 0.40178550000000257
        },
        {
          "name": "F2",
          "midi": 41,
          "time": 111.83029750000004,
          "velocity": 0.3937007874015748,
          "duration": 0.40178550000000257
        },
        {
          "name": "F3",
          "midi": 53,
          "time": 111.83029750000004,
          "velocity": 0.3937007874015748,
          "duration": 0.40178550000000257
        },
        {
          "name": "F4",
          "midi": 65,
          "time": 112.23208300000005,
          "velocity": 0.3937007874015748,
          "duration": 0.26785700000000645
        },
        {
          "name": "D5",
          "midi": 74,
          "time": 112.23208300000005,
          "velocity": 0.3937007874015748,
          "duration": 0.26785700000000645
        },
        {
          "name": "G5",
          "midi": 79,
          "time": 112.23208300000005,
          "velocity": 0.3937007874015748,
          "duration": 0.26785700000000645
        },
        {
          "name": "G2",
          "midi": 43,
          "time": 112.23208300000005,
          "velocity": 0.3937007874015748,
          "duration": 0.26785700000000645
        },
        {
          "name": "G3",
          "midi": 55,
          "time": 112.23208300000005,
          "velocity": 0.3937007874015748,
          "duration": 0.26785700000000645
        },
        {
          "name": "A#4",
          "midi": 70,
          "time": 112.49994000000005,
          "velocity": 0.3937007874015748,
          "duration": 1.6071419999999534
        },
        {
          "name": "D5",
          "midi": 74,
          "time": 112.49994000000005,
          "velocity": 0.3937007874015748,
          "duration": 1.6071419999999534
        },
        {
          "name": "A5",
          "midi": 81,
          "time": 112.49994000000005,
          "velocity": 0.3937007874015748,
          "duration": 1.6071419999999534
        },
        {
          "name": "A#1",
          "midi": 34,
          "time": 112.49994000000005,
          "velocity": 0.3937007874015748,
          "duration": 0.13392849999999612
        },
        {
          "name": "F2",
          "midi": 41,
          "time": 112.63386850000005,
          "velocity": 0.3937007874015748,
          "duration": 0.13392849999999612
        },
        {
          "name": "A#2",
          "midi": 46,
          "time": 112.76779700000004,
          "velocity": 0.3937007874015748,
          "duration": 0.13392849999999612
        },
        {
          "name": "F2",
          "midi": 41,
          "time": 112.90172550000004,
          "velocity": 0.3937007874015748,
          "duration": 0.13392849999999612
        },
        {
          "name": "A#1",
          "midi": 34,
          "time": 113.03565400000004,
          "velocity": 0.3937007874015748,
          "duration": 0.13392849999999612
        },
        {
          "name": "F2",
          "midi": 41,
          "time": 113.16958250000003,
          "velocity": 0.3937007874015748,
          "duration": 0.13392849999999612
        },
        {
          "name": "A#2",
          "midi": 46,
          "time": 113.30351100000003,
          "velocity": 0.3937007874015748,
          "duration": 0.13392849999999612
        },
        {
          "name": "F2",
          "midi": 41,
          "time": 113.43743950000002,
          "velocity": 0.3937007874015748,
          "duration": 0.13392849999999612
        },
        {
          "name": "A#1",
          "midi": 34,
          "time": 113.57136800000002,
          "velocity": 0.3937007874015748,
          "duration": 0.13392849999999612
        },
        {
          "name": "F2",
          "midi": 41,
          "time": 113.70529650000002,
          "velocity": 0.3937007874015748,
          "duration": 0.13392849999999612
        },
        {
          "name": "A#2",
          "midi": 46,
          "time": 113.83922500000001,
          "velocity": 0.3937007874015748,
          "duration": 0.13392849999999612
        },
        {
          "name": "F2",
          "midi": 41,
          "time": 113.97315350000001,
          "velocity": 0.3937007874015748,
          "duration": 0.13392849999999612
        },
        {
          "name": "C5",
          "midi": 72,
          "time": 114.107082,
          "velocity": 0.3937007874015748,
          "duration": 0.26785699999999224
        },
        {
          "name": "F5",
          "midi": 77,
          "time": 114.107082,
          "velocity": 0.3937007874015748,
          "duration": 0.26785699999999224
        },
        {
          "name": "A#1",
          "midi": 34,
          "time": 114.107082,
          "velocity": 0.3937007874015748,
          "duration": 0.13392849999999612
        },
        {
          "name": "F2",
          "midi": 41,
          "time": 114.2410105,
          "velocity": 0.3937007874015748,
          "duration": 0.13392849999999612
        },
        {
          "name": "C5",
          "midi": 72,
          "time": 114.374939,
          "velocity": 0.3937007874015748,
          "duration": 0.13392849999999612
        },
        {
          "name": "G5",
          "midi": 79,
          "time": 114.374939,
          "velocity": 0.3937007874015748,
          "duration": 0.13392849999999612
        },
        {
          "name": "A#2",
          "midi": 46,
          "time": 114.374939,
          "velocity": 0.3937007874015748,
          "duration": 0.13392849999999612
        },
        {
          "name": "F2",
          "midi": 41,
          "time": 114.5088675,
          "velocity": 0.3937007874015748,
          "duration": 0.13392849999999612
        },
        {
          "name": "C5",
          "midi": 72,
          "time": 114.64279599999999,
          "velocity": 0.3937007874015748,
          "duration": 0.8035709999999767
        },
        {
          "name": "E5",
          "midi": 76,
          "time": 114.64279599999999,
          "velocity": 0.3937007874015748,
          "duration": 0.8035709999999767
        },
        {
          "name": "A5",
          "midi": 81,
          "time": 114.64279599999999,
          "velocity": 0.3937007874015748,
          "duration": 0.8035709999999767
        },
        {
          "name": "C2",
          "midi": 36,
          "time": 114.64279599999999,
          "velocity": 0.3937007874015748,
          "duration": 0.13392849999999612
        },
        {
          "name": "G2",
          "midi": 43,
          "time": 114.77672449999999,
          "velocity": 0.3937007874015748,
          "duration": 0.13392849999999612
        },
        {
          "name": "C3",
          "midi": 48,
          "time": 114.91065299999998,
          "velocity": 0.3937007874015748,
          "duration": 0.13392849999999612
        },
        {
          "name": "G2",
          "midi": 43,
          "time": 115.04458149999998,
          "velocity": 0.3937007874015748,
          "duration": 0.13392849999999612
        },
        {
          "name": "C2",
          "midi": 36,
          "time": 115.17850999999997,
          "velocity": 0.3937007874015748,
          "duration": 0.13392849999999612
        },
        {
          "name": "G2",
          "midi": 43,
          "time": 115.31243849999997,
          "velocity": 0.3937007874015748,
          "duration": 0.13392849999999612
        },
        {
          "name": "G5",
          "midi": 79,
          "time": 115.44636699999997,
          "velocity": 0.3937007874015748,
          "duration": 0.26785699999999224
        },
        {
          "name": "C3",
          "midi": 48,
          "time": 115.44636699999997,
          "velocity": 0.3937007874015748,
          "duration": 0.13392849999999612
        },
        {
          "name": "G2",
          "midi": 43,
          "time": 115.58029549999996,
          "velocity": 0.3937007874015748,
          "duration": 0.13392849999999612
        },
        {
          "name": "C5",
          "midi": 72,
          "time": 115.71422399999996,
          "velocity": 0.3937007874015748,
          "duration": 0.26785699999999224
        },
        {
          "name": "F5",
          "midi": 77,
          "time": 115.71422399999996,
          "velocity": 0.3937007874015748,
          "duration": 0.26785699999999224
        },
        {
          "name": "C2",
          "midi": 36,
          "time": 115.71422399999996,
          "velocity": 0.3937007874015748,
          "duration": 0.13392849999999612
        },
        {
          "name": "G2",
          "midi": 43,
          "time": 115.84815249999996,
          "velocity": 0.3937007874015748,
          "duration": 0.13392849999999612
        },
        {
          "name": "G5",
          "midi": 79,
          "time": 115.98208099999995,
          "velocity": 0.3937007874015748,
          "duration": 0.13392849999999612
        },
        {
          "name": "C3",
          "midi": 48,
          "time": 115.98208099999995,
          "velocity": 0.3937007874015748,
          "duration": 0.13392849999999612
        },
        {
          "name": "C5",
          "midi": 72,
          "time": 116.11600949999995,
          "velocity": 0.3937007874015748,
          "duration": 0.40178549999998836
        },
        {
          "name": "E5",
          "midi": 76,
          "time": 116.11600949999995,
          "velocity": 0.3937007874015748,
          "duration": 0.40178549999998836
        },
        {
          "name": "G2",
          "midi": 43,
          "time": 116.11600949999995,
          "velocity": 0.3937007874015748,
          "duration": 0.13392849999999612
        },
        {
          "name": "C2",
          "midi": 36,
          "time": 116.24993799999994,
          "velocity": 0.3937007874015748,
          "duration": 0.13392849999999612
        },
        {
          "name": "G2",
          "midi": 43,
          "time": 116.38386649999994,
          "velocity": 0.3937007874015748,
          "duration": 0.13392849999999612
        },
        {
          "name": "C5",
          "midi": 72,
          "time": 116.51779499999994,
          "velocity": 0.3937007874015748,
          "duration": 0.13392849999999612
        },
        {
          "name": "C3",
          "midi": 48,
          "time": 116.51779499999994,
          "velocity": 0.3937007874015748,
          "duration": 0.13392849999999612
        },
        {
          "name": "G2",
          "midi": 43,
          "time": 116.65172349999993,
          "velocity": 0.3937007874015748,
          "duration": 0.13392849999999612
        },
        {
          "name": "F4",
          "midi": 65,
          "time": 116.78565199999993,
          "velocity": 0.3937007874015748,
          "duration": 1.6071419999999534
        },
        {
          "name": "A4",
          "midi": 69,
          "time": 116.78565199999993,
          "velocity": 0.3937007874015748,
          "duration": 1.6071419999999534
        },
        {
          "name": "D5",
          "midi": 74,
          "time": 116.78565199999993,
          "velocity": 0.3937007874015748,
          "duration": 1.6071419999999534
        },
        {
          "name": "D2",
          "midi": 38,
          "time": 116.78565199999993,
          "velocity": 0.3937007874015748,
          "duration": 0.13392849999999612
        },
        {
          "name": "A2",
          "midi": 45,
          "time": 116.91958049999992,
          "velocity": 0.3937007874015748,
          "duration": 0.13392849999999612
        },
        {
          "name": "D3",
          "midi": 50,
          "time": 117.05350899999992,
          "velocity": 0.3937007874015748,
          "duration": 0.13392849999999612
        },
        {
          "name": "A2",
          "midi": 45,
          "time": 117.18743749999992,
          "velocity": 0.3937007874015748,
          "duration": 0.13392849999999612
        },
        {
          "name": "D2",
          "midi": 38,
          "time": 117.32136599999991,
          "velocity": 0.3937007874015748,
          "duration": 0.13392849999999612
        },
        {
          "name": "A2",
          "midi": 45,
          "time": 117.45529449999991,
          "velocity": 0.3937007874015748,
          "duration": 0.13392849999999612
        },
        {
          "name": "D3",
          "midi": 50,
          "time": 117.5892229999999,
          "velocity": 0.3937007874015748,
          "duration": 0.13392849999999612
        },
        {
          "name": "A2",
          "midi": 45,
          "time": 117.7231514999999,
          "velocity": 0.3937007874015748,
          "duration": 0.13392849999999612
        },
        {
          "name": "D2",
          "midi": 38,
          "time": 117.8570799999999,
          "velocity": 0.3937007874015748,
          "duration": 0.13392849999999612
        },
        {
          "name": "A2",
          "midi": 45,
          "time": 117.9910084999999,
          "velocity": 0.3937007874015748,
          "duration": 0.13392849999999612
        },
        {
          "name": "D3",
          "midi": 50,
          "time": 118.12493699999989,
          "velocity": 0.3937007874015748,
          "duration": 0.13392849999999612
        },
        {
          "name": "A2",
          "midi": 45,
          "time": 118.25886549999989,
          "velocity": 0.3937007874015748,
          "duration": 0.13392849999999612
        },
        {
          "name": "D5",
          "midi": 74,
          "time": 118.39279399999988,
          "velocity": 0.3937007874015748,
          "duration": 0.26785699999999224
        },
        {
          "name": "F5",
          "midi": 77,
          "time": 118.39279399999988,
          "velocity": 0.3937007874015748,
          "duration": 0.26785699999999224
        },
        {
          "name": "D2",
          "midi": 38,
          "time": 118.39279399999988,
          "velocity": 0.3937007874015748,
          "duration": 0.13392849999999612
        },
        {
          "name": "A2",
          "midi": 45,
          "time": 118.52672249999988,
          "velocity": 0.3937007874015748,
          "duration": 0.13392849999999612
        },
        {
          "name": "D5",
          "midi": 74,
          "time": 118.66065099999987,
          "velocity": 0.3937007874015748,
          "duration": 0.13392849999999612
        },
        {
          "name": "G5",
          "midi": 79,
          "time": 118.66065099999987,
          "velocity": 0.3937007874015748,
          "duration": 0.13392849999999612
        },
        {
          "name": "D3",
          "midi": 50,
          "time": 118.66065099999987,
          "velocity": 0.3937007874015748,
          "duration": 0.13392849999999612
        },
        {
          "name": "A2",
          "midi": 45,
          "time": 118.79457949999987,
          "velocity": 0.3937007874015748,
          "duration": 0.13392849999999612
        },
        {
          "name": "C5",
          "midi": 72,
          "time": 118.92850799999987,
          "velocity": 0.3937007874015748,
          "duration": 0.8035709999999767
        },
        {
          "name": "E5",
          "midi": 76,
          "time": 118.92850799999987,
          "velocity": 0.3937007874015748,
          "duration": 0.8035709999999767
        },
        {
          "name": "A5",
          "midi": 81,
          "time": 118.92850799999987,
          "velocity": 0.3937007874015748,
          "duration": 0.8035709999999767
        },
        {
          "name": "C2",
          "midi": 36,
          "time": 118.92850799999987,
          "velocity": 0.3937007874015748,
          "duration": 0.13392849999999612
        },
        {
          "name": "G2",
          "midi": 43,
          "time": 119.06243649999986,
          "velocity": 0.3937007874015748,
          "duration": 0.13392849999999612
        },
        {
          "name": "C3",
          "midi": 48,
          "time": 119.19636499999986,
          "velocity": 0.3937007874015748,
          "duration": 0.13392849999999612
        },
        {
          "name": "G2",
          "midi": 43,
          "time": 119.33029349999985,
          "velocity": 0.3937007874015748,
          "duration": 0.13392849999999612
        },
        {
          "name": "C2",
          "midi": 36,
          "time": 119.46422199999985,
          "velocity": 0.3937007874015748,
          "duration": 0.13392849999999612
        },
        {
          "name": "G2",
          "midi": 43,
          "time": 119.59815049999985,
          "velocity": 0.3937007874015748,
          "duration": 0.13392849999999612
        },
        {
          "name": "G5",
          "midi": 79,
          "time": 119.73207899999984,
          "velocity": 0.3937007874015748,
          "duration": 0.26785699999999224
        },
        {
          "name": "C3",
          "midi": 48,
          "time": 119.73207899999984,
          "velocity": 0.3937007874015748,
          "duration": 0.13392849999999612
        },
        {
          "name": "G2",
          "midi": 43,
          "time": 119.86600749999984,
          "velocity": 0.3937007874015748,
          "duration": 0.13392849999999612
        },
        {
          "name": "C5",
          "midi": 72,
          "time": 119.99993599999983,
          "velocity": 0.3937007874015748,
          "duration": 0.26785699999999224
        },
        {
          "name": "F5",
          "midi": 77,
          "time": 119.99993599999983,
          "velocity": 0.3937007874015748,
          "duration": 0.26785699999999224
        },
        {
          "name": "C2",
          "midi": 36,
          "time": 119.99993599999983,
          "velocity": 0.3937007874015748,
          "duration": 0.13392849999999612
        },
        {
          "name": "G2",
          "midi": 43,
          "time": 120.13386449999983,
          "velocity": 0.3937007874015748,
          "duration": 0.13392849999999612
        },
        {
          "name": "G5",
          "midi": 79,
          "time": 120.26779299999983,
          "velocity": 0.3937007874015748,
          "duration": 0.13392849999999612
        },
        {
          "name": "C3",
          "midi": 48,
          "time": 120.26779299999983,
          "velocity": 0.3937007874015748,
          "duration": 0.13392849999999612
        },
        {
          "name": "C5",
          "midi": 72,
          "time": 120.40172149999982,
          "velocity": 0.3937007874015748,
          "duration": 0.40178549999998836
        },
        {
          "name": "E5",
          "midi": 76,
          "time": 120.40172149999982,
          "velocity": 0.3937007874015748,
          "duration": 0.40178549999998836
        },
        {
          "name": "G2",
          "midi": 43,
          "time": 120.40172149999982,
          "velocity": 0.3937007874015748,
          "duration": 0.13392849999999612
        },
        {
          "name": "C2",
          "midi": 36,
          "time": 120.53564999999982,
          "velocity": 0.3937007874015748,
          "duration": 0.13392849999999612
        },
        {
          "name": "G2",
          "midi": 43,
          "time": 120.66957849999982,
          "velocity": 0.3937007874015748,
          "duration": 0.13392849999999612
        },
        {
          "name": "C6",
          "midi": 84,
          "time": 120.80350699999981,
          "velocity": 0.3937007874015748,
          "duration": 0.13392849999999612
        },
        {
          "name": "C3",
          "midi": 48,
          "time": 120.80350699999981,
          "velocity": 0.3937007874015748,
          "duration": 0.13392849999999612
        },
        {
          "name": "G2",
          "midi": 43,
          "time": 120.93743549999981,
          "velocity": 0.3937007874015748,
          "duration": 0.13392849999999612
        },
        {
          "name": "A#4",
          "midi": 70,
          "time": 121.0713639999998,
          "velocity": 0.3937007874015748,
          "duration": 1.6071419999999534
        },
        {
          "name": "D5",
          "midi": 74,
          "time": 121.0713639999998,
          "velocity": 0.3937007874015748,
          "duration": 1.6071419999999534
        },
        {
          "name": "A5",
          "midi": 81,
          "time": 121.0713639999998,
          "velocity": 0.3937007874015748,
          "duration": 1.6071419999999534
        },
        {
          "name": "A#1",
          "midi": 34,
          "time": 121.0713639999998,
          "velocity": 0.3937007874015748,
          "duration": 0.13392849999999612
        },
        {
          "name": "F2",
          "midi": 41,
          "time": 121.2052924999998,
          "velocity": 0.3937007874015748,
          "duration": 0.13392849999999612
        },
        {
          "name": "A#2",
          "midi": 46,
          "time": 121.3392209999998,
          "velocity": 0.3937007874015748,
          "duration": 0.13392849999999612
        },
        {
          "name": "F2",
          "midi": 41,
          "time": 121.47314949999979,
          "velocity": 0.3937007874015748,
          "duration": 0.13392849999999612
        },
        {
          "name": "A#1",
          "midi": 34,
          "time": 121.60707799999979,
          "velocity": 0.3937007874015748,
          "duration": 0.13392849999999612
        },
        {
          "name": "F2",
          "midi": 41,
          "time": 121.74100649999978,
          "velocity": 0.3937007874015748,
          "duration": 0.13392849999999612
        },
        {
          "name": "A#2",
          "midi": 46,
          "time": 121.87493499999978,
          "velocity": 0.3937007874015748,
          "duration": 0.13392849999999612
        },
        {
          "name": "F2",
          "midi": 41,
          "time": 122.00886349999978,
          "velocity": 0.3937007874015748,
          "duration": 0.13392849999999612
        },
        {
          "name": "A#1",
          "midi": 34,
          "time": 122.14279199999977,
          "velocity": 0.3937007874015748,
          "duration": 0.13392849999999612
        },
        {
          "name": "F2",
          "midi": 41,
          "time": 122.27672049999977,
          "velocity": 0.3937007874015748,
          "duration": 0.13392849999999612
        },
        {
          "name": "A#2",
          "midi": 46,
          "time": 122.41064899999976,
          "velocity": 0.3937007874015748,
          "duration": 0.13392849999999612
        },
        {
          "name": "F2",
          "midi": 41,
          "time": 122.54457749999976,
          "velocity": 0.3937007874015748,
          "duration": 0.13392849999999612
        },
        {
          "name": "A#4",
          "midi": 70,
          "time": 122.67850599999976,
          "velocity": 0.3937007874015748,
          "duration": 0.26785699999999224
        },
        {
          "name": "F5",
          "midi": 77,
          "time": 122.67850599999976,
          "velocity": 0.3937007874015748,
          "duration": 0.26785699999999224
        },
        {
          "name": "A#1",
          "midi": 34,
          "time": 122.67850599999976,
          "velocity": 0.3937007874015748,
          "duration": 0.13392849999999612
        },
        {
          "name": "F2",
          "midi": 41,
          "time": 122.81243449999975,
          "velocity": 0.3937007874015748,
          "duration": 0.13392849999999612
        },
        {
          "name": "A#4",
          "midi": 70,
          "time": 122.94636299999975,
          "velocity": 0.3937007874015748,
          "duration": 0.13392849999999612
        },
        {
          "name": "G5",
          "midi": 79,
          "time": 122.94636299999975,
          "velocity": 0.3937007874015748,
          "duration": 0.13392849999999612
        },
        {
          "name": "A#2",
          "midi": 46,
          "time": 122.94636299999975,
          "velocity": 0.3937007874015748,
          "duration": 0.13392849999999612
        },
        {
          "name": "F2",
          "midi": 41,
          "time": 123.08029149999975,
          "velocity": 0.3937007874015748,
          "duration": 0.13392849999999612
        },
        {
          "name": "C5",
          "midi": 72,
          "time": 123.21421999999974,
          "velocity": 0.3937007874015748,
          "duration": 0.8035709999999767
        },
        {
          "name": "E5",
          "midi": 76,
          "time": 123.21421999999974,
          "velocity": 0.3937007874015748,
          "duration": 0.8035709999999767
        },
        {
          "name": "A5",
          "midi": 81,
          "time": 123.21421999999974,
          "velocity": 0.3937007874015748,
          "duration": 0.8035709999999767
        },
        {
          "name": "C2",
          "midi": 36,
          "time": 123.21421999999974,
          "velocity": 0.3937007874015748,
          "duration": 0.13392849999999612
        },
        {
          "name": "G2",
          "midi": 43,
          "time": 123.34814849999974,
          "velocity": 0.3937007874015748,
          "duration": 0.13392849999999612
        },
        {
          "name": "C3",
          "midi": 48,
          "time": 123.48207699999973,
          "velocity": 0.3937007874015748,
          "duration": 0.13392849999999612
        },
        {
          "name": "G2",
          "midi": 43,
          "time": 123.61600549999973,
          "velocity": 0.3937007874015748,
          "duration": 0.13392849999999612
        },
        {
          "name": "C2",
          "midi": 36,
          "time": 123.74993399999973,
          "velocity": 0.3937007874015748,
          "duration": 0.13392849999999612
        },
        {
          "name": "G2",
          "midi": 43,
          "time": 123.88386249999972,
          "velocity": 0.3937007874015748,
          "duration": 0.13392849999999612
        },
        {
          "name": "G5",
          "midi": 79,
          "time": 124.01779099999972,
          "velocity": 0.3937007874015748,
          "duration": 0.26785699999999224
        },
        {
          "name": "C3",
          "midi": 48,
          "time": 124.01779099999972,
          "velocity": 0.3937007874015748,
          "duration": 0.13392849999999612
        },
        {
          "name": "G2",
          "midi": 43,
          "time": 124.15171949999971,
          "velocity": 0.3937007874015748,
          "duration": 0.13392849999999612
        },
        {
          "name": "C5",
          "midi": 72,
          "time": 124.28564799999971,
          "velocity": 0.3937007874015748,
          "duration": 0.26785699999999224
        },
        {
          "name": "F5",
          "midi": 77,
          "time": 124.28564799999971,
          "velocity": 0.3937007874015748,
          "duration": 0.26785699999999224
        },
        {
          "name": "C2",
          "midi": 36,
          "time": 124.28564799999971,
          "velocity": 0.3937007874015748,
          "duration": 0.13392849999999612
        },
        {
          "name": "G2",
          "midi": 43,
          "time": 124.4195764999997,
          "velocity": 0.3937007874015748,
          "duration": 0.13392849999999612
        },
        {
          "name": "G5",
          "midi": 79,
          "time": 124.5535049999997,
          "velocity": 0.3937007874015748,
          "duration": 0.13392849999999612
        },
        {
          "name": "C3",
          "midi": 48,
          "time": 124.5535049999997,
          "velocity": 0.3937007874015748,
          "duration": 0.13392849999999612
        },
        {
          "name": "C5",
          "midi": 72,
          "time": 124.6874334999997,
          "velocity": 0.3937007874015748,
          "duration": 0.40178549999998836
        },
        {
          "name": "E5",
          "midi": 76,
          "time": 124.6874334999997,
          "velocity": 0.3937007874015748,
          "duration": 0.40178549999998836
        },
        {
          "name": "G2",
          "midi": 43,
          "time": 124.6874334999997,
          "velocity": 0.3937007874015748,
          "duration": 0.13392849999999612
        },
        {
          "name": "C2",
          "midi": 36,
          "time": 124.8213619999997,
          "velocity": 0.3937007874015748,
          "duration": 0.13392849999999612
        },
        {
          "name": "G2",
          "midi": 43,
          "time": 124.95529049999969,
          "velocity": 0.3937007874015748,
          "duration": 0.13392849999999612
        },
        {
          "name": "C5",
          "midi": 72,
          "time": 125.08921899999969,
          "velocity": 0.3937007874015748,
          "duration": 0.13392849999999612
        },
        {
          "name": "C3",
          "midi": 48,
          "time": 125.08921899999969,
          "velocity": 0.3937007874015748,
          "duration": 0.13392849999999612
        },
        {
          "name": "G2",
          "midi": 43,
          "time": 125.22314749999968,
          "velocity": 0.3937007874015748,
          "duration": 0.13392849999999612
        },
        {
          "name": "F4",
          "midi": 65,
          "time": 125.35707599999968,
          "velocity": 0.3937007874015748,
          "duration": 2.1428559999999948
        },
        {
          "name": "A4",
          "midi": 69,
          "time": 125.35707599999968,
          "velocity": 0.3937007874015748,
          "duration": 2.1428559999999948
        },
        {
          "name": "D5",
          "midi": 74,
          "time": 125.35707599999968,
          "velocity": 0.3937007874015748,
          "duration": 2.1428559999999948
        },
        {
          "name": "D2",
          "midi": 38,
          "time": 125.35707599999968,
          "velocity": 0.3937007874015748,
          "duration": 0.13392849999999612
        },
        {
          "name": "A2",
          "midi": 45,
          "time": 125.49100449999968,
          "velocity": 0.3937007874015748,
          "duration": 0.13392849999999612
        },
        {
          "name": "D3",
          "midi": 50,
          "time": 125.62493299999967,
          "velocity": 0.3937007874015748,
          "duration": 0.13392849999999612
        },
        {
          "name": "A2",
          "midi": 45,
          "time": 125.75886149999967,
          "velocity": 0.3937007874015748,
          "duration": 0.13392849999999612
        },
        {
          "name": "D2",
          "midi": 38,
          "time": 125.89278999999966,
          "velocity": 0.3937007874015748,
          "duration": 0.13392849999999612
        },
        {
          "name": "A2",
          "midi": 45,
          "time": 126.02671849999966,
          "velocity": 0.3937007874015748,
          "duration": 0.13392849999999612
        },
        {
          "name": "D3",
          "midi": 50,
          "time": 126.16064699999966,
          "velocity": 0.3937007874015748,
          "duration": 0.13392849999999612
        },
        {
          "name": "A2",
          "midi": 45,
          "time": 126.29457549999965,
          "velocity": 0.3937007874015748,
          "duration": 0.13392849999999612
        },
        {
          "name": "D2",
          "midi": 38,
          "time": 126.42850399999965,
          "velocity": 0.3937007874015748,
          "duration": 0.26785700000000645
        },
        {
          "name": "A2",
          "midi": 45,
          "time": 126.69636099999965,
          "velocity": 0.3937007874015748,
          "duration": 0.26785700000000645
        },
        {
          "name": "D3",
          "midi": 50,
          "time": 126.96421799999966,
          "velocity": 0.3937007874015748,
          "duration": 0.26785700000000645
        },
        {
          "name": "F3",
          "midi": 53,
          "time": 127.23207499999967,
          "velocity": 0.3937007874015748,
          "duration": 0.26785700000000645
        },
        {
          "name": "C5",
          "midi": 72,
          "time": 127.49993199999967,
          "velocity": 0.3937007874015748,
          "duration": 0.13392849999999612
        },
        {
          "name": "C3",
          "midi": 48,
          "time": 127.49993199999967,
          "velocity": 0.3937007874015748,
          "duration": 1.0714279999999832
        },
        {
          "name": "E3",
          "midi": 52,
          "time": 127.49993199999967,
          "velocity": 0.3937007874015748,
          "duration": 1.0714279999999832
        },
        {
          "name": "G3",
          "midi": 55,
          "time": 127.49993199999967,
          "velocity": 0.3937007874015748,
          "duration": 1.0714279999999832
        },
        {
          "name": "A4",
          "midi": 69,
          "time": 127.63386049999967,
          "velocity": 0.3937007874015748,
          "duration": 0.13392849999999612
        },
        {
          "name": "C5",
          "midi": 72,
          "time": 127.76778899999967,
          "velocity": 0.3937007874015748,
          "duration": 0.13392849999999612
        },
        {
          "name": "A4",
          "midi": 69,
          "time": 127.90171749999966,
          "velocity": 0.3937007874015748,
          "duration": 0.13392850000001033
        },
        {
          "name": "C5",
          "midi": 72,
          "time": 128.03564599999967,
          "velocity": 0.3937007874015748,
          "duration": 0.26785699999999224
        },
        {
          "name": "F5",
          "midi": 77,
          "time": 128.30350299999967,
          "velocity": 0.3937007874015748,
          "duration": 0.26785699999999224
        },
        {
          "name": "E5",
          "midi": 76,
          "time": 128.57135999999966,
          "velocity": 0.3937007874015748,
          "duration": 0.26785699999999224
        },
        {
          "name": "C#3",
          "midi": 49,
          "time": 128.57135999999966,
          "velocity": 0.3937007874015748,
          "duration": 1.071427999999969
        },
        {
          "name": "E3",
          "midi": 52,
          "time": 128.57135999999966,
          "velocity": 0.3937007874015748,
          "duration": 1.071427999999969
        },
        {
          "name": "A3",
          "midi": 57,
          "time": 128.57135999999966,
          "velocity": 0.3937007874015748,
          "duration": 1.071427999999969
        },
        {
          "name": "D5",
          "midi": 74,
          "time": 128.83921699999965,
          "velocity": 0.3937007874015748,
          "duration": 0.13392849999999612
        },
        {
          "name": "C#5",
          "midi": 73,
          "time": 128.97314549999965,
          "velocity": 0.3937007874015748,
          "duration": 0.13392849999999612
        },
        {
          "name": "E5",
          "midi": 76,
          "time": 129.37493099999963,
          "velocity": 0.3937007874015748,
          "duration": 0.26785699999999224
        },
        {
          "name": "F6",
          "midi": 89,
          "time": 129.64278799999963,
          "velocity": 0.3937007874015748,
          "duration": 0.13392849999999612
        },
        {
          "name": "D3",
          "midi": 50,
          "time": 129.64278799999963,
          "velocity": 0.3937007874015748,
          "duration": 1.071427999999969
        },
        {
          "name": "E6",
          "midi": 88,
          "time": 129.77671649999962,
          "velocity": 0.3937007874015748,
          "duration": 0.13392849999999612
        },
        {
          "name": "D6",
          "midi": 86,
          "time": 129.91064499999962,
          "velocity": 0.3937007874015748,
          "duration": 0.13392849999999612
        },
        {
          "name": "C6",
          "midi": 84,
          "time": 130.04457349999961,
          "velocity": 0.3937007874015748,
          "duration": 0.13392849999999612
        },
        {
          "name": "D6",
          "midi": 86,
          "time": 130.1785019999996,
          "velocity": 0.3937007874015748,
          "duration": 0.26785699999999224
        },
        {
          "name": "A5",
          "midi": 81,
          "time": 130.4463589999996,
          "velocity": 0.3937007874015748,
          "duration": 0.26785699999999224
        },
        {
          "name": "B5",
          "midi": 83,
          "time": 130.7142159999996,
          "velocity": 0.3937007874015748,
          "duration": 0.40178549999998836
        },
        {
          "name": "G2",
          "midi": 43,
          "time": 130.7142159999996,
          "velocity": 0.3937007874015748,
          "duration": 1.071427999999969
        },
        {
          "name": "D5",
          "midi": 74,
          "time": 131.51778699999957,
          "velocity": 0.3937007874015748,
          "duration": 0.13392849999999612
        },
        {
          "name": "E5",
          "midi": 76,
          "time": 131.65171549999957,
          "velocity": 0.3937007874015748,
          "duration": 0.13392849999999612
        },
        {
          "name": "F5",
          "midi": 77,
          "time": 131.78564399999956,
          "velocity": 0.3937007874015748,
          "duration": 0.40178549999998836
        },
        {
          "name": "A#2",
          "midi": 46,
          "time": 131.78564399999956,
          "velocity": 0.3937007874015748,
          "duration": 0.5357139999999845
        },
        {
          "name": "G5",
          "midi": 79,
          "time": 132.18742949999955,
          "velocity": 0.3937007874015748,
          "duration": 0.26785699999999224
        },
        {
          "name": "C3",
          "midi": 48,
          "time": 132.32135799999955,
          "velocity": 0.3937007874015748,
          "duration": 0.5357139999999845
        },
        {
          "name": "D5",
          "midi": 74,
          "time": 132.45528649999954,
          "velocity": 0.3937007874015748,
          "duration": 0.13392849999999612
        },
        {
          "name": "C6",
          "midi": 84,
          "time": 132.58921499999954,
          "velocity": 0.3937007874015748,
          "duration": 0.26785699999999224
        },
        {
          "name": "A5",
          "midi": 81,
          "time": 132.85707199999953,
          "velocity": 0.3937007874015748,
          "duration": 0.5357140000000129
        },
        {
          "name": "D3",
          "midi": 50,
          "time": 132.85707199999953,
          "velocity": 0.3937007874015748,
          "duration": 1.0714280000000258
        },
        {
          "name": "F6",
          "midi": 89,
          "time": 133.92849999999956,
          "velocity": 0.3937007874015748,
          "duration": 0.13392849999999612
        },
        {
          "name": "D3",
          "midi": 50,
          "time": 133.92849999999956,
          "velocity": 0.3937007874015748,
          "duration": 1.071427999999969
        },
        {
          "name": "E6",
          "midi": 88,
          "time": 134.06242849999956,
          "velocity": 0.3937007874015748,
          "duration": 0.13392849999999612
        },
        {
          "name": "D6",
          "midi": 86,
          "time": 134.19635699999955,
          "velocity": 0.3937007874015748,
          "duration": 0.13392849999999612
        },
        {
          "name": "C6",
          "midi": 84,
          "time": 134.33028549999955,
          "velocity": 0.3937007874015748,
          "duration": 0.13392849999999612
        },
        {
          "name": "D6",
          "midi": 86,
          "time": 134.46421399999954,
          "velocity": 0.3937007874015748,
          "duration": 0.26785699999999224
        },
        {
          "name": "A5",
          "midi": 81,
          "time": 134.73207099999954,
          "velocity": 0.3937007874015748,
          "duration": 0.26785699999999224
        },
        {
          "name": "B5",
          "midi": 83,
          "time": 134.99992799999953,
          "velocity": 0.3937007874015748,
          "duration": 0.40178549999998836
        },
        {
          "name": "G2",
          "midi": 43,
          "time": 134.99992799999953,
          "velocity": 0.3937007874015748,
          "duration": 1.071427999999969
        },
        {
          "name": "D5",
          "midi": 74,
          "time": 135.8034989999995,
          "velocity": 0.3937007874015748,
          "duration": 0.13392849999999612
        },
        {
          "name": "E5",
          "midi": 76,
          "time": 135.9374274999995,
          "velocity": 0.3937007874015748,
          "duration": 0.13392849999999612
        },
        {
          "name": "F5",
          "midi": 77,
          "time": 136.0713559999995,
          "velocity": 0.3937007874015748,
          "duration": 0.40178549999998836
        },
        {
          "name": "A#2",
          "midi": 46,
          "time": 136.0713559999995,
          "velocity": 0.3937007874015748,
          "duration": 0.5357139999999845
        },
        {
          "name": "E5",
          "midi": 76,
          "time": 136.47314149999949,
          "velocity": 0.3937007874015748,
          "duration": 0.26785699999999224
        },
        {
          "name": "A2",
          "midi": 45,
          "time": 136.60706999999948,
          "velocity": 0.3937007874015748,
          "duration": 0.5357139999999845
        },
        {
          "name": "C5",
          "midi": 72,
          "time": 136.74099849999948,
          "velocity": 0.3937007874015748,
          "duration": 0.13392849999999612
        },
        {
          "name": "E5",
          "midi": 76,
          "time": 136.87492699999947,
          "velocity": 0.3937007874015748,
          "duration": 0.26785699999999224
        },
        {
          "name": "D5",
          "midi": 74,
          "time": 137.14278399999947,
          "velocity": 0.3937007874015748,
          "duration": 1.0714279999999974
        },
        {
          "name": "D2",
          "midi": 38,
          "time": 137.14278399999947,
          "velocity": 0.3937007874015748,
          "duration": 1.0714279999999974
        },
        {
          "name": "D6",
          "midi": 86,
          "time": 138.21421199999946,
          "velocity": 0.3937007874015748,
          "duration": 0.13392849999999612
        },
        {
          "name": "F6",
          "midi": 89,
          "time": 138.21421199999946,
          "velocity": 0.3937007874015748,
          "duration": 0.13392849999999612
        },
        {
          "name": "D2",
          "midi": 38,
          "time": 138.21421199999946,
          "velocity": 0.3937007874015748,
          "duration": 0.26785699999999224
        },
        {
          "name": "E6",
          "midi": 88,
          "time": 138.34814049999946,
          "velocity": 0.3937007874015748,
          "duration": 0.13392849999999612
        },
        {
          "name": "D6",
          "midi": 86,
          "time": 138.48206899999946,
          "velocity": 0.3937007874015748,
          "duration": 0.13392849999999612
        },
        {
          "name": "A2",
          "midi": 45,
          "time": 138.48206899999946,
          "velocity": 0.3937007874015748,
          "duration": 0.26785699999999224
        },
        {
          "name": "C6",
          "midi": 84,
          "time": 138.61599749999945,
          "velocity": 0.3937007874015748,
          "duration": 0.13392849999999612
        },
        {
          "name": "D6",
          "midi": 86,
          "time": 138.74992599999945,
          "velocity": 0.3937007874015748,
          "duration": 0.26785699999999224
        },
        {
          "name": "D3",
          "midi": 50,
          "time": 138.74992599999945,
          "velocity": 0.3937007874015748,
          "duration": 0.26785699999999224
        },
        {
          "name": "A5",
          "midi": 81,
          "time": 139.01778299999944,
          "velocity": 0.3937007874015748,
          "duration": 0.26785699999999224
        },
        {
          "name": "A3",
          "midi": 57,
          "time": 139.01778299999944,
          "velocity": 0.3937007874015748,
          "duration": 0.26785699999999224
        },
        {
          "name": "G5",
          "midi": 79,
          "time": 139.28563999999943,
          "velocity": 0.3937007874015748,
          "duration": 0.40178549999998836
        },
        {
          "name": "B5",
          "midi": 83,
          "time": 139.28563999999943,
          "velocity": 0.3937007874015748,
          "duration": 0.40178549999998836
        },
        {
          "name": "G2",
          "midi": 43,
          "time": 139.28563999999943,
          "velocity": 0.3937007874015748,
          "duration": 0.26785699999999224
        },
        {
          "name": "B2",
          "midi": 47,
          "time": 139.55349699999942,
          "velocity": 0.3937007874015748,
          "duration": 0.26785699999999224
        },
        {
          "name": "G5",
          "midi": 79,
          "time": 139.68742549999942,
          "velocity": 0.3937007874015748,
          "duration": 0.40178549999998836
        },
        {
          "name": "D3",
          "midi": 50,
          "time": 139.82135399999942,
          "velocity": 0.3937007874015748,
          "duration": 0.26785699999999224
        },
        {
          "name": "D5",
          "midi": 74,
          "time": 140.0892109999994,
          "velocity": 0.3937007874015748,
          "duration": 0.13392849999999612
        },
        {
          "name": "G3",
          "midi": 55,
          "time": 140.0892109999994,
          "velocity": 0.3937007874015748,
          "duration": 0.26785699999999224
        },
        {
          "name": "E5",
          "midi": 76,
          "time": 140.2231394999994,
          "velocity": 0.3937007874015748,
          "duration": 0.13392849999999612
        },
        {
          "name": "D5",
          "midi": 74,
          "time": 140.3570679999994,
          "velocity": 0.3937007874015748,
          "duration": 0.40178549999998836
        },
        {
          "name": "F5",
          "midi": 77,
          "time": 140.3570679999994,
          "velocity": 0.3937007874015748,
          "duration": 0.40178549999998836
        },
        {
          "name": "A#2",
          "midi": 46,
          "time": 140.3570679999994,
          "velocity": 0.3937007874015748,
          "duration": 0.26785699999999224
        },
        {
          "name": "C3",
          "midi": 48,
          "time": 140.6249249999994,
          "velocity": 0.3937007874015748,
          "duration": 0.26785699999999224
        },
        {
          "name": "G5",
          "midi": 79,
          "time": 140.7588534999994,
          "velocity": 0.3937007874015748,
          "duration": 0.26785699999999224
        },
        {
          "name": "A2",
          "midi": 45,
          "time": 140.89278199999939,
          "velocity": 0.3937007874015748,
          "duration": 0.26785699999999224
        },
        {
          "name": "D5",
          "midi": 74,
          "time": 141.02671049999938,
          "velocity": 0.3937007874015748,
          "duration": 0.13392849999999612
        },
        {
          "name": "C6",
          "midi": 84,
          "time": 141.16063899999938,
          "velocity": 0.3937007874015748,
          "duration": 0.26785699999999224
        },
        {
          "name": "E3",
          "midi": 52,
          "time": 141.16063899999938,
          "velocity": 0.3937007874015748,
          "duration": 0.26785699999999224
        },
        {
          "name": "D5",
          "midi": 74,
          "time": 141.42849599999937,
          "velocity": 0.3937007874015748,
          "duration": 1.071427999999969
        },
        {
          "name": "F5",
          "midi": 77,
          "time": 141.42849599999937,
          "velocity": 0.3937007874015748,
          "duration": 1.071427999999969
        },
        {
          "name": "A5",
          "midi": 81,
          "time": 141.42849599999937,
          "velocity": 0.3937007874015748,
          "duration": 1.071427999999969
        },
        {
          "name": "D3",
          "midi": 50,
          "time": 141.42849599999937,
          "velocity": 0.3937007874015748,
          "duration": 0.26785699999999224
        },
        {
          "name": "A2",
          "midi": 45,
          "time": 141.69635299999936,
          "velocity": 0.3937007874015748,
          "duration": 0.26785699999999224
        },
        {
          "name": "F2",
          "midi": 41,
          "time": 141.96420999999935,
          "velocity": 0.3937007874015748,
          "duration": 0.26785699999999224
        },
        {
          "name": "D2",
          "midi": 38,
          "time": 142.23206699999935,
          "velocity": 0.3937007874015748,
          "duration": 0.26785699999999224
        },
        {
          "name": "D6",
          "midi": 86,
          "time": 142.49992399999934,
          "velocity": 0.3937007874015748,
          "duration": 0.13392849999999612
        },
        {
          "name": "F6",
          "midi": 89,
          "time": 142.49992399999934,
          "velocity": 0.3937007874015748,
          "duration": 0.13392849999999612
        },
        {
          "name": "D2",
          "midi": 38,
          "time": 142.49992399999934,
          "velocity": 0.3937007874015748,
          "duration": 0.26785699999999224
        },
        {
          "name": "E6",
          "midi": 88,
          "time": 142.63385249999934,
          "velocity": 0.3937007874015748,
          "duration": 0.13392849999999612
        },
        {
          "name": "D6",
          "midi": 86,
          "time": 142.76778099999933,
          "velocity": 0.3937007874015748,
          "duration": 0.13392849999999612
        },
        {
          "name": "A2",
          "midi": 45,
          "time": 142.76778099999933,
          "velocity": 0.3937007874015748,
          "duration": 0.26785699999999224
        },
        {
          "name": "C6",
          "midi": 84,
          "time": 142.90170949999933,
          "velocity": 0.3937007874015748,
          "duration": 0.13392849999999612
        },
        {
          "name": "D6",
          "midi": 86,
          "time": 143.03563799999932,
          "velocity": 0.3937007874015748,
          "duration": 0.26785699999999224
        },
        {
          "name": "D3",
          "midi": 50,
          "time": 143.03563799999932,
          "velocity": 0.3937007874015748,
          "duration": 0.26785699999999224
        },
        {
          "name": "A5",
          "midi": 81,
          "time": 143.30349499999932,
          "velocity": 0.3937007874015748,
          "duration": 0.26785699999999224
        },
        {
          "name": "A3",
          "midi": 57,
          "time": 143.30349499999932,
          "velocity": 0.3937007874015748,
          "duration": 0.26785699999999224
        },
        {
          "name": "G5",
          "midi": 79,
          "time": 143.5713519999993,
          "velocity": 0.3937007874015748,
          "duration": 0.40178549999998836
        },
        {
          "name": "B5",
          "midi": 83,
          "time": 143.5713519999993,
          "velocity": 0.3937007874015748,
          "duration": 0.40178549999998836
        },
        {
          "name": "G2",
          "midi": 43,
          "time": 143.5713519999993,
          "velocity": 0.3937007874015748,
          "duration": 0.26785699999999224
        },
        {
          "name": "B2",
          "midi": 47,
          "time": 143.8392089999993,
          "velocity": 0.3937007874015748,
          "duration": 0.26785699999999224
        },
        {
          "name": "G5",
          "midi": 79,
          "time": 143.9731374999993,
          "velocity": 0.3937007874015748,
          "duration": 0.40178549999998836
        },
        {
          "name": "D3",
          "midi": 50,
          "time": 144.1070659999993,
          "velocity": 0.3937007874015748,
          "duration": 0.26785699999999224
        },
        {
          "name": "D5",
          "midi": 74,
          "time": 144.37492299999928,
          "velocity": 0.3937007874015748,
          "duration": 0.13392849999999612
        },
        {
          "name": "G3",
          "midi": 55,
          "time": 144.37492299999928,
          "velocity": 0.3937007874015748,
          "duration": 0.26785699999999224
        },
        {
          "name": "E5",
          "midi": 76,
          "time": 144.50885149999928,
          "velocity": 0.3937007874015748,
          "duration": 0.13392849999999612
        },
        {
          "name": "D5",
          "midi": 74,
          "time": 144.64277999999928,
          "velocity": 0.3937007874015748,
          "duration": 0.40178549999998836
        },
        {
          "name": "F5",
          "midi": 77,
          "time": 144.64277999999928,
          "velocity": 0.3937007874015748,
          "duration": 0.40178549999998836
        },
        {
          "name": "A#2",
          "midi": 46,
          "time": 144.64277999999928,
          "velocity": 0.3937007874015748,
          "duration": 0.26785699999999224
        },
        {
          "name": "C3",
          "midi": 48,
          "time": 144.91063699999927,
          "velocity": 0.3937007874015748,
          "duration": 0.26785699999999224
        },
        {
          "name": "E5",
          "midi": 76,
          "time": 145.04456549999927,
          "velocity": 0.3937007874015748,
          "duration": 0.26785699999999224
        },
        {
          "name": "A2",
          "midi": 45,
          "time": 145.17849399999926,
          "velocity": 0.3937007874015748,
          "duration": 0.26785699999999224
        },
        {
          "name": "C5",
          "midi": 72,
          "time": 145.31242249999926,
          "velocity": 0.3937007874015748,
          "duration": 0.13392849999999612
        },
        {
          "name": "E5",
          "midi": 76,
          "time": 145.44635099999925,
          "velocity": 0.3937007874015748,
          "duration": 0.26785699999999224
        },
        {
          "name": "E3",
          "midi": 52,
          "time": 145.44635099999925,
          "velocity": 0.3937007874015748,
          "duration": 0.26785699999999224
        },
        {
          "name": "F4",
          "midi": 65,
          "time": 145.71420799999925,
          "velocity": 0.3937007874015748,
          "duration": 1.071427999999969
        },
        {
          "name": "A4",
          "midi": 69,
          "time": 145.71420799999925,
          "velocity": 0.3937007874015748,
          "duration": 1.071427999999969
        },
        {
          "name": "D5",
          "midi": 74,
          "time": 145.71420799999925,
          "velocity": 0.3937007874015748,
          "duration": 1.071427999999969
        },
        {
          "name": "D3",
          "midi": 50,
          "time": 145.71420799999925,
          "velocity": 0.3937007874015748,
          "duration": 0.26785699999999224
        },
        {
          "name": "A2",
          "midi": 45,
          "time": 145.98206499999924,
          "velocity": 0.3937007874015748,
          "duration": 0.26785699999999224
        },
        {
          "name": "F2",
          "midi": 41,
          "time": 146.24992199999923,
          "velocity": 0.3937007874015748,
          "duration": 0.26785699999999224
        },
        {
          "name": "D3",
          "midi": 50,
          "time": 146.51777899999922,
          "velocity": 0.3937007874015748,
          "duration": 0.26785699999999224
        },
        {
          "name": "D#5",
          "midi": 75,
          "time": 146.78563599999922,
          "velocity": 0.3937007874015748,
          "duration": 0.13392849999999612
        },
        {
          "name": "G5",
          "midi": 79,
          "time": 146.78563599999922,
          "velocity": 0.3937007874015748,
          "duration": 0.13392849999999612
        },
        {
          "name": "A#2",
          "midi": 46,
          "time": 146.78563599999922,
          "velocity": 0.3937007874015748,
          "duration": 0.26785699999999224
        },
        {
          "name": "F5",
          "midi": 77,
          "time": 146.9195644999992,
          "velocity": 0.3937007874015748,
          "duration": 0.13392849999999612
        },
        {
          "name": "D#5",
          "midi": 75,
          "time": 147.0534929999992,
          "velocity": 0.3937007874015748,
          "duration": 0.13392849999999612
        },
        {
          "name": "A#2",
          "midi": 46,
          "time": 147.0534929999992,
          "velocity": 0.3937007874015748,
          "duration": 0.26785699999999224
        },
        {
          "name": "D5",
          "midi": 74,
          "time": 147.1874214999992,
          "velocity": 0.3937007874015748,
          "duration": 0.13392849999999612
        },
        {
          "name": "C5",
          "midi": 72,
          "time": 147.3213499999992,
          "velocity": 0.3937007874015748,
          "duration": 0.13392849999999612
        },
        {
          "name": "D#5",
          "midi": 75,
          "time": 147.3213499999992,
          "velocity": 0.3937007874015748,
          "duration": 0.13392849999999612
        },
        {
          "name": "G3",
          "midi": 55,
          "time": 147.3213499999992,
          "velocity": 0.3937007874015748,
          "duration": 0.26785699999999224
        },
        {
          "name": "D5",
          "midi": 74,
          "time": 147.4552784999992,
          "velocity": 0.3937007874015748,
          "duration": 0.13392849999999612
        },
        {
          "name": "C5",
          "midi": 72,
          "time": 147.5892069999992,
          "velocity": 0.3937007874015748,
          "duration": 0.13392849999999612
        },
        {
          "name": "A#3",
          "midi": 58,
          "time": 147.5892069999992,
          "velocity": 0.3937007874015748,
          "duration": 0.26785699999999224
        },
        {
          "name": "D#5",
          "midi": 75,
          "time": 147.7231354999992,
          "velocity": 0.3937007874015748,
          "duration": 0.13392849999999612
        },
        {
          "name": "A4",
          "midi": 69,
          "time": 147.85706399999918,
          "velocity": 0.3937007874015748,
          "duration": 0.40178549999998836
        },
        {
          "name": "D5",
          "midi": 74,
          "time": 147.85706399999918,
          "velocity": 0.3937007874015748,
          "duration": 0.40178549999998836
        },
        {
          "name": "D3",
          "midi": 50,
          "time": 147.85706399999918,
          "velocity": 0.3937007874015748,
          "duration": 0.26785699999999224
        },
        {
          "name": "A3",
          "midi": 57,
          "time": 148.12492099999918,
          "velocity": 0.3937007874015748,
          "duration": 0.26785699999999224
        },
        {
          "name": "A4",
          "midi": 69,
          "time": 148.25884949999917,
          "velocity": 0.3937007874015748,
          "duration": 0.40178549999998836
        },
        {
          "name": "D4",
          "midi": 62,
          "time": 148.39277799999917,
          "velocity": 0.3937007874015748,
          "duration": 0.26785699999999224
        },
        {
          "name": "A4",
          "midi": 69,
          "time": 148.66063499999916,
          "velocity": 0.3937007874015748,
          "duration": 0.13392849999999612
        },
        {
          "name": "D3",
          "midi": 50,
          "time": 148.66063499999916,
          "velocity": 0.3937007874015748,
          "duration": 0.26785699999999224
        },
        {
          "name": "D5",
          "midi": 74,
          "time": 148.79456349999916,
          "velocity": 0.3937007874015748,
          "duration": 0.13392849999999612
        },
        {
          "name": "D#5",
          "midi": 75,
          "time": 148.92849199999915,
          "velocity": 0.3937007874015748,
          "duration": 0.13392849999999612
        },
        {
          "name": "G5",
          "midi": 79,
          "time": 148.92849199999915,
          "velocity": 0.3937007874015748,
          "duration": 0.13392849999999612
        },
        {
          "name": "A#2",
          "midi": 46,
          "time": 148.92849199999915,
          "velocity": 0.3937007874015748,
          "duration": 0.26785699999999224
        },
        {
          "name": "F5",
          "midi": 77,
          "time": 149.06242049999915,
          "velocity": 0.3937007874015748,
          "duration": 0.13392849999999612
        },
        {
          "name": "D#5",
          "midi": 75,
          "time": 149.19634899999915,
          "velocity": 0.3937007874015748,
          "duration": 0.13392849999999612
        },
        {
          "name": "A#2",
          "midi": 46,
          "time": 149.19634899999915,
          "velocity": 0.3937007874015748,
          "duration": 0.26785699999999224
        },
        {
          "name": "D5",
          "midi": 74,
          "time": 149.33027749999914,
          "velocity": 0.3937007874015748,
          "duration": 0.13392849999999612
        },
        {
          "name": "A4",
          "midi": 69,
          "time": 149.46420599999914,
          "velocity": 0.3937007874015748,
          "duration": 0.13392849999999612
        },
        {
          "name": "C5",
          "midi": 72,
          "time": 149.46420599999914,
          "velocity": 0.3937007874015748,
          "duration": 0.13392849999999612
        },
        {
          "name": "G3",
          "midi": 55,
          "time": 149.46420599999914,
          "velocity": 0.3937007874015748,
          "duration": 0.26785699999999224
        },
        {
          "name": "A#5",
          "midi": 82,
          "time": 149.59813449999913,
          "velocity": 0.3937007874015748,
          "duration": 0.13392849999999612
        },
        {
          "name": "A5",
          "midi": 81,
          "time": 149.73206299999913,
          "velocity": 0.3937007874015748,
          "duration": 0.13392849999999612
        },
        {
          "name": "A#3",
          "midi": 58,
          "time": 149.73206299999913,
          "velocity": 0.3937007874015748,
          "duration": 0.26785699999999224
        },
        {
          "name": "G5",
          "midi": 79,
          "time": 149.86599149999913,
          "velocity": 0.3937007874015748,
          "duration": 0.13392849999999612
        },
        {
          "name": "D5",
          "midi": 74,
          "time": 149.99991999999912,
          "velocity": 0.3937007874015748,
          "duration": 0.26785699999999224
        },
        {
          "name": "F5",
          "midi": 77,
          "time": 149.99991999999912,
          "velocity": 0.3937007874015748,
          "duration": 0.26785699999999224
        },
        {
          "name": "D2",
          "midi": 38,
          "time": 149.99991999999912,
          "velocity": 0.3937007874015748,
          "duration": 0.26785699999999224
        },
        {
          "name": "D3",
          "midi": 50,
          "time": 149.99991999999912,
          "velocity": 0.3937007874015748,
          "duration": 0.26785699999999224
        },
        {
          "name": "E5",
          "midi": 76,
          "time": 150.2677769999991,
          "velocity": 0.3937007874015748,
          "duration": 0.26785699999999224
        },
        {
          "name": "G5",
          "midi": 79,
          "time": 150.2677769999991,
          "velocity": 0.3937007874015748,
          "duration": 0.26785699999999224
        },
        {
          "name": "E2",
          "midi": 40,
          "time": 150.2677769999991,
          "velocity": 0.3937007874015748,
          "duration": 0.26785699999999224
        },
        {
          "name": "E3",
          "midi": 52,
          "time": 150.2677769999991,
          "velocity": 0.3937007874015748,
          "duration": 0.26785699999999224
        },
        {
          "name": "F5",
          "midi": 77,
          "time": 150.5356339999991,
          "velocity": 0.3937007874015748,
          "duration": 0.40178549999998836
        },
        {
          "name": "A5",
          "midi": 81,
          "time": 150.5356339999991,
          "velocity": 0.3937007874015748,
          "duration": 0.40178549999998836
        },
        {
          "name": "F2",
          "midi": 41,
          "time": 150.5356339999991,
          "velocity": 0.3937007874015748,
          "duration": 0.5357139999999845
        },
        {
          "name": "F3",
          "midi": 53,
          "time": 150.5356339999991,
          "velocity": 0.3937007874015748,
          "duration": 0.5357139999999845
        },
        {
          "name": "B5",
          "midi": 83,
          "time": 150.9374194999991,
          "velocity": 0.3937007874015748,
          "duration": 0.13392849999999612
        },
        {
          "name": "A5",
          "midi": 81,
          "time": 151.0713479999991,
          "velocity": 0.3937007874015748,
          "duration": 0.13392849999999612
        },
        {
          "name": "C6",
          "midi": 84,
          "time": 151.0713479999991,
          "velocity": 0.3937007874015748,
          "duration": 0.13392849999999612
        },
        {
          "name": "F2",
          "midi": 41,
          "time": 151.0713479999991,
          "velocity": 0.3937007874015748,
          "duration": 1.071427999999969
        },
        {
          "name": "F3",
          "midi": 53,
          "time": 151.0713479999991,
          "velocity": 0.3937007874015748,
          "duration": 1.071427999999969
        },
        {
          "name": "B5",
          "midi": 83,
          "time": 151.2052764999991,
          "velocity": 0.3937007874015748,
          "duration": 0.13392849999999612
        },
        {
          "name": "A5",
          "midi": 81,
          "time": 151.33920499999908,
          "velocity": 0.3937007874015748,
          "duration": 0.13392849999999612
        },
        {
          "name": "G5",
          "midi": 79,
          "time": 151.47313349999908,
          "velocity": 0.3937007874015748,
          "duration": 0.13392849999999612
        },
        {
          "name": "F5",
          "midi": 77,
          "time": 151.60706199999908,
          "velocity": 0.3937007874015748,
          "duration": 0.13392849999999612
        },
        {
          "name": "A5",
          "midi": 81,
          "time": 151.60706199999908,
          "velocity": 0.3937007874015748,
          "duration": 0.13392849999999612
        },
        {
          "name": "G5",
          "midi": 79,
          "time": 151.74099049999907,
          "velocity": 0.3937007874015748,
          "duration": 0.13392849999999612
        },
        {
          "name": "A5",
          "midi": 81,
          "time": 151.87491899999907,
          "velocity": 0.3937007874015748,
          "duration": 0.13392849999999612
        },
        {
          "name": "B5",
          "midi": 83,
          "time": 152.00884749999906,
          "velocity": 0.3937007874015748,
          "duration": 0.13392849999999612
        },
        {
          "name": "F5",
          "midi": 77,
          "time": 152.14277599999906,
          "velocity": 0.3937007874015748,
          "duration": 0.40178549999998836
        },
        {
          "name": "A5",
          "midi": 81,
          "time": 152.14277599999906,
          "velocity": 0.3937007874015748,
          "duration": 0.40178549999998836
        },
        {
          "name": "D3",
          "midi": 50,
          "time": 152.14277599999906,
          "velocity": 0.3937007874015748,
          "duration": 0.26785699999999224
        },
        {
          "name": "A2",
          "midi": 45,
          "time": 152.41063299999905,
          "velocity": 0.3937007874015748,
          "duration": 0.26785699999999224
        },
        {
          "name": "A4",
          "midi": 69,
          "time": 152.54456149999905,
          "velocity": 0.3937007874015748,
          "duration": 0.40178549999998836
        },
        {
          "name": "D5",
          "midi": 74,
          "time": 152.54456149999905,
          "velocity": 0.3937007874015748,
          "duration": 0.40178549999998836
        },
        {
          "name": "F2",
          "midi": 41,
          "time": 152.67848999999904,
          "velocity": 0.3937007874015748,
          "duration": 0.26785699999999224
        },
        {
          "name": "D5",
          "midi": 74,
          "time": 152.94634699999904,
          "velocity": 0.3937007874015748,
          "duration": 0.13392849999999612
        },
        {
          "name": "D2",
          "midi": 38,
          "time": 152.94634699999904,
          "velocity": 0.3937007874015748,
          "duration": 0.26785699999999224
        },
        {
          "name": "E5",
          "midi": 76,
          "time": 153.08027549999903,
          "velocity": 0.3937007874015748,
          "duration": 0.13392849999999612
        },
        {
          "name": "F5",
          "midi": 77,
          "time": 153.21420399999903,
          "velocity": 0.3937007874015748,
          "duration": 0.40178549999998836
        },
        {
          "name": "A#2",
          "midi": 46,
          "time": 153.21420399999903,
          "velocity": 0.3937007874015748,
          "duration": 0.40178549999998836
        },
        {
          "name": "G5",
          "midi": 79,
          "time": 153.61598949999902,
          "velocity": 0.3937007874015748,
          "duration": 0.40178549999998836
        },
        {
          "name": "F2",
          "midi": 41,
          "time": 153.61598949999902,
          "velocity": 0.3937007874015748,
          "duration": 0.40178549999998836
        },
        {
          "name": "A#5",
          "midi": 82,
          "time": 154.017774999999,
          "velocity": 0.3937007874015748,
          "duration": 0.13392849999999612
        },
        {
          "name": "A#2",
          "midi": 46,
          "time": 154.017774999999,
          "velocity": 0.3937007874015748,
          "duration": 0.13392849999999612
        },
        {
          "name": "A5",
          "midi": 81,
          "time": 154.285631999999,
          "velocity": 0.3937007874015748,
          "duration": 0.13392849999999612
        },
        {
          "name": "A3",
          "midi": 57,
          "time": 154.285631999999,
          "velocity": 0.3937007874015748,
          "duration": 0.13392849999999612
        },
        {
          "name": "E5",
          "midi": 76,
          "time": 154.553488999999,
          "velocity": 0.3937007874015748,
          "duration": 0.13392849999999612
        },
        {
          "name": "E3",
          "midi": 52,
          "time": 154.553488999999,
          "velocity": 0.3937007874015748,
          "duration": 0.13392849999999612
        },
        {
          "name": "C#5",
          "midi": 73,
          "time": 154.82134599999898,
          "velocity": 0.3937007874015748,
          "duration": 0.13392849999999612
        },
        {
          "name": "C#3",
          "midi": 49,
          "time": 154.82134599999898,
          "velocity": 0.3937007874015748,
          "duration": 0.13392849999999612
        },
        {
          "name": "A4",
          "midi": 69,
          "time": 155.08920299999897,
          "velocity": 0.3937007874015748,
          "duration": 0.13392849999999612
        },
        {
          "name": "A2",
          "midi": 45,
          "time": 155.08920299999897,
          "velocity": 0.3937007874015748,
          "duration": 0.13392849999999612
        },
        {
          "name": "D#5",
          "midi": 75,
          "time": 155.35705999999897,
          "velocity": 0.3937007874015748,
          "duration": 0.13392849999999612
        },
        {
          "name": "G5",
          "midi": 79,
          "time": 155.35705999999897,
          "velocity": 0.3937007874015748,
          "duration": 0.13392849999999612
        },
        {
          "name": "A#2",
          "midi": 46,
          "time": 155.35705999999897,
          "velocity": 0.3937007874015748,
          "duration": 0.26785699999999224
        },
        {
          "name": "F5",
          "midi": 77,
          "time": 155.49098849999896,
          "velocity": 0.3937007874015748,
          "duration": 0.13392849999999612
        },
        {
          "name": "D#5",
          "midi": 75,
          "time": 155.62491699999896,
          "velocity": 0.3937007874015748,
          "duration": 0.13392849999999612
        },
        {
          "name": "A#2",
          "midi": 46,
          "time": 155.62491699999896,
          "velocity": 0.3937007874015748,
          "duration": 0.26785699999999224
        },
        {
          "name": "D5",
          "midi": 74,
          "time": 155.75884549999896,
          "velocity": 0.3937007874015748,
          "duration": 0.13392849999999612
        },
        {
          "name": "C5",
          "midi": 72,
          "time": 155.89277399999895,
          "velocity": 0.3937007874015748,
          "duration": 0.13392849999999612
        },
        {
          "name": "D#5",
          "midi": 75,
          "time": 155.89277399999895,
          "velocity": 0.3937007874015748,
          "duration": 0.13392849999999612
        },
        {
          "name": "G3",
          "midi": 55,
          "time": 155.89277399999895,
          "velocity": 0.3937007874015748,
          "duration": 0.26785699999999224
        },
        {
          "name": "D5",
          "midi": 74,
          "time": 156.02670249999895,
          "velocity": 0.3937007874015748,
          "duration": 0.13392849999999612
        },
        {
          "name": "C5",
          "midi": 72,
          "time": 156.16063099999894,
          "velocity": 0.3937007874015748,
          "duration": 0.13392849999999612
        },
        {
          "name": "A#3",
          "midi": 58,
          "time": 156.16063099999894,
          "velocity": 0.3937007874015748,
          "duration": 0.26785699999999224
        },
        {
          "name": "D#5",
          "midi": 75,
          "time": 156.29455949999894,
          "velocity": 0.3937007874015748,
          "duration": 0.13392849999999612
        },
        {
          "name": "A4",
          "midi": 69,
          "time": 156.42848799999894,
          "velocity": 0.3937007874015748,
          "duration": 0.40178549999998836
        },
        {
          "name": "D5",
          "midi": 74,
          "time": 156.42848799999894,
          "velocity": 0.3937007874015748,
          "duration": 0.40178549999998836
        },
        {
          "name": "D3",
          "midi": 50,
          "time": 156.42848799999894,
          "velocity": 0.3937007874015748,
          "duration": 0.26785699999999224
        },
        {
          "name": "A3",
          "midi": 57,
          "time": 156.69634499999893,
          "velocity": 0.3937007874015748,
          "duration": 0.26785699999999224
        },
        {
          "name": "A4",
          "midi": 69,
          "time": 156.83027349999892,
          "velocity": 0.3937007874015748,
          "duration": 0.40178549999998836
        },
        {
          "name": "D4",
          "midi": 62,
          "time": 156.96420199999892,
          "velocity": 0.3937007874015748,
          "duration": 0.26785699999999224
        },
        {
          "name": "A4",
          "midi": 69,
          "time": 157.2320589999989,
          "velocity": 0.3937007874015748,
          "duration": 0.13392849999999612
        },
        {
          "name": "D3",
          "midi": 50,
          "time": 157.2320589999989,
          "velocity": 0.3937007874015748,
          "duration": 0.26785699999999224
        },
        {
          "name": "D5",
          "midi": 74,
          "time": 157.3659874999989,
          "velocity": 0.3937007874015748,
          "duration": 0.13392849999999612
        },
        {
          "name": "D#5",
          "midi": 75,
          "time": 157.4999159999989,
          "velocity": 0.3937007874015748,
          "duration": 0.13392849999999612
        },
        {
          "name": "G5",
          "midi": 79,
          "time": 157.4999159999989,
          "velocity": 0.3937007874015748,
          "duration": 0.13392849999999612
        },
        {
          "name": "A#2",
          "midi": 46,
          "time": 157.4999159999989,
          "velocity": 0.3937007874015748,
          "duration": 0.26785699999999224
        },
        {
          "name": "F5",
          "midi": 77,
          "time": 157.6338444999989,
          "velocity": 0.3937007874015748,
          "duration": 0.13392849999999612
        },
        {
          "name": "D#5",
          "midi": 75,
          "time": 157.7677729999989,
          "velocity": 0.3937007874015748,
          "duration": 0.13392849999999612
        },
        {
          "name": "A#2",
          "midi": 46,
          "time": 157.7677729999989,
          "velocity": 0.3937007874015748,
          "duration": 0.26785699999999224
        },
        {
          "name": "D5",
          "midi": 74,
          "time": 157.9017014999989,
          "velocity": 0.3937007874015748,
          "duration": 0.13392849999999612
        },
        {
          "name": "A4",
          "midi": 69,
          "time": 158.0356299999989,
          "velocity": 0.3937007874015748,
          "duration": 0.13392849999999612
        },
        {
          "name": "C5",
          "midi": 72,
          "time": 158.0356299999989,
          "velocity": 0.3937007874015748,
          "duration": 0.13392849999999612
        },
        {
          "name": "G3",
          "midi": 55,
          "time": 158.0356299999989,
          "velocity": 0.3937007874015748,
          "duration": 0.26785699999999224
        },
        {
          "name": "A#5",
          "midi": 82,
          "time": 158.16955849999889,
          "velocity": 0.3937007874015748,
          "duration": 0.13392849999999612
        },
        {
          "name": "A5",
          "midi": 81,
          "time": 158.30348699999888,
          "velocity": 0.3937007874015748,
          "duration": 0.13392849999999612
        },
        {
          "name": "A#3",
          "midi": 58,
          "time": 158.30348699999888,
          "velocity": 0.3937007874015748,
          "duration": 0.26785699999999224
        },
        {
          "name": "G5",
          "midi": 79,
          "time": 158.43741549999888,
          "velocity": 0.3937007874015748,
          "duration": 0.13392849999999612
        },
        {
          "name": "D5",
          "midi": 74,
          "time": 158.57134399999887,
          "velocity": 0.3937007874015748,
          "duration": 0.26785699999999224
        },
        {
          "name": "F5",
          "midi": 77,
          "time": 158.57134399999887,
          "velocity": 0.3937007874015748,
          "duration": 0.26785699999999224
        },
        {
          "name": "D2",
          "midi": 38,
          "time": 158.57134399999887,
          "velocity": 0.3937007874015748,
          "duration": 0.26785699999999224
        },
        {
          "name": "D3",
          "midi": 50,
          "time": 158.57134399999887,
          "velocity": 0.3937007874015748,
          "duration": 0.26785699999999224
        },
        {
          "name": "E5",
          "midi": 76,
          "time": 158.83920099999887,
          "velocity": 0.3937007874015748,
          "duration": 0.26785699999999224
        },
        {
          "name": "G5",
          "midi": 79,
          "time": 158.83920099999887,
          "velocity": 0.3937007874015748,
          "duration": 0.26785699999999224
        },
        {
          "name": "E2",
          "midi": 40,
          "time": 158.83920099999887,
          "velocity": 0.3937007874015748,
          "duration": 0.26785699999999224
        },
        {
          "name": "E3",
          "midi": 52,
          "time": 158.83920099999887,
          "velocity": 0.3937007874015748,
          "duration": 0.26785699999999224
        },
        {
          "name": "F5",
          "midi": 77,
          "time": 159.10705799999886,
          "velocity": 0.3937007874015748,
          "duration": 0.40178549999998836
        },
        {
          "name": "A5",
          "midi": 81,
          "time": 159.10705799999886,
          "velocity": 0.3937007874015748,
          "duration": 0.40178549999998836
        },
        {
          "name": "F2",
          "midi": 41,
          "time": 159.10705799999886,
          "velocity": 0.3937007874015748,
          "duration": 0.5357139999999845
        },
        {
          "name": "F3",
          "midi": 53,
          "time": 159.10705799999886,
          "velocity": 0.3937007874015748,
          "duration": 0.5357139999999845
        },
        {
          "name": "B5",
          "midi": 83,
          "time": 159.50884349999885,
          "velocity": 0.3937007874015748,
          "duration": 0.13392849999999612
        },
        {
          "name": "A5",
          "midi": 81,
          "time": 159.64277199999884,
          "velocity": 0.3937007874015748,
          "duration": 0.13392849999999612
        },
        {
          "name": "C6",
          "midi": 84,
          "time": 159.64277199999884,
          "velocity": 0.3937007874015748,
          "duration": 0.13392849999999612
        },
        {
          "name": "F2",
          "midi": 41,
          "time": 159.64277199999884,
          "velocity": 0.3937007874015748,
          "duration": 1.071427999999969
        },
        {
          "name": "F3",
          "midi": 53,
          "time": 159.64277199999884,
          "velocity": 0.3937007874015748,
          "duration": 1.071427999999969
        },
        {
          "name": "B5",
          "midi": 83,
          "time": 159.77670049999884,
          "velocity": 0.3937007874015748,
          "duration": 0.13392849999999612
        },
        {
          "name": "A5",
          "midi": 81,
          "time": 159.91062899999883,
          "velocity": 0.3937007874015748,
          "duration": 0.13392849999999612
        },
        {
          "name": "G5",
          "midi": 79,
          "time": 160.04455749999883,
          "velocity": 0.3937007874015748,
          "duration": 0.13392849999999612
        },
        {
          "name": "F5",
          "midi": 77,
          "time": 160.17848599999883,
          "velocity": 0.3937007874015748,
          "duration": 0.13392849999999612
        },
        {
          "name": "A5",
          "midi": 81,
          "time": 160.17848599999883,
          "velocity": 0.3937007874015748,
          "duration": 0.13392849999999612
        },
        {
          "name": "G5",
          "midi": 79,
          "time": 160.31241449999882,
          "velocity": 0.3937007874015748,
          "duration": 0.13392849999999612
        },
        {
          "name": "A5",
          "midi": 81,
          "time": 160.44634299999882,
          "velocity": 0.3937007874015748,
          "duration": 0.13392849999999612
        },
        {
          "name": "B5",
          "midi": 83,
          "time": 160.58027149999882,
          "velocity": 0.3937007874015748,
          "duration": 0.13392849999999612
        },
        {
          "name": "F5",
          "midi": 77,
          "time": 160.7141999999988,
          "velocity": 0.3937007874015748,
          "duration": 0.40178549999998836
        },
        {
          "name": "A5",
          "midi": 81,
          "time": 160.7141999999988,
          "velocity": 0.3937007874015748,
          "duration": 0.40178549999998836
        },
        {
          "name": "D3",
          "midi": 50,
          "time": 160.7141999999988,
          "velocity": 0.3937007874015748,
          "duration": 0.26785699999999224
        },
        {
          "name": "A2",
          "midi": 45,
          "time": 160.9820569999988,
          "velocity": 0.3937007874015748,
          "duration": 0.26785699999999224
        },
        {
          "name": "A4",
          "midi": 69,
          "time": 161.1159854999988,
          "velocity": 0.3937007874015748,
          "duration": 0.40178549999998836
        },
        {
          "name": "D5",
          "midi": 74,
          "time": 161.1159854999988,
          "velocity": 0.3937007874015748,
          "duration": 0.40178549999998836
        },
        {
          "name": "F2",
          "midi": 41,
          "time": 161.2499139999988,
          "velocity": 0.3937007874015748,
          "duration": 0.26785699999999224
        },
        {
          "name": "D5",
          "midi": 74,
          "time": 161.5177709999988,
          "velocity": 0.3937007874015748,
          "duration": 0.13392849999999612
        },
        {
          "name": "D2",
          "midi": 38,
          "time": 161.5177709999988,
          "velocity": 0.3937007874015748,
          "duration": 0.26785699999999224
        },
        {
          "name": "E5",
          "midi": 76,
          "time": 161.65169949999878,
          "velocity": 0.3937007874015748,
          "duration": 0.13392849999999612
        },
        {
          "name": "A#4",
          "midi": 70,
          "time": 161.78562799999878,
          "velocity": 0.3937007874015748,
          "duration": 0.40178549999998836
        },
        {
          "name": "F5",
          "midi": 77,
          "time": 161.78562799999878,
          "velocity": 0.3937007874015748,
          "duration": 0.40178549999998836
        },
        {
          "name": "A#2",
          "midi": 46,
          "time": 161.78562799999878,
          "velocity": 0.3937007874015748,
          "duration": 0.40178549999998836
        },
        {
          "name": "D3",
          "midi": 50,
          "time": 161.78562799999878,
          "velocity": 0.3937007874015748,
          "duration": 0.40178549999998836
        },
        {
          "name": "E5",
          "midi": 76,
          "time": 162.18741349999877,
          "velocity": 0.3937007874015748,
          "duration": 0.40178549999998836
        },
        {
          "name": "A#2",
          "midi": 46,
          "time": 162.18741349999877,
          "velocity": 0.3937007874015748,
          "duration": 0.40178549999998836
        },
        {
          "name": "D3",
          "midi": 50,
          "time": 162.18741349999877,
          "velocity": 0.3937007874015748,
          "duration": 0.40178549999998836
        },
        {
          "name": "C5",
          "midi": 72,
          "time": 162.58919899999876,
          "velocity": 0.3937007874015748,
          "duration": 0.26785699999999224
        },
        {
          "name": "A#2",
          "midi": 46,
          "time": 162.58919899999876,
          "velocity": 0.3937007874015748,
          "duration": 0.26785699999999224
        },
        {
          "name": "D3",
          "midi": 50,
          "time": 162.58919899999876,
          "velocity": 0.3937007874015748,
          "duration": 0.26785699999999224
        },
        {
          "name": "F4",
          "midi": 65,
          "time": 162.85705599999875,
          "velocity": 0.3937007874015748,
          "duration": 0.8035709999999767
        },
        {
          "name": "A#4",
          "midi": 70,
          "time": 162.85705599999875,
          "velocity": 0.3937007874015748,
          "duration": 0.8035709999999767
        },
        {
          "name": "D5",
          "midi": 74,
          "time": 162.85705599999875,
          "velocity": 0.3937007874015748,
          "duration": 0.8035709999999767
        },
        {
          "name": "A#2",
          "midi": 46,
          "time": 162.85705599999875,
          "velocity": 0.3937007874015748,
          "duration": 0.40178549999998836
        },
        {
          "name": "D3",
          "midi": 50,
          "time": 162.85705599999875,
          "velocity": 0.3937007874015748,
          "duration": 0.40178549999998836
        },
        {
          "name": "A#2",
          "midi": 46,
          "time": 163.25884149999874,
          "velocity": 0.3937007874015748,
          "duration": 0.40178549999998836
        },
        {
          "name": "D3",
          "midi": 50,
          "time": 163.25884149999874,
          "velocity": 0.3937007874015748,
          "duration": 0.40178549999998836
        },
        {
          "name": "D5",
          "midi": 74,
          "time": 163.66062699999873,
          "velocity": 0.3937007874015748,
          "duration": 0.13392849999999612
        },
        {
          "name": "A#2",
          "midi": 46,
          "time": 163.66062699999873,
          "velocity": 0.3937007874015748,
          "duration": 0.26785699999999224
        },
        {
          "name": "D3",
          "midi": 50,
          "time": 163.66062699999873,
          "velocity": 0.3937007874015748,
          "duration": 0.26785699999999224
        },
        {
          "name": "E5",
          "midi": 76,
          "time": 163.79455549999872,
          "velocity": 0.3937007874015748,
          "duration": 0.13392849999999612
        },
        {
          "name": "C5",
          "midi": 72,
          "time": 163.92848399999872,
          "velocity": 0.3937007874015748,
          "duration": 0.40178549999998836
        },
        {
          "name": "F5",
          "midi": 77,
          "time": 163.92848399999872,
          "velocity": 0.3937007874015748,
          "duration": 0.40178549999998836
        },
        {
          "name": "C3",
          "midi": 48,
          "time": 163.92848399999872,
          "velocity": 0.3937007874015748,
          "duration": 0.40178549999998836
        },
        {
          "name": "E3",
          "midi": 52,
          "time": 163.92848399999872,
          "velocity": 0.3937007874015748,
          "duration": 0.40178549999998836
        },
        {
          "name": "E5",
          "midi": 76,
          "time": 164.3302694999987,
          "velocity": 0.3937007874015748,
          "duration": 0.40178549999998836
        },
        {
          "name": "C3",
          "midi": 48,
          "time": 164.3302694999987,
          "velocity": 0.3937007874015748,
          "duration": 0.40178549999998836
        },
        {
          "name": "E3",
          "midi": 52,
          "time": 164.3302694999987,
          "velocity": 0.3937007874015748,
          "duration": 0.40178549999998836
        },
        {
          "name": "C5",
          "midi": 72,
          "time": 164.7320549999987,
          "velocity": 0.3937007874015748,
          "duration": 0.26785699999999224
        },
        {
          "name": "C3",
          "midi": 48,
          "time": 164.7320549999987,
          "velocity": 0.3937007874015748,
          "duration": 0.26785699999999224
        },
        {
          "name": "E3",
          "midi": 52,
          "time": 164.7320549999987,
          "velocity": 0.3937007874015748,
          "duration": 0.26785699999999224
        },
        {
          "name": "F4",
          "midi": 65,
          "time": 164.9999119999987,
          "velocity": 0.3937007874015748,
          "duration": 0.8035709999999767
        },
        {
          "name": "C5",
          "midi": 72,
          "time": 164.9999119999987,
          "velocity": 0.3937007874015748,
          "duration": 0.8035709999999767
        },
        {
          "name": "D5",
          "midi": 74,
          "time": 164.9999119999987,
          "velocity": 0.3937007874015748,
          "duration": 0.8035709999999767
        },
        {
          "name": "C3",
          "midi": 48,
          "time": 164.9999119999987,
          "velocity": 0.3937007874015748,
          "duration": 0.40178549999998836
        },
        {
          "name": "E3",
          "midi": 52,
          "time": 164.9999119999987,
          "velocity": 0.3937007874015748,
          "duration": 0.40178549999998836
        },
        {
          "name": "C3",
          "midi": 48,
          "time": 165.40169749999868,
          "velocity": 0.3937007874015748,
          "duration": 0.40178549999998836
        },
        {
          "name": "E3",
          "midi": 52,
          "time": 165.40169749999868,
          "velocity": 0.3937007874015748,
          "duration": 0.40178549999998836
        },
        {
          "name": "D5",
          "midi": 74,
          "time": 165.80348299999866,
          "velocity": 0.3937007874015748,
          "duration": 0.13392849999999612
        },
        {
          "name": "C3",
          "midi": 48,
          "time": 165.80348299999866,
          "velocity": 0.3937007874015748,
          "duration": 0.26785699999999224
        },
        {
          "name": "E3",
          "midi": 52,
          "time": 165.80348299999866,
          "velocity": 0.3937007874015748,
          "duration": 0.26785699999999224
        },
        {
          "name": "E5",
          "midi": 76,
          "time": 165.93741149999866,
          "velocity": 0.3937007874015748,
          "duration": 0.13392849999999612
        },
        {
          "name": "A#4",
          "midi": 70,
          "time": 166.07133999999866,
          "velocity": 0.3937007874015748,
          "duration": 0.40178549999998836
        },
        {
          "name": "F5",
          "midi": 77,
          "time": 166.07133999999866,
          "velocity": 0.3937007874015748,
          "duration": 0.40178549999998836
        },
        {
          "name": "A#2",
          "midi": 46,
          "time": 166.07133999999866,
          "velocity": 0.3937007874015748,
          "duration": 0.40178549999998836
        },
        {
          "name": "D3",
          "midi": 50,
          "time": 166.07133999999866,
          "velocity": 0.3937007874015748,
          "duration": 0.40178549999998836
        },
        {
          "name": "E5",
          "midi": 76,
          "time": 166.47312549999864,
          "velocity": 0.3937007874015748,
          "duration": 0.40178549999998836
        },
        {
          "name": "A#2",
          "midi": 46,
          "time": 166.47312549999864,
          "velocity": 0.3937007874015748,
          "duration": 0.40178549999998836
        },
        {
          "name": "D3",
          "midi": 50,
          "time": 166.47312549999864,
          "velocity": 0.3937007874015748,
          "duration": 0.40178549999998836
        },
        {
          "name": "C5",
          "midi": 72,
          "time": 166.87491099999863,
          "velocity": 0.3937007874015748,
          "duration": 0.26785699999999224
        },
        {
          "name": "A#2",
          "midi": 46,
          "time": 166.87491099999863,
          "velocity": 0.3937007874015748,
          "duration": 0.26785699999999224
        },
        {
          "name": "D3",
          "midi": 50,
          "time": 166.87491099999863,
          "velocity": 0.3937007874015748,
          "duration": 0.26785699999999224
        },
        {
          "name": "F4",
          "midi": 65,
          "time": 167.14276799999863,
          "velocity": 0.3937007874015748,
          "duration": 0.8035709999999767
        },
        {
          "name": "A#4",
          "midi": 70,
          "time": 167.14276799999863,
          "velocity": 0.3937007874015748,
          "duration": 0.8035709999999767
        },
        {
          "name": "D5",
          "midi": 74,
          "time": 167.14276799999863,
          "velocity": 0.3937007874015748,
          "duration": 0.8035709999999767
        },
        {
          "name": "A#2",
          "midi": 46,
          "time": 167.14276799999863,
          "velocity": 0.3937007874015748,
          "duration": 0.40178549999998836
        },
        {
          "name": "D3",
          "midi": 50,
          "time": 167.14276799999863,
          "velocity": 0.3937007874015748,
          "duration": 0.40178549999998836
        },
        {
          "name": "A#2",
          "midi": 46,
          "time": 167.5445534999986,
          "velocity": 0.3937007874015748,
          "duration": 0.40178549999998836
        },
        {
          "name": "D3",
          "midi": 50,
          "time": 167.5445534999986,
          "velocity": 0.3937007874015748,
          "duration": 0.40178549999998836
        },
        {
          "name": "D5",
          "midi": 74,
          "time": 167.9463389999986,
          "velocity": 0.3937007874015748,
          "duration": 0.13392849999999612
        },
        {
          "name": "A#2",
          "midi": 46,
          "time": 167.9463389999986,
          "velocity": 0.3937007874015748,
          "duration": 0.26785699999999224
        },
        {
          "name": "D3",
          "midi": 50,
          "time": 167.9463389999986,
          "velocity": 0.3937007874015748,
          "duration": 0.26785699999999224
        },
        {
          "name": "E5",
          "midi": 76,
          "time": 168.0802674999986,
          "velocity": 0.3937007874015748,
          "duration": 0.13392849999999612
        },
        {
          "name": "C5",
          "midi": 72,
          "time": 168.2141959999986,
          "velocity": 0.3937007874015748,
          "duration": 0.40178549999998836
        },
        {
          "name": "F5",
          "midi": 77,
          "time": 168.2141959999986,
          "velocity": 0.3937007874015748,
          "duration": 0.40178549999998836
        },
        {
          "name": "C3",
          "midi": 48,
          "time": 168.2141959999986,
          "velocity": 0.3937007874015748,
          "duration": 0.40178549999998836
        },
        {
          "name": "E3",
          "midi": 52,
          "time": 168.2141959999986,
          "velocity": 0.3937007874015748,
          "duration": 0.40178549999998836
        },
        {
          "name": "E5",
          "midi": 76,
          "time": 168.61598149999858,
          "velocity": 0.3937007874015748,
          "duration": 0.40178549999998836
        },
        {
          "name": "C3",
          "midi": 48,
          "time": 168.61598149999858,
          "velocity": 0.3937007874015748,
          "duration": 0.40178549999998836
        },
        {
          "name": "E3",
          "midi": 52,
          "time": 168.61598149999858,
          "velocity": 0.3937007874015748,
          "duration": 0.40178549999998836
        },
        {
          "name": "C5",
          "midi": 72,
          "time": 169.01776699999857,
          "velocity": 0.3937007874015748,
          "duration": 0.26785699999999224
        },
        {
          "name": "C3",
          "midi": 48,
          "time": 169.01776699999857,
          "velocity": 0.3937007874015748,
          "duration": 0.26785699999999224
        },
        {
          "name": "E3",
          "midi": 52,
          "time": 169.01776699999857,
          "velocity": 0.3937007874015748,
          "duration": 0.26785699999999224
        },
        {
          "name": "F4",
          "midi": 65,
          "time": 169.28562399999856,
          "velocity": 0.3937007874015748,
          "duration": 0.8035709999999767
        },
        {
          "name": "C5",
          "midi": 72,
          "time": 169.28562399999856,
          "velocity": 0.3937007874015748,
          "duration": 0.8035709999999767
        },
        {
          "name": "D5",
          "midi": 74,
          "time": 169.28562399999856,
          "velocity": 0.3937007874015748,
          "duration": 0.8035709999999767
        },
        {
          "name": "C3",
          "midi": 48,
          "time": 169.28562399999856,
          "velocity": 0.3937007874015748,
          "duration": 0.40178549999998836
        },
        {
          "name": "E3",
          "midi": 52,
          "time": 169.28562399999856,
          "velocity": 0.3937007874015748,
          "duration": 0.40178549999998836
        },
        {
          "name": "C3",
          "midi": 48,
          "time": 169.68740949999855,
          "velocity": 0.3937007874015748,
          "duration": 0.40178549999998836
        },
        {
          "name": "E3",
          "midi": 52,
          "time": 169.68740949999855,
          "velocity": 0.3937007874015748,
          "duration": 0.40178549999998836
        },
        {
          "name": "C5",
          "midi": 72,
          "time": 170.08919499999854,
          "velocity": 0.3937007874015748,
          "duration": 0.26785699999999224
        },
        {
          "name": "C3",
          "midi": 48,
          "time": 170.08919499999854,
          "velocity": 0.3937007874015748,
          "duration": 0.26785699999999224
        },
        {
          "name": "E3",
          "midi": 52,
          "time": 170.08919499999854,
          "velocity": 0.3937007874015748,
          "duration": 0.26785699999999224
        },
        {
          "name": "D4",
          "midi": 62,
          "time": 170.35705199999853,
          "velocity": 0.3937007874015748,
          "duration": 0.40178549999998836
        },
        {
          "name": "A4",
          "midi": 69,
          "time": 170.35705199999853,
          "velocity": 0.3937007874015748,
          "duration": 0.40178549999998836
        },
        {
          "name": "D5",
          "midi": 74,
          "time": 170.35705199999853,
          "velocity": 0.3937007874015748,
          "duration": 0.40178549999998836
        },
        {
          "name": "D2",
          "midi": 38,
          "time": 170.35705199999853,
          "velocity": 0.3937007874015748,
          "duration": 0.40178549999998836
        },
        {
          "name": "D4",
          "midi": 62,
          "time": 170.75883749999852,
          "velocity": 0.3937007874015748,
          "duration": 0.13392849999999612
        },
        {
          "name": "A4",
          "midi": 69,
          "time": 170.75883749999852,
          "velocity": 0.3937007874015748,
          "duration": 0.13392849999999612
        },
        {
          "name": "A2",
          "midi": 45,
          "time": 170.75883749999852,
          "velocity": 0.3937007874015748,
          "duration": 0.13392849999999612
        },
        {
          "name": "D4",
          "midi": 62,
          "time": 171.1606229999985,
          "velocity": 0.3937007874015748,
          "duration": 0.13392849999999612
        },
        {
          "name": "A4",
          "midi": 69,
          "time": 171.1606229999985,
          "velocity": 0.3937007874015748,
          "duration": 0.13392849999999612
        },
        {
          "name": "D3",
          "midi": 50,
          "time": 171.1606229999985,
          "velocity": 0.3937007874015748,
          "duration": 0.13392849999999612
        },
        {
          "name": "D4",
          "midi": 62,
          "time": 171.4284799999985,
          "velocity": 0.3937007874015748,
          "duration": 0.40178549999998836
        },
        {
          "name": "G4",
          "midi": 67,
          "time": 171.4284799999985,
          "velocity": 0.3937007874015748,
          "duration": 0.40178549999998836
        },
        {
          "name": "B4",
          "midi": 71,
          "time": 171.4284799999985,
          "velocity": 0.3937007874015748,
          "duration": 0.40178549999998836
        },
        {
          "name": "G2",
          "midi": 43,
          "time": 171.4284799999985,
          "velocity": 0.3937007874015748,
          "duration": 0.40178549999998836
        },
        {
          "name": "D4",
          "midi": 62,
          "time": 171.8302654999985,
          "velocity": 0.3937007874015748,
          "duration": 0.13392849999999612
        },
        {
          "name": "G4",
          "midi": 67,
          "time": 171.8302654999985,
          "velocity": 0.3937007874015748,
          "duration": 0.13392849999999612
        },
        {
          "name": "B2",
          "midi": 47,
          "time": 171.8302654999985,
          "velocity": 0.3937007874015748,
          "duration": 0.13392849999999612
        },
        {
          "name": "D4",
          "midi": 62,
          "time": 172.23205099999848,
          "velocity": 0.3937007874015748,
          "duration": 0.13392849999999612
        },
        {
          "name": "G4",
          "midi": 67,
          "time": 172.23205099999848,
          "velocity": 0.3937007874015748,
          "duration": 0.13392849999999612
        },
        {
          "name": "D3",
          "midi": 50,
          "time": 172.23205099999848,
          "velocity": 0.3937007874015748,
          "duration": 0.26785699999999224
        },
        {
          "name": "D4",
          "midi": 62,
          "time": 172.49990799999847,
          "velocity": 0.3937007874015748,
          "duration": 0.40178549999998836
        },
        {
          "name": "A4",
          "midi": 69,
          "time": 172.49990799999847,
          "velocity": 0.3937007874015748,
          "duration": 0.40178549999998836
        },
        {
          "name": "D5",
          "midi": 74,
          "time": 172.49990799999847,
          "velocity": 0.3937007874015748,
          "duration": 0.40178549999998836
        },
        {
          "name": "D2",
          "midi": 38,
          "time": 172.49990799999847,
          "velocity": 0.3937007874015748,
          "duration": 0.40178549999998836
        },
        {
          "name": "D4",
          "midi": 62,
          "time": 172.90169349999846,
          "velocity": 0.3937007874015748,
          "duration": 0.13392849999999612
        },
        {
          "name": "A4",
          "midi": 69,
          "time": 172.90169349999846,
          "velocity": 0.3937007874015748,
          "duration": 0.13392849999999612
        },
        {
          "name": "A2",
          "midi": 45,
          "time": 172.90169349999846,
          "velocity": 0.3937007874015748,
          "duration": 0.40178549999998836
        },
        {
          "name": "D4",
          "midi": 62,
          "time": 173.30347899999845,
          "velocity": 0.3937007874015748,
          "duration": 0.13392849999999612
        },
        {
          "name": "A4",
          "midi": 69,
          "time": 173.30347899999845,
          "velocity": 0.3937007874015748,
          "duration": 0.13392849999999612
        },
        {
          "name": "D3",
          "midi": 50,
          "time": 173.30347899999845,
          "velocity": 0.3937007874015748,
          "duration": 0.13392849999999612
        },
        {
          "name": "D4",
          "midi": 62,
          "time": 173.57133599999844,
          "velocity": 0.3937007874015748,
          "duration": 0.40178549999998836
        },
        {
          "name": "G4",
          "midi": 67,
          "time": 173.57133599999844,
          "velocity": 0.3937007874015748,
          "duration": 0.40178549999998836
        },
        {
          "name": "B4",
          "midi": 71,
          "time": 173.57133599999844,
          "velocity": 0.3937007874015748,
          "duration": 0.40178549999998836
        },
        {
          "name": "G2",
          "midi": 43,
          "time": 173.57133599999844,
          "velocity": 0.3937007874015748,
          "duration": 0.40178549999998836
        },
        {
          "name": "D4",
          "midi": 62,
          "time": 173.97312149999843,
          "velocity": 0.3937007874015748,
          "duration": 0.13392849999999612
        },
        {
          "name": "G4",
          "midi": 67,
          "time": 173.97312149999843,
          "velocity": 0.3937007874015748,
          "duration": 0.13392849999999612
        },
        {
          "name": "B2",
          "midi": 47,
          "time": 173.97312149999843,
          "velocity": 0.3937007874015748,
          "duration": 0.13392849999999612
        },
        {
          "name": "D4",
          "midi": 62,
          "time": 174.37490699999842,
          "velocity": 0.3937007874015748,
          "duration": 0.13392849999999612
        },
        {
          "name": "G4",
          "midi": 67,
          "time": 174.37490699999842,
          "velocity": 0.3937007874015748,
          "duration": 0.13392849999999612
        },
        {
          "name": "D3",
          "midi": 50,
          "time": 174.37490699999842,
          "velocity": 0.3937007874015748,
          "duration": 0.13392849999999612
        },
        {
          "name": "D4",
          "midi": 62,
          "time": 174.6427639999984,
          "velocity": 0.3937007874015748,
          "duration": 0.5357140000000129
        },
        {
          "name": "F4",
          "midi": 65,
          "time": 174.6427639999984,
          "velocity": 0.3937007874015748,
          "duration": 0.5357140000000129
        },
        {
          "name": "A4",
          "midi": 69,
          "time": 174.6427639999984,
          "velocity": 0.3937007874015748,
          "duration": 0.5357140000000129
        },
        {
          "name": "D2",
          "midi": 38,
          "time": 174.6427639999984,
          "velocity": 0.3937007874015748,
          "duration": 0.5357140000000129
        },
        {
          "name": "A2",
          "midi": 45,
          "time": 174.6427639999984,
          "velocity": 0.3937007874015748,
          "duration": 0.5357140000000129
        },
        {
          "name": "D3",
          "midi": 50,
          "time": 174.6427639999984,
          "velocity": 0.3937007874015748,
          "duration": 0.5357140000000129
        },
        {
          "name": "D4",
          "midi": 62,
          "time": 175.71419199999843,
          "velocity": 0.3937007874015748,
          "duration": 0.5357140000000129
        },
        {
          "name": "F4",
          "midi": 65,
          "time": 175.71419199999843,
          "velocity": 0.3937007874015748,
          "duration": 0.5357140000000129
        },
        {
          "name": "D4",
          "midi": 62,
          "time": 176.24990599999845,
          "velocity": 0.3937007874015748,
          "duration": 0.5357140000000129
        },
        {
          "name": "A4",
          "midi": 69,
          "time": 176.24990599999845,
          "velocity": 0.3937007874015748,
          "duration": 0.5357140000000129
        },
        {
          "name": "A#3",
          "midi": 58,
          "time": 176.78561999999846,
          "velocity": 0.3937007874015748,
          "duration": 0.8035709999999767
        },
        {
          "name": "D4",
          "midi": 62,
          "time": 176.78561999999846,
          "velocity": 0.3937007874015748,
          "duration": 0.8035709999999767
        },
        {
          "name": "G4",
          "midi": 67,
          "time": 176.78561999999846,
          "velocity": 0.3937007874015748,
          "duration": 0.8035709999999767
        },
        {
          "name": "A#1",
          "midi": 34,
          "time": 176.78561999999846,
          "velocity": 0.3937007874015748,
          "duration": 0.13392849999999612
        },
        {
          "name": "F2",
          "midi": 41,
          "time": 176.91954849999846,
          "velocity": 0.3937007874015748,
          "duration": 0.13392849999999612
        },
        {
          "name": "A#2",
          "midi": 46,
          "time": 177.05347699999845,
          "velocity": 0.3937007874015748,
          "duration": 0.13392849999999612
        },
        {
          "name": "F2",
          "midi": 41,
          "time": 177.18740549999845,
          "velocity": 0.3937007874015748,
          "duration": 0.13392849999999612
        },
        {
          "name": "A#1",
          "midi": 34,
          "time": 177.32133399999844,
          "velocity": 0.3937007874015748,
          "duration": 0.13392849999999612
        },
        {
          "name": "F2",
          "midi": 41,
          "time": 177.45526249999844,
          "velocity": 0.3937007874015748,
          "duration": 0.13392849999999612
        },
        {
          "name": "A4",
          "midi": 69,
          "time": 177.58919099999844,
          "velocity": 0.3937007874015748,
          "duration": 0.26785699999999224
        },
        {
          "name": "A#2",
          "midi": 46,
          "time": 177.58919099999844,
          "velocity": 0.3937007874015748,
          "duration": 0.13392849999999612
        },
        {
          "name": "F2",
          "midi": 41,
          "time": 177.72311949999843,
          "velocity": 0.3937007874015748,
          "duration": 0.13392849999999612
        },
        {
          "name": "A#3",
          "midi": 58,
          "time": 177.85704799999843,
          "velocity": 0.3937007874015748,
          "duration": 0.40178549999998836
        },
        {
          "name": "D4",
          "midi": 62,
          "time": 177.85704799999843,
          "velocity": 0.3937007874015748,
          "duration": 0.40178549999998836
        },
        {
          "name": "A#1",
          "midi": 34,
          "time": 177.85704799999843,
          "velocity": 0.3937007874015748,
          "duration": 0.13392849999999612
        },
        {
          "name": "F2",
          "midi": 41,
          "time": 177.99097649999842,
          "velocity": 0.3937007874015748,
          "duration": 0.13392849999999612
        },
        {
          "name": "A#2",
          "midi": 46,
          "time": 178.12490499999842,
          "velocity": 0.3937007874015748,
          "duration": 0.13392849999999612
        },
        {
          "name": "E4",
          "midi": 64,
          "time": 178.25883349999842,
          "velocity": 0.3937007874015748,
          "duration": 0.40178549999998836
        },
        {
          "name": "F2",
          "midi": 41,
          "time": 178.25883349999842,
          "velocity": 0.3937007874015748,
          "duration": 0.13392849999999612
        },
        {
          "name": "A#1",
          "midi": 34,
          "time": 178.3927619999984,
          "velocity": 0.3937007874015748,
          "duration": 0.13392849999999612
        },
        {
          "name": "F2",
          "midi": 41,
          "time": 178.5266904999984,
          "velocity": 0.3937007874015748,
          "duration": 0.13392849999999612
        },
        {
          "name": "F4",
          "midi": 65,
          "time": 178.6606189999984,
          "velocity": 0.3937007874015748,
          "duration": 0.26785699999999224
        },
        {
          "name": "A#2",
          "midi": 46,
          "time": 178.6606189999984,
          "velocity": 0.3937007874015748,
          "duration": 0.13392849999999612
        },
        {
          "name": "F2",
          "midi": 41,
          "time": 178.7945474999984,
          "velocity": 0.3937007874015748,
          "duration": 0.13392849999999612
        },
        {
          "name": "A#3",
          "midi": 58,
          "time": 178.9284759999984,
          "velocity": 0.3937007874015748,
          "duration": 1.071427999999969
        },
        {
          "name": "F4",
          "midi": 65,
          "time": 178.9284759999984,
          "velocity": 0.3937007874015748,
          "duration": 1.071427999999969
        },
        {
          "name": "A4",
          "midi": 69,
          "time": 178.9284759999984,
          "velocity": 0.3937007874015748,
          "duration": 1.071427999999969
        },
        {
          "name": "A#1",
          "midi": 34,
          "time": 178.9284759999984,
          "velocity": 0.3937007874015748,
          "duration": 0.13392849999999612
        },
        {
          "name": "F2",
          "midi": 41,
          "time": 179.0624044999984,
          "velocity": 0.3937007874015748,
          "duration": 0.13392849999999612
        },
        {
          "name": "A#2",
          "midi": 46,
          "time": 179.1963329999984,
          "velocity": 0.3937007874015748,
          "duration": 0.13392849999999612
        },
        {
          "name": "F2",
          "midi": 41,
          "time": 179.3302614999984,
          "velocity": 0.3937007874015748,
          "duration": 0.13392849999999612
        },
        {
          "name": "A#1",
          "midi": 34,
          "time": 179.46418999999838,
          "velocity": 0.3937007874015748,
          "duration": 0.13392849999999612
        },
        {
          "name": "F2",
          "midi": 41,
          "time": 179.59811849999838,
          "velocity": 0.3937007874015748,
          "duration": 0.13392849999999612
        },
        {
          "name": "A#2",
          "midi": 46,
          "time": 179.73204699999837,
          "velocity": 0.3937007874015748,
          "duration": 0.13392849999999612
        },
        {
          "name": "F2",
          "midi": 41,
          "time": 179.86597549999837,
          "velocity": 0.3937007874015748,
          "duration": 0.13392849999999612
        },
        {
          "name": "A#3",
          "midi": 58,
          "time": 179.99990399999837,
          "velocity": 0.3937007874015748,
          "duration": 0.5357140000000129
        },
        {
          "name": "F4",
          "midi": 65,
          "time": 179.99990399999837,
          "velocity": 0.3937007874015748,
          "duration": 0.5357140000000129
        },
        {
          "name": "A#1",
          "midi": 34,
          "time": 179.99990399999837,
          "velocity": 0.3937007874015748,
          "duration": 0.5357140000000129
        },
        {
          "name": "A#2",
          "midi": 46,
          "time": 179.99990399999837,
          "velocity": 0.3937007874015748,
          "duration": 0.5357140000000129
        },
        {
          "name": "A#3",
          "midi": 58,
          "time": 180.53561799999838,
          "velocity": 0.3937007874015748,
          "duration": 0.5357140000000129
        },
        {
          "name": "A4",
          "midi": 69,
          "time": 180.53561799999838,
          "velocity": 0.3937007874015748,
          "duration": 0.5357140000000129
        },
        {
          "name": "C2",
          "midi": 36,
          "time": 180.53561799999838,
          "velocity": 0.3937007874015748,
          "duration": 0.5357140000000129
        },
        {
          "name": "C3",
          "midi": 48,
          "time": 180.53561799999838,
          "velocity": 0.3937007874015748,
          "duration": 0.5357140000000129
        },
        {
          "name": "D4",
          "midi": 62,
          "time": 181.0713319999984,
          "velocity": 0.3937007874015748,
          "duration": 0.8035709999999767
        },
        {
          "name": "G4",
          "midi": 67,
          "time": 181.0713319999984,
          "velocity": 0.3937007874015748,
          "duration": 0.8035709999999767
        },
        {
          "name": "D2",
          "midi": 38,
          "time": 181.0713319999984,
          "velocity": 0.3937007874015748,
          "duration": 0.13392849999999612
        },
        {
          "name": "A2",
          "midi": 45,
          "time": 181.2052604999984,
          "velocity": 0.3937007874015748,
          "duration": 0.13392849999999612
        },
        {
          "name": "D3",
          "midi": 50,
          "time": 181.33918899999838,
          "velocity": 0.3937007874015748,
          "duration": 0.13392849999999612
        },
        {
          "name": "A2",
          "midi": 45,
          "time": 181.47311749999838,
          "velocity": 0.3937007874015748,
          "duration": 0.13392849999999612
        },
        {
          "name": "D2",
          "midi": 38,
          "time": 181.60704599999838,
          "velocity": 0.3937007874015748,
          "duration": 0.13392849999999612
        },
        {
          "name": "A2",
          "midi": 45,
          "time": 181.74097449999837,
          "velocity": 0.3937007874015748,
          "duration": 0.13392849999999612
        },
        {
          "name": "A4",
          "midi": 69,
          "time": 181.87490299999837,
          "velocity": 0.3937007874015748,
          "duration": 0.26785699999999224
        },
        {
          "name": "D3",
          "midi": 50,
          "time": 181.87490299999837,
          "velocity": 0.3937007874015748,
          "duration": 0.13392849999999612
        },
        {
          "name": "A2",
          "midi": 45,
          "time": 182.00883149999837,
          "velocity": 0.3937007874015748,
          "duration": 0.13392849999999612
        },
        {
          "name": "D4",
          "midi": 62,
          "time": 182.14275999999836,
          "velocity": 0.3937007874015748,
          "duration": 0.40178549999998836
        },
        {
          "name": "D2",
          "midi": 38,
          "time": 182.14275999999836,
          "velocity": 0.3937007874015748,
          "duration": 0.13392849999999612
        },
        {
          "name": "A2",
          "midi": 45,
          "time": 182.27668849999836,
          "velocity": 0.3937007874015748,
          "duration": 0.13392849999999612
        },
        {
          "name": "D3",
          "midi": 50,
          "time": 182.41061699999835,
          "velocity": 0.3937007874015748,
          "duration": 0.13392849999999612
        },
        {
          "name": "E4",
          "midi": 64,
          "time": 182.54454549999835,
          "velocity": 0.3937007874015748,
          "duration": 0.40178549999998836
        },
        {
          "name": "A2",
          "midi": 45,
          "time": 182.54454549999835,
          "velocity": 0.3937007874015748,
          "duration": 0.13392849999999612
        },
        {
          "name": "D2",
          "midi": 38,
          "time": 182.67847399999835,
          "velocity": 0.3937007874015748,
          "duration": 0.13392849999999612
        },
        {
          "name": "A2",
          "midi": 45,
          "time": 182.81240249999834,
          "velocity": 0.3937007874015748,
          "duration": 0.13392849999999612
        },
        {
          "name": "C5",
          "midi": 72,
          "time": 182.94633099999834,
          "velocity": 0.3937007874015748,
          "duration": 0.26785699999999224
        },
        {
          "name": "D3",
          "midi": 50,
          "time": 182.94633099999834,
          "velocity": 0.3937007874015748,
          "duration": 0.13392849999999612
        },
        {
          "name": "A2",
          "midi": 45,
          "time": 183.08025949999833,
          "velocity": 0.3937007874015748,
          "duration": 0.13392849999999612
        },
        {
          "name": "D4",
          "midi": 62,
          "time": 183.21418799999833,
          "velocity": 0.3937007874015748,
          "duration": 1.071427999999969
        },
        {
          "name": "F4",
          "midi": 65,
          "time": 183.21418799999833,
          "velocity": 0.3937007874015748,
          "duration": 1.071427999999969
        },
        {
          "name": "A4",
          "midi": 69,
          "time": 183.21418799999833,
          "velocity": 0.3937007874015748,
          "duration": 1.071427999999969
        },
        {
          "name": "D2",
          "midi": 38,
          "time": 183.21418799999833,
          "velocity": 0.3937007874015748,
          "duration": 0.13392849999999612
        },
        {
          "name": "A2",
          "midi": 45,
          "time": 183.34811649999833,
          "velocity": 0.3937007874015748,
          "duration": 0.13392849999999612
        },
        {
          "name": "D3",
          "midi": 50,
          "time": 183.48204499999832,
          "velocity": 0.3937007874015748,
          "duration": 0.13392849999999612
        },
        {
          "name": "A2",
          "midi": 45,
          "time": 183.61597349999832,
          "velocity": 0.3937007874015748,
          "duration": 0.13392849999999612
        },
        {
          "name": "D2",
          "midi": 38,
          "time": 183.74990199999831,
          "velocity": 0.3937007874015748,
          "duration": 0.13392849999999612
        },
        {
          "name": "A2",
          "midi": 45,
          "time": 183.8838304999983,
          "velocity": 0.3937007874015748,
          "duration": 0.13392849999999612
        },
        {
          "name": "D3",
          "midi": 50,
          "time": 184.0177589999983,
          "velocity": 0.3937007874015748,
          "duration": 0.13392849999999612
        },
        {
          "name": "A2",
          "midi": 45,
          "time": 184.1516874999983,
          "velocity": 0.3937007874015748,
          "duration": 0.13392849999999612
        },
        {
          "name": "G4",
          "midi": 67,
          "time": 184.2856159999983,
          "velocity": 0.3937007874015748,
          "duration": 0.26785699999999224
        },
        {
          "name": "A4",
          "midi": 69,
          "time": 184.2856159999983,
          "velocity": 0.3937007874015748,
          "duration": 0.26785699999999224
        },
        {
          "name": "D2",
          "midi": 38,
          "time": 184.2856159999983,
          "velocity": 0.3937007874015748,
          "duration": 0.5357139999999845
        },
        {
          "name": "D3",
          "midi": 50,
          "time": 184.2856159999983,
          "velocity": 0.3937007874015748,
          "duration": 0.5357139999999845
        },
        {
          "name": "G4",
          "midi": 67,
          "time": 184.82132999999828,
          "velocity": 0.3937007874015748,
          "duration": 0.26785699999999224
        },
        {
          "name": "A#4",
          "midi": 70,
          "time": 184.82132999999828,
          "velocity": 0.3937007874015748,
          "duration": 0.26785699999999224
        },
        {
          "name": "F2",
          "midi": 41,
          "time": 184.82132999999828,
          "velocity": 0.3937007874015748,
          "duration": 0.5357139999999845
        },
        {
          "name": "F3",
          "midi": 53,
          "time": 184.82132999999828,
          "velocity": 0.3937007874015748,
          "duration": 0.5357139999999845
        },
        {
          "name": "G4",
          "midi": 67,
          "time": 185.35704399999827,
          "velocity": 0.3937007874015748,
          "duration": 0.8035709999999767
        },
        {
          "name": "C5",
          "midi": 72,
          "time": 185.35704399999827,
          "velocity": 0.3937007874015748,
          "duration": 0.8035709999999767
        },
        {
          "name": "A#1",
          "midi": 34,
          "time": 185.35704399999827,
          "velocity": 0.3937007874015748,
          "duration": 0.13392849999999612
        },
        {
          "name": "F2",
          "midi": 41,
          "time": 185.49097249999826,
          "velocity": 0.3937007874015748,
          "duration": 0.13392849999999612
        },
        {
          "name": "A#2",
          "midi": 46,
          "time": 185.62490099999826,
          "velocity": 0.3937007874015748,
          "duration": 0.13392849999999612
        },
        {
          "name": "F2",
          "midi": 41,
          "time": 185.75882949999826,
          "velocity": 0.3937007874015748,
          "duration": 0.13392849999999612
        },
        {
          "name": "A#1",
          "midi": 34,
          "time": 185.89275799999825,
          "velocity": 0.3937007874015748,
          "duration": 0.13392849999999612
        },
        {
          "name": "F2",
          "midi": 41,
          "time": 186.02668649999825,
          "velocity": 0.3937007874015748,
          "duration": 0.13392849999999612
        },
        {
          "name": "D5",
          "midi": 74,
          "time": 186.16061499999824,
          "velocity": 0.3937007874015748,
          "duration": 0.26785699999999224
        },
        {
          "name": "A#2",
          "midi": 46,
          "time": 186.16061499999824,
          "velocity": 0.3937007874015748,
          "duration": 0.13392849999999612
        },
        {
          "name": "F2",
          "midi": 41,
          "time": 186.29454349999824,
          "velocity": 0.3937007874015748,
          "duration": 0.13392849999999612
        },
        {
          "name": "F4",
          "midi": 65,
          "time": 186.42847199999824,
          "velocity": 0.3937007874015748,
          "duration": 0.40178549999998836
        },
        {
          "name": "A#1",
          "midi": 34,
          "time": 186.42847199999824,
          "velocity": 0.3937007874015748,
          "duration": 0.13392849999999612
        },
        {
          "name": "F2",
          "midi": 41,
          "time": 186.56240049999823,
          "velocity": 0.3937007874015748,
          "duration": 0.13392849999999612
        },
        {
          "name": "A#2",
          "midi": 46,
          "time": 186.69632899999823,
          "velocity": 0.3937007874015748,
          "duration": 0.13392849999999612
        },
        {
          "name": "G4",
          "midi": 67,
          "time": 186.83025749999823,
          "velocity": 0.3937007874015748,
          "duration": 0.13392849999999612
        },
        {
          "name": "F2",
          "midi": 41,
          "time": 186.83025749999823,
          "velocity": 0.3937007874015748,
          "duration": 0.13392849999999612
        },
        {
          "name": "G4",
          "midi": 67,
          "time": 186.96418599999822,
          "velocity": 0.3937007874015748,
          "duration": 0.26785699999999224
        },
        {
          "name": "A#1",
          "midi": 34,
          "time": 186.96418599999822,
          "velocity": 0.3937007874015748,
          "duration": 0.13392849999999612
        },
        {
          "name": "F2",
          "midi": 41,
          "time": 187.09811449999822,
          "velocity": 0.3937007874015748,
          "duration": 0.13392849999999612
        },
        {
          "name": "A4",
          "midi": 69,
          "time": 187.2320429999982,
          "velocity": 0.3937007874015748,
          "duration": 0.26785699999999224
        },
        {
          "name": "A#2",
          "midi": 46,
          "time": 187.2320429999982,
          "velocity": 0.3937007874015748,
          "duration": 0.13392849999999612
        },
        {
          "name": "F2",
          "midi": 41,
          "time": 187.3659714999982,
          "velocity": 0.3937007874015748,
          "duration": 0.13392849999999612
        },
        {
          "name": "C4",
          "midi": 60,
          "time": 187.4998999999982,
          "velocity": 0.3937007874015748,
          "duration": 0.8035709999999767
        },
        {
          "name": "G4",
          "midi": 67,
          "time": 187.4998999999982,
          "velocity": 0.3937007874015748,
          "duration": 0.8035709999999767
        },
        {
          "name": "C5",
          "midi": 72,
          "time": 187.4998999999982,
          "velocity": 0.3937007874015748,
          "duration": 0.8035709999999767
        },
        {
          "name": "C2",
          "midi": 36,
          "time": 187.4998999999982,
          "velocity": 0.3937007874015748,
          "duration": 0.13392849999999612
        },
        {
          "name": "G2",
          "midi": 43,
          "time": 187.6338284999982,
          "velocity": 0.3937007874015748,
          "duration": 0.13392849999999612
        },
        {
          "name": "C3",
          "midi": 48,
          "time": 187.7677569999982,
          "velocity": 0.3937007874015748,
          "duration": 0.13392849999999612
        },
        {
          "name": "G2",
          "midi": 43,
          "time": 187.9016854999982,
          "velocity": 0.3937007874015748,
          "duration": 0.13392849999999612
        },
        {
          "name": "C2",
          "midi": 36,
          "time": 188.0356139999982,
          "velocity": 0.3937007874015748,
          "duration": 0.13392849999999612
        },
        {
          "name": "G2",
          "midi": 43,
          "time": 188.1695424999982,
          "velocity": 0.3937007874015748,
          "duration": 0.13392849999999612
        },
        {
          "name": "D5",
          "midi": 74,
          "time": 188.30347099999818,
          "velocity": 0.3937007874015748,
          "duration": 0.26785699999999224
        },
        {
          "name": "C3",
          "midi": 48,
          "time": 188.30347099999818,
          "velocity": 0.3937007874015748,
          "duration": 0.13392849999999612
        },
        {
          "name": "G2",
          "midi": 43,
          "time": 188.43739949999818,
          "velocity": 0.3937007874015748,
          "duration": 0.13392849999999612
        },
        {
          "name": "F4",
          "midi": 65,
          "time": 188.57132799999818,
          "velocity": 0.3937007874015748,
          "duration": 0.40178549999998836
        },
        {
          "name": "C2",
          "midi": 36,
          "time": 188.57132799999818,
          "velocity": 0.3937007874015748,
          "duration": 0.13392849999999612
        },
        {
          "name": "G2",
          "midi": 43,
          "time": 188.70525649999817,
          "velocity": 0.3937007874015748,
          "duration": 0.13392849999999612
        },
        {
          "name": "C3",
          "midi": 48,
          "time": 188.83918499999817,
          "velocity": 0.3937007874015748,
          "duration": 0.13392849999999612
        },
        {
          "name": "E5",
          "midi": 76,
          "time": 188.97311349999816,
          "velocity": 0.3937007874015748,
          "duration": 0.40178549999998836
        },
        {
          "name": "G2",
          "midi": 43,
          "time": 188.97311349999816,
          "velocity": 0.3937007874015748,
          "duration": 0.13392849999999612
        },
        {
          "name": "C2",
          "midi": 36,
          "time": 189.10704199999816,
          "velocity": 0.3937007874015748,
          "duration": 0.13392849999999612
        },
        {
          "name": "G2",
          "midi": 43,
          "time": 189.24097049999816,
          "velocity": 0.3937007874015748,
          "duration": 0.13392849999999612
        },
        {
          "name": "C5",
          "midi": 72,
          "time": 189.37489899999815,
          "velocity": 0.3937007874015748,
          "duration": 0.26785699999999224
        },
        {
          "name": "C3",
          "midi": 48,
          "time": 189.37489899999815,
          "velocity": 0.3937007874015748,
          "duration": 0.13392849999999612
        },
        {
          "name": "G2",
          "midi": 43,
          "time": 189.50882749999815,
          "velocity": 0.3937007874015748,
          "duration": 0.13392849999999612
        },
        {
          "name": "D4",
          "midi": 62,
          "time": 189.64275599999814,
          "velocity": 0.3937007874015748,
          "duration": 1.071427999999969
        },
        {
          "name": "F4",
          "midi": 65,
          "time": 189.64275599999814,
          "velocity": 0.3937007874015748,
          "duration": 1.071427999999969
        },
        {
          "name": "A4",
          "midi": 69,
          "time": 189.64275599999814,
          "velocity": 0.3937007874015748,
          "duration": 2.142855999999938
        },
        {
          "name": "D2",
          "midi": 38,
          "time": 189.64275599999814,
          "velocity": 0.3937007874015748,
          "duration": 0.26785699999999224
        },
        {
          "name": "A2",
          "midi": 45,
          "time": 189.91061299999814,
          "velocity": 0.3937007874015748,
          "duration": 0.26785699999999224
        },
        {
          "name": "D3",
          "midi": 50,
          "time": 190.17846999999813,
          "velocity": 0.3937007874015748,
          "duration": 0.26785699999999224
        },
        {
          "name": "A2",
          "midi": 45,
          "time": 190.44632699999812,
          "velocity": 0.3937007874015748,
          "duration": 0.26785699999999224
        },
        {
          "name": "D4",
          "midi": 62,
          "time": 190.7141839999981,
          "velocity": 0.3937007874015748,
          "duration": 1.071427999999969
        },
        {
          "name": "F4",
          "midi": 65,
          "time": 190.7141839999981,
          "velocity": 0.3937007874015748,
          "duration": 1.071427999999969
        },
        {
          "name": "D2",
          "midi": 38,
          "time": 190.7141839999981,
          "velocity": 0.3937007874015748,
          "duration": 0.26785699999999224
        },
        {
          "name": "A2",
          "midi": 45,
          "time": 190.9820409999981,
          "velocity": 0.3937007874015748,
          "duration": 0.26785699999999224
        },
        {
          "name": "D3",
          "midi": 50,
          "time": 191.2498979999981,
          "velocity": 0.3937007874015748,
          "duration": 0.26785699999999224
        },
        {
          "name": "A2",
          "midi": 45,
          "time": 191.5177549999981,
          "velocity": 0.3937007874015748,
          "duration": 0.26785699999999224
        },
        {
          "name": "E4",
          "midi": 64,
          "time": 191.78561199999808,
          "velocity": 0.3937007874015748,
          "duration": 1.0714279999999974
        },
        {
          "name": "G4",
          "midi": 67,
          "time": 191.78561199999808,
          "velocity": 0.3937007874015748,
          "duration": 1.0714279999999974
        },
        {
          "name": "C2",
          "midi": 36,
          "time": 191.78561199999808,
          "velocity": 0.3937007874015748,
          "duration": 1.0714279999999974
        },
        {
          "name": "G2",
          "midi": 43,
          "time": 191.78561199999808,
          "velocity": 0.3937007874015748,
          "duration": 1.0714279999999974
        },
        {
          "name": "C3",
          "midi": 48,
          "time": 191.78561199999808,
          "velocity": 0.3937007874015748,
          "duration": 1.0714279999999974
        },
        {
          "name": "D4",
          "midi": 62,
          "time": 192.85703999999808,
          "velocity": 0.3937007874015748,
          "duration": 0.5357140000000129
        },
        {
          "name": "F4",
          "midi": 65,
          "time": 192.85703999999808,
          "velocity": 0.3937007874015748,
          "duration": 0.5357140000000129
        },
        {
          "name": "D4",
          "midi": 62,
          "time": 193.3927539999981,
          "velocity": 0.3937007874015748,
          "duration": 0.5357140000000129
        },
        {
          "name": "A4",
          "midi": 69,
          "time": 193.3927539999981,
          "velocity": 0.3937007874015748,
          "duration": 0.5357140000000129
        },
        {
          "name": "A#3",
          "midi": 58,
          "time": 193.9284679999981,
          "velocity": 0.3937007874015748,
          "duration": 0.8035709999999767
        },
        {
          "name": "D4",
          "midi": 62,
          "time": 193.9284679999981,
          "velocity": 0.3937007874015748,
          "duration": 0.8035709999999767
        },
        {
          "name": "G4",
          "midi": 67,
          "time": 193.9284679999981,
          "velocity": 0.3937007874015748,
          "duration": 0.8035709999999767
        },
        {
          "name": "A#1",
          "midi": 34,
          "time": 193.9284679999981,
          "velocity": 0.3937007874015748,
          "duration": 0.13392849999999612
        },
        {
          "name": "F2",
          "midi": 41,
          "time": 194.0623964999981,
          "velocity": 0.3937007874015748,
          "duration": 0.13392849999999612
        },
        {
          "name": "A#2",
          "midi": 46,
          "time": 194.1963249999981,
          "velocity": 0.3937007874015748,
          "duration": 0.13392849999999612
        },
        {
          "name": "F2",
          "midi": 41,
          "time": 194.3302534999981,
          "velocity": 0.3937007874015748,
          "duration": 0.13392849999999612
        },
        {
          "name": "A#1",
          "midi": 34,
          "time": 194.4641819999981,
          "velocity": 0.3937007874015748,
          "duration": 0.13392849999999612
        },
        {
          "name": "F2",
          "midi": 41,
          "time": 194.59811049999809,
          "velocity": 0.3937007874015748,
          "duration": 0.13392849999999612
        },
        {
          "name": "A4",
          "midi": 69,
          "time": 194.73203899999808,
          "velocity": 0.3937007874015748,
          "duration": 0.26785699999999224
        },
        {
          "name": "A#2",
          "midi": 46,
          "time": 194.73203899999808,
          "velocity": 0.3937007874015748,
          "duration": 0.13392849999999612
        },
        {
          "name": "F2",
          "midi": 41,
          "time": 194.86596749999808,
          "velocity": 0.3937007874015748,
          "duration": 0.13392849999999612
        },
        {
          "name": "A#3",
          "midi": 58,
          "time": 194.99989599999807,
          "velocity": 0.3937007874015748,
          "duration": 0.40178549999998836
        },
        {
          "name": "D4",
          "midi": 62,
          "time": 194.99989599999807,
          "velocity": 0.3937007874015748,
          "duration": 0.40178549999998836
        },
        {
          "name": "A#1",
          "midi": 34,
          "time": 194.99989599999807,
          "velocity": 0.3937007874015748,
          "duration": 0.13392849999999612
        },
        {
          "name": "F2",
          "midi": 41,
          "time": 195.13382449999807,
          "velocity": 0.3937007874015748,
          "duration": 0.13392849999999612
        },
        {
          "name": "A#2",
          "midi": 46,
          "time": 195.26775299999807,
          "velocity": 0.3937007874015748,
          "duration": 0.13392849999999612
        },
        {
          "name": "E4",
          "midi": 64,
          "time": 195.40168149999806,
          "velocity": 0.3937007874015748,
          "duration": 0.40178549999998836
        },
        {
          "name": "F2",
          "midi": 41,
          "time": 195.40168149999806,
          "velocity": 0.3937007874015748,
          "duration": 0.13392849999999612
        },
        {
          "name": "A#1",
          "midi": 34,
          "time": 195.53560999999806,
          "velocity": 0.3937007874015748,
          "duration": 0.13392849999999612
        },
        {
          "name": "F2",
          "midi": 41,
          "time": 195.66953849999805,
          "velocity": 0.3937007874015748,
          "duration": 0.13392849999999612
        },
        {
          "name": "F4",
          "midi": 65,
          "time": 195.80346699999805,
          "velocity": 0.3937007874015748,
          "duration": 0.26785699999999224
        },
        {
          "name": "A#2",
          "midi": 46,
          "time": 195.80346699999805,
          "velocity": 0.3937007874015748,
          "duration": 0.13392849999999612
        },
        {
          "name": "F2",
          "midi": 41,
          "time": 195.93739549999805,
          "velocity": 0.3937007874015748,
          "duration": 0.13392849999999612
        },
        {
          "name": "A#3",
          "midi": 58,
          "time": 196.07132399999804,
          "velocity": 0.3937007874015748,
          "duration": 1.071427999999969
        },
        {
          "name": "F4",
          "midi": 65,
          "time": 196.07132399999804,
          "velocity": 0.3937007874015748,
          "duration": 1.071427999999969
        },
        {
          "name": "A4",
          "midi": 69,
          "time": 196.07132399999804,
          "velocity": 0.3937007874015748,
          "duration": 1.071427999999969
        },
        {
          "name": "A#1",
          "midi": 34,
          "time": 196.07132399999804,
          "velocity": 0.3937007874015748,
          "duration": 0.13392849999999612
        },
        {
          "name": "F2",
          "midi": 41,
          "time": 196.20525249999804,
          "velocity": 0.3937007874015748,
          "duration": 0.13392849999999612
        },
        {
          "name": "A#2",
          "midi": 46,
          "time": 196.33918099999804,
          "velocity": 0.3937007874015748,
          "duration": 0.13392849999999612
        },
        {
          "name": "F2",
          "midi": 41,
          "time": 196.47310949999803,
          "velocity": 0.3937007874015748,
          "duration": 0.13392849999999612
        },
        {
          "name": "A#1",
          "midi": 34,
          "time": 196.60703799999803,
          "velocity": 0.3937007874015748,
          "duration": 0.13392849999999612
        },
        {
          "name": "F2",
          "midi": 41,
          "time": 196.74096649999802,
          "velocity": 0.3937007874015748,
          "duration": 0.13392849999999612
        },
        {
          "name": "A#2",
          "midi": 46,
          "time": 196.87489499999802,
          "velocity": 0.3937007874015748,
          "duration": 0.13392849999999612
        },
        {
          "name": "F2",
          "midi": 41,
          "time": 197.00882349999802,
          "velocity": 0.3937007874015748,
          "duration": 0.13392849999999612
        },
        {
          "name": "A#3",
          "midi": 58,
          "time": 197.142751999998,
          "velocity": 0.3937007874015748,
          "duration": 0.5357140000000129
        },
        {
          "name": "F4",
          "midi": 65,
          "time": 197.142751999998,
          "velocity": 0.3937007874015748,
          "duration": 0.5357140000000129
        },
        {
          "name": "A#1",
          "midi": 34,
          "time": 197.142751999998,
          "velocity": 0.3937007874015748,
          "duration": 0.5357140000000129
        },
        {
          "name": "A#2",
          "midi": 46,
          "time": 197.142751999998,
          "velocity": 0.3937007874015748,
          "duration": 0.5357140000000129
        },
        {
          "name": "A#3",
          "midi": 58,
          "time": 197.67846599999802,
          "velocity": 0.3937007874015748,
          "duration": 0.5357140000000129
        },
        {
          "name": "A4",
          "midi": 69,
          "time": 197.67846599999802,
          "velocity": 0.3937007874015748,
          "duration": 0.5357140000000129
        },
        {
          "name": "C2",
          "midi": 36,
          "time": 197.67846599999802,
          "velocity": 0.3937007874015748,
          "duration": 0.5357140000000129
        },
        {
          "name": "C3",
          "midi": 48,
          "time": 197.67846599999802,
          "velocity": 0.3937007874015748,
          "duration": 0.5357140000000129
        },
        {
          "name": "D4",
          "midi": 62,
          "time": 198.21417999999804,
          "velocity": 0.3937007874015748,
          "duration": 0.8035709999999767
        },
        {
          "name": "G4",
          "midi": 67,
          "time": 198.21417999999804,
          "velocity": 0.3937007874015748,
          "duration": 0.8035709999999767
        },
        {
          "name": "D2",
          "midi": 38,
          "time": 198.21417999999804,
          "velocity": 0.3937007874015748,
          "duration": 0.13392849999999612
        },
        {
          "name": "A2",
          "midi": 45,
          "time": 198.34810849999803,
          "velocity": 0.3937007874015748,
          "duration": 0.13392849999999612
        },
        {
          "name": "D3",
          "midi": 50,
          "time": 198.48203699999803,
          "velocity": 0.3937007874015748,
          "duration": 0.13392849999999612
        },
        {
          "name": "A2",
          "midi": 45,
          "time": 198.61596549999803,
          "velocity": 0.3937007874015748,
          "duration": 0.13392849999999612
        },
        {
          "name": "D2",
          "midi": 38,
          "time": 198.74989399999802,
          "velocity": 0.3937007874015748,
          "duration": 0.13392849999999612
        },
        {
          "name": "A2",
          "midi": 45,
          "time": 198.88382249999802,
          "velocity": 0.3937007874015748,
          "duration": 0.13392849999999612
        },
        {
          "name": "A4",
          "midi": 69,
          "time": 199.01775099999801,
          "velocity": 0.3937007874015748,
          "duration": 0.26785699999999224
        },
        {
          "name": "D3",
          "midi": 50,
          "time": 199.01775099999801,
          "velocity": 0.3937007874015748,
          "duration": 0.13392849999999612
        },
        {
          "name": "A2",
          "midi": 45,
          "time": 199.151679499998,
          "velocity": 0.3937007874015748,
          "duration": 0.13392849999999612
        },
        {
          "name": "D4",
          "midi": 62,
          "time": 199.285607999998,
          "velocity": 0.3937007874015748,
          "duration": 0.40178549999998836
        },
        {
          "name": "D2",
          "midi": 38,
          "time": 199.285607999998,
          "velocity": 0.3937007874015748,
          "duration": 0.13392849999999612
        },
        {
          "name": "A2",
          "midi": 45,
          "time": 199.419536499998,
          "velocity": 0.3937007874015748,
          "duration": 0.13392849999999612
        },
        {
          "name": "D3",
          "midi": 50,
          "time": 199.553464999998,
          "velocity": 0.3937007874015748,
          "duration": 0.13392849999999612
        },
        {
          "name": "E4",
          "midi": 64,
          "time": 199.687393499998,
          "velocity": 0.3937007874015748,
          "duration": 0.40178549999998836
        },
        {
          "name": "A2",
          "midi": 45,
          "time": 199.687393499998,
          "velocity": 0.3937007874015748,
          "duration": 0.13392849999999612
        },
        {
          "name": "D2",
          "midi": 38,
          "time": 199.821321999998,
          "velocity": 0.3937007874015748,
          "duration": 0.13392849999999612
        },
        {
          "name": "A2",
          "midi": 45,
          "time": 199.955250499998,
          "velocity": 0.3937007874015748,
          "duration": 0.13392849999999612
        },
        {
          "name": "C5",
          "midi": 72,
          "time": 200.08917899999798,
          "velocity": 0.3937007874015748,
          "duration": 0.26785699999999224
        },
        {
          "name": "D3",
          "midi": 50,
          "time": 200.08917899999798,
          "velocity": 0.3937007874015748,
          "duration": 0.13392849999999612
        },
        {
          "name": "A2",
          "midi": 45,
          "time": 200.22310749999798,
          "velocity": 0.3937007874015748,
          "duration": 0.13392849999999612
        },
        {
          "name": "D4",
          "midi": 62,
          "time": 200.35703599999798,
          "velocity": 0.3937007874015748,
          "duration": 1.071427999999969
        },
        {
          "name": "F4",
          "midi": 65,
          "time": 200.35703599999798,
          "velocity": 0.3937007874015748,
          "duration": 1.071427999999969
        },
        {
          "name": "A4",
          "midi": 69,
          "time": 200.35703599999798,
          "velocity": 0.3937007874015748,
          "duration": 1.071427999999969
        },
        {
          "name": "D2",
          "midi": 38,
          "time": 200.35703599999798,
          "velocity": 0.3937007874015748,
          "duration": 0.13392849999999612
        },
        {
          "name": "A2",
          "midi": 45,
          "time": 200.49096449999797,
          "velocity": 0.3937007874015748,
          "duration": 0.13392849999999612
        },
        {
          "name": "D3",
          "midi": 50,
          "time": 200.62489299999797,
          "velocity": 0.3937007874015748,
          "duration": 0.13392849999999612
        },
        {
          "name": "A2",
          "midi": 45,
          "time": 200.75882149999796,
          "velocity": 0.3937007874015748,
          "duration": 0.13392849999999612
        },
        {
          "name": "D2",
          "midi": 38,
          "time": 200.89274999999796,
          "velocity": 0.3937007874015748,
          "duration": 0.13392849999999612
        },
        {
          "name": "A2",
          "midi": 45,
          "time": 201.02667849999796,
          "velocity": 0.3937007874015748,
          "duration": 0.13392849999999612
        },
        {
          "name": "D3",
          "midi": 50,
          "time": 201.16060699999795,
          "velocity": 0.3937007874015748,
          "duration": 0.13392849999999612
        },
        {
          "name": "A2",
          "midi": 45,
          "time": 201.29453549999795,
          "velocity": 0.3937007874015748,
          "duration": 0.13392849999999612
        },
        {
          "name": "G4",
          "midi": 67,
          "time": 201.42846399999794,
          "velocity": 0.3937007874015748,
          "duration": 0.5357140000000129
        },
        {
          "name": "A4",
          "midi": 69,
          "time": 201.42846399999794,
          "velocity": 0.3937007874015748,
          "duration": 0.5357140000000129
        },
        {
          "name": "D2",
          "midi": 38,
          "time": 201.42846399999794,
          "velocity": 0.3937007874015748,
          "duration": 0.5357140000000129
        },
        {
          "name": "D3",
          "midi": 50,
          "time": 201.42846399999794,
          "velocity": 0.3937007874015748,
          "duration": 0.5357140000000129
        },
        {
          "name": "G4",
          "midi": 67,
          "time": 201.96417799999796,
          "velocity": 0.3937007874015748,
          "duration": 0.5357140000000129
        },
        {
          "name": "A#4",
          "midi": 70,
          "time": 201.96417799999796,
          "velocity": 0.3937007874015748,
          "duration": 0.5357140000000129
        },
        {
          "name": "F2",
          "midi": 41,
          "time": 201.96417799999796,
          "velocity": 0.3937007874015748,
          "duration": 0.5357140000000129
        },
        {
          "name": "F3",
          "midi": 53,
          "time": 201.96417799999796,
          "velocity": 0.3937007874015748,
          "duration": 0.5357140000000129
        },
        {
          "name": "G4",
          "midi": 67,
          "time": 202.49989199999797,
          "velocity": 0.3937007874015748,
          "duration": 0.8035710000000051
        },
        {
          "name": "C5",
          "midi": 72,
          "time": 202.49989199999797,
          "velocity": 0.3937007874015748,
          "duration": 0.8035710000000051
        },
        {
          "name": "A#2",
          "midi": 46,
          "time": 202.49989199999797,
          "velocity": 0.3937007874015748,
          "duration": 2.0089274999999702
        },
        {
          "name": "G2",
          "midi": 43,
          "time": 202.49989199999797,
          "velocity": 0.3937007874015748,
          "duration": 2.1428559999999663
        },
        {
          "name": "D3",
          "midi": 50,
          "time": 202.63382049999797,
          "velocity": 0.3937007874015748,
          "duration": 2.0089274999999702
        },
        {
          "name": "G3",
          "midi": 55,
          "time": 202.63382049999797,
          "velocity": 0.3937007874015748,
          "duration": 2.0089274999999702
        },
        {
          "name": "D5",
          "midi": 74,
          "time": 203.30346299999798,
          "velocity": 0.3937007874015748,
          "duration": 0.26785699999999224
        },
        {
          "name": "F4",
          "midi": 65,
          "time": 203.57131999999797,
          "velocity": 0.3937007874015748,
          "duration": 0.40178549999998836
        },
        {
          "name": "G4",
          "midi": 67,
          "time": 203.97310549999796,
          "velocity": 0.3937007874015748,
          "duration": 0.40178549999998836
        },
        {
          "name": "A4",
          "midi": 69,
          "time": 204.37489099999794,
          "velocity": 0.3937007874015748,
          "duration": 0.26785699999999224
        },
        {
          "name": "C4",
          "midi": 60,
          "time": 204.64274799999794,
          "velocity": 0.3937007874015748,
          "duration": 0.8035710000000051
        },
        {
          "name": "G4",
          "midi": 67,
          "time": 204.64274799999794,
          "velocity": 0.3937007874015748,
          "duration": 0.8035710000000051
        },
        {
          "name": "C5",
          "midi": 72,
          "time": 204.64274799999794,
          "velocity": 0.3937007874015748,
          "duration": 0.8035710000000051
        },
        {
          "name": "C3",
          "midi": 48,
          "time": 204.64274799999794,
          "velocity": 0.3937007874015748,
          "duration": 2.0089274999999702
        },
        {
          "name": "A2",
          "midi": 45,
          "time": 204.64274799999794,
          "velocity": 0.3937007874015748,
          "duration": 2.1428559999999663
        },
        {
          "name": "E3",
          "midi": 52,
          "time": 204.77667649999793,
          "velocity": 0.3937007874015748,
          "duration": 2.0089274999999702
        },
        {
          "name": "A3",
          "midi": 57,
          "time": 204.77667649999793,
          "velocity": 0.3937007874015748,
          "duration": 2.0089274999999702
        },
        {
          "name": "D5",
          "midi": 74,
          "time": 205.44631899999794,
          "velocity": 0.3937007874015748,
          "duration": 0.26785699999999224
        },
        {
          "name": "F4",
          "midi": 65,
          "time": 205.71417599999793,
          "velocity": 0.3937007874015748,
          "duration": 0.40178549999998836
        },
        {
          "name": "E5",
          "midi": 76,
          "time": 206.11596149999792,
          "velocity": 0.3937007874015748,
          "duration": 0.40178549999998836
        },
        {
          "name": "C5",
          "midi": 72,
          "time": 206.5177469999979,
          "velocity": 0.3937007874015748,
          "duration": 0.26785699999999224
        },
        {
          "name": "D4",
          "midi": 62,
          "time": 206.7856039999979,
          "velocity": 0.3937007874015748,
          "duration": 1.0714279999999974
        },
        {
          "name": "F4",
          "midi": 65,
          "time": 206.7856039999979,
          "velocity": 0.3937007874015748,
          "duration": 1.0714279999999974
        },
        {
          "name": "A4",
          "midi": 69,
          "time": 206.7856039999979,
          "velocity": 0.3937007874015748,
          "duration": 2.0089274999999986
        },
        {
          "name": "D3",
          "midi": 50,
          "time": 206.7856039999979,
          "velocity": 0.3937007874015748,
          "duration": 2.0089274999999986
        },
        {
          "name": "A#2",
          "midi": 46,
          "time": 206.7856039999979,
          "velocity": 0.3937007874015748,
          "duration": 2.1428559999999948
        },
        {
          "name": "F3",
          "midi": 53,
          "time": 206.9195324999979,
          "velocity": 0.3937007874015748,
          "duration": 2.0089274999999986
        },
        {
          "name": "A#3",
          "midi": 58,
          "time": 206.9195324999979,
          "velocity": 0.3937007874015748,
          "duration": 2.0089274999999986
        },
        {
          "name": "D4",
          "midi": 62,
          "time": 207.8570319999979,
          "velocity": 0.3937007874015748,
          "duration": 1.0714279999999974
        },
        {
          "name": "F4",
          "midi": 65,
          "time": 207.8570319999979,
          "velocity": 0.3937007874015748,
          "duration": 1.0714279999999974
        },
        {
          "name": "E4",
          "midi": 64,
          "time": 208.9284599999979,
          "velocity": 0.3937007874015748,
          "duration": 1.0714279999999974
        },
        {
          "name": "G4",
          "midi": 67,
          "time": 208.9284599999979,
          "velocity": 0.3937007874015748,
          "duration": 1.0714279999999974
        },
        {
          "name": "C3",
          "midi": 48,
          "time": 208.9284599999979,
          "velocity": 0.3937007874015748,
          "duration": 1.0714279999999974
        },
        {
          "name": "E3",
          "midi": 52,
          "time": 209.0623884999979,
          "velocity": 0.3937007874015748,
          "duration": 0.9374995000000013
        },
        {
          "name": "G3",
          "midi": 55,
          "time": 209.0623884999979,
          "velocity": 0.3937007874015748,
          "duration": 0.9374995000000013
        },
        {
          "name": "C4",
          "midi": 60,
          "time": 209.1963169999979,
          "velocity": 0.3937007874015748,
          "duration": 0.8035710000000051
        },
        {
          "name": "D4",
          "midi": 62,
          "time": 209.9998879999979,
          "velocity": 0.3937007874015748,
          "duration": 0.26785699999999224
        },
        {
          "name": "F4",
          "midi": 65,
          "time": 209.9998879999979,
          "velocity": 0.3937007874015748,
          "duration": 0.26785699999999224
        },
        {
          "name": "F2",
          "midi": 41,
          "time": 209.9998879999979,
          "velocity": 0.3937007874015748,
          "duration": 0.26785699999999224
        },
        {
          "name": "F3",
          "midi": 53,
          "time": 209.9998879999979,
          "velocity": 0.3937007874015748,
          "duration": 0.26785699999999224
        },
        {
          "name": "D4",
          "midi": 62,
          "time": 210.53560199999788,
          "velocity": 0.3937007874015748,
          "duration": 0.26785699999999224
        },
        {
          "name": "E4",
          "midi": 64,
          "time": 210.53560199999788,
          "velocity": 0.3937007874015748,
          "duration": 0.26785699999999224
        },
        {
          "name": "F2",
          "midi": 41,
          "time": 210.53560199999788,
          "velocity": 0.3937007874015748,
          "duration": 0.26785699999999224
        },
        {
          "name": "E3",
          "midi": 52,
          "time": 210.53560199999788,
          "velocity": 0.3937007874015748,
          "duration": 0.26785699999999224
        },
        {
          "name": "A#3",
          "midi": 58,
          "time": 211.07131599999786,
          "velocity": 0.3937007874015748,
          "duration": 0.13392849999999612
        },
        {
          "name": "D4",
          "midi": 62,
          "time": 211.07131599999786,
          "velocity": 0.3937007874015748,
          "duration": 0.13392849999999612
        },
        {
          "name": "A#2",
          "midi": 46,
          "time": 211.07131599999786,
          "velocity": 0.3937007874015748,
          "duration": 1.071427999999969
        },
        {
          "name": "F3",
          "midi": 53,
          "time": 211.07131599999786,
          "velocity": 0.3937007874015748,
          "duration": 1.071427999999969
        },
        {
          "name": "F4",
          "midi": 65,
          "time": 211.20524449999786,
          "velocity": 0.3937007874015748,
          "duration": 0.13392849999999612
        },
        {
          "name": "E4",
          "midi": 64,
          "time": 211.33917299999786,
          "velocity": 0.3937007874015748,
          "duration": 0.13392849999999612
        },
        {
          "name": "F4",
          "midi": 65,
          "time": 211.47310149999785,
          "velocity": 0.3937007874015748,
          "duration": 0.13392849999999612
        },
        {
          "name": "D4",
          "midi": 62,
          "time": 211.60702999999785,
          "velocity": 0.3937007874015748,
          "duration": 0.40178549999998836
        },
        {
          "name": "A#3",
          "midi": 58,
          "time": 212.00881549999784,
          "velocity": 0.3937007874015748,
          "duration": 0.26785699999999224
        },
        {
          "name": "D4",
          "midi": 62,
          "time": 212.00881549999784,
          "velocity": 0.3937007874015748,
          "duration": 0.26785699999999224
        },
        {
          "name": "A#2",
          "midi": 46,
          "time": 212.14274399999783,
          "velocity": 0.3937007874015748,
          "duration": 1.0714279999999974
        },
        {
          "name": "F3",
          "midi": 53,
          "time": 212.14274399999783,
          "velocity": 0.3937007874015748,
          "duration": 1.0714279999999974
        },
        {
          "name": "E4",
          "midi": 64,
          "time": 212.27667249999783,
          "velocity": 0.3937007874015748,
          "duration": 0.13392849999999612
        },
        {
          "name": "F4",
          "midi": 65,
          "time": 212.41060099999783,
          "velocity": 0.3937007874015748,
          "duration": 0.13392849999999612
        },
        {
          "name": "C5",
          "midi": 72,
          "time": 212.54452949999782,
          "velocity": 0.3937007874015748,
          "duration": 0.13392849999999612
        },
        {
          "name": "A4",
          "midi": 69,
          "time": 212.67845799999782,
          "velocity": 0.3937007874015748,
          "duration": 0.5357140000000129
        },
        {
          "name": "C4",
          "midi": 60,
          "time": 213.21417199999783,
          "velocity": 0.3937007874015748,
          "duration": 0.13392849999999612
        },
        {
          "name": "D4",
          "midi": 62,
          "time": 213.21417199999783,
          "velocity": 0.3937007874015748,
          "duration": 0.13392849999999612
        },
        {
          "name": "C3",
          "midi": 48,
          "time": 213.21417199999783,
          "velocity": 0.3937007874015748,
          "duration": 1.071427999999969
        },
        {
          "name": "G3",
          "midi": 55,
          "time": 213.21417199999783,
          "velocity": 0.3937007874015748,
          "duration": 1.071427999999969
        },
        {
          "name": "F4",
          "midi": 65,
          "time": 213.34810049999783,
          "velocity": 0.3937007874015748,
          "duration": 0.13392849999999612
        },
        {
          "name": "E4",
          "midi": 64,
          "time": 213.48202899999782,
          "velocity": 0.3937007874015748,
          "duration": 0.13392849999999612
        },
        {
          "name": "F4",
          "midi": 65,
          "time": 213.61595749999782,
          "velocity": 0.3937007874015748,
          "duration": 0.13392849999999612
        },
        {
          "name": "D4",
          "midi": 62,
          "time": 213.74988599999782,
          "velocity": 0.3937007874015748,
          "duration": 0.40178549999998836
        },
        {
          "name": "C4",
          "midi": 60,
          "time": 214.1516714999978,
          "velocity": 0.3937007874015748,
          "duration": 0.26785699999999224
        },
        {
          "name": "D4",
          "midi": 62,
          "time": 214.1516714999978,
          "velocity": 0.3937007874015748,
          "duration": 0.26785699999999224
        },
        {
          "name": "C3",
          "midi": 48,
          "time": 214.2855999999978,
          "velocity": 0.3937007874015748,
          "duration": 1.0714279999999974
        },
        {
          "name": "G3",
          "midi": 55,
          "time": 214.2855999999978,
          "velocity": 0.3937007874015748,
          "duration": 1.0714279999999974
        },
        {
          "name": "E4",
          "midi": 64,
          "time": 214.4195284999978,
          "velocity": 0.3937007874015748,
          "duration": 0.13392849999999612
        },
        {
          "name": "F4",
          "midi": 65,
          "time": 214.5534569999978,
          "velocity": 0.3937007874015748,
          "duration": 0.13392849999999612
        },
        {
          "name": "C5",
          "midi": 72,
          "time": 214.6873854999978,
          "velocity": 0.3937007874015748,
          "duration": 0.13392849999999612
        },
        {
          "name": "A4",
          "midi": 69,
          "time": 214.82131399999778,
          "velocity": 0.3937007874015748,
          "duration": 0.5357140000000129
        },
        {
          "name": "A3",
          "midi": 57,
          "time": 215.3570279999978,
          "velocity": 0.3937007874015748,
          "duration": 0.13392849999999612
        },
        {
          "name": "D4",
          "midi": 62,
          "time": 215.3570279999978,
          "velocity": 0.3937007874015748,
          "duration": 0.13392849999999612
        },
        {
          "name": "A2",
          "midi": 45,
          "time": 215.3570279999978,
          "velocity": 0.3937007874015748,
          "duration": 1.071427999999969
        },
        {
          "name": "D3",
          "midi": 50,
          "time": 215.3570279999978,
          "velocity": 0.3937007874015748,
          "duration": 1.071427999999969
        },
        {
          "name": "F4",
          "midi": 65,
          "time": 215.4909564999978,
          "velocity": 0.3937007874015748,
          "duration": 0.13392849999999612
        },
        {
          "name": "E4",
          "midi": 64,
          "time": 215.6248849999978,
          "velocity": 0.3937007874015748,
          "duration": 0.13392849999999612
        },
        {
          "name": "F4",
          "midi": 65,
          "time": 215.75881349999779,
          "velocity": 0.3937007874015748,
          "duration": 0.13392849999999612
        },
        {
          "name": "D4",
          "midi": 62,
          "time": 215.89274199999778,
          "velocity": 0.3937007874015748,
          "duration": 0.40178549999998836
        },
        {
          "name": "A3",
          "midi": 57,
          "time": 216.29452749999777,
          "velocity": 0.3937007874015748,
          "duration": 0.26785699999999224
        },
        {
          "name": "D4",
          "midi": 62,
          "time": 216.29452749999777,
          "velocity": 0.3937007874015748,
          "duration": 0.26785699999999224
        },
        {
          "name": "A2",
          "midi": 45,
          "time": 216.42845599999777,
          "velocity": 0.3937007874015748,
          "duration": 1.0714279999999974
        },
        {
          "name": "D3",
          "midi": 50,
          "time": 216.42845599999777,
          "velocity": 0.3937007874015748,
          "duration": 1.0714279999999974
        },
        {
          "name": "E4",
          "midi": 64,
          "time": 216.56238449999776,
          "velocity": 0.3937007874015748,
          "duration": 0.13392849999999612
        },
        {
          "name": "F4",
          "midi": 65,
          "time": 216.69631299999776,
          "velocity": 0.3937007874015748,
          "duration": 0.13392849999999612
        },
        {
          "name": "C5",
          "midi": 72,
          "time": 216.83024149999775,
          "velocity": 0.3937007874015748,
          "duration": 0.13392849999999612
        },
        {
          "name": "A4",
          "midi": 69,
          "time": 216.96416999999775,
          "velocity": 0.3937007874015748,
          "duration": 0.5357140000000129
        },
        {
          "name": "A3",
          "midi": 57,
          "time": 217.49988399999776,
          "velocity": 0.3937007874015748,
          "duration": 0.40178549999998836
        },
        {
          "name": "C4",
          "midi": 60,
          "time": 217.49988399999776,
          "velocity": 0.3937007874015748,
          "duration": 0.40178549999998836
        },
        {
          "name": "A2",
          "midi": 45,
          "time": 217.49988399999776,
          "velocity": 0.3937007874015748,
          "duration": 1.071427999999969
        },
        {
          "name": "E3",
          "midi": 52,
          "time": 217.49988399999776,
          "velocity": 0.3937007874015748,
          "duration": 1.071427999999969
        },
        {
          "name": "G4",
          "midi": 67,
          "time": 217.90166949999775,
          "velocity": 0.3937007874015748,
          "duration": 0.40178549999998836
        },
        {
          "name": "F4",
          "midi": 65,
          "time": 218.30345499999774,
          "velocity": 0.3937007874015748,
          "duration": 0.26785699999999224
        },
        {
          "name": "A3",
          "midi": 57,
          "time": 218.57131199999773,
          "velocity": 0.3937007874015748,
          "duration": 0.13392849999999612
        },
        {
          "name": "E4",
          "midi": 64,
          "time": 218.57131199999773,
          "velocity": 0.3937007874015748,
          "duration": 0.13392849999999612
        },
        {
          "name": "A2",
          "midi": 45,
          "time": 218.57131199999773,
          "velocity": 0.3937007874015748,
          "duration": 1.071427999999969
        },
        {
          "name": "E3",
          "midi": 52,
          "time": 218.57131199999773,
          "velocity": 0.3937007874015748,
          "duration": 1.071427999999969
        },
        {
          "name": "D4",
          "midi": 62,
          "time": 218.70524049999773,
          "velocity": 0.3937007874015748,
          "duration": 0.26785699999999224
        },
        {
          "name": "C4",
          "midi": 60,
          "time": 218.97309749999772,
          "velocity": 0.3937007874015748,
          "duration": 0.40178549999998836
        },
        {
          "name": "E4",
          "midi": 64,
          "time": 219.3748829999977,
          "velocity": 0.3937007874015748,
          "duration": 0.26785699999999224
        },
        {
          "name": "A#3",
          "midi": 58,
          "time": 219.6427399999977,
          "velocity": 0.3937007874015748,
          "duration": 0.13392849999999612
        },
        {
          "name": "D4",
          "midi": 62,
          "time": 219.6427399999977,
          "velocity": 0.3937007874015748,
          "duration": 0.13392849999999612
        },
        {
          "name": "A#2",
          "midi": 46,
          "time": 219.6427399999977,
          "velocity": 0.3937007874015748,
          "duration": 1.071427999999969
        },
        {
          "name": "F3",
          "midi": 53,
          "time": 219.6427399999977,
          "velocity": 0.3937007874015748,
          "duration": 1.071427999999969
        },
        {
          "name": "F4",
          "midi": 65,
          "time": 219.7766684999977,
          "velocity": 0.3937007874015748,
          "duration": 0.13392849999999612
        },
        {
          "name": "E4",
          "midi": 64,
          "time": 219.9105969999977,
          "velocity": 0.3937007874015748,
          "duration": 0.13392849999999612
        },
        {
          "name": "F4",
          "midi": 65,
          "time": 220.0445254999977,
          "velocity": 0.3937007874015748,
          "duration": 0.13392849999999612
        },
        {
          "name": "D4",
          "midi": 62,
          "time": 220.17845399999769,
          "velocity": 0.3937007874015748,
          "duration": 0.40178549999998836
        },
        {
          "name": "A#3",
          "midi": 58,
          "time": 220.58023949999767,
          "velocity": 0.3937007874015748,
          "duration": 0.26785699999999224
        },
        {
          "name": "D4",
          "midi": 62,
          "time": 220.58023949999767,
          "velocity": 0.3937007874015748,
          "duration": 0.26785699999999224
        },
        {
          "name": "A#2",
          "midi": 46,
          "time": 220.71416799999767,
          "velocity": 0.3937007874015748,
          "duration": 1.0714279999999974
        },
        {
          "name": "F3",
          "midi": 53,
          "time": 220.71416799999767,
          "velocity": 0.3937007874015748,
          "duration": 1.0714279999999974
        },
        {
          "name": "E4",
          "midi": 64,
          "time": 220.84809649999767,
          "velocity": 0.3937007874015748,
          "duration": 0.13392849999999612
        },
        {
          "name": "F4",
          "midi": 65,
          "time": 220.98202499999766,
          "velocity": 0.3937007874015748,
          "duration": 0.13392849999999612
        },
        {
          "name": "C5",
          "midi": 72,
          "time": 221.11595349999766,
          "velocity": 0.3937007874015748,
          "duration": 0.13392849999999612
        },
        {
          "name": "A4",
          "midi": 69,
          "time": 221.24988199999765,
          "velocity": 0.3937007874015748,
          "duration": 0.5357140000000129
        },
        {
          "name": "C4",
          "midi": 60,
          "time": 221.78559599999767,
          "velocity": 0.3937007874015748,
          "duration": 0.13392849999999612
        },
        {
          "name": "D4",
          "midi": 62,
          "time": 221.78559599999767,
          "velocity": 0.3937007874015748,
          "duration": 0.13392849999999612
        },
        {
          "name": "C3",
          "midi": 48,
          "time": 221.78559599999767,
          "velocity": 0.3937007874015748,
          "duration": 1.071427999999969
        },
        {
          "name": "G3",
          "midi": 55,
          "time": 221.78559599999767,
          "velocity": 0.3937007874015748,
          "duration": 1.071427999999969
        },
        {
          "name": "F4",
          "midi": 65,
          "time": 221.91952449999766,
          "velocity": 0.3937007874015748,
          "duration": 0.13392849999999612
        },
        {
          "name": "E4",
          "midi": 64,
          "time": 222.05345299999766,
          "velocity": 0.3937007874015748,
          "duration": 0.13392849999999612
        },
        {
          "name": "F4",
          "midi": 65,
          "time": 222.18738149999766,
          "velocity": 0.3937007874015748,
          "duration": 0.13392849999999612
        },
        {
          "name": "D4",
          "midi": 62,
          "time": 222.32130999999765,
          "velocity": 0.3937007874015748,
          "duration": 0.40178549999998836
        },
        {
          "name": "C4",
          "midi": 60,
          "time": 222.72309549999764,
          "velocity": 0.3937007874015748,
          "duration": 0.26785699999999224
        },
        {
          "name": "D4",
          "midi": 62,
          "time": 222.72309549999764,
          "velocity": 0.3937007874015748,
          "duration": 0.26785699999999224
        },
        {
          "name": "C3",
          "midi": 48,
          "time": 222.85702399999764,
          "velocity": 0.3937007874015748,
          "duration": 1.0714279999999974
        },
        {
          "name": "G3",
          "midi": 55,
          "time": 222.85702399999764,
          "velocity": 0.3937007874015748,
          "duration": 1.0714279999999974
        },
        {
          "name": "E4",
          "midi": 64,
          "time": 222.99095249999763,
          "velocity": 0.3937007874015748,
          "duration": 0.13392849999999612
        },
        {
          "name": "F4",
          "midi": 65,
          "time": 223.12488099999763,
          "velocity": 0.3937007874015748,
          "duration": 0.13392849999999612
        },
        {
          "name": "C5",
          "midi": 72,
          "time": 223.25880949999762,
          "velocity": 0.3937007874015748,
          "duration": 0.13392849999999612
        },
        {
          "name": "A4",
          "midi": 69,
          "time": 223.39273799999762,
          "velocity": 0.3937007874015748,
          "duration": 0.5357140000000129
        },
        {
          "name": "A3",
          "midi": 57,
          "time": 223.92845199999763,
          "velocity": 0.3937007874015748,
          "duration": 0.13392849999999612
        },
        {
          "name": "D4",
          "midi": 62,
          "time": 223.92845199999763,
          "velocity": 0.3937007874015748,
          "duration": 0.13392849999999612
        },
        {
          "name": "A2",
          "midi": 45,
          "time": 223.92845199999763,
          "velocity": 0.3937007874015748,
          "duration": 1.071427999999969
        },
        {
          "name": "D3",
          "midi": 50,
          "time": 223.92845199999763,
          "velocity": 0.3937007874015748,
          "duration": 1.071427999999969
        },
        {
          "name": "F4",
          "midi": 65,
          "time": 224.06238049999763,
          "velocity": 0.3937007874015748,
          "duration": 0.13392849999999612
        },
        {
          "name": "E4",
          "midi": 64,
          "time": 224.19630899999763,
          "velocity": 0.3937007874015748,
          "duration": 0.13392849999999612
        },
        {
          "name": "F4",
          "midi": 65,
          "time": 224.33023749999762,
          "velocity": 0.3937007874015748,
          "duration": 0.13392849999999612
        },
        {
          "name": "D4",
          "midi": 62,
          "time": 224.46416599999762,
          "velocity": 0.3937007874015748,
          "duration": 0.40178549999998836
        },
        {
          "name": "A3",
          "midi": 57,
          "time": 224.8659514999976,
          "velocity": 0.3937007874015748,
          "duration": 0.26785699999999224
        },
        {
          "name": "D4",
          "midi": 62,
          "time": 224.8659514999976,
          "velocity": 0.3937007874015748,
          "duration": 0.26785699999999224
        },
        {
          "name": "A2",
          "midi": 45,
          "time": 224.9998799999976,
          "velocity": 0.3937007874015748,
          "duration": 1.0714279999999974
        },
        {
          "name": "D3",
          "midi": 50,
          "time": 224.9998799999976,
          "velocity": 0.3937007874015748,
          "duration": 1.0714279999999974
        },
        {
          "name": "E4",
          "midi": 64,
          "time": 225.1338084999976,
          "velocity": 0.3937007874015748,
          "duration": 0.13392849999999612
        },
        {
          "name": "F4",
          "midi": 65,
          "time": 225.2677369999976,
          "velocity": 0.3937007874015748,
          "duration": 0.13392849999999612
        },
        {
          "name": "C5",
          "midi": 72,
          "time": 225.4016654999976,
          "velocity": 0.3937007874015748,
          "duration": 0.13392849999999612
        },
        {
          "name": "A4",
          "midi": 69,
          "time": 225.5355939999976,
          "velocity": 0.3937007874015748,
          "duration": 0.5357140000000129
        },
        {
          "name": "A3",
          "midi": 57,
          "time": 226.0713079999976,
          "velocity": 0.3937007874015748,
          "duration": 0.40178549999998836
        },
        {
          "name": "C4",
          "midi": 60,
          "time": 226.0713079999976,
          "velocity": 0.3937007874015748,
          "duration": 0.40178549999998836
        },
        {
          "name": "A2",
          "midi": 45,
          "time": 226.0713079999976,
          "velocity": 0.3937007874015748,
          "duration": 1.071427999999969
        },
        {
          "name": "E3",
          "midi": 52,
          "time": 226.0713079999976,
          "velocity": 0.3937007874015748,
          "duration": 1.071427999999969
        },
        {
          "name": "G4",
          "midi": 67,
          "time": 226.4730934999976,
          "velocity": 0.3937007874015748,
          "duration": 0.40178549999998836
        },
        {
          "name": "F4",
          "midi": 65,
          "time": 226.87487899999758,
          "velocity": 0.3937007874015748,
          "duration": 0.26785699999999224
        },
        {
          "name": "A3",
          "midi": 57,
          "time": 227.14273599999757,
          "velocity": 0.3937007874015748,
          "duration": 0.13392849999999612
        },
        {
          "name": "E4",
          "midi": 64,
          "time": 227.14273599999757,
          "velocity": 0.3937007874015748,
          "duration": 0.13392849999999612
        },
        {
          "name": "A2",
          "midi": 45,
          "time": 227.14273599999757,
          "velocity": 0.3937007874015748,
          "duration": 1.071427999999969
        },
        {
          "name": "E3",
          "midi": 52,
          "time": 227.14273599999757,
          "velocity": 0.3937007874015748,
          "duration": 1.071427999999969
        },
        {
          "name": "D4",
          "midi": 62,
          "time": 227.27666449999757,
          "velocity": 0.3937007874015748,
          "duration": 0.26785699999999224
        },
        {
          "name": "C4",
          "midi": 60,
          "time": 227.54452149999756,
          "velocity": 0.3937007874015748,
          "duration": 0.40178549999998836
        },
        {
          "name": "E4",
          "midi": 64,
          "time": 227.94630699999755,
          "velocity": 0.3937007874015748,
          "duration": 0.26785699999999224
        },
        {
          "name": "A#4",
          "midi": 70,
          "time": 228.21416399999754,
          "velocity": 0.3937007874015748,
          "duration": 0.13392849999999612
        },
        {
          "name": "D5",
          "midi": 74,
          "time": 228.21416399999754,
          "velocity": 0.3937007874015748,
          "duration": 0.13392849999999612
        },
        {
          "name": "A#2",
          "midi": 46,
          "time": 228.21416399999754,
          "velocity": 0.3937007874015748,
          "duration": 0.5357139999999845
        },
        {
          "name": "F3",
          "midi": 53,
          "time": 228.21416399999754,
          "velocity": 0.3937007874015748,
          "duration": 0.5357139999999845
        },
        {
          "name": "F5",
          "midi": 77,
          "time": 228.34809249999753,
          "velocity": 0.3937007874015748,
          "duration": 0.13392849999999612
        },
        {
          "name": "E5",
          "midi": 76,
          "time": 228.48202099999753,
          "velocity": 0.3937007874015748,
          "duration": 0.13392849999999612
        },
        {
          "name": "F5",
          "midi": 77,
          "time": 228.61594949999753,
          "velocity": 0.3937007874015748,
          "duration": 0.13392849999999612
        },
        {
          "name": "D5",
          "midi": 74,
          "time": 228.74987799999752,
          "velocity": 0.3937007874015748,
          "duration": 0.40178549999998836
        },
        {
          "name": "A#2",
          "midi": 46,
          "time": 228.74987799999752,
          "velocity": 0.3937007874015748,
          "duration": 0.40178549999998836
        },
        {
          "name": "F3",
          "midi": 53,
          "time": 228.74987799999752,
          "velocity": 0.3937007874015748,
          "duration": 0.40178549999998836
        },
        {
          "name": "A#4",
          "midi": 70,
          "time": 229.1516634999975,
          "velocity": 0.3937007874015748,
          "duration": 0.26785699999999224
        },
        {
          "name": "D5",
          "midi": 74,
          "time": 229.1516634999975,
          "velocity": 0.3937007874015748,
          "duration": 0.26785699999999224
        },
        {
          "name": "A#2",
          "midi": 46,
          "time": 229.1516634999975,
          "velocity": 0.3937007874015748,
          "duration": 0.13392849999999612
        },
        {
          "name": "F3",
          "midi": 53,
          "time": 229.1516634999975,
          "velocity": 0.3937007874015748,
          "duration": 0.13392849999999612
        },
        {
          "name": "E5",
          "midi": 76,
          "time": 229.4195204999975,
          "velocity": 0.3937007874015748,
          "duration": 0.13392849999999612
        },
        {
          "name": "F5",
          "midi": 77,
          "time": 229.5534489999975,
          "velocity": 0.3937007874015748,
          "duration": 0.13392849999999612
        },
        {
          "name": "C6",
          "midi": 84,
          "time": 229.6873774999975,
          "velocity": 0.3937007874015748,
          "duration": 0.13392849999999612
        },
        {
          "name": "A5",
          "midi": 81,
          "time": 229.8213059999975,
          "velocity": 0.3937007874015748,
          "duration": 0.5357140000000129
        },
        {
          "name": "A#2",
          "midi": 46,
          "time": 229.8213059999975,
          "velocity": 0.3937007874015748,
          "duration": 0.5357140000000129
        },
        {
          "name": "F3",
          "midi": 53,
          "time": 229.8213059999975,
          "velocity": 0.3937007874015748,
          "duration": 0.5357140000000129
        },
        {
          "name": "C5",
          "midi": 72,
          "time": 230.3570199999975,
          "velocity": 0.3937007874015748,
          "duration": 0.13392849999999612
        },
        {
          "name": "D5",
          "midi": 74,
          "time": 230.3570199999975,
          "velocity": 0.3937007874015748,
          "duration": 0.13392849999999612
        },
        {
          "name": "C3",
          "midi": 48,
          "time": 230.3570199999975,
          "velocity": 0.3937007874015748,
          "duration": 0.5357139999999845
        },
        {
          "name": "G3",
          "midi": 55,
          "time": 230.3570199999975,
          "velocity": 0.3937007874015748,
          "duration": 0.5357139999999845
        },
        {
          "name": "F5",
          "midi": 77,
          "time": 230.4909484999975,
          "velocity": 0.3937007874015748,
          "duration": 0.13392849999999612
        },
        {
          "name": "E5",
          "midi": 76,
          "time": 230.6248769999975,
          "velocity": 0.3937007874015748,
          "duration": 0.13392849999999612
        },
        {
          "name": "F5",
          "midi": 77,
          "time": 230.7588054999975,
          "velocity": 0.3937007874015748,
          "duration": 0.13392849999999612
        },
        {
          "name": "D5",
          "midi": 74,
          "time": 230.8927339999975,
          "velocity": 0.3937007874015748,
          "duration": 0.40178549999998836
        },
        {
          "name": "C3",
          "midi": 48,
          "time": 230.8927339999975,
          "velocity": 0.3937007874015748,
          "duration": 0.40178549999998836
        },
        {
          "name": "G3",
          "midi": 55,
          "time": 230.8927339999975,
          "velocity": 0.3937007874015748,
          "duration": 0.40178549999998836
        },
        {
          "name": "C5",
          "midi": 72,
          "time": 231.29451949999748,
          "velocity": 0.3937007874015748,
          "duration": 0.26785699999999224
        },
        {
          "name": "D5",
          "midi": 74,
          "time": 231.29451949999748,
          "velocity": 0.3937007874015748,
          "duration": 0.26785699999999224
        },
        {
          "name": "C3",
          "midi": 48,
          "time": 231.29451949999748,
          "velocity": 0.3937007874015748,
          "duration": 0.13392849999999612
        },
        {
          "name": "G3",
          "midi": 55,
          "time": 231.29451949999748,
          "velocity": 0.3937007874015748,
          "duration": 0.13392849999999612
        },
        {
          "name": "E5",
          "midi": 76,
          "time": 231.56237649999747,
          "velocity": 0.3937007874015748,
          "duration": 0.13392849999999612
        },
        {
          "name": "F5",
          "midi": 77,
          "time": 231.69630499999747,
          "velocity": 0.3937007874015748,
          "duration": 0.13392849999999612
        },
        {
          "name": "C6",
          "midi": 84,
          "time": 231.83023349999746,
          "velocity": 0.3937007874015748,
          "duration": 0.13392849999999612
        },
        {
          "name": "A5",
          "midi": 81,
          "time": 231.96416199999746,
          "velocity": 0.3937007874015748,
          "duration": 0.5357140000000129
        },
        {
          "name": "C3",
          "midi": 48,
          "time": 231.96416199999746,
          "velocity": 0.3937007874015748,
          "duration": 0.5357140000000129
        },
        {
          "name": "G3",
          "midi": 55,
          "time": 231.96416199999746,
          "velocity": 0.3937007874015748,
          "duration": 0.5357140000000129
        },
        {
          "name": "A4",
          "midi": 69,
          "time": 232.49987599999747,
          "velocity": 0.3937007874015748,
          "duration": 0.13392849999999612
        },
        {
          "name": "D5",
          "midi": 74,
          "time": 232.49987599999747,
          "velocity": 0.3937007874015748,
          "duration": 0.13392849999999612
        },
        {
          "name": "A2",
          "midi": 45,
          "time": 232.49987599999747,
          "velocity": 0.3937007874015748,
          "duration": 0.5357139999999845
        },
        {
          "name": "D3",
          "midi": 50,
          "time": 232.49987599999747,
          "velocity": 0.3937007874015748,
          "duration": 0.5357139999999845
        },
        {
          "name": "F5",
          "midi": 77,
          "time": 232.63380449999747,
          "velocity": 0.3937007874015748,
          "duration": 0.13392849999999612
        },
        {
          "name": "E5",
          "midi": 76,
          "time": 232.76773299999746,
          "velocity": 0.3937007874015748,
          "duration": 0.13392849999999612
        },
        {
          "name": "F5",
          "midi": 77,
          "time": 232.90166149999746,
          "velocity": 0.3937007874015748,
          "duration": 0.13392849999999612
        },
        {
          "name": "D5",
          "midi": 74,
          "time": 233.03558999999746,
          "velocity": 0.3937007874015748,
          "duration": 0.40178549999998836
        },
        {
          "name": "A2",
          "midi": 45,
          "time": 233.03558999999746,
          "velocity": 0.3937007874015748,
          "duration": 0.40178549999998836
        },
        {
          "name": "D3",
          "midi": 50,
          "time": 233.03558999999746,
          "velocity": 0.3937007874015748,
          "duration": 0.40178549999998836
        },
        {
          "name": "A4",
          "midi": 69,
          "time": 233.43737549999744,
          "velocity": 0.3937007874015748,
          "duration": 0.26785699999999224
        },
        {
          "name": "D5",
          "midi": 74,
          "time": 233.43737549999744,
          "velocity": 0.3937007874015748,
          "duration": 0.26785699999999224
        },
        {
          "name": "A2",
          "midi": 45,
          "time": 233.43737549999744,
          "velocity": 0.3937007874015748,
          "duration": 0.13392849999999612
        },
        {
          "name": "D3",
          "midi": 50,
          "time": 233.43737549999744,
          "velocity": 0.3937007874015748,
          "duration": 0.13392849999999612
        },
        {
          "name": "E5",
          "midi": 76,
          "time": 233.70523249999744,
          "velocity": 0.3937007874015748,
          "duration": 0.13392849999999612
        },
        {
          "name": "F5",
          "midi": 77,
          "time": 233.83916099999743,
          "velocity": 0.3937007874015748,
          "duration": 0.13392849999999612
        },
        {
          "name": "C6",
          "midi": 84,
          "time": 233.97308949999743,
          "velocity": 0.3937007874015748,
          "duration": 0.13392849999999612
        },
        {
          "name": "A5",
          "midi": 81,
          "time": 234.10701799999742,
          "velocity": 0.3937007874015748,
          "duration": 0.5357140000000129
        },
        {
          "name": "A2",
          "midi": 45,
          "time": 234.10701799999742,
          "velocity": 0.3937007874015748,
          "duration": 0.5357140000000129
        },
        {
          "name": "D3",
          "midi": 50,
          "time": 234.10701799999742,
          "velocity": 0.3937007874015748,
          "duration": 0.5357140000000129
        },
        {
          "name": "E4",
          "midi": 64,
          "time": 234.64273199999744,
          "velocity": 0.3937007874015748,
          "duration": 0.40178549999998836
        },
        {
          "name": "C5",
          "midi": 72,
          "time": 234.64273199999744,
          "velocity": 0.3937007874015748,
          "duration": 0.40178549999998836
        },
        {
          "name": "A2",
          "midi": 45,
          "time": 234.64273199999744,
          "velocity": 0.3937007874015748,
          "duration": 1.071427999999969
        },
        {
          "name": "E3",
          "midi": 52,
          "time": 234.64273199999744,
          "velocity": 0.3937007874015748,
          "duration": 1.071427999999969
        },
        {
          "name": "G5",
          "midi": 79,
          "time": 235.04451749999743,
          "velocity": 0.3937007874015748,
          "duration": 0.40178549999998836
        },
        {
          "name": "F5",
          "midi": 77,
          "time": 235.4463029999974,
          "velocity": 0.3937007874015748,
          "duration": 0.26785699999999224
        },
        {
          "name": "E4",
          "midi": 64,
          "time": 235.7141599999974,
          "velocity": 0.3937007874015748,
          "duration": 0.13392849999999612
        },
        {
          "name": "E5",
          "midi": 76,
          "time": 235.7141599999974,
          "velocity": 0.3937007874015748,
          "duration": 0.13392849999999612
        },
        {
          "name": "A2",
          "midi": 45,
          "time": 235.7141599999974,
          "velocity": 0.3937007874015748,
          "duration": 1.071427999999969
        },
        {
          "name": "E3",
          "midi": 52,
          "time": 235.7141599999974,
          "velocity": 0.3937007874015748,
          "duration": 1.071427999999969
        },
        {
          "name": "D5",
          "midi": 74,
          "time": 235.8480884999974,
          "velocity": 0.3937007874015748,
          "duration": 0.26785699999999224
        },
        {
          "name": "C5",
          "midi": 72,
          "time": 236.1159454999974,
          "velocity": 0.3937007874015748,
          "duration": 0.40178549999998836
        },
        {
          "name": "E5",
          "midi": 76,
          "time": 236.51773099999738,
          "velocity": 0.3937007874015748,
          "duration": 0.26785699999999224
        },
        {
          "name": "A#4",
          "midi": 70,
          "time": 236.78558799999738,
          "velocity": 0.3937007874015748,
          "duration": 0.13392849999999612
        },
        {
          "name": "D5",
          "midi": 74,
          "time": 236.78558799999738,
          "velocity": 0.3937007874015748,
          "duration": 0.13392849999999612
        },
        {
          "name": "A#2",
          "midi": 46,
          "time": 236.78558799999738,
          "velocity": 0.3937007874015748,
          "duration": 0.5357139999999845
        },
        {
          "name": "F3",
          "midi": 53,
          "time": 236.78558799999738,
          "velocity": 0.3937007874015748,
          "duration": 0.5357139999999845
        },
        {
          "name": "F5",
          "midi": 77,
          "time": 236.91951649999737,
          "velocity": 0.3937007874015748,
          "duration": 0.13392849999999612
        },
        {
          "name": "E5",
          "midi": 76,
          "time": 237.05344499999737,
          "velocity": 0.3937007874015748,
          "duration": 0.13392849999999612
        },
        {
          "name": "F5",
          "midi": 77,
          "time": 237.18737349999736,
          "velocity": 0.3937007874015748,
          "duration": 0.13392849999999612
        },
        {
          "name": "D5",
          "midi": 74,
          "time": 237.32130199999736,
          "velocity": 0.3937007874015748,
          "duration": 0.40178549999998836
        },
        {
          "name": "A#2",
          "midi": 46,
          "time": 237.32130199999736,
          "velocity": 0.3937007874015748,
          "duration": 0.40178549999998836
        },
        {
          "name": "F3",
          "midi": 53,
          "time": 237.32130199999736,
          "velocity": 0.3937007874015748,
          "duration": 0.40178549999998836
        },
        {
          "name": "A#4",
          "midi": 70,
          "time": 237.72308749999735,
          "velocity": 0.3937007874015748,
          "duration": 0.26785699999999224
        },
        {
          "name": "D5",
          "midi": 74,
          "time": 237.72308749999735,
          "velocity": 0.3937007874015748,
          "duration": 0.26785699999999224
        },
        {
          "name": "A#2",
          "midi": 46,
          "time": 237.72308749999735,
          "velocity": 0.3937007874015748,
          "duration": 0.13392849999999612
        },
        {
          "name": "F3",
          "midi": 53,
          "time": 237.72308749999735,
          "velocity": 0.3937007874015748,
          "duration": 0.13392849999999612
        },
        {
          "name": "E5",
          "midi": 76,
          "time": 237.99094449999734,
          "velocity": 0.3937007874015748,
          "duration": 0.13392849999999612
        },
        {
          "name": "F5",
          "midi": 77,
          "time": 238.12487299999734,
          "velocity": 0.3937007874015748,
          "duration": 0.13392849999999612
        },
        {
          "name": "C6",
          "midi": 84,
          "time": 238.25880149999733,
          "velocity": 0.3937007874015748,
          "duration": 0.13392849999999612
        },
        {
          "name": "A5",
          "midi": 81,
          "time": 238.39272999999733,
          "velocity": 0.3937007874015748,
          "duration": 0.5357140000000129
        },
        {
          "name": "A#2",
          "midi": 46,
          "time": 238.39272999999733,
          "velocity": 0.3937007874015748,
          "duration": 0.5357140000000129
        },
        {
          "name": "F3",
          "midi": 53,
          "time": 238.39272999999733,
          "velocity": 0.3937007874015748,
          "duration": 0.5357140000000129
        },
        {
          "name": "C5",
          "midi": 72,
          "time": 238.92844399999734,
          "velocity": 0.3937007874015748,
          "duration": 0.13392849999999612
        },
        {
          "name": "D5",
          "midi": 74,
          "time": 238.92844399999734,
          "velocity": 0.3937007874015748,
          "duration": 0.13392849999999612
        },
        {
          "name": "C3",
          "midi": 48,
          "time": 238.92844399999734,
          "velocity": 0.3937007874015748,
          "duration": 0.5357139999999845
        },
        {
          "name": "G3",
          "midi": 55,
          "time": 238.92844399999734,
          "velocity": 0.3937007874015748,
          "duration": 0.5357139999999845
        },
        {
          "name": "F5",
          "midi": 77,
          "time": 239.06237249999734,
          "velocity": 0.3937007874015748,
          "duration": 0.13392849999999612
        },
        {
          "name": "E5",
          "midi": 76,
          "time": 239.19630099999733,
          "velocity": 0.3937007874015748,
          "duration": 0.13392849999999612
        },
        {
          "name": "F5",
          "midi": 77,
          "time": 239.33022949999733,
          "velocity": 0.3937007874015748,
          "duration": 0.13392849999999612
        },
        {
          "name": "D5",
          "midi": 74,
          "time": 239.46415799999733,
          "velocity": 0.3937007874015748,
          "duration": 0.40178549999998836
        },
        {
          "name": "C3",
          "midi": 48,
          "time": 239.46415799999733,
          "velocity": 0.3937007874015748,
          "duration": 0.40178549999998836
        },
        {
          "name": "G3",
          "midi": 55,
          "time": 239.46415799999733,
          "velocity": 0.3937007874015748,
          "duration": 0.40178549999998836
        },
        {
          "name": "C5",
          "midi": 72,
          "time": 239.86594349999731,
          "velocity": 0.3937007874015748,
          "duration": 0.26785699999999224
        },
        {
          "name": "D5",
          "midi": 74,
          "time": 239.86594349999731,
          "velocity": 0.3937007874015748,
          "duration": 0.26785699999999224
        },
        {
          "name": "C3",
          "midi": 48,
          "time": 239.86594349999731,
          "velocity": 0.3937007874015748,
          "duration": 0.26785699999999224
        },
        {
          "name": "G3",
          "midi": 55,
          "time": 239.86594349999731,
          "velocity": 0.3937007874015748,
          "duration": 0.26785699999999224
        },
        {
          "name": "E5",
          "midi": 76,
          "time": 240.1338004999973,
          "velocity": 0.3937007874015748,
          "duration": 0.13392849999999612
        },
        {
          "name": "F5",
          "midi": 77,
          "time": 240.2677289999973,
          "velocity": 0.3937007874015748,
          "duration": 0.13392849999999612
        },
        {
          "name": "C6",
          "midi": 84,
          "time": 240.4016574999973,
          "velocity": 0.3937007874015748,
          "duration": 0.13392849999999612
        },
        {
          "name": "A5",
          "midi": 81,
          "time": 240.5355859999973,
          "velocity": 0.3937007874015748,
          "duration": 0.5357140000000129
        },
        {
          "name": "C3",
          "midi": 48,
          "time": 240.5355859999973,
          "velocity": 0.3937007874015748,
          "duration": 0.5357140000000129
        },
        {
          "name": "G3",
          "midi": 55,
          "time": 240.5355859999973,
          "velocity": 0.3937007874015748,
          "duration": 0.5357140000000129
        },
        {
          "name": "A4",
          "midi": 69,
          "time": 241.0712999999973,
          "velocity": 0.3937007874015748,
          "duration": 0.13392849999999612
        },
        {
          "name": "D5",
          "midi": 74,
          "time": 241.0712999999973,
          "velocity": 0.3937007874015748,
          "duration": 0.13392849999999612
        },
        {
          "name": "A2",
          "midi": 45,
          "time": 241.0712999999973,
          "velocity": 0.3937007874015748,
          "duration": 0.5357139999999845
        },
        {
          "name": "D3",
          "midi": 50,
          "time": 241.0712999999973,
          "velocity": 0.3937007874015748,
          "duration": 0.5357139999999845
        },
        {
          "name": "F5",
          "midi": 77,
          "time": 241.2052284999973,
          "velocity": 0.3937007874015748,
          "duration": 0.13392849999999612
        },
        {
          "name": "E5",
          "midi": 76,
          "time": 241.3391569999973,
          "velocity": 0.3937007874015748,
          "duration": 0.13392849999999612
        },
        {
          "name": "F5",
          "midi": 77,
          "time": 241.4730854999973,
          "velocity": 0.3937007874015748,
          "duration": 0.13392849999999612
        },
        {
          "name": "D5",
          "midi": 74,
          "time": 241.6070139999973,
          "velocity": 0.3937007874015748,
          "duration": 0.40178549999998836
        },
        {
          "name": "A2",
          "midi": 45,
          "time": 241.6070139999973,
          "velocity": 0.3937007874015748,
          "duration": 0.40178549999998836
        },
        {
          "name": "D3",
          "midi": 50,
          "time": 241.6070139999973,
          "velocity": 0.3937007874015748,
          "duration": 0.40178549999998836
        },
        {
          "name": "A4",
          "midi": 69,
          "time": 242.00879949999728,
          "velocity": 0.3937007874015748,
          "duration": 0.26785699999999224
        },
        {
          "name": "D5",
          "midi": 74,
          "time": 242.00879949999728,
          "velocity": 0.3937007874015748,
          "duration": 0.26785699999999224
        },
        {
          "name": "A2",
          "midi": 45,
          "time": 242.00879949999728,
          "velocity": 0.3937007874015748,
          "duration": 0.13392849999999612
        },
        {
          "name": "D3",
          "midi": 50,
          "time": 242.00879949999728,
          "velocity": 0.3937007874015748,
          "duration": 0.13392849999999612
        },
        {
          "name": "E5",
          "midi": 76,
          "time": 242.27665649999727,
          "velocity": 0.3937007874015748,
          "duration": 0.13392849999999612
        },
        {
          "name": "F5",
          "midi": 77,
          "time": 242.41058499999727,
          "velocity": 0.3937007874015748,
          "duration": 0.13392849999999612
        },
        {
          "name": "C6",
          "midi": 84,
          "time": 242.54451349999727,
          "velocity": 0.3937007874015748,
          "duration": 0.13392849999999612
        },
        {
          "name": "A5",
          "midi": 81,
          "time": 242.67844199999726,
          "velocity": 0.3937007874015748,
          "duration": 0.5357140000000129
        },
        {
          "name": "A2",
          "midi": 45,
          "time": 242.67844199999726,
          "velocity": 0.3937007874015748,
          "duration": 0.5357140000000129
        },
        {
          "name": "D3",
          "midi": 50,
          "time": 242.67844199999726,
          "velocity": 0.3937007874015748,
          "duration": 0.5357140000000129
        },
        {
          "name": "E4",
          "midi": 64,
          "time": 243.21415599999727,
          "velocity": 0.3937007874015748,
          "duration": 0.40178549999998836
        },
        {
          "name": "C#5",
          "midi": 73,
          "time": 243.21415599999727,
          "velocity": 0.3937007874015748,
          "duration": 0.40178549999998836
        },
        {
          "name": "A2",
          "midi": 45,
          "time": 243.21415599999727,
          "velocity": 0.3937007874015748,
          "duration": 1.071427999999969
        },
        {
          "name": "E3",
          "midi": 52,
          "time": 243.21415599999727,
          "velocity": 0.3937007874015748,
          "duration": 1.071427999999969
        },
        {
          "name": "G5",
          "midi": 79,
          "time": 243.61594149999726,
          "velocity": 0.3937007874015748,
          "duration": 0.40178549999998836
        },
        {
          "name": "F5",
          "midi": 77,
          "time": 244.01772699999725,
          "velocity": 0.3937007874015748,
          "duration": 0.26785699999999224
        },
        {
          "name": "E4",
          "midi": 64,
          "time": 244.28558399999724,
          "velocity": 0.3937007874015748,
          "duration": 0.13392849999999612
        },
        {
          "name": "E5",
          "midi": 76,
          "time": 244.28558399999724,
          "velocity": 0.3937007874015748,
          "duration": 0.13392849999999612
        },
        {
          "name": "A2",
          "midi": 45,
          "time": 244.28558399999724,
          "velocity": 0.3937007874015748,
          "duration": 1.071427999999969
        },
        {
          "name": "E3",
          "midi": 52,
          "time": 244.28558399999724,
          "velocity": 0.3937007874015748,
          "duration": 1.071427999999969
        },
        {
          "name": "D5",
          "midi": 74,
          "time": 244.41951249999724,
          "velocity": 0.3937007874015748,
          "duration": 0.26785699999999224
        },
        {
          "name": "C#5",
          "midi": 73,
          "time": 244.68736949999723,
          "velocity": 0.3937007874015748,
          "duration": 0.40178549999998836
        },
        {
          "name": "E5",
          "midi": 76,
          "time": 245.08915499999722,
          "velocity": 0.3937007874015748,
          "duration": 0.26785699999999224
        },
        {
          "name": "A#4",
          "midi": 70,
          "time": 245.3570119999972,
          "velocity": 0.3937007874015748,
          "duration": 0.13392849999999612
        },
        {
          "name": "D5",
          "midi": 74,
          "time": 245.3570119999972,
          "velocity": 0.3937007874015748,
          "duration": 0.13392849999999612
        },
        {
          "name": "A#2",
          "midi": 46,
          "time": 245.3570119999972,
          "velocity": 0.3937007874015748,
          "duration": 0.5357139999999845
        },
        {
          "name": "F3",
          "midi": 53,
          "time": 245.3570119999972,
          "velocity": 0.3937007874015748,
          "duration": 0.5357139999999845
        },
        {
          "name": "F5",
          "midi": 77,
          "time": 245.4909404999972,
          "velocity": 0.3937007874015748,
          "duration": 0.13392849999999612
        },
        {
          "name": "E5",
          "midi": 76,
          "time": 245.6248689999972,
          "velocity": 0.3937007874015748,
          "duration": 0.13392849999999612
        },
        {
          "name": "F5",
          "midi": 77,
          "time": 245.7587974999972,
          "velocity": 0.3937007874015748,
          "duration": 0.13392849999999612
        },
        {
          "name": "D5",
          "midi": 74,
          "time": 245.8927259999972,
          "velocity": 0.3937007874015748,
          "duration": 0.40178549999998836
        },
        {
          "name": "A#2",
          "midi": 46,
          "time": 245.8927259999972,
          "velocity": 0.3937007874015748,
          "duration": 0.40178549999998836
        },
        {
          "name": "F3",
          "midi": 53,
          "time": 245.8927259999972,
          "velocity": 0.3937007874015748,
          "duration": 0.40178549999998836
        },
        {
          "name": "A#4",
          "midi": 70,
          "time": 246.29451149999718,
          "velocity": 0.3937007874015748,
          "duration": 0.26785699999999224
        },
        {
          "name": "D5",
          "midi": 74,
          "time": 246.29451149999718,
          "velocity": 0.3937007874015748,
          "duration": 0.26785699999999224
        },
        {
          "name": "A#2",
          "midi": 46,
          "time": 246.29451149999718,
          "velocity": 0.3937007874015748,
          "duration": 0.13392849999999612
        },
        {
          "name": "F3",
          "midi": 53,
          "time": 246.29451149999718,
          "velocity": 0.3937007874015748,
          "duration": 0.13392849999999612
        },
        {
          "name": "E5",
          "midi": 76,
          "time": 246.56236849999718,
          "velocity": 0.3937007874015748,
          "duration": 0.13392849999999612
        },
        {
          "name": "F5",
          "midi": 77,
          "time": 246.69629699999717,
          "velocity": 0.3937007874015748,
          "duration": 0.13392849999999612
        },
        {
          "name": "C6",
          "midi": 84,
          "time": 246.83022549999717,
          "velocity": 0.3937007874015748,
          "duration": 0.13392849999999612
        },
        {
          "name": "A5",
          "midi": 81,
          "time": 246.96415399999717,
          "velocity": 0.3937007874015748,
          "duration": 0.5357140000000129
        },
        {
          "name": "A#2",
          "midi": 46,
          "time": 246.96415399999717,
          "velocity": 0.3937007874015748,
          "duration": 0.5357140000000129
        },
        {
          "name": "F3",
          "midi": 53,
          "time": 246.96415399999717,
          "velocity": 0.3937007874015748,
          "duration": 0.5357140000000129
        },
        {
          "name": "C5",
          "midi": 72,
          "time": 247.49986799999718,
          "velocity": 0.3937007874015748,
          "duration": 0.13392849999999612
        },
        {
          "name": "D5",
          "midi": 74,
          "time": 247.49986799999718,
          "velocity": 0.3937007874015748,
          "duration": 0.13392849999999612
        },
        {
          "name": "C3",
          "midi": 48,
          "time": 247.49986799999718,
          "velocity": 0.3937007874015748,
          "duration": 0.5357139999999845
        },
        {
          "name": "G3",
          "midi": 55,
          "time": 247.49986799999718,
          "velocity": 0.3937007874015748,
          "duration": 0.5357139999999845
        },
        {
          "name": "F5",
          "midi": 77,
          "time": 247.63379649999717,
          "velocity": 0.3937007874015748,
          "duration": 0.13392849999999612
        },
        {
          "name": "E5",
          "midi": 76,
          "time": 247.76772499999717,
          "velocity": 0.3937007874015748,
          "duration": 0.13392849999999612
        },
        {
          "name": "F5",
          "midi": 77,
          "time": 247.90165349999717,
          "velocity": 0.3937007874015748,
          "duration": 0.13392849999999612
        },
        {
          "name": "D5",
          "midi": 74,
          "time": 248.03558199999716,
          "velocity": 0.3937007874015748,
          "duration": 0.40178549999998836
        },
        {
          "name": "C3",
          "midi": 48,
          "time": 248.03558199999716,
          "velocity": 0.3937007874015748,
          "duration": 0.40178549999998836
        },
        {
          "name": "G3",
          "midi": 55,
          "time": 248.03558199999716,
          "velocity": 0.3937007874015748,
          "duration": 0.40178549999998836
        },
        {
          "name": "C5",
          "midi": 72,
          "time": 248.43736749999715,
          "velocity": 0.3937007874015748,
          "duration": 0.26785699999999224
        },
        {
          "name": "D5",
          "midi": 74,
          "time": 248.43736749999715,
          "velocity": 0.3937007874015748,
          "duration": 0.26785699999999224
        },
        {
          "name": "C3",
          "midi": 48,
          "time": 248.43736749999715,
          "velocity": 0.3937007874015748,
          "duration": 0.13392849999999612
        },
        {
          "name": "G3",
          "midi": 55,
          "time": 248.43736749999715,
          "velocity": 0.3937007874015748,
          "duration": 0.13392849999999612
        },
        {
          "name": "E5",
          "midi": 76,
          "time": 248.70522449999714,
          "velocity": 0.3937007874015748,
          "duration": 0.13392849999999612
        },
        {
          "name": "F5",
          "midi": 77,
          "time": 248.83915299999714,
          "velocity": 0.3937007874015748,
          "duration": 0.13392849999999612
        },
        {
          "name": "C6",
          "midi": 84,
          "time": 248.97308149999714,
          "velocity": 0.3937007874015748,
          "duration": 0.13392849999999612
        },
        {
          "name": "A5",
          "midi": 81,
          "time": 249.10700999999713,
          "velocity": 0.3937007874015748,
          "duration": 0.5357140000000129
        },
        {
          "name": "C3",
          "midi": 48,
          "time": 249.10700999999713,
          "velocity": 0.3937007874015748,
          "duration": 0.5357140000000129
        },
        {
          "name": "G3",
          "midi": 55,
          "time": 249.10700999999713,
          "velocity": 0.3937007874015748,
          "duration": 0.5357140000000129
        },
        {
          "name": "A4",
          "midi": 69,
          "time": 249.64272399999714,
          "velocity": 0.3937007874015748,
          "duration": 0.13392849999999612
        },
        {
          "name": "D5",
          "midi": 74,
          "time": 249.64272399999714,
          "velocity": 0.3937007874015748,
          "duration": 0.13392849999999612
        },
        {
          "name": "A2",
          "midi": 45,
          "time": 249.64272399999714,
          "velocity": 0.3937007874015748,
          "duration": 0.5357139999999845
        },
        {
          "name": "D3",
          "midi": 50,
          "time": 249.64272399999714,
          "velocity": 0.3937007874015748,
          "duration": 0.5357139999999845
        },
        {
          "name": "F5",
          "midi": 77,
          "time": 249.77665249999714,
          "velocity": 0.3937007874015748,
          "duration": 0.13392849999999612
        },
        {
          "name": "E5",
          "midi": 76,
          "time": 249.91058099999714,
          "velocity": 0.3937007874015748,
          "duration": 0.13392849999999612
        },
        {
          "name": "F5",
          "midi": 77,
          "time": 250.04450949999713,
          "velocity": 0.3937007874015748,
          "duration": 0.13392849999999612
        },
        {
          "name": "D5",
          "midi": 74,
          "time": 250.17843799999713,
          "velocity": 0.3937007874015748,
          "duration": 0.40178549999998836
        },
        {
          "name": "A2",
          "midi": 45,
          "time": 250.17843799999713,
          "velocity": 0.3937007874015748,
          "duration": 0.40178549999998836
        },
        {
          "name": "D3",
          "midi": 50,
          "time": 250.17843799999713,
          "velocity": 0.3937007874015748,
          "duration": 0.40178549999998836
        },
        {
          "name": "A4",
          "midi": 69,
          "time": 250.58022349999712,
          "velocity": 0.3937007874015748,
          "duration": 0.26785699999999224
        },
        {
          "name": "D5",
          "midi": 74,
          "time": 250.58022349999712,
          "velocity": 0.3937007874015748,
          "duration": 0.26785699999999224
        },
        {
          "name": "A2",
          "midi": 45,
          "time": 250.58022349999712,
          "velocity": 0.3937007874015748,
          "duration": 0.13392849999999612
        },
        {
          "name": "D3",
          "midi": 50,
          "time": 250.58022349999712,
          "velocity": 0.3937007874015748,
          "duration": 0.13392849999999612
        },
        {
          "name": "E5",
          "midi": 76,
          "time": 250.8480804999971,
          "velocity": 0.3937007874015748,
          "duration": 0.13392849999999612
        },
        {
          "name": "F5",
          "midi": 77,
          "time": 250.9820089999971,
          "velocity": 0.3937007874015748,
          "duration": 0.13392849999999612
        },
        {
          "name": "C6",
          "midi": 84,
          "time": 251.1159374999971,
          "velocity": 0.3937007874015748,
          "duration": 0.13392849999999612
        },
        {
          "name": "A5",
          "midi": 81,
          "time": 251.2498659999971,
          "velocity": 0.3937007874015748,
          "duration": 0.5357140000000129
        },
        {
          "name": "A2",
          "midi": 45,
          "time": 251.2498659999971,
          "velocity": 0.3937007874015748,
          "duration": 0.5357140000000129
        },
        {
          "name": "D3",
          "midi": 50,
          "time": 251.2498659999971,
          "velocity": 0.3937007874015748,
          "duration": 0.5357140000000129
        },
        {
          "name": "E4",
          "midi": 64,
          "time": 251.7855799999971,
          "velocity": 0.3937007874015748,
          "duration": 0.40178549999998836
        },
        {
          "name": "C5",
          "midi": 72,
          "time": 251.7855799999971,
          "velocity": 0.3937007874015748,
          "duration": 0.40178549999998836
        },
        {
          "name": "A2",
          "midi": 45,
          "time": 251.7855799999971,
          "velocity": 0.3937007874015748,
          "duration": 1.071427999999969
        },
        {
          "name": "E3",
          "midi": 52,
          "time": 251.7855799999971,
          "velocity": 0.3937007874015748,
          "duration": 1.071427999999969
        },
        {
          "name": "G5",
          "midi": 79,
          "time": 252.1873654999971,
          "velocity": 0.3937007874015748,
          "duration": 0.40178549999998836
        },
        {
          "name": "F5",
          "midi": 77,
          "time": 252.5891509999971,
          "velocity": 0.3937007874015748,
          "duration": 0.26785699999999224
        },
        {
          "name": "E4",
          "midi": 64,
          "time": 252.85700799999708,
          "velocity": 0.3937007874015748,
          "duration": 0.13392849999999612
        },
        {
          "name": "E5",
          "midi": 76,
          "time": 252.85700799999708,
          "velocity": 0.3937007874015748,
          "duration": 0.13392849999999612
        },
        {
          "name": "A2",
          "midi": 45,
          "time": 252.85700799999708,
          "velocity": 0.3937007874015748,
          "duration": 1.071427999999969
        },
        {
          "name": "E3",
          "midi": 52,
          "time": 252.85700799999708,
          "velocity": 0.3937007874015748,
          "duration": 1.071427999999969
        },
        {
          "name": "D5",
          "midi": 74,
          "time": 252.99093649999708,
          "velocity": 0.3937007874015748,
          "duration": 0.26785699999999224
        },
        {
          "name": "C5",
          "midi": 72,
          "time": 253.25879349999707,
          "velocity": 0.3937007874015748,
          "duration": 0.40178549999998836
        },
        {
          "name": "E5",
          "midi": 76,
          "time": 253.66057899999706,
          "velocity": 0.3937007874015748,
          "duration": 0.26785699999999224
        },
        {
          "name": "A#4",
          "midi": 70,
          "time": 253.92843599999705,
          "velocity": 0.3937007874015748,
          "duration": 0.13392849999999612
        },
        {
          "name": "D5",
          "midi": 74,
          "time": 253.92843599999705,
          "velocity": 0.3937007874015748,
          "duration": 0.13392849999999612
        },
        {
          "name": "A#2",
          "midi": 46,
          "time": 253.92843599999705,
          "velocity": 0.3937007874015748,
          "duration": 0.5357139999999845
        },
        {
          "name": "F3",
          "midi": 53,
          "time": 253.92843599999705,
          "velocity": 0.3937007874015748,
          "duration": 0.5357139999999845
        },
        {
          "name": "F5",
          "midi": 77,
          "time": 254.06236449999705,
          "velocity": 0.3937007874015748,
          "duration": 0.13392849999999612
        },
        {
          "name": "E5",
          "midi": 76,
          "time": 254.19629299999704,
          "velocity": 0.3937007874015748,
          "duration": 0.13392849999999612
        },
        {
          "name": "F5",
          "midi": 77,
          "time": 254.33022149999704,
          "velocity": 0.3937007874015748,
          "duration": 0.13392849999999612
        },
        {
          "name": "D5",
          "midi": 74,
          "time": 254.46414999999703,
          "velocity": 0.3937007874015748,
          "duration": 0.40178549999998836
        },
        {
          "name": "A#2",
          "midi": 46,
          "time": 254.46414999999703,
          "velocity": 0.3937007874015748,
          "duration": 0.40178549999998836
        },
        {
          "name": "F3",
          "midi": 53,
          "time": 254.46414999999703,
          "velocity": 0.3937007874015748,
          "duration": 0.40178549999998836
        },
        {
          "name": "A#4",
          "midi": 70,
          "time": 254.86593549999702,
          "velocity": 0.3937007874015748,
          "duration": 0.26785699999999224
        },
        {
          "name": "D5",
          "midi": 74,
          "time": 254.86593549999702,
          "velocity": 0.3937007874015748,
          "duration": 0.26785699999999224
        },
        {
          "name": "A#2",
          "midi": 46,
          "time": 254.86593549999702,
          "velocity": 0.3937007874015748,
          "duration": 0.13392849999999612
        },
        {
          "name": "F3",
          "midi": 53,
          "time": 254.86593549999702,
          "velocity": 0.3937007874015748,
          "duration": 0.13392849999999612
        },
        {
          "name": "E5",
          "midi": 76,
          "time": 255.133792499997,
          "velocity": 0.3937007874015748,
          "duration": 0.13392849999999612
        },
        {
          "name": "F5",
          "midi": 77,
          "time": 255.267720999997,
          "velocity": 0.3937007874015748,
          "duration": 0.13392849999999612
        },
        {
          "name": "C6",
          "midi": 84,
          "time": 255.401649499997,
          "velocity": 0.3937007874015748,
          "duration": 0.13392849999999612
        },
        {
          "name": "A5",
          "midi": 81,
          "time": 255.535577999997,
          "velocity": 0.3937007874015748,
          "duration": 0.5357140000000129
        },
        {
          "name": "A#2",
          "midi": 46,
          "time": 255.535577999997,
          "velocity": 0.3937007874015748,
          "duration": 0.5357140000000129
        },
        {
          "name": "F3",
          "midi": 53,
          "time": 255.535577999997,
          "velocity": 0.3937007874015748,
          "duration": 0.5357140000000129
        },
        {
          "name": "C5",
          "midi": 72,
          "time": 256.071291999997,
          "velocity": 0.3937007874015748,
          "duration": 0.13392850000002454
        },
        {
          "name": "D5",
          "midi": 74,
          "time": 256.071291999997,
          "velocity": 0.3937007874015748,
          "duration": 0.13392850000002454
        },
        {
          "name": "C3",
          "midi": 48,
          "time": 256.071291999997,
          "velocity": 0.3937007874015748,
          "duration": 0.5357140000000982
        },
        {
          "name": "G3",
          "midi": 55,
          "time": 256.071291999997,
          "velocity": 0.3937007874015748,
          "duration": 0.5357140000000982
        },
        {
          "name": "F5",
          "midi": 77,
          "time": 256.20522049999704,
          "velocity": 0.3937007874015748,
          "duration": 0.13392850000002454
        },
        {
          "name": "E5",
          "midi": 76,
          "time": 256.33914899999706,
          "velocity": 0.3937007874015748,
          "duration": 0.13392850000002454
        },
        {
          "name": "F5",
          "midi": 77,
          "time": 256.4730774999971,
          "velocity": 0.3937007874015748,
          "duration": 0.13392850000002454
        },
        {
          "name": "D5",
          "midi": 74,
          "time": 256.6070059999971,
          "velocity": 0.3937007874015748,
          "duration": 0.4017855000000168
        },
        {
          "name": "C3",
          "midi": 48,
          "time": 256.6070059999971,
          "velocity": 0.3937007874015748,
          "duration": 0.4017855000000168
        },
        {
          "name": "G3",
          "midi": 55,
          "time": 256.6070059999971,
          "velocity": 0.3937007874015748,
          "duration": 0.4017855000000168
        },
        {
          "name": "C5",
          "midi": 72,
          "time": 257.00879149999713,
          "velocity": 0.3937007874015748,
          "duration": 0.26785699999999224
        },
        {
          "name": "D5",
          "midi": 74,
          "time": 257.00879149999713,
          "velocity": 0.3937007874015748,
          "duration": 0.26785699999999224
        },
        {
          "name": "C3",
          "midi": 48,
          "time": 257.00879149999713,
          "velocity": 0.3937007874015748,
          "duration": 0.26785699999999224
        },
        {
          "name": "G3",
          "midi": 55,
          "time": 257.00879149999713,
          "velocity": 0.3937007874015748,
          "duration": 0.26785699999999224
        },
        {
          "name": "E5",
          "midi": 76,
          "time": 257.2766484999971,
          "velocity": 0.3937007874015748,
          "duration": 0.13392850000002454
        },
        {
          "name": "F5",
          "midi": 77,
          "time": 257.41057699999715,
          "velocity": 0.3937007874015748,
          "duration": 0.13392850000002454
        },
        {
          "name": "C6",
          "midi": 84,
          "time": 257.5445054999972,
          "velocity": 0.3937007874015748,
          "duration": 0.13392850000002454
        },
        {
          "name": "A5",
          "midi": 81,
          "time": 257.6784339999972,
          "velocity": 0.3937007874015748,
          "duration": 0.5357139999999845
        },
        {
          "name": "C3",
          "midi": 48,
          "time": 257.6784339999972,
          "velocity": 0.3937007874015748,
          "duration": 0.5357139999999845
        },
        {
          "name": "G3",
          "midi": 55,
          "time": 257.6784339999972,
          "velocity": 0.3937007874015748,
          "duration": 0.5357139999999845
        },
        {
          "name": "A4",
          "midi": 69,
          "time": 258.2141479999972,
          "velocity": 0.3937007874015748,
          "duration": 0.13392850000002454
        },
        {
          "name": "D5",
          "midi": 74,
          "time": 258.2141479999972,
          "velocity": 0.3937007874015748,
          "duration": 0.13392850000002454
        },
        {
          "name": "A2",
          "midi": 45,
          "time": 258.2141479999972,
          "velocity": 0.3937007874015748,
          "duration": 0.5357140000000982
        },
        {
          "name": "D3",
          "midi": 50,
          "time": 258.2141479999972,
          "velocity": 0.3937007874015748,
          "duration": 0.5357140000000982
        },
        {
          "name": "F5",
          "midi": 77,
          "time": 258.3480764999972,
          "velocity": 0.3937007874015748,
          "duration": 0.13392850000002454
        },
        {
          "name": "E5",
          "midi": 76,
          "time": 258.48200499999723,
          "velocity": 0.3937007874015748,
          "duration": 0.13392850000002454
        },
        {
          "name": "F5",
          "midi": 77,
          "time": 258.61593349999725,
          "velocity": 0.3937007874015748,
          "duration": 0.13392850000002454
        },
        {
          "name": "D5",
          "midi": 74,
          "time": 258.7498619999973,
          "velocity": 0.3937007874015748,
          "duration": 0.4017855000000168
        },
        {
          "name": "A2",
          "midi": 45,
          "time": 258.7498619999973,
          "velocity": 0.3937007874015748,
          "duration": 0.4017855000000168
        },
        {
          "name": "D3",
          "midi": 50,
          "time": 258.7498619999973,
          "velocity": 0.3937007874015748,
          "duration": 0.4017855000000168
        },
        {
          "name": "A4",
          "midi": 69,
          "time": 259.1516474999973,
          "velocity": 0.3937007874015748,
          "duration": 0.2678570000000491
        },
        {
          "name": "D5",
          "midi": 74,
          "time": 259.1516474999973,
          "velocity": 0.3937007874015748,
          "duration": 0.2678570000000491
        },
        {
          "name": "A2",
          "midi": 45,
          "time": 259.1516474999973,
          "velocity": 0.3937007874015748,
          "duration": 0.13392850000002454
        },
        {
          "name": "D3",
          "midi": 50,
          "time": 259.1516474999973,
          "velocity": 0.3937007874015748,
          "duration": 0.13392850000002454
        },
        {
          "name": "E5",
          "midi": 76,
          "time": 259.41950449999734,
          "velocity": 0.3937007874015748,
          "duration": 0.13392850000002454
        },
        {
          "name": "F5",
          "midi": 77,
          "time": 259.55343299999737,
          "velocity": 0.3937007874015748,
          "duration": 0.13392850000002454
        },
        {
          "name": "C6",
          "midi": 84,
          "time": 259.6873614999974,
          "velocity": 0.3937007874015748,
          "duration": 0.13392850000002454
        },
        {
          "name": "A5",
          "midi": 81,
          "time": 259.8212899999974,
          "velocity": 0.3937007874015748,
          "duration": 0.5357139999999845
        },
        {
          "name": "A2",
          "midi": 45,
          "time": 259.8212899999974,
          "velocity": 0.3937007874015748,
          "duration": 0.5357139999999845
        },
        {
          "name": "D3",
          "midi": 50,
          "time": 259.8212899999974,
          "velocity": 0.3937007874015748,
          "duration": 0.5357139999999845
        },
        {
          "name": "C#5",
          "midi": 73,
          "time": 260.3570039999974,
          "velocity": 0.3937007874015748,
          "duration": 0.4017855000000168
        },
        {
          "name": "A2",
          "midi": 45,
          "time": 260.3570039999974,
          "velocity": 0.3937007874015748,
          "duration": 0.26785699999999224
        },
        {
          "name": "C#3",
          "midi": 49,
          "time": 260.6248609999974,
          "velocity": 0.3937007874015748,
          "duration": 0.2678570000000491
        },
        {
          "name": "G5",
          "midi": 79,
          "time": 260.7587894999974,
          "velocity": 0.3937007874015748,
          "duration": 0.4017855000000168
        },
        {
          "name": "E3",
          "midi": 52,
          "time": 260.89271799999744,
          "velocity": 0.3937007874015748,
          "duration": 0.26785699999999224
        },
        {
          "name": "F5",
          "midi": 77,
          "time": 261.16057499999744,
          "velocity": 0.3937007874015748,
          "duration": 0.26785699999999224
        },
        {
          "name": "A3",
          "midi": 57,
          "time": 261.16057499999744,
          "velocity": 0.3937007874015748,
          "duration": 0.26785699999999224
        },
        {
          "name": "E5",
          "midi": 76,
          "time": 261.42843199999743,
          "velocity": 0.3937007874015748,
          "duration": 0.13392850000002454
        },
        {
          "name": "C#4",
          "midi": 61,
          "time": 261.42843199999743,
          "velocity": 0.3937007874015748,
          "duration": 0.5357140000000413
        },
        {
          "name": "D5",
          "midi": 74,
          "time": 261.56236049999745,
          "velocity": 0.3937007874015748,
          "duration": 0.26785699999999224
        },
        {
          "name": "C#5",
          "midi": 73,
          "time": 261.83021749999745,
          "velocity": 0.3937007874015748,
          "duration": 0.4017855000000168
        },
        {
          "name": "C#3",
          "midi": 49,
          "time": 261.96414599999747,
          "velocity": 0.3937007874015748,
          "duration": 0.5357139999999845
        },
        {
          "name": "E5",
          "midi": 76,
          "time": 262.23200299999746,
          "velocity": 0.3937007874015748,
          "duration": 0.26785699999999224
        },
        {
          "name": "F4",
          "midi": 65,
          "time": 262.49985999999745,
          "velocity": 0.3937007874015748,
          "duration": 1.6071420000000103
        },
        {
          "name": "A#2",
          "midi": 46,
          "time": 262.49985999999745,
          "velocity": 0.3937007874015748,
          "duration": 0.4017855000000168
        },
        {
          "name": "A#4",
          "midi": 70,
          "time": 262.6337884999975,
          "velocity": 0.3937007874015748,
          "duration": 1.4732134999999857
        },
        {
          "name": "D5",
          "midi": 74,
          "time": 262.6337884999975,
          "velocity": 0.3937007874015748,
          "duration": 1.4732134999999857
        },
        {
          "name": "D3",
          "midi": 50,
          "time": 262.90164549999747,
          "velocity": 0.3937007874015748,
          "duration": 0.4017855000000168
        },
        {
          "name": "F3",
          "midi": 53,
          "time": 263.3034309999975,
          "velocity": 0.3937007874015748,
          "duration": 0.26785699999999224
        },
        {
          "name": "A#3",
          "midi": 58,
          "time": 263.5712879999975,
          "velocity": 0.3937007874015748,
          "duration": 1.071427999999969
        },
        {
          "name": "A4",
          "midi": 69,
          "time": 264.10700199999746,
          "velocity": 0.3937007874015748,
          "duration": 0.26785699999999224
        },
        {
          "name": "C5",
          "midi": 72,
          "time": 264.37485899999746,
          "velocity": 0.3937007874015748,
          "duration": 0.26785699999999224
        },
        {
          "name": "G4",
          "midi": 67,
          "time": 264.64271599999745,
          "velocity": 0.3937007874015748,
          "duration": 0.8035710000000336
        },
        {
          "name": "C3",
          "midi": 48,
          "time": 264.64271599999745,
          "velocity": 0.3937007874015748,
          "duration": 0.4017855000000168
        },
        {
          "name": "C5",
          "midi": 72,
          "time": 264.7766444999975,
          "velocity": 0.3937007874015748,
          "duration": 0.669642500000009
        },
        {
          "name": "D5",
          "midi": 74,
          "time": 264.7766444999975,
          "velocity": 0.3937007874015748,
          "duration": 0.669642500000009
        },
        {
          "name": "E3",
          "midi": 52,
          "time": 265.04450149999747,
          "velocity": 0.3937007874015748,
          "duration": 0.4017855000000168
        },
        {
          "name": "F5",
          "midi": 77,
          "time": 265.4462869999975,
          "velocity": 0.3937007874015748,
          "duration": 0.26785699999999224
        },
        {
          "name": "G3",
          "midi": 55,
          "time": 265.4462869999975,
          "velocity": 0.3937007874015748,
          "duration": 0.26785699999999224
        },
        {
          "name": "G5",
          "midi": 79,
          "time": 265.7141439999975,
          "velocity": 0.3937007874015748,
          "duration": 0.13392850000002454
        },
        {
          "name": "C4",
          "midi": 60,
          "time": 265.7141439999975,
          "velocity": 0.3937007874015748,
          "duration": 1.0714280000000258
        },
        {
          "name": "F5",
          "midi": 77,
          "time": 265.8480724999975,
          "velocity": 0.3937007874015748,
          "duration": 0.26785699999999224
        },
        {
          "name": "E5",
          "midi": 76,
          "time": 266.1159294999975,
          "velocity": 0.3937007874015748,
          "duration": 0.4017855000000168
        },
        {
          "name": "F5",
          "midi": 77,
          "time": 266.5177149999975,
          "velocity": 0.3937007874015748,
          "duration": 0.26785699999999224
        },
        {
          "name": "F4",
          "midi": 65,
          "time": 266.7855719999975,
          "velocity": 0.3937007874015748,
          "duration": 1.0714280000000258
        },
        {
          "name": "D2",
          "midi": 38,
          "time": 266.7855719999975,
          "velocity": 0.3937007874015748,
          "duration": 0.4017855000000168
        },
        {
          "name": "A4",
          "midi": 69,
          "time": 266.9195004999975,
          "velocity": 0.3937007874015748,
          "duration": 0.9374995000000013
        },
        {
          "name": "D5",
          "midi": 74,
          "time": 266.9195004999975,
          "velocity": 0.3937007874015748,
          "duration": 0.9374995000000013
        },
        {
          "name": "A2",
          "midi": 45,
          "time": 267.1873574999975,
          "velocity": 0.3937007874015748,
          "duration": 0.4017855000000168
        },
        {
          "name": "D3",
          "midi": 50,
          "time": 267.58914299999753,
          "velocity": 0.3937007874015748,
          "duration": 0.26785699999999224
        },
        {
          "name": "A4",
          "midi": 69,
          "time": 267.8569999999975,
          "velocity": 0.3937007874015748,
          "duration": 0.26785699999999224
        },
        {
          "name": "F3",
          "midi": 53,
          "time": 267.8569999999975,
          "velocity": 0.3937007874015748,
          "duration": 1.0714280000000258
        },
        {
          "name": "A4",
          "midi": 69,
          "time": 268.1248569999975,
          "velocity": 0.3937007874015748,
          "duration": 0.13392850000002454
        },
        {
          "name": "C5",
          "midi": 72,
          "time": 268.25878549999754,
          "velocity": 0.3937007874015748,
          "duration": 0.26785699999999224
        },
        {
          "name": "C5",
          "midi": 72,
          "time": 268.52664249999754,
          "velocity": 0.3937007874015748,
          "duration": 0.13392850000002454
        },
        {
          "name": "F5",
          "midi": 77,
          "time": 268.66057099999756,
          "velocity": 0.3937007874015748,
          "duration": 0.26785699999999224
        },
        {
          "name": "G4",
          "midi": 67,
          "time": 268.92842799999755,
          "velocity": 0.3937007874015748,
          "duration": 1.0714280000000258
        },
        {
          "name": "C3",
          "midi": 48,
          "time": 268.92842799999755,
          "velocity": 0.3937007874015748,
          "duration": 0.4017855000000168
        },
        {
          "name": "C5",
          "midi": 72,
          "time": 269.0623564999976,
          "velocity": 0.3937007874015748,
          "duration": 0.9374995000000013
        },
        {
          "name": "E5",
          "midi": 76,
          "time": 269.0623564999976,
          "velocity": 0.3937007874015748,
          "duration": 0.9374995000000013
        },
        {
          "name": "E3",
          "midi": 52,
          "time": 269.33021349999757,
          "velocity": 0.3937007874015748,
          "duration": 0.4017855000000168
        },
        {
          "name": "G3",
          "midi": 55,
          "time": 269.7319989999976,
          "velocity": 0.3937007874015748,
          "duration": 0.26785699999999224
        },
        {
          "name": "F4",
          "midi": 65,
          "time": 269.9998559999976,
          "velocity": 0.3937007874015748,
          "duration": 0.4017855000000168
        },
        {
          "name": "A4",
          "midi": 69,
          "time": 269.9998559999976,
          "velocity": 0.3937007874015748,
          "duration": 0.4017855000000168
        },
        {
          "name": "D5",
          "midi": 74,
          "time": 269.9998559999976,
          "velocity": 0.3937007874015748,
          "duration": 0.4017855000000168
        },
        {
          "name": "D2",
          "midi": 38,
          "time": 269.9998559999976,
          "velocity": 0.3937007874015748,
          "duration": 0.4017855000000168
        },
        {
          "name": "D3",
          "midi": 50,
          "time": 269.9998559999976,
          "velocity": 0.3937007874015748,
          "duration": 0.4017855000000168
        },
        {
          "name": "G4",
          "midi": 67,
          "time": 270.4016414999976,
          "velocity": 0.3937007874015748,
          "duration": 0.4017855000000168
        },
        {
          "name": "C5",
          "midi": 72,
          "time": 270.4016414999976,
          "velocity": 0.3937007874015748,
          "duration": 0.4017855000000168
        },
        {
          "name": "F5",
          "midi": 77,
          "time": 270.4016414999976,
          "velocity": 0.3937007874015748,
          "duration": 0.4017855000000168
        },
        {
          "name": "F2",
          "midi": 41,
          "time": 270.4016414999976,
          "velocity": 0.3937007874015748,
          "duration": 0.4017855000000168
        },
        {
          "name": "F3",
          "midi": 53,
          "time": 270.4016414999976,
          "velocity": 0.3937007874015748,
          "duration": 0.4017855000000168
        },
        {
          "name": "F4",
          "midi": 65,
          "time": 270.8034269999976,
          "velocity": 0.3937007874015748,
          "duration": 0.26785699999999224
        },
        {
          "name": "D5",
          "midi": 74,
          "time": 270.8034269999976,
          "velocity": 0.3937007874015748,
          "duration": 0.26785699999999224
        },
        {
          "name": "G5",
          "midi": 79,
          "time": 270.8034269999976,
          "velocity": 0.3937007874015748,
          "duration": 0.26785699999999224
        },
        {
          "name": "G2",
          "midi": 43,
          "time": 270.8034269999976,
          "velocity": 0.3937007874015748,
          "duration": 0.26785699999999224
        },
        {
          "name": "G3",
          "midi": 55,
          "time": 270.8034269999976,
          "velocity": 0.3937007874015748,
          "duration": 0.26785699999999224
        },
        {
          "name": "A#4",
          "midi": 70,
          "time": 271.0712839999976,
          "velocity": 0.3937007874015748,
          "duration": 1.6071420000002945
        },
        {
          "name": "D5",
          "midi": 74,
          "time": 271.0712839999976,
          "velocity": 0.3937007874015748,
          "duration": 1.6071420000002945
        },
        {
          "name": "A5",
          "midi": 81,
          "time": 271.0712839999976,
          "velocity": 0.3937007874015748,
          "duration": 1.6071420000002945
        },
        {
          "name": "A#1",
          "midi": 34,
          "time": 271.0712839999976,
          "velocity": 0.3937007874015748,
          "duration": 0.13392850000002454
        },
        {
          "name": "F2",
          "midi": 41,
          "time": 271.20521249999763,
          "velocity": 0.3937007874015748,
          "duration": 0.13392850000002454
        },
        {
          "name": "A#2",
          "midi": 46,
          "time": 271.33914099999765,
          "velocity": 0.3937007874015748,
          "duration": 0.13392850000002454
        },
        {
          "name": "F2",
          "midi": 41,
          "time": 271.4730694999977,
          "velocity": 0.3937007874015748,
          "duration": 0.13392850000002454
        },
        {
          "name": "A#1",
          "midi": 34,
          "time": 271.6069979999977,
          "velocity": 0.3937007874015748,
          "duration": 0.13392850000002454
        },
        {
          "name": "F2",
          "midi": 41,
          "time": 271.7409264999977,
          "velocity": 0.3937007874015748,
          "duration": 0.13392850000002454
        },
        {
          "name": "A#2",
          "midi": 46,
          "time": 271.87485499999775,
          "velocity": 0.3937007874015748,
          "duration": 0.13392850000002454
        },
        {
          "name": "F2",
          "midi": 41,
          "time": 272.0087834999978,
          "velocity": 0.3937007874015748,
          "duration": 0.13392850000002454
        },
        {
          "name": "A#1",
          "midi": 34,
          "time": 272.1427119999978,
          "velocity": 0.3937007874015748,
          "duration": 0.13392850000002454
        },
        {
          "name": "F2",
          "midi": 41,
          "time": 272.2766404999978,
          "velocity": 0.3937007874015748,
          "duration": 0.13392850000002454
        },
        {
          "name": "A#2",
          "midi": 46,
          "time": 272.41056899999785,
          "velocity": 0.3937007874015748,
          "duration": 0.13392850000002454
        },
        {
          "name": "F2",
          "midi": 41,
          "time": 272.5444974999979,
          "velocity": 0.3937007874015748,
          "duration": 0.13392850000002454
        },
        {
          "name": "C5",
          "midi": 72,
          "time": 272.6784259999979,
          "velocity": 0.3937007874015748,
          "duration": 0.2678570000000491
        },
        {
          "name": "F5",
          "midi": 77,
          "time": 272.6784259999979,
          "velocity": 0.3937007874015748,
          "duration": 0.2678570000000491
        },
        {
          "name": "A#1",
          "midi": 34,
          "time": 272.6784259999979,
          "velocity": 0.3937007874015748,
          "duration": 0.13392850000002454
        },
        {
          "name": "F2",
          "midi": 41,
          "time": 272.8123544999979,
          "velocity": 0.3937007874015748,
          "duration": 0.13392850000002454
        },
        {
          "name": "C5",
          "midi": 72,
          "time": 272.94628299999795,
          "velocity": 0.3937007874015748,
          "duration": 0.13392850000002454
        },
        {
          "name": "G5",
          "midi": 79,
          "time": 272.94628299999795,
          "velocity": 0.3937007874015748,
          "duration": 0.13392850000002454
        },
        {
          "name": "A#2",
          "midi": 46,
          "time": 272.94628299999795,
          "velocity": 0.3937007874015748,
          "duration": 0.13392850000002454
        },
        {
          "name": "F2",
          "midi": 41,
          "time": 273.080211499998,
          "velocity": 0.3937007874015748,
          "duration": 0.13392850000002454
        },
        {
          "name": "C5",
          "midi": 72,
          "time": 273.214139999998,
          "velocity": 0.3937007874015748,
          "duration": 0.8035710000001473
        },
        {
          "name": "E5",
          "midi": 76,
          "time": 273.214139999998,
          "velocity": 0.3937007874015748,
          "duration": 0.8035710000001473
        },
        {
          "name": "A5",
          "midi": 81,
          "time": 273.214139999998,
          "velocity": 0.3937007874015748,
          "duration": 0.8035710000001473
        },
        {
          "name": "C2",
          "midi": 36,
          "time": 273.214139999998,
          "velocity": 0.3937007874015748,
          "duration": 0.13392850000002454
        },
        {
          "name": "G2",
          "midi": 43,
          "time": 273.348068499998,
          "velocity": 0.3937007874015748,
          "duration": 0.13392850000002454
        },
        {
          "name": "C3",
          "midi": 48,
          "time": 273.48199699999805,
          "velocity": 0.3937007874015748,
          "duration": 0.13392850000002454
        },
        {
          "name": "G2",
          "midi": 43,
          "time": 273.61592549999807,
          "velocity": 0.3937007874015748,
          "duration": 0.13392850000002454
        },
        {
          "name": "C2",
          "midi": 36,
          "time": 273.7498539999981,
          "velocity": 0.3937007874015748,
          "duration": 0.13392850000002454
        },
        {
          "name": "G2",
          "midi": 43,
          "time": 273.8837824999981,
          "velocity": 0.3937007874015748,
          "duration": 0.13392850000002454
        },
        {
          "name": "G5",
          "midi": 79,
          "time": 274.01771099999814,
          "velocity": 0.3937007874015748,
          "duration": 0.2678570000000491
        },
        {
          "name": "C3",
          "midi": 48,
          "time": 274.01771099999814,
          "velocity": 0.3937007874015748,
          "duration": 0.13392850000002454
        },
        {
          "name": "G2",
          "midi": 43,
          "time": 274.15163949999817,
          "velocity": 0.3937007874015748,
          "duration": 0.13392850000002454
        },
        {
          "name": "C5",
          "midi": 72,
          "time": 274.2855679999982,
          "velocity": 0.3937007874015748,
          "duration": 0.2678570000000491
        },
        {
          "name": "F5",
          "midi": 77,
          "time": 274.2855679999982,
          "velocity": 0.3937007874015748,
          "duration": 0.2678570000000491
        },
        {
          "name": "C2",
          "midi": 36,
          "time": 274.2855679999982,
          "velocity": 0.3937007874015748,
          "duration": 0.13392850000002454
        },
        {
          "name": "G2",
          "midi": 43,
          "time": 274.4194964999982,
          "velocity": 0.3937007874015748,
          "duration": 0.13392850000002454
        },
        {
          "name": "G5",
          "midi": 79,
          "time": 274.55342499999824,
          "velocity": 0.3937007874015748,
          "duration": 0.13392850000002454
        },
        {
          "name": "C3",
          "midi": 48,
          "time": 274.55342499999824,
          "velocity": 0.3937007874015748,
          "duration": 0.13392850000002454
        },
        {
          "name": "C5",
          "midi": 72,
          "time": 274.68735349999827,
          "velocity": 0.3937007874015748,
          "duration": 0.4017855000000736
        },
        {
          "name": "E5",
          "midi": 76,
          "time": 274.68735349999827,
          "velocity": 0.3937007874015748,
          "duration": 0.4017855000000736
        },
        {
          "name": "G2",
          "midi": 43,
          "time": 274.68735349999827,
          "velocity": 0.3937007874015748,
          "duration": 0.13392850000002454
        },
        {
          "name": "C2",
          "midi": 36,
          "time": 274.8212819999983,
          "velocity": 0.3937007874015748,
          "duration": 0.13392850000002454
        },
        {
          "name": "G2",
          "midi": 43,
          "time": 274.9552104999983,
          "velocity": 0.3937007874015748,
          "duration": 0.13392850000002454
        },
        {
          "name": "C5",
          "midi": 72,
          "time": 275.08913899999834,
          "velocity": 0.3937007874015748,
          "duration": 0.13392850000002454
        },
        {
          "name": "C3",
          "midi": 48,
          "time": 275.08913899999834,
          "velocity": 0.3937007874015748,
          "duration": 0.13392850000002454
        },
        {
          "name": "G2",
          "midi": 43,
          "time": 275.22306749999836,
          "velocity": 0.3937007874015748,
          "duration": 0.13392850000002454
        },
        {
          "name": "F4",
          "midi": 65,
          "time": 275.3569959999984,
          "velocity": 0.3937007874015748,
          "duration": 1.6071420000002945
        },
        {
          "name": "A4",
          "midi": 69,
          "time": 275.3569959999984,
          "velocity": 0.3937007874015748,
          "duration": 1.6071420000002945
        },
        {
          "name": "D5",
          "midi": 74,
          "time": 275.3569959999984,
          "velocity": 0.3937007874015748,
          "duration": 1.6071420000002945
        },
        {
          "name": "D2",
          "midi": 38,
          "time": 275.3569959999984,
          "velocity": 0.3937007874015748,
          "duration": 0.13392850000002454
        },
        {
          "name": "A2",
          "midi": 45,
          "time": 275.4909244999984,
          "velocity": 0.3937007874015748,
          "duration": 0.13392850000002454
        },
        {
          "name": "D3",
          "midi": 50,
          "time": 275.62485299999844,
          "velocity": 0.3937007874015748,
          "duration": 0.13392850000002454
        },
        {
          "name": "A2",
          "midi": 45,
          "time": 275.75878149999846,
          "velocity": 0.3937007874015748,
          "duration": 0.13392850000002454
        },
        {
          "name": "D2",
          "midi": 38,
          "time": 275.8927099999985,
          "velocity": 0.3937007874015748,
          "duration": 0.13392850000002454
        },
        {
          "name": "A2",
          "midi": 45,
          "time": 276.0266384999985,
          "velocity": 0.3937007874015748,
          "duration": 0.13392850000002454
        },
        {
          "name": "D3",
          "midi": 50,
          "time": 276.16056699999854,
          "velocity": 0.3937007874015748,
          "duration": 0.13392850000002454
        },
        {
          "name": "A2",
          "midi": 45,
          "time": 276.29449549999856,
          "velocity": 0.3937007874015748,
          "duration": 0.13392850000002454
        },
        {
          "name": "D2",
          "midi": 38,
          "time": 276.4284239999986,
          "velocity": 0.3937007874015748,
          "duration": 0.13392850000002454
        },
        {
          "name": "A2",
          "midi": 45,
          "time": 276.5623524999986,
          "velocity": 0.3937007874015748,
          "duration": 0.13392850000002454
        },
        {
          "name": "D3",
          "midi": 50,
          "time": 276.69628099999863,
          "velocity": 0.3937007874015748,
          "duration": 0.13392850000002454
        },
        {
          "name": "A2",
          "midi": 45,
          "time": 276.83020949999866,
          "velocity": 0.3937007874015748,
          "duration": 0.13392850000002454
        },
        {
          "name": "D5",
          "midi": 74,
          "time": 276.9641379999987,
          "velocity": 0.3937007874015748,
          "duration": 0.2678570000000491
        },
        {
          "name": "F5",
          "midi": 77,
          "time": 276.9641379999987,
          "velocity": 0.3937007874015748,
          "duration": 0.2678570000000491
        },
        {
          "name": "D2",
          "midi": 38,
          "time": 276.9641379999987,
          "velocity": 0.3937007874015748,
          "duration": 0.13392850000002454
        },
        {
          "name": "A2",
          "midi": 45,
          "time": 277.0980664999987,
          "velocity": 0.3937007874015748,
          "duration": 0.13392850000002454
        },
        {
          "name": "D5",
          "midi": 74,
          "time": 277.23199499999873,
          "velocity": 0.3937007874015748,
          "duration": 0.13392850000002454
        },
        {
          "name": "G5",
          "midi": 79,
          "time": 277.23199499999873,
          "velocity": 0.3937007874015748,
          "duration": 0.13392850000002454
        },
        {
          "name": "D3",
          "midi": 50,
          "time": 277.23199499999873,
          "velocity": 0.3937007874015748,
          "duration": 0.13392850000002454
        },
        {
          "name": "A2",
          "midi": 45,
          "time": 277.36592349999876,
          "velocity": 0.3937007874015748,
          "duration": 0.13392850000002454
        },
        {
          "name": "C5",
          "midi": 72,
          "time": 277.4998519999988,
          "velocity": 0.3937007874015748,
          "duration": 0.8035710000001473
        },
        {
          "name": "E5",
          "midi": 76,
          "time": 277.4998519999988,
          "velocity": 0.3937007874015748,
          "duration": 0.8035710000001473
        },
        {
          "name": "A5",
          "midi": 81,
          "time": 277.4998519999988,
          "velocity": 0.3937007874015748,
          "duration": 0.8035710000001473
        },
        {
          "name": "C2",
          "midi": 36,
          "time": 277.4998519999988,
          "velocity": 0.3937007874015748,
          "duration": 0.13392850000002454
        },
        {
          "name": "G2",
          "midi": 43,
          "time": 277.6337804999988,
          "velocity": 0.3937007874015748,
          "duration": 0.13392850000002454
        },
        {
          "name": "C3",
          "midi": 48,
          "time": 277.76770899999883,
          "velocity": 0.3937007874015748,
          "duration": 0.13392850000002454
        },
        {
          "name": "G2",
          "midi": 43,
          "time": 277.90163749999886,
          "velocity": 0.3937007874015748,
          "duration": 0.13392850000002454
        },
        {
          "name": "C2",
          "midi": 36,
          "time": 278.0355659999989,
          "velocity": 0.3937007874015748,
          "duration": 0.13392850000002454
        },
        {
          "name": "G2",
          "midi": 43,
          "time": 278.1694944999989,
          "velocity": 0.3937007874015748,
          "duration": 0.13392850000002454
        },
        {
          "name": "G5",
          "midi": 79,
          "time": 278.30342299999893,
          "velocity": 0.3937007874015748,
          "duration": 0.2678570000000491
        },
        {
          "name": "C3",
          "midi": 48,
          "time": 278.30342299999893,
          "velocity": 0.3937007874015748,
          "duration": 0.13392850000002454
        },
        {
          "name": "G2",
          "midi": 43,
          "time": 278.43735149999895,
          "velocity": 0.3937007874015748,
          "duration": 0.13392850000002454
        },
        {
          "name": "C5",
          "midi": 72,
          "time": 278.571279999999,
          "velocity": 0.3937007874015748,
          "duration": 0.2678570000000491
        },
        {
          "name": "F5",
          "midi": 77,
          "time": 278.571279999999,
          "velocity": 0.3937007874015748,
          "duration": 0.2678570000000491
        },
        {
          "name": "C2",
          "midi": 36,
          "time": 278.571279999999,
          "velocity": 0.3937007874015748,
          "duration": 0.13392850000002454
        },
        {
          "name": "G2",
          "midi": 43,
          "time": 278.705208499999,
          "velocity": 0.3937007874015748,
          "duration": 0.13392850000002454
        },
        {
          "name": "G5",
          "midi": 79,
          "time": 278.839136999999,
          "velocity": 0.3937007874015748,
          "duration": 0.13392850000002454
        },
        {
          "name": "C3",
          "midi": 48,
          "time": 278.839136999999,
          "velocity": 0.3937007874015748,
          "duration": 0.13392850000002454
        },
        {
          "name": "C5",
          "midi": 72,
          "time": 278.97306549999905,
          "velocity": 0.3937007874015748,
          "duration": 0.4017855000000736
        },
        {
          "name": "E5",
          "midi": 76,
          "time": 278.97306549999905,
          "velocity": 0.3937007874015748,
          "duration": 0.4017855000000736
        },
        {
          "name": "G2",
          "midi": 43,
          "time": 278.97306549999905,
          "velocity": 0.3937007874015748,
          "duration": 0.13392850000002454
        },
        {
          "name": "C2",
          "midi": 36,
          "time": 279.1069939999991,
          "velocity": 0.3937007874015748,
          "duration": 0.13392850000002454
        },
        {
          "name": "G2",
          "midi": 43,
          "time": 279.2409224999991,
          "velocity": 0.3937007874015748,
          "duration": 0.13392850000002454
        },
        {
          "name": "C6",
          "midi": 84,
          "time": 279.3748509999991,
          "velocity": 0.3937007874015748,
          "duration": 0.13392850000002454
        },
        {
          "name": "C3",
          "midi": 48,
          "time": 279.3748509999991,
          "velocity": 0.3937007874015748,
          "duration": 0.13392850000002454
        },
        {
          "name": "G2",
          "midi": 43,
          "time": 279.50877949999915,
          "velocity": 0.3937007874015748,
          "duration": 0.13392850000002454
        },
        {
          "name": "A#4",
          "midi": 70,
          "time": 279.6427079999992,
          "velocity": 0.3937007874015748,
          "duration": 1.6071420000002945
        },
        {
          "name": "D5",
          "midi": 74,
          "time": 279.6427079999992,
          "velocity": 0.3937007874015748,
          "duration": 1.6071420000002945
        },
        {
          "name": "A5",
          "midi": 81,
          "time": 279.6427079999992,
          "velocity": 0.3937007874015748,
          "duration": 1.6071420000002945
        },
        {
          "name": "A#1",
          "midi": 34,
          "time": 279.6427079999992,
          "velocity": 0.3937007874015748,
          "duration": 0.13392850000002454
        },
        {
          "name": "F2",
          "midi": 41,
          "time": 279.7766364999992,
          "velocity": 0.3937007874015748,
          "duration": 0.13392850000002454
        },
        {
          "name": "A#2",
          "midi": 46,
          "time": 279.9105649999992,
          "velocity": 0.3937007874015748,
          "duration": 0.13392850000002454
        },
        {
          "name": "F2",
          "midi": 41,
          "time": 280.04449349999925,
          "velocity": 0.3937007874015748,
          "duration": 0.13392850000002454
        },
        {
          "name": "A#1",
          "midi": 34,
          "time": 280.1784219999993,
          "velocity": 0.3937007874015748,
          "duration": 0.13392850000002454
        },
        {
          "name": "F2",
          "midi": 41,
          "time": 280.3123504999993,
          "velocity": 0.3937007874015748,
          "duration": 0.13392850000002454
        },
        {
          "name": "A#2",
          "midi": 46,
          "time": 280.4462789999993,
          "velocity": 0.3937007874015748,
          "duration": 0.13392850000002454
        },
        {
          "name": "F2",
          "midi": 41,
          "time": 280.58020749999935,
          "velocity": 0.3937007874015748,
          "duration": 0.13392850000002454
        },
        {
          "name": "A#1",
          "midi": 34,
          "time": 280.71413599999937,
          "velocity": 0.3937007874015748,
          "duration": 0.13392850000002454
        },
        {
          "name": "F2",
          "midi": 41,
          "time": 280.8480644999994,
          "velocity": 0.3937007874015748,
          "duration": 0.13392850000002454
        },
        {
          "name": "A#2",
          "midi": 46,
          "time": 280.9819929999994,
          "velocity": 0.3937007874015748,
          "duration": 0.13392850000002454
        },
        {
          "name": "F2",
          "midi": 41,
          "time": 281.11592149999944,
          "velocity": 0.3937007874015748,
          "duration": 0.13392850000002454
        },
        {
          "name": "A#4",
          "midi": 70,
          "time": 281.24984999999947,
          "velocity": 0.3937007874015748,
          "duration": 0.2678570000000491
        },
        {
          "name": "F5",
          "midi": 77,
          "time": 281.24984999999947,
          "velocity": 0.3937007874015748,
          "duration": 0.2678570000000491
        },
        {
          "name": "A#1",
          "midi": 34,
          "time": 281.24984999999947,
          "velocity": 0.3937007874015748,
          "duration": 0.13392850000002454
        },
        {
          "name": "F2",
          "midi": 41,
          "time": 281.3837784999995,
          "velocity": 0.3937007874015748,
          "duration": 0.13392850000002454
        },
        {
          "name": "A#4",
          "midi": 70,
          "time": 281.5177069999995,
          "velocity": 0.3937007874015748,
          "duration": 0.13392850000002454
        },
        {
          "name": "G5",
          "midi": 79,
          "time": 281.5177069999995,
          "velocity": 0.3937007874015748,
          "duration": 0.13392850000002454
        },
        {
          "name": "A#2",
          "midi": 46,
          "time": 281.5177069999995,
          "velocity": 0.3937007874015748,
          "duration": 0.13392850000002454
        },
        {
          "name": "F2",
          "midi": 41,
          "time": 281.65163549999954,
          "velocity": 0.3937007874015748,
          "duration": 0.13392850000002454
        },
        {
          "name": "C5",
          "midi": 72,
          "time": 281.78556399999957,
          "velocity": 0.3937007874015748,
          "duration": 0.8035710000001473
        },
        {
          "name": "E5",
          "midi": 76,
          "time": 281.78556399999957,
          "velocity": 0.3937007874015748,
          "duration": 0.8035710000001473
        },
        {
          "name": "A5",
          "midi": 81,
          "time": 281.78556399999957,
          "velocity": 0.3937007874015748,
          "duration": 0.8035710000001473
        },
        {
          "name": "C2",
          "midi": 36,
          "time": 281.78556399999957,
          "velocity": 0.3937007874015748,
          "duration": 0.13392850000002454
        },
        {
          "name": "G2",
          "midi": 43,
          "time": 281.9194924999996,
          "velocity": 0.3937007874015748,
          "duration": 0.13392850000002454
        },
        {
          "name": "C3",
          "midi": 48,
          "time": 282.0534209999996,
          "velocity": 0.3937007874015748,
          "duration": 0.13392850000002454
        },
        {
          "name": "G2",
          "midi": 43,
          "time": 282.18734949999964,
          "velocity": 0.3937007874015748,
          "duration": 0.13392850000002454
        },
        {
          "name": "C2",
          "midi": 36,
          "time": 282.32127799999967,
          "velocity": 0.3937007874015748,
          "duration": 0.13392850000002454
        },
        {
          "name": "G2",
          "midi": 43,
          "time": 282.4552064999997,
          "velocity": 0.3937007874015748,
          "duration": 0.13392850000002454
        },
        {
          "name": "G5",
          "midi": 79,
          "time": 282.5891349999997,
          "velocity": 0.3937007874015748,
          "duration": 0.2678570000000491
        },
        {
          "name": "C3",
          "midi": 48,
          "time": 282.5891349999997,
          "velocity": 0.3937007874015748,
          "duration": 0.13392850000002454
        },
        {
          "name": "G2",
          "midi": 43,
          "time": 282.72306349999974,
          "velocity": 0.3937007874015748,
          "duration": 0.13392850000002454
        },
        {
          "name": "C5",
          "midi": 72,
          "time": 282.85699199999976,
          "velocity": 0.3937007874015748,
          "duration": 0.2678570000000491
        },
        {
          "name": "F5",
          "midi": 77,
          "time": 282.85699199999976,
          "velocity": 0.3937007874015748,
          "duration": 0.2678570000000491
        },
        {
          "name": "C2",
          "midi": 36,
          "time": 282.85699199999976,
          "velocity": 0.3937007874015748,
          "duration": 0.13392850000002454
        },
        {
          "name": "G2",
          "midi": 43,
          "time": 282.9909204999998,
          "velocity": 0.3937007874015748,
          "duration": 0.13392850000002454
        },
        {
          "name": "G5",
          "midi": 79,
          "time": 283.1248489999998,
          "velocity": 0.3937007874015748,
          "duration": 0.13392850000002454
        },
        {
          "name": "C3",
          "midi": 48,
          "time": 283.1248489999998,
          "velocity": 0.3937007874015748,
          "duration": 0.13392850000002454
        },
        {
          "name": "C5",
          "midi": 72,
          "time": 283.25877749999984,
          "velocity": 0.3937007874015748,
          "duration": 0.4017855000000736
        },
        {
          "name": "E5",
          "midi": 76,
          "time": 283.25877749999984,
          "velocity": 0.3937007874015748,
          "duration": 0.4017855000000736
        },
        {
          "name": "G2",
          "midi": 43,
          "time": 283.25877749999984,
          "velocity": 0.3937007874015748,
          "duration": 0.13392850000002454
        },
        {
          "name": "C2",
          "midi": 36,
          "time": 283.39270599999986,
          "velocity": 0.3937007874015748,
          "duration": 0.13392850000002454
        },
        {
          "name": "G2",
          "midi": 43,
          "time": 283.5266344999999,
          "velocity": 0.3937007874015748,
          "duration": 0.13392850000002454
        },
        {
          "name": "C5",
          "midi": 72,
          "time": 283.6605629999999,
          "velocity": 0.3937007874015748,
          "duration": 0.13392850000002454
        },
        {
          "name": "C3",
          "midi": 48,
          "time": 283.6605629999999,
          "velocity": 0.3937007874015748,
          "duration": 0.13392850000002454
        },
        {
          "name": "G2",
          "midi": 43,
          "time": 283.79449149999994,
          "velocity": 0.3937007874015748,
          "duration": 0.13392850000002454
        },
        {
          "name": "F4",
          "midi": 65,
          "time": 283.92841999999996,
          "velocity": 0.3937007874015748,
          "duration": 2.1428560000001653
        },
        {
          "name": "A4",
          "midi": 69,
          "time": 283.92841999999996,
          "velocity": 0.3937007874015748,
          "duration": 2.1428560000001653
        },
        {
          "name": "D5",
          "midi": 74,
          "time": 283.92841999999996,
          "velocity": 0.3937007874015748,
          "duration": 2.1428560000001653
        },
        {
          "name": "D2",
          "midi": 38,
          "time": 283.92841999999996,
          "velocity": 0.3937007874015748,
          "duration": 0.13392850000002454
        },
        {
          "name": "A2",
          "midi": 45,
          "time": 284.0623485,
          "velocity": 0.3937007874015748,
          "duration": 0.13392850000002454
        },
        {
          "name": "D3",
          "midi": 50,
          "time": 284.196277,
          "velocity": 0.3937007874015748,
          "duration": 0.13392850000002454
        },
        {
          "name": "A2",
          "midi": 45,
          "time": 284.33020550000003,
          "velocity": 0.3937007874015748,
          "duration": 0.13392850000002454
        },
        {
          "name": "D2",
          "midi": 38,
          "time": 284.46413400000006,
          "velocity": 0.3937007874015748,
          "duration": 0.13392850000002454
        },
        {
          "name": "A2",
          "midi": 45,
          "time": 284.5980625000001,
          "velocity": 0.3937007874015748,
          "duration": 0.13392850000002454
        },
        {
          "name": "D3",
          "midi": 50,
          "time": 284.7319910000001,
          "velocity": 0.3937007874015748,
          "duration": 0.13392850000002454
        },
        {
          "name": "A2",
          "midi": 45,
          "time": 284.86591950000013,
          "velocity": 0.3937007874015748,
          "duration": 0.13392850000002454
        },
        {
          "name": "D2",
          "midi": 38,
          "time": 284.99984800000016,
          "velocity": 0.3937007874015748,
          "duration": 0.26785699999999224
        },
        {
          "name": "A2",
          "midi": 45,
          "time": 285.26770500000015,
          "velocity": 0.3937007874015748,
          "duration": 0.26785699999999224
        },
        {
          "name": "D3",
          "midi": 50,
          "time": 285.53556200000014,
          "velocity": 0.3937007874015748,
          "duration": 0.26785699999999224
        },
        {
          "name": "F3",
          "midi": 53,
          "time": 285.80341900000013,
          "velocity": 0.3937007874015748,
          "duration": 0.26785699999999224
        },
        {
          "name": "C5",
          "midi": 72,
          "time": 286.0712760000001,
          "velocity": 0.3937007874015748,
          "duration": 0.13392850000002454
        },
        {
          "name": "C3",
          "midi": 48,
          "time": 286.0712760000001,
          "velocity": 0.3937007874015748,
          "duration": 1.0714280000000826
        },
        {
          "name": "E3",
          "midi": 52,
          "time": 286.0712760000001,
          "velocity": 0.3937007874015748,
          "duration": 1.0714280000000826
        },
        {
          "name": "G3",
          "midi": 55,
          "time": 286.0712760000001,
          "velocity": 0.3937007874015748,
          "duration": 1.0714280000000826
        },
        {
          "name": "A4",
          "midi": 69,
          "time": 286.20520450000015,
          "velocity": 0.3937007874015748,
          "duration": 0.13392850000002454
        },
        {
          "name": "C5",
          "midi": 72,
          "time": 286.3391330000002,
          "velocity": 0.3937007874015748,
          "duration": 0.13392850000002454
        },
        {
          "name": "A4",
          "midi": 69,
          "time": 286.4730615000002,
          "velocity": 0.3937007874015748,
          "duration": 0.13392850000002454
        },
        {
          "name": "C5",
          "midi": 72,
          "time": 286.6069900000002,
          "velocity": 0.3937007874015748,
          "duration": 0.26785699999999224
        },
        {
          "name": "F5",
          "midi": 77,
          "time": 286.8748470000002,
          "velocity": 0.3937007874015748,
          "duration": 0.26785699999999224
        },
        {
          "name": "E5",
          "midi": 76,
          "time": 287.1427040000002,
          "velocity": 0.3937007874015748,
          "duration": 0.26785699999999224
        },
        {
          "name": "C#3",
          "midi": 49,
          "time": 287.1427040000002,
          "velocity": 0.3937007874015748,
          "duration": 1.0714280000000258
        },
        {
          "name": "E3",
          "midi": 52,
          "time": 287.1427040000002,
          "velocity": 0.3937007874015748,
          "duration": 1.0714280000000258
        },
        {
          "name": "A3",
          "midi": 57,
          "time": 287.1427040000002,
          "velocity": 0.3937007874015748,
          "duration": 1.0714280000000258
        },
        {
          "name": "D5",
          "midi": 74,
          "time": 287.4105610000002,
          "velocity": 0.3937007874015748,
          "duration": 0.13392850000002454
        },
        {
          "name": "C#5",
          "midi": 73,
          "time": 287.5444895000002,
          "velocity": 0.3937007874015748,
          "duration": 0.13392850000002454
        },
        {
          "name": "E5",
          "midi": 76,
          "time": 287.94627500000024,
          "velocity": 0.3937007874015748,
          "duration": 0.26785699999999224
        },
        {
          "name": "F6",
          "midi": 89,
          "time": 288.21413200000023,
          "velocity": 0.3937007874015748,
          "duration": 0.13392850000002454
        },
        {
          "name": "D3",
          "midi": 50,
          "time": 288.21413200000023,
          "velocity": 0.3937007874015748,
          "duration": 1.0714280000000826
        },
        {
          "name": "E6",
          "midi": 88,
          "time": 288.34806050000026,
          "velocity": 0.3937007874015748,
          "duration": 0.13392850000002454
        },
        {
          "name": "D6",
          "midi": 86,
          "time": 288.4819890000003,
          "velocity": 0.3937007874015748,
          "duration": 0.13392850000002454
        },
        {
          "name": "C6",
          "midi": 84,
          "time": 288.6159175000003,
          "velocity": 0.3937007874015748,
          "duration": 0.13392850000002454
        },
        {
          "name": "D6",
          "midi": 86,
          "time": 288.74984600000033,
          "velocity": 0.3937007874015748,
          "duration": 0.26785699999999224
        },
        {
          "name": "A5",
          "midi": 81,
          "time": 289.0177030000003,
          "velocity": 0.3937007874015748,
          "duration": 0.26785699999999224
        },
        {
          "name": "B5",
          "midi": 83,
          "time": 289.2855600000003,
          "velocity": 0.3937007874015748,
          "duration": 0.4017855000000168
        },
        {
          "name": "G2",
          "midi": 43,
          "time": 289.2855600000003,
          "velocity": 0.3937007874015748,
          "duration": 1.0714280000000826
        },
        {
          "name": "D5",
          "midi": 74,
          "time": 290.08913100000035,
          "velocity": 0.3937007874015748,
          "duration": 0.13392850000002454
        },
        {
          "name": "E5",
          "midi": 76,
          "time": 290.2230595000004,
          "velocity": 0.3937007874015748,
          "duration": 0.13392850000002454
        },
        {
          "name": "F5",
          "midi": 77,
          "time": 290.3569880000004,
          "velocity": 0.3937007874015748,
          "duration": 0.4017855000000168
        },
        {
          "name": "A#2",
          "midi": 46,
          "time": 290.3569880000004,
          "velocity": 0.3937007874015748,
          "duration": 0.5357140000000413
        },
        {
          "name": "G5",
          "midi": 79,
          "time": 290.7587735000004,
          "velocity": 0.3937007874015748,
          "duration": 0.2678570000000491
        },
        {
          "name": "C3",
          "midi": 48,
          "time": 290.89270200000044,
          "velocity": 0.3937007874015748,
          "duration": 0.5357140000000413
        },
        {
          "name": "D5",
          "midi": 74,
          "time": 291.02663050000046,
          "velocity": 0.3937007874015748,
          "duration": 0.13392850000002454
        },
        {
          "name": "C6",
          "midi": 84,
          "time": 291.1605590000005,
          "velocity": 0.3937007874015748,
          "duration": 0.26785699999999224
        },
        {
          "name": "A5",
          "midi": 81,
          "time": 291.4284160000005,
          "velocity": 0.3937007874015748,
          "duration": 0.5357139999999845
        },
        {
          "name": "D3",
          "midi": 50,
          "time": 291.4284160000005,
          "velocity": 0.3937007874015748,
          "duration": 1.071427999999969
        },
        {
          "name": "F6",
          "midi": 89,
          "time": 292.49984400000045,
          "velocity": 0.3937007874015748,
          "duration": 0.13392850000002454
        },
        {
          "name": "D3",
          "midi": 50,
          "time": 292.49984400000045,
          "velocity": 0.3937007874015748,
          "duration": 1.0714280000000826
        },
        {
          "name": "E6",
          "midi": 88,
          "time": 292.6337725000005,
          "velocity": 0.3937007874015748,
          "duration": 0.13392850000002454
        },
        {
          "name": "D6",
          "midi": 86,
          "time": 292.7677010000005,
          "velocity": 0.3937007874015748,
          "duration": 0.13392850000002454
        },
        {
          "name": "C6",
          "midi": 84,
          "time": 292.9016295000005,
          "velocity": 0.3937007874015748,
          "duration": 0.13392850000002454
        },
        {
          "name": "D6",
          "midi": 86,
          "time": 293.03555800000055,
          "velocity": 0.3937007874015748,
          "duration": 0.26785699999999224
        },
        {
          "name": "A5",
          "midi": 81,
          "time": 293.30341500000054,
          "velocity": 0.3937007874015748,
          "duration": 0.26785699999999224
        },
        {
          "name": "B5",
          "midi": 83,
          "time": 293.57127200000053,
          "velocity": 0.3937007874015748,
          "duration": 0.4017855000000168
        },
        {
          "name": "G2",
          "midi": 43,
          "time": 293.57127200000053,
          "velocity": 0.3937007874015748,
          "duration": 1.0714280000000826
        },
        {
          "name": "D5",
          "midi": 74,
          "time": 294.37484300000057,
          "velocity": 0.3937007874015748,
          "duration": 0.13392850000002454
        },
        {
          "name": "E5",
          "midi": 76,
          "time": 294.5087715000006,
          "velocity": 0.3937007874015748,
          "duration": 0.13392850000002454
        },
        {
          "name": "F5",
          "midi": 77,
          "time": 294.6427000000006,
          "velocity": 0.3937007874015748,
          "duration": 0.4017855000000168
        },
        {
          "name": "A#2",
          "midi": 46,
          "time": 294.6427000000006,
          "velocity": 0.3937007874015748,
          "duration": 0.5357140000000413
        },
        {
          "name": "E5",
          "midi": 76,
          "time": 295.04448550000063,
          "velocity": 0.3937007874015748,
          "duration": 0.2678570000000491
        },
        {
          "name": "A2",
          "midi": 45,
          "time": 295.17841400000066,
          "velocity": 0.3937007874015748,
          "duration": 0.5357140000000413
        },
        {
          "name": "C5",
          "midi": 72,
          "time": 295.3123425000007,
          "velocity": 0.3937007874015748,
          "duration": 0.13392850000002454
        },
        {
          "name": "E5",
          "midi": 76,
          "time": 295.4462710000007,
          "velocity": 0.3937007874015748,
          "duration": 0.26785699999999224
        },
        {
          "name": "D5",
          "midi": 74,
          "time": 295.7141280000007,
          "velocity": 0.3937007874015748,
          "duration": 1.0714280000000258
        },
        {
          "name": "D2",
          "midi": 38,
          "time": 295.7141280000007,
          "velocity": 0.3937007874015748,
          "duration": 1.0714280000000258
        },
        {
          "name": "D6",
          "midi": 86,
          "time": 296.7855560000007,
          "velocity": 0.3937007874015748,
          "duration": 0.13392850000002454
        },
        {
          "name": "F6",
          "midi": 89,
          "time": 296.7855560000007,
          "velocity": 0.3937007874015748,
          "duration": 0.13392850000002454
        },
        {
          "name": "D2",
          "midi": 38,
          "time": 296.7855560000007,
          "velocity": 0.3937007874015748,
          "duration": 0.2678570000000491
        },
        {
          "name": "E6",
          "midi": 88,
          "time": 296.91948450000075,
          "velocity": 0.3937007874015748,
          "duration": 0.13392850000002454
        },
        {
          "name": "D6",
          "midi": 86,
          "time": 297.0534130000008,
          "velocity": 0.3937007874015748,
          "duration": 0.13392850000002454
        },
        {
          "name": "A2",
          "midi": 45,
          "time": 297.0534130000008,
          "velocity": 0.3937007874015748,
          "duration": 0.2678570000000491
        },
        {
          "name": "C6",
          "midi": 84,
          "time": 297.1873415000008,
          "velocity": 0.3937007874015748,
          "duration": 0.13392850000002454
        },
        {
          "name": "D6",
          "midi": 86,
          "time": 297.3212700000008,
          "velocity": 0.3937007874015748,
          "duration": 0.26785699999999224
        },
        {
          "name": "D3",
          "midi": 50,
          "time": 297.3212700000008,
          "velocity": 0.3937007874015748,
          "duration": 0.26785699999999224
        },
        {
          "name": "A5",
          "midi": 81,
          "time": 297.5891270000008,
          "velocity": 0.3937007874015748,
          "duration": 0.26785699999999224
        },
        {
          "name": "A3",
          "midi": 57,
          "time": 297.5891270000008,
          "velocity": 0.3937007874015748,
          "duration": 0.26785699999999224
        },
        {
          "name": "G5",
          "midi": 79,
          "time": 297.8569840000008,
          "velocity": 0.3937007874015748,
          "duration": 0.4017855000000168
        },
        {
          "name": "B5",
          "midi": 83,
          "time": 297.8569840000008,
          "velocity": 0.3937007874015748,
          "duration": 0.4017855000000168
        },
        {
          "name": "G2",
          "midi": 43,
          "time": 297.8569840000008,
          "velocity": 0.3937007874015748,
          "duration": 0.26785699999999224
        },
        {
          "name": "B2",
          "midi": 47,
          "time": 298.1248410000008,
          "velocity": 0.3937007874015748,
          "duration": 0.2678570000000491
        },
        {
          "name": "G5",
          "midi": 79,
          "time": 298.2587695000008,
          "velocity": 0.3937007874015748,
          "duration": 0.4017855000000168
        },
        {
          "name": "D3",
          "midi": 50,
          "time": 298.39269800000085,
          "velocity": 0.3937007874015748,
          "duration": 0.26785699999999224
        },
        {
          "name": "D5",
          "midi": 74,
          "time": 298.66055500000084,
          "velocity": 0.3937007874015748,
          "duration": 0.13392850000002454
        },
        {
          "name": "G3",
          "midi": 55,
          "time": 298.66055500000084,
          "velocity": 0.3937007874015748,
          "duration": 0.2678570000000491
        },
        {
          "name": "E5",
          "midi": 76,
          "time": 298.79448350000087,
          "velocity": 0.3937007874015748,
          "duration": 0.13392850000002454
        },
        {
          "name": "D5",
          "midi": 74,
          "time": 298.9284120000009,
          "velocity": 0.3937007874015748,
          "duration": 0.4017855000000168
        },
        {
          "name": "F5",
          "midi": 77,
          "time": 298.9284120000009,
          "velocity": 0.3937007874015748,
          "duration": 0.4017855000000168
        },
        {
          "name": "A#2",
          "midi": 46,
          "time": 298.9284120000009,
          "velocity": 0.3937007874015748,
          "duration": 0.26785699999999224
        },
        {
          "name": "C3",
          "midi": 48,
          "time": 299.1962690000009,
          "velocity": 0.3937007874015748,
          "duration": 0.2678570000000491
        },
        {
          "name": "G5",
          "midi": 79,
          "time": 299.3301975000009,
          "velocity": 0.3937007874015748,
          "duration": 0.2678570000000491
        },
        {
          "name": "A2",
          "midi": 45,
          "time": 299.46412600000093,
          "velocity": 0.3937007874015748,
          "duration": 0.2678570000000491
        },
        {
          "name": "D5",
          "midi": 74,
          "time": 299.59805450000096,
          "velocity": 0.3937007874015748,
          "duration": 0.13392850000002454
        },
        {
          "name": "C6",
          "midi": 84,
          "time": 299.731983000001,
          "velocity": 0.3937007874015748,
          "duration": 0.26785699999999224
        },
        {
          "name": "E3",
          "midi": 52,
          "time": 299.731983000001,
          "velocity": 0.3937007874015748,
          "duration": 0.26785699999999224
        },
        {
          "name": "D5",
          "midi": 74,
          "time": 299.999840000001,
          "velocity": 0.3937007874015748,
          "duration": 1.071427999999969
        },
        {
          "name": "F5",
          "midi": 77,
          "time": 299.999840000001,
          "velocity": 0.3937007874015748,
          "duration": 1.071427999999969
        },
        {
          "name": "A5",
          "midi": 81,
          "time": 299.999840000001,
          "velocity": 0.3937007874015748,
          "duration": 1.071427999999969
        },
        {
          "name": "D3",
          "midi": 50,
          "time": 299.999840000001,
          "velocity": 0.3937007874015748,
          "duration": 0.26785699999999224
        },
        {
          "name": "A2",
          "midi": 45,
          "time": 300.26769700000096,
          "velocity": 0.3937007874015748,
          "duration": 0.26785699999999224
        },
        {
          "name": "F2",
          "midi": 41,
          "time": 300.53555400000096,
          "velocity": 0.3937007874015748,
          "duration": 0.26785699999999224
        },
        {
          "name": "D2",
          "midi": 38,
          "time": 300.80341100000095,
          "velocity": 0.3937007874015748,
          "duration": 0.26785699999999224
        },
        {
          "name": "D6",
          "midi": 86,
          "time": 301.07126800000094,
          "velocity": 0.3937007874015748,
          "duration": 0.13392850000002454
        },
        {
          "name": "F6",
          "midi": 89,
          "time": 301.07126800000094,
          "velocity": 0.3937007874015748,
          "duration": 0.13392850000002454
        },
        {
          "name": "D2",
          "midi": 38,
          "time": 301.07126800000094,
          "velocity": 0.3937007874015748,
          "duration": 0.2678570000000491
        },
        {
          "name": "E6",
          "midi": 88,
          "time": 301.20519650000097,
          "velocity": 0.3937007874015748,
          "duration": 0.13392850000002454
        },
        {
          "name": "D6",
          "midi": 86,
          "time": 301.339125000001,
          "velocity": 0.3937007874015748,
          "duration": 0.13392850000002454
        },
        {
          "name": "A2",
          "midi": 45,
          "time": 301.339125000001,
          "velocity": 0.3937007874015748,
          "duration": 0.2678570000000491
        },
        {
          "name": "C6",
          "midi": 84,
          "time": 301.473053500001,
          "velocity": 0.3937007874015748,
          "duration": 0.13392850000002454
        },
        {
          "name": "D6",
          "midi": 86,
          "time": 301.60698200000104,
          "velocity": 0.3937007874015748,
          "duration": 0.26785699999999224
        },
        {
          "name": "D3",
          "midi": 50,
          "time": 301.60698200000104,
          "velocity": 0.3937007874015748,
          "duration": 0.26785699999999224
        },
        {
          "name": "A5",
          "midi": 81,
          "time": 301.87483900000103,
          "velocity": 0.3937007874015748,
          "duration": 0.26785699999999224
        },
        {
          "name": "A3",
          "midi": 57,
          "time": 301.87483900000103,
          "velocity": 0.3937007874015748,
          "duration": 0.26785699999999224
        },
        {
          "name": "G5",
          "midi": 79,
          "time": 302.142696000001,
          "velocity": 0.3937007874015748,
          "duration": 0.4017855000000168
        },
        {
          "name": "B5",
          "midi": 83,
          "time": 302.142696000001,
          "velocity": 0.3937007874015748,
          "duration": 0.4017855000000168
        },
        {
          "name": "G2",
          "midi": 43,
          "time": 302.142696000001,
          "velocity": 0.3937007874015748,
          "duration": 0.26785699999999224
        },
        {
          "name": "B2",
          "midi": 47,
          "time": 302.410553000001,
          "velocity": 0.3937007874015748,
          "duration": 0.2678570000000491
        },
        {
          "name": "G5",
          "midi": 79,
          "time": 302.54448150000104,
          "velocity": 0.3937007874015748,
          "duration": 0.4017855000000168
        },
        {
          "name": "D3",
          "midi": 50,
          "time": 302.67841000000107,
          "velocity": 0.3937007874015748,
          "duration": 0.26785699999999224
        },
        {
          "name": "D5",
          "midi": 74,
          "time": 302.94626700000106,
          "velocity": 0.3937007874015748,
          "duration": 0.13392850000002454
        },
        {
          "name": "G3",
          "midi": 55,
          "time": 302.94626700000106,
          "velocity": 0.3937007874015748,
          "duration": 0.2678570000000491
        },
        {
          "name": "E5",
          "midi": 76,
          "time": 303.0801955000011,
          "velocity": 0.3937007874015748,
          "duration": 0.13392850000002454
        },
        {
          "name": "D5",
          "midi": 74,
          "time": 303.2141240000011,
          "velocity": 0.3937007874015748,
          "duration": 0.4017855000000168
        },
        {
          "name": "F5",
          "midi": 77,
          "time": 303.2141240000011,
          "velocity": 0.3937007874015748,
          "duration": 0.4017855000000168
        },
        {
          "name": "A#2",
          "midi": 46,
          "time": 303.2141240000011,
          "velocity": 0.3937007874015748,
          "duration": 0.26785699999999224
        },
        {
          "name": "C3",
          "midi": 48,
          "time": 303.4819810000011,
          "velocity": 0.3937007874015748,
          "duration": 0.2678570000000491
        },
        {
          "name": "E5",
          "midi": 76,
          "time": 303.6159095000011,
          "velocity": 0.3937007874015748,
          "duration": 0.2678570000000491
        },
        {
          "name": "A2",
          "midi": 45,
          "time": 303.74983800000115,
          "velocity": 0.3937007874015748,
          "duration": 0.2678570000000491
        },
        {
          "name": "C5",
          "midi": 72,
          "time": 303.8837665000012,
          "velocity": 0.3937007874015748,
          "duration": 0.13392850000002454
        },
        {
          "name": "E5",
          "midi": 76,
          "time": 304.0176950000012,
          "velocity": 0.3937007874015748,
          "duration": 0.26785699999999224
        },
        {
          "name": "E3",
          "midi": 52,
          "time": 304.0176950000012,
          "velocity": 0.3937007874015748,
          "duration": 0.26785699999999224
        },
        {
          "name": "F4",
          "midi": 65,
          "time": 304.2855520000012,
          "velocity": 0.3937007874015748,
          "duration": 1.071427999999969
        },
        {
          "name": "A4",
          "midi": 69,
          "time": 304.2855520000012,
          "velocity": 0.3937007874015748,
          "duration": 1.071427999999969
        },
        {
          "name": "D5",
          "midi": 74,
          "time": 304.2855520000012,
          "velocity": 0.3937007874015748,
          "duration": 1.071427999999969
        },
        {
          "name": "D3",
          "midi": 50,
          "time": 304.2855520000012,
          "velocity": 0.3937007874015748,
          "duration": 0.26785699999999224
        },
        {
          "name": "A2",
          "midi": 45,
          "time": 304.5534090000012,
          "velocity": 0.3937007874015748,
          "duration": 0.26785699999999224
        },
        {
          "name": "F2",
          "midi": 41,
          "time": 304.8212660000012,
          "velocity": 0.3937007874015748,
          "duration": 0.26785699999999224
        },
        {
          "name": "D3",
          "midi": 50,
          "time": 305.08912300000117,
          "velocity": 0.3937007874015748,
          "duration": 0.26785699999999224
        },
        {
          "name": "D#5",
          "midi": 75,
          "time": 305.35698000000116,
          "velocity": 0.3937007874015748,
          "duration": 0.13392850000002454
        },
        {
          "name": "G5",
          "midi": 79,
          "time": 305.35698000000116,
          "velocity": 0.3937007874015748,
          "duration": 0.13392850000002454
        },
        {
          "name": "A#2",
          "midi": 46,
          "time": 305.35698000000116,
          "velocity": 0.3937007874015748,
          "duration": 0.2678570000000491
        },
        {
          "name": "F5",
          "midi": 77,
          "time": 305.4909085000012,
          "velocity": 0.3937007874015748,
          "duration": 0.13392850000002454
        },
        {
          "name": "D#5",
          "midi": 75,
          "time": 305.6248370000012,
          "velocity": 0.3937007874015748,
          "duration": 0.13392850000002454
        },
        {
          "name": "A#2",
          "midi": 46,
          "time": 305.6248370000012,
          "velocity": 0.3937007874015748,
          "duration": 0.2678570000000491
        },
        {
          "name": "D5",
          "midi": 74,
          "time": 305.75876550000123,
          "velocity": 0.3937007874015748,
          "duration": 0.13392850000002454
        },
        {
          "name": "C5",
          "midi": 72,
          "time": 305.89269400000126,
          "velocity": 0.3937007874015748,
          "duration": 0.13392850000002454
        },
        {
          "name": "D#5",
          "midi": 75,
          "time": 305.89269400000126,
          "velocity": 0.3937007874015748,
          "duration": 0.13392850000002454
        },
        {
          "name": "G3",
          "midi": 55,
          "time": 305.89269400000126,
          "velocity": 0.3937007874015748,
          "duration": 0.2678570000000491
        },
        {
          "name": "D5",
          "midi": 74,
          "time": 306.0266225000013,
          "velocity": 0.3937007874015748,
          "duration": 0.13392850000002454
        },
        {
          "name": "C5",
          "midi": 72,
          "time": 306.1605510000013,
          "velocity": 0.3937007874015748,
          "duration": 0.13392850000002454
        },
        {
          "name": "A#3",
          "midi": 58,
          "time": 306.1605510000013,
          "velocity": 0.3937007874015748,
          "duration": 0.2678570000000491
        },
        {
          "name": "D#5",
          "midi": 75,
          "time": 306.29447950000133,
          "velocity": 0.3937007874015748,
          "duration": 0.13392850000002454
        },
        {
          "name": "A4",
          "midi": 69,
          "time": 306.42840800000135,
          "velocity": 0.3937007874015748,
          "duration": 0.4017855000000168
        },
        {
          "name": "D5",
          "midi": 74,
          "time": 306.42840800000135,
          "velocity": 0.3937007874015748,
          "duration": 0.4017855000000168
        },
        {
          "name": "D3",
          "midi": 50,
          "time": 306.42840800000135,
          "velocity": 0.3937007874015748,
          "duration": 0.26785699999999224
        },
        {
          "name": "A3",
          "midi": 57,
          "time": 306.69626500000135,
          "velocity": 0.3937007874015748,
          "duration": 0.2678570000000491
        },
        {
          "name": "A4",
          "midi": 69,
          "time": 306.83019350000137,
          "velocity": 0.3937007874015748,
          "duration": 0.4017855000000168
        },
        {
          "name": "D4",
          "midi": 62,
          "time": 306.9641220000014,
          "velocity": 0.3937007874015748,
          "duration": 0.26785699999999224
        },
        {
          "name": "A4",
          "midi": 69,
          "time": 307.2319790000014,
          "velocity": 0.3937007874015748,
          "duration": 0.13392850000002454
        },
        {
          "name": "D3",
          "midi": 50,
          "time": 307.2319790000014,
          "velocity": 0.3937007874015748,
          "duration": 0.2678570000000491
        },
        {
          "name": "D5",
          "midi": 74,
          "time": 307.3659075000014,
          "velocity": 0.3937007874015748,
          "duration": 0.13392850000002454
        },
        {
          "name": "D#5",
          "midi": 75,
          "time": 307.49983600000144,
          "velocity": 0.3937007874015748,
          "duration": 0.13392850000002454
        },
        {
          "name": "G5",
          "midi": 79,
          "time": 307.49983600000144,
          "velocity": 0.3937007874015748,
          "duration": 0.13392850000002454
        },
        {
          "name": "A#2",
          "midi": 46,
          "time": 307.49983600000144,
          "velocity": 0.3937007874015748,
          "duration": 0.2678570000000491
        },
        {
          "name": "F5",
          "midi": 77,
          "time": 307.63376450000146,
          "velocity": 0.3937007874015748,
          "duration": 0.13392850000002454
        },
        {
          "name": "D#5",
          "midi": 75,
          "time": 307.7676930000015,
          "velocity": 0.3937007874015748,
          "duration": 0.13392850000002454
        },
        {
          "name": "A#2",
          "midi": 46,
          "time": 307.7676930000015,
          "velocity": 0.3937007874015748,
          "duration": 0.2678570000000491
        },
        {
          "name": "D5",
          "midi": 74,
          "time": 307.9016215000015,
          "velocity": 0.3937007874015748,
          "duration": 0.13392850000002454
        },
        {
          "name": "A4",
          "midi": 69,
          "time": 308.03555000000154,
          "velocity": 0.3937007874015748,
          "duration": 0.13392850000002454
        },
        {
          "name": "C5",
          "midi": 72,
          "time": 308.03555000000154,
          "velocity": 0.3937007874015748,
          "duration": 0.13392850000002454
        },
        {
          "name": "G3",
          "midi": 55,
          "time": 308.03555000000154,
          "velocity": 0.3937007874015748,
          "duration": 0.2678570000000491
        },
        {
          "name": "A#5",
          "midi": 82,
          "time": 308.16947850000156,
          "velocity": 0.3937007874015748,
          "duration": 0.13392850000002454
        },
        {
          "name": "A5",
          "midi": 81,
          "time": 308.3034070000016,
          "velocity": 0.3937007874015748,
          "duration": 0.13392850000002454
        },
        {
          "name": "A#3",
          "midi": 58,
          "time": 308.3034070000016,
          "velocity": 0.3937007874015748,
          "duration": 0.2678570000000491
        },
        {
          "name": "G5",
          "midi": 79,
          "time": 308.4373355000016,
          "velocity": 0.3937007874015748,
          "duration": 0.13392850000002454
        },
        {
          "name": "D5",
          "midi": 74,
          "time": 308.57126400000163,
          "velocity": 0.3937007874015748,
          "duration": 0.26785699999999224
        },
        {
          "name": "F5",
          "midi": 77,
          "time": 308.57126400000163,
          "velocity": 0.3937007874015748,
          "duration": 0.26785699999999224
        },
        {
          "name": "D2",
          "midi": 38,
          "time": 308.57126400000163,
          "velocity": 0.3937007874015748,
          "duration": 0.26785699999999224
        },
        {
          "name": "D3",
          "midi": 50,
          "time": 308.57126400000163,
          "velocity": 0.3937007874015748,
          "duration": 0.26785699999999224
        },
        {
          "name": "E5",
          "midi": 76,
          "time": 308.8391210000016,
          "velocity": 0.3937007874015748,
          "duration": 0.26785699999999224
        },
        {
          "name": "G5",
          "midi": 79,
          "time": 308.8391210000016,
          "velocity": 0.3937007874015748,
          "duration": 0.26785699999999224
        },
        {
          "name": "E2",
          "midi": 40,
          "time": 308.8391210000016,
          "velocity": 0.3937007874015748,
          "duration": 0.26785699999999224
        },
        {
          "name": "E3",
          "midi": 52,
          "time": 308.8391210000016,
          "velocity": 0.3937007874015748,
          "duration": 0.26785699999999224
        },
        {
          "name": "F5",
          "midi": 77,
          "time": 309.1069780000016,
          "velocity": 0.3937007874015748,
          "duration": 0.4017855000000168
        },
        {
          "name": "A5",
          "midi": 81,
          "time": 309.1069780000016,
          "velocity": 0.3937007874015748,
          "duration": 0.4017855000000168
        },
        {
          "name": "F2",
          "midi": 41,
          "time": 309.1069780000016,
          "velocity": 0.3937007874015748,
          "duration": 0.5357140000000413
        },
        {
          "name": "F3",
          "midi": 53,
          "time": 309.1069780000016,
          "velocity": 0.3937007874015748,
          "duration": 0.5357140000000413
        },
        {
          "name": "B5",
          "midi": 83,
          "time": 309.50876350000163,
          "velocity": 0.3937007874015748,
          "duration": 0.13392850000002454
        },
        {
          "name": "A5",
          "midi": 81,
          "time": 309.64269200000166,
          "velocity": 0.3937007874015748,
          "duration": 0.13392850000002454
        },
        {
          "name": "C6",
          "midi": 84,
          "time": 309.64269200000166,
          "velocity": 0.3937007874015748,
          "duration": 0.13392850000002454
        },
        {
          "name": "F2",
          "midi": 41,
          "time": 309.64269200000166,
          "velocity": 0.3937007874015748,
          "duration": 1.0714280000001963
        },
        {
          "name": "F3",
          "midi": 53,
          "time": 309.64269200000166,
          "velocity": 0.3937007874015748,
          "duration": 1.0714280000001963
        },
        {
          "name": "B5",
          "midi": 83,
          "time": 309.7766205000017,
          "velocity": 0.3937007874015748,
          "duration": 0.13392850000002454
        },
        {
          "name": "A5",
          "midi": 81,
          "time": 309.9105490000017,
          "velocity": 0.3937007874015748,
          "duration": 0.13392850000002454
        },
        {
          "name": "G5",
          "midi": 79,
          "time": 310.04447750000173,
          "velocity": 0.3937007874015748,
          "duration": 0.13392850000002454
        },
        {
          "name": "F5",
          "midi": 77,
          "time": 310.17840600000176,
          "velocity": 0.3937007874015748,
          "duration": 0.13392850000002454
        },
        {
          "name": "A5",
          "midi": 81,
          "time": 310.17840600000176,
          "velocity": 0.3937007874015748,
          "duration": 0.13392850000002454
        },
        {
          "name": "G5",
          "midi": 79,
          "time": 310.3123345000018,
          "velocity": 0.3937007874015748,
          "duration": 0.13392850000002454
        },
        {
          "name": "A5",
          "midi": 81,
          "time": 310.4462630000018,
          "velocity": 0.3937007874015748,
          "duration": 0.13392850000002454
        },
        {
          "name": "B5",
          "midi": 83,
          "time": 310.58019150000183,
          "velocity": 0.3937007874015748,
          "duration": 0.13392850000002454
        },
        {
          "name": "F5",
          "midi": 77,
          "time": 310.71412000000186,
          "velocity": 0.3937007874015748,
          "duration": 0.4017855000000168
        },
        {
          "name": "A5",
          "midi": 81,
          "time": 310.71412000000186,
          "velocity": 0.3937007874015748,
          "duration": 0.4017855000000168
        },
        {
          "name": "D3",
          "midi": 50,
          "time": 310.71412000000186,
          "velocity": 0.3937007874015748,
          "duration": 0.26785699999999224
        },
        {
          "name": "A2",
          "midi": 45,
          "time": 310.98197700000185,
          "velocity": 0.3937007874015748,
          "duration": 0.2678570000000491
        },
        {
          "name": "A4",
          "midi": 69,
          "time": 311.1159055000019,
          "velocity": 0.3937007874015748,
          "duration": 0.4017855000000168
        },
        {
          "name": "D5",
          "midi": 74,
          "time": 311.1159055000019,
          "velocity": 0.3937007874015748,
          "duration": 0.4017855000000168
        },
        {
          "name": "F2",
          "midi": 41,
          "time": 311.2498340000019,
          "velocity": 0.3937007874015748,
          "duration": 0.26785699999999224
        },
        {
          "name": "D5",
          "midi": 74,
          "time": 311.5176910000019,
          "velocity": 0.3937007874015748,
          "duration": 0.13392850000002454
        },
        {
          "name": "D2",
          "midi": 38,
          "time": 311.5176910000019,
          "velocity": 0.3937007874015748,
          "duration": 0.2678570000000491
        },
        {
          "name": "E5",
          "midi": 76,
          "time": 311.6516195000019,
          "velocity": 0.3937007874015748,
          "duration": 0.13392850000002454
        },
        {
          "name": "F5",
          "midi": 77,
          "time": 311.78554800000194,
          "velocity": 0.3937007874015748,
          "duration": 0.4017855000000168
        },
        {
          "name": "A#2",
          "midi": 46,
          "time": 311.78554800000194,
          "velocity": 0.3937007874015748,
          "duration": 0.4017855000000168
        },
        {
          "name": "G5",
          "midi": 79,
          "time": 312.18733350000196,
          "velocity": 0.3937007874015748,
          "duration": 0.4017855000000168
        },
        {
          "name": "F2",
          "midi": 41,
          "time": 312.18733350000196,
          "velocity": 0.3937007874015748,
          "duration": 0.4017855000000168
        },
        {
          "name": "A#5",
          "midi": 82,
          "time": 312.589119000002,
          "velocity": 0.3937007874015748,
          "duration": 0.13392850000002454
        },
        {
          "name": "A#2",
          "midi": 46,
          "time": 312.589119000002,
          "velocity": 0.3937007874015748,
          "duration": 0.13392850000002454
        },
        {
          "name": "A5",
          "midi": 81,
          "time": 312.856976000002,
          "velocity": 0.3937007874015748,
          "duration": 0.13392850000002454
        },
        {
          "name": "A3",
          "midi": 57,
          "time": 312.856976000002,
          "velocity": 0.3937007874015748,
          "duration": 0.13392850000002454
        },
        {
          "name": "E5",
          "midi": 76,
          "time": 313.12483300000207,
          "velocity": 0.3937007874015748,
          "duration": 0.13392850000002454
        },
        {
          "name": "E3",
          "midi": 52,
          "time": 313.12483300000207,
          "velocity": 0.3937007874015748,
          "duration": 0.13392850000002454
        },
        {
          "name": "C#5",
          "midi": 73,
          "time": 313.3926900000021,
          "velocity": 0.3937007874015748,
          "duration": 0.13392850000002454
        },
        {
          "name": "C#3",
          "midi": 49,
          "time": 313.3926900000021,
          "velocity": 0.3937007874015748,
          "duration": 0.13392850000002454
        },
        {
          "name": "A4",
          "midi": 69,
          "time": 313.66054700000217,
          "velocity": 0.3937007874015748,
          "duration": 0.13392850000002454
        },
        {
          "name": "A2",
          "midi": 45,
          "time": 313.66054700000217,
          "velocity": 0.3937007874015748,
          "duration": 0.13392850000002454
        },
        {
          "name": "D#5",
          "midi": 75,
          "time": 313.9284040000022,
          "velocity": 0.3937007874015748,
          "duration": 0.13392850000002454
        },
        {
          "name": "G5",
          "midi": 79,
          "time": 313.9284040000022,
          "velocity": 0.3937007874015748,
          "duration": 0.13392850000002454
        },
        {
          "name": "A#2",
          "midi": 46,
          "time": 313.9284040000022,
          "velocity": 0.3937007874015748,
          "duration": 0.2678570000000491
        },
        {
          "name": "F5",
          "midi": 77,
          "time": 314.06233250000224,
          "velocity": 0.3937007874015748,
          "duration": 0.13392850000002454
        },
        {
          "name": "D#5",
          "midi": 75,
          "time": 314.19626100000227,
          "velocity": 0.3937007874015748,
          "duration": 0.13392850000002454
        },
        {
          "name": "A#2",
          "midi": 46,
          "time": 314.19626100000227,
          "velocity": 0.3937007874015748,
          "duration": 0.2678570000000491
        },
        {
          "name": "D5",
          "midi": 74,
          "time": 314.3301895000023,
          "velocity": 0.3937007874015748,
          "duration": 0.13392850000002454
        },
        {
          "name": "C5",
          "midi": 72,
          "time": 314.4641180000023,
          "velocity": 0.3937007874015748,
          "duration": 0.13392850000002454
        },
        {
          "name": "D#5",
          "midi": 75,
          "time": 314.4641180000023,
          "velocity": 0.3937007874015748,
          "duration": 0.13392850000002454
        },
        {
          "name": "G3",
          "midi": 55,
          "time": 314.4641180000023,
          "velocity": 0.3937007874015748,
          "duration": 0.2678570000000491
        },
        {
          "name": "D5",
          "midi": 74,
          "time": 314.59804650000234,
          "velocity": 0.3937007874015748,
          "duration": 0.13392850000002454
        },
        {
          "name": "C5",
          "midi": 72,
          "time": 314.73197500000236,
          "velocity": 0.3937007874015748,
          "duration": 0.13392850000002454
        },
        {
          "name": "A#3",
          "midi": 58,
          "time": 314.73197500000236,
          "velocity": 0.3937007874015748,
          "duration": 0.2678570000000491
        },
        {
          "name": "D#5",
          "midi": 75,
          "time": 314.8659035000024,
          "velocity": 0.3937007874015748,
          "duration": 0.13392850000002454
        },
        {
          "name": "A4",
          "midi": 69,
          "time": 314.9998320000024,
          "velocity": 0.3937007874015748,
          "duration": 0.4017855000000168
        },
        {
          "name": "D5",
          "midi": 74,
          "time": 314.9998320000024,
          "velocity": 0.3937007874015748,
          "duration": 0.4017855000000168
        },
        {
          "name": "D3",
          "midi": 50,
          "time": 314.9998320000024,
          "velocity": 0.3937007874015748,
          "duration": 0.26785699999999224
        },
        {
          "name": "A3",
          "midi": 57,
          "time": 315.2676890000024,
          "velocity": 0.3937007874015748,
          "duration": 0.2678570000000491
        },
        {
          "name": "A4",
          "midi": 69,
          "time": 315.40161750000243,
          "velocity": 0.3937007874015748,
          "duration": 0.4017855000000168
        },
        {
          "name": "D4",
          "midi": 62,
          "time": 315.53554600000246,
          "velocity": 0.3937007874015748,
          "duration": 0.26785699999999224
        },
        {
          "name": "A4",
          "midi": 69,
          "time": 315.80340300000245,
          "velocity": 0.3937007874015748,
          "duration": 0.13392850000002454
        },
        {
          "name": "D3",
          "midi": 50,
          "time": 315.80340300000245,
          "velocity": 0.3937007874015748,
          "duration": 0.2678570000000491
        },
        {
          "name": "D5",
          "midi": 74,
          "time": 315.9373315000025,
          "velocity": 0.3937007874015748,
          "duration": 0.13392850000002454
        },
        {
          "name": "D#5",
          "midi": 75,
          "time": 316.0712600000025,
          "velocity": 0.3937007874015748,
          "duration": 0.13392850000002454
        },
        {
          "name": "G5",
          "midi": 79,
          "time": 316.0712600000025,
          "velocity": 0.3937007874015748,
          "duration": 0.13392850000002454
        },
        {
          "name": "A#2",
          "midi": 46,
          "time": 316.0712600000025,
          "velocity": 0.3937007874015748,
          "duration": 0.2678570000000491
        },
        {
          "name": "F5",
          "midi": 77,
          "time": 316.2051885000025,
          "velocity": 0.3937007874015748,
          "duration": 0.13392850000002454
        },
        {
          "name": "D#5",
          "midi": 75,
          "time": 316.33911700000255,
          "velocity": 0.3937007874015748,
          "duration": 0.13392850000002454
        },
        {
          "name": "A#2",
          "midi": 46,
          "time": 316.33911700000255,
          "velocity": 0.3937007874015748,
          "duration": 0.2678570000000491
        },
        {
          "name": "D5",
          "midi": 74,
          "time": 316.47304550000257,
          "velocity": 0.3937007874015748,
          "duration": 0.13392850000002454
        },
        {
          "name": "A4",
          "midi": 69,
          "time": 316.6069740000026,
          "velocity": 0.3937007874015748,
          "duration": 0.13392850000002454
        },
        {
          "name": "C5",
          "midi": 72,
          "time": 316.6069740000026,
          "velocity": 0.3937007874015748,
          "duration": 0.13392850000002454
        },
        {
          "name": "G3",
          "midi": 55,
          "time": 316.6069740000026,
          "velocity": 0.3937007874015748,
          "duration": 0.2678570000000491
        },
        {
          "name": "A#5",
          "midi": 82,
          "time": 316.7409025000026,
          "velocity": 0.3937007874015748,
          "duration": 0.13392850000002454
        },
        {
          "name": "A5",
          "midi": 81,
          "time": 316.87483100000264,
          "velocity": 0.3937007874015748,
          "duration": 0.13392850000002454
        },
        {
          "name": "A#3",
          "midi": 58,
          "time": 316.87483100000264,
          "velocity": 0.3937007874015748,
          "duration": 0.2678570000000491
        },
        {
          "name": "G5",
          "midi": 79,
          "time": 317.00875950000267,
          "velocity": 0.3937007874015748,
          "duration": 0.13392850000002454
        },
        {
          "name": "D5",
          "midi": 74,
          "time": 317.1426880000027,
          "velocity": 0.3937007874015748,
          "duration": 0.26785699999999224
        },
        {
          "name": "F5",
          "midi": 77,
          "time": 317.1426880000027,
          "velocity": 0.3937007874015748,
          "duration": 0.26785699999999224
        },
        {
          "name": "D2",
          "midi": 38,
          "time": 317.1426880000027,
          "velocity": 0.3937007874015748,
          "duration": 0.26785699999999224
        },
        {
          "name": "D3",
          "midi": 50,
          "time": 317.1426880000027,
          "velocity": 0.3937007874015748,
          "duration": 0.26785699999999224
        },
        {
          "name": "E5",
          "midi": 76,
          "time": 317.4105450000027,
          "velocity": 0.3937007874015748,
          "duration": 0.26785699999999224
        },
        {
          "name": "G5",
          "midi": 79,
          "time": 317.4105450000027,
          "velocity": 0.3937007874015748,
          "duration": 0.26785699999999224
        },
        {
          "name": "E2",
          "midi": 40,
          "time": 317.4105450000027,
          "velocity": 0.3937007874015748,
          "duration": 0.26785699999999224
        },
        {
          "name": "E3",
          "midi": 52,
          "time": 317.4105450000027,
          "velocity": 0.3937007874015748,
          "duration": 0.26785699999999224
        },
        {
          "name": "F5",
          "midi": 77,
          "time": 317.6784020000027,
          "velocity": 0.3937007874015748,
          "duration": 0.4017855000000168
        },
        {
          "name": "A5",
          "midi": 81,
          "time": 317.6784020000027,
          "velocity": 0.3937007874015748,
          "duration": 0.4017855000000168
        },
        {
          "name": "F2",
          "midi": 41,
          "time": 317.6784020000027,
          "velocity": 0.3937007874015748,
          "duration": 0.5357140000000413
        },
        {
          "name": "F3",
          "midi": 53,
          "time": 317.6784020000027,
          "velocity": 0.3937007874015748,
          "duration": 0.5357140000000413
        },
        {
          "name": "B5",
          "midi": 83,
          "time": 318.0801875000027,
          "velocity": 0.3937007874015748,
          "duration": 0.13392850000002454
        },
        {
          "name": "A5",
          "midi": 81,
          "time": 318.2141160000027,
          "velocity": 0.3937007874015748,
          "duration": 0.13392850000002454
        },
        {
          "name": "C6",
          "midi": 84,
          "time": 318.2141160000027,
          "velocity": 0.3937007874015748,
          "duration": 0.13392850000002454
        },
        {
          "name": "F2",
          "midi": 41,
          "time": 318.2141160000027,
          "velocity": 0.3937007874015748,
          "duration": 1.0714280000001963
        },
        {
          "name": "F3",
          "midi": 53,
          "time": 318.2141160000027,
          "velocity": 0.3937007874015748,
          "duration": 1.0714280000001963
        },
        {
          "name": "B5",
          "midi": 83,
          "time": 318.34804450000274,
          "velocity": 0.3937007874015748,
          "duration": 0.13392850000002454
        },
        {
          "name": "A5",
          "midi": 81,
          "time": 318.48197300000277,
          "velocity": 0.3937007874015748,
          "duration": 0.13392850000002454
        },
        {
          "name": "G5",
          "midi": 79,
          "time": 318.6159015000028,
          "velocity": 0.3937007874015748,
          "duration": 0.13392850000002454
        },
        {
          "name": "F5",
          "midi": 77,
          "time": 318.7498300000028,
          "velocity": 0.3937007874015748,
          "duration": 0.13392850000002454
        },
        {
          "name": "A5",
          "midi": 81,
          "time": 318.7498300000028,
          "velocity": 0.3937007874015748,
          "duration": 0.13392850000002454
        },
        {
          "name": "G5",
          "midi": 79,
          "time": 318.88375850000284,
          "velocity": 0.3937007874015748,
          "duration": 0.13392850000002454
        },
        {
          "name": "A5",
          "midi": 81,
          "time": 319.01768700000287,
          "velocity": 0.3937007874015748,
          "duration": 0.13392850000002454
        },
        {
          "name": "B5",
          "midi": 83,
          "time": 319.1516155000029,
          "velocity": 0.3937007874015748,
          "duration": 0.13392850000002454
        },
        {
          "name": "F5",
          "midi": 77,
          "time": 319.2855440000029,
          "velocity": 0.3937007874015748,
          "duration": 0.4017855000000168
        },
        {
          "name": "A5",
          "midi": 81,
          "time": 319.2855440000029,
          "velocity": 0.3937007874015748,
          "duration": 0.4017855000000168
        },
        {
          "name": "D3",
          "midi": 50,
          "time": 319.2855440000029,
          "velocity": 0.3937007874015748,
          "duration": 0.26785699999999224
        },
        {
          "name": "A2",
          "midi": 45,
          "time": 319.5534010000029,
          "velocity": 0.3937007874015748,
          "duration": 0.2678570000000491
        },
        {
          "name": "A4",
          "midi": 69,
          "time": 319.68732950000293,
          "velocity": 0.3937007874015748,
          "duration": 0.4017855000000168
        },
        {
          "name": "D5",
          "midi": 74,
          "time": 319.68732950000293,
          "velocity": 0.3937007874015748,
          "duration": 0.4017855000000168
        },
        {
          "name": "F2",
          "midi": 41,
          "time": 319.82125800000296,
          "velocity": 0.3937007874015748,
          "duration": 0.26785699999999224
        },
        {
          "name": "D5",
          "midi": 74,
          "time": 320.08911500000295,
          "velocity": 0.3937007874015748,
          "duration": 0.13392850000002454
        },
        {
          "name": "D2",
          "midi": 38,
          "time": 320.08911500000295,
          "velocity": 0.3937007874015748,
          "duration": 0.2678570000000491
        },
        {
          "name": "E5",
          "midi": 76,
          "time": 320.223043500003,
          "velocity": 0.3937007874015748,
          "duration": 0.13392850000002454
        },
        {
          "name": "A#4",
          "midi": 70,
          "time": 320.356972000003,
          "velocity": 0.3937007874015748,
          "duration": 0.4017855000000168
        },
        {
          "name": "F5",
          "midi": 77,
          "time": 320.356972000003,
          "velocity": 0.3937007874015748,
          "duration": 0.4017855000000168
        },
        {
          "name": "A#2",
          "midi": 46,
          "time": 320.356972000003,
          "velocity": 0.3937007874015748,
          "duration": 0.4017855000000168
        },
        {
          "name": "D3",
          "midi": 50,
          "time": 320.356972000003,
          "velocity": 0.3937007874015748,
          "duration": 0.4017855000000168
        },
        {
          "name": "E5",
          "midi": 76,
          "time": 320.758757500003,
          "velocity": 0.3937007874015748,
          "duration": 0.4017855000000168
        },
        {
          "name": "A#2",
          "midi": 46,
          "time": 320.758757500003,
          "velocity": 0.3937007874015748,
          "duration": 0.4017855000000168
        },
        {
          "name": "D3",
          "midi": 50,
          "time": 320.758757500003,
          "velocity": 0.3937007874015748,
          "duration": 0.4017855000000168
        },
        {
          "name": "C5",
          "midi": 72,
          "time": 321.16054300000303,
          "velocity": 0.3937007874015748,
          "duration": 0.26785699999999224
        },
        {
          "name": "A#2",
          "midi": 46,
          "time": 321.16054300000303,
          "velocity": 0.3937007874015748,
          "duration": 0.26785699999999224
        },
        {
          "name": "D3",
          "midi": 50,
          "time": 321.16054300000303,
          "velocity": 0.3937007874015748,
          "duration": 0.26785699999999224
        },
        {
          "name": "F4",
          "midi": 65,
          "time": 321.428400000003,
          "velocity": 0.3937007874015748,
          "duration": 0.8035710000000336
        },
        {
          "name": "A#4",
          "midi": 70,
          "time": 321.428400000003,
          "velocity": 0.3937007874015748,
          "duration": 0.8035710000000336
        },
        {
          "name": "D5",
          "midi": 74,
          "time": 321.428400000003,
          "velocity": 0.3937007874015748,
          "duration": 0.8035710000000336
        },
        {
          "name": "A#2",
          "midi": 46,
          "time": 321.428400000003,
          "velocity": 0.3937007874015748,
          "duration": 0.4017855000000168
        },
        {
          "name": "D3",
          "midi": 50,
          "time": 321.428400000003,
          "velocity": 0.3937007874015748,
          "duration": 0.4017855000000168
        },
        {
          "name": "A#2",
          "midi": 46,
          "time": 321.83018550000304,
          "velocity": 0.3937007874015748,
          "duration": 0.4017855000000168
        },
        {
          "name": "D3",
          "midi": 50,
          "time": 321.83018550000304,
          "velocity": 0.3937007874015748,
          "duration": 0.4017855000000168
        },
        {
          "name": "D5",
          "midi": 74,
          "time": 322.23197100000306,
          "velocity": 0.3937007874015748,
          "duration": 0.13392850000002454
        },
        {
          "name": "A#2",
          "midi": 46,
          "time": 322.23197100000306,
          "velocity": 0.3937007874015748,
          "duration": 0.2678570000000491
        },
        {
          "name": "D3",
          "midi": 50,
          "time": 322.23197100000306,
          "velocity": 0.3937007874015748,
          "duration": 0.2678570000000491
        },
        {
          "name": "E5",
          "midi": 76,
          "time": 322.3658995000031,
          "velocity": 0.3937007874015748,
          "duration": 0.13392850000002454
        },
        {
          "name": "C5",
          "midi": 72,
          "time": 322.4998280000031,
          "velocity": 0.3937007874015748,
          "duration": 0.4017855000000168
        },
        {
          "name": "F5",
          "midi": 77,
          "time": 322.4998280000031,
          "velocity": 0.3937007874015748,
          "duration": 0.4017855000000168
        },
        {
          "name": "C3",
          "midi": 48,
          "time": 322.4998280000031,
          "velocity": 0.3937007874015748,
          "duration": 0.4017855000000168
        },
        {
          "name": "E3",
          "midi": 52,
          "time": 322.4998280000031,
          "velocity": 0.3937007874015748,
          "duration": 0.4017855000000168
        },
        {
          "name": "E5",
          "midi": 76,
          "time": 322.9016135000031,
          "velocity": 0.3937007874015748,
          "duration": 0.4017855000000168
        },
        {
          "name": "C3",
          "midi": 48,
          "time": 322.9016135000031,
          "velocity": 0.3937007874015748,
          "duration": 0.4017855000000168
        },
        {
          "name": "E3",
          "midi": 52,
          "time": 322.9016135000031,
          "velocity": 0.3937007874015748,
          "duration": 0.4017855000000168
        },
        {
          "name": "C5",
          "midi": 72,
          "time": 323.30339900000314,
          "velocity": 0.3937007874015748,
          "duration": 0.26785699999999224
        },
        {
          "name": "C3",
          "midi": 48,
          "time": 323.30339900000314,
          "velocity": 0.3937007874015748,
          "duration": 0.26785699999999224
        },
        {
          "name": "E3",
          "midi": 52,
          "time": 323.30339900000314,
          "velocity": 0.3937007874015748,
          "duration": 0.26785699999999224
        },
        {
          "name": "F4",
          "midi": 65,
          "time": 323.57125600000313,
          "velocity": 0.3937007874015748,
          "duration": 0.8035710000000336
        },
        {
          "name": "C5",
          "midi": 72,
          "time": 323.57125600000313,
          "velocity": 0.3937007874015748,
          "duration": 0.8035710000000336
        },
        {
          "name": "D5",
          "midi": 74,
          "time": 323.57125600000313,
          "velocity": 0.3937007874015748,
          "duration": 0.8035710000000336
        },
        {
          "name": "C3",
          "midi": 48,
          "time": 323.57125600000313,
          "velocity": 0.3937007874015748,
          "duration": 0.4017855000000168
        },
        {
          "name": "E3",
          "midi": 52,
          "time": 323.57125600000313,
          "velocity": 0.3937007874015748,
          "duration": 0.4017855000000168
        },
        {
          "name": "C3",
          "midi": 48,
          "time": 323.97304150000315,
          "velocity": 0.3937007874015748,
          "duration": 0.4017855000000168
        },
        {
          "name": "E3",
          "midi": 52,
          "time": 323.97304150000315,
          "velocity": 0.3937007874015748,
          "duration": 0.4017855000000168
        },
        {
          "name": "D5",
          "midi": 74,
          "time": 324.37482700000317,
          "velocity": 0.3937007874015748,
          "duration": 0.13392850000002454
        },
        {
          "name": "C3",
          "midi": 48,
          "time": 324.37482700000317,
          "velocity": 0.3937007874015748,
          "duration": 0.2678570000000491
        },
        {
          "name": "E3",
          "midi": 52,
          "time": 324.37482700000317,
          "velocity": 0.3937007874015748,
          "duration": 0.2678570000000491
        },
        {
          "name": "E5",
          "midi": 76,
          "time": 324.5087555000032,
          "velocity": 0.3937007874015748,
          "duration": 0.13392850000002454
        },
        {
          "name": "A#4",
          "midi": 70,
          "time": 324.6426840000032,
          "velocity": 0.3937007874015748,
          "duration": 0.4017855000000168
        },
        {
          "name": "F5",
          "midi": 77,
          "time": 324.6426840000032,
          "velocity": 0.3937007874015748,
          "duration": 0.4017855000000168
        },
        {
          "name": "A#2",
          "midi": 46,
          "time": 324.6426840000032,
          "velocity": 0.3937007874015748,
          "duration": 0.4017855000000168
        },
        {
          "name": "D3",
          "midi": 50,
          "time": 324.6426840000032,
          "velocity": 0.3937007874015748,
          "duration": 0.4017855000000168
        },
        {
          "name": "E5",
          "midi": 76,
          "time": 325.04446950000323,
          "velocity": 0.3937007874015748,
          "duration": 0.4017855000000168
        },
        {
          "name": "A#2",
          "midi": 46,
          "time": 325.04446950000323,
          "velocity": 0.3937007874015748,
          "duration": 0.4017855000000168
        },
        {
          "name": "D3",
          "midi": 50,
          "time": 325.04446950000323,
          "velocity": 0.3937007874015748,
          "duration": 0.4017855000000168
        },
        {
          "name": "C5",
          "midi": 72,
          "time": 325.44625500000325,
          "velocity": 0.3937007874015748,
          "duration": 0.26785699999999224
        },
        {
          "name": "A#2",
          "midi": 46,
          "time": 325.44625500000325,
          "velocity": 0.3937007874015748,
          "duration": 0.26785699999999224
        },
        {
          "name": "D3",
          "midi": 50,
          "time": 325.44625500000325,
          "velocity": 0.3937007874015748,
          "duration": 0.26785699999999224
        },
        {
          "name": "F4",
          "midi": 65,
          "time": 325.71411200000324,
          "velocity": 0.3937007874015748,
          "duration": 0.8035710000000336
        },
        {
          "name": "A#4",
          "midi": 70,
          "time": 325.71411200000324,
          "velocity": 0.3937007874015748,
          "duration": 0.8035710000000336
        },
        {
          "name": "D5",
          "midi": 74,
          "time": 325.71411200000324,
          "velocity": 0.3937007874015748,
          "duration": 0.8035710000000336
        },
        {
          "name": "A#2",
          "midi": 46,
          "time": 325.71411200000324,
          "velocity": 0.3937007874015748,
          "duration": 0.4017855000000168
        },
        {
          "name": "D3",
          "midi": 50,
          "time": 325.71411200000324,
          "velocity": 0.3937007874015748,
          "duration": 0.4017855000000168
        },
        {
          "name": "A#2",
          "midi": 46,
          "time": 326.11589750000326,
          "velocity": 0.3937007874015748,
          "duration": 0.4017855000000168
        },
        {
          "name": "D3",
          "midi": 50,
          "time": 326.11589750000326,
          "velocity": 0.3937007874015748,
          "duration": 0.4017855000000168
        },
        {
          "name": "D5",
          "midi": 74,
          "time": 326.5176830000033,
          "velocity": 0.3937007874015748,
          "duration": 0.13392850000002454
        },
        {
          "name": "A#2",
          "midi": 46,
          "time": 326.5176830000033,
          "velocity": 0.3937007874015748,
          "duration": 0.2678570000000491
        },
        {
          "name": "D3",
          "midi": 50,
          "time": 326.5176830000033,
          "velocity": 0.3937007874015748,
          "duration": 0.2678570000000491
        },
        {
          "name": "E5",
          "midi": 76,
          "time": 326.6516115000033,
          "velocity": 0.3937007874015748,
          "duration": 0.13392850000002454
        },
        {
          "name": "C5",
          "midi": 72,
          "time": 326.7855400000033,
          "velocity": 0.3937007874015748,
          "duration": 0.4017855000000168
        },
        {
          "name": "F5",
          "midi": 77,
          "time": 326.7855400000033,
          "velocity": 0.3937007874015748,
          "duration": 0.4017855000000168
        },
        {
          "name": "C3",
          "midi": 48,
          "time": 326.7855400000033,
          "velocity": 0.3937007874015748,
          "duration": 0.4017855000000168
        },
        {
          "name": "E3",
          "midi": 52,
          "time": 326.7855400000033,
          "velocity": 0.3937007874015748,
          "duration": 0.4017855000000168
        },
        {
          "name": "E5",
          "midi": 76,
          "time": 327.18732550000334,
          "velocity": 0.3937007874015748,
          "duration": 0.4017855000000168
        },
        {
          "name": "C3",
          "midi": 48,
          "time": 327.18732550000334,
          "velocity": 0.3937007874015748,
          "duration": 0.4017855000000168
        },
        {
          "name": "E3",
          "midi": 52,
          "time": 327.18732550000334,
          "velocity": 0.3937007874015748,
          "duration": 0.4017855000000168
        },
        {
          "name": "C5",
          "midi": 72,
          "time": 327.58911100000336,
          "velocity": 0.3937007874015748,
          "duration": 0.26785699999999224
        },
        {
          "name": "C3",
          "midi": 48,
          "time": 327.58911100000336,
          "velocity": 0.3937007874015748,
          "duration": 0.26785699999999224
        },
        {
          "name": "E3",
          "midi": 52,
          "time": 327.58911100000336,
          "velocity": 0.3937007874015748,
          "duration": 0.26785699999999224
        },
        {
          "name": "F4",
          "midi": 65,
          "time": 327.85696800000335,
          "velocity": 0.3937007874015748,
          "duration": 0.8035710000000336
        },
        {
          "name": "C5",
          "midi": 72,
          "time": 327.85696800000335,
          "velocity": 0.3937007874015748,
          "duration": 0.8035710000000336
        },
        {
          "name": "D5",
          "midi": 74,
          "time": 327.85696800000335,
          "velocity": 0.3937007874015748,
          "duration": 0.8035710000000336
        },
        {
          "name": "C3",
          "midi": 48,
          "time": 327.85696800000335,
          "velocity": 0.3937007874015748,
          "duration": 0.4017855000000168
        },
        {
          "name": "E3",
          "midi": 52,
          "time": 327.85696800000335,
          "velocity": 0.3937007874015748,
          "duration": 0.4017855000000168
        },
        {
          "name": "C3",
          "midi": 48,
          "time": 328.25875350000337,
          "velocity": 0.3937007874015748,
          "duration": 0.4017855000000168
        },
        {
          "name": "E3",
          "midi": 52,
          "time": 328.25875350000337,
          "velocity": 0.3937007874015748,
          "duration": 0.4017855000000168
        },
        {
          "name": "C5",
          "midi": 72,
          "time": 328.6605390000034,
          "velocity": 0.3937007874015748,
          "duration": 0.26785699999999224
        },
        {
          "name": "C3",
          "midi": 48,
          "time": 328.6605390000034,
          "velocity": 0.3937007874015748,
          "duration": 0.26785699999999224
        },
        {
          "name": "E3",
          "midi": 52,
          "time": 328.6605390000034,
          "velocity": 0.3937007874015748,
          "duration": 0.26785699999999224
        },
        {
          "name": "D4",
          "midi": 62,
          "time": 328.9283960000034,
          "velocity": 0.3937007874015748,
          "duration": 0.4017855000000168
        },
        {
          "name": "A4",
          "midi": 69,
          "time": 328.9283960000034,
          "velocity": 0.3937007874015748,
          "duration": 0.4017855000000168
        },
        {
          "name": "D5",
          "midi": 74,
          "time": 328.9283960000034,
          "velocity": 0.3937007874015748,
          "duration": 0.4017855000000168
        },
        {
          "name": "D2",
          "midi": 38,
          "time": 328.9283960000034,
          "velocity": 0.3937007874015748,
          "duration": 0.4017855000000168
        },
        {
          "name": "D4",
          "midi": 62,
          "time": 329.3301815000034,
          "velocity": 0.3937007874015748,
          "duration": 0.13392850000002454
        },
        {
          "name": "A4",
          "midi": 69,
          "time": 329.3301815000034,
          "velocity": 0.3937007874015748,
          "duration": 0.13392850000002454
        },
        {
          "name": "A2",
          "midi": 45,
          "time": 329.3301815000034,
          "velocity": 0.3937007874015748,
          "duration": 0.13392850000002454
        },
        {
          "name": "D4",
          "midi": 62,
          "time": 329.7319670000034,
          "velocity": 0.3937007874015748,
          "duration": 0.13392850000002454
        },
        {
          "name": "A4",
          "midi": 69,
          "time": 329.7319670000034,
          "velocity": 0.3937007874015748,
          "duration": 0.13392850000002454
        },
        {
          "name": "D3",
          "midi": 50,
          "time": 329.7319670000034,
          "velocity": 0.3937007874015748,
          "duration": 0.13392850000002454
        },
        {
          "name": "D4",
          "midi": 62,
          "time": 329.99982400000346,
          "velocity": 0.3937007874015748,
          "duration": 0.4017855000000168
        },
        {
          "name": "G4",
          "midi": 67,
          "time": 329.99982400000346,
          "velocity": 0.3937007874015748,
          "duration": 0.4017855000000168
        },
        {
          "name": "B4",
          "midi": 71,
          "time": 329.99982400000346,
          "velocity": 0.3937007874015748,
          "duration": 0.4017855000000168
        },
        {
          "name": "G2",
          "midi": 43,
          "time": 329.99982400000346,
          "velocity": 0.3937007874015748,
          "duration": 0.4017855000000168
        },
        {
          "name": "D4",
          "midi": 62,
          "time": 330.4016095000035,
          "velocity": 0.3937007874015748,
          "duration": 0.13392850000002454
        },
        {
          "name": "G4",
          "midi": 67,
          "time": 330.4016095000035,
          "velocity": 0.3937007874015748,
          "duration": 0.13392850000002454
        },
        {
          "name": "B2",
          "midi": 47,
          "time": 330.4016095000035,
          "velocity": 0.3937007874015748,
          "duration": 0.13392850000002454
        },
        {
          "name": "D4",
          "midi": 62,
          "time": 330.8033950000035,
          "velocity": 0.3937007874015748,
          "duration": 0.13392850000002454
        },
        {
          "name": "G4",
          "midi": 67,
          "time": 330.8033950000035,
          "velocity": 0.3937007874015748,
          "duration": 0.13392850000002454
        },
        {
          "name": "D3",
          "midi": 50,
          "time": 330.8033950000035,
          "velocity": 0.3937007874015748,
          "duration": 0.2678570000000491
        },
        {
          "name": "D4",
          "midi": 62,
          "time": 331.07125200000354,
          "velocity": 0.3937007874015748,
          "duration": 0.4017855000000168
        },
        {
          "name": "A4",
          "midi": 69,
          "time": 331.07125200000354,
          "velocity": 0.3937007874015748,
          "duration": 0.4017855000000168
        },
        {
          "name": "D5",
          "midi": 74,
          "time": 331.07125200000354,
          "velocity": 0.3937007874015748,
          "duration": 0.4017855000000168
        },
        {
          "name": "D2",
          "midi": 38,
          "time": 331.07125200000354,
          "velocity": 0.3937007874015748,
          "duration": 0.4017855000000168
        },
        {
          "name": "D4",
          "midi": 62,
          "time": 331.47303750000356,
          "velocity": 0.3937007874015748,
          "duration": 0.13392850000002454
        },
        {
          "name": "A4",
          "midi": 69,
          "time": 331.47303750000356,
          "velocity": 0.3937007874015748,
          "duration": 0.13392850000002454
        },
        {
          "name": "A2",
          "midi": 45,
          "time": 331.47303750000356,
          "velocity": 0.3937007874015748,
          "duration": 0.4017855000000168
        },
        {
          "name": "D4",
          "midi": 62,
          "time": 331.8748230000036,
          "velocity": 0.3937007874015748,
          "duration": 0.13392850000002454
        },
        {
          "name": "A4",
          "midi": 69,
          "time": 331.8748230000036,
          "velocity": 0.3937007874015748,
          "duration": 0.13392850000002454
        },
        {
          "name": "D3",
          "midi": 50,
          "time": 331.8748230000036,
          "velocity": 0.3937007874015748,
          "duration": 0.13392850000002454
        },
        {
          "name": "D4",
          "midi": 62,
          "time": 332.1426800000036,
          "velocity": 0.3937007874015748,
          "duration": 0.4017855000000168
        },
        {
          "name": "G4",
          "midi": 67,
          "time": 332.1426800000036,
          "velocity": 0.3937007874015748,
          "duration": 0.4017855000000168
        },
        {
          "name": "B4",
          "midi": 71,
          "time": 332.1426800000036,
          "velocity": 0.3937007874015748,
          "duration": 0.4017855000000168
        },
        {
          "name": "G2",
          "midi": 43,
          "time": 332.1426800000036,
          "velocity": 0.3937007874015748,
          "duration": 0.4017855000000168
        },
        {
          "name": "D4",
          "midi": 62,
          "time": 332.54446550000364,
          "velocity": 0.3937007874015748,
          "duration": 0.13392850000002454
        },
        {
          "name": "G4",
          "midi": 67,
          "time": 332.54446550000364,
          "velocity": 0.3937007874015748,
          "duration": 0.13392850000002454
        },
        {
          "name": "B2",
          "midi": 47,
          "time": 332.54446550000364,
          "velocity": 0.3937007874015748,
          "duration": 0.13392850000002454
        },
        {
          "name": "D4",
          "midi": 62,
          "time": 332.94625100000366,
          "velocity": 0.3937007874015748,
          "duration": 0.13392850000002454
        },
        {
          "name": "G4",
          "midi": 67,
          "time": 332.94625100000366,
          "velocity": 0.3937007874015748,
          "duration": 0.13392850000002454
        },
        {
          "name": "D3",
          "midi": 50,
          "time": 332.94625100000366,
          "velocity": 0.3937007874015748,
          "duration": 0.13392850000002454
        },
        {
          "name": "D4",
          "midi": 62,
          "time": 333.2141080000037,
          "velocity": 0.3937007874015748,
          "duration": 0.5357139999999845
        },
        {
          "name": "F4",
          "midi": 65,
          "time": 333.2141080000037,
          "velocity": 0.3937007874015748,
          "duration": 0.5357139999999845
        },
        {
          "name": "A4",
          "midi": 69,
          "time": 333.2141080000037,
          "velocity": 0.3937007874015748,
          "duration": 0.5357139999999845
        },
        {
          "name": "D2",
          "midi": 38,
          "time": 333.2141080000037,
          "velocity": 0.3937007874015748,
          "duration": 0.5357139999999845
        },
        {
          "name": "A2",
          "midi": 45,
          "time": 333.2141080000037,
          "velocity": 0.3937007874015748,
          "duration": 0.5357139999999845
        },
        {
          "name": "D3",
          "midi": 50,
          "time": 333.2141080000037,
          "velocity": 0.3937007874015748,
          "duration": 0.5357139999999845
        }
      ],
      "controlChanges": {},
      "id": 0,
      "name": "Elec. Piano (Classic)",
      "instrumentNumber": 0,
      "instrument": "acoustic grand piano",
      "instrumentFamily": "piano",
      "channelNumber": 0,
      "isPercussion": false
    }
  ]
}
