{"header":{"PPQ":384,"timeSignature":[4,4],"bpm":115.00002875000719,"name":""},"tempo":[{"absoluteTime":0,"seconds":0,"bpm":115.00002875000719}],"timeSignature":[{"absoluteTime":0,"seconds":0,"numerator":4,"denominator":2,"click":24,"notesQ":8}],"startTime":0,"duration":173.21734800000377,"tracks":[{"startTime":0,"duration":173.21734800000144,"length":798,"notes":[{"name":"F3","midi":53,"time":0,"velocity":0.44881889763779526,"duration":0.521739},{"name":"A3","midi":57,"time":0.521739,"velocity":0.44881889763779526,"duration":0.521739},{"name":"G3","midi":55,"time":1.043478,"velocity":0.44881889763779526,"duration":1.043478},{"name":"E3","midi":52,"time":2.086956,"velocity":0.44881889763779526,"duration":0.5217390000000002},{"name":"G3","midi":55,"time":2.608695,"velocity":0.44881889763779526,"duration":0.5217390000000002},{"name":"F3","midi":53,"time":3.130434,"velocity":0.44881889763779526,"duration":1.0434779999999995},{"name":"D3","midi":50,"time":4.173912,"velocity":0.44881889763779526,"duration":0.5217390000000002},{"name":"F3","midi":53,"time":4.695651,"velocity":0.44881889763779526,"duration":0.5217390000000002},{"name":"E3","midi":52,"time":5.21739,"velocity":0.44881889763779526,"duration":1.0434780000000003},{"name":"C3","midi":48,"time":6.260868,"velocity":0.44881889763779526,"duration":0.5217390000000002},{"name":"D3","midi":50,"time":6.7826070000000005,"velocity":0.44881889763779526,"duration":0.5217390000000002},{"name":"A2","midi":45,"time":7.304346000000001,"velocity":0.44881889763779526,"duration":1.0434780000000003},{"name":"F3","midi":53,"time":8.347824000000001,"velocity":0.44881889763779526,"duration":0.5217390000000002},{"name":"A3","midi":57,"time":8.869563000000001,"velocity":0.44881889763779526,"duration":0.5217390000000002},{"name":"G3","midi":55,"time":9.391302000000001,"velocity":0.44881889763779526,"duration":1.0434780000000003},{"name":"C4","midi":60,"time":10.434780000000002,"velocity":0.44881889763779526,"duration":0.5217390000000002},{"name":"G3","midi":55,"time":10.956519000000002,"velocity":0.44881889763779526,"duration":0.5217390000000002},{"name":"A3","midi":57,"time":11.478258000000002,"velocity":0.44881889763779526,"duration":1.0434780000000003},{"name":"A3","midi":57,"time":12.521736000000002,"velocity":0.44881889763779526,"duration":0.2608695000000001},{"name":"G3","midi":55,"time":12.782605500000003,"velocity":0.44881889763779526,"duration":0.2608695000000001},{"name":"A3","midi":57,"time":13.043475000000003,"velocity":0.44881889763779526,"duration":0.2608695000000001},{"name":"C4","midi":60,"time":13.304344500000003,"velocity":0.44881889763779526,"duration":0.2608695000000001},{"name":"D4","midi":62,"time":13.565214000000003,"velocity":0.44881889763779526,"duration":0.5217390000000002},{"name":"F4","midi":65,"time":14.086953000000003,"velocity":0.44881889763779526,"duration":0.5217390000000002},{"name":"E4","midi":64,"time":14.608692000000003,"velocity":0.44881889763779526,"duration":0.06521737499999958},{"name":"F4","midi":65,"time":14.673909375000003,"velocity":0.44881889763779526,"duration":0.06521737499999958},{"name":"E4","midi":64,"time":14.739126750000002,"velocity":0.44881889763779526,"duration":0.13043474999999916},{"name":"D4","midi":62,"time":14.869561500000001,"velocity":0.44881889763779526,"duration":0.2608695000000001},{"name":"C4","midi":60,"time":15.130431000000002,"velocity":0.44881889763779526,"duration":0.2608695000000001},{"name":"E4","midi":64,"time":15.391300500000002,"velocity":0.44881889763779526,"duration":0.2608695000000001},{"name":"D4","midi":62,"time":15.652170000000002,"velocity":0.44881889763779526,"duration":1.0434780000000003},{"name":"F4","midi":65,"time":17.739126000000002,"velocity":0.44881889763779526,"duration":0.5217390000000002},{"name":"D4","midi":62,"time":17.739126000000002,"velocity":0.44881889763779526,"duration":0.5217390000000002},{"name":"D4","midi":62,"time":18.260865000000003,"velocity":0.44881889763779526,"duration":0.5217390000000002},{"name":"A4","midi":69,"time":18.260865000000003,"velocity":0.44881889763779526,"duration":0.5217390000000002},{"name":"G4","midi":67,"time":18.782604000000003,"velocity":0.44881889763779526,"duration":0.7826084999999985},{"name":"D4","midi":62,"time":18.782604000000003,"velocity":0.44881889763779526,"duration":0.7826084999999985},{"name":"A#3","midi":58,"time":18.782604000000003,"velocity":0.44881889763779526,"duration":0.7826084999999985},{"name":"A4","midi":69,"time":19.5652125,"velocity":0.44881889763779526,"duration":0.2608694999999983},{"name":"D4","midi":62,"time":19.826082,"velocity":0.44881889763779526,"duration":0.391304250000001},{"name":"A#3","midi":58,"time":19.826082,"velocity":0.44881889763779526,"duration":0.391304250000001},{"name":"E4","midi":64,"time":20.21738625,"velocity":0.44881889763779526,"duration":0.391304250000001},{"name":"F4","midi":65,"time":20.6086905,"velocity":0.44881889763779526,"duration":0.2608694999999983},{"name":"F4","midi":65,"time":20.86956,"velocity":0.44881889763779526,"duration":1.0434780000000003},{"name":"A4","midi":69,"time":20.86956,"velocity":0.44881889763779526,"duration":1.0434780000000003},{"name":"A#3","midi":58,"time":20.86956,"velocity":0.44881889763779526,"duration":1.0434780000000003},{"name":"F4","midi":65,"time":21.913038,"velocity":0.44881889763779526,"duration":0.5217390000000002},{"name":"A#3","midi":58,"time":21.913038,"velocity":0.44881889763779526,"duration":0.5217390000000002},{"name":"A4","midi":69,"time":22.434777,"velocity":0.44881889763779526,"duration":0.5217390000000002},{"name":"C4","midi":60,"time":22.434777,"velocity":0.44881889763779526,"duration":0.5217390000000002},{"name":"G4","midi":67,"time":22.956516,"velocity":0.44881889763779526,"duration":0.7826084999999985},{"name":"D4","midi":62,"time":22.956516,"velocity":0.44881889763779526,"duration":0.7826084999999985},{"name":"A4","midi":69,"time":23.7391245,"velocity":0.44881889763779526,"duration":0.2608694999999983},{"name":"D4","midi":62,"time":23.999993999999997,"velocity":0.44881889763779526,"duration":0.391304250000001},{"name":"A#3","midi":58,"time":23.999993999999997,"velocity":0.44881889763779526,"duration":0.391304250000001},{"name":"E4","midi":64,"time":24.39129825,"velocity":0.44881889763779526,"duration":0.391304250000001},{"name":"C5","midi":72,"time":24.7826025,"velocity":0.44881889763779526,"duration":0.2608694999999983},{"name":"F4","midi":65,"time":25.043471999999998,"velocity":0.44881889763779526,"duration":1.0434780000000003},{"name":"A4","midi":69,"time":25.043471999999998,"velocity":0.44881889763779526,"duration":1.0434780000000003},{"name":"D4","midi":62,"time":25.043471999999998,"velocity":0.44881889763779526,"duration":1.0434780000000003},{"name":"D4","midi":62,"time":26.086949999999998,"velocity":0.44881889763779526,"duration":0.5217390000000002},{"name":"A4","midi":69,"time":26.086949999999998,"velocity":0.44881889763779526,"duration":0.5217390000000002},{"name":"E4","midi":64,"time":26.608689,"velocity":0.44881889763779526,"duration":0.5217390000000002},{"name":"A#4","midi":70,"time":26.608689,"velocity":0.44881889763779526,"duration":0.5217390000000002},{"name":"C5","midi":72,"time":27.130428,"velocity":0.44881889763779526,"duration":0.7826084999999985},{"name":"F4","midi":65,"time":27.130428,"velocity":0.44881889763779526,"duration":0.7826084999999985},{"name":"A#3","midi":58,"time":27.130428,"velocity":0.44881889763779526,"duration":0.7826084999999985},{"name":"D5","midi":74,"time":27.913036499999997,"velocity":0.44881889763779526,"duration":0.2608694999999983},{"name":"F4","midi":65,"time":28.173905999999995,"velocity":0.44881889763779526,"duration":0.391304250000001},{"name":"A#3","midi":58,"time":28.173905999999995,"velocity":0.44881889763779526,"duration":0.391304250000001},{"name":"G4","midi":67,"time":28.565210249999996,"velocity":0.44881889763779526,"duration":0.391304250000001},{"name":"A4","midi":69,"time":28.956514499999997,"velocity":0.44881889763779526,"duration":0.2608694999999983},{"name":"G4","midi":67,"time":29.217383999999996,"velocity":0.44881889763779526,"duration":0.7826084999999985},{"name":"C5","midi":72,"time":29.217383999999996,"velocity":0.44881889763779526,"duration":0.7826084999999985},{"name":"C4","midi":60,"time":29.217383999999996,"velocity":0.44881889763779526,"duration":0.7826084999999985},{"name":"D5","midi":74,"time":29.999992499999994,"velocity":0.44881889763779526,"duration":0.2608694999999983},{"name":"C4","midi":60,"time":30.260861999999992,"velocity":0.44881889763779526,"duration":0.391304250000001},{"name":"F4","midi":65,"time":30.260861999999992,"velocity":0.44881889763779526,"duration":0.391304250000001},{"name":"E5","midi":76,"time":30.652166249999993,"velocity":0.44881889763779526,"duration":0.391304250000001},{"name":"C5","midi":72,"time":31.043470499999994,"velocity":0.44881889763779526,"duration":0.2608694999999983},{"name":"A4","midi":69,"time":31.304339999999993,"velocity":0.44881889763779526,"duration":1.8260864999999988},{"name":"F4","midi":65,"time":31.304339999999993,"velocity":0.44881889763779526,"duration":1.8260864999999988},{"name":"D4","midi":62,"time":31.304339999999993,"velocity":0.44881889763779526,"duration":1.8260864999999988},{"name":"A#4","midi":70,"time":33.13042649999999,"velocity":0.44881889763779526,"duration":0.13043474999999916},{"name":"A4","midi":69,"time":33.26086124999999,"velocity":0.44881889763779526,"duration":0.13043474999999916},{"name":"G4","midi":67,"time":33.39129599999999,"velocity":0.44881889763779526,"duration":1.0434780000000003},{"name":"E4","midi":64,"time":33.39129599999999,"velocity":0.44881889763779526,"duration":1.0434780000000003},{"name":"F4","midi":65,"time":34.43477399999999,"velocity":0.44881889763779526,"duration":0.5217389999999966},{"name":"D4","midi":62,"time":34.43477399999999,"velocity":0.44881889763779526,"duration":0.5217389999999966},{"name":"D4","midi":62,"time":34.95651299999999,"velocity":0.44881889763779526,"duration":0.5217389999999966},{"name":"A4","midi":69,"time":34.95651299999999,"velocity":0.44881889763779526,"duration":0.5217389999999966},{"name":"G4","midi":67,"time":35.47825199999998,"velocity":0.44881889763779526,"duration":0.782608500000002},{"name":"D4","midi":62,"time":35.47825199999998,"velocity":0.44881889763779526,"duration":0.782608500000002},{"name":"A#3","midi":58,"time":35.47825199999998,"velocity":0.44881889763779526,"duration":0.782608500000002},{"name":"A4","midi":69,"time":36.260860499999986,"velocity":0.44881889763779526,"duration":0.2608694999999983},{"name":"D4","midi":62,"time":36.521729999999984,"velocity":0.44881889763779526,"duration":0.39130424999999747},{"name":"A#3","midi":58,"time":36.521729999999984,"velocity":0.44881889763779526,"duration":0.39130424999999747},{"name":"E4","midi":64,"time":36.91303424999998,"velocity":0.44881889763779526,"duration":0.39130424999999747},{"name":"F4","midi":65,"time":37.30433849999998,"velocity":0.44881889763779526,"duration":0.2608694999999983},{"name":"F4","midi":65,"time":37.56520799999998,"velocity":0.44881889763779526,"duration":1.0434780000000003},{"name":"A4","midi":69,"time":37.56520799999998,"velocity":0.44881889763779526,"duration":1.0434780000000003},{"name":"A#3","midi":58,"time":37.56520799999998,"velocity":0.44881889763779526,"duration":1.0434780000000003},{"name":"F4","midi":65,"time":38.60868599999998,"velocity":0.44881889763779526,"duration":0.5217389999999966},{"name":"A#3","midi":58,"time":38.60868599999998,"velocity":0.44881889763779526,"duration":0.5217389999999966},{"name":"A4","midi":69,"time":39.130424999999974,"velocity":0.44881889763779526,"duration":0.5217389999999966},{"name":"C4","midi":60,"time":39.130424999999974,"velocity":0.44881889763779526,"duration":0.5217389999999966},{"name":"G4","midi":67,"time":39.65216399999997,"velocity":0.44881889763779526,"duration":0.782608500000002},{"name":"D4","midi":62,"time":39.65216399999997,"velocity":0.44881889763779526,"duration":0.782608500000002},{"name":"A4","midi":69,"time":40.43477249999997,"velocity":0.44881889763779526,"duration":0.2608694999999983},{"name":"D4","midi":62,"time":40.69564199999997,"velocity":0.44881889763779526,"duration":0.39130424999999747},{"name":"A#3","midi":58,"time":40.69564199999997,"velocity":0.44881889763779526,"duration":0.39130424999999747},{"name":"E4","midi":64,"time":41.08694624999997,"velocity":0.44881889763779526,"duration":0.39130424999999747},{"name":"C5","midi":72,"time":41.478250499999966,"velocity":0.44881889763779526,"duration":0.2608694999999983},{"name":"F4","midi":65,"time":41.739119999999964,"velocity":0.44881889763779526,"duration":1.0434780000000003},{"name":"A4","midi":69,"time":41.739119999999964,"velocity":0.44881889763779526,"duration":1.0434780000000003},{"name":"D4","midi":62,"time":41.739119999999964,"velocity":0.44881889763779526,"duration":1.0434780000000003},{"name":"D4","midi":62,"time":42.782597999999965,"velocity":0.44881889763779526,"duration":0.5217389999999966},{"name":"A4","midi":69,"time":42.782597999999965,"velocity":0.44881889763779526,"duration":0.5217389999999966},{"name":"E4","midi":64,"time":43.30433699999996,"velocity":0.44881889763779526,"duration":0.5217389999999966},{"name":"A#4","midi":70,"time":43.30433699999996,"velocity":0.44881889763779526,"duration":0.5217389999999966},{"name":"C5","midi":72,"time":43.82607599999996,"velocity":0.44881889763779526,"duration":0.782608500000002},{"name":"F4","midi":65,"time":43.82607599999996,"velocity":0.44881889763779526,"duration":0.782608500000002},{"name":"A#3","midi":58,"time":43.82607599999996,"velocity":0.44881889763779526,"duration":0.782608500000002},{"name":"D5","midi":74,"time":44.60868449999996,"velocity":0.44881889763779526,"duration":0.2608694999999983},{"name":"F4","midi":65,"time":44.86955399999996,"velocity":0.44881889763779526,"duration":0.39130424999999747},{"name":"A#3","midi":58,"time":44.86955399999996,"velocity":0.44881889763779526,"duration":0.39130424999999747},{"name":"G4","midi":67,"time":45.260858249999956,"velocity":0.44881889763779526,"duration":0.39130424999999747},{"name":"A4","midi":69,"time":45.65216249999995,"velocity":0.44881889763779526,"duration":0.2608694999999983},{"name":"G4","midi":67,"time":45.91303199999995,"velocity":0.44881889763779526,"duration":0.782608500000002},{"name":"C5","midi":72,"time":45.91303199999995,"velocity":0.44881889763779526,"duration":0.782608500000002},{"name":"C4","midi":60,"time":45.91303199999995,"velocity":0.44881889763779526,"duration":0.782608500000002},{"name":"D5","midi":74,"time":46.69564049999995,"velocity":0.44881889763779526,"duration":0.2608694999999983},{"name":"C4","midi":60,"time":46.95650999999995,"velocity":0.44881889763779526,"duration":0.39130424999999747},{"name":"F4","midi":65,"time":46.95650999999995,"velocity":0.44881889763779526,"duration":0.39130424999999747},{"name":"E5","midi":76,"time":47.34781424999995,"velocity":0.44881889763779526,"duration":0.39130424999999747},{"name":"C5","midi":72,"time":47.73911849999995,"velocity":0.44881889763779526,"duration":0.2608694999999983},{"name":"A4","midi":69,"time":47.999987999999945,"velocity":0.44881889763779526,"duration":1.8260865000000024},{"name":"F4","midi":65,"time":47.999987999999945,"velocity":0.44881889763779526,"duration":1.8260865000000024},{"name":"D4","midi":62,"time":47.999987999999945,"velocity":0.44881889763779526,"duration":1.8260865000000024},{"name":"A#4","midi":70,"time":49.82607449999995,"velocity":0.44881889763779526,"duration":0.13043474999999916},{"name":"A4","midi":69,"time":49.95650924999995,"velocity":0.44881889763779526,"duration":0.13043474999999916},{"name":"G4","midi":67,"time":50.086943999999946,"velocity":0.44881889763779526,"duration":1.0434780000000003},{"name":"E4","midi":64,"time":50.086943999999946,"velocity":0.44881889763779526,"duration":1.0434780000000003},{"name":"F4","midi":65,"time":51.130421999999946,"velocity":0.44881889763779526,"duration":0.13043474999999916},{"name":"D4","midi":62,"time":51.130421999999946,"velocity":0.44881889763779526,"duration":0.13043474999999916},{"name":"E4","midi":64,"time":51.65216099999994,"velocity":0.44881889763779526,"duration":0.13043474999999916},{"name":"C4","midi":60,"time":51.65216099999994,"velocity":0.44881889763779526,"duration":0.13043474999999916},{"name":"A#3","midi":58,"time":52.17389999999994,"velocity":0.44881889763779526,"duration":0.13043474999999916},{"name":"D4","midi":62,"time":52.17389999999994,"velocity":0.44881889763779526,"duration":0.13043474999999916},{"name":"F4","midi":65,"time":52.30433474999994,"velocity":0.44881889763779526,"duration":0.13043474999999916},{"name":"E4","midi":64,"time":52.43476949999994,"velocity":0.44881889763779526,"duration":0.13043474999999916},{"name":"F4","midi":65,"time":52.56520424999994,"velocity":0.44881889763779526,"duration":0.13043474999999916},{"name":"D4","midi":62,"time":52.695638999999936,"velocity":0.44881889763779526,"duration":0.13043474999999916},{"name":"D4","midi":62,"time":53.08694324999993,"velocity":0.44881889763779526,"duration":0.2608694999999983},{"name":"A#3","midi":58,"time":53.08694324999993,"velocity":0.44881889763779526,"duration":0.2608694999999983},{"name":"E4","midi":64,"time":53.34781274999993,"velocity":0.44881889763779526,"duration":0.13043474999999916},{"name":"F4","midi":65,"time":53.47824749999993,"velocity":0.44881889763779526,"duration":0.13043474999999916},{"name":"C5","midi":72,"time":53.60868224999993,"velocity":0.44881889763779526,"duration":0.13043474999999916},{"name":"A4","midi":69,"time":53.73911699999993,"velocity":0.44881889763779526,"duration":0.5217389999999966},{"name":"C4","midi":60,"time":54.260855999999926,"velocity":0.44881889763779526,"duration":0.13043474999999916},{"name":"D4","midi":62,"time":54.260855999999926,"velocity":0.44881889763779526,"duration":0.13043474999999916},{"name":"F4","midi":65,"time":54.391290749999925,"velocity":0.44881889763779526,"duration":0.13043474999999916},{"name":"E4","midi":64,"time":54.521725499999924,"velocity":0.44881889763779526,"duration":0.13043474999999916},{"name":"F4","midi":65,"time":54.65216024999992,"velocity":0.44881889763779526,"duration":0.13043474999999916},{"name":"D4","midi":62,"time":54.78259499999992,"velocity":0.44881889763779526,"duration":0.13043474999999916},{"name":"D4","midi":62,"time":55.17389924999992,"velocity":0.44881889763779526,"duration":0.2608694999999983},{"name":"C4","midi":60,"time":55.17389924999992,"velocity":0.44881889763779526,"duration":0.2608694999999983},{"name":"E4","midi":64,"time":55.43476874999992,"velocity":0.44881889763779526,"duration":0.13043474999999916},{"name":"F4","midi":65,"time":55.56520349999992,"velocity":0.44881889763779526,"duration":0.13043474999999916},{"name":"C5","midi":72,"time":55.69563824999992,"velocity":0.44881889763779526,"duration":0.13043474999999916},{"name":"A4","midi":69,"time":55.826072999999916,"velocity":0.44881889763779526,"duration":0.5217389999999966},{"name":"A3","midi":57,"time":56.34781199999991,"velocity":0.44881889763779526,"duration":0.13043474999999916},{"name":"D4","midi":62,"time":56.34781199999991,"velocity":0.44881889763779526,"duration":0.13043474999999916},{"name":"F4","midi":65,"time":56.47824674999991,"velocity":0.44881889763779526,"duration":0.13043474999999916},{"name":"E4","midi":64,"time":56.60868149999991,"velocity":0.44881889763779526,"duration":0.13043474999999916},{"name":"F4","midi":65,"time":56.73911624999991,"velocity":0.44881889763779526,"duration":0.13043474999999916},{"name":"D4","midi":62,"time":56.86955099999991,"velocity":0.44881889763779526,"duration":0.13043474999999916},{"name":"D4","midi":62,"time":57.260855249999906,"velocity":0.44881889763779526,"duration":0.2608694999999983},{"name":"A3","midi":57,"time":57.260855249999906,"velocity":0.44881889763779526,"duration":0.2608694999999983},{"name":"E4","midi":64,"time":57.521724749999905,"velocity":0.44881889763779526,"duration":0.13043474999999916},{"name":"F4","midi":65,"time":57.652159499999904,"velocity":0.44881889763779526,"duration":0.13043474999999916},{"name":"C5","midi":72,"time":57.7825942499999,"velocity":0.44881889763779526,"duration":0.13043474999999916},{"name":"A4","midi":69,"time":57.9130289999999,"velocity":0.44881889763779526,"duration":0.5217389999999966},{"name":"A3","midi":57,"time":58.4347679999999,"velocity":0.44881889763779526,"duration":0.13043474999999916},{"name":"C4","midi":60,"time":58.4347679999999,"velocity":0.44881889763779526,"duration":0.13043474999999916},{"name":"G4","midi":67,"time":58.826072249999896,"velocity":0.44881889763779526,"duration":0.39130424999999747},{"name":"F4","midi":65,"time":59.217376499999894,"velocity":0.44881889763779526,"duration":0.2608694999999983},{"name":"A3","midi":57,"time":59.47824599999989,"velocity":0.44881889763779526,"duration":0.13043475000000626},{"name":"E4","midi":64,"time":59.47824599999989,"velocity":0.44881889763779526,"duration":0.06521737500000313},{"name":"E4","midi":64,"time":59.543463374999895,"velocity":0.44881889763779526,"duration":0.06521737500000313},{"name":"D4","midi":62,"time":59.6086807499999,"velocity":0.44881889763779526,"duration":0.2608694999999983},{"name":"C4","midi":60,"time":59.8695502499999,"velocity":0.44881889763779526,"duration":0.39130424999999747},{"name":"E4","midi":64,"time":60.260854499999894,"velocity":0.44881889763779526,"duration":0.2608694999999983},{"name":"A#3","midi":58,"time":60.52172399999989,"velocity":0.44881889763779526,"duration":0.13043474999999916},{"name":"D4","midi":62,"time":60.52172399999989,"velocity":0.44881889763779526,"duration":0.13043474999999916},{"name":"F4","midi":65,"time":60.65215874999989,"velocity":0.44881889763779526,"duration":0.13043474999999916},{"name":"E4","midi":64,"time":60.78259349999989,"velocity":0.44881889763779526,"duration":0.13043474999999916},{"name":"F4","midi":65,"time":60.91302824999989,"velocity":0.44881889763779526,"duration":0.13043474999999916},{"name":"D4","midi":62,"time":61.04346299999989,"velocity":0.44881889763779526,"duration":0.13043474999999916},{"name":"D4","midi":62,"time":61.43476724999989,"velocity":0.44881889763779526,"duration":0.2608694999999983},{"name":"A#3","midi":58,"time":61.43476724999989,"velocity":0.44881889763779526,"duration":0.2608694999999983},{"name":"E4","midi":64,"time":61.695636749999885,"velocity":0.44881889763779526,"duration":0.13043474999999916},{"name":"F4","midi":65,"time":61.826071499999884,"velocity":0.44881889763779526,"duration":0.13043474999999916},{"name":"C5","midi":72,"time":61.95650624999988,"velocity":0.44881889763779526,"duration":0.13043474999999916},{"name":"A4","midi":69,"time":62.08694099999988,"velocity":0.44881889763779526,"duration":0.5217389999999966},{"name":"C4","midi":60,"time":62.60867999999988,"velocity":0.44881889763779526,"duration":0.13043474999999916},{"name":"D4","midi":62,"time":62.60867999999988,"velocity":0.44881889763779526,"duration":0.13043474999999916},{"name":"F4","midi":65,"time":62.73911474999988,"velocity":0.44881889763779526,"duration":0.13043474999999916},{"name":"E4","midi":64,"time":62.86954949999988,"velocity":0.44881889763779526,"duration":0.13043474999999916},{"name":"F4","midi":65,"time":62.999984249999876,"velocity":0.44881889763779526,"duration":0.13043474999999916},{"name":"D4","midi":62,"time":63.130418999999875,"velocity":0.44881889763779526,"duration":0.13043474999999916},{"name":"D4","midi":62,"time":63.52172324999987,"velocity":0.44881889763779526,"duration":0.2608694999999983},{"name":"C4","midi":60,"time":63.52172324999987,"velocity":0.44881889763779526,"duration":0.2608694999999983},{"name":"E4","midi":64,"time":63.78259274999987,"velocity":0.44881889763779526,"duration":0.13043474999999916},{"name":"F4","midi":65,"time":63.91302749999987,"velocity":0.44881889763779526,"duration":0.13043475000000626},{"name":"C5","midi":72,"time":64.04346224999988,"velocity":0.44881889763779526,"duration":0.13043475000000626},{"name":"A4","midi":69,"time":64.17389699999988,"velocity":0.44881889763779526,"duration":0.5217389999999966},{"name":"A3","midi":57,"time":64.69563599999988,"velocity":0.44881889763779526,"duration":0.13043475000000626},{"name":"D4","midi":62,"time":64.69563599999988,"velocity":0.44881889763779526,"duration":0.13043475000000626},{"name":"F4","midi":65,"time":64.82607074999989,"velocity":0.44881889763779526,"duration":0.13043475000000626},{"name":"E4","midi":64,"time":64.95650549999989,"velocity":0.44881889763779526,"duration":0.13043475000000626},{"name":"F4","midi":65,"time":65.0869402499999,"velocity":0.44881889763779526,"duration":0.13043475000000626},{"name":"D4","midi":62,"time":65.2173749999999,"velocity":0.44881889763779526,"duration":0.13043475000000626},{"name":"D4","midi":62,"time":65.60867924999991,"velocity":0.44881889763779526,"duration":0.2608694999999983},{"name":"A3","midi":57,"time":65.60867924999991,"velocity":0.44881889763779526,"duration":0.2608694999999983},{"name":"E4","midi":64,"time":65.86954874999991,"velocity":0.44881889763779526,"duration":0.13043475000000626},{"name":"F4","midi":65,"time":65.99998349999991,"velocity":0.44881889763779526,"duration":0.13043475000000626},{"name":"C5","midi":72,"time":66.13041824999992,"velocity":0.44881889763779526,"duration":0.13043475000000626},{"name":"A4","midi":69,"time":66.26085299999993,"velocity":0.44881889763779526,"duration":0.5217389999999966},{"name":"C4","midi":60,"time":66.78259199999992,"velocity":0.44881889763779526,"duration":0.13043475000000626},{"name":"G4","midi":67,"time":67.17389624999993,"velocity":0.44881889763779526,"duration":0.39130425000000457},{"name":"F4","midi":65,"time":67.56520049999993,"velocity":0.44881889763779526,"duration":0.2608694999999983},{"name":"E4","midi":64,"time":67.82606999999993,"velocity":0.44881889763779526,"duration":0.06521737500000313},{"name":"E4","midi":64,"time":67.89128737499993,"velocity":0.44881889763779526,"duration":0.06521737500000313},{"name":"D4","midi":62,"time":67.95650474999994,"velocity":0.44881889763779526,"duration":0.2608694999999983},{"name":"C4","midi":60,"time":68.21737424999993,"velocity":0.44881889763779526,"duration":0.39130425000000457},{"name":"E4","midi":64,"time":68.60867849999994,"velocity":0.44881889763779526,"duration":0.2608694999999983},{"name":"A#4","midi":70,"time":68.86954799999994,"velocity":0.44881889763779526,"duration":0.13043475000000626},{"name":"D5","midi":74,"time":68.86954799999994,"velocity":0.44881889763779526,"duration":0.13043475000000626},{"name":"F5","midi":77,"time":68.99998274999994,"velocity":0.44881889763779526,"duration":0.13043475000000626},{"name":"E5","midi":76,"time":69.13041749999995,"velocity":0.44881889763779526,"duration":0.13043475000000626},{"name":"F5","midi":77,"time":69.26085224999996,"velocity":0.44881889763779526,"duration":0.13043475000000626},{"name":"D5","midi":74,"time":69.39128699999996,"velocity":0.44881889763779526,"duration":0.13043475000000626},{"name":"D5","midi":74,"time":69.78259124999997,"velocity":0.44881889763779526,"duration":0.2608694999999983},{"name":"A#4","midi":70,"time":69.78259124999997,"velocity":0.44881889763779526,"duration":0.2608694999999983},{"name":"E5","midi":76,"time":70.04346074999997,"velocity":0.44881889763779526,"duration":0.13043475000000626},{"name":"F5","midi":77,"time":70.17389549999997,"velocity":0.44881889763779526,"duration":0.13043475000000626},{"name":"C5","midi":72,"time":70.30433024999998,"velocity":0.44881889763779526,"duration":0.13043475000000626},{"name":"A5","midi":81,"time":70.43476499999998,"velocity":0.44881889763779526,"duration":0.5217389999999966},{"name":"C5","midi":72,"time":70.95650399999998,"velocity":0.44881889763779526,"duration":0.13043475000000626},{"name":"D5","midi":74,"time":70.95650399999998,"velocity":0.44881889763779526,"duration":0.13043475000000626},{"name":"F5","midi":77,"time":71.08693874999999,"velocity":0.44881889763779526,"duration":0.13043475000000626},{"name":"E5","midi":76,"time":71.2173735,"velocity":0.44881889763779526,"duration":0.13043475000000626},{"name":"F5","midi":77,"time":71.34780825,"velocity":0.44881889763779526,"duration":0.13043475000000626},{"name":"D5","midi":74,"time":71.478243,"velocity":0.44881889763779526,"duration":0.13043475000000626},{"name":"D5","midi":74,"time":71.86954725000001,"velocity":0.44881889763779526,"duration":0.2608694999999983},{"name":"C5","midi":72,"time":71.86954725000001,"velocity":0.44881889763779526,"duration":0.2608694999999983},{"name":"E5","midi":76,"time":72.13041675000001,"velocity":0.44881889763779526,"duration":0.13043475000000626},{"name":"F5","midi":77,"time":72.26085150000002,"velocity":0.44881889763779526,"duration":0.13043475000000626},{"name":"C5","midi":72,"time":72.39128625000002,"velocity":0.44881889763779526,"duration":0.13043475000000626},{"name":"A5","midi":81,"time":72.52172100000003,"velocity":0.44881889763779526,"duration":0.5217389999999966},{"name":"A4","midi":69,"time":73.04346000000002,"velocity":0.44881889763779526,"duration":0.13043475000000626},{"name":"D5","midi":74,"time":73.04346000000002,"velocity":0.44881889763779526,"duration":0.13043475000000626},{"name":"F5","midi":77,"time":73.17389475000003,"velocity":0.44881889763779526,"duration":0.13043475000000626},{"name":"E5","midi":76,"time":73.30432950000004,"velocity":0.44881889763779526,"duration":0.13043475000000626},{"name":"F5","midi":77,"time":73.43476425000004,"velocity":0.44881889763779526,"duration":0.13043475000000626},{"name":"D5","midi":74,"time":73.56519900000005,"velocity":0.44881889763779526,"duration":0.13043475000000626},{"name":"D5","midi":74,"time":73.95650325000005,"velocity":0.44881889763779526,"duration":0.2608694999999983},{"name":"A4","midi":69,"time":73.95650325000005,"velocity":0.44881889763779526,"duration":0.2608694999999983},{"name":"E5","midi":76,"time":74.21737275000005,"velocity":0.44881889763779526,"duration":0.13043475000000626},{"name":"F5","midi":77,"time":74.34780750000006,"velocity":0.44881889763779526,"duration":0.13043475000000626},{"name":"C5","midi":72,"time":74.47824225000006,"velocity":0.44881889763779526,"duration":0.13043475000000626},{"name":"A5","midi":81,"time":74.60867700000007,"velocity":0.44881889763779526,"duration":0.5217389999999966},{"name":"C5","midi":72,"time":75.13041600000007,"velocity":0.44881889763779526,"duration":0.13043475000000626},{"name":"E4","midi":64,"time":75.13041600000007,"velocity":0.44881889763779526,"duration":0.13043475000000626},{"name":"G5","midi":79,"time":75.52172025000007,"velocity":0.44881889763779526,"duration":0.39130425000000457},{"name":"F5","midi":77,"time":75.91302450000008,"velocity":0.44881889763779526,"duration":0.2608694999999983},{"name":"D5","midi":74,"time":76.17389400000008,"velocity":0.44881889763779526,"duration":0.06521737500000313},{"name":"E4","midi":64,"time":76.17389400000008,"velocity":0.44881889763779526,"duration":0.13043475000000626},{"name":"E5","midi":76,"time":76.23911137500008,"velocity":0.44881889763779526,"duration":0.06521737500000313},{"name":"D5","midi":74,"time":76.30432875000008,"velocity":0.44881889763779526,"duration":0.2608694999999983},{"name":"C5","midi":72,"time":76.56519825000008,"velocity":0.44881889763779526,"duration":0.39130425000000457},{"name":"E5","midi":76,"time":76.95650250000008,"velocity":0.44881889763779526,"duration":0.2608694999999983},{"name":"A#4","midi":70,"time":77.21737200000008,"velocity":0.44881889763779526,"duration":0.13043475000000626},{"name":"D5","midi":74,"time":77.21737200000008,"velocity":0.44881889763779526,"duration":0.13043475000000626},{"name":"F5","midi":77,"time":77.34780675000009,"velocity":0.44881889763779526,"duration":0.13043475000000626},{"name":"E5","midi":76,"time":77.4782415000001,"velocity":0.44881889763779526,"duration":0.13043475000000626},{"name":"F5","midi":77,"time":77.6086762500001,"velocity":0.44881889763779526,"duration":0.13043475000000626},{"name":"D5","midi":74,"time":77.73911100000011,"velocity":0.44881889763779526,"duration":0.13043475000000626},{"name":"D5","midi":74,"time":78.13041525000011,"velocity":0.44881889763779526,"duration":0.2608694999999983},{"name":"A#4","midi":70,"time":78.13041525000011,"velocity":0.44881889763779526,"duration":0.2608694999999983},{"name":"E5","midi":76,"time":78.39128475000011,"velocity":0.44881889763779526,"duration":0.13043475000000626},{"name":"F5","midi":77,"time":78.52171950000012,"velocity":0.44881889763779526,"duration":0.13043475000000626},{"name":"C5","midi":72,"time":78.65215425000012,"velocity":0.44881889763779526,"duration":0.13043475000000626},{"name":"A5","midi":81,"time":78.78258900000013,"velocity":0.44881889763779526,"duration":0.5217389999999966},{"name":"D5","midi":74,"time":79.30432800000013,"velocity":0.44881889763779526,"duration":0.13043475000000626},{"name":"C5","midi":72,"time":79.30432800000013,"velocity":0.44881889763779526,"duration":0.13043475000000626},{"name":"F5","midi":77,"time":79.43476275000013,"velocity":0.44881889763779526,"duration":0.13043475000000626},{"name":"E5","midi":76,"time":79.56519750000014,"velocity":0.44881889763779526,"duration":0.13043475000000626},{"name":"F5","midi":77,"time":79.69563225000014,"velocity":0.44881889763779526,"duration":0.13043475000000626},{"name":"D5","midi":74,"time":79.82606700000015,"velocity":0.44881889763779526,"duration":0.13043475000000626},{"name":"D5","midi":74,"time":80.21737125000016,"velocity":0.44881889763779526,"duration":0.2608694999999983},{"name":"C5","midi":72,"time":80.21737125000016,"velocity":0.44881889763779526,"duration":0.2608694999999983},{"name":"E5","midi":76,"time":80.47824075000015,"velocity":0.44881889763779526,"duration":0.13043475000000626},{"name":"F5","midi":77,"time":80.60867550000016,"velocity":0.44881889763779526,"duration":0.13043475000000626},{"name":"C5","midi":72,"time":80.73911025000017,"velocity":0.44881889763779526,"duration":0.13043475000000626},{"name":"A5","midi":81,"time":80.86954500000017,"velocity":0.44881889763779526,"duration":0.5217389999999966},{"name":"A4","midi":69,"time":81.39128400000017,"velocity":0.44881889763779526,"duration":0.13043475000000626},{"name":"D5","midi":74,"time":81.39128400000017,"velocity":0.44881889763779526,"duration":0.13043475000000626},{"name":"F5","midi":77,"time":81.52171875000018,"velocity":0.44881889763779526,"duration":0.13043475000000626},{"name":"E5","midi":76,"time":81.65215350000018,"velocity":0.44881889763779526,"duration":0.13043475000000626},{"name":"F5","midi":77,"time":81.78258825000019,"velocity":0.44881889763779526,"duration":0.13043475000000626},{"name":"D5","midi":74,"time":81.9130230000002,"velocity":0.44881889763779526,"duration":0.13043475000000626},{"name":"D5","midi":74,"time":82.3043272500002,"velocity":0.44881889763779526,"duration":0.2608694999999983},{"name":"A4","midi":69,"time":82.3043272500002,"velocity":0.44881889763779526,"duration":0.2608694999999983},{"name":"E5","midi":76,"time":82.5651967500002,"velocity":0.44881889763779526,"duration":0.13043475000000626},{"name":"F5","midi":77,"time":82.6956315000002,"velocity":0.44881889763779526,"duration":0.13043475000000626},{"name":"C5","midi":72,"time":82.82606625000021,"velocity":0.44881889763779526,"duration":0.13043475000000626},{"name":"A5","midi":81,"time":82.95650100000022,"velocity":0.44881889763779526,"duration":0.5217389999999966},{"name":"C#5","midi":73,"time":83.47824000000021,"velocity":0.44881889763779526,"duration":0.13043475000000626},{"name":"E4","midi":64,"time":83.47824000000021,"velocity":0.44881889763779526,"duration":0.13043475000000626},{"name":"G5","midi":79,"time":83.86954425000022,"velocity":0.44881889763779526,"duration":0.39130425000000457},{"name":"F5","midi":77,"time":84.26084850000022,"velocity":0.44881889763779526,"duration":0.2608694999999983},{"name":"D5","midi":74,"time":84.52171800000022,"velocity":0.44881889763779526,"duration":0.06521737500000313},{"name":"E4","midi":64,"time":84.52171800000022,"velocity":0.44881889763779526,"duration":0.13043475000000626},{"name":"E5","midi":76,"time":84.58693537500022,"velocity":0.44881889763779526,"duration":0.06521737500000313},{"name":"D5","midi":74,"time":84.65215275000023,"velocity":0.44881889763779526,"duration":0.2608694999999983},{"name":"C5","midi":72,"time":84.91302225000022,"velocity":0.44881889763779526,"duration":0.39130425000000457},{"name":"E5","midi":76,"time":85.30432650000023,"velocity":0.44881889763779526,"duration":0.2608694999999983},{"name":"A#4","midi":70,"time":85.56519600000023,"velocity":0.44881889763779526,"duration":0.13043475000000626},{"name":"D5","midi":74,"time":85.56519600000023,"velocity":0.44881889763779526,"duration":0.13043475000000626},{"name":"F5","midi":77,"time":85.69563075000023,"velocity":0.44881889763779526,"duration":0.13043475000000626},{"name":"E5","midi":76,"time":85.82606550000024,"velocity":0.44881889763779526,"duration":0.13043475000000626},{"name":"F5","midi":77,"time":85.95650025000025,"velocity":0.44881889763779526,"duration":0.13043475000000626},{"name":"D5","midi":74,"time":86.08693500000025,"velocity":0.44881889763779526,"duration":0.13043475000000626},{"name":"D5","midi":74,"time":86.47823925000026,"velocity":0.44881889763779526,"duration":0.2608694999999983},{"name":"A#4","midi":70,"time":86.47823925000026,"velocity":0.44881889763779526,"duration":0.2608694999999983},{"name":"E5","midi":76,"time":86.73910875000026,"velocity":0.44881889763779526,"duration":0.13043475000000626},{"name":"F5","midi":77,"time":86.86954350000026,"velocity":0.44881889763779526,"duration":0.13043475000000626},{"name":"C5","midi":72,"time":86.99997825000027,"velocity":0.44881889763779526,"duration":0.13043475000000626},{"name":"A5","midi":81,"time":87.13041300000027,"velocity":0.44881889763779526,"duration":0.5217389999999966},{"name":"C5","midi":72,"time":87.65215200000027,"velocity":0.44881889763779526,"duration":0.13043475000000626},{"name":"D5","midi":74,"time":87.65215200000027,"velocity":0.44881889763779526,"duration":0.13043475000000626},{"name":"F5","midi":77,"time":87.78258675000028,"velocity":0.44881889763779526,"duration":0.13043475000000626},{"name":"E5","midi":76,"time":87.91302150000028,"velocity":0.44881889763779526,"duration":0.13043475000000626},{"name":"F5","midi":77,"time":88.04345625000029,"velocity":0.44881889763779526,"duration":0.13043475000000626},{"name":"D5","midi":74,"time":88.1738910000003,"velocity":0.44881889763779526,"duration":0.13043475000000626},{"name":"D5","midi":74,"time":88.5651952500003,"velocity":0.44881889763779526,"duration":0.2608694999999983},{"name":"C5","midi":72,"time":88.5651952500003,"velocity":0.44881889763779526,"duration":0.2608694999999983},{"name":"E5","midi":76,"time":88.8260647500003,"velocity":0.44881889763779526,"duration":0.13043475000000626},{"name":"F5","midi":77,"time":88.9564995000003,"velocity":0.44881889763779526,"duration":0.13043475000000626},{"name":"C5","midi":72,"time":89.08693425000031,"velocity":0.44881889763779526,"duration":0.13043475000000626},{"name":"A5","midi":81,"time":89.21736900000032,"velocity":0.44881889763779526,"duration":0.5217389999999966},{"name":"A4","midi":69,"time":89.73910800000031,"velocity":0.44881889763779526,"duration":0.13043475000000626},{"name":"D5","midi":74,"time":89.73910800000031,"velocity":0.44881889763779526,"duration":0.13043475000000626},{"name":"F5","midi":77,"time":89.86954275000032,"velocity":0.44881889763779526,"duration":0.13043475000000626},{"name":"E5","midi":76,"time":89.99997750000033,"velocity":0.44881889763779526,"duration":0.13043475000000626},{"name":"F5","midi":77,"time":90.13041225000033,"velocity":0.44881889763779526,"duration":0.13043475000000626},{"name":"D5","midi":74,"time":90.26084700000034,"velocity":0.44881889763779526,"duration":0.13043475000000626},{"name":"D5","midi":74,"time":90.65215125000034,"velocity":0.44881889763779526,"duration":0.2608694999999983},{"name":"A4","midi":69,"time":90.65215125000034,"velocity":0.44881889763779526,"duration":0.2608694999999983},{"name":"E5","midi":76,"time":90.91302075000034,"velocity":0.44881889763779526,"duration":0.13043475000000626},{"name":"F5","midi":77,"time":91.04345550000035,"velocity":0.44881889763779526,"duration":0.13043475000000626},{"name":"C5","midi":72,"time":91.17389025000035,"velocity":0.44881889763779526,"duration":0.13043475000000626},{"name":"A5","midi":81,"time":91.30432500000036,"velocity":0.44881889763779526,"duration":0.5217389999999966},{"name":"C5","midi":72,"time":91.82606400000036,"velocity":0.44881889763779526,"duration":0.13043475000000626},{"name":"E4","midi":64,"time":91.82606400000036,"velocity":0.44881889763779526,"duration":0.13043475000000626},{"name":"G5","midi":79,"time":92.21736825000036,"velocity":0.44881889763779526,"duration":0.39130425000000457},{"name":"F5","midi":77,"time":92.60867250000037,"velocity":0.44881889763779526,"duration":0.2608694999999983},{"name":"E5","midi":76,"time":92.86954200000037,"velocity":0.44881889763779526,"duration":0.06521737500000313},{"name":"E4","midi":64,"time":92.86954200000037,"velocity":0.44881889763779526,"duration":0.13043475000000626},{"name":"E5","midi":76,"time":92.93475937500037,"velocity":0.44881889763779526,"duration":0.06521737500000313},{"name":"D5","midi":74,"time":92.99997675000037,"velocity":0.44881889763779526,"duration":0.2608694999999983},{"name":"C5","midi":72,"time":93.26084625000037,"velocity":0.44881889763779526,"duration":0.39130425000000457},{"name":"E5","midi":76,"time":93.65215050000037,"velocity":0.44881889763779526,"duration":0.2608694999999983},{"name":"A#4","midi":70,"time":93.91302000000037,"velocity":0.44881889763779526,"duration":0.13043475000000626},{"name":"D5","midi":74,"time":93.91302000000037,"velocity":0.44881889763779526,"duration":0.13043475000000626},{"name":"F5","midi":77,"time":94.04345475000038,"velocity":0.44881889763779526,"duration":0.13043475000000626},{"name":"E5","midi":76,"time":94.17388950000039,"velocity":0.44881889763779526,"duration":0.13043475000000626},{"name":"F5","midi":77,"time":94.30432425000039,"velocity":0.44881889763779526,"duration":0.13043475000000626},{"name":"D5","midi":74,"time":94.4347590000004,"velocity":0.44881889763779526,"duration":0.13043475000000626},{"name":"D5","midi":74,"time":94.8260632500004,"velocity":0.44881889763779526,"duration":0.2608694999999983},{"name":"A#4","midi":70,"time":94.8260632500004,"velocity":0.44881889763779526,"duration":0.2608694999999983},{"name":"E5","midi":76,"time":95.0869327500004,"velocity":0.44881889763779526,"duration":0.13043475000000626},{"name":"F5","midi":77,"time":95.2173675000004,"velocity":0.44881889763779526,"duration":0.13043475000000626},{"name":"C5","midi":72,"time":95.34780225000041,"velocity":0.44881889763779526,"duration":0.13043475000000626},{"name":"A5","midi":81,"time":95.47823700000042,"velocity":0.44881889763779526,"duration":0.5217389999999966},{"name":"D5","midi":74,"time":95.99997600000042,"velocity":0.44881889763779526,"duration":0.13043475000000626},{"name":"C5","midi":72,"time":95.99997600000042,"velocity":0.44881889763779526,"duration":0.13043475000000626},{"name":"F5","midi":77,"time":96.13041075000042,"velocity":0.44881889763779526,"duration":0.13043475000000626},{"name":"E5","midi":76,"time":96.26084550000043,"velocity":0.44881889763779526,"duration":0.13043475000000626},{"name":"F5","midi":77,"time":96.39128025000043,"velocity":0.44881889763779526,"duration":0.13043475000000626},{"name":"D5","midi":74,"time":96.52171500000044,"velocity":0.44881889763779526,"duration":0.13043475000000626},{"name":"D5","midi":74,"time":96.91301925000045,"velocity":0.44881889763779526,"duration":0.2608694999999983},{"name":"C5","midi":72,"time":96.91301925000045,"velocity":0.44881889763779526,"duration":0.2608694999999983},{"name":"E5","midi":76,"time":97.17388875000044,"velocity":0.44881889763779526,"duration":0.13043475000000626},{"name":"F5","midi":77,"time":97.30432350000045,"velocity":0.44881889763779526,"duration":0.13043475000000626},{"name":"C5","midi":72,"time":97.43475825000046,"velocity":0.44881889763779526,"duration":0.13043475000000626},{"name":"A5","midi":81,"time":97.56519300000046,"velocity":0.44881889763779526,"duration":0.5217389999999966},{"name":"A4","midi":69,"time":98.08693200000046,"velocity":0.44881889763779526,"duration":0.13043475000000626},{"name":"D5","midi":74,"time":98.08693200000046,"velocity":0.44881889763779526,"duration":0.13043475000000626},{"name":"F5","midi":77,"time":98.21736675000047,"velocity":0.44881889763779526,"duration":0.13043475000000626},{"name":"E5","midi":76,"time":98.34780150000047,"velocity":0.44881889763779526,"duration":0.13043475000000626},{"name":"F5","midi":77,"time":98.47823625000048,"velocity":0.44881889763779526,"duration":0.13043475000000626},{"name":"D5","midi":74,"time":98.60867100000048,"velocity":0.44881889763779526,"duration":0.13043475000000626},{"name":"D5","midi":74,"time":98.99997525000049,"velocity":0.44881889763779526,"duration":0.2608694999999983},{"name":"A4","midi":69,"time":98.99997525000049,"velocity":0.44881889763779526,"duration":0.2608694999999983},{"name":"E5","midi":76,"time":99.26084475000049,"velocity":0.44881889763779526,"duration":0.13043475000000626},{"name":"F5","midi":77,"time":99.3912795000005,"velocity":0.44881889763779526,"duration":0.13043475000000626},{"name":"C5","midi":72,"time":99.5217142500005,"velocity":0.44881889763779526,"duration":0.13043475000000626},{"name":"A5","midi":81,"time":99.6521490000005,"velocity":0.44881889763779526,"duration":0.5217389999999966},{"name":"C#5","midi":73,"time":100.1738880000005,"velocity":0.44881889763779526,"duration":0.13043475000000626},{"name":"E4","midi":64,"time":100.1738880000005,"velocity":0.44881889763779526,"duration":0.13043475000000626},{"name":"G5","midi":79,"time":100.5651922500005,"velocity":0.44881889763779526,"duration":0.39130425000000457},{"name":"F5","midi":77,"time":100.95649650000051,"velocity":0.44881889763779526,"duration":0.2608694999999983},{"name":"D5","midi":74,"time":101.21736600000051,"velocity":0.44881889763779526,"duration":0.06521737500000313},{"name":"E4","midi":64,"time":101.21736600000051,"velocity":0.44881889763779526,"duration":0.13043475000000626},{"name":"E5","midi":76,"time":101.28258337500051,"velocity":0.44881889763779526,"duration":0.06521737500000313},{"name":"D5","midi":74,"time":101.34780075000052,"velocity":0.44881889763779526,"duration":0.2608694999999983},{"name":"C5","midi":72,"time":101.60867025000051,"velocity":0.44881889763779526,"duration":0.39130425000000457},{"name":"E5","midi":76,"time":101.99997450000052,"velocity":0.44881889763779526,"duration":0.2608694999999983},{"name":"F4","midi":65,"time":102.26084400000052,"velocity":0.44881889763779526,"duration":1.565217000000004},{"name":"A4","midi":69,"time":102.32606137500052,"velocity":0.44881889763779526,"duration":1.499999625000001},{"name":"D5","midi":74,"time":102.39127875000052,"velocity":0.44881889763779526,"duration":1.4347822499999978},{"name":"A4","midi":69,"time":103.82606100000052,"velocity":0.44881889763779526,"duration":0.2608694999999983},{"name":"C5","midi":72,"time":104.08693050000052,"velocity":0.44881889763779526,"duration":0.2608694999999983},{"name":"G4","midi":67,"time":104.34780000000052,"velocity":0.44881889763779526,"duration":0.7826085000000091},{"name":"C5","midi":72,"time":104.41301737500052,"velocity":0.44881889763779526,"duration":0.717391125000006},{"name":"D5","midi":74,"time":104.47823475000052,"velocity":0.44881889763779526,"duration":0.6521737500000029},{"name":"F5","midi":77,"time":105.13040850000053,"velocity":0.44881889763779526,"duration":0.2608694999999983},{"name":"G5","midi":79,"time":105.39127800000053,"velocity":0.44881889763779526,"duration":0.13043475000000626},{"name":"F5","midi":77,"time":105.52171275000053,"velocity":0.44881889763779526,"duration":0.2608694999999983},{"name":"E5","midi":76,"time":105.78258225000053,"velocity":0.44881889763779526,"duration":0.39130425000000457},{"name":"F5","midi":77,"time":106.17388650000053,"velocity":0.44881889763779526,"duration":0.2608694999999983},{"name":"F4","midi":65,"time":106.43475600000053,"velocity":0.44881889763779526,"duration":1.0434780000000075},{"name":"A4","midi":69,"time":106.49997337500054,"velocity":0.44881889763779526,"duration":0.9782606250000043},{"name":"D5","midi":74,"time":106.56519075000054,"velocity":0.44881889763779526,"duration":0.9130432500000012},{"name":"A4","midi":69,"time":107.47823400000054,"velocity":0.44881889763779526,"duration":0.2608694999999983},{"name":"A4","midi":69,"time":107.73910350000054,"velocity":0.44881889763779526,"duration":0.13043475000000626},{"name":"C5","midi":72,"time":107.86953825000055,"velocity":0.44881889763779526,"duration":0.2608694999999983},{"name":"C5","midi":72,"time":108.13040775000054,"velocity":0.44881889763779526,"duration":0.13043475000000626},{"name":"F5","midi":77,"time":108.26084250000055,"velocity":0.44881889763779526,"duration":0.2608694999999983},{"name":"G4","midi":67,"time":108.52171200000055,"velocity":0.44881889763779526,"duration":1.0434780000000075},{"name":"C5","midi":72,"time":108.58692937500055,"velocity":0.44881889763779526,"duration":0.9782606250000043},{"name":"E5","midi":76,"time":108.65214675000055,"velocity":0.44881889763779526,"duration":0.9130432500000012},{"name":"A4","midi":69,"time":109.56519000000056,"velocity":0.44881889763779526,"duration":0.39130425000000457},{"name":"D5","midi":74,"time":109.56519000000056,"velocity":0.44881889763779526,"duration":0.39130425000000457},{"name":"F4","midi":65,"time":109.56519000000056,"velocity":0.44881889763779526,"duration":0.39130425000000457},{"name":"A4","midi":69,"time":109.95649425000056,"velocity":0.44881889763779526,"duration":0.39130425000000457},{"name":"C5","midi":72,"time":109.95649425000056,"velocity":0.44881889763779526,"duration":0.39130425000000457},{"name":"F5","midi":77,"time":109.95649425000056,"velocity":0.44881889763779526,"duration":0.39130425000000457},{"name":"A#4","midi":70,"time":110.34779850000056,"velocity":0.44881889763779526,"duration":0.2608694999999983},{"name":"D5","midi":74,"time":110.34779850000056,"velocity":0.44881889763779526,"duration":0.2608694999999983},{"name":"G5","midi":79,"time":110.34779850000056,"velocity":0.44881889763779526,"duration":0.2608694999999983},{"name":"A#4","midi":70,"time":110.60866800000056,"velocity":0.44881889763779526,"duration":1.565217000000004},{"name":"D5","midi":74,"time":110.60866800000056,"velocity":0.44881889763779526,"duration":1.565217000000004},{"name":"A5","midi":81,"time":110.60866800000056,"velocity":0.44881889763779526,"duration":1.565217000000004},{"name":"C5","midi":72,"time":112.17388500000057,"velocity":0.44881889763779526,"duration":0.2608694999999983},{"name":"F5","midi":77,"time":112.17388500000057,"velocity":0.44881889763779526,"duration":0.2608694999999983},{"name":"C5","midi":72,"time":112.43475450000057,"velocity":0.44881889763779526,"duration":0.2608694999999983},{"name":"G5","midi":79,"time":112.43475450000057,"velocity":0.44881889763779526,"duration":0.2608694999999983},{"name":"C5","midi":72,"time":112.69562400000056,"velocity":0.44881889763779526,"duration":0.7826084999999949},{"name":"E5","midi":76,"time":112.69562400000056,"velocity":0.44881889763779526,"duration":0.7826084999999949},{"name":"A5","midi":81,"time":112.69562400000056,"velocity":0.44881889763779526,"duration":0.7826084999999949},{"name":"G5","midi":79,"time":113.47823250000056,"velocity":0.44881889763779526,"duration":0.2608694999999983},{"name":"F5","midi":77,"time":113.73910200000056,"velocity":0.44881889763779526,"duration":0.2608694999999983},{"name":"C5","midi":72,"time":113.73910200000056,"velocity":0.44881889763779526,"duration":0.2608694999999983},{"name":"G5","midi":79,"time":113.99997150000056,"velocity":0.44881889763779526,"duration":0.13043475000000626},{"name":"C5","midi":72,"time":114.13040625000056,"velocity":0.44881889763779526,"duration":0.39130425000000457},{"name":"E5","midi":76,"time":114.13040625000056,"velocity":0.44881889763779526,"duration":0.39130425000000457},{"name":"C5","midi":72,"time":114.52171050000057,"velocity":0.44881889763779526,"duration":0.2608694999999983},{"name":"A4","midi":69,"time":114.78258000000056,"velocity":0.44881889763779526,"duration":1.565217000000004},{"name":"D5","midi":74,"time":114.78258000000056,"velocity":0.44881889763779526,"duration":1.565217000000004},{"name":"F4","midi":65,"time":114.78258000000056,"velocity":0.44881889763779526,"duration":1.565217000000004},{"name":"A#4","midi":70,"time":116.34779700000057,"velocity":0.44881889763779526,"duration":0.2608694999999983},{"name":"A#4","midi":70,"time":116.60866650000057,"velocity":0.44881889763779526,"duration":0.2608694999999983},{"name":"C5","midi":72,"time":116.86953600000056,"velocity":0.44881889763779526,"duration":0.7826084999999949},{"name":"E5","midi":76,"time":116.86953600000056,"velocity":0.44881889763779526,"duration":0.7826084999999949},{"name":"G5","midi":79,"time":117.65214450000056,"velocity":0.44881889763779526,"duration":0.2608694999999983},{"name":"F5","midi":77,"time":117.91301400000056,"velocity":0.44881889763779526,"duration":0.2608694999999983},{"name":"D5","midi":74,"time":117.91301400000056,"velocity":0.44881889763779526,"duration":0.2608694999999983},{"name":"G5","midi":79,"time":118.17388350000056,"velocity":0.44881889763779526,"duration":0.13043475000000626},{"name":"D5","midi":74,"time":118.30431825000056,"velocity":0.44881889763779526,"duration":0.39130425000000457},{"name":"E5","midi":76,"time":118.30431825000056,"velocity":0.44881889763779526,"duration":0.39130425000000457},{"name":"C5","midi":72,"time":118.69562250000057,"velocity":0.44881889763779526,"duration":0.2608694999999983},{"name":"A#4","midi":70,"time":118.95649200000057,"velocity":0.44881889763779526,"duration":1.565217000000004},{"name":"D5","midi":74,"time":118.95649200000057,"velocity":0.44881889763779526,"duration":1.565217000000004},{"name":"A5","midi":81,"time":118.95649200000057,"velocity":0.44881889763779526,"duration":1.565217000000004},{"name":"A#4","midi":70,"time":120.52170900000057,"velocity":0.44881889763779526,"duration":0.2608694999999983},{"name":"F5","midi":77,"time":120.52170900000057,"velocity":0.44881889763779526,"duration":0.2608694999999983},{"name":"A#4","midi":70,"time":120.78257850000057,"velocity":0.44881889763779526,"duration":0.2608694999999983},{"name":"G5","midi":79,"time":120.78257850000057,"velocity":0.44881889763779526,"duration":0.2608694999999983},{"name":"C5","midi":72,"time":121.04344800000057,"velocity":0.44881889763779526,"duration":0.7826084999999949},{"name":"E5","midi":76,"time":121.04344800000057,"velocity":0.44881889763779526,"duration":0.7826084999999949},{"name":"A5","midi":81,"time":121.04344800000057,"velocity":0.44881889763779526,"duration":0.7826084999999949},{"name":"G5","midi":79,"time":121.82605650000056,"velocity":0.44881889763779526,"duration":0.2608694999999983},{"name":"F5","midi":77,"time":122.08692600000056,"velocity":0.44881889763779526,"duration":0.2608694999999983},{"name":"D5","midi":74,"time":122.08692600000056,"velocity":0.44881889763779526,"duration":0.2608694999999983},{"name":"G5","midi":79,"time":122.34779550000056,"velocity":0.44881889763779526,"duration":0.13043475000000626},{"name":"D5","midi":74,"time":122.47823025000056,"velocity":0.44881889763779526,"duration":0.39130425000000457},{"name":"E5","midi":76,"time":122.47823025000056,"velocity":0.44881889763779526,"duration":0.39130425000000457},{"name":"C5","midi":72,"time":122.86953450000057,"velocity":0.44881889763779526,"duration":0.2608694999999983},{"name":"F4","midi":65,"time":123.13040400000057,"velocity":0.44881889763779526,"duration":2.0869560000000007},{"name":"A4","midi":69,"time":123.13040400000057,"velocity":0.44881889763779526,"duration":2.0869560000000007},{"name":"D5","midi":74,"time":123.13040400000057,"velocity":0.44881889763779526,"duration":2.0869560000000007},{"name":"C5","midi":72,"time":125.21736000000057,"velocity":0.44881889763779526,"duration":0.13043475000000626},{"name":"C6","midi":84,"time":125.21736000000057,"velocity":0.44881889763779526,"duration":0.13043475000000626},{"name":"C4","midi":60,"time":125.21736000000057,"velocity":0.44881889763779526,"duration":0.13043475000000626},{"name":"A4","midi":69,"time":125.34779475000057,"velocity":0.44881889763779526,"duration":0.13043475000000626},{"name":"A5","midi":81,"time":125.34779475000057,"velocity":0.44881889763779526,"duration":0.13043475000000626},{"name":"A3","midi":57,"time":125.34779475000057,"velocity":0.44881889763779526,"duration":0.13043475000000626},{"name":"C5","midi":72,"time":125.47822950000058,"velocity":0.44881889763779526,"duration":0.13043475000000626},{"name":"C6","midi":84,"time":125.47822950000058,"velocity":0.44881889763779526,"duration":0.13043475000000626},{"name":"C4","midi":60,"time":125.47822950000058,"velocity":0.44881889763779526,"duration":0.13043475000000626},{"name":"A4","midi":69,"time":125.60866425000059,"velocity":0.44881889763779526,"duration":0.13043475000000626},{"name":"A5","midi":81,"time":125.60866425000059,"velocity":0.44881889763779526,"duration":0.13043475000000626},{"name":"A3","midi":57,"time":125.60866425000059,"velocity":0.44881889763779526,"duration":0.13043475000000626},{"name":"C5","midi":72,"time":125.73909900000059,"velocity":0.44881889763779526,"duration":0.2608694999999983},{"name":"C6","midi":84,"time":125.73909900000059,"velocity":0.44881889763779526,"duration":0.2608694999999983},{"name":"C4","midi":60,"time":125.73909900000059,"velocity":0.44881889763779526,"duration":0.2608694999999983},{"name":"F5","midi":77,"time":125.99996850000059,"velocity":0.44881889763779526,"duration":0.2608694999999983},{"name":"F6","midi":89,"time":125.99996850000059,"velocity":0.44881889763779526,"duration":0.2608694999999983},{"name":"F4","midi":65,"time":125.99996850000059,"velocity":0.44881889763779526,"duration":0.2608694999999983},{"name":"E5","midi":76,"time":126.26083800000059,"velocity":0.44881889763779526,"duration":0.2608694999999983},{"name":"E6","midi":88,"time":126.26083800000059,"velocity":0.44881889763779526,"duration":0.2608694999999983},{"name":"E4","midi":64,"time":126.26083800000059,"velocity":0.44881889763779526,"duration":0.2608694999999983},{"name":"D5","midi":74,"time":126.52170750000059,"velocity":0.44881889763779526,"duration":0.13043475000000626},{"name":"D6","midi":86,"time":126.52170750000059,"velocity":0.44881889763779526,"duration":0.13043475000000626},{"name":"D4","midi":62,"time":126.52170750000059,"velocity":0.44881889763779526,"duration":0.13043475000000626},{"name":"C#5","midi":73,"time":126.6521422500006,"velocity":0.44881889763779526,"duration":0.39130425000000457},{"name":"C#6","midi":85,"time":126.6521422500006,"velocity":0.44881889763779526,"duration":0.39130425000000457},{"name":"C#4","midi":61,"time":126.6521422500006,"velocity":0.44881889763779526,"duration":0.39130425000000457},{"name":"E5","midi":76,"time":127.0434465000006,"velocity":0.44881889763779526,"duration":0.2608694999999983},{"name":"E6","midi":88,"time":127.0434465000006,"velocity":0.44881889763779526,"duration":0.2608694999999983},{"name":"E4","midi":64,"time":127.0434465000006,"velocity":0.44881889763779526,"duration":0.2608694999999983},{"name":"F6","midi":89,"time":127.3043160000006,"velocity":0.44881889763779526,"duration":0.13043475000000626},{"name":"E6","midi":88,"time":127.4347507500006,"velocity":0.44881889763779526,"duration":0.13043475000000626},{"name":"D6","midi":86,"time":127.56518550000061,"velocity":0.44881889763779526,"duration":0.13043475000000626},{"name":"D6","midi":86,"time":127.56518550000061,"velocity":0.44881889763779526,"duration":0.13043475000000626},{"name":"C6","midi":84,"time":127.69562025000062,"velocity":0.44881889763779526,"duration":0.13043475000000626},{"name":"D6","midi":86,"time":127.82605500000062,"velocity":0.44881889763779526,"duration":0.2608695000000125},{"name":"A5","midi":81,"time":128.08692450000063,"velocity":0.44881889763779526,"duration":0.2608695000000125},{"name":"B5","midi":83,"time":128.34779400000065,"velocity":0.44881889763779526,"duration":0.39130424999999036},{"name":"G5","midi":79,"time":128.73909825000064,"velocity":0.44881889763779526,"duration":0.39130424999999036},{"name":"D5","midi":74,"time":129.13040250000063,"velocity":0.44881889763779526,"duration":0.13043475000000626},{"name":"E5","midi":76,"time":129.26083725000063,"velocity":0.44881889763779526,"duration":0.13043475000000626},{"name":"F5","midi":77,"time":129.39127200000064,"velocity":0.44881889763779526,"duration":0.39130424999999036},{"name":"G5","midi":79,"time":129.78257625000063,"velocity":0.44881889763779526,"duration":0.2608695000000125},{"name":"D5","midi":74,"time":130.04344575000064,"velocity":0.44881889763779526,"duration":0.13043475000000626},{"name":"C6","midi":84,"time":130.17388050000065,"velocity":0.44881889763779526,"duration":0.2608695000000125},{"name":"A5","midi":81,"time":130.43475000000066,"velocity":0.44881889763779526,"duration":1.0434779999999932},{"name":"F6","midi":89,"time":131.47822800000066,"velocity":0.44881889763779526,"duration":0.13043475000000626},{"name":"E6","midi":88,"time":131.60866275000066,"velocity":0.44881889763779526,"duration":0.13043475000000626},{"name":"D6","midi":86,"time":131.73909750000067,"velocity":0.44881889763779526,"duration":0.13043475000000626},{"name":"D6","midi":86,"time":131.73909750000067,"velocity":0.44881889763779526,"duration":0.13043475000000626},{"name":"C6","midi":84,"time":131.86953225000067,"velocity":0.44881889763779526,"duration":0.13043475000000626},{"name":"D6","midi":86,"time":131.99996700000068,"velocity":0.44881889763779526,"duration":0.2608695000000125},{"name":"A5","midi":81,"time":132.2608365000007,"velocity":0.44881889763779526,"duration":0.2608695000000125},{"name":"B5","midi":83,"time":132.5217060000007,"velocity":0.44881889763779526,"duration":0.39130424999999036},{"name":"G5","midi":79,"time":132.9130102500007,"velocity":0.44881889763779526,"duration":0.39130424999999036},{"name":"D5","midi":74,"time":133.3043145000007,"velocity":0.44881889763779526,"duration":0.13043475000000626},{"name":"E5","midi":76,"time":133.4347492500007,"velocity":0.44881889763779526,"duration":0.13043475000000626},{"name":"F5","midi":77,"time":133.5651840000007,"velocity":0.44881889763779526,"duration":0.39130424999999036},{"name":"E5","midi":76,"time":133.9564882500007,"velocity":0.44881889763779526,"duration":0.2608695000000125},{"name":"C5","midi":72,"time":134.2173577500007,"velocity":0.44881889763779526,"duration":0.13043475000000626},{"name":"E5","midi":76,"time":134.3477925000007,"velocity":0.44881889763779526,"duration":0.2608695000000125},{"name":"D5","midi":74,"time":134.60866200000072,"velocity":0.44881889763779526,"duration":1.0434779999999932},{"name":"A5","midi":81,"time":135.6521400000007,"velocity":0.44881889763779526,"duration":0.13043475000000626},{"name":"F6","midi":89,"time":135.6521400000007,"velocity":0.44881889763779526,"duration":0.13043475000000626},{"name":"G5","midi":79,"time":135.78257475000072,"velocity":0.44881889763779526,"duration":0.13043475000000626},{"name":"E6","midi":88,"time":135.78257475000072,"velocity":0.44881889763779526,"duration":0.13043475000000626},{"name":"F5","midi":77,"time":135.91300950000073,"velocity":0.44881889763779526,"duration":0.13043475000000626},{"name":"F5","midi":77,"time":135.91300950000073,"velocity":0.44881889763779526,"duration":0.13043475000000626},{"name":"D6","midi":86,"time":135.91300950000073,"velocity":0.44881889763779526,"duration":0.13043475000000626},{"name":"E5","midi":76,"time":136.04344425000073,"velocity":0.44881889763779526,"duration":0.13043475000000626},{"name":"C6","midi":84,"time":136.04344425000073,"velocity":0.44881889763779526,"duration":0.13043475000000626},{"name":"E5","midi":76,"time":136.17387900000074,"velocity":0.44881889763779526,"duration":0.2608695000000125},{"name":"D6","midi":86,"time":136.17387900000074,"velocity":0.44881889763779526,"duration":0.2608695000000125},{"name":"A5","midi":81,"time":136.43474850000075,"velocity":0.44881889763779526,"duration":0.2608695000000125},{"name":"F5","midi":77,"time":136.43474850000075,"velocity":0.44881889763779526,"duration":0.2608695000000125},{"name":"B5","midi":83,"time":136.69561800000076,"velocity":0.44881889763779526,"duration":0.39130424999999036},{"name":"G5","midi":79,"time":136.69561800000076,"velocity":0.44881889763779526,"duration":0.39130424999999036},{"name":"G5","midi":79,"time":137.08692225000075,"velocity":0.44881889763779526,"duration":0.39130424999999036},{"name":"D5","midi":74,"time":137.08692225000075,"velocity":0.44881889763779526,"duration":0.39130424999999036},{"name":"D5","midi":74,"time":137.47822650000074,"velocity":0.44881889763779526,"duration":0.13043475000000626},{"name":"E5","midi":76,"time":137.60866125000075,"velocity":0.44881889763779526,"duration":0.13043475000000626},{"name":"F5","midi":77,"time":137.73909600000076,"velocity":0.44881889763779526,"duration":0.39130424999999036},{"name":"D5","midi":74,"time":137.73909600000076,"velocity":0.44881889763779526,"duration":0.39130424999999036},{"name":"G5","midi":79,"time":138.13040025000075,"velocity":0.44881889763779526,"duration":0.2608695000000125},{"name":"C5","midi":72,"time":138.13040025000075,"velocity":0.44881889763779526,"duration":0.2608695000000125},{"name":"D5","midi":74,"time":138.39126975000076,"velocity":0.44881889763779526,"duration":0.13043475000000626},{"name":"C5","midi":72,"time":138.52170450000077,"velocity":0.44881889763779526,"duration":0.2608695000000125},{"name":"E5","midi":76,"time":138.52170450000077,"velocity":0.44881889763779526,"duration":0.2608695000000125},{"name":"A5","midi":81,"time":138.78257400000078,"velocity":0.44881889763779526,"duration":1.0434779999999932},{"name":"F5","midi":77,"time":138.78257400000078,"velocity":0.44881889763779526,"duration":1.0434779999999932},{"name":"D5","midi":74,"time":138.78257400000078,"velocity":0.44881889763779526,"duration":1.0434779999999932},{"name":"A5","midi":81,"time":139.82605200000077,"velocity":0.44881889763779526,"duration":0.13043475000000626},{"name":"F6","midi":89,"time":139.82605200000077,"velocity":0.44881889763779526,"duration":0.13043475000000626},{"name":"G5","midi":79,"time":139.95648675000078,"velocity":0.44881889763779526,"duration":0.13043475000000626},{"name":"E6","midi":88,"time":139.95648675000078,"velocity":0.44881889763779526,"duration":0.13043475000000626},{"name":"F5","midi":77,"time":140.08692150000078,"velocity":0.44881889763779526,"duration":0.13043475000000626},{"name":"F5","midi":77,"time":140.08692150000078,"velocity":0.44881889763779526,"duration":0.13043475000000626},{"name":"D6","midi":86,"time":140.08692150000078,"velocity":0.44881889763779526,"duration":0.13043475000000626},{"name":"E5","midi":76,"time":140.2173562500008,"velocity":0.44881889763779526,"duration":0.13043475000000626},{"name":"C6","midi":84,"time":140.2173562500008,"velocity":0.44881889763779526,"duration":0.13043475000000626},{"name":"E5","midi":76,"time":140.3477910000008,"velocity":0.44881889763779526,"duration":0.2608695000000125},{"name":"D6","midi":86,"time":140.3477910000008,"velocity":0.44881889763779526,"duration":0.2608695000000125},{"name":"A5","midi":81,"time":140.6086605000008,"velocity":0.44881889763779526,"duration":0.2608695000000125},{"name":"F5","midi":77,"time":140.6086605000008,"velocity":0.44881889763779526,"duration":0.2608695000000125},{"name":"B5","midi":83,"time":140.86953000000082,"velocity":0.44881889763779526,"duration":0.39130424999999036},{"name":"G5","midi":79,"time":140.86953000000082,"velocity":0.44881889763779526,"duration":0.39130424999999036},{"name":"G5","midi":79,"time":141.2608342500008,"velocity":0.44881889763779526,"duration":0.39130424999999036},{"name":"D5","midi":74,"time":141.2608342500008,"velocity":0.44881889763779526,"duration":0.39130424999999036},{"name":"D5","midi":74,"time":141.6521385000008,"velocity":0.44881889763779526,"duration":0.13043475000000626},{"name":"E5","midi":76,"time":141.7825732500008,"velocity":0.44881889763779526,"duration":0.13043475000000626},{"name":"F5","midi":77,"time":141.91300800000081,"velocity":0.44881889763779526,"duration":0.39130424999999036},{"name":"A#4","midi":70,"time":141.91300800000081,"velocity":0.44881889763779526,"duration":0.39130424999999036},{"name":"E5","midi":76,"time":142.3043122500008,"velocity":0.44881889763779526,"duration":0.2608695000000125},{"name":"A4","midi":69,"time":142.3043122500008,"velocity":0.44881889763779526,"duration":0.2608695000000125},{"name":"C5","midi":72,"time":142.56518175000082,"velocity":0.44881889763779526,"duration":0.13043475000000626},{"name":"E5","midi":76,"time":142.69561650000082,"velocity":0.44881889763779526,"duration":0.2608695000000125},{"name":"A4","midi":69,"time":142.69561650000082,"velocity":0.44881889763779526,"duration":0.2608695000000125},{"name":"D5","midi":74,"time":142.95648600000084,"velocity":0.44881889763779526,"duration":1.0434779999999932},{"name":"A4","midi":69,"time":142.95648600000084,"velocity":0.44881889763779526,"duration":1.0434779999999932},{"name":"F4","midi":65,"time":142.95648600000084,"velocity":0.44881889763779526,"duration":1.0434779999999932},{"name":"G5","midi":79,"time":143.99996400000083,"velocity":0.44881889763779526,"duration":0.13043475000000626},{"name":"D#5","midi":75,"time":143.99996400000083,"velocity":0.44881889763779526,"duration":0.13043475000000626},{"name":"F5","midi":77,"time":144.13039875000084,"velocity":0.44881889763779526,"duration":0.13043475000000626},{"name":"D#5","midi":75,"time":144.26083350000084,"velocity":0.44881889763779526,"duration":0.13043475000000626},{"name":"D5","midi":74,"time":144.39126825000085,"velocity":0.44881889763779526,"duration":0.13043475000000626},{"name":"C5","midi":72,"time":144.52170300000085,"velocity":0.44881889763779526,"duration":0.13043475000000626},{"name":"D#5","midi":75,"time":144.52170300000085,"velocity":0.44881889763779526,"duration":0.13043475000000626},{"name":"D5","midi":74,"time":144.65213775000086,"velocity":0.44881889763779526,"duration":0.13043475000000626},{"name":"C5","midi":72,"time":144.78257250000087,"velocity":0.44881889763779526,"duration":0.13043475000000626},{"name":"D#5","midi":75,"time":144.91300725000087,"velocity":0.44881889763779526,"duration":0.13043475000000626},{"name":"A4","midi":69,"time":145.04344200000088,"velocity":0.44881889763779526,"duration":0.39130424999999036},{"name":"D5","midi":74,"time":145.04344200000088,"velocity":0.44881889763779526,"duration":0.39130424999999036},{"name":"A4","midi":69,"time":145.43474625000087,"velocity":0.44881889763779526,"duration":0.39130424999999036},{"name":"A4","midi":69,"time":145.82605050000086,"velocity":0.44881889763779526,"duration":0.13043475000000626},{"name":"D5","midi":74,"time":145.95648525000087,"velocity":0.44881889763779526,"duration":0.13043475000000626},{"name":"G5","midi":79,"time":146.08692000000087,"velocity":0.44881889763779526,"duration":0.13043475000000626},{"name":"D#5","midi":75,"time":146.08692000000087,"velocity":0.44881889763779526,"duration":0.13043475000000626},{"name":"F5","midi":77,"time":146.21735475000088,"velocity":0.44881889763779526,"duration":0.13043475000000626},{"name":"D#5","midi":75,"time":146.34778950000089,"velocity":0.44881889763779526,"duration":0.13043475000000626},{"name":"D5","midi":74,"time":146.4782242500009,"velocity":0.44881889763779526,"duration":0.13043475000000626},{"name":"C5","midi":72,"time":146.6086590000009,"velocity":0.44881889763779526,"duration":0.13043475000000626},{"name":"D#5","midi":75,"time":146.6086590000009,"velocity":0.44881889763779526,"duration":0.13043475000000626},{"name":"A#5","midi":82,"time":146.7390937500009,"velocity":0.44881889763779526,"duration":0.13043475000000626},{"name":"A5","midi":81,"time":146.8695285000009,"velocity":0.44881889763779526,"duration":0.13043475000000626},{"name":"G5","midi":79,"time":146.99996325000092,"velocity":0.44881889763779526,"duration":0.13043475000000626},{"name":"F5","midi":77,"time":147.13039800000092,"velocity":0.44881889763779526,"duration":0.2608695000000125},{"name":"D5","midi":74,"time":147.13039800000092,"velocity":0.44881889763779526,"duration":0.2608695000000125},{"name":"E5","midi":76,"time":147.39126750000094,"velocity":0.44881889763779526,"duration":0.2608695000000125},{"name":"G5","midi":79,"time":147.39126750000094,"velocity":0.44881889763779526,"duration":0.2608695000000125},{"name":"F5","midi":77,"time":147.65213700000095,"velocity":0.44881889763779526,"duration":0.39130424999999036},{"name":"A5","midi":81,"time":147.65213700000095,"velocity":0.44881889763779526,"duration":0.39130424999999036},{"name":"B5","midi":83,"time":148.04344125000094,"velocity":0.44881889763779526,"duration":0.13043475000000626},{"name":"A5","midi":81,"time":148.17387600000094,"velocity":0.44881889763779526,"duration":0.13043475000000626},{"name":"C6","midi":84,"time":148.17387600000094,"velocity":0.44881889763779526,"duration":0.13043475000000626},{"name":"B5","midi":83,"time":148.30431075000095,"velocity":0.44881889763779526,"duration":0.13043475000000626},{"name":"A5","midi":81,"time":148.43474550000096,"velocity":0.44881889763779526,"duration":0.13043475000000626},{"name":"G5","midi":79,"time":148.56518025000096,"velocity":0.44881889763779526,"duration":0.13043475000000626},{"name":"F5","midi":77,"time":148.69561500000097,"velocity":0.44881889763779526,"duration":0.13043475000000626},{"name":"A5","midi":81,"time":148.69561500000097,"velocity":0.44881889763779526,"duration":0.13043475000000626},{"name":"G5","midi":79,"time":148.82604975000098,"velocity":0.44881889763779526,"duration":0.13043475000000626},{"name":"A5","midi":81,"time":148.95648450000098,"velocity":0.44881889763779526,"duration":0.13043475000000626},{"name":"B5","midi":83,"time":149.086919250001,"velocity":0.44881889763779526,"duration":0.13043475000000626},{"name":"A5","midi":81,"time":149.217354000001,"velocity":0.44881889763779526,"duration":0.39130424999999036},{"name":"F5","midi":77,"time":149.217354000001,"velocity":0.44881889763779526,"duration":0.39130424999999036},{"name":"D5","midi":74,"time":149.60865825000099,"velocity":0.44881889763779526,"duration":0.39130424999999036},{"name":"A4","midi":69,"time":149.60865825000099,"velocity":0.44881889763779526,"duration":0.39130424999999036},{"name":"D5","midi":74,"time":149.99996250000098,"velocity":0.44881889763779526,"duration":0.13043475000000626},{"name":"E5","midi":76,"time":150.13039725000098,"velocity":0.44881889763779526,"duration":0.13043475000000626},{"name":"F5","midi":77,"time":150.260832000001,"velocity":0.44881889763779526,"duration":0.39130424999999036},{"name":"D5","midi":74,"time":150.260832000001,"velocity":0.44881889763779526,"duration":0.39130424999999036},{"name":"E5","midi":76,"time":150.65213625000098,"velocity":0.44881889763779526,"duration":0.39130424999999036},{"name":"G5","midi":79,"time":150.65213625000098,"velocity":0.44881889763779526,"duration":0.39130424999999036},{"name":"G5","midi":79,"time":151.04344050000097,"velocity":0.44881889763779526,"duration":0.2608695000000125},{"name":"A#5","midi":82,"time":151.04344050000097,"velocity":0.44881889763779526,"duration":0.2608695000000125},{"name":"A5","midi":81,"time":151.30431000000098,"velocity":0.44881889763779526,"duration":0.2608695000000125},{"name":"F5","midi":77,"time":151.30431000000098,"velocity":0.44881889763779526,"duration":0.2608695000000125},{"name":"E5","midi":76,"time":151.565179500001,"velocity":0.44881889763779526,"duration":0.2608695000000125},{"name":"C#5","midi":73,"time":151.826049000001,"velocity":0.44881889763779526,"duration":0.2608695000000125},{"name":"A4","midi":69,"time":152.08691850000102,"velocity":0.44881889763779526,"duration":0.2608695000000125},{"name":"G5","midi":79,"time":152.34778800000103,"velocity":0.44881889763779526,"duration":0.13043475000000626},{"name":"D#5","midi":75,"time":152.34778800000103,"velocity":0.44881889763779526,"duration":0.13043475000000626},{"name":"F5","midi":77,"time":152.47822275000104,"velocity":0.44881889763779526,"duration":0.13043475000000626},{"name":"D#5","midi":75,"time":152.60865750000104,"velocity":0.44881889763779526,"duration":0.13043475000000626},{"name":"D5","midi":74,"time":152.73909225000105,"velocity":0.44881889763779526,"duration":0.13043475000000626},{"name":"C5","midi":72,"time":152.86952700000106,"velocity":0.44881889763779526,"duration":0.13043475000000626},{"name":"D#5","midi":75,"time":152.86952700000106,"velocity":0.44881889763779526,"duration":0.13043475000000626},{"name":"D5","midi":74,"time":152.99996175000106,"velocity":0.44881889763779526,"duration":0.13043475000000626},{"name":"C5","midi":72,"time":153.13039650000107,"velocity":0.44881889763779526,"duration":0.13043475000000626},{"name":"D#5","midi":75,"time":153.26083125000108,"velocity":0.44881889763779526,"duration":0.13043475000000626},{"name":"A4","midi":69,"time":153.39126600000108,"velocity":0.44881889763779526,"duration":0.39130424999999036},{"name":"D5","midi":74,"time":153.39126600000108,"velocity":0.44881889763779526,"duration":0.39130424999999036},{"name":"A4","midi":69,"time":153.78257025000107,"velocity":0.44881889763779526,"duration":0.39130424999999036},{"name":"A4","midi":69,"time":154.17387450000106,"velocity":0.44881889763779526,"duration":0.13043475000000626},{"name":"D5","midi":74,"time":154.30430925000107,"velocity":0.44881889763779526,"duration":0.13043475000000626},{"name":"G5","midi":79,"time":154.43474400000107,"velocity":0.44881889763779526,"duration":0.13043475000000626},{"name":"D#5","midi":75,"time":154.43474400000107,"velocity":0.44881889763779526,"duration":0.13043475000000626},{"name":"F5","midi":77,"time":154.56517875000108,"velocity":0.44881889763779526,"duration":0.13043475000000626},{"name":"D#5","midi":75,"time":154.6956135000011,"velocity":0.44881889763779526,"duration":0.13043475000000626},{"name":"D5","midi":74,"time":154.8260482500011,"velocity":0.44881889763779526,"duration":0.13043475000000626},{"name":"C5","midi":72,"time":154.9564830000011,"velocity":0.44881889763779526,"duration":0.13043475000000626},{"name":"D#5","midi":75,"time":154.9564830000011,"velocity":0.44881889763779526,"duration":0.13043475000000626},{"name":"A#5","midi":82,"time":155.0869177500011,"velocity":0.44881889763779526,"duration":0.13043475000000626},{"name":"A5","midi":81,"time":155.2173525000011,"velocity":0.44881889763779526,"duration":0.13043475000000626},{"name":"G5","midi":79,"time":155.34778725000112,"velocity":0.44881889763779526,"duration":0.13043475000000626},{"name":"F5","midi":77,"time":155.47822200000113,"velocity":0.44881889763779526,"duration":0.2608695000000125},{"name":"D5","midi":74,"time":155.47822200000113,"velocity":0.44881889763779526,"duration":0.2608695000000125},{"name":"E5","midi":76,"time":155.73909150000114,"velocity":0.44881889763779526,"duration":0.2608695000000125},{"name":"G5","midi":79,"time":155.73909150000114,"velocity":0.44881889763779526,"duration":0.2608695000000125},{"name":"F5","midi":77,"time":155.99996100000115,"velocity":0.44881889763779526,"duration":0.39130424999999036},{"name":"A5","midi":81,"time":155.99996100000115,"velocity":0.44881889763779526,"duration":0.39130424999999036},{"name":"B5","midi":83,"time":156.39126525000114,"velocity":0.44881889763779526,"duration":0.13043475000000626},{"name":"A5","midi":81,"time":156.52170000000115,"velocity":0.44881889763779526,"duration":0.13043475000000626},{"name":"C6","midi":84,"time":156.52170000000115,"velocity":0.44881889763779526,"duration":0.13043475000000626},{"name":"B5","midi":83,"time":156.65213475000115,"velocity":0.44881889763779526,"duration":0.13043475000000626},{"name":"A5","midi":81,"time":156.78256950000116,"velocity":0.44881889763779526,"duration":0.13043475000000626},{"name":"G5","midi":79,"time":156.91300425000117,"velocity":0.44881889763779526,"duration":0.13043475000000626},{"name":"F5","midi":77,"time":157.04343900000117,"velocity":0.44881889763779526,"duration":0.13043475000000626},{"name":"A5","midi":81,"time":157.04343900000117,"velocity":0.44881889763779526,"duration":0.13043475000000626},{"name":"G5","midi":79,"time":157.17387375000118,"velocity":0.44881889763779526,"duration":0.13043475000000626},{"name":"A5","midi":81,"time":157.30430850000118,"velocity":0.44881889763779526,"duration":0.13043475000000626},{"name":"B5","midi":83,"time":157.4347432500012,"velocity":0.44881889763779526,"duration":0.13043475000000626},{"name":"A5","midi":81,"time":157.5651780000012,"velocity":0.44881889763779526,"duration":0.39130424999999036},{"name":"F5","midi":77,"time":157.5651780000012,"velocity":0.44881889763779526,"duration":0.39130424999999036},{"name":"D5","midi":74,"time":157.9564822500012,"velocity":0.44881889763779526,"duration":0.39130424999999036},{"name":"A4","midi":69,"time":157.9564822500012,"velocity":0.44881889763779526,"duration":0.39130424999999036},{"name":"D5","midi":74,"time":158.34778650000118,"velocity":0.44881889763779526,"duration":0.13043475000000626},{"name":"E5","midi":76,"time":158.47822125000118,"velocity":0.44881889763779526,"duration":0.13043475000000626},{"name":"A#4","midi":70,"time":158.6086560000012,"velocity":0.44881889763779526,"duration":0.39130424999999036},{"name":"F5","midi":77,"time":158.6086560000012,"velocity":0.44881889763779526,"duration":0.39130424999999036},{"name":"E5","midi":76,"time":158.99996025000118,"velocity":0.44881889763779526,"duration":0.39130424999999036},{"name":"C5","midi":72,"time":159.39126450000117,"velocity":0.44881889763779526,"duration":0.2608695000000125},{"name":"D5","midi":74,"time":159.65213400000118,"velocity":0.44881889763779526,"duration":0.7826085000000091},{"name":"A#4","midi":70,"time":159.65213400000118,"velocity":0.44881889763779526,"duration":0.7826085000000091},{"name":"F4","midi":65,"time":159.65213400000118,"velocity":0.44881889763779526,"duration":0.7826085000000091},{"name":"D5","midi":74,"time":160.4347425000012,"velocity":0.44881889763779526,"duration":0.13043475000000626},{"name":"E4","midi":64,"time":160.5651772500012,"velocity":0.44881889763779526,"duration":0.13043475000000626},{"name":"A#4","midi":70,"time":160.6956120000012,"velocity":0.44881889763779526,"duration":0.39130424999999036},{"name":"F4","midi":65,"time":160.6956120000012,"velocity":0.44881889763779526,"duration":0.39130424999999036},{"name":"E4","midi":64,"time":161.0869162500012,"velocity":0.44881889763779526,"duration":0.39130424999999036},{"name":"C5","midi":72,"time":161.47822050000119,"velocity":0.44881889763779526,"duration":0.2608695000000125},{"name":"D5","midi":74,"time":161.7390900000012,"velocity":0.44881889763779526,"duration":0.7826085000000091},{"name":"C5","midi":72,"time":161.7390900000012,"velocity":0.44881889763779526,"duration":0.7826085000000091},{"name":"F4","midi":65,"time":161.7390900000012,"velocity":0.44881889763779526,"duration":0.7826085000000091},{"name":"D5","midi":74,"time":162.5216985000012,"velocity":0.44881889763779526,"duration":0.13043475000000626},{"name":"E5","midi":76,"time":162.6521332500012,"velocity":0.44881889763779526,"duration":0.13043475000000626},{"name":"A#4","midi":70,"time":162.78256800000122,"velocity":0.44881889763779526,"duration":0.39130424999999036},{"name":"F5","midi":77,"time":162.78256800000122,"velocity":0.44881889763779526,"duration":0.39130424999999036},{"name":"E5","midi":76,"time":163.1738722500012,"velocity":0.44881889763779526,"duration":0.39130424999999036},{"name":"C5","midi":72,"time":163.5651765000012,"velocity":0.44881889763779526,"duration":0.2608695000000125},{"name":"D5","midi":74,"time":163.8260460000012,"velocity":0.44881889763779526,"duration":0.7826085000000091},{"name":"A#4","midi":70,"time":163.8260460000012,"velocity":0.44881889763779526,"duration":0.7826085000000091},{"name":"F4","midi":65,"time":163.8260460000012,"velocity":0.44881889763779526,"duration":0.7826085000000091},{"name":"D5","midi":74,"time":164.60865450000122,"velocity":0.44881889763779526,"duration":0.13043475000000626},{"name":"E5","midi":76,"time":164.73908925000123,"velocity":0.44881889763779526,"duration":0.13043475000000626},{"name":"A#4","midi":70,"time":164.86952400000123,"velocity":0.44881889763779526,"duration":0.39130424999999036},{"name":"F5","midi":77,"time":164.86952400000123,"velocity":0.44881889763779526,"duration":0.39130424999999036},{"name":"E5","midi":76,"time":165.26082825000123,"velocity":0.44881889763779526,"duration":0.39130424999999036},{"name":"C5","midi":72,"time":165.65213250000122,"velocity":0.44881889763779526,"duration":0.2608695000000125},{"name":"D5","midi":74,"time":165.91300200000123,"velocity":0.44881889763779526,"duration":0.7826085000000091},{"name":"C5","midi":72,"time":165.91300200000123,"velocity":0.44881889763779526,"duration":0.7826085000000091},{"name":"F4","midi":65,"time":165.91300200000123,"velocity":0.44881889763779526,"duration":0.7826085000000091},{"name":"C5","midi":72,"time":166.69561050000124,"velocity":0.44881889763779526,"duration":0.2608695000000125},{"name":"A4","midi":69,"time":166.95648000000125,"velocity":0.44881889763779526,"duration":0.13043475000000626},{"name":"D5","midi":74,"time":166.95648000000125,"velocity":0.44881889763779526,"duration":0.13043475000000626},{"name":"D4","midi":62,"time":166.95648000000125,"velocity":0.44881889763779526,"duration":0.13043475000000626},{"name":"D4","midi":62,"time":167.34778425000127,"velocity":0.44881889763779526,"duration":0.2608695000000125},{"name":"A4","midi":69,"time":167.34778425000127,"velocity":0.44881889763779526,"duration":0.2608695000000125},{"name":"A4","midi":69,"time":167.7390885000013,"velocity":0.44881889763779526,"duration":0.2608695000000125},{"name":"D4","midi":62,"time":167.7390885000013,"velocity":0.44881889763779526,"duration":0.2608695000000125},{"name":"D4","midi":62,"time":167.9999580000013,"velocity":0.44881889763779526,"duration":0.13043475000000626},{"name":"G4","midi":67,"time":167.9999580000013,"velocity":0.44881889763779526,"duration":0.13043475000000626},{"name":"B4","midi":71,"time":167.9999580000013,"velocity":0.44881889763779526,"duration":0.13043475000000626},{"name":"G4","midi":67,"time":168.39126225000132,"velocity":0.44881889763779526,"duration":0.2608695000000125},{"name":"D4","midi":62,"time":168.39126225000132,"velocity":0.44881889763779526,"duration":0.2608695000000125},{"name":"G4","midi":67,"time":168.78256650000134,"velocity":0.44881889763779526,"duration":0.2608695000000125},{"name":"D4","midi":62,"time":168.78256650000134,"velocity":0.44881889763779526,"duration":0.2608695000000125},{"name":"D4","midi":62,"time":169.04343600000135,"velocity":0.44881889763779526,"duration":0.13043475000000626},{"name":"A4","midi":69,"time":169.04343600000135,"velocity":0.44881889763779526,"duration":0.13043475000000626},{"name":"D5","midi":74,"time":169.04343600000135,"velocity":0.44881889763779526,"duration":0.13043475000000626},{"name":"D4","midi":62,"time":169.43474025000137,"velocity":0.44881889763779526,"duration":0.2608695000000125},{"name":"A4","midi":69,"time":169.43474025000137,"velocity":0.44881889763779526,"duration":0.2608695000000125},{"name":"A4","midi":69,"time":169.8260445000014,"velocity":0.44881889763779526,"duration":0.2608695000000125},{"name":"D4","midi":62,"time":169.8260445000014,"velocity":0.44881889763779526,"duration":0.2608695000000125},{"name":"D4","midi":62,"time":170.0869140000014,"velocity":0.44881889763779526,"duration":0.13043475000000626},{"name":"G4","midi":67,"time":170.0869140000014,"velocity":0.44881889763779526,"duration":0.13043475000000626},{"name":"B4","midi":71,"time":170.0869140000014,"velocity":0.44881889763779526,"duration":0.13043475000000626},{"name":"D4","midi":62,"time":170.47821825000142,"velocity":0.44881889763779526,"duration":0.2608695000000125},{"name":"G4","midi":67,"time":170.47821825000142,"velocity":0.44881889763779526,"duration":0.2608695000000125},{"name":"G4","midi":67,"time":170.86952250000144,"velocity":0.44881889763779526,"duration":0.2608695000000125},{"name":"D4","midi":62,"time":170.86952250000144,"velocity":0.44881889763779526,"duration":0.2608695000000125},{"name":"D4","midi":62,"time":171.13039200000145,"velocity":0.44881889763779526,"duration":2.0869559999999865},{"name":"A4","midi":69,"time":171.13039200000145,"velocity":0.44881889763779526,"duration":2.0869559999999865},{"name":"D5","midi":74,"time":171.13039200000145,"velocity":0.44881889763779526,"duration":2.0869559999999865}],"controlChanges":{},"id":0,"name":"Elec. Piano (Classic)","instrumentNumber":0,"instrument":"acoustic grand piano","instrumentFamily":"piano","channelNumber":0,"isPercussion":false},{"startTime":27.130428,"duration":125.21736000000057,"length":284,"notes":[{"name":"C5","midi":72,"time":27.130428,"velocity":0.25984251968503935,"duration":0.7826084999999985},{"name":"F4","midi":65,"time":27.130428,"velocity":0.25984251968503935,"duration":0.7826084999999985},{"name":"A#3","midi":58,"time":27.130428,"velocity":0.25984251968503935,"duration":0.7826084999999985},{"name":"D5","midi":74,"time":27.913036499999997,"velocity":0.25984251968503935,"duration":0.2608694999999983},{"name":"F4","midi":65,"time":28.173905999999995,"velocity":0.25984251968503935,"duration":0.391304250000001},{"name":"A#3","midi":58,"time":28.173905999999995,"velocity":0.25984251968503935,"duration":0.391304250000001},{"name":"G4","midi":67,"time":28.565210249999996,"velocity":0.25984251968503935,"duration":0.391304250000001},{"name":"A4","midi":69,"time":28.956514499999997,"velocity":0.25984251968503935,"duration":0.2608694999999983},{"name":"G4","midi":67,"time":29.217383999999996,"velocity":0.25984251968503935,"duration":0.7826084999999985},{"name":"C5","midi":72,"time":29.217383999999996,"velocity":0.25984251968503935,"duration":0.7826084999999985},{"name":"C4","midi":60,"time":29.217383999999996,"velocity":0.25984251968503935,"duration":0.7826084999999985},{"name":"D5","midi":74,"time":29.999992499999994,"velocity":0.25984251968503935,"duration":0.2608694999999983},{"name":"C4","midi":60,"time":30.260861999999992,"velocity":0.25984251968503935,"duration":0.391304250000001},{"name":"F4","midi":65,"time":30.260861999999992,"velocity":0.25984251968503935,"duration":0.391304250000001},{"name":"E5","midi":76,"time":30.652166249999993,"velocity":0.25984251968503935,"duration":0.391304250000001},{"name":"C5","midi":72,"time":31.043470499999994,"velocity":0.25984251968503935,"duration":0.2608694999999983},{"name":"A4","midi":69,"time":31.304339999999993,"velocity":0.25984251968503935,"duration":1.8260864999999988},{"name":"F4","midi":65,"time":31.304339999999993,"velocity":0.25984251968503935,"duration":1.8260864999999988},{"name":"D4","midi":62,"time":31.304339999999993,"velocity":0.25984251968503935,"duration":1.8260864999999988},{"name":"A#4","midi":70,"time":33.13042649999999,"velocity":0.25984251968503935,"duration":0.13043474999999916},{"name":"A4","midi":69,"time":33.26086124999999,"velocity":0.25984251968503935,"duration":0.13043474999999916},{"name":"G4","midi":67,"time":33.39129599999999,"velocity":0.25984251968503935,"duration":1.0434780000000003},{"name":"E4","midi":64,"time":33.39129599999999,"velocity":0.25984251968503935,"duration":1.0434780000000003},{"name":"C5","midi":72,"time":43.826075999999986,"velocity":0.25984251968503935,"duration":0.782608500000002},{"name":"F4","midi":65,"time":43.826075999999986,"velocity":0.25984251968503935,"duration":0.782608500000002},{"name":"A#3","midi":58,"time":43.826075999999986,"velocity":0.25984251968503935,"duration":0.782608500000002},{"name":"D5","midi":74,"time":44.60868449999999,"velocity":0.25984251968503935,"duration":0.2608694999999983},{"name":"F4","midi":65,"time":44.86955399999999,"velocity":0.25984251968503935,"duration":0.39130424999999747},{"name":"A#3","midi":58,"time":44.86955399999999,"velocity":0.25984251968503935,"duration":0.39130424999999747},{"name":"G4","midi":67,"time":45.260858249999984,"velocity":0.25984251968503935,"duration":0.39130424999999747},{"name":"A4","midi":69,"time":45.65216249999998,"velocity":0.25984251968503935,"duration":0.2608694999999983},{"name":"G4","midi":67,"time":45.91303199999998,"velocity":0.25984251968503935,"duration":0.782608500000002},{"name":"C5","midi":72,"time":45.91303199999998,"velocity":0.25984251968503935,"duration":0.782608500000002},{"name":"C4","midi":60,"time":45.91303199999998,"velocity":0.25984251968503935,"duration":0.782608500000002},{"name":"D5","midi":74,"time":46.69564049999998,"velocity":0.25984251968503935,"duration":0.2608694999999983},{"name":"C4","midi":60,"time":46.95650999999998,"velocity":0.25984251968503935,"duration":0.39130424999999747},{"name":"F4","midi":65,"time":46.95650999999998,"velocity":0.25984251968503935,"duration":0.39130424999999747},{"name":"E5","midi":76,"time":47.34781424999998,"velocity":0.25984251968503935,"duration":0.39130424999999747},{"name":"C5","midi":72,"time":47.739118499999975,"velocity":0.25984251968503935,"duration":0.2608694999999983},{"name":"A4","midi":69,"time":47.99998799999997,"velocity":0.25984251968503935,"duration":1.8260865000000024},{"name":"F4","midi":65,"time":47.99998799999997,"velocity":0.25984251968503935,"duration":1.8260865000000024},{"name":"D4","midi":62,"time":47.99998799999997,"velocity":0.25984251968503935,"duration":1.8260865000000024},{"name":"A#4","midi":70,"time":49.826074499999976,"velocity":0.25984251968503935,"duration":0.13043474999999916},{"name":"A4","midi":69,"time":49.956509249999975,"velocity":0.25984251968503935,"duration":0.13043474999999916},{"name":"G4","midi":67,"time":50.086943999999974,"velocity":0.25984251968503935,"duration":1.0434780000000003},{"name":"E4","midi":64,"time":50.086943999999974,"velocity":0.25984251968503935,"duration":1.0434780000000003},{"name":"A#4","midi":70,"time":68.86954799999998,"velocity":0.25984251968503935,"duration":0.13043475000000626},{"name":"D5","midi":74,"time":68.86954799999998,"velocity":0.25984251968503935,"duration":0.13043475000000626},{"name":"F5","midi":77,"time":68.99998274999999,"velocity":0.25984251968503935,"duration":0.13043475000000626},{"name":"E5","midi":76,"time":69.1304175,"velocity":0.25984251968503935,"duration":0.13043475000000626},{"name":"F5","midi":77,"time":69.26085225,"velocity":0.25984251968503935,"duration":0.13043475000000626},{"name":"D5","midi":74,"time":69.391287,"velocity":0.25984251968503935,"duration":0.13043475000000626},{"name":"D5","midi":74,"time":69.78259125000001,"velocity":0.25984251968503935,"duration":0.2608694999999983},{"name":"A#4","midi":70,"time":69.78259125000001,"velocity":0.25984251968503935,"duration":0.2608694999999983},{"name":"E5","midi":76,"time":70.04346075000001,"velocity":0.25984251968503935,"duration":0.13043475000000626},{"name":"F5","midi":77,"time":70.17389550000001,"velocity":0.25984251968503935,"duration":0.13043475000000626},{"name":"C5","midi":72,"time":70.30433025000002,"velocity":0.25984251968503935,"duration":0.13043475000000626},{"name":"A5","midi":81,"time":70.43476500000003,"velocity":0.25984251968503935,"duration":0.5217389999999966},{"name":"C5","midi":72,"time":70.95650400000002,"velocity":0.25984251968503935,"duration":0.13043475000000626},{"name":"D5","midi":74,"time":70.95650400000002,"velocity":0.25984251968503935,"duration":0.13043475000000626},{"name":"F5","midi":77,"time":71.08693875000003,"velocity":0.25984251968503935,"duration":0.13043475000000626},{"name":"E5","midi":76,"time":71.21737350000004,"velocity":0.25984251968503935,"duration":0.13043475000000626},{"name":"F5","midi":77,"time":71.34780825000004,"velocity":0.25984251968503935,"duration":0.13043475000000626},{"name":"D5","midi":74,"time":71.47824300000005,"velocity":0.25984251968503935,"duration":0.13043475000000626},{"name":"D5","midi":74,"time":71.86954725000005,"velocity":0.25984251968503935,"duration":0.2608694999999983},{"name":"C5","midi":72,"time":71.86954725000005,"velocity":0.25984251968503935,"duration":0.2608694999999983},{"name":"E5","midi":76,"time":72.13041675000005,"velocity":0.25984251968503935,"duration":0.13043475000000626},{"name":"F5","midi":77,"time":72.26085150000006,"velocity":0.25984251968503935,"duration":0.13043475000000626},{"name":"C5","midi":72,"time":72.39128625000006,"velocity":0.25984251968503935,"duration":0.13043475000000626},{"name":"A5","midi":81,"time":72.52172100000007,"velocity":0.25984251968503935,"duration":0.5217389999999966},{"name":"A4","midi":69,"time":73.04346000000007,"velocity":0.25984251968503935,"duration":0.13043475000000626},{"name":"D5","midi":74,"time":73.04346000000007,"velocity":0.25984251968503935,"duration":0.13043475000000626},{"name":"F5","midi":77,"time":73.17389475000007,"velocity":0.25984251968503935,"duration":0.13043475000000626},{"name":"E5","midi":76,"time":73.30432950000008,"velocity":0.25984251968503935,"duration":0.13043475000000626},{"name":"F5","midi":77,"time":73.43476425000009,"velocity":0.25984251968503935,"duration":0.13043475000000626},{"name":"D5","midi":74,"time":73.56519900000009,"velocity":0.25984251968503935,"duration":0.13043475000000626},{"name":"D5","midi":74,"time":73.9565032500001,"velocity":0.25984251968503935,"duration":0.2608694999999983},{"name":"A4","midi":69,"time":73.9565032500001,"velocity":0.25984251968503935,"duration":0.2608694999999983},{"name":"E5","midi":76,"time":74.2173727500001,"velocity":0.25984251968503935,"duration":0.13043475000000626},{"name":"F5","midi":77,"time":74.3478075000001,"velocity":0.25984251968503935,"duration":0.13043475000000626},{"name":"C5","midi":72,"time":74.47824225000011,"velocity":0.25984251968503935,"duration":0.13043475000000626},{"name":"A5","midi":81,"time":74.60867700000011,"velocity":0.25984251968503935,"duration":0.5217389999999966},{"name":"C5","midi":72,"time":75.13041600000011,"velocity":0.25984251968503935,"duration":0.13043475000000626},{"name":"E4","midi":64,"time":75.13041600000011,"velocity":0.25984251968503935,"duration":0.13043475000000626},{"name":"G5","midi":79,"time":75.52172025000012,"velocity":0.25984251968503935,"duration":0.39130425000000457},{"name":"F5","midi":77,"time":75.91302450000012,"velocity":0.25984251968503935,"duration":0.2608694999999983},{"name":"D5","midi":74,"time":76.17389400000012,"velocity":0.25984251968503935,"duration":0.06521737500000313},{"name":"E4","midi":64,"time":76.17389400000012,"velocity":0.25984251968503935,"duration":0.13043475000000626},{"name":"E5","midi":76,"time":76.23911137500012,"velocity":0.25984251968503935,"duration":0.06521737500000313},{"name":"D5","midi":74,"time":76.30432875000012,"velocity":0.25984251968503935,"duration":0.2608694999999983},{"name":"C5","midi":72,"time":76.56519825000012,"velocity":0.25984251968503935,"duration":0.39130425000000457},{"name":"E5","midi":76,"time":76.95650250000013,"velocity":0.25984251968503935,"duration":0.2608694999999983},{"name":"A#4","midi":70,"time":77.21737200000013,"velocity":0.25984251968503935,"duration":0.13043475000000626},{"name":"D5","midi":74,"time":77.21737200000013,"velocity":0.25984251968503935,"duration":0.13043475000000626},{"name":"F5","midi":77,"time":77.34780675000013,"velocity":0.25984251968503935,"duration":0.13043475000000626},{"name":"E5","midi":76,"time":77.47824150000014,"velocity":0.25984251968503935,"duration":0.13043475000000626},{"name":"F5","midi":77,"time":77.60867625000014,"velocity":0.25984251968503935,"duration":0.13043475000000626},{"name":"D5","midi":74,"time":77.73911100000015,"velocity":0.25984251968503935,"duration":0.13043475000000626},{"name":"D5","midi":74,"time":78.13041525000015,"velocity":0.25984251968503935,"duration":0.2608694999999983},{"name":"A#4","midi":70,"time":78.13041525000015,"velocity":0.25984251968503935,"duration":0.2608694999999983},{"name":"E5","midi":76,"time":78.39128475000015,"velocity":0.25984251968503935,"duration":0.13043475000000626},{"name":"F5","midi":77,"time":78.52171950000016,"velocity":0.25984251968503935,"duration":0.13043475000000626},{"name":"C5","midi":72,"time":78.65215425000017,"velocity":0.25984251968503935,"duration":0.13043475000000626},{"name":"A5","midi":81,"time":78.78258900000017,"velocity":0.25984251968503935,"duration":0.5217389999999966},{"name":"D5","midi":74,"time":79.30432800000017,"velocity":0.25984251968503935,"duration":0.13043475000000626},{"name":"C5","midi":72,"time":79.30432800000017,"velocity":0.25984251968503935,"duration":0.13043475000000626},{"name":"F5","midi":77,"time":79.43476275000017,"velocity":0.25984251968503935,"duration":0.13043475000000626},{"name":"E5","midi":76,"time":79.56519750000018,"velocity":0.25984251968503935,"duration":0.13043475000000626},{"name":"F5","midi":77,"time":79.69563225000019,"velocity":0.25984251968503935,"duration":0.13043475000000626},{"name":"D5","midi":74,"time":79.8260670000002,"velocity":0.25984251968503935,"duration":0.13043475000000626},{"name":"D5","midi":74,"time":80.2173712500002,"velocity":0.25984251968503935,"duration":0.2608694999999983},{"name":"C5","midi":72,"time":80.2173712500002,"velocity":0.25984251968503935,"duration":0.2608694999999983},{"name":"E5","midi":76,"time":80.4782407500002,"velocity":0.25984251968503935,"duration":0.13043475000000626},{"name":"F5","midi":77,"time":80.6086755000002,"velocity":0.25984251968503935,"duration":0.13043475000000626},{"name":"C5","midi":72,"time":80.73911025000021,"velocity":0.25984251968503935,"duration":0.13043475000000626},{"name":"A5","midi":81,"time":80.86954500000022,"velocity":0.25984251968503935,"duration":0.5217389999999966},{"name":"A4","midi":69,"time":81.39128400000021,"velocity":0.25984251968503935,"duration":0.13043475000000626},{"name":"D5","midi":74,"time":81.39128400000021,"velocity":0.25984251968503935,"duration":0.13043475000000626},{"name":"F5","midi":77,"time":81.52171875000022,"velocity":0.25984251968503935,"duration":0.13043475000000626},{"name":"E5","midi":76,"time":81.65215350000022,"velocity":0.25984251968503935,"duration":0.13043475000000626},{"name":"F5","midi":77,"time":81.78258825000023,"velocity":0.25984251968503935,"duration":0.13043475000000626},{"name":"D5","midi":74,"time":81.91302300000024,"velocity":0.25984251968503935,"duration":0.13043475000000626},{"name":"D5","midi":74,"time":82.30432725000024,"velocity":0.25984251968503935,"duration":0.2608694999999983},{"name":"A4","midi":69,"time":82.30432725000024,"velocity":0.25984251968503935,"duration":0.2608694999999983},{"name":"E5","midi":76,"time":82.56519675000024,"velocity":0.25984251968503935,"duration":0.13043475000000626},{"name":"F5","midi":77,"time":82.69563150000025,"velocity":0.25984251968503935,"duration":0.13043475000000626},{"name":"C5","midi":72,"time":82.82606625000025,"velocity":0.25984251968503935,"duration":0.13043475000000626},{"name":"A5","midi":81,"time":82.95650100000026,"velocity":0.25984251968503935,"duration":0.5217389999999966},{"name":"C#5","midi":73,"time":83.47824000000026,"velocity":0.25984251968503935,"duration":0.13043475000000626},{"name":"E4","midi":64,"time":83.47824000000026,"velocity":0.25984251968503935,"duration":0.13043475000000626},{"name":"G5","midi":79,"time":83.86954425000026,"velocity":0.25984251968503935,"duration":0.39130425000000457},{"name":"F5","midi":77,"time":84.26084850000026,"velocity":0.25984251968503935,"duration":0.2608694999999983},{"name":"D5","midi":74,"time":84.52171800000026,"velocity":0.25984251968503935,"duration":0.06521737500000313},{"name":"E4","midi":64,"time":84.52171800000026,"velocity":0.25984251968503935,"duration":0.13043475000000626},{"name":"E5","midi":76,"time":84.58693537500027,"velocity":0.25984251968503935,"duration":0.06521737500000313},{"name":"D5","midi":74,"time":84.65215275000027,"velocity":0.25984251968503935,"duration":0.2608694999999983},{"name":"C5","midi":72,"time":84.91302225000027,"velocity":0.25984251968503935,"duration":0.39130425000000457},{"name":"E5","midi":76,"time":85.30432650000027,"velocity":0.25984251968503935,"duration":0.2608694999999983},{"name":"A#4","midi":70,"time":85.56519600000027,"velocity":0.25984251968503935,"duration":0.13043475000000626},{"name":"D5","midi":74,"time":85.56519600000027,"velocity":0.25984251968503935,"duration":0.13043475000000626},{"name":"F5","midi":77,"time":85.69563075000028,"velocity":0.25984251968503935,"duration":0.13043475000000626},{"name":"E5","midi":76,"time":85.82606550000028,"velocity":0.25984251968503935,"duration":0.13043475000000626},{"name":"F5","midi":77,"time":85.95650025000029,"velocity":0.25984251968503935,"duration":0.13043475000000626},{"name":"D5","midi":74,"time":86.0869350000003,"velocity":0.25984251968503935,"duration":0.13043475000000626},{"name":"D5","midi":74,"time":86.4782392500003,"velocity":0.25984251968503935,"duration":0.2608694999999983},{"name":"A#4","midi":70,"time":86.4782392500003,"velocity":0.25984251968503935,"duration":0.2608694999999983},{"name":"E5","midi":76,"time":86.7391087500003,"velocity":0.25984251968503935,"duration":0.13043475000000626},{"name":"F5","midi":77,"time":86.8695435000003,"velocity":0.25984251968503935,"duration":0.13043475000000626},{"name":"C5","midi":72,"time":86.99997825000031,"velocity":0.25984251968503935,"duration":0.13043475000000626},{"name":"A5","midi":81,"time":87.13041300000032,"velocity":0.25984251968503935,"duration":0.5217389999999966},{"name":"C5","midi":72,"time":87.65215200000031,"velocity":0.25984251968503935,"duration":0.13043475000000626},{"name":"D5","midi":74,"time":87.65215200000031,"velocity":0.25984251968503935,"duration":0.13043475000000626},{"name":"F5","midi":77,"time":87.78258675000032,"velocity":0.25984251968503935,"duration":0.13043475000000626},{"name":"E5","midi":76,"time":87.91302150000033,"velocity":0.25984251968503935,"duration":0.13043475000000626},{"name":"F5","midi":77,"time":88.04345625000033,"velocity":0.25984251968503935,"duration":0.13043475000000626},{"name":"D5","midi":74,"time":88.17389100000034,"velocity":0.25984251968503935,"duration":0.13043475000000626},{"name":"D5","midi":74,"time":88.56519525000034,"velocity":0.25984251968503935,"duration":0.2608694999999983},{"name":"C5","midi":72,"time":88.56519525000034,"velocity":0.25984251968503935,"duration":0.2608694999999983},{"name":"E5","midi":76,"time":88.82606475000034,"velocity":0.25984251968503935,"duration":0.13043475000000626},{"name":"F5","midi":77,"time":88.95649950000035,"velocity":0.25984251968503935,"duration":0.13043475000000626},{"name":"C5","midi":72,"time":89.08693425000035,"velocity":0.25984251968503935,"duration":0.13043475000000626},{"name":"A5","midi":81,"time":89.21736900000036,"velocity":0.25984251968503935,"duration":0.5217389999999966},{"name":"A4","midi":69,"time":89.73910800000036,"velocity":0.25984251968503935,"duration":0.13043475000000626},{"name":"D5","midi":74,"time":89.73910800000036,"velocity":0.25984251968503935,"duration":0.13043475000000626},{"name":"F5","midi":77,"time":89.86954275000036,"velocity":0.25984251968503935,"duration":0.13043475000000626},{"name":"E5","midi":76,"time":89.99997750000037,"velocity":0.25984251968503935,"duration":0.13043475000000626},{"name":"F5","midi":77,"time":90.13041225000038,"velocity":0.25984251968503935,"duration":0.13043475000000626},{"name":"D5","midi":74,"time":90.26084700000038,"velocity":0.25984251968503935,"duration":0.13043475000000626},{"name":"D5","midi":74,"time":90.65215125000039,"velocity":0.25984251968503935,"duration":0.2608694999999983},{"name":"A4","midi":69,"time":90.65215125000039,"velocity":0.25984251968503935,"duration":0.2608694999999983},{"name":"E5","midi":76,"time":90.91302075000038,"velocity":0.25984251968503935,"duration":0.13043475000000626},{"name":"F5","midi":77,"time":91.04345550000039,"velocity":0.25984251968503935,"duration":0.13043475000000626},{"name":"C5","midi":72,"time":91.1738902500004,"velocity":0.25984251968503935,"duration":0.13043475000000626},{"name":"A5","midi":81,"time":91.3043250000004,"velocity":0.25984251968503935,"duration":0.5217389999999966},{"name":"C5","midi":72,"time":91.8260640000004,"velocity":0.25984251968503935,"duration":0.13043475000000626},{"name":"E4","midi":64,"time":91.8260640000004,"velocity":0.25984251968503935,"duration":0.13043475000000626},{"name":"G5","midi":79,"time":92.2173682500004,"velocity":0.25984251968503935,"duration":0.39130425000000457},{"name":"F5","midi":77,"time":92.60867250000041,"velocity":0.25984251968503935,"duration":0.2608694999999983},{"name":"E5","midi":76,"time":92.86954200000041,"velocity":0.25984251968503935,"duration":0.06521737500000313},{"name":"E4","midi":64,"time":92.86954200000041,"velocity":0.25984251968503935,"duration":0.13043475000000626},{"name":"E5","midi":76,"time":92.93475937500041,"velocity":0.25984251968503935,"duration":0.06521737500000313},{"name":"D5","midi":74,"time":92.99997675000041,"velocity":0.25984251968503935,"duration":0.2608694999999983},{"name":"C5","midi":72,"time":93.26084625000041,"velocity":0.25984251968503935,"duration":0.39130425000000457},{"name":"E5","midi":76,"time":93.65215050000042,"velocity":0.25984251968503935,"duration":0.2608694999999983},{"name":"A#4","midi":70,"time":93.91302000000042,"velocity":0.25984251968503935,"duration":0.13043475000000626},{"name":"D5","midi":74,"time":93.91302000000042,"velocity":0.25984251968503935,"duration":0.13043475000000626},{"name":"F5","midi":77,"time":94.04345475000042,"velocity":0.25984251968503935,"duration":0.13043475000000626},{"name":"E5","midi":76,"time":94.17388950000043,"velocity":0.25984251968503935,"duration":0.13043475000000626},{"name":"F5","midi":77,"time":94.30432425000043,"velocity":0.25984251968503935,"duration":0.13043475000000626},{"name":"D5","midi":74,"time":94.43475900000044,"velocity":0.25984251968503935,"duration":0.13043475000000626},{"name":"D5","midi":74,"time":94.82606325000044,"velocity":0.25984251968503935,"duration":0.2608694999999983},{"name":"A#4","midi":70,"time":94.82606325000044,"velocity":0.25984251968503935,"duration":0.2608694999999983},{"name":"E5","midi":76,"time":95.08693275000044,"velocity":0.25984251968503935,"duration":0.13043475000000626},{"name":"F5","midi":77,"time":95.21736750000045,"velocity":0.25984251968503935,"duration":0.13043475000000626},{"name":"C5","midi":72,"time":95.34780225000046,"velocity":0.25984251968503935,"duration":0.13043475000000626},{"name":"A5","midi":81,"time":95.47823700000046,"velocity":0.25984251968503935,"duration":0.5217389999999966},{"name":"D5","midi":74,"time":95.99997600000046,"velocity":0.25984251968503935,"duration":0.13043475000000626},{"name":"C5","midi":72,"time":95.99997600000046,"velocity":0.25984251968503935,"duration":0.13043475000000626},{"name":"F5","midi":77,"time":96.13041075000046,"velocity":0.25984251968503935,"duration":0.13043475000000626},{"name":"E5","midi":76,"time":96.26084550000047,"velocity":0.25984251968503935,"duration":0.13043475000000626},{"name":"F5","midi":77,"time":96.39128025000048,"velocity":0.25984251968503935,"duration":0.13043475000000626},{"name":"D5","midi":74,"time":96.52171500000048,"velocity":0.25984251968503935,"duration":0.13043475000000626},{"name":"D5","midi":74,"time":96.91301925000049,"velocity":0.25984251968503935,"duration":0.2608694999999983},{"name":"C5","midi":72,"time":96.91301925000049,"velocity":0.25984251968503935,"duration":0.2608694999999983},{"name":"E5","midi":76,"time":97.17388875000049,"velocity":0.25984251968503935,"duration":0.13043475000000626},{"name":"F5","midi":77,"time":97.30432350000049,"velocity":0.25984251968503935,"duration":0.13043475000000626},{"name":"C5","midi":72,"time":97.4347582500005,"velocity":0.25984251968503935,"duration":0.13043475000000626},{"name":"A5","midi":81,"time":97.5651930000005,"velocity":0.25984251968503935,"duration":0.5217389999999966},{"name":"A4","midi":69,"time":98.0869320000005,"velocity":0.25984251968503935,"duration":0.13043475000000626},{"name":"D5","midi":74,"time":98.0869320000005,"velocity":0.25984251968503935,"duration":0.13043475000000626},{"name":"F5","midi":77,"time":98.21736675000051,"velocity":0.25984251968503935,"duration":0.13043475000000626},{"name":"E5","midi":76,"time":98.34780150000051,"velocity":0.25984251968503935,"duration":0.13043475000000626},{"name":"F5","midi":77,"time":98.47823625000052,"velocity":0.25984251968503935,"duration":0.13043475000000626},{"name":"D5","midi":74,"time":98.60867100000053,"velocity":0.25984251968503935,"duration":0.13043475000000626},{"name":"D5","midi":74,"time":98.99997525000053,"velocity":0.25984251968503935,"duration":0.2608694999999983},{"name":"A4","midi":69,"time":98.99997525000053,"velocity":0.25984251968503935,"duration":0.2608694999999983},{"name":"E5","midi":76,"time":99.26084475000053,"velocity":0.25984251968503935,"duration":0.13043475000000626},{"name":"F5","midi":77,"time":99.39127950000054,"velocity":0.25984251968503935,"duration":0.13043475000000626},{"name":"C5","midi":72,"time":99.52171425000054,"velocity":0.25984251968503935,"duration":0.13043475000000626},{"name":"A5","midi":81,"time":99.65214900000055,"velocity":0.25984251968503935,"duration":0.5217389999999966},{"name":"C#5","midi":73,"time":100.17388800000055,"velocity":0.25984251968503935,"duration":0.13043475000000626},{"name":"E4","midi":64,"time":100.17388800000055,"velocity":0.25984251968503935,"duration":0.13043475000000626},{"name":"G5","midi":79,"time":100.56519225000055,"velocity":0.25984251968503935,"duration":0.39130425000000457},{"name":"F5","midi":77,"time":100.95649650000055,"velocity":0.25984251968503935,"duration":0.2608694999999983},{"name":"D5","midi":74,"time":101.21736600000055,"velocity":0.25984251968503935,"duration":0.06521737500000313},{"name":"E4","midi":64,"time":101.21736600000055,"velocity":0.25984251968503935,"duration":0.13043475000000626},{"name":"E5","midi":76,"time":101.28258337500056,"velocity":0.25984251968503935,"duration":0.06521737500000313},{"name":"D5","midi":74,"time":101.34780075000056,"velocity":0.25984251968503935,"duration":0.2608694999999983},{"name":"C5","midi":72,"time":101.60867025000056,"velocity":0.25984251968503935,"duration":0.39130425000000457},{"name":"E5","midi":76,"time":101.99997450000056,"velocity":0.25984251968503935,"duration":0.2608694999999983},{"name":"A#4","midi":70,"time":110.60866800000056,"velocity":0.25984251968503935,"duration":1.565217000000004},{"name":"D5","midi":74,"time":110.60866800000056,"velocity":0.25984251968503935,"duration":1.565217000000004},{"name":"A5","midi":81,"time":110.60866800000056,"velocity":0.25984251968503935,"duration":1.565217000000004},{"name":"C5","midi":72,"time":112.17388500000057,"velocity":0.25984251968503935,"duration":0.2608694999999983},{"name":"F5","midi":77,"time":112.17388500000057,"velocity":0.25984251968503935,"duration":0.2608694999999983},{"name":"C5","midi":72,"time":112.43475450000057,"velocity":0.25984251968503935,"duration":0.2608694999999983},{"name":"G5","midi":79,"time":112.43475450000057,"velocity":0.25984251968503935,"duration":0.2608694999999983},{"name":"C5","midi":72,"time":112.69562400000056,"velocity":0.25984251968503935,"duration":0.7826084999999949},{"name":"E5","midi":76,"time":112.69562400000056,"velocity":0.25984251968503935,"duration":0.7826084999999949},{"name":"A5","midi":81,"time":112.69562400000056,"velocity":0.25984251968503935,"duration":0.7826084999999949},{"name":"G5","midi":79,"time":113.47823250000056,"velocity":0.25984251968503935,"duration":0.2608694999999983},{"name":"F5","midi":77,"time":113.73910200000056,"velocity":0.25984251968503935,"duration":0.2608694999999983},{"name":"C5","midi":72,"time":113.73910200000056,"velocity":0.25984251968503935,"duration":0.2608694999999983},{"name":"G5","midi":79,"time":113.99997150000056,"velocity":0.25984251968503935,"duration":0.13043475000000626},{"name":"C5","midi":72,"time":114.13040625000056,"velocity":0.25984251968503935,"duration":0.39130425000000457},{"name":"E5","midi":76,"time":114.13040625000056,"velocity":0.25984251968503935,"duration":0.39130425000000457},{"name":"C5","midi":72,"time":114.52171050000057,"velocity":0.25984251968503935,"duration":0.2608694999999983},{"name":"A4","midi":69,"time":114.78258000000056,"velocity":0.25984251968503935,"duration":1.565217000000004},{"name":"D5","midi":74,"time":114.78258000000056,"velocity":0.25984251968503935,"duration":1.565217000000004},{"name":"F4","midi":65,"time":114.78258000000056,"velocity":0.25984251968503935,"duration":1.565217000000004},{"name":"F5","midi":77,"time":116.34779700000057,"velocity":0.25984251968503935,"duration":0.2608694999999983},{"name":"A#4","midi":70,"time":116.34779700000057,"velocity":0.25984251968503935,"duration":0.2608694999999983},{"name":"G5","midi":79,"time":116.60866650000057,"velocity":0.25984251968503935,"duration":0.2608694999999983},{"name":"A#4","midi":70,"time":116.60866650000057,"velocity":0.25984251968503935,"duration":0.2608694999999983},{"name":"A5","midi":81,"time":116.86953600000056,"velocity":0.25984251968503935,"duration":0.7826084999999949},{"name":"C5","midi":72,"time":116.86953600000056,"velocity":0.25984251968503935,"duration":0.7826084999999949},{"name":"E5","midi":76,"time":116.86953600000056,"velocity":0.25984251968503935,"duration":0.7826084999999949},{"name":"G5","midi":79,"time":117.65214450000056,"velocity":0.25984251968503935,"duration":0.2608694999999983},{"name":"F5","midi":77,"time":117.91301400000056,"velocity":0.25984251968503935,"duration":0.2608694999999983},{"name":"D5","midi":74,"time":117.91301400000056,"velocity":0.25984251968503935,"duration":0.2608694999999983},{"name":"G5","midi":79,"time":118.17388350000056,"velocity":0.25984251968503935,"duration":0.13043475000000626},{"name":"D5","midi":74,"time":118.30431825000056,"velocity":0.25984251968503935,"duration":0.39130425000000457},{"name":"E5","midi":76,"time":118.30431825000056,"velocity":0.25984251968503935,"duration":0.39130425000000457},{"name":"C5","midi":72,"time":118.69562250000057,"velocity":0.25984251968503935,"duration":0.2608694999999983},{"name":"A#4","midi":70,"time":118.95649200000057,"velocity":0.25984251968503935,"duration":1.565217000000004},{"name":"D5","midi":74,"time":118.95649200000057,"velocity":0.25984251968503935,"duration":1.565217000000004},{"name":"A5","midi":81,"time":118.95649200000057,"velocity":0.25984251968503935,"duration":1.565217000000004},{"name":"A#4","midi":70,"time":120.52170900000057,"velocity":0.25984251968503935,"duration":0.2608694999999983},{"name":"F5","midi":77,"time":120.52170900000057,"velocity":0.25984251968503935,"duration":0.2608694999999983},{"name":"A#4","midi":70,"time":120.78257850000057,"velocity":0.25984251968503935,"duration":0.2608694999999983},{"name":"G5","midi":79,"time":120.78257850000057,"velocity":0.25984251968503935,"duration":0.2608694999999983},{"name":"C5","midi":72,"time":121.04344800000057,"velocity":0.25984251968503935,"duration":0.7826084999999949},{"name":"E5","midi":76,"time":121.04344800000057,"velocity":0.25984251968503935,"duration":0.7826084999999949},{"name":"A5","midi":81,"time":121.04344800000057,"velocity":0.25984251968503935,"duration":0.7826084999999949},{"name":"G5","midi":79,"time":121.82605650000056,"velocity":0.25984251968503935,"duration":0.2608694999999983},{"name":"F5","midi":77,"time":122.08692600000056,"velocity":0.25984251968503935,"duration":0.2608694999999983},{"name":"D5","midi":74,"time":122.08692600000056,"velocity":0.25984251968503935,"duration":0.2608694999999983},{"name":"G5","midi":79,"time":122.34779550000056,"velocity":0.25984251968503935,"duration":0.13043475000000626},{"name":"D5","midi":74,"time":122.47823025000056,"velocity":0.25984251968503935,"duration":0.39130425000000457},{"name":"E5","midi":76,"time":122.47823025000056,"velocity":0.25984251968503935,"duration":0.39130425000000457},{"name":"C5","midi":72,"time":122.86953450000057,"velocity":0.25984251968503935,"duration":0.2608694999999983},{"name":"F4","midi":65,"time":123.13040400000057,"velocity":0.25984251968503935,"duration":2.0869560000000007},{"name":"A4","midi":69,"time":123.13040400000057,"velocity":0.25984251968503935,"duration":2.0869560000000007},{"name":"D5","midi":74,"time":123.13040400000057,"velocity":0.25984251968503935,"duration":2.0869560000000007}],"controlChanges":{},"id":1,"name":"Electric Guitar","instrumentNumber":29,"instrument":"overdriven guitar","instrumentFamily":"guitar","channelNumber":1,"isPercussion":false},{"startTime":0,"duration":173.21734800000345,"length":987,"notes":[{"name":"A2","midi":45,"time":0,"velocity":0.5196850393700787,"duration":0.521739},{"name":"C3","midi":48,"time":0.521739,"velocity":0.5196850393700787,"duration":0.521739},{"name":"A#2","midi":46,"time":1.043478,"velocity":0.5196850393700787,"duration":1.043478},{"name":"D3","midi":50,"time":1.043478,"velocity":0.5196850393700787,"duration":1.043478},{"name":"G2","midi":43,"time":2.086956,"velocity":0.5196850393700787,"duration":0.5217390000000002},{"name":"A#2","midi":46,"time":2.608695,"velocity":0.5196850393700787,"duration":0.5217390000000002},{"name":"C3","midi":48,"time":3.130434,"velocity":0.5196850393700787,"duration":1.0434779999999995},{"name":"A2","midi":45,"time":3.130434,"velocity":0.5196850393700787,"duration":1.0434779999999995},{"name":"G2","midi":43,"time":4.173912,"velocity":0.5196850393700787,"duration":0.5217390000000002},{"name":"A#2","midi":46,"time":4.695651,"velocity":0.5196850393700787,"duration":0.5217390000000002},{"name":"C3","midi":48,"time":5.21739,"velocity":0.5196850393700787,"duration":0.2608695000000001},{"name":"A#2","midi":46,"time":5.4782595,"velocity":0.5196850393700787,"duration":0.2608695000000001},{"name":"G2","midi":43,"time":5.739129,"velocity":0.5196850393700787,"duration":0.2608695000000001},{"name":"A2","midi":45,"time":5.9999985,"velocity":0.5196850393700787,"duration":0.2608695000000001},{"name":"F2","midi":41,"time":6.260868,"velocity":0.5196850393700787,"duration":0.2608695000000001},{"name":"E2","midi":40,"time":6.5217375,"velocity":0.5196850393700787,"duration":0.2608695000000001},{"name":"F2","midi":41,"time":6.7826070000000005,"velocity":0.5196850393700787,"duration":0.2608695000000001},{"name":"G2","midi":43,"time":7.043476500000001,"velocity":0.5196850393700787,"duration":0.2608695000000001},{"name":"F2","midi":41,"time":7.304346000000001,"velocity":0.5196850393700787,"duration":1.0434780000000003},{"name":"D2","midi":38,"time":7.304346000000001,"velocity":0.5196850393700787,"duration":1.0434780000000003},{"name":"A2","midi":45,"time":8.347824000000001,"velocity":0.5196850393700787,"duration":0.5217390000000002},{"name":"C3","midi":48,"time":8.869563000000001,"velocity":0.5196850393700787,"duration":0.5217390000000002},{"name":"D3","midi":50,"time":9.391302000000001,"velocity":0.5196850393700787,"duration":1.0434780000000003},{"name":"A#2","midi":46,"time":9.391302000000001,"velocity":0.5196850393700787,"duration":1.0434780000000003},{"name":"E3","midi":52,"time":10.434780000000002,"velocity":0.5196850393700787,"duration":0.5217390000000002},{"name":"C3","midi":48,"time":10.956519000000002,"velocity":0.5196850393700787,"duration":0.5217390000000002},{"name":"D3","midi":50,"time":11.478258000000002,"velocity":0.5196850393700787,"duration":0.5217390000000002},{"name":"F3","midi":53,"time":11.999997000000002,"velocity":0.5196850393700787,"duration":0.5217390000000002},{"name":"E3","midi":52,"time":12.521736000000002,"velocity":0.5196850393700787,"duration":0.2608695000000001},{"name":"D3","midi":50,"time":12.782605500000003,"velocity":0.5196850393700787,"duration":0.2608695000000001},{"name":"C3","midi":48,"time":13.043475000000003,"velocity":0.5196850393700787,"duration":0.2608695000000001},{"name":"G2","midi":43,"time":13.304344500000003,"velocity":0.5196850393700787,"duration":0.2608695000000001},{"name":"A#2","midi":46,"time":13.565214000000003,"velocity":0.5196850393700787,"duration":0.5217390000000002},{"name":"D3","midi":50,"time":14.086953000000003,"velocity":0.5196850393700787,"duration":0.5217390000000002},{"name":"C3","midi":48,"time":14.608692000000003,"velocity":0.5196850393700787,"duration":0.2608695000000001},{"name":"G2","midi":43,"time":14.869561500000003,"velocity":0.5196850393700787,"duration":0.2608695000000001},{"name":"A2","midi":45,"time":15.130431000000003,"velocity":0.5196850393700787,"duration":0.2608695000000001},{"name":"C3","midi":48,"time":15.391300500000003,"velocity":0.5196850393700787,"duration":0.2608695000000001},{"name":"D3","midi":50,"time":15.652170000000003,"velocity":0.5196850393700787,"duration":1.0434779999999986},{"name":"A2","midi":45,"time":15.652170000000003,"velocity":0.5196850393700787,"duration":1.0434779999999986},{"name":"A#1","midi":34,"time":18.782604000000003,"velocity":0.5196850393700787,"duration":0.13043474999999916},{"name":"F2","midi":41,"time":18.913038750000002,"velocity":0.5196850393700787,"duration":0.13043474999999916},{"name":"A#2","midi":46,"time":19.0434735,"velocity":0.5196850393700787,"duration":0.13043474999999916},{"name":"F2","midi":41,"time":19.17390825,"velocity":0.5196850393700787,"duration":0.13043474999999916},{"name":"A#1","midi":34,"time":19.304343,"velocity":0.5196850393700787,"duration":0.13043474999999916},{"name":"F2","midi":41,"time":19.43477775,"velocity":0.5196850393700787,"duration":0.13043474999999916},{"name":"A#2","midi":46,"time":19.565212499999998,"velocity":0.5196850393700787,"duration":0.13043474999999916},{"name":"F2","midi":41,"time":19.695647249999997,"velocity":0.5196850393700787,"duration":0.13043474999999916},{"name":"A#1","midi":34,"time":19.826081999999996,"velocity":0.5196850393700787,"duration":0.13043474999999916},{"name":"F2","midi":41,"time":19.956516749999995,"velocity":0.5196850393700787,"duration":0.13043474999999916},{"name":"A#2","midi":46,"time":20.086951499999994,"velocity":0.5196850393700787,"duration":0.13043474999999916},{"name":"F2","midi":41,"time":20.217386249999993,"velocity":0.5196850393700787,"duration":0.13043474999999916},{"name":"A#1","midi":34,"time":20.347820999999993,"velocity":0.5196850393700787,"duration":0.13043474999999916},{"name":"F2","midi":41,"time":20.47825574999999,"velocity":0.5196850393700787,"duration":0.13043474999999916},{"name":"A#2","midi":46,"time":20.60869049999999,"velocity":0.5196850393700787,"duration":0.13043474999999916},{"name":"F2","midi":41,"time":20.73912524999999,"velocity":0.5196850393700787,"duration":0.13043474999999916},{"name":"A#1","midi":34,"time":20.86955999999999,"velocity":0.5196850393700787,"duration":0.13043474999999916},{"name":"F2","midi":41,"time":20.99999474999999,"velocity":0.5196850393700787,"duration":0.13043474999999916},{"name":"A#2","midi":46,"time":21.130429499999988,"velocity":0.5196850393700787,"duration":0.13043474999999916},{"name":"F2","midi":41,"time":21.260864249999987,"velocity":0.5196850393700787,"duration":0.13043474999999916},{"name":"A#1","midi":34,"time":21.391298999999986,"velocity":0.5196850393700787,"duration":0.13043474999999916},{"name":"F2","midi":41,"time":21.521733749999985,"velocity":0.5196850393700787,"duration":0.13043474999999916},{"name":"A#2","midi":46,"time":21.652168499999984,"velocity":0.5196850393700787,"duration":0.13043474999999916},{"name":"F2","midi":41,"time":21.782603249999983,"velocity":0.5196850393700787,"duration":0.13043474999999916},{"name":"A#1","midi":34,"time":21.913037999999982,"velocity":0.5196850393700787,"duration":0.13043474999999916},{"name":"F2","midi":41,"time":22.04347274999998,"velocity":0.5196850393700787,"duration":0.13043474999999916},{"name":"A#2","midi":46,"time":22.17390749999998,"velocity":0.5196850393700787,"duration":0.13043474999999916},{"name":"F2","midi":41,"time":22.30434224999998,"velocity":0.5196850393700787,"duration":0.13043474999999916},{"name":"A#1","midi":34,"time":22.43477699999998,"velocity":0.5196850393700787,"duration":0.13043474999999916},{"name":"F2","midi":41,"time":22.56521174999998,"velocity":0.5196850393700787,"duration":0.13043474999999916},{"name":"A#2","midi":46,"time":22.695646499999977,"velocity":0.5196850393700787,"duration":0.13043474999999916},{"name":"F2","midi":41,"time":22.826081249999977,"velocity":0.5196850393700787,"duration":0.13043474999999916},{"name":"D2","midi":38,"time":22.956515999999976,"velocity":0.5196850393700787,"duration":0.13043474999999916},{"name":"A2","midi":45,"time":23.086950749999975,"velocity":0.5196850393700787,"duration":0.13043474999999916},{"name":"D3","midi":50,"time":23.217385499999974,"velocity":0.5196850393700787,"duration":0.13043474999999916},{"name":"A2","midi":45,"time":23.347820249999973,"velocity":0.5196850393700787,"duration":0.13043474999999916},{"name":"D2","midi":38,"time":23.478254999999972,"velocity":0.5196850393700787,"duration":0.13043474999999916},{"name":"A2","midi":45,"time":23.60868974999997,"velocity":0.5196850393700787,"duration":0.13043474999999916},{"name":"D3","midi":50,"time":23.73912449999997,"velocity":0.5196850393700787,"duration":0.13043474999999916},{"name":"A2","midi":45,"time":23.86955924999997,"velocity":0.5196850393700787,"duration":0.13043474999999916},{"name":"D2","midi":38,"time":23.99999399999997,"velocity":0.5196850393700787,"duration":0.13043474999999916},{"name":"A2","midi":45,"time":24.130428749999968,"velocity":0.5196850393700787,"duration":0.13043474999999916},{"name":"D3","midi":50,"time":24.260863499999967,"velocity":0.5196850393700787,"duration":0.13043474999999916},{"name":"A2","midi":45,"time":24.391298249999966,"velocity":0.5196850393700787,"duration":0.13043474999999916},{"name":"D2","midi":38,"time":24.521732999999966,"velocity":0.5196850393700787,"duration":0.13043474999999916},{"name":"A2","midi":45,"time":24.652167749999965,"velocity":0.5196850393700787,"duration":0.13043474999999916},{"name":"D3","midi":50,"time":24.782602499999964,"velocity":0.5196850393700787,"duration":0.13043474999999916},{"name":"A2","midi":45,"time":24.913037249999963,"velocity":0.5196850393700787,"duration":0.13043474999999916},{"name":"D2","midi":38,"time":25.043471999999962,"velocity":0.5196850393700787,"duration":0.13043474999999916},{"name":"A2","midi":45,"time":25.17390674999996,"velocity":0.5196850393700787,"duration":0.13043474999999916},{"name":"D3","midi":50,"time":25.30434149999996,"velocity":0.5196850393700787,"duration":0.13043474999999916},{"name":"A2","midi":45,"time":25.43477624999996,"velocity":0.5196850393700787,"duration":0.13043474999999916},{"name":"D2","midi":38,"time":25.56521099999996,"velocity":0.5196850393700787,"duration":0.13043474999999916},{"name":"A2","midi":45,"time":25.695645749999958,"velocity":0.5196850393700787,"duration":0.13043474999999916},{"name":"D3","midi":50,"time":25.826080499999957,"velocity":0.5196850393700787,"duration":0.13043474999999916},{"name":"A2","midi":45,"time":25.956515249999956,"velocity":0.5196850393700787,"duration":0.13043474999999916},{"name":"F2","midi":41,"time":26.086949999999955,"velocity":0.5196850393700787,"duration":0.5217390000000002},{"name":"D3","midi":50,"time":26.086949999999955,"velocity":0.5196850393700787,"duration":0.5217390000000002},{"name":"F2","midi":41,"time":26.086949999999955,"velocity":0.5196850393700787,"duration":0.5217390000000002},{"name":"D3","midi":50,"time":26.086949999999955,"velocity":0.5196850393700787,"duration":0.5217390000000002},{"name":"E3","midi":52,"time":26.608688999999956,"velocity":0.5196850393700787,"duration":0.5217390000000002},{"name":"E2","midi":40,"time":26.608688999999956,"velocity":0.5196850393700787,"duration":0.5217390000000002},{"name":"E3","midi":52,"time":26.608688999999956,"velocity":0.5196850393700787,"duration":0.5217390000000002},{"name":"E2","midi":40,"time":26.608688999999956,"velocity":0.5196850393700787,"duration":0.5217390000000002},{"name":"A#1","midi":34,"time":27.130427999999956,"velocity":0.5196850393700787,"duration":0.13043474999999916},{"name":"F2","midi":41,"time":27.260862749999955,"velocity":0.5196850393700787,"duration":0.13043474999999916},{"name":"A#2","midi":46,"time":27.391297499999954,"velocity":0.5196850393700787,"duration":0.13043474999999916},{"name":"F2","midi":41,"time":27.521732249999953,"velocity":0.5196850393700787,"duration":0.13043474999999916},{"name":"A#1","midi":34,"time":27.652166999999952,"velocity":0.5196850393700787,"duration":0.13043474999999916},{"name":"F2","midi":41,"time":27.78260174999995,"velocity":0.5196850393700787,"duration":0.13043474999999916},{"name":"A#2","midi":46,"time":27.91303649999995,"velocity":0.5196850393700787,"duration":0.13043474999999916},{"name":"F2","midi":41,"time":28.04347124999995,"velocity":0.5196850393700787,"duration":0.13043474999999916},{"name":"A#1","midi":34,"time":28.17390599999995,"velocity":0.5196850393700787,"duration":0.13043474999999916},{"name":"F2","midi":41,"time":28.304340749999948,"velocity":0.5196850393700787,"duration":0.13043474999999916},{"name":"A#2","midi":46,"time":28.434775499999947,"velocity":0.5196850393700787,"duration":0.13043474999999916},{"name":"F2","midi":41,"time":28.565210249999947,"velocity":0.5196850393700787,"duration":0.13043474999999916},{"name":"A#1","midi":34,"time":28.695644999999946,"velocity":0.5196850393700787,"duration":0.13043474999999916},{"name":"F2","midi":41,"time":28.826079749999945,"velocity":0.5196850393700787,"duration":0.13043474999999916},{"name":"A#2","midi":46,"time":28.956514499999944,"velocity":0.5196850393700787,"duration":0.13043474999999916},{"name":"F2","midi":41,"time":29.086949249999943,"velocity":0.5196850393700787,"duration":0.13043474999999916},{"name":"C2","midi":36,"time":29.217383999999942,"velocity":0.5196850393700787,"duration":0.13043474999999916},{"name":"G2","midi":43,"time":29.34781874999994,"velocity":0.5196850393700787,"duration":0.13043474999999916},{"name":"C3","midi":48,"time":29.47825349999994,"velocity":0.5196850393700787,"duration":0.13043474999999916},{"name":"G2","midi":43,"time":29.60868824999994,"velocity":0.5196850393700787,"duration":0.13043474999999916},{"name":"C2","midi":36,"time":29.73912299999994,"velocity":0.5196850393700787,"duration":0.13043474999999916},{"name":"G2","midi":43,"time":29.869557749999938,"velocity":0.5196850393700787,"duration":0.13043474999999916},{"name":"C3","midi":48,"time":29.999992499999937,"velocity":0.5196850393700787,"duration":0.13043474999999916},{"name":"G2","midi":43,"time":30.130427249999936,"velocity":0.5196850393700787,"duration":0.13043474999999916},{"name":"C2","midi":36,"time":30.260861999999936,"velocity":0.5196850393700787,"duration":0.13043474999999916},{"name":"G2","midi":43,"time":30.391296749999935,"velocity":0.5196850393700787,"duration":0.13043474999999916},{"name":"C3","midi":48,"time":30.521731499999934,"velocity":0.5196850393700787,"duration":0.13043474999999916},{"name":"G2","midi":43,"time":30.652166249999933,"velocity":0.5196850393700787,"duration":0.13043474999999916},{"name":"C2","midi":36,"time":30.782600999999932,"velocity":0.5196850393700787,"duration":0.13043474999999916},{"name":"G2","midi":43,"time":30.91303574999993,"velocity":0.5196850393700787,"duration":0.13043474999999916},{"name":"C3","midi":48,"time":31.04347049999993,"velocity":0.5196850393700787,"duration":0.13043474999999916},{"name":"G2","midi":43,"time":31.17390524999993,"velocity":0.5196850393700787,"duration":0.13043474999999916},{"name":"D2","midi":38,"time":31.30433999999993,"velocity":0.5196850393700787,"duration":0.13043474999999916},{"name":"A2","midi":45,"time":31.434774749999928,"velocity":0.5196850393700787,"duration":0.13043474999999916},{"name":"D3","midi":50,"time":31.565209499999927,"velocity":0.5196850393700787,"duration":0.13043474999999916},{"name":"A2","midi":45,"time":31.695644249999926,"velocity":0.5196850393700787,"duration":0.13043474999999916},{"name":"D2","midi":38,"time":31.826078999999925,"velocity":0.5196850393700787,"duration":0.13043474999999916},{"name":"A2","midi":45,"time":31.956513749999925,"velocity":0.5196850393700787,"duration":0.1304347500000027},{"name":"D3","midi":50,"time":32.08694849999993,"velocity":0.5196850393700787,"duration":0.13043474999999916},{"name":"A2","midi":45,"time":32.217383249999926,"velocity":0.5196850393700787,"duration":0.13043474999999916},{"name":"D2","midi":38,"time":32.347817999999926,"velocity":0.5196850393700787,"duration":0.13043474999999916},{"name":"A2","midi":45,"time":32.478252749999925,"velocity":0.5196850393700787,"duration":0.13043474999999916},{"name":"D3","midi":50,"time":32.608687499999924,"velocity":0.5196850393700787,"duration":0.13043474999999916},{"name":"A2","midi":45,"time":32.73912224999992,"velocity":0.5196850393700787,"duration":0.13043474999999916},{"name":"D2","midi":38,"time":32.86955699999992,"velocity":0.5196850393700787,"duration":0.13043474999999916},{"name":"A2","midi":45,"time":32.99999174999992,"velocity":0.5196850393700787,"duration":0.13043474999999916},{"name":"D3","midi":50,"time":33.13042649999992,"velocity":0.5196850393700787,"duration":0.13043474999999916},{"name":"A2","midi":45,"time":33.26086124999992,"velocity":0.5196850393700787,"duration":0.13043474999999916},{"name":"C2","midi":36,"time":33.39129599999992,"velocity":0.5196850393700787,"duration":0.13043474999999916},{"name":"G2","midi":43,"time":33.52173074999992,"velocity":0.5196850393700787,"duration":0.13043474999999916},{"name":"G2","midi":43,"time":33.782600249999916,"velocity":0.5196850393700787,"duration":0.13043474999999916},{"name":"C2","midi":36,"time":33.913034999999915,"velocity":0.5196850393700787,"duration":0.13043474999999916},{"name":"G2","midi":43,"time":34.043469749999915,"velocity":0.5196850393700787,"duration":0.13043474999999916},{"name":"C3","midi":48,"time":34.173904499999914,"velocity":0.5196850393700787,"duration":0.13043474999999916},{"name":"G2","midi":43,"time":34.30433924999991,"velocity":0.5196850393700787,"duration":0.13043474999999916},{"name":"A#1","midi":34,"time":35.47825199999991,"velocity":0.5196850393700787,"duration":0.13043474999999916},{"name":"F2","midi":41,"time":35.60868674999991,"velocity":0.5196850393700787,"duration":0.13043474999999916},{"name":"A#2","midi":46,"time":35.73912149999991,"velocity":0.5196850393700787,"duration":0.13043474999999916},{"name":"F2","midi":41,"time":35.86955624999991,"velocity":0.5196850393700787,"duration":0.13043474999999916},{"name":"A#1","midi":34,"time":35.99999099999991,"velocity":0.5196850393700787,"duration":0.13043474999999916},{"name":"F2","midi":41,"time":36.13042574999991,"velocity":0.5196850393700787,"duration":0.13043474999999916},{"name":"A#2","midi":46,"time":36.26086049999991,"velocity":0.5196850393700787,"duration":0.13043474999999916},{"name":"F2","midi":41,"time":36.39129524999991,"velocity":0.5196850393700787,"duration":0.13043474999999916},{"name":"A#1","midi":34,"time":36.521729999999906,"velocity":0.5196850393700787,"duration":0.13043474999999916},{"name":"F2","midi":41,"time":36.652164749999905,"velocity":0.5196850393700787,"duration":0.13043474999999916},{"name":"A#2","midi":46,"time":36.782599499999904,"velocity":0.5196850393700787,"duration":0.13043474999999916},{"name":"F2","midi":41,"time":36.9130342499999,"velocity":0.5196850393700787,"duration":0.13043474999999916},{"name":"A#1","midi":34,"time":37.0434689999999,"velocity":0.5196850393700787,"duration":0.13043474999999916},{"name":"F2","midi":41,"time":37.1739037499999,"velocity":0.5196850393700787,"duration":0.13043474999999916},{"name":"A#2","midi":46,"time":37.3043384999999,"velocity":0.5196850393700787,"duration":0.13043474999999916},{"name":"F2","midi":41,"time":37.4347732499999,"velocity":0.5196850393700787,"duration":0.13043474999999916},{"name":"A#1","midi":34,"time":37.5652079999999,"velocity":0.5196850393700787,"duration":0.13043474999999916},{"name":"F2","midi":41,"time":37.6956427499999,"velocity":0.5196850393700787,"duration":0.13043474999999916},{"name":"A#2","midi":46,"time":37.8260774999999,"velocity":0.5196850393700787,"duration":0.13043474999999916},{"name":"F2","midi":41,"time":37.956512249999896,"velocity":0.5196850393700787,"duration":0.13043474999999916},{"name":"A#1","midi":34,"time":38.086946999999896,"velocity":0.5196850393700787,"duration":0.13043474999999916},{"name":"F2","midi":41,"time":38.217381749999895,"velocity":0.5196850393700787,"duration":0.13043474999999916},{"name":"A#2","midi":46,"time":38.347816499999894,"velocity":0.5196850393700787,"duration":0.13043474999999916},{"name":"F2","midi":41,"time":38.47825124999989,"velocity":0.5196850393700787,"duration":0.13043474999999916},{"name":"A#1","midi":34,"time":38.60868599999989,"velocity":0.5196850393700787,"duration":0.13043474999999916},{"name":"F2","midi":41,"time":38.73912074999989,"velocity":0.5196850393700787,"duration":0.13043474999999916},{"name":"A#2","midi":46,"time":38.86955549999989,"velocity":0.5196850393700787,"duration":0.13043474999999916},{"name":"F2","midi":41,"time":38.99999024999989,"velocity":0.5196850393700787,"duration":0.13043474999999916},{"name":"A#1","midi":34,"time":39.13042499999989,"velocity":0.5196850393700787,"duration":0.13043474999999916},{"name":"F2","midi":41,"time":39.26085974999989,"velocity":0.5196850393700787,"duration":0.13043474999999916},{"name":"A#2","midi":46,"time":39.39129449999989,"velocity":0.5196850393700787,"duration":0.13043474999999916},{"name":"F2","midi":41,"time":39.521729249999886,"velocity":0.5196850393700787,"duration":0.13043474999999916},{"name":"D2","midi":38,"time":39.652163999999885,"velocity":0.5196850393700787,"duration":0.13043474999999916},{"name":"A2","midi":45,"time":39.782598749999885,"velocity":0.5196850393700787,"duration":0.13043474999999916},{"name":"D3","midi":50,"time":39.913033499999884,"velocity":0.5196850393700787,"duration":0.13043474999999916},{"name":"A2","midi":45,"time":40.04346824999988,"velocity":0.5196850393700787,"duration":0.13043474999999916},{"name":"D2","midi":38,"time":40.17390299999988,"velocity":0.5196850393700787,"duration":0.13043474999999916},{"name":"A2","midi":45,"time":40.30433774999988,"velocity":0.5196850393700787,"duration":0.13043474999999916},{"name":"D3","midi":50,"time":40.43477249999988,"velocity":0.5196850393700787,"duration":0.13043474999999916},{"name":"A2","midi":45,"time":40.56520724999988,"velocity":0.5196850393700787,"duration":0.13043474999999916},{"name":"D2","midi":38,"time":40.69564199999988,"velocity":0.5196850393700787,"duration":0.13043474999999916},{"name":"A2","midi":45,"time":40.82607674999988,"velocity":0.5196850393700787,"duration":0.13043474999999916},{"name":"D3","midi":50,"time":40.95651149999988,"velocity":0.5196850393700787,"duration":0.13043474999999916},{"name":"A2","midi":45,"time":41.086946249999876,"velocity":0.5196850393700787,"duration":0.13043474999999916},{"name":"D2","midi":38,"time":41.217380999999875,"velocity":0.5196850393700787,"duration":0.13043474999999916},{"name":"A2","midi":45,"time":41.347815749999874,"velocity":0.5196850393700787,"duration":0.13043474999999916},{"name":"D3","midi":50,"time":41.478250499999874,"velocity":0.5196850393700787,"duration":0.13043474999999916},{"name":"A2","midi":45,"time":41.60868524999987,"velocity":0.5196850393700787,"duration":0.13043474999999916},{"name":"D2","midi":38,"time":41.73911999999987,"velocity":0.5196850393700787,"duration":0.13043474999999916},{"name":"A2","midi":45,"time":41.86955474999987,"velocity":0.5196850393700787,"duration":0.13043474999999916},{"name":"D3","midi":50,"time":41.99998949999987,"velocity":0.5196850393700787,"duration":0.13043474999999916},{"name":"A2","midi":45,"time":42.13042424999987,"velocity":0.5196850393700787,"duration":0.13043474999999916},{"name":"D2","midi":38,"time":42.26085899999987,"velocity":0.5196850393700787,"duration":0.13043474999999916},{"name":"A2","midi":45,"time":42.39129374999987,"velocity":0.5196850393700787,"duration":0.13043474999999916},{"name":"D3","midi":50,"time":42.52172849999987,"velocity":0.5196850393700787,"duration":0.13043474999999916},{"name":"A2","midi":45,"time":42.652163249999866,"velocity":0.5196850393700787,"duration":0.13043474999999916},{"name":"F2","midi":41,"time":42.782597999999865,"velocity":0.5196850393700787,"duration":0.5217389999999966},{"name":"D3","midi":50,"time":42.782597999999865,"velocity":0.5196850393700787,"duration":0.5217389999999966},{"name":"E3","midi":52,"time":43.30433699999986,"velocity":0.5196850393700787,"duration":0.5217389999999966},{"name":"E2","midi":40,"time":43.30433699999986,"velocity":0.5196850393700787,"duration":0.5217389999999966},{"name":"A#1","midi":34,"time":43.82607599999986,"velocity":0.5196850393700787,"duration":0.13043474999999916},{"name":"F2","midi":41,"time":43.95651074999986,"velocity":0.5196850393700787,"duration":0.13043474999999916},{"name":"A#2","midi":46,"time":44.08694549999986,"velocity":0.5196850393700787,"duration":0.13043474999999916},{"name":"F2","midi":41,"time":44.217380249999856,"velocity":0.5196850393700787,"duration":0.13043474999999916},{"name":"A#1","midi":34,"time":44.347814999999855,"velocity":0.5196850393700787,"duration":0.13043474999999916},{"name":"F2","midi":41,"time":44.478249749999854,"velocity":0.5196850393700787,"duration":0.13043474999999916},{"name":"A#2","midi":46,"time":44.60868449999985,"velocity":0.5196850393700787,"duration":0.13043474999999916},{"name":"F2","midi":41,"time":44.73911924999985,"velocity":0.5196850393700787,"duration":0.13043474999999916},{"name":"A#1","midi":34,"time":44.86955399999985,"velocity":0.5196850393700787,"duration":0.13043474999999916},{"name":"F2","midi":41,"time":44.99998874999985,"velocity":0.5196850393700787,"duration":0.13043474999999916},{"name":"A#2","midi":46,"time":45.13042349999985,"velocity":0.5196850393700787,"duration":0.13043474999999916},{"name":"F2","midi":41,"time":45.26085824999985,"velocity":0.5196850393700787,"duration":0.13043474999999916},{"name":"A#1","midi":34,"time":45.39129299999985,"velocity":0.5196850393700787,"duration":0.13043474999999916},{"name":"F2","midi":41,"time":45.52172774999985,"velocity":0.5196850393700787,"duration":0.13043474999999916},{"name":"A#2","midi":46,"time":45.65216249999985,"velocity":0.5196850393700787,"duration":0.13043474999999916},{"name":"F2","midi":41,"time":45.782597249999846,"velocity":0.5196850393700787,"duration":0.13043474999999916},{"name":"C2","midi":36,"time":45.913031999999845,"velocity":0.5196850393700787,"duration":0.13043474999999916},{"name":"G2","midi":43,"time":46.043466749999844,"velocity":0.5196850393700787,"duration":0.13043474999999916},{"name":"C3","midi":48,"time":46.17390149999984,"velocity":0.5196850393700787,"duration":0.13043474999999916},{"name":"G2","midi":43,"time":46.30433624999984,"velocity":0.5196850393700787,"duration":0.13043474999999916},{"name":"C2","midi":36,"time":46.43477099999984,"velocity":0.5196850393700787,"duration":0.13043474999999916},{"name":"G2","midi":43,"time":46.56520574999984,"velocity":0.5196850393700787,"duration":0.13043474999999916},{"name":"C3","midi":48,"time":46.69564049999984,"velocity":0.5196850393700787,"duration":0.13043474999999916},{"name":"G2","midi":43,"time":46.82607524999984,"velocity":0.5196850393700787,"duration":0.13043474999999916},{"name":"C2","midi":36,"time":46.95650999999984,"velocity":0.5196850393700787,"duration":0.13043474999999916},{"name":"G2","midi":43,"time":47.08694474999984,"velocity":0.5196850393700787,"duration":0.13043474999999916},{"name":"C3","midi":48,"time":47.217379499999836,"velocity":0.5196850393700787,"duration":0.13043474999999916},{"name":"G2","midi":43,"time":47.347814249999836,"velocity":0.5196850393700787,"duration":0.13043474999999916},{"name":"C2","midi":36,"time":47.478248999999835,"velocity":0.5196850393700787,"duration":0.13043474999999916},{"name":"G2","midi":43,"time":47.608683749999834,"velocity":0.5196850393700787,"duration":0.13043474999999916},{"name":"C3","midi":48,"time":47.73911849999983,"velocity":0.5196850393700787,"duration":0.13043474999999916},{"name":"G2","midi":43,"time":47.86955324999983,"velocity":0.5196850393700787,"duration":0.13043474999999916},{"name":"D2","midi":38,"time":47.99998799999983,"velocity":0.5196850393700787,"duration":0.13043474999999916},{"name":"A2","midi":45,"time":48.13042274999983,"velocity":0.5196850393700787,"duration":0.13043474999999916},{"name":"D3","midi":50,"time":48.26085749999983,"velocity":0.5196850393700787,"duration":0.13043474999999916},{"name":"A2","midi":45,"time":48.39129224999983,"velocity":0.5196850393700787,"duration":0.13043474999999916},{"name":"D2","midi":38,"time":48.52172699999983,"velocity":0.5196850393700787,"duration":0.13043474999999916},{"name":"A2","midi":45,"time":48.65216174999983,"velocity":0.5196850393700787,"duration":0.13043474999999916},{"name":"D3","midi":50,"time":48.782596499999826,"velocity":0.5196850393700787,"duration":0.13043474999999916},{"name":"A2","midi":45,"time":48.913031249999825,"velocity":0.5196850393700787,"duration":0.13043474999999916},{"name":"D2","midi":38,"time":49.043465999999825,"velocity":0.5196850393700787,"duration":0.13043474999999916},{"name":"A2","midi":45,"time":49.173900749999824,"velocity":0.5196850393700787,"duration":0.13043474999999916},{"name":"D3","midi":50,"time":49.30433549999982,"velocity":0.5196850393700787,"duration":0.13043474999999916},{"name":"A2","midi":45,"time":49.43477024999982,"velocity":0.5196850393700787,"duration":0.13043474999999916},{"name":"D2","midi":38,"time":49.56520499999982,"velocity":0.5196850393700787,"duration":0.13043474999999916},{"name":"A2","midi":45,"time":49.69563974999982,"velocity":0.5196850393700787,"duration":0.13043474999999916},{"name":"D3","midi":50,"time":49.82607449999982,"velocity":0.5196850393700787,"duration":0.13043474999999916},{"name":"A2","midi":45,"time":49.95650924999982,"velocity":0.5196850393700787,"duration":0.13043474999999916},{"name":"G2","midi":43,"time":50.08694399999982,"velocity":0.5196850393700787,"duration":1.0434780000000003},{"name":"C3","midi":48,"time":50.08694399999982,"velocity":0.5196850393700787,"duration":1.0434780000000003},{"name":"C2","midi":36,"time":50.08694399999982,"velocity":0.5196850393700787,"duration":1.0434780000000003},{"name":"F3","midi":53,"time":51.13042199999982,"velocity":0.5196850393700787,"duration":0.13043474999999916},{"name":"E3","midi":52,"time":51.652160999999815,"velocity":0.5196850393700787,"duration":0.13043474999999916},{"name":"A#2","midi":46,"time":52.17389999999981,"velocity":0.5196850393700787,"duration":0.13043474999999916},{"name":"F3","midi":53,"time":52.17389999999981,"velocity":0.5196850393700787,"duration":0.13043474999999916},{"name":"A#2","midi":46,"time":52.69563899999981,"velocity":0.5196850393700787,"duration":0.13043474999999916},{"name":"F3","midi":53,"time":52.69563899999981,"velocity":0.5196850393700787,"duration":0.13043474999999916},{"name":"A#2","midi":46,"time":53.217377999999805,"velocity":0.5196850393700787,"duration":0.13043474999999916},{"name":"F3","midi":53,"time":53.217377999999805,"velocity":0.5196850393700787,"duration":0.13043474999999916},{"name":"F3","midi":53,"time":53.7391169999998,"velocity":0.5196850393700787,"duration":0.13043474999999916},{"name":"E3","midi":52,"time":53.8695517499998,"velocity":0.5196850393700787,"duration":0.13043474999999916},{"name":"D3","midi":50,"time":53.9999864999998,"velocity":0.5196850393700787,"duration":0.13043474999999916},{"name":"F3","midi":53,"time":54.1304212499998,"velocity":0.5196850393700787,"duration":0.13043474999999916},{"name":"C3","midi":48,"time":54.2608559999998,"velocity":0.5196850393700787,"duration":0.13043474999999916},{"name":"G3","midi":55,"time":54.2608559999998,"velocity":0.5196850393700787,"duration":0.13043474999999916},{"name":"C3","midi":48,"time":54.782594999999795,"velocity":0.5196850393700787,"duration":0.13043474999999916},{"name":"G3","midi":55,"time":54.782594999999795,"velocity":0.5196850393700787,"duration":0.13043474999999916},{"name":"C3","midi":48,"time":55.30433399999979,"velocity":0.5196850393700787,"duration":0.13043474999999916},{"name":"G3","midi":55,"time":55.30433399999979,"velocity":0.5196850393700787,"duration":0.13043474999999916},{"name":"C3","midi":48,"time":55.82607299999979,"velocity":0.5196850393700787,"duration":0.13043474999999916},{"name":"G3","midi":55,"time":55.82607299999979,"velocity":0.5196850393700787,"duration":0.13043474999999916},{"name":"F3","midi":53,"time":55.95650774999979,"velocity":0.5196850393700787,"duration":0.13043474999999916},{"name":"E3","midi":52,"time":56.086942499999786,"velocity":0.5196850393700787,"duration":0.13043474999999916},{"name":"C3","midi":48,"time":56.217377249999785,"velocity":0.5196850393700787,"duration":0.13043474999999916},{"name":"A2","midi":45,"time":56.347811999999784,"velocity":0.5196850393700787,"duration":0.13043474999999916},{"name":"D3","midi":50,"time":56.347811999999784,"velocity":0.5196850393700787,"duration":0.13043474999999916},{"name":"A2","midi":45,"time":56.86955099999978,"velocity":0.5196850393700787,"duration":0.13043474999999916},{"name":"D3","midi":50,"time":56.86955099999978,"velocity":0.5196850393700787,"duration":0.13043474999999916},{"name":"A2","midi":45,"time":57.39128999999978,"velocity":0.5196850393700787,"duration":0.13043474999999916},{"name":"D3","midi":50,"time":57.39128999999978,"velocity":0.5196850393700787,"duration":0.13043474999999916},{"name":"A2","midi":45,"time":57.913028999999774,"velocity":0.5196850393700787,"duration":0.13043474999999916},{"name":"D3","midi":50,"time":57.913028999999774,"velocity":0.5196850393700787,"duration":0.13043474999999916},{"name":"C3","midi":48,"time":58.04346374999977,"velocity":0.5196850393700787,"duration":0.13043474999999916},{"name":"A#2","midi":46,"time":58.17389849999977,"velocity":0.5196850393700787,"duration":0.13043474999999916},{"name":"D3","midi":50,"time":58.30433324999977,"velocity":0.5196850393700787,"duration":0.13043474999999916},{"name":"A2","midi":45,"time":58.43476799999977,"velocity":0.5196850393700787,"duration":0.13043474999999916},{"name":"E3","midi":52,"time":58.43476799999977,"velocity":0.5196850393700787,"duration":0.13043474999999916},{"name":"A2","midi":45,"time":58.82607224999977,"velocity":0.5196850393700787,"duration":0.19565212500000229},{"name":"E3","midi":52,"time":58.82607224999977,"velocity":0.5196850393700787,"duration":0.19565212500000229},{"name":"E3","midi":52,"time":59.21737649999977,"velocity":0.5196850393700787,"duration":0.13043474999999916},{"name":"A2","midi":45,"time":59.21737649999977,"velocity":0.5196850393700787,"duration":0.13043474999999916},{"name":"E3","midi":52,"time":59.47824599999977,"velocity":0.5196850393700787,"duration":0.13043474999999916},{"name":"C3","midi":48,"time":59.47824599999977,"velocity":0.5196850393700787,"duration":0.13043474999999916},{"name":"E3","midi":52,"time":59.86955024999977,"velocity":0.5196850393700787,"duration":0.39130424999999747},{"name":"C3","midi":48,"time":59.86955024999977,"velocity":0.5196850393700787,"duration":0.39130424999999747},{"name":"A2","midi":45,"time":60.260854499999766,"velocity":0.5196850393700787,"duration":0.13043474999999916},{"name":"C3","midi":48,"time":60.260854499999766,"velocity":0.5196850393700787,"duration":0.13043474999999916},{"name":"A#2","midi":46,"time":60.521723999999764,"velocity":0.5196850393700787,"duration":0.13043474999999916},{"name":"F3","midi":53,"time":60.521723999999764,"velocity":0.5196850393700787,"duration":0.13043474999999916},{"name":"A#2","midi":46,"time":61.04346299999976,"velocity":0.5196850393700787,"duration":0.13043474999999916},{"name":"F3","midi":53,"time":61.04346299999976,"velocity":0.5196850393700787,"duration":0.13043474999999916},{"name":"A#2","midi":46,"time":61.56520199999976,"velocity":0.5196850393700787,"duration":0.13043474999999916},{"name":"F3","midi":53,"time":61.56520199999976,"velocity":0.5196850393700787,"duration":0.13043474999999916},{"name":"F3","midi":53,"time":62.086940999999754,"velocity":0.5196850393700787,"duration":0.13043474999999916},{"name":"E3","midi":52,"time":62.21737574999975,"velocity":0.5196850393700787,"duration":0.13043474999999916},{"name":"D3","midi":50,"time":62.34781049999975,"velocity":0.5196850393700787,"duration":0.13043474999999916},{"name":"F3","midi":53,"time":62.47824524999975,"velocity":0.5196850393700787,"duration":0.13043474999999916},{"name":"C3","midi":48,"time":62.60867999999975,"velocity":0.5196850393700787,"duration":0.13043474999999916},{"name":"G3","midi":55,"time":62.60867999999975,"velocity":0.5196850393700787,"duration":0.13043474999999916},{"name":"C3","midi":48,"time":63.13041899999975,"velocity":0.5196850393700787,"duration":0.13043474999999916},{"name":"G3","midi":55,"time":63.13041899999975,"velocity":0.5196850393700787,"duration":0.13043474999999916},{"name":"C3","midi":48,"time":63.652157999999744,"velocity":0.5196850393700787,"duration":0.13043474999999916},{"name":"G3","midi":55,"time":63.652157999999744,"velocity":0.5196850393700787,"duration":0.13043474999999916},{"name":"C3","midi":48,"time":64.17389699999974,"velocity":0.5196850393700787,"duration":0.13043475000000626},{"name":"G3","midi":55,"time":64.17389699999974,"velocity":0.5196850393700787,"duration":0.13043475000000626},{"name":"F3","midi":53,"time":64.30433174999975,"velocity":0.5196850393700787,"duration":0.13043475000000626},{"name":"E3","midi":52,"time":64.43476649999975,"velocity":0.5196850393700787,"duration":0.13043475000000626},{"name":"C3","midi":48,"time":64.56520124999976,"velocity":0.5196850393700787,"duration":0.13043475000000626},{"name":"A2","midi":45,"time":64.69563599999977,"velocity":0.5196850393700787,"duration":0.13043475000000626},{"name":"D3","midi":50,"time":64.69563599999977,"velocity":0.5196850393700787,"duration":0.13043475000000626},{"name":"A2","midi":45,"time":65.21737499999978,"velocity":0.5196850393700787,"duration":0.13043475000000626},{"name":"D3","midi":50,"time":65.21737499999978,"velocity":0.5196850393700787,"duration":0.13043475000000626},{"name":"A2","midi":45,"time":65.73911399999979,"velocity":0.5196850393700787,"duration":0.13043475000000626},{"name":"D3","midi":50,"time":65.73911399999979,"velocity":0.5196850393700787,"duration":0.13043475000000626},{"name":"A2","midi":45,"time":66.2608529999998,"velocity":0.5196850393700787,"duration":0.13043475000000626},{"name":"D3","midi":50,"time":66.2608529999998,"velocity":0.5196850393700787,"duration":0.13043475000000626},{"name":"C3","midi":48,"time":66.3912877499998,"velocity":0.5196850393700787,"duration":0.13043475000000626},{"name":"A#2","midi":46,"time":66.52172249999981,"velocity":0.5196850393700787,"duration":0.13043475000000626},{"name":"D3","midi":50,"time":66.65215724999982,"velocity":0.5196850393700787,"duration":0.13043475000000626},{"name":"A2","midi":45,"time":66.78259199999982,"velocity":0.5196850393700787,"duration":0.13043475000000626},{"name":"A2","midi":45,"time":67.17389624999983,"velocity":0.5196850393700787,"duration":0.19565212499999518},{"name":"A2","midi":45,"time":67.56520049999982,"velocity":0.5196850393700787,"duration":0.13043475000000626},{"name":"C3","midi":48,"time":67.82606999999983,"velocity":0.5196850393700787,"duration":0.13043475000000626},{"name":"C3","midi":48,"time":68.21737424999984,"velocity":0.5196850393700787,"duration":0.39130425000000457},{"name":"E3","midi":52,"time":68.60867849999984,"velocity":0.5196850393700787,"duration":0.13043475000000626},{"name":"A#1","midi":34,"time":68.86954799999985,"velocity":0.5196850393700787,"duration":0.13043475000000626},{"name":"F2","midi":41,"time":68.99998274999986,"velocity":0.5196850393700787,"duration":0.13043475000000626},{"name":"A#2","midi":46,"time":69.13041749999987,"velocity":0.5196850393700787,"duration":0.13043475000000626},{"name":"F2","midi":41,"time":69.26085224999987,"velocity":0.5196850393700787,"duration":0.13043475000000626},{"name":"A#1","midi":34,"time":69.39128699999988,"velocity":0.5196850393700787,"duration":0.13043475000000626},{"name":"F2","midi":41,"time":69.52172174999988,"velocity":0.5196850393700787,"duration":0.13043475000000626},{"name":"A#2","midi":46,"time":69.65215649999989,"velocity":0.5196850393700787,"duration":0.13043475000000626},{"name":"F2","midi":41,"time":69.7825912499999,"velocity":0.5196850393700787,"duration":0.13043475000000626},{"name":"A#1","midi":34,"time":69.9130259999999,"velocity":0.5196850393700787,"duration":0.13043475000000626},{"name":"F2","midi":41,"time":70.04346074999991,"velocity":0.5196850393700787,"duration":0.13043475000000626},{"name":"A#2","midi":46,"time":70.17389549999992,"velocity":0.5196850393700787,"duration":0.13043475000000626},{"name":"F2","midi":41,"time":70.30433024999992,"velocity":0.5196850393700787,"duration":0.13043475000000626},{"name":"A#1","midi":34,"time":70.43476499999993,"velocity":0.5196850393700787,"duration":0.13043475000000626},{"name":"F2","midi":41,"time":70.56519974999993,"velocity":0.5196850393700787,"duration":0.13043475000000626},{"name":"A#2","midi":46,"time":70.69563449999994,"velocity":0.5196850393700787,"duration":0.13043475000000626},{"name":"F2","midi":41,"time":70.82606924999995,"velocity":0.5196850393700787,"duration":0.13043475000000626},{"name":"C2","midi":36,"time":70.95650399999995,"velocity":0.5196850393700787,"duration":0.13043475000000626},{"name":"G2","midi":43,"time":71.08693874999996,"velocity":0.5196850393700787,"duration":0.13043475000000626},{"name":"C3","midi":48,"time":71.21737349999997,"velocity":0.5196850393700787,"duration":0.13043475000000626},{"name":"G2","midi":43,"time":71.34780824999997,"velocity":0.5196850393700787,"duration":0.13043475000000626},{"name":"C2","midi":36,"time":71.47824299999998,"velocity":0.5196850393700787,"duration":0.13043475000000626},{"name":"G2","midi":43,"time":71.60867774999998,"velocity":0.5196850393700787,"duration":0.13043475000000626},{"name":"C3","midi":48,"time":71.73911249999999,"velocity":0.5196850393700787,"duration":0.13043475000000626},{"name":"G2","midi":43,"time":71.86954725,"velocity":0.5196850393700787,"duration":0.13043475000000626},{"name":"C2","midi":36,"time":71.999982,"velocity":0.5196850393700787,"duration":0.13043475000000626},{"name":"G2","midi":43,"time":72.13041675000001,"velocity":0.5196850393700787,"duration":0.13043475000000626},{"name":"C3","midi":48,"time":72.26085150000002,"velocity":0.5196850393700787,"duration":0.13043475000000626},{"name":"G2","midi":43,"time":72.39128625000002,"velocity":0.5196850393700787,"duration":0.13043475000000626},{"name":"C2","midi":36,"time":72.52172100000003,"velocity":0.5196850393700787,"duration":0.13043475000000626},{"name":"G2","midi":43,"time":72.65215575000003,"velocity":0.5196850393700787,"duration":0.13043475000000626},{"name":"C3","midi":48,"time":72.78259050000004,"velocity":0.5196850393700787,"duration":0.13043475000000626},{"name":"G2","midi":43,"time":72.91302525000005,"velocity":0.5196850393700787,"duration":0.13043475000000626},{"name":"D2","midi":38,"time":73.04346000000005,"velocity":0.5196850393700787,"duration":0.13043475000000626},{"name":"A2","midi":45,"time":73.17389475000006,"velocity":0.5196850393700787,"duration":0.13043475000000626},{"name":"D3","midi":50,"time":73.30432950000007,"velocity":0.5196850393700787,"duration":0.13043475000000626},{"name":"A2","midi":45,"time":73.43476425000007,"velocity":0.5196850393700787,"duration":0.13043475000000626},{"name":"D2","midi":38,"time":73.56519900000008,"velocity":0.5196850393700787,"duration":0.13043475000000626},{"name":"A2","midi":45,"time":73.69563375000008,"velocity":0.5196850393700787,"duration":0.13043475000000626},{"name":"D3","midi":50,"time":73.82606850000009,"velocity":0.5196850393700787,"duration":0.13043475000000626},{"name":"A2","midi":45,"time":73.9565032500001,"velocity":0.5196850393700787,"duration":0.13043475000000626},{"name":"D2","midi":38,"time":74.0869380000001,"velocity":0.5196850393700787,"duration":0.13043475000000626},{"name":"A2","midi":45,"time":74.21737275000011,"velocity":0.5196850393700787,"duration":0.13043475000000626},{"name":"D3","midi":50,"time":74.34780750000012,"velocity":0.5196850393700787,"duration":0.13043475000000626},{"name":"A2","midi":45,"time":74.47824225000012,"velocity":0.5196850393700787,"duration":0.13043475000000626},{"name":"D2","midi":38,"time":74.60867700000013,"velocity":0.5196850393700787,"duration":0.13043475000000626},{"name":"A2","midi":45,"time":74.73911175000013,"velocity":0.5196850393700787,"duration":0.13043475000000626},{"name":"D3","midi":50,"time":74.86954650000014,"velocity":0.5196850393700787,"duration":0.13043475000000626},{"name":"A2","midi":45,"time":74.99998125000015,"velocity":0.5196850393700787,"duration":0.13043475000000626},{"name":"C2","midi":36,"time":75.13041600000015,"velocity":0.5196850393700787,"duration":0.13043475000000626},{"name":"G2","midi":43,"time":75.26085075000016,"velocity":0.5196850393700787,"duration":0.13043475000000626},{"name":"C3","midi":48,"time":75.39128550000017,"velocity":0.5196850393700787,"duration":0.13043475000000626},{"name":"G2","midi":43,"time":75.52172025000017,"velocity":0.5196850393700787,"duration":0.13043475000000626},{"name":"C2","midi":36,"time":75.65215500000018,"velocity":0.5196850393700787,"duration":0.13043475000000626},{"name":"G2","midi":43,"time":75.78258975000018,"velocity":0.5196850393700787,"duration":0.13043475000000626},{"name":"C3","midi":48,"time":75.91302450000019,"velocity":0.5196850393700787,"duration":0.13043475000000626},{"name":"G2","midi":43,"time":76.0434592500002,"velocity":0.5196850393700787,"duration":0.13043475000000626},{"name":"C2","midi":36,"time":76.1738940000002,"velocity":0.5196850393700787,"duration":0.13043475000000626},{"name":"G2","midi":43,"time":76.30432875000021,"velocity":0.5196850393700787,"duration":0.13043475000000626},{"name":"C3","midi":48,"time":76.43476350000022,"velocity":0.5196850393700787,"duration":0.13043475000000626},{"name":"G2","midi":43,"time":76.56519825000022,"velocity":0.5196850393700787,"duration":0.13043475000000626},{"name":"C2","midi":36,"time":76.69563300000023,"velocity":0.5196850393700787,"duration":0.13043475000000626},{"name":"G2","midi":43,"time":76.82606775000023,"velocity":0.5196850393700787,"duration":0.13043475000000626},{"name":"C3","midi":48,"time":76.95650250000024,"velocity":0.5196850393700787,"duration":0.13043475000000626},{"name":"G2","midi":43,"time":77.08693725000025,"velocity":0.5196850393700787,"duration":0.13043475000000626},{"name":"A#1","midi":34,"time":77.21737200000025,"velocity":0.5196850393700787,"duration":0.13043475000000626},{"name":"F2","midi":41,"time":77.34780675000026,"velocity":0.5196850393700787,"duration":0.13043475000000626},{"name":"A#2","midi":46,"time":77.47824150000027,"velocity":0.5196850393700787,"duration":0.13043475000000626},{"name":"F2","midi":41,"time":77.60867625000027,"velocity":0.5196850393700787,"duration":0.13043475000000626},{"name":"A#1","midi":34,"time":77.73911100000028,"velocity":0.5196850393700787,"duration":0.13043475000000626},{"name":"F2","midi":41,"time":77.86954575000028,"velocity":0.5196850393700787,"duration":0.13043475000000626},{"name":"A#2","midi":46,"time":77.99998050000029,"velocity":0.5196850393700787,"duration":0.13043475000000626},{"name":"F2","midi":41,"time":78.1304152500003,"velocity":0.5196850393700787,"duration":0.13043475000000626},{"name":"A#1","midi":34,"time":78.2608500000003,"velocity":0.5196850393700787,"duration":0.13043475000000626},{"name":"F2","midi":41,"time":78.39128475000031,"velocity":0.5196850393700787,"duration":0.13043475000000626},{"name":"A#2","midi":46,"time":78.52171950000032,"velocity":0.5196850393700787,"duration":0.13043475000000626},{"name":"F2","midi":41,"time":78.65215425000032,"velocity":0.5196850393700787,"duration":0.13043475000000626},{"name":"A#1","midi":34,"time":78.78258900000033,"velocity":0.5196850393700787,"duration":0.13043475000000626},{"name":"F2","midi":41,"time":78.91302375000033,"velocity":0.5196850393700787,"duration":0.13043475000000626},{"name":"A#2","midi":46,"time":79.04345850000034,"velocity":0.5196850393700787,"duration":0.13043475000000626},{"name":"F2","midi":41,"time":79.17389325000035,"velocity":0.5196850393700787,"duration":0.13043475000000626},{"name":"C2","midi":36,"time":79.30432800000035,"velocity":0.5196850393700787,"duration":0.13043475000000626},{"name":"G2","midi":43,"time":79.43476275000036,"velocity":0.5196850393700787,"duration":0.13043475000000626},{"name":"C3","midi":48,"time":79.56519750000037,"velocity":0.5196850393700787,"duration":0.13043475000000626},{"name":"G2","midi":43,"time":79.69563225000037,"velocity":0.5196850393700787,"duration":0.13043475000000626},{"name":"C2","midi":36,"time":79.82606700000038,"velocity":0.5196850393700787,"duration":0.13043475000000626},{"name":"G2","midi":43,"time":79.95650175000038,"velocity":0.5196850393700787,"duration":0.13043475000000626},{"name":"C3","midi":48,"time":80.08693650000039,"velocity":0.5196850393700787,"duration":0.13043475000000626},{"name":"G2","midi":43,"time":80.2173712500004,"velocity":0.5196850393700787,"duration":0.13043475000000626},{"name":"C2","midi":36,"time":80.3478060000004,"velocity":0.5196850393700787,"duration":0.13043475000000626},{"name":"G2","midi":43,"time":80.47824075000041,"velocity":0.5196850393700787,"duration":0.13043475000000626},{"name":"C3","midi":48,"time":80.60867550000042,"velocity":0.5196850393700787,"duration":0.13043475000000626},{"name":"G2","midi":43,"time":80.73911025000042,"velocity":0.5196850393700787,"duration":0.13043475000000626},{"name":"C2","midi":36,"time":80.86954500000043,"velocity":0.5196850393700787,"duration":0.13043475000000626},{"name":"G2","midi":43,"time":80.99997975000043,"velocity":0.5196850393700787,"duration":0.13043475000000626},{"name":"C3","midi":48,"time":81.13041450000044,"velocity":0.5196850393700787,"duration":0.13043475000000626},{"name":"G2","midi":43,"time":81.26084925000045,"velocity":0.5196850393700787,"duration":0.13043475000000626},{"name":"D2","midi":38,"time":81.39128400000045,"velocity":0.5196850393700787,"duration":0.13043475000000626},{"name":"A2","midi":45,"time":81.52171875000046,"velocity":0.5196850393700787,"duration":0.13043475000000626},{"name":"D3","midi":50,"time":81.65215350000047,"velocity":0.5196850393700787,"duration":0.13043475000000626},{"name":"A2","midi":45,"time":81.78258825000047,"velocity":0.5196850393700787,"duration":0.13043475000000626},{"name":"D2","midi":38,"time":81.91302300000048,"velocity":0.5196850393700787,"duration":0.13043475000000626},{"name":"A2","midi":45,"time":82.04345775000048,"velocity":0.5196850393700787,"duration":0.13043475000000626},{"name":"D3","midi":50,"time":82.17389250000049,"velocity":0.5196850393700787,"duration":0.13043475000000626},{"name":"A2","midi":45,"time":82.3043272500005,"velocity":0.5196850393700787,"duration":0.13043475000000626},{"name":"D2","midi":38,"time":82.4347620000005,"velocity":0.5196850393700787,"duration":0.13043475000000626},{"name":"A2","midi":45,"time":82.56519675000051,"velocity":0.5196850393700787,"duration":0.13043475000000626},{"name":"D3","midi":50,"time":82.69563150000052,"velocity":0.5196850393700787,"duration":0.13043475000000626},{"name":"A2","midi":45,"time":82.82606625000052,"velocity":0.5196850393700787,"duration":0.13043475000000626},{"name":"D2","midi":38,"time":82.95650100000053,"velocity":0.5196850393700787,"duration":0.13043475000000626},{"name":"A2","midi":45,"time":83.08693575000053,"velocity":0.5196850393700787,"duration":0.13043475000000626},{"name":"D3","midi":50,"time":83.21737050000054,"velocity":0.5196850393700787,"duration":0.13043475000000626},{"name":"A2","midi":45,"time":83.34780525000055,"velocity":0.5196850393700787,"duration":0.13043475000000626},{"name":"E2","midi":40,"time":83.47824000000055,"velocity":0.5196850393700787,"duration":0.13043475000000626},{"name":"D3","midi":50,"time":83.60867475000056,"velocity":0.5196850393700787,"duration":0.13043475000000626},{"name":"E3","midi":52,"time":83.73910950000057,"velocity":0.5196850393700787,"duration":0.13043475000000626},{"name":"D3","midi":50,"time":83.86954425000057,"velocity":0.5196850393700787,"duration":0.13043475000000626},{"name":"E2","midi":40,"time":83.99997900000058,"velocity":0.5196850393700787,"duration":0.13043475000000626},{"name":"D3","midi":50,"time":84.13041375000059,"velocity":0.5196850393700787,"duration":0.13043475000000626},{"name":"E3","midi":52,"time":84.26084850000059,"velocity":0.5196850393700787,"duration":0.13043475000000626},{"name":"D3","midi":50,"time":84.3912832500006,"velocity":0.5196850393700787,"duration":0.13043475000000626},{"name":"E2","midi":40,"time":84.5217180000006,"velocity":0.5196850393700787,"duration":0.13043475000000626},{"name":"D3","midi":50,"time":84.65215275000061,"velocity":0.5196850393700787,"duration":0.13043475000000626},{"name":"E3","midi":52,"time":84.78258750000062,"velocity":0.5196850393700787,"duration":0.13043475000000626},{"name":"D3","midi":50,"time":84.91302225000062,"velocity":0.5196850393700787,"duration":0.13043475000000626},{"name":"E2","midi":40,"time":85.04345700000063,"velocity":0.5196850393700787,"duration":0.13043475000000626},{"name":"D3","midi":50,"time":85.17389175000064,"velocity":0.5196850393700787,"duration":0.13043475000000626},{"name":"E3","midi":52,"time":85.30432650000064,"velocity":0.5196850393700787,"duration":0.13043475000000626},{"name":"D3","midi":50,"time":85.43476125000065,"velocity":0.5196850393700787,"duration":0.13043475000000626},{"name":"A#1","midi":34,"time":85.56519600000065,"velocity":0.5196850393700787,"duration":0.13043475000000626},{"name":"F2","midi":41,"time":85.69563075000066,"velocity":0.5196850393700787,"duration":0.13043475000000626},{"name":"A#2","midi":46,"time":85.82606550000067,"velocity":0.5196850393700787,"duration":0.13043475000000626},{"name":"F2","midi":41,"time":85.95650025000067,"velocity":0.5196850393700787,"duration":0.13043475000000626},{"name":"A#1","midi":34,"time":86.08693500000068,"velocity":0.5196850393700787,"duration":0.13043475000000626},{"name":"F2","midi":41,"time":86.21736975000069,"velocity":0.5196850393700787,"duration":0.13043475000000626},{"name":"A#2","midi":46,"time":86.34780450000069,"velocity":0.5196850393700787,"duration":0.13043475000000626},{"name":"F2","midi":41,"time":86.4782392500007,"velocity":0.5196850393700787,"duration":0.13043475000000626},{"name":"A#1","midi":34,"time":86.6086740000007,"velocity":0.5196850393700787,"duration":0.13043475000000626},{"name":"F2","midi":41,"time":86.73910875000071,"velocity":0.5196850393700787,"duration":0.13043475000000626},{"name":"A#2","midi":46,"time":86.86954350000072,"velocity":0.5196850393700787,"duration":0.13043475000000626},{"name":"F2","midi":41,"time":86.99997825000072,"velocity":0.5196850393700787,"duration":0.13043475000000626},{"name":"A#1","midi":34,"time":87.13041300000073,"velocity":0.5196850393700787,"duration":0.13043475000000626},{"name":"F2","midi":41,"time":87.26084775000074,"velocity":0.5196850393700787,"duration":0.13043475000000626},{"name":"A#2","midi":46,"time":87.39128250000074,"velocity":0.5196850393700787,"duration":0.13043475000000626},{"name":"F2","midi":41,"time":87.52171725000075,"velocity":0.5196850393700787,"duration":0.13043475000000626},{"name":"C2","midi":36,"time":87.65215200000075,"velocity":0.5196850393700787,"duration":0.13043475000000626},{"name":"G2","midi":43,"time":87.78258675000076,"velocity":0.5196850393700787,"duration":0.13043475000000626},{"name":"C3","midi":48,"time":87.91302150000077,"velocity":0.5196850393700787,"duration":0.13043475000000626},{"name":"G2","midi":43,"time":88.04345625000077,"velocity":0.5196850393700787,"duration":0.13043475000000626},{"name":"C2","midi":36,"time":88.17389100000078,"velocity":0.5196850393700787,"duration":0.13043475000000626},{"name":"G2","midi":43,"time":88.30432575000079,"velocity":0.5196850393700787,"duration":0.13043475000000626},{"name":"C3","midi":48,"time":88.43476050000079,"velocity":0.5196850393700787,"duration":0.13043475000000626},{"name":"G2","midi":43,"time":88.5651952500008,"velocity":0.5196850393700787,"duration":0.13043475000000626},{"name":"C2","midi":36,"time":88.6956300000008,"velocity":0.5196850393700787,"duration":0.13043475000000626},{"name":"G2","midi":43,"time":88.82606475000081,"velocity":0.5196850393700787,"duration":0.13043475000000626},{"name":"C3","midi":48,"time":88.95649950000082,"velocity":0.5196850393700787,"duration":0.13043475000000626},{"name":"G2","midi":43,"time":89.08693425000082,"velocity":0.5196850393700787,"duration":0.13043475000000626},{"name":"C2","midi":36,"time":89.21736900000083,"velocity":0.5196850393700787,"duration":0.13043475000000626},{"name":"G2","midi":43,"time":89.34780375000084,"velocity":0.5196850393700787,"duration":0.13043475000000626},{"name":"C3","midi":48,"time":89.47823850000084,"velocity":0.5196850393700787,"duration":0.13043475000000626},{"name":"G2","midi":43,"time":89.60867325000085,"velocity":0.5196850393700787,"duration":0.13043475000000626},{"name":"D2","midi":38,"time":89.73910800000085,"velocity":0.5196850393700787,"duration":0.13043475000000626},{"name":"A2","midi":45,"time":89.86954275000086,"velocity":0.5196850393700787,"duration":0.13043475000000626},{"name":"D3","midi":50,"time":89.99997750000087,"velocity":0.5196850393700787,"duration":0.13043475000000626},{"name":"A2","midi":45,"time":90.13041225000087,"velocity":0.5196850393700787,"duration":0.13043475000000626},{"name":"D2","midi":38,"time":90.26084700000088,"velocity":0.5196850393700787,"duration":0.13043475000000626},{"name":"A2","midi":45,"time":90.39128175000089,"velocity":0.5196850393700787,"duration":0.13043475000000626},{"name":"D3","midi":50,"time":90.52171650000089,"velocity":0.5196850393700787,"duration":0.13043475000000626},{"name":"A2","midi":45,"time":90.6521512500009,"velocity":0.5196850393700787,"duration":0.13043475000000626},{"name":"D2","midi":38,"time":90.7825860000009,"velocity":0.5196850393700787,"duration":0.13043475000000626},{"name":"A2","midi":45,"time":90.91302075000091,"velocity":0.5196850393700787,"duration":0.13043475000000626},{"name":"D3","midi":50,"time":91.04345550000092,"velocity":0.5196850393700787,"duration":0.13043475000000626},{"name":"A2","midi":45,"time":91.17389025000092,"velocity":0.5196850393700787,"duration":0.13043475000000626},{"name":"D2","midi":38,"time":91.30432500000093,"velocity":0.5196850393700787,"duration":0.13043475000000626},{"name":"A2","midi":45,"time":91.43475975000094,"velocity":0.5196850393700787,"duration":0.13043475000000626},{"name":"D3","midi":50,"time":91.56519450000094,"velocity":0.5196850393700787,"duration":0.13043475000000626},{"name":"A2","midi":45,"time":91.69562925000095,"velocity":0.5196850393700787,"duration":0.13043475000000626},{"name":"C2","midi":36,"time":91.82606400000095,"velocity":0.5196850393700787,"duration":0.13043475000000626},{"name":"G2","midi":43,"time":91.95649875000096,"velocity":0.5196850393700787,"duration":0.13043475000000626},{"name":"C3","midi":48,"time":92.08693350000097,"velocity":0.5196850393700787,"duration":0.13043475000000626},{"name":"G2","midi":43,"time":92.21736825000097,"velocity":0.5196850393700787,"duration":0.13043475000000626},{"name":"C2","midi":36,"time":92.34780300000098,"velocity":0.5196850393700787,"duration":0.13043475000000626},{"name":"G2","midi":43,"time":92.47823775000099,"velocity":0.5196850393700787,"duration":0.13043475000000626},{"name":"C3","midi":48,"time":92.60867250000099,"velocity":0.5196850393700787,"duration":0.13043475000000626},{"name":"G2","midi":43,"time":92.739107250001,"velocity":0.5196850393700787,"duration":0.13043475000000626},{"name":"C2","midi":36,"time":92.869542000001,"velocity":0.5196850393700787,"duration":0.13043475000000626},{"name":"G2","midi":43,"time":92.99997675000101,"velocity":0.5196850393700787,"duration":0.13043475000000626},{"name":"C3","midi":48,"time":93.13041150000102,"velocity":0.5196850393700787,"duration":0.13043475000000626},{"name":"G2","midi":43,"time":93.26084625000102,"velocity":0.5196850393700787,"duration":0.13043475000000626},{"name":"C2","midi":36,"time":93.39128100000103,"velocity":0.5196850393700787,"duration":0.13043475000000626},{"name":"G2","midi":43,"time":93.52171575000104,"velocity":0.5196850393700787,"duration":0.13043475000000626},{"name":"C3","midi":48,"time":93.65215050000104,"velocity":0.5196850393700787,"duration":0.13043475000000626},{"name":"G2","midi":43,"time":93.78258525000105,"velocity":0.5196850393700787,"duration":0.13043475000000626},{"name":"A#1","midi":34,"time":93.91302000000105,"velocity":0.5196850393700787,"duration":0.13043475000000626},{"name":"F2","midi":41,"time":94.04345475000106,"velocity":0.5196850393700787,"duration":0.13043475000000626},{"name":"A#2","midi":46,"time":94.17388950000107,"velocity":0.5196850393700787,"duration":0.13043475000000626},{"name":"F2","midi":41,"time":94.30432425000107,"velocity":0.5196850393700787,"duration":0.13043475000000626},{"name":"A#1","midi":34,"time":94.43475900000108,"velocity":0.5196850393700787,"duration":0.13043475000000626},{"name":"F2","midi":41,"time":94.56519375000109,"velocity":0.5196850393700787,"duration":0.13043475000000626},{"name":"A#2","midi":46,"time":94.69562850000109,"velocity":0.5196850393700787,"duration":0.13043475000000626},{"name":"F2","midi":41,"time":94.8260632500011,"velocity":0.5196850393700787,"duration":0.13043475000000626},{"name":"A#1","midi":34,"time":94.9564980000011,"velocity":0.5196850393700787,"duration":0.13043475000000626},{"name":"F2","midi":41,"time":95.08693275000111,"velocity":0.5196850393700787,"duration":0.13043475000000626},{"name":"A#2","midi":46,"time":95.21736750000112,"velocity":0.5196850393700787,"duration":0.13043475000000626},{"name":"F2","midi":41,"time":95.34780225000112,"velocity":0.5196850393700787,"duration":0.13043475000000626},{"name":"A#1","midi":34,"time":95.47823700000113,"velocity":0.5196850393700787,"duration":0.13043475000000626},{"name":"F2","midi":41,"time":95.60867175000114,"velocity":0.5196850393700787,"duration":0.13043475000000626},{"name":"A#2","midi":46,"time":95.73910650000114,"velocity":0.5196850393700787,"duration":0.13043475000000626},{"name":"F2","midi":41,"time":95.86954125000115,"velocity":0.5196850393700787,"duration":0.13043475000000626},{"name":"C2","midi":36,"time":95.99997600000115,"velocity":0.5196850393700787,"duration":0.13043475000000626},{"name":"G2","midi":43,"time":96.13041075000116,"velocity":0.5196850393700787,"duration":0.13043475000000626},{"name":"C3","midi":48,"time":96.26084550000117,"velocity":0.5196850393700787,"duration":0.13043475000000626},{"name":"G2","midi":43,"time":96.39128025000117,"velocity":0.5196850393700787,"duration":0.13043475000000626},{"name":"C2","midi":36,"time":96.52171500000118,"velocity":0.5196850393700787,"duration":0.13043475000000626},{"name":"G2","midi":43,"time":96.65214975000119,"velocity":0.5196850393700787,"duration":0.13043475000000626},{"name":"C3","midi":48,"time":96.78258450000119,"velocity":0.5196850393700787,"duration":0.13043475000000626},{"name":"G2","midi":43,"time":96.9130192500012,"velocity":0.5196850393700787,"duration":0.13043475000000626},{"name":"C2","midi":36,"time":97.0434540000012,"velocity":0.5196850393700787,"duration":0.13043475000000626},{"name":"G2","midi":43,"time":97.17388875000121,"velocity":0.5196850393700787,"duration":0.13043475000000626},{"name":"C3","midi":48,"time":97.30432350000122,"velocity":0.5196850393700787,"duration":0.13043475000000626},{"name":"G2","midi":43,"time":97.43475825000122,"velocity":0.5196850393700787,"duration":0.13043475000000626},{"name":"C2","midi":36,"time":97.56519300000123,"velocity":0.5196850393700787,"duration":0.13043475000000626},{"name":"G2","midi":43,"time":97.69562775000124,"velocity":0.5196850393700787,"duration":0.13043475000000626},{"name":"C3","midi":48,"time":97.82606250000124,"velocity":0.5196850393700787,"duration":0.13043475000000626},{"name":"G2","midi":43,"time":97.95649725000125,"velocity":0.5196850393700787,"duration":0.13043475000000626},{"name":"D2","midi":38,"time":98.08693200000126,"velocity":0.5196850393700787,"duration":0.13043475000000626},{"name":"A2","midi":45,"time":98.21736675000126,"velocity":0.5196850393700787,"duration":0.13043475000000626},{"name":"D3","midi":50,"time":98.34780150000127,"velocity":0.5196850393700787,"duration":0.13043475000000626},{"name":"A2","midi":45,"time":98.47823625000127,"velocity":0.5196850393700787,"duration":0.13043475000000626},{"name":"D2","midi":38,"time":98.60867100000128,"velocity":0.5196850393700787,"duration":0.13043475000000626},{"name":"A2","midi":45,"time":98.73910575000129,"velocity":0.5196850393700787,"duration":0.13043475000000626},{"name":"D3","midi":50,"time":98.86954050000129,"velocity":0.5196850393700787,"duration":0.13043475000000626},{"name":"A2","midi":45,"time":98.9999752500013,"velocity":0.5196850393700787,"duration":0.13043475000000626},{"name":"D2","midi":38,"time":99.1304100000013,"velocity":0.5196850393700787,"duration":0.13043475000000626},{"name":"A2","midi":45,"time":99.26084475000131,"velocity":0.5196850393700787,"duration":0.13043475000000626},{"name":"D3","midi":50,"time":99.39127950000132,"velocity":0.5196850393700787,"duration":0.13043475000000626},{"name":"A2","midi":45,"time":99.52171425000132,"velocity":0.5196850393700787,"duration":0.13043475000000626},{"name":"D2","midi":38,"time":99.65214900000133,"velocity":0.5196850393700787,"duration":0.13043475000000626},{"name":"A2","midi":45,"time":99.78258375000134,"velocity":0.5196850393700787,"duration":0.13043475000000626},{"name":"D3","midi":50,"time":99.91301850000134,"velocity":0.5196850393700787,"duration":0.13043475000000626},{"name":"A2","midi":45,"time":100.04345325000135,"velocity":0.5196850393700787,"duration":0.13043475000000626},{"name":"E2","midi":40,"time":100.17388800000136,"velocity":0.5196850393700787,"duration":0.13043475000000626},{"name":"D3","midi":50,"time":100.30432275000136,"velocity":0.5196850393700787,"duration":0.13043475000000626},{"name":"E3","midi":52,"time":100.43475750000137,"velocity":0.5196850393700787,"duration":0.13043475000000626},{"name":"D3","midi":50,"time":100.56519225000137,"velocity":0.5196850393700787,"duration":0.13043475000000626},{"name":"E2","midi":40,"time":100.69562700000138,"velocity":0.5196850393700787,"duration":0.13043475000000626},{"name":"D3","midi":50,"time":100.82606175000139,"velocity":0.5196850393700787,"duration":0.13043475000000626},{"name":"E3","midi":52,"time":100.95649650000139,"velocity":0.5196850393700787,"duration":0.13043475000000626},{"name":"D3","midi":50,"time":101.0869312500014,"velocity":0.5196850393700787,"duration":0.13043475000000626},{"name":"E2","midi":40,"time":101.2173660000014,"velocity":0.5196850393700787,"duration":0.2608694999999983},{"name":"D3","midi":50,"time":101.4782355000014,"velocity":0.5196850393700787,"duration":0.2608694999999983},{"name":"E3","midi":52,"time":101.7391050000014,"velocity":0.5196850393700787,"duration":0.2608694999999983},{"name":"D3","midi":50,"time":101.9999745000014,"velocity":0.5196850393700787,"duration":0.2608694999999983},{"name":"A#2","midi":46,"time":102.5217135000014,"velocity":0.5196850393700787,"duration":0.2608694999999983},{"name":"D3","midi":50,"time":102.5217135000014,"velocity":0.5196850393700787,"duration":0.2608694999999983},{"name":"A#2","midi":46,"time":103.0434525000014,"velocity":0.5196850393700787,"duration":0.2608694999999983},{"name":"D3","midi":50,"time":103.0434525000014,"velocity":0.5196850393700787,"duration":0.2608694999999983},{"name":"A#2","midi":46,"time":103.56519150000139,"velocity":0.5196850393700787,"duration":0.2608694999999983},{"name":"D3","midi":50,"time":103.56519150000139,"velocity":0.5196850393700787,"duration":0.2608694999999983},{"name":"A#2","midi":46,"time":104.08693050000139,"velocity":0.5196850393700787,"duration":0.2608694999999983},{"name":"D3","midi":50,"time":104.08693050000139,"velocity":0.5196850393700787,"duration":0.2608694999999983},{"name":"C3","midi":48,"time":104.60866950000138,"velocity":0.5196850393700787,"duration":0.2608694999999983},{"name":"E3","midi":52,"time":104.60866950000138,"velocity":0.5196850393700787,"duration":0.2608694999999983},{"name":"C3","midi":48,"time":105.13040850000138,"velocity":0.5196850393700787,"duration":0.2608694999999983},{"name":"E3","midi":52,"time":105.13040850000138,"velocity":0.5196850393700787,"duration":0.2608694999999983},{"name":"C3","midi":48,"time":105.65214750000138,"velocity":0.5196850393700787,"duration":0.2608694999999983},{"name":"E3","midi":52,"time":105.65214750000138,"velocity":0.5196850393700787,"duration":0.2608694999999983},{"name":"C3","midi":48,"time":106.17388650000137,"velocity":0.5196850393700787,"duration":0.2608694999999983},{"name":"E3","midi":52,"time":106.17388650000137,"velocity":0.5196850393700787,"duration":0.2608694999999983},{"name":"D3","midi":50,"time":106.69562550000137,"velocity":0.5196850393700787,"duration":0.2608694999999983},{"name":"F3","midi":53,"time":106.69562550000137,"velocity":0.5196850393700787,"duration":0.2608694999999983},{"name":"D3","midi":50,"time":107.21736450000137,"velocity":0.5196850393700787,"duration":0.2608694999999983},{"name":"F3","midi":53,"time":107.21736450000137,"velocity":0.5196850393700787,"duration":0.2608694999999983},{"name":"D3","midi":50,"time":107.73910350000136,"velocity":0.5196850393700787,"duration":0.2608694999999983},{"name":"F3","midi":53,"time":107.73910350000136,"velocity":0.5196850393700787,"duration":0.2608694999999983},{"name":"D3","midi":50,"time":108.26084250000136,"velocity":0.5196850393700787,"duration":0.2608694999999983},{"name":"F3","midi":53,"time":108.26084250000136,"velocity":0.5196850393700787,"duration":0.2608694999999983},{"name":"C3","midi":48,"time":108.78258150000136,"velocity":0.5196850393700787,"duration":0.2608694999999983},{"name":"E3","midi":52,"time":108.78258150000136,"velocity":0.5196850393700787,"duration":0.2608694999999983},{"name":"E3","midi":52,"time":109.30432050000135,"velocity":0.5196850393700787,"duration":0.2608694999999983},{"name":"C3","midi":48,"time":109.30432050000135,"velocity":0.5196850393700787,"duration":0.2608694999999983},{"name":"D2","midi":38,"time":109.56519000000135,"velocity":0.5196850393700787,"duration":0.39130425000000457},{"name":"D3","midi":50,"time":109.56519000000135,"velocity":0.5196850393700787,"duration":0.39130425000000457},{"name":"F2","midi":41,"time":109.95649425000136,"velocity":0.5196850393700787,"duration":0.39130425000000457},{"name":"F3","midi":53,"time":109.95649425000136,"velocity":0.5196850393700787,"duration":0.39130425000000457},{"name":"G2","midi":43,"time":110.34779850000136,"velocity":0.5196850393700787,"duration":0.2608694999999983},{"name":"G3","midi":55,"time":110.34779850000136,"velocity":0.5196850393700787,"duration":0.2608694999999983},{"name":"A#1","midi":34,"time":110.60866800000136,"velocity":0.5196850393700787,"duration":0.13043475000000626},{"name":"F2","midi":41,"time":110.73910275000136,"velocity":0.5196850393700787,"duration":0.13043475000000626},{"name":"A#2","midi":46,"time":110.86953750000137,"velocity":0.5196850393700787,"duration":0.13043475000000626},{"name":"F2","midi":41,"time":110.99997225000138,"velocity":0.5196850393700787,"duration":0.13043475000000626},{"name":"A#1","midi":34,"time":111.13040700000138,"velocity":0.5196850393700787,"duration":0.13043475000000626},{"name":"F2","midi":41,"time":111.26084175000139,"velocity":0.5196850393700787,"duration":0.13043475000000626},{"name":"A#2","midi":46,"time":111.3912765000014,"velocity":0.5196850393700787,"duration":0.13043475000000626},{"name":"F2","midi":41,"time":111.5217112500014,"velocity":0.5196850393700787,"duration":0.13043475000000626},{"name":"A#1","midi":34,"time":111.65214600000141,"velocity":0.5196850393700787,"duration":0.13043475000000626},{"name":"F2","midi":41,"time":111.78258075000142,"velocity":0.5196850393700787,"duration":0.13043475000000626},{"name":"A#2","midi":46,"time":111.91301550000142,"velocity":0.5196850393700787,"duration":0.13043475000000626},{"name":"F2","midi":41,"time":112.04345025000143,"velocity":0.5196850393700787,"duration":0.13043475000000626},{"name":"A#1","midi":34,"time":112.17388500000143,"velocity":0.5196850393700787,"duration":0.13043475000000626},{"name":"F2","midi":41,"time":112.30431975000144,"velocity":0.5196850393700787,"duration":0.13043475000000626},{"name":"A#2","midi":46,"time":112.43475450000145,"velocity":0.5196850393700787,"duration":0.13043475000000626},{"name":"F2","midi":41,"time":112.56518925000145,"velocity":0.5196850393700787,"duration":0.13043475000000626},{"name":"C2","midi":36,"time":112.69562400000146,"velocity":0.5196850393700787,"duration":0.13043475000000626},{"name":"G2","midi":43,"time":112.82605875000147,"velocity":0.5196850393700787,"duration":0.13043475000000626},{"name":"C3","midi":48,"time":112.95649350000147,"velocity":0.5196850393700787,"duration":0.13043475000000626},{"name":"G2","midi":43,"time":113.08692825000148,"velocity":0.5196850393700787,"duration":0.13043475000000626},{"name":"C2","midi":36,"time":113.21736300000148,"velocity":0.5196850393700787,"duration":0.13043475000000626},{"name":"G2","midi":43,"time":113.34779775000149,"velocity":0.5196850393700787,"duration":0.13043475000000626},{"name":"C3","midi":48,"time":113.4782325000015,"velocity":0.5196850393700787,"duration":0.13043475000000626},{"name":"G2","midi":43,"time":113.6086672500015,"velocity":0.5196850393700787,"duration":0.13043475000000626},{"name":"C2","midi":36,"time":113.73910200000151,"velocity":0.5196850393700787,"duration":0.13043475000000626},{"name":"G2","midi":43,"time":113.86953675000152,"velocity":0.5196850393700787,"duration":0.13043475000000626},{"name":"C3","midi":48,"time":113.99997150000152,"velocity":0.5196850393700787,"duration":0.13043475000000626},{"name":"G2","midi":43,"time":114.13040625000153,"velocity":0.5196850393700787,"duration":0.13043475000000626},{"name":"C2","midi":36,"time":114.26084100000153,"velocity":0.5196850393700787,"duration":0.13043475000000626},{"name":"G2","midi":43,"time":114.39127575000154,"velocity":0.5196850393700787,"duration":0.13043475000000626},{"name":"C3","midi":48,"time":114.52171050000155,"velocity":0.5196850393700787,"duration":0.13043475000000626},{"name":"G2","midi":43,"time":114.65214525000155,"velocity":0.5196850393700787,"duration":0.13043475000000626},{"name":"D2","midi":38,"time":114.78258000000156,"velocity":0.5196850393700787,"duration":0.13043475000000626},{"name":"A2","midi":45,"time":114.91301475000157,"velocity":0.5196850393700787,"duration":0.13043475000000626},{"name":"D3","midi":50,"time":115.04344950000157,"velocity":0.5196850393700787,"duration":0.13043475000000626},{"name":"A2","midi":45,"time":115.17388425000158,"velocity":0.5196850393700787,"duration":0.13043475000000626},{"name":"D2","midi":38,"time":115.30431900000158,"velocity":0.5196850393700787,"duration":0.13043475000000626},{"name":"A2","midi":45,"time":115.43475375000159,"velocity":0.5196850393700787,"duration":0.13043475000000626},{"name":"D3","midi":50,"time":115.5651885000016,"velocity":0.5196850393700787,"duration":0.13043475000000626},{"name":"A2","midi":45,"time":115.6956232500016,"velocity":0.5196850393700787,"duration":0.13043475000000626},{"name":"D2","midi":38,"time":115.82605800000161,"velocity":0.5196850393700787,"duration":0.13043475000000626},{"name":"A2","midi":45,"time":115.95649275000162,"velocity":0.5196850393700787,"duration":0.13043475000000626},{"name":"D3","midi":50,"time":116.08692750000162,"velocity":0.5196850393700787,"duration":0.13043475000000626},{"name":"A2","midi":45,"time":116.21736225000163,"velocity":0.5196850393700787,"duration":0.13043475000000626},{"name":"D2","midi":38,"time":116.34779700000163,"velocity":0.5196850393700787,"duration":0.13043475000000626},{"name":"A2","midi":45,"time":116.47823175000164,"velocity":0.5196850393700787,"duration":0.13043475000000626},{"name":"D3","midi":50,"time":116.60866650000165,"velocity":0.5196850393700787,"duration":0.13043475000000626},{"name":"A2","midi":45,"time":116.73910125000165,"velocity":0.5196850393700787,"duration":0.13043475000000626},{"name":"C2","midi":36,"time":116.86953600000166,"velocity":0.5196850393700787,"duration":0.13043475000000626},{"name":"G2","midi":43,"time":116.99997075000167,"velocity":0.5196850393700787,"duration":0.13043475000000626},{"name":"C3","midi":48,"time":117.13040550000167,"velocity":0.5196850393700787,"duration":0.13043475000000626},{"name":"G2","midi":43,"time":117.26084025000168,"velocity":0.5196850393700787,"duration":0.13043475000000626},{"name":"C2","midi":36,"time":117.39127500000168,"velocity":0.5196850393700787,"duration":0.13043475000000626},{"name":"G2","midi":43,"time":117.52170975000169,"velocity":0.5196850393700787,"duration":0.13043475000000626},{"name":"C3","midi":48,"time":117.6521445000017,"velocity":0.5196850393700787,"duration":0.13043475000000626},{"name":"G2","midi":43,"time":117.7825792500017,"velocity":0.5196850393700787,"duration":0.13043475000000626},{"name":"C2","midi":36,"time":117.91301400000171,"velocity":0.5196850393700787,"duration":0.13043475000000626},{"name":"G2","midi":43,"time":118.04344875000172,"velocity":0.5196850393700787,"duration":0.13043475000000626},{"name":"C3","midi":48,"time":118.17388350000172,"velocity":0.5196850393700787,"duration":0.13043475000000626},{"name":"G2","midi":43,"time":118.30431825000173,"velocity":0.5196850393700787,"duration":0.13043475000000626},{"name":"C2","midi":36,"time":118.43475300000173,"velocity":0.5196850393700787,"duration":0.13043475000000626},{"name":"G2","midi":43,"time":118.56518775000174,"velocity":0.5196850393700787,"duration":0.13043475000000626},{"name":"C3","midi":48,"time":118.69562250000175,"velocity":0.5196850393700787,"duration":0.13043475000000626},{"name":"G2","midi":43,"time":118.82605725000175,"velocity":0.5196850393700787,"duration":0.13043475000000626},{"name":"A#1","midi":34,"time":118.95649200000176,"velocity":0.5196850393700787,"duration":0.13043475000000626},{"name":"F2","midi":41,"time":119.08692675000177,"velocity":0.5196850393700787,"duration":0.13043475000000626},{"name":"A#2","midi":46,"time":119.21736150000177,"velocity":0.5196850393700787,"duration":0.13043475000000626},{"name":"F2","midi":41,"time":119.34779625000178,"velocity":0.5196850393700787,"duration":0.13043475000000626},{"name":"A#1","midi":34,"time":119.47823100000178,"velocity":0.5196850393700787,"duration":0.13043475000000626},{"name":"F2","midi":41,"time":119.60866575000179,"velocity":0.5196850393700787,"duration":0.13043475000000626},{"name":"A#2","midi":46,"time":119.7391005000018,"velocity":0.5196850393700787,"duration":0.13043475000000626},{"name":"F2","midi":41,"time":119.8695352500018,"velocity":0.5196850393700787,"duration":0.13043475000000626},{"name":"A#1","midi":34,"time":119.99997000000181,"velocity":0.5196850393700787,"duration":0.13043475000000626},{"name":"F2","midi":41,"time":120.13040475000182,"velocity":0.5196850393700787,"duration":0.13043475000000626},{"name":"A#2","midi":46,"time":120.26083950000182,"velocity":0.5196850393700787,"duration":0.13043475000000626},{"name":"F2","midi":41,"time":120.39127425000183,"velocity":0.5196850393700787,"duration":0.13043475000000626},{"name":"A#1","midi":34,"time":120.52170900000183,"velocity":0.5196850393700787,"duration":0.13043475000000626},{"name":"F2","midi":41,"time":120.65214375000184,"velocity":0.5196850393700787,"duration":0.13043475000000626},{"name":"A#2","midi":46,"time":120.78257850000185,"velocity":0.5196850393700787,"duration":0.13043475000000626},{"name":"F2","midi":41,"time":120.91301325000185,"velocity":0.5196850393700787,"duration":0.13043475000000626},{"name":"C2","midi":36,"time":121.04344800000186,"velocity":0.5196850393700787,"duration":0.13043475000000626},{"name":"G2","midi":43,"time":121.17388275000187,"velocity":0.5196850393700787,"duration":0.13043475000000626},{"name":"C3","midi":48,"time":121.30431750000187,"velocity":0.5196850393700787,"duration":0.13043475000000626},{"name":"G2","midi":43,"time":121.43475225000188,"velocity":0.5196850393700787,"duration":0.13043475000000626},{"name":"C2","midi":36,"time":121.56518700000188,"velocity":0.5196850393700787,"duration":0.13043475000000626},{"name":"G2","midi":43,"time":121.69562175000189,"velocity":0.5196850393700787,"duration":0.13043475000000626},{"name":"C3","midi":48,"time":121.8260565000019,"velocity":0.5196850393700787,"duration":0.13043475000000626},{"name":"G2","midi":43,"time":121.9564912500019,"velocity":0.5196850393700787,"duration":0.13043475000000626},{"name":"C2","midi":36,"time":122.08692600000191,"velocity":0.5196850393700787,"duration":0.13043475000000626},{"name":"G2","midi":43,"time":122.21736075000192,"velocity":0.5196850393700787,"duration":0.13043475000000626},{"name":"C3","midi":48,"time":122.34779550000192,"velocity":0.5196850393700787,"duration":0.13043475000000626},{"name":"G2","midi":43,"time":122.47823025000193,"velocity":0.5196850393700787,"duration":0.13043475000000626},{"name":"C2","midi":36,"time":122.60866500000193,"velocity":0.5196850393700787,"duration":0.13043475000000626},{"name":"G2","midi":43,"time":122.73909975000194,"velocity":0.5196850393700787,"duration":0.13043475000000626},{"name":"C3","midi":48,"time":122.86953450000195,"velocity":0.5196850393700787,"duration":0.13043475000000626},{"name":"G2","midi":43,"time":122.99996925000195,"velocity":0.5196850393700787,"duration":0.13043475000000626},{"name":"D2","midi":38,"time":123.13040400000196,"velocity":0.5196850393700787,"duration":0.13043475000000626},{"name":"A2","midi":45,"time":123.26083875000197,"velocity":0.5196850393700787,"duration":0.13043475000000626},{"name":"D3","midi":50,"time":123.39127350000197,"velocity":0.5196850393700787,"duration":0.13043475000000626},{"name":"A2","midi":45,"time":123.52170825000198,"velocity":0.5196850393700787,"duration":0.13043475000000626},{"name":"D2","midi":38,"time":123.65214300000198,"velocity":0.5196850393700787,"duration":0.13043475000000626},{"name":"A2","midi":45,"time":123.78257775000199,"velocity":0.5196850393700787,"duration":0.13043475000000626},{"name":"D3","midi":50,"time":123.913012500002,"velocity":0.5196850393700787,"duration":0.13043475000000626},{"name":"A2","midi":45,"time":124.043447250002,"velocity":0.5196850393700787,"duration":0.13043475000000626},{"name":"D2","midi":38,"time":124.17388200000201,"velocity":0.5196850393700787,"duration":0.13043475000000626},{"name":"A2","midi":45,"time":124.30431675000202,"velocity":0.5196850393700787,"duration":0.13043475000000626},{"name":"D3","midi":50,"time":124.43475150000202,"velocity":0.5196850393700787,"duration":0.13043475000000626},{"name":"A2","midi":45,"time":124.56518625000203,"velocity":0.5196850393700787,"duration":0.13043475000000626},{"name":"D2","midi":38,"time":124.69562100000203,"velocity":0.5196850393700787,"duration":0.13043475000000626},{"name":"A2","midi":45,"time":124.82605575000204,"velocity":0.5196850393700787,"duration":0.13043475000000626},{"name":"D3","midi":50,"time":124.95649050000205,"velocity":0.5196850393700787,"duration":0.13043475000000626},{"name":"A2","midi":45,"time":125.08692525000205,"velocity":0.5196850393700787,"duration":0.13043475000000626},{"name":"C3","midi":48,"time":125.21736000000206,"velocity":0.5196850393700787,"duration":1.0434779999999932},{"name":"E3","midi":52,"time":125.21736000000206,"velocity":0.5196850393700787,"duration":1.0434779999999932},{"name":"E2","midi":40,"time":125.21736000000206,"velocity":0.5196850393700787,"duration":1.0434779999999932},{"name":"C2","midi":36,"time":125.21736000000206,"velocity":0.5196850393700787,"duration":1.0434779999999932},{"name":"D3","midi":50,"time":126.26083800000205,"velocity":0.5196850393700787,"duration":1.0434779999999932},{"name":"E3","midi":52,"time":126.26083800000205,"velocity":0.5196850393700787,"duration":1.0434779999999932},{"name":"D2","midi":38,"time":126.26083800000205,"velocity":0.5196850393700787,"duration":1.0434779999999932},{"name":"E2","midi":40,"time":126.26083800000205,"velocity":0.5196850393700787,"duration":1.0434779999999932},{"name":"A3","midi":57,"time":126.26083800000205,"velocity":0.5196850393700787,"duration":1.0434779999999932},{"name":"A2","midi":45,"time":126.26083800000205,"velocity":0.5196850393700787,"duration":1.0434779999999932},{"name":"D3","midi":50,"time":127.30431600000205,"velocity":0.5196850393700787,"duration":1.0434779999999932},{"name":"G2","midi":43,"time":128.34779400000204,"velocity":0.5196850393700787,"duration":1.0434779999999932},{"name":"A#2","midi":46,"time":129.39127200000203,"velocity":0.5196850393700787,"duration":0.5217389999999966},{"name":"C3","midi":48,"time":129.91301100000203,"velocity":0.5196850393700787,"duration":0.5217389999999966},{"name":"D3","midi":50,"time":130.43475000000203,"velocity":0.5196850393700787,"duration":1.0434779999999932},{"name":"D3","midi":50,"time":131.47822800000202,"velocity":0.5196850393700787,"duration":1.0434779999999932},{"name":"G2","midi":43,"time":132.521706000002,"velocity":0.5196850393700787,"duration":1.0434779999999932},{"name":"A#2","midi":46,"time":133.565184000002,"velocity":0.5196850393700787,"duration":0.5217389999999966},{"name":"A2","midi":45,"time":134.086923000002,"velocity":0.5196850393700787,"duration":0.5217389999999966},{"name":"D2","midi":38,"time":134.608662000002,"velocity":0.5196850393700787,"duration":1.0434779999999932},{"name":"D2","midi":38,"time":135.652140000002,"velocity":0.5196850393700787,"duration":0.2608695000000125},{"name":"A2","midi":45,"time":135.913009500002,"velocity":0.5196850393700787,"duration":0.2608695000000125},{"name":"D3","midi":50,"time":136.17387900000202,"velocity":0.5196850393700787,"duration":0.2608695000000125},{"name":"A3","midi":57,"time":136.43474850000203,"velocity":0.5196850393700787,"duration":0.2608695000000125},{"name":"G2","midi":43,"time":136.69561800000204,"velocity":0.5196850393700787,"duration":0.2608695000000125},{"name":"B2","midi":47,"time":136.95648750000205,"velocity":0.5196850393700787,"duration":0.2608695000000125},{"name":"D3","midi":50,"time":137.21735700000207,"velocity":0.5196850393700787,"duration":0.2608695000000125},{"name":"E3","midi":52,"time":137.47822650000208,"velocity":0.5196850393700787,"duration":0.2608695000000125},{"name":"A#2","midi":46,"time":137.7390960000021,"velocity":0.5196850393700787,"duration":0.2608695000000125},{"name":"C3","midi":48,"time":137.9999655000021,"velocity":0.5196850393700787,"duration":0.2608695000000125},{"name":"A2","midi":45,"time":138.26083500000212,"velocity":0.5196850393700787,"duration":0.2608695000000125},{"name":"E3","midi":52,"time":138.52170450000213,"velocity":0.5196850393700787,"duration":0.2608695000000125},{"name":"D3","midi":50,"time":138.78257400000214,"velocity":0.5196850393700787,"duration":0.2608695000000125},{"name":"A2","midi":45,"time":139.04344350000216,"velocity":0.5196850393700787,"duration":0.2608695000000125},{"name":"F2","midi":41,"time":139.30431300000217,"velocity":0.5196850393700787,"duration":0.2608695000000125},{"name":"D2","midi":38,"time":139.56518250000218,"velocity":0.5196850393700787,"duration":0.2608695000000125},{"name":"D2","midi":38,"time":139.8260520000022,"velocity":0.5196850393700787,"duration":0.2608695000000125},{"name":"A2","midi":45,"time":140.0869215000022,"velocity":0.5196850393700787,"duration":0.2608695000000125},{"name":"D3","midi":50,"time":140.34779100000222,"velocity":0.5196850393700787,"duration":0.2608695000000125},{"name":"A3","midi":57,"time":140.60866050000223,"velocity":0.5196850393700787,"duration":0.2608695000000125},{"name":"G2","midi":43,"time":140.86953000000224,"velocity":0.5196850393700787,"duration":0.2608695000000125},{"name":"B2","midi":47,"time":141.13039950000226,"velocity":0.5196850393700787,"duration":0.2608695000000125},{"name":"D3","midi":50,"time":141.39126900000227,"velocity":0.5196850393700787,"duration":0.2608695000000125},{"name":"E3","midi":52,"time":141.65213850000228,"velocity":0.5196850393700787,"duration":0.2608695000000125},{"name":"A#2","midi":46,"time":141.9130080000023,"velocity":0.5196850393700787,"duration":0.2608695000000125},{"name":"C3","midi":48,"time":142.1738775000023,"velocity":0.5196850393700787,"duration":0.2608695000000125},{"name":"A2","midi":45,"time":142.43474700000232,"velocity":0.5196850393700787,"duration":0.2608695000000125},{"name":"E3","midi":52,"time":142.69561650000233,"velocity":0.5196850393700787,"duration":0.2608695000000125},{"name":"D3","midi":50,"time":142.95648600000234,"velocity":0.5196850393700787,"duration":0.2608695000000125},{"name":"A2","midi":45,"time":143.21735550000236,"velocity":0.5196850393700787,"duration":0.2608695000000125},{"name":"F2","midi":41,"time":143.47822500000237,"velocity":0.5196850393700787,"duration":0.2608695000000125},{"name":"D3","midi":50,"time":143.73909450000238,"velocity":0.5196850393700787,"duration":0.2608695000000125},{"name":"A#1","midi":34,"time":143.9999640000024,"velocity":0.5196850393700787,"duration":0.13043475000000626},{"name":"F2","midi":41,"time":144.1303987500024,"velocity":0.5196850393700787,"duration":0.13043475000000626},{"name":"A#2","midi":46,"time":144.2608335000024,"velocity":0.5196850393700787,"duration":0.13043475000000626},{"name":"F2","midi":41,"time":144.3912682500024,"velocity":0.5196850393700787,"duration":0.13043475000000626},{"name":"A#1","midi":34,"time":144.52170300000242,"velocity":0.5196850393700787,"duration":0.13043475000000626},{"name":"F2","midi":41,"time":144.65213775000242,"velocity":0.5196850393700787,"duration":0.13043475000000626},{"name":"A#2","midi":46,"time":144.78257250000243,"velocity":0.5196850393700787,"duration":0.13043475000000626},{"name":"F2","midi":41,"time":144.91300725000244,"velocity":0.5196850393700787,"duration":0.13043475000000626},{"name":"D2","midi":38,"time":145.04344200000244,"velocity":0.5196850393700787,"duration":0.13043475000000626},{"name":"A2","midi":45,"time":145.17387675000245,"velocity":0.5196850393700787,"duration":0.13043475000000626},{"name":"D3","midi":50,"time":145.30431150000246,"velocity":0.5196850393700787,"duration":0.13043475000000626},{"name":"A2","midi":45,"time":145.43474625000246,"velocity":0.5196850393700787,"duration":0.13043475000000626},{"name":"D2","midi":38,"time":145.56518100000247,"velocity":0.5196850393700787,"duration":0.13043475000000626},{"name":"A2","midi":45,"time":145.69561575000247,"velocity":0.5196850393700787,"duration":0.13043475000000626},{"name":"D3","midi":50,"time":145.82605050000248,"velocity":0.5196850393700787,"duration":0.13043475000000626},{"name":"A2","midi":45,"time":145.9564852500025,"velocity":0.5196850393700787,"duration":0.13043475000000626},{"name":"A#1","midi":34,"time":146.0869200000025,"velocity":0.5196850393700787,"duration":0.13043475000000626},{"name":"F2","midi":41,"time":146.2173547500025,"velocity":0.5196850393700787,"duration":0.13043475000000626},{"name":"A#2","midi":46,"time":146.3477895000025,"velocity":0.5196850393700787,"duration":0.13043475000000626},{"name":"F2","midi":41,"time":146.4782242500025,"velocity":0.5196850393700787,"duration":0.13043475000000626},{"name":"A#1","midi":34,"time":146.60865900000252,"velocity":0.5196850393700787,"duration":0.13043475000000626},{"name":"F2","midi":41,"time":146.73909375000252,"velocity":0.5196850393700787,"duration":0.13043475000000626},{"name":"A#2","midi":46,"time":146.86952850000253,"velocity":0.5196850393700787,"duration":0.13043475000000626},{"name":"F2","midi":41,"time":146.99996325000254,"velocity":0.5196850393700787,"duration":0.13043475000000626},{"name":"A#1","midi":34,"time":147.13039800000254,"velocity":0.5196850393700787,"duration":0.13043475000000626},{"name":"F2","midi":41,"time":147.26083275000255,"velocity":0.5196850393700787,"duration":0.13043475000000626},{"name":"A#2","midi":46,"time":147.39126750000256,"velocity":0.5196850393700787,"duration":0.13043475000000626},{"name":"F2","midi":41,"time":147.52170225000256,"velocity":0.5196850393700787,"duration":0.13043475000000626},{"name":"A#1","midi":34,"time":147.65213700000257,"velocity":0.5196850393700787,"duration":0.13043475000000626},{"name":"F2","midi":41,"time":147.78257175000257,"velocity":0.5196850393700787,"duration":0.13043475000000626},{"name":"A#2","midi":46,"time":147.91300650000258,"velocity":0.5196850393700787,"duration":0.13043475000000626},{"name":"F2","midi":41,"time":148.0434412500026,"velocity":0.5196850393700787,"duration":0.13043475000000626},{"name":"F2","midi":41,"time":148.1738760000026,"velocity":0.5196850393700787,"duration":0.13043475000000626},{"name":"C3","midi":48,"time":148.3043107500026,"velocity":0.5196850393700787,"duration":0.13043475000000626},{"name":"F3","midi":53,"time":148.4347455000026,"velocity":0.5196850393700787,"duration":0.13043475000000626},{"name":"C3","midi":48,"time":148.5651802500026,"velocity":0.5196850393700787,"duration":0.13043475000000626},{"name":"F2","midi":41,"time":148.69561500000262,"velocity":0.5196850393700787,"duration":0.13043475000000626},{"name":"C3","midi":48,"time":148.82604975000262,"velocity":0.5196850393700787,"duration":0.13043475000000626},{"name":"F3","midi":53,"time":148.95648450000263,"velocity":0.5196850393700787,"duration":0.13043475000000626},{"name":"C3","midi":48,"time":149.08691925000264,"velocity":0.5196850393700787,"duration":0.13043475000000626},{"name":"D2","midi":38,"time":149.21735400000264,"velocity":0.5196850393700787,"duration":0.13043475000000626},{"name":"A2","midi":45,"time":149.34778875000265,"velocity":0.5196850393700787,"duration":0.13043475000000626},{"name":"D3","midi":50,"time":149.47822350000266,"velocity":0.5196850393700787,"duration":0.13043475000000626},{"name":"A2","midi":45,"time":149.60865825000266,"velocity":0.5196850393700787,"duration":0.13043475000000626},{"name":"D2","midi":38,"time":149.73909300000267,"velocity":0.5196850393700787,"duration":0.13043475000000626},{"name":"A2","midi":45,"time":149.86952775000267,"velocity":0.5196850393700787,"duration":0.13043475000000626},{"name":"D3","midi":50,"time":149.99996250000268,"velocity":0.5196850393700787,"duration":0.13043475000000626},{"name":"A2","midi":45,"time":150.1303972500027,"velocity":0.5196850393700787,"duration":0.13043475000000626},{"name":"F2","midi":41,"time":150.2608320000027,"velocity":0.5196850393700787,"duration":0.13043475000000626},{"name":"C3","midi":48,"time":150.3912667500027,"velocity":0.5196850393700787,"duration":0.13043475000000626},{"name":"F3","midi":53,"time":150.5217015000027,"velocity":0.5196850393700787,"duration":0.13043475000000626},{"name":"C3","midi":48,"time":150.6521362500027,"velocity":0.5196850393700787,"duration":0.13043475000000626},{"name":"F2","midi":41,"time":150.78257100000272,"velocity":0.5196850393700787,"duration":0.13043475000000626},{"name":"C3","midi":48,"time":150.91300575000272,"velocity":0.5196850393700787,"duration":0.13043475000000626},{"name":"F3","midi":53,"time":151.04344050000273,"velocity":0.5196850393700787,"duration":0.13043475000000626},{"name":"C3","midi":48,"time":151.17387525000274,"velocity":0.5196850393700787,"duration":0.13043475000000626},{"name":"A2","midi":45,"time":151.30431000000274,"velocity":0.5196850393700787,"duration":0.13043475000000626},{"name":"E3","midi":52,"time":151.43474475000275,"velocity":0.5196850393700787,"duration":0.13043475000000626},{"name":"A3","midi":57,"time":151.56517950000276,"velocity":0.5196850393700787,"duration":0.13043475000000626},{"name":"E3","midi":52,"time":151.69561425000276,"velocity":0.5196850393700787,"duration":0.13043475000000626},{"name":"A2","midi":45,"time":151.82604900000277,"velocity":0.5196850393700787,"duration":0.13043475000000626},{"name":"E3","midi":52,"time":151.95648375000277,"velocity":0.5196850393700787,"duration":0.13043475000000626},{"name":"A3","midi":57,"time":152.08691850000278,"velocity":0.5196850393700787,"duration":0.13043475000000626},{"name":"E3","midi":52,"time":152.2173532500028,"velocity":0.5196850393700787,"duration":0.13043475000000626},{"name":"A#1","midi":34,"time":152.3477880000028,"velocity":0.5196850393700787,"duration":0.13043475000000626},{"name":"F2","midi":41,"time":152.4782227500028,"velocity":0.5196850393700787,"duration":0.13043475000000626},{"name":"A#2","midi":46,"time":152.6086575000028,"velocity":0.5196850393700787,"duration":0.13043475000000626},{"name":"F2","midi":41,"time":152.7390922500028,"velocity":0.5196850393700787,"duration":0.13043475000000626},{"name":"A#1","midi":34,"time":152.86952700000282,"velocity":0.5196850393700787,"duration":0.13043475000000626},{"name":"F2","midi":41,"time":152.99996175000283,"velocity":0.5196850393700787,"duration":0.13043475000000626},{"name":"A#2","midi":46,"time":153.13039650000283,"velocity":0.5196850393700787,"duration":0.13043475000000626},{"name":"F2","midi":41,"time":153.26083125000284,"velocity":0.5196850393700787,"duration":0.13043475000000626},{"name":"D2","midi":38,"time":153.39126600000284,"velocity":0.5196850393700787,"duration":0.13043475000000626},{"name":"A2","midi":45,"time":153.52170075000285,"velocity":0.5196850393700787,"duration":0.13043475000000626},{"name":"D3","midi":50,"time":153.65213550000286,"velocity":0.5196850393700787,"duration":0.13043475000000626},{"name":"A2","midi":45,"time":153.78257025000286,"velocity":0.5196850393700787,"duration":0.13043475000000626},{"name":"D2","midi":38,"time":153.91300500000287,"velocity":0.5196850393700787,"duration":0.13043475000000626},{"name":"A2","midi":45,"time":154.04343975000288,"velocity":0.5196850393700787,"duration":0.13043475000000626},{"name":"D3","midi":50,"time":154.17387450000288,"velocity":0.5196850393700787,"duration":0.13043475000000626},{"name":"A2","midi":45,"time":154.3043092500029,"velocity":0.5196850393700787,"duration":0.13043475000000626},{"name":"A#1","midi":34,"time":154.4347440000029,"velocity":0.5196850393700787,"duration":0.13043475000000626},{"name":"F2","midi":41,"time":154.5651787500029,"velocity":0.5196850393700787,"duration":0.13043475000000626},{"name":"A#2","midi":46,"time":154.6956135000029,"velocity":0.5196850393700787,"duration":0.13043475000000626},{"name":"F2","midi":41,"time":154.8260482500029,"velocity":0.5196850393700787,"duration":0.13043475000000626},{"name":"A#1","midi":34,"time":154.95648300000292,"velocity":0.5196850393700787,"duration":0.13043475000000626},{"name":"F2","midi":41,"time":155.08691775000293,"velocity":0.5196850393700787,"duration":0.13043475000000626},{"name":"A#2","midi":46,"time":155.21735250000293,"velocity":0.5196850393700787,"duration":0.13043475000000626},{"name":"F2","midi":41,"time":155.34778725000294,"velocity":0.5196850393700787,"duration":0.13043475000000626},{"name":"A#1","midi":34,"time":155.47822200000294,"velocity":0.5196850393700787,"duration":0.13043475000000626},{"name":"F2","midi":41,"time":155.60865675000295,"velocity":0.5196850393700787,"duration":0.13043475000000626},{"name":"A#2","midi":46,"time":155.73909150000296,"velocity":0.5196850393700787,"duration":0.13043475000000626},{"name":"F2","midi":41,"time":155.86952625000296,"velocity":0.5196850393700787,"duration":0.13043475000000626},{"name":"A#1","midi":34,"time":155.99996100000297,"velocity":0.5196850393700787,"duration":0.13043475000000626},{"name":"F2","midi":41,"time":156.13039575000298,"velocity":0.5196850393700787,"duration":0.13043475000000626},{"name":"A#2","midi":46,"time":156.26083050000298,"velocity":0.5196850393700787,"duration":0.13043475000000626},{"name":"F2","midi":41,"time":156.391265250003,"velocity":0.5196850393700787,"duration":0.13043475000000626},{"name":"F2","midi":41,"time":156.521700000003,"velocity":0.5196850393700787,"duration":0.13043475000000626},{"name":"C3","midi":48,"time":156.652134750003,"velocity":0.5196850393700787,"duration":0.13043475000000626},{"name":"F3","midi":53,"time":156.782569500003,"velocity":0.5196850393700787,"duration":0.13043475000000626},{"name":"C3","midi":48,"time":156.913004250003,"velocity":0.5196850393700787,"duration":0.13043475000000626},{"name":"F2","midi":41,"time":157.04343900000302,"velocity":0.5196850393700787,"duration":0.13043475000000626},{"name":"C3","midi":48,"time":157.17387375000303,"velocity":0.5196850393700787,"duration":0.13043475000000626},{"name":"F3","midi":53,"time":157.30430850000303,"velocity":0.5196850393700787,"duration":0.13043475000000626},{"name":"C3","midi":48,"time":157.43474325000304,"velocity":0.5196850393700787,"duration":0.13043475000000626},{"name":"D2","midi":38,"time":157.56517800000304,"velocity":0.5196850393700787,"duration":0.13043475000000626},{"name":"A2","midi":45,"time":157.69561275000305,"velocity":0.5196850393700787,"duration":0.13043475000000626},{"name":"D3","midi":50,"time":157.82604750000306,"velocity":0.5196850393700787,"duration":0.13043475000000626},{"name":"A2","midi":45,"time":157.95648225000306,"velocity":0.5196850393700787,"duration":0.13043475000000626},{"name":"D2","midi":38,"time":158.08691700000307,"velocity":0.5196850393700787,"duration":0.13043475000000626},{"name":"A2","midi":45,"time":158.21735175000308,"velocity":0.5196850393700787,"duration":0.13043475000000626},{"name":"D3","midi":50,"time":158.34778650000308,"velocity":0.5196850393700787,"duration":0.13043475000000626},{"name":"A2","midi":45,"time":158.4782212500031,"velocity":0.5196850393700787,"duration":0.13043475000000626},{"name":"A#1","midi":34,"time":158.6086560000031,"velocity":0.5196850393700787,"duration":0.13043475000000626},{"name":"D2","midi":38,"time":158.7390907500031,"velocity":0.5196850393700787,"duration":0.13043475000000626},{"name":"F2","midi":41,"time":158.8695255000031,"velocity":0.5196850393700787,"duration":0.13043475000000626},{"name":"A#2","midi":46,"time":158.9999602500031,"velocity":0.5196850393700787,"duration":0.2608695000000125},{"name":"G2","midi":43,"time":159.26082975000313,"velocity":0.5196850393700787,"duration":0.13043475000000626},{"name":"F2","midi":41,"time":159.39126450000313,"velocity":0.5196850393700787,"duration":0.13043475000000626},{"name":"D2","midi":38,"time":159.52169925000314,"velocity":0.5196850393700787,"duration":0.13043475000000626},{"name":"A#1","midi":34,"time":159.65213400000314,"velocity":0.5196850393700787,"duration":0.13043475000000626},{"name":"D2","midi":38,"time":159.78256875000315,"velocity":0.5196850393700787,"duration":0.13043475000000626},{"name":"F2","midi":41,"time":159.91300350000316,"velocity":0.5196850393700787,"duration":0.13043475000000626},{"name":"A#2","midi":46,"time":160.04343825000316,"velocity":0.5196850393700787,"duration":0.2608695000000125},{"name":"G2","midi":43,"time":160.30430775000318,"velocity":0.5196850393700787,"duration":0.13043475000000626},{"name":"F2","midi":41,"time":160.43474250000318,"velocity":0.5196850393700787,"duration":0.13043475000000626},{"name":"D2","midi":38,"time":160.5651772500032,"velocity":0.5196850393700787,"duration":0.13043475000000626},{"name":"C2","midi":36,"time":160.6956120000032,"velocity":0.5196850393700787,"duration":0.13043475000000626},{"name":"E2","midi":40,"time":160.8260467500032,"velocity":0.5196850393700787,"duration":0.13043475000000626},{"name":"G2","midi":43,"time":160.9564815000032,"velocity":0.5196850393700787,"duration":0.13043475000000626},{"name":"C3","midi":48,"time":161.0869162500032,"velocity":0.5196850393700787,"duration":0.2608695000000125},{"name":"A2","midi":45,"time":161.34778575000323,"velocity":0.5196850393700787,"duration":0.13043475000000626},{"name":"G2","midi":43,"time":161.47822050000323,"velocity":0.5196850393700787,"duration":0.13043475000000626},{"name":"E2","midi":40,"time":161.60865525000324,"velocity":0.5196850393700787,"duration":0.13043475000000626},{"name":"C2","midi":36,"time":161.73909000000324,"velocity":0.5196850393700787,"duration":0.13043475000000626},{"name":"E2","midi":40,"time":161.86952475000325,"velocity":0.5196850393700787,"duration":0.13043475000000626},{"name":"G2","midi":43,"time":161.99995950000326,"velocity":0.5196850393700787,"duration":0.13043475000000626},{"name":"C3","midi":48,"time":162.13039425000326,"velocity":0.5196850393700787,"duration":0.2608695000000125},{"name":"A2","midi":45,"time":162.39126375000328,"velocity":0.5196850393700787,"duration":0.13043475000000626},{"name":"G2","midi":43,"time":162.52169850000328,"velocity":0.5196850393700787,"duration":0.13043475000000626},{"name":"E2","midi":40,"time":162.6521332500033,"velocity":0.5196850393700787,"duration":0.13043475000000626},{"name":"A#1","midi":34,"time":162.7825680000033,"velocity":0.5196850393700787,"duration":0.13043475000000626},{"name":"D2","midi":38,"time":162.9130027500033,"velocity":0.5196850393700787,"duration":0.13043475000000626},{"name":"F2","midi":41,"time":163.0434375000033,"velocity":0.5196850393700787,"duration":0.13043475000000626},{"name":"A#2","midi":46,"time":163.1738722500033,"velocity":0.5196850393700787,"duration":0.2608695000000125},{"name":"G2","midi":43,"time":163.43474175000333,"velocity":0.5196850393700787,"duration":0.13043475000000626},{"name":"F2","midi":41,"time":163.56517650000333,"velocity":0.5196850393700787,"duration":0.13043475000000626},{"name":"D2","midi":38,"time":163.69561125000334,"velocity":0.5196850393700787,"duration":0.13043475000000626},{"name":"A#1","midi":34,"time":163.82604600000334,"velocity":0.5196850393700787,"duration":0.13043475000000626},{"name":"D2","midi":38,"time":163.95648075000335,"velocity":0.5196850393700787,"duration":0.13043475000000626},{"name":"F2","midi":41,"time":164.08691550000336,"velocity":0.5196850393700787,"duration":0.13043475000000626},{"name":"A#2","midi":46,"time":164.21735025000336,"velocity":0.5196850393700787,"duration":0.2608695000000125},{"name":"G2","midi":43,"time":164.47821975000338,"velocity":0.5196850393700787,"duration":0.13043475000000626},{"name":"F2","midi":41,"time":164.60865450000338,"velocity":0.5196850393700787,"duration":0.13043475000000626},{"name":"D2","midi":38,"time":164.7390892500034,"velocity":0.5196850393700787,"duration":0.13043475000000626},{"name":"C2","midi":36,"time":164.8695240000034,"velocity":0.5196850393700787,"duration":0.13043475000000626},{"name":"E2","midi":40,"time":164.9999587500034,"velocity":0.5196850393700787,"duration":0.13043475000000626},{"name":"G2","midi":43,"time":165.1303935000034,"velocity":0.5196850393700787,"duration":0.13043475000000626},{"name":"C3","midi":48,"time":165.2608282500034,"velocity":0.5196850393700787,"duration":0.2608695000000125},{"name":"A2","midi":45,"time":165.52169775000343,"velocity":0.5196850393700787,"duration":0.13043475000000626},{"name":"G2","midi":43,"time":165.65213250000343,"velocity":0.5196850393700787,"duration":0.13043475000000626},{"name":"E2","midi":40,"time":165.78256725000344,"velocity":0.5196850393700787,"duration":0.13043475000000626},{"name":"C2","midi":36,"time":165.91300200000344,"velocity":0.5196850393700787,"duration":0.13043475000000626},{"name":"E2","midi":40,"time":166.04343675000345,"velocity":0.5196850393700787,"duration":0.13043475000000626},{"name":"G2","midi":43,"time":166.17387150000346,"velocity":0.5196850393700787,"duration":0.13043475000000626},{"name":"C3","midi":48,"time":166.30430625000346,"velocity":0.5196850393700787,"duration":0.2608695000000125},{"name":"A2","midi":45,"time":166.56517575000348,"velocity":0.5196850393700787,"duration":0.13043475000000626},{"name":"G2","midi":43,"time":166.69561050000348,"velocity":0.5196850393700787,"duration":0.13043475000000626},{"name":"E2","midi":40,"time":166.8260452500035,"velocity":0.5196850393700787,"duration":0.13043475000000626},{"name":"D2","midi":38,"time":166.9564800000035,"velocity":0.5196850393700787,"duration":0.39130424999999036},{"name":"A2","midi":45,"time":167.34778425000349,"velocity":0.5196850393700787,"duration":0.39130424999999036},{"name":"D3","midi":50,"time":167.73908850000348,"velocity":0.5196850393700787,"duration":0.2608695000000125},{"name":"G2","midi":43,"time":167.9999580000035,"velocity":0.5196850393700787,"duration":0.39130424999999036},{"name":"B2","midi":47,"time":168.39126225000348,"velocity":0.5196850393700787,"duration":0.39130424999999036},{"name":"D3","midi":50,"time":168.78256650000347,"velocity":0.5196850393700787,"duration":0.2608695000000125},{"name":"D2","midi":38,"time":169.04343600000348,"velocity":0.5196850393700787,"duration":0.39130424999999036},{"name":"A2","midi":45,"time":169.43474025000347,"velocity":0.5196850393700787,"duration":0.39130424999999036},{"name":"D3","midi":50,"time":169.82604450000346,"velocity":0.5196850393700787,"duration":0.2608695000000125},{"name":"G2","midi":43,"time":170.08691400000347,"velocity":0.5196850393700787,"duration":0.39130424999999036},{"name":"B2","midi":47,"time":170.47821825000347,"velocity":0.5196850393700787,"duration":0.39130424999999036},{"name":"D3","midi":50,"time":170.86952250000346,"velocity":0.5196850393700787,"duration":0.2608695000000125},{"name":"D2","midi":38,"time":171.13039200000347,"velocity":0.5196850393700787,"duration":2.0869559999999865},{"name":"A2","midi":45,"time":171.13039200000347,"velocity":0.5196850393700787,"duration":2.0869559999999865},{"name":"D3","midi":50,"time":171.13039200000347,"velocity":0.5196850393700787,"duration":2.0869559999999865}],"controlChanges":{},"id":2,"name":"Grand Piano (Classic)","instrumentNumber":0,"instrument":"acoustic grand piano","instrumentFamily":"piano","channelNumber":2,"isPercussion":false},{"startTime":18.782604,"duration":173.2173480000013,"length":692,"notes":[{"name":"G5","midi":79,"time":18.782604,"velocity":0.3937007874015748,"duration":0.7826084999999985},{"name":"D5","midi":74,"time":18.782604,"velocity":0.3937007874015748,"duration":0.7826084999999985},{"name":"A#4","midi":70,"time":18.782604,"velocity":0.3937007874015748,"duration":0.7826084999999985},{"name":"A5","midi":81,"time":19.565212499999998,"velocity":0.3937007874015748,"duration":0.2608694999999983},{"name":"D5","midi":74,"time":19.826081999999996,"velocity":0.3937007874015748,"duration":0.391304250000001},{"name":"A#4","midi":70,"time":19.826081999999996,"velocity":0.3937007874015748,"duration":0.391304250000001},{"name":"E5","midi":76,"time":20.217386249999997,"velocity":0.3937007874015748,"duration":0.391304250000001},{"name":"F5","midi":77,"time":20.608690499999998,"velocity":0.3937007874015748,"duration":0.2608694999999983},{"name":"F5","midi":77,"time":20.869559999999996,"velocity":0.3937007874015748,"duration":1.0434780000000003},{"name":"A5","midi":81,"time":20.869559999999996,"velocity":0.3937007874015748,"duration":1.0434780000000003},{"name":"A#4","midi":70,"time":20.869559999999996,"velocity":0.3937007874015748,"duration":1.0434780000000003},{"name":"F5","midi":77,"time":21.913037999999997,"velocity":0.3937007874015748,"duration":0.5217390000000002},{"name":"A#4","midi":70,"time":21.913037999999997,"velocity":0.3937007874015748,"duration":0.5217390000000002},{"name":"A5","midi":81,"time":22.434776999999997,"velocity":0.3937007874015748,"duration":0.5217390000000002},{"name":"C5","midi":72,"time":22.434776999999997,"velocity":0.3937007874015748,"duration":0.5217390000000002},{"name":"G5","midi":79,"time":22.956515999999997,"velocity":0.3937007874015748,"duration":0.7826084999999985},{"name":"D5","midi":74,"time":22.956515999999997,"velocity":0.3937007874015748,"duration":0.7826084999999985},{"name":"A5","midi":81,"time":23.739124499999996,"velocity":0.3937007874015748,"duration":0.2608694999999983},{"name":"D5","midi":74,"time":23.999993999999994,"velocity":0.3937007874015748,"duration":0.391304250000001},{"name":"A#4","midi":70,"time":23.999993999999994,"velocity":0.3937007874015748,"duration":0.391304250000001},{"name":"E5","midi":76,"time":24.391298249999995,"velocity":0.3937007874015748,"duration":0.391304250000001},{"name":"C6","midi":84,"time":24.782602499999996,"velocity":0.3937007874015748,"duration":0.2608694999999983},{"name":"F5","midi":77,"time":25.043471999999994,"velocity":0.3937007874015748,"duration":1.0434780000000003},{"name":"A5","midi":81,"time":25.043471999999994,"velocity":0.3937007874015748,"duration":1.0434780000000003},{"name":"D5","midi":74,"time":25.043471999999994,"velocity":0.3937007874015748,"duration":1.0434780000000003},{"name":"C6","midi":84,"time":27.130427999999995,"velocity":0.3937007874015748,"duration":0.7826084999999985},{"name":"F5","midi":77,"time":27.130427999999995,"velocity":0.3937007874015748,"duration":0.7826084999999985},{"name":"A#4","midi":70,"time":27.130427999999995,"velocity":0.3937007874015748,"duration":0.7826084999999985},{"name":"D6","midi":86,"time":27.913036499999993,"velocity":0.3937007874015748,"duration":0.2608694999999983},{"name":"F5","midi":77,"time":28.17390599999999,"velocity":0.3937007874015748,"duration":0.391304250000001},{"name":"A#4","midi":70,"time":28.17390599999999,"velocity":0.3937007874015748,"duration":0.391304250000001},{"name":"G5","midi":79,"time":28.565210249999993,"velocity":0.3937007874015748,"duration":0.391304250000001},{"name":"A5","midi":81,"time":28.956514499999994,"velocity":0.3937007874015748,"duration":0.2608694999999983},{"name":"G5","midi":79,"time":29.217383999999992,"velocity":0.3937007874015748,"duration":0.7826084999999985},{"name":"C6","midi":84,"time":29.217383999999992,"velocity":0.3937007874015748,"duration":0.7826084999999985},{"name":"C5","midi":72,"time":29.217383999999992,"velocity":0.3937007874015748,"duration":0.7826084999999985},{"name":"D6","midi":86,"time":29.99999249999999,"velocity":0.3937007874015748,"duration":0.2608694999999983},{"name":"C5","midi":72,"time":30.26086199999999,"velocity":0.3937007874015748,"duration":0.391304250000001},{"name":"F5","midi":77,"time":30.26086199999999,"velocity":0.3937007874015748,"duration":0.391304250000001},{"name":"E6","midi":88,"time":30.65216624999999,"velocity":0.3937007874015748,"duration":0.391304250000001},{"name":"C6","midi":84,"time":31.04347049999999,"velocity":0.3937007874015748,"duration":0.2608694999999983},{"name":"A5","midi":81,"time":31.30433999999999,"velocity":0.3937007874015748,"duration":1.8260865000000024},{"name":"F5","midi":77,"time":31.30433999999999,"velocity":0.3937007874015748,"duration":1.8260865000000024},{"name":"D5","midi":74,"time":31.30433999999999,"velocity":0.3937007874015748,"duration":1.8260865000000024},{"name":"A#5","midi":82,"time":33.13042649999999,"velocity":0.3937007874015748,"duration":0.13043474999999916},{"name":"A5","midi":81,"time":33.26086124999999,"velocity":0.3937007874015748,"duration":0.13043474999999916},{"name":"G5","midi":79,"time":33.39129599999999,"velocity":0.3937007874015748,"duration":1.0434780000000003},{"name":"E5","midi":76,"time":33.39129599999999,"velocity":0.3937007874015748,"duration":1.0434780000000003},{"name":"G5","midi":79,"time":35.47825199999999,"velocity":0.3937007874015748,"duration":0.782608500000002},{"name":"D5","midi":74,"time":35.47825199999999,"velocity":0.3937007874015748,"duration":0.782608500000002},{"name":"A#4","midi":70,"time":35.47825199999999,"velocity":0.3937007874015748,"duration":0.782608500000002},{"name":"A5","midi":81,"time":36.26086049999999,"velocity":0.3937007874015748,"duration":0.2608694999999983},{"name":"D5","midi":74,"time":36.52172999999999,"velocity":0.3937007874015748,"duration":0.39130424999999747},{"name":"A#4","midi":70,"time":36.52172999999999,"velocity":0.3937007874015748,"duration":0.39130424999999747},{"name":"E5","midi":76,"time":36.91303424999999,"velocity":0.3937007874015748,"duration":0.39130424999999747},{"name":"F5","midi":77,"time":37.304338499999986,"velocity":0.3937007874015748,"duration":0.2608694999999983},{"name":"F5","midi":77,"time":37.565207999999984,"velocity":0.3937007874015748,"duration":1.0434780000000003},{"name":"A5","midi":81,"time":37.565207999999984,"velocity":0.3937007874015748,"duration":1.0434780000000003},{"name":"A#4","midi":70,"time":37.565207999999984,"velocity":0.3937007874015748,"duration":1.0434780000000003},{"name":"F5","midi":77,"time":38.608685999999985,"velocity":0.3937007874015748,"duration":0.5217389999999966},{"name":"A#4","midi":70,"time":38.608685999999985,"velocity":0.3937007874015748,"duration":0.5217389999999966},{"name":"A5","midi":81,"time":39.13042499999998,"velocity":0.3937007874015748,"duration":0.5217389999999966},{"name":"C5","midi":72,"time":39.13042499999998,"velocity":0.3937007874015748,"duration":0.5217389999999966},{"name":"G5","midi":79,"time":39.65216399999998,"velocity":0.3937007874015748,"duration":0.782608500000002},{"name":"D5","midi":74,"time":39.65216399999998,"velocity":0.3937007874015748,"duration":0.782608500000002},{"name":"A5","midi":81,"time":40.43477249999998,"velocity":0.3937007874015748,"duration":0.2608694999999983},{"name":"D5","midi":74,"time":40.69564199999998,"velocity":0.3937007874015748,"duration":0.39130424999999747},{"name":"A#4","midi":70,"time":40.69564199999998,"velocity":0.3937007874015748,"duration":0.39130424999999747},{"name":"E5","midi":76,"time":41.086946249999976,"velocity":0.3937007874015748,"duration":0.39130424999999747},{"name":"C6","midi":84,"time":41.47825049999997,"velocity":0.3937007874015748,"duration":0.2608694999999983},{"name":"F5","midi":77,"time":41.73911999999997,"velocity":0.3937007874015748,"duration":1.0434780000000003},{"name":"A5","midi":81,"time":41.73911999999997,"velocity":0.3937007874015748,"duration":1.0434780000000003},{"name":"D5","midi":74,"time":41.73911999999997,"velocity":0.3937007874015748,"duration":1.0434780000000003},{"name":"C6","midi":84,"time":43.82607599999997,"velocity":0.3937007874015748,"duration":0.782608500000002},{"name":"F5","midi":77,"time":43.82607599999997,"velocity":0.3937007874015748,"duration":0.782608500000002},{"name":"A#4","midi":70,"time":43.82607599999997,"velocity":0.3937007874015748,"duration":0.782608500000002},{"name":"D6","midi":86,"time":44.608684499999974,"velocity":0.3937007874015748,"duration":0.2608694999999983},{"name":"F5","midi":77,"time":44.86955399999997,"velocity":0.3937007874015748,"duration":0.39130424999999747},{"name":"A#4","midi":70,"time":44.86955399999997,"velocity":0.3937007874015748,"duration":0.39130424999999747},{"name":"G5","midi":79,"time":45.26085824999997,"velocity":0.3937007874015748,"duration":0.39130424999999747},{"name":"A5","midi":81,"time":45.65216249999997,"velocity":0.3937007874015748,"duration":0.2608694999999983},{"name":"G5","midi":79,"time":45.913031999999966,"velocity":0.3937007874015748,"duration":0.782608500000002},{"name":"C6","midi":84,"time":45.913031999999966,"velocity":0.3937007874015748,"duration":0.782608500000002},{"name":"C5","midi":72,"time":45.913031999999966,"velocity":0.3937007874015748,"duration":0.782608500000002},{"name":"D6","midi":86,"time":46.69564049999997,"velocity":0.3937007874015748,"duration":0.2608694999999983},{"name":"C5","midi":72,"time":46.956509999999966,"velocity":0.3937007874015748,"duration":0.39130424999999747},{"name":"F5","midi":77,"time":46.956509999999966,"velocity":0.3937007874015748,"duration":0.39130424999999747},{"name":"E6","midi":88,"time":47.34781424999996,"velocity":0.3937007874015748,"duration":0.39130424999999747},{"name":"C6","midi":84,"time":47.73911849999996,"velocity":0.3937007874015748,"duration":0.2608694999999983},{"name":"A5","midi":81,"time":47.99998799999996,"velocity":0.3937007874015748,"duration":1.8260865000000024},{"name":"F5","midi":77,"time":47.99998799999996,"velocity":0.3937007874015748,"duration":1.8260865000000024},{"name":"D5","midi":74,"time":47.99998799999996,"velocity":0.3937007874015748,"duration":1.8260865000000024},{"name":"A#5","midi":82,"time":49.82607449999996,"velocity":0.3937007874015748,"duration":0.13043474999999916},{"name":"A5","midi":81,"time":49.95650924999996,"velocity":0.3937007874015748,"duration":0.13043474999999916},{"name":"G5","midi":79,"time":50.08694399999996,"velocity":0.3937007874015748,"duration":1.0434780000000003},{"name":"E5","midi":76,"time":50.08694399999996,"velocity":0.3937007874015748,"duration":1.0434780000000003},{"name":"F5","midi":77,"time":51.13042199999996,"velocity":0.3937007874015748,"duration":0.13043474999999916},{"name":"D5","midi":74,"time":51.13042199999996,"velocity":0.3937007874015748,"duration":0.13043474999999916},{"name":"E5","midi":76,"time":51.65216099999996,"velocity":0.3937007874015748,"duration":0.13043474999999916},{"name":"C5","midi":72,"time":51.65216099999996,"velocity":0.3937007874015748,"duration":0.13043474999999916},{"name":"A#4","midi":70,"time":52.17389999999995,"velocity":0.3937007874015748,"duration":0.13043474999999916},{"name":"D5","midi":74,"time":52.17389999999995,"velocity":0.3937007874015748,"duration":0.13043474999999916},{"name":"F5","midi":77,"time":52.30433474999995,"velocity":0.3937007874015748,"duration":0.13043474999999916},{"name":"E5","midi":76,"time":52.43476949999995,"velocity":0.3937007874015748,"duration":0.13043474999999916},{"name":"F5","midi":77,"time":52.56520424999995,"velocity":0.3937007874015748,"duration":0.13043474999999916},{"name":"D5","midi":74,"time":52.69563899999995,"velocity":0.3937007874015748,"duration":0.13043474999999916},{"name":"D5","midi":74,"time":53.08694324999995,"velocity":0.3937007874015748,"duration":0.2608694999999983},{"name":"A#4","midi":70,"time":53.08694324999995,"velocity":0.3937007874015748,"duration":0.2608694999999983},{"name":"E5","midi":76,"time":53.347812749999946,"velocity":0.3937007874015748,"duration":0.13043474999999916},{"name":"F5","midi":77,"time":53.478247499999945,"velocity":0.3937007874015748,"duration":0.13043474999999916},{"name":"C6","midi":84,"time":53.608682249999944,"velocity":0.3937007874015748,"duration":0.13043474999999916},{"name":"A5","midi":81,"time":53.73911699999994,"velocity":0.3937007874015748,"duration":0.5217389999999966},{"name":"C5","midi":72,"time":54.26085599999994,"velocity":0.3937007874015748,"duration":0.13043474999999916},{"name":"D5","midi":74,"time":54.26085599999994,"velocity":0.3937007874015748,"duration":0.13043474999999916},{"name":"F5","midi":77,"time":54.39129074999994,"velocity":0.3937007874015748,"duration":0.13043474999999916},{"name":"E5","midi":76,"time":54.52172549999994,"velocity":0.3937007874015748,"duration":0.13043474999999916},{"name":"F5","midi":77,"time":54.65216024999994,"velocity":0.3937007874015748,"duration":0.13043474999999916},{"name":"D5","midi":74,"time":54.78259499999994,"velocity":0.3937007874015748,"duration":0.13043474999999916},{"name":"D5","midi":74,"time":55.173899249999934,"velocity":0.3937007874015748,"duration":0.2608694999999983},{"name":"C5","midi":72,"time":55.173899249999934,"velocity":0.3937007874015748,"duration":0.2608694999999983},{"name":"E5","midi":76,"time":55.43476874999993,"velocity":0.3937007874015748,"duration":0.13043474999999916},{"name":"F5","midi":77,"time":55.56520349999993,"velocity":0.3937007874015748,"duration":0.13043474999999916},{"name":"C6","midi":84,"time":55.69563824999993,"velocity":0.3937007874015748,"duration":0.13043474999999916},{"name":"A5","midi":81,"time":55.82607299999993,"velocity":0.3937007874015748,"duration":0.5217389999999966},{"name":"A4","midi":69,"time":56.34781199999993,"velocity":0.3937007874015748,"duration":0.13043474999999916},{"name":"D5","midi":74,"time":56.34781199999993,"velocity":0.3937007874015748,"duration":0.13043474999999916},{"name":"F5","midi":77,"time":56.478246749999926,"velocity":0.3937007874015748,"duration":0.13043474999999916},{"name":"E5","midi":76,"time":56.608681499999925,"velocity":0.3937007874015748,"duration":0.13043474999999916},{"name":"F5","midi":77,"time":56.739116249999924,"velocity":0.3937007874015748,"duration":0.13043474999999916},{"name":"D5","midi":74,"time":56.86955099999992,"velocity":0.3937007874015748,"duration":0.13043474999999916},{"name":"D5","midi":74,"time":57.26085524999992,"velocity":0.3937007874015748,"duration":0.2608694999999983},{"name":"A4","midi":69,"time":57.26085524999992,"velocity":0.3937007874015748,"duration":0.2608694999999983},{"name":"E5","midi":76,"time":57.52172474999992,"velocity":0.3937007874015748,"duration":0.13043474999999916},{"name":"F5","midi":77,"time":57.65215949999992,"velocity":0.3937007874015748,"duration":0.13043474999999916},{"name":"C6","midi":84,"time":57.78259424999992,"velocity":0.3937007874015748,"duration":0.13043474999999916},{"name":"A5","midi":81,"time":57.913028999999916,"velocity":0.3937007874015748,"duration":0.5217389999999966},{"name":"A4","midi":69,"time":58.43476799999991,"velocity":0.3937007874015748,"duration":0.13043474999999916},{"name":"C5","midi":72,"time":58.43476799999991,"velocity":0.3937007874015748,"duration":0.13043474999999916},{"name":"G5","midi":79,"time":58.82607224999991,"velocity":0.3937007874015748,"duration":0.39130424999999747},{"name":"F5","midi":77,"time":59.21737649999991,"velocity":0.3937007874015748,"duration":0.2608694999999983},{"name":"A4","midi":69,"time":59.478245999999906,"velocity":0.3937007874015748,"duration":0.13043475000000626},{"name":"E5","midi":76,"time":59.478245999999906,"velocity":0.3937007874015748,"duration":0.06521737500000313},{"name":"E5","midi":76,"time":59.54346337499991,"velocity":0.3937007874015748,"duration":0.06521737500000313},{"name":"D5","midi":74,"time":59.60868074999991,"velocity":0.3937007874015748,"duration":0.2608694999999983},{"name":"C5","midi":72,"time":59.86955024999991,"velocity":0.3937007874015748,"duration":0.39130424999999747},{"name":"E5","midi":76,"time":60.26085449999991,"velocity":0.3937007874015748,"duration":0.2608694999999983},{"name":"A#4","midi":70,"time":60.52172399999991,"velocity":0.3937007874015748,"duration":0.13043474999999916},{"name":"D5","midi":74,"time":60.52172399999991,"velocity":0.3937007874015748,"duration":0.13043474999999916},{"name":"F5","midi":77,"time":60.652158749999906,"velocity":0.3937007874015748,"duration":0.13043474999999916},{"name":"E5","midi":76,"time":60.782593499999905,"velocity":0.3937007874015748,"duration":0.13043474999999916},{"name":"F5","midi":77,"time":60.913028249999904,"velocity":0.3937007874015748,"duration":0.13043474999999916},{"name":"D5","midi":74,"time":61.0434629999999,"velocity":0.3937007874015748,"duration":0.13043474999999916},{"name":"D5","midi":74,"time":61.4347672499999,"velocity":0.3937007874015748,"duration":0.2608694999999983},{"name":"A#4","midi":70,"time":61.4347672499999,"velocity":0.3937007874015748,"duration":0.2608694999999983},{"name":"E5","midi":76,"time":61.6956367499999,"velocity":0.3937007874015748,"duration":0.13043474999999916},{"name":"F5","midi":77,"time":61.8260714999999,"velocity":0.3937007874015748,"duration":0.13043474999999916},{"name":"C6","midi":84,"time":61.9565062499999,"velocity":0.3937007874015748,"duration":0.13043474999999916},{"name":"A5","midi":81,"time":62.0869409999999,"velocity":0.3937007874015748,"duration":0.5217389999999966},{"name":"C5","midi":72,"time":62.60867999999989,"velocity":0.3937007874015748,"duration":0.13043474999999916},{"name":"D5","midi":74,"time":62.60867999999989,"velocity":0.3937007874015748,"duration":0.13043474999999916},{"name":"F5","midi":77,"time":62.73911474999989,"velocity":0.3937007874015748,"duration":0.13043474999999916},{"name":"E5","midi":76,"time":62.86954949999989,"velocity":0.3937007874015748,"duration":0.13043474999999916},{"name":"F5","midi":77,"time":62.99998424999989,"velocity":0.3937007874015748,"duration":0.13043474999999916},{"name":"D5","midi":74,"time":63.13041899999989,"velocity":0.3937007874015748,"duration":0.13043474999999916},{"name":"D5","midi":74,"time":63.52172324999989,"velocity":0.3937007874015748,"duration":0.2608694999999983},{"name":"C5","midi":72,"time":63.52172324999989,"velocity":0.3937007874015748,"duration":0.2608694999999983},{"name":"E5","midi":76,"time":63.782592749999885,"velocity":0.3937007874015748,"duration":0.13043474999999916},{"name":"F5","midi":77,"time":63.913027499999885,"velocity":0.3937007874015748,"duration":0.13043475000000626},{"name":"C6","midi":84,"time":64.04346224999989,"velocity":0.3937007874015748,"duration":0.13043475000000626},{"name":"A5","midi":81,"time":64.1738969999999,"velocity":0.3937007874015748,"duration":0.5217389999999966},{"name":"A4","midi":69,"time":64.6956359999999,"velocity":0.3937007874015748,"duration":0.13043475000000626},{"name":"D5","midi":74,"time":64.6956359999999,"velocity":0.3937007874015748,"duration":0.13043475000000626},{"name":"F5","midi":77,"time":64.8260707499999,"velocity":0.3937007874015748,"duration":0.13043475000000626},{"name":"E5","midi":76,"time":64.9565054999999,"velocity":0.3937007874015748,"duration":0.13043475000000626},{"name":"F5","midi":77,"time":65.08694024999991,"velocity":0.3937007874015748,"duration":0.13043475000000626},{"name":"D5","midi":74,"time":65.21737499999992,"velocity":0.3937007874015748,"duration":0.13043475000000626},{"name":"D5","midi":74,"time":65.60867924999992,"velocity":0.3937007874015748,"duration":0.2608694999999983},{"name":"A4","midi":69,"time":65.60867924999992,"velocity":0.3937007874015748,"duration":0.2608694999999983},{"name":"E5","midi":76,"time":65.86954874999992,"velocity":0.3937007874015748,"duration":0.13043475000000626},{"name":"F5","midi":77,"time":65.99998349999993,"velocity":0.3937007874015748,"duration":0.13043475000000626},{"name":"C6","midi":84,"time":66.13041824999993,"velocity":0.3937007874015748,"duration":0.13043475000000626},{"name":"A5","midi":81,"time":66.26085299999994,"velocity":0.3937007874015748,"duration":0.5217389999999966},{"name":"C5","midi":72,"time":66.78259199999994,"velocity":0.3937007874015748,"duration":0.13043475000000626},{"name":"G5","midi":79,"time":67.17389624999994,"velocity":0.3937007874015748,"duration":0.39130425000000457},{"name":"F5","midi":77,"time":67.56520049999995,"velocity":0.3937007874015748,"duration":0.2608694999999983},{"name":"E5","midi":76,"time":67.82606999999994,"velocity":0.3937007874015748,"duration":0.06521737500000313},{"name":"E5","midi":76,"time":67.89128737499995,"velocity":0.3937007874015748,"duration":0.06521737500000313},{"name":"D5","midi":74,"time":67.95650474999995,"velocity":0.3937007874015748,"duration":0.2608694999999983},{"name":"C5","midi":72,"time":68.21737424999995,"velocity":0.3937007874015748,"duration":0.39130425000000457},{"name":"E5","midi":76,"time":68.60867849999995,"velocity":0.3937007874015748,"duration":0.2608694999999983},{"name":"A#5","midi":82,"time":68.86954799999995,"velocity":0.3937007874015748,"duration":0.13043475000000626},{"name":"D6","midi":86,"time":68.86954799999995,"velocity":0.3937007874015748,"duration":0.13043475000000626},{"name":"F6","midi":89,"time":68.99998274999996,"velocity":0.3937007874015748,"duration":0.13043475000000626},{"name":"E6","midi":88,"time":69.13041749999996,"velocity":0.3937007874015748,"duration":0.13043475000000626},{"name":"F6","midi":89,"time":69.26085224999997,"velocity":0.3937007874015748,"duration":0.13043475000000626},{"name":"D6","midi":86,"time":69.39128699999998,"velocity":0.3937007874015748,"duration":0.13043475000000626},{"name":"D6","midi":86,"time":69.78259124999998,"velocity":0.3937007874015748,"duration":0.2608694999999983},{"name":"A#5","midi":82,"time":69.78259124999998,"velocity":0.3937007874015748,"duration":0.2608694999999983},{"name":"E6","midi":88,"time":70.04346074999998,"velocity":0.3937007874015748,"duration":0.13043475000000626},{"name":"F6","midi":89,"time":70.17389549999999,"velocity":0.3937007874015748,"duration":0.13043475000000626},{"name":"C6","midi":84,"time":70.30433024999999,"velocity":0.3937007874015748,"duration":0.13043475000000626},{"name":"A6","midi":93,"time":70.434765,"velocity":0.3937007874015748,"duration":0.5217389999999966},{"name":"C6","midi":84,"time":70.956504,"velocity":0.3937007874015748,"duration":0.13043475000000626},{"name":"D6","midi":86,"time":70.956504,"velocity":0.3937007874015748,"duration":0.13043475000000626},{"name":"F6","midi":89,"time":71.08693875,"velocity":0.3937007874015748,"duration":0.13043475000000626},{"name":"E6","midi":88,"time":71.21737350000001,"velocity":0.3937007874015748,"duration":0.13043475000000626},{"name":"F6","midi":89,"time":71.34780825000001,"velocity":0.3937007874015748,"duration":0.13043475000000626},{"name":"D6","midi":86,"time":71.47824300000002,"velocity":0.3937007874015748,"duration":0.13043475000000626},{"name":"D6","midi":86,"time":71.86954725000002,"velocity":0.3937007874015748,"duration":0.2608694999999983},{"name":"C6","midi":84,"time":71.86954725000002,"velocity":0.3937007874015748,"duration":0.2608694999999983},{"name":"E6","midi":88,"time":72.13041675000002,"velocity":0.3937007874015748,"duration":0.13043475000000626},{"name":"F6","midi":89,"time":72.26085150000003,"velocity":0.3937007874015748,"duration":0.13043475000000626},{"name":"C6","midi":84,"time":72.39128625000004,"velocity":0.3937007874015748,"duration":0.13043475000000626},{"name":"A6","midi":93,"time":72.52172100000004,"velocity":0.3937007874015748,"duration":0.5217389999999966},{"name":"A5","midi":81,"time":73.04346000000004,"velocity":0.3937007874015748,"duration":0.13043475000000626},{"name":"D6","midi":86,"time":73.04346000000004,"velocity":0.3937007874015748,"duration":0.13043475000000626},{"name":"F6","midi":89,"time":73.17389475000004,"velocity":0.3937007874015748,"duration":0.13043475000000626},{"name":"E6","midi":88,"time":73.30432950000005,"velocity":0.3937007874015748,"duration":0.13043475000000626},{"name":"F6","midi":89,"time":73.43476425000006,"velocity":0.3937007874015748,"duration":0.13043475000000626},{"name":"D6","midi":86,"time":73.56519900000006,"velocity":0.3937007874015748,"duration":0.13043475000000626},{"name":"D6","midi":86,"time":73.95650325000007,"velocity":0.3937007874015748,"duration":0.2608694999999983},{"name":"A5","midi":81,"time":73.95650325000007,"velocity":0.3937007874015748,"duration":0.2608694999999983},{"name":"E6","midi":88,"time":74.21737275000007,"velocity":0.3937007874015748,"duration":0.13043475000000626},{"name":"F6","midi":89,"time":74.34780750000007,"velocity":0.3937007874015748,"duration":0.13043475000000626},{"name":"C6","midi":84,"time":74.47824225000008,"velocity":0.3937007874015748,"duration":0.13043475000000626},{"name":"A6","midi":93,"time":74.60867700000009,"velocity":0.3937007874015748,"duration":0.5217389999999966},{"name":"C6","midi":84,"time":75.13041600000008,"velocity":0.3937007874015748,"duration":0.13043475000000626},{"name":"E5","midi":76,"time":75.13041600000008,"velocity":0.3937007874015748,"duration":0.13043475000000626},{"name":"G6","midi":91,"time":75.52172025000009,"velocity":0.3937007874015748,"duration":0.39130425000000457},{"name":"F6","midi":89,"time":75.91302450000009,"velocity":0.3937007874015748,"duration":0.2608694999999983},{"name":"D6","midi":86,"time":76.17389400000009,"velocity":0.3937007874015748,"duration":0.06521737500000313},{"name":"E5","midi":76,"time":76.17389400000009,"velocity":0.3937007874015748,"duration":0.13043475000000626},{"name":"E6","midi":88,"time":76.23911137500009,"velocity":0.3937007874015748,"duration":0.06521737500000313},{"name":"D6","midi":86,"time":76.3043287500001,"velocity":0.3937007874015748,"duration":0.2608694999999983},{"name":"C6","midi":84,"time":76.5651982500001,"velocity":0.3937007874015748,"duration":0.39130425000000457},{"name":"E6","midi":88,"time":76.9565025000001,"velocity":0.3937007874015748,"duration":0.2608694999999983},{"name":"A#5","midi":82,"time":77.2173720000001,"velocity":0.3937007874015748,"duration":0.13043475000000626},{"name":"D6","midi":86,"time":77.2173720000001,"velocity":0.3937007874015748,"duration":0.13043475000000626},{"name":"F6","midi":89,"time":77.3478067500001,"velocity":0.3937007874015748,"duration":0.13043475000000626},{"name":"E6","midi":88,"time":77.47824150000011,"velocity":0.3937007874015748,"duration":0.13043475000000626},{"name":"F6","midi":89,"time":77.60867625000012,"velocity":0.3937007874015748,"duration":0.13043475000000626},{"name":"D6","midi":86,"time":77.73911100000012,"velocity":0.3937007874015748,"duration":0.13043475000000626},{"name":"D6","midi":86,"time":78.13041525000013,"velocity":0.3937007874015748,"duration":0.2608694999999983},{"name":"A#5","midi":82,"time":78.13041525000013,"velocity":0.3937007874015748,"duration":0.2608694999999983},{"name":"E6","midi":88,"time":78.39128475000012,"velocity":0.3937007874015748,"duration":0.13043475000000626},{"name":"F6","midi":89,"time":78.52171950000013,"velocity":0.3937007874015748,"duration":0.13043475000000626},{"name":"C6","midi":84,"time":78.65215425000014,"velocity":0.3937007874015748,"duration":0.13043475000000626},{"name":"A6","midi":93,"time":78.78258900000014,"velocity":0.3937007874015748,"duration":0.5217389999999966},{"name":"D6","midi":86,"time":79.30432800000014,"velocity":0.3937007874015748,"duration":0.13043475000000626},{"name":"C6","midi":84,"time":79.30432800000014,"velocity":0.3937007874015748,"duration":0.13043475000000626},{"name":"F6","midi":89,"time":79.43476275000015,"velocity":0.3937007874015748,"duration":0.13043475000000626},{"name":"E6","midi":88,"time":79.56519750000015,"velocity":0.3937007874015748,"duration":0.13043475000000626},{"name":"F6","midi":89,"time":79.69563225000016,"velocity":0.3937007874015748,"duration":0.13043475000000626},{"name":"D6","midi":86,"time":79.82606700000017,"velocity":0.3937007874015748,"duration":0.13043475000000626},{"name":"D6","midi":86,"time":80.21737125000017,"velocity":0.3937007874015748,"duration":0.2608694999999983},{"name":"C6","midi":84,"time":80.21737125000017,"velocity":0.3937007874015748,"duration":0.2608694999999983},{"name":"E6","midi":88,"time":80.47824075000017,"velocity":0.3937007874015748,"duration":0.13043475000000626},{"name":"F6","midi":89,"time":80.60867550000017,"velocity":0.3937007874015748,"duration":0.13043475000000626},{"name":"C6","midi":84,"time":80.73911025000018,"velocity":0.3937007874015748,"duration":0.13043475000000626},{"name":"A6","midi":93,"time":80.86954500000019,"velocity":0.3937007874015748,"duration":0.5217389999999966},{"name":"A5","midi":81,"time":81.39128400000018,"velocity":0.3937007874015748,"duration":0.13043475000000626},{"name":"D6","midi":86,"time":81.39128400000018,"velocity":0.3937007874015748,"duration":0.13043475000000626},{"name":"F6","midi":89,"time":81.52171875000019,"velocity":0.3937007874015748,"duration":0.13043475000000626},{"name":"E6","midi":88,"time":81.6521535000002,"velocity":0.3937007874015748,"duration":0.13043475000000626},{"name":"F6","midi":89,"time":81.7825882500002,"velocity":0.3937007874015748,"duration":0.13043475000000626},{"name":"D6","midi":86,"time":81.91302300000021,"velocity":0.3937007874015748,"duration":0.13043475000000626},{"name":"D6","midi":86,"time":82.30432725000021,"velocity":0.3937007874015748,"duration":0.2608694999999983},{"name":"A5","midi":81,"time":82.30432725000021,"velocity":0.3937007874015748,"duration":0.2608694999999983},{"name":"E6","midi":88,"time":82.56519675000021,"velocity":0.3937007874015748,"duration":0.13043475000000626},{"name":"F6","midi":89,"time":82.69563150000022,"velocity":0.3937007874015748,"duration":0.13043475000000626},{"name":"C6","midi":84,"time":82.82606625000022,"velocity":0.3937007874015748,"duration":0.13043475000000626},{"name":"A6","midi":93,"time":82.95650100000023,"velocity":0.3937007874015748,"duration":0.5217389999999966},{"name":"C#6","midi":85,"time":83.47824000000023,"velocity":0.3937007874015748,"duration":0.13043475000000626},{"name":"E5","midi":76,"time":83.47824000000023,"velocity":0.3937007874015748,"duration":0.13043475000000626},{"name":"G6","midi":91,"time":83.86954425000023,"velocity":0.3937007874015748,"duration":0.39130425000000457},{"name":"F6","midi":89,"time":84.26084850000024,"velocity":0.3937007874015748,"duration":0.2608694999999983},{"name":"D6","midi":86,"time":84.52171800000023,"velocity":0.3937007874015748,"duration":0.06521737500000313},{"name":"E5","midi":76,"time":84.52171800000023,"velocity":0.3937007874015748,"duration":0.13043475000000626},{"name":"E6","midi":88,"time":84.58693537500024,"velocity":0.3937007874015748,"duration":0.06521737500000313},{"name":"D6","midi":86,"time":84.65215275000024,"velocity":0.3937007874015748,"duration":0.2608694999999983},{"name":"C6","midi":84,"time":84.91302225000024,"velocity":0.3937007874015748,"duration":0.39130425000000457},{"name":"E6","midi":88,"time":85.30432650000024,"velocity":0.3937007874015748,"duration":0.2608694999999983},{"name":"A#5","midi":82,"time":85.56519600000024,"velocity":0.3937007874015748,"duration":0.13043475000000626},{"name":"D6","midi":86,"time":85.56519600000024,"velocity":0.3937007874015748,"duration":0.13043475000000626},{"name":"F6","midi":89,"time":85.69563075000025,"velocity":0.3937007874015748,"duration":0.13043475000000626},{"name":"E6","midi":88,"time":85.82606550000025,"velocity":0.3937007874015748,"duration":0.13043475000000626},{"name":"F6","midi":89,"time":85.95650025000026,"velocity":0.3937007874015748,"duration":0.13043475000000626},{"name":"D6","midi":86,"time":86.08693500000027,"velocity":0.3937007874015748,"duration":0.13043475000000626},{"name":"D6","midi":86,"time":86.47823925000027,"velocity":0.3937007874015748,"duration":0.2608694999999983},{"name":"A#5","midi":82,"time":86.47823925000027,"velocity":0.3937007874015748,"duration":0.2608694999999983},{"name":"E6","midi":88,"time":86.73910875000027,"velocity":0.3937007874015748,"duration":0.13043475000000626},{"name":"F6","midi":89,"time":86.86954350000028,"velocity":0.3937007874015748,"duration":0.13043475000000626},{"name":"C6","midi":84,"time":86.99997825000028,"velocity":0.3937007874015748,"duration":0.13043475000000626},{"name":"A6","midi":93,"time":87.13041300000029,"velocity":0.3937007874015748,"duration":0.5217389999999966},{"name":"C6","midi":84,"time":87.65215200000029,"velocity":0.3937007874015748,"duration":0.13043475000000626},{"name":"D6","midi":86,"time":87.65215200000029,"velocity":0.3937007874015748,"duration":0.13043475000000626},{"name":"F6","midi":89,"time":87.78258675000029,"velocity":0.3937007874015748,"duration":0.13043475000000626},{"name":"E6","midi":88,"time":87.9130215000003,"velocity":0.3937007874015748,"duration":0.13043475000000626},{"name":"F6","midi":89,"time":88.0434562500003,"velocity":0.3937007874015748,"duration":0.13043475000000626},{"name":"D6","midi":86,"time":88.17389100000031,"velocity":0.3937007874015748,"duration":0.13043475000000626},{"name":"D6","midi":86,"time":88.56519525000031,"velocity":0.3937007874015748,"duration":0.2608694999999983},{"name":"C6","midi":84,"time":88.56519525000031,"velocity":0.3937007874015748,"duration":0.2608694999999983},{"name":"E6","midi":88,"time":88.82606475000031,"velocity":0.3937007874015748,"duration":0.13043475000000626},{"name":"F6","midi":89,"time":88.95649950000032,"velocity":0.3937007874015748,"duration":0.13043475000000626},{"name":"C6","midi":84,"time":89.08693425000033,"velocity":0.3937007874015748,"duration":0.13043475000000626},{"name":"A6","midi":93,"time":89.21736900000033,"velocity":0.3937007874015748,"duration":0.5217389999999966},{"name":"A5","midi":81,"time":89.73910800000033,"velocity":0.3937007874015748,"duration":0.13043475000000626},{"name":"D6","midi":86,"time":89.73910800000033,"velocity":0.3937007874015748,"duration":0.13043475000000626},{"name":"F6","midi":89,"time":89.86954275000033,"velocity":0.3937007874015748,"duration":0.13043475000000626},{"name":"E6","midi":88,"time":89.99997750000034,"velocity":0.3937007874015748,"duration":0.13043475000000626},{"name":"F6","midi":89,"time":90.13041225000035,"velocity":0.3937007874015748,"duration":0.13043475000000626},{"name":"D6","midi":86,"time":90.26084700000035,"velocity":0.3937007874015748,"duration":0.13043475000000626},{"name":"D6","midi":86,"time":90.65215125000036,"velocity":0.3937007874015748,"duration":0.2608694999999983},{"name":"A5","midi":81,"time":90.65215125000036,"velocity":0.3937007874015748,"duration":0.2608694999999983},{"name":"E6","midi":88,"time":90.91302075000036,"velocity":0.3937007874015748,"duration":0.13043475000000626},{"name":"F6","midi":89,"time":91.04345550000036,"velocity":0.3937007874015748,"duration":0.13043475000000626},{"name":"C6","midi":84,"time":91.17389025000037,"velocity":0.3937007874015748,"duration":0.13043475000000626},{"name":"A6","midi":93,"time":91.30432500000038,"velocity":0.3937007874015748,"duration":0.5217389999999966},{"name":"C6","midi":84,"time":91.82606400000037,"velocity":0.3937007874015748,"duration":0.13043475000000626},{"name":"E5","midi":76,"time":91.82606400000037,"velocity":0.3937007874015748,"duration":0.13043475000000626},{"name":"G6","midi":91,"time":92.21736825000038,"velocity":0.3937007874015748,"duration":0.39130425000000457},{"name":"F6","midi":89,"time":92.60867250000038,"velocity":0.3937007874015748,"duration":0.2608694999999983},{"name":"E6","midi":88,"time":92.86954200000038,"velocity":0.3937007874015748,"duration":0.06521737500000313},{"name":"E5","midi":76,"time":92.86954200000038,"velocity":0.3937007874015748,"duration":0.13043475000000626},{"name":"E6","midi":88,"time":92.93475937500038,"velocity":0.3937007874015748,"duration":0.06521737500000313},{"name":"D6","midi":86,"time":92.99997675000039,"velocity":0.3937007874015748,"duration":0.2608694999999983},{"name":"C6","midi":84,"time":93.26084625000038,"velocity":0.3937007874015748,"duration":0.39130425000000457},{"name":"E6","midi":88,"time":93.65215050000039,"velocity":0.3937007874015748,"duration":0.2608694999999983},{"name":"A#5","midi":82,"time":93.91302000000039,"velocity":0.3937007874015748,"duration":0.13043475000000626},{"name":"D6","midi":86,"time":93.91302000000039,"velocity":0.3937007874015748,"duration":0.13043475000000626},{"name":"F6","midi":89,"time":94.0434547500004,"velocity":0.3937007874015748,"duration":0.13043475000000626},{"name":"E6","midi":88,"time":94.1738895000004,"velocity":0.3937007874015748,"duration":0.13043475000000626},{"name":"F6","midi":89,"time":94.3043242500004,"velocity":0.3937007874015748,"duration":0.13043475000000626},{"name":"D6","midi":86,"time":94.43475900000041,"velocity":0.3937007874015748,"duration":0.13043475000000626},{"name":"D6","midi":86,"time":94.82606325000042,"velocity":0.3937007874015748,"duration":0.2608694999999983},{"name":"A#5","midi":82,"time":94.82606325000042,"velocity":0.3937007874015748,"duration":0.2608694999999983},{"name":"E6","midi":88,"time":95.08693275000041,"velocity":0.3937007874015748,"duration":0.13043475000000626},{"name":"F6","midi":89,"time":95.21736750000042,"velocity":0.3937007874015748,"duration":0.13043475000000626},{"name":"C6","midi":84,"time":95.34780225000043,"velocity":0.3937007874015748,"duration":0.13043475000000626},{"name":"A6","midi":93,"time":95.47823700000043,"velocity":0.3937007874015748,"duration":0.5217389999999966},{"name":"D6","midi":86,"time":95.99997600000043,"velocity":0.3937007874015748,"duration":0.13043475000000626},{"name":"C6","midi":84,"time":95.99997600000043,"velocity":0.3937007874015748,"duration":0.13043475000000626},{"name":"F6","midi":89,"time":96.13041075000044,"velocity":0.3937007874015748,"duration":0.13043475000000626},{"name":"E6","midi":88,"time":96.26084550000044,"velocity":0.3937007874015748,"duration":0.13043475000000626},{"name":"F6","midi":89,"time":96.39128025000045,"velocity":0.3937007874015748,"duration":0.13043475000000626},{"name":"D6","midi":86,"time":96.52171500000046,"velocity":0.3937007874015748,"duration":0.13043475000000626},{"name":"D6","midi":86,"time":96.91301925000046,"velocity":0.3937007874015748,"duration":0.2608694999999983},{"name":"C6","midi":84,"time":96.91301925000046,"velocity":0.3937007874015748,"duration":0.2608694999999983},{"name":"E6","midi":88,"time":97.17388875000046,"velocity":0.3937007874015748,"duration":0.13043475000000626},{"name":"F6","midi":89,"time":97.30432350000046,"velocity":0.3937007874015748,"duration":0.13043475000000626},{"name":"C6","midi":84,"time":97.43475825000047,"velocity":0.3937007874015748,"duration":0.13043475000000626},{"name":"A6","midi":93,"time":97.56519300000048,"velocity":0.3937007874015748,"duration":0.5217389999999966},{"name":"A5","midi":81,"time":98.08693200000047,"velocity":0.3937007874015748,"duration":0.13043475000000626},{"name":"D6","midi":86,"time":98.08693200000047,"velocity":0.3937007874015748,"duration":0.13043475000000626},{"name":"F6","midi":89,"time":98.21736675000048,"velocity":0.3937007874015748,"duration":0.13043475000000626},{"name":"E6","midi":88,"time":98.34780150000049,"velocity":0.3937007874015748,"duration":0.13043475000000626},{"name":"F6","midi":89,"time":98.47823625000049,"velocity":0.3937007874015748,"duration":0.13043475000000626},{"name":"D6","midi":86,"time":98.6086710000005,"velocity":0.3937007874015748,"duration":0.13043475000000626},{"name":"D6","midi":86,"time":98.9999752500005,"velocity":0.3937007874015748,"duration":0.2608694999999983},{"name":"A5","midi":81,"time":98.9999752500005,"velocity":0.3937007874015748,"duration":0.2608694999999983},{"name":"E6","midi":88,"time":99.2608447500005,"velocity":0.3937007874015748,"duration":0.13043475000000626},{"name":"F6","midi":89,"time":99.39127950000051,"velocity":0.3937007874015748,"duration":0.13043475000000626},{"name":"C6","midi":84,"time":99.52171425000051,"velocity":0.3937007874015748,"duration":0.13043475000000626},{"name":"A6","midi":93,"time":99.65214900000052,"velocity":0.3937007874015748,"duration":0.5217389999999966},{"name":"C#6","midi":85,"time":100.17388800000052,"velocity":0.3937007874015748,"duration":0.13043475000000626},{"name":"E5","midi":76,"time":100.17388800000052,"velocity":0.3937007874015748,"duration":0.13043475000000626},{"name":"G6","midi":91,"time":100.56519225000052,"velocity":0.3937007874015748,"duration":0.39130425000000457},{"name":"F6","midi":89,"time":100.95649650000053,"velocity":0.3937007874015748,"duration":0.2608694999999983},{"name":"D6","midi":86,"time":101.21736600000052,"velocity":0.3937007874015748,"duration":0.06521737500000313},{"name":"E5","midi":76,"time":101.21736600000052,"velocity":0.3937007874015748,"duration":0.13043475000000626},{"name":"E6","midi":88,"time":101.28258337500053,"velocity":0.3937007874015748,"duration":0.06521737500000313},{"name":"D6","midi":86,"time":101.34780075000053,"velocity":0.3937007874015748,"duration":0.2608694999999983},{"name":"C6","midi":84,"time":101.60867025000053,"velocity":0.3937007874015748,"duration":0.39130425000000457},{"name":"E6","midi":88,"time":101.99997450000053,"velocity":0.3937007874015748,"duration":0.2608694999999983},{"name":"F5","midi":77,"time":102.26084400000053,"velocity":0.3937007874015748,"duration":1.565217000000004},{"name":"A5","midi":81,"time":102.32606137500053,"velocity":0.3937007874015748,"duration":1.499999625000001},{"name":"D6","midi":86,"time":102.39127875000054,"velocity":0.3937007874015748,"duration":1.4347822499999978},{"name":"A5","midi":81,"time":103.82606100000054,"velocity":0.3937007874015748,"duration":0.2608694999999983},{"name":"C6","midi":84,"time":104.08693050000053,"velocity":0.3937007874015748,"duration":0.2608694999999983},{"name":"G5","midi":79,"time":104.34780000000053,"velocity":0.3937007874015748,"duration":0.7826085000000091},{"name":"C6","midi":84,"time":104.41301737500054,"velocity":0.3937007874015748,"duration":0.717391125000006},{"name":"D6","midi":86,"time":104.47823475000054,"velocity":0.3937007874015748,"duration":0.6521737500000029},{"name":"F6","midi":89,"time":105.13040850000054,"velocity":0.3937007874015748,"duration":0.2608694999999983},{"name":"G6","midi":91,"time":105.39127800000054,"velocity":0.3937007874015748,"duration":0.13043475000000626},{"name":"F6","midi":89,"time":105.52171275000055,"velocity":0.3937007874015748,"duration":0.2608694999999983},{"name":"E6","midi":88,"time":105.78258225000054,"velocity":0.3937007874015748,"duration":0.39130425000000457},{"name":"F6","midi":89,"time":106.17388650000055,"velocity":0.3937007874015748,"duration":0.2608694999999983},{"name":"F5","midi":77,"time":106.43475600000055,"velocity":0.3937007874015748,"duration":1.0434780000000075},{"name":"A5","midi":81,"time":106.49997337500055,"velocity":0.3937007874015748,"duration":0.9782606250000043},{"name":"D6","midi":86,"time":106.56519075000055,"velocity":0.3937007874015748,"duration":0.9130432500000012},{"name":"A5","midi":81,"time":107.47823400000055,"velocity":0.3937007874015748,"duration":0.2608694999999983},{"name":"A5","midi":81,"time":107.73910350000055,"velocity":0.3937007874015748,"duration":0.13043475000000626},{"name":"C6","midi":84,"time":107.86953825000056,"velocity":0.3937007874015748,"duration":0.2608694999999983},{"name":"C6","midi":84,"time":108.13040775000056,"velocity":0.3937007874015748,"duration":0.13043475000000626},{"name":"F6","midi":89,"time":108.26084250000056,"velocity":0.3937007874015748,"duration":0.2608694999999983},{"name":"G5","midi":79,"time":108.52171200000056,"velocity":0.3937007874015748,"duration":1.0434780000000075},{"name":"C6","midi":84,"time":108.58692937500057,"velocity":0.3937007874015748,"duration":0.9782606250000043},{"name":"E6","midi":88,"time":108.65214675000057,"velocity":0.3937007874015748,"duration":0.9130432500000012},{"name":"A5","midi":81,"time":109.56519000000057,"velocity":0.3937007874015748,"duration":0.39130425000000457},{"name":"D6","midi":86,"time":109.56519000000057,"velocity":0.3937007874015748,"duration":0.39130425000000457},{"name":"F5","midi":77,"time":109.56519000000057,"velocity":0.3937007874015748,"duration":0.39130425000000457},{"name":"A5","midi":81,"time":109.95649425000057,"velocity":0.3937007874015748,"duration":0.39130425000000457},{"name":"C6","midi":84,"time":109.95649425000057,"velocity":0.3937007874015748,"duration":0.39130425000000457},{"name":"F6","midi":89,"time":109.95649425000057,"velocity":0.3937007874015748,"duration":0.39130425000000457},{"name":"A#5","midi":82,"time":110.34779850000058,"velocity":0.3937007874015748,"duration":0.2608694999999983},{"name":"D6","midi":86,"time":110.34779850000058,"velocity":0.3937007874015748,"duration":0.2608694999999983},{"name":"G6","midi":91,"time":110.34779850000058,"velocity":0.3937007874015748,"duration":0.2608694999999983},{"name":"A#5","midi":82,"time":110.60866800000058,"velocity":0.3937007874015748,"duration":1.565217000000004},{"name":"D6","midi":86,"time":110.60866800000058,"velocity":0.3937007874015748,"duration":1.565217000000004},{"name":"A6","midi":93,"time":110.60866800000058,"velocity":0.3937007874015748,"duration":1.565217000000004},{"name":"C6","midi":84,"time":112.17388500000058,"velocity":0.3937007874015748,"duration":0.2608694999999983},{"name":"F6","midi":89,"time":112.17388500000058,"velocity":0.3937007874015748,"duration":0.2608694999999983},{"name":"C6","midi":84,"time":112.43475450000058,"velocity":0.3937007874015748,"duration":0.2608694999999983},{"name":"G6","midi":91,"time":112.43475450000058,"velocity":0.3937007874015748,"duration":0.2608694999999983},{"name":"C6","midi":84,"time":112.69562400000058,"velocity":0.3937007874015748,"duration":0.7826084999999949},{"name":"E6","midi":88,"time":112.69562400000058,"velocity":0.3937007874015748,"duration":0.7826084999999949},{"name":"A6","midi":93,"time":112.69562400000058,"velocity":0.3937007874015748,"duration":0.7826084999999949},{"name":"G6","midi":91,"time":113.47823250000057,"velocity":0.3937007874015748,"duration":0.2608694999999983},{"name":"F6","midi":89,"time":113.73910200000057,"velocity":0.3937007874015748,"duration":0.2608694999999983},{"name":"C6","midi":84,"time":113.73910200000057,"velocity":0.3937007874015748,"duration":0.2608694999999983},{"name":"G6","midi":91,"time":113.99997150000057,"velocity":0.3937007874015748,"duration":0.13043475000000626},{"name":"C6","midi":84,"time":114.13040625000058,"velocity":0.3937007874015748,"duration":0.39130425000000457},{"name":"E6","midi":88,"time":114.13040625000058,"velocity":0.3937007874015748,"duration":0.39130425000000457},{"name":"C6","midi":84,"time":114.52171050000058,"velocity":0.3937007874015748,"duration":0.2608694999999983},{"name":"A5","midi":81,"time":114.78258000000058,"velocity":0.3937007874015748,"duration":1.565217000000004},{"name":"F5","midi":77,"time":114.78258000000058,"velocity":0.3937007874015748,"duration":1.565217000000004},{"name":"D6","midi":86,"time":114.78258000000058,"velocity":0.3937007874015748,"duration":1.565217000000004},{"name":"A#5","midi":82,"time":116.34779700000058,"velocity":0.3937007874015748,"duration":0.2608694999999983},{"name":"F6","midi":89,"time":116.34779700000058,"velocity":0.3937007874015748,"duration":0.2608694999999983},{"name":"A#5","midi":82,"time":116.60866650000058,"velocity":0.3937007874015748,"duration":0.2608694999999983},{"name":"G6","midi":91,"time":116.60866650000058,"velocity":0.3937007874015748,"duration":0.2608694999999983},{"name":"C6","midi":84,"time":116.86953600000058,"velocity":0.3937007874015748,"duration":0.7826084999999949},{"name":"E6","midi":88,"time":116.86953600000058,"velocity":0.3937007874015748,"duration":0.7826084999999949},{"name":"A6","midi":93,"time":116.86953600000058,"velocity":0.3937007874015748,"duration":0.7826084999999949},{"name":"G6","midi":91,"time":117.65214450000057,"velocity":0.3937007874015748,"duration":0.2608694999999983},{"name":"F6","midi":89,"time":117.91301400000057,"velocity":0.3937007874015748,"duration":0.2608694999999983},{"name":"D6","midi":86,"time":117.91301400000057,"velocity":0.3937007874015748,"duration":0.2608694999999983},{"name":"G6","midi":91,"time":118.17388350000057,"velocity":0.3937007874015748,"duration":0.13043475000000626},{"name":"D6","midi":86,"time":118.30431825000058,"velocity":0.3937007874015748,"duration":0.39130425000000457},{"name":"E6","midi":88,"time":118.30431825000058,"velocity":0.3937007874015748,"duration":0.39130425000000457},{"name":"C6","midi":84,"time":118.69562250000058,"velocity":0.3937007874015748,"duration":0.2608694999999983},{"name":"A#5","midi":82,"time":118.95649200000058,"velocity":0.3937007874015748,"duration":1.565217000000004},{"name":"D6","midi":86,"time":118.95649200000058,"velocity":0.3937007874015748,"duration":1.565217000000004},{"name":"A6","midi":93,"time":118.95649200000058,"velocity":0.3937007874015748,"duration":1.565217000000004},{"name":"A#5","midi":82,"time":120.52170900000058,"velocity":0.3937007874015748,"duration":0.2608694999999983},{"name":"F6","midi":89,"time":120.52170900000058,"velocity":0.3937007874015748,"duration":0.2608694999999983},{"name":"A#5","midi":82,"time":120.78257850000058,"velocity":0.3937007874015748,"duration":0.2608694999999983},{"name":"G6","midi":91,"time":120.78257850000058,"velocity":0.3937007874015748,"duration":0.2608694999999983},{"name":"C6","midi":84,"time":121.04344800000058,"velocity":0.3937007874015748,"duration":0.7826084999999949},{"name":"E6","midi":88,"time":121.04344800000058,"velocity":0.3937007874015748,"duration":0.7826084999999949},{"name":"A6","midi":93,"time":121.04344800000058,"velocity":0.3937007874015748,"duration":0.7826084999999949},{"name":"G6","midi":91,"time":121.82605650000058,"velocity":0.3937007874015748,"duration":0.2608694999999983},{"name":"F6","midi":89,"time":122.08692600000057,"velocity":0.3937007874015748,"duration":0.2608694999999983},{"name":"D6","midi":86,"time":122.08692600000057,"velocity":0.3937007874015748,"duration":0.2608694999999983},{"name":"G6","midi":91,"time":122.34779550000057,"velocity":0.3937007874015748,"duration":0.13043475000000626},{"name":"D6","midi":86,"time":122.47823025000058,"velocity":0.3937007874015748,"duration":0.39130425000000457},{"name":"E6","midi":88,"time":122.47823025000058,"velocity":0.3937007874015748,"duration":0.39130425000000457},{"name":"C6","midi":84,"time":122.86953450000058,"velocity":0.3937007874015748,"duration":0.2608694999999983},{"name":"F5","midi":77,"time":123.13040400000058,"velocity":0.3937007874015748,"duration":2.0869560000000007},{"name":"A5","midi":81,"time":123.13040400000058,"velocity":0.3937007874015748,"duration":2.0869560000000007},{"name":"D6","midi":86,"time":123.13040400000058,"velocity":0.3937007874015748,"duration":2.0869560000000007},{"name":"A5","midi":81,"time":135.65214000000057,"velocity":0.3937007874015748,"duration":0.13043475000000626},{"name":"F6","midi":89,"time":135.65214000000057,"velocity":0.3937007874015748,"duration":0.13043475000000626},{"name":"G5","midi":79,"time":135.78257475000058,"velocity":0.3937007874015748,"duration":0.13043475000000626},{"name":"E6","midi":88,"time":135.78257475000058,"velocity":0.3937007874015748,"duration":0.13043475000000626},{"name":"F5","midi":77,"time":135.91300950000058,"velocity":0.3937007874015748,"duration":0.13043475000000626},{"name":"F5","midi":77,"time":135.91300950000058,"velocity":0.3937007874015748,"duration":0.13043475000000626},{"name":"D6","midi":86,"time":135.91300950000058,"velocity":0.3937007874015748,"duration":0.13043475000000626},{"name":"E5","midi":76,"time":136.0434442500006,"velocity":0.3937007874015748,"duration":0.13043475000000626},{"name":"C6","midi":84,"time":136.0434442500006,"velocity":0.3937007874015748,"duration":0.13043475000000626},{"name":"E5","midi":76,"time":136.1738790000006,"velocity":0.3937007874015748,"duration":0.2608695000000125},{"name":"D6","midi":86,"time":136.1738790000006,"velocity":0.3937007874015748,"duration":0.2608695000000125},{"name":"A5","midi":81,"time":136.4347485000006,"velocity":0.3937007874015748,"duration":0.2608695000000125},{"name":"F5","midi":77,"time":136.4347485000006,"velocity":0.3937007874015748,"duration":0.2608695000000125},{"name":"B5","midi":83,"time":136.69561800000062,"velocity":0.3937007874015748,"duration":0.39130424999999036},{"name":"G5","midi":79,"time":136.69561800000062,"velocity":0.3937007874015748,"duration":0.39130424999999036},{"name":"G5","midi":79,"time":137.0869222500006,"velocity":0.3937007874015748,"duration":0.39130424999999036},{"name":"D5","midi":74,"time":137.0869222500006,"velocity":0.3937007874015748,"duration":0.39130424999999036},{"name":"D5","midi":74,"time":137.4782265000006,"velocity":0.3937007874015748,"duration":0.13043475000000626},{"name":"E5","midi":76,"time":137.6086612500006,"velocity":0.3937007874015748,"duration":0.13043475000000626},{"name":"F5","midi":77,"time":137.73909600000061,"velocity":0.3937007874015748,"duration":0.39130424999999036},{"name":"D5","midi":74,"time":137.73909600000061,"velocity":0.3937007874015748,"duration":0.39130424999999036},{"name":"G5","midi":79,"time":138.1304002500006,"velocity":0.3937007874015748,"duration":0.2608695000000125},{"name":"C5","midi":72,"time":138.1304002500006,"velocity":0.3937007874015748,"duration":0.2608695000000125},{"name":"D5","midi":74,"time":138.39126975000062,"velocity":0.3937007874015748,"duration":0.13043475000000626},{"name":"C5","midi":72,"time":138.52170450000062,"velocity":0.3937007874015748,"duration":0.2608695000000125},{"name":"E5","midi":76,"time":138.52170450000062,"velocity":0.3937007874015748,"duration":0.2608695000000125},{"name":"A5","midi":81,"time":138.78257400000064,"velocity":0.3937007874015748,"duration":1.0434779999999932},{"name":"F5","midi":77,"time":138.78257400000064,"velocity":0.3937007874015748,"duration":1.0434779999999932},{"name":"D5","midi":74,"time":138.78257400000064,"velocity":0.3937007874015748,"duration":1.0434779999999932},{"name":"A5","midi":81,"time":139.82605200000063,"velocity":0.3937007874015748,"duration":0.13043475000000626},{"name":"F6","midi":89,"time":139.82605200000063,"velocity":0.3937007874015748,"duration":0.13043475000000626},{"name":"G5","midi":79,"time":139.95648675000064,"velocity":0.3937007874015748,"duration":0.13043475000000626},{"name":"E6","midi":88,"time":139.95648675000064,"velocity":0.3937007874015748,"duration":0.13043475000000626},{"name":"F5","midi":77,"time":140.08692150000064,"velocity":0.3937007874015748,"duration":0.13043475000000626},{"name":"F5","midi":77,"time":140.08692150000064,"velocity":0.3937007874015748,"duration":0.13043475000000626},{"name":"D6","midi":86,"time":140.08692150000064,"velocity":0.3937007874015748,"duration":0.13043475000000626},{"name":"E5","midi":76,"time":140.21735625000065,"velocity":0.3937007874015748,"duration":0.13043475000000626},{"name":"C6","midi":84,"time":140.21735625000065,"velocity":0.3937007874015748,"duration":0.13043475000000626},{"name":"E5","midi":76,"time":140.34779100000065,"velocity":0.3937007874015748,"duration":0.2608695000000125},{"name":"D6","midi":86,"time":140.34779100000065,"velocity":0.3937007874015748,"duration":0.2608695000000125},{"name":"A5","midi":81,"time":140.60866050000067,"velocity":0.3937007874015748,"duration":0.2608695000000125},{"name":"F5","midi":77,"time":140.60866050000067,"velocity":0.3937007874015748,"duration":0.2608695000000125},{"name":"B5","midi":83,"time":140.86953000000068,"velocity":0.3937007874015748,"duration":0.39130424999999036},{"name":"G5","midi":79,"time":140.86953000000068,"velocity":0.3937007874015748,"duration":0.39130424999999036},{"name":"G5","midi":79,"time":141.26083425000067,"velocity":0.3937007874015748,"duration":0.39130424999999036},{"name":"D5","midi":74,"time":141.26083425000067,"velocity":0.3937007874015748,"duration":0.39130424999999036},{"name":"D5","midi":74,"time":141.65213850000066,"velocity":0.3937007874015748,"duration":0.13043475000000626},{"name":"E5","midi":76,"time":141.78257325000067,"velocity":0.3937007874015748,"duration":0.13043475000000626},{"name":"F5","midi":77,"time":141.91300800000067,"velocity":0.3937007874015748,"duration":0.39130424999999036},{"name":"A#4","midi":70,"time":141.91300800000067,"velocity":0.3937007874015748,"duration":0.39130424999999036},{"name":"E5","midi":76,"time":142.30431225000066,"velocity":0.3937007874015748,"duration":0.2608695000000125},{"name":"A4","midi":69,"time":142.30431225000066,"velocity":0.3937007874015748,"duration":0.2608695000000125},{"name":"C5","midi":72,"time":142.56518175000068,"velocity":0.3937007874015748,"duration":0.13043475000000626},{"name":"E5","midi":76,"time":142.69561650000068,"velocity":0.3937007874015748,"duration":0.2608695000000125},{"name":"A4","midi":69,"time":142.69561650000068,"velocity":0.3937007874015748,"duration":0.2608695000000125},{"name":"D5","midi":74,"time":142.9564860000007,"velocity":0.3937007874015748,"duration":1.0434779999999932},{"name":"A4","midi":69,"time":142.9564860000007,"velocity":0.3937007874015748,"duration":1.0434779999999932},{"name":"F4","midi":65,"time":142.9564860000007,"velocity":0.3937007874015748,"duration":1.0434779999999932},{"name":"G6","midi":91,"time":143.9999640000007,"velocity":0.3937007874015748,"duration":0.13043475000000626},{"name":"D#6","midi":87,"time":143.9999640000007,"velocity":0.3937007874015748,"duration":0.13043475000000626},{"name":"F6","midi":89,"time":144.1303987500007,"velocity":0.3937007874015748,"duration":0.13043475000000626},{"name":"D#6","midi":87,"time":144.2608335000007,"velocity":0.3937007874015748,"duration":0.13043475000000626},{"name":"D6","midi":86,"time":144.3912682500007,"velocity":0.3937007874015748,"duration":0.13043475000000626},{"name":"C6","midi":84,"time":144.5217030000007,"velocity":0.3937007874015748,"duration":0.13043475000000626},{"name":"D#6","midi":87,"time":144.5217030000007,"velocity":0.3937007874015748,"duration":0.13043475000000626},{"name":"D6","midi":86,"time":144.65213775000072,"velocity":0.3937007874015748,"duration":0.13043475000000626},{"name":"C6","midi":84,"time":144.78257250000073,"velocity":0.3937007874015748,"duration":0.13043475000000626},{"name":"D#6","midi":87,"time":144.91300725000073,"velocity":0.3937007874015748,"duration":0.13043475000000626},{"name":"A5","midi":81,"time":145.04344200000074,"velocity":0.3937007874015748,"duration":0.39130424999999036},{"name":"D6","midi":86,"time":145.04344200000074,"velocity":0.3937007874015748,"duration":0.39130424999999036},{"name":"A5","midi":81,"time":145.43474625000073,"velocity":0.3937007874015748,"duration":0.39130424999999036},{"name":"A5","midi":81,"time":145.82605050000072,"velocity":0.3937007874015748,"duration":0.13043475000000626},{"name":"D6","midi":86,"time":145.95648525000072,"velocity":0.3937007874015748,"duration":0.13043475000000626},{"name":"G6","midi":91,"time":146.08692000000073,"velocity":0.3937007874015748,"duration":0.13043475000000626},{"name":"D#6","midi":87,"time":146.08692000000073,"velocity":0.3937007874015748,"duration":0.13043475000000626},{"name":"F6","midi":89,"time":146.21735475000074,"velocity":0.3937007874015748,"duration":0.13043475000000626},{"name":"D#6","midi":87,"time":146.34778950000074,"velocity":0.3937007874015748,"duration":0.13043475000000626},{"name":"D6","midi":86,"time":146.47822425000075,"velocity":0.3937007874015748,"duration":0.13043475000000626},{"name":"C6","midi":84,"time":146.60865900000076,"velocity":0.3937007874015748,"duration":0.13043475000000626},{"name":"D#6","midi":87,"time":146.60865900000076,"velocity":0.3937007874015748,"duration":0.13043475000000626},{"name":"A#6","midi":94,"time":146.73909375000076,"velocity":0.3937007874015748,"duration":0.13043475000000626},{"name":"A6","midi":93,"time":146.86952850000077,"velocity":0.3937007874015748,"duration":0.13043475000000626},{"name":"G6","midi":91,"time":146.99996325000077,"velocity":0.3937007874015748,"duration":0.13043475000000626},{"name":"F6","midi":89,"time":147.13039800000078,"velocity":0.3937007874015748,"duration":0.2608695000000125},{"name":"D6","midi":86,"time":147.13039800000078,"velocity":0.3937007874015748,"duration":0.2608695000000125},{"name":"E6","midi":88,"time":147.3912675000008,"velocity":0.3937007874015748,"duration":0.2608695000000125},{"name":"G6","midi":91,"time":147.3912675000008,"velocity":0.3937007874015748,"duration":0.2608695000000125},{"name":"F6","midi":89,"time":147.6521370000008,"velocity":0.3937007874015748,"duration":0.39130424999999036},{"name":"A6","midi":93,"time":147.6521370000008,"velocity":0.3937007874015748,"duration":0.39130424999999036},{"name":"B6","midi":95,"time":148.0434412500008,"velocity":0.3937007874015748,"duration":0.13043475000000626},{"name":"A6","midi":93,"time":148.1738760000008,"velocity":0.3937007874015748,"duration":0.13043475000000626},{"name":"C6","midi":84,"time":148.1738760000008,"velocity":0.3937007874015748,"duration":0.13043475000000626},{"name":"B6","midi":95,"time":148.3043107500008,"velocity":0.3937007874015748,"duration":0.13043475000000626},{"name":"A6","midi":93,"time":148.43474550000082,"velocity":0.3937007874015748,"duration":0.13043475000000626},{"name":"G6","midi":91,"time":148.56518025000082,"velocity":0.3937007874015748,"duration":0.13043475000000626},{"name":"F6","midi":89,"time":148.69561500000083,"velocity":0.3937007874015748,"duration":0.13043475000000626},{"name":"A6","midi":93,"time":148.69561500000083,"velocity":0.3937007874015748,"duration":0.13043475000000626},{"name":"G6","midi":91,"time":148.82604975000083,"velocity":0.3937007874015748,"duration":0.13043475000000626},{"name":"A6","midi":93,"time":148.95648450000084,"velocity":0.3937007874015748,"duration":0.13043475000000626},{"name":"B6","midi":95,"time":149.08691925000085,"velocity":0.3937007874015748,"duration":0.13043475000000626},{"name":"A6","midi":93,"time":149.21735400000085,"velocity":0.3937007874015748,"duration":0.39130424999999036},{"name":"F6","midi":89,"time":149.21735400000085,"velocity":0.3937007874015748,"duration":0.39130424999999036},{"name":"D6","midi":86,"time":149.60865825000084,"velocity":0.3937007874015748,"duration":0.39130424999999036},{"name":"A5","midi":81,"time":149.60865825000084,"velocity":0.3937007874015748,"duration":0.39130424999999036},{"name":"D6","midi":86,"time":149.99996250000083,"velocity":0.3937007874015748,"duration":0.13043475000000626},{"name":"E6","midi":88,"time":150.13039725000084,"velocity":0.3937007874015748,"duration":0.13043475000000626},{"name":"F6","midi":89,"time":150.26083200000085,"velocity":0.3937007874015748,"duration":0.39130424999999036},{"name":"D6","midi":86,"time":150.26083200000085,"velocity":0.3937007874015748,"duration":0.39130424999999036},{"name":"E6","midi":88,"time":150.65213625000084,"velocity":0.3937007874015748,"duration":0.39130424999999036},{"name":"G6","midi":91,"time":150.65213625000084,"velocity":0.3937007874015748,"duration":0.39130424999999036},{"name":"G6","midi":91,"time":151.04344050000083,"velocity":0.3937007874015748,"duration":0.2608695000000125},{"name":"A#6","midi":94,"time":151.04344050000083,"velocity":0.3937007874015748,"duration":0.2608695000000125},{"name":"A6","midi":93,"time":151.30431000000084,"velocity":0.3937007874015748,"duration":0.2608695000000125},{"name":"F6","midi":89,"time":151.30431000000084,"velocity":0.3937007874015748,"duration":0.2608695000000125},{"name":"E6","midi":88,"time":151.56517950000085,"velocity":0.3937007874015748,"duration":0.2608695000000125},{"name":"C#6","midi":85,"time":151.82604900000086,"velocity":0.3937007874015748,"duration":0.2608695000000125},{"name":"A5","midi":81,"time":152.08691850000088,"velocity":0.3937007874015748,"duration":0.2608695000000125},{"name":"G6","midi":91,"time":152.3477880000009,"velocity":0.3937007874015748,"duration":0.13043475000000626},{"name":"D#6","midi":87,"time":152.3477880000009,"velocity":0.3937007874015748,"duration":0.13043475000000626},{"name":"F6","midi":89,"time":152.4782227500009,"velocity":0.3937007874015748,"duration":0.13043475000000626},{"name":"D#6","midi":87,"time":152.6086575000009,"velocity":0.3937007874015748,"duration":0.13043475000000626},{"name":"D6","midi":86,"time":152.7390922500009,"velocity":0.3937007874015748,"duration":0.13043475000000626},{"name":"C6","midi":84,"time":152.86952700000091,"velocity":0.3937007874015748,"duration":0.13043475000000626},{"name":"D#6","midi":87,"time":152.86952700000091,"velocity":0.3937007874015748,"duration":0.13043475000000626},{"name":"D6","midi":86,"time":152.99996175000092,"velocity":0.3937007874015748,"duration":0.13043475000000626},{"name":"C6","midi":84,"time":153.13039650000093,"velocity":0.3937007874015748,"duration":0.13043475000000626},{"name":"D#6","midi":87,"time":153.26083125000093,"velocity":0.3937007874015748,"duration":0.13043475000000626},{"name":"A5","midi":81,"time":153.39126600000094,"velocity":0.3937007874015748,"duration":0.39130424999999036},{"name":"D6","midi":86,"time":153.39126600000094,"velocity":0.3937007874015748,"duration":0.39130424999999036},{"name":"A5","midi":81,"time":153.78257025000093,"velocity":0.3937007874015748,"duration":0.39130424999999036},{"name":"A5","midi":81,"time":154.17387450000092,"velocity":0.3937007874015748,"duration":0.13043475000000626},{"name":"D6","midi":86,"time":154.30430925000093,"velocity":0.3937007874015748,"duration":0.13043475000000626},{"name":"G6","midi":91,"time":154.43474400000093,"velocity":0.3937007874015748,"duration":0.13043475000000626},{"name":"D#6","midi":87,"time":154.43474400000093,"velocity":0.3937007874015748,"duration":0.13043475000000626},{"name":"F6","midi":89,"time":154.56517875000094,"velocity":0.3937007874015748,"duration":0.13043475000000626},{"name":"D#6","midi":87,"time":154.69561350000095,"velocity":0.3937007874015748,"duration":0.13043475000000626},{"name":"D6","midi":86,"time":154.82604825000095,"velocity":0.3937007874015748,"duration":0.13043475000000626},{"name":"C6","midi":84,"time":154.95648300000096,"velocity":0.3937007874015748,"duration":0.13043475000000626},{"name":"D#6","midi":87,"time":154.95648300000096,"velocity":0.3937007874015748,"duration":0.13043475000000626},{"name":"A#6","midi":94,"time":155.08691775000096,"velocity":0.3937007874015748,"duration":0.13043475000000626},{"name":"A6","midi":93,"time":155.21735250000097,"velocity":0.3937007874015748,"duration":0.13043475000000626},{"name":"G6","midi":91,"time":155.34778725000098,"velocity":0.3937007874015748,"duration":0.13043475000000626},{"name":"F6","midi":89,"time":155.47822200000098,"velocity":0.3937007874015748,"duration":0.2608695000000125},{"name":"D6","midi":86,"time":155.47822200000098,"velocity":0.3937007874015748,"duration":0.2608695000000125},{"name":"E6","midi":88,"time":155.739091500001,"velocity":0.3937007874015748,"duration":0.2608695000000125},{"name":"G6","midi":91,"time":155.739091500001,"velocity":0.3937007874015748,"duration":0.2608695000000125},{"name":"F6","midi":89,"time":155.999961000001,"velocity":0.3937007874015748,"duration":0.39130424999999036},{"name":"A6","midi":93,"time":155.999961000001,"velocity":0.3937007874015748,"duration":0.39130424999999036},{"name":"B6","midi":95,"time":156.391265250001,"velocity":0.3937007874015748,"duration":0.13043475000000626},{"name":"A6","midi":93,"time":156.521700000001,"velocity":0.3937007874015748,"duration":0.13043475000000626},{"name":"C6","midi":84,"time":156.521700000001,"velocity":0.3937007874015748,"duration":0.13043475000000626},{"name":"B6","midi":95,"time":156.652134750001,"velocity":0.3937007874015748,"duration":0.13043475000000626},{"name":"A6","midi":93,"time":156.78256950000102,"velocity":0.3937007874015748,"duration":0.13043475000000626},{"name":"G6","midi":91,"time":156.91300425000102,"velocity":0.3937007874015748,"duration":0.13043475000000626},{"name":"F6","midi":89,"time":157.04343900000103,"velocity":0.3937007874015748,"duration":0.13043475000000626},{"name":"A6","midi":93,"time":157.04343900000103,"velocity":0.3937007874015748,"duration":0.13043475000000626},{"name":"G6","midi":91,"time":157.17387375000104,"velocity":0.3937007874015748,"duration":0.13043475000000626},{"name":"A6","midi":93,"time":157.30430850000104,"velocity":0.3937007874015748,"duration":0.13043475000000626},{"name":"B6","midi":95,"time":157.43474325000105,"velocity":0.3937007874015748,"duration":0.13043475000000626},{"name":"A6","midi":93,"time":157.56517800000105,"velocity":0.3937007874015748,"duration":0.39130424999999036},{"name":"F6","midi":89,"time":157.56517800000105,"velocity":0.3937007874015748,"duration":0.39130424999999036},{"name":"D6","midi":86,"time":157.95648225000105,"velocity":0.3937007874015748,"duration":0.39130424999999036},{"name":"A5","midi":81,"time":157.95648225000105,"velocity":0.3937007874015748,"duration":0.39130424999999036},{"name":"D6","midi":86,"time":158.34778650000104,"velocity":0.3937007874015748,"duration":0.13043475000000626},{"name":"E6","midi":88,"time":158.47822125000104,"velocity":0.3937007874015748,"duration":0.13043475000000626},{"name":"A#5","midi":82,"time":158.60865600000105,"velocity":0.3937007874015748,"duration":0.39130424999999036},{"name":"F6","midi":89,"time":158.60865600000105,"velocity":0.3937007874015748,"duration":0.39130424999999036},{"name":"E6","midi":88,"time":158.99996025000104,"velocity":0.3937007874015748,"duration":0.39130424999999036},{"name":"C6","midi":84,"time":159.39126450000103,"velocity":0.3937007874015748,"duration":0.2608695000000125},{"name":"D6","midi":86,"time":159.65213400000104,"velocity":0.3937007874015748,"duration":0.7826085000000091},{"name":"A#5","midi":82,"time":159.65213400000104,"velocity":0.3937007874015748,"duration":0.7826085000000091},{"name":"F5","midi":77,"time":159.65213400000104,"velocity":0.3937007874015748,"duration":0.7826085000000091},{"name":"D6","midi":86,"time":160.43474250000105,"velocity":0.3937007874015748,"duration":0.13043475000000626},{"name":"E5","midi":76,"time":160.56517725000106,"velocity":0.3937007874015748,"duration":0.13043475000000626},{"name":"A#5","midi":82,"time":160.69561200000106,"velocity":0.3937007874015748,"duration":0.39130424999999036},{"name":"F5","midi":77,"time":160.69561200000106,"velocity":0.3937007874015748,"duration":0.39130424999999036},{"name":"E5","midi":76,"time":161.08691625000105,"velocity":0.3937007874015748,"duration":0.39130424999999036},{"name":"C6","midi":84,"time":161.47822050000104,"velocity":0.3937007874015748,"duration":0.2608695000000125},{"name":"D6","midi":86,"time":161.73909000000106,"velocity":0.3937007874015748,"duration":0.7826085000000091},{"name":"C6","midi":84,"time":161.73909000000106,"velocity":0.3937007874015748,"duration":0.7826085000000091},{"name":"F5","midi":77,"time":161.73909000000106,"velocity":0.3937007874015748,"duration":0.7826085000000091},{"name":"D6","midi":86,"time":162.52169850000107,"velocity":0.3937007874015748,"duration":0.13043475000000626},{"name":"E6","midi":88,"time":162.65213325000107,"velocity":0.3937007874015748,"duration":0.13043475000000626},{"name":"A#5","midi":82,"time":162.78256800000108,"velocity":0.3937007874015748,"duration":0.39130424999999036},{"name":"F6","midi":89,"time":162.78256800000108,"velocity":0.3937007874015748,"duration":0.39130424999999036},{"name":"E6","midi":88,"time":163.17387225000107,"velocity":0.3937007874015748,"duration":0.39130424999999036},{"name":"C6","midi":84,"time":163.56517650000106,"velocity":0.3937007874015748,"duration":0.2608695000000125},{"name":"D6","midi":86,"time":163.82604600000107,"velocity":0.3937007874015748,"duration":0.7826085000000091},{"name":"A#5","midi":82,"time":163.82604600000107,"velocity":0.3937007874015748,"duration":0.7826085000000091},{"name":"F5","midi":77,"time":163.82604600000107,"velocity":0.3937007874015748,"duration":0.7826085000000091},{"name":"D6","midi":86,"time":164.60865450000108,"velocity":0.3937007874015748,"duration":0.13043475000000626},{"name":"E6","midi":88,"time":164.7390892500011,"velocity":0.3937007874015748,"duration":0.13043475000000626},{"name":"A#5","midi":82,"time":164.8695240000011,"velocity":0.3937007874015748,"duration":0.39130424999999036},{"name":"F6","midi":89,"time":164.8695240000011,"velocity":0.3937007874015748,"duration":0.39130424999999036},{"name":"E6","midi":88,"time":165.26082825000108,"velocity":0.3937007874015748,"duration":0.39130424999999036},{"name":"C6","midi":84,"time":165.65213250000107,"velocity":0.3937007874015748,"duration":0.2608695000000125},{"name":"D6","midi":86,"time":165.9130020000011,"velocity":0.3937007874015748,"duration":0.7826085000000091},{"name":"C6","midi":84,"time":165.9130020000011,"velocity":0.3937007874015748,"duration":0.7826085000000091},{"name":"F5","midi":77,"time":165.9130020000011,"velocity":0.3937007874015748,"duration":0.7826085000000091},{"name":"C6","midi":84,"time":166.6956105000011,"velocity":0.3937007874015748,"duration":0.2608695000000125},{"name":"D5","midi":74,"time":166.9564800000011,"velocity":0.3937007874015748,"duration":0.13043475000000626},{"name":"A5","midi":81,"time":166.9564800000011,"velocity":0.3937007874015748,"duration":0.13043475000000626},{"name":"D6","midi":86,"time":166.9564800000011,"velocity":0.3937007874015748,"duration":0.13043475000000626},{"name":"D5","midi":74,"time":167.34778425000113,"velocity":0.3937007874015748,"duration":0.2608695000000125},{"name":"A5","midi":81,"time":167.34778425000113,"velocity":0.3937007874015748,"duration":0.2608695000000125},{"name":"A5","midi":81,"time":167.73908850000115,"velocity":0.3937007874015748,"duration":0.2608695000000125},{"name":"D5","midi":74,"time":167.73908850000115,"velocity":0.3937007874015748,"duration":0.2608695000000125},{"name":"D5","midi":74,"time":167.99995800000116,"velocity":0.3937007874015748,"duration":0.13043475000000626},{"name":"G5","midi":79,"time":167.99995800000116,"velocity":0.3937007874015748,"duration":0.13043475000000626},{"name":"B5","midi":83,"time":167.99995800000116,"velocity":0.3937007874015748,"duration":0.13043475000000626},{"name":"D5","midi":74,"time":168.39126225000118,"velocity":0.3937007874015748,"duration":0.2608695000000125},{"name":"G5","midi":79,"time":168.39126225000118,"velocity":0.3937007874015748,"duration":0.2608695000000125},{"name":"G5","midi":79,"time":168.7825665000012,"velocity":0.3937007874015748,"duration":0.2608695000000125},{"name":"D5","midi":74,"time":168.7825665000012,"velocity":0.3937007874015748,"duration":0.2608695000000125},{"name":"D5","midi":74,"time":169.0434360000012,"velocity":0.3937007874015748,"duration":0.13043475000000626},{"name":"A5","midi":81,"time":169.0434360000012,"velocity":0.3937007874015748,"duration":0.13043475000000626},{"name":"D6","midi":86,"time":169.0434360000012,"velocity":0.3937007874015748,"duration":0.13043475000000626},{"name":"D5","midi":74,"time":169.43474025000123,"velocity":0.3937007874015748,"duration":0.2608695000000125},{"name":"A5","midi":81,"time":169.43474025000123,"velocity":0.3937007874015748,"duration":0.2608695000000125},{"name":"A5","midi":81,"time":169.82604450000125,"velocity":0.3937007874015748,"duration":0.2608695000000125},{"name":"D5","midi":74,"time":169.82604450000125,"velocity":0.3937007874015748,"duration":0.2608695000000125},{"name":"D5","midi":74,"time":170.08691400000126,"velocity":0.3937007874015748,"duration":0.13043475000000626},{"name":"G5","midi":79,"time":170.08691400000126,"velocity":0.3937007874015748,"duration":0.13043475000000626},{"name":"B5","midi":83,"time":170.08691400000126,"velocity":0.3937007874015748,"duration":0.13043475000000626},{"name":"D5","midi":74,"time":170.47821825000128,"velocity":0.3937007874015748,"duration":0.2608695000000125},{"name":"G5","midi":79,"time":170.47821825000128,"velocity":0.3937007874015748,"duration":0.2608695000000125},{"name":"G5","midi":79,"time":170.8695225000013,"velocity":0.3937007874015748,"duration":0.2608695000000125},{"name":"D5","midi":74,"time":170.8695225000013,"velocity":0.3937007874015748,"duration":0.2608695000000125},{"name":"D5","midi":74,"time":171.1303920000013,"velocity":0.3937007874015748,"duration":2.0869559999999865},{"name":"A5","midi":81,"time":171.1303920000013,"velocity":0.3937007874015748,"duration":2.0869559999999865},{"name":"D6","midi":86,"time":171.1303920000013,"velocity":0.3937007874015748,"duration":2.0869559999999865}],"controlChanges":{},"id":3,"name":"Flute","instrumentNumber":73,"instrument":"flute","instrumentFamily":"pipe","channelNumber":3,"isPercussion":false},{"startTime":27.130428,"duration":173.21734800000058,"length":219,"notes":[{"name":"C6","midi":84,"time":27.130428,"velocity":0.7007874015748031,"duration":0.7826084999999985},{"name":"F5","midi":77,"time":27.130428,"velocity":0.7007874015748031,"duration":0.7826084999999985},{"name":"A#4","midi":70,"time":27.130428,"velocity":0.7007874015748031,"duration":0.7826084999999985},{"name":"D6","midi":86,"time":27.913036499999997,"velocity":0.7007874015748031,"duration":0.2608694999999983},{"name":"F5","midi":77,"time":28.173905999999995,"velocity":0.7007874015748031,"duration":0.391304250000001},{"name":"A#4","midi":70,"time":28.173905999999995,"velocity":0.7007874015748031,"duration":0.391304250000001},{"name":"G5","midi":79,"time":28.565210249999996,"velocity":0.7007874015748031,"duration":0.391304250000001},{"name":"A5","midi":81,"time":28.956514499999997,"velocity":0.7007874015748031,"duration":0.2608694999999983},{"name":"G5","midi":79,"time":29.217383999999996,"velocity":0.7007874015748031,"duration":0.7826084999999985},{"name":"C6","midi":84,"time":29.217383999999996,"velocity":0.7007874015748031,"duration":0.7826084999999985},{"name":"C5","midi":72,"time":29.217383999999996,"velocity":0.7007874015748031,"duration":0.7826084999999985},{"name":"D6","midi":86,"time":29.999992499999994,"velocity":0.7007874015748031,"duration":0.2608694999999983},{"name":"C5","midi":72,"time":30.260861999999992,"velocity":0.7007874015748031,"duration":0.391304250000001},{"name":"F5","midi":77,"time":30.260861999999992,"velocity":0.7007874015748031,"duration":0.391304250000001},{"name":"E6","midi":88,"time":30.652166249999993,"velocity":0.7007874015748031,"duration":0.391304250000001},{"name":"C6","midi":84,"time":31.043470499999994,"velocity":0.7007874015748031,"duration":0.2608694999999983},{"name":"A5","midi":81,"time":31.304339999999993,"velocity":0.7007874015748031,"duration":1.8260864999999988},{"name":"F5","midi":77,"time":31.304339999999993,"velocity":0.7007874015748031,"duration":1.8260864999999988},{"name":"D5","midi":74,"time":31.304339999999993,"velocity":0.7007874015748031,"duration":1.8260864999999988},{"name":"A#5","midi":82,"time":33.13042649999999,"velocity":0.7007874015748031,"duration":0.13043474999999916},{"name":"A5","midi":81,"time":33.26086124999999,"velocity":0.7007874015748031,"duration":0.13043474999999916},{"name":"G5","midi":79,"time":33.39129599999999,"velocity":0.7007874015748031,"duration":1.0434780000000003},{"name":"E5","midi":76,"time":33.39129599999999,"velocity":0.7007874015748031,"duration":1.0434780000000003},{"name":"C6","midi":84,"time":43.826075999999986,"velocity":0.7007874015748031,"duration":0.782608500000002},{"name":"F5","midi":77,"time":43.826075999999986,"velocity":0.7007874015748031,"duration":0.782608500000002},{"name":"A#4","midi":70,"time":43.826075999999986,"velocity":0.7007874015748031,"duration":0.782608500000002},{"name":"D6","midi":86,"time":44.60868449999999,"velocity":0.7007874015748031,"duration":0.2608694999999983},{"name":"F5","midi":77,"time":44.86955399999999,"velocity":0.7007874015748031,"duration":0.39130424999999747},{"name":"A#4","midi":70,"time":44.86955399999999,"velocity":0.7007874015748031,"duration":0.39130424999999747},{"name":"G5","midi":79,"time":45.260858249999984,"velocity":0.7007874015748031,"duration":0.39130424999999747},{"name":"A5","midi":81,"time":45.65216249999998,"velocity":0.7007874015748031,"duration":0.2608694999999983},{"name":"G5","midi":79,"time":45.91303199999998,"velocity":0.7007874015748031,"duration":0.782608500000002},{"name":"C6","midi":84,"time":45.91303199999998,"velocity":0.7007874015748031,"duration":0.782608500000002},{"name":"C5","midi":72,"time":45.91303199999998,"velocity":0.7007874015748031,"duration":0.782608500000002},{"name":"D6","midi":86,"time":46.69564049999998,"velocity":0.7007874015748031,"duration":0.2608694999999983},{"name":"C5","midi":72,"time":46.95650999999998,"velocity":0.7007874015748031,"duration":0.39130424999999747},{"name":"F5","midi":77,"time":46.95650999999998,"velocity":0.7007874015748031,"duration":0.39130424999999747},{"name":"E6","midi":88,"time":47.34781424999998,"velocity":0.7007874015748031,"duration":0.39130424999999747},{"name":"C6","midi":84,"time":47.739118499999975,"velocity":0.7007874015748031,"duration":0.2608694999999983},{"name":"A5","midi":81,"time":47.99998799999997,"velocity":0.7007874015748031,"duration":1.8260865000000024},{"name":"F5","midi":77,"time":47.99998799999997,"velocity":0.7007874015748031,"duration":1.8260865000000024},{"name":"D5","midi":74,"time":47.99998799999997,"velocity":0.7007874015748031,"duration":1.8260865000000024},{"name":"A#5","midi":82,"time":49.826074499999976,"velocity":0.7007874015748031,"duration":0.13043474999999916},{"name":"A5","midi":81,"time":49.956509249999975,"velocity":0.7007874015748031,"duration":0.13043474999999916},{"name":"G5","midi":79,"time":50.086943999999974,"velocity":0.7007874015748031,"duration":1.0434780000000003},{"name":"E5","midi":76,"time":50.086943999999974,"velocity":0.7007874015748031,"duration":1.0434780000000003},{"name":"G4","midi":67,"time":143.99996399999998,"velocity":0.7007874015748031,"duration":0.13043475000000626},{"name":"D#4","midi":63,"time":143.99996399999998,"velocity":0.7007874015748031,"duration":0.13043475000000626},{"name":"F4","midi":65,"time":144.13039874999998,"velocity":0.7007874015748031,"duration":0.13043475000000626},{"name":"D#4","midi":63,"time":144.2608335,"velocity":0.7007874015748031,"duration":0.13043475000000626},{"name":"D4","midi":62,"time":144.39126825,"velocity":0.7007874015748031,"duration":0.13043475000000626},{"name":"C4","midi":60,"time":144.521703,"velocity":0.7007874015748031,"duration":0.13043475000000626},{"name":"D#4","midi":63,"time":144.521703,"velocity":0.7007874015748031,"duration":0.13043475000000626},{"name":"D4","midi":62,"time":144.65213775,"velocity":0.7007874015748031,"duration":0.13043475000000626},{"name":"C4","midi":60,"time":144.78257250000001,"velocity":0.7007874015748031,"duration":0.13043475000000626},{"name":"D#4","midi":63,"time":144.91300725000002,"velocity":0.7007874015748031,"duration":0.13043475000000626},{"name":"A3","midi":57,"time":145.04344200000003,"velocity":0.7007874015748031,"duration":0.39130424999999036},{"name":"D4","midi":62,"time":145.04344200000003,"velocity":0.7007874015748031,"duration":0.39130424999999036},{"name":"A3","midi":57,"time":145.43474625000002,"velocity":0.7007874015748031,"duration":0.39130424999999036},{"name":"A3","midi":57,"time":145.8260505,"velocity":0.7007874015748031,"duration":0.13043475000000626},{"name":"D4","midi":62,"time":145.95648525000001,"velocity":0.7007874015748031,"duration":0.13043475000000626},{"name":"G4","midi":67,"time":146.08692000000002,"velocity":0.7007874015748031,"duration":0.13043475000000626},{"name":"D#4","midi":63,"time":146.08692000000002,"velocity":0.7007874015748031,"duration":0.13043475000000626},{"name":"F4","midi":65,"time":146.21735475000003,"velocity":0.7007874015748031,"duration":0.13043475000000626},{"name":"D#4","midi":63,"time":146.34778950000003,"velocity":0.7007874015748031,"duration":0.13043475000000626},{"name":"D4","midi":62,"time":146.47822425000004,"velocity":0.7007874015748031,"duration":0.13043475000000626},{"name":"C4","midi":60,"time":146.60865900000005,"velocity":0.7007874015748031,"duration":0.13043475000000626},{"name":"D#4","midi":63,"time":146.60865900000005,"velocity":0.7007874015748031,"duration":0.13043475000000626},{"name":"A#4","midi":70,"time":146.73909375000005,"velocity":0.7007874015748031,"duration":0.13043475000000626},{"name":"A4","midi":69,"time":146.86952850000006,"velocity":0.7007874015748031,"duration":0.13043475000000626},{"name":"G4","midi":67,"time":146.99996325000006,"velocity":0.7007874015748031,"duration":0.13043475000000626},{"name":"F4","midi":65,"time":147.13039800000007,"velocity":0.7007874015748031,"duration":0.2608695000000125},{"name":"D4","midi":62,"time":147.13039800000007,"velocity":0.7007874015748031,"duration":0.2608695000000125},{"name":"E4","midi":64,"time":147.39126750000008,"velocity":0.7007874015748031,"duration":0.2608695000000125},{"name":"G4","midi":67,"time":147.39126750000008,"velocity":0.7007874015748031,"duration":0.2608695000000125},{"name":"F4","midi":65,"time":147.6521370000001,"velocity":0.7007874015748031,"duration":0.39130424999999036},{"name":"A4","midi":69,"time":147.6521370000001,"velocity":0.7007874015748031,"duration":0.39130424999999036},{"name":"B4","midi":71,"time":148.0434412500001,"velocity":0.7007874015748031,"duration":0.13043475000000626},{"name":"A4","midi":69,"time":148.1738760000001,"velocity":0.7007874015748031,"duration":0.13043475000000626},{"name":"C4","midi":60,"time":148.1738760000001,"velocity":0.7007874015748031,"duration":0.13043475000000626},{"name":"B4","midi":71,"time":148.3043107500001,"velocity":0.7007874015748031,"duration":0.13043475000000626},{"name":"A4","midi":69,"time":148.4347455000001,"velocity":0.7007874015748031,"duration":0.13043475000000626},{"name":"G4","midi":67,"time":148.5651802500001,"velocity":0.7007874015748031,"duration":0.13043475000000626},{"name":"F4","midi":65,"time":148.69561500000012,"velocity":0.7007874015748031,"duration":0.13043475000000626},{"name":"A4","midi":69,"time":148.69561500000012,"velocity":0.7007874015748031,"duration":0.13043475000000626},{"name":"G4","midi":67,"time":148.82604975000012,"velocity":0.7007874015748031,"duration":0.13043475000000626},{"name":"A4","midi":69,"time":148.95648450000013,"velocity":0.7007874015748031,"duration":0.13043475000000626},{"name":"B4","midi":71,"time":149.08691925000014,"velocity":0.7007874015748031,"duration":0.13043475000000626},{"name":"A4","midi":69,"time":149.21735400000014,"velocity":0.7007874015748031,"duration":0.39130424999999036},{"name":"F4","midi":65,"time":149.21735400000014,"velocity":0.7007874015748031,"duration":0.39130424999999036},{"name":"D4","midi":62,"time":149.60865825000013,"velocity":0.7007874015748031,"duration":0.39130424999999036},{"name":"A3","midi":57,"time":149.60865825000013,"velocity":0.7007874015748031,"duration":0.39130424999999036},{"name":"D4","midi":62,"time":149.99996250000012,"velocity":0.7007874015748031,"duration":0.13043475000000626},{"name":"E4","midi":64,"time":150.13039725000013,"velocity":0.7007874015748031,"duration":0.13043475000000626},{"name":"F4","midi":65,"time":150.26083200000014,"velocity":0.7007874015748031,"duration":0.39130424999999036},{"name":"D4","midi":62,"time":150.26083200000014,"velocity":0.7007874015748031,"duration":0.39130424999999036},{"name":"E4","midi":64,"time":150.65213625000013,"velocity":0.7007874015748031,"duration":0.39130424999999036},{"name":"G4","midi":67,"time":150.65213625000013,"velocity":0.7007874015748031,"duration":0.39130424999999036},{"name":"G4","midi":67,"time":151.04344050000012,"velocity":0.7007874015748031,"duration":0.2608695000000125},{"name":"A#4","midi":70,"time":151.04344050000012,"velocity":0.7007874015748031,"duration":0.2608695000000125},{"name":"A4","midi":69,"time":151.30431000000013,"velocity":0.7007874015748031,"duration":0.2608695000000125},{"name":"F4","midi":65,"time":151.30431000000013,"velocity":0.7007874015748031,"duration":0.2608695000000125},{"name":"E4","midi":64,"time":151.56517950000014,"velocity":0.7007874015748031,"duration":0.2608695000000125},{"name":"C#4","midi":61,"time":151.82604900000015,"velocity":0.7007874015748031,"duration":0.2608695000000125},{"name":"A3","midi":57,"time":152.08691850000017,"velocity":0.7007874015748031,"duration":0.2608695000000125},{"name":"G4","midi":67,"time":152.34778800000018,"velocity":0.7007874015748031,"duration":0.13043475000000626},{"name":"D#4","midi":63,"time":152.34778800000018,"velocity":0.7007874015748031,"duration":0.13043475000000626},{"name":"F4","midi":65,"time":152.47822275000019,"velocity":0.7007874015748031,"duration":0.13043475000000626},{"name":"D#4","midi":63,"time":152.6086575000002,"velocity":0.7007874015748031,"duration":0.13043475000000626},{"name":"D4","midi":62,"time":152.7390922500002,"velocity":0.7007874015748031,"duration":0.13043475000000626},{"name":"C4","midi":60,"time":152.8695270000002,"velocity":0.7007874015748031,"duration":0.13043475000000626},{"name":"D#4","midi":63,"time":152.8695270000002,"velocity":0.7007874015748031,"duration":0.13043475000000626},{"name":"D4","midi":62,"time":152.9999617500002,"velocity":0.7007874015748031,"duration":0.13043475000000626},{"name":"C4","midi":60,"time":153.13039650000022,"velocity":0.7007874015748031,"duration":0.13043475000000626},{"name":"D#4","midi":63,"time":153.26083125000022,"velocity":0.7007874015748031,"duration":0.13043475000000626},{"name":"A3","midi":57,"time":153.39126600000023,"velocity":0.7007874015748031,"duration":0.39130424999999036},{"name":"D4","midi":62,"time":153.39126600000023,"velocity":0.7007874015748031,"duration":0.39130424999999036},{"name":"A3","midi":57,"time":153.78257025000022,"velocity":0.7007874015748031,"duration":0.39130424999999036},{"name":"A3","midi":57,"time":154.1738745000002,"velocity":0.7007874015748031,"duration":0.13043475000000626},{"name":"D4","midi":62,"time":154.30430925000022,"velocity":0.7007874015748031,"duration":0.13043475000000626},{"name":"G4","midi":67,"time":154.43474400000022,"velocity":0.7007874015748031,"duration":0.13043475000000626},{"name":"D#4","midi":63,"time":154.43474400000022,"velocity":0.7007874015748031,"duration":0.13043475000000626},{"name":"F4","midi":65,"time":154.56517875000023,"velocity":0.7007874015748031,"duration":0.13043475000000626},{"name":"D#4","midi":63,"time":154.69561350000023,"velocity":0.7007874015748031,"duration":0.13043475000000626},{"name":"D4","midi":62,"time":154.82604825000024,"velocity":0.7007874015748031,"duration":0.13043475000000626},{"name":"C4","midi":60,"time":154.95648300000025,"velocity":0.7007874015748031,"duration":0.13043475000000626},{"name":"D#4","midi":63,"time":154.95648300000025,"velocity":0.7007874015748031,"duration":0.13043475000000626},{"name":"A#4","midi":70,"time":155.08691775000025,"velocity":0.7007874015748031,"duration":0.13043475000000626},{"name":"A4","midi":69,"time":155.21735250000026,"velocity":0.7007874015748031,"duration":0.13043475000000626},{"name":"G4","midi":67,"time":155.34778725000027,"velocity":0.7007874015748031,"duration":0.13043475000000626},{"name":"F4","midi":65,"time":155.47822200000027,"velocity":0.7007874015748031,"duration":0.2608695000000125},{"name":"D4","midi":62,"time":155.47822200000027,"velocity":0.7007874015748031,"duration":0.2608695000000125},{"name":"E4","midi":64,"time":155.73909150000028,"velocity":0.7007874015748031,"duration":0.2608695000000125},{"name":"G4","midi":67,"time":155.73909150000028,"velocity":0.7007874015748031,"duration":0.2608695000000125},{"name":"F4","midi":65,"time":155.9999610000003,"velocity":0.7007874015748031,"duration":0.39130424999999036},{"name":"A4","midi":69,"time":155.9999610000003,"velocity":0.7007874015748031,"duration":0.39130424999999036},{"name":"B4","midi":71,"time":156.3912652500003,"velocity":0.7007874015748031,"duration":0.13043475000000626},{"name":"A4","midi":69,"time":156.5217000000003,"velocity":0.7007874015748031,"duration":0.13043475000000626},{"name":"C4","midi":60,"time":156.5217000000003,"velocity":0.7007874015748031,"duration":0.13043475000000626},{"name":"B4","midi":71,"time":156.6521347500003,"velocity":0.7007874015748031,"duration":0.13043475000000626},{"name":"A4","midi":69,"time":156.7825695000003,"velocity":0.7007874015748031,"duration":0.13043475000000626},{"name":"G4","midi":67,"time":156.9130042500003,"velocity":0.7007874015748031,"duration":0.13043475000000626},{"name":"F4","midi":65,"time":157.04343900000032,"velocity":0.7007874015748031,"duration":0.13043475000000626},{"name":"A4","midi":69,"time":157.04343900000032,"velocity":0.7007874015748031,"duration":0.13043475000000626},{"name":"G4","midi":67,"time":157.17387375000033,"velocity":0.7007874015748031,"duration":0.13043475000000626},{"name":"A4","midi":69,"time":157.30430850000033,"velocity":0.7007874015748031,"duration":0.13043475000000626},{"name":"B4","midi":71,"time":157.43474325000034,"velocity":0.7007874015748031,"duration":0.13043475000000626},{"name":"A4","midi":69,"time":157.56517800000034,"velocity":0.7007874015748031,"duration":0.39130424999999036},{"name":"F4","midi":65,"time":157.56517800000034,"velocity":0.7007874015748031,"duration":0.39130424999999036},{"name":"D4","midi":62,"time":157.95648225000033,"velocity":0.7007874015748031,"duration":0.39130424999999036},{"name":"A3","midi":57,"time":157.95648225000033,"velocity":0.7007874015748031,"duration":0.39130424999999036},{"name":"D4","midi":62,"time":158.34778650000032,"velocity":0.7007874015748031,"duration":0.13043475000000626},{"name":"E4","midi":64,"time":158.47822125000033,"velocity":0.7007874015748031,"duration":0.13043475000000626},{"name":"A#4","midi":70,"time":158.60865600000034,"velocity":0.7007874015748031,"duration":0.39130424999999036},{"name":"F5","midi":77,"time":158.60865600000034,"velocity":0.7007874015748031,"duration":0.39130424999999036},{"name":"E5","midi":76,"time":158.99996025000033,"velocity":0.7007874015748031,"duration":0.39130424999999036},{"name":"C5","midi":72,"time":159.39126450000032,"velocity":0.7007874015748031,"duration":0.2608695000000125},{"name":"D5","midi":74,"time":159.65213400000033,"velocity":0.7007874015748031,"duration":0.7826085000000091},{"name":"A#4","midi":70,"time":159.65213400000033,"velocity":0.7007874015748031,"duration":0.7826085000000091},{"name":"F4","midi":65,"time":159.65213400000033,"velocity":0.7007874015748031,"duration":0.7826085000000091},{"name":"D5","midi":74,"time":160.43474250000034,"velocity":0.7007874015748031,"duration":0.13043475000000626},{"name":"E4","midi":64,"time":160.56517725000035,"velocity":0.7007874015748031,"duration":0.13043475000000626},{"name":"A#4","midi":70,"time":160.69561200000035,"velocity":0.7007874015748031,"duration":0.39130424999999036},{"name":"F4","midi":65,"time":160.69561200000035,"velocity":0.7007874015748031,"duration":0.39130424999999036},{"name":"E4","midi":64,"time":161.08691625000034,"velocity":0.7007874015748031,"duration":0.39130424999999036},{"name":"C5","midi":72,"time":161.47822050000033,"velocity":0.7007874015748031,"duration":0.2608695000000125},{"name":"D5","midi":74,"time":161.73909000000035,"velocity":0.7007874015748031,"duration":0.7826085000000091},{"name":"C5","midi":72,"time":161.73909000000035,"velocity":0.7007874015748031,"duration":0.7826085000000091},{"name":"F4","midi":65,"time":161.73909000000035,"velocity":0.7007874015748031,"duration":0.7826085000000091},{"name":"D5","midi":74,"time":162.52169850000035,"velocity":0.7007874015748031,"duration":0.13043475000000626},{"name":"E5","midi":76,"time":162.65213325000036,"velocity":0.7007874015748031,"duration":0.13043475000000626},{"name":"A#4","midi":70,"time":162.78256800000037,"velocity":0.7007874015748031,"duration":0.39130424999999036},{"name":"F5","midi":77,"time":162.78256800000037,"velocity":0.7007874015748031,"duration":0.39130424999999036},{"name":"E5","midi":76,"time":163.17387225000036,"velocity":0.7007874015748031,"duration":0.39130424999999036},{"name":"C5","midi":72,"time":163.56517650000035,"velocity":0.7007874015748031,"duration":0.2608695000000125},{"name":"D5","midi":74,"time":163.82604600000036,"velocity":0.7007874015748031,"duration":0.7826085000000091},{"name":"A#4","midi":70,"time":163.82604600000036,"velocity":0.7007874015748031,"duration":0.7826085000000091},{"name":"F4","midi":65,"time":163.82604600000036,"velocity":0.7007874015748031,"duration":0.7826085000000091},{"name":"D5","midi":74,"time":164.60865450000037,"velocity":0.7007874015748031,"duration":0.13043475000000626},{"name":"E5","midi":76,"time":164.73908925000038,"velocity":0.7007874015748031,"duration":0.13043475000000626},{"name":"A#4","midi":70,"time":164.86952400000038,"velocity":0.7007874015748031,"duration":0.39130424999999036},{"name":"F5","midi":77,"time":164.86952400000038,"velocity":0.7007874015748031,"duration":0.39130424999999036},{"name":"E5","midi":76,"time":165.26082825000037,"velocity":0.7007874015748031,"duration":0.39130424999999036},{"name":"C5","midi":72,"time":165.65213250000036,"velocity":0.7007874015748031,"duration":0.2608695000000125},{"name":"D5","midi":74,"time":165.91300200000038,"velocity":0.7007874015748031,"duration":0.7826085000000091},{"name":"C5","midi":72,"time":165.91300200000038,"velocity":0.7007874015748031,"duration":0.7826085000000091},{"name":"F4","midi":65,"time":165.91300200000038,"velocity":0.7007874015748031,"duration":0.7826085000000091},{"name":"C5","midi":72,"time":166.69561050000038,"velocity":0.7007874015748031,"duration":0.2608695000000125},{"name":"D5","midi":74,"time":166.9564800000004,"velocity":0.7007874015748031,"duration":0.13043475000000626},{"name":"A5","midi":81,"time":166.9564800000004,"velocity":0.7007874015748031,"duration":0.13043475000000626},{"name":"D6","midi":86,"time":166.9564800000004,"velocity":0.7007874015748031,"duration":0.13043475000000626},{"name":"D5","midi":74,"time":167.34778425000042,"velocity":0.7007874015748031,"duration":0.2608695000000125},{"name":"A5","midi":81,"time":167.34778425000042,"velocity":0.7007874015748031,"duration":0.2608695000000125},{"name":"A5","midi":81,"time":167.73908850000043,"velocity":0.7007874015748031,"duration":0.2608695000000125},{"name":"D5","midi":74,"time":167.73908850000043,"velocity":0.7007874015748031,"duration":0.2608695000000125},{"name":"D5","midi":74,"time":167.99995800000045,"velocity":0.7007874015748031,"duration":0.13043475000000626},{"name":"G5","midi":79,"time":167.99995800000045,"velocity":0.7007874015748031,"duration":0.13043475000000626},{"name":"B5","midi":83,"time":167.99995800000045,"velocity":0.7007874015748031,"duration":0.13043475000000626},{"name":"D5","midi":74,"time":168.39126225000047,"velocity":0.7007874015748031,"duration":0.2608695000000125},{"name":"G5","midi":79,"time":168.39126225000047,"velocity":0.7007874015748031,"duration":0.2608695000000125},{"name":"G5","midi":79,"time":168.78256650000048,"velocity":0.7007874015748031,"duration":0.2608695000000125},{"name":"D5","midi":74,"time":168.78256650000048,"velocity":0.7007874015748031,"duration":0.2608695000000125},{"name":"D5","midi":74,"time":169.0434360000005,"velocity":0.7007874015748031,"duration":0.13043475000000626},{"name":"A5","midi":81,"time":169.0434360000005,"velocity":0.7007874015748031,"duration":0.13043475000000626},{"name":"D6","midi":86,"time":169.0434360000005,"velocity":0.7007874015748031,"duration":0.13043475000000626},{"name":"D5","midi":74,"time":169.43474025000052,"velocity":0.7007874015748031,"duration":0.2608695000000125},{"name":"A5","midi":81,"time":169.43474025000052,"velocity":0.7007874015748031,"duration":0.2608695000000125},{"name":"A5","midi":81,"time":169.82604450000053,"velocity":0.7007874015748031,"duration":0.2608695000000125},{"name":"D5","midi":74,"time":169.82604450000053,"velocity":0.7007874015748031,"duration":0.2608695000000125},{"name":"D5","midi":74,"time":170.08691400000055,"velocity":0.7007874015748031,"duration":0.13043475000000626},{"name":"G5","midi":79,"time":170.08691400000055,"velocity":0.7007874015748031,"duration":0.13043475000000626},{"name":"B5","midi":83,"time":170.08691400000055,"velocity":0.7007874015748031,"duration":0.13043475000000626},{"name":"D5","midi":74,"time":170.47821825000057,"velocity":0.7007874015748031,"duration":0.2608695000000125},{"name":"G5","midi":79,"time":170.47821825000057,"velocity":0.7007874015748031,"duration":0.2608695000000125},{"name":"G5","midi":79,"time":170.86952250000058,"velocity":0.7007874015748031,"duration":0.2608695000000125},{"name":"D5","midi":74,"time":170.86952250000058,"velocity":0.7007874015748031,"duration":0.2608695000000125},{"name":"D5","midi":74,"time":171.1303920000006,"velocity":0.7007874015748031,"duration":2.0869559999999865},{"name":"A5","midi":81,"time":171.1303920000006,"velocity":0.7007874015748031,"duration":2.0869559999999865},{"name":"D6","midi":86,"time":171.1303920000006,"velocity":0.7007874015748031,"duration":2.0869559999999865}],"controlChanges":{},"id":4,"name":"Jazz Guitar","instrumentNumber":26,"instrument":"electric guitar (jazz)","instrumentFamily":"guitar","channelNumber":4,"isPercussion":false},{"startTime":27.130428,"duration":173.21734800000377,"length":858,"notes":[{"name":"A#1","midi":34,"time":27.130428,"velocity":0.7874015748031497,"duration":0.13043474999999916},{"name":"F2","midi":41,"time":27.260862749999998,"velocity":0.7874015748031497,"duration":0.13043474999999916},{"name":"A#2","midi":46,"time":27.391297499999997,"velocity":0.7874015748031497,"duration":0.13043474999999916},{"name":"F2","midi":41,"time":27.521732249999996,"velocity":0.7874015748031497,"duration":0.13043474999999916},{"name":"A#1","midi":34,"time":27.652166999999995,"velocity":0.7874015748031497,"duration":0.13043474999999916},{"name":"F2","midi":41,"time":27.782601749999994,"velocity":0.7874015748031497,"duration":0.13043474999999916},{"name":"A#2","midi":46,"time":27.913036499999993,"velocity":0.7874015748031497,"duration":0.13043474999999916},{"name":"F2","midi":41,"time":28.043471249999993,"velocity":0.7874015748031497,"duration":0.13043474999999916},{"name":"A#1","midi":34,"time":28.17390599999999,"velocity":0.7874015748031497,"duration":0.13043474999999916},{"name":"F2","midi":41,"time":28.30434074999999,"velocity":0.7874015748031497,"duration":0.13043474999999916},{"name":"A#2","midi":46,"time":28.43477549999999,"velocity":0.7874015748031497,"duration":0.13043474999999916},{"name":"F2","midi":41,"time":28.56521024999999,"velocity":0.7874015748031497,"duration":0.13043474999999916},{"name":"A#1","midi":34,"time":28.69564499999999,"velocity":0.7874015748031497,"duration":0.13043474999999916},{"name":"F2","midi":41,"time":28.826079749999987,"velocity":0.7874015748031497,"duration":0.13043474999999916},{"name":"A#2","midi":46,"time":28.956514499999987,"velocity":0.7874015748031497,"duration":0.13043474999999916},{"name":"F2","midi":41,"time":29.086949249999986,"velocity":0.7874015748031497,"duration":0.13043474999999916},{"name":"C2","midi":36,"time":29.217383999999985,"velocity":0.7874015748031497,"duration":0.13043474999999916},{"name":"G2","midi":43,"time":29.347818749999984,"velocity":0.7874015748031497,"duration":0.13043474999999916},{"name":"C3","midi":48,"time":29.478253499999983,"velocity":0.7874015748031497,"duration":0.13043474999999916},{"name":"G2","midi":43,"time":29.608688249999982,"velocity":0.7874015748031497,"duration":0.13043474999999916},{"name":"C2","midi":36,"time":29.73912299999998,"velocity":0.7874015748031497,"duration":0.13043474999999916},{"name":"G2","midi":43,"time":29.86955774999998,"velocity":0.7874015748031497,"duration":0.13043474999999916},{"name":"C3","midi":48,"time":29.99999249999998,"velocity":0.7874015748031497,"duration":0.13043474999999916},{"name":"G2","midi":43,"time":30.13042724999998,"velocity":0.7874015748031497,"duration":0.13043474999999916},{"name":"C2","midi":36,"time":30.260861999999978,"velocity":0.7874015748031497,"duration":0.13043474999999916},{"name":"G2","midi":43,"time":30.391296749999977,"velocity":0.7874015748031497,"duration":0.13043474999999916},{"name":"C3","midi":48,"time":30.521731499999976,"velocity":0.7874015748031497,"duration":0.13043474999999916},{"name":"G2","midi":43,"time":30.652166249999976,"velocity":0.7874015748031497,"duration":0.13043474999999916},{"name":"C2","midi":36,"time":30.782600999999975,"velocity":0.7874015748031497,"duration":0.13043474999999916},{"name":"G2","midi":43,"time":30.913035749999974,"velocity":0.7874015748031497,"duration":0.13043474999999916},{"name":"C3","midi":48,"time":31.043470499999973,"velocity":0.7874015748031497,"duration":0.13043474999999916},{"name":"G2","midi":43,"time":31.173905249999972,"velocity":0.7874015748031497,"duration":0.13043474999999916},{"name":"D2","midi":38,"time":31.30433999999997,"velocity":0.7874015748031497,"duration":0.13043474999999916},{"name":"A2","midi":45,"time":31.43477474999997,"velocity":0.7874015748031497,"duration":0.13043474999999916},{"name":"D3","midi":50,"time":31.56520949999997,"velocity":0.7874015748031497,"duration":0.13043474999999916},{"name":"A2","midi":45,"time":31.69564424999997,"velocity":0.7874015748031497,"duration":0.13043474999999916},{"name":"D2","midi":38,"time":31.826078999999968,"velocity":0.7874015748031497,"duration":0.13043474999999916},{"name":"A2","midi":45,"time":31.956513749999967,"velocity":0.7874015748031497,"duration":0.1304347500000027},{"name":"D3","midi":50,"time":32.08694849999997,"velocity":0.7874015748031497,"duration":0.13043474999999916},{"name":"A2","midi":45,"time":32.21738324999997,"velocity":0.7874015748031497,"duration":0.13043474999999916},{"name":"D2","midi":38,"time":32.34781799999997,"velocity":0.7874015748031497,"duration":0.13043474999999916},{"name":"A2","midi":45,"time":32.47825274999997,"velocity":0.7874015748031497,"duration":0.13043474999999916},{"name":"D3","midi":50,"time":32.60868749999997,"velocity":0.7874015748031497,"duration":0.13043474999999916},{"name":"A2","midi":45,"time":32.739122249999966,"velocity":0.7874015748031497,"duration":0.13043474999999916},{"name":"D2","midi":38,"time":32.869556999999965,"velocity":0.7874015748031497,"duration":0.13043474999999916},{"name":"A2","midi":45,"time":32.999991749999964,"velocity":0.7874015748031497,"duration":0.13043474999999916},{"name":"D3","midi":50,"time":33.13042649999996,"velocity":0.7874015748031497,"duration":0.13043474999999916},{"name":"A2","midi":45,"time":33.26086124999996,"velocity":0.7874015748031497,"duration":0.13043474999999916},{"name":"C2","midi":36,"time":33.39129599999996,"velocity":0.7874015748031497,"duration":0.13043474999999916},{"name":"G2","midi":43,"time":33.52173074999996,"velocity":0.7874015748031497,"duration":0.13043474999999916},{"name":"C3","midi":48,"time":33.65216549999996,"velocity":0.7874015748031497,"duration":0.13043474999999916},{"name":"G2","midi":43,"time":33.78260024999996,"velocity":0.7874015748031497,"duration":0.13043474999999916},{"name":"C2","midi":36,"time":33.91303499999996,"velocity":0.7874015748031497,"duration":0.13043474999999916},{"name":"G2","midi":43,"time":34.04346974999996,"velocity":0.7874015748031497,"duration":0.13043474999999916},{"name":"C3","midi":48,"time":34.173904499999956,"velocity":0.7874015748031497,"duration":0.13043474999999916},{"name":"G2","midi":43,"time":34.304339249999956,"velocity":0.7874015748031497,"duration":0.13043474999999916},{"name":"A#1","midi":34,"time":43.82607599999996,"velocity":0.7874015748031497,"duration":0.13043474999999916},{"name":"F2","midi":41,"time":43.95651074999996,"velocity":0.7874015748031497,"duration":0.13043474999999916},{"name":"A#2","midi":46,"time":44.086945499999956,"velocity":0.7874015748031497,"duration":0.13043474999999916},{"name":"F2","midi":41,"time":44.217380249999955,"velocity":0.7874015748031497,"duration":0.13043474999999916},{"name":"A#1","midi":34,"time":44.347814999999954,"velocity":0.7874015748031497,"duration":0.13043474999999916},{"name":"F2","midi":41,"time":44.478249749999954,"velocity":0.7874015748031497,"duration":0.13043474999999916},{"name":"A#2","midi":46,"time":44.60868449999995,"velocity":0.7874015748031497,"duration":0.13043474999999916},{"name":"F2","midi":41,"time":44.73911924999995,"velocity":0.7874015748031497,"duration":0.13043474999999916},{"name":"A#1","midi":34,"time":44.86955399999995,"velocity":0.7874015748031497,"duration":0.13043474999999916},{"name":"F2","midi":41,"time":44.99998874999995,"velocity":0.7874015748031497,"duration":0.13043474999999916},{"name":"A#2","midi":46,"time":45.13042349999995,"velocity":0.7874015748031497,"duration":0.13043474999999916},{"name":"F2","midi":41,"time":45.26085824999995,"velocity":0.7874015748031497,"duration":0.13043474999999916},{"name":"A#1","midi":34,"time":45.39129299999995,"velocity":0.7874015748031497,"duration":0.13043474999999916},{"name":"F2","midi":41,"time":45.52172774999995,"velocity":0.7874015748031497,"duration":0.13043474999999916},{"name":"A#2","midi":46,"time":45.652162499999946,"velocity":0.7874015748031497,"duration":0.13043474999999916},{"name":"F2","midi":41,"time":45.782597249999945,"velocity":0.7874015748031497,"duration":0.13043474999999916},{"name":"C2","midi":36,"time":45.913031999999944,"velocity":0.7874015748031497,"duration":0.13043474999999916},{"name":"G2","midi":43,"time":46.04346674999994,"velocity":0.7874015748031497,"duration":0.13043474999999916},{"name":"C3","midi":48,"time":46.17390149999994,"velocity":0.7874015748031497,"duration":0.13043474999999916},{"name":"G2","midi":43,"time":46.30433624999994,"velocity":0.7874015748031497,"duration":0.13043474999999916},{"name":"C2","midi":36,"time":46.43477099999994,"velocity":0.7874015748031497,"duration":0.13043474999999916},{"name":"G2","midi":43,"time":46.56520574999994,"velocity":0.7874015748031497,"duration":0.13043474999999916},{"name":"C3","midi":48,"time":46.69564049999994,"velocity":0.7874015748031497,"duration":0.13043474999999916},{"name":"G2","midi":43,"time":46.82607524999994,"velocity":0.7874015748031497,"duration":0.13043474999999916},{"name":"C2","midi":36,"time":46.95650999999994,"velocity":0.7874015748031497,"duration":0.13043474999999916},{"name":"G2","midi":43,"time":47.08694474999994,"velocity":0.7874015748031497,"duration":0.13043474999999916},{"name":"C3","midi":48,"time":47.217379499999936,"velocity":0.7874015748031497,"duration":0.13043474999999916},{"name":"G2","midi":43,"time":47.347814249999935,"velocity":0.7874015748031497,"duration":0.13043474999999916},{"name":"C2","midi":36,"time":47.478248999999934,"velocity":0.7874015748031497,"duration":0.13043474999999916},{"name":"G2","midi":43,"time":47.60868374999993,"velocity":0.7874015748031497,"duration":0.13043474999999916},{"name":"C3","midi":48,"time":47.73911849999993,"velocity":0.7874015748031497,"duration":0.13043474999999916},{"name":"G2","midi":43,"time":47.86955324999993,"velocity":0.7874015748031497,"duration":0.13043474999999916},{"name":"D2","midi":38,"time":47.99998799999993,"velocity":0.7874015748031497,"duration":0.13043474999999916},{"name":"A2","midi":45,"time":48.13042274999993,"velocity":0.7874015748031497,"duration":0.13043474999999916},{"name":"D3","midi":50,"time":48.26085749999993,"velocity":0.7874015748031497,"duration":0.13043474999999916},{"name":"A2","midi":45,"time":48.39129224999993,"velocity":0.7874015748031497,"duration":0.13043474999999916},{"name":"D2","midi":38,"time":48.52172699999993,"velocity":0.7874015748031497,"duration":0.13043474999999916},{"name":"A2","midi":45,"time":48.65216174999993,"velocity":0.7874015748031497,"duration":0.13043474999999916},{"name":"D3","midi":50,"time":48.782596499999926,"velocity":0.7874015748031497,"duration":0.13043474999999916},{"name":"A2","midi":45,"time":48.913031249999925,"velocity":0.7874015748031497,"duration":0.13043474999999916},{"name":"D2","midi":38,"time":49.043465999999924,"velocity":0.7874015748031497,"duration":0.13043474999999916},{"name":"A2","midi":45,"time":49.17390074999992,"velocity":0.7874015748031497,"duration":0.13043474999999916},{"name":"D3","midi":50,"time":49.30433549999992,"velocity":0.7874015748031497,"duration":0.13043474999999916},{"name":"A2","midi":45,"time":49.43477024999992,"velocity":0.7874015748031497,"duration":0.13043474999999916},{"name":"D2","midi":38,"time":49.56520499999992,"velocity":0.7874015748031497,"duration":0.13043474999999916},{"name":"A2","midi":45,"time":49.69563974999992,"velocity":0.7874015748031497,"duration":0.13043474999999916},{"name":"D3","midi":50,"time":49.82607449999992,"velocity":0.7874015748031497,"duration":0.13043474999999916},{"name":"A2","midi":45,"time":49.95650924999992,"velocity":0.7874015748031497,"duration":0.13043474999999916},{"name":"G2","midi":43,"time":50.08694399999992,"velocity":0.7874015748031497,"duration":1.0434780000000003},{"name":"C3","midi":48,"time":50.08694399999992,"velocity":0.7874015748031497,"duration":1.0434780000000003},{"name":"C2","midi":36,"time":50.08694399999992,"velocity":0.7874015748031497,"duration":1.0434780000000003},{"name":"A#2","midi":46,"time":60.52172399999992,"velocity":0.7874015748031497,"duration":0.13043474999999916},{"name":"F3","midi":53,"time":60.52172399999992,"velocity":0.7874015748031497,"duration":0.13043474999999916},{"name":"A#2","midi":46,"time":61.04346299999992,"velocity":0.7874015748031497,"duration":0.13043474999999916},{"name":"F3","midi":53,"time":61.04346299999992,"velocity":0.7874015748031497,"duration":0.13043474999999916},{"name":"A#2","midi":46,"time":61.565201999999914,"velocity":0.7874015748031497,"duration":0.13043474999999916},{"name":"F3","midi":53,"time":61.565201999999914,"velocity":0.7874015748031497,"duration":0.13043474999999916},{"name":"F3","midi":53,"time":62.08694099999991,"velocity":0.7874015748031497,"duration":0.13043474999999916},{"name":"E3","midi":52,"time":62.21737574999991,"velocity":0.7874015748031497,"duration":0.13043474999999916},{"name":"D3","midi":50,"time":62.34781049999991,"velocity":0.7874015748031497,"duration":0.13043474999999916},{"name":"F3","midi":53,"time":62.47824524999991,"velocity":0.7874015748031497,"duration":0.13043474999999916},{"name":"C3","midi":48,"time":62.60867999999991,"velocity":0.7874015748031497,"duration":0.13043474999999916},{"name":"G3","midi":55,"time":62.60867999999991,"velocity":0.7874015748031497,"duration":0.13043474999999916},{"name":"C3","midi":48,"time":63.130418999999904,"velocity":0.7874015748031497,"duration":0.13043474999999916},{"name":"G3","midi":55,"time":63.130418999999904,"velocity":0.7874015748031497,"duration":0.13043474999999916},{"name":"C3","midi":48,"time":63.6521579999999,"velocity":0.7874015748031497,"duration":0.13043474999999916},{"name":"G3","midi":55,"time":63.6521579999999,"velocity":0.7874015748031497,"duration":0.13043474999999916},{"name":"C3","midi":48,"time":64.1738969999999,"velocity":0.7874015748031497,"duration":0.13043475000000626},{"name":"G3","midi":55,"time":64.1738969999999,"velocity":0.7874015748031497,"duration":0.13043475000000626},{"name":"F3","midi":53,"time":64.3043317499999,"velocity":0.7874015748031497,"duration":0.13043475000000626},{"name":"E3","midi":52,"time":64.43476649999991,"velocity":0.7874015748031497,"duration":0.13043475000000626},{"name":"C3","midi":48,"time":64.56520124999992,"velocity":0.7874015748031497,"duration":0.13043475000000626},{"name":"A2","midi":45,"time":64.69563599999992,"velocity":0.7874015748031497,"duration":0.13043475000000626},{"name":"D3","midi":50,"time":64.69563599999992,"velocity":0.7874015748031497,"duration":0.13043475000000626},{"name":"A2","midi":45,"time":65.21737499999993,"velocity":0.7874015748031497,"duration":0.13043475000000626},{"name":"D3","midi":50,"time":65.21737499999993,"velocity":0.7874015748031497,"duration":0.13043475000000626},{"name":"A2","midi":45,"time":65.73911399999994,"velocity":0.7874015748031497,"duration":0.13043475000000626},{"name":"D3","midi":50,"time":65.73911399999994,"velocity":0.7874015748031497,"duration":0.13043475000000626},{"name":"A2","midi":45,"time":66.26085299999995,"velocity":0.7874015748031497,"duration":0.13043475000000626},{"name":"D3","midi":50,"time":66.26085299999995,"velocity":0.7874015748031497,"duration":0.13043475000000626},{"name":"C3","midi":48,"time":66.39128774999996,"velocity":0.7874015748031497,"duration":0.13043475000000626},{"name":"A#2","midi":46,"time":66.52172249999997,"velocity":0.7874015748031497,"duration":0.13043475000000626},{"name":"D3","midi":50,"time":66.65215724999997,"velocity":0.7874015748031497,"duration":0.13043475000000626},{"name":"A2","midi":45,"time":66.78259199999998,"velocity":0.7874015748031497,"duration":0.13043475000000626},{"name":"A2","midi":45,"time":67.17389624999998,"velocity":0.7874015748031497,"duration":0.19565212499999518},{"name":"A2","midi":45,"time":67.56520049999997,"velocity":0.7874015748031497,"duration":0.13043475000000626},{"name":"C3","midi":48,"time":67.82606999999999,"velocity":0.7874015748031497,"duration":0.13043475000000626},{"name":"C3","midi":48,"time":68.21737424999999,"velocity":0.7874015748031497,"duration":0.39130425000000457},{"name":"E3","midi":52,"time":68.6086785,"velocity":0.7874015748031497,"duration":0.13043475000000626},{"name":"A#3","midi":58,"time":68.86954800000001,"velocity":0.7874015748031497,"duration":0.13043475000000626},{"name":"A#1","midi":34,"time":68.86954800000001,"velocity":0.7874015748031497,"duration":0.13043475000000626},{"name":"F2","midi":41,"time":68.99998275000002,"velocity":0.7874015748031497,"duration":0.13043475000000626},{"name":"A#2","midi":46,"time":69.13041750000002,"velocity":0.7874015748031497,"duration":0.13043475000000626},{"name":"F2","midi":41,"time":69.26085225000003,"velocity":0.7874015748031497,"duration":0.13043475000000626},{"name":"A#3","midi":58,"time":69.39128700000003,"velocity":0.7874015748031497,"duration":0.13043475000000626},{"name":"A#1","midi":34,"time":69.39128700000003,"velocity":0.7874015748031497,"duration":0.13043475000000626},{"name":"F2","midi":41,"time":69.52172175000004,"velocity":0.7874015748031497,"duration":0.13043475000000626},{"name":"A#2","midi":46,"time":69.65215650000005,"velocity":0.7874015748031497,"duration":0.13043475000000626},{"name":"A#3","midi":58,"time":69.78259125000005,"velocity":0.7874015748031497,"duration":0.13043475000000626},{"name":"F2","midi":41,"time":69.78259125000005,"velocity":0.7874015748031497,"duration":0.13043475000000626},{"name":"A#1","midi":34,"time":69.91302600000006,"velocity":0.7874015748031497,"duration":0.13043475000000626},{"name":"A#3","midi":58,"time":70.04346075000007,"velocity":0.7874015748031497,"duration":0.13043475000000626},{"name":"F2","midi":41,"time":70.04346075000007,"velocity":0.7874015748031497,"duration":0.13043475000000626},{"name":"A#3","midi":58,"time":70.17389550000007,"velocity":0.7874015748031497,"duration":0.13043475000000626},{"name":"A#2","midi":46,"time":70.17389550000007,"velocity":0.7874015748031497,"duration":0.13043475000000626},{"name":"A#3","midi":58,"time":70.30433025000008,"velocity":0.7874015748031497,"duration":0.13043475000000626},{"name":"F2","midi":41,"time":70.30433025000008,"velocity":0.7874015748031497,"duration":0.13043475000000626},{"name":"A#3","midi":58,"time":70.43476500000008,"velocity":0.7874015748031497,"duration":0.13043475000000626},{"name":"A#1","midi":34,"time":70.43476500000008,"velocity":0.7874015748031497,"duration":0.13043475000000626},{"name":"A#3","midi":58,"time":70.56519975000009,"velocity":0.7874015748031497,"duration":0.13043475000000626},{"name":"F2","midi":41,"time":70.56519975000009,"velocity":0.7874015748031497,"duration":0.13043475000000626},{"name":"A#2","midi":46,"time":70.6956345000001,"velocity":0.7874015748031497,"duration":0.13043475000000626},{"name":"F2","midi":41,"time":70.8260692500001,"velocity":0.7874015748031497,"duration":0.13043475000000626},{"name":"C4","midi":60,"time":70.95650400000011,"velocity":0.7874015748031497,"duration":0.13043475000000626},{"name":"C2","midi":36,"time":70.95650400000011,"velocity":0.7874015748031497,"duration":0.13043475000000626},{"name":"G2","midi":43,"time":71.08693875000012,"velocity":0.7874015748031497,"duration":0.13043475000000626},{"name":"C3","midi":48,"time":71.21737350000012,"velocity":0.7874015748031497,"duration":0.13043475000000626},{"name":"G2","midi":43,"time":71.34780825000013,"velocity":0.7874015748031497,"duration":0.13043475000000626},{"name":"C4","midi":60,"time":71.47824300000013,"velocity":0.7874015748031497,"duration":0.13043475000000626},{"name":"C2","midi":36,"time":71.47824300000013,"velocity":0.7874015748031497,"duration":0.13043475000000626},{"name":"G2","midi":43,"time":71.60867775000014,"velocity":0.7874015748031497,"duration":0.13043475000000626},{"name":"C3","midi":48,"time":71.73911250000015,"velocity":0.7874015748031497,"duration":0.13043475000000626},{"name":"C4","midi":60,"time":71.86954725000015,"velocity":0.7874015748031497,"duration":0.13043475000000626},{"name":"G2","midi":43,"time":71.86954725000015,"velocity":0.7874015748031497,"duration":0.13043475000000626},{"name":"C2","midi":36,"time":71.99998200000016,"velocity":0.7874015748031497,"duration":0.13043475000000626},{"name":"C4","midi":60,"time":72.13041675000017,"velocity":0.7874015748031497,"duration":0.13043475000000626},{"name":"G2","midi":43,"time":72.13041675000017,"velocity":0.7874015748031497,"duration":0.13043475000000626},{"name":"C4","midi":60,"time":72.26085150000017,"velocity":0.7874015748031497,"duration":0.13043475000000626},{"name":"C3","midi":48,"time":72.26085150000017,"velocity":0.7874015748031497,"duration":0.13043475000000626},{"name":"C4","midi":60,"time":72.39128625000018,"velocity":0.7874015748031497,"duration":0.13043475000000626},{"name":"G2","midi":43,"time":72.39128625000018,"velocity":0.7874015748031497,"duration":0.13043475000000626},{"name":"C4","midi":60,"time":72.52172100000018,"velocity":0.7874015748031497,"duration":0.13043475000000626},{"name":"C2","midi":36,"time":72.52172100000018,"velocity":0.7874015748031497,"duration":0.13043475000000626},{"name":"C4","midi":60,"time":72.65215575000019,"velocity":0.7874015748031497,"duration":0.13043475000000626},{"name":"G2","midi":43,"time":72.65215575000019,"velocity":0.7874015748031497,"duration":0.13043475000000626},{"name":"C3","midi":48,"time":72.7825905000002,"velocity":0.7874015748031497,"duration":0.13043475000000626},{"name":"G2","midi":43,"time":72.9130252500002,"velocity":0.7874015748031497,"duration":0.13043475000000626},{"name":"D4","midi":62,"time":73.04346000000021,"velocity":0.7874015748031497,"duration":0.13043475000000626},{"name":"D2","midi":38,"time":73.04346000000021,"velocity":0.7874015748031497,"duration":0.13043475000000626},{"name":"A2","midi":45,"time":73.17389475000022,"velocity":0.7874015748031497,"duration":0.13043475000000626},{"name":"D3","midi":50,"time":73.30432950000022,"velocity":0.7874015748031497,"duration":0.13043475000000626},{"name":"A2","midi":45,"time":73.43476425000023,"velocity":0.7874015748031497,"duration":0.13043475000000626},{"name":"D4","midi":62,"time":73.56519900000023,"velocity":0.7874015748031497,"duration":0.13043475000000626},{"name":"D2","midi":38,"time":73.56519900000023,"velocity":0.7874015748031497,"duration":0.13043475000000626},{"name":"A2","midi":45,"time":73.69563375000024,"velocity":0.7874015748031497,"duration":0.13043475000000626},{"name":"D3","midi":50,"time":73.82606850000025,"velocity":0.7874015748031497,"duration":0.13043475000000626},{"name":"D4","midi":62,"time":73.95650325000025,"velocity":0.7874015748031497,"duration":0.13043475000000626},{"name":"A2","midi":45,"time":73.95650325000025,"velocity":0.7874015748031497,"duration":0.13043475000000626},{"name":"D2","midi":38,"time":74.08693800000026,"velocity":0.7874015748031497,"duration":0.13043475000000626},{"name":"D4","midi":62,"time":74.21737275000027,"velocity":0.7874015748031497,"duration":0.13043475000000626},{"name":"A2","midi":45,"time":74.21737275000027,"velocity":0.7874015748031497,"duration":0.13043475000000626},{"name":"D4","midi":62,"time":74.34780750000027,"velocity":0.7874015748031497,"duration":0.13043475000000626},{"name":"D3","midi":50,"time":74.34780750000027,"velocity":0.7874015748031497,"duration":0.13043475000000626},{"name":"D4","midi":62,"time":74.47824225000028,"velocity":0.7874015748031497,"duration":0.13043475000000626},{"name":"A2","midi":45,"time":74.47824225000028,"velocity":0.7874015748031497,"duration":0.13043475000000626},{"name":"D4","midi":62,"time":74.60867700000028,"velocity":0.7874015748031497,"duration":0.13043475000000626},{"name":"D2","midi":38,"time":74.60867700000028,"velocity":0.7874015748031497,"duration":0.13043475000000626},{"name":"D4","midi":62,"time":74.73911175000029,"velocity":0.7874015748031497,"duration":0.13043475000000626},{"name":"A2","midi":45,"time":74.73911175000029,"velocity":0.7874015748031497,"duration":0.13043475000000626},{"name":"D3","midi":50,"time":74.8695465000003,"velocity":0.7874015748031497,"duration":0.13043475000000626},{"name":"A2","midi":45,"time":74.9999812500003,"velocity":0.7874015748031497,"duration":0.13043475000000626},{"name":"C4","midi":60,"time":75.13041600000031,"velocity":0.7874015748031497,"duration":0.13043475000000626},{"name":"C2","midi":36,"time":75.13041600000031,"velocity":0.7874015748031497,"duration":0.13043475000000626},{"name":"G2","midi":43,"time":75.26085075000032,"velocity":0.7874015748031497,"duration":0.13043475000000626},{"name":"C3","midi":48,"time":75.39128550000032,"velocity":0.7874015748031497,"duration":0.13043475000000626},{"name":"G2","midi":43,"time":75.52172025000033,"velocity":0.7874015748031497,"duration":0.13043475000000626},{"name":"C4","midi":60,"time":75.65215500000033,"velocity":0.7874015748031497,"duration":0.13043475000000626},{"name":"C2","midi":36,"time":75.65215500000033,"velocity":0.7874015748031497,"duration":0.13043475000000626},{"name":"G2","midi":43,"time":75.78258975000034,"velocity":0.7874015748031497,"duration":0.13043475000000626},{"name":"C3","midi":48,"time":75.91302450000035,"velocity":0.7874015748031497,"duration":0.13043475000000626},{"name":"C4","midi":60,"time":76.04345925000035,"velocity":0.7874015748031497,"duration":0.13043475000000626},{"name":"G2","midi":43,"time":76.04345925000035,"velocity":0.7874015748031497,"duration":0.13043475000000626},{"name":"C2","midi":36,"time":76.17389400000036,"velocity":0.7874015748031497,"duration":0.13043475000000626},{"name":"C4","midi":60,"time":76.30432875000037,"velocity":0.7874015748031497,"duration":0.13043475000000626},{"name":"G2","midi":43,"time":76.30432875000037,"velocity":0.7874015748031497,"duration":0.13043475000000626},{"name":"C4","midi":60,"time":76.43476350000037,"velocity":0.7874015748031497,"duration":0.13043475000000626},{"name":"C3","midi":48,"time":76.43476350000037,"velocity":0.7874015748031497,"duration":0.13043475000000626},{"name":"C4","midi":60,"time":76.56519825000038,"velocity":0.7874015748031497,"duration":0.13043475000000626},{"name":"G2","midi":43,"time":76.56519825000038,"velocity":0.7874015748031497,"duration":0.13043475000000626},{"name":"C4","midi":60,"time":76.69563300000038,"velocity":0.7874015748031497,"duration":0.13043475000000626},{"name":"C2","midi":36,"time":76.69563300000038,"velocity":0.7874015748031497,"duration":0.13043475000000626},{"name":"C4","midi":60,"time":76.82606775000039,"velocity":0.7874015748031497,"duration":0.13043475000000626},{"name":"G2","midi":43,"time":76.82606775000039,"velocity":0.7874015748031497,"duration":0.13043475000000626},{"name":"C3","midi":48,"time":76.9565025000004,"velocity":0.7874015748031497,"duration":0.13043475000000626},{"name":"G2","midi":43,"time":77.0869372500004,"velocity":0.7874015748031497,"duration":0.13043475000000626},{"name":"A#3","midi":58,"time":77.21737200000041,"velocity":0.7874015748031497,"duration":0.13043475000000626},{"name":"A#1","midi":34,"time":77.21737200000041,"velocity":0.7874015748031497,"duration":0.13043475000000626},{"name":"F2","midi":41,"time":77.34780675000042,"velocity":0.7874015748031497,"duration":0.13043475000000626},{"name":"A#2","midi":46,"time":77.47824150000042,"velocity":0.7874015748031497,"duration":0.13043475000000626},{"name":"F2","midi":41,"time":77.60867625000043,"velocity":0.7874015748031497,"duration":0.13043475000000626},{"name":"A#3","midi":58,"time":77.73911100000043,"velocity":0.7874015748031497,"duration":0.13043475000000626},{"name":"A#1","midi":34,"time":77.73911100000043,"velocity":0.7874015748031497,"duration":0.13043475000000626},{"name":"F2","midi":41,"time":77.86954575000044,"velocity":0.7874015748031497,"duration":0.13043475000000626},{"name":"A#2","midi":46,"time":77.99998050000045,"velocity":0.7874015748031497,"duration":0.13043475000000626},{"name":"A#3","midi":58,"time":78.13041525000045,"velocity":0.7874015748031497,"duration":0.13043475000000626},{"name":"F2","midi":41,"time":78.13041525000045,"velocity":0.7874015748031497,"duration":0.13043475000000626},{"name":"A#1","midi":34,"time":78.26085000000046,"velocity":0.7874015748031497,"duration":0.13043475000000626},{"name":"A#3","midi":58,"time":78.39128475000047,"velocity":0.7874015748031497,"duration":0.13043475000000626},{"name":"F2","midi":41,"time":78.39128475000047,"velocity":0.7874015748031497,"duration":0.13043475000000626},{"name":"A#3","midi":58,"time":78.52171950000047,"velocity":0.7874015748031497,"duration":0.13043475000000626},{"name":"A#2","midi":46,"time":78.52171950000047,"velocity":0.7874015748031497,"duration":0.13043475000000626},{"name":"A#3","midi":58,"time":78.65215425000048,"velocity":0.7874015748031497,"duration":0.13043475000000626},{"name":"F2","midi":41,"time":78.65215425000048,"velocity":0.7874015748031497,"duration":0.13043475000000626},{"name":"A#3","midi":58,"time":78.78258900000048,"velocity":0.7874015748031497,"duration":0.13043475000000626},{"name":"A#1","midi":34,"time":78.78258900000048,"velocity":0.7874015748031497,"duration":0.13043475000000626},{"name":"A#3","midi":58,"time":78.91302375000049,"velocity":0.7874015748031497,"duration":0.13043475000000626},{"name":"F2","midi":41,"time":78.91302375000049,"velocity":0.7874015748031497,"duration":0.13043475000000626},{"name":"A#2","midi":46,"time":79.0434585000005,"velocity":0.7874015748031497,"duration":0.13043475000000626},{"name":"F2","midi":41,"time":79.1738932500005,"velocity":0.7874015748031497,"duration":0.13043475000000626},{"name":"C4","midi":60,"time":79.30432800000051,"velocity":0.7874015748031497,"duration":0.13043475000000626},{"name":"C2","midi":36,"time":79.30432800000051,"velocity":0.7874015748031497,"duration":0.13043475000000626},{"name":"G2","midi":43,"time":79.43476275000052,"velocity":0.7874015748031497,"duration":0.13043475000000626},{"name":"C3","midi":48,"time":79.56519750000052,"velocity":0.7874015748031497,"duration":0.13043475000000626},{"name":"G2","midi":43,"time":79.69563225000053,"velocity":0.7874015748031497,"duration":0.13043475000000626},{"name":"C4","midi":60,"time":79.82606700000053,"velocity":0.7874015748031497,"duration":0.13043475000000626},{"name":"C2","midi":36,"time":79.82606700000053,"velocity":0.7874015748031497,"duration":0.13043475000000626},{"name":"G2","midi":43,"time":79.95650175000054,"velocity":0.7874015748031497,"duration":0.13043475000000626},{"name":"C3","midi":48,"time":80.08693650000055,"velocity":0.7874015748031497,"duration":0.13043475000000626},{"name":"C4","midi":60,"time":80.21737125000055,"velocity":0.7874015748031497,"duration":0.13043475000000626},{"name":"G2","midi":43,"time":80.21737125000055,"velocity":0.7874015748031497,"duration":0.13043475000000626},{"name":"C2","midi":36,"time":80.34780600000056,"velocity":0.7874015748031497,"duration":0.13043475000000626},{"name":"C4","midi":60,"time":80.47824075000057,"velocity":0.7874015748031497,"duration":0.13043475000000626},{"name":"G2","midi":43,"time":80.47824075000057,"velocity":0.7874015748031497,"duration":0.13043475000000626},{"name":"C4","midi":60,"time":80.60867550000057,"velocity":0.7874015748031497,"duration":0.13043475000000626},{"name":"C3","midi":48,"time":80.60867550000057,"velocity":0.7874015748031497,"duration":0.13043475000000626},{"name":"C4","midi":60,"time":80.73911025000058,"velocity":0.7874015748031497,"duration":0.13043475000000626},{"name":"G2","midi":43,"time":80.73911025000058,"velocity":0.7874015748031497,"duration":0.13043475000000626},{"name":"C4","midi":60,"time":80.86954500000058,"velocity":0.7874015748031497,"duration":0.13043475000000626},{"name":"C2","midi":36,"time":80.86954500000058,"velocity":0.7874015748031497,"duration":0.13043475000000626},{"name":"C4","midi":60,"time":80.99997975000059,"velocity":0.7874015748031497,"duration":0.13043475000000626},{"name":"G2","midi":43,"time":80.99997975000059,"velocity":0.7874015748031497,"duration":0.13043475000000626},{"name":"C3","midi":48,"time":81.1304145000006,"velocity":0.7874015748031497,"duration":0.13043475000000626},{"name":"G2","midi":43,"time":81.2608492500006,"velocity":0.7874015748031497,"duration":0.13043475000000626},{"name":"D4","midi":62,"time":81.39128400000061,"velocity":0.7874015748031497,"duration":0.13043475000000626},{"name":"D2","midi":38,"time":81.39128400000061,"velocity":0.7874015748031497,"duration":0.13043475000000626},{"name":"A2","midi":45,"time":81.52171875000062,"velocity":0.7874015748031497,"duration":0.13043475000000626},{"name":"D3","midi":50,"time":81.65215350000062,"velocity":0.7874015748031497,"duration":0.13043475000000626},{"name":"A2","midi":45,"time":81.78258825000063,"velocity":0.7874015748031497,"duration":0.13043475000000626},{"name":"D4","midi":62,"time":81.91302300000063,"velocity":0.7874015748031497,"duration":0.13043475000000626},{"name":"D2","midi":38,"time":81.91302300000063,"velocity":0.7874015748031497,"duration":0.13043475000000626},{"name":"A2","midi":45,"time":82.04345775000064,"velocity":0.7874015748031497,"duration":0.13043475000000626},{"name":"D3","midi":50,"time":82.17389250000065,"velocity":0.7874015748031497,"duration":0.13043475000000626},{"name":"D4","midi":62,"time":82.30432725000065,"velocity":0.7874015748031497,"duration":0.13043475000000626},{"name":"A2","midi":45,"time":82.30432725000065,"velocity":0.7874015748031497,"duration":0.13043475000000626},{"name":"D2","midi":38,"time":82.43476200000066,"velocity":0.7874015748031497,"duration":0.13043475000000626},{"name":"D4","midi":62,"time":82.56519675000067,"velocity":0.7874015748031497,"duration":0.13043475000000626},{"name":"A2","midi":45,"time":82.56519675000067,"velocity":0.7874015748031497,"duration":0.13043475000000626},{"name":"D4","midi":62,"time":82.69563150000067,"velocity":0.7874015748031497,"duration":0.13043475000000626},{"name":"D3","midi":50,"time":82.69563150000067,"velocity":0.7874015748031497,"duration":0.13043475000000626},{"name":"D4","midi":62,"time":82.82606625000068,"velocity":0.7874015748031497,"duration":0.13043475000000626},{"name":"A2","midi":45,"time":82.82606625000068,"velocity":0.7874015748031497,"duration":0.13043475000000626},{"name":"D4","midi":62,"time":82.95650100000069,"velocity":0.7874015748031497,"duration":0.13043475000000626},{"name":"D2","midi":38,"time":82.95650100000069,"velocity":0.7874015748031497,"duration":0.13043475000000626},{"name":"D4","midi":62,"time":83.08693575000069,"velocity":0.7874015748031497,"duration":0.13043475000000626},{"name":"A2","midi":45,"time":83.08693575000069,"velocity":0.7874015748031497,"duration":0.13043475000000626},{"name":"D3","midi":50,"time":83.2173705000007,"velocity":0.7874015748031497,"duration":0.13043475000000626},{"name":"A2","midi":45,"time":83.3478052500007,"velocity":0.7874015748031497,"duration":0.13043475000000626},{"name":"D4","midi":62,"time":83.47824000000071,"velocity":0.7874015748031497,"duration":0.13043475000000626},{"name":"E2","midi":40,"time":83.47824000000071,"velocity":0.7874015748031497,"duration":0.13043475000000626},{"name":"D4","midi":62,"time":83.60867475000072,"velocity":0.7874015748031497,"duration":0.13043475000000626},{"name":"D3","midi":50,"time":83.60867475000072,"velocity":0.7874015748031497,"duration":0.13043475000000626},{"name":"D4","midi":62,"time":83.73910950000072,"velocity":0.7874015748031497,"duration":0.13043475000000626},{"name":"E3","midi":52,"time":83.73910950000072,"velocity":0.7874015748031497,"duration":0.13043475000000626},{"name":"D4","midi":62,"time":83.86954425000073,"velocity":0.7874015748031497,"duration":0.13043475000000626},{"name":"D3","midi":50,"time":83.86954425000073,"velocity":0.7874015748031497,"duration":0.13043475000000626},{"name":"E2","midi":40,"time":83.99997900000074,"velocity":0.7874015748031497,"duration":0.13043475000000626},{"name":"D4","midi":62,"time":84.13041375000074,"velocity":0.7874015748031497,"duration":0.13043475000000626},{"name":"D3","midi":50,"time":84.13041375000074,"velocity":0.7874015748031497,"duration":0.13043475000000626},{"name":"E3","midi":52,"time":84.26084850000075,"velocity":0.7874015748031497,"duration":0.13043475000000626},{"name":"D4","midi":62,"time":84.39128325000075,"velocity":0.7874015748031497,"duration":0.13043475000000626},{"name":"D3","midi":50,"time":84.39128325000075,"velocity":0.7874015748031497,"duration":0.13043475000000626},{"name":"E2","midi":40,"time":84.52171800000076,"velocity":0.7874015748031497,"duration":0.13043475000000626},{"name":"D4","midi":62,"time":84.65215275000077,"velocity":0.7874015748031497,"duration":0.13043475000000626},{"name":"D3","midi":50,"time":84.65215275000077,"velocity":0.7874015748031497,"duration":0.13043475000000626},{"name":"D4","midi":62,"time":84.78258750000077,"velocity":0.7874015748031497,"duration":0.13043475000000626},{"name":"E3","midi":52,"time":84.78258750000077,"velocity":0.7874015748031497,"duration":0.13043475000000626},{"name":"D4","midi":62,"time":84.91302225000078,"velocity":0.7874015748031497,"duration":0.13043475000000626},{"name":"D3","midi":50,"time":84.91302225000078,"velocity":0.7874015748031497,"duration":0.13043475000000626},{"name":"E2","midi":40,"time":85.04345700000079,"velocity":0.7874015748031497,"duration":0.13043475000000626},{"name":"D4","midi":62,"time":85.17389175000079,"velocity":0.7874015748031497,"duration":0.13043475000000626},{"name":"D3","midi":50,"time":85.17389175000079,"velocity":0.7874015748031497,"duration":0.13043475000000626},{"name":"E3","midi":52,"time":85.3043265000008,"velocity":0.7874015748031497,"duration":0.13043475000000626},{"name":"D4","midi":62,"time":85.4347612500008,"velocity":0.7874015748031497,"duration":0.13043475000000626},{"name":"D3","midi":50,"time":85.4347612500008,"velocity":0.7874015748031497,"duration":0.13043475000000626},{"name":"A#3","midi":58,"time":85.56519600000081,"velocity":0.7874015748031497,"duration":0.13043475000000626},{"name":"A#1","midi":34,"time":85.56519600000081,"velocity":0.7874015748031497,"duration":0.13043475000000626},{"name":"F2","midi":41,"time":85.69563075000082,"velocity":0.7874015748031497,"duration":0.13043475000000626},{"name":"A#2","midi":46,"time":85.82606550000082,"velocity":0.7874015748031497,"duration":0.13043475000000626},{"name":"F2","midi":41,"time":85.95650025000083,"velocity":0.7874015748031497,"duration":0.13043475000000626},{"name":"A#3","midi":58,"time":86.08693500000084,"velocity":0.7874015748031497,"duration":0.13043475000000626},{"name":"A#1","midi":34,"time":86.08693500000084,"velocity":0.7874015748031497,"duration":0.13043475000000626},{"name":"F2","midi":41,"time":86.21736975000084,"velocity":0.7874015748031497,"duration":0.13043475000000626},{"name":"A#2","midi":46,"time":86.34780450000085,"velocity":0.7874015748031497,"duration":0.13043475000000626},{"name":"A#3","midi":58,"time":86.47823925000085,"velocity":0.7874015748031497,"duration":0.13043475000000626},{"name":"F2","midi":41,"time":86.47823925000085,"velocity":0.7874015748031497,"duration":0.13043475000000626},{"name":"A#1","midi":34,"time":86.60867400000086,"velocity":0.7874015748031497,"duration":0.13043475000000626},{"name":"A#3","midi":58,"time":86.73910875000087,"velocity":0.7874015748031497,"duration":0.13043475000000626},{"name":"F2","midi":41,"time":86.73910875000087,"velocity":0.7874015748031497,"duration":0.13043475000000626},{"name":"A#3","midi":58,"time":86.86954350000087,"velocity":0.7874015748031497,"duration":0.13043475000000626},{"name":"A#2","midi":46,"time":86.86954350000087,"velocity":0.7874015748031497,"duration":0.13043475000000626},{"name":"A#3","midi":58,"time":86.99997825000088,"velocity":0.7874015748031497,"duration":0.13043475000000626},{"name":"F2","midi":41,"time":86.99997825000088,"velocity":0.7874015748031497,"duration":0.13043475000000626},{"name":"A#3","midi":58,"time":87.13041300000089,"velocity":0.7874015748031497,"duration":0.13043475000000626},{"name":"A#1","midi":34,"time":87.13041300000089,"velocity":0.7874015748031497,"duration":0.13043475000000626},{"name":"A#3","midi":58,"time":87.26084775000089,"velocity":0.7874015748031497,"duration":0.13043475000000626},{"name":"F2","midi":41,"time":87.26084775000089,"velocity":0.7874015748031497,"duration":0.13043475000000626},{"name":"A#2","midi":46,"time":87.3912825000009,"velocity":0.7874015748031497,"duration":0.13043475000000626},{"name":"F2","midi":41,"time":87.5217172500009,"velocity":0.7874015748031497,"duration":0.13043475000000626},{"name":"C4","midi":60,"time":87.65215200000091,"velocity":0.7874015748031497,"duration":0.13043475000000626},{"name":"C2","midi":36,"time":87.65215200000091,"velocity":0.7874015748031497,"duration":0.13043475000000626},{"name":"G2","midi":43,"time":87.78258675000092,"velocity":0.7874015748031497,"duration":0.13043475000000626},{"name":"C3","midi":48,"time":87.91302150000092,"velocity":0.7874015748031497,"duration":0.13043475000000626},{"name":"G2","midi":43,"time":88.04345625000093,"velocity":0.7874015748031497,"duration":0.13043475000000626},{"name":"C4","midi":60,"time":88.17389100000094,"velocity":0.7874015748031497,"duration":0.13043475000000626},{"name":"C2","midi":36,"time":88.17389100000094,"velocity":0.7874015748031497,"duration":0.13043475000000626},{"name":"G2","midi":43,"time":88.30432575000094,"velocity":0.7874015748031497,"duration":0.13043475000000626},{"name":"C3","midi":48,"time":88.43476050000095,"velocity":0.7874015748031497,"duration":0.13043475000000626},{"name":"C4","midi":60,"time":88.56519525000095,"velocity":0.7874015748031497,"duration":0.13043475000000626},{"name":"G2","midi":43,"time":88.56519525000095,"velocity":0.7874015748031497,"duration":0.13043475000000626},{"name":"C2","midi":36,"time":88.69563000000096,"velocity":0.7874015748031497,"duration":0.13043475000000626},{"name":"C4","midi":60,"time":88.82606475000097,"velocity":0.7874015748031497,"duration":0.13043475000000626},{"name":"G2","midi":43,"time":88.82606475000097,"velocity":0.7874015748031497,"duration":0.13043475000000626},{"name":"C4","midi":60,"time":88.95649950000097,"velocity":0.7874015748031497,"duration":0.13043475000000626},{"name":"C3","midi":48,"time":88.95649950000097,"velocity":0.7874015748031497,"duration":0.13043475000000626},{"name":"C4","midi":60,"time":89.08693425000098,"velocity":0.7874015748031497,"duration":0.13043475000000626},{"name":"G2","midi":43,"time":89.08693425000098,"velocity":0.7874015748031497,"duration":0.13043475000000626},{"name":"C4","midi":60,"time":89.21736900000099,"velocity":0.7874015748031497,"duration":0.13043475000000626},{"name":"C2","midi":36,"time":89.21736900000099,"velocity":0.7874015748031497,"duration":0.13043475000000626},{"name":"C4","midi":60,"time":89.34780375000099,"velocity":0.7874015748031497,"duration":0.13043475000000626},{"name":"G2","midi":43,"time":89.34780375000099,"velocity":0.7874015748031497,"duration":0.13043475000000626},{"name":"C3","midi":48,"time":89.478238500001,"velocity":0.7874015748031497,"duration":0.13043475000000626},{"name":"G2","midi":43,"time":89.608673250001,"velocity":0.7874015748031497,"duration":0.13043475000000626},{"name":"D4","midi":62,"time":89.73910800000101,"velocity":0.7874015748031497,"duration":0.13043475000000626},{"name":"D2","midi":38,"time":89.73910800000101,"velocity":0.7874015748031497,"duration":0.13043475000000626},{"name":"A2","midi":45,"time":89.86954275000102,"velocity":0.7874015748031497,"duration":0.13043475000000626},{"name":"D3","midi":50,"time":89.99997750000102,"velocity":0.7874015748031497,"duration":0.13043475000000626},{"name":"A2","midi":45,"time":90.13041225000103,"velocity":0.7874015748031497,"duration":0.13043475000000626},{"name":"D4","midi":62,"time":90.26084700000104,"velocity":0.7874015748031497,"duration":0.13043475000000626},{"name":"D2","midi":38,"time":90.26084700000104,"velocity":0.7874015748031497,"duration":0.13043475000000626},{"name":"A2","midi":45,"time":90.39128175000104,"velocity":0.7874015748031497,"duration":0.13043475000000626},{"name":"D3","midi":50,"time":90.52171650000105,"velocity":0.7874015748031497,"duration":0.13043475000000626},{"name":"D4","midi":62,"time":90.65215125000105,"velocity":0.7874015748031497,"duration":0.13043475000000626},{"name":"A2","midi":45,"time":90.65215125000105,"velocity":0.7874015748031497,"duration":0.13043475000000626},{"name":"D2","midi":38,"time":90.78258600000106,"velocity":0.7874015748031497,"duration":0.13043475000000626},{"name":"D4","midi":62,"time":90.91302075000107,"velocity":0.7874015748031497,"duration":0.13043475000000626},{"name":"A2","midi":45,"time":90.91302075000107,"velocity":0.7874015748031497,"duration":0.13043475000000626},{"name":"D4","midi":62,"time":91.04345550000107,"velocity":0.7874015748031497,"duration":0.13043475000000626},{"name":"D3","midi":50,"time":91.04345550000107,"velocity":0.7874015748031497,"duration":0.13043475000000626},{"name":"D4","midi":62,"time":91.17389025000108,"velocity":0.7874015748031497,"duration":0.13043475000000626},{"name":"A2","midi":45,"time":91.17389025000108,"velocity":0.7874015748031497,"duration":0.13043475000000626},{"name":"D4","midi":62,"time":91.30432500000109,"velocity":0.7874015748031497,"duration":0.13043475000000626},{"name":"D2","midi":38,"time":91.30432500000109,"velocity":0.7874015748031497,"duration":0.13043475000000626},{"name":"D4","midi":62,"time":91.43475975000109,"velocity":0.7874015748031497,"duration":0.13043475000000626},{"name":"A2","midi":45,"time":91.43475975000109,"velocity":0.7874015748031497,"duration":0.13043475000000626},{"name":"D3","midi":50,"time":91.5651945000011,"velocity":0.7874015748031497,"duration":0.13043475000000626},{"name":"A2","midi":45,"time":91.6956292500011,"velocity":0.7874015748031497,"duration":0.13043475000000626},{"name":"C4","midi":60,"time":91.82606400000111,"velocity":0.7874015748031497,"duration":0.13043475000000626},{"name":"C2","midi":36,"time":91.82606400000111,"velocity":0.7874015748031497,"duration":0.13043475000000626},{"name":"G2","midi":43,"time":91.95649875000112,"velocity":0.7874015748031497,"duration":0.13043475000000626},{"name":"C3","midi":48,"time":92.08693350000112,"velocity":0.7874015748031497,"duration":0.13043475000000626},{"name":"G2","midi":43,"time":92.21736825000113,"velocity":0.7874015748031497,"duration":0.13043475000000626},{"name":"C4","midi":60,"time":92.34780300000114,"velocity":0.7874015748031497,"duration":0.13043475000000626},{"name":"C2","midi":36,"time":92.34780300000114,"velocity":0.7874015748031497,"duration":0.13043475000000626},{"name":"G2","midi":43,"time":92.47823775000114,"velocity":0.7874015748031497,"duration":0.13043475000000626},{"name":"C3","midi":48,"time":92.60867250000115,"velocity":0.7874015748031497,"duration":0.13043475000000626},{"name":"C4","midi":60,"time":92.73910725000115,"velocity":0.7874015748031497,"duration":0.13043475000000626},{"name":"G2","midi":43,"time":92.73910725000115,"velocity":0.7874015748031497,"duration":0.13043475000000626},{"name":"C2","midi":36,"time":92.86954200000116,"velocity":0.7874015748031497,"duration":0.13043475000000626},{"name":"C4","midi":60,"time":92.99997675000117,"velocity":0.7874015748031497,"duration":0.13043475000000626},{"name":"G2","midi":43,"time":92.99997675000117,"velocity":0.7874015748031497,"duration":0.13043475000000626},{"name":"C4","midi":60,"time":93.13041150000117,"velocity":0.7874015748031497,"duration":0.13043475000000626},{"name":"C3","midi":48,"time":93.13041150000117,"velocity":0.7874015748031497,"duration":0.13043475000000626},{"name":"C4","midi":60,"time":93.26084625000118,"velocity":0.7874015748031497,"duration":0.13043475000000626},{"name":"G2","midi":43,"time":93.26084625000118,"velocity":0.7874015748031497,"duration":0.13043475000000626},{"name":"C4","midi":60,"time":93.39128100000119,"velocity":0.7874015748031497,"duration":0.13043475000000626},{"name":"C2","midi":36,"time":93.39128100000119,"velocity":0.7874015748031497,"duration":0.13043475000000626},{"name":"C4","midi":60,"time":93.52171575000119,"velocity":0.7874015748031497,"duration":0.13043475000000626},{"name":"G2","midi":43,"time":93.52171575000119,"velocity":0.7874015748031497,"duration":0.13043475000000626},{"name":"C3","midi":48,"time":93.6521505000012,"velocity":0.7874015748031497,"duration":0.13043475000000626},{"name":"G2","midi":43,"time":93.7825852500012,"velocity":0.7874015748031497,"duration":0.13043475000000626},{"name":"A#3","midi":58,"time":93.91302000000121,"velocity":0.7874015748031497,"duration":0.13043475000000626},{"name":"A#1","midi":34,"time":93.91302000000121,"velocity":0.7874015748031497,"duration":0.13043475000000626},{"name":"F2","midi":41,"time":94.04345475000122,"velocity":0.7874015748031497,"duration":0.13043475000000626},{"name":"A#2","midi":46,"time":94.17388950000122,"velocity":0.7874015748031497,"duration":0.13043475000000626},{"name":"F2","midi":41,"time":94.30432425000123,"velocity":0.7874015748031497,"duration":0.13043475000000626},{"name":"A#3","midi":58,"time":94.43475900000124,"velocity":0.7874015748031497,"duration":0.13043475000000626},{"name":"A#1","midi":34,"time":94.43475900000124,"velocity":0.7874015748031497,"duration":0.13043475000000626},{"name":"F2","midi":41,"time":94.56519375000124,"velocity":0.7874015748031497,"duration":0.13043475000000626},{"name":"A#2","midi":46,"time":94.69562850000125,"velocity":0.7874015748031497,"duration":0.13043475000000626},{"name":"A#3","midi":58,"time":94.82606325000125,"velocity":0.7874015748031497,"duration":0.13043475000000626},{"name":"F2","midi":41,"time":94.82606325000125,"velocity":0.7874015748031497,"duration":0.13043475000000626},{"name":"A#1","midi":34,"time":94.95649800000126,"velocity":0.7874015748031497,"duration":0.13043475000000626},{"name":"A#3","midi":58,"time":95.08693275000127,"velocity":0.7874015748031497,"duration":0.13043475000000626},{"name":"F2","midi":41,"time":95.08693275000127,"velocity":0.7874015748031497,"duration":0.13043475000000626},{"name":"A#3","midi":58,"time":95.21736750000127,"velocity":0.7874015748031497,"duration":0.13043475000000626},{"name":"A#2","midi":46,"time":95.21736750000127,"velocity":0.7874015748031497,"duration":0.13043475000000626},{"name":"A#3","midi":58,"time":95.34780225000128,"velocity":0.7874015748031497,"duration":0.13043475000000626},{"name":"F2","midi":41,"time":95.34780225000128,"velocity":0.7874015748031497,"duration":0.13043475000000626},{"name":"A#3","midi":58,"time":95.47823700000129,"velocity":0.7874015748031497,"duration":0.13043475000000626},{"name":"A#1","midi":34,"time":95.47823700000129,"velocity":0.7874015748031497,"duration":0.13043475000000626},{"name":"A#3","midi":58,"time":95.60867175000129,"velocity":0.7874015748031497,"duration":0.13043475000000626},{"name":"F2","midi":41,"time":95.60867175000129,"velocity":0.7874015748031497,"duration":0.13043475000000626},{"name":"A#2","midi":46,"time":95.7391065000013,"velocity":0.7874015748031497,"duration":0.13043475000000626},{"name":"F2","midi":41,"time":95.8695412500013,"velocity":0.7874015748031497,"duration":0.13043475000000626},{"name":"C4","midi":60,"time":95.99997600000131,"velocity":0.7874015748031497,"duration":0.13043475000000626},{"name":"C2","midi":36,"time":95.99997600000131,"velocity":0.7874015748031497,"duration":0.13043475000000626},{"name":"G2","midi":43,"time":96.13041075000132,"velocity":0.7874015748031497,"duration":0.13043475000000626},{"name":"C3","midi":48,"time":96.26084550000132,"velocity":0.7874015748031497,"duration":0.13043475000000626},{"name":"G2","midi":43,"time":96.39128025000133,"velocity":0.7874015748031497,"duration":0.13043475000000626},{"name":"C4","midi":60,"time":96.52171500000134,"velocity":0.7874015748031497,"duration":0.13043475000000626},{"name":"C2","midi":36,"time":96.52171500000134,"velocity":0.7874015748031497,"duration":0.13043475000000626},{"name":"G2","midi":43,"time":96.65214975000134,"velocity":0.7874015748031497,"duration":0.13043475000000626},{"name":"C3","midi":48,"time":96.78258450000135,"velocity":0.7874015748031497,"duration":0.13043475000000626},{"name":"C4","midi":60,"time":96.91301925000135,"velocity":0.7874015748031497,"duration":0.13043475000000626},{"name":"G2","midi":43,"time":96.91301925000135,"velocity":0.7874015748031497,"duration":0.13043475000000626},{"name":"C2","midi":36,"time":97.04345400000136,"velocity":0.7874015748031497,"duration":0.13043475000000626},{"name":"C4","midi":60,"time":97.17388875000137,"velocity":0.7874015748031497,"duration":0.13043475000000626},{"name":"G2","midi":43,"time":97.17388875000137,"velocity":0.7874015748031497,"duration":0.13043475000000626},{"name":"C4","midi":60,"time":97.30432350000137,"velocity":0.7874015748031497,"duration":0.13043475000000626},{"name":"C3","midi":48,"time":97.30432350000137,"velocity":0.7874015748031497,"duration":0.13043475000000626},{"name":"C4","midi":60,"time":97.43475825000138,"velocity":0.7874015748031497,"duration":0.13043475000000626},{"name":"G2","midi":43,"time":97.43475825000138,"velocity":0.7874015748031497,"duration":0.13043475000000626},{"name":"C4","midi":60,"time":97.56519300000139,"velocity":0.7874015748031497,"duration":0.13043475000000626},{"name":"C2","midi":36,"time":97.56519300000139,"velocity":0.7874015748031497,"duration":0.13043475000000626},{"name":"C4","midi":60,"time":97.69562775000139,"velocity":0.7874015748031497,"duration":0.13043475000000626},{"name":"G2","midi":43,"time":97.69562775000139,"velocity":0.7874015748031497,"duration":0.13043475000000626},{"name":"C3","midi":48,"time":97.8260625000014,"velocity":0.7874015748031497,"duration":0.13043475000000626},{"name":"G2","midi":43,"time":97.9564972500014,"velocity":0.7874015748031497,"duration":0.13043475000000626},{"name":"D4","midi":62,"time":98.08693200000141,"velocity":0.7874015748031497,"duration":0.13043475000000626},{"name":"D2","midi":38,"time":98.08693200000141,"velocity":0.7874015748031497,"duration":0.13043475000000626},{"name":"A2","midi":45,"time":98.21736675000142,"velocity":0.7874015748031497,"duration":0.13043475000000626},{"name":"D3","midi":50,"time":98.34780150000142,"velocity":0.7874015748031497,"duration":0.13043475000000626},{"name":"A2","midi":45,"time":98.47823625000143,"velocity":0.7874015748031497,"duration":0.13043475000000626},{"name":"D4","midi":62,"time":98.60867100000144,"velocity":0.7874015748031497,"duration":0.13043475000000626},{"name":"D2","midi":38,"time":98.60867100000144,"velocity":0.7874015748031497,"duration":0.13043475000000626},{"name":"A2","midi":45,"time":98.73910575000144,"velocity":0.7874015748031497,"duration":0.13043475000000626},{"name":"D3","midi":50,"time":98.86954050000145,"velocity":0.7874015748031497,"duration":0.13043475000000626},{"name":"D4","midi":62,"time":98.99997525000146,"velocity":0.7874015748031497,"duration":0.13043475000000626},{"name":"A2","midi":45,"time":98.99997525000146,"velocity":0.7874015748031497,"duration":0.13043475000000626},{"name":"D2","midi":38,"time":99.13041000000146,"velocity":0.7874015748031497,"duration":0.13043475000000626},{"name":"D4","midi":62,"time":99.26084475000147,"velocity":0.7874015748031497,"duration":0.13043475000000626},{"name":"A2","midi":45,"time":99.26084475000147,"velocity":0.7874015748031497,"duration":0.13043475000000626},{"name":"D4","midi":62,"time":99.39127950000147,"velocity":0.7874015748031497,"duration":0.13043475000000626},{"name":"D3","midi":50,"time":99.39127950000147,"velocity":0.7874015748031497,"duration":0.13043475000000626},{"name":"D4","midi":62,"time":99.52171425000148,"velocity":0.7874015748031497,"duration":0.13043475000000626},{"name":"A2","midi":45,"time":99.52171425000148,"velocity":0.7874015748031497,"duration":0.13043475000000626},{"name":"D4","midi":62,"time":99.65214900000149,"velocity":0.7874015748031497,"duration":0.13043475000000626},{"name":"D2","midi":38,"time":99.65214900000149,"velocity":0.7874015748031497,"duration":0.13043475000000626},{"name":"D4","midi":62,"time":99.78258375000149,"velocity":0.7874015748031497,"duration":0.13043475000000626},{"name":"A2","midi":45,"time":99.78258375000149,"velocity":0.7874015748031497,"duration":0.13043475000000626},{"name":"D3","midi":50,"time":99.9130185000015,"velocity":0.7874015748031497,"duration":0.13043475000000626},{"name":"A2","midi":45,"time":100.0434532500015,"velocity":0.7874015748031497,"duration":0.13043475000000626},{"name":"D4","midi":62,"time":100.17388800000151,"velocity":0.7874015748031497,"duration":0.13043475000000626},{"name":"E2","midi":40,"time":100.17388800000151,"velocity":0.7874015748031497,"duration":0.13043475000000626},{"name":"D4","midi":62,"time":100.30432275000152,"velocity":0.7874015748031497,"duration":0.13043475000000626},{"name":"D3","midi":50,"time":100.30432275000152,"velocity":0.7874015748031497,"duration":0.13043475000000626},{"name":"D4","midi":62,"time":100.43475750000152,"velocity":0.7874015748031497,"duration":0.13043475000000626},{"name":"E3","midi":52,"time":100.43475750000152,"velocity":0.7874015748031497,"duration":0.13043475000000626},{"name":"D4","midi":62,"time":100.56519225000153,"velocity":0.7874015748031497,"duration":0.13043475000000626},{"name":"D3","midi":50,"time":100.56519225000153,"velocity":0.7874015748031497,"duration":0.13043475000000626},{"name":"E2","midi":40,"time":100.69562700000154,"velocity":0.7874015748031497,"duration":0.13043475000000626},{"name":"D4","midi":62,"time":100.82606175000154,"velocity":0.7874015748031497,"duration":0.13043475000000626},{"name":"D3","midi":50,"time":100.82606175000154,"velocity":0.7874015748031497,"duration":0.13043475000000626},{"name":"E3","midi":52,"time":100.95649650000155,"velocity":0.7874015748031497,"duration":0.13043475000000626},{"name":"D4","midi":62,"time":101.08693125000156,"velocity":0.7874015748031497,"duration":0.13043475000000626},{"name":"D3","midi":50,"time":101.08693125000156,"velocity":0.7874015748031497,"duration":0.13043475000000626},{"name":"E2","midi":40,"time":101.21736600000156,"velocity":0.7874015748031497,"duration":0.2608695000000125},{"name":"D4","midi":62,"time":101.34780075000157,"velocity":0.7874015748031497,"duration":0.13043475000000626},{"name":"D4","midi":62,"time":101.47823550000157,"velocity":0.7874015748031497,"duration":0.13043475000000626},{"name":"D3","midi":50,"time":101.47823550000157,"velocity":0.7874015748031497,"duration":0.2608695000000125},{"name":"D4","midi":62,"time":101.60867025000158,"velocity":0.7874015748031497,"duration":0.13043475000000626},{"name":"E3","midi":52,"time":101.73910500000159,"velocity":0.7874015748031497,"duration":0.2608695000000125},{"name":"D4","midi":62,"time":101.86953975000159,"velocity":0.7874015748031497,"duration":0.13043475000000626},{"name":"D3","midi":50,"time":101.9999745000016,"velocity":0.7874015748031497,"duration":0.2608695000000125},{"name":"D4","midi":62,"time":102.1304092500016,"velocity":0.7874015748031497,"duration":0.13043475000000626},{"name":"A#1","midi":34,"time":110.60866800000161,"velocity":0.7874015748031497,"duration":0.13043475000000626},{"name":"F2","midi":41,"time":110.73910275000162,"velocity":0.7874015748031497,"duration":0.13043475000000626},{"name":"A#2","midi":46,"time":110.86953750000163,"velocity":0.7874015748031497,"duration":0.13043475000000626},{"name":"F2","midi":41,"time":110.99997225000163,"velocity":0.7874015748031497,"duration":0.13043475000000626},{"name":"A#1","midi":34,"time":111.13040700000164,"velocity":0.7874015748031497,"duration":0.13043475000000626},{"name":"F2","midi":41,"time":111.26084175000165,"velocity":0.7874015748031497,"duration":0.13043475000000626},{"name":"A#2","midi":46,"time":111.39127650000165,"velocity":0.7874015748031497,"duration":0.13043475000000626},{"name":"F2","midi":41,"time":111.52171125000166,"velocity":0.7874015748031497,"duration":0.13043475000000626},{"name":"A#1","midi":34,"time":111.65214600000166,"velocity":0.7874015748031497,"duration":0.13043475000000626},{"name":"F2","midi":41,"time":111.78258075000167,"velocity":0.7874015748031497,"duration":0.13043475000000626},{"name":"A#2","midi":46,"time":111.91301550000168,"velocity":0.7874015748031497,"duration":0.13043475000000626},{"name":"F2","midi":41,"time":112.04345025000168,"velocity":0.7874015748031497,"duration":0.13043475000000626},{"name":"A#1","midi":34,"time":112.17388500000169,"velocity":0.7874015748031497,"duration":0.13043475000000626},{"name":"F2","midi":41,"time":112.3043197500017,"velocity":0.7874015748031497,"duration":0.13043475000000626},{"name":"A#2","midi":46,"time":112.4347545000017,"velocity":0.7874015748031497,"duration":0.13043475000000626},{"name":"F2","midi":41,"time":112.56518925000171,"velocity":0.7874015748031497,"duration":0.13043475000000626},{"name":"C2","midi":36,"time":112.69562400000171,"velocity":0.7874015748031497,"duration":0.13043475000000626},{"name":"G2","midi":43,"time":112.82605875000172,"velocity":0.7874015748031497,"duration":0.13043475000000626},{"name":"C3","midi":48,"time":112.95649350000173,"velocity":0.7874015748031497,"duration":0.13043475000000626},{"name":"G2","midi":43,"time":113.08692825000173,"velocity":0.7874015748031497,"duration":0.13043475000000626},{"name":"C2","midi":36,"time":113.21736300000174,"velocity":0.7874015748031497,"duration":0.13043475000000626},{"name":"G2","midi":43,"time":113.34779775000175,"velocity":0.7874015748031497,"duration":0.13043475000000626},{"name":"C3","midi":48,"time":113.47823250000175,"velocity":0.7874015748031497,"duration":0.13043475000000626},{"name":"G2","midi":43,"time":113.60866725000176,"velocity":0.7874015748031497,"duration":0.13043475000000626},{"name":"C2","midi":36,"time":113.73910200000176,"velocity":0.7874015748031497,"duration":0.13043475000000626},{"name":"G2","midi":43,"time":113.86953675000177,"velocity":0.7874015748031497,"duration":0.13043475000000626},{"name":"C3","midi":48,"time":113.99997150000178,"velocity":0.7874015748031497,"duration":0.13043475000000626},{"name":"G2","midi":43,"time":114.13040625000178,"velocity":0.7874015748031497,"duration":0.13043475000000626},{"name":"C2","midi":36,"time":114.26084100000179,"velocity":0.7874015748031497,"duration":0.13043475000000626},{"name":"G2","midi":43,"time":114.3912757500018,"velocity":0.7874015748031497,"duration":0.13043475000000626},{"name":"C3","midi":48,"time":114.5217105000018,"velocity":0.7874015748031497,"duration":0.13043475000000626},{"name":"G2","midi":43,"time":114.65214525000181,"velocity":0.7874015748031497,"duration":0.13043475000000626},{"name":"D2","midi":38,"time":114.78258000000181,"velocity":0.7874015748031497,"duration":0.13043475000000626},{"name":"A2","midi":45,"time":114.91301475000182,"velocity":0.7874015748031497,"duration":0.13043475000000626},{"name":"D3","midi":50,"time":115.04344950000183,"velocity":0.7874015748031497,"duration":0.13043475000000626},{"name":"A2","midi":45,"time":115.17388425000183,"velocity":0.7874015748031497,"duration":0.13043475000000626},{"name":"D2","midi":38,"time":115.30431900000184,"velocity":0.7874015748031497,"duration":0.13043475000000626},{"name":"A2","midi":45,"time":115.43475375000185,"velocity":0.7874015748031497,"duration":0.13043475000000626},{"name":"D3","midi":50,"time":115.56518850000185,"velocity":0.7874015748031497,"duration":0.13043475000000626},{"name":"A2","midi":45,"time":115.69562325000186,"velocity":0.7874015748031497,"duration":0.13043475000000626},{"name":"D2","midi":38,"time":115.82605800000186,"velocity":0.7874015748031497,"duration":0.13043475000000626},{"name":"A2","midi":45,"time":115.95649275000187,"velocity":0.7874015748031497,"duration":0.13043475000000626},{"name":"D3","midi":50,"time":116.08692750000188,"velocity":0.7874015748031497,"duration":0.13043475000000626},{"name":"A2","midi":45,"time":116.21736225000188,"velocity":0.7874015748031497,"duration":0.13043475000000626},{"name":"D2","midi":38,"time":116.34779700000189,"velocity":0.7874015748031497,"duration":0.13043475000000626},{"name":"A2","midi":45,"time":116.4782317500019,"velocity":0.7874015748031497,"duration":0.13043475000000626},{"name":"D3","midi":50,"time":116.6086665000019,"velocity":0.7874015748031497,"duration":0.13043475000000626},{"name":"A2","midi":45,"time":116.73910125000191,"velocity":0.7874015748031497,"duration":0.13043475000000626},{"name":"C2","midi":36,"time":116.86953600000191,"velocity":0.7874015748031497,"duration":0.13043475000000626},{"name":"G2","midi":43,"time":116.99997075000192,"velocity":0.7874015748031497,"duration":0.13043475000000626},{"name":"C3","midi":48,"time":117.13040550000193,"velocity":0.7874015748031497,"duration":0.13043475000000626},{"name":"G2","midi":43,"time":117.26084025000193,"velocity":0.7874015748031497,"duration":0.13043475000000626},{"name":"C2","midi":36,"time":117.39127500000194,"velocity":0.7874015748031497,"duration":0.13043475000000626},{"name":"G2","midi":43,"time":117.52170975000195,"velocity":0.7874015748031497,"duration":0.13043475000000626},{"name":"C3","midi":48,"time":117.65214450000195,"velocity":0.7874015748031497,"duration":0.13043475000000626},{"name":"G2","midi":43,"time":117.78257925000196,"velocity":0.7874015748031497,"duration":0.13043475000000626},{"name":"C2","midi":36,"time":117.91301400000197,"velocity":0.7874015748031497,"duration":0.13043475000000626},{"name":"G2","midi":43,"time":118.04344875000197,"velocity":0.7874015748031497,"duration":0.13043475000000626},{"name":"C3","midi":48,"time":118.17388350000198,"velocity":0.7874015748031497,"duration":0.13043475000000626},{"name":"G2","midi":43,"time":118.30431825000198,"velocity":0.7874015748031497,"duration":0.13043475000000626},{"name":"C2","midi":36,"time":118.43475300000199,"velocity":0.7874015748031497,"duration":0.13043475000000626},{"name":"G2","midi":43,"time":118.565187750002,"velocity":0.7874015748031497,"duration":0.13043475000000626},{"name":"C3","midi":48,"time":118.695622500002,"velocity":0.7874015748031497,"duration":0.13043475000000626},{"name":"G2","midi":43,"time":118.82605725000201,"velocity":0.7874015748031497,"duration":0.13043475000000626},{"name":"A#1","midi":34,"time":118.95649200000202,"velocity":0.7874015748031497,"duration":0.13043475000000626},{"name":"F2","midi":41,"time":119.08692675000202,"velocity":0.7874015748031497,"duration":0.13043475000000626},{"name":"A#2","midi":46,"time":119.21736150000203,"velocity":0.7874015748031497,"duration":0.13043475000000626},{"name":"F2","midi":41,"time":119.34779625000203,"velocity":0.7874015748031497,"duration":0.13043475000000626},{"name":"A#1","midi":34,"time":119.47823100000204,"velocity":0.7874015748031497,"duration":0.13043475000000626},{"name":"F2","midi":41,"time":119.60866575000205,"velocity":0.7874015748031497,"duration":0.13043475000000626},{"name":"A#2","midi":46,"time":119.73910050000205,"velocity":0.7874015748031497,"duration":0.13043475000000626},{"name":"F2","midi":41,"time":119.86953525000206,"velocity":0.7874015748031497,"duration":0.13043475000000626},{"name":"A#1","midi":34,"time":119.99997000000207,"velocity":0.7874015748031497,"duration":0.13043475000000626},{"name":"F2","midi":41,"time":120.13040475000207,"velocity":0.7874015748031497,"duration":0.13043475000000626},{"name":"A#2","midi":46,"time":120.26083950000208,"velocity":0.7874015748031497,"duration":0.13043475000000626},{"name":"F2","midi":41,"time":120.39127425000208,"velocity":0.7874015748031497,"duration":0.13043475000000626},{"name":"A#1","midi":34,"time":120.52170900000209,"velocity":0.7874015748031497,"duration":0.13043475000000626},{"name":"F2","midi":41,"time":120.6521437500021,"velocity":0.7874015748031497,"duration":0.13043475000000626},{"name":"A#2","midi":46,"time":120.7825785000021,"velocity":0.7874015748031497,"duration":0.13043475000000626},{"name":"F2","midi":41,"time":120.91301325000211,"velocity":0.7874015748031497,"duration":0.13043475000000626},{"name":"C2","midi":36,"time":121.04344800000212,"velocity":0.7874015748031497,"duration":0.13043475000000626},{"name":"G2","midi":43,"time":121.17388275000212,"velocity":0.7874015748031497,"duration":0.13043475000000626},{"name":"C3","midi":48,"time":121.30431750000213,"velocity":0.7874015748031497,"duration":0.13043475000000626},{"name":"G2","midi":43,"time":121.43475225000213,"velocity":0.7874015748031497,"duration":0.13043475000000626},{"name":"C2","midi":36,"time":121.56518700000214,"velocity":0.7874015748031497,"duration":0.13043475000000626},{"name":"G2","midi":43,"time":121.69562175000215,"velocity":0.7874015748031497,"duration":0.13043475000000626},{"name":"C3","midi":48,"time":121.82605650000215,"velocity":0.7874015748031497,"duration":0.13043475000000626},{"name":"G2","midi":43,"time":121.95649125000216,"velocity":0.7874015748031497,"duration":0.13043475000000626},{"name":"C2","midi":36,"time":122.08692600000217,"velocity":0.7874015748031497,"duration":0.13043475000000626},{"name":"G2","midi":43,"time":122.21736075000217,"velocity":0.7874015748031497,"duration":0.13043475000000626},{"name":"C3","midi":48,"time":122.34779550000218,"velocity":0.7874015748031497,"duration":0.13043475000000626},{"name":"G2","midi":43,"time":122.47823025000218,"velocity":0.7874015748031497,"duration":0.13043475000000626},{"name":"C2","midi":36,"time":122.60866500000219,"velocity":0.7874015748031497,"duration":0.13043475000000626},{"name":"G2","midi":43,"time":122.7390997500022,"velocity":0.7874015748031497,"duration":0.13043475000000626},{"name":"C3","midi":48,"time":122.8695345000022,"velocity":0.7874015748031497,"duration":0.13043475000000626},{"name":"G2","midi":43,"time":122.99996925000221,"velocity":0.7874015748031497,"duration":0.13043475000000626},{"name":"D2","midi":38,"time":123.13040400000222,"velocity":0.7874015748031497,"duration":0.13043475000000626},{"name":"A2","midi":45,"time":123.26083875000222,"velocity":0.7874015748031497,"duration":0.13043475000000626},{"name":"D3","midi":50,"time":123.39127350000223,"velocity":0.7874015748031497,"duration":0.13043475000000626},{"name":"A2","midi":45,"time":123.52170825000223,"velocity":0.7874015748031497,"duration":0.13043475000000626},{"name":"D2","midi":38,"time":123.65214300000224,"velocity":0.7874015748031497,"duration":0.13043475000000626},{"name":"A2","midi":45,"time":123.78257775000225,"velocity":0.7874015748031497,"duration":0.13043475000000626},{"name":"D3","midi":50,"time":123.91301250000225,"velocity":0.7874015748031497,"duration":0.13043475000000626},{"name":"A2","midi":45,"time":124.04344725000226,"velocity":0.7874015748031497,"duration":0.13043475000000626},{"name":"D2","midi":38,"time":124.17388200000227,"velocity":0.7874015748031497,"duration":0.13043475000000626},{"name":"A2","midi":45,"time":124.30431675000227,"velocity":0.7874015748031497,"duration":0.13043475000000626},{"name":"D3","midi":50,"time":124.43475150000228,"velocity":0.7874015748031497,"duration":0.13043475000000626},{"name":"A2","midi":45,"time":124.56518625000228,"velocity":0.7874015748031497,"duration":0.13043475000000626},{"name":"D2","midi":38,"time":124.69562100000229,"velocity":0.7874015748031497,"duration":0.13043475000000626},{"name":"A2","midi":45,"time":124.8260557500023,"velocity":0.7874015748031497,"duration":0.13043475000000626},{"name":"D3","midi":50,"time":124.9564905000023,"velocity":0.7874015748031497,"duration":0.13043475000000626},{"name":"A2","midi":45,"time":125.08692525000231,"velocity":0.7874015748031497,"duration":0.13043475000000626},{"name":"D2","midi":38,"time":135.6521400000023,"velocity":0.7874015748031497,"duration":0.2608695000000125},{"name":"A2","midi":45,"time":135.91300950000232,"velocity":0.7874015748031497,"duration":0.2608695000000125},{"name":"D3","midi":50,"time":136.17387900000233,"velocity":0.7874015748031497,"duration":0.2608695000000125},{"name":"A3","midi":57,"time":136.43474850000234,"velocity":0.7874015748031497,"duration":0.2608695000000125},{"name":"G2","midi":43,"time":136.69561800000236,"velocity":0.7874015748031497,"duration":0.2608695000000125},{"name":"B2","midi":47,"time":136.95648750000237,"velocity":0.7874015748031497,"duration":0.2608695000000125},{"name":"D3","midi":50,"time":137.21735700000238,"velocity":0.7874015748031497,"duration":0.2608695000000125},{"name":"E3","midi":52,"time":137.4782265000024,"velocity":0.7874015748031497,"duration":0.2608695000000125},{"name":"A#2","midi":46,"time":137.7390960000024,"velocity":0.7874015748031497,"duration":0.2608695000000125},{"name":"C3","midi":48,"time":137.99996550000242,"velocity":0.7874015748031497,"duration":0.2608695000000125},{"name":"A2","midi":45,"time":138.26083500000243,"velocity":0.7874015748031497,"duration":0.2608695000000125},{"name":"E3","midi":52,"time":138.52170450000244,"velocity":0.7874015748031497,"duration":0.2608695000000125},{"name":"D3","midi":50,"time":138.78257400000246,"velocity":0.7874015748031497,"duration":0.2608695000000125},{"name":"A2","midi":45,"time":139.04344350000247,"velocity":0.7874015748031497,"duration":0.2608695000000125},{"name":"F2","midi":41,"time":139.30431300000248,"velocity":0.7874015748031497,"duration":0.2608695000000125},{"name":"D2","midi":38,"time":139.5651825000025,"velocity":0.7874015748031497,"duration":0.2608695000000125},{"name":"D2","midi":38,"time":139.8260520000025,"velocity":0.7874015748031497,"duration":0.2608695000000125},{"name":"A2","midi":45,"time":140.08692150000252,"velocity":0.7874015748031497,"duration":0.2608695000000125},{"name":"D3","midi":50,"time":140.34779100000253,"velocity":0.7874015748031497,"duration":0.2608695000000125},{"name":"A3","midi":57,"time":140.60866050000254,"velocity":0.7874015748031497,"duration":0.2608695000000125},{"name":"G2","midi":43,"time":140.86953000000256,"velocity":0.7874015748031497,"duration":0.2608695000000125},{"name":"B2","midi":47,"time":141.13039950000257,"velocity":0.7874015748031497,"duration":0.2608695000000125},{"name":"D3","midi":50,"time":141.39126900000258,"velocity":0.7874015748031497,"duration":0.2608695000000125},{"name":"E3","midi":52,"time":141.6521385000026,"velocity":0.7874015748031497,"duration":0.2608695000000125},{"name":"A#2","midi":46,"time":141.9130080000026,"velocity":0.7874015748031497,"duration":0.2608695000000125},{"name":"C3","midi":48,"time":142.17387750000262,"velocity":0.7874015748031497,"duration":0.2608695000000125},{"name":"A2","midi":45,"time":142.43474700000263,"velocity":0.7874015748031497,"duration":0.2608695000000125},{"name":"E3","midi":52,"time":142.69561650000264,"velocity":0.7874015748031497,"duration":0.2608695000000125},{"name":"D3","midi":50,"time":142.95648600000266,"velocity":0.7874015748031497,"duration":0.2608695000000125},{"name":"A2","midi":45,"time":143.21735550000267,"velocity":0.7874015748031497,"duration":0.2608695000000125},{"name":"F2","midi":41,"time":143.47822500000268,"velocity":0.7874015748031497,"duration":0.2608695000000125},{"name":"D3","midi":50,"time":143.7390945000027,"velocity":0.7874015748031497,"duration":0.2608695000000125},{"name":"A#1","midi":34,"time":143.9999640000027,"velocity":0.7874015748031497,"duration":0.13043475000000626},{"name":"F2","midi":41,"time":144.1303987500027,"velocity":0.7874015748031497,"duration":0.13043475000000626},{"name":"A#2","midi":46,"time":144.26083350000272,"velocity":0.7874015748031497,"duration":0.13043475000000626},{"name":"F2","midi":41,"time":144.39126825000272,"velocity":0.7874015748031497,"duration":0.13043475000000626},{"name":"A#1","midi":34,"time":144.52170300000273,"velocity":0.7874015748031497,"duration":0.13043475000000626},{"name":"F2","midi":41,"time":144.65213775000274,"velocity":0.7874015748031497,"duration":0.13043475000000626},{"name":"A#2","midi":46,"time":144.78257250000274,"velocity":0.7874015748031497,"duration":0.13043475000000626},{"name":"F2","midi":41,"time":144.91300725000275,"velocity":0.7874015748031497,"duration":0.13043475000000626},{"name":"D2","midi":38,"time":145.04344200000276,"velocity":0.7874015748031497,"duration":0.13043475000000626},{"name":"A2","midi":45,"time":145.17387675000276,"velocity":0.7874015748031497,"duration":0.13043475000000626},{"name":"D3","midi":50,"time":145.30431150000277,"velocity":0.7874015748031497,"duration":0.13043475000000626},{"name":"A2","midi":45,"time":145.43474625000277,"velocity":0.7874015748031497,"duration":0.13043475000000626},{"name":"D2","midi":38,"time":145.56518100000278,"velocity":0.7874015748031497,"duration":0.13043475000000626},{"name":"A2","midi":45,"time":145.6956157500028,"velocity":0.7874015748031497,"duration":0.13043475000000626},{"name":"D3","midi":50,"time":145.8260505000028,"velocity":0.7874015748031497,"duration":0.13043475000000626},{"name":"A2","midi":45,"time":145.9564852500028,"velocity":0.7874015748031497,"duration":0.13043475000000626},{"name":"A#1","midi":34,"time":146.0869200000028,"velocity":0.7874015748031497,"duration":0.13043475000000626},{"name":"F2","midi":41,"time":146.2173547500028,"velocity":0.7874015748031497,"duration":0.13043475000000626},{"name":"A#2","midi":46,"time":146.34778950000282,"velocity":0.7874015748031497,"duration":0.13043475000000626},{"name":"F2","midi":41,"time":146.47822425000282,"velocity":0.7874015748031497,"duration":0.13043475000000626},{"name":"A#1","midi":34,"time":146.60865900000283,"velocity":0.7874015748031497,"duration":0.13043475000000626},{"name":"F2","midi":41,"time":146.73909375000284,"velocity":0.7874015748031497,"duration":0.13043475000000626},{"name":"A#2","midi":46,"time":146.86952850000284,"velocity":0.7874015748031497,"duration":0.13043475000000626},{"name":"F2","midi":41,"time":146.99996325000285,"velocity":0.7874015748031497,"duration":0.13043475000000626},{"name":"A#1","midi":34,"time":147.13039800000286,"velocity":0.7874015748031497,"duration":0.13043475000000626},{"name":"F2","midi":41,"time":147.26083275000286,"velocity":0.7874015748031497,"duration":0.13043475000000626},{"name":"A#2","midi":46,"time":147.39126750000287,"velocity":0.7874015748031497,"duration":0.13043475000000626},{"name":"F2","midi":41,"time":147.52170225000287,"velocity":0.7874015748031497,"duration":0.13043475000000626},{"name":"A#1","midi":34,"time":147.65213700000288,"velocity":0.7874015748031497,"duration":0.13043475000000626},{"name":"F2","midi":41,"time":147.7825717500029,"velocity":0.7874015748031497,"duration":0.13043475000000626},{"name":"A#2","midi":46,"time":147.9130065000029,"velocity":0.7874015748031497,"duration":0.13043475000000626},{"name":"F2","midi":41,"time":148.0434412500029,"velocity":0.7874015748031497,"duration":0.13043475000000626},{"name":"F2","midi":41,"time":148.1738760000029,"velocity":0.7874015748031497,"duration":0.13043475000000626},{"name":"C3","midi":48,"time":148.3043107500029,"velocity":0.7874015748031497,"duration":0.13043475000000626},{"name":"F3","midi":53,"time":148.43474550000292,"velocity":0.7874015748031497,"duration":0.13043475000000626},{"name":"C3","midi":48,"time":148.56518025000292,"velocity":0.7874015748031497,"duration":0.13043475000000626},{"name":"F2","midi":41,"time":148.69561500000293,"velocity":0.7874015748031497,"duration":0.13043475000000626},{"name":"C3","midi":48,"time":148.82604975000294,"velocity":0.7874015748031497,"duration":0.13043475000000626},{"name":"F3","midi":53,"time":148.95648450000294,"velocity":0.7874015748031497,"duration":0.13043475000000626},{"name":"C3","midi":48,"time":149.08691925000295,"velocity":0.7874015748031497,"duration":0.13043475000000626},{"name":"D2","midi":38,"time":149.21735400000296,"velocity":0.7874015748031497,"duration":0.13043475000000626},{"name":"A2","midi":45,"time":149.34778875000296,"velocity":0.7874015748031497,"duration":0.13043475000000626},{"name":"D3","midi":50,"time":149.47822350000297,"velocity":0.7874015748031497,"duration":0.13043475000000626},{"name":"A2","midi":45,"time":149.60865825000297,"velocity":0.7874015748031497,"duration":0.13043475000000626},{"name":"D2","midi":38,"time":149.73909300000298,"velocity":0.7874015748031497,"duration":0.13043475000000626},{"name":"A2","midi":45,"time":149.869527750003,"velocity":0.7874015748031497,"duration":0.13043475000000626},{"name":"D3","midi":50,"time":149.999962500003,"velocity":0.7874015748031497,"duration":0.13043475000000626},{"name":"A2","midi":45,"time":150.130397250003,"velocity":0.7874015748031497,"duration":0.13043475000000626},{"name":"F2","midi":41,"time":150.260832000003,"velocity":0.7874015748031497,"duration":0.13043475000000626},{"name":"C3","midi":48,"time":150.391266750003,"velocity":0.7874015748031497,"duration":0.13043475000000626},{"name":"F3","midi":53,"time":150.52170150000302,"velocity":0.7874015748031497,"duration":0.13043475000000626},{"name":"C3","midi":48,"time":150.65213625000302,"velocity":0.7874015748031497,"duration":0.13043475000000626},{"name":"F2","midi":41,"time":150.78257100000303,"velocity":0.7874015748031497,"duration":0.13043475000000626},{"name":"C3","midi":48,"time":150.91300575000304,"velocity":0.7874015748031497,"duration":0.13043475000000626},{"name":"F3","midi":53,"time":151.04344050000304,"velocity":0.7874015748031497,"duration":0.13043475000000626},{"name":"C3","midi":48,"time":151.17387525000305,"velocity":0.7874015748031497,"duration":0.13043475000000626},{"name":"A2","midi":45,"time":151.30431000000306,"velocity":0.7874015748031497,"duration":0.13043475000000626},{"name":"E3","midi":52,"time":151.43474475000306,"velocity":0.7874015748031497,"duration":0.13043475000000626},{"name":"A3","midi":57,"time":151.56517950000307,"velocity":0.7874015748031497,"duration":0.13043475000000626},{"name":"E3","midi":52,"time":151.69561425000308,"velocity":0.7874015748031497,"duration":0.13043475000000626},{"name":"A2","midi":45,"time":151.82604900000308,"velocity":0.7874015748031497,"duration":0.13043475000000626},{"name":"E3","midi":52,"time":151.9564837500031,"velocity":0.7874015748031497,"duration":0.13043475000000626},{"name":"A3","midi":57,"time":152.0869185000031,"velocity":0.7874015748031497,"duration":0.13043475000000626},{"name":"E3","midi":52,"time":152.2173532500031,"velocity":0.7874015748031497,"duration":0.13043475000000626},{"name":"A#1","midi":34,"time":152.3477880000031,"velocity":0.7874015748031497,"duration":0.13043475000000626},{"name":"F2","midi":41,"time":152.4782227500031,"velocity":0.7874015748031497,"duration":0.13043475000000626},{"name":"A#2","midi":46,"time":152.60865750000312,"velocity":0.7874015748031497,"duration":0.13043475000000626},{"name":"F2","midi":41,"time":152.73909225000313,"velocity":0.7874015748031497,"duration":0.13043475000000626},{"name":"A#1","midi":34,"time":152.86952700000313,"velocity":0.7874015748031497,"duration":0.13043475000000626},{"name":"F2","midi":41,"time":152.99996175000314,"velocity":0.7874015748031497,"duration":0.13043475000000626},{"name":"A#2","midi":46,"time":153.13039650000314,"velocity":0.7874015748031497,"duration":0.13043475000000626},{"name":"F2","midi":41,"time":153.26083125000315,"velocity":0.7874015748031497,"duration":0.13043475000000626},{"name":"D2","midi":38,"time":153.39126600000316,"velocity":0.7874015748031497,"duration":0.13043475000000626},{"name":"A2","midi":45,"time":153.52170075000316,"velocity":0.7874015748031497,"duration":0.13043475000000626},{"name":"D3","midi":50,"time":153.65213550000317,"velocity":0.7874015748031497,"duration":0.13043475000000626},{"name":"A2","midi":45,"time":153.78257025000318,"velocity":0.7874015748031497,"duration":0.13043475000000626},{"name":"D2","midi":38,"time":153.91300500000318,"velocity":0.7874015748031497,"duration":0.13043475000000626},{"name":"A2","midi":45,"time":154.0434397500032,"velocity":0.7874015748031497,"duration":0.13043475000000626},{"name":"D3","midi":50,"time":154.1738745000032,"velocity":0.7874015748031497,"duration":0.13043475000000626},{"name":"A2","midi":45,"time":154.3043092500032,"velocity":0.7874015748031497,"duration":0.13043475000000626},{"name":"A#1","midi":34,"time":154.4347440000032,"velocity":0.7874015748031497,"duration":0.13043475000000626},{"name":"F2","midi":41,"time":154.5651787500032,"velocity":0.7874015748031497,"duration":0.13043475000000626},{"name":"A#2","midi":46,"time":154.69561350000322,"velocity":0.7874015748031497,"duration":0.13043475000000626},{"name":"F2","midi":41,"time":154.82604825000323,"velocity":0.7874015748031497,"duration":0.13043475000000626},{"name":"A#1","midi":34,"time":154.95648300000323,"velocity":0.7874015748031497,"duration":0.13043475000000626},{"name":"F2","midi":41,"time":155.08691775000324,"velocity":0.7874015748031497,"duration":0.13043475000000626},{"name":"A#2","midi":46,"time":155.21735250000324,"velocity":0.7874015748031497,"duration":0.13043475000000626},{"name":"F2","midi":41,"time":155.34778725000325,"velocity":0.7874015748031497,"duration":0.13043475000000626},{"name":"A#1","midi":34,"time":155.47822200000326,"velocity":0.7874015748031497,"duration":0.13043475000000626},{"name":"F2","midi":41,"time":155.60865675000326,"velocity":0.7874015748031497,"duration":0.13043475000000626},{"name":"A#2","midi":46,"time":155.73909150000327,"velocity":0.7874015748031497,"duration":0.13043475000000626},{"name":"F2","midi":41,"time":155.86952625000328,"velocity":0.7874015748031497,"duration":0.13043475000000626},{"name":"A#1","midi":34,"time":155.99996100000328,"velocity":0.7874015748031497,"duration":0.13043475000000626},{"name":"F2","midi":41,"time":156.1303957500033,"velocity":0.7874015748031497,"duration":0.13043475000000626},{"name":"A#2","midi":46,"time":156.2608305000033,"velocity":0.7874015748031497,"duration":0.13043475000000626},{"name":"F2","midi":41,"time":156.3912652500033,"velocity":0.7874015748031497,"duration":0.13043475000000626},{"name":"F2","midi":41,"time":156.5217000000033,"velocity":0.7874015748031497,"duration":0.13043475000000626},{"name":"C3","midi":48,"time":156.6521347500033,"velocity":0.7874015748031497,"duration":0.13043475000000626},{"name":"F3","midi":53,"time":156.78256950000332,"velocity":0.7874015748031497,"duration":0.13043475000000626},{"name":"C3","midi":48,"time":156.91300425000333,"velocity":0.7874015748031497,"duration":0.13043475000000626},{"name":"F2","midi":41,"time":157.04343900000333,"velocity":0.7874015748031497,"duration":0.13043475000000626},{"name":"C3","midi":48,"time":157.17387375000334,"velocity":0.7874015748031497,"duration":0.13043475000000626},{"name":"F3","midi":53,"time":157.30430850000334,"velocity":0.7874015748031497,"duration":0.13043475000000626},{"name":"C3","midi":48,"time":157.43474325000335,"velocity":0.7874015748031497,"duration":0.13043475000000626},{"name":"D2","midi":38,"time":157.56517800000336,"velocity":0.7874015748031497,"duration":0.13043475000000626},{"name":"A2","midi":45,"time":157.69561275000336,"velocity":0.7874015748031497,"duration":0.13043475000000626},{"name":"D3","midi":50,"time":157.82604750000337,"velocity":0.7874015748031497,"duration":0.13043475000000626},{"name":"A2","midi":45,"time":157.95648225000338,"velocity":0.7874015748031497,"duration":0.13043475000000626},{"name":"D2","midi":38,"time":158.08691700000338,"velocity":0.7874015748031497,"duration":0.13043475000000626},{"name":"A2","midi":45,"time":158.2173517500034,"velocity":0.7874015748031497,"duration":0.13043475000000626},{"name":"D3","midi":50,"time":158.3477865000034,"velocity":0.7874015748031497,"duration":0.13043475000000626},{"name":"A2","midi":45,"time":158.4782212500034,"velocity":0.7874015748031497,"duration":0.13043475000000626},{"name":"A#1","midi":34,"time":158.6086560000034,"velocity":0.7874015748031497,"duration":0.13043475000000626},{"name":"D2","midi":38,"time":158.7390907500034,"velocity":0.7874015748031497,"duration":0.13043475000000626},{"name":"F2","midi":41,"time":158.86952550000342,"velocity":0.7874015748031497,"duration":0.13043475000000626},{"name":"A#2","midi":46,"time":158.99996025000343,"velocity":0.7874015748031497,"duration":0.2608695000000125},{"name":"G2","midi":43,"time":159.26082975000344,"velocity":0.7874015748031497,"duration":0.13043475000000626},{"name":"F2","midi":41,"time":159.39126450000344,"velocity":0.7874015748031497,"duration":0.13043475000000626},{"name":"D2","midi":38,"time":159.52169925000345,"velocity":0.7874015748031497,"duration":0.13043475000000626},{"name":"A#1","midi":34,"time":159.65213400000346,"velocity":0.7874015748031497,"duration":0.13043475000000626},{"name":"D2","midi":38,"time":159.78256875000346,"velocity":0.7874015748031497,"duration":0.13043475000000626},{"name":"F2","midi":41,"time":159.91300350000347,"velocity":0.7874015748031497,"duration":0.13043475000000626},{"name":"A#2","midi":46,"time":160.04343825000348,"velocity":0.7874015748031497,"duration":0.2608695000000125},{"name":"G2","midi":43,"time":160.3043077500035,"velocity":0.7874015748031497,"duration":0.13043475000000626},{"name":"F2","midi":41,"time":160.4347425000035,"velocity":0.7874015748031497,"duration":0.13043475000000626},{"name":"D2","midi":38,"time":160.5651772500035,"velocity":0.7874015748031497,"duration":0.13043475000000626},{"name":"C2","midi":36,"time":160.6956120000035,"velocity":0.7874015748031497,"duration":0.13043475000000626},{"name":"E2","midi":40,"time":160.8260467500035,"velocity":0.7874015748031497,"duration":0.13043475000000626},{"name":"G2","midi":43,"time":160.95648150000352,"velocity":0.7874015748031497,"duration":0.13043475000000626},{"name":"C3","midi":48,"time":161.08691625000353,"velocity":0.7874015748031497,"duration":0.2608695000000125},{"name":"A2","midi":45,"time":161.34778575000354,"velocity":0.7874015748031497,"duration":0.13043475000000626},{"name":"G2","midi":43,"time":161.47822050000354,"velocity":0.7874015748031497,"duration":0.13043475000000626},{"name":"E2","midi":40,"time":161.60865525000355,"velocity":0.7874015748031497,"duration":0.13043475000000626},{"name":"C2","midi":36,"time":161.73909000000356,"velocity":0.7874015748031497,"duration":0.13043475000000626},{"name":"E2","midi":40,"time":161.86952475000356,"velocity":0.7874015748031497,"duration":0.13043475000000626},{"name":"G2","midi":43,"time":161.99995950000357,"velocity":0.7874015748031497,"duration":0.13043475000000626},{"name":"C3","midi":48,"time":162.13039425000358,"velocity":0.7874015748031497,"duration":0.2608695000000125},{"name":"A2","midi":45,"time":162.3912637500036,"velocity":0.7874015748031497,"duration":0.13043475000000626},{"name":"G2","midi":43,"time":162.5216985000036,"velocity":0.7874015748031497,"duration":0.13043475000000626},{"name":"E2","midi":40,"time":162.6521332500036,"velocity":0.7874015748031497,"duration":0.13043475000000626},{"name":"A#1","midi":34,"time":162.7825680000036,"velocity":0.7874015748031497,"duration":0.13043475000000626},{"name":"D2","midi":38,"time":162.9130027500036,"velocity":0.7874015748031497,"duration":0.13043475000000626},{"name":"F2","midi":41,"time":163.04343750000362,"velocity":0.7874015748031497,"duration":0.13043475000000626},{"name":"A#2","midi":46,"time":163.17387225000363,"velocity":0.7874015748031497,"duration":0.2608695000000125},{"name":"G2","midi":43,"time":163.43474175000364,"velocity":0.7874015748031497,"duration":0.13043475000000626},{"name":"F2","midi":41,"time":163.56517650000364,"velocity":0.7874015748031497,"duration":0.13043475000000626},{"name":"D2","midi":38,"time":163.69561125000365,"velocity":0.7874015748031497,"duration":0.13043475000000626},{"name":"A#1","midi":34,"time":163.82604600000366,"velocity":0.7874015748031497,"duration":0.13043475000000626},{"name":"D2","midi":38,"time":163.95648075000366,"velocity":0.7874015748031497,"duration":0.13043475000000626},{"name":"F2","midi":41,"time":164.08691550000367,"velocity":0.7874015748031497,"duration":0.13043475000000626},{"name":"A#2","midi":46,"time":164.21735025000368,"velocity":0.7874015748031497,"duration":0.2608695000000125},{"name":"G2","midi":43,"time":164.4782197500037,"velocity":0.7874015748031497,"duration":0.13043475000000626},{"name":"F2","midi":41,"time":164.6086545000037,"velocity":0.7874015748031497,"duration":0.13043475000000626},{"name":"D2","midi":38,"time":164.7390892500037,"velocity":0.7874015748031497,"duration":0.13043475000000626},{"name":"C2","midi":36,"time":164.8695240000037,"velocity":0.7874015748031497,"duration":0.13043475000000626},{"name":"E2","midi":40,"time":164.9999587500037,"velocity":0.7874015748031497,"duration":0.13043475000000626},{"name":"G2","midi":43,"time":165.13039350000372,"velocity":0.7874015748031497,"duration":0.13043475000000626},{"name":"C3","midi":48,"time":165.26082825000373,"velocity":0.7874015748031497,"duration":0.2608695000000125},{"name":"A2","midi":45,"time":165.52169775000374,"velocity":0.7874015748031497,"duration":0.13043475000000626},{"name":"G2","midi":43,"time":165.65213250000375,"velocity":0.7874015748031497,"duration":0.13043475000000626},{"name":"E2","midi":40,"time":165.78256725000375,"velocity":0.7874015748031497,"duration":0.13043475000000626},{"name":"C2","midi":36,"time":165.91300200000376,"velocity":0.7874015748031497,"duration":0.13043475000000626},{"name":"E2","midi":40,"time":166.04343675000376,"velocity":0.7874015748031497,"duration":0.13043475000000626},{"name":"G2","midi":43,"time":166.17387150000377,"velocity":0.7874015748031497,"duration":0.13043475000000626},{"name":"C3","midi":48,"time":166.30430625000378,"velocity":0.7874015748031497,"duration":0.2608695000000125},{"name":"A2","midi":45,"time":166.5651757500038,"velocity":0.7874015748031497,"duration":0.13043475000000626},{"name":"G2","midi":43,"time":166.6956105000038,"velocity":0.7874015748031497,"duration":0.13043475000000626},{"name":"E2","midi":40,"time":166.8260452500038,"velocity":0.7874015748031497,"duration":0.13043475000000626},{"name":"D2","midi":38,"time":166.9564800000038,"velocity":0.7874015748031497,"duration":0.39130424999999036},{"name":"A2","midi":45,"time":167.3477842500038,"velocity":0.7874015748031497,"duration":0.39130424999999036},{"name":"D3","midi":50,"time":167.7390885000038,"velocity":0.7874015748031497,"duration":0.2608695000000125},{"name":"G2","midi":43,"time":167.9999580000038,"velocity":0.7874015748031497,"duration":0.39130424999999036},{"name":"B2","midi":47,"time":168.3912622500038,"velocity":0.7874015748031497,"duration":0.39130424999999036},{"name":"D3","midi":50,"time":168.78256650000378,"velocity":0.7874015748031497,"duration":0.2608695000000125},{"name":"D2","midi":38,"time":169.0434360000038,"velocity":0.7874015748031497,"duration":0.39130424999999036},{"name":"A2","midi":45,"time":169.43474025000378,"velocity":0.7874015748031497,"duration":0.39130424999999036},{"name":"D3","midi":50,"time":169.82604450000377,"velocity":0.7874015748031497,"duration":0.2608695000000125},{"name":"G2","midi":43,"time":170.0869140000038,"velocity":0.7874015748031497,"duration":0.39130424999999036},{"name":"B2","midi":47,"time":170.47821825000378,"velocity":0.7874015748031497,"duration":0.39130424999999036},{"name":"D3","midi":50,"time":170.86952250000377,"velocity":0.7874015748031497,"duration":0.2608695000000125},{"name":"D2","midi":38,"time":171.13039200000378,"velocity":0.7874015748031497,"duration":2.0869559999999865},{"name":"A2","midi":45,"time":171.13039200000378,"velocity":0.7874015748031497,"duration":2.0869559999999865},{"name":"D3","midi":50,"time":171.13039200000378,"velocity":0.7874015748031497,"duration":2.0869559999999865}],"controlChanges":{},"id":5,"name":"Steel Drums","instrumentNumber":114,"instrument":"steel drums","instrumentFamily":"percussive","channelNumber":5,"isPercussion":false},{"startTime":27.130428,"duration":173.21734800000337,"length":1144,"notes":[{"name":"A#2","midi":46,"time":27.130428,"velocity":0.3543307086614173,"duration":0.13043474999999916},{"name":"F3","midi":53,"time":27.130428,"velocity":0.3543307086614173,"duration":0.13043474999999916},{"name":"A#3","midi":58,"time":27.130428,"velocity":0.3543307086614173,"duration":0.13043474999999916},{"name":"A#2","midi":46,"time":27.260862749999998,"velocity":0.3543307086614173,"duration":0.13043474999999916},{"name":"F3","midi":53,"time":27.260862749999998,"velocity":0.3543307086614173,"duration":0.13043474999999916},{"name":"A#3","midi":58,"time":27.260862749999998,"velocity":0.3543307086614173,"duration":0.13043474999999916},{"name":"A#2","midi":46,"time":27.391297499999997,"velocity":0.3543307086614173,"duration":0.13043474999999916},{"name":"F3","midi":53,"time":27.391297499999997,"velocity":0.3543307086614173,"duration":0.13043474999999916},{"name":"A#3","midi":58,"time":27.391297499999997,"velocity":0.3543307086614173,"duration":0.13043474999999916},{"name":"A#2","midi":46,"time":27.521732249999996,"velocity":0.3543307086614173,"duration":0.13043474999999916},{"name":"F3","midi":53,"time":27.521732249999996,"velocity":0.3543307086614173,"duration":0.13043474999999916},{"name":"A#3","midi":58,"time":27.521732249999996,"velocity":0.3543307086614173,"duration":0.13043474999999916},{"name":"A#2","midi":46,"time":27.652166999999995,"velocity":0.3543307086614173,"duration":0.13043474999999916},{"name":"F3","midi":53,"time":27.652166999999995,"velocity":0.3543307086614173,"duration":0.13043474999999916},{"name":"A#3","midi":58,"time":27.652166999999995,"velocity":0.3543307086614173,"duration":0.13043474999999916},{"name":"A#2","midi":46,"time":27.782601749999994,"velocity":0.3543307086614173,"duration":0.13043474999999916},{"name":"F3","midi":53,"time":27.782601749999994,"velocity":0.3543307086614173,"duration":0.13043474999999916},{"name":"A#3","midi":58,"time":27.782601749999994,"velocity":0.3543307086614173,"duration":0.13043474999999916},{"name":"A#2","midi":46,"time":27.913036499999993,"velocity":0.3543307086614173,"duration":0.13043474999999916},{"name":"F3","midi":53,"time":27.913036499999993,"velocity":0.3543307086614173,"duration":0.13043474999999916},{"name":"A#3","midi":58,"time":27.913036499999993,"velocity":0.3543307086614173,"duration":0.13043474999999916},{"name":"A#2","midi":46,"time":28.043471249999993,"velocity":0.3543307086614173,"duration":0.13043474999999916},{"name":"F3","midi":53,"time":28.043471249999993,"velocity":0.3543307086614173,"duration":0.13043474999999916},{"name":"A#3","midi":58,"time":28.043471249999993,"velocity":0.3543307086614173,"duration":0.13043474999999916},{"name":"A#2","midi":46,"time":28.17390599999999,"velocity":0.3543307086614173,"duration":0.13043474999999916},{"name":"F3","midi":53,"time":28.17390599999999,"velocity":0.3543307086614173,"duration":0.13043474999999916},{"name":"A#3","midi":58,"time":28.17390599999999,"velocity":0.3543307086614173,"duration":0.13043474999999916},{"name":"A#2","midi":46,"time":28.30434074999999,"velocity":0.3543307086614173,"duration":0.13043474999999916},{"name":"F3","midi":53,"time":28.30434074999999,"velocity":0.3543307086614173,"duration":0.13043474999999916},{"name":"A#3","midi":58,"time":28.30434074999999,"velocity":0.3543307086614173,"duration":0.13043474999999916},{"name":"A#2","midi":46,"time":28.43477549999999,"velocity":0.3543307086614173,"duration":0.13043474999999916},{"name":"F3","midi":53,"time":28.43477549999999,"velocity":0.3543307086614173,"duration":0.13043474999999916},{"name":"A#3","midi":58,"time":28.43477549999999,"velocity":0.3543307086614173,"duration":0.13043474999999916},{"name":"A#2","midi":46,"time":28.56521024999999,"velocity":0.3543307086614173,"duration":0.13043474999999916},{"name":"F3","midi":53,"time":28.56521024999999,"velocity":0.3543307086614173,"duration":0.13043474999999916},{"name":"A#3","midi":58,"time":28.56521024999999,"velocity":0.3543307086614173,"duration":0.13043474999999916},{"name":"A#2","midi":46,"time":28.69564499999999,"velocity":0.3543307086614173,"duration":0.13043474999999916},{"name":"F3","midi":53,"time":28.69564499999999,"velocity":0.3543307086614173,"duration":0.13043474999999916},{"name":"A#3","midi":58,"time":28.69564499999999,"velocity":0.3543307086614173,"duration":0.13043474999999916},{"name":"A#2","midi":46,"time":28.826079749999987,"velocity":0.3543307086614173,"duration":0.13043474999999916},{"name":"F3","midi":53,"time":28.826079749999987,"velocity":0.3543307086614173,"duration":0.13043474999999916},{"name":"A#3","midi":58,"time":28.826079749999987,"velocity":0.3543307086614173,"duration":0.13043474999999916},{"name":"A#2","midi":46,"time":28.956514499999987,"velocity":0.3543307086614173,"duration":0.13043474999999916},{"name":"F3","midi":53,"time":28.956514499999987,"velocity":0.3543307086614173,"duration":0.13043474999999916},{"name":"A#3","midi":58,"time":28.956514499999987,"velocity":0.3543307086614173,"duration":0.13043474999999916},{"name":"A#2","midi":46,"time":29.086949249999986,"velocity":0.3543307086614173,"duration":0.13043474999999916},{"name":"F3","midi":53,"time":29.086949249999986,"velocity":0.3543307086614173,"duration":0.13043474999999916},{"name":"A#3","midi":58,"time":29.086949249999986,"velocity":0.3543307086614173,"duration":0.13043474999999916},{"name":"C4","midi":60,"time":29.217383999999985,"velocity":0.3543307086614173,"duration":0.13043474999999916},{"name":"C3","midi":48,"time":29.217383999999985,"velocity":0.3543307086614173,"duration":0.13043474999999916},{"name":"G3","midi":55,"time":29.217383999999985,"velocity":0.3543307086614173,"duration":0.13043474999999916},{"name":"C4","midi":60,"time":29.347818749999984,"velocity":0.3543307086614173,"duration":0.13043474999999916},{"name":"C3","midi":48,"time":29.347818749999984,"velocity":0.3543307086614173,"duration":0.13043474999999916},{"name":"G3","midi":55,"time":29.347818749999984,"velocity":0.3543307086614173,"duration":0.13043474999999916},{"name":"C4","midi":60,"time":29.478253499999983,"velocity":0.3543307086614173,"duration":0.13043474999999916},{"name":"C3","midi":48,"time":29.478253499999983,"velocity":0.3543307086614173,"duration":0.13043474999999916},{"name":"G3","midi":55,"time":29.478253499999983,"velocity":0.3543307086614173,"duration":0.13043474999999916},{"name":"C4","midi":60,"time":29.608688249999982,"velocity":0.3543307086614173,"duration":0.13043474999999916},{"name":"C3","midi":48,"time":29.608688249999982,"velocity":0.3543307086614173,"duration":0.13043474999999916},{"name":"G3","midi":55,"time":29.608688249999982,"velocity":0.3543307086614173,"duration":0.13043474999999916},{"name":"C4","midi":60,"time":29.73912299999998,"velocity":0.3543307086614173,"duration":0.13043474999999916},{"name":"C3","midi":48,"time":29.73912299999998,"velocity":0.3543307086614173,"duration":0.13043474999999916},{"name":"G3","midi":55,"time":29.73912299999998,"velocity":0.3543307086614173,"duration":0.13043474999999916},{"name":"C4","midi":60,"time":29.86955774999998,"velocity":0.3543307086614173,"duration":0.13043474999999916},{"name":"C3","midi":48,"time":29.86955774999998,"velocity":0.3543307086614173,"duration":0.13043474999999916},{"name":"G3","midi":55,"time":29.86955774999998,"velocity":0.3543307086614173,"duration":0.13043474999999916},{"name":"C4","midi":60,"time":29.99999249999998,"velocity":0.3543307086614173,"duration":0.13043474999999916},{"name":"C3","midi":48,"time":29.99999249999998,"velocity":0.3543307086614173,"duration":0.13043474999999916},{"name":"G3","midi":55,"time":29.99999249999998,"velocity":0.3543307086614173,"duration":0.13043474999999916},{"name":"C4","midi":60,"time":30.13042724999998,"velocity":0.3543307086614173,"duration":0.13043474999999916},{"name":"C3","midi":48,"time":30.13042724999998,"velocity":0.3543307086614173,"duration":0.13043474999999916},{"name":"G3","midi":55,"time":30.13042724999998,"velocity":0.3543307086614173,"duration":0.13043474999999916},{"name":"C4","midi":60,"time":30.260861999999978,"velocity":0.3543307086614173,"duration":0.13043474999999916},{"name":"C3","midi":48,"time":30.260861999999978,"velocity":0.3543307086614173,"duration":0.13043474999999916},{"name":"G3","midi":55,"time":30.260861999999978,"velocity":0.3543307086614173,"duration":0.13043474999999916},{"name":"C4","midi":60,"time":30.391296749999977,"velocity":0.3543307086614173,"duration":0.13043474999999916},{"name":"C3","midi":48,"time":30.391296749999977,"velocity":0.3543307086614173,"duration":0.13043474999999916},{"name":"G3","midi":55,"time":30.391296749999977,"velocity":0.3543307086614173,"duration":0.13043474999999916},{"name":"C4","midi":60,"time":30.521731499999976,"velocity":0.3543307086614173,"duration":0.13043474999999916},{"name":"C3","midi":48,"time":30.521731499999976,"velocity":0.3543307086614173,"duration":0.13043474999999916},{"name":"G3","midi":55,"time":30.521731499999976,"velocity":0.3543307086614173,"duration":0.13043474999999916},{"name":"C4","midi":60,"time":30.652166249999976,"velocity":0.3543307086614173,"duration":0.13043474999999916},{"name":"C3","midi":48,"time":30.652166249999976,"velocity":0.3543307086614173,"duration":0.13043474999999916},{"name":"G3","midi":55,"time":30.652166249999976,"velocity":0.3543307086614173,"duration":0.13043474999999916},{"name":"C4","midi":60,"time":30.782600999999975,"velocity":0.3543307086614173,"duration":0.13043474999999916},{"name":"C3","midi":48,"time":30.782600999999975,"velocity":0.3543307086614173,"duration":0.13043474999999916},{"name":"G3","midi":55,"time":30.782600999999975,"velocity":0.3543307086614173,"duration":0.13043474999999916},{"name":"C4","midi":60,"time":30.913035749999974,"velocity":0.3543307086614173,"duration":0.13043474999999916},{"name":"C3","midi":48,"time":30.913035749999974,"velocity":0.3543307086614173,"duration":0.13043474999999916},{"name":"G3","midi":55,"time":30.913035749999974,"velocity":0.3543307086614173,"duration":0.13043474999999916},{"name":"C4","midi":60,"time":31.043470499999973,"velocity":0.3543307086614173,"duration":0.13043474999999916},{"name":"C3","midi":48,"time":31.043470499999973,"velocity":0.3543307086614173,"duration":0.13043474999999916},{"name":"G3","midi":55,"time":31.043470499999973,"velocity":0.3543307086614173,"duration":0.13043474999999916},{"name":"C4","midi":60,"time":31.173905249999972,"velocity":0.3543307086614173,"duration":0.13043474999999916},{"name":"C3","midi":48,"time":31.173905249999972,"velocity":0.3543307086614173,"duration":0.13043474999999916},{"name":"G3","midi":55,"time":31.173905249999972,"velocity":0.3543307086614173,"duration":0.13043474999999916},{"name":"D4","midi":62,"time":31.30433999999997,"velocity":0.3543307086614173,"duration":0.13043474999999916},{"name":"D3","midi":50,"time":31.30433999999997,"velocity":0.3543307086614173,"duration":0.13043474999999916},{"name":"A3","midi":57,"time":31.30433999999997,"velocity":0.3543307086614173,"duration":0.13043474999999916},{"name":"D4","midi":62,"time":31.43477474999997,"velocity":0.3543307086614173,"duration":0.13043474999999916},{"name":"D3","midi":50,"time":31.43477474999997,"velocity":0.3543307086614173,"duration":0.13043474999999916},{"name":"A3","midi":57,"time":31.43477474999997,"velocity":0.3543307086614173,"duration":0.13043474999999916},{"name":"D4","midi":62,"time":31.56520949999997,"velocity":0.3543307086614173,"duration":0.13043474999999916},{"name":"D3","midi":50,"time":31.56520949999997,"velocity":0.3543307086614173,"duration":0.13043474999999916},{"name":"A3","midi":57,"time":31.56520949999997,"velocity":0.3543307086614173,"duration":0.13043474999999916},{"name":"D4","midi":62,"time":31.69564424999997,"velocity":0.3543307086614173,"duration":0.13043474999999916},{"name":"D3","midi":50,"time":31.69564424999997,"velocity":0.3543307086614173,"duration":0.13043474999999916},{"name":"A3","midi":57,"time":31.69564424999997,"velocity":0.3543307086614173,"duration":0.13043474999999916},{"name":"D4","midi":62,"time":31.826078999999968,"velocity":0.3543307086614173,"duration":0.13043474999999916},{"name":"D3","midi":50,"time":31.826078999999968,"velocity":0.3543307086614173,"duration":0.13043474999999916},{"name":"A3","midi":57,"time":31.826078999999968,"velocity":0.3543307086614173,"duration":0.13043474999999916},{"name":"D4","midi":62,"time":31.956513749999967,"velocity":0.3543307086614173,"duration":0.1304347500000027},{"name":"D3","midi":50,"time":31.956513749999967,"velocity":0.3543307086614173,"duration":0.1304347500000027},{"name":"A3","midi":57,"time":31.956513749999967,"velocity":0.3543307086614173,"duration":0.1304347500000027},{"name":"D4","midi":62,"time":32.08694849999997,"velocity":0.3543307086614173,"duration":0.13043474999999916},{"name":"D3","midi":50,"time":32.08694849999997,"velocity":0.3543307086614173,"duration":0.13043474999999916},{"name":"A3","midi":57,"time":32.08694849999997,"velocity":0.3543307086614173,"duration":0.13043474999999916},{"name":"D4","midi":62,"time":32.21738324999997,"velocity":0.3543307086614173,"duration":0.13043474999999916},{"name":"D3","midi":50,"time":32.21738324999997,"velocity":0.3543307086614173,"duration":0.13043474999999916},{"name":"A3","midi":57,"time":32.21738324999997,"velocity":0.3543307086614173,"duration":0.13043474999999916},{"name":"D4","midi":62,"time":32.34781799999997,"velocity":0.3543307086614173,"duration":0.13043474999999916},{"name":"D3","midi":50,"time":32.34781799999997,"velocity":0.3543307086614173,"duration":0.13043474999999916},{"name":"A3","midi":57,"time":32.34781799999997,"velocity":0.3543307086614173,"duration":0.13043474999999916},{"name":"D4","midi":62,"time":32.47825274999997,"velocity":0.3543307086614173,"duration":0.13043474999999916},{"name":"D3","midi":50,"time":32.47825274999997,"velocity":0.3543307086614173,"duration":0.13043474999999916},{"name":"A3","midi":57,"time":32.47825274999997,"velocity":0.3543307086614173,"duration":0.13043474999999916},{"name":"D4","midi":62,"time":32.60868749999997,"velocity":0.3543307086614173,"duration":0.13043474999999916},{"name":"D3","midi":50,"time":32.60868749999997,"velocity":0.3543307086614173,"duration":0.13043474999999916},{"name":"A3","midi":57,"time":32.60868749999997,"velocity":0.3543307086614173,"duration":0.13043474999999916},{"name":"D4","midi":62,"time":32.739122249999966,"velocity":0.3543307086614173,"duration":0.13043474999999916},{"name":"D3","midi":50,"time":32.739122249999966,"velocity":0.3543307086614173,"duration":0.13043474999999916},{"name":"A3","midi":57,"time":32.739122249999966,"velocity":0.3543307086614173,"duration":0.13043474999999916},{"name":"D4","midi":62,"time":32.869556999999965,"velocity":0.3543307086614173,"duration":0.13043474999999916},{"name":"D3","midi":50,"time":32.869556999999965,"velocity":0.3543307086614173,"duration":0.13043474999999916},{"name":"A3","midi":57,"time":32.869556999999965,"velocity":0.3543307086614173,"duration":0.13043474999999916},{"name":"D4","midi":62,"time":32.999991749999964,"velocity":0.3543307086614173,"duration":0.13043474999999916},{"name":"D3","midi":50,"time":32.999991749999964,"velocity":0.3543307086614173,"duration":0.13043474999999916},{"name":"A3","midi":57,"time":32.999991749999964,"velocity":0.3543307086614173,"duration":0.13043474999999916},{"name":"D4","midi":62,"time":33.13042649999996,"velocity":0.3543307086614173,"duration":0.13043474999999916},{"name":"D3","midi":50,"time":33.13042649999996,"velocity":0.3543307086614173,"duration":0.13043474999999916},{"name":"A3","midi":57,"time":33.13042649999996,"velocity":0.3543307086614173,"duration":0.13043474999999916},{"name":"D4","midi":62,"time":33.26086124999996,"velocity":0.3543307086614173,"duration":0.13043474999999916},{"name":"D3","midi":50,"time":33.26086124999996,"velocity":0.3543307086614173,"duration":0.13043474999999916},{"name":"A3","midi":57,"time":33.26086124999996,"velocity":0.3543307086614173,"duration":0.13043474999999916},{"name":"C4","midi":60,"time":33.39129599999996,"velocity":0.3543307086614173,"duration":0.13043474999999916},{"name":"G3","midi":55,"time":33.39129599999996,"velocity":0.3543307086614173,"duration":0.13043474999999916},{"name":"C3","midi":48,"time":33.39129599999996,"velocity":0.3543307086614173,"duration":0.13043474999999916},{"name":"C4","midi":60,"time":33.52173074999996,"velocity":0.3543307086614173,"duration":0.13043474999999916},{"name":"G3","midi":55,"time":33.52173074999996,"velocity":0.3543307086614173,"duration":0.13043474999999916},{"name":"C3","midi":48,"time":33.52173074999996,"velocity":0.3543307086614173,"duration":0.13043474999999916},{"name":"C4","midi":60,"time":33.65216549999996,"velocity":0.3543307086614173,"duration":0.13043474999999916},{"name":"G3","midi":55,"time":33.65216549999996,"velocity":0.3543307086614173,"duration":0.13043474999999916},{"name":"C3","midi":48,"time":33.65216549999996,"velocity":0.3543307086614173,"duration":0.13043474999999916},{"name":"C4","midi":60,"time":33.78260024999996,"velocity":0.3543307086614173,"duration":0.13043474999999916},{"name":"G3","midi":55,"time":33.78260024999996,"velocity":0.3543307086614173,"duration":0.13043474999999916},{"name":"C3","midi":48,"time":33.78260024999996,"velocity":0.3543307086614173,"duration":0.13043474999999916},{"name":"C4","midi":60,"time":33.91303499999996,"velocity":0.3543307086614173,"duration":0.13043474999999916},{"name":"G3","midi":55,"time":33.91303499999996,"velocity":0.3543307086614173,"duration":0.13043474999999916},{"name":"C3","midi":48,"time":33.91303499999996,"velocity":0.3543307086614173,"duration":0.13043474999999916},{"name":"C4","midi":60,"time":34.04346974999996,"velocity":0.3543307086614173,"duration":0.13043474999999916},{"name":"G3","midi":55,"time":34.04346974999996,"velocity":0.3543307086614173,"duration":0.13043474999999916},{"name":"C3","midi":48,"time":34.04346974999996,"velocity":0.3543307086614173,"duration":0.13043474999999916},{"name":"C4","midi":60,"time":34.173904499999956,"velocity":0.3543307086614173,"duration":0.13043474999999916},{"name":"G3","midi":55,"time":34.173904499999956,"velocity":0.3543307086614173,"duration":0.13043474999999916},{"name":"C3","midi":48,"time":34.173904499999956,"velocity":0.3543307086614173,"duration":0.13043474999999916},{"name":"C4","midi":60,"time":34.304339249999956,"velocity":0.3543307086614173,"duration":0.13043474999999916},{"name":"G3","midi":55,"time":34.304339249999956,"velocity":0.3543307086614173,"duration":0.13043474999999916},{"name":"C3","midi":48,"time":34.304339249999956,"velocity":0.3543307086614173,"duration":0.13043474999999916},{"name":"A#2","midi":46,"time":43.82607599999996,"velocity":0.3543307086614173,"duration":0.13043474999999916},{"name":"F3","midi":53,"time":43.82607599999996,"velocity":0.3543307086614173,"duration":0.13043474999999916},{"name":"A#3","midi":58,"time":43.82607599999996,"velocity":0.3543307086614173,"duration":0.13043474999999916},{"name":"A#2","midi":46,"time":43.95651074999996,"velocity":0.3543307086614173,"duration":0.13043474999999916},{"name":"F3","midi":53,"time":43.95651074999996,"velocity":0.3543307086614173,"duration":0.13043474999999916},{"name":"A#3","midi":58,"time":43.95651074999996,"velocity":0.3543307086614173,"duration":0.13043474999999916},{"name":"A#2","midi":46,"time":44.086945499999956,"velocity":0.3543307086614173,"duration":0.13043474999999916},{"name":"F3","midi":53,"time":44.086945499999956,"velocity":0.3543307086614173,"duration":0.13043474999999916},{"name":"A#3","midi":58,"time":44.086945499999956,"velocity":0.3543307086614173,"duration":0.13043474999999916},{"name":"A#2","midi":46,"time":44.217380249999955,"velocity":0.3543307086614173,"duration":0.13043474999999916},{"name":"F3","midi":53,"time":44.217380249999955,"velocity":0.3543307086614173,"duration":0.13043474999999916},{"name":"A#3","midi":58,"time":44.217380249999955,"velocity":0.3543307086614173,"duration":0.13043474999999916},{"name":"A#2","midi":46,"time":44.347814999999954,"velocity":0.3543307086614173,"duration":0.13043474999999916},{"name":"F3","midi":53,"time":44.347814999999954,"velocity":0.3543307086614173,"duration":0.13043474999999916},{"name":"A#3","midi":58,"time":44.347814999999954,"velocity":0.3543307086614173,"duration":0.13043474999999916},{"name":"A#2","midi":46,"time":44.478249749999954,"velocity":0.3543307086614173,"duration":0.13043474999999916},{"name":"F3","midi":53,"time":44.478249749999954,"velocity":0.3543307086614173,"duration":0.13043474999999916},{"name":"A#3","midi":58,"time":44.478249749999954,"velocity":0.3543307086614173,"duration":0.13043474999999916},{"name":"A#2","midi":46,"time":44.60868449999995,"velocity":0.3543307086614173,"duration":0.13043474999999916},{"name":"F3","midi":53,"time":44.60868449999995,"velocity":0.3543307086614173,"duration":0.13043474999999916},{"name":"A#3","midi":58,"time":44.60868449999995,"velocity":0.3543307086614173,"duration":0.13043474999999916},{"name":"A#2","midi":46,"time":44.73911924999995,"velocity":0.3543307086614173,"duration":0.13043474999999916},{"name":"F3","midi":53,"time":44.73911924999995,"velocity":0.3543307086614173,"duration":0.13043474999999916},{"name":"A#3","midi":58,"time":44.73911924999995,"velocity":0.3543307086614173,"duration":0.13043474999999916},{"name":"A#2","midi":46,"time":44.86955399999995,"velocity":0.3543307086614173,"duration":0.13043474999999916},{"name":"F3","midi":53,"time":44.86955399999995,"velocity":0.3543307086614173,"duration":0.13043474999999916},{"name":"A#3","midi":58,"time":44.86955399999995,"velocity":0.3543307086614173,"duration":0.13043474999999916},{"name":"A#2","midi":46,"time":44.99998874999995,"velocity":0.3543307086614173,"duration":0.13043474999999916},{"name":"F3","midi":53,"time":44.99998874999995,"velocity":0.3543307086614173,"duration":0.13043474999999916},{"name":"A#3","midi":58,"time":44.99998874999995,"velocity":0.3543307086614173,"duration":0.13043474999999916},{"name":"A#2","midi":46,"time":45.13042349999995,"velocity":0.3543307086614173,"duration":0.13043474999999916},{"name":"F3","midi":53,"time":45.13042349999995,"velocity":0.3543307086614173,"duration":0.13043474999999916},{"name":"A#3","midi":58,"time":45.13042349999995,"velocity":0.3543307086614173,"duration":0.13043474999999916},{"name":"A#2","midi":46,"time":45.26085824999995,"velocity":0.3543307086614173,"duration":0.13043474999999916},{"name":"F3","midi":53,"time":45.26085824999995,"velocity":0.3543307086614173,"duration":0.13043474999999916},{"name":"A#3","midi":58,"time":45.26085824999995,"velocity":0.3543307086614173,"duration":0.13043474999999916},{"name":"A#2","midi":46,"time":45.39129299999995,"velocity":0.3543307086614173,"duration":0.13043474999999916},{"name":"F3","midi":53,"time":45.39129299999995,"velocity":0.3543307086614173,"duration":0.13043474999999916},{"name":"A#3","midi":58,"time":45.39129299999995,"velocity":0.3543307086614173,"duration":0.13043474999999916},{"name":"A#2","midi":46,"time":45.52172774999995,"velocity":0.3543307086614173,"duration":0.13043474999999916},{"name":"F3","midi":53,"time":45.52172774999995,"velocity":0.3543307086614173,"duration":0.13043474999999916},{"name":"A#3","midi":58,"time":45.52172774999995,"velocity":0.3543307086614173,"duration":0.13043474999999916},{"name":"A#2","midi":46,"time":45.652162499999946,"velocity":0.3543307086614173,"duration":0.13043474999999916},{"name":"F3","midi":53,"time":45.652162499999946,"velocity":0.3543307086614173,"duration":0.13043474999999916},{"name":"A#3","midi":58,"time":45.652162499999946,"velocity":0.3543307086614173,"duration":0.13043474999999916},{"name":"A#2","midi":46,"time":45.782597249999945,"velocity":0.3543307086614173,"duration":0.13043474999999916},{"name":"F3","midi":53,"time":45.782597249999945,"velocity":0.3543307086614173,"duration":0.13043474999999916},{"name":"A#3","midi":58,"time":45.782597249999945,"velocity":0.3543307086614173,"duration":0.13043474999999916},{"name":"C4","midi":60,"time":45.913031999999944,"velocity":0.3543307086614173,"duration":0.13043474999999916},{"name":"C3","midi":48,"time":45.913031999999944,"velocity":0.3543307086614173,"duration":0.13043474999999916},{"name":"G3","midi":55,"time":45.913031999999944,"velocity":0.3543307086614173,"duration":0.13043474999999916},{"name":"C4","midi":60,"time":46.04346674999994,"velocity":0.3543307086614173,"duration":0.13043474999999916},{"name":"C3","midi":48,"time":46.04346674999994,"velocity":0.3543307086614173,"duration":0.13043474999999916},{"name":"G3","midi":55,"time":46.04346674999994,"velocity":0.3543307086614173,"duration":0.13043474999999916},{"name":"C4","midi":60,"time":46.17390149999994,"velocity":0.3543307086614173,"duration":0.13043474999999916},{"name":"C3","midi":48,"time":46.17390149999994,"velocity":0.3543307086614173,"duration":0.13043474999999916},{"name":"G3","midi":55,"time":46.17390149999994,"velocity":0.3543307086614173,"duration":0.13043474999999916},{"name":"C4","midi":60,"time":46.30433624999994,"velocity":0.3543307086614173,"duration":0.13043474999999916},{"name":"C3","midi":48,"time":46.30433624999994,"velocity":0.3543307086614173,"duration":0.13043474999999916},{"name":"G3","midi":55,"time":46.30433624999994,"velocity":0.3543307086614173,"duration":0.13043474999999916},{"name":"C4","midi":60,"time":46.43477099999994,"velocity":0.3543307086614173,"duration":0.13043474999999916},{"name":"C3","midi":48,"time":46.43477099999994,"velocity":0.3543307086614173,"duration":0.13043474999999916},{"name":"G3","midi":55,"time":46.43477099999994,"velocity":0.3543307086614173,"duration":0.13043474999999916},{"name":"C4","midi":60,"time":46.56520574999994,"velocity":0.3543307086614173,"duration":0.13043474999999916},{"name":"C3","midi":48,"time":46.56520574999994,"velocity":0.3543307086614173,"duration":0.13043474999999916},{"name":"G3","midi":55,"time":46.56520574999994,"velocity":0.3543307086614173,"duration":0.13043474999999916},{"name":"C4","midi":60,"time":46.69564049999994,"velocity":0.3543307086614173,"duration":0.13043474999999916},{"name":"C3","midi":48,"time":46.69564049999994,"velocity":0.3543307086614173,"duration":0.13043474999999916},{"name":"G3","midi":55,"time":46.69564049999994,"velocity":0.3543307086614173,"duration":0.13043474999999916},{"name":"C4","midi":60,"time":46.82607524999994,"velocity":0.3543307086614173,"duration":0.13043474999999916},{"name":"C3","midi":48,"time":46.82607524999994,"velocity":0.3543307086614173,"duration":0.13043474999999916},{"name":"G3","midi":55,"time":46.82607524999994,"velocity":0.3543307086614173,"duration":0.13043474999999916},{"name":"C4","midi":60,"time":46.95650999999994,"velocity":0.3543307086614173,"duration":0.13043474999999916},{"name":"C3","midi":48,"time":46.95650999999994,"velocity":0.3543307086614173,"duration":0.13043474999999916},{"name":"G3","midi":55,"time":46.95650999999994,"velocity":0.3543307086614173,"duration":0.13043474999999916},{"name":"C4","midi":60,"time":47.08694474999994,"velocity":0.3543307086614173,"duration":0.13043474999999916},{"name":"C3","midi":48,"time":47.08694474999994,"velocity":0.3543307086614173,"duration":0.13043474999999916},{"name":"G3","midi":55,"time":47.08694474999994,"velocity":0.3543307086614173,"duration":0.13043474999999916},{"name":"C4","midi":60,"time":47.217379499999936,"velocity":0.3543307086614173,"duration":0.13043474999999916},{"name":"C3","midi":48,"time":47.217379499999936,"velocity":0.3543307086614173,"duration":0.13043474999999916},{"name":"G3","midi":55,"time":47.217379499999936,"velocity":0.3543307086614173,"duration":0.13043474999999916},{"name":"C4","midi":60,"time":47.347814249999935,"velocity":0.3543307086614173,"duration":0.13043474999999916},{"name":"C3","midi":48,"time":47.347814249999935,"velocity":0.3543307086614173,"duration":0.13043474999999916},{"name":"G3","midi":55,"time":47.347814249999935,"velocity":0.3543307086614173,"duration":0.13043474999999916},{"name":"C4","midi":60,"time":47.478248999999934,"velocity":0.3543307086614173,"duration":0.13043474999999916},{"name":"C3","midi":48,"time":47.478248999999934,"velocity":0.3543307086614173,"duration":0.13043474999999916},{"name":"G3","midi":55,"time":47.478248999999934,"velocity":0.3543307086614173,"duration":0.13043474999999916},{"name":"C4","midi":60,"time":47.60868374999993,"velocity":0.3543307086614173,"duration":0.13043474999999916},{"name":"C3","midi":48,"time":47.60868374999993,"velocity":0.3543307086614173,"duration":0.13043474999999916},{"name":"G3","midi":55,"time":47.60868374999993,"velocity":0.3543307086614173,"duration":0.13043474999999916},{"name":"C4","midi":60,"time":47.73911849999993,"velocity":0.3543307086614173,"duration":0.13043474999999916},{"name":"C3","midi":48,"time":47.73911849999993,"velocity":0.3543307086614173,"duration":0.13043474999999916},{"name":"G3","midi":55,"time":47.73911849999993,"velocity":0.3543307086614173,"duration":0.13043474999999916},{"name":"C4","midi":60,"time":47.86955324999993,"velocity":0.3543307086614173,"duration":0.13043474999999916},{"name":"C3","midi":48,"time":47.86955324999993,"velocity":0.3543307086614173,"duration":0.13043474999999916},{"name":"G3","midi":55,"time":47.86955324999993,"velocity":0.3543307086614173,"duration":0.13043474999999916},{"name":"D4","midi":62,"time":47.99998799999993,"velocity":0.3543307086614173,"duration":0.13043474999999916},{"name":"D3","midi":50,"time":47.99998799999993,"velocity":0.3543307086614173,"duration":0.13043474999999916},{"name":"A3","midi":57,"time":47.99998799999993,"velocity":0.3543307086614173,"duration":0.13043474999999916},{"name":"D4","midi":62,"time":48.13042274999993,"velocity":0.3543307086614173,"duration":0.13043474999999916},{"name":"D3","midi":50,"time":48.13042274999993,"velocity":0.3543307086614173,"duration":0.13043474999999916},{"name":"A3","midi":57,"time":48.13042274999993,"velocity":0.3543307086614173,"duration":0.13043474999999916},{"name":"D4","midi":62,"time":48.26085749999993,"velocity":0.3543307086614173,"duration":0.13043474999999916},{"name":"D3","midi":50,"time":48.26085749999993,"velocity":0.3543307086614173,"duration":0.13043474999999916},{"name":"A3","midi":57,"time":48.26085749999993,"velocity":0.3543307086614173,"duration":0.13043474999999916},{"name":"D4","midi":62,"time":48.39129224999993,"velocity":0.3543307086614173,"duration":0.13043474999999916},{"name":"D3","midi":50,"time":48.39129224999993,"velocity":0.3543307086614173,"duration":0.13043474999999916},{"name":"A3","midi":57,"time":48.39129224999993,"velocity":0.3543307086614173,"duration":0.13043474999999916},{"name":"D4","midi":62,"time":48.52172699999993,"velocity":0.3543307086614173,"duration":0.13043474999999916},{"name":"D3","midi":50,"time":48.52172699999993,"velocity":0.3543307086614173,"duration":0.13043474999999916},{"name":"A3","midi":57,"time":48.52172699999993,"velocity":0.3543307086614173,"duration":0.13043474999999916},{"name":"D4","midi":62,"time":48.65216174999993,"velocity":0.3543307086614173,"duration":0.13043474999999916},{"name":"D3","midi":50,"time":48.65216174999993,"velocity":0.3543307086614173,"duration":0.13043474999999916},{"name":"A3","midi":57,"time":48.65216174999993,"velocity":0.3543307086614173,"duration":0.13043474999999916},{"name":"D4","midi":62,"time":48.782596499999926,"velocity":0.3543307086614173,"duration":0.13043474999999916},{"name":"D3","midi":50,"time":48.782596499999926,"velocity":0.3543307086614173,"duration":0.13043474999999916},{"name":"A3","midi":57,"time":48.782596499999926,"velocity":0.3543307086614173,"duration":0.13043474999999916},{"name":"D4","midi":62,"time":48.913031249999925,"velocity":0.3543307086614173,"duration":0.13043474999999916},{"name":"D3","midi":50,"time":48.913031249999925,"velocity":0.3543307086614173,"duration":0.13043474999999916},{"name":"A3","midi":57,"time":48.913031249999925,"velocity":0.3543307086614173,"duration":0.13043474999999916},{"name":"D4","midi":62,"time":49.043465999999924,"velocity":0.3543307086614173,"duration":0.13043474999999916},{"name":"D3","midi":50,"time":49.043465999999924,"velocity":0.3543307086614173,"duration":0.13043474999999916},{"name":"A3","midi":57,"time":49.043465999999924,"velocity":0.3543307086614173,"duration":0.13043474999999916},{"name":"D4","midi":62,"time":49.17390074999992,"velocity":0.3543307086614173,"duration":0.13043474999999916},{"name":"D3","midi":50,"time":49.17390074999992,"velocity":0.3543307086614173,"duration":0.13043474999999916},{"name":"A3","midi":57,"time":49.17390074999992,"velocity":0.3543307086614173,"duration":0.13043474999999916},{"name":"D4","midi":62,"time":49.30433549999992,"velocity":0.3543307086614173,"duration":0.13043474999999916},{"name":"D3","midi":50,"time":49.30433549999992,"velocity":0.3543307086614173,"duration":0.13043474999999916},{"name":"A3","midi":57,"time":49.30433549999992,"velocity":0.3543307086614173,"duration":0.13043474999999916},{"name":"D4","midi":62,"time":49.43477024999992,"velocity":0.3543307086614173,"duration":0.13043474999999916},{"name":"D3","midi":50,"time":49.43477024999992,"velocity":0.3543307086614173,"duration":0.13043474999999916},{"name":"A3","midi":57,"time":49.43477024999992,"velocity":0.3543307086614173,"duration":0.13043474999999916},{"name":"D4","midi":62,"time":49.56520499999992,"velocity":0.3543307086614173,"duration":0.13043474999999916},{"name":"D3","midi":50,"time":49.56520499999992,"velocity":0.3543307086614173,"duration":0.13043474999999916},{"name":"A3","midi":57,"time":49.56520499999992,"velocity":0.3543307086614173,"duration":0.13043474999999916},{"name":"D4","midi":62,"time":49.69563974999992,"velocity":0.3543307086614173,"duration":0.13043474999999916},{"name":"D3","midi":50,"time":49.69563974999992,"velocity":0.3543307086614173,"duration":0.13043474999999916},{"name":"A3","midi":57,"time":49.69563974999992,"velocity":0.3543307086614173,"duration":0.13043474999999916},{"name":"D4","midi":62,"time":49.82607449999992,"velocity":0.3543307086614173,"duration":0.13043474999999916},{"name":"D3","midi":50,"time":49.82607449999992,"velocity":0.3543307086614173,"duration":0.13043474999999916},{"name":"A3","midi":57,"time":49.82607449999992,"velocity":0.3543307086614173,"duration":0.13043474999999916},{"name":"D4","midi":62,"time":49.95650924999992,"velocity":0.3543307086614173,"duration":0.13043474999999916},{"name":"D3","midi":50,"time":49.95650924999992,"velocity":0.3543307086614173,"duration":0.13043474999999916},{"name":"A3","midi":57,"time":49.95650924999992,"velocity":0.3543307086614173,"duration":0.13043474999999916},{"name":"G3","midi":55,"time":50.08694399999992,"velocity":0.3543307086614173,"duration":1.0434780000000003},{"name":"C4","midi":60,"time":50.08694399999992,"velocity":0.3543307086614173,"duration":1.0434780000000003},{"name":"C3","midi":48,"time":50.08694399999992,"velocity":0.3543307086614173,"duration":1.0434780000000003},{"name":"A#2","midi":46,"time":60.52172399999992,"velocity":0.3543307086614173,"duration":0.13043474999999916},{"name":"F3","midi":53,"time":60.52172399999992,"velocity":0.3543307086614173,"duration":0.13043474999999916},{"name":"A#2","midi":46,"time":61.04346299999992,"velocity":0.3543307086614173,"duration":0.13043474999999916},{"name":"F3","midi":53,"time":61.04346299999992,"velocity":0.3543307086614173,"duration":0.13043474999999916},{"name":"A#2","midi":46,"time":61.565201999999914,"velocity":0.3543307086614173,"duration":0.13043474999999916},{"name":"F3","midi":53,"time":61.565201999999914,"velocity":0.3543307086614173,"duration":0.13043474999999916},{"name":"F3","midi":53,"time":62.08694099999991,"velocity":0.3543307086614173,"duration":0.13043474999999916},{"name":"E3","midi":52,"time":62.21737574999991,"velocity":0.3543307086614173,"duration":0.13043474999999916},{"name":"D3","midi":50,"time":62.34781049999991,"velocity":0.3543307086614173,"duration":0.13043474999999916},{"name":"F3","midi":53,"time":62.47824524999991,"velocity":0.3543307086614173,"duration":0.13043474999999916},{"name":"C3","midi":48,"time":62.60867999999991,"velocity":0.3543307086614173,"duration":0.13043474999999916},{"name":"G3","midi":55,"time":62.60867999999991,"velocity":0.3543307086614173,"duration":0.13043474999999916},{"name":"C3","midi":48,"time":63.130418999999904,"velocity":0.3543307086614173,"duration":0.13043474999999916},{"name":"G3","midi":55,"time":63.130418999999904,"velocity":0.3543307086614173,"duration":0.13043474999999916},{"name":"C3","midi":48,"time":63.6521579999999,"velocity":0.3543307086614173,"duration":0.13043474999999916},{"name":"G3","midi":55,"time":63.6521579999999,"velocity":0.3543307086614173,"duration":0.13043474999999916},{"name":"C3","midi":48,"time":64.1738969999999,"velocity":0.3543307086614173,"duration":0.13043475000000626},{"name":"G3","midi":55,"time":64.1738969999999,"velocity":0.3543307086614173,"duration":0.13043475000000626},{"name":"F3","midi":53,"time":64.3043317499999,"velocity":0.3543307086614173,"duration":0.13043475000000626},{"name":"E3","midi":52,"time":64.43476649999991,"velocity":0.3543307086614173,"duration":0.13043475000000626},{"name":"C3","midi":48,"time":64.56520124999992,"velocity":0.3543307086614173,"duration":0.13043475000000626},{"name":"A2","midi":45,"time":64.69563599999992,"velocity":0.3543307086614173,"duration":0.13043475000000626},{"name":"D3","midi":50,"time":64.69563599999992,"velocity":0.3543307086614173,"duration":0.13043475000000626},{"name":"A2","midi":45,"time":65.21737499999993,"velocity":0.3543307086614173,"duration":0.13043475000000626},{"name":"D3","midi":50,"time":65.21737499999993,"velocity":0.3543307086614173,"duration":0.13043475000000626},{"name":"A2","midi":45,"time":65.73911399999994,"velocity":0.3543307086614173,"duration":0.13043475000000626},{"name":"D3","midi":50,"time":65.73911399999994,"velocity":0.3543307086614173,"duration":0.13043475000000626},{"name":"A2","midi":45,"time":66.26085299999995,"velocity":0.3543307086614173,"duration":0.13043475000000626},{"name":"D3","midi":50,"time":66.26085299999995,"velocity":0.3543307086614173,"duration":0.13043475000000626},{"name":"C3","midi":48,"time":66.39128774999996,"velocity":0.3543307086614173,"duration":0.13043475000000626},{"name":"A#2","midi":46,"time":66.52172249999997,"velocity":0.3543307086614173,"duration":0.13043475000000626},{"name":"D3","midi":50,"time":66.65215724999997,"velocity":0.3543307086614173,"duration":0.13043475000000626},{"name":"A2","midi":45,"time":66.78259199999998,"velocity":0.3543307086614173,"duration":0.13043475000000626},{"name":"A2","midi":45,"time":67.17389624999998,"velocity":0.3543307086614173,"duration":0.19565212499999518},{"name":"A2","midi":45,"time":67.56520049999997,"velocity":0.3543307086614173,"duration":0.13043475000000626},{"name":"C3","midi":48,"time":67.82606999999999,"velocity":0.3543307086614173,"duration":0.13043475000000626},{"name":"C3","midi":48,"time":68.21737424999999,"velocity":0.3543307086614173,"duration":0.39130425000000457},{"name":"E3","midi":52,"time":68.6086785,"velocity":0.3543307086614173,"duration":0.13043475000000626},{"name":"A#3","midi":58,"time":68.86954800000001,"velocity":0.3543307086614173,"duration":0.13043475000000626},{"name":"A#2","midi":46,"time":68.86954800000001,"velocity":0.3543307086614173,"duration":0.13043475000000626},{"name":"F3","midi":53,"time":68.99998275000002,"velocity":0.3543307086614173,"duration":0.13043475000000626},{"name":"A#3","midi":58,"time":69.13041750000002,"velocity":0.3543307086614173,"duration":0.13043475000000626},{"name":"F3","midi":53,"time":69.26085225000003,"velocity":0.3543307086614173,"duration":0.13043475000000626},{"name":"A#3","midi":58,"time":69.39128700000003,"velocity":0.3543307086614173,"duration":0.13043475000000626},{"name":"A#2","midi":46,"time":69.39128700000003,"velocity":0.3543307086614173,"duration":0.13043475000000626},{"name":"F3","midi":53,"time":69.52172175000004,"velocity":0.3543307086614173,"duration":0.13043475000000626},{"name":"A#3","midi":58,"time":69.65215650000005,"velocity":0.3543307086614173,"duration":0.13043475000000626},{"name":"A#3","midi":58,"time":69.78259125000005,"velocity":0.3543307086614173,"duration":0.13043475000000626},{"name":"F3","midi":53,"time":69.78259125000005,"velocity":0.3543307086614173,"duration":0.13043475000000626},{"name":"A#2","midi":46,"time":69.91302600000006,"velocity":0.3543307086614173,"duration":0.13043475000000626},{"name":"A#3","midi":58,"time":70.04346075000007,"velocity":0.3543307086614173,"duration":0.13043475000000626},{"name":"F3","midi":53,"time":70.04346075000007,"velocity":0.3543307086614173,"duration":0.13043475000000626},{"name":"A#3","midi":58,"time":70.17389550000007,"velocity":0.3543307086614173,"duration":0.13043475000000626},{"name":"A#3","midi":58,"time":70.17389550000007,"velocity":0.3543307086614173,"duration":0.13043475000000626},{"name":"A#3","midi":58,"time":70.30433025000008,"velocity":0.3543307086614173,"duration":0.13043475000000626},{"name":"F3","midi":53,"time":70.30433025000008,"velocity":0.3543307086614173,"duration":0.13043475000000626},{"name":"A#3","midi":58,"time":70.43476500000008,"velocity":0.3543307086614173,"duration":0.13043475000000626},{"name":"A#2","midi":46,"time":70.43476500000008,"velocity":0.3543307086614173,"duration":0.13043475000000626},{"name":"A#3","midi":58,"time":70.56519975000009,"velocity":0.3543307086614173,"duration":0.13043475000000626},{"name":"F3","midi":53,"time":70.56519975000009,"velocity":0.3543307086614173,"duration":0.13043475000000626},{"name":"A#3","midi":58,"time":70.6956345000001,"velocity":0.3543307086614173,"duration":0.13043475000000626},{"name":"F3","midi":53,"time":70.8260692500001,"velocity":0.3543307086614173,"duration":0.13043475000000626},{"name":"C4","midi":60,"time":70.95650400000011,"velocity":0.3543307086614173,"duration":0.13043475000000626},{"name":"C3","midi":48,"time":70.95650400000011,"velocity":0.3543307086614173,"duration":0.13043475000000626},{"name":"G3","midi":55,"time":71.08693875000012,"velocity":0.3543307086614173,"duration":0.13043475000000626},{"name":"C4","midi":60,"time":71.21737350000012,"velocity":0.3543307086614173,"duration":0.13043475000000626},{"name":"G3","midi":55,"time":71.34780825000013,"velocity":0.3543307086614173,"duration":0.13043475000000626},{"name":"C4","midi":60,"time":71.47824300000013,"velocity":0.3543307086614173,"duration":0.13043475000000626},{"name":"C3","midi":48,"time":71.47824300000013,"velocity":0.3543307086614173,"duration":0.13043475000000626},{"name":"G3","midi":55,"time":71.60867775000014,"velocity":0.3543307086614173,"duration":0.13043475000000626},{"name":"C4","midi":60,"time":71.73911250000015,"velocity":0.3543307086614173,"duration":0.13043475000000626},{"name":"C4","midi":60,"time":71.86954725000015,"velocity":0.3543307086614173,"duration":0.13043475000000626},{"name":"G3","midi":55,"time":71.86954725000015,"velocity":0.3543307086614173,"duration":0.13043475000000626},{"name":"C3","midi":48,"time":71.99998200000016,"velocity":0.3543307086614173,"duration":0.13043475000000626},{"name":"C4","midi":60,"time":72.13041675000017,"velocity":0.3543307086614173,"duration":0.13043475000000626},{"name":"G3","midi":55,"time":72.13041675000017,"velocity":0.3543307086614173,"duration":0.13043475000000626},{"name":"C4","midi":60,"time":72.26085150000017,"velocity":0.3543307086614173,"duration":0.13043475000000626},{"name":"C4","midi":60,"time":72.26085150000017,"velocity":0.3543307086614173,"duration":0.13043475000000626},{"name":"C4","midi":60,"time":72.39128625000018,"velocity":0.3543307086614173,"duration":0.13043475000000626},{"name":"G3","midi":55,"time":72.39128625000018,"velocity":0.3543307086614173,"duration":0.13043475000000626},{"name":"C4","midi":60,"time":72.52172100000018,"velocity":0.3543307086614173,"duration":0.13043475000000626},{"name":"C3","midi":48,"time":72.52172100000018,"velocity":0.3543307086614173,"duration":0.13043475000000626},{"name":"C4","midi":60,"time":72.65215575000019,"velocity":0.3543307086614173,"duration":0.13043475000000626},{"name":"G3","midi":55,"time":72.65215575000019,"velocity":0.3543307086614173,"duration":0.13043475000000626},{"name":"C4","midi":60,"time":72.7825905000002,"velocity":0.3543307086614173,"duration":0.13043475000000626},{"name":"G3","midi":55,"time":72.9130252500002,"velocity":0.3543307086614173,"duration":0.13043475000000626},{"name":"D4","midi":62,"time":73.04346000000021,"velocity":0.3543307086614173,"duration":0.13043475000000626},{"name":"D3","midi":50,"time":73.04346000000021,"velocity":0.3543307086614173,"duration":0.13043475000000626},{"name":"A3","midi":57,"time":73.17389475000022,"velocity":0.3543307086614173,"duration":0.13043475000000626},{"name":"D4","midi":62,"time":73.30432950000022,"velocity":0.3543307086614173,"duration":0.13043475000000626},{"name":"A3","midi":57,"time":73.43476425000023,"velocity":0.3543307086614173,"duration":0.13043475000000626},{"name":"D4","midi":62,"time":73.56519900000023,"velocity":0.3543307086614173,"duration":0.13043475000000626},{"name":"D3","midi":50,"time":73.56519900000023,"velocity":0.3543307086614173,"duration":0.13043475000000626},{"name":"A3","midi":57,"time":73.69563375000024,"velocity":0.3543307086614173,"duration":0.13043475000000626},{"name":"D4","midi":62,"time":73.82606850000025,"velocity":0.3543307086614173,"duration":0.13043475000000626},{"name":"D4","midi":62,"time":73.95650325000025,"velocity":0.3543307086614173,"duration":0.13043475000000626},{"name":"A3","midi":57,"time":73.95650325000025,"velocity":0.3543307086614173,"duration":0.13043475000000626},{"name":"D3","midi":50,"time":74.08693800000026,"velocity":0.3543307086614173,"duration":0.13043475000000626},{"name":"D4","midi":62,"time":74.21737275000027,"velocity":0.3543307086614173,"duration":0.13043475000000626},{"name":"A3","midi":57,"time":74.21737275000027,"velocity":0.3543307086614173,"duration":0.13043475000000626},{"name":"D4","midi":62,"time":74.34780750000027,"velocity":0.3543307086614173,"duration":0.13043475000000626},{"name":"D4","midi":62,"time":74.34780750000027,"velocity":0.3543307086614173,"duration":0.13043475000000626},{"name":"D4","midi":62,"time":74.47824225000028,"velocity":0.3543307086614173,"duration":0.13043475000000626},{"name":"A3","midi":57,"time":74.47824225000028,"velocity":0.3543307086614173,"duration":0.13043475000000626},{"name":"D4","midi":62,"time":74.60867700000028,"velocity":0.3543307086614173,"duration":0.13043475000000626},{"name":"D3","midi":50,"time":74.60867700000028,"velocity":0.3543307086614173,"duration":0.13043475000000626},{"name":"D4","midi":62,"time":74.73911175000029,"velocity":0.3543307086614173,"duration":0.13043475000000626},{"name":"A3","midi":57,"time":74.73911175000029,"velocity":0.3543307086614173,"duration":0.13043475000000626},{"name":"D4","midi":62,"time":74.8695465000003,"velocity":0.3543307086614173,"duration":0.13043475000000626},{"name":"A3","midi":57,"time":74.9999812500003,"velocity":0.3543307086614173,"duration":0.13043475000000626},{"name":"C4","midi":60,"time":75.13041600000031,"velocity":0.3543307086614173,"duration":0.13043475000000626},{"name":"C3","midi":48,"time":75.13041600000031,"velocity":0.3543307086614173,"duration":0.13043475000000626},{"name":"G3","midi":55,"time":75.26085075000032,"velocity":0.3543307086614173,"duration":0.13043475000000626},{"name":"C4","midi":60,"time":75.39128550000032,"velocity":0.3543307086614173,"duration":0.13043475000000626},{"name":"G3","midi":55,"time":75.52172025000033,"velocity":0.3543307086614173,"duration":0.13043475000000626},{"name":"C4","midi":60,"time":75.65215500000033,"velocity":0.3543307086614173,"duration":0.13043475000000626},{"name":"C3","midi":48,"time":75.65215500000033,"velocity":0.3543307086614173,"duration":0.13043475000000626},{"name":"G3","midi":55,"time":75.78258975000034,"velocity":0.3543307086614173,"duration":0.13043475000000626},{"name":"C4","midi":60,"time":75.91302450000035,"velocity":0.3543307086614173,"duration":0.13043475000000626},{"name":"C4","midi":60,"time":76.04345925000035,"velocity":0.3543307086614173,"duration":0.13043475000000626},{"name":"G3","midi":55,"time":76.04345925000035,"velocity":0.3543307086614173,"duration":0.13043475000000626},{"name":"C3","midi":48,"time":76.17389400000036,"velocity":0.3543307086614173,"duration":0.13043475000000626},{"name":"C4","midi":60,"time":76.30432875000037,"velocity":0.3543307086614173,"duration":0.13043475000000626},{"name":"G3","midi":55,"time":76.30432875000037,"velocity":0.3543307086614173,"duration":0.13043475000000626},{"name":"C4","midi":60,"time":76.43476350000037,"velocity":0.3543307086614173,"duration":0.13043475000000626},{"name":"C4","midi":60,"time":76.43476350000037,"velocity":0.3543307086614173,"duration":0.13043475000000626},{"name":"C4","midi":60,"time":76.56519825000038,"velocity":0.3543307086614173,"duration":0.13043475000000626},{"name":"G3","midi":55,"time":76.56519825000038,"velocity":0.3543307086614173,"duration":0.13043475000000626},{"name":"C4","midi":60,"time":76.69563300000038,"velocity":0.3543307086614173,"duration":0.13043475000000626},{"name":"C3","midi":48,"time":76.69563300000038,"velocity":0.3543307086614173,"duration":0.13043475000000626},{"name":"C4","midi":60,"time":76.82606775000039,"velocity":0.3543307086614173,"duration":0.13043475000000626},{"name":"G3","midi":55,"time":76.82606775000039,"velocity":0.3543307086614173,"duration":0.13043475000000626},{"name":"C4","midi":60,"time":76.9565025000004,"velocity":0.3543307086614173,"duration":0.13043475000000626},{"name":"G3","midi":55,"time":77.0869372500004,"velocity":0.3543307086614173,"duration":0.13043475000000626},{"name":"A#3","midi":58,"time":77.21737200000041,"velocity":0.3543307086614173,"duration":0.13043475000000626},{"name":"A#2","midi":46,"time":77.21737200000041,"velocity":0.3543307086614173,"duration":0.13043475000000626},{"name":"F3","midi":53,"time":77.34780675000042,"velocity":0.3543307086614173,"duration":0.13043475000000626},{"name":"A#3","midi":58,"time":77.47824150000042,"velocity":0.3543307086614173,"duration":0.13043475000000626},{"name":"F3","midi":53,"time":77.60867625000043,"velocity":0.3543307086614173,"duration":0.13043475000000626},{"name":"A#3","midi":58,"time":77.73911100000043,"velocity":0.3543307086614173,"duration":0.13043475000000626},{"name":"A#2","midi":46,"time":77.73911100000043,"velocity":0.3543307086614173,"duration":0.13043475000000626},{"name":"F3","midi":53,"time":77.86954575000044,"velocity":0.3543307086614173,"duration":0.13043475000000626},{"name":"A#3","midi":58,"time":77.99998050000045,"velocity":0.3543307086614173,"duration":0.13043475000000626},{"name":"A#3","midi":58,"time":78.13041525000045,"velocity":0.3543307086614173,"duration":0.13043475000000626},{"name":"F3","midi":53,"time":78.13041525000045,"velocity":0.3543307086614173,"duration":0.13043475000000626},{"name":"A#2","midi":46,"time":78.26085000000046,"velocity":0.3543307086614173,"duration":0.13043475000000626},{"name":"A#3","midi":58,"time":78.39128475000047,"velocity":0.3543307086614173,"duration":0.13043475000000626},{"name":"F3","midi":53,"time":78.39128475000047,"velocity":0.3543307086614173,"duration":0.13043475000000626},{"name":"A#3","midi":58,"time":78.52171950000047,"velocity":0.3543307086614173,"duration":0.13043475000000626},{"name":"A#3","midi":58,"time":78.52171950000047,"velocity":0.3543307086614173,"duration":0.13043475000000626},{"name":"A#3","midi":58,"time":78.65215425000048,"velocity":0.3543307086614173,"duration":0.13043475000000626},{"name":"F3","midi":53,"time":78.65215425000048,"velocity":0.3543307086614173,"duration":0.13043475000000626},{"name":"A#3","midi":58,"time":78.78258900000048,"velocity":0.3543307086614173,"duration":0.13043475000000626},{"name":"A#2","midi":46,"time":78.78258900000048,"velocity":0.3543307086614173,"duration":0.13043475000000626},{"name":"A#3","midi":58,"time":78.91302375000049,"velocity":0.3543307086614173,"duration":0.13043475000000626},{"name":"F3","midi":53,"time":78.91302375000049,"velocity":0.3543307086614173,"duration":0.13043475000000626},{"name":"A#3","midi":58,"time":79.0434585000005,"velocity":0.3543307086614173,"duration":0.13043475000000626},{"name":"F3","midi":53,"time":79.1738932500005,"velocity":0.3543307086614173,"duration":0.13043475000000626},{"name":"C4","midi":60,"time":79.30432800000051,"velocity":0.3543307086614173,"duration":0.13043475000000626},{"name":"C3","midi":48,"time":79.30432800000051,"velocity":0.3543307086614173,"duration":0.13043475000000626},{"name":"G3","midi":55,"time":79.43476275000052,"velocity":0.3543307086614173,"duration":0.13043475000000626},{"name":"C4","midi":60,"time":79.56519750000052,"velocity":0.3543307086614173,"duration":0.13043475000000626},{"name":"G3","midi":55,"time":79.69563225000053,"velocity":0.3543307086614173,"duration":0.13043475000000626},{"name":"C4","midi":60,"time":79.82606700000053,"velocity":0.3543307086614173,"duration":0.13043475000000626},{"name":"C3","midi":48,"time":79.82606700000053,"velocity":0.3543307086614173,"duration":0.13043475000000626},{"name":"G3","midi":55,"time":79.95650175000054,"velocity":0.3543307086614173,"duration":0.13043475000000626},{"name":"C4","midi":60,"time":80.08693650000055,"velocity":0.3543307086614173,"duration":0.13043475000000626},{"name":"C4","midi":60,"time":80.21737125000055,"velocity":0.3543307086614173,"duration":0.13043475000000626},{"name":"G3","midi":55,"time":80.21737125000055,"velocity":0.3543307086614173,"duration":0.13043475000000626},{"name":"C3","midi":48,"time":80.34780600000056,"velocity":0.3543307086614173,"duration":0.13043475000000626},{"name":"C4","midi":60,"time":80.47824075000057,"velocity":0.3543307086614173,"duration":0.13043475000000626},{"name":"G3","midi":55,"time":80.47824075000057,"velocity":0.3543307086614173,"duration":0.13043475000000626},{"name":"C4","midi":60,"time":80.60867550000057,"velocity":0.3543307086614173,"duration":0.13043475000000626},{"name":"C4","midi":60,"time":80.60867550000057,"velocity":0.3543307086614173,"duration":0.13043475000000626},{"name":"C4","midi":60,"time":80.73911025000058,"velocity":0.3543307086614173,"duration":0.13043475000000626},{"name":"G3","midi":55,"time":80.73911025000058,"velocity":0.3543307086614173,"duration":0.13043475000000626},{"name":"C4","midi":60,"time":80.86954500000058,"velocity":0.3543307086614173,"duration":0.13043475000000626},{"name":"C3","midi":48,"time":80.86954500000058,"velocity":0.3543307086614173,"duration":0.13043475000000626},{"name":"C4","midi":60,"time":80.99997975000059,"velocity":0.3543307086614173,"duration":0.13043475000000626},{"name":"G3","midi":55,"time":80.99997975000059,"velocity":0.3543307086614173,"duration":0.13043475000000626},{"name":"C4","midi":60,"time":81.1304145000006,"velocity":0.3543307086614173,"duration":0.13043475000000626},{"name":"G3","midi":55,"time":81.2608492500006,"velocity":0.3543307086614173,"duration":0.13043475000000626},{"name":"D4","midi":62,"time":81.39128400000061,"velocity":0.3543307086614173,"duration":0.13043475000000626},{"name":"D3","midi":50,"time":81.39128400000061,"velocity":0.3543307086614173,"duration":0.13043475000000626},{"name":"A3","midi":57,"time":81.52171875000062,"velocity":0.3543307086614173,"duration":0.13043475000000626},{"name":"D4","midi":62,"time":81.65215350000062,"velocity":0.3543307086614173,"duration":0.13043475000000626},{"name":"A3","midi":57,"time":81.78258825000063,"velocity":0.3543307086614173,"duration":0.13043475000000626},{"name":"D4","midi":62,"time":81.91302300000063,"velocity":0.3543307086614173,"duration":0.13043475000000626},{"name":"D3","midi":50,"time":81.91302300000063,"velocity":0.3543307086614173,"duration":0.13043475000000626},{"name":"A3","midi":57,"time":82.04345775000064,"velocity":0.3543307086614173,"duration":0.13043475000000626},{"name":"D4","midi":62,"time":82.17389250000065,"velocity":0.3543307086614173,"duration":0.13043475000000626},{"name":"D4","midi":62,"time":82.30432725000065,"velocity":0.3543307086614173,"duration":0.13043475000000626},{"name":"A3","midi":57,"time":82.30432725000065,"velocity":0.3543307086614173,"duration":0.13043475000000626},{"name":"D3","midi":50,"time":82.43476200000066,"velocity":0.3543307086614173,"duration":0.13043475000000626},{"name":"D4","midi":62,"time":82.56519675000067,"velocity":0.3543307086614173,"duration":0.13043475000000626},{"name":"A3","midi":57,"time":82.56519675000067,"velocity":0.3543307086614173,"duration":0.13043475000000626},{"name":"D4","midi":62,"time":82.69563150000067,"velocity":0.3543307086614173,"duration":0.13043475000000626},{"name":"D4","midi":62,"time":82.69563150000067,"velocity":0.3543307086614173,"duration":0.13043475000000626},{"name":"D4","midi":62,"time":82.82606625000068,"velocity":0.3543307086614173,"duration":0.13043475000000626},{"name":"A3","midi":57,"time":82.82606625000068,"velocity":0.3543307086614173,"duration":0.13043475000000626},{"name":"D4","midi":62,"time":82.95650100000069,"velocity":0.3543307086614173,"duration":0.13043475000000626},{"name":"D3","midi":50,"time":82.95650100000069,"velocity":0.3543307086614173,"duration":0.13043475000000626},{"name":"D4","midi":62,"time":83.08693575000069,"velocity":0.3543307086614173,"duration":0.13043475000000626},{"name":"A3","midi":57,"time":83.08693575000069,"velocity":0.3543307086614173,"duration":0.13043475000000626},{"name":"D4","midi":62,"time":83.2173705000007,"velocity":0.3543307086614173,"duration":0.13043475000000626},{"name":"A3","midi":57,"time":83.3478052500007,"velocity":0.3543307086614173,"duration":0.13043475000000626},{"name":"D4","midi":62,"time":83.47824000000071,"velocity":0.3543307086614173,"duration":0.13043475000000626},{"name":"E3","midi":52,"time":83.47824000000071,"velocity":0.3543307086614173,"duration":0.13043475000000626},{"name":"D4","midi":62,"time":83.60867475000072,"velocity":0.3543307086614173,"duration":0.13043475000000626},{"name":"D4","midi":62,"time":83.60867475000072,"velocity":0.3543307086614173,"duration":0.13043475000000626},{"name":"D4","midi":62,"time":83.73910950000072,"velocity":0.3543307086614173,"duration":0.13043475000000626},{"name":"E4","midi":64,"time":83.73910950000072,"velocity":0.3543307086614173,"duration":0.13043475000000626},{"name":"D4","midi":62,"time":83.86954425000073,"velocity":0.3543307086614173,"duration":0.13043475000000626},{"name":"D4","midi":62,"time":83.86954425000073,"velocity":0.3543307086614173,"duration":0.13043475000000626},{"name":"E3","midi":52,"time":83.99997900000074,"velocity":0.3543307086614173,"duration":0.13043475000000626},{"name":"D4","midi":62,"time":84.13041375000074,"velocity":0.3543307086614173,"duration":0.13043475000000626},{"name":"D4","midi":62,"time":84.13041375000074,"velocity":0.3543307086614173,"duration":0.13043475000000626},{"name":"E4","midi":64,"time":84.26084850000075,"velocity":0.3543307086614173,"duration":0.13043475000000626},{"name":"D4","midi":62,"time":84.39128325000075,"velocity":0.3543307086614173,"duration":0.13043475000000626},{"name":"D4","midi":62,"time":84.39128325000075,"velocity":0.3543307086614173,"duration":0.13043475000000626},{"name":"E3","midi":52,"time":84.52171800000076,"velocity":0.3543307086614173,"duration":0.13043475000000626},{"name":"D4","midi":62,"time":84.65215275000077,"velocity":0.3543307086614173,"duration":0.13043475000000626},{"name":"D4","midi":62,"time":84.65215275000077,"velocity":0.3543307086614173,"duration":0.13043475000000626},{"name":"D4","midi":62,"time":84.78258750000077,"velocity":0.3543307086614173,"duration":0.13043475000000626},{"name":"E4","midi":64,"time":84.78258750000077,"velocity":0.3543307086614173,"duration":0.13043475000000626},{"name":"D4","midi":62,"time":84.91302225000078,"velocity":0.3543307086614173,"duration":0.13043475000000626},{"name":"D4","midi":62,"time":84.91302225000078,"velocity":0.3543307086614173,"duration":0.13043475000000626},{"name":"E3","midi":52,"time":85.04345700000079,"velocity":0.3543307086614173,"duration":0.13043475000000626},{"name":"D4","midi":62,"time":85.17389175000079,"velocity":0.3543307086614173,"duration":0.13043475000000626},{"name":"D4","midi":62,"time":85.17389175000079,"velocity":0.3543307086614173,"duration":0.13043475000000626},{"name":"E4","midi":64,"time":85.3043265000008,"velocity":0.3543307086614173,"duration":0.13043475000000626},{"name":"D4","midi":62,"time":85.4347612500008,"velocity":0.3543307086614173,"duration":0.13043475000000626},{"name":"D4","midi":62,"time":85.4347612500008,"velocity":0.3543307086614173,"duration":0.13043475000000626},{"name":"A#3","midi":58,"time":85.56519600000081,"velocity":0.3543307086614173,"duration":0.13043475000000626},{"name":"A#2","midi":46,"time":85.56519600000081,"velocity":0.3543307086614173,"duration":0.13043475000000626},{"name":"F3","midi":53,"time":85.69563075000082,"velocity":0.3543307086614173,"duration":0.13043475000000626},{"name":"A#3","midi":58,"time":85.82606550000082,"velocity":0.3543307086614173,"duration":0.13043475000000626},{"name":"F3","midi":53,"time":85.95650025000083,"velocity":0.3543307086614173,"duration":0.13043475000000626},{"name":"A#3","midi":58,"time":86.08693500000084,"velocity":0.3543307086614173,"duration":0.13043475000000626},{"name":"A#2","midi":46,"time":86.08693500000084,"velocity":0.3543307086614173,"duration":0.13043475000000626},{"name":"F3","midi":53,"time":86.21736975000084,"velocity":0.3543307086614173,"duration":0.13043475000000626},{"name":"A#3","midi":58,"time":86.34780450000085,"velocity":0.3543307086614173,"duration":0.13043475000000626},{"name":"A#3","midi":58,"time":86.47823925000085,"velocity":0.3543307086614173,"duration":0.13043475000000626},{"name":"F3","midi":53,"time":86.47823925000085,"velocity":0.3543307086614173,"duration":0.13043475000000626},{"name":"A#2","midi":46,"time":86.60867400000086,"velocity":0.3543307086614173,"duration":0.13043475000000626},{"name":"A#3","midi":58,"time":86.73910875000087,"velocity":0.3543307086614173,"duration":0.13043475000000626},{"name":"F3","midi":53,"time":86.73910875000087,"velocity":0.3543307086614173,"duration":0.13043475000000626},{"name":"A#3","midi":58,"time":86.86954350000087,"velocity":0.3543307086614173,"duration":0.13043475000000626},{"name":"A#3","midi":58,"time":86.86954350000087,"velocity":0.3543307086614173,"duration":0.13043475000000626},{"name":"A#3","midi":58,"time":86.99997825000088,"velocity":0.3543307086614173,"duration":0.13043475000000626},{"name":"F3","midi":53,"time":86.99997825000088,"velocity":0.3543307086614173,"duration":0.13043475000000626},{"name":"A#3","midi":58,"time":87.13041300000089,"velocity":0.3543307086614173,"duration":0.13043475000000626},{"name":"A#2","midi":46,"time":87.13041300000089,"velocity":0.3543307086614173,"duration":0.13043475000000626},{"name":"A#3","midi":58,"time":87.26084775000089,"velocity":0.3543307086614173,"duration":0.13043475000000626},{"name":"F3","midi":53,"time":87.26084775000089,"velocity":0.3543307086614173,"duration":0.13043475000000626},{"name":"A#3","midi":58,"time":87.3912825000009,"velocity":0.3543307086614173,"duration":0.13043475000000626},{"name":"F3","midi":53,"time":87.5217172500009,"velocity":0.3543307086614173,"duration":0.13043475000000626},{"name":"C4","midi":60,"time":87.65215200000091,"velocity":0.3543307086614173,"duration":0.13043475000000626},{"name":"C3","midi":48,"time":87.65215200000091,"velocity":0.3543307086614173,"duration":0.13043475000000626},{"name":"G3","midi":55,"time":87.78258675000092,"velocity":0.3543307086614173,"duration":0.13043475000000626},{"name":"C4","midi":60,"time":87.91302150000092,"velocity":0.3543307086614173,"duration":0.13043475000000626},{"name":"G3","midi":55,"time":88.04345625000093,"velocity":0.3543307086614173,"duration":0.13043475000000626},{"name":"C4","midi":60,"time":88.17389100000094,"velocity":0.3543307086614173,"duration":0.13043475000000626},{"name":"C3","midi":48,"time":88.17389100000094,"velocity":0.3543307086614173,"duration":0.13043475000000626},{"name":"G3","midi":55,"time":88.30432575000094,"velocity":0.3543307086614173,"duration":0.13043475000000626},{"name":"C4","midi":60,"time":88.43476050000095,"velocity":0.3543307086614173,"duration":0.13043475000000626},{"name":"C4","midi":60,"time":88.56519525000095,"velocity":0.3543307086614173,"duration":0.13043475000000626},{"name":"G3","midi":55,"time":88.56519525000095,"velocity":0.3543307086614173,"duration":0.13043475000000626},{"name":"C3","midi":48,"time":88.69563000000096,"velocity":0.3543307086614173,"duration":0.13043475000000626},{"name":"C4","midi":60,"time":88.82606475000097,"velocity":0.3543307086614173,"duration":0.13043475000000626},{"name":"G3","midi":55,"time":88.82606475000097,"velocity":0.3543307086614173,"duration":0.13043475000000626},{"name":"C4","midi":60,"time":88.95649950000097,"velocity":0.3543307086614173,"duration":0.13043475000000626},{"name":"C4","midi":60,"time":88.95649950000097,"velocity":0.3543307086614173,"duration":0.13043475000000626},{"name":"C4","midi":60,"time":89.08693425000098,"velocity":0.3543307086614173,"duration":0.13043475000000626},{"name":"G3","midi":55,"time":89.08693425000098,"velocity":0.3543307086614173,"duration":0.13043475000000626},{"name":"C4","midi":60,"time":89.21736900000099,"velocity":0.3543307086614173,"duration":0.13043475000000626},{"name":"C3","midi":48,"time":89.21736900000099,"velocity":0.3543307086614173,"duration":0.13043475000000626},{"name":"C4","midi":60,"time":89.34780375000099,"velocity":0.3543307086614173,"duration":0.13043475000000626},{"name":"G3","midi":55,"time":89.34780375000099,"velocity":0.3543307086614173,"duration":0.13043475000000626},{"name":"C4","midi":60,"time":89.478238500001,"velocity":0.3543307086614173,"duration":0.13043475000000626},{"name":"G3","midi":55,"time":89.608673250001,"velocity":0.3543307086614173,"duration":0.13043475000000626},{"name":"D4","midi":62,"time":89.73910800000101,"velocity":0.3543307086614173,"duration":0.13043475000000626},{"name":"D3","midi":50,"time":89.73910800000101,"velocity":0.3543307086614173,"duration":0.13043475000000626},{"name":"A3","midi":57,"time":89.86954275000102,"velocity":0.3543307086614173,"duration":0.13043475000000626},{"name":"D4","midi":62,"time":89.99997750000102,"velocity":0.3543307086614173,"duration":0.13043475000000626},{"name":"A3","midi":57,"time":90.13041225000103,"velocity":0.3543307086614173,"duration":0.13043475000000626},{"name":"D4","midi":62,"time":90.26084700000104,"velocity":0.3543307086614173,"duration":0.13043475000000626},{"name":"D3","midi":50,"time":90.26084700000104,"velocity":0.3543307086614173,"duration":0.13043475000000626},{"name":"A3","midi":57,"time":90.39128175000104,"velocity":0.3543307086614173,"duration":0.13043475000000626},{"name":"D4","midi":62,"time":90.52171650000105,"velocity":0.3543307086614173,"duration":0.13043475000000626},{"name":"D4","midi":62,"time":90.65215125000105,"velocity":0.3543307086614173,"duration":0.13043475000000626},{"name":"A3","midi":57,"time":90.65215125000105,"velocity":0.3543307086614173,"duration":0.13043475000000626},{"name":"D3","midi":50,"time":90.78258600000106,"velocity":0.3543307086614173,"duration":0.13043475000000626},{"name":"D4","midi":62,"time":90.91302075000107,"velocity":0.3543307086614173,"duration":0.13043475000000626},{"name":"A3","midi":57,"time":90.91302075000107,"velocity":0.3543307086614173,"duration":0.13043475000000626},{"name":"D4","midi":62,"time":91.04345550000107,"velocity":0.3543307086614173,"duration":0.13043475000000626},{"name":"D4","midi":62,"time":91.04345550000107,"velocity":0.3543307086614173,"duration":0.13043475000000626},{"name":"D4","midi":62,"time":91.17389025000108,"velocity":0.3543307086614173,"duration":0.13043475000000626},{"name":"A3","midi":57,"time":91.17389025000108,"velocity":0.3543307086614173,"duration":0.13043475000000626},{"name":"D4","midi":62,"time":91.30432500000109,"velocity":0.3543307086614173,"duration":0.13043475000000626},{"name":"D3","midi":50,"time":91.30432500000109,"velocity":0.3543307086614173,"duration":0.13043475000000626},{"name":"D4","midi":62,"time":91.43475975000109,"velocity":0.3543307086614173,"duration":0.13043475000000626},{"name":"A3","midi":57,"time":91.43475975000109,"velocity":0.3543307086614173,"duration":0.13043475000000626},{"name":"D4","midi":62,"time":91.5651945000011,"velocity":0.3543307086614173,"duration":0.13043475000000626},{"name":"A3","midi":57,"time":91.6956292500011,"velocity":0.3543307086614173,"duration":0.13043475000000626},{"name":"C4","midi":60,"time":91.82606400000111,"velocity":0.3543307086614173,"duration":0.13043475000000626},{"name":"C3","midi":48,"time":91.82606400000111,"velocity":0.3543307086614173,"duration":0.13043475000000626},{"name":"G3","midi":55,"time":91.95649875000112,"velocity":0.3543307086614173,"duration":0.13043475000000626},{"name":"C4","midi":60,"time":92.08693350000112,"velocity":0.3543307086614173,"duration":0.13043475000000626},{"name":"G3","midi":55,"time":92.21736825000113,"velocity":0.3543307086614173,"duration":0.13043475000000626},{"name":"C4","midi":60,"time":92.34780300000114,"velocity":0.3543307086614173,"duration":0.13043475000000626},{"name":"C3","midi":48,"time":92.34780300000114,"velocity":0.3543307086614173,"duration":0.13043475000000626},{"name":"G3","midi":55,"time":92.47823775000114,"velocity":0.3543307086614173,"duration":0.13043475000000626},{"name":"C4","midi":60,"time":92.60867250000115,"velocity":0.3543307086614173,"duration":0.13043475000000626},{"name":"C4","midi":60,"time":92.73910725000115,"velocity":0.3543307086614173,"duration":0.13043475000000626},{"name":"G3","midi":55,"time":92.73910725000115,"velocity":0.3543307086614173,"duration":0.13043475000000626},{"name":"C3","midi":48,"time":92.86954200000116,"velocity":0.3543307086614173,"duration":0.13043475000000626},{"name":"C4","midi":60,"time":92.99997675000117,"velocity":0.3543307086614173,"duration":0.13043475000000626},{"name":"G3","midi":55,"time":92.99997675000117,"velocity":0.3543307086614173,"duration":0.13043475000000626},{"name":"C4","midi":60,"time":93.13041150000117,"velocity":0.3543307086614173,"duration":0.13043475000000626},{"name":"C4","midi":60,"time":93.13041150000117,"velocity":0.3543307086614173,"duration":0.13043475000000626},{"name":"C4","midi":60,"time":93.26084625000118,"velocity":0.3543307086614173,"duration":0.13043475000000626},{"name":"G3","midi":55,"time":93.26084625000118,"velocity":0.3543307086614173,"duration":0.13043475000000626},{"name":"C4","midi":60,"time":93.39128100000119,"velocity":0.3543307086614173,"duration":0.13043475000000626},{"name":"C3","midi":48,"time":93.39128100000119,"velocity":0.3543307086614173,"duration":0.13043475000000626},{"name":"C4","midi":60,"time":93.52171575000119,"velocity":0.3543307086614173,"duration":0.13043475000000626},{"name":"G3","midi":55,"time":93.52171575000119,"velocity":0.3543307086614173,"duration":0.13043475000000626},{"name":"C4","midi":60,"time":93.6521505000012,"velocity":0.3543307086614173,"duration":0.13043475000000626},{"name":"G3","midi":55,"time":93.7825852500012,"velocity":0.3543307086614173,"duration":0.13043475000000626},{"name":"A#3","midi":58,"time":93.91302000000121,"velocity":0.3543307086614173,"duration":0.13043475000000626},{"name":"A#2","midi":46,"time":93.91302000000121,"velocity":0.3543307086614173,"duration":0.13043475000000626},{"name":"F3","midi":53,"time":94.04345475000122,"velocity":0.3543307086614173,"duration":0.13043475000000626},{"name":"A#3","midi":58,"time":94.17388950000122,"velocity":0.3543307086614173,"duration":0.13043475000000626},{"name":"F3","midi":53,"time":94.30432425000123,"velocity":0.3543307086614173,"duration":0.13043475000000626},{"name":"A#3","midi":58,"time":94.43475900000124,"velocity":0.3543307086614173,"duration":0.13043475000000626},{"name":"A#2","midi":46,"time":94.43475900000124,"velocity":0.3543307086614173,"duration":0.13043475000000626},{"name":"F3","midi":53,"time":94.56519375000124,"velocity":0.3543307086614173,"duration":0.13043475000000626},{"name":"A#3","midi":58,"time":94.69562850000125,"velocity":0.3543307086614173,"duration":0.13043475000000626},{"name":"A#3","midi":58,"time":94.82606325000125,"velocity":0.3543307086614173,"duration":0.13043475000000626},{"name":"F3","midi":53,"time":94.82606325000125,"velocity":0.3543307086614173,"duration":0.13043475000000626},{"name":"A#2","midi":46,"time":94.95649800000126,"velocity":0.3543307086614173,"duration":0.13043475000000626},{"name":"A#3","midi":58,"time":95.08693275000127,"velocity":0.3543307086614173,"duration":0.13043475000000626},{"name":"F3","midi":53,"time":95.08693275000127,"velocity":0.3543307086614173,"duration":0.13043475000000626},{"name":"A#3","midi":58,"time":95.21736750000127,"velocity":0.3543307086614173,"duration":0.13043475000000626},{"name":"A#3","midi":58,"time":95.21736750000127,"velocity":0.3543307086614173,"duration":0.13043475000000626},{"name":"A#3","midi":58,"time":95.34780225000128,"velocity":0.3543307086614173,"duration":0.13043475000000626},{"name":"F3","midi":53,"time":95.34780225000128,"velocity":0.3543307086614173,"duration":0.13043475000000626},{"name":"A#3","midi":58,"time":95.47823700000129,"velocity":0.3543307086614173,"duration":0.13043475000000626},{"name":"A#2","midi":46,"time":95.47823700000129,"velocity":0.3543307086614173,"duration":0.13043475000000626},{"name":"A#3","midi":58,"time":95.60867175000129,"velocity":0.3543307086614173,"duration":0.13043475000000626},{"name":"F3","midi":53,"time":95.60867175000129,"velocity":0.3543307086614173,"duration":0.13043475000000626},{"name":"A#3","midi":58,"time":95.7391065000013,"velocity":0.3543307086614173,"duration":0.13043475000000626},{"name":"F3","midi":53,"time":95.8695412500013,"velocity":0.3543307086614173,"duration":0.13043475000000626},{"name":"C4","midi":60,"time":95.99997600000131,"velocity":0.3543307086614173,"duration":0.13043475000000626},{"name":"C3","midi":48,"time":95.99997600000131,"velocity":0.3543307086614173,"duration":0.13043475000000626},{"name":"G3","midi":55,"time":96.13041075000132,"velocity":0.3543307086614173,"duration":0.13043475000000626},{"name":"C4","midi":60,"time":96.26084550000132,"velocity":0.3543307086614173,"duration":0.13043475000000626},{"name":"G3","midi":55,"time":96.39128025000133,"velocity":0.3543307086614173,"duration":0.13043475000000626},{"name":"C4","midi":60,"time":96.52171500000134,"velocity":0.3543307086614173,"duration":0.13043475000000626},{"name":"C3","midi":48,"time":96.52171500000134,"velocity":0.3543307086614173,"duration":0.13043475000000626},{"name":"G3","midi":55,"time":96.65214975000134,"velocity":0.3543307086614173,"duration":0.13043475000000626},{"name":"C4","midi":60,"time":96.78258450000135,"velocity":0.3543307086614173,"duration":0.13043475000000626},{"name":"C4","midi":60,"time":96.91301925000135,"velocity":0.3543307086614173,"duration":0.13043475000000626},{"name":"G3","midi":55,"time":96.91301925000135,"velocity":0.3543307086614173,"duration":0.13043475000000626},{"name":"C3","midi":48,"time":97.04345400000136,"velocity":0.3543307086614173,"duration":0.13043475000000626},{"name":"C4","midi":60,"time":97.17388875000137,"velocity":0.3543307086614173,"duration":0.13043475000000626},{"name":"G3","midi":55,"time":97.17388875000137,"velocity":0.3543307086614173,"duration":0.13043475000000626},{"name":"C4","midi":60,"time":97.30432350000137,"velocity":0.3543307086614173,"duration":0.13043475000000626},{"name":"C4","midi":60,"time":97.30432350000137,"velocity":0.3543307086614173,"duration":0.13043475000000626},{"name":"C4","midi":60,"time":97.43475825000138,"velocity":0.3543307086614173,"duration":0.13043475000000626},{"name":"G3","midi":55,"time":97.43475825000138,"velocity":0.3543307086614173,"duration":0.13043475000000626},{"name":"C4","midi":60,"time":97.56519300000139,"velocity":0.3543307086614173,"duration":0.13043475000000626},{"name":"C3","midi":48,"time":97.56519300000139,"velocity":0.3543307086614173,"duration":0.13043475000000626},{"name":"C4","midi":60,"time":97.69562775000139,"velocity":0.3543307086614173,"duration":0.13043475000000626},{"name":"G3","midi":55,"time":97.69562775000139,"velocity":0.3543307086614173,"duration":0.13043475000000626},{"name":"C4","midi":60,"time":97.8260625000014,"velocity":0.3543307086614173,"duration":0.13043475000000626},{"name":"G3","midi":55,"time":97.9564972500014,"velocity":0.3543307086614173,"duration":0.13043475000000626},{"name":"D4","midi":62,"time":98.08693200000141,"velocity":0.3543307086614173,"duration":0.13043475000000626},{"name":"D3","midi":50,"time":98.08693200000141,"velocity":0.3543307086614173,"duration":0.13043475000000626},{"name":"A3","midi":57,"time":98.21736675000142,"velocity":0.3543307086614173,"duration":0.13043475000000626},{"name":"D4","midi":62,"time":98.34780150000142,"velocity":0.3543307086614173,"duration":0.13043475000000626},{"name":"A3","midi":57,"time":98.47823625000143,"velocity":0.3543307086614173,"duration":0.13043475000000626},{"name":"D4","midi":62,"time":98.60867100000144,"velocity":0.3543307086614173,"duration":0.13043475000000626},{"name":"D3","midi":50,"time":98.60867100000144,"velocity":0.3543307086614173,"duration":0.13043475000000626},{"name":"A3","midi":57,"time":98.73910575000144,"velocity":0.3543307086614173,"duration":0.13043475000000626},{"name":"D4","midi":62,"time":98.86954050000145,"velocity":0.3543307086614173,"duration":0.13043475000000626},{"name":"D4","midi":62,"time":98.99997525000146,"velocity":0.3543307086614173,"duration":0.13043475000000626},{"name":"A3","midi":57,"time":98.99997525000146,"velocity":0.3543307086614173,"duration":0.13043475000000626},{"name":"D3","midi":50,"time":99.13041000000146,"velocity":0.3543307086614173,"duration":0.13043475000000626},{"name":"D4","midi":62,"time":99.26084475000147,"velocity":0.3543307086614173,"duration":0.13043475000000626},{"name":"A3","midi":57,"time":99.26084475000147,"velocity":0.3543307086614173,"duration":0.13043475000000626},{"name":"D4","midi":62,"time":99.39127950000147,"velocity":0.3543307086614173,"duration":0.13043475000000626},{"name":"D4","midi":62,"time":99.39127950000147,"velocity":0.3543307086614173,"duration":0.13043475000000626},{"name":"D4","midi":62,"time":99.52171425000148,"velocity":0.3543307086614173,"duration":0.13043475000000626},{"name":"A3","midi":57,"time":99.52171425000148,"velocity":0.3543307086614173,"duration":0.13043475000000626},{"name":"D4","midi":62,"time":99.65214900000149,"velocity":0.3543307086614173,"duration":0.13043475000000626},{"name":"D3","midi":50,"time":99.65214900000149,"velocity":0.3543307086614173,"duration":0.13043475000000626},{"name":"D4","midi":62,"time":99.78258375000149,"velocity":0.3543307086614173,"duration":0.13043475000000626},{"name":"A3","midi":57,"time":99.78258375000149,"velocity":0.3543307086614173,"duration":0.13043475000000626},{"name":"D4","midi":62,"time":99.9130185000015,"velocity":0.3543307086614173,"duration":0.13043475000000626},{"name":"A3","midi":57,"time":100.0434532500015,"velocity":0.3543307086614173,"duration":0.13043475000000626},{"name":"D4","midi":62,"time":100.17388800000151,"velocity":0.3543307086614173,"duration":0.13043475000000626},{"name":"E3","midi":52,"time":100.17388800000151,"velocity":0.3543307086614173,"duration":0.13043475000000626},{"name":"D4","midi":62,"time":100.30432275000152,"velocity":0.3543307086614173,"duration":0.13043475000000626},{"name":"D4","midi":62,"time":100.30432275000152,"velocity":0.3543307086614173,"duration":0.13043475000000626},{"name":"D4","midi":62,"time":100.43475750000152,"velocity":0.3543307086614173,"duration":0.13043475000000626},{"name":"E4","midi":64,"time":100.43475750000152,"velocity":0.3543307086614173,"duration":0.13043475000000626},{"name":"D4","midi":62,"time":100.56519225000153,"velocity":0.3543307086614173,"duration":0.13043475000000626},{"name":"D4","midi":62,"time":100.56519225000153,"velocity":0.3543307086614173,"duration":0.13043475000000626},{"name":"E3","midi":52,"time":100.69562700000154,"velocity":0.3543307086614173,"duration":0.13043475000000626},{"name":"D4","midi":62,"time":100.82606175000154,"velocity":0.3543307086614173,"duration":0.13043475000000626},{"name":"D4","midi":62,"time":100.82606175000154,"velocity":0.3543307086614173,"duration":0.13043475000000626},{"name":"E4","midi":64,"time":100.95649650000155,"velocity":0.3543307086614173,"duration":0.13043475000000626},{"name":"D4","midi":62,"time":101.08693125000156,"velocity":0.3543307086614173,"duration":0.13043475000000626},{"name":"D4","midi":62,"time":101.08693125000156,"velocity":0.3543307086614173,"duration":0.13043475000000626},{"name":"E3","midi":52,"time":101.21736600000156,"velocity":0.3543307086614173,"duration":0.2608695000000125},{"name":"D4","midi":62,"time":101.34780075000157,"velocity":0.3543307086614173,"duration":0.13043475000000626},{"name":"D4","midi":62,"time":101.47823550000157,"velocity":0.3543307086614173,"duration":0.13043475000000626},{"name":"D4","midi":62,"time":101.47823550000157,"velocity":0.3543307086614173,"duration":0.2608695000000125},{"name":"D4","midi":62,"time":101.60867025000158,"velocity":0.3543307086614173,"duration":0.13043475000000626},{"name":"E4","midi":64,"time":101.73910500000159,"velocity":0.3543307086614173,"duration":0.2608695000000125},{"name":"D4","midi":62,"time":101.86953975000159,"velocity":0.3543307086614173,"duration":0.13043475000000626},{"name":"D4","midi":62,"time":101.9999745000016,"velocity":0.3543307086614173,"duration":0.2608695000000125},{"name":"D4","midi":62,"time":102.1304092500016,"velocity":0.3543307086614173,"duration":0.13043475000000626},{"name":"A#2","midi":46,"time":110.60866800000161,"velocity":0.3543307086614173,"duration":0.13043475000000626},{"name":"F3","midi":53,"time":110.73910275000162,"velocity":0.3543307086614173,"duration":0.13043475000000626},{"name":"A#3","midi":58,"time":110.86953750000163,"velocity":0.3543307086614173,"duration":0.13043475000000626},{"name":"F3","midi":53,"time":110.99997225000163,"velocity":0.3543307086614173,"duration":0.13043475000000626},{"name":"A#2","midi":46,"time":111.13040700000164,"velocity":0.3543307086614173,"duration":0.13043475000000626},{"name":"F3","midi":53,"time":111.26084175000165,"velocity":0.3543307086614173,"duration":0.13043475000000626},{"name":"A#3","midi":58,"time":111.39127650000165,"velocity":0.3543307086614173,"duration":0.13043475000000626},{"name":"F3","midi":53,"time":111.52171125000166,"velocity":0.3543307086614173,"duration":0.13043475000000626},{"name":"A#2","midi":46,"time":111.65214600000166,"velocity":0.3543307086614173,"duration":0.13043475000000626},{"name":"F3","midi":53,"time":111.78258075000167,"velocity":0.3543307086614173,"duration":0.13043475000000626},{"name":"A#3","midi":58,"time":111.91301550000168,"velocity":0.3543307086614173,"duration":0.13043475000000626},{"name":"F3","midi":53,"time":112.04345025000168,"velocity":0.3543307086614173,"duration":0.13043475000000626},{"name":"A#2","midi":46,"time":112.17388500000169,"velocity":0.3543307086614173,"duration":0.13043475000000626},{"name":"F3","midi":53,"time":112.3043197500017,"velocity":0.3543307086614173,"duration":0.13043475000000626},{"name":"A#3","midi":58,"time":112.4347545000017,"velocity":0.3543307086614173,"duration":0.13043475000000626},{"name":"F3","midi":53,"time":112.56518925000171,"velocity":0.3543307086614173,"duration":0.13043475000000626},{"name":"C3","midi":48,"time":112.69562400000171,"velocity":0.3543307086614173,"duration":0.13043475000000626},{"name":"G3","midi":55,"time":112.82605875000172,"velocity":0.3543307086614173,"duration":0.13043475000000626},{"name":"C4","midi":60,"time":112.95649350000173,"velocity":0.3543307086614173,"duration":0.13043475000000626},{"name":"G3","midi":55,"time":113.08692825000173,"velocity":0.3543307086614173,"duration":0.13043475000000626},{"name":"C3","midi":48,"time":113.21736300000174,"velocity":0.3543307086614173,"duration":0.13043475000000626},{"name":"G3","midi":55,"time":113.34779775000175,"velocity":0.3543307086614173,"duration":0.13043475000000626},{"name":"C4","midi":60,"time":113.47823250000175,"velocity":0.3543307086614173,"duration":0.13043475000000626},{"name":"G3","midi":55,"time":113.60866725000176,"velocity":0.3543307086614173,"duration":0.13043475000000626},{"name":"C3","midi":48,"time":113.73910200000176,"velocity":0.3543307086614173,"duration":0.13043475000000626},{"name":"G3","midi":55,"time":113.86953675000177,"velocity":0.3543307086614173,"duration":0.13043475000000626},{"name":"C4","midi":60,"time":113.99997150000178,"velocity":0.3543307086614173,"duration":0.13043475000000626},{"name":"G3","midi":55,"time":114.13040625000178,"velocity":0.3543307086614173,"duration":0.13043475000000626},{"name":"C3","midi":48,"time":114.26084100000179,"velocity":0.3543307086614173,"duration":0.13043475000000626},{"name":"G3","midi":55,"time":114.3912757500018,"velocity":0.3543307086614173,"duration":0.13043475000000626},{"name":"C4","midi":60,"time":114.5217105000018,"velocity":0.3543307086614173,"duration":0.13043475000000626},{"name":"G3","midi":55,"time":114.65214525000181,"velocity":0.3543307086614173,"duration":0.13043475000000626},{"name":"D3","midi":50,"time":114.78258000000181,"velocity":0.3543307086614173,"duration":0.13043475000000626},{"name":"A3","midi":57,"time":114.91301475000182,"velocity":0.3543307086614173,"duration":0.13043475000000626},{"name":"D4","midi":62,"time":115.04344950000183,"velocity":0.3543307086614173,"duration":0.13043475000000626},{"name":"A3","midi":57,"time":115.17388425000183,"velocity":0.3543307086614173,"duration":0.13043475000000626},{"name":"D3","midi":50,"time":115.30431900000184,"velocity":0.3543307086614173,"duration":0.13043475000000626},{"name":"A3","midi":57,"time":115.43475375000185,"velocity":0.3543307086614173,"duration":0.13043475000000626},{"name":"D4","midi":62,"time":115.56518850000185,"velocity":0.3543307086614173,"duration":0.13043475000000626},{"name":"A3","midi":57,"time":115.69562325000186,"velocity":0.3543307086614173,"duration":0.13043475000000626},{"name":"D3","midi":50,"time":115.82605800000186,"velocity":0.3543307086614173,"duration":0.13043475000000626},{"name":"A3","midi":57,"time":115.95649275000187,"velocity":0.3543307086614173,"duration":0.13043475000000626},{"name":"D4","midi":62,"time":116.08692750000188,"velocity":0.3543307086614173,"duration":0.13043475000000626},{"name":"A3","midi":57,"time":116.21736225000188,"velocity":0.3543307086614173,"duration":0.13043475000000626},{"name":"D3","midi":50,"time":116.34779700000189,"velocity":0.3543307086614173,"duration":0.13043475000000626},{"name":"A3","midi":57,"time":116.4782317500019,"velocity":0.3543307086614173,"duration":0.13043475000000626},{"name":"D4","midi":62,"time":116.6086665000019,"velocity":0.3543307086614173,"duration":0.13043475000000626},{"name":"A3","midi":57,"time":116.73910125000191,"velocity":0.3543307086614173,"duration":0.13043475000000626},{"name":"C3","midi":48,"time":116.86953600000191,"velocity":0.3543307086614173,"duration":0.13043475000000626},{"name":"G3","midi":55,"time":116.99997075000192,"velocity":0.3543307086614173,"duration":0.13043475000000626},{"name":"C4","midi":60,"time":117.13040550000193,"velocity":0.3543307086614173,"duration":0.13043475000000626},{"name":"G3","midi":55,"time":117.26084025000193,"velocity":0.3543307086614173,"duration":0.13043475000000626},{"name":"C3","midi":48,"time":117.39127500000194,"velocity":0.3543307086614173,"duration":0.13043475000000626},{"name":"G3","midi":55,"time":117.52170975000195,"velocity":0.3543307086614173,"duration":0.13043475000000626},{"name":"C4","midi":60,"time":117.65214450000195,"velocity":0.3543307086614173,"duration":0.13043475000000626},{"name":"G3","midi":55,"time":117.78257925000196,"velocity":0.3543307086614173,"duration":0.13043475000000626},{"name":"C3","midi":48,"time":117.91301400000197,"velocity":0.3543307086614173,"duration":0.13043475000000626},{"name":"G3","midi":55,"time":118.04344875000197,"velocity":0.3543307086614173,"duration":0.13043475000000626},{"name":"C4","midi":60,"time":118.17388350000198,"velocity":0.3543307086614173,"duration":0.13043475000000626},{"name":"G3","midi":55,"time":118.30431825000198,"velocity":0.3543307086614173,"duration":0.13043475000000626},{"name":"C3","midi":48,"time":118.43475300000199,"velocity":0.3543307086614173,"duration":0.13043475000000626},{"name":"G3","midi":55,"time":118.565187750002,"velocity":0.3543307086614173,"duration":0.13043475000000626},{"name":"C4","midi":60,"time":118.695622500002,"velocity":0.3543307086614173,"duration":0.13043475000000626},{"name":"G3","midi":55,"time":118.82605725000201,"velocity":0.3543307086614173,"duration":0.13043475000000626},{"name":"A#2","midi":46,"time":118.95649200000202,"velocity":0.3543307086614173,"duration":0.13043475000000626},{"name":"F3","midi":53,"time":119.08692675000202,"velocity":0.3543307086614173,"duration":0.13043475000000626},{"name":"A#3","midi":58,"time":119.21736150000203,"velocity":0.3543307086614173,"duration":0.13043475000000626},{"name":"F3","midi":53,"time":119.34779625000203,"velocity":0.3543307086614173,"duration":0.13043475000000626},{"name":"A#2","midi":46,"time":119.47823100000204,"velocity":0.3543307086614173,"duration":0.13043475000000626},{"name":"F3","midi":53,"time":119.60866575000205,"velocity":0.3543307086614173,"duration":0.13043475000000626},{"name":"A#3","midi":58,"time":119.73910050000205,"velocity":0.3543307086614173,"duration":0.13043475000000626},{"name":"F3","midi":53,"time":119.86953525000206,"velocity":0.3543307086614173,"duration":0.13043475000000626},{"name":"A#2","midi":46,"time":119.99997000000207,"velocity":0.3543307086614173,"duration":0.13043475000000626},{"name":"F3","midi":53,"time":120.13040475000207,"velocity":0.3543307086614173,"duration":0.13043475000000626},{"name":"A#3","midi":58,"time":120.26083950000208,"velocity":0.3543307086614173,"duration":0.13043475000000626},{"name":"F3","midi":53,"time":120.39127425000208,"velocity":0.3543307086614173,"duration":0.13043475000000626},{"name":"A#2","midi":46,"time":120.52170900000209,"velocity":0.3543307086614173,"duration":0.13043475000000626},{"name":"F3","midi":53,"time":120.6521437500021,"velocity":0.3543307086614173,"duration":0.13043475000000626},{"name":"A#3","midi":58,"time":120.7825785000021,"velocity":0.3543307086614173,"duration":0.13043475000000626},{"name":"F3","midi":53,"time":120.91301325000211,"velocity":0.3543307086614173,"duration":0.13043475000000626},{"name":"C3","midi":48,"time":121.04344800000212,"velocity":0.3543307086614173,"duration":0.13043475000000626},{"name":"G3","midi":55,"time":121.17388275000212,"velocity":0.3543307086614173,"duration":0.13043475000000626},{"name":"C4","midi":60,"time":121.30431750000213,"velocity":0.3543307086614173,"duration":0.13043475000000626},{"name":"G3","midi":55,"time":121.43475225000213,"velocity":0.3543307086614173,"duration":0.13043475000000626},{"name":"C3","midi":48,"time":121.56518700000214,"velocity":0.3543307086614173,"duration":0.13043475000000626},{"name":"G3","midi":55,"time":121.69562175000215,"velocity":0.3543307086614173,"duration":0.13043475000000626},{"name":"C4","midi":60,"time":121.82605650000215,"velocity":0.3543307086614173,"duration":0.13043475000000626},{"name":"G3","midi":55,"time":121.95649125000216,"velocity":0.3543307086614173,"duration":0.13043475000000626},{"name":"C3","midi":48,"time":122.08692600000217,"velocity":0.3543307086614173,"duration":0.13043475000000626},{"name":"G3","midi":55,"time":122.21736075000217,"velocity":0.3543307086614173,"duration":0.13043475000000626},{"name":"C4","midi":60,"time":122.34779550000218,"velocity":0.3543307086614173,"duration":0.13043475000000626},{"name":"G3","midi":55,"time":122.47823025000218,"velocity":0.3543307086614173,"duration":0.13043475000000626},{"name":"C3","midi":48,"time":122.60866500000219,"velocity":0.3543307086614173,"duration":0.13043475000000626},{"name":"G3","midi":55,"time":122.7390997500022,"velocity":0.3543307086614173,"duration":0.13043475000000626},{"name":"C4","midi":60,"time":122.8695345000022,"velocity":0.3543307086614173,"duration":0.13043475000000626},{"name":"G3","midi":55,"time":122.99996925000221,"velocity":0.3543307086614173,"duration":0.13043475000000626},{"name":"D3","midi":50,"time":123.13040400000222,"velocity":0.3543307086614173,"duration":0.13043475000000626},{"name":"A3","midi":57,"time":123.26083875000222,"velocity":0.3543307086614173,"duration":0.13043475000000626},{"name":"D4","midi":62,"time":123.39127350000223,"velocity":0.3543307086614173,"duration":0.13043475000000626},{"name":"A3","midi":57,"time":123.52170825000223,"velocity":0.3543307086614173,"duration":0.13043475000000626},{"name":"D3","midi":50,"time":123.65214300000224,"velocity":0.3543307086614173,"duration":0.13043475000000626},{"name":"A3","midi":57,"time":123.78257775000225,"velocity":0.3543307086614173,"duration":0.13043475000000626},{"name":"D4","midi":62,"time":123.91301250000225,"velocity":0.3543307086614173,"duration":0.13043475000000626},{"name":"A3","midi":57,"time":124.04344725000226,"velocity":0.3543307086614173,"duration":0.13043475000000626},{"name":"D3","midi":50,"time":124.17388200000227,"velocity":0.3543307086614173,"duration":0.13043475000000626},{"name":"A3","midi":57,"time":124.30431675000227,"velocity":0.3543307086614173,"duration":0.13043475000000626},{"name":"D4","midi":62,"time":124.43475150000228,"velocity":0.3543307086614173,"duration":0.13043475000000626},{"name":"A3","midi":57,"time":124.56518625000228,"velocity":0.3543307086614173,"duration":0.13043475000000626},{"name":"D3","midi":50,"time":124.69562100000229,"velocity":0.3543307086614173,"duration":0.13043475000000626},{"name":"A3","midi":57,"time":124.8260557500023,"velocity":0.3543307086614173,"duration":0.13043475000000626},{"name":"D4","midi":62,"time":124.9564905000023,"velocity":0.3543307086614173,"duration":0.13043475000000626},{"name":"A3","midi":57,"time":125.08692525000231,"velocity":0.3543307086614173,"duration":0.13043475000000626},{"name":"A#2","midi":46,"time":143.9999640000023,"velocity":0.3543307086614173,"duration":0.13043475000000626},{"name":"A#2","midi":46,"time":143.9999640000023,"velocity":0.3543307086614173,"duration":0.13043475000000626},{"name":"F3","midi":53,"time":144.1303987500023,"velocity":0.3543307086614173,"duration":0.13043475000000626},{"name":"F3","midi":53,"time":144.1303987500023,"velocity":0.3543307086614173,"duration":0.13043475000000626},{"name":"A#3","midi":58,"time":144.26083350000232,"velocity":0.3543307086614173,"duration":0.13043475000000626},{"name":"A#3","midi":58,"time":144.26083350000232,"velocity":0.3543307086614173,"duration":0.13043475000000626},{"name":"F3","midi":53,"time":144.39126825000233,"velocity":0.3543307086614173,"duration":0.13043475000000626},{"name":"F3","midi":53,"time":144.39126825000233,"velocity":0.3543307086614173,"duration":0.13043475000000626},{"name":"A#2","midi":46,"time":144.52170300000233,"velocity":0.3543307086614173,"duration":0.13043475000000626},{"name":"A#2","midi":46,"time":144.52170300000233,"velocity":0.3543307086614173,"duration":0.13043475000000626},{"name":"F3","midi":53,"time":144.65213775000234,"velocity":0.3543307086614173,"duration":0.13043475000000626},{"name":"F3","midi":53,"time":144.65213775000234,"velocity":0.3543307086614173,"duration":0.13043475000000626},{"name":"A#3","midi":58,"time":144.78257250000235,"velocity":0.3543307086614173,"duration":0.13043475000000626},{"name":"A#3","midi":58,"time":144.78257250000235,"velocity":0.3543307086614173,"duration":0.13043475000000626},{"name":"F3","midi":53,"time":144.91300725000235,"velocity":0.3543307086614173,"duration":0.13043475000000626},{"name":"F3","midi":53,"time":144.91300725000235,"velocity":0.3543307086614173,"duration":0.13043475000000626},{"name":"D3","midi":50,"time":145.04344200000236,"velocity":0.3543307086614173,"duration":0.13043475000000626},{"name":"D3","midi":50,"time":145.04344200000236,"velocity":0.3543307086614173,"duration":0.13043475000000626},{"name":"A3","midi":57,"time":145.17387675000236,"velocity":0.3543307086614173,"duration":0.13043475000000626},{"name":"A3","midi":57,"time":145.17387675000236,"velocity":0.3543307086614173,"duration":0.13043475000000626},{"name":"D4","midi":62,"time":145.30431150000237,"velocity":0.3543307086614173,"duration":0.13043475000000626},{"name":"D4","midi":62,"time":145.30431150000237,"velocity":0.3543307086614173,"duration":0.13043475000000626},{"name":"A3","midi":57,"time":145.43474625000238,"velocity":0.3543307086614173,"duration":0.13043475000000626},{"name":"A3","midi":57,"time":145.43474625000238,"velocity":0.3543307086614173,"duration":0.13043475000000626},{"name":"D3","midi":50,"time":145.56518100000238,"velocity":0.3543307086614173,"duration":0.13043475000000626},{"name":"D3","midi":50,"time":145.56518100000238,"velocity":0.3543307086614173,"duration":0.13043475000000626},{"name":"A3","midi":57,"time":145.6956157500024,"velocity":0.3543307086614173,"duration":0.13043475000000626},{"name":"A3","midi":57,"time":145.6956157500024,"velocity":0.3543307086614173,"duration":0.13043475000000626},{"name":"D4","midi":62,"time":145.8260505000024,"velocity":0.3543307086614173,"duration":0.13043475000000626},{"name":"D4","midi":62,"time":145.8260505000024,"velocity":0.3543307086614173,"duration":0.13043475000000626},{"name":"A3","midi":57,"time":145.9564852500024,"velocity":0.3543307086614173,"duration":0.13043475000000626},{"name":"A3","midi":57,"time":145.9564852500024,"velocity":0.3543307086614173,"duration":0.13043475000000626},{"name":"A#2","midi":46,"time":146.0869200000024,"velocity":0.3543307086614173,"duration":0.13043475000000626},{"name":"A#2","midi":46,"time":146.0869200000024,"velocity":0.3543307086614173,"duration":0.13043475000000626},{"name":"F3","midi":53,"time":146.21735475000241,"velocity":0.3543307086614173,"duration":0.13043475000000626},{"name":"F3","midi":53,"time":146.21735475000241,"velocity":0.3543307086614173,"duration":0.13043475000000626},{"name":"A#3","midi":58,"time":146.34778950000242,"velocity":0.3543307086614173,"duration":0.13043475000000626},{"name":"A#3","midi":58,"time":146.34778950000242,"velocity":0.3543307086614173,"duration":0.13043475000000626},{"name":"F3","midi":53,"time":146.47822425000243,"velocity":0.3543307086614173,"duration":0.13043475000000626},{"name":"F3","midi":53,"time":146.47822425000243,"velocity":0.3543307086614173,"duration":0.13043475000000626},{"name":"A#2","midi":46,"time":146.60865900000243,"velocity":0.3543307086614173,"duration":0.13043475000000626},{"name":"A#2","midi":46,"time":146.60865900000243,"velocity":0.3543307086614173,"duration":0.13043475000000626},{"name":"F3","midi":53,"time":146.73909375000244,"velocity":0.3543307086614173,"duration":0.13043475000000626},{"name":"F3","midi":53,"time":146.73909375000244,"velocity":0.3543307086614173,"duration":0.13043475000000626},{"name":"A#3","midi":58,"time":146.86952850000245,"velocity":0.3543307086614173,"duration":0.13043475000000626},{"name":"A#3","midi":58,"time":146.86952850000245,"velocity":0.3543307086614173,"duration":0.13043475000000626},{"name":"F3","midi":53,"time":146.99996325000245,"velocity":0.3543307086614173,"duration":0.13043475000000626},{"name":"F3","midi":53,"time":146.99996325000245,"velocity":0.3543307086614173,"duration":0.13043475000000626},{"name":"A#2","midi":46,"time":147.13039800000246,"velocity":0.3543307086614173,"duration":0.13043475000000626},{"name":"A#2","midi":46,"time":147.13039800000246,"velocity":0.3543307086614173,"duration":0.13043475000000626},{"name":"F3","midi":53,"time":147.26083275000246,"velocity":0.3543307086614173,"duration":0.13043475000000626},{"name":"F3","midi":53,"time":147.26083275000246,"velocity":0.3543307086614173,"duration":0.13043475000000626},{"name":"A#3","midi":58,"time":147.39126750000247,"velocity":0.3543307086614173,"duration":0.13043475000000626},{"name":"A#3","midi":58,"time":147.39126750000247,"velocity":0.3543307086614173,"duration":0.13043475000000626},{"name":"F3","midi":53,"time":147.52170225000248,"velocity":0.3543307086614173,"duration":0.13043475000000626},{"name":"F3","midi":53,"time":147.52170225000248,"velocity":0.3543307086614173,"duration":0.13043475000000626},{"name":"A#2","midi":46,"time":147.65213700000248,"velocity":0.3543307086614173,"duration":0.13043475000000626},{"name":"A#2","midi":46,"time":147.65213700000248,"velocity":0.3543307086614173,"duration":0.13043475000000626},{"name":"F3","midi":53,"time":147.7825717500025,"velocity":0.3543307086614173,"duration":0.13043475000000626},{"name":"F3","midi":53,"time":147.7825717500025,"velocity":0.3543307086614173,"duration":0.13043475000000626},{"name":"A#3","midi":58,"time":147.9130065000025,"velocity":0.3543307086614173,"duration":0.13043475000000626},{"name":"A#3","midi":58,"time":147.9130065000025,"velocity":0.3543307086614173,"duration":0.13043475000000626},{"name":"F3","midi":53,"time":148.0434412500025,"velocity":0.3543307086614173,"duration":0.13043475000000626},{"name":"F3","midi":53,"time":148.0434412500025,"velocity":0.3543307086614173,"duration":0.13043475000000626},{"name":"F3","midi":53,"time":148.1738760000025,"velocity":0.3543307086614173,"duration":0.13043475000000626},{"name":"F3","midi":53,"time":148.1738760000025,"velocity":0.3543307086614173,"duration":0.13043475000000626},{"name":"C4","midi":60,"time":148.30431075000251,"velocity":0.3543307086614173,"duration":0.13043475000000626},{"name":"C4","midi":60,"time":148.30431075000251,"velocity":0.3543307086614173,"duration":0.13043475000000626},{"name":"F4","midi":65,"time":148.43474550000252,"velocity":0.3543307086614173,"duration":0.13043475000000626},{"name":"F4","midi":65,"time":148.43474550000252,"velocity":0.3543307086614173,"duration":0.13043475000000626},{"name":"C4","midi":60,"time":148.56518025000253,"velocity":0.3543307086614173,"duration":0.13043475000000626},{"name":"C4","midi":60,"time":148.56518025000253,"velocity":0.3543307086614173,"duration":0.13043475000000626},{"name":"F3","midi":53,"time":148.69561500000253,"velocity":0.3543307086614173,"duration":0.13043475000000626},{"name":"F3","midi":53,"time":148.69561500000253,"velocity":0.3543307086614173,"duration":0.13043475000000626},{"name":"C4","midi":60,"time":148.82604975000254,"velocity":0.3543307086614173,"duration":0.13043475000000626},{"name":"C4","midi":60,"time":148.82604975000254,"velocity":0.3543307086614173,"duration":0.13043475000000626},{"name":"F4","midi":65,"time":148.95648450000255,"velocity":0.3543307086614173,"duration":0.13043475000000626},{"name":"F4","midi":65,"time":148.95648450000255,"velocity":0.3543307086614173,"duration":0.13043475000000626},{"name":"C4","midi":60,"time":149.08691925000255,"velocity":0.3543307086614173,"duration":0.13043475000000626},{"name":"C4","midi":60,"time":149.08691925000255,"velocity":0.3543307086614173,"duration":0.13043475000000626},{"name":"D3","midi":50,"time":149.21735400000256,"velocity":0.3543307086614173,"duration":0.13043475000000626},{"name":"D3","midi":50,"time":149.21735400000256,"velocity":0.3543307086614173,"duration":0.13043475000000626},{"name":"A3","midi":57,"time":149.34778875000256,"velocity":0.3543307086614173,"duration":0.13043475000000626},{"name":"A3","midi":57,"time":149.34778875000256,"velocity":0.3543307086614173,"duration":0.13043475000000626},{"name":"D4","midi":62,"time":149.47822350000257,"velocity":0.3543307086614173,"duration":0.13043475000000626},{"name":"D4","midi":62,"time":149.47822350000257,"velocity":0.3543307086614173,"duration":0.13043475000000626},{"name":"A3","midi":57,"time":149.60865825000258,"velocity":0.3543307086614173,"duration":0.13043475000000626},{"name":"A3","midi":57,"time":149.60865825000258,"velocity":0.3543307086614173,"duration":0.13043475000000626},{"name":"D3","midi":50,"time":149.73909300000258,"velocity":0.3543307086614173,"duration":0.13043475000000626},{"name":"D3","midi":50,"time":149.73909300000258,"velocity":0.3543307086614173,"duration":0.13043475000000626},{"name":"A3","midi":57,"time":149.8695277500026,"velocity":0.3543307086614173,"duration":0.13043475000000626},{"name":"A3","midi":57,"time":149.8695277500026,"velocity":0.3543307086614173,"duration":0.13043475000000626},{"name":"D4","midi":62,"time":149.9999625000026,"velocity":0.3543307086614173,"duration":0.13043475000000626},{"name":"D4","midi":62,"time":149.9999625000026,"velocity":0.3543307086614173,"duration":0.13043475000000626},{"name":"A3","midi":57,"time":150.1303972500026,"velocity":0.3543307086614173,"duration":0.13043475000000626},{"name":"A3","midi":57,"time":150.1303972500026,"velocity":0.3543307086614173,"duration":0.13043475000000626},{"name":"F3","midi":53,"time":150.2608320000026,"velocity":0.3543307086614173,"duration":0.13043475000000626},{"name":"F3","midi":53,"time":150.2608320000026,"velocity":0.3543307086614173,"duration":0.13043475000000626},{"name":"C4","midi":60,"time":150.39126675000261,"velocity":0.3543307086614173,"duration":0.13043475000000626},{"name":"C4","midi":60,"time":150.39126675000261,"velocity":0.3543307086614173,"duration":0.13043475000000626},{"name":"F4","midi":65,"time":150.52170150000262,"velocity":0.3543307086614173,"duration":0.13043475000000626},{"name":"F4","midi":65,"time":150.52170150000262,"velocity":0.3543307086614173,"duration":0.13043475000000626},{"name":"C4","midi":60,"time":150.65213625000263,"velocity":0.3543307086614173,"duration":0.13043475000000626},{"name":"C4","midi":60,"time":150.65213625000263,"velocity":0.3543307086614173,"duration":0.13043475000000626},{"name":"F3","midi":53,"time":150.78257100000263,"velocity":0.3543307086614173,"duration":0.13043475000000626},{"name":"F3","midi":53,"time":150.78257100000263,"velocity":0.3543307086614173,"duration":0.13043475000000626},{"name":"C4","midi":60,"time":150.91300575000264,"velocity":0.3543307086614173,"duration":0.13043475000000626},{"name":"C4","midi":60,"time":150.91300575000264,"velocity":0.3543307086614173,"duration":0.13043475000000626},{"name":"F4","midi":65,"time":151.04344050000265,"velocity":0.3543307086614173,"duration":0.13043475000000626},{"name":"F4","midi":65,"time":151.04344050000265,"velocity":0.3543307086614173,"duration":0.13043475000000626},{"name":"C4","midi":60,"time":151.17387525000265,"velocity":0.3543307086614173,"duration":0.13043475000000626},{"name":"C4","midi":60,"time":151.17387525000265,"velocity":0.3543307086614173,"duration":0.13043475000000626},{"name":"A3","midi":57,"time":151.30431000000266,"velocity":0.3543307086614173,"duration":0.13043475000000626},{"name":"A3","midi":57,"time":151.30431000000266,"velocity":0.3543307086614173,"duration":0.13043475000000626},{"name":"E4","midi":64,"time":151.43474475000266,"velocity":0.3543307086614173,"duration":0.13043475000000626},{"name":"E4","midi":64,"time":151.43474475000266,"velocity":0.3543307086614173,"duration":0.13043475000000626},{"name":"A4","midi":69,"time":151.56517950000267,"velocity":0.3543307086614173,"duration":0.13043475000000626},{"name":"E4","midi":64,"time":151.69561425000268,"velocity":0.3543307086614173,"duration":0.13043475000000626},{"name":"E4","midi":64,"time":151.69561425000268,"velocity":0.3543307086614173,"duration":0.13043475000000626},{"name":"A3","midi":57,"time":151.82604900000268,"velocity":0.3543307086614173,"duration":0.13043475000000626},{"name":"A3","midi":57,"time":151.82604900000268,"velocity":0.3543307086614173,"duration":0.13043475000000626},{"name":"E4","midi":64,"time":151.9564837500027,"velocity":0.3543307086614173,"duration":0.13043475000000626},{"name":"E4","midi":64,"time":151.9564837500027,"velocity":0.3543307086614173,"duration":0.13043475000000626},{"name":"A4","midi":69,"time":152.0869185000027,"velocity":0.3543307086614173,"duration":0.13043475000000626},{"name":"E4","midi":64,"time":152.2173532500027,"velocity":0.3543307086614173,"duration":0.13043475000000626},{"name":"E4","midi":64,"time":152.2173532500027,"velocity":0.3543307086614173,"duration":0.13043475000000626},{"name":"A#2","midi":46,"time":152.3477880000027,"velocity":0.3543307086614173,"duration":0.13043475000000626},{"name":"A#2","midi":46,"time":152.3477880000027,"velocity":0.3543307086614173,"duration":0.13043475000000626},{"name":"F3","midi":53,"time":152.47822275000271,"velocity":0.3543307086614173,"duration":0.13043475000000626},{"name":"F3","midi":53,"time":152.47822275000271,"velocity":0.3543307086614173,"duration":0.13043475000000626},{"name":"A#3","midi":58,"time":152.60865750000272,"velocity":0.3543307086614173,"duration":0.13043475000000626},{"name":"A#3","midi":58,"time":152.60865750000272,"velocity":0.3543307086614173,"duration":0.13043475000000626},{"name":"F3","midi":53,"time":152.73909225000273,"velocity":0.3543307086614173,"duration":0.13043475000000626},{"name":"F3","midi":53,"time":152.73909225000273,"velocity":0.3543307086614173,"duration":0.13043475000000626},{"name":"A#2","midi":46,"time":152.86952700000273,"velocity":0.3543307086614173,"duration":0.13043475000000626},{"name":"A#2","midi":46,"time":152.86952700000273,"velocity":0.3543307086614173,"duration":0.13043475000000626},{"name":"F3","midi":53,"time":152.99996175000274,"velocity":0.3543307086614173,"duration":0.13043475000000626},{"name":"F3","midi":53,"time":152.99996175000274,"velocity":0.3543307086614173,"duration":0.13043475000000626},{"name":"A#3","midi":58,"time":153.13039650000275,"velocity":0.3543307086614173,"duration":0.13043475000000626},{"name":"A#3","midi":58,"time":153.13039650000275,"velocity":0.3543307086614173,"duration":0.13043475000000626},{"name":"F3","midi":53,"time":153.26083125000275,"velocity":0.3543307086614173,"duration":0.13043475000000626},{"name":"F3","midi":53,"time":153.26083125000275,"velocity":0.3543307086614173,"duration":0.13043475000000626},{"name":"D3","midi":50,"time":153.39126600000276,"velocity":0.3543307086614173,"duration":0.13043475000000626},{"name":"D3","midi":50,"time":153.39126600000276,"velocity":0.3543307086614173,"duration":0.13043475000000626},{"name":"A3","midi":57,"time":153.52170075000276,"velocity":0.3543307086614173,"duration":0.13043475000000626},{"name":"A3","midi":57,"time":153.52170075000276,"velocity":0.3543307086614173,"duration":0.13043475000000626},{"name":"D4","midi":62,"time":153.65213550000277,"velocity":0.3543307086614173,"duration":0.13043475000000626},{"name":"D4","midi":62,"time":153.65213550000277,"velocity":0.3543307086614173,"duration":0.13043475000000626},{"name":"A3","midi":57,"time":153.78257025000278,"velocity":0.3543307086614173,"duration":0.13043475000000626},{"name":"A3","midi":57,"time":153.78257025000278,"velocity":0.3543307086614173,"duration":0.13043475000000626},{"name":"D3","midi":50,"time":153.91300500000278,"velocity":0.3543307086614173,"duration":0.13043475000000626},{"name":"D3","midi":50,"time":153.91300500000278,"velocity":0.3543307086614173,"duration":0.13043475000000626},{"name":"A3","midi":57,"time":154.0434397500028,"velocity":0.3543307086614173,"duration":0.13043475000000626},{"name":"A3","midi":57,"time":154.0434397500028,"velocity":0.3543307086614173,"duration":0.13043475000000626},{"name":"D4","midi":62,"time":154.1738745000028,"velocity":0.3543307086614173,"duration":0.13043475000000626},{"name":"D4","midi":62,"time":154.1738745000028,"velocity":0.3543307086614173,"duration":0.13043475000000626},{"name":"A3","midi":57,"time":154.3043092500028,"velocity":0.3543307086614173,"duration":0.13043475000000626},{"name":"A3","midi":57,"time":154.3043092500028,"velocity":0.3543307086614173,"duration":0.13043475000000626},{"name":"A#2","midi":46,"time":154.4347440000028,"velocity":0.3543307086614173,"duration":0.13043475000000626},{"name":"A#2","midi":46,"time":154.4347440000028,"velocity":0.3543307086614173,"duration":0.13043475000000626},{"name":"F3","midi":53,"time":154.56517875000281,"velocity":0.3543307086614173,"duration":0.13043475000000626},{"name":"F3","midi":53,"time":154.56517875000281,"velocity":0.3543307086614173,"duration":0.13043475000000626},{"name":"A#3","midi":58,"time":154.69561350000282,"velocity":0.3543307086614173,"duration":0.13043475000000626},{"name":"A#3","midi":58,"time":154.69561350000282,"velocity":0.3543307086614173,"duration":0.13043475000000626},{"name":"F3","midi":53,"time":154.82604825000283,"velocity":0.3543307086614173,"duration":0.13043475000000626},{"name":"F3","midi":53,"time":154.82604825000283,"velocity":0.3543307086614173,"duration":0.13043475000000626},{"name":"A#2","midi":46,"time":154.95648300000283,"velocity":0.3543307086614173,"duration":0.13043475000000626},{"name":"A#2","midi":46,"time":154.95648300000283,"velocity":0.3543307086614173,"duration":0.13043475000000626},{"name":"F3","midi":53,"time":155.08691775000284,"velocity":0.3543307086614173,"duration":0.13043475000000626},{"name":"F3","midi":53,"time":155.08691775000284,"velocity":0.3543307086614173,"duration":0.13043475000000626},{"name":"A#3","midi":58,"time":155.21735250000285,"velocity":0.3543307086614173,"duration":0.13043475000000626},{"name":"A#3","midi":58,"time":155.21735250000285,"velocity":0.3543307086614173,"duration":0.13043475000000626},{"name":"F3","midi":53,"time":155.34778725000285,"velocity":0.3543307086614173,"duration":0.13043475000000626},{"name":"F3","midi":53,"time":155.34778725000285,"velocity":0.3543307086614173,"duration":0.13043475000000626},{"name":"A#2","midi":46,"time":155.47822200000286,"velocity":0.3543307086614173,"duration":0.13043475000000626},{"name":"A#2","midi":46,"time":155.47822200000286,"velocity":0.3543307086614173,"duration":0.13043475000000626},{"name":"F3","midi":53,"time":155.60865675000287,"velocity":0.3543307086614173,"duration":0.13043475000000626},{"name":"F3","midi":53,"time":155.60865675000287,"velocity":0.3543307086614173,"duration":0.13043475000000626},{"name":"A#3","midi":58,"time":155.73909150000287,"velocity":0.3543307086614173,"duration":0.13043475000000626},{"name":"A#3","midi":58,"time":155.73909150000287,"velocity":0.3543307086614173,"duration":0.13043475000000626},{"name":"F3","midi":53,"time":155.86952625000288,"velocity":0.3543307086614173,"duration":0.13043475000000626},{"name":"F3","midi":53,"time":155.86952625000288,"velocity":0.3543307086614173,"duration":0.13043475000000626},{"name":"A#2","midi":46,"time":155.99996100000288,"velocity":0.3543307086614173,"duration":0.13043475000000626},{"name":"A#2","midi":46,"time":155.99996100000288,"velocity":0.3543307086614173,"duration":0.13043475000000626},{"name":"F3","midi":53,"time":156.1303957500029,"velocity":0.3543307086614173,"duration":0.13043475000000626},{"name":"F3","midi":53,"time":156.1303957500029,"velocity":0.3543307086614173,"duration":0.13043475000000626},{"name":"A#3","midi":58,"time":156.2608305000029,"velocity":0.3543307086614173,"duration":0.13043475000000626},{"name":"A#3","midi":58,"time":156.2608305000029,"velocity":0.3543307086614173,"duration":0.13043475000000626},{"name":"F3","midi":53,"time":156.3912652500029,"velocity":0.3543307086614173,"duration":0.13043475000000626},{"name":"F3","midi":53,"time":156.3912652500029,"velocity":0.3543307086614173,"duration":0.13043475000000626},{"name":"F3","midi":53,"time":156.5217000000029,"velocity":0.3543307086614173,"duration":0.13043475000000626},{"name":"F3","midi":53,"time":156.5217000000029,"velocity":0.3543307086614173,"duration":0.13043475000000626},{"name":"C4","midi":60,"time":156.65213475000292,"velocity":0.3543307086614173,"duration":0.13043475000000626},{"name":"C4","midi":60,"time":156.65213475000292,"velocity":0.3543307086614173,"duration":0.13043475000000626},{"name":"F4","midi":65,"time":156.78256950000292,"velocity":0.3543307086614173,"duration":0.13043475000000626},{"name":"F4","midi":65,"time":156.78256950000292,"velocity":0.3543307086614173,"duration":0.13043475000000626},{"name":"C4","midi":60,"time":156.91300425000293,"velocity":0.3543307086614173,"duration":0.13043475000000626},{"name":"C4","midi":60,"time":156.91300425000293,"velocity":0.3543307086614173,"duration":0.13043475000000626},{"name":"F3","midi":53,"time":157.04343900000293,"velocity":0.3543307086614173,"duration":0.13043475000000626},{"name":"F3","midi":53,"time":157.04343900000293,"velocity":0.3543307086614173,"duration":0.13043475000000626},{"name":"C4","midi":60,"time":157.17387375000294,"velocity":0.3543307086614173,"duration":0.13043475000000626},{"name":"C4","midi":60,"time":157.17387375000294,"velocity":0.3543307086614173,"duration":0.13043475000000626},{"name":"F4","midi":65,"time":157.30430850000295,"velocity":0.3543307086614173,"duration":0.13043475000000626},{"name":"F4","midi":65,"time":157.30430850000295,"velocity":0.3543307086614173,"duration":0.13043475000000626},{"name":"C4","midi":60,"time":157.43474325000295,"velocity":0.3543307086614173,"duration":0.13043475000000626},{"name":"C4","midi":60,"time":157.43474325000295,"velocity":0.3543307086614173,"duration":0.13043475000000626},{"name":"D3","midi":50,"time":157.56517800000296,"velocity":0.3543307086614173,"duration":0.13043475000000626},{"name":"D3","midi":50,"time":157.56517800000296,"velocity":0.3543307086614173,"duration":0.13043475000000626},{"name":"A3","midi":57,"time":157.69561275000297,"velocity":0.3543307086614173,"duration":0.13043475000000626},{"name":"A3","midi":57,"time":157.69561275000297,"velocity":0.3543307086614173,"duration":0.13043475000000626},{"name":"D4","midi":62,"time":157.82604750000297,"velocity":0.3543307086614173,"duration":0.13043475000000626},{"name":"D4","midi":62,"time":157.82604750000297,"velocity":0.3543307086614173,"duration":0.13043475000000626},{"name":"A3","midi":57,"time":157.95648225000298,"velocity":0.3543307086614173,"duration":0.13043475000000626},{"name":"A3","midi":57,"time":157.95648225000298,"velocity":0.3543307086614173,"duration":0.13043475000000626},{"name":"D3","midi":50,"time":158.08691700000298,"velocity":0.3543307086614173,"duration":0.13043475000000626},{"name":"D3","midi":50,"time":158.08691700000298,"velocity":0.3543307086614173,"duration":0.13043475000000626},{"name":"A3","midi":57,"time":158.217351750003,"velocity":0.3543307086614173,"duration":0.13043475000000626},{"name":"A3","midi":57,"time":158.217351750003,"velocity":0.3543307086614173,"duration":0.13043475000000626},{"name":"D4","midi":62,"time":158.347786500003,"velocity":0.3543307086614173,"duration":0.13043475000000626},{"name":"D4","midi":62,"time":158.347786500003,"velocity":0.3543307086614173,"duration":0.13043475000000626},{"name":"A3","midi":57,"time":158.478221250003,"velocity":0.3543307086614173,"duration":0.13043475000000626},{"name":"A3","midi":57,"time":158.478221250003,"velocity":0.3543307086614173,"duration":0.13043475000000626},{"name":"A#2","midi":46,"time":158.608656000003,"velocity":0.3543307086614173,"duration":0.13043475000000626},{"name":"D3","midi":50,"time":158.73909075000302,"velocity":0.3543307086614173,"duration":0.13043475000000626},{"name":"F3","midi":53,"time":158.86952550000302,"velocity":0.3543307086614173,"duration":0.13043475000000626},{"name":"A#3","midi":58,"time":158.99996025000303,"velocity":0.3543307086614173,"duration":0.2608695000000125},{"name":"G3","midi":55,"time":159.26082975000304,"velocity":0.3543307086614173,"duration":0.13043475000000626},{"name":"F3","midi":53,"time":159.39126450000305,"velocity":0.3543307086614173,"duration":0.13043475000000626},{"name":"D3","midi":50,"time":159.52169925000305,"velocity":0.3543307086614173,"duration":0.13043475000000626},{"name":"A#2","midi":46,"time":159.65213400000306,"velocity":0.3543307086614173,"duration":0.13043475000000626},{"name":"D3","midi":50,"time":159.78256875000307,"velocity":0.3543307086614173,"duration":0.13043475000000626},{"name":"F3","midi":53,"time":159.91300350000307,"velocity":0.3543307086614173,"duration":0.13043475000000626},{"name":"A#3","midi":58,"time":160.04343825000308,"velocity":0.3543307086614173,"duration":0.2608695000000125},{"name":"G3","midi":55,"time":160.3043077500031,"velocity":0.3543307086614173,"duration":0.13043475000000626},{"name":"F3","midi":53,"time":160.4347425000031,"velocity":0.3543307086614173,"duration":0.13043475000000626},{"name":"D3","midi":50,"time":160.5651772500031,"velocity":0.3543307086614173,"duration":0.13043475000000626},{"name":"C3","midi":48,"time":160.6956120000031,"velocity":0.3543307086614173,"duration":0.13043475000000626},{"name":"E3","midi":52,"time":160.82604675000312,"velocity":0.3543307086614173,"duration":0.13043475000000626},{"name":"G3","midi":55,"time":160.95648150000312,"velocity":0.3543307086614173,"duration":0.13043475000000626},{"name":"C4","midi":60,"time":161.08691625000313,"velocity":0.3543307086614173,"duration":0.2608695000000125},{"name":"A3","midi":57,"time":161.34778575000314,"velocity":0.3543307086614173,"duration":0.13043475000000626},{"name":"G3","midi":55,"time":161.47822050000315,"velocity":0.3543307086614173,"duration":0.13043475000000626},{"name":"E3","midi":52,"time":161.60865525000315,"velocity":0.3543307086614173,"duration":0.13043475000000626},{"name":"C3","midi":48,"time":161.73909000000316,"velocity":0.3543307086614173,"duration":0.13043475000000626},{"name":"E3","midi":52,"time":161.86952475000317,"velocity":0.3543307086614173,"duration":0.13043475000000626},{"name":"G3","midi":55,"time":161.99995950000317,"velocity":0.3543307086614173,"duration":0.13043475000000626},{"name":"C4","midi":60,"time":162.13039425000318,"velocity":0.3543307086614173,"duration":0.2608695000000125},{"name":"A3","midi":57,"time":162.3912637500032,"velocity":0.3543307086614173,"duration":0.13043475000000626},{"name":"G3","midi":55,"time":162.5216985000032,"velocity":0.3543307086614173,"duration":0.13043475000000626},{"name":"E3","midi":52,"time":162.6521332500032,"velocity":0.3543307086614173,"duration":0.13043475000000626},{"name":"A#2","midi":46,"time":162.7825680000032,"velocity":0.3543307086614173,"duration":0.13043475000000626},{"name":"D3","midi":50,"time":162.91300275000322,"velocity":0.3543307086614173,"duration":0.13043475000000626},{"name":"F3","midi":53,"time":163.04343750000322,"velocity":0.3543307086614173,"duration":0.13043475000000626},{"name":"A#3","midi":58,"time":163.17387225000323,"velocity":0.3543307086614173,"duration":0.2608695000000125},{"name":"G3","midi":55,"time":163.43474175000324,"velocity":0.3543307086614173,"duration":0.13043475000000626},{"name":"F3","midi":53,"time":163.56517650000325,"velocity":0.3543307086614173,"duration":0.13043475000000626},{"name":"D3","midi":50,"time":163.69561125000325,"velocity":0.3543307086614173,"duration":0.13043475000000626},{"name":"A#2","midi":46,"time":163.82604600000326,"velocity":0.3543307086614173,"duration":0.13043475000000626},{"name":"D3","midi":50,"time":163.95648075000327,"velocity":0.3543307086614173,"duration":0.13043475000000626},{"name":"F3","midi":53,"time":164.08691550000327,"velocity":0.3543307086614173,"duration":0.13043475000000626},{"name":"A#3","midi":58,"time":164.21735025000328,"velocity":0.3543307086614173,"duration":0.2608695000000125},{"name":"G3","midi":55,"time":164.4782197500033,"velocity":0.3543307086614173,"duration":0.13043475000000626},{"name":"F3","midi":53,"time":164.6086545000033,"velocity":0.3543307086614173,"duration":0.13043475000000626},{"name":"D3","midi":50,"time":164.7390892500033,"velocity":0.3543307086614173,"duration":0.13043475000000626},{"name":"C3","midi":48,"time":164.8695240000033,"velocity":0.3543307086614173,"duration":0.13043475000000626},{"name":"E3","midi":52,"time":164.99995875000332,"velocity":0.3543307086614173,"duration":0.13043475000000626},{"name":"G3","midi":55,"time":165.13039350000332,"velocity":0.3543307086614173,"duration":0.13043475000000626},{"name":"C4","midi":60,"time":165.26082825000333,"velocity":0.3543307086614173,"duration":0.2608695000000125},{"name":"A3","midi":57,"time":165.52169775000334,"velocity":0.3543307086614173,"duration":0.13043475000000626},{"name":"G3","midi":55,"time":165.65213250000335,"velocity":0.3543307086614173,"duration":0.13043475000000626},{"name":"E3","midi":52,"time":165.78256725000335,"velocity":0.3543307086614173,"duration":0.13043475000000626},{"name":"C3","midi":48,"time":165.91300200000336,"velocity":0.3543307086614173,"duration":0.13043475000000626},{"name":"E3","midi":52,"time":166.04343675000337,"velocity":0.3543307086614173,"duration":0.13043475000000626},{"name":"G3","midi":55,"time":166.17387150000337,"velocity":0.3543307086614173,"duration":0.13043475000000626},{"name":"C4","midi":60,"time":166.30430625000338,"velocity":0.3543307086614173,"duration":0.2608695000000125},{"name":"A3","midi":57,"time":166.5651757500034,"velocity":0.3543307086614173,"duration":0.13043475000000626},{"name":"G3","midi":55,"time":166.6956105000034,"velocity":0.3543307086614173,"duration":0.13043475000000626},{"name":"E3","midi":52,"time":166.8260452500034,"velocity":0.3543307086614173,"duration":0.13043475000000626},{"name":"D3","midi":50,"time":166.9564800000034,"velocity":0.3543307086614173,"duration":0.39130424999999036},{"name":"A3","midi":57,"time":167.3477842500034,"velocity":0.3543307086614173,"duration":0.39130424999999036},{"name":"D4","midi":62,"time":167.7390885000034,"velocity":0.3543307086614173,"duration":0.2608695000000125},{"name":"G3","midi":55,"time":167.9999580000034,"velocity":0.3543307086614173,"duration":0.39130424999999036},{"name":"B3","midi":59,"time":168.3912622500034,"velocity":0.3543307086614173,"duration":0.39130424999999036},{"name":"D4","midi":62,"time":168.78256650000338,"velocity":0.3543307086614173,"duration":0.2608695000000125},{"name":"D3","midi":50,"time":169.0434360000034,"velocity":0.3543307086614173,"duration":0.39130424999999036},{"name":"A3","midi":57,"time":169.4347402500034,"velocity":0.3543307086614173,"duration":0.39130424999999036},{"name":"D4","midi":62,"time":169.82604450000338,"velocity":0.3543307086614173,"duration":0.2608695000000125},{"name":"G3","midi":55,"time":170.0869140000034,"velocity":0.3543307086614173,"duration":0.39130424999999036},{"name":"B3","midi":59,"time":170.47821825000338,"velocity":0.3543307086614173,"duration":0.39130424999999036},{"name":"D4","midi":62,"time":170.86952250000337,"velocity":0.3543307086614173,"duration":0.2608695000000125},{"name":"D3","midi":50,"time":171.13039200000338,"velocity":0.3543307086614173,"duration":2.0869559999999865},{"name":"A3","midi":57,"time":171.13039200000338,"velocity":0.3543307086614173,"duration":2.0869559999999865},{"name":"D4","midi":62,"time":171.13039200000338,"velocity":0.3543307086614173,"duration":2.0869559999999865}],"controlChanges":{},"id":6,"name":"Trombone (Classic)","instrumentNumber":57,"instrument":"trombone","instrumentFamily":"brass","channelNumber":6,"isPercussion":false},{"startTime":68.869548,"duration":173.21734800000112,"length":427,"notes":[{"name":"A#4","midi":70,"time":68.869548,"velocity":0.5433070866141733,"duration":0.13043475000000626},{"name":"D5","midi":74,"time":68.869548,"velocity":0.5433070866141733,"duration":0.13043475000000626},{"name":"F5","midi":77,"time":68.99998275,"velocity":0.5433070866141733,"duration":0.13043475000000626},{"name":"E5","midi":76,"time":69.13041750000001,"velocity":0.5433070866141733,"duration":0.13043475000000626},{"name":"F5","midi":77,"time":69.26085225000001,"velocity":0.5433070866141733,"duration":0.13043475000000626},{"name":"D5","midi":74,"time":69.39128700000002,"velocity":0.5433070866141733,"duration":0.13043475000000626},{"name":"D5","midi":74,"time":69.78259125000002,"velocity":0.5433070866141733,"duration":0.2608694999999983},{"name":"A#4","midi":70,"time":69.78259125000002,"velocity":0.5433070866141733,"duration":0.2608694999999983},{"name":"E5","midi":76,"time":70.04346075000002,"velocity":0.5433070866141733,"duration":0.13043475000000626},{"name":"F5","midi":77,"time":70.17389550000003,"velocity":0.5433070866141733,"duration":0.13043475000000626},{"name":"C5","midi":72,"time":70.30433025000004,"velocity":0.5433070866141733,"duration":0.13043475000000626},{"name":"A5","midi":81,"time":70.43476500000004,"velocity":0.5433070866141733,"duration":0.5217389999999966},{"name":"C5","midi":72,"time":70.95650400000004,"velocity":0.5433070866141733,"duration":0.13043475000000626},{"name":"D5","midi":74,"time":70.95650400000004,"velocity":0.5433070866141733,"duration":0.13043475000000626},{"name":"F5","midi":77,"time":71.08693875000004,"velocity":0.5433070866141733,"duration":0.13043475000000626},{"name":"E5","midi":76,"time":71.21737350000005,"velocity":0.5433070866141733,"duration":0.13043475000000626},{"name":"F5","midi":77,"time":71.34780825000006,"velocity":0.5433070866141733,"duration":0.13043475000000626},{"name":"D5","midi":74,"time":71.47824300000006,"velocity":0.5433070866141733,"duration":0.13043475000000626},{"name":"D5","midi":74,"time":71.86954725000007,"velocity":0.5433070866141733,"duration":0.2608694999999983},{"name":"C5","midi":72,"time":71.86954725000007,"velocity":0.5433070866141733,"duration":0.2608694999999983},{"name":"E5","midi":76,"time":72.13041675000007,"velocity":0.5433070866141733,"duration":0.13043475000000626},{"name":"F5","midi":77,"time":72.26085150000007,"velocity":0.5433070866141733,"duration":0.13043475000000626},{"name":"C5","midi":72,"time":72.39128625000008,"velocity":0.5433070866141733,"duration":0.13043475000000626},{"name":"A5","midi":81,"time":72.52172100000008,"velocity":0.5433070866141733,"duration":0.5217389999999966},{"name":"A4","midi":69,"time":73.04346000000008,"velocity":0.5433070866141733,"duration":0.13043475000000626},{"name":"D5","midi":74,"time":73.04346000000008,"velocity":0.5433070866141733,"duration":0.13043475000000626},{"name":"F5","midi":77,"time":73.17389475000009,"velocity":0.5433070866141733,"duration":0.13043475000000626},{"name":"E5","midi":76,"time":73.3043295000001,"velocity":0.5433070866141733,"duration":0.13043475000000626},{"name":"F5","midi":77,"time":73.4347642500001,"velocity":0.5433070866141733,"duration":0.13043475000000626},{"name":"D5","midi":74,"time":73.5651990000001,"velocity":0.5433070866141733,"duration":0.13043475000000626},{"name":"D5","midi":74,"time":73.95650325000011,"velocity":0.5433070866141733,"duration":0.2608694999999983},{"name":"A4","midi":69,"time":73.95650325000011,"velocity":0.5433070866141733,"duration":0.2608694999999983},{"name":"E5","midi":76,"time":74.21737275000011,"velocity":0.5433070866141733,"duration":0.13043475000000626},{"name":"F5","midi":77,"time":74.34780750000012,"velocity":0.5433070866141733,"duration":0.13043475000000626},{"name":"C5","midi":72,"time":74.47824225000012,"velocity":0.5433070866141733,"duration":0.13043475000000626},{"name":"A5","midi":81,"time":74.60867700000013,"velocity":0.5433070866141733,"duration":0.5217389999999966},{"name":"C5","midi":72,"time":75.13041600000012,"velocity":0.5433070866141733,"duration":0.13043475000000626},{"name":"E4","midi":64,"time":75.13041600000012,"velocity":0.5433070866141733,"duration":0.13043475000000626},{"name":"G5","midi":79,"time":75.52172025000013,"velocity":0.5433070866141733,"duration":0.39130425000000457},{"name":"F5","midi":77,"time":75.91302450000013,"velocity":0.5433070866141733,"duration":0.2608694999999983},{"name":"D5","midi":74,"time":76.17389400000013,"velocity":0.5433070866141733,"duration":0.06521737500000313},{"name":"E4","midi":64,"time":76.17389400000013,"velocity":0.5433070866141733,"duration":0.13043475000000626},{"name":"E5","midi":76,"time":76.23911137500014,"velocity":0.5433070866141733,"duration":0.06521737500000313},{"name":"D5","midi":74,"time":76.30432875000014,"velocity":0.5433070866141733,"duration":0.2608694999999983},{"name":"C5","midi":72,"time":76.56519825000014,"velocity":0.5433070866141733,"duration":0.39130425000000457},{"name":"E5","midi":76,"time":76.95650250000014,"velocity":0.5433070866141733,"duration":0.2608694999999983},{"name":"A#4","midi":70,"time":77.21737200000014,"velocity":0.5433070866141733,"duration":0.13043475000000626},{"name":"D5","midi":74,"time":77.21737200000014,"velocity":0.5433070866141733,"duration":0.13043475000000626},{"name":"F5","midi":77,"time":77.34780675000015,"velocity":0.5433070866141733,"duration":0.13043475000000626},{"name":"E5","midi":76,"time":77.47824150000015,"velocity":0.5433070866141733,"duration":0.13043475000000626},{"name":"F5","midi":77,"time":77.60867625000016,"velocity":0.5433070866141733,"duration":0.13043475000000626},{"name":"D5","midi":74,"time":77.73911100000016,"velocity":0.5433070866141733,"duration":0.13043475000000626},{"name":"D5","midi":74,"time":78.13041525000017,"velocity":0.5433070866141733,"duration":0.2608694999999983},{"name":"A#4","midi":70,"time":78.13041525000017,"velocity":0.5433070866141733,"duration":0.2608694999999983},{"name":"E5","midi":76,"time":78.39128475000017,"velocity":0.5433070866141733,"duration":0.13043475000000626},{"name":"F5","midi":77,"time":78.52171950000017,"velocity":0.5433070866141733,"duration":0.13043475000000626},{"name":"C5","midi":72,"time":78.65215425000018,"velocity":0.5433070866141733,"duration":0.13043475000000626},{"name":"A5","midi":81,"time":78.78258900000019,"velocity":0.5433070866141733,"duration":0.5217389999999966},{"name":"D5","midi":74,"time":79.30432800000018,"velocity":0.5433070866141733,"duration":0.13043475000000626},{"name":"C5","midi":72,"time":79.30432800000018,"velocity":0.5433070866141733,"duration":0.13043475000000626},{"name":"F5","midi":77,"time":79.43476275000019,"velocity":0.5433070866141733,"duration":0.13043475000000626},{"name":"E5","midi":76,"time":79.5651975000002,"velocity":0.5433070866141733,"duration":0.13043475000000626},{"name":"F5","midi":77,"time":79.6956322500002,"velocity":0.5433070866141733,"duration":0.13043475000000626},{"name":"D5","midi":74,"time":79.82606700000021,"velocity":0.5433070866141733,"duration":0.13043475000000626},{"name":"D5","midi":74,"time":80.21737125000021,"velocity":0.5433070866141733,"duration":0.2608694999999983},{"name":"C5","midi":72,"time":80.21737125000021,"velocity":0.5433070866141733,"duration":0.2608694999999983},{"name":"E5","midi":76,"time":80.47824075000021,"velocity":0.5433070866141733,"duration":0.13043475000000626},{"name":"F5","midi":77,"time":80.60867550000022,"velocity":0.5433070866141733,"duration":0.13043475000000626},{"name":"C5","midi":72,"time":80.73911025000022,"velocity":0.5433070866141733,"duration":0.13043475000000626},{"name":"A5","midi":81,"time":80.86954500000023,"velocity":0.5433070866141733,"duration":0.5217389999999966},{"name":"A4","midi":69,"time":81.39128400000023,"velocity":0.5433070866141733,"duration":0.13043475000000626},{"name":"D5","midi":74,"time":81.39128400000023,"velocity":0.5433070866141733,"duration":0.13043475000000626},{"name":"F5","midi":77,"time":81.52171875000023,"velocity":0.5433070866141733,"duration":0.13043475000000626},{"name":"E5","midi":76,"time":81.65215350000024,"velocity":0.5433070866141733,"duration":0.13043475000000626},{"name":"F5","midi":77,"time":81.78258825000025,"velocity":0.5433070866141733,"duration":0.13043475000000626},{"name":"D5","midi":74,"time":81.91302300000025,"velocity":0.5433070866141733,"duration":0.13043475000000626},{"name":"D5","midi":74,"time":82.30432725000026,"velocity":0.5433070866141733,"duration":0.2608694999999983},{"name":"A4","midi":69,"time":82.30432725000026,"velocity":0.5433070866141733,"duration":0.2608694999999983},{"name":"E5","midi":76,"time":82.56519675000025,"velocity":0.5433070866141733,"duration":0.13043475000000626},{"name":"F5","midi":77,"time":82.69563150000026,"velocity":0.5433070866141733,"duration":0.13043475000000626},{"name":"C5","midi":72,"time":82.82606625000027,"velocity":0.5433070866141733,"duration":0.13043475000000626},{"name":"A5","midi":81,"time":82.95650100000027,"velocity":0.5433070866141733,"duration":0.5217389999999966},{"name":"C#5","midi":73,"time":83.47824000000027,"velocity":0.5433070866141733,"duration":0.13043475000000626},{"name":"E4","midi":64,"time":83.47824000000027,"velocity":0.5433070866141733,"duration":0.13043475000000626},{"name":"G5","midi":79,"time":83.86954425000027,"velocity":0.5433070866141733,"duration":0.39130425000000457},{"name":"F5","midi":77,"time":84.26084850000028,"velocity":0.5433070866141733,"duration":0.2608694999999983},{"name":"D5","midi":74,"time":84.52171800000028,"velocity":0.5433070866141733,"duration":0.06521737500000313},{"name":"E4","midi":64,"time":84.52171800000028,"velocity":0.5433070866141733,"duration":0.13043475000000626},{"name":"E5","midi":76,"time":84.58693537500028,"velocity":0.5433070866141733,"duration":0.06521737500000313},{"name":"D5","midi":74,"time":84.65215275000028,"velocity":0.5433070866141733,"duration":0.2608694999999983},{"name":"C5","midi":72,"time":84.91302225000028,"velocity":0.5433070866141733,"duration":0.39130425000000457},{"name":"E5","midi":76,"time":85.30432650000029,"velocity":0.5433070866141733,"duration":0.2608694999999983},{"name":"A#4","midi":70,"time":85.56519600000028,"velocity":0.5433070866141733,"duration":0.13043475000000626},{"name":"D5","midi":74,"time":85.56519600000028,"velocity":0.5433070866141733,"duration":0.13043475000000626},{"name":"F5","midi":77,"time":85.69563075000029,"velocity":0.5433070866141733,"duration":0.13043475000000626},{"name":"E5","midi":76,"time":85.8260655000003,"velocity":0.5433070866141733,"duration":0.13043475000000626},{"name":"F5","midi":77,"time":85.9565002500003,"velocity":0.5433070866141733,"duration":0.13043475000000626},{"name":"D5","midi":74,"time":86.08693500000031,"velocity":0.5433070866141733,"duration":0.13043475000000626},{"name":"D5","midi":74,"time":86.47823925000031,"velocity":0.5433070866141733,"duration":0.2608694999999983},{"name":"A#4","midi":70,"time":86.47823925000031,"velocity":0.5433070866141733,"duration":0.2608694999999983},{"name":"E5","midi":76,"time":86.73910875000031,"velocity":0.5433070866141733,"duration":0.13043475000000626},{"name":"F5","midi":77,"time":86.86954350000032,"velocity":0.5433070866141733,"duration":0.13043475000000626},{"name":"C5","midi":72,"time":86.99997825000032,"velocity":0.5433070866141733,"duration":0.13043475000000626},{"name":"A5","midi":81,"time":87.13041300000033,"velocity":0.5433070866141733,"duration":0.5217389999999966},{"name":"C5","midi":72,"time":87.65215200000033,"velocity":0.5433070866141733,"duration":0.13043475000000626},{"name":"D5","midi":74,"time":87.65215200000033,"velocity":0.5433070866141733,"duration":0.13043475000000626},{"name":"F5","midi":77,"time":87.78258675000033,"velocity":0.5433070866141733,"duration":0.13043475000000626},{"name":"E5","midi":76,"time":87.91302150000034,"velocity":0.5433070866141733,"duration":0.13043475000000626},{"name":"F5","midi":77,"time":88.04345625000035,"velocity":0.5433070866141733,"duration":0.13043475000000626},{"name":"D5","midi":74,"time":88.17389100000035,"velocity":0.5433070866141733,"duration":0.13043475000000626},{"name":"D5","midi":74,"time":88.56519525000036,"velocity":0.5433070866141733,"duration":0.2608694999999983},{"name":"C5","midi":72,"time":88.56519525000036,"velocity":0.5433070866141733,"duration":0.2608694999999983},{"name":"E5","midi":76,"time":88.82606475000036,"velocity":0.5433070866141733,"duration":0.13043475000000626},{"name":"F5","midi":77,"time":88.95649950000036,"velocity":0.5433070866141733,"duration":0.13043475000000626},{"name":"C5","midi":72,"time":89.08693425000037,"velocity":0.5433070866141733,"duration":0.13043475000000626},{"name":"A5","midi":81,"time":89.21736900000037,"velocity":0.5433070866141733,"duration":0.5217389999999966},{"name":"A4","midi":69,"time":89.73910800000037,"velocity":0.5433070866141733,"duration":0.13043475000000626},{"name":"D5","midi":74,"time":89.73910800000037,"velocity":0.5433070866141733,"duration":0.13043475000000626},{"name":"F5","midi":77,"time":89.86954275000038,"velocity":0.5433070866141733,"duration":0.13043475000000626},{"name":"E5","midi":76,"time":89.99997750000038,"velocity":0.5433070866141733,"duration":0.13043475000000626},{"name":"F5","midi":77,"time":90.13041225000039,"velocity":0.5433070866141733,"duration":0.13043475000000626},{"name":"D5","midi":74,"time":90.2608470000004,"velocity":0.5433070866141733,"duration":0.13043475000000626},{"name":"D5","midi":74,"time":90.6521512500004,"velocity":0.5433070866141733,"duration":0.2608694999999983},{"name":"A4","midi":69,"time":90.6521512500004,"velocity":0.5433070866141733,"duration":0.2608694999999983},{"name":"E5","midi":76,"time":90.9130207500004,"velocity":0.5433070866141733,"duration":0.13043475000000626},{"name":"F5","midi":77,"time":91.0434555000004,"velocity":0.5433070866141733,"duration":0.13043475000000626},{"name":"C5","midi":72,"time":91.17389025000041,"velocity":0.5433070866141733,"duration":0.13043475000000626},{"name":"A5","midi":81,"time":91.30432500000042,"velocity":0.5433070866141733,"duration":0.5217389999999966},{"name":"C5","midi":72,"time":91.82606400000041,"velocity":0.5433070866141733,"duration":0.13043475000000626},{"name":"E4","midi":64,"time":91.82606400000041,"velocity":0.5433070866141733,"duration":0.13043475000000626},{"name":"G5","midi":79,"time":92.21736825000042,"velocity":0.5433070866141733,"duration":0.39130425000000457},{"name":"F5","midi":77,"time":92.60867250000042,"velocity":0.5433070866141733,"duration":0.2608694999999983},{"name":"E5","midi":76,"time":92.86954200000042,"velocity":0.5433070866141733,"duration":0.06521737500000313},{"name":"E4","midi":64,"time":92.86954200000042,"velocity":0.5433070866141733,"duration":0.13043475000000626},{"name":"E5","midi":76,"time":92.93475937500043,"velocity":0.5433070866141733,"duration":0.06521737500000313},{"name":"D5","midi":74,"time":92.99997675000043,"velocity":0.5433070866141733,"duration":0.2608694999999983},{"name":"C5","midi":72,"time":93.26084625000043,"velocity":0.5433070866141733,"duration":0.39130425000000457},{"name":"E5","midi":76,"time":93.65215050000043,"velocity":0.5433070866141733,"duration":0.2608694999999983},{"name":"A#4","midi":70,"time":93.91302000000043,"velocity":0.5433070866141733,"duration":0.13043475000000626},{"name":"D5","midi":74,"time":93.91302000000043,"velocity":0.5433070866141733,"duration":0.13043475000000626},{"name":"F5","midi":77,"time":94.04345475000044,"velocity":0.5433070866141733,"duration":0.13043475000000626},{"name":"E5","midi":76,"time":94.17388950000044,"velocity":0.5433070866141733,"duration":0.13043475000000626},{"name":"F5","midi":77,"time":94.30432425000045,"velocity":0.5433070866141733,"duration":0.13043475000000626},{"name":"D5","midi":74,"time":94.43475900000045,"velocity":0.5433070866141733,"duration":0.13043475000000626},{"name":"D5","midi":74,"time":94.82606325000046,"velocity":0.5433070866141733,"duration":0.2608694999999983},{"name":"A#4","midi":70,"time":94.82606325000046,"velocity":0.5433070866141733,"duration":0.2608694999999983},{"name":"E5","midi":76,"time":95.08693275000046,"velocity":0.5433070866141733,"duration":0.13043475000000626},{"name":"F5","midi":77,"time":95.21736750000046,"velocity":0.5433070866141733,"duration":0.13043475000000626},{"name":"C5","midi":72,"time":95.34780225000047,"velocity":0.5433070866141733,"duration":0.13043475000000626},{"name":"A5","midi":81,"time":95.47823700000048,"velocity":0.5433070866141733,"duration":0.5217389999999966},{"name":"D5","midi":74,"time":95.99997600000047,"velocity":0.5433070866141733,"duration":0.13043475000000626},{"name":"C5","midi":72,"time":95.99997600000047,"velocity":0.5433070866141733,"duration":0.13043475000000626},{"name":"F5","midi":77,"time":96.13041075000048,"velocity":0.5433070866141733,"duration":0.13043475000000626},{"name":"E5","midi":76,"time":96.26084550000049,"velocity":0.5433070866141733,"duration":0.13043475000000626},{"name":"F5","midi":77,"time":96.39128025000049,"velocity":0.5433070866141733,"duration":0.13043475000000626},{"name":"D5","midi":74,"time":96.5217150000005,"velocity":0.5433070866141733,"duration":0.13043475000000626},{"name":"D5","midi":74,"time":96.9130192500005,"velocity":0.5433070866141733,"duration":0.2608694999999983},{"name":"C5","midi":72,"time":96.9130192500005,"velocity":0.5433070866141733,"duration":0.2608694999999983},{"name":"E5","midi":76,"time":97.1738887500005,"velocity":0.5433070866141733,"duration":0.13043475000000626},{"name":"F5","midi":77,"time":97.3043235000005,"velocity":0.5433070866141733,"duration":0.13043475000000626},{"name":"C5","midi":72,"time":97.43475825000051,"velocity":0.5433070866141733,"duration":0.13043475000000626},{"name":"A5","midi":81,"time":97.56519300000052,"velocity":0.5433070866141733,"duration":0.5217389999999966},{"name":"A4","midi":69,"time":98.08693200000052,"velocity":0.5433070866141733,"duration":0.13043475000000626},{"name":"D5","midi":74,"time":98.08693200000052,"velocity":0.5433070866141733,"duration":0.13043475000000626},{"name":"F5","midi":77,"time":98.21736675000052,"velocity":0.5433070866141733,"duration":0.13043475000000626},{"name":"E5","midi":76,"time":98.34780150000053,"velocity":0.5433070866141733,"duration":0.13043475000000626},{"name":"F5","midi":77,"time":98.47823625000053,"velocity":0.5433070866141733,"duration":0.13043475000000626},{"name":"D5","midi":74,"time":98.60867100000054,"velocity":0.5433070866141733,"duration":0.13043475000000626},{"name":"D5","midi":74,"time":98.99997525000055,"velocity":0.5433070866141733,"duration":0.2608694999999983},{"name":"A4","midi":69,"time":98.99997525000055,"velocity":0.5433070866141733,"duration":0.2608694999999983},{"name":"E5","midi":76,"time":99.26084475000054,"velocity":0.5433070866141733,"duration":0.13043475000000626},{"name":"F5","midi":77,"time":99.39127950000055,"velocity":0.5433070866141733,"duration":0.13043475000000626},{"name":"C5","midi":72,"time":99.52171425000056,"velocity":0.5433070866141733,"duration":0.13043475000000626},{"name":"A5","midi":81,"time":99.65214900000056,"velocity":0.5433070866141733,"duration":0.5217389999999966},{"name":"C#5","midi":73,"time":100.17388800000056,"velocity":0.5433070866141733,"duration":0.13043475000000626},{"name":"E4","midi":64,"time":100.17388800000056,"velocity":0.5433070866141733,"duration":0.13043475000000626},{"name":"G5","midi":79,"time":100.56519225000056,"velocity":0.5433070866141733,"duration":0.39130425000000457},{"name":"F5","midi":77,"time":100.95649650000057,"velocity":0.5433070866141733,"duration":0.2608694999999983},{"name":"D5","midi":74,"time":101.21736600000057,"velocity":0.5433070866141733,"duration":0.06521737500000313},{"name":"E4","midi":64,"time":101.21736600000057,"velocity":0.5433070866141733,"duration":0.13043475000000626},{"name":"E5","midi":76,"time":101.28258337500057,"velocity":0.5433070866141733,"duration":0.06521737500000313},{"name":"D5","midi":74,"time":101.34780075000057,"velocity":0.5433070866141733,"duration":0.2608694999999983},{"name":"C5","midi":72,"time":101.60867025000057,"velocity":0.5433070866141733,"duration":0.39130425000000457},{"name":"E5","midi":76,"time":101.99997450000058,"velocity":0.5433070866141733,"duration":0.2608694999999983},{"name":"A#4","midi":70,"time":110.60866800000058,"velocity":0.5433070866141733,"duration":1.565217000000004},{"name":"D5","midi":74,"time":110.60866800000058,"velocity":0.5433070866141733,"duration":1.565217000000004},{"name":"A5","midi":81,"time":110.60866800000058,"velocity":0.5433070866141733,"duration":1.565217000000004},{"name":"A#4","midi":70,"time":110.60866800000058,"velocity":0.5433070866141733,"duration":1.565217000000004},{"name":"D5","midi":74,"time":110.60866800000058,"velocity":0.5433070866141733,"duration":1.565217000000004},{"name":"A5","midi":81,"time":110.60866800000058,"velocity":0.5433070866141733,"duration":1.565217000000004},{"name":"C5","midi":72,"time":112.17388500000058,"velocity":0.5433070866141733,"duration":0.2608694999999983},{"name":"F5","midi":77,"time":112.17388500000058,"velocity":0.5433070866141733,"duration":0.2608694999999983},{"name":"C5","midi":72,"time":112.17388500000058,"velocity":0.5433070866141733,"duration":0.2608694999999983},{"name":"F5","midi":77,"time":112.17388500000058,"velocity":0.5433070866141733,"duration":0.2608694999999983},{"name":"C5","midi":72,"time":112.43475450000058,"velocity":0.5433070866141733,"duration":0.2608694999999983},{"name":"G5","midi":79,"time":112.43475450000058,"velocity":0.5433070866141733,"duration":0.2608694999999983},{"name":"C5","midi":72,"time":112.43475450000058,"velocity":0.5433070866141733,"duration":0.2608694999999983},{"name":"G5","midi":79,"time":112.43475450000058,"velocity":0.5433070866141733,"duration":0.2608694999999983},{"name":"C5","midi":72,"time":112.69562400000058,"velocity":0.5433070866141733,"duration":0.7826084999999949},{"name":"E5","midi":76,"time":112.69562400000058,"velocity":0.5433070866141733,"duration":0.7826084999999949},{"name":"A5","midi":81,"time":112.69562400000058,"velocity":0.5433070866141733,"duration":0.7826084999999949},{"name":"C5","midi":72,"time":112.69562400000058,"velocity":0.5433070866141733,"duration":0.7826084999999949},{"name":"E5","midi":76,"time":112.69562400000058,"velocity":0.5433070866141733,"duration":0.7826084999999949},{"name":"A5","midi":81,"time":112.69562400000058,"velocity":0.5433070866141733,"duration":0.7826084999999949},{"name":"G5","midi":79,"time":113.47823250000057,"velocity":0.5433070866141733,"duration":0.2608694999999983},{"name":"G5","midi":79,"time":113.47823250000057,"velocity":0.5433070866141733,"duration":0.2608694999999983},{"name":"F5","midi":77,"time":113.73910200000057,"velocity":0.5433070866141733,"duration":0.2608694999999983},{"name":"C5","midi":72,"time":113.73910200000057,"velocity":0.5433070866141733,"duration":0.2608694999999983},{"name":"F5","midi":77,"time":113.73910200000057,"velocity":0.5433070866141733,"duration":0.2608694999999983},{"name":"C5","midi":72,"time":113.73910200000057,"velocity":0.5433070866141733,"duration":0.2608694999999983},{"name":"G5","midi":79,"time":113.99997150000057,"velocity":0.5433070866141733,"duration":0.13043475000000626},{"name":"G5","midi":79,"time":113.99997150000057,"velocity":0.5433070866141733,"duration":0.13043475000000626},{"name":"C5","midi":72,"time":114.13040625000058,"velocity":0.5433070866141733,"duration":0.39130425000000457},{"name":"E5","midi":76,"time":114.13040625000058,"velocity":0.5433070866141733,"duration":0.39130425000000457},{"name":"C5","midi":72,"time":114.13040625000058,"velocity":0.5433070866141733,"duration":0.39130425000000457},{"name":"E5","midi":76,"time":114.13040625000058,"velocity":0.5433070866141733,"duration":0.39130425000000457},{"name":"C5","midi":72,"time":114.52171050000058,"velocity":0.5433070866141733,"duration":0.2608694999999983},{"name":"C5","midi":72,"time":114.52171050000058,"velocity":0.5433070866141733,"duration":0.2608694999999983},{"name":"A4","midi":69,"time":114.78258000000058,"velocity":0.5433070866141733,"duration":1.565217000000004},{"name":"D5","midi":74,"time":114.78258000000058,"velocity":0.5433070866141733,"duration":1.565217000000004},{"name":"F4","midi":65,"time":114.78258000000058,"velocity":0.5433070866141733,"duration":1.565217000000004},{"name":"A4","midi":69,"time":114.78258000000058,"velocity":0.5433070866141733,"duration":1.565217000000004},{"name":"D5","midi":74,"time":114.78258000000058,"velocity":0.5433070866141733,"duration":1.565217000000004},{"name":"F4","midi":65,"time":114.78258000000058,"velocity":0.5433070866141733,"duration":1.565217000000004},{"name":"A#4","midi":70,"time":116.34779700000058,"velocity":0.5433070866141733,"duration":0.2608694999999983},{"name":"A#4","midi":70,"time":116.34779700000058,"velocity":0.5433070866141733,"duration":0.2608694999999983},{"name":"F5","midi":77,"time":116.34779700000058,"velocity":0.5433070866141733,"duration":0.2608694999999983},{"name":"A#4","midi":70,"time":116.60866650000058,"velocity":0.5433070866141733,"duration":0.2608694999999983},{"name":"A#4","midi":70,"time":116.60866650000058,"velocity":0.5433070866141733,"duration":0.2608694999999983},{"name":"G5","midi":79,"time":116.60866650000058,"velocity":0.5433070866141733,"duration":0.2608694999999983},{"name":"C5","midi":72,"time":116.86953600000058,"velocity":0.5433070866141733,"duration":0.7826084999999949},{"name":"C5","midi":72,"time":116.86953600000058,"velocity":0.5433070866141733,"duration":0.7826084999999949},{"name":"E5","midi":76,"time":116.86953600000058,"velocity":0.5433070866141733,"duration":0.7826084999999949},{"name":"A5","midi":81,"time":116.86953600000058,"velocity":0.5433070866141733,"duration":0.7826084999999949},{"name":"E5","midi":76,"time":116.86953600000058,"velocity":0.5433070866141733,"duration":0.7826084999999949},{"name":"G5","midi":79,"time":117.65214450000057,"velocity":0.5433070866141733,"duration":0.2608694999999983},{"name":"G5","midi":79,"time":117.65214450000057,"velocity":0.5433070866141733,"duration":0.2608694999999983},{"name":"D5","midi":74,"time":117.91301400000057,"velocity":0.5433070866141733,"duration":0.2608694999999983},{"name":"D5","midi":74,"time":117.91301400000057,"velocity":0.5433070866141733,"duration":0.2608694999999983},{"name":"F5","midi":77,"time":117.91301400000057,"velocity":0.5433070866141733,"duration":0.2608694999999983},{"name":"F5","midi":77,"time":117.91301400000057,"velocity":0.5433070866141733,"duration":0.2608694999999983},{"name":"G5","midi":79,"time":118.17388350000057,"velocity":0.5433070866141733,"duration":0.13043475000000626},{"name":"G5","midi":79,"time":118.17388350000057,"velocity":0.5433070866141733,"duration":0.13043475000000626},{"name":"D5","midi":74,"time":118.30431825000058,"velocity":0.5433070866141733,"duration":0.39130425000000457},{"name":"D5","midi":74,"time":118.30431825000058,"velocity":0.5433070866141733,"duration":0.39130425000000457},{"name":"E5","midi":76,"time":118.30431825000058,"velocity":0.5433070866141733,"duration":0.39130425000000457},{"name":"E5","midi":76,"time":118.30431825000058,"velocity":0.5433070866141733,"duration":0.39130425000000457},{"name":"C5","midi":72,"time":118.69562250000058,"velocity":0.5433070866141733,"duration":0.2608694999999983},{"name":"C5","midi":72,"time":118.69562250000058,"velocity":0.5433070866141733,"duration":0.2608694999999983},{"name":"A#4","midi":70,"time":118.95649200000058,"velocity":0.5433070866141733,"duration":1.565217000000004},{"name":"D5","midi":74,"time":118.95649200000058,"velocity":0.5433070866141733,"duration":1.565217000000004},{"name":"A#4","midi":70,"time":118.95649200000058,"velocity":0.5433070866141733,"duration":1.565217000000004},{"name":"D5","midi":74,"time":118.95649200000058,"velocity":0.5433070866141733,"duration":1.565217000000004},{"name":"A5","midi":81,"time":118.95649200000058,"velocity":0.5433070866141733,"duration":1.565217000000004},{"name":"A5","midi":81,"time":118.95649200000058,"velocity":0.5433070866141733,"duration":1.565217000000004},{"name":"F5","midi":77,"time":120.52170900000058,"velocity":0.5433070866141733,"duration":0.2608694999999983},{"name":"F5","midi":77,"time":120.52170900000058,"velocity":0.5433070866141733,"duration":0.2608694999999983},{"name":"A#4","midi":70,"time":120.52170900000058,"velocity":0.5433070866141733,"duration":0.2608694999999983},{"name":"A#4","midi":70,"time":120.52170900000058,"velocity":0.5433070866141733,"duration":0.2608694999999983},{"name":"G5","midi":79,"time":120.78257850000058,"velocity":0.5433070866141733,"duration":0.2608694999999983},{"name":"G5","midi":79,"time":120.78257850000058,"velocity":0.5433070866141733,"duration":0.2608694999999983},{"name":"A#4","midi":70,"time":120.78257850000058,"velocity":0.5433070866141733,"duration":0.2608694999999983},{"name":"A#4","midi":70,"time":120.78257850000058,"velocity":0.5433070866141733,"duration":0.2608694999999983},{"name":"E5","midi":76,"time":121.04344800000058,"velocity":0.5433070866141733,"duration":0.7826084999999949},{"name":"A5","midi":81,"time":121.04344800000058,"velocity":0.5433070866141733,"duration":0.7826084999999949},{"name":"E5","midi":76,"time":121.04344800000058,"velocity":0.5433070866141733,"duration":0.7826084999999949},{"name":"A5","midi":81,"time":121.04344800000058,"velocity":0.5433070866141733,"duration":0.7826084999999949},{"name":"C5","midi":72,"time":121.04344800000058,"velocity":0.5433070866141733,"duration":0.7826084999999949},{"name":"C5","midi":72,"time":121.04344800000058,"velocity":0.5433070866141733,"duration":0.7826084999999949},{"name":"G5","midi":79,"time":121.82605650000058,"velocity":0.5433070866141733,"duration":0.2608694999999983},{"name":"G5","midi":79,"time":121.82605650000058,"velocity":0.5433070866141733,"duration":0.2608694999999983},{"name":"F5","midi":77,"time":122.08692600000057,"velocity":0.5433070866141733,"duration":0.2608694999999983},{"name":"F5","midi":77,"time":122.08692600000057,"velocity":0.5433070866141733,"duration":0.2608694999999983},{"name":"D5","midi":74,"time":122.08692600000057,"velocity":0.5433070866141733,"duration":0.2608694999999983},{"name":"D5","midi":74,"time":122.08692600000057,"velocity":0.5433070866141733,"duration":0.2608694999999983},{"name":"G5","midi":79,"time":122.34779550000057,"velocity":0.5433070866141733,"duration":0.13043475000000626},{"name":"G5","midi":79,"time":122.34779550000057,"velocity":0.5433070866141733,"duration":0.13043475000000626},{"name":"E5","midi":76,"time":122.47823025000058,"velocity":0.5433070866141733,"duration":0.39130425000000457},{"name":"E5","midi":76,"time":122.47823025000058,"velocity":0.5433070866141733,"duration":0.39130425000000457},{"name":"D5","midi":74,"time":122.47823025000058,"velocity":0.5433070866141733,"duration":0.39130425000000457},{"name":"D5","midi":74,"time":122.47823025000058,"velocity":0.5433070866141733,"duration":0.39130425000000457},{"name":"C5","midi":72,"time":122.86953450000058,"velocity":0.5433070866141733,"duration":0.2608694999999983},{"name":"C5","midi":72,"time":122.86953450000058,"velocity":0.5433070866141733,"duration":0.2608694999999983},{"name":"A4","midi":69,"time":123.13040400000058,"velocity":0.5433070866141733,"duration":2.0869560000000007},{"name":"D5","midi":74,"time":123.13040400000058,"velocity":0.5433070866141733,"duration":2.0869560000000007},{"name":"A4","midi":69,"time":123.13040400000058,"velocity":0.5433070866141733,"duration":2.0869560000000007},{"name":"D5","midi":74,"time":123.13040400000058,"velocity":0.5433070866141733,"duration":2.0869560000000007},{"name":"F4","midi":65,"time":123.13040400000058,"velocity":0.5433070866141733,"duration":2.0869560000000007},{"name":"F4","midi":65,"time":123.13040400000058,"velocity":0.5433070866141733,"duration":2.0869560000000007},{"name":"G5","midi":79,"time":143.99996400000057,"velocity":0.5433070866141733,"duration":0.13043475000000626},{"name":"D#5","midi":75,"time":143.99996400000057,"velocity":0.5433070866141733,"duration":0.13043475000000626},{"name":"F5","midi":77,"time":144.13039875000058,"velocity":0.5433070866141733,"duration":0.13043475000000626},{"name":"D#5","midi":75,"time":144.2608335000006,"velocity":0.5433070866141733,"duration":0.13043475000000626},{"name":"D5","midi":74,"time":144.3912682500006,"velocity":0.5433070866141733,"duration":0.13043475000000626},{"name":"C5","midi":72,"time":144.5217030000006,"velocity":0.5433070866141733,"duration":0.13043475000000626},{"name":"D#5","midi":75,"time":144.5217030000006,"velocity":0.5433070866141733,"duration":0.13043475000000626},{"name":"D5","midi":74,"time":144.6521377500006,"velocity":0.5433070866141733,"duration":0.13043475000000626},{"name":"C5","midi":72,"time":144.7825725000006,"velocity":0.5433070866141733,"duration":0.13043475000000626},{"name":"D#5","midi":75,"time":144.91300725000062,"velocity":0.5433070866141733,"duration":0.13043475000000626},{"name":"A4","midi":69,"time":145.04344200000062,"velocity":0.5433070866141733,"duration":0.39130424999999036},{"name":"D5","midi":74,"time":145.04344200000062,"velocity":0.5433070866141733,"duration":0.39130424999999036},{"name":"A4","midi":69,"time":145.43474625000061,"velocity":0.5433070866141733,"duration":0.39130424999999036},{"name":"A4","midi":69,"time":145.8260505000006,"velocity":0.5433070866141733,"duration":0.13043475000000626},{"name":"D5","midi":74,"time":145.9564852500006,"velocity":0.5433070866141733,"duration":0.13043475000000626},{"name":"G5","midi":79,"time":146.08692000000062,"velocity":0.5433070866141733,"duration":0.13043475000000626},{"name":"D#5","midi":75,"time":146.08692000000062,"velocity":0.5433070866141733,"duration":0.13043475000000626},{"name":"F5","midi":77,"time":146.21735475000062,"velocity":0.5433070866141733,"duration":0.13043475000000626},{"name":"D#5","midi":75,"time":146.34778950000063,"velocity":0.5433070866141733,"duration":0.13043475000000626},{"name":"D5","midi":74,"time":146.47822425000064,"velocity":0.5433070866141733,"duration":0.13043475000000626},{"name":"C5","midi":72,"time":146.60865900000064,"velocity":0.5433070866141733,"duration":0.13043475000000626},{"name":"D#5","midi":75,"time":146.60865900000064,"velocity":0.5433070866141733,"duration":0.13043475000000626},{"name":"A#5","midi":82,"time":146.73909375000065,"velocity":0.5433070866141733,"duration":0.13043475000000626},{"name":"A5","midi":81,"time":146.86952850000065,"velocity":0.5433070866141733,"duration":0.13043475000000626},{"name":"G5","midi":79,"time":146.99996325000066,"velocity":0.5433070866141733,"duration":0.13043475000000626},{"name":"F5","midi":77,"time":147.13039800000067,"velocity":0.5433070866141733,"duration":0.2608695000000125},{"name":"D5","midi":74,"time":147.13039800000067,"velocity":0.5433070866141733,"duration":0.2608695000000125},{"name":"E5","midi":76,"time":147.39126750000068,"velocity":0.5433070866141733,"duration":0.2608695000000125},{"name":"G5","midi":79,"time":147.39126750000068,"velocity":0.5433070866141733,"duration":0.2608695000000125},{"name":"F5","midi":77,"time":147.6521370000007,"velocity":0.5433070866141733,"duration":0.39130424999999036},{"name":"A5","midi":81,"time":147.6521370000007,"velocity":0.5433070866141733,"duration":0.39130424999999036},{"name":"B5","midi":83,"time":148.04344125000068,"velocity":0.5433070866141733,"duration":0.13043475000000626},{"name":"A5","midi":81,"time":148.1738760000007,"velocity":0.5433070866141733,"duration":0.13043475000000626},{"name":"C5","midi":72,"time":148.1738760000007,"velocity":0.5433070866141733,"duration":0.13043475000000626},{"name":"B5","midi":83,"time":148.3043107500007,"velocity":0.5433070866141733,"duration":0.13043475000000626},{"name":"A5","midi":81,"time":148.4347455000007,"velocity":0.5433070866141733,"duration":0.13043475000000626},{"name":"G5","midi":79,"time":148.5651802500007,"velocity":0.5433070866141733,"duration":0.13043475000000626},{"name":"F5","midi":77,"time":148.6956150000007,"velocity":0.5433070866141733,"duration":0.13043475000000626},{"name":"A5","midi":81,"time":148.6956150000007,"velocity":0.5433070866141733,"duration":0.13043475000000626},{"name":"G5","midi":79,"time":148.82604975000072,"velocity":0.5433070866141733,"duration":0.13043475000000626},{"name":"A5","midi":81,"time":148.95648450000073,"velocity":0.5433070866141733,"duration":0.13043475000000626},{"name":"B5","midi":83,"time":149.08691925000073,"velocity":0.5433070866141733,"duration":0.13043475000000626},{"name":"A5","midi":81,"time":149.21735400000074,"velocity":0.5433070866141733,"duration":0.39130424999999036},{"name":"F5","midi":77,"time":149.21735400000074,"velocity":0.5433070866141733,"duration":0.39130424999999036},{"name":"D5","midi":74,"time":149.60865825000073,"velocity":0.5433070866141733,"duration":0.39130424999999036},{"name":"A4","midi":69,"time":149.60865825000073,"velocity":0.5433070866141733,"duration":0.39130424999999036},{"name":"D5","midi":74,"time":149.99996250000072,"velocity":0.5433070866141733,"duration":0.13043475000000626},{"name":"E5","midi":76,"time":150.13039725000073,"velocity":0.5433070866141733,"duration":0.13043475000000626},{"name":"F5","midi":77,"time":150.26083200000073,"velocity":0.5433070866141733,"duration":0.39130424999999036},{"name":"D5","midi":74,"time":150.26083200000073,"velocity":0.5433070866141733,"duration":0.39130424999999036},{"name":"E5","midi":76,"time":150.65213625000072,"velocity":0.5433070866141733,"duration":0.39130424999999036},{"name":"G5","midi":79,"time":150.65213625000072,"velocity":0.5433070866141733,"duration":0.39130424999999036},{"name":"G5","midi":79,"time":151.0434405000007,"velocity":0.5433070866141733,"duration":0.2608695000000125},{"name":"A#5","midi":82,"time":151.0434405000007,"velocity":0.5433070866141733,"duration":0.2608695000000125},{"name":"A5","midi":81,"time":151.30431000000073,"velocity":0.5433070866141733,"duration":0.2608695000000125},{"name":"F5","midi":77,"time":151.30431000000073,"velocity":0.5433070866141733,"duration":0.2608695000000125},{"name":"E5","midi":76,"time":151.56517950000074,"velocity":0.5433070866141733,"duration":0.2608695000000125},{"name":"C#5","midi":73,"time":151.82604900000075,"velocity":0.5433070866141733,"duration":0.2608695000000125},{"name":"A4","midi":69,"time":152.08691850000076,"velocity":0.5433070866141733,"duration":0.2608695000000125},{"name":"G5","midi":79,"time":152.34778800000078,"velocity":0.5433070866141733,"duration":0.13043475000000626},{"name":"D#5","midi":75,"time":152.34778800000078,"velocity":0.5433070866141733,"duration":0.13043475000000626},{"name":"F5","midi":77,"time":152.47822275000078,"velocity":0.5433070866141733,"duration":0.13043475000000626},{"name":"D#5","midi":75,"time":152.6086575000008,"velocity":0.5433070866141733,"duration":0.13043475000000626},{"name":"D5","midi":74,"time":152.7390922500008,"velocity":0.5433070866141733,"duration":0.13043475000000626},{"name":"C5","midi":72,"time":152.8695270000008,"velocity":0.5433070866141733,"duration":0.13043475000000626},{"name":"D#5","midi":75,"time":152.8695270000008,"velocity":0.5433070866141733,"duration":0.13043475000000626},{"name":"D5","midi":74,"time":152.9999617500008,"velocity":0.5433070866141733,"duration":0.13043475000000626},{"name":"C5","midi":72,"time":153.1303965000008,"velocity":0.5433070866141733,"duration":0.13043475000000626},{"name":"D#5","midi":75,"time":153.26083125000082,"velocity":0.5433070866141733,"duration":0.13043475000000626},{"name":"A4","midi":69,"time":153.39126600000083,"velocity":0.5433070866141733,"duration":0.39130424999999036},{"name":"D5","midi":74,"time":153.39126600000083,"velocity":0.5433070866141733,"duration":0.39130424999999036},{"name":"A4","midi":69,"time":153.78257025000082,"velocity":0.5433070866141733,"duration":0.39130424999999036},{"name":"A4","midi":69,"time":154.1738745000008,"velocity":0.5433070866141733,"duration":0.13043475000000626},{"name":"D5","midi":74,"time":154.3043092500008,"velocity":0.5433070866141733,"duration":0.13043475000000626},{"name":"G5","midi":79,"time":154.43474400000082,"velocity":0.5433070866141733,"duration":0.13043475000000626},{"name":"D#5","midi":75,"time":154.43474400000082,"velocity":0.5433070866141733,"duration":0.13043475000000626},{"name":"F5","midi":77,"time":154.56517875000083,"velocity":0.5433070866141733,"duration":0.13043475000000626},{"name":"D#5","midi":75,"time":154.69561350000083,"velocity":0.5433070866141733,"duration":0.13043475000000626},{"name":"D5","midi":74,"time":154.82604825000084,"velocity":0.5433070866141733,"duration":0.13043475000000626},{"name":"C5","midi":72,"time":154.95648300000084,"velocity":0.5433070866141733,"duration":0.13043475000000626},{"name":"D#5","midi":75,"time":154.95648300000084,"velocity":0.5433070866141733,"duration":0.13043475000000626},{"name":"A#5","midi":82,"time":155.08691775000085,"velocity":0.5433070866141733,"duration":0.13043475000000626},{"name":"A5","midi":81,"time":155.21735250000086,"velocity":0.5433070866141733,"duration":0.13043475000000626},{"name":"G5","midi":79,"time":155.34778725000086,"velocity":0.5433070866141733,"duration":0.13043475000000626},{"name":"F5","midi":77,"time":155.47822200000087,"velocity":0.5433070866141733,"duration":0.2608695000000125},{"name":"D5","midi":74,"time":155.47822200000087,"velocity":0.5433070866141733,"duration":0.2608695000000125},{"name":"E5","midi":76,"time":155.73909150000088,"velocity":0.5433070866141733,"duration":0.2608695000000125},{"name":"G5","midi":79,"time":155.73909150000088,"velocity":0.5433070866141733,"duration":0.2608695000000125},{"name":"F5","midi":77,"time":155.9999610000009,"velocity":0.5433070866141733,"duration":0.39130424999999036},{"name":"A5","midi":81,"time":155.9999610000009,"velocity":0.5433070866141733,"duration":0.39130424999999036},{"name":"B5","midi":83,"time":156.39126525000088,"velocity":0.5433070866141733,"duration":0.13043475000000626},{"name":"A5","midi":81,"time":156.5217000000009,"velocity":0.5433070866141733,"duration":0.13043475000000626},{"name":"C5","midi":72,"time":156.5217000000009,"velocity":0.5433070866141733,"duration":0.13043475000000626},{"name":"B5","midi":83,"time":156.6521347500009,"velocity":0.5433070866141733,"duration":0.13043475000000626},{"name":"A5","midi":81,"time":156.7825695000009,"velocity":0.5433070866141733,"duration":0.13043475000000626},{"name":"G5","midi":79,"time":156.9130042500009,"velocity":0.5433070866141733,"duration":0.13043475000000626},{"name":"F5","midi":77,"time":157.04343900000092,"velocity":0.5433070866141733,"duration":0.13043475000000626},{"name":"A5","midi":81,"time":157.04343900000092,"velocity":0.5433070866141733,"duration":0.13043475000000626},{"name":"G5","midi":79,"time":157.17387375000092,"velocity":0.5433070866141733,"duration":0.13043475000000626},{"name":"A5","midi":81,"time":157.30430850000093,"velocity":0.5433070866141733,"duration":0.13043475000000626},{"name":"B5","midi":83,"time":157.43474325000093,"velocity":0.5433070866141733,"duration":0.13043475000000626},{"name":"A5","midi":81,"time":157.56517800000094,"velocity":0.5433070866141733,"duration":0.39130424999999036},{"name":"F5","midi":77,"time":157.56517800000094,"velocity":0.5433070866141733,"duration":0.39130424999999036},{"name":"D5","midi":74,"time":157.95648225000093,"velocity":0.5433070866141733,"duration":0.39130424999999036},{"name":"A4","midi":69,"time":157.95648225000093,"velocity":0.5433070866141733,"duration":0.39130424999999036},{"name":"D5","midi":74,"time":158.34778650000092,"velocity":0.5433070866141733,"duration":0.13043475000000626},{"name":"E5","midi":76,"time":158.47822125000093,"velocity":0.5433070866141733,"duration":0.13043475000000626},{"name":"A4","midi":69,"time":166.95648000000094,"velocity":0.5433070866141733,"duration":0.13043475000000626},{"name":"D5","midi":74,"time":166.95648000000094,"velocity":0.5433070866141733,"duration":0.13043475000000626},{"name":"D4","midi":62,"time":166.95648000000094,"velocity":0.5433070866141733,"duration":0.13043475000000626},{"name":"D4","midi":62,"time":167.34778425000096,"velocity":0.5433070866141733,"duration":0.2608695000000125},{"name":"A4","midi":69,"time":167.34778425000096,"velocity":0.5433070866141733,"duration":0.2608695000000125},{"name":"A4","midi":69,"time":167.73908850000097,"velocity":0.5433070866141733,"duration":0.2608695000000125},{"name":"D4","midi":62,"time":167.73908850000097,"velocity":0.5433070866141733,"duration":0.2608695000000125},{"name":"D4","midi":62,"time":167.999958000001,"velocity":0.5433070866141733,"duration":0.13043475000000626},{"name":"G4","midi":67,"time":167.999958000001,"velocity":0.5433070866141733,"duration":0.13043475000000626},{"name":"B4","midi":71,"time":167.999958000001,"velocity":0.5433070866141733,"duration":0.13043475000000626},{"name":"G4","midi":67,"time":168.391262250001,"velocity":0.5433070866141733,"duration":0.2608695000000125},{"name":"D4","midi":62,"time":168.391262250001,"velocity":0.5433070866141733,"duration":0.2608695000000125},{"name":"G4","midi":67,"time":168.78256650000102,"velocity":0.5433070866141733,"duration":0.2608695000000125},{"name":"D4","midi":62,"time":168.78256650000102,"velocity":0.5433070866141733,"duration":0.2608695000000125},{"name":"D4","midi":62,"time":169.04343600000104,"velocity":0.5433070866141733,"duration":0.13043475000000626},{"name":"A4","midi":69,"time":169.04343600000104,"velocity":0.5433070866141733,"duration":0.13043475000000626},{"name":"D5","midi":74,"time":169.04343600000104,"velocity":0.5433070866141733,"duration":0.13043475000000626},{"name":"D4","midi":62,"time":169.43474025000106,"velocity":0.5433070866141733,"duration":0.2608695000000125},{"name":"A4","midi":69,"time":169.43474025000106,"velocity":0.5433070866141733,"duration":0.2608695000000125},{"name":"A4","midi":69,"time":169.82604450000107,"velocity":0.5433070866141733,"duration":0.2608695000000125},{"name":"D4","midi":62,"time":169.82604450000107,"velocity":0.5433070866141733,"duration":0.2608695000000125},{"name":"D4","midi":62,"time":170.0869140000011,"velocity":0.5433070866141733,"duration":0.13043475000000626},{"name":"G4","midi":67,"time":170.0869140000011,"velocity":0.5433070866141733,"duration":0.13043475000000626},{"name":"B4","midi":71,"time":170.0869140000011,"velocity":0.5433070866141733,"duration":0.13043475000000626},{"name":"D4","midi":62,"time":170.4782182500011,"velocity":0.5433070866141733,"duration":0.2608695000000125},{"name":"G4","midi":67,"time":170.4782182500011,"velocity":0.5433070866141733,"duration":0.2608695000000125},{"name":"G4","midi":67,"time":170.86952250000112,"velocity":0.5433070866141733,"duration":0.2608695000000125},{"name":"D4","midi":62,"time":170.86952250000112,"velocity":0.5433070866141733,"duration":0.2608695000000125},{"name":"D4","midi":62,"time":171.13039200000114,"velocity":0.5433070866141733,"duration":2.0869559999999865},{"name":"A4","midi":69,"time":171.13039200000114,"velocity":0.5433070866141733,"duration":2.0869559999999865},{"name":"D5","midi":74,"time":171.13039200000114,"velocity":0.5433070866141733,"duration":2.0869559999999865}],"controlChanges":{},"id":7,"name":"Music Box","instrumentNumber":10,"instrument":"music box","instrumentFamily":"chromatic percussion","channelNumber":7,"isPercussion":false},{"startTime":127.30431599999999,"duration":173.21734800000044,"length":156,"notes":[{"name":"F5","midi":77,"time":127.30431599999999,"velocity":0.2204724409448819,"duration":0.13043475000000626},{"name":"E5","midi":76,"time":127.43475074999999,"velocity":0.2204724409448819,"duration":0.13043475000000626},{"name":"D5","midi":74,"time":127.5651855,"velocity":0.2204724409448819,"duration":0.13043475000000626},{"name":"D5","midi":74,"time":127.5651855,"velocity":0.2204724409448819,"duration":0.13043475000000626},{"name":"C5","midi":72,"time":127.69562025,"velocity":0.2204724409448819,"duration":0.13043475000000626},{"name":"D5","midi":74,"time":127.82605500000001,"velocity":0.2204724409448819,"duration":0.2608694999999983},{"name":"A4","midi":69,"time":128.0869245,"velocity":0.2204724409448819,"duration":0.2608695000000125},{"name":"B4","midi":71,"time":128.34779400000002,"velocity":0.2204724409448819,"duration":0.39130424999999036},{"name":"G4","midi":67,"time":128.73909825,"velocity":0.2204724409448819,"duration":0.39130424999999036},{"name":"D4","midi":62,"time":129.1304025,"velocity":0.2204724409448819,"duration":0.13043475000000626},{"name":"E4","midi":64,"time":129.26083725,"velocity":0.2204724409448819,"duration":0.13043475000000626},{"name":"F4","midi":65,"time":129.39127200000001,"velocity":0.2204724409448819,"duration":0.39130424999999036},{"name":"G4","midi":67,"time":129.78257625,"velocity":0.2204724409448819,"duration":0.2608695000000125},{"name":"D4","midi":62,"time":130.04344575000002,"velocity":0.2204724409448819,"duration":0.13043475000000626},{"name":"C5","midi":72,"time":130.17388050000002,"velocity":0.2204724409448819,"duration":0.2608695000000125},{"name":"A4","midi":69,"time":130.43475000000004,"velocity":0.2204724409448819,"duration":1.0434779999999932},{"name":"F5","midi":77,"time":131.47822800000003,"velocity":0.2204724409448819,"duration":0.13043475000000626},{"name":"E5","midi":76,"time":131.60866275000004,"velocity":0.2204724409448819,"duration":0.13043475000000626},{"name":"D5","midi":74,"time":131.73909750000004,"velocity":0.2204724409448819,"duration":0.13043475000000626},{"name":"D5","midi":74,"time":131.73909750000004,"velocity":0.2204724409448819,"duration":0.13043475000000626},{"name":"C5","midi":72,"time":131.86953225000005,"velocity":0.2204724409448819,"duration":0.13043475000000626},{"name":"D5","midi":74,"time":131.99996700000005,"velocity":0.2204724409448819,"duration":0.2608695000000125},{"name":"A4","midi":69,"time":132.26083650000007,"velocity":0.2204724409448819,"duration":0.2608695000000125},{"name":"B4","midi":71,"time":132.52170600000008,"velocity":0.2204724409448819,"duration":0.39130424999999036},{"name":"G4","midi":67,"time":132.91301025000007,"velocity":0.2204724409448819,"duration":0.39130424999999036},{"name":"D4","midi":62,"time":133.30431450000006,"velocity":0.2204724409448819,"duration":0.13043475000000626},{"name":"E4","midi":64,"time":133.43474925000007,"velocity":0.2204724409448819,"duration":0.13043475000000626},{"name":"F4","midi":65,"time":133.56518400000007,"velocity":0.2204724409448819,"duration":0.39130424999999036},{"name":"E4","midi":64,"time":133.95648825000006,"velocity":0.2204724409448819,"duration":0.2608695000000125},{"name":"C4","midi":60,"time":134.21735775000008,"velocity":0.2204724409448819,"duration":0.13043475000000626},{"name":"E4","midi":64,"time":134.34779250000008,"velocity":0.2204724409448819,"duration":0.2608695000000125},{"name":"D4","midi":62,"time":134.6086620000001,"velocity":0.2204724409448819,"duration":1.0434779999999932},{"name":"A4","midi":69,"time":135.6521400000001,"velocity":0.2204724409448819,"duration":0.13043475000000626},{"name":"F5","midi":77,"time":135.6521400000001,"velocity":0.2204724409448819,"duration":0.13043475000000626},{"name":"G4","midi":67,"time":135.7825747500001,"velocity":0.2204724409448819,"duration":0.13043475000000626},{"name":"E5","midi":76,"time":135.7825747500001,"velocity":0.2204724409448819,"duration":0.13043475000000626},{"name":"F4","midi":65,"time":135.9130095000001,"velocity":0.2204724409448819,"duration":0.13043475000000626},{"name":"F4","midi":65,"time":135.9130095000001,"velocity":0.2204724409448819,"duration":0.13043475000000626},{"name":"D5","midi":74,"time":135.9130095000001,"velocity":0.2204724409448819,"duration":0.13043475000000626},{"name":"E4","midi":64,"time":136.0434442500001,"velocity":0.2204724409448819,"duration":0.13043475000000626},{"name":"C5","midi":72,"time":136.0434442500001,"velocity":0.2204724409448819,"duration":0.13043475000000626},{"name":"E4","midi":64,"time":136.1738790000001,"velocity":0.2204724409448819,"duration":0.2608695000000125},{"name":"D5","midi":74,"time":136.1738790000001,"velocity":0.2204724409448819,"duration":0.2608695000000125},{"name":"A4","midi":69,"time":136.43474850000013,"velocity":0.2204724409448819,"duration":0.2608695000000125},{"name":"F4","midi":65,"time":136.43474850000013,"velocity":0.2204724409448819,"duration":0.2608695000000125},{"name":"B4","midi":71,"time":136.69561800000014,"velocity":0.2204724409448819,"duration":0.39130424999999036},{"name":"G4","midi":67,"time":136.69561800000014,"velocity":0.2204724409448819,"duration":0.39130424999999036},{"name":"G4","midi":67,"time":137.08692225000013,"velocity":0.2204724409448819,"duration":0.39130424999999036},{"name":"D4","midi":62,"time":137.08692225000013,"velocity":0.2204724409448819,"duration":0.39130424999999036},{"name":"D4","midi":62,"time":137.47822650000012,"velocity":0.2204724409448819,"duration":0.13043475000000626},{"name":"E4","midi":64,"time":137.60866125000013,"velocity":0.2204724409448819,"duration":0.13043475000000626},{"name":"F4","midi":65,"time":137.73909600000013,"velocity":0.2204724409448819,"duration":0.39130424999999036},{"name":"D4","midi":62,"time":137.73909600000013,"velocity":0.2204724409448819,"duration":0.39130424999999036},{"name":"G4","midi":67,"time":138.13040025000012,"velocity":0.2204724409448819,"duration":0.2608695000000125},{"name":"C4","midi":60,"time":138.13040025000012,"velocity":0.2204724409448819,"duration":0.2608695000000125},{"name":"D4","midi":62,"time":138.39126975000013,"velocity":0.2204724409448819,"duration":0.13043475000000626},{"name":"C4","midi":60,"time":138.52170450000014,"velocity":0.2204724409448819,"duration":0.2608695000000125},{"name":"E4","midi":64,"time":138.52170450000014,"velocity":0.2204724409448819,"duration":0.2608695000000125},{"name":"A4","midi":69,"time":138.78257400000015,"velocity":0.2204724409448819,"duration":1.0434779999999932},{"name":"F4","midi":65,"time":138.78257400000015,"velocity":0.2204724409448819,"duration":1.0434779999999932},{"name":"D4","midi":62,"time":138.78257400000015,"velocity":0.2204724409448819,"duration":1.0434779999999932},{"name":"A4","midi":69,"time":139.82605200000015,"velocity":0.2204724409448819,"duration":0.13043475000000626},{"name":"F5","midi":77,"time":139.82605200000015,"velocity":0.2204724409448819,"duration":0.13043475000000626},{"name":"G4","midi":67,"time":139.95648675000015,"velocity":0.2204724409448819,"duration":0.13043475000000626},{"name":"E5","midi":76,"time":139.95648675000015,"velocity":0.2204724409448819,"duration":0.13043475000000626},{"name":"F4","midi":65,"time":140.08692150000016,"velocity":0.2204724409448819,"duration":0.13043475000000626},{"name":"F4","midi":65,"time":140.08692150000016,"velocity":0.2204724409448819,"duration":0.13043475000000626},{"name":"D5","midi":74,"time":140.08692150000016,"velocity":0.2204724409448819,"duration":0.13043475000000626},{"name":"E4","midi":64,"time":140.21735625000017,"velocity":0.2204724409448819,"duration":0.13043475000000626},{"name":"C5","midi":72,"time":140.21735625000017,"velocity":0.2204724409448819,"duration":0.13043475000000626},{"name":"E4","midi":64,"time":140.34779100000017,"velocity":0.2204724409448819,"duration":0.2608695000000125},{"name":"D5","midi":74,"time":140.34779100000017,"velocity":0.2204724409448819,"duration":0.2608695000000125},{"name":"A4","midi":69,"time":140.60866050000018,"velocity":0.2204724409448819,"duration":0.2608695000000125},{"name":"F4","midi":65,"time":140.60866050000018,"velocity":0.2204724409448819,"duration":0.2608695000000125},{"name":"B4","midi":71,"time":140.8695300000002,"velocity":0.2204724409448819,"duration":0.39130424999999036},{"name":"G4","midi":67,"time":140.8695300000002,"velocity":0.2204724409448819,"duration":0.39130424999999036},{"name":"G4","midi":67,"time":141.2608342500002,"velocity":0.2204724409448819,"duration":0.39130424999999036},{"name":"D4","midi":62,"time":141.2608342500002,"velocity":0.2204724409448819,"duration":0.39130424999999036},{"name":"D4","midi":62,"time":141.65213850000018,"velocity":0.2204724409448819,"duration":0.13043475000000626},{"name":"E4","midi":64,"time":141.78257325000018,"velocity":0.2204724409448819,"duration":0.13043475000000626},{"name":"F4","midi":65,"time":141.9130080000002,"velocity":0.2204724409448819,"duration":0.39130424999999036},{"name":"A#3","midi":58,"time":141.9130080000002,"velocity":0.2204724409448819,"duration":0.39130424999999036},{"name":"E4","midi":64,"time":142.30431225000018,"velocity":0.2204724409448819,"duration":0.2608695000000125},{"name":"A3","midi":57,"time":142.30431225000018,"velocity":0.2204724409448819,"duration":0.2608695000000125},{"name":"C4","midi":60,"time":142.5651817500002,"velocity":0.2204724409448819,"duration":0.13043475000000626},{"name":"E4","midi":64,"time":142.6956165000002,"velocity":0.2204724409448819,"duration":0.2608695000000125},{"name":"A3","midi":57,"time":142.6956165000002,"velocity":0.2204724409448819,"duration":0.2608695000000125},{"name":"D4","midi":62,"time":142.9564860000002,"velocity":0.2204724409448819,"duration":1.0434779999999932},{"name":"A3","midi":57,"time":142.9564860000002,"velocity":0.2204724409448819,"duration":1.0434779999999932},{"name":"F3","midi":53,"time":142.9564860000002,"velocity":0.2204724409448819,"duration":1.0434779999999932},{"name":"A#3","midi":58,"time":158.6086560000002,"velocity":0.2204724409448819,"duration":0.39130424999999036},{"name":"F4","midi":65,"time":158.6086560000002,"velocity":0.2204724409448819,"duration":0.39130424999999036},{"name":"E4","midi":64,"time":158.99996025000019,"velocity":0.2204724409448819,"duration":0.39130424999999036},{"name":"C4","midi":60,"time":159.39126450000018,"velocity":0.2204724409448819,"duration":0.2608695000000125},{"name":"D4","midi":62,"time":159.6521340000002,"velocity":0.2204724409448819,"duration":0.7826085000000091},{"name":"A#3","midi":58,"time":159.6521340000002,"velocity":0.2204724409448819,"duration":0.7826085000000091},{"name":"F3","midi":53,"time":159.6521340000002,"velocity":0.2204724409448819,"duration":0.7826085000000091},{"name":"D4","midi":62,"time":160.4347425000002,"velocity":0.2204724409448819,"duration":0.13043475000000626},{"name":"E3","midi":52,"time":160.5651772500002,"velocity":0.2204724409448819,"duration":0.13043475000000626},{"name":"A#3","midi":58,"time":160.6956120000002,"velocity":0.2204724409448819,"duration":0.39130424999999036},{"name":"F3","midi":53,"time":160.6956120000002,"velocity":0.2204724409448819,"duration":0.39130424999999036},{"name":"E3","midi":52,"time":161.0869162500002,"velocity":0.2204724409448819,"duration":0.39130424999999036},{"name":"C4","midi":60,"time":161.4782205000002,"velocity":0.2204724409448819,"duration":0.2608695000000125},{"name":"D4","midi":62,"time":161.7390900000002,"velocity":0.2204724409448819,"duration":0.7826085000000091},{"name":"C4","midi":60,"time":161.7390900000002,"velocity":0.2204724409448819,"duration":0.7826085000000091},{"name":"F3","midi":53,"time":161.7390900000002,"velocity":0.2204724409448819,"duration":0.7826085000000091},{"name":"D4","midi":62,"time":162.5216985000002,"velocity":0.2204724409448819,"duration":0.13043475000000626},{"name":"E4","midi":64,"time":162.65213325000022,"velocity":0.2204724409448819,"duration":0.13043475000000626},{"name":"A#3","midi":58,"time":162.78256800000023,"velocity":0.2204724409448819,"duration":0.39130424999999036},{"name":"F4","midi":65,"time":162.78256800000023,"velocity":0.2204724409448819,"duration":0.39130424999999036},{"name":"E4","midi":64,"time":163.17387225000022,"velocity":0.2204724409448819,"duration":0.39130424999999036},{"name":"C4","midi":60,"time":163.5651765000002,"velocity":0.2204724409448819,"duration":0.2608695000000125},{"name":"D4","midi":62,"time":163.82604600000022,"velocity":0.2204724409448819,"duration":0.7826085000000091},{"name":"A#3","midi":58,"time":163.82604600000022,"velocity":0.2204724409448819,"duration":0.7826085000000091},{"name":"F3","midi":53,"time":163.82604600000022,"velocity":0.2204724409448819,"duration":0.7826085000000091},{"name":"D4","midi":62,"time":164.60865450000023,"velocity":0.2204724409448819,"duration":0.13043475000000626},{"name":"E4","midi":64,"time":164.73908925000023,"velocity":0.2204724409448819,"duration":0.13043475000000626},{"name":"A#3","midi":58,"time":164.86952400000024,"velocity":0.2204724409448819,"duration":0.39130424999999036},{"name":"F4","midi":65,"time":164.86952400000024,"velocity":0.2204724409448819,"duration":0.39130424999999036},{"name":"E4","midi":64,"time":165.26082825000023,"velocity":0.2204724409448819,"duration":0.39130424999999036},{"name":"C4","midi":60,"time":165.65213250000022,"velocity":0.2204724409448819,"duration":0.2608695000000125},{"name":"D4","midi":62,"time":165.91300200000023,"velocity":0.2204724409448819,"duration":0.7826085000000091},{"name":"C4","midi":60,"time":165.91300200000023,"velocity":0.2204724409448819,"duration":0.7826085000000091},{"name":"F3","midi":53,"time":165.91300200000023,"velocity":0.2204724409448819,"duration":0.7826085000000091},{"name":"C4","midi":60,"time":166.69561050000024,"velocity":0.2204724409448819,"duration":0.2608695000000125},{"name":"A4","midi":69,"time":166.95648000000025,"velocity":0.2204724409448819,"duration":0.13043475000000626},{"name":"D5","midi":74,"time":166.95648000000025,"velocity":0.2204724409448819,"duration":0.13043475000000626},{"name":"D4","midi":62,"time":166.95648000000025,"velocity":0.2204724409448819,"duration":0.13043475000000626},{"name":"D4","midi":62,"time":167.34778425000027,"velocity":0.2204724409448819,"duration":0.2608695000000125},{"name":"A4","midi":69,"time":167.34778425000027,"velocity":0.2204724409448819,"duration":0.2608695000000125},{"name":"A4","midi":69,"time":167.7390885000003,"velocity":0.2204724409448819,"duration":0.2608695000000125},{"name":"D4","midi":62,"time":167.7390885000003,"velocity":0.2204724409448819,"duration":0.2608695000000125},{"name":"D4","midi":62,"time":167.9999580000003,"velocity":0.2204724409448819,"duration":0.13043475000000626},{"name":"G4","midi":67,"time":167.9999580000003,"velocity":0.2204724409448819,"duration":0.13043475000000626},{"name":"B4","midi":71,"time":167.9999580000003,"velocity":0.2204724409448819,"duration":0.13043475000000626},{"name":"G4","midi":67,"time":168.39126225000032,"velocity":0.2204724409448819,"duration":0.2608695000000125},{"name":"D4","midi":62,"time":168.39126225000032,"velocity":0.2204724409448819,"duration":0.2608695000000125},{"name":"G4","midi":67,"time":168.78256650000034,"velocity":0.2204724409448819,"duration":0.2608695000000125},{"name":"D4","midi":62,"time":168.78256650000034,"velocity":0.2204724409448819,"duration":0.2608695000000125},{"name":"D4","midi":62,"time":169.04343600000036,"velocity":0.2204724409448819,"duration":0.13043475000000626},{"name":"A4","midi":69,"time":169.04343600000036,"velocity":0.2204724409448819,"duration":0.13043475000000626},{"name":"D5","midi":74,"time":169.04343600000036,"velocity":0.2204724409448819,"duration":0.13043475000000626},{"name":"D4","midi":62,"time":169.43474025000037,"velocity":0.2204724409448819,"duration":0.2608695000000125},{"name":"A4","midi":69,"time":169.43474025000037,"velocity":0.2204724409448819,"duration":0.2608695000000125},{"name":"A4","midi":69,"time":169.8260445000004,"velocity":0.2204724409448819,"duration":0.2608695000000125},{"name":"D4","midi":62,"time":169.8260445000004,"velocity":0.2204724409448819,"duration":0.2608695000000125},{"name":"D4","midi":62,"time":170.0869140000004,"velocity":0.2204724409448819,"duration":0.13043475000000626},{"name":"G4","midi":67,"time":170.0869140000004,"velocity":0.2204724409448819,"duration":0.13043475000000626},{"name":"B4","midi":71,"time":170.0869140000004,"velocity":0.2204724409448819,"duration":0.13043475000000626},{"name":"D4","midi":62,"time":170.47821825000042,"velocity":0.2204724409448819,"duration":0.2608695000000125},{"name":"G4","midi":67,"time":170.47821825000042,"velocity":0.2204724409448819,"duration":0.2608695000000125},{"name":"G4","midi":67,"time":170.86952250000044,"velocity":0.2204724409448819,"duration":0.2608695000000125},{"name":"D4","midi":62,"time":170.86952250000044,"velocity":0.2204724409448819,"duration":0.2608695000000125},{"name":"D4","midi":62,"time":171.13039200000046,"velocity":0.2204724409448819,"duration":2.0869559999999865},{"name":"A4","midi":69,"time":171.13039200000046,"velocity":0.2204724409448819,"duration":2.0869559999999865},{"name":"D5","midi":74,"time":171.13039200000046,"velocity":0.2204724409448819,"duration":2.0869559999999865}],"controlChanges":{},"id":8,"name":"Pizzicato","instrumentNumber":45,"instrument":"pizzicato strings","instrumentFamily":"strings","channelNumber":8,"isPercussion":false},{"startTime":135.65213999999997,"duration":173.21734800000064,"length":196,"notes":[{"name":"A5","midi":81,"time":135.65213999999997,"velocity":0.3937007874015748,"duration":0.13043475000000626},{"name":"F6","midi":89,"time":135.65213999999997,"velocity":0.3937007874015748,"duration":0.13043475000000626},{"name":"G5","midi":79,"time":135.78257474999998,"velocity":0.3937007874015748,"duration":0.13043475000000626},{"name":"E6","midi":88,"time":135.78257474999998,"velocity":0.3937007874015748,"duration":0.13043475000000626},{"name":"F5","midi":77,"time":135.9130095,"velocity":0.3937007874015748,"duration":0.13043475000000626},{"name":"F5","midi":77,"time":135.9130095,"velocity":0.3937007874015748,"duration":0.13043475000000626},{"name":"D6","midi":86,"time":135.9130095,"velocity":0.3937007874015748,"duration":0.13043475000000626},{"name":"E5","midi":76,"time":136.04344425,"velocity":0.3937007874015748,"duration":0.13043475000000626},{"name":"C6","midi":84,"time":136.04344425,"velocity":0.3937007874015748,"duration":0.13043475000000626},{"name":"E5","midi":76,"time":136.173879,"velocity":0.3937007874015748,"duration":0.2608695000000125},{"name":"D6","midi":86,"time":136.173879,"velocity":0.3937007874015748,"duration":0.2608695000000125},{"name":"A5","midi":81,"time":136.4347485,"velocity":0.3937007874015748,"duration":0.2608695000000125},{"name":"F5","midi":77,"time":136.4347485,"velocity":0.3937007874015748,"duration":0.2608695000000125},{"name":"B5","midi":83,"time":136.69561800000002,"velocity":0.3937007874015748,"duration":0.39130424999999036},{"name":"G5","midi":79,"time":136.69561800000002,"velocity":0.3937007874015748,"duration":0.39130424999999036},{"name":"G5","midi":79,"time":137.08692225000001,"velocity":0.3937007874015748,"duration":0.39130424999999036},{"name":"D5","midi":74,"time":137.08692225000001,"velocity":0.3937007874015748,"duration":0.39130424999999036},{"name":"D5","midi":74,"time":137.4782265,"velocity":0.3937007874015748,"duration":0.13043475000000626},{"name":"E5","midi":76,"time":137.60866125,"velocity":0.3937007874015748,"duration":0.13043475000000626},{"name":"F5","midi":77,"time":137.73909600000002,"velocity":0.3937007874015748,"duration":0.39130424999999036},{"name":"D5","midi":74,"time":137.73909600000002,"velocity":0.3937007874015748,"duration":0.39130424999999036},{"name":"G5","midi":79,"time":138.13040025,"velocity":0.3937007874015748,"duration":0.2608695000000125},{"name":"C5","midi":72,"time":138.13040025,"velocity":0.3937007874015748,"duration":0.2608695000000125},{"name":"D5","midi":74,"time":138.39126975000002,"velocity":0.3937007874015748,"duration":0.13043475000000626},{"name":"C5","midi":72,"time":138.52170450000003,"velocity":0.3937007874015748,"duration":0.2608695000000125},{"name":"E5","midi":76,"time":138.52170450000003,"velocity":0.3937007874015748,"duration":0.2608695000000125},{"name":"A5","midi":81,"time":138.78257400000004,"velocity":0.3937007874015748,"duration":1.0434779999999932},{"name":"F5","midi":77,"time":138.78257400000004,"velocity":0.3937007874015748,"duration":1.0434779999999932},{"name":"D5","midi":74,"time":138.78257400000004,"velocity":0.3937007874015748,"duration":1.0434779999999932},{"name":"A5","midi":81,"time":139.82605200000003,"velocity":0.3937007874015748,"duration":0.13043475000000626},{"name":"F6","midi":89,"time":139.82605200000003,"velocity":0.3937007874015748,"duration":0.13043475000000626},{"name":"G5","midi":79,"time":139.95648675000004,"velocity":0.3937007874015748,"duration":0.13043475000000626},{"name":"E6","midi":88,"time":139.95648675000004,"velocity":0.3937007874015748,"duration":0.13043475000000626},{"name":"F5","midi":77,"time":140.08692150000005,"velocity":0.3937007874015748,"duration":0.13043475000000626},{"name":"F5","midi":77,"time":140.08692150000005,"velocity":0.3937007874015748,"duration":0.13043475000000626},{"name":"D6","midi":86,"time":140.08692150000005,"velocity":0.3937007874015748,"duration":0.13043475000000626},{"name":"E5","midi":76,"time":140.21735625000005,"velocity":0.3937007874015748,"duration":0.13043475000000626},{"name":"C6","midi":84,"time":140.21735625000005,"velocity":0.3937007874015748,"duration":0.13043475000000626},{"name":"E5","midi":76,"time":140.34779100000006,"velocity":0.3937007874015748,"duration":0.2608695000000125},{"name":"D6","midi":86,"time":140.34779100000006,"velocity":0.3937007874015748,"duration":0.2608695000000125},{"name":"A5","midi":81,"time":140.60866050000007,"velocity":0.3937007874015748,"duration":0.2608695000000125},{"name":"F5","midi":77,"time":140.60866050000007,"velocity":0.3937007874015748,"duration":0.2608695000000125},{"name":"B5","midi":83,"time":140.86953000000008,"velocity":0.3937007874015748,"duration":0.39130424999999036},{"name":"G5","midi":79,"time":140.86953000000008,"velocity":0.3937007874015748,"duration":0.39130424999999036},{"name":"G5","midi":79,"time":141.26083425000007,"velocity":0.3937007874015748,"duration":0.39130424999999036},{"name":"D5","midi":74,"time":141.26083425000007,"velocity":0.3937007874015748,"duration":0.39130424999999036},{"name":"D5","midi":74,"time":141.65213850000006,"velocity":0.3937007874015748,"duration":0.13043475000000626},{"name":"E5","midi":76,"time":141.78257325000007,"velocity":0.3937007874015748,"duration":0.13043475000000626},{"name":"F5","midi":77,"time":141.91300800000008,"velocity":0.3937007874015748,"duration":0.39130424999999036},{"name":"A#4","midi":70,"time":141.91300800000008,"velocity":0.3937007874015748,"duration":0.39130424999999036},{"name":"E5","midi":76,"time":142.30431225000007,"velocity":0.3937007874015748,"duration":0.2608695000000125},{"name":"A4","midi":69,"time":142.30431225000007,"velocity":0.3937007874015748,"duration":0.2608695000000125},{"name":"C5","midi":72,"time":142.56518175000008,"velocity":0.3937007874015748,"duration":0.13043475000000626},{"name":"E5","midi":76,"time":142.69561650000009,"velocity":0.3937007874015748,"duration":0.2608695000000125},{"name":"A4","midi":69,"time":142.69561650000009,"velocity":0.3937007874015748,"duration":0.2608695000000125},{"name":"D5","midi":74,"time":142.9564860000001,"velocity":0.3937007874015748,"duration":1.0434779999999932},{"name":"A4","midi":69,"time":142.9564860000001,"velocity":0.3937007874015748,"duration":1.0434779999999932},{"name":"F4","midi":65,"time":142.9564860000001,"velocity":0.3937007874015748,"duration":1.0434779999999932},{"name":"G4","midi":67,"time":143.9999640000001,"velocity":0.3937007874015748,"duration":0.13043475000000626},{"name":"D#4","midi":63,"time":143.9999640000001,"velocity":0.3937007874015748,"duration":0.13043475000000626},{"name":"F4","midi":65,"time":144.1303987500001,"velocity":0.3937007874015748,"duration":0.13043475000000626},{"name":"D#4","midi":63,"time":144.2608335000001,"velocity":0.3937007874015748,"duration":0.13043475000000626},{"name":"D4","midi":62,"time":144.3912682500001,"velocity":0.3937007874015748,"duration":0.13043475000000626},{"name":"C4","midi":60,"time":144.52170300000012,"velocity":0.3937007874015748,"duration":0.13043475000000626},{"name":"D#4","midi":63,"time":144.52170300000012,"velocity":0.3937007874015748,"duration":0.13043475000000626},{"name":"D4","midi":62,"time":144.65213775000012,"velocity":0.3937007874015748,"duration":0.13043475000000626},{"name":"C4","midi":60,"time":144.78257250000013,"velocity":0.3937007874015748,"duration":0.13043475000000626},{"name":"D#4","midi":63,"time":144.91300725000013,"velocity":0.3937007874015748,"duration":0.13043475000000626},{"name":"A3","midi":57,"time":145.04344200000014,"velocity":0.3937007874015748,"duration":0.39130424999999036},{"name":"D4","midi":62,"time":145.04344200000014,"velocity":0.3937007874015748,"duration":0.39130424999999036},{"name":"A3","midi":57,"time":145.43474625000013,"velocity":0.3937007874015748,"duration":0.39130424999999036},{"name":"A3","midi":57,"time":145.82605050000012,"velocity":0.3937007874015748,"duration":0.13043475000000626},{"name":"D4","midi":62,"time":145.95648525000013,"velocity":0.3937007874015748,"duration":0.13043475000000626},{"name":"G4","midi":67,"time":146.08692000000013,"velocity":0.3937007874015748,"duration":0.13043475000000626},{"name":"D#4","midi":63,"time":146.08692000000013,"velocity":0.3937007874015748,"duration":0.13043475000000626},{"name":"F4","midi":65,"time":146.21735475000014,"velocity":0.3937007874015748,"duration":0.13043475000000626},{"name":"D#4","midi":63,"time":146.34778950000015,"velocity":0.3937007874015748,"duration":0.13043475000000626},{"name":"D4","midi":62,"time":146.47822425000015,"velocity":0.3937007874015748,"duration":0.13043475000000626},{"name":"C4","midi":60,"time":146.60865900000016,"velocity":0.3937007874015748,"duration":0.13043475000000626},{"name":"D#4","midi":63,"time":146.60865900000016,"velocity":0.3937007874015748,"duration":0.13043475000000626},{"name":"A#4","midi":70,"time":146.73909375000017,"velocity":0.3937007874015748,"duration":0.13043475000000626},{"name":"A4","midi":69,"time":146.86952850000017,"velocity":0.3937007874015748,"duration":0.13043475000000626},{"name":"G4","midi":67,"time":146.99996325000018,"velocity":0.3937007874015748,"duration":0.13043475000000626},{"name":"F4","midi":65,"time":147.13039800000018,"velocity":0.3937007874015748,"duration":0.2608695000000125},{"name":"D4","midi":62,"time":147.13039800000018,"velocity":0.3937007874015748,"duration":0.2608695000000125},{"name":"E4","midi":64,"time":147.3912675000002,"velocity":0.3937007874015748,"duration":0.2608695000000125},{"name":"G4","midi":67,"time":147.3912675000002,"velocity":0.3937007874015748,"duration":0.2608695000000125},{"name":"F4","midi":65,"time":147.6521370000002,"velocity":0.3937007874015748,"duration":0.39130424999999036},{"name":"A4","midi":69,"time":147.6521370000002,"velocity":0.3937007874015748,"duration":0.39130424999999036},{"name":"B4","midi":71,"time":148.0434412500002,"velocity":0.3937007874015748,"duration":0.13043475000000626},{"name":"A4","midi":69,"time":148.1738760000002,"velocity":0.3937007874015748,"duration":0.13043475000000626},{"name":"C4","midi":60,"time":148.1738760000002,"velocity":0.3937007874015748,"duration":0.13043475000000626},{"name":"B4","midi":71,"time":148.3043107500002,"velocity":0.3937007874015748,"duration":0.13043475000000626},{"name":"A4","midi":69,"time":148.43474550000022,"velocity":0.3937007874015748,"duration":0.13043475000000626},{"name":"G4","midi":67,"time":148.56518025000022,"velocity":0.3937007874015748,"duration":0.13043475000000626},{"name":"F4","midi":65,"time":148.69561500000023,"velocity":0.3937007874015748,"duration":0.13043475000000626},{"name":"A4","midi":69,"time":148.69561500000023,"velocity":0.3937007874015748,"duration":0.13043475000000626},{"name":"G4","midi":67,"time":148.82604975000024,"velocity":0.3937007874015748,"duration":0.13043475000000626},{"name":"A4","midi":69,"time":148.95648450000024,"velocity":0.3937007874015748,"duration":0.13043475000000626},{"name":"B4","midi":71,"time":149.08691925000025,"velocity":0.3937007874015748,"duration":0.13043475000000626},{"name":"A4","midi":69,"time":149.21735400000026,"velocity":0.3937007874015748,"duration":0.39130424999999036},{"name":"F4","midi":65,"time":149.21735400000026,"velocity":0.3937007874015748,"duration":0.39130424999999036},{"name":"D4","midi":62,"time":149.60865825000025,"velocity":0.3937007874015748,"duration":0.39130424999999036},{"name":"A3","midi":57,"time":149.60865825000025,"velocity":0.3937007874015748,"duration":0.39130424999999036},{"name":"D4","midi":62,"time":149.99996250000024,"velocity":0.3937007874015748,"duration":0.13043475000000626},{"name":"E4","midi":64,"time":150.13039725000024,"velocity":0.3937007874015748,"duration":0.13043475000000626},{"name":"F4","midi":65,"time":150.26083200000025,"velocity":0.3937007874015748,"duration":0.39130424999999036},{"name":"D4","midi":62,"time":150.26083200000025,"velocity":0.3937007874015748,"duration":0.39130424999999036},{"name":"E4","midi":64,"time":150.65213625000024,"velocity":0.3937007874015748,"duration":0.39130424999999036},{"name":"G4","midi":67,"time":150.65213625000024,"velocity":0.3937007874015748,"duration":0.39130424999999036},{"name":"G4","midi":67,"time":151.04344050000023,"velocity":0.3937007874015748,"duration":0.2608695000000125},{"name":"A#4","midi":70,"time":151.04344050000023,"velocity":0.3937007874015748,"duration":0.2608695000000125},{"name":"A4","midi":69,"time":151.30431000000024,"velocity":0.3937007874015748,"duration":0.2608695000000125},{"name":"F4","midi":65,"time":151.30431000000024,"velocity":0.3937007874015748,"duration":0.2608695000000125},{"name":"E4","midi":64,"time":151.56517950000026,"velocity":0.3937007874015748,"duration":0.2608695000000125},{"name":"C#4","midi":61,"time":151.82604900000027,"velocity":0.3937007874015748,"duration":0.2608695000000125},{"name":"A3","midi":57,"time":152.08691850000028,"velocity":0.3937007874015748,"duration":0.2608695000000125},{"name":"G4","midi":67,"time":152.3477880000003,"velocity":0.3937007874015748,"duration":0.13043475000000626},{"name":"D#4","midi":63,"time":152.3477880000003,"velocity":0.3937007874015748,"duration":0.13043475000000626},{"name":"F4","midi":65,"time":152.4782227500003,"velocity":0.3937007874015748,"duration":0.13043475000000626},{"name":"D#4","midi":63,"time":152.6086575000003,"velocity":0.3937007874015748,"duration":0.13043475000000626},{"name":"D4","midi":62,"time":152.7390922500003,"velocity":0.3937007874015748,"duration":0.13043475000000626},{"name":"C4","midi":60,"time":152.86952700000032,"velocity":0.3937007874015748,"duration":0.13043475000000626},{"name":"D#4","midi":63,"time":152.86952700000032,"velocity":0.3937007874015748,"duration":0.13043475000000626},{"name":"D4","midi":62,"time":152.99996175000032,"velocity":0.3937007874015748,"duration":0.13043475000000626},{"name":"C4","midi":60,"time":153.13039650000033,"velocity":0.3937007874015748,"duration":0.13043475000000626},{"name":"D#4","midi":63,"time":153.26083125000034,"velocity":0.3937007874015748,"duration":0.13043475000000626},{"name":"A3","midi":57,"time":153.39126600000034,"velocity":0.3937007874015748,"duration":0.39130424999999036},{"name":"D4","midi":62,"time":153.39126600000034,"velocity":0.3937007874015748,"duration":0.39130424999999036},{"name":"A3","midi":57,"time":153.78257025000033,"velocity":0.3937007874015748,"duration":0.39130424999999036},{"name":"A3","midi":57,"time":154.17387450000032,"velocity":0.3937007874015748,"duration":0.13043475000000626},{"name":"D4","midi":62,"time":154.30430925000033,"velocity":0.3937007874015748,"duration":0.13043475000000626},{"name":"G4","midi":67,"time":154.43474400000034,"velocity":0.3937007874015748,"duration":0.13043475000000626},{"name":"D#4","midi":63,"time":154.43474400000034,"velocity":0.3937007874015748,"duration":0.13043475000000626},{"name":"F4","midi":65,"time":154.56517875000034,"velocity":0.3937007874015748,"duration":0.13043475000000626},{"name":"D#4","midi":63,"time":154.69561350000035,"velocity":0.3937007874015748,"duration":0.13043475000000626},{"name":"D4","midi":62,"time":154.82604825000035,"velocity":0.3937007874015748,"duration":0.13043475000000626},{"name":"C4","midi":60,"time":154.95648300000036,"velocity":0.3937007874015748,"duration":0.13043475000000626},{"name":"D#4","midi":63,"time":154.95648300000036,"velocity":0.3937007874015748,"duration":0.13043475000000626},{"name":"A#4","midi":70,"time":155.08691775000037,"velocity":0.3937007874015748,"duration":0.13043475000000626},{"name":"A4","midi":69,"time":155.21735250000037,"velocity":0.3937007874015748,"duration":0.13043475000000626},{"name":"G4","midi":67,"time":155.34778725000038,"velocity":0.3937007874015748,"duration":0.13043475000000626},{"name":"F4","midi":65,"time":155.4782220000004,"velocity":0.3937007874015748,"duration":0.2608695000000125},{"name":"D4","midi":62,"time":155.4782220000004,"velocity":0.3937007874015748,"duration":0.2608695000000125},{"name":"E4","midi":64,"time":155.7390915000004,"velocity":0.3937007874015748,"duration":0.2608695000000125},{"name":"G4","midi":67,"time":155.7390915000004,"velocity":0.3937007874015748,"duration":0.2608695000000125},{"name":"F4","midi":65,"time":155.9999610000004,"velocity":0.3937007874015748,"duration":0.39130424999999036},{"name":"A4","midi":69,"time":155.9999610000004,"velocity":0.3937007874015748,"duration":0.39130424999999036},{"name":"B4","midi":71,"time":156.3912652500004,"velocity":0.3937007874015748,"duration":0.13043475000000626},{"name":"A4","midi":69,"time":156.5217000000004,"velocity":0.3937007874015748,"duration":0.13043475000000626},{"name":"C4","midi":60,"time":156.5217000000004,"velocity":0.3937007874015748,"duration":0.13043475000000626},{"name":"B4","midi":71,"time":156.6521347500004,"velocity":0.3937007874015748,"duration":0.13043475000000626},{"name":"A4","midi":69,"time":156.78256950000042,"velocity":0.3937007874015748,"duration":0.13043475000000626},{"name":"G4","midi":67,"time":156.91300425000043,"velocity":0.3937007874015748,"duration":0.13043475000000626},{"name":"F4","midi":65,"time":157.04343900000043,"velocity":0.3937007874015748,"duration":0.13043475000000626},{"name":"A4","midi":69,"time":157.04343900000043,"velocity":0.3937007874015748,"duration":0.13043475000000626},{"name":"G4","midi":67,"time":157.17387375000044,"velocity":0.3937007874015748,"duration":0.13043475000000626},{"name":"A4","midi":69,"time":157.30430850000045,"velocity":0.3937007874015748,"duration":0.13043475000000626},{"name":"B4","midi":71,"time":157.43474325000045,"velocity":0.3937007874015748,"duration":0.13043475000000626},{"name":"A4","midi":69,"time":157.56517800000046,"velocity":0.3937007874015748,"duration":0.39130424999999036},{"name":"F4","midi":65,"time":157.56517800000046,"velocity":0.3937007874015748,"duration":0.39130424999999036},{"name":"D4","midi":62,"time":157.95648225000045,"velocity":0.3937007874015748,"duration":0.39130424999999036},{"name":"A3","midi":57,"time":157.95648225000045,"velocity":0.3937007874015748,"duration":0.39130424999999036},{"name":"D4","midi":62,"time":158.34778650000044,"velocity":0.3937007874015748,"duration":0.13043475000000626},{"name":"E4","midi":64,"time":158.47822125000044,"velocity":0.3937007874015748,"duration":0.13043475000000626},{"name":"A4","midi":69,"time":166.95648000000045,"velocity":0.3937007874015748,"duration":0.13043475000000626},{"name":"D5","midi":74,"time":166.95648000000045,"velocity":0.3937007874015748,"duration":0.13043475000000626},{"name":"D4","midi":62,"time":166.95648000000045,"velocity":0.3937007874015748,"duration":0.13043475000000626},{"name":"D4","midi":62,"time":167.34778425000047,"velocity":0.3937007874015748,"duration":0.2608695000000125},{"name":"A4","midi":69,"time":167.34778425000047,"velocity":0.3937007874015748,"duration":0.2608695000000125},{"name":"A4","midi":69,"time":167.7390885000005,"velocity":0.3937007874015748,"duration":0.2608695000000125},{"name":"D4","midi":62,"time":167.7390885000005,"velocity":0.3937007874015748,"duration":0.2608695000000125},{"name":"D4","midi":62,"time":167.9999580000005,"velocity":0.3937007874015748,"duration":0.13043475000000626},{"name":"G4","midi":67,"time":167.9999580000005,"velocity":0.3937007874015748,"duration":0.13043475000000626},{"name":"B4","midi":71,"time":167.9999580000005,"velocity":0.3937007874015748,"duration":0.13043475000000626},{"name":"G4","midi":67,"time":168.39126225000052,"velocity":0.3937007874015748,"duration":0.2608695000000125},{"name":"D4","midi":62,"time":168.39126225000052,"velocity":0.3937007874015748,"duration":0.2608695000000125},{"name":"G4","midi":67,"time":168.78256650000054,"velocity":0.3937007874015748,"duration":0.2608695000000125},{"name":"D4","midi":62,"time":168.78256650000054,"velocity":0.3937007874015748,"duration":0.2608695000000125},{"name":"D4","midi":62,"time":169.04343600000055,"velocity":0.3937007874015748,"duration":0.13043475000000626},{"name":"A4","midi":69,"time":169.04343600000055,"velocity":0.3937007874015748,"duration":0.13043475000000626},{"name":"D5","midi":74,"time":169.04343600000055,"velocity":0.3937007874015748,"duration":0.13043475000000626},{"name":"D4","midi":62,"time":169.43474025000057,"velocity":0.3937007874015748,"duration":0.2608695000000125},{"name":"A4","midi":69,"time":169.43474025000057,"velocity":0.3937007874015748,"duration":0.2608695000000125},{"name":"A4","midi":69,"time":169.8260445000006,"velocity":0.3937007874015748,"duration":0.2608695000000125},{"name":"D4","midi":62,"time":169.8260445000006,"velocity":0.3937007874015748,"duration":0.2608695000000125},{"name":"D4","midi":62,"time":170.0869140000006,"velocity":0.3937007874015748,"duration":0.13043475000000626},{"name":"G4","midi":67,"time":170.0869140000006,"velocity":0.3937007874015748,"duration":0.13043475000000626},{"name":"B4","midi":71,"time":170.0869140000006,"velocity":0.3937007874015748,"duration":0.13043475000000626},{"name":"D4","midi":62,"time":170.47821825000062,"velocity":0.3937007874015748,"duration":0.2608695000000125},{"name":"G4","midi":67,"time":170.47821825000062,"velocity":0.3937007874015748,"duration":0.2608695000000125},{"name":"G4","midi":67,"time":170.86952250000064,"velocity":0.3937007874015748,"duration":0.2608695000000125},{"name":"D4","midi":62,"time":170.86952250000064,"velocity":0.3937007874015748,"duration":0.2608695000000125},{"name":"D4","midi":62,"time":171.13039200000065,"velocity":0.3937007874015748,"duration":2.0869559999999865},{"name":"A4","midi":69,"time":171.13039200000065,"velocity":0.3937007874015748,"duration":2.0869559999999865},{"name":"D5","midi":74,"time":171.13039200000065,"velocity":0.3937007874015748,"duration":2.0869559999999865}],"controlChanges":{},"id":9,"name":"Violin (Classic)","instrumentNumber":40,"instrument":"brush kit","instrumentFamily":"drums","channelNumber":10,"isPercussion":true},{"startTime":143.99996399999998,"duration":173.2173480000003,"length":122,"notes":[{"name":"G5","midi":79,"time":143.99996399999998,"velocity":0.2204724409448819,"duration":0.13043475000000626},{"name":"D#5","midi":75,"time":143.99996399999998,"velocity":0.2204724409448819,"duration":0.13043475000000626},{"name":"F5","midi":77,"time":144.13039874999998,"velocity":0.2204724409448819,"duration":0.13043475000000626},{"name":"D#5","midi":75,"time":144.2608335,"velocity":0.2204724409448819,"duration":0.13043475000000626},{"name":"D5","midi":74,"time":144.39126825,"velocity":0.2204724409448819,"duration":0.13043475000000626},{"name":"C5","midi":72,"time":144.521703,"velocity":0.2204724409448819,"duration":0.13043475000000626},{"name":"D#5","midi":75,"time":144.521703,"velocity":0.2204724409448819,"duration":0.13043475000000626},{"name":"D5","midi":74,"time":144.65213775,"velocity":0.2204724409448819,"duration":0.13043475000000626},{"name":"C5","midi":72,"time":144.78257250000001,"velocity":0.2204724409448819,"duration":0.13043475000000626},{"name":"D#5","midi":75,"time":144.91300725000002,"velocity":0.2204724409448819,"duration":0.13043475000000626},{"name":"A4","midi":69,"time":145.04344200000003,"velocity":0.2204724409448819,"duration":0.39130424999999036},{"name":"D5","midi":74,"time":145.04344200000003,"velocity":0.2204724409448819,"duration":0.39130424999999036},{"name":"A4","midi":69,"time":145.43474625000002,"velocity":0.2204724409448819,"duration":0.39130424999999036},{"name":"A4","midi":69,"time":145.8260505,"velocity":0.2204724409448819,"duration":0.13043475000000626},{"name":"D5","midi":74,"time":145.95648525000001,"velocity":0.2204724409448819,"duration":0.13043475000000626},{"name":"G5","midi":79,"time":146.08692000000002,"velocity":0.2204724409448819,"duration":0.13043475000000626},{"name":"D#5","midi":75,"time":146.08692000000002,"velocity":0.2204724409448819,"duration":0.13043475000000626},{"name":"F5","midi":77,"time":146.21735475000003,"velocity":0.2204724409448819,"duration":0.13043475000000626},{"name":"D#5","midi":75,"time":146.34778950000003,"velocity":0.2204724409448819,"duration":0.13043475000000626},{"name":"D5","midi":74,"time":146.47822425000004,"velocity":0.2204724409448819,"duration":0.13043475000000626},{"name":"C5","midi":72,"time":146.60865900000005,"velocity":0.2204724409448819,"duration":0.13043475000000626},{"name":"D#5","midi":75,"time":146.60865900000005,"velocity":0.2204724409448819,"duration":0.13043475000000626},{"name":"A#5","midi":82,"time":146.73909375000005,"velocity":0.2204724409448819,"duration":0.13043475000000626},{"name":"A5","midi":81,"time":146.86952850000006,"velocity":0.2204724409448819,"duration":0.13043475000000626},{"name":"G5","midi":79,"time":146.99996325000006,"velocity":0.2204724409448819,"duration":0.13043475000000626},{"name":"F5","midi":77,"time":147.13039800000007,"velocity":0.2204724409448819,"duration":0.2608695000000125},{"name":"D5","midi":74,"time":147.13039800000007,"velocity":0.2204724409448819,"duration":0.2608695000000125},{"name":"E5","midi":76,"time":147.39126750000008,"velocity":0.2204724409448819,"duration":0.2608695000000125},{"name":"G5","midi":79,"time":147.39126750000008,"velocity":0.2204724409448819,"duration":0.2608695000000125},{"name":"F5","midi":77,"time":147.6521370000001,"velocity":0.2204724409448819,"duration":0.39130424999999036},{"name":"A5","midi":81,"time":147.6521370000001,"velocity":0.2204724409448819,"duration":0.39130424999999036},{"name":"B5","midi":83,"time":148.0434412500001,"velocity":0.2204724409448819,"duration":0.13043475000000626},{"name":"A5","midi":81,"time":148.1738760000001,"velocity":0.2204724409448819,"duration":0.13043475000000626},{"name":"C5","midi":72,"time":148.1738760000001,"velocity":0.2204724409448819,"duration":0.13043475000000626},{"name":"B5","midi":83,"time":148.3043107500001,"velocity":0.2204724409448819,"duration":0.13043475000000626},{"name":"A5","midi":81,"time":148.4347455000001,"velocity":0.2204724409448819,"duration":0.13043475000000626},{"name":"G5","midi":79,"time":148.5651802500001,"velocity":0.2204724409448819,"duration":0.13043475000000626},{"name":"F5","midi":77,"time":148.69561500000012,"velocity":0.2204724409448819,"duration":0.13043475000000626},{"name":"A5","midi":81,"time":148.69561500000012,"velocity":0.2204724409448819,"duration":0.13043475000000626},{"name":"G5","midi":79,"time":148.82604975000012,"velocity":0.2204724409448819,"duration":0.13043475000000626},{"name":"A5","midi":81,"time":148.95648450000013,"velocity":0.2204724409448819,"duration":0.13043475000000626},{"name":"B5","midi":83,"time":149.08691925000014,"velocity":0.2204724409448819,"duration":0.13043475000000626},{"name":"A5","midi":81,"time":149.21735400000014,"velocity":0.2204724409448819,"duration":0.39130424999999036},{"name":"F5","midi":77,"time":149.21735400000014,"velocity":0.2204724409448819,"duration":0.39130424999999036},{"name":"D5","midi":74,"time":149.60865825000013,"velocity":0.2204724409448819,"duration":0.39130424999999036},{"name":"A4","midi":69,"time":149.60865825000013,"velocity":0.2204724409448819,"duration":0.39130424999999036},{"name":"D5","midi":74,"time":149.99996250000012,"velocity":0.2204724409448819,"duration":0.13043475000000626},{"name":"E5","midi":76,"time":150.13039725000013,"velocity":0.2204724409448819,"duration":0.13043475000000626},{"name":"F5","midi":77,"time":150.26083200000014,"velocity":0.2204724409448819,"duration":0.39130424999999036},{"name":"D5","midi":74,"time":150.26083200000014,"velocity":0.2204724409448819,"duration":0.39130424999999036},{"name":"E5","midi":76,"time":150.65213625000013,"velocity":0.2204724409448819,"duration":0.39130424999999036},{"name":"G5","midi":79,"time":150.65213625000013,"velocity":0.2204724409448819,"duration":0.39130424999999036},{"name":"G5","midi":79,"time":151.04344050000012,"velocity":0.2204724409448819,"duration":0.2608695000000125},{"name":"A#5","midi":82,"time":151.04344050000012,"velocity":0.2204724409448819,"duration":0.2608695000000125},{"name":"A5","midi":81,"time":151.30431000000013,"velocity":0.2204724409448819,"duration":0.2608695000000125},{"name":"F5","midi":77,"time":151.30431000000013,"velocity":0.2204724409448819,"duration":0.2608695000000125},{"name":"E5","midi":76,"time":151.56517950000014,"velocity":0.2204724409448819,"duration":0.2608695000000125},{"name":"C#5","midi":73,"time":151.82604900000015,"velocity":0.2204724409448819,"duration":0.2608695000000125},{"name":"A4","midi":69,"time":152.08691850000017,"velocity":0.2204724409448819,"duration":0.2608695000000125},{"name":"G5","midi":79,"time":152.34778800000018,"velocity":0.2204724409448819,"duration":0.13043475000000626},{"name":"D#5","midi":75,"time":152.34778800000018,"velocity":0.2204724409448819,"duration":0.13043475000000626},{"name":"F5","midi":77,"time":152.47822275000019,"velocity":0.2204724409448819,"duration":0.13043475000000626},{"name":"D#5","midi":75,"time":152.6086575000002,"velocity":0.2204724409448819,"duration":0.13043475000000626},{"name":"D5","midi":74,"time":152.7390922500002,"velocity":0.2204724409448819,"duration":0.13043475000000626},{"name":"C5","midi":72,"time":152.8695270000002,"velocity":0.2204724409448819,"duration":0.13043475000000626},{"name":"D#5","midi":75,"time":152.8695270000002,"velocity":0.2204724409448819,"duration":0.13043475000000626},{"name":"D5","midi":74,"time":152.9999617500002,"velocity":0.2204724409448819,"duration":0.13043475000000626},{"name":"C5","midi":72,"time":153.13039650000022,"velocity":0.2204724409448819,"duration":0.13043475000000626},{"name":"D#5","midi":75,"time":153.26083125000022,"velocity":0.2204724409448819,"duration":0.13043475000000626},{"name":"A4","midi":69,"time":153.39126600000023,"velocity":0.2204724409448819,"duration":0.39130424999999036},{"name":"D5","midi":74,"time":153.39126600000023,"velocity":0.2204724409448819,"duration":0.39130424999999036},{"name":"A4","midi":69,"time":153.78257025000022,"velocity":0.2204724409448819,"duration":0.39130424999999036},{"name":"A4","midi":69,"time":154.1738745000002,"velocity":0.2204724409448819,"duration":0.13043475000000626},{"name":"D5","midi":74,"time":154.30430925000022,"velocity":0.2204724409448819,"duration":0.13043475000000626},{"name":"G5","midi":79,"time":154.43474400000022,"velocity":0.2204724409448819,"duration":0.13043475000000626},{"name":"D#5","midi":75,"time":154.43474400000022,"velocity":0.2204724409448819,"duration":0.13043475000000626},{"name":"F5","midi":77,"time":154.56517875000023,"velocity":0.2204724409448819,"duration":0.13043475000000626},{"name":"D#5","midi":75,"time":154.69561350000023,"velocity":0.2204724409448819,"duration":0.13043475000000626},{"name":"D5","midi":74,"time":154.82604825000024,"velocity":0.2204724409448819,"duration":0.13043475000000626},{"name":"C5","midi":72,"time":154.95648300000025,"velocity":0.2204724409448819,"duration":0.13043475000000626},{"name":"D#5","midi":75,"time":154.95648300000025,"velocity":0.2204724409448819,"duration":0.13043475000000626},{"name":"A#5","midi":82,"time":155.08691775000025,"velocity":0.2204724409448819,"duration":0.13043475000000626},{"name":"A5","midi":81,"time":155.21735250000026,"velocity":0.2204724409448819,"duration":0.13043475000000626},{"name":"G5","midi":79,"time":155.34778725000027,"velocity":0.2204724409448819,"duration":0.13043475000000626},{"name":"F5","midi":77,"time":155.47822200000027,"velocity":0.2204724409448819,"duration":0.2608695000000125},{"name":"D5","midi":74,"time":155.47822200000027,"velocity":0.2204724409448819,"duration":0.2608695000000125},{"name":"E5","midi":76,"time":155.73909150000028,"velocity":0.2204724409448819,"duration":0.2608695000000125},{"name":"G5","midi":79,"time":155.73909150000028,"velocity":0.2204724409448819,"duration":0.2608695000000125},{"name":"F5","midi":77,"time":155.9999610000003,"velocity":0.2204724409448819,"duration":0.39130424999999036},{"name":"A5","midi":81,"time":155.9999610000003,"velocity":0.2204724409448819,"duration":0.39130424999999036},{"name":"B5","midi":83,"time":156.3912652500003,"velocity":0.2204724409448819,"duration":0.13043475000000626},{"name":"A5","midi":81,"time":156.5217000000003,"velocity":0.2204724409448819,"duration":0.13043475000000626},{"name":"C5","midi":72,"time":156.5217000000003,"velocity":0.2204724409448819,"duration":0.13043475000000626},{"name":"B5","midi":83,"time":156.6521347500003,"velocity":0.2204724409448819,"duration":0.13043475000000626},{"name":"A5","midi":81,"time":156.7825695000003,"velocity":0.2204724409448819,"duration":0.13043475000000626},{"name":"G5","midi":79,"time":156.9130042500003,"velocity":0.2204724409448819,"duration":0.13043475000000626},{"name":"F5","midi":77,"time":157.04343900000032,"velocity":0.2204724409448819,"duration":0.13043475000000626},{"name":"A5","midi":81,"time":157.04343900000032,"velocity":0.2204724409448819,"duration":0.13043475000000626},{"name":"G5","midi":79,"time":157.17387375000033,"velocity":0.2204724409448819,"duration":0.13043475000000626},{"name":"A5","midi":81,"time":157.30430850000033,"velocity":0.2204724409448819,"duration":0.13043475000000626},{"name":"B5","midi":83,"time":157.43474325000034,"velocity":0.2204724409448819,"duration":0.13043475000000626},{"name":"A5","midi":81,"time":157.56517800000034,"velocity":0.2204724409448819,"duration":0.39130424999999036},{"name":"F5","midi":77,"time":157.56517800000034,"velocity":0.2204724409448819,"duration":0.39130424999999036},{"name":"D5","midi":74,"time":157.95648225000033,"velocity":0.2204724409448819,"duration":0.39130424999999036},{"name":"A4","midi":69,"time":157.95648225000033,"velocity":0.2204724409448819,"duration":0.39130424999999036},{"name":"D5","midi":74,"time":158.34778650000032,"velocity":0.2204724409448819,"duration":0.13043475000000626},{"name":"E5","midi":76,"time":158.47822125000033,"velocity":0.2204724409448819,"duration":0.13043475000000626},{"name":"D3","midi":50,"time":166.95648000000034,"velocity":0.2204724409448819,"duration":0.39130424999999036},{"name":"A3","midi":57,"time":167.34778425000033,"velocity":0.2204724409448819,"duration":0.39130424999999036},{"name":"D4","midi":62,"time":167.73908850000032,"velocity":0.2204724409448819,"duration":0.2608695000000125},{"name":"G3","midi":55,"time":167.99995800000033,"velocity":0.2204724409448819,"duration":0.39130424999999036},{"name":"B3","midi":59,"time":168.39126225000032,"velocity":0.2204724409448819,"duration":0.39130424999999036},{"name":"D4","midi":62,"time":168.7825665000003,"velocity":0.2204724409448819,"duration":0.2608695000000125},{"name":"D3","midi":50,"time":169.04343600000033,"velocity":0.2204724409448819,"duration":0.39130424999999036},{"name":"A3","midi":57,"time":169.43474025000032,"velocity":0.2204724409448819,"duration":0.39130424999999036},{"name":"D4","midi":62,"time":169.8260445000003,"velocity":0.2204724409448819,"duration":0.2608695000000125},{"name":"G3","midi":55,"time":170.08691400000032,"velocity":0.2204724409448819,"duration":0.39130424999999036},{"name":"B3","midi":59,"time":170.4782182500003,"velocity":0.2204724409448819,"duration":0.39130424999999036},{"name":"D4","midi":62,"time":170.8695225000003,"velocity":0.2204724409448819,"duration":0.2608695000000125},{"name":"D3","midi":50,"time":171.1303920000003,"velocity":0.2204724409448819,"duration":2.0869559999999865},{"name":"A3","midi":57,"time":171.1303920000003,"velocity":0.2204724409448819,"duration":2.0869559999999865},{"name":"D4","midi":62,"time":171.1303920000003,"velocity":0.2204724409448819,"duration":2.0869559999999865}],"controlChanges":{},"id":10,"name":"Synth Pluck","instrumentNumber":87,"instrument":"lead 8 (bass + lead)","instrumentFamily":"synth lead","channelNumber":11,"isPercussion":false},{"startTime":18.782604,"duration":171.26082675000123,"length":1125,"notes":[{"name":"F#2","midi":42,"time":18.782604,"velocity":0.5905511811023622,"duration":0.13043474999999916},{"name":"F#2","midi":42,"time":19.043473499999998,"velocity":0.5905511811023622,"duration":0.13043474999999916},{"name":"F#2","midi":42,"time":19.304342999999996,"velocity":0.5905511811023622,"duration":0.13043474999999916},{"name":"F#2","midi":42,"time":19.565212499999994,"velocity":0.5905511811023622,"duration":0.13043474999999916},{"name":"F#2","midi":42,"time":19.695647249999993,"velocity":0.5905511811023622,"duration":0.13043474999999916},{"name":"F#2","midi":42,"time":19.826081999999992,"velocity":0.5905511811023622,"duration":0.13043474999999916},{"name":"F#2","midi":42,"time":20.08695149999999,"velocity":0.5905511811023622,"duration":0.13043474999999916},{"name":"F#2","midi":42,"time":20.34782099999999,"velocity":0.5905511811023622,"duration":0.13043474999999916},{"name":"F#2","midi":42,"time":20.608690499999987,"velocity":0.5905511811023622,"duration":0.13043474999999916},{"name":"F#2","midi":42,"time":20.739125249999987,"velocity":0.5905511811023622,"duration":0.13043474999999916},{"name":"F#2","midi":42,"time":20.869559999999986,"velocity":0.5905511811023622,"duration":0.13043474999999916},{"name":"F#2","midi":42,"time":21.130429499999984,"velocity":0.5905511811023622,"duration":0.13043474999999916},{"name":"F#2","midi":42,"time":21.391298999999982,"velocity":0.5905511811023622,"duration":0.13043474999999916},{"name":"F#2","midi":42,"time":21.65216849999998,"velocity":0.5905511811023622,"duration":0.13043474999999916},{"name":"F#2","midi":42,"time":21.78260324999998,"velocity":0.5905511811023622,"duration":0.13043474999999916},{"name":"F#2","midi":42,"time":21.91303799999998,"velocity":0.5905511811023622,"duration":0.13043474999999916},{"name":"F#2","midi":42,"time":22.173907499999977,"velocity":0.5905511811023622,"duration":0.13043474999999916},{"name":"F#2","midi":42,"time":22.434776999999976,"velocity":0.5905511811023622,"duration":0.13043474999999916},{"name":"F#2","midi":42,"time":22.695646499999974,"velocity":0.5905511811023622,"duration":0.13043474999999916},{"name":"F#2","midi":42,"time":22.826081249999973,"velocity":0.5905511811023622,"duration":0.13043474999999916},{"name":"F#2","midi":42,"time":22.956515999999972,"velocity":0.5905511811023622,"duration":0.13043474999999916},{"name":"F#2","midi":42,"time":23.21738549999997,"velocity":0.5905511811023622,"duration":0.13043474999999916},{"name":"F#2","midi":42,"time":23.47825499999997,"velocity":0.5905511811023622,"duration":0.13043474999999916},{"name":"F#2","midi":42,"time":23.739124499999967,"velocity":0.5905511811023622,"duration":0.13043474999999916},{"name":"F#2","midi":42,"time":23.869559249999966,"velocity":0.5905511811023622,"duration":0.13043474999999916},{"name":"F#2","midi":42,"time":23.999993999999965,"velocity":0.5905511811023622,"duration":0.13043474999999916},{"name":"F#2","midi":42,"time":24.260863499999964,"velocity":0.5905511811023622,"duration":0.13043474999999916},{"name":"F#2","midi":42,"time":24.521732999999962,"velocity":0.5905511811023622,"duration":0.13043474999999916},{"name":"F#2","midi":42,"time":24.78260249999996,"velocity":0.5905511811023622,"duration":0.13043474999999916},{"name":"F#2","midi":42,"time":24.91303724999996,"velocity":0.5905511811023622,"duration":0.13043474999999916},{"name":"F#2","midi":42,"time":25.04347199999996,"velocity":0.5905511811023622,"duration":0.13043474999999916},{"name":"F#2","midi":42,"time":25.304341499999957,"velocity":0.5905511811023622,"duration":0.13043474999999916},{"name":"F#2","midi":42,"time":25.565210999999955,"velocity":0.5905511811023622,"duration":0.13043474999999916},{"name":"F#2","midi":42,"time":25.826080499999954,"velocity":0.5905511811023622,"duration":0.13043474999999916},{"name":"F#2","midi":42,"time":25.956515249999953,"velocity":0.5905511811023622,"duration":0.13043474999999916},{"name":"F#2","midi":42,"time":27.130427999999952,"velocity":0.5905511811023622,"duration":0.13043474999999916},{"name":"D#2","midi":39,"time":27.130427999999952,"velocity":0.5905511811023622,"duration":0.13043474999999916},{"name":"D#2","midi":39,"time":27.26086274999995,"velocity":0.5905511811023622,"duration":0.13043474999999916},{"name":"F#2","midi":42,"time":27.39129749999995,"velocity":0.5905511811023622,"duration":0.13043474999999916},{"name":"D#2","midi":39,"time":27.39129749999995,"velocity":0.5905511811023622,"duration":0.13043474999999916},{"name":"F#2","midi":42,"time":27.65216699999995,"velocity":0.5905511811023622,"duration":0.13043474999999916},{"name":"D#2","midi":39,"time":27.65216699999995,"velocity":0.5905511811023622,"duration":0.13043474999999916},{"name":"F#2","midi":42,"time":27.913036499999947,"velocity":0.5905511811023622,"duration":0.13043474999999916},{"name":"D#2","midi":39,"time":27.913036499999947,"velocity":0.5905511811023622,"duration":0.13043474999999916},{"name":"F#2","midi":42,"time":28.043471249999946,"velocity":0.5905511811023622,"duration":0.13043474999999916},{"name":"D#2","midi":39,"time":28.108688624999946,"velocity":0.5905511811023622,"duration":0.06521737499999958},{"name":"F#2","midi":42,"time":28.173905999999945,"velocity":0.5905511811023622,"duration":0.13043474999999916},{"name":"D#2","midi":39,"time":28.173905999999945,"velocity":0.5905511811023622,"duration":0.13043474999999916},{"name":"D#2","midi":39,"time":28.304340749999945,"velocity":0.5905511811023622,"duration":0.13043474999999916},{"name":"F#2","midi":42,"time":28.434775499999944,"velocity":0.5905511811023622,"duration":0.13043474999999916},{"name":"D#2","midi":39,"time":28.434775499999944,"velocity":0.5905511811023622,"duration":0.13043474999999916},{"name":"F#2","midi":42,"time":28.695644999999942,"velocity":0.5905511811023622,"duration":0.13043474999999916},{"name":"D#2","midi":39,"time":28.695644999999942,"velocity":0.5905511811023622,"duration":0.13043474999999916},{"name":"F#2","midi":42,"time":28.95651449999994,"velocity":0.5905511811023622,"duration":0.13043474999999916},{"name":"D#2","midi":39,"time":28.95651449999994,"velocity":0.5905511811023622,"duration":0.13043474999999916},{"name":"F#2","midi":42,"time":29.08694924999994,"velocity":0.5905511811023622,"duration":0.13043474999999916},{"name":"D#2","midi":39,"time":29.15216662499994,"velocity":0.5905511811023622,"duration":0.06521737499999958},{"name":"F#2","midi":42,"time":29.21738399999994,"velocity":0.5905511811023622,"duration":0.13043474999999916},{"name":"D#2","midi":39,"time":29.21738399999994,"velocity":0.5905511811023622,"duration":0.13043474999999916},{"name":"D#2","midi":39,"time":29.347818749999938,"velocity":0.5905511811023622,"duration":0.13043474999999916},{"name":"F#2","midi":42,"time":29.478253499999937,"velocity":0.5905511811023622,"duration":0.13043474999999916},{"name":"D#2","midi":39,"time":29.478253499999937,"velocity":0.5905511811023622,"duration":0.13043474999999916},{"name":"F#2","midi":42,"time":29.739122999999935,"velocity":0.5905511811023622,"duration":0.13043474999999916},{"name":"D#2","midi":39,"time":29.739122999999935,"velocity":0.5905511811023622,"duration":0.13043474999999916},{"name":"F#2","midi":42,"time":29.999992499999934,"velocity":0.5905511811023622,"duration":0.13043474999999916},{"name":"D#2","midi":39,"time":29.999992499999934,"velocity":0.5905511811023622,"duration":0.13043474999999916},{"name":"F#2","midi":42,"time":30.130427249999933,"velocity":0.5905511811023622,"duration":0.13043474999999916},{"name":"D#2","midi":39,"time":30.195644624999932,"velocity":0.5905511811023622,"duration":0.06521737499999958},{"name":"F#2","midi":42,"time":30.260861999999932,"velocity":0.5905511811023622,"duration":0.13043474999999916},{"name":"D#2","midi":39,"time":30.260861999999932,"velocity":0.5905511811023622,"duration":0.13043474999999916},{"name":"D#2","midi":39,"time":30.39129674999993,"velocity":0.5905511811023622,"duration":0.13043474999999916},{"name":"F#2","midi":42,"time":30.52173149999993,"velocity":0.5905511811023622,"duration":0.13043474999999916},{"name":"D#2","midi":39,"time":30.52173149999993,"velocity":0.5905511811023622,"duration":0.13043474999999916},{"name":"F#2","midi":42,"time":30.78260099999993,"velocity":0.5905511811023622,"duration":0.13043474999999916},{"name":"D#2","midi":39,"time":30.78260099999993,"velocity":0.5905511811023622,"duration":0.13043474999999916},{"name":"F#2","midi":42,"time":31.043470499999927,"velocity":0.5905511811023622,"duration":0.13043474999999916},{"name":"D#2","midi":39,"time":31.043470499999927,"velocity":0.5905511811023622,"duration":0.13043474999999916},{"name":"F#2","midi":42,"time":31.173905249999926,"velocity":0.5905511811023622,"duration":0.13043474999999916},{"name":"D#2","midi":39,"time":31.239122624999926,"velocity":0.5905511811023622,"duration":0.06521737499999958},{"name":"F#2","midi":42,"time":31.304339999999925,"velocity":0.5905511811023622,"duration":0.13043474999999916},{"name":"D#2","midi":39,"time":31.304339999999925,"velocity":0.5905511811023622,"duration":0.13043474999999916},{"name":"D#2","midi":39,"time":31.434774749999924,"velocity":0.5905511811023622,"duration":0.13043474999999916},{"name":"F#2","midi":42,"time":31.565209499999924,"velocity":0.5905511811023622,"duration":0.13043474999999916},{"name":"D#2","midi":39,"time":31.565209499999924,"velocity":0.5905511811023622,"duration":0.13043474999999916},{"name":"F#2","midi":42,"time":31.826078999999922,"velocity":0.5905511811023622,"duration":0.13043474999999916},{"name":"D#2","midi":39,"time":31.826078999999922,"velocity":0.5905511811023622,"duration":0.13043474999999916},{"name":"F#2","midi":42,"time":32.08694849999992,"velocity":0.5905511811023622,"duration":0.13043474999999916},{"name":"D#2","midi":39,"time":32.08694849999992,"velocity":0.5905511811023622,"duration":0.13043474999999916},{"name":"F#2","midi":42,"time":32.21738324999992,"velocity":0.5905511811023622,"duration":0.13043475000000626},{"name":"D#2","midi":39,"time":32.28260062499992,"velocity":0.5905511811023622,"duration":0.06521737500000313},{"name":"F#2","midi":42,"time":32.347817999999926,"velocity":0.5905511811023622,"duration":0.13043474999999916},{"name":"D#2","midi":39,"time":32.347817999999926,"velocity":0.5905511811023622,"duration":0.13043474999999916},{"name":"D#2","midi":39,"time":32.478252749999925,"velocity":0.5905511811023622,"duration":0.13043474999999916},{"name":"F#2","midi":42,"time":32.608687499999924,"velocity":0.5905511811023622,"duration":0.13043474999999916},{"name":"D#2","midi":39,"time":32.608687499999924,"velocity":0.5905511811023622,"duration":0.13043474999999916},{"name":"F#2","midi":42,"time":32.86955699999992,"velocity":0.5905511811023622,"duration":0.13043474999999916},{"name":"D#2","midi":39,"time":32.86955699999992,"velocity":0.5905511811023622,"duration":0.13043474999999916},{"name":"F#2","midi":42,"time":33.13042649999992,"velocity":0.5905511811023622,"duration":0.13043474999999916},{"name":"D#2","midi":39,"time":33.13042649999992,"velocity":0.5905511811023622,"duration":0.13043474999999916},{"name":"F#2","midi":42,"time":33.26086124999992,"velocity":0.5905511811023622,"duration":0.13043475000000626},{"name":"D#2","midi":39,"time":33.32607862499992,"velocity":0.5905511811023622,"duration":0.06521737500000313},{"name":"F#2","midi":42,"time":33.391295999999926,"velocity":0.5905511811023622,"duration":0.13043474999999916},{"name":"D#2","midi":39,"time":33.391295999999926,"velocity":0.5905511811023622,"duration":0.13043474999999916},{"name":"D#2","midi":39,"time":33.521730749999925,"velocity":0.5905511811023622,"duration":0.13043474999999916},{"name":"F#2","midi":42,"time":33.652165499999924,"velocity":0.5905511811023622,"duration":0.13043474999999916},{"name":"D#2","midi":39,"time":33.652165499999924,"velocity":0.5905511811023622,"duration":0.13043474999999916},{"name":"F#2","midi":42,"time":33.91303499999992,"velocity":0.5905511811023622,"duration":0.13043474999999916},{"name":"D#2","midi":39,"time":33.91303499999992,"velocity":0.5905511811023622,"duration":0.13043474999999916},{"name":"F#2","midi":42,"time":34.17390449999992,"velocity":0.5905511811023622,"duration":0.13043474999999916},{"name":"D#2","midi":39,"time":34.17390449999992,"velocity":0.5905511811023622,"duration":0.13043474999999916},{"name":"F#2","midi":42,"time":34.30433924999992,"velocity":0.5905511811023622,"duration":0.13043474999999916},{"name":"F#2","midi":42,"time":35.47825199999992,"velocity":0.5905511811023622,"duration":0.13043474999999916},{"name":"F#2","midi":42,"time":35.73912149999992,"velocity":0.5905511811023622,"duration":0.13043474999999916},{"name":"F#2","midi":42,"time":35.999990999999916,"velocity":0.5905511811023622,"duration":0.13043474999999916},{"name":"F#2","midi":42,"time":36.260860499999914,"velocity":0.5905511811023622,"duration":0.13043474999999916},{"name":"F#2","midi":42,"time":36.391295249999914,"velocity":0.5905511811023622,"duration":0.13043474999999916},{"name":"F#2","midi":42,"time":36.52172999999991,"velocity":0.5905511811023622,"duration":0.13043474999999916},{"name":"F#2","midi":42,"time":36.78259949999991,"velocity":0.5905511811023622,"duration":0.13043474999999916},{"name":"F#2","midi":42,"time":37.04346899999991,"velocity":0.5905511811023622,"duration":0.13043474999999916},{"name":"F#2","midi":42,"time":37.30433849999991,"velocity":0.5905511811023622,"duration":0.13043474999999916},{"name":"F#2","midi":42,"time":37.43477324999991,"velocity":0.5905511811023622,"duration":0.13043474999999916},{"name":"F#2","midi":42,"time":37.565207999999906,"velocity":0.5905511811023622,"duration":0.13043474999999916},{"name":"F#2","midi":42,"time":37.826077499999904,"velocity":0.5905511811023622,"duration":0.13043474999999916},{"name":"F#2","midi":42,"time":38.0869469999999,"velocity":0.5905511811023622,"duration":0.13043474999999916},{"name":"F#2","midi":42,"time":38.3478164999999,"velocity":0.5905511811023622,"duration":0.13043474999999916},{"name":"F#2","midi":42,"time":38.4782512499999,"velocity":0.5905511811023622,"duration":0.13043474999999916},{"name":"F#2","midi":42,"time":38.6086859999999,"velocity":0.5905511811023622,"duration":0.13043474999999916},{"name":"F#2","midi":42,"time":38.8695554999999,"velocity":0.5905511811023622,"duration":0.13043474999999916},{"name":"F#2","midi":42,"time":39.130424999999896,"velocity":0.5905511811023622,"duration":0.13043474999999916},{"name":"F#2","midi":42,"time":39.391294499999894,"velocity":0.5905511811023622,"duration":0.13043474999999916},{"name":"F#2","midi":42,"time":39.52172924999989,"velocity":0.5905511811023622,"duration":0.13043474999999916},{"name":"F#2","midi":42,"time":39.65216399999989,"velocity":0.5905511811023622,"duration":0.13043474999999916},{"name":"F#2","midi":42,"time":39.91303349999989,"velocity":0.5905511811023622,"duration":0.13043474999999916},{"name":"F#2","midi":42,"time":40.17390299999989,"velocity":0.5905511811023622,"duration":0.13043474999999916},{"name":"F#2","midi":42,"time":40.43477249999989,"velocity":0.5905511811023622,"duration":0.13043474999999916},{"name":"F#2","midi":42,"time":40.56520724999989,"velocity":0.5905511811023622,"duration":0.13043474999999916},{"name":"F#2","midi":42,"time":40.695641999999886,"velocity":0.5905511811023622,"duration":0.13043474999999916},{"name":"F#2","midi":42,"time":40.956511499999884,"velocity":0.5905511811023622,"duration":0.13043474999999916},{"name":"F#2","midi":42,"time":41.21738099999988,"velocity":0.5905511811023622,"duration":0.13043474999999916},{"name":"F#2","midi":42,"time":41.47825049999988,"velocity":0.5905511811023622,"duration":0.13043474999999916},{"name":"F#2","midi":42,"time":41.60868524999988,"velocity":0.5905511811023622,"duration":0.13043474999999916},{"name":"F#2","midi":42,"time":41.73911999999988,"velocity":0.5905511811023622,"duration":0.13043474999999916},{"name":"F#2","midi":42,"time":41.99998949999988,"velocity":0.5905511811023622,"duration":0.13043474999999916},{"name":"F#2","midi":42,"time":42.260858999999876,"velocity":0.5905511811023622,"duration":0.13043474999999916},{"name":"F#2","midi":42,"time":42.521728499999874,"velocity":0.5905511811023622,"duration":0.13043474999999916},{"name":"F#2","midi":42,"time":42.65216324999987,"velocity":0.5905511811023622,"duration":0.13043474999999916},{"name":"F#2","midi":42,"time":43.82607599999987,"velocity":0.5905511811023622,"duration":0.13043474999999916},{"name":"D#2","midi":39,"time":43.82607599999987,"velocity":0.5905511811023622,"duration":0.13043474999999916},{"name":"D#2","midi":39,"time":43.95651074999987,"velocity":0.5905511811023622,"duration":0.13043474999999916},{"name":"F#2","midi":42,"time":44.08694549999987,"velocity":0.5905511811023622,"duration":0.13043474999999916},{"name":"D#2","midi":39,"time":44.08694549999987,"velocity":0.5905511811023622,"duration":0.13043474999999916},{"name":"F#2","midi":42,"time":44.34781499999987,"velocity":0.5905511811023622,"duration":0.13043474999999916},{"name":"D#2","midi":39,"time":44.34781499999987,"velocity":0.5905511811023622,"duration":0.13043474999999916},{"name":"F#2","midi":42,"time":44.60868449999987,"velocity":0.5905511811023622,"duration":0.13043474999999916},{"name":"D#2","midi":39,"time":44.60868449999987,"velocity":0.5905511811023622,"duration":0.13043474999999916},{"name":"F#2","midi":42,"time":44.73911924999987,"velocity":0.5905511811023622,"duration":0.13043475000000626},{"name":"D#2","midi":39,"time":44.80433662499987,"velocity":0.5905511811023622,"duration":0.06521737500000313},{"name":"F#2","midi":42,"time":44.86955399999987,"velocity":0.5905511811023622,"duration":0.13043474999999916},{"name":"D#2","midi":39,"time":44.86955399999987,"velocity":0.5905511811023622,"duration":0.13043474999999916},{"name":"D#2","midi":39,"time":44.99998874999987,"velocity":0.5905511811023622,"duration":0.13043474999999916},{"name":"F#2","midi":42,"time":45.13042349999987,"velocity":0.5905511811023622,"duration":0.13043474999999916},{"name":"D#2","midi":39,"time":45.13042349999987,"velocity":0.5905511811023622,"duration":0.13043474999999916},{"name":"F#2","midi":42,"time":45.39129299999987,"velocity":0.5905511811023622,"duration":0.13043474999999916},{"name":"D#2","midi":39,"time":45.39129299999987,"velocity":0.5905511811023622,"duration":0.13043474999999916},{"name":"F#2","midi":42,"time":45.65216249999987,"velocity":0.5905511811023622,"duration":0.13043474999999916},{"name":"D#2","midi":39,"time":45.65216249999987,"velocity":0.5905511811023622,"duration":0.13043474999999916},{"name":"F#2","midi":42,"time":45.78259724999987,"velocity":0.5905511811023622,"duration":0.13043475000000626},{"name":"D#2","midi":39,"time":45.84781462499987,"velocity":0.5905511811023622,"duration":0.06521737500000313},{"name":"F#2","midi":42,"time":45.91303199999987,"velocity":0.5905511811023622,"duration":0.13043474999999916},{"name":"D#2","midi":39,"time":45.91303199999987,"velocity":0.5905511811023622,"duration":0.13043474999999916},{"name":"D#2","midi":39,"time":46.04346674999987,"velocity":0.5905511811023622,"duration":0.13043474999999916},{"name":"F#2","midi":42,"time":46.17390149999987,"velocity":0.5905511811023622,"duration":0.13043474999999916},{"name":"D#2","midi":39,"time":46.17390149999987,"velocity":0.5905511811023622,"duration":0.13043474999999916},{"name":"F#2","midi":42,"time":46.43477099999987,"velocity":0.5905511811023622,"duration":0.13043474999999916},{"name":"D#2","midi":39,"time":46.43477099999987,"velocity":0.5905511811023622,"duration":0.13043474999999916},{"name":"F#2","midi":42,"time":46.69564049999987,"velocity":0.5905511811023622,"duration":0.13043474999999916},{"name":"D#2","midi":39,"time":46.69564049999987,"velocity":0.5905511811023622,"duration":0.13043474999999916},{"name":"F#2","midi":42,"time":46.82607524999987,"velocity":0.5905511811023622,"duration":0.13043475000000626},{"name":"D#2","midi":39,"time":46.89129262499987,"velocity":0.5905511811023622,"duration":0.06521737500000313},{"name":"F#2","midi":42,"time":46.956509999999874,"velocity":0.5905511811023622,"duration":0.13043474999999916},{"name":"D#2","midi":39,"time":46.956509999999874,"velocity":0.5905511811023622,"duration":0.13043474999999916},{"name":"D#2","midi":39,"time":47.08694474999987,"velocity":0.5905511811023622,"duration":0.13043474999999916},{"name":"F#2","midi":42,"time":47.21737949999987,"velocity":0.5905511811023622,"duration":0.13043474999999916},{"name":"D#2","midi":39,"time":47.21737949999987,"velocity":0.5905511811023622,"duration":0.13043474999999916},{"name":"F#2","midi":42,"time":47.47824899999987,"velocity":0.5905511811023622,"duration":0.13043474999999916},{"name":"D#2","midi":39,"time":47.47824899999987,"velocity":0.5905511811023622,"duration":0.13043474999999916},{"name":"F#2","midi":42,"time":47.73911849999987,"velocity":0.5905511811023622,"duration":0.13043474999999916},{"name":"D#2","midi":39,"time":47.73911849999987,"velocity":0.5905511811023622,"duration":0.13043474999999916},{"name":"F#2","midi":42,"time":47.86955324999987,"velocity":0.5905511811023622,"duration":0.13043475000000626},{"name":"D#2","midi":39,"time":47.93477062499987,"velocity":0.5905511811023622,"duration":0.06521737500000313},{"name":"F#2","midi":42,"time":47.999987999999874,"velocity":0.5905511811023622,"duration":0.13043474999999916},{"name":"D#2","midi":39,"time":47.999987999999874,"velocity":0.5905511811023622,"duration":0.13043474999999916},{"name":"D#2","midi":39,"time":48.13042274999987,"velocity":0.5905511811023622,"duration":0.13043474999999916},{"name":"F#2","midi":42,"time":48.26085749999987,"velocity":0.5905511811023622,"duration":0.13043474999999916},{"name":"D#2","midi":39,"time":48.26085749999987,"velocity":0.5905511811023622,"duration":0.13043474999999916},{"name":"F#2","midi":42,"time":48.52172699999987,"velocity":0.5905511811023622,"duration":0.13043474999999916},{"name":"D#2","midi":39,"time":48.52172699999987,"velocity":0.5905511811023622,"duration":0.13043474999999916},{"name":"F#2","midi":42,"time":48.78259649999987,"velocity":0.5905511811023622,"duration":0.13043474999999916},{"name":"D#2","midi":39,"time":48.78259649999987,"velocity":0.5905511811023622,"duration":0.13043474999999916},{"name":"F#2","midi":42,"time":48.91303124999987,"velocity":0.5905511811023622,"duration":0.13043475000000626},{"name":"D#2","midi":39,"time":48.97824862499987,"velocity":0.5905511811023622,"duration":0.06521737500000313},{"name":"F#2","midi":42,"time":49.043465999999874,"velocity":0.5905511811023622,"duration":0.13043474999999916},{"name":"D#2","midi":39,"time":49.043465999999874,"velocity":0.5905511811023622,"duration":0.13043474999999916},{"name":"D#2","midi":39,"time":49.17390074999987,"velocity":0.5905511811023622,"duration":0.13043474999999916},{"name":"F#2","midi":42,"time":49.30433549999987,"velocity":0.5905511811023622,"duration":0.13043474999999916},{"name":"D#2","midi":39,"time":49.30433549999987,"velocity":0.5905511811023622,"duration":0.13043474999999916},{"name":"F#2","midi":42,"time":49.56520499999987,"velocity":0.5905511811023622,"duration":0.13043474999999916},{"name":"D#2","midi":39,"time":49.56520499999987,"velocity":0.5905511811023622,"duration":0.13043474999999916},{"name":"F#2","midi":42,"time":49.82607449999987,"velocity":0.5905511811023622,"duration":0.13043474999999916},{"name":"D#2","midi":39,"time":49.82607449999987,"velocity":0.5905511811023622,"duration":0.13043474999999916},{"name":"F#2","midi":42,"time":49.95650924999987,"velocity":0.5905511811023622,"duration":0.13043475000000626},{"name":"D#2","midi":39,"time":50.02172662499987,"velocity":0.5905511811023622,"duration":0.06521737500000313},{"name":"F#2","midi":42,"time":50.086943999999875,"velocity":0.5905511811023622,"duration":0.13043474999999916},{"name":"D#2","midi":39,"time":50.086943999999875,"velocity":0.5905511811023622,"duration":0.13043474999999916},{"name":"D#2","midi":39,"time":50.217378749999874,"velocity":0.5905511811023622,"duration":0.13043474999999916},{"name":"F#2","midi":42,"time":50.34781349999987,"velocity":0.5905511811023622,"duration":0.13043474999999916},{"name":"D#2","midi":39,"time":50.34781349999987,"velocity":0.5905511811023622,"duration":0.13043474999999916},{"name":"F#2","midi":42,"time":50.60868299999987,"velocity":0.5905511811023622,"duration":0.13043474999999916},{"name":"D#2","midi":39,"time":50.60868299999987,"velocity":0.5905511811023622,"duration":0.13043474999999916},{"name":"F#2","midi":42,"time":50.86955249999987,"velocity":0.5905511811023622,"duration":0.13043474999999916},{"name":"D#2","midi":39,"time":50.86955249999987,"velocity":0.5905511811023622,"duration":0.13043474999999916},{"name":"F#2","midi":42,"time":50.99998724999987,"velocity":0.5905511811023622,"duration":0.13043474999999916},{"name":"D#6","midi":87,"time":52.17389999999987,"velocity":0.5905511811023622,"duration":0.13043474999999916},{"name":"G2","midi":43,"time":52.17389999999987,"velocity":0.5905511811023622,"duration":0.13043474999999916},{"name":"F2","midi":41,"time":52.17389999999987,"velocity":0.5905511811023622,"duration":0.13043474999999916},{"name":"C2","midi":36,"time":52.17389999999987,"velocity":0.5905511811023622,"duration":0.13043474999999916},{"name":"D#6","midi":87,"time":52.695638999999865,"velocity":0.5905511811023622,"duration":0.13043474999999916},{"name":"G2","midi":43,"time":52.695638999999865,"velocity":0.5905511811023622,"duration":0.13043474999999916},{"name":"F2","midi":41,"time":52.695638999999865,"velocity":0.5905511811023622,"duration":0.13043474999999916},{"name":"C2","midi":36,"time":52.695638999999865,"velocity":0.5905511811023622,"duration":0.13043474999999916},{"name":"D#6","midi":87,"time":53.08694324999986,"velocity":0.5905511811023622,"duration":0.13043474999999916},{"name":"G2","midi":43,"time":53.08694324999986,"velocity":0.5905511811023622,"duration":0.13043474999999916},{"name":"F2","midi":41,"time":53.08694324999986,"velocity":0.5905511811023622,"duration":0.13043474999999916},{"name":"C2","midi":36,"time":53.08694324999986,"velocity":0.5905511811023622,"duration":0.13043474999999916},{"name":"D#6","midi":87,"time":53.47824749999986,"velocity":0.5905511811023622,"duration":0.13043474999999916},{"name":"G2","midi":43,"time":53.47824749999986,"velocity":0.5905511811023622,"duration":0.13043474999999916},{"name":"F2","midi":41,"time":53.47824749999986,"velocity":0.5905511811023622,"duration":0.13043474999999916},{"name":"C2","midi":36,"time":53.47824749999986,"velocity":0.5905511811023622,"duration":0.13043474999999916},{"name":"D#6","midi":87,"time":53.73911699999986,"velocity":0.5905511811023622,"duration":0.13043474999999916},{"name":"G2","midi":43,"time":53.73911699999986,"velocity":0.5905511811023622,"duration":0.13043474999999916},{"name":"F2","midi":41,"time":53.73911699999986,"velocity":0.5905511811023622,"duration":0.13043474999999916},{"name":"C2","midi":36,"time":53.73911699999986,"velocity":0.5905511811023622,"duration":0.13043474999999916},{"name":"D#6","midi":87,"time":53.99998649999986,"velocity":0.5905511811023622,"duration":0.13043474999999916},{"name":"G2","midi":43,"time":53.99998649999986,"velocity":0.5905511811023622,"duration":0.13043474999999916},{"name":"F2","midi":41,"time":53.99998649999986,"velocity":0.5905511811023622,"duration":0.13043474999999916},{"name":"C2","midi":36,"time":53.99998649999986,"velocity":0.5905511811023622,"duration":0.13043474999999916},{"name":"D#6","midi":87,"time":54.260855999999855,"velocity":0.5905511811023622,"duration":0.13043474999999916},{"name":"G2","midi":43,"time":54.260855999999855,"velocity":0.5905511811023622,"duration":0.13043474999999916},{"name":"F2","midi":41,"time":54.260855999999855,"velocity":0.5905511811023622,"duration":0.13043474999999916},{"name":"C2","midi":36,"time":54.260855999999855,"velocity":0.5905511811023622,"duration":0.13043474999999916},{"name":"D#6","midi":87,"time":54.78259499999985,"velocity":0.5905511811023622,"duration":0.13043474999999916},{"name":"G2","midi":43,"time":54.78259499999985,"velocity":0.5905511811023622,"duration":0.13043474999999916},{"name":"F2","midi":41,"time":54.78259499999985,"velocity":0.5905511811023622,"duration":0.13043474999999916},{"name":"C2","midi":36,"time":54.78259499999985,"velocity":0.5905511811023622,"duration":0.13043474999999916},{"name":"D#6","midi":87,"time":55.17389924999985,"velocity":0.5905511811023622,"duration":0.13043474999999916},{"name":"G2","midi":43,"time":55.17389924999985,"velocity":0.5905511811023622,"duration":0.13043474999999916},{"name":"F2","midi":41,"time":55.17389924999985,"velocity":0.5905511811023622,"duration":0.13043474999999916},{"name":"C2","midi":36,"time":55.17389924999985,"velocity":0.5905511811023622,"duration":0.13043474999999916},{"name":"D#6","midi":87,"time":55.565203499999846,"velocity":0.5905511811023622,"duration":0.13043474999999916},{"name":"G2","midi":43,"time":55.565203499999846,"velocity":0.5905511811023622,"duration":0.13043474999999916},{"name":"F2","midi":41,"time":55.565203499999846,"velocity":0.5905511811023622,"duration":0.13043474999999916},{"name":"C2","midi":36,"time":55.565203499999846,"velocity":0.5905511811023622,"duration":0.13043474999999916},{"name":"D#6","midi":87,"time":55.826072999999845,"velocity":0.5905511811023622,"duration":0.13043474999999916},{"name":"G2","midi":43,"time":55.826072999999845,"velocity":0.5905511811023622,"duration":0.13043474999999916},{"name":"F2","midi":41,"time":55.826072999999845,"velocity":0.5905511811023622,"duration":0.13043474999999916},{"name":"C2","midi":36,"time":55.826072999999845,"velocity":0.5905511811023622,"duration":0.13043474999999916},{"name":"D#6","midi":87,"time":56.08694249999984,"velocity":0.5905511811023622,"duration":0.13043474999999916},{"name":"G2","midi":43,"time":56.08694249999984,"velocity":0.5905511811023622,"duration":0.13043474999999916},{"name":"F2","midi":41,"time":56.08694249999984,"velocity":0.5905511811023622,"duration":0.13043474999999916},{"name":"C2","midi":36,"time":56.08694249999984,"velocity":0.5905511811023622,"duration":0.13043474999999916},{"name":"D#6","midi":87,"time":56.34781199999984,"velocity":0.5905511811023622,"duration":0.13043474999999916},{"name":"G2","midi":43,"time":56.34781199999984,"velocity":0.5905511811023622,"duration":0.13043474999999916},{"name":"F2","midi":41,"time":56.34781199999984,"velocity":0.5905511811023622,"duration":0.13043474999999916},{"name":"C2","midi":36,"time":56.34781199999984,"velocity":0.5905511811023622,"duration":0.13043474999999916},{"name":"D#6","midi":87,"time":56.86955099999984,"velocity":0.5905511811023622,"duration":0.13043474999999916},{"name":"G2","midi":43,"time":56.86955099999984,"velocity":0.5905511811023622,"duration":0.13043474999999916},{"name":"F2","midi":41,"time":56.86955099999984,"velocity":0.5905511811023622,"duration":0.13043474999999916},{"name":"C2","midi":36,"time":56.86955099999984,"velocity":0.5905511811023622,"duration":0.13043474999999916},{"name":"D#6","midi":87,"time":57.260855249999835,"velocity":0.5905511811023622,"duration":0.13043474999999916},{"name":"G2","midi":43,"time":57.260855249999835,"velocity":0.5905511811023622,"duration":0.13043474999999916},{"name":"F2","midi":41,"time":57.260855249999835,"velocity":0.5905511811023622,"duration":0.13043474999999916},{"name":"C2","midi":36,"time":57.260855249999835,"velocity":0.5905511811023622,"duration":0.13043474999999916},{"name":"D#6","midi":87,"time":57.65215949999983,"velocity":0.5905511811023622,"duration":0.13043474999999916},{"name":"G2","midi":43,"time":57.65215949999983,"velocity":0.5905511811023622,"duration":0.13043474999999916},{"name":"F2","midi":41,"time":57.65215949999983,"velocity":0.5905511811023622,"duration":0.13043474999999916},{"name":"C2","midi":36,"time":57.65215949999983,"velocity":0.5905511811023622,"duration":0.13043474999999916},{"name":"D#6","midi":87,"time":57.91302899999983,"velocity":0.5905511811023622,"duration":0.13043474999999916},{"name":"G2","midi":43,"time":57.91302899999983,"velocity":0.5905511811023622,"duration":0.13043474999999916},{"name":"F2","midi":41,"time":57.91302899999983,"velocity":0.5905511811023622,"duration":0.13043474999999916},{"name":"C2","midi":36,"time":57.91302899999983,"velocity":0.5905511811023622,"duration":0.13043474999999916},{"name":"D#6","midi":87,"time":58.17389849999983,"velocity":0.5905511811023622,"duration":0.13043474999999916},{"name":"G2","midi":43,"time":58.17389849999983,"velocity":0.5905511811023622,"duration":0.13043474999999916},{"name":"F2","midi":41,"time":58.17389849999983,"velocity":0.5905511811023622,"duration":0.13043474999999916},{"name":"C2","midi":36,"time":58.17389849999983,"velocity":0.5905511811023622,"duration":0.13043474999999916},{"name":"D#6","midi":87,"time":58.43476799999983,"velocity":0.5905511811023622,"duration":0.13043474999999916},{"name":"G2","midi":43,"time":58.43476799999983,"velocity":0.5905511811023622,"duration":0.13043474999999916},{"name":"F2","midi":41,"time":58.43476799999983,"velocity":0.5905511811023622,"duration":0.13043474999999916},{"name":"C2","midi":36,"time":58.43476799999983,"velocity":0.5905511811023622,"duration":0.13043474999999916},{"name":"D#6","midi":87,"time":58.826072249999825,"velocity":0.5905511811023622,"duration":0.13043474999999916},{"name":"G2","midi":43,"time":58.826072249999825,"velocity":0.5905511811023622,"duration":0.13043474999999916},{"name":"F2","midi":41,"time":58.826072249999825,"velocity":0.5905511811023622,"duration":0.13043474999999916},{"name":"C2","midi":36,"time":58.826072249999825,"velocity":0.5905511811023622,"duration":0.13043474999999916},{"name":"D#6","midi":87,"time":59.21737649999982,"velocity":0.5905511811023622,"duration":0.13043474999999916},{"name":"G2","midi":43,"time":59.21737649999982,"velocity":0.5905511811023622,"duration":0.13043474999999916},{"name":"F2","midi":41,"time":59.21737649999982,"velocity":0.5905511811023622,"duration":0.13043474999999916},{"name":"C2","midi":36,"time":59.21737649999982,"velocity":0.5905511811023622,"duration":0.13043474999999916},{"name":"D#6","midi":87,"time":59.47824599999982,"velocity":0.5905511811023622,"duration":0.13043474999999916},{"name":"G2","midi":43,"time":59.47824599999982,"velocity":0.5905511811023622,"duration":0.13043474999999916},{"name":"F2","midi":41,"time":59.47824599999982,"velocity":0.5905511811023622,"duration":0.13043474999999916},{"name":"C2","midi":36,"time":59.47824599999982,"velocity":0.5905511811023622,"duration":0.13043474999999916},{"name":"D#6","midi":87,"time":59.86955024999982,"velocity":0.5905511811023622,"duration":0.13043474999999916},{"name":"G2","midi":43,"time":59.86955024999982,"velocity":0.5905511811023622,"duration":0.13043474999999916},{"name":"F2","midi":41,"time":59.86955024999982,"velocity":0.5905511811023622,"duration":0.13043474999999916},{"name":"C2","midi":36,"time":59.86955024999982,"velocity":0.5905511811023622,"duration":0.13043474999999916},{"name":"D#6","midi":87,"time":60.260854499999816,"velocity":0.5905511811023622,"duration":0.13043474999999916},{"name":"G2","midi":43,"time":60.260854499999816,"velocity":0.5905511811023622,"duration":0.13043474999999916},{"name":"F2","midi":41,"time":60.260854499999816,"velocity":0.5905511811023622,"duration":0.13043474999999916},{"name":"C2","midi":36,"time":60.260854499999816,"velocity":0.5905511811023622,"duration":0.13043474999999916},{"name":"D#6","midi":87,"time":60.521723999999814,"velocity":0.5905511811023622,"duration":0.13043474999999916},{"name":"G2","midi":43,"time":60.521723999999814,"velocity":0.5905511811023622,"duration":0.13043474999999916},{"name":"F2","midi":41,"time":60.521723999999814,"velocity":0.5905511811023622,"duration":0.13043474999999916},{"name":"C2","midi":36,"time":60.521723999999814,"velocity":0.5905511811023622,"duration":0.13043474999999916},{"name":"D#6","midi":87,"time":61.04346299999981,"velocity":0.5905511811023622,"duration":0.13043474999999916},{"name":"G2","midi":43,"time":61.04346299999981,"velocity":0.5905511811023622,"duration":0.13043474999999916},{"name":"F2","midi":41,"time":61.04346299999981,"velocity":0.5905511811023622,"duration":0.13043474999999916},{"name":"C2","midi":36,"time":61.04346299999981,"velocity":0.5905511811023622,"duration":0.13043474999999916},{"name":"D#6","midi":87,"time":61.43476724999981,"velocity":0.5905511811023622,"duration":0.13043474999999916},{"name":"G2","midi":43,"time":61.43476724999981,"velocity":0.5905511811023622,"duration":0.13043474999999916},{"name":"F2","midi":41,"time":61.43476724999981,"velocity":0.5905511811023622,"duration":0.13043474999999916},{"name":"C2","midi":36,"time":61.43476724999981,"velocity":0.5905511811023622,"duration":0.13043474999999916},{"name":"D#6","midi":87,"time":61.826071499999806,"velocity":0.5905511811023622,"duration":0.13043474999999916},{"name":"G2","midi":43,"time":61.826071499999806,"velocity":0.5905511811023622,"duration":0.13043474999999916},{"name":"F2","midi":41,"time":61.826071499999806,"velocity":0.5905511811023622,"duration":0.13043474999999916},{"name":"C2","midi":36,"time":61.826071499999806,"velocity":0.5905511811023622,"duration":0.13043474999999916},{"name":"D#6","midi":87,"time":62.086940999999804,"velocity":0.5905511811023622,"duration":0.13043474999999916},{"name":"G2","midi":43,"time":62.086940999999804,"velocity":0.5905511811023622,"duration":0.13043474999999916},{"name":"F2","midi":41,"time":62.086940999999804,"velocity":0.5905511811023622,"duration":0.13043474999999916},{"name":"C2","midi":36,"time":62.086940999999804,"velocity":0.5905511811023622,"duration":0.13043474999999916},{"name":"D#6","midi":87,"time":62.3478104999998,"velocity":0.5905511811023622,"duration":0.13043474999999916},{"name":"G2","midi":43,"time":62.3478104999998,"velocity":0.5905511811023622,"duration":0.13043474999999916},{"name":"F2","midi":41,"time":62.3478104999998,"velocity":0.5905511811023622,"duration":0.13043474999999916},{"name":"C2","midi":36,"time":62.3478104999998,"velocity":0.5905511811023622,"duration":0.13043474999999916},{"name":"D#6","midi":87,"time":62.6086799999998,"velocity":0.5905511811023622,"duration":0.13043474999999916},{"name":"G2","midi":43,"time":62.6086799999998,"velocity":0.5905511811023622,"duration":0.13043474999999916},{"name":"F2","midi":41,"time":62.6086799999998,"velocity":0.5905511811023622,"duration":0.13043474999999916},{"name":"C2","midi":36,"time":62.6086799999998,"velocity":0.5905511811023622,"duration":0.13043474999999916},{"name":"D#6","midi":87,"time":63.1304189999998,"velocity":0.5905511811023622,"duration":0.13043474999999916},{"name":"G2","midi":43,"time":63.1304189999998,"velocity":0.5905511811023622,"duration":0.13043474999999916},{"name":"F2","midi":41,"time":63.1304189999998,"velocity":0.5905511811023622,"duration":0.13043474999999916},{"name":"C2","midi":36,"time":63.1304189999998,"velocity":0.5905511811023622,"duration":0.13043474999999916},{"name":"D#6","midi":87,"time":63.521723249999795,"velocity":0.5905511811023622,"duration":0.13043474999999916},{"name":"G2","midi":43,"time":63.521723249999795,"velocity":0.5905511811023622,"duration":0.13043474999999916},{"name":"F2","midi":41,"time":63.521723249999795,"velocity":0.5905511811023622,"duration":0.13043474999999916},{"name":"C2","midi":36,"time":63.521723249999795,"velocity":0.5905511811023622,"duration":0.13043474999999916},{"name":"D#6","midi":87,"time":63.91302749999979,"velocity":0.5905511811023622,"duration":0.13043474999999916},{"name":"G2","midi":43,"time":63.91302749999979,"velocity":0.5905511811023622,"duration":0.13043474999999916},{"name":"F2","midi":41,"time":63.91302749999979,"velocity":0.5905511811023622,"duration":0.13043474999999916},{"name":"C2","midi":36,"time":63.91302749999979,"velocity":0.5905511811023622,"duration":0.13043474999999916},{"name":"D#6","midi":87,"time":64.1738969999998,"velocity":0.5905511811023622,"duration":0.13043475000000626},{"name":"G2","midi":43,"time":64.1738969999998,"velocity":0.5905511811023622,"duration":0.13043475000000626},{"name":"F2","midi":41,"time":64.1738969999998,"velocity":0.5905511811023622,"duration":0.13043475000000626},{"name":"C2","midi":36,"time":64.1738969999998,"velocity":0.5905511811023622,"duration":0.13043475000000626},{"name":"D#6","midi":87,"time":64.43476649999981,"velocity":0.5905511811023622,"duration":0.13043475000000626},{"name":"G2","midi":43,"time":64.43476649999981,"velocity":0.5905511811023622,"duration":0.13043475000000626},{"name":"F2","midi":41,"time":64.43476649999981,"velocity":0.5905511811023622,"duration":0.13043475000000626},{"name":"C2","midi":36,"time":64.43476649999981,"velocity":0.5905511811023622,"duration":0.13043475000000626},{"name":"D#6","midi":87,"time":64.69563599999982,"velocity":0.5905511811023622,"duration":0.13043475000000626},{"name":"G2","midi":43,"time":64.69563599999982,"velocity":0.5905511811023622,"duration":0.13043475000000626},{"name":"F2","midi":41,"time":64.69563599999982,"velocity":0.5905511811023622,"duration":0.13043475000000626},{"name":"C2","midi":36,"time":64.69563599999982,"velocity":0.5905511811023622,"duration":0.13043475000000626},{"name":"D#6","midi":87,"time":65.21737499999983,"velocity":0.5905511811023622,"duration":0.13043475000000626},{"name":"G2","midi":43,"time":65.21737499999983,"velocity":0.5905511811023622,"duration":0.13043475000000626},{"name":"F2","midi":41,"time":65.21737499999983,"velocity":0.5905511811023622,"duration":0.13043475000000626},{"name":"C2","midi":36,"time":65.21737499999983,"velocity":0.5905511811023622,"duration":0.13043475000000626},{"name":"D#6","midi":87,"time":65.60867924999984,"velocity":0.5905511811023622,"duration":0.13043475000000626},{"name":"G2","midi":43,"time":65.60867924999984,"velocity":0.5905511811023622,"duration":0.13043475000000626},{"name":"F2","midi":41,"time":65.60867924999984,"velocity":0.5905511811023622,"duration":0.13043475000000626},{"name":"C2","midi":36,"time":65.60867924999984,"velocity":0.5905511811023622,"duration":0.13043475000000626},{"name":"D#6","midi":87,"time":65.99998349999984,"velocity":0.5905511811023622,"duration":0.13043475000000626},{"name":"G2","midi":43,"time":65.99998349999984,"velocity":0.5905511811023622,"duration":0.13043475000000626},{"name":"F2","midi":41,"time":65.99998349999984,"velocity":0.5905511811023622,"duration":0.13043475000000626},{"name":"C2","midi":36,"time":65.99998349999984,"velocity":0.5905511811023622,"duration":0.13043475000000626},{"name":"D#6","midi":87,"time":66.26085299999986,"velocity":0.5905511811023622,"duration":0.13043475000000626},{"name":"G2","midi":43,"time":66.26085299999986,"velocity":0.5905511811023622,"duration":0.13043475000000626},{"name":"F2","midi":41,"time":66.26085299999986,"velocity":0.5905511811023622,"duration":0.13043475000000626},{"name":"C2","midi":36,"time":66.26085299999986,"velocity":0.5905511811023622,"duration":0.13043475000000626},{"name":"D#6","midi":87,"time":66.52172249999987,"velocity":0.5905511811023622,"duration":0.13043475000000626},{"name":"G2","midi":43,"time":66.52172249999987,"velocity":0.5905511811023622,"duration":0.13043475000000626},{"name":"F2","midi":41,"time":66.52172249999987,"velocity":0.5905511811023622,"duration":0.13043475000000626},{"name":"C2","midi":36,"time":66.52172249999987,"velocity":0.5905511811023622,"duration":0.13043475000000626},{"name":"D#6","midi":87,"time":66.78259199999988,"velocity":0.5905511811023622,"duration":0.13043475000000626},{"name":"G2","midi":43,"time":66.78259199999988,"velocity":0.5905511811023622,"duration":0.13043475000000626},{"name":"F2","midi":41,"time":66.78259199999988,"velocity":0.5905511811023622,"duration":0.13043475000000626},{"name":"C2","midi":36,"time":66.78259199999988,"velocity":0.5905511811023622,"duration":0.13043475000000626},{"name":"D#6","midi":87,"time":67.17389624999988,"velocity":0.5905511811023622,"duration":0.13043475000000626},{"name":"G2","midi":43,"time":67.17389624999988,"velocity":0.5905511811023622,"duration":0.13043475000000626},{"name":"F2","midi":41,"time":67.17389624999988,"velocity":0.5905511811023622,"duration":0.13043475000000626},{"name":"C2","midi":36,"time":67.17389624999988,"velocity":0.5905511811023622,"duration":0.13043475000000626},{"name":"D#6","midi":87,"time":67.56520049999989,"velocity":0.5905511811023622,"duration":0.13043475000000626},{"name":"G2","midi":43,"time":67.56520049999989,"velocity":0.5905511811023622,"duration":0.13043475000000626},{"name":"F2","midi":41,"time":67.56520049999989,"velocity":0.5905511811023622,"duration":0.13043475000000626},{"name":"C2","midi":36,"time":67.56520049999989,"velocity":0.5905511811023622,"duration":0.13043475000000626},{"name":"D#6","midi":87,"time":67.8260699999999,"velocity":0.5905511811023622,"duration":0.13043475000000626},{"name":"G2","midi":43,"time":67.8260699999999,"velocity":0.5905511811023622,"duration":0.13043475000000626},{"name":"F2","midi":41,"time":67.8260699999999,"velocity":0.5905511811023622,"duration":0.13043475000000626},{"name":"C2","midi":36,"time":67.8260699999999,"velocity":0.5905511811023622,"duration":0.13043475000000626},{"name":"D#6","midi":87,"time":68.2173742499999,"velocity":0.5905511811023622,"duration":0.13043475000000626},{"name":"G2","midi":43,"time":68.2173742499999,"velocity":0.5905511811023622,"duration":0.13043475000000626},{"name":"F2","midi":41,"time":68.2173742499999,"velocity":0.5905511811023622,"duration":0.13043475000000626},{"name":"C2","midi":36,"time":68.2173742499999,"velocity":0.5905511811023622,"duration":0.13043475000000626},{"name":"D#6","midi":87,"time":68.60867849999991,"velocity":0.5905511811023622,"duration":0.13043475000000626},{"name":"G2","midi":43,"time":68.60867849999991,"velocity":0.5905511811023622,"duration":0.13043475000000626},{"name":"F2","midi":41,"time":68.60867849999991,"velocity":0.5905511811023622,"duration":0.13043475000000626},{"name":"C2","midi":36,"time":68.60867849999991,"velocity":0.5905511811023622,"duration":0.13043475000000626},{"name":"G2","midi":43,"time":68.86954799999992,"velocity":0.5905511811023622,"duration":0.13043475000000626},{"name":"F2","midi":41,"time":68.86954799999992,"velocity":0.5905511811023622,"duration":0.13043475000000626},{"name":"C2","midi":36,"time":68.86954799999992,"velocity":0.5905511811023622,"duration":0.13043475000000626},{"name":"D#6","midi":87,"time":68.86954799999992,"velocity":0.5905511811023622,"duration":0.13043475000000626},{"name":"G2","midi":43,"time":69.39128699999993,"velocity":0.5905511811023622,"duration":0.13043475000000626},{"name":"F2","midi":41,"time":69.39128699999993,"velocity":0.5905511811023622,"duration":0.13043475000000626},{"name":"C2","midi":36,"time":69.39128699999993,"velocity":0.5905511811023622,"duration":0.13043475000000626},{"name":"D#6","midi":87,"time":69.39128699999993,"velocity":0.5905511811023622,"duration":0.13043475000000626},{"name":"G2","midi":43,"time":69.78259124999994,"velocity":0.5905511811023622,"duration":0.13043475000000626},{"name":"F2","midi":41,"time":69.78259124999994,"velocity":0.5905511811023622,"duration":0.13043475000000626},{"name":"C2","midi":36,"time":69.78259124999994,"velocity":0.5905511811023622,"duration":0.13043475000000626},{"name":"D#6","midi":87,"time":69.78259124999994,"velocity":0.5905511811023622,"duration":0.13043475000000626},{"name":"G2","midi":43,"time":70.17389549999994,"velocity":0.5905511811023622,"duration":0.13043475000000626},{"name":"F2","midi":41,"time":70.17389549999994,"velocity":0.5905511811023622,"duration":0.13043475000000626},{"name":"C2","midi":36,"time":70.17389549999994,"velocity":0.5905511811023622,"duration":0.13043475000000626},{"name":"D#6","midi":87,"time":70.17389549999994,"velocity":0.5905511811023622,"duration":0.13043475000000626},{"name":"G2","midi":43,"time":70.43476499999996,"velocity":0.5905511811023622,"duration":0.13043475000000626},{"name":"F2","midi":41,"time":70.43476499999996,"velocity":0.5905511811023622,"duration":0.13043475000000626},{"name":"C2","midi":36,"time":70.43476499999996,"velocity":0.5905511811023622,"duration":0.13043475000000626},{"name":"D#6","midi":87,"time":70.43476499999996,"velocity":0.5905511811023622,"duration":0.13043475000000626},{"name":"G2","midi":43,"time":70.69563449999997,"velocity":0.5905511811023622,"duration":0.13043475000000626},{"name":"F2","midi":41,"time":70.69563449999997,"velocity":0.5905511811023622,"duration":0.13043475000000626},{"name":"C2","midi":36,"time":70.69563449999997,"velocity":0.5905511811023622,"duration":0.13043475000000626},{"name":"D#6","midi":87,"time":70.69563449999997,"velocity":0.5905511811023622,"duration":0.13043475000000626},{"name":"G2","midi":43,"time":70.95650399999998,"velocity":0.5905511811023622,"duration":0.13043475000000626},{"name":"F2","midi":41,"time":70.95650399999998,"velocity":0.5905511811023622,"duration":0.13043475000000626},{"name":"C2","midi":36,"time":70.95650399999998,"velocity":0.5905511811023622,"duration":0.13043475000000626},{"name":"D#6","midi":87,"time":70.95650399999998,"velocity":0.5905511811023622,"duration":0.13043475000000626},{"name":"G2","midi":43,"time":71.47824299999999,"velocity":0.5905511811023622,"duration":0.13043475000000626},{"name":"F2","midi":41,"time":71.47824299999999,"velocity":0.5905511811023622,"duration":0.13043475000000626},{"name":"C2","midi":36,"time":71.47824299999999,"velocity":0.5905511811023622,"duration":0.13043475000000626},{"name":"D#6","midi":87,"time":71.47824299999999,"velocity":0.5905511811023622,"duration":0.13043475000000626},{"name":"G2","midi":43,"time":71.86954725,"velocity":0.5905511811023622,"duration":0.13043475000000626},{"name":"F2","midi":41,"time":71.86954725,"velocity":0.5905511811023622,"duration":0.13043475000000626},{"name":"C2","midi":36,"time":71.86954725,"velocity":0.5905511811023622,"duration":0.13043475000000626},{"name":"D#6","midi":87,"time":71.86954725,"velocity":0.5905511811023622,"duration":0.13043475000000626},{"name":"G2","midi":43,"time":72.2608515,"velocity":0.5905511811023622,"duration":0.13043475000000626},{"name":"F2","midi":41,"time":72.2608515,"velocity":0.5905511811023622,"duration":0.13043475000000626},{"name":"C2","midi":36,"time":72.2608515,"velocity":0.5905511811023622,"duration":0.13043475000000626},{"name":"D#6","midi":87,"time":72.2608515,"velocity":0.5905511811023622,"duration":0.13043475000000626},{"name":"G2","midi":43,"time":72.52172100000001,"velocity":0.5905511811023622,"duration":0.13043475000000626},{"name":"F2","midi":41,"time":72.52172100000001,"velocity":0.5905511811023622,"duration":0.13043475000000626},{"name":"C2","midi":36,"time":72.52172100000001,"velocity":0.5905511811023622,"duration":0.13043475000000626},{"name":"D#6","midi":87,"time":72.52172100000001,"velocity":0.5905511811023622,"duration":0.13043475000000626},{"name":"G2","midi":43,"time":72.78259050000003,"velocity":0.5905511811023622,"duration":0.13043475000000626},{"name":"F2","midi":41,"time":72.78259050000003,"velocity":0.5905511811023622,"duration":0.13043475000000626},{"name":"C2","midi":36,"time":72.78259050000003,"velocity":0.5905511811023622,"duration":0.13043475000000626},{"name":"D#6","midi":87,"time":72.78259050000003,"velocity":0.5905511811023622,"duration":0.13043475000000626},{"name":"G2","midi":43,"time":73.04346000000004,"velocity":0.5905511811023622,"duration":0.13043475000000626},{"name":"F2","midi":41,"time":73.04346000000004,"velocity":0.5905511811023622,"duration":0.13043475000000626},{"name":"C2","midi":36,"time":73.04346000000004,"velocity":0.5905511811023622,"duration":0.13043475000000626},{"name":"D#6","midi":87,"time":73.04346000000004,"velocity":0.5905511811023622,"duration":0.13043475000000626},{"name":"G2","midi":43,"time":73.56519900000005,"velocity":0.5905511811023622,"duration":0.13043475000000626},{"name":"F2","midi":41,"time":73.56519900000005,"velocity":0.5905511811023622,"duration":0.13043475000000626},{"name":"C2","midi":36,"time":73.56519900000005,"velocity":0.5905511811023622,"duration":0.13043475000000626},{"name":"D#6","midi":87,"time":73.56519900000005,"velocity":0.5905511811023622,"duration":0.13043475000000626},{"name":"G2","midi":43,"time":73.95650325000005,"velocity":0.5905511811023622,"duration":0.13043475000000626},{"name":"F2","midi":41,"time":73.95650325000005,"velocity":0.5905511811023622,"duration":0.13043475000000626},{"name":"C2","midi":36,"time":73.95650325000005,"velocity":0.5905511811023622,"duration":0.13043475000000626},{"name":"D#6","midi":87,"time":73.95650325000005,"velocity":0.5905511811023622,"duration":0.13043475000000626},{"name":"G2","midi":43,"time":74.34780750000006,"velocity":0.5905511811023622,"duration":0.13043475000000626},{"name":"F2","midi":41,"time":74.34780750000006,"velocity":0.5905511811023622,"duration":0.13043475000000626},{"name":"C2","midi":36,"time":74.34780750000006,"velocity":0.5905511811023622,"duration":0.13043475000000626},{"name":"D#6","midi":87,"time":74.34780750000006,"velocity":0.5905511811023622,"duration":0.13043475000000626},{"name":"G2","midi":43,"time":74.60867700000007,"velocity":0.5905511811023622,"duration":0.13043475000000626},{"name":"F2","midi":41,"time":74.60867700000007,"velocity":0.5905511811023622,"duration":0.13043475000000626},{"name":"C2","midi":36,"time":74.60867700000007,"velocity":0.5905511811023622,"duration":0.13043475000000626},{"name":"D#6","midi":87,"time":74.60867700000007,"velocity":0.5905511811023622,"duration":0.13043475000000626},{"name":"G2","midi":43,"time":74.86954650000008,"velocity":0.5905511811023622,"duration":0.13043475000000626},{"name":"F2","midi":41,"time":74.86954650000008,"velocity":0.5905511811023622,"duration":0.13043475000000626},{"name":"C2","midi":36,"time":74.86954650000008,"velocity":0.5905511811023622,"duration":0.13043475000000626},{"name":"D#6","midi":87,"time":74.86954650000008,"velocity":0.5905511811023622,"duration":0.13043475000000626},{"name":"G2","midi":43,"time":75.1304160000001,"velocity":0.5905511811023622,"duration":0.13043475000000626},{"name":"F2","midi":41,"time":75.1304160000001,"velocity":0.5905511811023622,"duration":0.13043475000000626},{"name":"C2","midi":36,"time":75.1304160000001,"velocity":0.5905511811023622,"duration":0.13043475000000626},{"name":"D#6","midi":87,"time":75.1304160000001,"velocity":0.5905511811023622,"duration":0.13043475000000626},{"name":"G2","midi":43,"time":75.5217202500001,"velocity":0.5905511811023622,"duration":0.13043475000000626},{"name":"F2","midi":41,"time":75.5217202500001,"velocity":0.5905511811023622,"duration":0.13043475000000626},{"name":"C2","midi":36,"time":75.5217202500001,"velocity":0.5905511811023622,"duration":0.13043475000000626},{"name":"D#6","midi":87,"time":75.5217202500001,"velocity":0.5905511811023622,"duration":0.13043475000000626},{"name":"G2","midi":43,"time":75.9130245000001,"velocity":0.5905511811023622,"duration":0.13043475000000626},{"name":"F2","midi":41,"time":75.9130245000001,"velocity":0.5905511811023622,"duration":0.13043475000000626},{"name":"C2","midi":36,"time":75.9130245000001,"velocity":0.5905511811023622,"duration":0.13043475000000626},{"name":"D#6","midi":87,"time":75.9130245000001,"velocity":0.5905511811023622,"duration":0.13043475000000626},{"name":"G2","midi":43,"time":76.17389400000012,"velocity":0.5905511811023622,"duration":0.13043475000000626},{"name":"F2","midi":41,"time":76.17389400000012,"velocity":0.5905511811023622,"duration":0.13043475000000626},{"name":"C2","midi":36,"time":76.17389400000012,"velocity":0.5905511811023622,"duration":0.13043475000000626},{"name":"D#6","midi":87,"time":76.17389400000012,"velocity":0.5905511811023622,"duration":0.13043475000000626},{"name":"G2","midi":43,"time":76.56519825000012,"velocity":0.5905511811023622,"duration":0.13043475000000626},{"name":"F2","midi":41,"time":76.56519825000012,"velocity":0.5905511811023622,"duration":0.13043475000000626},{"name":"C2","midi":36,"time":76.56519825000012,"velocity":0.5905511811023622,"duration":0.13043475000000626},{"name":"D#6","midi":87,"time":76.56519825000012,"velocity":0.5905511811023622,"duration":0.13043475000000626},{"name":"G2","midi":43,"time":76.95650250000013,"velocity":0.5905511811023622,"duration":0.13043475000000626},{"name":"F2","midi":41,"time":76.95650250000013,"velocity":0.5905511811023622,"duration":0.13043475000000626},{"name":"C2","midi":36,"time":76.95650250000013,"velocity":0.5905511811023622,"duration":0.13043475000000626},{"name":"D#6","midi":87,"time":76.95650250000013,"velocity":0.5905511811023622,"duration":0.13043475000000626},{"name":"G2","midi":43,"time":77.21737200000014,"velocity":0.5905511811023622,"duration":0.13043475000000626},{"name":"F2","midi":41,"time":77.21737200000014,"velocity":0.5905511811023622,"duration":0.13043475000000626},{"name":"C2","midi":36,"time":77.21737200000014,"velocity":0.5905511811023622,"duration":0.13043475000000626},{"name":"D#6","midi":87,"time":77.21737200000014,"velocity":0.5905511811023622,"duration":0.13043475000000626},{"name":"G2","midi":43,"time":77.73911100000015,"velocity":0.5905511811023622,"duration":0.13043475000000626},{"name":"F2","midi":41,"time":77.73911100000015,"velocity":0.5905511811023622,"duration":0.13043475000000626},{"name":"C2","midi":36,"time":77.73911100000015,"velocity":0.5905511811023622,"duration":0.13043475000000626},{"name":"D#6","midi":87,"time":77.73911100000015,"velocity":0.5905511811023622,"duration":0.13043475000000626},{"name":"G2","midi":43,"time":78.13041525000015,"velocity":0.5905511811023622,"duration":0.13043475000000626},{"name":"F2","midi":41,"time":78.13041525000015,"velocity":0.5905511811023622,"duration":0.13043475000000626},{"name":"C2","midi":36,"time":78.13041525000015,"velocity":0.5905511811023622,"duration":0.13043475000000626},{"name":"D#6","midi":87,"time":78.13041525000015,"velocity":0.5905511811023622,"duration":0.13043475000000626},{"name":"G2","midi":43,"time":78.52171950000016,"velocity":0.5905511811023622,"duration":0.13043475000000626},{"name":"F2","midi":41,"time":78.52171950000016,"velocity":0.5905511811023622,"duration":0.13043475000000626},{"name":"C2","midi":36,"time":78.52171950000016,"velocity":0.5905511811023622,"duration":0.13043475000000626},{"name":"D#6","midi":87,"time":78.52171950000016,"velocity":0.5905511811023622,"duration":0.13043475000000626},{"name":"G2","midi":43,"time":78.78258900000017,"velocity":0.5905511811023622,"duration":0.13043475000000626},{"name":"F2","midi":41,"time":78.78258900000017,"velocity":0.5905511811023622,"duration":0.13043475000000626},{"name":"C2","midi":36,"time":78.78258900000017,"velocity":0.5905511811023622,"duration":0.13043475000000626},{"name":"D#6","midi":87,"time":78.78258900000017,"velocity":0.5905511811023622,"duration":0.13043475000000626},{"name":"G2","midi":43,"time":79.04345850000018,"velocity":0.5905511811023622,"duration":0.13043475000000626},{"name":"F2","midi":41,"time":79.04345850000018,"velocity":0.5905511811023622,"duration":0.13043475000000626},{"name":"C2","midi":36,"time":79.04345850000018,"velocity":0.5905511811023622,"duration":0.13043475000000626},{"name":"D#6","midi":87,"time":79.04345850000018,"velocity":0.5905511811023622,"duration":0.13043475000000626},{"name":"G2","midi":43,"time":79.3043280000002,"velocity":0.5905511811023622,"duration":0.13043475000000626},{"name":"F2","midi":41,"time":79.3043280000002,"velocity":0.5905511811023622,"duration":0.13043475000000626},{"name":"C2","midi":36,"time":79.3043280000002,"velocity":0.5905511811023622,"duration":0.13043475000000626},{"name":"D#6","midi":87,"time":79.3043280000002,"velocity":0.5905511811023622,"duration":0.13043475000000626},{"name":"G2","midi":43,"time":79.82606700000021,"velocity":0.5905511811023622,"duration":0.13043475000000626},{"name":"F2","midi":41,"time":79.82606700000021,"velocity":0.5905511811023622,"duration":0.13043475000000626},{"name":"C2","midi":36,"time":79.82606700000021,"velocity":0.5905511811023622,"duration":0.13043475000000626},{"name":"D#6","midi":87,"time":79.82606700000021,"velocity":0.5905511811023622,"duration":0.13043475000000626},{"name":"G2","midi":43,"time":80.21737125000021,"velocity":0.5905511811023622,"duration":0.13043475000000626},{"name":"F2","midi":41,"time":80.21737125000021,"velocity":0.5905511811023622,"duration":0.13043475000000626},{"name":"C2","midi":36,"time":80.21737125000021,"velocity":0.5905511811023622,"duration":0.13043475000000626},{"name":"D#6","midi":87,"time":80.21737125000021,"velocity":0.5905511811023622,"duration":0.13043475000000626},{"name":"G2","midi":43,"time":80.60867550000022,"velocity":0.5905511811023622,"duration":0.13043475000000626},{"name":"F2","midi":41,"time":80.60867550000022,"velocity":0.5905511811023622,"duration":0.13043475000000626},{"name":"C2","midi":36,"time":80.60867550000022,"velocity":0.5905511811023622,"duration":0.13043475000000626},{"name":"D#6","midi":87,"time":80.60867550000022,"velocity":0.5905511811023622,"duration":0.13043475000000626},{"name":"G2","midi":43,"time":80.86954500000023,"velocity":0.5905511811023622,"duration":0.13043475000000626},{"name":"F2","midi":41,"time":80.86954500000023,"velocity":0.5905511811023622,"duration":0.13043475000000626},{"name":"C2","midi":36,"time":80.86954500000023,"velocity":0.5905511811023622,"duration":0.13043475000000626},{"name":"D#6","midi":87,"time":80.86954500000023,"velocity":0.5905511811023622,"duration":0.13043475000000626},{"name":"G2","midi":43,"time":81.13041450000024,"velocity":0.5905511811023622,"duration":0.13043475000000626},{"name":"F2","midi":41,"time":81.13041450000024,"velocity":0.5905511811023622,"duration":0.13043475000000626},{"name":"C2","midi":36,"time":81.13041450000024,"velocity":0.5905511811023622,"duration":0.13043475000000626},{"name":"D#6","midi":87,"time":81.13041450000024,"velocity":0.5905511811023622,"duration":0.13043475000000626},{"name":"G2","midi":43,"time":81.39128400000025,"velocity":0.5905511811023622,"duration":0.13043475000000626},{"name":"F2","midi":41,"time":81.39128400000025,"velocity":0.5905511811023622,"duration":0.13043475000000626},{"name":"C2","midi":36,"time":81.39128400000025,"velocity":0.5905511811023622,"duration":0.13043475000000626},{"name":"D#6","midi":87,"time":81.39128400000025,"velocity":0.5905511811023622,"duration":0.13043475000000626},{"name":"G2","midi":43,"time":81.91302300000027,"velocity":0.5905511811023622,"duration":0.13043475000000626},{"name":"F2","midi":41,"time":81.91302300000027,"velocity":0.5905511811023622,"duration":0.13043475000000626},{"name":"C2","midi":36,"time":81.91302300000027,"velocity":0.5905511811023622,"duration":0.13043475000000626},{"name":"D#6","midi":87,"time":81.91302300000027,"velocity":0.5905511811023622,"duration":0.13043475000000626},{"name":"G2","midi":43,"time":82.30432725000027,"velocity":0.5905511811023622,"duration":0.13043475000000626},{"name":"F2","midi":41,"time":82.30432725000027,"velocity":0.5905511811023622,"duration":0.13043475000000626},{"name":"C2","midi":36,"time":82.30432725000027,"velocity":0.5905511811023622,"duration":0.13043475000000626},{"name":"D#6","midi":87,"time":82.30432725000027,"velocity":0.5905511811023622,"duration":0.13043475000000626},{"name":"G2","midi":43,"time":82.69563150000027,"velocity":0.5905511811023622,"duration":0.13043475000000626},{"name":"F2","midi":41,"time":82.69563150000027,"velocity":0.5905511811023622,"duration":0.13043475000000626},{"name":"C2","midi":36,"time":82.69563150000027,"velocity":0.5905511811023622,"duration":0.13043475000000626},{"name":"D#6","midi":87,"time":82.69563150000027,"velocity":0.5905511811023622,"duration":0.13043475000000626},{"name":"G2","midi":43,"time":82.95650100000029,"velocity":0.5905511811023622,"duration":0.13043475000000626},{"name":"F2","midi":41,"time":82.95650100000029,"velocity":0.5905511811023622,"duration":0.13043475000000626},{"name":"C2","midi":36,"time":82.95650100000029,"velocity":0.5905511811023622,"duration":0.13043475000000626},{"name":"D#6","midi":87,"time":82.95650100000029,"velocity":0.5905511811023622,"duration":0.13043475000000626},{"name":"G2","midi":43,"time":83.2173705000003,"velocity":0.5905511811023622,"duration":0.13043475000000626},{"name":"F2","midi":41,"time":83.2173705000003,"velocity":0.5905511811023622,"duration":0.13043475000000626},{"name":"C2","midi":36,"time":83.2173705000003,"velocity":0.5905511811023622,"duration":0.13043475000000626},{"name":"D#6","midi":87,"time":83.2173705000003,"velocity":0.5905511811023622,"duration":0.13043475000000626},{"name":"G2","midi":43,"time":83.47824000000031,"velocity":0.5905511811023622,"duration":0.13043475000000626},{"name":"F2","midi":41,"time":83.47824000000031,"velocity":0.5905511811023622,"duration":0.13043475000000626},{"name":"C2","midi":36,"time":83.47824000000031,"velocity":0.5905511811023622,"duration":0.13043475000000626},{"name":"D#6","midi":87,"time":83.47824000000031,"velocity":0.5905511811023622,"duration":0.13043475000000626},{"name":"G2","midi":43,"time":83.86954425000032,"velocity":0.5905511811023622,"duration":0.13043475000000626},{"name":"F2","midi":41,"time":83.86954425000032,"velocity":0.5905511811023622,"duration":0.13043475000000626},{"name":"C2","midi":36,"time":83.86954425000032,"velocity":0.5905511811023622,"duration":0.13043475000000626},{"name":"D#6","midi":87,"time":83.86954425000032,"velocity":0.5905511811023622,"duration":0.13043475000000626},{"name":"G2","midi":43,"time":84.26084850000032,"velocity":0.5905511811023622,"duration":0.13043475000000626},{"name":"F2","midi":41,"time":84.26084850000032,"velocity":0.5905511811023622,"duration":0.13043475000000626},{"name":"C2","midi":36,"time":84.26084850000032,"velocity":0.5905511811023622,"duration":0.13043475000000626},{"name":"D#6","midi":87,"time":84.26084850000032,"velocity":0.5905511811023622,"duration":0.13043475000000626},{"name":"G2","midi":43,"time":84.52171800000033,"velocity":0.5905511811023622,"duration":0.13043475000000626},{"name":"F2","midi":41,"time":84.52171800000033,"velocity":0.5905511811023622,"duration":0.13043475000000626},{"name":"C2","midi":36,"time":84.52171800000033,"velocity":0.5905511811023622,"duration":0.13043475000000626},{"name":"D#6","midi":87,"time":84.52171800000033,"velocity":0.5905511811023622,"duration":0.13043475000000626},{"name":"G2","midi":43,"time":84.91302225000034,"velocity":0.5905511811023622,"duration":0.13043475000000626},{"name":"F2","midi":41,"time":84.91302225000034,"velocity":0.5905511811023622,"duration":0.13043475000000626},{"name":"C2","midi":36,"time":84.91302225000034,"velocity":0.5905511811023622,"duration":0.13043475000000626},{"name":"D#6","midi":87,"time":84.91302225000034,"velocity":0.5905511811023622,"duration":0.13043475000000626},{"name":"G2","midi":43,"time":85.30432650000034,"velocity":0.5905511811023622,"duration":0.13043475000000626},{"name":"F2","midi":41,"time":85.30432650000034,"velocity":0.5905511811023622,"duration":0.13043475000000626},{"name":"C2","midi":36,"time":85.30432650000034,"velocity":0.5905511811023622,"duration":0.13043475000000626},{"name":"D#6","midi":87,"time":85.30432650000034,"velocity":0.5905511811023622,"duration":0.13043475000000626},{"name":"D#6","midi":87,"time":85.56519600000036,"velocity":0.5905511811023622,"duration":0.13043475000000626},{"name":"G2","midi":43,"time":85.56519600000036,"velocity":0.5905511811023622,"duration":0.13043475000000626},{"name":"F2","midi":41,"time":85.56519600000036,"velocity":0.5905511811023622,"duration":0.13043475000000626},{"name":"C2","midi":36,"time":85.56519600000036,"velocity":0.5905511811023622,"duration":0.13043475000000626},{"name":"D#6","midi":87,"time":86.08693500000037,"velocity":0.5905511811023622,"duration":0.13043475000000626},{"name":"G2","midi":43,"time":86.08693500000037,"velocity":0.5905511811023622,"duration":0.13043475000000626},{"name":"F2","midi":41,"time":86.08693500000037,"velocity":0.5905511811023622,"duration":0.13043475000000626},{"name":"C2","midi":36,"time":86.08693500000037,"velocity":0.5905511811023622,"duration":0.13043475000000626},{"name":"D#6","midi":87,"time":86.47823925000037,"velocity":0.5905511811023622,"duration":0.13043475000000626},{"name":"G2","midi":43,"time":86.47823925000037,"velocity":0.5905511811023622,"duration":0.13043475000000626},{"name":"F2","midi":41,"time":86.47823925000037,"velocity":0.5905511811023622,"duration":0.13043475000000626},{"name":"C2","midi":36,"time":86.47823925000037,"velocity":0.5905511811023622,"duration":0.13043475000000626},{"name":"D#6","midi":87,"time":86.86954350000038,"velocity":0.5905511811023622,"duration":0.13043475000000626},{"name":"G2","midi":43,"time":86.86954350000038,"velocity":0.5905511811023622,"duration":0.13043475000000626},{"name":"F2","midi":41,"time":86.86954350000038,"velocity":0.5905511811023622,"duration":0.13043475000000626},{"name":"C2","midi":36,"time":86.86954350000038,"velocity":0.5905511811023622,"duration":0.13043475000000626},{"name":"D#6","midi":87,"time":87.13041300000039,"velocity":0.5905511811023622,"duration":0.13043475000000626},{"name":"G2","midi":43,"time":87.13041300000039,"velocity":0.5905511811023622,"duration":0.13043475000000626},{"name":"F2","midi":41,"time":87.13041300000039,"velocity":0.5905511811023622,"duration":0.13043475000000626},{"name":"C2","midi":36,"time":87.13041300000039,"velocity":0.5905511811023622,"duration":0.13043475000000626},{"name":"D#6","midi":87,"time":87.3912825000004,"velocity":0.5905511811023622,"duration":0.13043475000000626},{"name":"G2","midi":43,"time":87.3912825000004,"velocity":0.5905511811023622,"duration":0.13043475000000626},{"name":"F2","midi":41,"time":87.3912825000004,"velocity":0.5905511811023622,"duration":0.13043475000000626},{"name":"C2","midi":36,"time":87.3912825000004,"velocity":0.5905511811023622,"duration":0.13043475000000626},{"name":"D#6","midi":87,"time":87.65215200000041,"velocity":0.5905511811023622,"duration":0.13043475000000626},{"name":"G2","midi":43,"time":87.65215200000041,"velocity":0.5905511811023622,"duration":0.13043475000000626},{"name":"F2","midi":41,"time":87.65215200000041,"velocity":0.5905511811023622,"duration":0.13043475000000626},{"name":"C2","midi":36,"time":87.65215200000041,"velocity":0.5905511811023622,"duration":0.13043475000000626},{"name":"D#6","midi":87,"time":88.17389100000042,"velocity":0.5905511811023622,"duration":0.13043475000000626},{"name":"G2","midi":43,"time":88.17389100000042,"velocity":0.5905511811023622,"duration":0.13043475000000626},{"name":"F2","midi":41,"time":88.17389100000042,"velocity":0.5905511811023622,"duration":0.13043475000000626},{"name":"C2","midi":36,"time":88.17389100000042,"velocity":0.5905511811023622,"duration":0.13043475000000626},{"name":"D#6","midi":87,"time":88.56519525000043,"velocity":0.5905511811023622,"duration":0.13043475000000626},{"name":"G2","midi":43,"time":88.56519525000043,"velocity":0.5905511811023622,"duration":0.13043475000000626},{"name":"F2","midi":41,"time":88.56519525000043,"velocity":0.5905511811023622,"duration":0.13043475000000626},{"name":"C2","midi":36,"time":88.56519525000043,"velocity":0.5905511811023622,"duration":0.13043475000000626},{"name":"D#6","midi":87,"time":88.95649950000043,"velocity":0.5905511811023622,"duration":0.13043475000000626},{"name":"G2","midi":43,"time":88.95649950000043,"velocity":0.5905511811023622,"duration":0.13043475000000626},{"name":"F2","midi":41,"time":88.95649950000043,"velocity":0.5905511811023622,"duration":0.13043475000000626},{"name":"C2","midi":36,"time":88.95649950000043,"velocity":0.5905511811023622,"duration":0.13043475000000626},{"name":"D#6","midi":87,"time":89.21736900000045,"velocity":0.5905511811023622,"duration":0.13043475000000626},{"name":"G2","midi":43,"time":89.21736900000045,"velocity":0.5905511811023622,"duration":0.13043475000000626},{"name":"F2","midi":41,"time":89.21736900000045,"velocity":0.5905511811023622,"duration":0.13043475000000626},{"name":"C2","midi":36,"time":89.21736900000045,"velocity":0.5905511811023622,"duration":0.13043475000000626},{"name":"D#6","midi":87,"time":89.47823850000046,"velocity":0.5905511811023622,"duration":0.13043475000000626},{"name":"G2","midi":43,"time":89.47823850000046,"velocity":0.5905511811023622,"duration":0.13043475000000626},{"name":"F2","midi":41,"time":89.47823850000046,"velocity":0.5905511811023622,"duration":0.13043475000000626},{"name":"C2","midi":36,"time":89.47823850000046,"velocity":0.5905511811023622,"duration":0.13043475000000626},{"name":"D#6","midi":87,"time":89.73910800000047,"velocity":0.5905511811023622,"duration":0.13043475000000626},{"name":"G2","midi":43,"time":89.73910800000047,"velocity":0.5905511811023622,"duration":0.13043475000000626},{"name":"F2","midi":41,"time":89.73910800000047,"velocity":0.5905511811023622,"duration":0.13043475000000626},{"name":"C2","midi":36,"time":89.73910800000047,"velocity":0.5905511811023622,"duration":0.13043475000000626},{"name":"D#6","midi":87,"time":90.26084700000048,"velocity":0.5905511811023622,"duration":0.13043475000000626},{"name":"G2","midi":43,"time":90.26084700000048,"velocity":0.5905511811023622,"duration":0.13043475000000626},{"name":"F2","midi":41,"time":90.26084700000048,"velocity":0.5905511811023622,"duration":0.13043475000000626},{"name":"C2","midi":36,"time":90.26084700000048,"velocity":0.5905511811023622,"duration":0.13043475000000626},{"name":"D#6","midi":87,"time":90.65215125000049,"velocity":0.5905511811023622,"duration":0.13043475000000626},{"name":"G2","midi":43,"time":90.65215125000049,"velocity":0.5905511811023622,"duration":0.13043475000000626},{"name":"F2","midi":41,"time":90.65215125000049,"velocity":0.5905511811023622,"duration":0.13043475000000626},{"name":"C2","midi":36,"time":90.65215125000049,"velocity":0.5905511811023622,"duration":0.13043475000000626},{"name":"D#6","midi":87,"time":91.04345550000049,"velocity":0.5905511811023622,"duration":0.13043475000000626},{"name":"G2","midi":43,"time":91.04345550000049,"velocity":0.5905511811023622,"duration":0.13043475000000626},{"name":"F2","midi":41,"time":91.04345550000049,"velocity":0.5905511811023622,"duration":0.13043475000000626},{"name":"C2","midi":36,"time":91.04345550000049,"velocity":0.5905511811023622,"duration":0.13043475000000626},{"name":"D#6","midi":87,"time":91.3043250000005,"velocity":0.5905511811023622,"duration":0.13043475000000626},{"name":"G2","midi":43,"time":91.3043250000005,"velocity":0.5905511811023622,"duration":0.13043475000000626},{"name":"F2","midi":41,"time":91.3043250000005,"velocity":0.5905511811023622,"duration":0.13043475000000626},{"name":"C2","midi":36,"time":91.3043250000005,"velocity":0.5905511811023622,"duration":0.13043475000000626},{"name":"D#6","midi":87,"time":91.56519450000052,"velocity":0.5905511811023622,"duration":0.13043475000000626},{"name":"G2","midi":43,"time":91.56519450000052,"velocity":0.5905511811023622,"duration":0.13043475000000626},{"name":"F2","midi":41,"time":91.56519450000052,"velocity":0.5905511811023622,"duration":0.13043475000000626},{"name":"C2","midi":36,"time":91.56519450000052,"velocity":0.5905511811023622,"duration":0.13043475000000626},{"name":"D#6","midi":87,"time":91.82606400000053,"velocity":0.5905511811023622,"duration":0.13043475000000626},{"name":"G2","midi":43,"time":91.82606400000053,"velocity":0.5905511811023622,"duration":0.13043475000000626},{"name":"F2","midi":41,"time":91.82606400000053,"velocity":0.5905511811023622,"duration":0.13043475000000626},{"name":"C2","midi":36,"time":91.82606400000053,"velocity":0.5905511811023622,"duration":0.13043475000000626},{"name":"D#6","midi":87,"time":92.21736825000053,"velocity":0.5905511811023622,"duration":0.13043475000000626},{"name":"G2","midi":43,"time":92.21736825000053,"velocity":0.5905511811023622,"duration":0.13043475000000626},{"name":"F2","midi":41,"time":92.21736825000053,"velocity":0.5905511811023622,"duration":0.13043475000000626},{"name":"C2","midi":36,"time":92.21736825000053,"velocity":0.5905511811023622,"duration":0.13043475000000626},{"name":"D#6","midi":87,"time":92.60867250000054,"velocity":0.5905511811023622,"duration":0.13043475000000626},{"name":"G2","midi":43,"time":92.60867250000054,"velocity":0.5905511811023622,"duration":0.13043475000000626},{"name":"F2","midi":41,"time":92.60867250000054,"velocity":0.5905511811023622,"duration":0.13043475000000626},{"name":"C2","midi":36,"time":92.60867250000054,"velocity":0.5905511811023622,"duration":0.13043475000000626},{"name":"D#6","midi":87,"time":92.86954200000055,"velocity":0.5905511811023622,"duration":0.13043475000000626},{"name":"G2","midi":43,"time":92.86954200000055,"velocity":0.5905511811023622,"duration":0.13043475000000626},{"name":"F2","midi":41,"time":92.86954200000055,"velocity":0.5905511811023622,"duration":0.13043475000000626},{"name":"C2","midi":36,"time":92.86954200000055,"velocity":0.5905511811023622,"duration":0.13043475000000626},{"name":"D#6","midi":87,"time":93.26084625000055,"velocity":0.5905511811023622,"duration":0.13043475000000626},{"name":"G2","midi":43,"time":93.26084625000055,"velocity":0.5905511811023622,"duration":0.13043475000000626},{"name":"F2","midi":41,"time":93.26084625000055,"velocity":0.5905511811023622,"duration":0.13043475000000626},{"name":"C2","midi":36,"time":93.26084625000055,"velocity":0.5905511811023622,"duration":0.13043475000000626},{"name":"D#6","midi":87,"time":93.65215050000056,"velocity":0.5905511811023622,"duration":0.13043475000000626},{"name":"G2","midi":43,"time":93.65215050000056,"velocity":0.5905511811023622,"duration":0.13043475000000626},{"name":"F2","midi":41,"time":93.65215050000056,"velocity":0.5905511811023622,"duration":0.13043475000000626},{"name":"C2","midi":36,"time":93.65215050000056,"velocity":0.5905511811023622,"duration":0.13043475000000626},{"name":"D#6","midi":87,"time":93.91302000000057,"velocity":0.5905511811023622,"duration":0.13043475000000626},{"name":"G2","midi":43,"time":93.91302000000057,"velocity":0.5905511811023622,"duration":0.13043475000000626},{"name":"F2","midi":41,"time":93.91302000000057,"velocity":0.5905511811023622,"duration":0.13043475000000626},{"name":"C2","midi":36,"time":93.91302000000057,"velocity":0.5905511811023622,"duration":0.13043475000000626},{"name":"D#6","midi":87,"time":94.43475900000058,"velocity":0.5905511811023622,"duration":0.13043475000000626},{"name":"G2","midi":43,"time":94.43475900000058,"velocity":0.5905511811023622,"duration":0.13043475000000626},{"name":"F2","midi":41,"time":94.43475900000058,"velocity":0.5905511811023622,"duration":0.13043475000000626},{"name":"C2","midi":36,"time":94.43475900000058,"velocity":0.5905511811023622,"duration":0.13043475000000626},{"name":"D#6","midi":87,"time":94.82606325000059,"velocity":0.5905511811023622,"duration":0.13043475000000626},{"name":"G2","midi":43,"time":94.82606325000059,"velocity":0.5905511811023622,"duration":0.13043475000000626},{"name":"F2","midi":41,"time":94.82606325000059,"velocity":0.5905511811023622,"duration":0.13043475000000626},{"name":"C2","midi":36,"time":94.82606325000059,"velocity":0.5905511811023622,"duration":0.13043475000000626},{"name":"D#6","midi":87,"time":95.21736750000059,"velocity":0.5905511811023622,"duration":0.13043475000000626},{"name":"G2","midi":43,"time":95.21736750000059,"velocity":0.5905511811023622,"duration":0.13043475000000626},{"name":"F2","midi":41,"time":95.21736750000059,"velocity":0.5905511811023622,"duration":0.13043475000000626},{"name":"C2","midi":36,"time":95.21736750000059,"velocity":0.5905511811023622,"duration":0.13043475000000626},{"name":"D#6","midi":87,"time":95.4782370000006,"velocity":0.5905511811023622,"duration":0.13043475000000626},{"name":"G2","midi":43,"time":95.4782370000006,"velocity":0.5905511811023622,"duration":0.13043475000000626},{"name":"F2","midi":41,"time":95.4782370000006,"velocity":0.5905511811023622,"duration":0.13043475000000626},{"name":"C2","midi":36,"time":95.4782370000006,"velocity":0.5905511811023622,"duration":0.13043475000000626},{"name":"D#6","midi":87,"time":95.73910650000062,"velocity":0.5905511811023622,"duration":0.13043475000000626},{"name":"G2","midi":43,"time":95.73910650000062,"velocity":0.5905511811023622,"duration":0.13043475000000626},{"name":"F2","midi":41,"time":95.73910650000062,"velocity":0.5905511811023622,"duration":0.13043475000000626},{"name":"C2","midi":36,"time":95.73910650000062,"velocity":0.5905511811023622,"duration":0.13043475000000626},{"name":"D#6","midi":87,"time":95.99997600000063,"velocity":0.5905511811023622,"duration":0.13043475000000626},{"name":"G2","midi":43,"time":95.99997600000063,"velocity":0.5905511811023622,"duration":0.13043475000000626},{"name":"F2","midi":41,"time":95.99997600000063,"velocity":0.5905511811023622,"duration":0.13043475000000626},{"name":"C2","midi":36,"time":95.99997600000063,"velocity":0.5905511811023622,"duration":0.13043475000000626},{"name":"D#6","midi":87,"time":96.52171500000064,"velocity":0.5905511811023622,"duration":0.13043475000000626},{"name":"G2","midi":43,"time":96.52171500000064,"velocity":0.5905511811023622,"duration":0.13043475000000626},{"name":"F2","midi":41,"time":96.52171500000064,"velocity":0.5905511811023622,"duration":0.13043475000000626},{"name":"C2","midi":36,"time":96.52171500000064,"velocity":0.5905511811023622,"duration":0.13043475000000626},{"name":"D#6","midi":87,"time":96.91301925000064,"velocity":0.5905511811023622,"duration":0.13043475000000626},{"name":"G2","midi":43,"time":96.91301925000064,"velocity":0.5905511811023622,"duration":0.13043475000000626},{"name":"F2","midi":41,"time":96.91301925000064,"velocity":0.5905511811023622,"duration":0.13043475000000626},{"name":"C2","midi":36,"time":96.91301925000064,"velocity":0.5905511811023622,"duration":0.13043475000000626},{"name":"D#6","midi":87,"time":97.30432350000065,"velocity":0.5905511811023622,"duration":0.13043475000000626},{"name":"G2","midi":43,"time":97.30432350000065,"velocity":0.5905511811023622,"duration":0.13043475000000626},{"name":"F2","midi":41,"time":97.30432350000065,"velocity":0.5905511811023622,"duration":0.13043475000000626},{"name":"C2","midi":36,"time":97.30432350000065,"velocity":0.5905511811023622,"duration":0.13043475000000626},{"name":"D#6","midi":87,"time":97.56519300000066,"velocity":0.5905511811023622,"duration":0.13043475000000626},{"name":"G2","midi":43,"time":97.56519300000066,"velocity":0.5905511811023622,"duration":0.13043475000000626},{"name":"F2","midi":41,"time":97.56519300000066,"velocity":0.5905511811023622,"duration":0.13043475000000626},{"name":"C2","midi":36,"time":97.56519300000066,"velocity":0.5905511811023622,"duration":0.13043475000000626},{"name":"D#6","midi":87,"time":97.82606250000067,"velocity":0.5905511811023622,"duration":0.13043475000000626},{"name":"G2","midi":43,"time":97.82606250000067,"velocity":0.5905511811023622,"duration":0.13043475000000626},{"name":"F2","midi":41,"time":97.82606250000067,"velocity":0.5905511811023622,"duration":0.13043475000000626},{"name":"C2","midi":36,"time":97.82606250000067,"velocity":0.5905511811023622,"duration":0.13043475000000626},{"name":"D#6","midi":87,"time":98.08693200000069,"velocity":0.5905511811023622,"duration":0.13043475000000626},{"name":"G2","midi":43,"time":98.08693200000069,"velocity":0.5905511811023622,"duration":0.13043475000000626},{"name":"F2","midi":41,"time":98.08693200000069,"velocity":0.5905511811023622,"duration":0.13043475000000626},{"name":"C2","midi":36,"time":98.08693200000069,"velocity":0.5905511811023622,"duration":0.13043475000000626},{"name":"D#6","midi":87,"time":98.6086710000007,"velocity":0.5905511811023622,"duration":0.13043475000000626},{"name":"G2","midi":43,"time":98.6086710000007,"velocity":0.5905511811023622,"duration":0.13043475000000626},{"name":"F2","midi":41,"time":98.6086710000007,"velocity":0.5905511811023622,"duration":0.13043475000000626},{"name":"C2","midi":36,"time":98.6086710000007,"velocity":0.5905511811023622,"duration":0.13043475000000626},{"name":"D#6","midi":87,"time":98.9999752500007,"velocity":0.5905511811023622,"duration":0.13043475000000626},{"name":"G2","midi":43,"time":98.9999752500007,"velocity":0.5905511811023622,"duration":0.13043475000000626},{"name":"F2","midi":41,"time":98.9999752500007,"velocity":0.5905511811023622,"duration":0.13043475000000626},{"name":"C2","midi":36,"time":98.9999752500007,"velocity":0.5905511811023622,"duration":0.13043475000000626},{"name":"D#6","midi":87,"time":99.3912795000007,"velocity":0.5905511811023622,"duration":0.13043475000000626},{"name":"G2","midi":43,"time":99.3912795000007,"velocity":0.5905511811023622,"duration":0.13043475000000626},{"name":"F2","midi":41,"time":99.3912795000007,"velocity":0.5905511811023622,"duration":0.13043475000000626},{"name":"C2","midi":36,"time":99.3912795000007,"velocity":0.5905511811023622,"duration":0.13043475000000626},{"name":"D#6","midi":87,"time":99.65214900000072,"velocity":0.5905511811023622,"duration":0.13043475000000626},{"name":"G2","midi":43,"time":99.65214900000072,"velocity":0.5905511811023622,"duration":0.13043475000000626},{"name":"F2","midi":41,"time":99.65214900000072,"velocity":0.5905511811023622,"duration":0.13043475000000626},{"name":"C2","midi":36,"time":99.65214900000072,"velocity":0.5905511811023622,"duration":0.13043475000000626},{"name":"D#6","midi":87,"time":99.91301850000073,"velocity":0.5905511811023622,"duration":0.13043475000000626},{"name":"G2","midi":43,"time":99.91301850000073,"velocity":0.5905511811023622,"duration":0.13043475000000626},{"name":"F2","midi":41,"time":99.91301850000073,"velocity":0.5905511811023622,"duration":0.13043475000000626},{"name":"C2","midi":36,"time":99.91301850000073,"velocity":0.5905511811023622,"duration":0.13043475000000626},{"name":"D#6","midi":87,"time":100.17388800000074,"velocity":0.5905511811023622,"duration":0.13043475000000626},{"name":"G2","midi":43,"time":100.17388800000074,"velocity":0.5905511811023622,"duration":0.13043475000000626},{"name":"F2","midi":41,"time":100.17388800000074,"velocity":0.5905511811023622,"duration":0.13043475000000626},{"name":"C2","midi":36,"time":100.17388800000074,"velocity":0.5905511811023622,"duration":0.13043475000000626},{"name":"D#6","midi":87,"time":100.56519225000075,"velocity":0.5905511811023622,"duration":0.13043475000000626},{"name":"G2","midi":43,"time":100.56519225000075,"velocity":0.5905511811023622,"duration":0.13043475000000626},{"name":"F2","midi":41,"time":100.56519225000075,"velocity":0.5905511811023622,"duration":0.13043475000000626},{"name":"C2","midi":36,"time":100.56519225000075,"velocity":0.5905511811023622,"duration":0.13043475000000626},{"name":"D#6","midi":87,"time":100.95649650000075,"velocity":0.5905511811023622,"duration":0.13043475000000626},{"name":"G2","midi":43,"time":100.95649650000075,"velocity":0.5905511811023622,"duration":0.13043475000000626},{"name":"F2","midi":41,"time":100.95649650000075,"velocity":0.5905511811023622,"duration":0.13043475000000626},{"name":"C2","midi":36,"time":100.95649650000075,"velocity":0.5905511811023622,"duration":0.13043475000000626},{"name":"D#6","midi":87,"time":101.21736600000077,"velocity":0.5905511811023622,"duration":0.13043475000000626},{"name":"G2","midi":43,"time":101.21736600000077,"velocity":0.5905511811023622,"duration":0.13043475000000626},{"name":"F2","midi":41,"time":101.21736600000077,"velocity":0.5905511811023622,"duration":0.13043475000000626},{"name":"C2","midi":36,"time":101.21736600000077,"velocity":0.5905511811023622,"duration":0.13043475000000626},{"name":"D#6","midi":87,"time":101.60867025000077,"velocity":0.5905511811023622,"duration":0.13043475000000626},{"name":"G2","midi":43,"time":101.60867025000077,"velocity":0.5905511811023622,"duration":0.13043475000000626},{"name":"F2","midi":41,"time":101.60867025000077,"velocity":0.5905511811023622,"duration":0.13043475000000626},{"name":"C2","midi":36,"time":101.60867025000077,"velocity":0.5905511811023622,"duration":0.13043475000000626},{"name":"D#6","midi":87,"time":101.99997450000077,"velocity":0.5905511811023622,"duration":0.13043475000000626},{"name":"G2","midi":43,"time":101.99997450000077,"velocity":0.5905511811023622,"duration":0.13043475000000626},{"name":"F2","midi":41,"time":101.99997450000077,"velocity":0.5905511811023622,"duration":0.13043475000000626},{"name":"C2","midi":36,"time":101.99997450000077,"velocity":0.5905511811023622,"duration":0.13043475000000626},{"name":"G2","midi":43,"time":102.26084400000079,"velocity":0.5905511811023622,"duration":0.06521737500000313},{"name":"F2","midi":41,"time":102.26084400000079,"velocity":0.5905511811023622,"duration":0.06521737500000313},{"name":"C2","midi":36,"time":102.26084400000079,"velocity":0.5905511811023622,"duration":0.06521737500000313},{"name":"G2","midi":43,"time":102.32606137500079,"velocity":0.5905511811023622,"duration":0.06521737500000313},{"name":"F2","midi":41,"time":102.32606137500079,"velocity":0.5905511811023622,"duration":0.06521737500000313},{"name":"C2","midi":36,"time":102.32606137500079,"velocity":0.5905511811023622,"duration":0.06521737500000313},{"name":"G2","midi":43,"time":102.3912787500008,"velocity":0.5905511811023622,"duration":0.06521737500000313},{"name":"F2","midi":41,"time":102.3912787500008,"velocity":0.5905511811023622,"duration":0.06521737500000313},{"name":"C2","midi":36,"time":102.3912787500008,"velocity":0.5905511811023622,"duration":0.06521737500000313},{"name":"G2","midi":43,"time":103.82606100000079,"velocity":0.5905511811023622,"duration":0.13043475000000626},{"name":"F2","midi":41,"time":103.82606100000079,"velocity":0.5905511811023622,"duration":0.13043475000000626},{"name":"C2","midi":36,"time":103.82606100000079,"velocity":0.5905511811023622,"duration":0.13043475000000626},{"name":"G2","midi":43,"time":104.0869305000008,"velocity":0.5905511811023622,"duration":0.13043475000000626},{"name":"F2","midi":41,"time":104.0869305000008,"velocity":0.5905511811023622,"duration":0.13043475000000626},{"name":"C2","midi":36,"time":104.0869305000008,"velocity":0.5905511811023622,"duration":0.13043475000000626},{"name":"G2","midi":43,"time":104.34780000000082,"velocity":0.5905511811023622,"duration":0.06521737500000313},{"name":"F2","midi":41,"time":104.34780000000082,"velocity":0.5905511811023622,"duration":0.06521737500000313},{"name":"C2","midi":36,"time":104.34780000000082,"velocity":0.5905511811023622,"duration":0.06521737500000313},{"name":"G2","midi":43,"time":104.41301737500082,"velocity":0.5905511811023622,"duration":0.06521737500000313},{"name":"F2","midi":41,"time":104.41301737500082,"velocity":0.5905511811023622,"duration":0.06521737500000313},{"name":"C2","midi":36,"time":104.41301737500082,"velocity":0.5905511811023622,"duration":0.06521737500000313},{"name":"G2","midi":43,"time":104.47823475000082,"velocity":0.5905511811023622,"duration":0.06521737500000313},{"name":"F2","midi":41,"time":104.47823475000082,"velocity":0.5905511811023622,"duration":0.06521737500000313},{"name":"C2","midi":36,"time":104.47823475000082,"velocity":0.5905511811023622,"duration":0.06521737500000313},{"name":"G2","midi":43,"time":105.13040850000083,"velocity":0.5905511811023622,"duration":0.13043475000000626},{"name":"F2","midi":41,"time":105.13040850000083,"velocity":0.5905511811023622,"duration":0.13043475000000626},{"name":"C2","midi":36,"time":105.13040850000083,"velocity":0.5905511811023622,"duration":0.13043475000000626},{"name":"F2","midi":41,"time":105.78258225000083,"velocity":0.5905511811023622,"duration":0.13043475000000626},{"name":"G2","midi":43,"time":105.78258225000083,"velocity":0.5905511811023622,"duration":0.13043475000000626},{"name":"C2","midi":36,"time":105.78258225000083,"velocity":0.5905511811023622,"duration":0.13043475000000626},{"name":"G2","midi":43,"time":106.17388650000083,"velocity":0.5905511811023622,"duration":0.13043475000000626},{"name":"F2","midi":41,"time":106.17388650000083,"velocity":0.5905511811023622,"duration":0.13043475000000626},{"name":"C2","midi":36,"time":106.17388650000083,"velocity":0.5905511811023622,"duration":0.13043475000000626},{"name":"G2","midi":43,"time":106.43475600000085,"velocity":0.5905511811023622,"duration":0.06521737500000313},{"name":"F2","midi":41,"time":106.43475600000085,"velocity":0.5905511811023622,"duration":0.06521737500000313},{"name":"C2","midi":36,"time":106.43475600000085,"velocity":0.5905511811023622,"duration":0.06521737500000313},{"name":"G2","midi":43,"time":106.49997337500085,"velocity":0.5905511811023622,"duration":0.06521737500000313},{"name":"F2","midi":41,"time":106.49997337500085,"velocity":0.5905511811023622,"duration":0.06521737500000313},{"name":"C2","midi":36,"time":106.49997337500085,"velocity":0.5905511811023622,"duration":0.06521737500000313},{"name":"G2","midi":43,"time":106.56519075000085,"velocity":0.5905511811023622,"duration":0.06521737500000313},{"name":"F2","midi":41,"time":106.56519075000085,"velocity":0.5905511811023622,"duration":0.06521737500000313},{"name":"C2","midi":36,"time":106.56519075000085,"velocity":0.5905511811023622,"duration":0.06521737500000313},{"name":"C2","midi":36,"time":107.47823400000085,"velocity":0.5905511811023622,"duration":0.13043475000000626},{"name":"G2","midi":43,"time":107.47823400000085,"velocity":0.5905511811023622,"duration":0.13043475000000626},{"name":"F2","midi":41,"time":107.47823400000085,"velocity":0.5905511811023622,"duration":0.13043475000000626},{"name":"G2","midi":43,"time":107.86953825000086,"velocity":0.5905511811023622,"duration":0.13043475000000626},{"name":"F2","midi":41,"time":107.86953825000086,"velocity":0.5905511811023622,"duration":0.13043475000000626},{"name":"C2","midi":36,"time":107.86953825000086,"velocity":0.5905511811023622,"duration":0.13043475000000626},{"name":"G2","midi":43,"time":108.26084250000086,"velocity":0.5905511811023622,"duration":0.13043475000000626},{"name":"F2","midi":41,"time":108.26084250000086,"velocity":0.5905511811023622,"duration":0.13043475000000626},{"name":"C2","midi":36,"time":108.26084250000086,"velocity":0.5905511811023622,"duration":0.13043475000000626},{"name":"G2","midi":43,"time":108.52171200000087,"velocity":0.5905511811023622,"duration":0.06521737500000313},{"name":"F2","midi":41,"time":108.52171200000087,"velocity":0.5905511811023622,"duration":0.06521737500000313},{"name":"C2","midi":36,"time":108.52171200000087,"velocity":0.5905511811023622,"duration":0.06521737500000313},{"name":"G2","midi":43,"time":108.58692937500088,"velocity":0.5905511811023622,"duration":0.06521737500000313},{"name":"F2","midi":41,"time":108.58692937500088,"velocity":0.5905511811023622,"duration":0.06521737500000313},{"name":"C2","midi":36,"time":108.58692937500088,"velocity":0.5905511811023622,"duration":0.06521737500000313},{"name":"G2","midi":43,"time":108.65214675000088,"velocity":0.5905511811023622,"duration":0.06521737500000313},{"name":"F2","midi":41,"time":108.65214675000088,"velocity":0.5905511811023622,"duration":0.06521737500000313},{"name":"C2","midi":36,"time":108.65214675000088,"velocity":0.5905511811023622,"duration":0.06521737500000313},{"name":"C2","midi":36,"time":109.56519000000088,"velocity":0.5905511811023622,"duration":0.13043475000000626},{"name":"F2","midi":41,"time":109.56519000000088,"velocity":0.5905511811023622,"duration":0.13043475000000626},{"name":"G2","midi":43,"time":109.56519000000088,"velocity":0.5905511811023622,"duration":0.13043475000000626},{"name":"G2","midi":43,"time":109.95649425000089,"velocity":0.5905511811023622,"duration":0.13043475000000626},{"name":"F2","midi":41,"time":109.95649425000089,"velocity":0.5905511811023622,"duration":0.13043475000000626},{"name":"C2","midi":36,"time":109.95649425000089,"velocity":0.5905511811023622,"duration":0.13043475000000626},{"name":"G2","midi":43,"time":110.34779850000089,"velocity":0.5905511811023622,"duration":0.13043475000000626},{"name":"F2","midi":41,"time":110.34779850000089,"velocity":0.5905511811023622,"duration":0.13043475000000626},{"name":"C2","midi":36,"time":110.34779850000089,"velocity":0.5905511811023622,"duration":0.13043475000000626},{"name":"G2","midi":43,"time":110.6086680000009,"velocity":0.5905511811023622,"duration":0.06521737500000313},{"name":"F2","midi":41,"time":110.6086680000009,"velocity":0.5905511811023622,"duration":0.06521737500000313},{"name":"C2","midi":36,"time":110.6086680000009,"velocity":0.5905511811023622,"duration":0.06521737500000313},{"name":"G2","midi":43,"time":110.6738853750009,"velocity":0.5905511811023622,"duration":0.06521737500000313},{"name":"F2","midi":41,"time":110.6738853750009,"velocity":0.5905511811023622,"duration":0.06521737500000313},{"name":"C2","midi":36,"time":110.6738853750009,"velocity":0.5905511811023622,"duration":0.06521737500000313},{"name":"G2","midi":43,"time":110.73910275000091,"velocity":0.5905511811023622,"duration":0.06521737500000313},{"name":"F2","midi":41,"time":110.73910275000091,"velocity":0.5905511811023622,"duration":0.06521737500000313},{"name":"C2","midi":36,"time":110.73910275000091,"velocity":0.5905511811023622,"duration":0.06521737500000313},{"name":"G2","midi":43,"time":112.17388500000091,"velocity":0.5905511811023622,"duration":0.13043475000000626},{"name":"F2","midi":41,"time":112.17388500000091,"velocity":0.5905511811023622,"duration":0.13043475000000626},{"name":"C2","midi":36,"time":112.17388500000091,"velocity":0.5905511811023622,"duration":0.13043475000000626},{"name":"G2","midi":43,"time":112.43475450000092,"velocity":0.5905511811023622,"duration":0.13043475000000626},{"name":"F2","midi":41,"time":112.43475450000092,"velocity":0.5905511811023622,"duration":0.13043475000000626},{"name":"C2","midi":36,"time":112.43475450000092,"velocity":0.5905511811023622,"duration":0.13043475000000626},{"name":"G2","midi":43,"time":112.69562400000093,"velocity":0.5905511811023622,"duration":0.06521737500000313},{"name":"F2","midi":41,"time":112.69562400000093,"velocity":0.5905511811023622,"duration":0.06521737500000313},{"name":"C2","midi":36,"time":112.69562400000093,"velocity":0.5905511811023622,"duration":0.06521737500000313},{"name":"G2","midi":43,"time":112.76084137500094,"velocity":0.5905511811023622,"duration":0.06521737500000313},{"name":"F2","midi":41,"time":112.76084137500094,"velocity":0.5905511811023622,"duration":0.06521737500000313},{"name":"C2","midi":36,"time":112.76084137500094,"velocity":0.5905511811023622,"duration":0.06521737500000313},{"name":"G2","midi":43,"time":112.82605875000094,"velocity":0.5905511811023622,"duration":0.06521737500000313},{"name":"F2","midi":41,"time":112.82605875000094,"velocity":0.5905511811023622,"duration":0.06521737500000313},{"name":"C2","midi":36,"time":112.82605875000094,"velocity":0.5905511811023622,"duration":0.06521737500000313},{"name":"G2","midi":43,"time":113.47823250000094,"velocity":0.5905511811023622,"duration":0.13043475000000626},{"name":"F2","midi":41,"time":113.47823250000094,"velocity":0.5905511811023622,"duration":0.13043475000000626},{"name":"C2","midi":36,"time":113.47823250000094,"velocity":0.5905511811023622,"duration":0.13043475000000626},{"name":"F2","midi":41,"time":114.13040625000095,"velocity":0.5905511811023622,"duration":0.13043475000000626},{"name":"G2","midi":43,"time":114.13040625000095,"velocity":0.5905511811023622,"duration":0.13043475000000626},{"name":"C2","midi":36,"time":114.13040625000095,"velocity":0.5905511811023622,"duration":0.13043475000000626},{"name":"G2","midi":43,"time":114.52171050000095,"velocity":0.5905511811023622,"duration":0.13043475000000626},{"name":"F2","midi":41,"time":114.52171050000095,"velocity":0.5905511811023622,"duration":0.13043475000000626},{"name":"C2","midi":36,"time":114.52171050000095,"velocity":0.5905511811023622,"duration":0.13043475000000626},{"name":"G2","midi":43,"time":114.78258000000096,"velocity":0.5905511811023622,"duration":0.06521737500000313},{"name":"F2","midi":41,"time":114.78258000000096,"velocity":0.5905511811023622,"duration":0.06521737500000313},{"name":"C2","midi":36,"time":114.78258000000096,"velocity":0.5905511811023622,"duration":0.06521737500000313},{"name":"G2","midi":43,"time":114.84779737500097,"velocity":0.5905511811023622,"duration":0.06521737500000313},{"name":"F2","midi":41,"time":114.84779737500097,"velocity":0.5905511811023622,"duration":0.06521737500000313},{"name":"C2","midi":36,"time":114.84779737500097,"velocity":0.5905511811023622,"duration":0.06521737500000313},{"name":"G2","midi":43,"time":114.91301475000097,"velocity":0.5905511811023622,"duration":0.06521737500000313},{"name":"F2","midi":41,"time":114.91301475000097,"velocity":0.5905511811023622,"duration":0.06521737500000313},{"name":"C2","midi":36,"time":114.91301475000097,"velocity":0.5905511811023622,"duration":0.06521737500000313},{"name":"C2","midi":36,"time":116.34779700000097,"velocity":0.5905511811023622,"duration":0.13043475000000626},{"name":"F2","midi":41,"time":116.34779700000097,"velocity":0.5905511811023622,"duration":0.13043475000000626},{"name":"G2","midi":43,"time":116.34779700000097,"velocity":0.5905511811023622,"duration":0.13043475000000626},{"name":"G2","midi":43,"time":116.60866650000098,"velocity":0.5905511811023622,"duration":0.13043475000000626},{"name":"F2","midi":41,"time":116.60866650000098,"velocity":0.5905511811023622,"duration":0.13043475000000626},{"name":"C2","midi":36,"time":116.60866650000098,"velocity":0.5905511811023622,"duration":0.13043475000000626},{"name":"G2","midi":43,"time":116.86953600000099,"velocity":0.5905511811023622,"duration":0.06521737500000313},{"name":"F2","midi":41,"time":116.86953600000099,"velocity":0.5905511811023622,"duration":0.06521737500000313},{"name":"C2","midi":36,"time":116.86953600000099,"velocity":0.5905511811023622,"duration":0.06521737500000313},{"name":"G2","midi":43,"time":116.934753375001,"velocity":0.5905511811023622,"duration":0.06521737500000313},{"name":"F2","midi":41,"time":116.934753375001,"velocity":0.5905511811023622,"duration":0.06521737500000313},{"name":"C2","midi":36,"time":116.934753375001,"velocity":0.5905511811023622,"duration":0.06521737500000313},{"name":"G2","midi":43,"time":116.999970750001,"velocity":0.5905511811023622,"duration":0.06521737500000313},{"name":"F2","midi":41,"time":116.999970750001,"velocity":0.5905511811023622,"duration":0.06521737500000313},{"name":"C2","midi":36,"time":116.999970750001,"velocity":0.5905511811023622,"duration":0.06521737500000313},{"name":"G2","midi":43,"time":117.652144500001,"velocity":0.5905511811023622,"duration":0.13043475000000626},{"name":"F2","midi":41,"time":117.652144500001,"velocity":0.5905511811023622,"duration":0.13043475000000626},{"name":"C2","midi":36,"time":117.652144500001,"velocity":0.5905511811023622,"duration":0.13043475000000626},{"name":"C2","midi":36,"time":118.304318250001,"velocity":0.5905511811023622,"duration":0.13043475000000626},{"name":"F2","midi":41,"time":118.304318250001,"velocity":0.5905511811023622,"duration":0.13043475000000626},{"name":"G2","midi":43,"time":118.304318250001,"velocity":0.5905511811023622,"duration":0.13043475000000626},{"name":"G2","midi":43,"time":118.69562250000101,"velocity":0.5905511811023622,"duration":0.13043475000000626},{"name":"F2","midi":41,"time":118.69562250000101,"velocity":0.5905511811023622,"duration":0.13043475000000626},{"name":"C2","midi":36,"time":118.69562250000101,"velocity":0.5905511811023622,"duration":0.13043475000000626},{"name":"G2","midi":43,"time":118.95649200000102,"velocity":0.5905511811023622,"duration":0.06521737500000313},{"name":"F2","midi":41,"time":118.95649200000102,"velocity":0.5905511811023622,"duration":0.06521737500000313},{"name":"C2","midi":36,"time":118.95649200000102,"velocity":0.5905511811023622,"duration":0.06521737500000313},{"name":"G2","midi":43,"time":119.02170937500102,"velocity":0.5905511811023622,"duration":0.06521737500000313},{"name":"F2","midi":41,"time":119.02170937500102,"velocity":0.5905511811023622,"duration":0.06521737500000313},{"name":"C2","midi":36,"time":119.02170937500102,"velocity":0.5905511811023622,"duration":0.06521737500000313},{"name":"G2","midi":43,"time":119.08692675000103,"velocity":0.5905511811023622,"duration":0.06521737500000313},{"name":"F2","midi":41,"time":119.08692675000103,"velocity":0.5905511811023622,"duration":0.06521737500000313},{"name":"C2","midi":36,"time":119.08692675000103,"velocity":0.5905511811023622,"duration":0.06521737500000313},{"name":"C2","midi":36,"time":120.52170900000102,"velocity":0.5905511811023622,"duration":0.13043475000000626},{"name":"F2","midi":41,"time":120.52170900000102,"velocity":0.5905511811023622,"duration":0.13043475000000626},{"name":"G2","midi":43,"time":120.52170900000102,"velocity":0.5905511811023622,"duration":0.13043475000000626},{"name":"G2","midi":43,"time":120.78257850000104,"velocity":0.5905511811023622,"duration":0.13043475000000626},{"name":"F2","midi":41,"time":120.78257850000104,"velocity":0.5905511811023622,"duration":0.13043475000000626},{"name":"C2","midi":36,"time":120.78257850000104,"velocity":0.5905511811023622,"duration":0.13043475000000626},{"name":"G2","midi":43,"time":121.04344800000105,"velocity":0.5905511811023622,"duration":0.06521737500000313},{"name":"F2","midi":41,"time":121.04344800000105,"velocity":0.5905511811023622,"duration":0.06521737500000313},{"name":"C2","midi":36,"time":121.04344800000105,"velocity":0.5905511811023622,"duration":0.06521737500000313},{"name":"G2","midi":43,"time":121.10866537500105,"velocity":0.5905511811023622,"duration":0.06521737500000313},{"name":"F2","midi":41,"time":121.10866537500105,"velocity":0.5905511811023622,"duration":0.06521737500000313},{"name":"C2","midi":36,"time":121.10866537500105,"velocity":0.5905511811023622,"duration":0.06521737500000313},{"name":"G2","midi":43,"time":121.17388275000106,"velocity":0.5905511811023622,"duration":0.06521737500000313},{"name":"F2","midi":41,"time":121.17388275000106,"velocity":0.5905511811023622,"duration":0.06521737500000313},{"name":"C2","midi":36,"time":121.17388275000106,"velocity":0.5905511811023622,"duration":0.06521737500000313},{"name":"G2","midi":43,"time":121.82605650000106,"velocity":0.5905511811023622,"duration":0.13043475000000626},{"name":"F2","midi":41,"time":121.82605650000106,"velocity":0.5905511811023622,"duration":0.13043475000000626},{"name":"C2","midi":36,"time":121.82605650000106,"velocity":0.5905511811023622,"duration":0.13043475000000626},{"name":"F2","midi":41,"time":122.47823025000106,"velocity":0.5905511811023622,"duration":0.13043475000000626},{"name":"G2","midi":43,"time":122.47823025000106,"velocity":0.5905511811023622,"duration":0.13043475000000626},{"name":"C2","midi":36,"time":122.47823025000106,"velocity":0.5905511811023622,"duration":0.13043475000000626},{"name":"G2","midi":43,"time":122.86953450000107,"velocity":0.5905511811023622,"duration":0.13043475000000626},{"name":"F2","midi":41,"time":122.86953450000107,"velocity":0.5905511811023622,"duration":0.13043475000000626},{"name":"C2","midi":36,"time":122.86953450000107,"velocity":0.5905511811023622,"duration":0.13043475000000626},{"name":"G2","midi":43,"time":123.13040400000108,"velocity":0.5905511811023622,"duration":0.13043475000000626},{"name":"F2","midi":41,"time":123.13040400000108,"velocity":0.5905511811023622,"duration":0.13043475000000626},{"name":"C2","midi":36,"time":123.13040400000108,"velocity":0.5905511811023622,"duration":0.13043475000000626},{"name":"G2","midi":43,"time":123.39127350000109,"velocity":0.5905511811023622,"duration":0.13043475000000626},{"name":"F2","midi":41,"time":123.39127350000109,"velocity":0.5905511811023622,"duration":0.13043475000000626},{"name":"C2","midi":36,"time":123.39127350000109,"velocity":0.5905511811023622,"duration":0.13043475000000626},{"name":"G2","midi":43,"time":123.6521430000011,"velocity":0.5905511811023622,"duration":0.13043475000000626},{"name":"F2","midi":41,"time":123.6521430000011,"velocity":0.5905511811023622,"duration":0.13043475000000626},{"name":"C2","midi":36,"time":123.6521430000011,"velocity":0.5905511811023622,"duration":0.13043475000000626},{"name":"G2","midi":43,"time":123.91301250000112,"velocity":0.5905511811023622,"duration":0.13043475000000626},{"name":"F2","midi":41,"time":123.91301250000112,"velocity":0.5905511811023622,"duration":0.13043475000000626},{"name":"C2","midi":36,"time":123.91301250000112,"velocity":0.5905511811023622,"duration":0.13043475000000626},{"name":"G2","midi":43,"time":124.17388200000113,"velocity":0.5905511811023622,"duration":0.13043475000000626},{"name":"F2","midi":41,"time":124.17388200000113,"velocity":0.5905511811023622,"duration":0.13043475000000626},{"name":"C2","midi":36,"time":124.17388200000113,"velocity":0.5905511811023622,"duration":0.13043475000000626},{"name":"G2","midi":43,"time":124.43475150000114,"velocity":0.5905511811023622,"duration":0.13043475000000626},{"name":"F2","midi":41,"time":124.43475150000114,"velocity":0.5905511811023622,"duration":0.13043475000000626},{"name":"C2","midi":36,"time":124.43475150000114,"velocity":0.5905511811023622,"duration":0.13043475000000626},{"name":"G2","midi":43,"time":124.69562100000115,"velocity":0.5905511811023622,"duration":0.13043475000000626},{"name":"F2","midi":41,"time":124.69562100000115,"velocity":0.5905511811023622,"duration":0.13043475000000626},{"name":"C2","midi":36,"time":124.69562100000115,"velocity":0.5905511811023622,"duration":0.13043475000000626},{"name":"G2","midi":43,"time":124.95649050000117,"velocity":0.5905511811023622,"duration":0.13043475000000626},{"name":"F2","midi":41,"time":124.95649050000117,"velocity":0.5905511811023622,"duration":0.13043475000000626},{"name":"C2","midi":36,"time":124.95649050000117,"velocity":0.5905511811023622,"duration":0.13043475000000626},{"name":"G#2","midi":44,"time":143.99996400000117,"velocity":0.5905511811023622,"duration":0.13043475000000626},{"name":"G#2","midi":44,"time":144.52170300000117,"velocity":0.5905511811023622,"duration":0.13043475000000626},{"name":"G#2","midi":44,"time":145.04344200000116,"velocity":0.5905511811023622,"duration":0.13043475000000626},{"name":"G#2","midi":44,"time":145.56518100000116,"velocity":0.5905511811023622,"duration":0.13043475000000626},{"name":"G#2","midi":44,"time":146.08692000000116,"velocity":0.5905511811023622,"duration":0.13043475000000626},{"name":"G#2","midi":44,"time":146.60865900000115,"velocity":0.5905511811023622,"duration":0.13043475000000626},{"name":"G#2","midi":44,"time":147.13039800000115,"velocity":0.5905511811023622,"duration":0.13043475000000626},{"name":"G#2","midi":44,"time":147.65213700000115,"velocity":0.5905511811023622,"duration":0.13043475000000626},{"name":"G#2","midi":44,"time":148.17387600000114,"velocity":0.5905511811023622,"duration":0.13043475000000626},{"name":"G#2","midi":44,"time":148.69561500000114,"velocity":0.5905511811023622,"duration":0.13043475000000626},{"name":"G#2","midi":44,"time":149.21735400000114,"velocity":0.5905511811023622,"duration":0.13043475000000626},{"name":"G#2","midi":44,"time":149.73909300000113,"velocity":0.5905511811023622,"duration":0.13043475000000626},{"name":"G#2","midi":44,"time":150.26083200000113,"velocity":0.5905511811023622,"duration":0.13043475000000626},{"name":"G#2","midi":44,"time":150.78257100000113,"velocity":0.5905511811023622,"duration":0.13043475000000626},{"name":"G#2","midi":44,"time":151.30431000000112,"velocity":0.5905511811023622,"duration":0.13043475000000626},{"name":"G#2","midi":44,"time":151.82604900000112,"velocity":0.5905511811023622,"duration":0.13043475000000626},{"name":"G#2","midi":44,"time":152.34778800000112,"velocity":0.5905511811023622,"duration":0.13043475000000626},{"name":"G#2","midi":44,"time":152.8695270000011,"velocity":0.5905511811023622,"duration":0.13043475000000626},{"name":"G#2","midi":44,"time":153.3912660000011,"velocity":0.5905511811023622,"duration":0.13043475000000626},{"name":"G#2","midi":44,"time":153.9130050000011,"velocity":0.5905511811023622,"duration":0.13043475000000626},{"name":"G#2","midi":44,"time":154.4347440000011,"velocity":0.5905511811023622,"duration":0.13043475000000626},{"name":"G#2","midi":44,"time":154.9564830000011,"velocity":0.5905511811023622,"duration":0.13043475000000626},{"name":"G#2","midi":44,"time":155.4782220000011,"velocity":0.5905511811023622,"duration":0.13043475000000626},{"name":"G#2","midi":44,"time":155.9999610000011,"velocity":0.5905511811023622,"duration":0.13043475000000626},{"name":"G#2","midi":44,"time":156.5217000000011,"velocity":0.5905511811023622,"duration":0.13043475000000626},{"name":"G#2","midi":44,"time":157.0434390000011,"velocity":0.5905511811023622,"duration":0.13043475000000626},{"name":"G#2","midi":44,"time":157.56517800000108,"velocity":0.5905511811023622,"duration":0.13043475000000626},{"name":"G#2","midi":44,"time":158.08691700000108,"velocity":0.5905511811023622,"duration":0.13043475000000626},{"name":"G#2","midi":44,"time":158.60865600000108,"velocity":0.5905511811023622,"duration":0.13043475000000626},{"name":"G#2","midi":44,"time":159.13039500000107,"velocity":0.5905511811023622,"duration":0.13043475000000626},{"name":"G#2","midi":44,"time":159.65213400000107,"velocity":0.5905511811023622,"duration":0.13043475000000626},{"name":"G#2","midi":44,"time":160.17387300000107,"velocity":0.5905511811023622,"duration":0.13043475000000626},{"name":"G#2","midi":44,"time":160.69561200000106,"velocity":0.5905511811023622,"duration":0.13043475000000626},{"name":"G#2","midi":44,"time":161.21735100000106,"velocity":0.5905511811023622,"duration":0.13043475000000626},{"name":"G#2","midi":44,"time":161.73909000000106,"velocity":0.5905511811023622,"duration":0.13043475000000626},{"name":"G#2","midi":44,"time":162.26082900000105,"velocity":0.5905511811023622,"duration":0.13043475000000626},{"name":"G#2","midi":44,"time":162.78256800000105,"velocity":0.5905511811023622,"duration":0.13043475000000626},{"name":"G#2","midi":44,"time":163.30430700000105,"velocity":0.5905511811023622,"duration":0.13043475000000626},{"name":"G#2","midi":44,"time":163.82604600000104,"velocity":0.5905511811023622,"duration":0.13043475000000626},{"name":"G#2","midi":44,"time":164.34778500000104,"velocity":0.5905511811023622,"duration":0.13043475000000626},{"name":"G#2","midi":44,"time":164.86952400000104,"velocity":0.5905511811023622,"duration":0.13043475000000626},{"name":"G#2","midi":44,"time":165.39126300000103,"velocity":0.5905511811023622,"duration":0.13043475000000626},{"name":"G#2","midi":44,"time":165.91300200000103,"velocity":0.5905511811023622,"duration":0.13043475000000626},{"name":"G#2","midi":44,"time":166.43474100000103,"velocity":0.5905511811023622,"duration":0.13043475000000626},{"name":"G2","midi":43,"time":166.95648000000102,"velocity":0.5905511811023622,"duration":0.13043475000000626},{"name":"F2","midi":41,"time":166.95648000000102,"velocity":0.5905511811023622,"duration":0.13043475000000626},{"name":"C2","midi":36,"time":166.95648000000102,"velocity":0.5905511811023622,"duration":0.13043475000000626},{"name":"D#6","midi":87,"time":166.95648000000102,"velocity":0.5905511811023622,"duration":0.13043475000000626},{"name":"D6","midi":86,"time":166.95648000000102,"velocity":0.5905511811023622,"duration":0.13043475000000626},{"name":"E2","midi":40,"time":166.95648000000102,"velocity":0.5905511811023622,"duration":0.13043475000000626},{"name":"G#2","midi":44,"time":166.95648000000102,"velocity":0.5905511811023622,"duration":0.13043475000000626},{"name":"G2","midi":43,"time":167.34778425000104,"velocity":0.5905511811023622,"duration":0.13043475000000626},{"name":"F2","midi":41,"time":167.34778425000104,"velocity":0.5905511811023622,"duration":0.13043475000000626},{"name":"C2","midi":36,"time":167.34778425000104,"velocity":0.5905511811023622,"duration":0.13043475000000626},{"name":"D#6","midi":87,"time":167.34778425000104,"velocity":0.5905511811023622,"duration":0.13043475000000626},{"name":"D6","midi":86,"time":167.34778425000104,"velocity":0.5905511811023622,"duration":0.13043475000000626},{"name":"E2","midi":40,"time":167.34778425000104,"velocity":0.5905511811023622,"duration":0.13043475000000626},{"name":"G#2","midi":44,"time":167.34778425000104,"velocity":0.5905511811023622,"duration":0.13043475000000626},{"name":"G2","midi":43,"time":167.73908850000106,"velocity":0.5905511811023622,"duration":0.13043475000000626},{"name":"F2","midi":41,"time":167.73908850000106,"velocity":0.5905511811023622,"duration":0.13043475000000626},{"name":"C2","midi":36,"time":167.73908850000106,"velocity":0.5905511811023622,"duration":0.13043475000000626},{"name":"D#6","midi":87,"time":167.73908850000106,"velocity":0.5905511811023622,"duration":0.13043475000000626},{"name":"D6","midi":86,"time":167.73908850000106,"velocity":0.5905511811023622,"duration":0.13043475000000626},{"name":"E2","midi":40,"time":167.73908850000106,"velocity":0.5905511811023622,"duration":0.13043475000000626},{"name":"G#2","midi":44,"time":167.73908850000106,"velocity":0.5905511811023622,"duration":0.13043475000000626},{"name":"G2","midi":43,"time":167.99995800000107,"velocity":0.5905511811023622,"duration":0.13043475000000626},{"name":"F2","midi":41,"time":167.99995800000107,"velocity":0.5905511811023622,"duration":0.13043475000000626},{"name":"C2","midi":36,"time":167.99995800000107,"velocity":0.5905511811023622,"duration":0.13043475000000626},{"name":"D#6","midi":87,"time":167.99995800000107,"velocity":0.5905511811023622,"duration":0.13043475000000626},{"name":"D6","midi":86,"time":167.99995800000107,"velocity":0.5905511811023622,"duration":0.13043475000000626},{"name":"G#2","midi":44,"time":167.99995800000107,"velocity":0.5905511811023622,"duration":0.13043475000000626},{"name":"E2","midi":40,"time":167.99995800000107,"velocity":0.5905511811023622,"duration":0.13043475000000626},{"name":"C2","midi":36,"time":168.3912622500011,"velocity":0.5905511811023622,"duration":0.13043475000000626},{"name":"G2","midi":43,"time":168.3912622500011,"velocity":0.5905511811023622,"duration":0.13043475000000626},{"name":"F2","midi":41,"time":168.3912622500011,"velocity":0.5905511811023622,"duration":0.13043475000000626},{"name":"D#6","midi":87,"time":168.3912622500011,"velocity":0.5905511811023622,"duration":0.13043475000000626},{"name":"D6","midi":86,"time":168.3912622500011,"velocity":0.5905511811023622,"duration":0.13043475000000626},{"name":"G#2","midi":44,"time":168.3912622500011,"velocity":0.5905511811023622,"duration":0.13043475000000626},{"name":"E2","midi":40,"time":168.3912622500011,"velocity":0.5905511811023622,"duration":0.13043475000000626},{"name":"G2","midi":43,"time":168.7825665000011,"velocity":0.5905511811023622,"duration":0.13043475000000626},{"name":"F2","midi":41,"time":168.7825665000011,"velocity":0.5905511811023622,"duration":0.13043475000000626},{"name":"C2","midi":36,"time":168.7825665000011,"velocity":0.5905511811023622,"duration":0.13043475000000626},{"name":"D#6","midi":87,"time":168.7825665000011,"velocity":0.5905511811023622,"duration":0.13043475000000626},{"name":"D6","midi":86,"time":168.7825665000011,"velocity":0.5905511811023622,"duration":0.13043475000000626},{"name":"G#2","midi":44,"time":168.7825665000011,"velocity":0.5905511811023622,"duration":0.13043475000000626},{"name":"E2","midi":40,"time":168.7825665000011,"velocity":0.5905511811023622,"duration":0.13043475000000626},{"name":"C2","midi":36,"time":169.04343600000112,"velocity":0.5905511811023622,"duration":0.13043475000000626},{"name":"G2","midi":43,"time":169.04343600000112,"velocity":0.5905511811023622,"duration":0.13043475000000626},{"name":"F2","midi":41,"time":169.04343600000112,"velocity":0.5905511811023622,"duration":0.13043475000000626},{"name":"D#6","midi":87,"time":169.04343600000112,"velocity":0.5905511811023622,"duration":0.13043475000000626},{"name":"D6","midi":86,"time":169.04343600000112,"velocity":0.5905511811023622,"duration":0.13043475000000626},{"name":"G#2","midi":44,"time":169.04343600000112,"velocity":0.5905511811023622,"duration":0.13043475000000626},{"name":"E2","midi":40,"time":169.04343600000112,"velocity":0.5905511811023622,"duration":0.13043475000000626},{"name":"G2","midi":43,"time":169.43474025000114,"velocity":0.5905511811023622,"duration":0.13043475000000626},{"name":"C2","midi":36,"time":169.43474025000114,"velocity":0.5905511811023622,"duration":0.13043475000000626},{"name":"F2","midi":41,"time":169.43474025000114,"velocity":0.5905511811023622,"duration":0.13043475000000626},{"name":"D#6","midi":87,"time":169.43474025000114,"velocity":0.5905511811023622,"duration":0.13043475000000626},{"name":"D6","midi":86,"time":169.43474025000114,"velocity":0.5905511811023622,"duration":0.13043475000000626},{"name":"G#2","midi":44,"time":169.43474025000114,"velocity":0.5905511811023622,"duration":0.13043475000000626},{"name":"E2","midi":40,"time":169.43474025000114,"velocity":0.5905511811023622,"duration":0.13043475000000626},{"name":"G2","midi":43,"time":169.82604450000116,"velocity":0.5905511811023622,"duration":0.13043475000000626},{"name":"F2","midi":41,"time":169.82604450000116,"velocity":0.5905511811023622,"duration":0.13043475000000626},{"name":"C2","midi":36,"time":169.82604450000116,"velocity":0.5905511811023622,"duration":0.13043475000000626},{"name":"D#6","midi":87,"time":169.82604450000116,"velocity":0.5905511811023622,"duration":0.13043475000000626},{"name":"D6","midi":86,"time":169.82604450000116,"velocity":0.5905511811023622,"duration":0.13043475000000626},{"name":"G#2","midi":44,"time":169.82604450000116,"velocity":0.5905511811023622,"duration":0.13043475000000626},{"name":"E2","midi":40,"time":169.82604450000116,"velocity":0.5905511811023622,"duration":0.13043475000000626},{"name":"C2","midi":36,"time":170.08691400000117,"velocity":0.5905511811023622,"duration":0.13043475000000626},{"name":"F2","midi":41,"time":170.08691400000117,"velocity":0.5905511811023622,"duration":0.13043475000000626},{"name":"G2","midi":43,"time":170.08691400000117,"velocity":0.5905511811023622,"duration":0.13043475000000626},{"name":"D#6","midi":87,"time":170.08691400000117,"velocity":0.5905511811023622,"duration":0.13043475000000626},{"name":"D6","midi":86,"time":170.08691400000117,"velocity":0.5905511811023622,"duration":0.13043475000000626},{"name":"G#2","midi":44,"time":170.08691400000117,"velocity":0.5905511811023622,"duration":0.13043475000000626},{"name":"E2","midi":40,"time":170.08691400000117,"velocity":0.5905511811023622,"duration":0.13043475000000626},{"name":"G2","midi":43,"time":170.4782182500012,"velocity":0.5905511811023622,"duration":0.13043475000000626},{"name":"F2","midi":41,"time":170.4782182500012,"velocity":0.5905511811023622,"duration":0.13043475000000626},{"name":"C2","midi":36,"time":170.4782182500012,"velocity":0.5905511811023622,"duration":0.13043475000000626},{"name":"D#6","midi":87,"time":170.4782182500012,"velocity":0.5905511811023622,"duration":0.13043475000000626},{"name":"D6","midi":86,"time":170.4782182500012,"velocity":0.5905511811023622,"duration":0.13043475000000626},{"name":"G#2","midi":44,"time":170.4782182500012,"velocity":0.5905511811023622,"duration":0.13043475000000626},{"name":"E2","midi":40,"time":170.4782182500012,"velocity":0.5905511811023622,"duration":0.13043475000000626},{"name":"C2","midi":36,"time":170.8695225000012,"velocity":0.5905511811023622,"duration":0.13043475000000626},{"name":"G2","midi":43,"time":170.8695225000012,"velocity":0.5905511811023622,"duration":0.13043475000000626},{"name":"F2","midi":41,"time":170.8695225000012,"velocity":0.5905511811023622,"duration":0.13043475000000626},{"name":"D#6","midi":87,"time":170.8695225000012,"velocity":0.5905511811023622,"duration":0.13043475000000626},{"name":"D6","midi":86,"time":170.8695225000012,"velocity":0.5905511811023622,"duration":0.13043475000000626},{"name":"G#2","midi":44,"time":170.8695225000012,"velocity":0.5905511811023622,"duration":0.13043475000000626},{"name":"E2","midi":40,"time":170.8695225000012,"velocity":0.5905511811023622,"duration":0.13043475000000626},{"name":"D#6","midi":87,"time":171.13039200000122,"velocity":0.5905511811023622,"duration":0.13043475000000626},{"name":"G2","midi":43,"time":171.13039200000122,"velocity":0.5905511811023622,"duration":0.13043475000000626},{"name":"F2","midi":41,"time":171.13039200000122,"velocity":0.5905511811023622,"duration":0.13043475000000626},{"name":"C2","midi":36,"time":171.13039200000122,"velocity":0.5905511811023622,"duration":0.13043475000000626},{"name":"D6","midi":86,"time":171.13039200000122,"velocity":0.5905511811023622,"duration":0.13043475000000626},{"name":"G#2","midi":44,"time":171.13039200000122,"velocity":0.5905511811023622,"duration":0.13043475000000626},{"name":"E2","midi":40,"time":171.13039200000122,"velocity":0.5905511811023622,"duration":0.13043475000000626}],"controlChanges":{},"id":11,"name":"Drum Kit","instrumentNumber":0,"instrument":"standard kit","instrumentFamily":"drums","channelNumber":9,"isPercussion":true}]}
