{
  "header": {
    "PPQ": 384,
    "timeSignature": [
      4,
      4
    ],
    "bpm": 120,
    "name": ""
  },
  "tempo": [
    {
      "absoluteTime": 0,
      "seconds": 0,
      "bpm": 120
    }
  ],
  "timeSignature": [
    {
      "absoluteTime": 0,
      "seconds": 0,
      "numerator": 4,
      "denominator": 2,
      "click": 24,
      "notesQ": 8
    }
  ],
  "startTime": 0,
  "duration": 145.125,
  "tracks": [
    {
      "startTime": 64.5,
      "duration": 88.5,
      "length": 52,
      "notes": [
        {
          "name": "A4",
          "midi": 69,
          "time": 64.5,
          "velocity": 0.3937007874015748,
          "duration": 0.75
        },
        {
          "name": "A5",
          "midi": 81,
          "time": 65.25,
          "velocity": 0.3937007874015748,
          "duration": 0.75
        },
        {
          "name": "E5",
          "midi": 76,
          "time": 66,
          "velocity": 0.3937007874015748,
          "duration": 0.25
        },
        {
          "name": "D5",
          "midi": 74,
          "time": 66.25,
          "velocity": 0.3937007874015748,
          "duration": 0.25
        },
        {
          "name": "E5",
          "midi": 76,
          "time": 66.5,
          "velocity": 0.3937007874015748,
          "duration": 0.25
        },
        {
          "name": "F#5",
          "midi": 78,
          "time": 66.75,
          "velocity": 0.3937007874015748,
          "duration": 0.25
        },
        {
          "name": "D5",
          "midi": 74,
          "time": 67.0625,
          "velocity": 0.3937007874015748,
          "duration": 0.25
        },
        {
          "name": "E5",
          "midi": 76,
          "time": 67.25,
          "velocity": 0.3937007874015748,
          "duration": 0.25
        },
        {
          "name": "D5",
          "midi": 74,
          "time": 67.5,
          "velocity": 0.3937007874015748,
          "duration": 0.75
        },
        {
          "name": "A5",
          "midi": 81,
          "time": 68.25,
          "velocity": 0.3937007874015748,
          "duration": 0.75
        },
        {
          "name": "A4",
          "midi": 69,
          "time": 69,
          "velocity": 0.3937007874015748,
          "duration": 0.25
        },
        {
          "name": "D5",
          "midi": 74,
          "time": 69.25,
          "velocity": 0.3937007874015748,
          "duration": 0.25
        },
        {
          "name": "E5",
          "midi": 76,
          "time": 69.5,
          "velocity": 0.3937007874015748,
          "duration": 0.25
        },
        {
          "name": "F#5",
          "midi": 78,
          "time": 69.75,
          "velocity": 0.3937007874015748,
          "duration": 0.25
        },
        {
          "name": "E5",
          "midi": 76,
          "time": 70.0625,
          "velocity": 0.3937007874015748,
          "duration": 0.25
        },
        {
          "name": "A5",
          "midi": 81,
          "time": 70.25,
          "velocity": 0.3937007874015748,
          "duration": 0.25
        },
        {
          "name": "F#5",
          "midi": 78,
          "time": 70.5,
          "velocity": 0.3937007874015748,
          "duration": 0.75
        },
        {
          "name": "G5",
          "midi": 79,
          "time": 71.25,
          "velocity": 0.3937007874015748,
          "duration": 0.5
        },
        {
          "name": "F#5",
          "midi": 78,
          "time": 71.75,
          "velocity": 0.3937007874015748,
          "duration": 0.25
        },
        {
          "name": "E5",
          "midi": 76,
          "time": 72,
          "velocity": 0.3937007874015748,
          "duration": 0.75
        },
        {
          "name": "D5",
          "midi": 74,
          "time": 72.75,
          "velocity": 0.3937007874015748,
          "duration": 0.5
        },
        {
          "name": "E5",
          "midi": 76,
          "time": 73.25,
          "velocity": 0.3937007874015748,
          "duration": 0.25
        },
        {
          "name": "F#5",
          "midi": 78,
          "time": 73.5,
          "velocity": 0.3937007874015748,
          "duration": 0.75
        },
        {
          "name": "G5",
          "midi": 79,
          "time": 74.25,
          "velocity": 0.3937007874015748,
          "duration": 0.5
        },
        {
          "name": "B5",
          "midi": 83,
          "time": 74.75,
          "velocity": 0.3937007874015748,
          "duration": 0.25
        },
        {
          "name": "A5",
          "midi": 81,
          "time": 75,
          "velocity": 0.3937007874015748,
          "duration": 1.5
        },
        {
          "name": "A4",
          "midi": 69,
          "time": 76.5,
          "velocity": 0.3937007874015748,
          "duration": 0.75
        },
        {
          "name": "A5",
          "midi": 81,
          "time": 77.25,
          "velocity": 0.3937007874015748,
          "duration": 0.75
        },
        {
          "name": "E5",
          "midi": 76,
          "time": 78,
          "velocity": 0.3937007874015748,
          "duration": 0.25
        },
        {
          "name": "D5",
          "midi": 74,
          "time": 78.25,
          "velocity": 0.3937007874015748,
          "duration": 0.25
        },
        {
          "name": "E5",
          "midi": 76,
          "time": 78.5,
          "velocity": 0.3937007874015748,
          "duration": 0.25
        },
        {
          "name": "F#5",
          "midi": 78,
          "time": 78.75,
          "velocity": 0.3937007874015748,
          "duration": 0.25
        },
        {
          "name": "D5",
          "midi": 74,
          "time": 79.0625,
          "velocity": 0.3937007874015748,
          "duration": 0.25
        },
        {
          "name": "E5",
          "midi": 76,
          "time": 79.25,
          "velocity": 0.3937007874015748,
          "duration": 0.25
        },
        {
          "name": "D5",
          "midi": 74,
          "time": 79.5,
          "velocity": 0.3937007874015748,
          "duration": 0.75
        },
        {
          "name": "A5",
          "midi": 81,
          "time": 80.25,
          "velocity": 0.3937007874015748,
          "duration": 0.75
        },
        {
          "name": "A4",
          "midi": 69,
          "time": 81,
          "velocity": 0.3937007874015748,
          "duration": 0.25
        },
        {
          "name": "D5",
          "midi": 74,
          "time": 81.25,
          "velocity": 0.3937007874015748,
          "duration": 0.25
        },
        {
          "name": "E5",
          "midi": 76,
          "time": 81.5,
          "velocity": 0.3937007874015748,
          "duration": 0.25
        },
        {
          "name": "F#5",
          "midi": 78,
          "time": 81.75,
          "velocity": 0.3937007874015748,
          "duration": 0.25
        },
        {
          "name": "E5",
          "midi": 76,
          "time": 82.0625,
          "velocity": 0.3937007874015748,
          "duration": 0.25
        },
        {
          "name": "A5",
          "midi": 81,
          "time": 82.25,
          "velocity": 0.3937007874015748,
          "duration": 0.25
        },
        {
          "name": "F#5",
          "midi": 78,
          "time": 82.5,
          "velocity": 0.3937007874015748,
          "duration": 0.75
        },
        {
          "name": "G5",
          "midi": 79,
          "time": 83.25,
          "velocity": 0.3937007874015748,
          "duration": 0.5
        },
        {
          "name": "F#5",
          "midi": 78,
          "time": 83.75,
          "velocity": 0.3937007874015748,
          "duration": 0.25
        },
        {
          "name": "E5",
          "midi": 76,
          "time": 84,
          "velocity": 0.3937007874015748,
          "duration": 0.75
        },
        {
          "name": "D5",
          "midi": 74,
          "time": 84.75,
          "velocity": 0.3937007874015748,
          "duration": 0.5
        },
        {
          "name": "E5",
          "midi": 76,
          "time": 85.25,
          "velocity": 0.3937007874015748,
          "duration": 0.25
        },
        {
          "name": "F#5",
          "midi": 78,
          "time": 85.5,
          "velocity": 0.3937007874015748,
          "duration": 0.75
        },
        {
          "name": "G5",
          "midi": 79,
          "time": 86.25,
          "velocity": 0.3937007874015748,
          "duration": 0.5
        },
        {
          "name": "B5",
          "midi": 83,
          "time": 86.75,
          "velocity": 0.3937007874015748,
          "duration": 0.25
        },
        {
          "name": "A5",
          "midi": 81,
          "time": 87,
          "velocity": 0.3937007874015748,
          "duration": 1.5
        }
      ],
      "controlChanges": {},
      "id": 0,
      "name": "Elec. Piano (Classic)",
      "instrumentNumber": 0,
      "instrument": "acoustic grand piano",
      "instrumentFamily": "piano",
      "channelNumber": 0,
      "isPercussion": false
    },
    {
      "startTime": 0,
      "duration": 145.125,
      "length": 311,
      "notes": [
        {
          "name": "F#5",
          "midi": 78,
          "time": 0,
          "velocity": 0.3937007874015748,
          "duration": 0.25
        },
        {
          "name": "C#5",
          "midi": 73,
          "time": 0.25,
          "velocity": 0.3937007874015748,
          "duration": 0.25
        },
        {
          "name": "F#5",
          "midi": 78,
          "time": 0.5,
          "velocity": 0.3937007874015748,
          "duration": 0.25
        },
        {
          "name": "C#5",
          "midi": 73,
          "time": 0.75,
          "velocity": 0.3937007874015748,
          "duration": 0.25
        },
        {
          "name": "F#5",
          "midi": 78,
          "time": 1,
          "velocity": 0.3937007874015748,
          "duration": 0.25
        },
        {
          "name": "C#5",
          "midi": 73,
          "time": 1.25,
          "velocity": 0.3937007874015748,
          "duration": 0.25
        },
        {
          "name": "F#5",
          "midi": 78,
          "time": 1.5,
          "velocity": 0.3937007874015748,
          "duration": 0.25
        },
        {
          "name": "C#5",
          "midi": 73,
          "time": 1.75,
          "velocity": 0.3937007874015748,
          "duration": 0.25
        },
        {
          "name": "F#5",
          "midi": 78,
          "time": 2,
          "velocity": 0.3937007874015748,
          "duration": 0.25
        },
        {
          "name": "C#5",
          "midi": 73,
          "time": 2.25,
          "velocity": 0.3937007874015748,
          "duration": 0.25
        },
        {
          "name": "F#5",
          "midi": 78,
          "time": 2.5,
          "velocity": 0.3937007874015748,
          "duration": 0.25
        },
        {
          "name": "C#5",
          "midi": 73,
          "time": 2.75,
          "velocity": 0.3937007874015748,
          "duration": 0.25
        },
        {
          "name": "B4",
          "midi": 71,
          "time": 3,
          "velocity": 0.3937007874015748,
          "duration": 0.25
        },
        {
          "name": "A4",
          "midi": 69,
          "time": 3.25,
          "velocity": 0.3937007874015748,
          "duration": 0.25
        },
        {
          "name": "C#5",
          "midi": 73,
          "time": 3.5,
          "velocity": 0.3937007874015748,
          "duration": 0.5
        },
        {
          "name": "A4",
          "midi": 69,
          "time": 4,
          "velocity": 0.3937007874015748,
          "duration": 0.25
        },
        {
          "name": "B4",
          "midi": 71,
          "time": 4.25,
          "velocity": 0.3937007874015748,
          "duration": 0.25
        },
        {
          "name": "E5",
          "midi": 76,
          "time": 4.5,
          "velocity": 0.3937007874015748,
          "duration": 0.25
        },
        {
          "name": "D#5",
          "midi": 75,
          "time": 4.75,
          "velocity": 0.3937007874015748,
          "duration": 0.25
        },
        {
          "name": "E5",
          "midi": 76,
          "time": 5,
          "velocity": 0.3937007874015748,
          "duration": 0.25
        },
        {
          "name": "F#5",
          "midi": 78,
          "time": 5.25,
          "velocity": 0.3937007874015748,
          "duration": 0.25
        },
        {
          "name": "D#5",
          "midi": 75,
          "time": 5.5,
          "velocity": 0.3937007874015748,
          "duration": 0.25
        },
        {
          "name": "B4",
          "midi": 71,
          "time": 5.75,
          "velocity": 0.3937007874015748,
          "duration": 0.25
        },
        {
          "name": "F#5",
          "midi": 78,
          "time": 6,
          "velocity": 0.3937007874015748,
          "duration": 0.25
        },
        {
          "name": "B4",
          "midi": 71,
          "time": 6.25,
          "velocity": 0.3937007874015748,
          "duration": 0.25
        },
        {
          "name": "F#5",
          "midi": 78,
          "time": 6.5,
          "velocity": 0.3937007874015748,
          "duration": 0.25
        },
        {
          "name": "B4",
          "midi": 71,
          "time": 6.75,
          "velocity": 0.3937007874015748,
          "duration": 0.25
        },
        {
          "name": "F#5",
          "midi": 78,
          "time": 7,
          "velocity": 0.3937007874015748,
          "duration": 0.25
        },
        {
          "name": "B4",
          "midi": 71,
          "time": 7.25,
          "velocity": 0.3937007874015748,
          "duration": 0.25
        },
        {
          "name": "F#5",
          "midi": 78,
          "time": 7.5,
          "velocity": 0.3937007874015748,
          "duration": 0.25
        },
        {
          "name": "A#4",
          "midi": 70,
          "time": 7.75,
          "velocity": 0.3937007874015748,
          "duration": 0.25
        },
        {
          "name": "F#5",
          "midi": 78,
          "time": 8,
          "velocity": 0.3937007874015748,
          "duration": 0.25
        },
        {
          "name": "A#4",
          "midi": 70,
          "time": 8.25,
          "velocity": 0.3937007874015748,
          "duration": 0.25
        },
        {
          "name": "G5",
          "midi": 79,
          "time": 8.5,
          "velocity": 0.3937007874015748,
          "duration": 0.5
        },
        {
          "name": "F#5",
          "midi": 78,
          "time": 9,
          "velocity": 0.3937007874015748,
          "duration": 0.25
        },
        {
          "name": "D5",
          "midi": 74,
          "time": 9.25,
          "velocity": 0.3937007874015748,
          "duration": 0.25
        },
        {
          "name": "F#5",
          "midi": 78,
          "time": 9.5,
          "velocity": 0.3937007874015748,
          "duration": 0.25
        },
        {
          "name": "D5",
          "midi": 74,
          "time": 9.75,
          "velocity": 0.3937007874015748,
          "duration": 0.25
        },
        {
          "name": "E5",
          "midi": 76,
          "time": 10,
          "velocity": 0.3937007874015748,
          "duration": 0.25
        },
        {
          "name": "F#5",
          "midi": 78,
          "time": 10.25,
          "velocity": 0.3937007874015748,
          "duration": 0.25
        },
        {
          "name": "E5",
          "midi": 76,
          "time": 10.5,
          "velocity": 0.3937007874015748,
          "duration": 0.5
        },
        {
          "name": "D5",
          "midi": 74,
          "time": 11,
          "velocity": 0.3937007874015748,
          "duration": 0.5
        },
        {
          "name": "C#5",
          "midi": 73,
          "time": 11.5,
          "velocity": 0.3937007874015748,
          "duration": 0.5
        },
        {
          "name": "F#5",
          "midi": 78,
          "time": 12,
          "velocity": 0.3937007874015748,
          "duration": 0.25
        },
        {
          "name": "C#5",
          "midi": 73,
          "time": 12.25,
          "velocity": 0.3937007874015748,
          "duration": 0.25
        },
        {
          "name": "F#5",
          "midi": 78,
          "time": 12.5,
          "velocity": 0.3937007874015748,
          "duration": 0.25
        },
        {
          "name": "C#5",
          "midi": 73,
          "time": 12.75,
          "velocity": 0.3937007874015748,
          "duration": 0.25
        },
        {
          "name": "F#5",
          "midi": 78,
          "time": 13,
          "velocity": 0.3937007874015748,
          "duration": 0.25
        },
        {
          "name": "C#5",
          "midi": 73,
          "time": 13.25,
          "velocity": 0.3937007874015748,
          "duration": 0.25
        },
        {
          "name": "F#5",
          "midi": 78,
          "time": 13.5,
          "velocity": 0.3937007874015748,
          "duration": 0.25
        },
        {
          "name": "C#5",
          "midi": 73,
          "time": 13.75,
          "velocity": 0.3937007874015748,
          "duration": 0.25
        },
        {
          "name": "F#5",
          "midi": 78,
          "time": 14,
          "velocity": 0.3937007874015748,
          "duration": 0.25
        },
        {
          "name": "C#5",
          "midi": 73,
          "time": 14.25,
          "velocity": 0.3937007874015748,
          "duration": 0.25
        },
        {
          "name": "F#5",
          "midi": 78,
          "time": 14.5,
          "velocity": 0.3937007874015748,
          "duration": 0.25
        },
        {
          "name": "C#5",
          "midi": 73,
          "time": 14.75,
          "velocity": 0.3937007874015748,
          "duration": 0.25
        },
        {
          "name": "B4",
          "midi": 71,
          "time": 15,
          "velocity": 0.3937007874015748,
          "duration": 0.25
        },
        {
          "name": "A4",
          "midi": 69,
          "time": 15.25,
          "velocity": 0.3937007874015748,
          "duration": 0.25
        },
        {
          "name": "C#5",
          "midi": 73,
          "time": 15.5,
          "velocity": 0.3937007874015748,
          "duration": 0.5
        },
        {
          "name": "A4",
          "midi": 69,
          "time": 16,
          "velocity": 0.3937007874015748,
          "duration": 0.25
        },
        {
          "name": "B4",
          "midi": 71,
          "time": 16.25,
          "velocity": 0.3937007874015748,
          "duration": 0.25
        },
        {
          "name": "E5",
          "midi": 76,
          "time": 16.5,
          "velocity": 0.3937007874015748,
          "duration": 0.25
        },
        {
          "name": "D#5",
          "midi": 75,
          "time": 16.75,
          "velocity": 0.3937007874015748,
          "duration": 0.25
        },
        {
          "name": "E5",
          "midi": 76,
          "time": 17,
          "velocity": 0.3937007874015748,
          "duration": 0.25
        },
        {
          "name": "F#5",
          "midi": 78,
          "time": 17.25,
          "velocity": 0.3937007874015748,
          "duration": 0.25
        },
        {
          "name": "D#5",
          "midi": 75,
          "time": 17.5,
          "velocity": 0.3937007874015748,
          "duration": 0.25
        },
        {
          "name": "B4",
          "midi": 71,
          "time": 17.75,
          "velocity": 0.3937007874015748,
          "duration": 0.25
        },
        {
          "name": "F#5",
          "midi": 78,
          "time": 18,
          "velocity": 0.3937007874015748,
          "duration": 0.25
        },
        {
          "name": "B4",
          "midi": 71,
          "time": 18.25,
          "velocity": 0.3937007874015748,
          "duration": 0.25
        },
        {
          "name": "F#5",
          "midi": 78,
          "time": 18.5,
          "velocity": 0.3937007874015748,
          "duration": 0.25
        },
        {
          "name": "B4",
          "midi": 71,
          "time": 18.75,
          "velocity": 0.3937007874015748,
          "duration": 0.25
        },
        {
          "name": "F#5",
          "midi": 78,
          "time": 19,
          "velocity": 0.3937007874015748,
          "duration": 0.25
        },
        {
          "name": "B4",
          "midi": 71,
          "time": 19.25,
          "velocity": 0.3937007874015748,
          "duration": 0.25
        },
        {
          "name": "F#5",
          "midi": 78,
          "time": 19.5,
          "velocity": 0.3937007874015748,
          "duration": 0.25
        },
        {
          "name": "A#4",
          "midi": 70,
          "time": 19.75,
          "velocity": 0.3937007874015748,
          "duration": 0.25
        },
        {
          "name": "F#5",
          "midi": 78,
          "time": 20,
          "velocity": 0.3937007874015748,
          "duration": 0.25
        },
        {
          "name": "A#4",
          "midi": 70,
          "time": 20.25,
          "velocity": 0.3937007874015748,
          "duration": 0.25
        },
        {
          "name": "G5",
          "midi": 79,
          "time": 20.5,
          "velocity": 0.3937007874015748,
          "duration": 0.5
        },
        {
          "name": "F#5",
          "midi": 78,
          "time": 21,
          "velocity": 0.3937007874015748,
          "duration": 0.25
        },
        {
          "name": "D5",
          "midi": 74,
          "time": 21.25,
          "velocity": 0.3937007874015748,
          "duration": 0.25
        },
        {
          "name": "F#5",
          "midi": 78,
          "time": 21.5,
          "velocity": 0.3937007874015748,
          "duration": 0.25
        },
        {
          "name": "D5",
          "midi": 74,
          "time": 21.75,
          "velocity": 0.3937007874015748,
          "duration": 0.25
        },
        {
          "name": "E5",
          "midi": 76,
          "time": 22,
          "velocity": 0.3937007874015748,
          "duration": 0.25
        },
        {
          "name": "F#5",
          "midi": 78,
          "time": 22.25,
          "velocity": 0.3937007874015748,
          "duration": 0.25
        },
        {
          "name": "E5",
          "midi": 76,
          "time": 22.5,
          "velocity": 0.3937007874015748,
          "duration": 0.5
        },
        {
          "name": "D5",
          "midi": 74,
          "time": 23,
          "velocity": 0.3937007874015748,
          "duration": 0.5
        },
        {
          "name": "C#5",
          "midi": 73,
          "time": 23.5,
          "velocity": 0.3937007874015748,
          "duration": 0.5
        },
        {
          "name": "F#5",
          "midi": 78,
          "time": 24,
          "velocity": 0.3937007874015748,
          "duration": 0.25
        },
        {
          "name": "C#5",
          "midi": 73,
          "time": 24.25,
          "velocity": 0.3937007874015748,
          "duration": 0.25
        },
        {
          "name": "F#5",
          "midi": 78,
          "time": 24.5,
          "velocity": 0.3937007874015748,
          "duration": 0.25
        },
        {
          "name": "C#5",
          "midi": 73,
          "time": 24.75,
          "velocity": 0.3937007874015748,
          "duration": 0.25
        },
        {
          "name": "F#5",
          "midi": 78,
          "time": 25,
          "velocity": 0.3937007874015748,
          "duration": 0.25
        },
        {
          "name": "C#5",
          "midi": 73,
          "time": 25.25,
          "velocity": 0.3937007874015748,
          "duration": 0.25
        },
        {
          "name": "F#5",
          "midi": 78,
          "time": 25.5,
          "velocity": 0.3937007874015748,
          "duration": 0.25
        },
        {
          "name": "C#5",
          "midi": 73,
          "time": 25.75,
          "velocity": 0.3937007874015748,
          "duration": 0.25
        },
        {
          "name": "F#5",
          "midi": 78,
          "time": 26,
          "velocity": 0.3937007874015748,
          "duration": 0.25
        },
        {
          "name": "C#5",
          "midi": 73,
          "time": 26.25,
          "velocity": 0.3937007874015748,
          "duration": 0.25
        },
        {
          "name": "F#5",
          "midi": 78,
          "time": 26.5,
          "velocity": 0.3937007874015748,
          "duration": 0.25
        },
        {
          "name": "C#5",
          "midi": 73,
          "time": 26.75,
          "velocity": 0.3937007874015748,
          "duration": 0.25
        },
        {
          "name": "B4",
          "midi": 71,
          "time": 27,
          "velocity": 0.3937007874015748,
          "duration": 0.25
        },
        {
          "name": "A4",
          "midi": 69,
          "time": 27.25,
          "velocity": 0.3937007874015748,
          "duration": 0.25
        },
        {
          "name": "C#5",
          "midi": 73,
          "time": 27.5,
          "velocity": 0.3937007874015748,
          "duration": 0.5
        },
        {
          "name": "A4",
          "midi": 69,
          "time": 28,
          "velocity": 0.3937007874015748,
          "duration": 0.25
        },
        {
          "name": "B4",
          "midi": 71,
          "time": 28.25,
          "velocity": 0.3937007874015748,
          "duration": 0.25
        },
        {
          "name": "E5",
          "midi": 76,
          "time": 28.5,
          "velocity": 0.3937007874015748,
          "duration": 0.25
        },
        {
          "name": "D#5",
          "midi": 75,
          "time": 28.75,
          "velocity": 0.3937007874015748,
          "duration": 0.25
        },
        {
          "name": "E5",
          "midi": 76,
          "time": 29,
          "velocity": 0.3937007874015748,
          "duration": 0.25
        },
        {
          "name": "F#5",
          "midi": 78,
          "time": 29.25,
          "velocity": 0.3937007874015748,
          "duration": 0.25
        },
        {
          "name": "D#5",
          "midi": 75,
          "time": 29.5,
          "velocity": 0.3937007874015748,
          "duration": 0.25
        },
        {
          "name": "B4",
          "midi": 71,
          "time": 29.75,
          "velocity": 0.3937007874015748,
          "duration": 0.25
        },
        {
          "name": "F#5",
          "midi": 78,
          "time": 30,
          "velocity": 0.3937007874015748,
          "duration": 0.25
        },
        {
          "name": "B4",
          "midi": 71,
          "time": 30.25,
          "velocity": 0.3937007874015748,
          "duration": 0.25
        },
        {
          "name": "F#5",
          "midi": 78,
          "time": 30.5,
          "velocity": 0.3937007874015748,
          "duration": 0.25
        },
        {
          "name": "B4",
          "midi": 71,
          "time": 30.75,
          "velocity": 0.3937007874015748,
          "duration": 0.25
        },
        {
          "name": "F#5",
          "midi": 78,
          "time": 31,
          "velocity": 0.3937007874015748,
          "duration": 0.25
        },
        {
          "name": "B4",
          "midi": 71,
          "time": 31.25,
          "velocity": 0.3937007874015748,
          "duration": 0.25
        },
        {
          "name": "F#5",
          "midi": 78,
          "time": 31.5,
          "velocity": 0.3937007874015748,
          "duration": 0.25
        },
        {
          "name": "A#4",
          "midi": 70,
          "time": 31.75,
          "velocity": 0.3937007874015748,
          "duration": 0.25
        },
        {
          "name": "F#5",
          "midi": 78,
          "time": 32,
          "velocity": 0.3937007874015748,
          "duration": 0.25
        },
        {
          "name": "A#4",
          "midi": 70,
          "time": 32.25,
          "velocity": 0.3937007874015748,
          "duration": 0.25
        },
        {
          "name": "G5",
          "midi": 79,
          "time": 32.5,
          "velocity": 0.3937007874015748,
          "duration": 0.5
        },
        {
          "name": "F#5",
          "midi": 78,
          "time": 33,
          "velocity": 0.3937007874015748,
          "duration": 0.25
        },
        {
          "name": "D5",
          "midi": 74,
          "time": 33.25,
          "velocity": 0.3937007874015748,
          "duration": 0.25
        },
        {
          "name": "F#5",
          "midi": 78,
          "time": 33.5,
          "velocity": 0.3937007874015748,
          "duration": 0.25
        },
        {
          "name": "D5",
          "midi": 74,
          "time": 33.75,
          "velocity": 0.3937007874015748,
          "duration": 0.25
        },
        {
          "name": "E5",
          "midi": 76,
          "time": 34,
          "velocity": 0.3937007874015748,
          "duration": 0.25
        },
        {
          "name": "F#5",
          "midi": 78,
          "time": 34.25,
          "velocity": 0.3937007874015748,
          "duration": 0.25
        },
        {
          "name": "E5",
          "midi": 76,
          "time": 34.5,
          "velocity": 0.3937007874015748,
          "duration": 0.5
        },
        {
          "name": "D5",
          "midi": 74,
          "time": 35,
          "velocity": 0.3937007874015748,
          "duration": 0.5
        },
        {
          "name": "C#5",
          "midi": 73,
          "time": 35.5,
          "velocity": 0.3937007874015748,
          "duration": 0.5
        },
        {
          "name": "F#5",
          "midi": 78,
          "time": 36,
          "velocity": 0.3937007874015748,
          "duration": 0.25
        },
        {
          "name": "A#4",
          "midi": 70,
          "time": 36.25,
          "velocity": 0.3937007874015748,
          "duration": 0.25
        },
        {
          "name": "F#5",
          "midi": 78,
          "time": 36.5,
          "velocity": 0.3937007874015748,
          "duration": 0.25
        },
        {
          "name": "A#4",
          "midi": 70,
          "time": 36.75,
          "velocity": 0.3937007874015748,
          "duration": 0.25
        },
        {
          "name": "G5",
          "midi": 79,
          "time": 37,
          "velocity": 0.3937007874015748,
          "duration": 0.5
        },
        {
          "name": "F#5",
          "midi": 78,
          "time": 37.5,
          "velocity": 0.3937007874015748,
          "duration": 0.25
        },
        {
          "name": "D5",
          "midi": 74,
          "time": 37.75,
          "velocity": 0.3937007874015748,
          "duration": 0.25
        },
        {
          "name": "F#5",
          "midi": 78,
          "time": 38,
          "velocity": 0.3937007874015748,
          "duration": 0.25
        },
        {
          "name": "D5",
          "midi": 74,
          "time": 38.25,
          "velocity": 0.3937007874015748,
          "duration": 0.25
        },
        {
          "name": "E5",
          "midi": 76,
          "time": 38.5,
          "velocity": 0.3937007874015748,
          "duration": 0.25
        },
        {
          "name": "F#5",
          "midi": 78,
          "time": 38.75,
          "velocity": 0.3937007874015748,
          "duration": 0.25
        },
        {
          "name": "C#5",
          "midi": 73,
          "time": 39,
          "velocity": 0.3937007874015748,
          "duration": 0.5
        },
        {
          "name": "F#5",
          "midi": 78,
          "time": 39.5,
          "velocity": 0.3937007874015748,
          "duration": 0.5
        },
        {
          "name": "C#5",
          "midi": 73,
          "time": 40,
          "velocity": 0.3937007874015748,
          "duration": 0.5
        },
        {
          "name": "D5",
          "midi": 74,
          "time": 40.5,
          "velocity": 0.3937007874015748,
          "duration": 0.75
        },
        {
          "name": "A4",
          "midi": 69,
          "time": 41.25,
          "velocity": 0.3937007874015748,
          "duration": 0.25
        },
        {
          "name": "B4",
          "midi": 71,
          "time": 41.5,
          "velocity": 0.3937007874015748,
          "duration": 0.25
        },
        {
          "name": "C#5",
          "midi": 73,
          "time": 41.75,
          "velocity": 0.3937007874015748,
          "duration": 0.25
        },
        {
          "name": "D5",
          "midi": 74,
          "time": 42,
          "velocity": 0.3937007874015748,
          "duration": 0.5
        },
        {
          "name": "C#5",
          "midi": 73,
          "time": 42.5,
          "velocity": 0.3937007874015748,
          "duration": 0.5
        },
        {
          "name": "D5",
          "midi": 74,
          "time": 43,
          "velocity": 0.3937007874015748,
          "duration": 0.5
        },
        {
          "name": "A4",
          "midi": 69,
          "time": 43.5,
          "velocity": 0.3937007874015748,
          "duration": 0.75
        },
        {
          "name": "B4",
          "midi": 71,
          "time": 44.25,
          "velocity": 0.3937007874015748,
          "duration": 0.25
        },
        {
          "name": "A4",
          "midi": 69,
          "time": 44.5,
          "velocity": 0.3937007874015748,
          "duration": 0.25
        },
        {
          "name": "G4",
          "midi": 67,
          "time": 44.75,
          "velocity": 0.3937007874015748,
          "duration": 0.25
        },
        {
          "name": "F#4",
          "midi": 66,
          "time": 45,
          "velocity": 0.3937007874015748,
          "duration": 0.5
        },
        {
          "name": "F#5",
          "midi": 78,
          "time": 45.5,
          "velocity": 0.3937007874015748,
          "duration": 0.5
        },
        {
          "name": "E5",
          "midi": 76,
          "time": 46,
          "velocity": 0.3937007874015748,
          "duration": 0.5
        },
        {
          "name": "D5",
          "midi": 74,
          "time": 46.5,
          "velocity": 0.3937007874015748,
          "duration": 0.75
        },
        {
          "name": "A4",
          "midi": 69,
          "time": 47.25,
          "velocity": 0.3937007874015748,
          "duration": 0.25
        },
        {
          "name": "B4",
          "midi": 71,
          "time": 47.5,
          "velocity": 0.3937007874015748,
          "duration": 0.25
        },
        {
          "name": "C#5",
          "midi": 73,
          "time": 47.75,
          "velocity": 0.3937007874015748,
          "duration": 0.25
        },
        {
          "name": "D5",
          "midi": 74,
          "time": 48,
          "velocity": 0.3937007874015748,
          "duration": 0.5
        },
        {
          "name": "C#5",
          "midi": 73,
          "time": 48.5,
          "velocity": 0.3937007874015748,
          "duration": 0.5
        },
        {
          "name": "D5",
          "midi": 74,
          "time": 49,
          "velocity": 0.3937007874015748,
          "duration": 0.5
        },
        {
          "name": "F#5",
          "midi": 78,
          "time": 49.5,
          "velocity": 0.3937007874015748,
          "duration": 0.75
        },
        {
          "name": "G5",
          "midi": 79,
          "time": 50.25,
          "velocity": 0.3937007874015748,
          "duration": 0.25
        },
        {
          "name": "F#5",
          "midi": 78,
          "time": 50.5,
          "velocity": 0.3937007874015748,
          "duration": 0.25
        },
        {
          "name": "E5",
          "midi": 76,
          "time": 50.75,
          "velocity": 0.3937007874015748,
          "duration": 0.25
        },
        {
          "name": "D5",
          "midi": 74,
          "time": 51,
          "velocity": 0.3937007874015748,
          "duration": 0.5
        },
        {
          "name": "E5",
          "midi": 76,
          "time": 51.5,
          "velocity": 0.3937007874015748,
          "duration": 0.5
        },
        {
          "name": "C#5",
          "midi": 73,
          "time": 52,
          "velocity": 0.3937007874015748,
          "duration": 0.5
        },
        {
          "name": "D5",
          "midi": 74,
          "time": 52.5,
          "velocity": 0.3937007874015748,
          "duration": 0.75
        },
        {
          "name": "A4",
          "midi": 69,
          "time": 53.25,
          "velocity": 0.3937007874015748,
          "duration": 0.25
        },
        {
          "name": "B4",
          "midi": 71,
          "time": 53.5,
          "velocity": 0.3937007874015748,
          "duration": 0.25
        },
        {
          "name": "C#5",
          "midi": 73,
          "time": 53.75,
          "velocity": 0.3937007874015748,
          "duration": 0.25
        },
        {
          "name": "D5",
          "midi": 74,
          "time": 54,
          "velocity": 0.3937007874015748,
          "duration": 0.5
        },
        {
          "name": "C#5",
          "midi": 73,
          "time": 54.5,
          "velocity": 0.3937007874015748,
          "duration": 0.5
        },
        {
          "name": "D5",
          "midi": 74,
          "time": 55,
          "velocity": 0.3937007874015748,
          "duration": 0.5
        },
        {
          "name": "A4",
          "midi": 69,
          "time": 55.5,
          "velocity": 0.3937007874015748,
          "duration": 0.75
        },
        {
          "name": "B4",
          "midi": 71,
          "time": 56.25,
          "velocity": 0.3937007874015748,
          "duration": 0.25
        },
        {
          "name": "A4",
          "midi": 69,
          "time": 56.5,
          "velocity": 0.3937007874015748,
          "duration": 0.25
        },
        {
          "name": "G4",
          "midi": 67,
          "time": 56.75,
          "velocity": 0.3937007874015748,
          "duration": 0.25
        },
        {
          "name": "F#4",
          "midi": 66,
          "time": 57,
          "velocity": 0.3937007874015748,
          "duration": 0.5
        },
        {
          "name": "F#5",
          "midi": 78,
          "time": 57.5,
          "velocity": 0.3937007874015748,
          "duration": 0.5
        },
        {
          "name": "E5",
          "midi": 76,
          "time": 58,
          "velocity": 0.3937007874015748,
          "duration": 0.5
        },
        {
          "name": "D5",
          "midi": 74,
          "time": 58.5,
          "velocity": 0.3937007874015748,
          "duration": 0.75
        },
        {
          "name": "A4",
          "midi": 69,
          "time": 59.25,
          "velocity": 0.3937007874015748,
          "duration": 0.25
        },
        {
          "name": "B4",
          "midi": 71,
          "time": 59.5,
          "velocity": 0.3937007874015748,
          "duration": 0.25
        },
        {
          "name": "C#5",
          "midi": 73,
          "time": 59.75,
          "velocity": 0.3937007874015748,
          "duration": 0.25
        },
        {
          "name": "D5",
          "midi": 74,
          "time": 60,
          "velocity": 0.3937007874015748,
          "duration": 0.5
        },
        {
          "name": "C#5",
          "midi": 73,
          "time": 60.5,
          "velocity": 0.3937007874015748,
          "duration": 0.5
        },
        {
          "name": "D5",
          "midi": 74,
          "time": 61,
          "velocity": 0.3937007874015748,
          "duration": 0.5
        },
        {
          "name": "F#5",
          "midi": 78,
          "time": 61.5,
          "velocity": 0.3937007874015748,
          "duration": 0.25
        },
        {
          "name": "D5",
          "midi": 74,
          "time": 61.75,
          "velocity": 0.3937007874015748,
          "duration": 0.25
        },
        {
          "name": "F#5",
          "midi": 78,
          "time": 62,
          "velocity": 0.3937007874015748,
          "duration": 0.25
        },
        {
          "name": "D5",
          "midi": 74,
          "time": 62.25,
          "velocity": 0.3937007874015748,
          "duration": 0.25
        },
        {
          "name": "E5",
          "midi": 76,
          "time": 62.5,
          "velocity": 0.3937007874015748,
          "duration": 0.25
        },
        {
          "name": "F#5",
          "midi": 78,
          "time": 62.75,
          "velocity": 0.3937007874015748,
          "duration": 0.25
        },
        {
          "name": "E5",
          "midi": 76,
          "time": 63,
          "velocity": 0.3937007874015748,
          "duration": 0.5
        },
        {
          "name": "D5",
          "midi": 74,
          "time": 63.5,
          "velocity": 0.3937007874015748,
          "duration": 0.5
        },
        {
          "name": "C#5",
          "midi": 73,
          "time": 64,
          "velocity": 0.3937007874015748,
          "duration": 0.5
        },
        {
          "name": "A4",
          "midi": 69,
          "time": 64.5,
          "velocity": 0.3937007874015748,
          "duration": 0.25
        },
        {
          "name": "A5",
          "midi": 81,
          "time": 65.25,
          "velocity": 0.3937007874015748,
          "duration": 0.75
        },
        {
          "name": "E5",
          "midi": 76,
          "time": 66,
          "velocity": 0.3937007874015748,
          "duration": 1.5
        },
        {
          "name": "D5",
          "midi": 74,
          "time": 67.5,
          "velocity": 0.3937007874015748,
          "duration": 0.75
        },
        {
          "name": "A5",
          "midi": 81,
          "time": 68.25,
          "velocity": 0.3937007874015748,
          "duration": 0.75
        },
        {
          "name": "A4",
          "midi": 69,
          "time": 69,
          "velocity": 0.3937007874015748,
          "duration": 1.5
        },
        {
          "name": "A4",
          "midi": 69,
          "time": 70.5,
          "velocity": 0.3937007874015748,
          "duration": 0.75
        },
        {
          "name": "D5",
          "midi": 74,
          "time": 71.25,
          "velocity": 0.3937007874015748,
          "duration": 0.75
        },
        {
          "name": "A5",
          "midi": 81,
          "time": 72,
          "velocity": 0.3937007874015748,
          "duration": 1.25
        },
        {
          "name": "B5",
          "midi": 83,
          "time": 73.25,
          "velocity": 0.3937007874015748,
          "duration": 0.25
        },
        {
          "name": "A5",
          "midi": 81,
          "time": 73.5,
          "velocity": 0.3937007874015748,
          "duration": 0.75
        },
        {
          "name": "E5",
          "midi": 76,
          "time": 74.25,
          "velocity": 0.3937007874015748,
          "duration": 0.75
        },
        {
          "name": "D5",
          "midi": 74,
          "time": 75,
          "velocity": 0.3937007874015748,
          "duration": 1.5
        },
        {
          "name": "A4",
          "midi": 69,
          "time": 76.5,
          "velocity": 0.3937007874015748,
          "duration": 0.25
        },
        {
          "name": "A5",
          "midi": 81,
          "time": 77.25,
          "velocity": 0.3937007874015748,
          "duration": 0.75
        },
        {
          "name": "E5",
          "midi": 76,
          "time": 78,
          "velocity": 0.3937007874015748,
          "duration": 1.5
        },
        {
          "name": "D5",
          "midi": 74,
          "time": 79.5,
          "velocity": 0.3937007874015748,
          "duration": 0.75
        },
        {
          "name": "A5",
          "midi": 81,
          "time": 80.25,
          "velocity": 0.3937007874015748,
          "duration": 0.75
        },
        {
          "name": "A4",
          "midi": 69,
          "time": 81,
          "velocity": 0.3937007874015748,
          "duration": 1.5
        },
        {
          "name": "A4",
          "midi": 69,
          "time": 82.5,
          "velocity": 0.3937007874015748,
          "duration": 0.75
        },
        {
          "name": "D5",
          "midi": 74,
          "time": 83.25,
          "velocity": 0.3937007874015748,
          "duration": 0.75
        },
        {
          "name": "A5",
          "midi": 81,
          "time": 84,
          "velocity": 0.3937007874015748,
          "duration": 1.25
        },
        {
          "name": "B5",
          "midi": 83,
          "time": 85.25,
          "velocity": 0.3937007874015748,
          "duration": 0.25
        },
        {
          "name": "A5",
          "midi": 81,
          "time": 85.5,
          "velocity": 0.3937007874015748,
          "duration": 0.75
        },
        {
          "name": "E5",
          "midi": 76,
          "time": 86.25,
          "velocity": 0.3937007874015748,
          "duration": 0.75
        },
        {
          "name": "D5",
          "midi": 74,
          "time": 87,
          "velocity": 0.3937007874015748,
          "duration": 1.5
        },
        {
          "name": "A4",
          "midi": 69,
          "time": 89.5,
          "velocity": 0.3937007874015748,
          "duration": 0.75
        },
        {
          "name": "A5",
          "midi": 81,
          "time": 90.25,
          "velocity": 0.3937007874015748,
          "duration": 0.5
        },
        {
          "name": "F#5",
          "midi": 78,
          "time": 90.75,
          "velocity": 0.3937007874015748,
          "duration": 0.25
        },
        {
          "name": "E5",
          "midi": 76,
          "time": 92,
          "velocity": 0.3937007874015748,
          "duration": 0.5
        },
        {
          "name": "D5",
          "midi": 74,
          "time": 92.5,
          "velocity": 0.3937007874015748,
          "duration": 0.25
        },
        {
          "name": "C#5",
          "midi": 73,
          "time": 92.75,
          "velocity": 0.3937007874015748,
          "duration": 0.5
        },
        {
          "name": "D5",
          "midi": 74,
          "time": 93.25,
          "velocity": 0.3937007874015748,
          "duration": 0.25
        },
        {
          "name": "E5",
          "midi": 76,
          "time": 94.5,
          "velocity": 0.3937007874015748,
          "duration": 0.75
        },
        {
          "name": "B5",
          "midi": 83,
          "time": 95.25,
          "velocity": 0.3937007874015748,
          "duration": 0.125
        },
        {
          "name": "C#6",
          "midi": 85,
          "time": 95.34375,
          "velocity": 0.3937007874015748,
          "duration": 0.25
        },
        {
          "name": "C6",
          "midi": 84,
          "time": 95.5625,
          "velocity": 0.3937007874015748,
          "duration": 0.25
        },
        {
          "name": "B5",
          "midi": 83,
          "time": 95.8125,
          "velocity": 0.3937007874015748,
          "duration": 0.25
        },
        {
          "name": "A5",
          "midi": 81,
          "time": 96.0625,
          "velocity": 0.3937007874015748,
          "duration": 1.5
        },
        {
          "name": "B4",
          "midi": 71,
          "time": 99.5625,
          "velocity": 0.3937007874015748,
          "duration": 0.75
        },
        {
          "name": "A5",
          "midi": 81,
          "time": 100.3125,
          "velocity": 0.3937007874015748,
          "duration": 0.5
        },
        {
          "name": "F#5",
          "midi": 78,
          "time": 100.8125,
          "velocity": 0.3937007874015748,
          "duration": 0.25
        },
        {
          "name": "E5",
          "midi": 76,
          "time": 102.0625,
          "velocity": 0.3937007874015748,
          "duration": 0.75
        },
        {
          "name": "D5",
          "midi": 74,
          "time": 102.84375,
          "velocity": 0.3937007874015748,
          "duration": 0.25
        },
        {
          "name": "C#5",
          "midi": 73,
          "time": 104.5625,
          "velocity": 0.3937007874015748,
          "duration": 0.75
        },
        {
          "name": "E5",
          "midi": 76,
          "time": 105.3125,
          "velocity": 0.3937007874015748,
          "duration": 0.75
        },
        {
          "name": "E5",
          "midi": 76,
          "time": 107.0625,
          "velocity": 0.3937007874015748,
          "duration": 0.5
        },
        {
          "name": "D5",
          "midi": 74,
          "time": 107.5625,
          "velocity": 0.3937007874015748,
          "duration": 0.25
        },
        {
          "name": "C#5",
          "midi": 73,
          "time": 107.8125,
          "velocity": 0.3937007874015748,
          "duration": 0.5
        },
        {
          "name": "D5",
          "midi": 74,
          "time": 108.3125,
          "velocity": 0.3937007874015748,
          "duration": 0.25
        },
        {
          "name": "A4",
          "midi": 69,
          "time": 109.5625,
          "velocity": 0.3937007874015748,
          "duration": 0.75
        },
        {
          "name": "A5",
          "midi": 81,
          "time": 110.3125,
          "velocity": 0.3937007874015748,
          "duration": 0.5
        },
        {
          "name": "F#5",
          "midi": 78,
          "time": 110.8125,
          "velocity": 0.3937007874015748,
          "duration": 0.25
        },
        {
          "name": "E5",
          "midi": 76,
          "time": 112.0625,
          "velocity": 0.3937007874015748,
          "duration": 0.5
        },
        {
          "name": "D5",
          "midi": 74,
          "time": 112.5625,
          "velocity": 0.3937007874015748,
          "duration": 0.25
        },
        {
          "name": "C#5",
          "midi": 73,
          "time": 112.8125,
          "velocity": 0.3937007874015748,
          "duration": 0.5
        },
        {
          "name": "D5",
          "midi": 74,
          "time": 113.3125,
          "velocity": 0.3937007874015748,
          "duration": 0.25
        },
        {
          "name": "E5",
          "midi": 76,
          "time": 114.5625,
          "velocity": 0.3937007874015748,
          "duration": 0.75
        },
        {
          "name": "B5",
          "midi": 83,
          "time": 115.3125,
          "velocity": 0.3937007874015748,
          "duration": 0.125
        },
        {
          "name": "C#6",
          "midi": 85,
          "time": 115.40625,
          "velocity": 0.3937007874015748,
          "duration": 0.25
        },
        {
          "name": "C6",
          "midi": 84,
          "time": 115.625,
          "velocity": 0.3937007874015748,
          "duration": 0.25
        },
        {
          "name": "B5",
          "midi": 83,
          "time": 115.875,
          "velocity": 0.3937007874015748,
          "duration": 0.25
        },
        {
          "name": "A5",
          "midi": 81,
          "time": 116.125,
          "velocity": 0.3937007874015748,
          "duration": 1.5
        },
        {
          "name": "B4",
          "midi": 71,
          "time": 119.625,
          "velocity": 0.3937007874015748,
          "duration": 0.75
        },
        {
          "name": "A5",
          "midi": 81,
          "time": 120.375,
          "velocity": 0.3937007874015748,
          "duration": 0.5
        },
        {
          "name": "F#5",
          "midi": 78,
          "time": 120.875,
          "velocity": 0.3937007874015748,
          "duration": 0.25
        },
        {
          "name": "E5",
          "midi": 76,
          "time": 122.125,
          "velocity": 0.3937007874015748,
          "duration": 0.75
        },
        {
          "name": "D5",
          "midi": 74,
          "time": 122.90625,
          "velocity": 0.3937007874015748,
          "duration": 0.25
        },
        {
          "name": "C#5",
          "midi": 73,
          "time": 124.625,
          "velocity": 0.3937007874015748,
          "duration": 0.75
        },
        {
          "name": "E5",
          "midi": 76,
          "time": 125.375,
          "velocity": 0.3937007874015748,
          "duration": 0.75
        },
        {
          "name": "E5",
          "midi": 76,
          "time": 127.125,
          "velocity": 0.3937007874015748,
          "duration": 0.5
        },
        {
          "name": "D5",
          "midi": 74,
          "time": 127.625,
          "velocity": 0.3937007874015748,
          "duration": 0.25
        },
        {
          "name": "C#5",
          "midi": 73,
          "time": 127.875,
          "velocity": 0.3937007874015748,
          "duration": 0.5
        },
        {
          "name": "D5",
          "midi": 74,
          "time": 128.375,
          "velocity": 0.3937007874015748,
          "duration": 0.25
        },
        {
          "name": "A4",
          "midi": 69,
          "time": 128.625,
          "velocity": 0.3937007874015748,
          "duration": 0.5
        },
        {
          "name": "D4",
          "midi": 62,
          "time": 129.125,
          "velocity": 0.3937007874015748,
          "duration": 0.25
        },
        {
          "name": "E4",
          "midi": 64,
          "time": 129.375,
          "velocity": 0.3937007874015748,
          "duration": 0.5
        },
        {
          "name": "D4",
          "midi": 62,
          "time": 129.875,
          "velocity": 0.3937007874015748,
          "duration": 0.25
        },
        {
          "name": "D4",
          "midi": 62,
          "time": 130.625,
          "velocity": 0.3937007874015748,
          "duration": 0.25
        },
        {
          "name": "E4",
          "midi": 64,
          "time": 130.875,
          "velocity": 0.3937007874015748,
          "duration": 0.5
        },
        {
          "name": "D4",
          "midi": 62,
          "time": 131.375,
          "velocity": 0.3937007874015748,
          "duration": 0.25
        },
        {
          "name": "D4",
          "midi": 62,
          "time": 132.125,
          "velocity": 0.3937007874015748,
          "duration": 0.25
        },
        {
          "name": "E4",
          "midi": 64,
          "time": 132.375,
          "velocity": 0.3937007874015748,
          "duration": 0.5
        },
        {
          "name": "G4",
          "midi": 67,
          "time": 132.875,
          "velocity": 0.3937007874015748,
          "duration": 0.25
        },
        {
          "name": "F#4",
          "midi": 66,
          "time": 133.125,
          "velocity": 0.3937007874015748,
          "duration": 0.5
        },
        {
          "name": "E4",
          "midi": 64,
          "time": 133.625,
          "velocity": 0.3937007874015748,
          "duration": 0.25
        },
        {
          "name": "D4",
          "midi": 62,
          "time": 133.875,
          "velocity": 0.3937007874015748,
          "duration": 0.5
        },
        {
          "name": "A3",
          "midi": 57,
          "time": 134.375,
          "velocity": 0.3937007874015748,
          "duration": 0.25
        },
        {
          "name": "A4",
          "midi": 69,
          "time": 134.625,
          "velocity": 0.3937007874015748,
          "duration": 0.5
        },
        {
          "name": "D4",
          "midi": 62,
          "time": 135.125,
          "velocity": 0.3937007874015748,
          "duration": 0.25
        },
        {
          "name": "E4",
          "midi": 64,
          "time": 135.375,
          "velocity": 0.3937007874015748,
          "duration": 0.5
        },
        {
          "name": "D4",
          "midi": 62,
          "time": 135.875,
          "velocity": 0.3937007874015748,
          "duration": 0.25
        },
        {
          "name": "D4",
          "midi": 62,
          "time": 136.625,
          "velocity": 0.3937007874015748,
          "duration": 0.25
        },
        {
          "name": "E4",
          "midi": 64,
          "time": 136.875,
          "velocity": 0.3937007874015748,
          "duration": 0.5
        },
        {
          "name": "D4",
          "midi": 62,
          "time": 137.375,
          "velocity": 0.3937007874015748,
          "duration": 0.25
        },
        {
          "name": "D4",
          "midi": 62,
          "time": 138.125,
          "velocity": 0.3937007874015748,
          "duration": 0.25
        },
        {
          "name": "E4",
          "midi": 64,
          "time": 138.375,
          "velocity": 0.3937007874015748,
          "duration": 0.5
        },
        {
          "name": "G4",
          "midi": 67,
          "time": 138.875,
          "velocity": 0.3937007874015748,
          "duration": 0.25
        },
        {
          "name": "F#4",
          "midi": 66,
          "time": 139.125,
          "velocity": 0.3937007874015748,
          "duration": 0.5
        },
        {
          "name": "E4",
          "midi": 64,
          "time": 139.625,
          "velocity": 0.3937007874015748,
          "duration": 0.25
        },
        {
          "name": "D4",
          "midi": 62,
          "time": 139.875,
          "velocity": 0.3937007874015748,
          "duration": 0.5
        },
        {
          "name": "A4",
          "midi": 69,
          "time": 140.625,
          "velocity": 0.3937007874015748,
          "duration": 0.5
        },
        {
          "name": "D4",
          "midi": 62,
          "time": 141.125,
          "velocity": 0.3937007874015748,
          "duration": 0.25
        },
        {
          "name": "E4",
          "midi": 64,
          "time": 141.375,
          "velocity": 0.3937007874015748,
          "duration": 0.5
        },
        {
          "name": "D4",
          "midi": 62,
          "time": 141.875,
          "velocity": 0.3937007874015748,
          "duration": 0.25
        },
        {
          "name": "D4",
          "midi": 62,
          "time": 142.625,
          "velocity": 0.3937007874015748,
          "duration": 0.25
        },
        {
          "name": "E4",
          "midi": 64,
          "time": 142.875,
          "velocity": 0.3937007874015748,
          "duration": 0.5
        },
        {
          "name": "F#4",
          "midi": 66,
          "time": 143.375,
          "velocity": 0.3937007874015748,
          "duration": 0.125
        },
        {
          "name": "E4",
          "midi": 64,
          "time": 143.5,
          "velocity": 0.3937007874015748,
          "duration": 0.125
        },
        {
          "name": "D4",
          "midi": 62,
          "time": 143.625,
          "velocity": 0.3937007874015748,
          "duration": 1.5
        }
      ],
      "controlChanges": {},
      "id": 1,
      "name": "Violin (Classic)",
      "instrumentNumber": 40,
      "instrument": "violin",
      "instrumentFamily": "strings",
      "channelNumber": 1,
      "isPercussion": false
    },
    {
      "startTime": 102.8125,
      "duration": 123.625,
      "length": 4,
      "notes": [
        {
          "name": "E5",
          "midi": 76,
          "time": 102.8125,
          "velocity": 0.3937007874015748,
          "duration": 0.5
        },
        {
          "name": "F#5",
          "midi": 78,
          "time": 103.3125,
          "velocity": 0.3937007874015748,
          "duration": 0.25
        },
        {
          "name": "E5",
          "midi": 76,
          "time": 122.875,
          "velocity": 0.3937007874015748,
          "duration": 0.5
        },
        {
          "name": "F#5",
          "midi": 78,
          "time": 123.375,
          "velocity": 0.3937007874015748,
          "duration": 0.25
        }
      ],
      "controlChanges": {},
      "id": 2,
      "name": "Bass Guitar (Classic)",
      "instrumentNumber": 32,
      "instrument": "acoustic bass",
      "instrumentFamily": "bass",
      "channelNumber": 2,
      "isPercussion": false
    },
    {
      "startTime": 0,
      "duration": 145.125,
      "length": 571,
      "notes": [
        {
          "name": "D4",
          "midi": 62,
          "time": 0,
          "velocity": 0.3937007874015748,
          "duration": 0.25
        },
        {
          "name": "F#4",
          "midi": 66,
          "time": 0.25,
          "velocity": 0.3937007874015748,
          "duration": 0.25
        },
        {
          "name": "A4",
          "midi": 69,
          "time": 0.5,
          "velocity": 0.3937007874015748,
          "duration": 0.25
        },
        {
          "name": "F#4",
          "midi": 66,
          "time": 0.75,
          "velocity": 0.3937007874015748,
          "duration": 0.25
        },
        {
          "name": "A4",
          "midi": 69,
          "time": 1,
          "velocity": 0.3937007874015748,
          "duration": 0.25
        },
        {
          "name": "F#4",
          "midi": 66,
          "time": 1.25,
          "velocity": 0.3937007874015748,
          "duration": 0.25
        },
        {
          "name": "D4",
          "midi": 62,
          "time": 1.5,
          "velocity": 0.3937007874015748,
          "duration": 0.25
        },
        {
          "name": "F#4",
          "midi": 66,
          "time": 1.75,
          "velocity": 0.3937007874015748,
          "duration": 0.25
        },
        {
          "name": "A4",
          "midi": 69,
          "time": 2,
          "velocity": 0.3937007874015748,
          "duration": 0.25
        },
        {
          "name": "F#4",
          "midi": 66,
          "time": 2.25,
          "velocity": 0.3937007874015748,
          "duration": 0.25
        },
        {
          "name": "A4",
          "midi": 69,
          "time": 2.5,
          "velocity": 0.3937007874015748,
          "duration": 0.25
        },
        {
          "name": "F#4",
          "midi": 66,
          "time": 2.75,
          "velocity": 0.3937007874015748,
          "duration": 0.25
        },
        {
          "name": "B3",
          "midi": 59,
          "time": 3,
          "velocity": 0.3937007874015748,
          "duration": 0.25
        },
        {
          "name": "D#4",
          "midi": 63,
          "time": 3.25,
          "velocity": 0.3937007874015748,
          "duration": 0.25
        },
        {
          "name": "F#4",
          "midi": 66,
          "time": 3.5,
          "velocity": 0.3937007874015748,
          "duration": 0.25
        },
        {
          "name": "D#4",
          "midi": 63,
          "time": 3.75,
          "velocity": 0.3937007874015748,
          "duration": 0.25
        },
        {
          "name": "F#4",
          "midi": 66,
          "time": 4,
          "velocity": 0.3937007874015748,
          "duration": 0.25
        },
        {
          "name": "D#4",
          "midi": 63,
          "time": 4.25,
          "velocity": 0.3937007874015748,
          "duration": 0.25
        },
        {
          "name": "B3",
          "midi": 59,
          "time": 4.5,
          "velocity": 0.3937007874015748,
          "duration": 0.25
        },
        {
          "name": "D#4",
          "midi": 63,
          "time": 4.75,
          "velocity": 0.3937007874015748,
          "duration": 0.25
        },
        {
          "name": "F#4",
          "midi": 66,
          "time": 5,
          "velocity": 0.3937007874015748,
          "duration": 0.25
        },
        {
          "name": "D#4",
          "midi": 63,
          "time": 5.25,
          "velocity": 0.3937007874015748,
          "duration": 0.25
        },
        {
          "name": "F#4",
          "midi": 66,
          "time": 5.5,
          "velocity": 0.3937007874015748,
          "duration": 0.25
        },
        {
          "name": "D#4",
          "midi": 63,
          "time": 5.75,
          "velocity": 0.3937007874015748,
          "duration": 0.25
        },
        {
          "name": "G3",
          "midi": 55,
          "time": 6,
          "velocity": 0.3937007874015748,
          "duration": 0.25
        },
        {
          "name": "B3",
          "midi": 59,
          "time": 6.25,
          "velocity": 0.3937007874015748,
          "duration": 0.25
        },
        {
          "name": "D4",
          "midi": 62,
          "time": 6.5,
          "velocity": 0.3937007874015748,
          "duration": 0.25
        },
        {
          "name": "B3",
          "midi": 59,
          "time": 6.75,
          "velocity": 0.3937007874015748,
          "duration": 0.25
        },
        {
          "name": "D4",
          "midi": 62,
          "time": 7,
          "velocity": 0.3937007874015748,
          "duration": 0.25
        },
        {
          "name": "B3",
          "midi": 59,
          "time": 7.25,
          "velocity": 0.3937007874015748,
          "duration": 0.25
        },
        {
          "name": "G3",
          "midi": 55,
          "time": 7.5,
          "velocity": 0.3937007874015748,
          "duration": 0.25
        },
        {
          "name": "A#3",
          "midi": 58,
          "time": 7.75,
          "velocity": 0.3937007874015748,
          "duration": 0.25
        },
        {
          "name": "D4",
          "midi": 62,
          "time": 8,
          "velocity": 0.3937007874015748,
          "duration": 0.25
        },
        {
          "name": "A#3",
          "midi": 58,
          "time": 8.25,
          "velocity": 0.3937007874015748,
          "duration": 0.25
        },
        {
          "name": "D4",
          "midi": 62,
          "time": 8.5,
          "velocity": 0.3937007874015748,
          "duration": 0.25
        },
        {
          "name": "A#3",
          "midi": 58,
          "time": 8.75,
          "velocity": 0.3937007874015748,
          "duration": 0.25
        },
        {
          "name": "D4",
          "midi": 62,
          "time": 9,
          "velocity": 0.3937007874015748,
          "duration": 0.25
        },
        {
          "name": "F#4",
          "midi": 66,
          "time": 9.25,
          "velocity": 0.3937007874015748,
          "duration": 0.25
        },
        {
          "name": "A4",
          "midi": 69,
          "time": 9.5,
          "velocity": 0.3937007874015748,
          "duration": 0.25
        },
        {
          "name": "F#4",
          "midi": 66,
          "time": 9.75,
          "velocity": 0.3937007874015748,
          "duration": 0.25
        },
        {
          "name": "A4",
          "midi": 69,
          "time": 10,
          "velocity": 0.3937007874015748,
          "duration": 0.25
        },
        {
          "name": "F#4",
          "midi": 66,
          "time": 10.25,
          "velocity": 0.3937007874015748,
          "duration": 0.25
        },
        {
          "name": "C#4",
          "midi": 61,
          "time": 10.5,
          "velocity": 0.3937007874015748,
          "duration": 0.25
        },
        {
          "name": "E4",
          "midi": 64,
          "time": 10.75,
          "velocity": 0.3937007874015748,
          "duration": 0.25
        },
        {
          "name": "A4",
          "midi": 69,
          "time": 11,
          "velocity": 0.3937007874015748,
          "duration": 0.25
        },
        {
          "name": "E4",
          "midi": 64,
          "time": 11.25,
          "velocity": 0.3937007874015748,
          "duration": 0.25
        },
        {
          "name": "A4",
          "midi": 69,
          "time": 11.5,
          "velocity": 0.3937007874015748,
          "duration": 0.25
        },
        {
          "name": "E4",
          "midi": 64,
          "time": 11.75,
          "velocity": 0.3937007874015748,
          "duration": 0.25
        },
        {
          "name": "D4",
          "midi": 62,
          "time": 12,
          "velocity": 0.3937007874015748,
          "duration": 0.25
        },
        {
          "name": "F#4",
          "midi": 66,
          "time": 12.25,
          "velocity": 0.3937007874015748,
          "duration": 0.25
        },
        {
          "name": "A4",
          "midi": 69,
          "time": 12.5,
          "velocity": 0.3937007874015748,
          "duration": 0.25
        },
        {
          "name": "F#4",
          "midi": 66,
          "time": 12.75,
          "velocity": 0.3937007874015748,
          "duration": 0.25
        },
        {
          "name": "A4",
          "midi": 69,
          "time": 13,
          "velocity": 0.3937007874015748,
          "duration": 0.25
        },
        {
          "name": "F#4",
          "midi": 66,
          "time": 13.25,
          "velocity": 0.3937007874015748,
          "duration": 0.25
        },
        {
          "name": "D4",
          "midi": 62,
          "time": 13.5,
          "velocity": 0.3937007874015748,
          "duration": 0.25
        },
        {
          "name": "F#4",
          "midi": 66,
          "time": 13.75,
          "velocity": 0.3937007874015748,
          "duration": 0.25
        },
        {
          "name": "A4",
          "midi": 69,
          "time": 14,
          "velocity": 0.3937007874015748,
          "duration": 0.25
        },
        {
          "name": "F#4",
          "midi": 66,
          "time": 14.25,
          "velocity": 0.3937007874015748,
          "duration": 0.25
        },
        {
          "name": "A4",
          "midi": 69,
          "time": 14.5,
          "velocity": 0.3937007874015748,
          "duration": 0.25
        },
        {
          "name": "F#4",
          "midi": 66,
          "time": 14.75,
          "velocity": 0.3937007874015748,
          "duration": 0.25
        },
        {
          "name": "B3",
          "midi": 59,
          "time": 15,
          "velocity": 0.3937007874015748,
          "duration": 0.25
        },
        {
          "name": "D#4",
          "midi": 63,
          "time": 15.25,
          "velocity": 0.3937007874015748,
          "duration": 0.25
        },
        {
          "name": "F#4",
          "midi": 66,
          "time": 15.5,
          "velocity": 0.3937007874015748,
          "duration": 0.25
        },
        {
          "name": "D#4",
          "midi": 63,
          "time": 15.75,
          "velocity": 0.3937007874015748,
          "duration": 0.25
        },
        {
          "name": "F#4",
          "midi": 66,
          "time": 16,
          "velocity": 0.3937007874015748,
          "duration": 0.25
        },
        {
          "name": "D#4",
          "midi": 63,
          "time": 16.25,
          "velocity": 0.3937007874015748,
          "duration": 0.25
        },
        {
          "name": "B3",
          "midi": 59,
          "time": 16.5,
          "velocity": 0.3937007874015748,
          "duration": 0.25
        },
        {
          "name": "D#4",
          "midi": 63,
          "time": 16.75,
          "velocity": 0.3937007874015748,
          "duration": 0.25
        },
        {
          "name": "F#4",
          "midi": 66,
          "time": 17,
          "velocity": 0.3937007874015748,
          "duration": 0.25
        },
        {
          "name": "D#4",
          "midi": 63,
          "time": 17.25,
          "velocity": 0.3937007874015748,
          "duration": 0.25
        },
        {
          "name": "F#4",
          "midi": 66,
          "time": 17.5,
          "velocity": 0.3937007874015748,
          "duration": 0.25
        },
        {
          "name": "D#4",
          "midi": 63,
          "time": 17.75,
          "velocity": 0.3937007874015748,
          "duration": 0.25
        },
        {
          "name": "G3",
          "midi": 55,
          "time": 18,
          "velocity": 0.3937007874015748,
          "duration": 0.25
        },
        {
          "name": "B3",
          "midi": 59,
          "time": 18.25,
          "velocity": 0.3937007874015748,
          "duration": 0.25
        },
        {
          "name": "D4",
          "midi": 62,
          "time": 18.5,
          "velocity": 0.3937007874015748,
          "duration": 0.25
        },
        {
          "name": "B3",
          "midi": 59,
          "time": 18.75,
          "velocity": 0.3937007874015748,
          "duration": 0.25
        },
        {
          "name": "D4",
          "midi": 62,
          "time": 19,
          "velocity": 0.3937007874015748,
          "duration": 0.25
        },
        {
          "name": "B3",
          "midi": 59,
          "time": 19.25,
          "velocity": 0.3937007874015748,
          "duration": 0.25
        },
        {
          "name": "G3",
          "midi": 55,
          "time": 19.5,
          "velocity": 0.3937007874015748,
          "duration": 0.25
        },
        {
          "name": "A#3",
          "midi": 58,
          "time": 19.75,
          "velocity": 0.3937007874015748,
          "duration": 0.25
        },
        {
          "name": "D4",
          "midi": 62,
          "time": 20,
          "velocity": 0.3937007874015748,
          "duration": 0.25
        },
        {
          "name": "A#3",
          "midi": 58,
          "time": 20.25,
          "velocity": 0.3937007874015748,
          "duration": 0.25
        },
        {
          "name": "D4",
          "midi": 62,
          "time": 20.5,
          "velocity": 0.3937007874015748,
          "duration": 0.25
        },
        {
          "name": "A#3",
          "midi": 58,
          "time": 20.75,
          "velocity": 0.3937007874015748,
          "duration": 0.25
        },
        {
          "name": "D4",
          "midi": 62,
          "time": 21,
          "velocity": 0.3937007874015748,
          "duration": 0.25
        },
        {
          "name": "F#4",
          "midi": 66,
          "time": 21.25,
          "velocity": 0.3937007874015748,
          "duration": 0.25
        },
        {
          "name": "A4",
          "midi": 69,
          "time": 21.5,
          "velocity": 0.3937007874015748,
          "duration": 0.25
        },
        {
          "name": "F#4",
          "midi": 66,
          "time": 21.75,
          "velocity": 0.3937007874015748,
          "duration": 0.25
        },
        {
          "name": "A4",
          "midi": 69,
          "time": 22,
          "velocity": 0.3937007874015748,
          "duration": 0.25
        },
        {
          "name": "F#4",
          "midi": 66,
          "time": 22.25,
          "velocity": 0.3937007874015748,
          "duration": 0.25
        },
        {
          "name": "C#4",
          "midi": 61,
          "time": 22.5,
          "velocity": 0.3937007874015748,
          "duration": 0.25
        },
        {
          "name": "E4",
          "midi": 64,
          "time": 22.75,
          "velocity": 0.3937007874015748,
          "duration": 0.25
        },
        {
          "name": "A4",
          "midi": 69,
          "time": 23,
          "velocity": 0.3937007874015748,
          "duration": 0.25
        },
        {
          "name": "E4",
          "midi": 64,
          "time": 23.25,
          "velocity": 0.3937007874015748,
          "duration": 0.25
        },
        {
          "name": "A4",
          "midi": 69,
          "time": 23.5,
          "velocity": 0.3937007874015748,
          "duration": 0.25
        },
        {
          "name": "E4",
          "midi": 64,
          "time": 23.75,
          "velocity": 0.3937007874015748,
          "duration": 0.25
        },
        {
          "name": "D4",
          "midi": 62,
          "time": 24,
          "velocity": 0.3937007874015748,
          "duration": 0.25
        },
        {
          "name": "F#4",
          "midi": 66,
          "time": 24.25,
          "velocity": 0.3937007874015748,
          "duration": 0.25
        },
        {
          "name": "A4",
          "midi": 69,
          "time": 24.5,
          "velocity": 0.3937007874015748,
          "duration": 0.25
        },
        {
          "name": "F#4",
          "midi": 66,
          "time": 24.75,
          "velocity": 0.3937007874015748,
          "duration": 0.25
        },
        {
          "name": "A4",
          "midi": 69,
          "time": 25,
          "velocity": 0.3937007874015748,
          "duration": 0.25
        },
        {
          "name": "F#4",
          "midi": 66,
          "time": 25.25,
          "velocity": 0.3937007874015748,
          "duration": 0.25
        },
        {
          "name": "D4",
          "midi": 62,
          "time": 25.5,
          "velocity": 0.3937007874015748,
          "duration": 0.25
        },
        {
          "name": "F#4",
          "midi": 66,
          "time": 25.75,
          "velocity": 0.3937007874015748,
          "duration": 0.25
        },
        {
          "name": "A4",
          "midi": 69,
          "time": 26,
          "velocity": 0.3937007874015748,
          "duration": 0.25
        },
        {
          "name": "F#4",
          "midi": 66,
          "time": 26.25,
          "velocity": 0.3937007874015748,
          "duration": 0.25
        },
        {
          "name": "A4",
          "midi": 69,
          "time": 26.5,
          "velocity": 0.3937007874015748,
          "duration": 0.25
        },
        {
          "name": "F#4",
          "midi": 66,
          "time": 26.75,
          "velocity": 0.3937007874015748,
          "duration": 0.25
        },
        {
          "name": "B3",
          "midi": 59,
          "time": 27,
          "velocity": 0.3937007874015748,
          "duration": 0.25
        },
        {
          "name": "D#4",
          "midi": 63,
          "time": 27.25,
          "velocity": 0.3937007874015748,
          "duration": 0.25
        },
        {
          "name": "F#4",
          "midi": 66,
          "time": 27.5,
          "velocity": 0.3937007874015748,
          "duration": 0.25
        },
        {
          "name": "D#4",
          "midi": 63,
          "time": 27.75,
          "velocity": 0.3937007874015748,
          "duration": 0.25
        },
        {
          "name": "F#4",
          "midi": 66,
          "time": 28,
          "velocity": 0.3937007874015748,
          "duration": 0.25
        },
        {
          "name": "D#4",
          "midi": 63,
          "time": 28.25,
          "velocity": 0.3937007874015748,
          "duration": 0.25
        },
        {
          "name": "B3",
          "midi": 59,
          "time": 28.5,
          "velocity": 0.3937007874015748,
          "duration": 0.25
        },
        {
          "name": "D#4",
          "midi": 63,
          "time": 28.75,
          "velocity": 0.3937007874015748,
          "duration": 0.25
        },
        {
          "name": "F#4",
          "midi": 66,
          "time": 29,
          "velocity": 0.3937007874015748,
          "duration": 0.25
        },
        {
          "name": "D#4",
          "midi": 63,
          "time": 29.25,
          "velocity": 0.3937007874015748,
          "duration": 0.25
        },
        {
          "name": "F#4",
          "midi": 66,
          "time": 29.5,
          "velocity": 0.3937007874015748,
          "duration": 0.25
        },
        {
          "name": "D#4",
          "midi": 63,
          "time": 29.75,
          "velocity": 0.3937007874015748,
          "duration": 0.25
        },
        {
          "name": "G3",
          "midi": 55,
          "time": 30,
          "velocity": 0.3937007874015748,
          "duration": 0.25
        },
        {
          "name": "B3",
          "midi": 59,
          "time": 30.25,
          "velocity": 0.3937007874015748,
          "duration": 0.25
        },
        {
          "name": "D4",
          "midi": 62,
          "time": 30.5,
          "velocity": 0.3937007874015748,
          "duration": 0.25
        },
        {
          "name": "B3",
          "midi": 59,
          "time": 30.75,
          "velocity": 0.3937007874015748,
          "duration": 0.25
        },
        {
          "name": "D4",
          "midi": 62,
          "time": 31,
          "velocity": 0.3937007874015748,
          "duration": 0.25
        },
        {
          "name": "B3",
          "midi": 59,
          "time": 31.25,
          "velocity": 0.3937007874015748,
          "duration": 0.25
        },
        {
          "name": "G3",
          "midi": 55,
          "time": 31.5,
          "velocity": 0.3937007874015748,
          "duration": 0.25
        },
        {
          "name": "A#3",
          "midi": 58,
          "time": 31.75,
          "velocity": 0.3937007874015748,
          "duration": 0.25
        },
        {
          "name": "D4",
          "midi": 62,
          "time": 32,
          "velocity": 0.3937007874015748,
          "duration": 0.25
        },
        {
          "name": "A#3",
          "midi": 58,
          "time": 32.25,
          "velocity": 0.3937007874015748,
          "duration": 0.25
        },
        {
          "name": "D4",
          "midi": 62,
          "time": 32.5,
          "velocity": 0.3937007874015748,
          "duration": 0.25
        },
        {
          "name": "A#3",
          "midi": 58,
          "time": 32.75,
          "velocity": 0.3937007874015748,
          "duration": 0.25
        },
        {
          "name": "D4",
          "midi": 62,
          "time": 33,
          "velocity": 0.3937007874015748,
          "duration": 0.25
        },
        {
          "name": "F#4",
          "midi": 66,
          "time": 33.25,
          "velocity": 0.3937007874015748,
          "duration": 0.25
        },
        {
          "name": "A4",
          "midi": 69,
          "time": 33.5,
          "velocity": 0.3937007874015748,
          "duration": 0.25
        },
        {
          "name": "F#4",
          "midi": 66,
          "time": 33.75,
          "velocity": 0.3937007874015748,
          "duration": 0.25
        },
        {
          "name": "A4",
          "midi": 69,
          "time": 34,
          "velocity": 0.3937007874015748,
          "duration": 0.25
        },
        {
          "name": "F#4",
          "midi": 66,
          "time": 34.25,
          "velocity": 0.3937007874015748,
          "duration": 0.25
        },
        {
          "name": "C#4",
          "midi": 61,
          "time": 34.5,
          "velocity": 0.3937007874015748,
          "duration": 0.25
        },
        {
          "name": "E4",
          "midi": 64,
          "time": 34.75,
          "velocity": 0.3937007874015748,
          "duration": 0.25
        },
        {
          "name": "A4",
          "midi": 69,
          "time": 35,
          "velocity": 0.3937007874015748,
          "duration": 0.25
        },
        {
          "name": "E4",
          "midi": 64,
          "time": 35.25,
          "velocity": 0.3937007874015748,
          "duration": 0.25
        },
        {
          "name": "A4",
          "midi": 69,
          "time": 35.5,
          "velocity": 0.3937007874015748,
          "duration": 0.25
        },
        {
          "name": "E4",
          "midi": 64,
          "time": 35.75,
          "velocity": 0.3937007874015748,
          "duration": 0.25
        },
        {
          "name": "G3",
          "midi": 55,
          "time": 36,
          "velocity": 0.3937007874015748,
          "duration": 0.25
        },
        {
          "name": "A#3",
          "midi": 58,
          "time": 36.25,
          "velocity": 0.3937007874015748,
          "duration": 0.25
        },
        {
          "name": "D4",
          "midi": 62,
          "time": 36.5,
          "velocity": 0.3937007874015748,
          "duration": 0.25
        },
        {
          "name": "A#3",
          "midi": 58,
          "time": 36.75,
          "velocity": 0.3937007874015748,
          "duration": 0.25
        },
        {
          "name": "D4",
          "midi": 62,
          "time": 37,
          "velocity": 0.3937007874015748,
          "duration": 0.25
        },
        {
          "name": "A#3",
          "midi": 58,
          "time": 37.25,
          "velocity": 0.3937007874015748,
          "duration": 0.25
        },
        {
          "name": "D4",
          "midi": 62,
          "time": 37.5,
          "velocity": 0.3937007874015748,
          "duration": 0.25
        },
        {
          "name": "F#4",
          "midi": 66,
          "time": 37.75,
          "velocity": 0.3937007874015748,
          "duration": 0.25
        },
        {
          "name": "A4",
          "midi": 69,
          "time": 38,
          "velocity": 0.3937007874015748,
          "duration": 0.25
        },
        {
          "name": "F#4",
          "midi": 66,
          "time": 38.25,
          "velocity": 0.3937007874015748,
          "duration": 0.25
        },
        {
          "name": "A4",
          "midi": 69,
          "time": 38.5,
          "velocity": 0.3937007874015748,
          "duration": 0.25
        },
        {
          "name": "F#4",
          "midi": 66,
          "time": 38.75,
          "velocity": 0.3937007874015748,
          "duration": 0.25
        },
        {
          "name": "D4",
          "midi": 62,
          "time": 39,
          "velocity": 0.3937007874015748,
          "duration": 0.25
        },
        {
          "name": "F#4",
          "midi": 66,
          "time": 39.25,
          "velocity": 0.3937007874015748,
          "duration": 0.25
        },
        {
          "name": "A4",
          "midi": 69,
          "time": 39.5,
          "velocity": 0.3937007874015748,
          "duration": 0.25
        },
        {
          "name": "F#4",
          "midi": 66,
          "time": 39.75,
          "velocity": 0.3937007874015748,
          "duration": 0.25
        },
        {
          "name": "A4",
          "midi": 69,
          "time": 40,
          "velocity": 0.3937007874015748,
          "duration": 0.25
        },
        {
          "name": "F#4",
          "midi": 66,
          "time": 40.25,
          "velocity": 0.3937007874015748,
          "duration": 0.25
        },
        {
          "name": "G4",
          "midi": 67,
          "time": 40.5,
          "velocity": 0.3937007874015748,
          "duration": 0.25
        },
        {
          "name": "D4",
          "midi": 62,
          "time": 40.75,
          "velocity": 0.3937007874015748,
          "duration": 0.25
        },
        {
          "name": "G4",
          "midi": 67,
          "time": 41,
          "velocity": 0.3937007874015748,
          "duration": 0.25
        },
        {
          "name": "D4",
          "midi": 62,
          "time": 41.25,
          "velocity": 0.3937007874015748,
          "duration": 0.25
        },
        {
          "name": "G4",
          "midi": 67,
          "time": 41.5,
          "velocity": 0.3937007874015748,
          "duration": 0.25
        },
        {
          "name": "F#4",
          "midi": 66,
          "time": 41.75,
          "velocity": 0.3937007874015748,
          "duration": 0.25
        },
        {
          "name": "E4",
          "midi": 64,
          "time": 42,
          "velocity": 0.3937007874015748,
          "duration": 0.25
        },
        {
          "name": "C#4",
          "midi": 61,
          "time": 42.25,
          "velocity": 0.3937007874015748,
          "duration": 0.25
        },
        {
          "name": "F#4",
          "midi": 66,
          "time": 42.5,
          "velocity": 0.3937007874015748,
          "duration": 0.25
        },
        {
          "name": "A3",
          "midi": 57,
          "time": 42.75,
          "velocity": 0.3937007874015748,
          "duration": 0.25
        },
        {
          "name": "B3",
          "midi": 59,
          "time": 43,
          "velocity": 0.3937007874015748,
          "duration": 0.25
        },
        {
          "name": "C#4",
          "midi": 61,
          "time": 43.25,
          "velocity": 0.3937007874015748,
          "duration": 0.25
        },
        {
          "name": "E4",
          "midi": 64,
          "time": 43.5,
          "velocity": 0.3937007874015748,
          "duration": 0.25
        },
        {
          "name": "F#4",
          "midi": 66,
          "time": 43.75,
          "velocity": 0.3937007874015748,
          "duration": 0.25
        },
        {
          "name": "C#4",
          "midi": 61,
          "time": 44,
          "velocity": 0.3937007874015748,
          "duration": 0.25
        },
        {
          "name": "F#4",
          "midi": 66,
          "time": 44.25,
          "velocity": 0.3937007874015748,
          "duration": 0.25
        },
        {
          "name": "C#4",
          "midi": 61,
          "time": 44.5,
          "velocity": 0.3937007874015748,
          "duration": 0.25
        },
        {
          "name": "G3",
          "midi": 55,
          "time": 44.75,
          "velocity": 0.3937007874015748,
          "duration": 0.25
        },
        {
          "name": "A3",
          "midi": 57,
          "time": 45,
          "velocity": 0.3937007874015748,
          "duration": 0.25
        },
        {
          "name": "C#4",
          "midi": 61,
          "time": 45.25,
          "velocity": 0.3937007874015748,
          "duration": 0.25
        },
        {
          "name": "A4",
          "midi": 69,
          "time": 45.5,
          "velocity": 0.3937007874015748,
          "duration": 0.25
        },
        {
          "name": "D4",
          "midi": 62,
          "time": 45.75,
          "velocity": 0.3937007874015748,
          "duration": 0.25
        },
        {
          "name": "G4",
          "midi": 67,
          "time": 46,
          "velocity": 0.3937007874015748,
          "duration": 0.25
        },
        {
          "name": "F#4",
          "midi": 66,
          "time": 46.25,
          "velocity": 0.3937007874015748,
          "duration": 0.25
        },
        {
          "name": "B3",
          "midi": 59,
          "time": 46.5,
          "velocity": 0.3937007874015748,
          "duration": 0.25
        },
        {
          "name": "D4",
          "midi": 62,
          "time": 46.75,
          "velocity": 0.3937007874015748,
          "duration": 0.25
        },
        {
          "name": "F#4",
          "midi": 66,
          "time": 47,
          "velocity": 0.3937007874015748,
          "duration": 0.25
        },
        {
          "name": "D4",
          "midi": 62,
          "time": 47.25,
          "velocity": 0.3937007874015748,
          "duration": 0.25
        },
        {
          "name": "F#4",
          "midi": 66,
          "time": 47.5,
          "velocity": 0.3937007874015748,
          "duration": 0.25
        },
        {
          "name": "B3",
          "midi": 59,
          "time": 47.75,
          "velocity": 0.3937007874015748,
          "duration": 0.25
        },
        {
          "name": "A3",
          "midi": 57,
          "time": 48,
          "velocity": 0.3937007874015748,
          "duration": 0.25
        },
        {
          "name": "C#4",
          "midi": 61,
          "time": 48.25,
          "velocity": 0.3937007874015748,
          "duration": 0.25
        },
        {
          "name": "E4",
          "midi": 64,
          "time": 48.5,
          "velocity": 0.3937007874015748,
          "duration": 0.25
        },
        {
          "name": "C#4",
          "midi": 61,
          "time": 48.75,
          "velocity": 0.3937007874015748,
          "duration": 0.25
        },
        {
          "name": "F#4",
          "midi": 66,
          "time": 49,
          "velocity": 0.3937007874015748,
          "duration": 0.25
        },
        {
          "name": "A#4",
          "midi": 70,
          "time": 49.25,
          "velocity": 0.3937007874015748,
          "duration": 0.25
        },
        {
          "name": "B4",
          "midi": 71,
          "time": 49.5,
          "velocity": 0.3937007874015748,
          "duration": 0.25
        },
        {
          "name": "F#4",
          "midi": 66,
          "time": 49.75,
          "velocity": 0.3937007874015748,
          "duration": 0.25
        },
        {
          "name": "E4",
          "midi": 64,
          "time": 50,
          "velocity": 0.3937007874015748,
          "duration": 0.25
        },
        {
          "name": "B3",
          "midi": 59,
          "time": 50.25,
          "velocity": 0.3937007874015748,
          "duration": 0.25
        },
        {
          "name": "D4",
          "midi": 62,
          "time": 50.5,
          "velocity": 0.3937007874015748,
          "duration": 0.25
        },
        {
          "name": "G4",
          "midi": 67,
          "time": 50.75,
          "velocity": 0.3937007874015748,
          "duration": 0.25
        },
        {
          "name": "A4",
          "midi": 69,
          "time": 51,
          "velocity": 0.3937007874015748,
          "duration": 0.25
        },
        {
          "name": "F#4",
          "midi": 66,
          "time": 51.25,
          "velocity": 0.3937007874015748,
          "duration": 0.25
        },
        {
          "name": "E4",
          "midi": 64,
          "time": 51.5,
          "velocity": 0.3937007874015748,
          "duration": 0.25
        },
        {
          "name": "D4",
          "midi": 62,
          "time": 51.75,
          "velocity": 0.3937007874015748,
          "duration": 0.25
        },
        {
          "name": "E4",
          "midi": 64,
          "time": 52,
          "velocity": 0.3937007874015748,
          "duration": 0.25
        },
        {
          "name": "F#4",
          "midi": 66,
          "time": 52.25,
          "velocity": 0.3937007874015748,
          "duration": 0.25
        },
        {
          "name": "G4",
          "midi": 67,
          "time": 52.5,
          "velocity": 0.3937007874015748,
          "duration": 0.25
        },
        {
          "name": "D4",
          "midi": 62,
          "time": 52.75,
          "velocity": 0.3937007874015748,
          "duration": 0.25
        },
        {
          "name": "G4",
          "midi": 67,
          "time": 53,
          "velocity": 0.3937007874015748,
          "duration": 0.25
        },
        {
          "name": "D4",
          "midi": 62,
          "time": 53.25,
          "velocity": 0.3937007874015748,
          "duration": 0.25
        },
        {
          "name": "G4",
          "midi": 67,
          "time": 53.5,
          "velocity": 0.3937007874015748,
          "duration": 0.25
        },
        {
          "name": "F#4",
          "midi": 66,
          "time": 53.75,
          "velocity": 0.3937007874015748,
          "duration": 0.25
        },
        {
          "name": "E4",
          "midi": 64,
          "time": 54,
          "velocity": 0.3937007874015748,
          "duration": 0.25
        },
        {
          "name": "C#4",
          "midi": 61,
          "time": 54.25,
          "velocity": 0.3937007874015748,
          "duration": 0.25
        },
        {
          "name": "F#4",
          "midi": 66,
          "time": 54.5,
          "velocity": 0.3937007874015748,
          "duration": 0.25
        },
        {
          "name": "A3",
          "midi": 57,
          "time": 54.75,
          "velocity": 0.3937007874015748,
          "duration": 0.25
        },
        {
          "name": "B3",
          "midi": 59,
          "time": 55,
          "velocity": 0.3937007874015748,
          "duration": 0.25
        },
        {
          "name": "C#4",
          "midi": 61,
          "time": 55.25,
          "velocity": 0.3937007874015748,
          "duration": 0.25
        },
        {
          "name": "E4",
          "midi": 64,
          "time": 55.5,
          "velocity": 0.3937007874015748,
          "duration": 0.25
        },
        {
          "name": "F#4",
          "midi": 66,
          "time": 55.75,
          "velocity": 0.3937007874015748,
          "duration": 0.25
        },
        {
          "name": "C#4",
          "midi": 61,
          "time": 56,
          "velocity": 0.3937007874015748,
          "duration": 0.25
        },
        {
          "name": "F#4",
          "midi": 66,
          "time": 56.25,
          "velocity": 0.3937007874015748,
          "duration": 0.25
        },
        {
          "name": "C#4",
          "midi": 61,
          "time": 56.5,
          "velocity": 0.3937007874015748,
          "duration": 0.25
        },
        {
          "name": "G3",
          "midi": 55,
          "time": 56.75,
          "velocity": 0.3937007874015748,
          "duration": 0.25
        },
        {
          "name": "A3",
          "midi": 57,
          "time": 57,
          "velocity": 0.3937007874015748,
          "duration": 0.25
        },
        {
          "name": "C#4",
          "midi": 61,
          "time": 57.25,
          "velocity": 0.3937007874015748,
          "duration": 0.25
        },
        {
          "name": "A4",
          "midi": 69,
          "time": 57.5,
          "velocity": 0.3937007874015748,
          "duration": 0.25
        },
        {
          "name": "D4",
          "midi": 62,
          "time": 57.75,
          "velocity": 0.3937007874015748,
          "duration": 0.25
        },
        {
          "name": "G4",
          "midi": 67,
          "time": 58,
          "velocity": 0.3937007874015748,
          "duration": 0.25
        },
        {
          "name": "F#4",
          "midi": 66,
          "time": 58.25,
          "velocity": 0.3937007874015748,
          "duration": 0.25
        },
        {
          "name": "B3",
          "midi": 59,
          "time": 58.5,
          "velocity": 0.3937007874015748,
          "duration": 0.25
        },
        {
          "name": "D4",
          "midi": 62,
          "time": 58.75,
          "velocity": 0.3937007874015748,
          "duration": 0.25
        },
        {
          "name": "F#4",
          "midi": 66,
          "time": 59,
          "velocity": 0.3937007874015748,
          "duration": 0.25
        },
        {
          "name": "D4",
          "midi": 62,
          "time": 59.25,
          "velocity": 0.3937007874015748,
          "duration": 0.25
        },
        {
          "name": "F#4",
          "midi": 66,
          "time": 59.5,
          "velocity": 0.3937007874015748,
          "duration": 0.25
        },
        {
          "name": "B3",
          "midi": 59,
          "time": 59.75,
          "velocity": 0.3937007874015748,
          "duration": 0.25
        },
        {
          "name": "A3",
          "midi": 57,
          "time": 60,
          "velocity": 0.3937007874015748,
          "duration": 0.25
        },
        {
          "name": "C#4",
          "midi": 61,
          "time": 60.25,
          "velocity": 0.3937007874015748,
          "duration": 0.25
        },
        {
          "name": "E4",
          "midi": 64,
          "time": 60.5,
          "velocity": 0.3937007874015748,
          "duration": 0.25
        },
        {
          "name": "C#4",
          "midi": 61,
          "time": 60.75,
          "velocity": 0.3937007874015748,
          "duration": 0.25
        },
        {
          "name": "F#4",
          "midi": 66,
          "time": 61,
          "velocity": 0.3937007874015748,
          "duration": 0.25
        },
        {
          "name": "A#4",
          "midi": 70,
          "time": 61.25,
          "velocity": 0.3937007874015748,
          "duration": 0.25
        },
        {
          "name": "B4",
          "midi": 71,
          "time": 61.5,
          "velocity": 0.3937007874015748,
          "duration": 0.25
        },
        {
          "name": "F#4",
          "midi": 66,
          "time": 61.75,
          "velocity": 0.3937007874015748,
          "duration": 0.25
        },
        {
          "name": "B4",
          "midi": 71,
          "time": 62,
          "velocity": 0.3937007874015748,
          "duration": 0.25
        },
        {
          "name": "F#4",
          "midi": 66,
          "time": 62.25,
          "velocity": 0.3937007874015748,
          "duration": 0.25
        },
        {
          "name": "B4",
          "midi": 71,
          "time": 62.5,
          "velocity": 0.3937007874015748,
          "duration": 0.25
        },
        {
          "name": "F#4",
          "midi": 66,
          "time": 62.75,
          "velocity": 0.3937007874015748,
          "duration": 0.25
        },
        {
          "name": "C#4",
          "midi": 61,
          "time": 63,
          "velocity": 0.3937007874015748,
          "duration": 0.25
        },
        {
          "name": "E4",
          "midi": 64,
          "time": 63.25,
          "velocity": 0.3937007874015748,
          "duration": 0.25
        },
        {
          "name": "A4",
          "midi": 69,
          "time": 63.5,
          "velocity": 0.3937007874015748,
          "duration": 0.25
        },
        {
          "name": "E4",
          "midi": 64,
          "time": 63.75,
          "velocity": 0.3937007874015748,
          "duration": 0.25
        },
        {
          "name": "A4",
          "midi": 69,
          "time": 64,
          "velocity": 0.3937007874015748,
          "duration": 0.25
        },
        {
          "name": "E4",
          "midi": 64,
          "time": 64.25,
          "velocity": 0.3937007874015748,
          "duration": 0.25
        },
        {
          "name": "D4",
          "midi": 62,
          "time": 64.5,
          "velocity": 0.3937007874015748,
          "duration": 0.25
        },
        {
          "name": "A4",
          "midi": 69,
          "time": 64.75,
          "velocity": 0.3937007874015748,
          "duration": 0.25
        },
        {
          "name": "F#4",
          "midi": 66,
          "time": 64.75,
          "velocity": 0.3937007874015748,
          "duration": 0.25
        },
        {
          "name": "A4",
          "midi": 69,
          "time": 65,
          "velocity": 0.3937007874015748,
          "duration": 0.25
        },
        {
          "name": "F#4",
          "midi": 66,
          "time": 65,
          "velocity": 0.3937007874015748,
          "duration": 0.25
        },
        {
          "name": "D4",
          "midi": 62,
          "time": 65.25,
          "velocity": 0.3937007874015748,
          "duration": 0.25
        },
        {
          "name": "A4",
          "midi": 69,
          "time": 65.5,
          "velocity": 0.3937007874015748,
          "duration": 0.25
        },
        {
          "name": "F#4",
          "midi": 66,
          "time": 65.5,
          "velocity": 0.3937007874015748,
          "duration": 0.25
        },
        {
          "name": "A4",
          "midi": 69,
          "time": 65.75,
          "velocity": 0.3937007874015748,
          "duration": 0.25
        },
        {
          "name": "F#4",
          "midi": 66,
          "time": 65.75,
          "velocity": 0.3937007874015748,
          "duration": 0.25
        },
        {
          "name": "C#4",
          "midi": 61,
          "time": 66,
          "velocity": 0.3937007874015748,
          "duration": 0.25
        },
        {
          "name": "A4",
          "midi": 69,
          "time": 66.25,
          "velocity": 0.3937007874015748,
          "duration": 0.25
        },
        {
          "name": "E4",
          "midi": 64,
          "time": 66.25,
          "velocity": 0.3937007874015748,
          "duration": 0.25
        },
        {
          "name": "A4",
          "midi": 69,
          "time": 66.5,
          "velocity": 0.3937007874015748,
          "duration": 0.25
        },
        {
          "name": "E4",
          "midi": 64,
          "time": 66.5,
          "velocity": 0.3937007874015748,
          "duration": 0.25
        },
        {
          "name": "C#4",
          "midi": 61,
          "time": 66.75,
          "velocity": 0.3937007874015748,
          "duration": 0.25
        },
        {
          "name": "A4",
          "midi": 69,
          "time": 67,
          "velocity": 0.3937007874015748,
          "duration": 0.25
        },
        {
          "name": "E4",
          "midi": 64,
          "time": 67,
          "velocity": 0.3937007874015748,
          "duration": 0.25
        },
        {
          "name": "A4",
          "midi": 69,
          "time": 67.25,
          "velocity": 0.3937007874015748,
          "duration": 0.25
        },
        {
          "name": "E4",
          "midi": 64,
          "time": 67.25,
          "velocity": 0.3937007874015748,
          "duration": 0.25
        },
        {
          "name": "B3",
          "midi": 59,
          "time": 67.5,
          "velocity": 0.3937007874015748,
          "duration": 0.25
        },
        {
          "name": "F#4",
          "midi": 66,
          "time": 67.75,
          "velocity": 0.3937007874015748,
          "duration": 0.25
        },
        {
          "name": "D4",
          "midi": 62,
          "time": 67.75,
          "velocity": 0.3937007874015748,
          "duration": 0.25
        },
        {
          "name": "F#4",
          "midi": 66,
          "time": 68,
          "velocity": 0.3937007874015748,
          "duration": 0.25
        },
        {
          "name": "D4",
          "midi": 62,
          "time": 68,
          "velocity": 0.3937007874015748,
          "duration": 0.25
        },
        {
          "name": "B3",
          "midi": 59,
          "time": 68.25,
          "velocity": 0.3937007874015748,
          "duration": 0.25
        },
        {
          "name": "F#4",
          "midi": 66,
          "time": 68.5,
          "velocity": 0.3937007874015748,
          "duration": 0.25
        },
        {
          "name": "D4",
          "midi": 62,
          "time": 68.5,
          "velocity": 0.3937007874015748,
          "duration": 0.25
        },
        {
          "name": "F#4",
          "midi": 66,
          "time": 68.75,
          "velocity": 0.3937007874015748,
          "duration": 0.25
        },
        {
          "name": "D4",
          "midi": 62,
          "time": 68.75,
          "velocity": 0.3937007874015748,
          "duration": 0.25
        },
        {
          "name": "A3",
          "midi": 57,
          "time": 69,
          "velocity": 0.3937007874015748,
          "duration": 0.25
        },
        {
          "name": "E4",
          "midi": 64,
          "time": 69.25,
          "velocity": 0.3937007874015748,
          "duration": 0.25
        },
        {
          "name": "C#4",
          "midi": 61,
          "time": 69.25,
          "velocity": 0.3937007874015748,
          "duration": 0.25
        },
        {
          "name": "E4",
          "midi": 64,
          "time": 69.5,
          "velocity": 0.3937007874015748,
          "duration": 0.25
        },
        {
          "name": "C#4",
          "midi": 61,
          "time": 69.5,
          "velocity": 0.3937007874015748,
          "duration": 0.25
        },
        {
          "name": "A3",
          "midi": 57,
          "time": 69.75,
          "velocity": 0.3937007874015748,
          "duration": 0.25
        },
        {
          "name": "E4",
          "midi": 64,
          "time": 70,
          "velocity": 0.3937007874015748,
          "duration": 0.25
        },
        {
          "name": "C#4",
          "midi": 61,
          "time": 70,
          "velocity": 0.3937007874015748,
          "duration": 0.25
        },
        {
          "name": "E4",
          "midi": 64,
          "time": 70.25,
          "velocity": 0.3937007874015748,
          "duration": 0.25
        },
        {
          "name": "C#4",
          "midi": 61,
          "time": 70.25,
          "velocity": 0.3937007874015748,
          "duration": 0.25
        },
        {
          "name": "G3",
          "midi": 55,
          "time": 70.5,
          "velocity": 0.3937007874015748,
          "duration": 0.25
        },
        {
          "name": "D4",
          "midi": 62,
          "time": 70.75,
          "velocity": 0.3937007874015748,
          "duration": 0.25
        },
        {
          "name": "B3",
          "midi": 59,
          "time": 70.75,
          "velocity": 0.3937007874015748,
          "duration": 0.25
        },
        {
          "name": "D4",
          "midi": 62,
          "time": 71,
          "velocity": 0.3937007874015748,
          "duration": 0.25
        },
        {
          "name": "B3",
          "midi": 59,
          "time": 71,
          "velocity": 0.3937007874015748,
          "duration": 0.25
        },
        {
          "name": "G3",
          "midi": 55,
          "time": 71.25,
          "velocity": 0.3937007874015748,
          "duration": 0.25
        },
        {
          "name": "D4",
          "midi": 62,
          "time": 71.5,
          "velocity": 0.3937007874015748,
          "duration": 0.25
        },
        {
          "name": "B3",
          "midi": 59,
          "time": 71.5,
          "velocity": 0.3937007874015748,
          "duration": 0.25
        },
        {
          "name": "D4",
          "midi": 62,
          "time": 71.75,
          "velocity": 0.3937007874015748,
          "duration": 0.25
        },
        {
          "name": "B3",
          "midi": 59,
          "time": 71.75,
          "velocity": 0.3937007874015748,
          "duration": 0.25
        },
        {
          "name": "F#3",
          "midi": 54,
          "time": 72,
          "velocity": 0.3937007874015748,
          "duration": 0.25
        },
        {
          "name": "D4",
          "midi": 62,
          "time": 72.25,
          "velocity": 0.3937007874015748,
          "duration": 0.25
        },
        {
          "name": "A3",
          "midi": 57,
          "time": 72.25,
          "velocity": 0.3937007874015748,
          "duration": 0.25
        },
        {
          "name": "D4",
          "midi": 62,
          "time": 72.5,
          "velocity": 0.3937007874015748,
          "duration": 0.25
        },
        {
          "name": "A3",
          "midi": 57,
          "time": 72.5,
          "velocity": 0.3937007874015748,
          "duration": 0.25
        },
        {
          "name": "F#3",
          "midi": 54,
          "time": 72.75,
          "velocity": 0.3937007874015748,
          "duration": 0.25
        },
        {
          "name": "D4",
          "midi": 62,
          "time": 73,
          "velocity": 0.3937007874015748,
          "duration": 0.25
        },
        {
          "name": "A3",
          "midi": 57,
          "time": 73,
          "velocity": 0.3937007874015748,
          "duration": 0.25
        },
        {
          "name": "D4",
          "midi": 62,
          "time": 73.25,
          "velocity": 0.3937007874015748,
          "duration": 0.25
        },
        {
          "name": "A3",
          "midi": 57,
          "time": 73.25,
          "velocity": 0.3937007874015748,
          "duration": 0.25
        },
        {
          "name": "E3",
          "midi": 52,
          "time": 73.5,
          "velocity": 0.3937007874015748,
          "duration": 0.25
        },
        {
          "name": "B3",
          "midi": 59,
          "time": 73.75,
          "velocity": 0.3937007874015748,
          "duration": 0.25
        },
        {
          "name": "G3",
          "midi": 55,
          "time": 73.75,
          "velocity": 0.3937007874015748,
          "duration": 0.25
        },
        {
          "name": "B3",
          "midi": 59,
          "time": 74,
          "velocity": 0.3937007874015748,
          "duration": 0.25
        },
        {
          "name": "G3",
          "midi": 55,
          "time": 74,
          "velocity": 0.3937007874015748,
          "duration": 0.25
        },
        {
          "name": "E3",
          "midi": 52,
          "time": 74.25,
          "velocity": 0.3937007874015748,
          "duration": 0.25
        },
        {
          "name": "B3",
          "midi": 59,
          "time": 74.5,
          "velocity": 0.3937007874015748,
          "duration": 0.25
        },
        {
          "name": "G3",
          "midi": 55,
          "time": 74.5,
          "velocity": 0.3937007874015748,
          "duration": 0.25
        },
        {
          "name": "B3",
          "midi": 59,
          "time": 74.75,
          "velocity": 0.3937007874015748,
          "duration": 0.25
        },
        {
          "name": "G3",
          "midi": 55,
          "time": 74.75,
          "velocity": 0.3937007874015748,
          "duration": 0.25
        },
        {
          "name": "A3",
          "midi": 57,
          "time": 75,
          "velocity": 0.3937007874015748,
          "duration": 0.25
        },
        {
          "name": "E4",
          "midi": 64,
          "time": 75.25,
          "velocity": 0.3937007874015748,
          "duration": 0.25
        },
        {
          "name": "C#4",
          "midi": 61,
          "time": 75.25,
          "velocity": 0.3937007874015748,
          "duration": 0.25
        },
        {
          "name": "E4",
          "midi": 64,
          "time": 75.5,
          "velocity": 0.3937007874015748,
          "duration": 0.25
        },
        {
          "name": "C#4",
          "midi": 61,
          "time": 75.5,
          "velocity": 0.3937007874015748,
          "duration": 0.25
        },
        {
          "name": "A3",
          "midi": 57,
          "time": 75.75,
          "velocity": 0.3937007874015748,
          "duration": 0.25
        },
        {
          "name": "E4",
          "midi": 64,
          "time": 76,
          "velocity": 0.3937007874015748,
          "duration": 0.25
        },
        {
          "name": "C#4",
          "midi": 61,
          "time": 76,
          "velocity": 0.3937007874015748,
          "duration": 0.25
        },
        {
          "name": "E4",
          "midi": 64,
          "time": 76.25,
          "velocity": 0.3937007874015748,
          "duration": 0.25
        },
        {
          "name": "C#4",
          "midi": 61,
          "time": 76.25,
          "velocity": 0.3937007874015748,
          "duration": 0.25
        },
        {
          "name": "D4",
          "midi": 62,
          "time": 76.5,
          "velocity": 0.3937007874015748,
          "duration": 0.25
        },
        {
          "name": "A4",
          "midi": 69,
          "time": 76.75,
          "velocity": 0.3937007874015748,
          "duration": 0.25
        },
        {
          "name": "F#4",
          "midi": 66,
          "time": 76.75,
          "velocity": 0.3937007874015748,
          "duration": 0.25
        },
        {
          "name": "A4",
          "midi": 69,
          "time": 77,
          "velocity": 0.3937007874015748,
          "duration": 0.25
        },
        {
          "name": "F#4",
          "midi": 66,
          "time": 77,
          "velocity": 0.3937007874015748,
          "duration": 0.25
        },
        {
          "name": "D4",
          "midi": 62,
          "time": 77.25,
          "velocity": 0.3937007874015748,
          "duration": 0.25
        },
        {
          "name": "A4",
          "midi": 69,
          "time": 77.5,
          "velocity": 0.3937007874015748,
          "duration": 0.25
        },
        {
          "name": "F#4",
          "midi": 66,
          "time": 77.5,
          "velocity": 0.3937007874015748,
          "duration": 0.25
        },
        {
          "name": "A4",
          "midi": 69,
          "time": 77.75,
          "velocity": 0.3937007874015748,
          "duration": 0.25
        },
        {
          "name": "F#4",
          "midi": 66,
          "time": 77.75,
          "velocity": 0.3937007874015748,
          "duration": 0.25
        },
        {
          "name": "C#4",
          "midi": 61,
          "time": 78,
          "velocity": 0.3937007874015748,
          "duration": 0.25
        },
        {
          "name": "A4",
          "midi": 69,
          "time": 78.25,
          "velocity": 0.3937007874015748,
          "duration": 0.25
        },
        {
          "name": "E4",
          "midi": 64,
          "time": 78.25,
          "velocity": 0.3937007874015748,
          "duration": 0.25
        },
        {
          "name": "A4",
          "midi": 69,
          "time": 78.5,
          "velocity": 0.3937007874015748,
          "duration": 0.25
        },
        {
          "name": "E4",
          "midi": 64,
          "time": 78.5,
          "velocity": 0.3937007874015748,
          "duration": 0.25
        },
        {
          "name": "C#4",
          "midi": 61,
          "time": 78.75,
          "velocity": 0.3937007874015748,
          "duration": 0.25
        },
        {
          "name": "A4",
          "midi": 69,
          "time": 79,
          "velocity": 0.3937007874015748,
          "duration": 0.25
        },
        {
          "name": "E4",
          "midi": 64,
          "time": 79,
          "velocity": 0.3937007874015748,
          "duration": 0.25
        },
        {
          "name": "A4",
          "midi": 69,
          "time": 79.25,
          "velocity": 0.3937007874015748,
          "duration": 0.25
        },
        {
          "name": "E4",
          "midi": 64,
          "time": 79.25,
          "velocity": 0.3937007874015748,
          "duration": 0.25
        },
        {
          "name": "B3",
          "midi": 59,
          "time": 79.5,
          "velocity": 0.3937007874015748,
          "duration": 0.25
        },
        {
          "name": "F#4",
          "midi": 66,
          "time": 79.75,
          "velocity": 0.3937007874015748,
          "duration": 0.25
        },
        {
          "name": "D4",
          "midi": 62,
          "time": 79.75,
          "velocity": 0.3937007874015748,
          "duration": 0.25
        },
        {
          "name": "F#4",
          "midi": 66,
          "time": 80,
          "velocity": 0.3937007874015748,
          "duration": 0.25
        },
        {
          "name": "D4",
          "midi": 62,
          "time": 80,
          "velocity": 0.3937007874015748,
          "duration": 0.25
        },
        {
          "name": "B3",
          "midi": 59,
          "time": 80.25,
          "velocity": 0.3937007874015748,
          "duration": 0.25
        },
        {
          "name": "F#4",
          "midi": 66,
          "time": 80.5,
          "velocity": 0.3937007874015748,
          "duration": 0.25
        },
        {
          "name": "D4",
          "midi": 62,
          "time": 80.5,
          "velocity": 0.3937007874015748,
          "duration": 0.25
        },
        {
          "name": "F#4",
          "midi": 66,
          "time": 80.75,
          "velocity": 0.3937007874015748,
          "duration": 0.25
        },
        {
          "name": "D4",
          "midi": 62,
          "time": 80.75,
          "velocity": 0.3937007874015748,
          "duration": 0.25
        },
        {
          "name": "A3",
          "midi": 57,
          "time": 81,
          "velocity": 0.3937007874015748,
          "duration": 0.25
        },
        {
          "name": "E4",
          "midi": 64,
          "time": 81.25,
          "velocity": 0.3937007874015748,
          "duration": 0.25
        },
        {
          "name": "C#4",
          "midi": 61,
          "time": 81.25,
          "velocity": 0.3937007874015748,
          "duration": 0.25
        },
        {
          "name": "E4",
          "midi": 64,
          "time": 81.5,
          "velocity": 0.3937007874015748,
          "duration": 0.25
        },
        {
          "name": "C#4",
          "midi": 61,
          "time": 81.5,
          "velocity": 0.3937007874015748,
          "duration": 0.25
        },
        {
          "name": "A3",
          "midi": 57,
          "time": 81.75,
          "velocity": 0.3937007874015748,
          "duration": 0.25
        },
        {
          "name": "E4",
          "midi": 64,
          "time": 82,
          "velocity": 0.3937007874015748,
          "duration": 0.25
        },
        {
          "name": "C#4",
          "midi": 61,
          "time": 82,
          "velocity": 0.3937007874015748,
          "duration": 0.25
        },
        {
          "name": "E4",
          "midi": 64,
          "time": 82.25,
          "velocity": 0.3937007874015748,
          "duration": 0.25
        },
        {
          "name": "C#4",
          "midi": 61,
          "time": 82.25,
          "velocity": 0.3937007874015748,
          "duration": 0.25
        },
        {
          "name": "G3",
          "midi": 55,
          "time": 82.5,
          "velocity": 0.3937007874015748,
          "duration": 0.25
        },
        {
          "name": "D4",
          "midi": 62,
          "time": 82.75,
          "velocity": 0.3937007874015748,
          "duration": 0.25
        },
        {
          "name": "B3",
          "midi": 59,
          "time": 82.75,
          "velocity": 0.3937007874015748,
          "duration": 0.25
        },
        {
          "name": "D4",
          "midi": 62,
          "time": 83,
          "velocity": 0.3937007874015748,
          "duration": 0.25
        },
        {
          "name": "B3",
          "midi": 59,
          "time": 83,
          "velocity": 0.3937007874015748,
          "duration": 0.25
        },
        {
          "name": "G3",
          "midi": 55,
          "time": 83.25,
          "velocity": 0.3937007874015748,
          "duration": 0.25
        },
        {
          "name": "D4",
          "midi": 62,
          "time": 83.5,
          "velocity": 0.3937007874015748,
          "duration": 0.25
        },
        {
          "name": "B3",
          "midi": 59,
          "time": 83.5,
          "velocity": 0.3937007874015748,
          "duration": 0.25
        },
        {
          "name": "D4",
          "midi": 62,
          "time": 83.75,
          "velocity": 0.3937007874015748,
          "duration": 0.25
        },
        {
          "name": "B3",
          "midi": 59,
          "time": 83.75,
          "velocity": 0.3937007874015748,
          "duration": 0.25
        },
        {
          "name": "F#3",
          "midi": 54,
          "time": 84,
          "velocity": 0.3937007874015748,
          "duration": 0.25
        },
        {
          "name": "D4",
          "midi": 62,
          "time": 84.25,
          "velocity": 0.3937007874015748,
          "duration": 0.25
        },
        {
          "name": "A3",
          "midi": 57,
          "time": 84.25,
          "velocity": 0.3937007874015748,
          "duration": 0.25
        },
        {
          "name": "D4",
          "midi": 62,
          "time": 84.5,
          "velocity": 0.3937007874015748,
          "duration": 0.25
        },
        {
          "name": "A3",
          "midi": 57,
          "time": 84.5,
          "velocity": 0.3937007874015748,
          "duration": 0.25
        },
        {
          "name": "F#3",
          "midi": 54,
          "time": 84.75,
          "velocity": 0.3937007874015748,
          "duration": 0.25
        },
        {
          "name": "D4",
          "midi": 62,
          "time": 85,
          "velocity": 0.3937007874015748,
          "duration": 0.25
        },
        {
          "name": "A3",
          "midi": 57,
          "time": 85,
          "velocity": 0.3937007874015748,
          "duration": 0.25
        },
        {
          "name": "D4",
          "midi": 62,
          "time": 85.25,
          "velocity": 0.3937007874015748,
          "duration": 0.25
        },
        {
          "name": "A3",
          "midi": 57,
          "time": 85.25,
          "velocity": 0.3937007874015748,
          "duration": 0.25
        },
        {
          "name": "E3",
          "midi": 52,
          "time": 85.5,
          "velocity": 0.3937007874015748,
          "duration": 0.25
        },
        {
          "name": "B3",
          "midi": 59,
          "time": 85.75,
          "velocity": 0.3937007874015748,
          "duration": 0.25
        },
        {
          "name": "G3",
          "midi": 55,
          "time": 85.75,
          "velocity": 0.3937007874015748,
          "duration": 0.25
        },
        {
          "name": "B3",
          "midi": 59,
          "time": 86,
          "velocity": 0.3937007874015748,
          "duration": 0.25
        },
        {
          "name": "G3",
          "midi": 55,
          "time": 86,
          "velocity": 0.3937007874015748,
          "duration": 0.25
        },
        {
          "name": "E3",
          "midi": 52,
          "time": 86.25,
          "velocity": 0.3937007874015748,
          "duration": 0.25
        },
        {
          "name": "B3",
          "midi": 59,
          "time": 86.5,
          "velocity": 0.3937007874015748,
          "duration": 0.25
        },
        {
          "name": "G3",
          "midi": 55,
          "time": 86.5,
          "velocity": 0.3937007874015748,
          "duration": 0.25
        },
        {
          "name": "B3",
          "midi": 59,
          "time": 86.75,
          "velocity": 0.3937007874015748,
          "duration": 0.25
        },
        {
          "name": "G3",
          "midi": 55,
          "time": 86.75,
          "velocity": 0.3937007874015748,
          "duration": 0.25
        },
        {
          "name": "A3",
          "midi": 57,
          "time": 87,
          "velocity": 0.3937007874015748,
          "duration": 0.25
        },
        {
          "name": "E4",
          "midi": 64,
          "time": 87.25,
          "velocity": 0.3937007874015748,
          "duration": 0.25
        },
        {
          "name": "C#4",
          "midi": 61,
          "time": 87.25,
          "velocity": 0.3937007874015748,
          "duration": 0.25
        },
        {
          "name": "E4",
          "midi": 64,
          "time": 87.5,
          "velocity": 0.3937007874015748,
          "duration": 0.25
        },
        {
          "name": "C#4",
          "midi": 61,
          "time": 87.5,
          "velocity": 0.3937007874015748,
          "duration": 0.25
        },
        {
          "name": "A3",
          "midi": 57,
          "time": 87.75,
          "velocity": 0.3937007874015748,
          "duration": 0.25
        },
        {
          "name": "E4",
          "midi": 64,
          "time": 88,
          "velocity": 0.3937007874015748,
          "duration": 0.25
        },
        {
          "name": "C#4",
          "midi": 61,
          "time": 88,
          "velocity": 0.3937007874015748,
          "duration": 0.25
        },
        {
          "name": "E4",
          "midi": 64,
          "time": 88.25,
          "velocity": 0.3937007874015748,
          "duration": 0.25
        },
        {
          "name": "C#4",
          "midi": 61,
          "time": 88.25,
          "velocity": 0.3937007874015748,
          "duration": 0.25
        },
        {
          "name": "G3",
          "midi": 55,
          "time": 88.5,
          "velocity": 0.3937007874015748,
          "duration": 0.25
        },
        {
          "name": "D4",
          "midi": 62,
          "time": 88.75,
          "velocity": 0.3937007874015748,
          "duration": 0.25
        },
        {
          "name": "B3",
          "midi": 59,
          "time": 88.75,
          "velocity": 0.3937007874015748,
          "duration": 0.25
        },
        {
          "name": "D4",
          "midi": 62,
          "time": 89,
          "velocity": 0.3937007874015748,
          "duration": 0.25
        },
        {
          "name": "B3",
          "midi": 59,
          "time": 89,
          "velocity": 0.3937007874015748,
          "duration": 0.25
        },
        {
          "name": "G3",
          "midi": 55,
          "time": 90.25,
          "velocity": 0.3937007874015748,
          "duration": 0.25
        },
        {
          "name": "D4",
          "midi": 62,
          "time": 90.5,
          "velocity": 0.3937007874015748,
          "duration": 0.25
        },
        {
          "name": "B3",
          "midi": 59,
          "time": 90.5,
          "velocity": 0.3937007874015748,
          "duration": 0.25
        },
        {
          "name": "D4",
          "midi": 62,
          "time": 90.75,
          "velocity": 0.3937007874015748,
          "duration": 0.25
        },
        {
          "name": "B3",
          "midi": 59,
          "time": 90.75,
          "velocity": 0.3937007874015748,
          "duration": 0.25
        },
        {
          "name": "G3",
          "midi": 55,
          "time": 91,
          "velocity": 0.3937007874015748,
          "duration": 0.25
        },
        {
          "name": "D4",
          "midi": 62,
          "time": 91.25,
          "velocity": 0.3937007874015748,
          "duration": 0.25
        },
        {
          "name": "B3",
          "midi": 59,
          "time": 91.25,
          "velocity": 0.3937007874015748,
          "duration": 0.25
        },
        {
          "name": "D4",
          "midi": 62,
          "time": 91.5,
          "velocity": 0.3937007874015748,
          "duration": 0.25
        },
        {
          "name": "B3",
          "midi": 59,
          "time": 91.5,
          "velocity": 0.3937007874015748,
          "duration": 0.25
        },
        {
          "name": "G3",
          "midi": 55,
          "time": 92.75,
          "velocity": 0.3937007874015748,
          "duration": 0.25
        },
        {
          "name": "D4",
          "midi": 62,
          "time": 93,
          "velocity": 0.3937007874015748,
          "duration": 0.25
        },
        {
          "name": "B3",
          "midi": 59,
          "time": 93,
          "velocity": 0.3937007874015748,
          "duration": 0.25
        },
        {
          "name": "D4",
          "midi": 62,
          "time": 93.25,
          "velocity": 0.3937007874015748,
          "duration": 0.25
        },
        {
          "name": "B3",
          "midi": 59,
          "time": 93.25,
          "velocity": 0.3937007874015748,
          "duration": 0.25
        },
        {
          "name": "F#3",
          "midi": 54,
          "time": 93.5,
          "velocity": 0.3937007874015748,
          "duration": 0.25
        },
        {
          "name": "C#4",
          "midi": 61,
          "time": 93.75,
          "velocity": 0.3937007874015748,
          "duration": 0.25
        },
        {
          "name": "A3",
          "midi": 57,
          "time": 93.75,
          "velocity": 0.3937007874015748,
          "duration": 0.25
        },
        {
          "name": "C#4",
          "midi": 61,
          "time": 94,
          "velocity": 0.3937007874015748,
          "duration": 0.25
        },
        {
          "name": "A3",
          "midi": 57,
          "time": 94,
          "velocity": 0.3937007874015748,
          "duration": 0.25
        },
        {
          "name": "F#3",
          "midi": 54,
          "time": 95.25,
          "velocity": 0.3937007874015748,
          "duration": 0.25
        },
        {
          "name": "A3",
          "midi": 57,
          "time": 95.5,
          "velocity": 0.3937007874015748,
          "duration": 0.25
        },
        {
          "name": "C#4",
          "midi": 61,
          "time": 95.5,
          "velocity": 0.3937007874015748,
          "duration": 0.5
        },
        {
          "name": "A3",
          "midi": 57,
          "time": 95.75,
          "velocity": 0.3937007874015748,
          "duration": 0.25
        },
        {
          "name": "F#3",
          "midi": 54,
          "time": 96.0625,
          "velocity": 0.3937007874015748,
          "duration": 0.25
        },
        {
          "name": "A3",
          "midi": 57,
          "time": 96.3125,
          "velocity": 0.3937007874015748,
          "duration": 0.25
        },
        {
          "name": "C#4",
          "midi": 61,
          "time": 96.3125,
          "velocity": 0.3937007874015748,
          "duration": 0.5
        },
        {
          "name": "A3",
          "midi": 57,
          "time": 96.5625,
          "velocity": 0.3937007874015748,
          "duration": 0.25
        },
        {
          "name": "F#3",
          "midi": 54,
          "time": 97.8125,
          "velocity": 0.3937007874015748,
          "duration": 0.25
        },
        {
          "name": "A3",
          "midi": 57,
          "time": 98.0625,
          "velocity": 0.3937007874015748,
          "duration": 0.25
        },
        {
          "name": "C#4",
          "midi": 61,
          "time": 98.0625,
          "velocity": 0.3937007874015748,
          "duration": 0.5
        },
        {
          "name": "A3",
          "midi": 57,
          "time": 98.3125,
          "velocity": 0.3937007874015748,
          "duration": 0.25
        },
        {
          "name": "E3",
          "midi": 52,
          "time": 98.5625,
          "velocity": 0.3937007874015748,
          "duration": 0.25
        },
        {
          "name": "B3",
          "midi": 59,
          "time": 98.8125,
          "velocity": 0.3937007874015748,
          "duration": 0.25
        },
        {
          "name": "G3",
          "midi": 55,
          "time": 98.8125,
          "velocity": 0.3937007874015748,
          "duration": 0.25
        },
        {
          "name": "B3",
          "midi": 59,
          "time": 99.0625,
          "velocity": 0.3937007874015748,
          "duration": 0.25
        },
        {
          "name": "G3",
          "midi": 55,
          "time": 99.0625,
          "velocity": 0.3937007874015748,
          "duration": 0.25
        },
        {
          "name": "E3",
          "midi": 52,
          "time": 100.3125,
          "velocity": 0.3937007874015748,
          "duration": 0.25
        },
        {
          "name": "B3",
          "midi": 59,
          "time": 100.5625,
          "velocity": 0.3937007874015748,
          "duration": 0.25
        },
        {
          "name": "G3",
          "midi": 55,
          "time": 100.5625,
          "velocity": 0.3937007874015748,
          "duration": 0.25
        },
        {
          "name": "B3",
          "midi": 59,
          "time": 100.8125,
          "velocity": 0.3937007874015748,
          "duration": 0.25
        },
        {
          "name": "G3",
          "midi": 55,
          "time": 100.8125,
          "velocity": 0.3937007874015748,
          "duration": 0.25
        },
        {
          "name": "A3",
          "midi": 57,
          "time": 101.0625,
          "velocity": 0.3937007874015748,
          "duration": 0.25
        },
        {
          "name": "C#4",
          "midi": 61,
          "time": 101.3125,
          "velocity": 0.3937007874015748,
          "duration": 0.25
        },
        {
          "name": "E4",
          "midi": 64,
          "time": 101.3125,
          "velocity": 0.3937007874015748,
          "duration": 0.5
        },
        {
          "name": "C#4",
          "midi": 61,
          "time": 101.5625,
          "velocity": 0.3937007874015748,
          "duration": 0.25
        },
        {
          "name": "A#3",
          "midi": 58,
          "time": 103.5625,
          "velocity": 0.3937007874015748,
          "duration": 0.25
        },
        {
          "name": "E4",
          "midi": 64,
          "time": 103.8125,
          "velocity": 0.3937007874015748,
          "duration": 0.25
        },
        {
          "name": "C#4",
          "midi": 61,
          "time": 103.8125,
          "velocity": 0.3937007874015748,
          "duration": 0.25
        },
        {
          "name": "E4",
          "midi": 64,
          "time": 104.0625,
          "velocity": 0.3937007874015748,
          "duration": 0.25
        },
        {
          "name": "C#4",
          "midi": 61,
          "time": 104.0625,
          "velocity": 0.3937007874015748,
          "duration": 0.25
        },
        {
          "name": "A#3",
          "midi": 58,
          "time": 105.3125,
          "velocity": 0.3937007874015748,
          "duration": 0.25
        },
        {
          "name": "E4",
          "midi": 64,
          "time": 105.5625,
          "velocity": 0.3937007874015748,
          "duration": 0.25
        },
        {
          "name": "C#4",
          "midi": 61,
          "time": 105.5625,
          "velocity": 0.3937007874015748,
          "duration": 0.25
        },
        {
          "name": "E4",
          "midi": 64,
          "time": 105.8125,
          "velocity": 0.3937007874015748,
          "duration": 0.25
        },
        {
          "name": "C#4",
          "midi": 61,
          "time": 105.8125,
          "velocity": 0.3937007874015748,
          "duration": 0.25
        },
        {
          "name": "B3",
          "midi": 59,
          "time": 106.0625,
          "velocity": 0.3937007874015748,
          "duration": 0.25
        },
        {
          "name": "F#4",
          "midi": 66,
          "time": 106.3125,
          "velocity": 0.3937007874015748,
          "duration": 0.25
        },
        {
          "name": "D4",
          "midi": 62,
          "time": 106.3125,
          "velocity": 0.3937007874015748,
          "duration": 0.25
        },
        {
          "name": "A4",
          "midi": 69,
          "time": 106.5625,
          "velocity": 0.3937007874015748,
          "duration": 0.25
        },
        {
          "name": "F#4",
          "midi": 66,
          "time": 106.5625,
          "velocity": 0.3937007874015748,
          "duration": 0.25
        },
        {
          "name": "A3",
          "midi": 57,
          "time": 107.3125,
          "velocity": 0.3937007874015748,
          "duration": 0.25
        },
        {
          "name": "E4",
          "midi": 64,
          "time": 107.5625,
          "velocity": 0.3937007874015748,
          "duration": 0.25
        },
        {
          "name": "C#4",
          "midi": 61,
          "time": 107.5625,
          "velocity": 0.3937007874015748,
          "duration": 0.25
        },
        {
          "name": "A4",
          "midi": 69,
          "time": 107.8125,
          "velocity": 0.3937007874015748,
          "duration": 0.25
        },
        {
          "name": "E4",
          "midi": 64,
          "time": 107.8125,
          "velocity": 0.3937007874015748,
          "duration": 0.25
        },
        {
          "name": "G3",
          "midi": 55,
          "time": 108.5625,
          "velocity": 0.3937007874015748,
          "duration": 0.25
        },
        {
          "name": "D4",
          "midi": 62,
          "time": 108.8125,
          "velocity": 0.3937007874015748,
          "duration": 0.25
        },
        {
          "name": "B3",
          "midi": 59,
          "time": 108.8125,
          "velocity": 0.3937007874015748,
          "duration": 0.25
        },
        {
          "name": "D4",
          "midi": 62,
          "time": 109.0625,
          "velocity": 0.3937007874015748,
          "duration": 0.25
        },
        {
          "name": "B3",
          "midi": 59,
          "time": 109.0625,
          "velocity": 0.3937007874015748,
          "duration": 0.25
        },
        {
          "name": "G3",
          "midi": 55,
          "time": 110.3125,
          "velocity": 0.3937007874015748,
          "duration": 0.25
        },
        {
          "name": "D4",
          "midi": 62,
          "time": 110.5625,
          "velocity": 0.3937007874015748,
          "duration": 0.25
        },
        {
          "name": "B3",
          "midi": 59,
          "time": 110.5625,
          "velocity": 0.3937007874015748,
          "duration": 0.25
        },
        {
          "name": "D4",
          "midi": 62,
          "time": 110.8125,
          "velocity": 0.3937007874015748,
          "duration": 0.25
        },
        {
          "name": "B3",
          "midi": 59,
          "time": 110.8125,
          "velocity": 0.3937007874015748,
          "duration": 0.25
        },
        {
          "name": "G3",
          "midi": 55,
          "time": 111.0625,
          "velocity": 0.3937007874015748,
          "duration": 0.25
        },
        {
          "name": "D4",
          "midi": 62,
          "time": 111.3125,
          "velocity": 0.3937007874015748,
          "duration": 0.25
        },
        {
          "name": "B3",
          "midi": 59,
          "time": 111.3125,
          "velocity": 0.3937007874015748,
          "duration": 0.25
        },
        {
          "name": "D4",
          "midi": 62,
          "time": 111.5625,
          "velocity": 0.3937007874015748,
          "duration": 0.25
        },
        {
          "name": "B3",
          "midi": 59,
          "time": 111.5625,
          "velocity": 0.3937007874015748,
          "duration": 0.25
        },
        {
          "name": "G3",
          "midi": 55,
          "time": 112.8125,
          "velocity": 0.3937007874015748,
          "duration": 0.25
        },
        {
          "name": "D4",
          "midi": 62,
          "time": 113.0625,
          "velocity": 0.3937007874015748,
          "duration": 0.25
        },
        {
          "name": "B3",
          "midi": 59,
          "time": 113.0625,
          "velocity": 0.3937007874015748,
          "duration": 0.25
        },
        {
          "name": "D4",
          "midi": 62,
          "time": 113.3125,
          "velocity": 0.3937007874015748,
          "duration": 0.25
        },
        {
          "name": "B3",
          "midi": 59,
          "time": 113.3125,
          "velocity": 0.3937007874015748,
          "duration": 0.25
        },
        {
          "name": "F#3",
          "midi": 54,
          "time": 113.5625,
          "velocity": 0.3937007874015748,
          "duration": 0.25
        },
        {
          "name": "C#4",
          "midi": 61,
          "time": 113.8125,
          "velocity": 0.3937007874015748,
          "duration": 0.25
        },
        {
          "name": "A3",
          "midi": 57,
          "time": 113.8125,
          "velocity": 0.3937007874015748,
          "duration": 0.25
        },
        {
          "name": "C#4",
          "midi": 61,
          "time": 114.0625,
          "velocity": 0.3937007874015748,
          "duration": 0.25
        },
        {
          "name": "A3",
          "midi": 57,
          "time": 114.0625,
          "velocity": 0.3937007874015748,
          "duration": 0.25
        },
        {
          "name": "F#3",
          "midi": 54,
          "time": 115.3125,
          "velocity": 0.3937007874015748,
          "duration": 0.25
        },
        {
          "name": "A3",
          "midi": 57,
          "time": 115.5625,
          "velocity": 0.3937007874015748,
          "duration": 0.25
        },
        {
          "name": "C#4",
          "midi": 61,
          "time": 115.5625,
          "velocity": 0.3937007874015748,
          "duration": 0.5
        },
        {
          "name": "A3",
          "midi": 57,
          "time": 115.8125,
          "velocity": 0.3937007874015748,
          "duration": 0.25
        },
        {
          "name": "F#3",
          "midi": 54,
          "time": 116.125,
          "velocity": 0.3937007874015748,
          "duration": 0.25
        },
        {
          "name": "A3",
          "midi": 57,
          "time": 116.375,
          "velocity": 0.3937007874015748,
          "duration": 0.25
        },
        {
          "name": "C#4",
          "midi": 61,
          "time": 116.375,
          "velocity": 0.3937007874015748,
          "duration": 0.5
        },
        {
          "name": "A3",
          "midi": 57,
          "time": 116.625,
          "velocity": 0.3937007874015748,
          "duration": 0.25
        },
        {
          "name": "F#3",
          "midi": 54,
          "time": 117.875,
          "velocity": 0.3937007874015748,
          "duration": 0.25
        },
        {
          "name": "A3",
          "midi": 57,
          "time": 118.125,
          "velocity": 0.3937007874015748,
          "duration": 0.25
        },
        {
          "name": "C#4",
          "midi": 61,
          "time": 118.125,
          "velocity": 0.3937007874015748,
          "duration": 0.5
        },
        {
          "name": "A3",
          "midi": 57,
          "time": 118.375,
          "velocity": 0.3937007874015748,
          "duration": 0.25
        },
        {
          "name": "E3",
          "midi": 52,
          "time": 118.625,
          "velocity": 0.3937007874015748,
          "duration": 0.25
        },
        {
          "name": "B3",
          "midi": 59,
          "time": 118.875,
          "velocity": 0.3937007874015748,
          "duration": 0.25
        },
        {
          "name": "G3",
          "midi": 55,
          "time": 118.875,
          "velocity": 0.3937007874015748,
          "duration": 0.25
        },
        {
          "name": "B3",
          "midi": 59,
          "time": 119.125,
          "velocity": 0.3937007874015748,
          "duration": 0.25
        },
        {
          "name": "G3",
          "midi": 55,
          "time": 119.125,
          "velocity": 0.3937007874015748,
          "duration": 0.25
        },
        {
          "name": "E3",
          "midi": 52,
          "time": 120.375,
          "velocity": 0.3937007874015748,
          "duration": 0.25
        },
        {
          "name": "B3",
          "midi": 59,
          "time": 120.625,
          "velocity": 0.3937007874015748,
          "duration": 0.25
        },
        {
          "name": "G3",
          "midi": 55,
          "time": 120.625,
          "velocity": 0.3937007874015748,
          "duration": 0.25
        },
        {
          "name": "B3",
          "midi": 59,
          "time": 120.875,
          "velocity": 0.3937007874015748,
          "duration": 0.25
        },
        {
          "name": "G3",
          "midi": 55,
          "time": 120.875,
          "velocity": 0.3937007874015748,
          "duration": 0.25
        },
        {
          "name": "A3",
          "midi": 57,
          "time": 121.125,
          "velocity": 0.3937007874015748,
          "duration": 0.25
        },
        {
          "name": "C#4",
          "midi": 61,
          "time": 121.375,
          "velocity": 0.3937007874015748,
          "duration": 0.25
        },
        {
          "name": "E4",
          "midi": 64,
          "time": 121.375,
          "velocity": 0.3937007874015748,
          "duration": 0.5
        },
        {
          "name": "C#4",
          "midi": 61,
          "time": 121.625,
          "velocity": 0.3937007874015748,
          "duration": 0.25
        },
        {
          "name": "A#3",
          "midi": 58,
          "time": 123.625,
          "velocity": 0.3937007874015748,
          "duration": 0.25
        },
        {
          "name": "E4",
          "midi": 64,
          "time": 123.875,
          "velocity": 0.3937007874015748,
          "duration": 0.25
        },
        {
          "name": "C#4",
          "midi": 61,
          "time": 123.875,
          "velocity": 0.3937007874015748,
          "duration": 0.25
        },
        {
          "name": "E4",
          "midi": 64,
          "time": 124.125,
          "velocity": 0.3937007874015748,
          "duration": 0.25
        },
        {
          "name": "C#4",
          "midi": 61,
          "time": 124.125,
          "velocity": 0.3937007874015748,
          "duration": 0.25
        },
        {
          "name": "A#3",
          "midi": 58,
          "time": 125.375,
          "velocity": 0.3937007874015748,
          "duration": 0.25
        },
        {
          "name": "E4",
          "midi": 64,
          "time": 125.625,
          "velocity": 0.3937007874015748,
          "duration": 0.25
        },
        {
          "name": "C#4",
          "midi": 61,
          "time": 125.625,
          "velocity": 0.3937007874015748,
          "duration": 0.25
        },
        {
          "name": "E4",
          "midi": 64,
          "time": 125.875,
          "velocity": 0.3937007874015748,
          "duration": 0.25
        },
        {
          "name": "C#4",
          "midi": 61,
          "time": 125.875,
          "velocity": 0.3937007874015748,
          "duration": 0.25
        },
        {
          "name": "B3",
          "midi": 59,
          "time": 126.125,
          "velocity": 0.3937007874015748,
          "duration": 0.25
        },
        {
          "name": "F#4",
          "midi": 66,
          "time": 126.375,
          "velocity": 0.3937007874015748,
          "duration": 0.25
        },
        {
          "name": "D4",
          "midi": 62,
          "time": 126.375,
          "velocity": 0.3937007874015748,
          "duration": 0.25
        },
        {
          "name": "A4",
          "midi": 69,
          "time": 126.625,
          "velocity": 0.3937007874015748,
          "duration": 0.25
        },
        {
          "name": "F#4",
          "midi": 66,
          "time": 126.625,
          "velocity": 0.3937007874015748,
          "duration": 0.25
        },
        {
          "name": "A3",
          "midi": 57,
          "time": 127.375,
          "velocity": 0.3937007874015748,
          "duration": 0.25
        },
        {
          "name": "E4",
          "midi": 64,
          "time": 127.625,
          "velocity": 0.3937007874015748,
          "duration": 0.25
        },
        {
          "name": "C#4",
          "midi": 61,
          "time": 127.625,
          "velocity": 0.3937007874015748,
          "duration": 0.25
        },
        {
          "name": "A4",
          "midi": 69,
          "time": 127.875,
          "velocity": 0.3937007874015748,
          "duration": 0.25
        },
        {
          "name": "E4",
          "midi": 64,
          "time": 127.875,
          "velocity": 0.3937007874015748,
          "duration": 0.25
        },
        {
          "name": "D3",
          "midi": 50,
          "time": 128.625,
          "velocity": 0.3937007874015748,
          "duration": 1.5
        },
        {
          "name": "G#3",
          "midi": 56,
          "time": 130.125,
          "velocity": 0.3937007874015748,
          "duration": 1.5
        },
        {
          "name": "G3",
          "midi": 55,
          "time": 131.625,
          "velocity": 0.3937007874015748,
          "duration": 1.5
        },
        {
          "name": "D3",
          "midi": 50,
          "time": 133.125,
          "velocity": 0.3937007874015748,
          "duration": 1.5
        },
        {
          "name": "D3",
          "midi": 50,
          "time": 134.625,
          "velocity": 0.3937007874015748,
          "duration": 1.5
        },
        {
          "name": "G#3",
          "midi": 56,
          "time": 136.125,
          "velocity": 0.3937007874015748,
          "duration": 1.5
        },
        {
          "name": "G3",
          "midi": 55,
          "time": 137.625,
          "velocity": 0.3937007874015748,
          "duration": 1.5
        },
        {
          "name": "D3",
          "midi": 50,
          "time": 139.125,
          "velocity": 0.3937007874015748,
          "duration": 1.5
        },
        {
          "name": "G3",
          "midi": 55,
          "time": 140.625,
          "velocity": 0.3937007874015748,
          "duration": 1.5
        },
        {
          "name": "A3",
          "midi": 57,
          "time": 142.125,
          "velocity": 0.3937007874015748,
          "duration": 1.5
        },
        {
          "name": "A3",
          "midi": 57,
          "time": 143.625,
          "velocity": 0.3937007874015748,
          "duration": 1.5
        }
      ],
      "controlChanges": {},
      "id": 3,
      "name": "Grand Piano (Classic)",
      "instrumentNumber": 0,
      "instrument": "acoustic grand piano",
      "instrumentFamily": "piano",
      "channelNumber": 3,
      "isPercussion": false
    },
    {
      "startTime": 88.5,
      "duration": 127.875,
      "length": 22,
      "notes": [
        {
          "name": "G2",
          "midi": 43,
          "time": 88.5,
          "velocity": 0.3937007874015748,
          "duration": 3.5
        },
        {
          "name": "F#2",
          "midi": 42,
          "time": 93.5,
          "velocity": 0.3937007874015748,
          "duration": 3.625
        },
        {
          "name": "E2",
          "midi": 40,
          "time": 98.5625,
          "velocity": 0.3937007874015748,
          "duration": 1
        },
        {
          "name": "A2",
          "midi": 45,
          "time": 101.0625,
          "velocity": 0.3937007874015748,
          "duration": 1
        },
        {
          "name": "C#4",
          "midi": 61,
          "time": 102.5625,
          "velocity": 0.3937007874015748,
          "duration": 0.25
        },
        {
          "name": "E4",
          "midi": 64,
          "time": 102.5625,
          "velocity": 0.3937007874015748,
          "duration": 0.75
        },
        {
          "name": "A3",
          "midi": 57,
          "time": 102.8125,
          "velocity": 0.3937007874015748,
          "duration": 0.25
        },
        {
          "name": "C#4",
          "midi": 61,
          "time": 103.0625,
          "velocity": 0.3937007874015748,
          "duration": 0.25
        },
        {
          "name": "A#2",
          "midi": 46,
          "time": 103.5625,
          "velocity": 0.3937007874015748,
          "duration": 1
        },
        {
          "name": "B2",
          "midi": 47,
          "time": 106.0625,
          "velocity": 0.3937007874015748,
          "duration": 0.5
        },
        {
          "name": "A2",
          "midi": 45,
          "time": 107.3125,
          "velocity": 0.3937007874015748,
          "duration": 0.5
        },
        {
          "name": "G2",
          "midi": 43,
          "time": 108.5625,
          "velocity": 0.3937007874015748,
          "duration": 3.5
        },
        {
          "name": "F#2",
          "midi": 42,
          "time": 113.5625,
          "velocity": 0.3937007874015748,
          "duration": 3.625
        },
        {
          "name": "E2",
          "midi": 40,
          "time": 118.625,
          "velocity": 0.3937007874015748,
          "duration": 1
        },
        {
          "name": "A2",
          "midi": 45,
          "time": 121.125,
          "velocity": 0.3937007874015748,
          "duration": 1
        },
        {
          "name": "C#4",
          "midi": 61,
          "time": 122.625,
          "velocity": 0.3937007874015748,
          "duration": 0.25
        },
        {
          "name": "E4",
          "midi": 64,
          "time": 122.625,
          "velocity": 0.3937007874015748,
          "duration": 0.75
        },
        {
          "name": "A3",
          "midi": 57,
          "time": 122.875,
          "velocity": 0.3937007874015748,
          "duration": 0.25
        },
        {
          "name": "C#4",
          "midi": 61,
          "time": 123.125,
          "velocity": 0.3937007874015748,
          "duration": 0.25
        },
        {
          "name": "A#2",
          "midi": 46,
          "time": 123.625,
          "velocity": 0.3937007874015748,
          "duration": 1
        },
        {
          "name": "B2",
          "midi": 47,
          "time": 126.125,
          "velocity": 0.3937007874015748,
          "duration": 0.5
        },
        {
          "name": "A2",
          "midi": 45,
          "time": 127.375,
          "velocity": 0.3937007874015748,
          "duration": 0.5
        }
      ],
      "controlChanges": {},
      "id": 4,
      "name": "Cello (Classic)",
      "instrumentNumber": 42,
      "instrument": "cello",
      "instrumentFamily": "strings",
      "channelNumber": 4,
      "isPercussion": false
    }
  ]
}
