{
  "header": {
    "PPQ": 384,
    "timeSignature": [
      4,
      4
    ],
    "bpm": 180.00018000018,
    "name": ""
  },
  "tempo": [
    {
      "absoluteTime": 0,
      "seconds": 0,
      "bpm": 180.00018000018
    }
  ],
  "timeSignature": [
    {
      "absoluteTime": 0,
      "seconds": 0,
      "numerator": 4,
      "denominator": 2,
      "click": 24,
      "notesQ": 8
    }
  ],
  "startTime": 0,
  "duration": 159.99983999999998,
  "tracks": [
    {
      "startTime": 0,
      "duration": 159.99983999999998,
      "length": 1707,
      "notes": [
        {
          "name": "E5",
          "midi": 76,
          "time": 0,
          "velocity": 0.25984251968503935,
          "duration": 0.666666
        },
        {
          "name": "D4",
          "midi": 62,
          "time": 0,
          "velocity": 0.25984251968503935,
          "duration": 0.1666665
        },
        {
          "name": "D4",
          "midi": 62,
          "time": 0.1666665,
          "velocity": 0.25984251968503935,
          "duration": 0.333333
        },
        {
          "name": "D4",
          "midi": 62,
          "time": 0.4999995,
          "velocity": 0.25984251968503935,
          "duration": 0.1666665
        },
        {
          "name": "E6",
          "midi": 88,
          "time": 0.666666,
          "velocity": 0.25984251968503935,
          "duration": 0.6666660000000002
        },
        {
          "name": "D4",
          "midi": 62,
          "time": 0.666666,
          "velocity": 0.25984251968503935,
          "duration": 0.16666650000000005
        },
        {
          "name": "D4",
          "midi": 62,
          "time": 0.8333325,
          "velocity": 0.25984251968503935,
          "duration": 0.3333330000000001
        },
        {
          "name": "D4",
          "midi": 62,
          "time": 1.1666655000000001,
          "velocity": 0.25984251968503935,
          "duration": 0.16666650000000005
        },
        {
          "name": "B5",
          "midi": 83,
          "time": 1.3333320000000002,
          "velocity": 0.25984251968503935,
          "duration": 1.3333319999999997
        },
        {
          "name": "D4",
          "midi": 62,
          "time": 1.3333320000000002,
          "velocity": 0.25984251968503935,
          "duration": 0.16666650000000005
        },
        {
          "name": "D4",
          "midi": 62,
          "time": 1.4999985000000002,
          "velocity": 0.25984251968503935,
          "duration": 0.3333330000000001
        },
        {
          "name": "D4",
          "midi": 62,
          "time": 1.8333315000000003,
          "velocity": 0.25984251968503935,
          "duration": 0.16666650000000005
        },
        {
          "name": "D4",
          "midi": 62,
          "time": 1.9999980000000004,
          "velocity": 0.25984251968503935,
          "duration": 0.16666650000000005
        },
        {
          "name": "D4",
          "midi": 62,
          "time": 2.1666645000000004,
          "velocity": 0.25984251968503935,
          "duration": 0.16666649999999983
        },
        {
          "name": "D4",
          "midi": 62,
          "time": 2.3333310000000003,
          "velocity": 0.25984251968503935,
          "duration": 0.16666649999999983
        },
        {
          "name": "E4",
          "midi": 64,
          "time": 2.4999975,
          "velocity": 0.25984251968503935,
          "duration": 0.16666649999999983
        },
        {
          "name": "A5",
          "midi": 81,
          "time": 2.666664,
          "velocity": 0.25984251968503935,
          "duration": 0.6666659999999998
        },
        {
          "name": "D4",
          "midi": 62,
          "time": 2.666664,
          "velocity": 0.25984251968503935,
          "duration": 0.16666649999999983
        },
        {
          "name": "D4",
          "midi": 62,
          "time": 2.8333304999999998,
          "velocity": 0.25984251968503935,
          "duration": 0.3333330000000001
        },
        {
          "name": "D4",
          "midi": 62,
          "time": 3.1666635,
          "velocity": 0.25984251968503935,
          "duration": 0.16666649999999983
        },
        {
          "name": "E6",
          "midi": 88,
          "time": 3.3333299999999997,
          "velocity": 0.25984251968503935,
          "duration": 0.6666659999999998
        },
        {
          "name": "D4",
          "midi": 62,
          "time": 3.3333299999999997,
          "velocity": 0.25984251968503935,
          "duration": 0.16666649999999983
        },
        {
          "name": "D4",
          "midi": 62,
          "time": 3.4999964999999995,
          "velocity": 0.25984251968503935,
          "duration": 0.3333330000000001
        },
        {
          "name": "D4",
          "midi": 62,
          "time": 3.8333294999999996,
          "velocity": 0.25984251968503935,
          "duration": 0.16666649999999983
        },
        {
          "name": "E5",
          "midi": 76,
          "time": 3.9999959999999994,
          "velocity": 0.25984251968503935,
          "duration": 1.3333319999999986
        },
        {
          "name": "D4",
          "midi": 62,
          "time": 3.9999959999999994,
          "velocity": 0.25984251968503935,
          "duration": 0.16666649999999983
        },
        {
          "name": "D4",
          "midi": 62,
          "time": 4.166662499999999,
          "velocity": 0.25984251968503935,
          "duration": 0.33333299999999966
        },
        {
          "name": "D4",
          "midi": 62,
          "time": 4.499995499999999,
          "velocity": 0.25984251968503935,
          "duration": 0.16666649999999983
        },
        {
          "name": "D4",
          "midi": 62,
          "time": 4.666661999999999,
          "velocity": 0.25984251968503935,
          "duration": 0.16666649999999983
        },
        {
          "name": "D4",
          "midi": 62,
          "time": 4.833328499999999,
          "velocity": 0.25984251968503935,
          "duration": 0.16666649999999983
        },
        {
          "name": "D4",
          "midi": 62,
          "time": 4.999994999999998,
          "velocity": 0.25984251968503935,
          "duration": 0.16666649999999983
        },
        {
          "name": "E4",
          "midi": 64,
          "time": 5.166661499999998,
          "velocity": 0.25984251968503935,
          "duration": 0.16666649999999983
        },
        {
          "name": "E5",
          "midi": 76,
          "time": 5.333327999999998,
          "velocity": 0.25984251968503935,
          "duration": 0.6666659999999993
        },
        {
          "name": "C#4",
          "midi": 61,
          "time": 5.333327999999998,
          "velocity": 0.25984251968503935,
          "duration": 0.16666649999999983
        },
        {
          "name": "C#4",
          "midi": 61,
          "time": 5.499994499999998,
          "velocity": 0.25984251968503935,
          "duration": 0.33333299999999966
        },
        {
          "name": "C#4",
          "midi": 61,
          "time": 5.833327499999998,
          "velocity": 0.25984251968503935,
          "duration": 0.16666649999999983
        },
        {
          "name": "G#5",
          "midi": 80,
          "time": 5.999993999999997,
          "velocity": 0.25984251968503935,
          "duration": 0.6666659999999993
        },
        {
          "name": "C#4",
          "midi": 61,
          "time": 5.999993999999997,
          "velocity": 0.25984251968503935,
          "duration": 0.16666649999999983
        },
        {
          "name": "C#4",
          "midi": 61,
          "time": 6.166660499999997,
          "velocity": 0.25984251968503935,
          "duration": 0.33333299999999966
        },
        {
          "name": "C#4",
          "midi": 61,
          "time": 6.499993499999997,
          "velocity": 0.25984251968503935,
          "duration": 0.16666649999999983
        },
        {
          "name": "G#6",
          "midi": 92,
          "time": 6.666659999999997,
          "velocity": 0.25984251968503935,
          "duration": 0.999998999999999
        },
        {
          "name": "C#4",
          "midi": 61,
          "time": 6.666659999999997,
          "velocity": 0.25984251968503935,
          "duration": 0.16666649999999983
        },
        {
          "name": "C#4",
          "midi": 61,
          "time": 6.8333264999999965,
          "velocity": 0.25984251968503935,
          "duration": 0.33333299999999966
        },
        {
          "name": "C#4",
          "midi": 61,
          "time": 7.166659499999996,
          "velocity": 0.25984251968503935,
          "duration": 0.16666649999999983
        },
        {
          "name": "C#4",
          "midi": 61,
          "time": 7.333325999999996,
          "velocity": 0.25984251968503935,
          "duration": 0.16666649999999983
        },
        {
          "name": "C#4",
          "midi": 61,
          "time": 7.499992499999996,
          "velocity": 0.25984251968503935,
          "duration": 0.16666649999999983
        },
        {
          "name": "A6",
          "midi": 93,
          "time": 7.666658999999996,
          "velocity": 0.25984251968503935,
          "duration": 0.33333299999999966
        },
        {
          "name": "C#4",
          "midi": 61,
          "time": 7.666658999999996,
          "velocity": 0.25984251968503935,
          "duration": 0.33333299999999966
        },
        {
          "name": "G#6",
          "midi": 92,
          "time": 7.999991999999995,
          "velocity": 0.25984251968503935,
          "duration": 0.6666659999999993
        },
        {
          "name": "F#4",
          "midi": 66,
          "time": 7.999991999999995,
          "velocity": 0.25984251968503935,
          "duration": 0.16666649999999983
        },
        {
          "name": "F#4",
          "midi": 66,
          "time": 8.166658499999995,
          "velocity": 0.25984251968503935,
          "duration": 0.33333299999999966
        },
        {
          "name": "F#4",
          "midi": 66,
          "time": 8.499991499999995,
          "velocity": 0.25984251968503935,
          "duration": 0.16666649999999983
        },
        {
          "name": "E6",
          "midi": 88,
          "time": 8.666657999999995,
          "velocity": 0.25984251968503935,
          "duration": 0.6666659999999993
        },
        {
          "name": "G#4",
          "midi": 68,
          "time": 8.666657999999995,
          "velocity": 0.25984251968503935,
          "duration": 0.16666649999999983
        },
        {
          "name": "G#4",
          "midi": 68,
          "time": 8.833324499999994,
          "velocity": 0.25984251968503935,
          "duration": 0.33333299999999966
        },
        {
          "name": "G#4",
          "midi": 68,
          "time": 9.166657499999994,
          "velocity": 0.25984251968503935,
          "duration": 0.16666649999999983
        },
        {
          "name": "A4",
          "midi": 69,
          "time": 9.333323999999994,
          "velocity": 0.25984251968503935,
          "duration": 0.16666649999999983
        },
        {
          "name": "C#6",
          "midi": 85,
          "time": 9.333323999999994,
          "velocity": 0.25984251968503935,
          "duration": 0.16666649999999983
        },
        {
          "name": "A4",
          "midi": 69,
          "time": 9.499990499999994,
          "velocity": 0.25984251968503935,
          "duration": 0.16666649999999983
        },
        {
          "name": "A5",
          "midi": 81,
          "time": 9.499990499999994,
          "velocity": 0.25984251968503935,
          "duration": 0.16666649999999983
        },
        {
          "name": "G#4",
          "midi": 68,
          "time": 9.666656999999994,
          "velocity": 0.25984251968503935,
          "duration": 0.16666649999999983
        },
        {
          "name": "G#5",
          "midi": 80,
          "time": 9.666656999999994,
          "velocity": 0.25984251968503935,
          "duration": 0.16666649999999983
        },
        {
          "name": "A4",
          "midi": 69,
          "time": 9.833323499999993,
          "velocity": 0.25984251968503935,
          "duration": 0.16666649999999983
        },
        {
          "name": "E5",
          "midi": 76,
          "time": 9.833323499999993,
          "velocity": 0.25984251968503935,
          "duration": 0.16666649999999983
        },
        {
          "name": "G#4",
          "midi": 68,
          "time": 9.999989999999993,
          "velocity": 0.25984251968503935,
          "duration": 0.16666649999999983
        },
        {
          "name": "C#5",
          "midi": 73,
          "time": 9.999989999999993,
          "velocity": 0.25984251968503935,
          "duration": 0.16666649999999983
        },
        {
          "name": "E4",
          "midi": 64,
          "time": 10.166656499999993,
          "velocity": 0.25984251968503935,
          "duration": 0.16666649999999983
        },
        {
          "name": "B4",
          "midi": 71,
          "time": 10.166656499999993,
          "velocity": 0.25984251968503935,
          "duration": 0.16666649999999983
        },
        {
          "name": "C#4",
          "midi": 61,
          "time": 10.333322999999993,
          "velocity": 0.25984251968503935,
          "duration": 0.16666649999999983
        },
        {
          "name": "A4",
          "midi": 69,
          "time": 10.333322999999993,
          "velocity": 0.25984251968503935,
          "duration": 0.16666649999999983
        },
        {
          "name": "E4",
          "midi": 64,
          "time": 10.499989499999993,
          "velocity": 0.25984251968503935,
          "duration": 0.16666649999999983
        },
        {
          "name": "E5",
          "midi": 76,
          "time": 10.666655999999993,
          "velocity": 0.25984251968503935,
          "duration": 0.6666659999999993
        },
        {
          "name": "D4",
          "midi": 62,
          "time": 10.666655999999993,
          "velocity": 0.25984251968503935,
          "duration": 0.16666649999999983
        },
        {
          "name": "D4",
          "midi": 62,
          "time": 10.833322499999992,
          "velocity": 0.25984251968503935,
          "duration": 0.33333299999999966
        },
        {
          "name": "D4",
          "midi": 62,
          "time": 11.166655499999992,
          "velocity": 0.25984251968503935,
          "duration": 0.16666649999999983
        },
        {
          "name": "E6",
          "midi": 88,
          "time": 11.333321999999992,
          "velocity": 0.25984251968503935,
          "duration": 0.6666659999999993
        },
        {
          "name": "D4",
          "midi": 62,
          "time": 11.333321999999992,
          "velocity": 0.25984251968503935,
          "duration": 0.16666649999999983
        },
        {
          "name": "D4",
          "midi": 62,
          "time": 11.499988499999992,
          "velocity": 0.25984251968503935,
          "duration": 0.33333299999999966
        },
        {
          "name": "D4",
          "midi": 62,
          "time": 11.833321499999991,
          "velocity": 0.25984251968503935,
          "duration": 0.16666649999999983
        },
        {
          "name": "B5",
          "midi": 83,
          "time": 11.999987999999991,
          "velocity": 0.25984251968503935,
          "duration": 1.3333319999999986
        },
        {
          "name": "D4",
          "midi": 62,
          "time": 11.999987999999991,
          "velocity": 0.25984251968503935,
          "duration": 0.16666649999999983
        },
        {
          "name": "D4",
          "midi": 62,
          "time": 12.166654499999991,
          "velocity": 0.25984251968503935,
          "duration": 0.33333299999999966
        },
        {
          "name": "D4",
          "midi": 62,
          "time": 12.49998749999999,
          "velocity": 0.25984251968503935,
          "duration": 0.16666649999999983
        },
        {
          "name": "D4",
          "midi": 62,
          "time": 12.66665399999999,
          "velocity": 0.25984251968503935,
          "duration": 0.16666649999999983
        },
        {
          "name": "D4",
          "midi": 62,
          "time": 12.83332049999999,
          "velocity": 0.25984251968503935,
          "duration": 0.16666649999999983
        },
        {
          "name": "D4",
          "midi": 62,
          "time": 12.99998699999999,
          "velocity": 0.25984251968503935,
          "duration": 0.16666649999999983
        },
        {
          "name": "E4",
          "midi": 64,
          "time": 13.16665349999999,
          "velocity": 0.25984251968503935,
          "duration": 0.16666649999999983
        },
        {
          "name": "A5",
          "midi": 81,
          "time": 13.33331999999999,
          "velocity": 0.25984251968503935,
          "duration": 0.6666659999999993
        },
        {
          "name": "D4",
          "midi": 62,
          "time": 13.33331999999999,
          "velocity": 0.25984251968503935,
          "duration": 0.16666649999999983
        },
        {
          "name": "D4",
          "midi": 62,
          "time": 13.49998649999999,
          "velocity": 0.25984251968503935,
          "duration": 0.33333299999999966
        },
        {
          "name": "D4",
          "midi": 62,
          "time": 13.83331949999999,
          "velocity": 0.25984251968503935,
          "duration": 0.16666649999999983
        },
        {
          "name": "E6",
          "midi": 88,
          "time": 13.99998599999999,
          "velocity": 0.25984251968503935,
          "duration": 0.6666659999999993
        },
        {
          "name": "D4",
          "midi": 62,
          "time": 13.99998599999999,
          "velocity": 0.25984251968503935,
          "duration": 0.16666649999999983
        },
        {
          "name": "D4",
          "midi": 62,
          "time": 14.166652499999989,
          "velocity": 0.25984251968503935,
          "duration": 0.33333299999999966
        },
        {
          "name": "D4",
          "midi": 62,
          "time": 14.499985499999989,
          "velocity": 0.25984251968503935,
          "duration": 0.16666649999999983
        },
        {
          "name": "E5",
          "midi": 76,
          "time": 14.666651999999988,
          "velocity": 0.25984251968503935,
          "duration": 1.3333319999999986
        },
        {
          "name": "D4",
          "midi": 62,
          "time": 14.666651999999988,
          "velocity": 0.25984251968503935,
          "duration": 0.16666649999999983
        },
        {
          "name": "D4",
          "midi": 62,
          "time": 14.833318499999988,
          "velocity": 0.25984251968503935,
          "duration": 0.33333299999999966
        },
        {
          "name": "D4",
          "midi": 62,
          "time": 15.166651499999988,
          "velocity": 0.25984251968503935,
          "duration": 0.16666649999999983
        },
        {
          "name": "D4",
          "midi": 62,
          "time": 15.333317999999988,
          "velocity": 0.25984251968503935,
          "duration": 0.16666649999999983
        },
        {
          "name": "D4",
          "midi": 62,
          "time": 15.499984499999988,
          "velocity": 0.25984251968503935,
          "duration": 0.16666649999999983
        },
        {
          "name": "D4",
          "midi": 62,
          "time": 15.666650999999987,
          "velocity": 0.25984251968503935,
          "duration": 0.16666649999999983
        },
        {
          "name": "E4",
          "midi": 64,
          "time": 15.833317499999987,
          "velocity": 0.25984251968503935,
          "duration": 0.16666649999999983
        },
        {
          "name": "E5",
          "midi": 76,
          "time": 15.999983999999987,
          "velocity": 0.25984251968503935,
          "duration": 0.6666660000000029
        },
        {
          "name": "C#4",
          "midi": 61,
          "time": 15.999983999999987,
          "velocity": 0.25984251968503935,
          "duration": 0.1666665000000016
        },
        {
          "name": "C#4",
          "midi": 61,
          "time": 16.16665049999999,
          "velocity": 0.25984251968503935,
          "duration": 0.33333299999999966
        },
        {
          "name": "C#4",
          "midi": 61,
          "time": 16.49998349999999,
          "velocity": 0.25984251968503935,
          "duration": 0.1666665000000016
        },
        {
          "name": "G#5",
          "midi": 80,
          "time": 16.66664999999999,
          "velocity": 0.25984251968503935,
          "duration": 0.6666660000000029
        },
        {
          "name": "C#4",
          "midi": 61,
          "time": 16.66664999999999,
          "velocity": 0.25984251968503935,
          "duration": 0.1666665000000016
        },
        {
          "name": "C#4",
          "midi": 61,
          "time": 16.83331649999999,
          "velocity": 0.25984251968503935,
          "duration": 0.33333299999999966
        },
        {
          "name": "C#4",
          "midi": 61,
          "time": 17.16664949999999,
          "velocity": 0.25984251968503935,
          "duration": 0.1666665000000016
        },
        {
          "name": "G#6",
          "midi": 92,
          "time": 17.333315999999993,
          "velocity": 0.25984251968503935,
          "duration": 0.9999990000000061
        },
        {
          "name": "C#4",
          "midi": 61,
          "time": 17.333315999999993,
          "velocity": 0.25984251968503935,
          "duration": 0.1666665000000016
        },
        {
          "name": "C#4",
          "midi": 61,
          "time": 17.499982499999994,
          "velocity": 0.25984251968503935,
          "duration": 0.33333299999999966
        },
        {
          "name": "C#4",
          "midi": 61,
          "time": 17.833315499999994,
          "velocity": 0.25984251968503935,
          "duration": 0.1666665000000016
        },
        {
          "name": "C#4",
          "midi": 61,
          "time": 17.999981999999996,
          "velocity": 0.25984251968503935,
          "duration": 0.1666665000000016
        },
        {
          "name": "C#4",
          "midi": 61,
          "time": 18.166648499999997,
          "velocity": 0.25984251968503935,
          "duration": 0.1666665000000016
        },
        {
          "name": "A6",
          "midi": 93,
          "time": 18.333315,
          "velocity": 0.25984251968503935,
          "duration": 0.33333299999999966
        },
        {
          "name": "C#4",
          "midi": 61,
          "time": 18.333315,
          "velocity": 0.25984251968503935,
          "duration": 0.33333299999999966
        },
        {
          "name": "G#6",
          "midi": 92,
          "time": 18.666648,
          "velocity": 0.25984251968503935,
          "duration": 0.6666659999999993
        },
        {
          "name": "F#4",
          "midi": 66,
          "time": 18.666648,
          "velocity": 0.25984251968503935,
          "duration": 0.6666659999999993
        },
        {
          "name": "E6",
          "midi": 88,
          "time": 19.333313999999998,
          "velocity": 0.25984251968503935,
          "duration": 0.6666659999999993
        },
        {
          "name": "G#4",
          "midi": 68,
          "time": 19.333313999999998,
          "velocity": 0.25984251968503935,
          "duration": 0.6666659999999993
        },
        {
          "name": "C#6",
          "midi": 85,
          "time": 19.999979999999997,
          "velocity": 0.25984251968503935,
          "duration": 0.1666665000000016
        },
        {
          "name": "A4",
          "midi": 69,
          "time": 19.999979999999997,
          "velocity": 0.25984251968503935,
          "duration": 0.1666665000000016
        },
        {
          "name": "A4",
          "midi": 69,
          "time": 20.1666465,
          "velocity": 0.25984251968503935,
          "duration": 0.1666665000000016
        },
        {
          "name": "G#4",
          "midi": 68,
          "time": 20.333313,
          "velocity": 0.25984251968503935,
          "duration": 0.1666665000000016
        },
        {
          "name": "E4",
          "midi": 64,
          "time": 20.499979500000002,
          "velocity": 0.25984251968503935,
          "duration": 0.1666665000000016
        },
        {
          "name": "C#4",
          "midi": 61,
          "time": 20.666646000000004,
          "velocity": 0.25984251968503935,
          "duration": 0.1666665000000016
        },
        {
          "name": "B3",
          "midi": 59,
          "time": 20.833312500000005,
          "velocity": 0.25984251968503935,
          "duration": 0.1666665000000016
        },
        {
          "name": "A3",
          "midi": 57,
          "time": 20.999979000000007,
          "velocity": 0.25984251968503935,
          "duration": 0.1666665000000016
        },
        {
          "name": "E3",
          "midi": 52,
          "time": 21.16664550000001,
          "velocity": 0.25984251968503935,
          "duration": 0.1666665000000016
        },
        {
          "name": "E4",
          "midi": 64,
          "time": 21.33331200000001,
          "velocity": 0.25984251968503935,
          "duration": 0.6666660000000064
        },
        {
          "name": "D3",
          "midi": 50,
          "time": 21.33331200000001,
          "velocity": 0.25984251968503935,
          "duration": 0.1666665000000016
        },
        {
          "name": "D2",
          "midi": 38,
          "time": 21.33331200000001,
          "velocity": 0.25984251968503935,
          "duration": 0.1666665000000016
        },
        {
          "name": "E4",
          "midi": 64,
          "time": 21.33331200000001,
          "velocity": 0.25984251968503935,
          "duration": 0.6666660000000064
        },
        {
          "name": "E3",
          "midi": 52,
          "time": 21.33331200000001,
          "velocity": 0.25984251968503935,
          "duration": 0.6666660000000064
        },
        {
          "name": "E3",
          "midi": 52,
          "time": 21.33331200000001,
          "velocity": 0.25984251968503935,
          "duration": 0.6666660000000064
        },
        {
          "name": "D2",
          "midi": 38,
          "time": 21.49997850000001,
          "velocity": 0.25984251968503935,
          "duration": 0.1666665000000016
        },
        {
          "name": "A2",
          "midi": 45,
          "time": 21.666645000000013,
          "velocity": 0.25984251968503935,
          "duration": 0.1666665000000016
        },
        {
          "name": "D3",
          "midi": 50,
          "time": 21.833311500000015,
          "velocity": 0.25984251968503935,
          "duration": 0.1666665000000016
        },
        {
          "name": "D2",
          "midi": 38,
          "time": 21.833311500000015,
          "velocity": 0.25984251968503935,
          "duration": 0.1666665000000016
        },
        {
          "name": "E4",
          "midi": 64,
          "time": 21.999978000000016,
          "velocity": 0.25984251968503935,
          "duration": 0.6666660000000064
        },
        {
          "name": "E5",
          "midi": 76,
          "time": 21.999978000000016,
          "velocity": 0.25984251968503935,
          "duration": 0.6666660000000064
        },
        {
          "name": "D2",
          "midi": 38,
          "time": 21.999978000000016,
          "velocity": 0.25984251968503935,
          "duration": 0.1666665000000016
        },
        {
          "name": "E4",
          "midi": 64,
          "time": 21.999978000000016,
          "velocity": 0.25984251968503935,
          "duration": 0.6666660000000064
        },
        {
          "name": "E5",
          "midi": 76,
          "time": 21.999978000000016,
          "velocity": 0.25984251968503935,
          "duration": 0.6666660000000064
        },
        {
          "name": "D2",
          "midi": 38,
          "time": 22.166644500000018,
          "velocity": 0.25984251968503935,
          "duration": 0.1666665000000016
        },
        {
          "name": "A2",
          "midi": 45,
          "time": 22.33331100000002,
          "velocity": 0.25984251968503935,
          "duration": 0.1666665000000016
        },
        {
          "name": "D3",
          "midi": 50,
          "time": 22.33331100000002,
          "velocity": 0.25984251968503935,
          "duration": 0.1666665000000016
        },
        {
          "name": "D2",
          "midi": 38,
          "time": 22.49997750000002,
          "velocity": 0.25984251968503935,
          "duration": 0.1666665000000016
        },
        {
          "name": "B3",
          "midi": 59,
          "time": 22.666644000000023,
          "velocity": 0.25984251968503935,
          "duration": 1.3333320000000128
        },
        {
          "name": "B4",
          "midi": 71,
          "time": 22.666644000000023,
          "velocity": 0.25984251968503935,
          "duration": 1.3333320000000128
        },
        {
          "name": "D2",
          "midi": 38,
          "time": 22.666644000000023,
          "velocity": 0.25984251968503935,
          "duration": 0.1666665000000016
        },
        {
          "name": "B3",
          "midi": 59,
          "time": 22.666644000000023,
          "velocity": 0.25984251968503935,
          "duration": 1.3333320000000128
        },
        {
          "name": "B4",
          "midi": 71,
          "time": 22.666644000000023,
          "velocity": 0.25984251968503935,
          "duration": 1.3333320000000128
        },
        {
          "name": "D2",
          "midi": 38,
          "time": 22.833310500000024,
          "velocity": 0.25984251968503935,
          "duration": 0.1666665000000016
        },
        {
          "name": "D3",
          "midi": 50,
          "time": 22.833310500000024,
          "velocity": 0.25984251968503935,
          "duration": 0.1666665000000016
        },
        {
          "name": "A2",
          "midi": 45,
          "time": 22.999977000000026,
          "velocity": 0.25984251968503935,
          "duration": 0.1666665000000016
        },
        {
          "name": "D2",
          "midi": 38,
          "time": 23.166643500000028,
          "velocity": 0.25984251968503935,
          "duration": 0.1666665000000016
        },
        {
          "name": "D2",
          "midi": 38,
          "time": 23.33331000000003,
          "velocity": 0.25984251968503935,
          "duration": 0.1666665000000016
        },
        {
          "name": "D3",
          "midi": 50,
          "time": 23.33331000000003,
          "velocity": 0.25984251968503935,
          "duration": 0.1666665000000016
        },
        {
          "name": "D2",
          "midi": 38,
          "time": 23.49997650000003,
          "velocity": 0.25984251968503935,
          "duration": 0.1666665000000016
        },
        {
          "name": "D3",
          "midi": 50,
          "time": 23.666643000000033,
          "velocity": 0.25984251968503935,
          "duration": 0.1666665000000016
        },
        {
          "name": "A2",
          "midi": 45,
          "time": 23.666643000000033,
          "velocity": 0.25984251968503935,
          "duration": 0.1666665000000016
        },
        {
          "name": "E2",
          "midi": 40,
          "time": 23.833309500000034,
          "velocity": 0.25984251968503935,
          "duration": 0.1666665000000016
        },
        {
          "name": "D3",
          "midi": 50,
          "time": 23.999976000000036,
          "velocity": 0.25984251968503935,
          "duration": 0.1666665000000016
        },
        {
          "name": "D2",
          "midi": 38,
          "time": 23.999976000000036,
          "velocity": 0.25984251968503935,
          "duration": 0.1666665000000016
        },
        {
          "name": "A4",
          "midi": 69,
          "time": 23.999976000000036,
          "velocity": 0.25984251968503935,
          "duration": 0.6666660000000064
        },
        {
          "name": "A3",
          "midi": 57,
          "time": 23.999976000000036,
          "velocity": 0.25984251968503935,
          "duration": 0.6666660000000064
        },
        {
          "name": "A4",
          "midi": 69,
          "time": 23.999976000000036,
          "velocity": 0.25984251968503935,
          "duration": 0.6666660000000064
        },
        {
          "name": "A3",
          "midi": 57,
          "time": 23.999976000000036,
          "velocity": 0.25984251968503935,
          "duration": 0.6666660000000064
        },
        {
          "name": "D2",
          "midi": 38,
          "time": 24.166642500000037,
          "velocity": 0.25984251968503935,
          "duration": 0.1666665000000016
        },
        {
          "name": "A2",
          "midi": 45,
          "time": 24.33330900000004,
          "velocity": 0.25984251968503935,
          "duration": 0.1666665000000016
        },
        {
          "name": "D3",
          "midi": 50,
          "time": 24.49997550000004,
          "velocity": 0.25984251968503935,
          "duration": 0.1666665000000016
        },
        {
          "name": "D2",
          "midi": 38,
          "time": 24.49997550000004,
          "velocity": 0.25984251968503935,
          "duration": 0.1666665000000016
        },
        {
          "name": "D2",
          "midi": 38,
          "time": 24.666642000000042,
          "velocity": 0.25984251968503935,
          "duration": 0.1666665000000016
        },
        {
          "name": "E4",
          "midi": 64,
          "time": 24.666642000000042,
          "velocity": 0.25984251968503935,
          "duration": 0.6666660000000064
        },
        {
          "name": "E5",
          "midi": 76,
          "time": 24.666642000000042,
          "velocity": 0.25984251968503935,
          "duration": 0.6666660000000064
        },
        {
          "name": "E4",
          "midi": 64,
          "time": 24.666642000000042,
          "velocity": 0.25984251968503935,
          "duration": 0.6666660000000064
        },
        {
          "name": "E5",
          "midi": 76,
          "time": 24.666642000000042,
          "velocity": 0.25984251968503935,
          "duration": 0.6666660000000064
        },
        {
          "name": "D2",
          "midi": 38,
          "time": 24.833308500000044,
          "velocity": 0.25984251968503935,
          "duration": 0.1666665000000016
        },
        {
          "name": "A2",
          "midi": 45,
          "time": 24.999975000000045,
          "velocity": 0.25984251968503935,
          "duration": 0.1666665000000016
        },
        {
          "name": "D3",
          "midi": 50,
          "time": 24.999975000000045,
          "velocity": 0.25984251968503935,
          "duration": 0.1666665000000016
        },
        {
          "name": "D2",
          "midi": 38,
          "time": 25.166641500000047,
          "velocity": 0.25984251968503935,
          "duration": 0.1666665000000016
        },
        {
          "name": "D2",
          "midi": 38,
          "time": 25.33330800000005,
          "velocity": 0.25984251968503935,
          "duration": 0.1666665000000016
        },
        {
          "name": "E3",
          "midi": 52,
          "time": 25.33330800000005,
          "velocity": 0.25984251968503935,
          "duration": 1.3333320000000128
        },
        {
          "name": "E4",
          "midi": 64,
          "time": 25.33330800000005,
          "velocity": 0.25984251968503935,
          "duration": 1.3333320000000128
        },
        {
          "name": "E3",
          "midi": 52,
          "time": 25.33330800000005,
          "velocity": 0.25984251968503935,
          "duration": 1.3333320000000128
        },
        {
          "name": "E4",
          "midi": 64,
          "time": 25.33330800000005,
          "velocity": 0.25984251968503935,
          "duration": 1.3333320000000128
        },
        {
          "name": "D2",
          "midi": 38,
          "time": 25.49997450000005,
          "velocity": 0.25984251968503935,
          "duration": 0.1666665000000016
        },
        {
          "name": "D3",
          "midi": 50,
          "time": 25.49997450000005,
          "velocity": 0.25984251968503935,
          "duration": 0.1666665000000016
        },
        {
          "name": "A2",
          "midi": 45,
          "time": 25.66664100000005,
          "velocity": 0.25984251968503935,
          "duration": 0.1666665000000016
        },
        {
          "name": "D2",
          "midi": 38,
          "time": 25.833307500000053,
          "velocity": 0.25984251968503935,
          "duration": 0.1666665000000016
        },
        {
          "name": "D2",
          "midi": 38,
          "time": 25.999974000000055,
          "velocity": 0.25984251968503935,
          "duration": 0.1666665000000016
        },
        {
          "name": "D3",
          "midi": 50,
          "time": 25.999974000000055,
          "velocity": 0.25984251968503935,
          "duration": 0.1666665000000016
        },
        {
          "name": "D2",
          "midi": 38,
          "time": 26.166640500000057,
          "velocity": 0.25984251968503935,
          "duration": 0.1666665000000016
        },
        {
          "name": "D3",
          "midi": 50,
          "time": 26.333307000000058,
          "velocity": 0.25984251968503935,
          "duration": 0.1666665000000016
        },
        {
          "name": "A2",
          "midi": 45,
          "time": 26.333307000000058,
          "velocity": 0.25984251968503935,
          "duration": 0.1666665000000016
        },
        {
          "name": "E2",
          "midi": 40,
          "time": 26.49997350000006,
          "velocity": 0.25984251968503935,
          "duration": 0.1666665000000016
        },
        {
          "name": "C#3",
          "midi": 49,
          "time": 26.66664000000006,
          "velocity": 0.25984251968503935,
          "duration": 0.1666665000000016
        },
        {
          "name": "C#2",
          "midi": 37,
          "time": 26.66664000000006,
          "velocity": 0.25984251968503935,
          "duration": 0.1666665000000016
        },
        {
          "name": "E4",
          "midi": 64,
          "time": 26.66664000000006,
          "velocity": 0.25984251968503935,
          "duration": 0.6666660000000064
        },
        {
          "name": "C#4",
          "midi": 61,
          "time": 26.66664000000006,
          "velocity": 0.25984251968503935,
          "duration": 0.6666660000000064
        },
        {
          "name": "G#3",
          "midi": 56,
          "time": 26.66664000000006,
          "velocity": 0.25984251968503935,
          "duration": 0.6666660000000064
        },
        {
          "name": "E4",
          "midi": 64,
          "time": 26.66664000000006,
          "velocity": 0.25984251968503935,
          "duration": 0.6666660000000064
        },
        {
          "name": "C#4",
          "midi": 61,
          "time": 26.66664000000006,
          "velocity": 0.25984251968503935,
          "duration": 0.6666660000000064
        },
        {
          "name": "G#3",
          "midi": 56,
          "time": 26.66664000000006,
          "velocity": 0.25984251968503935,
          "duration": 0.6666660000000064
        },
        {
          "name": "C#2",
          "midi": 37,
          "time": 26.833306500000063,
          "velocity": 0.25984251968503935,
          "duration": 0.1666665000000016
        },
        {
          "name": "G#2",
          "midi": 44,
          "time": 26.999973000000065,
          "velocity": 0.25984251968503935,
          "duration": 0.1666665000000016
        },
        {
          "name": "C#3",
          "midi": 49,
          "time": 27.166639500000066,
          "velocity": 0.25984251968503935,
          "duration": 0.1666665000000016
        },
        {
          "name": "C#2",
          "midi": 37,
          "time": 27.166639500000066,
          "velocity": 0.25984251968503935,
          "duration": 0.1666665000000016
        },
        {
          "name": "C#2",
          "midi": 37,
          "time": 27.333306000000068,
          "velocity": 0.25984251968503935,
          "duration": 0.1666665000000016
        },
        {
          "name": "G#3",
          "midi": 56,
          "time": 27.333306000000068,
          "velocity": 0.25984251968503935,
          "duration": 0.6666660000000064
        },
        {
          "name": "C#4",
          "midi": 61,
          "time": 27.333306000000068,
          "velocity": 0.25984251968503935,
          "duration": 0.6666660000000064
        },
        {
          "name": "G#4",
          "midi": 68,
          "time": 27.333306000000068,
          "velocity": 0.25984251968503935,
          "duration": 0.6666660000000064
        },
        {
          "name": "G#3",
          "midi": 56,
          "time": 27.333306000000068,
          "velocity": 0.25984251968503935,
          "duration": 0.6666660000000064
        },
        {
          "name": "C#4",
          "midi": 61,
          "time": 27.333306000000068,
          "velocity": 0.25984251968503935,
          "duration": 0.6666660000000064
        },
        {
          "name": "G#4",
          "midi": 68,
          "time": 27.333306000000068,
          "velocity": 0.25984251968503935,
          "duration": 0.6666660000000064
        },
        {
          "name": "C#2",
          "midi": 37,
          "time": 27.49997250000007,
          "velocity": 0.25984251968503935,
          "duration": 0.1666665000000016
        },
        {
          "name": "G#2",
          "midi": 44,
          "time": 27.66663900000007,
          "velocity": 0.25984251968503935,
          "duration": 0.1666665000000016
        },
        {
          "name": "C#3",
          "midi": 49,
          "time": 27.66663900000007,
          "velocity": 0.25984251968503935,
          "duration": 0.1666665000000016
        },
        {
          "name": "C#2",
          "midi": 37,
          "time": 27.833305500000073,
          "velocity": 0.25984251968503935,
          "duration": 0.1666665000000016
        },
        {
          "name": "C#2",
          "midi": 37,
          "time": 27.999972000000074,
          "velocity": 0.25984251968503935,
          "duration": 0.1666665000000016
        },
        {
          "name": "G#4",
          "midi": 68,
          "time": 27.999972000000074,
          "velocity": 0.25984251968503935,
          "duration": 0.9999990000000096
        },
        {
          "name": "E5",
          "midi": 76,
          "time": 27.999972000000074,
          "velocity": 0.25984251968503935,
          "duration": 0.9999990000000096
        },
        {
          "name": "G#5",
          "midi": 80,
          "time": 27.999972000000074,
          "velocity": 0.25984251968503935,
          "duration": 0.9999990000000096
        },
        {
          "name": "G#4",
          "midi": 68,
          "time": 27.999972000000074,
          "velocity": 0.25984251968503935,
          "duration": 0.9999990000000096
        },
        {
          "name": "E5",
          "midi": 76,
          "time": 27.999972000000074,
          "velocity": 0.25984251968503935,
          "duration": 0.9999990000000096
        },
        {
          "name": "G#5",
          "midi": 80,
          "time": 27.999972000000074,
          "velocity": 0.25984251968503935,
          "duration": 0.9999990000000096
        },
        {
          "name": "C#2",
          "midi": 37,
          "time": 28.166638500000076,
          "velocity": 0.25984251968503935,
          "duration": 0.1666665000000016
        },
        {
          "name": "C#3",
          "midi": 49,
          "time": 28.166638500000076,
          "velocity": 0.25984251968503935,
          "duration": 0.1666665000000016
        },
        {
          "name": "G#2",
          "midi": 44,
          "time": 28.333305000000077,
          "velocity": 0.25984251968503935,
          "duration": 0.1666665000000016
        },
        {
          "name": "C#2",
          "midi": 37,
          "time": 28.49997150000008,
          "velocity": 0.25984251968503935,
          "duration": 0.1666665000000016
        },
        {
          "name": "C#2",
          "midi": 37,
          "time": 28.66663800000008,
          "velocity": 0.25984251968503935,
          "duration": 0.1666665000000016
        },
        {
          "name": "C#3",
          "midi": 49,
          "time": 28.66663800000008,
          "velocity": 0.25984251968503935,
          "duration": 0.1666665000000016
        },
        {
          "name": "C#2",
          "midi": 37,
          "time": 28.833304500000082,
          "velocity": 0.25984251968503935,
          "duration": 0.1666665000000016
        },
        {
          "name": "D2",
          "midi": 38,
          "time": 28.999971000000084,
          "velocity": 0.25984251968503935,
          "duration": 0.1666665000000016
        },
        {
          "name": "A5",
          "midi": 81,
          "time": 28.999971000000084,
          "velocity": 0.25984251968503935,
          "duration": 0.3333330000000032
        },
        {
          "name": "F#5",
          "midi": 78,
          "time": 28.999971000000084,
          "velocity": 0.25984251968503935,
          "duration": 0.3333330000000032
        },
        {
          "name": "A4",
          "midi": 69,
          "time": 28.999971000000084,
          "velocity": 0.25984251968503935,
          "duration": 0.3333330000000032
        },
        {
          "name": "A5",
          "midi": 81,
          "time": 28.999971000000084,
          "velocity": 0.25984251968503935,
          "duration": 0.3333330000000032
        },
        {
          "name": "F#5",
          "midi": 78,
          "time": 28.999971000000084,
          "velocity": 0.25984251968503935,
          "duration": 0.3333330000000032
        },
        {
          "name": "A4",
          "midi": 69,
          "time": 28.999971000000084,
          "velocity": 0.25984251968503935,
          "duration": 0.3333330000000032
        },
        {
          "name": "E2",
          "midi": 40,
          "time": 29.166637500000085,
          "velocity": 0.25984251968503935,
          "duration": 0.1666665000000016
        },
        {
          "name": "G#4",
          "midi": 68,
          "time": 29.333304000000087,
          "velocity": 0.25984251968503935,
          "duration": 0.6666660000000064
        },
        {
          "name": "E5",
          "midi": 76,
          "time": 29.333304000000087,
          "velocity": 0.25984251968503935,
          "duration": 0.6666660000000064
        },
        {
          "name": "G#5",
          "midi": 80,
          "time": 29.333304000000087,
          "velocity": 0.25984251968503935,
          "duration": 0.6666660000000064
        },
        {
          "name": "F#2",
          "midi": 42,
          "time": 29.333304000000087,
          "velocity": 0.25984251968503935,
          "duration": 0.1666665000000016
        },
        {
          "name": "F#3",
          "midi": 54,
          "time": 29.333304000000087,
          "velocity": 0.25984251968503935,
          "duration": 0.1666665000000016
        },
        {
          "name": "G#4",
          "midi": 68,
          "time": 29.333304000000087,
          "velocity": 0.25984251968503935,
          "duration": 0.6666660000000064
        },
        {
          "name": "E5",
          "midi": 76,
          "time": 29.333304000000087,
          "velocity": 0.25984251968503935,
          "duration": 0.6666660000000064
        },
        {
          "name": "G#5",
          "midi": 80,
          "time": 29.333304000000087,
          "velocity": 0.25984251968503935,
          "duration": 0.6666660000000064
        },
        {
          "name": "F#2",
          "midi": 42,
          "time": 29.49997050000009,
          "velocity": 0.25984251968503935,
          "duration": 0.1666665000000016
        },
        {
          "name": "C#3",
          "midi": 49,
          "time": 29.66663700000009,
          "velocity": 0.25984251968503935,
          "duration": 0.1666665000000016
        },
        {
          "name": "F#2",
          "midi": 42,
          "time": 29.833303500000092,
          "velocity": 0.25984251968503935,
          "duration": 0.1666665000000016
        },
        {
          "name": "G#3",
          "midi": 56,
          "time": 29.999970000000094,
          "velocity": 0.25984251968503935,
          "duration": 0.1666665000000016
        },
        {
          "name": "G#2",
          "midi": 44,
          "time": 29.999970000000094,
          "velocity": 0.25984251968503935,
          "duration": 0.1666665000000016
        },
        {
          "name": "E5",
          "midi": 76,
          "time": 29.999970000000094,
          "velocity": 0.25984251968503935,
          "duration": 0.6666660000000064
        },
        {
          "name": "E4",
          "midi": 64,
          "time": 29.999970000000094,
          "velocity": 0.25984251968503935,
          "duration": 0.6666660000000064
        },
        {
          "name": "B4",
          "midi": 71,
          "time": 29.999970000000094,
          "velocity": 0.25984251968503935,
          "duration": 0.6666660000000064
        },
        {
          "name": "E5",
          "midi": 76,
          "time": 29.999970000000094,
          "velocity": 0.25984251968503935,
          "duration": 0.6666660000000064
        },
        {
          "name": "E4",
          "midi": 64,
          "time": 29.999970000000094,
          "velocity": 0.25984251968503935,
          "duration": 0.6666660000000064
        },
        {
          "name": "B4",
          "midi": 71,
          "time": 29.999970000000094,
          "velocity": 0.25984251968503935,
          "duration": 0.6666660000000064
        },
        {
          "name": "G#2",
          "midi": 44,
          "time": 30.166636500000095,
          "velocity": 0.25984251968503935,
          "duration": 0.1666665000000016
        },
        {
          "name": "E3",
          "midi": 52,
          "time": 30.333303000000097,
          "velocity": 0.25984251968503935,
          "duration": 0.1666665000000016
        },
        {
          "name": "G#2",
          "midi": 44,
          "time": 30.4999695000001,
          "velocity": 0.25984251968503935,
          "duration": 0.1666665000000016
        },
        {
          "name": "A4",
          "midi": 69,
          "time": 30.6666360000001,
          "velocity": 0.25984251968503935,
          "duration": 1.0833322500000087
        },
        {
          "name": "F#4",
          "midi": 66,
          "time": 30.6666360000001,
          "velocity": 0.25984251968503935,
          "duration": 1.3333320000000093
        },
        {
          "name": "A3",
          "midi": 57,
          "time": 30.6666360000001,
          "velocity": 0.25984251968503935,
          "duration": 0.1666665000000016
        },
        {
          "name": "A2",
          "midi": 45,
          "time": 30.6666360000001,
          "velocity": 0.25984251968503935,
          "duration": 0.1666665000000016
        },
        {
          "name": "A4",
          "midi": 69,
          "time": 30.6666360000001,
          "velocity": 0.25984251968503935,
          "duration": 1.0833322500000087
        },
        {
          "name": "F#4",
          "midi": 66,
          "time": 30.6666360000001,
          "velocity": 0.25984251968503935,
          "duration": 1.3333320000000093
        },
        {
          "name": "A5",
          "midi": 81,
          "time": 30.8333025000001,
          "velocity": 0.25984251968503935,
          "duration": 0.1666665000000016
        },
        {
          "name": "A2",
          "midi": 45,
          "time": 30.8333025000001,
          "velocity": 0.25984251968503935,
          "duration": 0.1666665000000016
        },
        {
          "name": "A5",
          "midi": 81,
          "time": 30.8333025000001,
          "velocity": 0.25984251968503935,
          "duration": 0.1666665000000016
        },
        {
          "name": "G#5",
          "midi": 80,
          "time": 30.999969000000103,
          "velocity": 0.25984251968503935,
          "duration": 0.1666665000000016
        },
        {
          "name": "A3",
          "midi": 57,
          "time": 30.999969000000103,
          "velocity": 0.25984251968503935,
          "duration": 0.1666665000000016
        },
        {
          "name": "G#5",
          "midi": 80,
          "time": 30.999969000000103,
          "velocity": 0.25984251968503935,
          "duration": 0.1666665000000016
        },
        {
          "name": "E5",
          "midi": 76,
          "time": 31.166635500000105,
          "velocity": 0.25984251968503935,
          "duration": 0.1666665000000016
        },
        {
          "name": "A2",
          "midi": 45,
          "time": 31.166635500000105,
          "velocity": 0.25984251968503935,
          "duration": 0.1666665000000016
        },
        {
          "name": "E5",
          "midi": 76,
          "time": 31.166635500000105,
          "velocity": 0.25984251968503935,
          "duration": 0.1666665000000016
        },
        {
          "name": "C#5",
          "midi": 73,
          "time": 31.333302000000106,
          "velocity": 0.25984251968503935,
          "duration": 0.1666665000000016
        },
        {
          "name": "B2",
          "midi": 47,
          "time": 31.333302000000106,
          "velocity": 0.25984251968503935,
          "duration": 0.1666665000000016
        },
        {
          "name": "C#5",
          "midi": 73,
          "time": 31.333302000000106,
          "velocity": 0.25984251968503935,
          "duration": 0.1666665000000016
        },
        {
          "name": "B4",
          "midi": 71,
          "time": 31.499968500000108,
          "velocity": 0.25984251968503935,
          "duration": 0.1666665000000016
        },
        {
          "name": "A2",
          "midi": 45,
          "time": 31.499968500000108,
          "velocity": 0.25984251968503935,
          "duration": 0.1666665000000016
        },
        {
          "name": "B4",
          "midi": 71,
          "time": 31.499968500000108,
          "velocity": 0.25984251968503935,
          "duration": 0.1666665000000016
        },
        {
          "name": "A4",
          "midi": 69,
          "time": 31.66663500000011,
          "velocity": 0.25984251968503935,
          "duration": 0.33333299999999966
        },
        {
          "name": "B2",
          "midi": 47,
          "time": 31.66663500000011,
          "velocity": 0.25984251968503935,
          "duration": 0.16666649999999805
        },
        {
          "name": "A4",
          "midi": 69,
          "time": 31.66663500000011,
          "velocity": 0.25984251968503935,
          "duration": 0.33333299999999966
        },
        {
          "name": "E4",
          "midi": 64,
          "time": 31.833301500000108,
          "velocity": 0.25984251968503935,
          "duration": 0.1666665000000016
        },
        {
          "name": "C#3",
          "midi": 49,
          "time": 31.833301500000108,
          "velocity": 0.25984251968503935,
          "duration": 0.1666665000000016
        },
        {
          "name": "E4",
          "midi": 64,
          "time": 31.833301500000108,
          "velocity": 0.25984251968503935,
          "duration": 0.1666665000000016
        },
        {
          "name": "E4",
          "midi": 64,
          "time": 31.99996800000011,
          "velocity": 0.25984251968503935,
          "duration": 0.6666659999999922
        },
        {
          "name": "E3",
          "midi": 52,
          "time": 31.99996800000011,
          "velocity": 0.25984251968503935,
          "duration": 0.6666659999999922
        },
        {
          "name": "D3",
          "midi": 50,
          "time": 31.99996800000011,
          "velocity": 0.25984251968503935,
          "duration": 0.16666649999999805
        },
        {
          "name": "D2",
          "midi": 38,
          "time": 31.99996800000011,
          "velocity": 0.25984251968503935,
          "duration": 0.16666649999999805
        },
        {
          "name": "E4",
          "midi": 64,
          "time": 31.99996800000011,
          "velocity": 0.25984251968503935,
          "duration": 0.6666659999999922
        },
        {
          "name": "E3",
          "midi": 52,
          "time": 31.99996800000011,
          "velocity": 0.25984251968503935,
          "duration": 0.6666659999999922
        },
        {
          "name": "D2",
          "midi": 38,
          "time": 32.16663450000011,
          "velocity": 0.25984251968503935,
          "duration": 0.16666649999999805
        },
        {
          "name": "A2",
          "midi": 45,
          "time": 32.333301000000105,
          "velocity": 0.25984251968503935,
          "duration": 0.16666649999999805
        },
        {
          "name": "D3",
          "midi": 50,
          "time": 32.4999675000001,
          "velocity": 0.25984251968503935,
          "duration": 0.16666649999999805
        },
        {
          "name": "D2",
          "midi": 38,
          "time": 32.4999675000001,
          "velocity": 0.25984251968503935,
          "duration": 0.16666649999999805
        },
        {
          "name": "E4",
          "midi": 64,
          "time": 32.6666340000001,
          "velocity": 0.25984251968503935,
          "duration": 0.6666659999999922
        },
        {
          "name": "E5",
          "midi": 76,
          "time": 32.6666340000001,
          "velocity": 0.25984251968503935,
          "duration": 0.6666659999999922
        },
        {
          "name": "D2",
          "midi": 38,
          "time": 32.6666340000001,
          "velocity": 0.25984251968503935,
          "duration": 0.16666649999999805
        },
        {
          "name": "E4",
          "midi": 64,
          "time": 32.6666340000001,
          "velocity": 0.25984251968503935,
          "duration": 0.6666659999999922
        },
        {
          "name": "E5",
          "midi": 76,
          "time": 32.6666340000001,
          "velocity": 0.25984251968503935,
          "duration": 0.6666659999999922
        },
        {
          "name": "D2",
          "midi": 38,
          "time": 32.8333005000001,
          "velocity": 0.25984251968503935,
          "duration": 0.16666649999999805
        },
        {
          "name": "A2",
          "midi": 45,
          "time": 32.9999670000001,
          "velocity": 0.25984251968503935,
          "duration": 0.16666649999999805
        },
        {
          "name": "D3",
          "midi": 50,
          "time": 32.9999670000001,
          "velocity": 0.25984251968503935,
          "duration": 0.16666649999999805
        },
        {
          "name": "D2",
          "midi": 38,
          "time": 33.166633500000096,
          "velocity": 0.25984251968503935,
          "duration": 0.16666649999999805
        },
        {
          "name": "B3",
          "midi": 59,
          "time": 33.333300000000094,
          "velocity": 0.25984251968503935,
          "duration": 1.3333319999999844
        },
        {
          "name": "B4",
          "midi": 71,
          "time": 33.333300000000094,
          "velocity": 0.25984251968503935,
          "duration": 1.3333319999999844
        },
        {
          "name": "D2",
          "midi": 38,
          "time": 33.333300000000094,
          "velocity": 0.25984251968503935,
          "duration": 0.16666649999999805
        },
        {
          "name": "B3",
          "midi": 59,
          "time": 33.333300000000094,
          "velocity": 0.25984251968503935,
          "duration": 1.3333319999999844
        },
        {
          "name": "B4",
          "midi": 71,
          "time": 33.333300000000094,
          "velocity": 0.25984251968503935,
          "duration": 1.3333319999999844
        },
        {
          "name": "D2",
          "midi": 38,
          "time": 33.49996650000009,
          "velocity": 0.25984251968503935,
          "duration": 0.16666649999999805
        },
        {
          "name": "D3",
          "midi": 50,
          "time": 33.49996650000009,
          "velocity": 0.25984251968503935,
          "duration": 0.16666649999999805
        },
        {
          "name": "A2",
          "midi": 45,
          "time": 33.66663300000009,
          "velocity": 0.25984251968503935,
          "duration": 0.16666649999999805
        },
        {
          "name": "D2",
          "midi": 38,
          "time": 33.83329950000009,
          "velocity": 0.25984251968503935,
          "duration": 0.16666649999999805
        },
        {
          "name": "D2",
          "midi": 38,
          "time": 33.999966000000086,
          "velocity": 0.25984251968503935,
          "duration": 0.16666649999999805
        },
        {
          "name": "D3",
          "midi": 50,
          "time": 33.999966000000086,
          "velocity": 0.25984251968503935,
          "duration": 0.16666649999999805
        },
        {
          "name": "D2",
          "midi": 38,
          "time": 34.166632500000084,
          "velocity": 0.25984251968503935,
          "duration": 0.16666649999999805
        },
        {
          "name": "D3",
          "midi": 50,
          "time": 34.33329900000008,
          "velocity": 0.25984251968503935,
          "duration": 0.16666649999999805
        },
        {
          "name": "A2",
          "midi": 45,
          "time": 34.33329900000008,
          "velocity": 0.25984251968503935,
          "duration": 0.16666649999999805
        },
        {
          "name": "E2",
          "midi": 40,
          "time": 34.49996550000008,
          "velocity": 0.25984251968503935,
          "duration": 0.16666649999999805
        },
        {
          "name": "D3",
          "midi": 50,
          "time": 34.66663200000008,
          "velocity": 0.25984251968503935,
          "duration": 0.16666649999999805
        },
        {
          "name": "D2",
          "midi": 38,
          "time": 34.66663200000008,
          "velocity": 0.25984251968503935,
          "duration": 0.16666649999999805
        },
        {
          "name": "A4",
          "midi": 69,
          "time": 34.66663200000008,
          "velocity": 0.25984251968503935,
          "duration": 0.6666659999999922
        },
        {
          "name": "A3",
          "midi": 57,
          "time": 34.66663200000008,
          "velocity": 0.25984251968503935,
          "duration": 0.6666659999999922
        },
        {
          "name": "A4",
          "midi": 69,
          "time": 34.66663200000008,
          "velocity": 0.25984251968503935,
          "duration": 0.6666659999999922
        },
        {
          "name": "A3",
          "midi": 57,
          "time": 34.66663200000008,
          "velocity": 0.25984251968503935,
          "duration": 0.6666659999999922
        },
        {
          "name": "D2",
          "midi": 38,
          "time": 34.833298500000076,
          "velocity": 0.25984251968503935,
          "duration": 0.16666649999999805
        },
        {
          "name": "A2",
          "midi": 45,
          "time": 34.999965000000074,
          "velocity": 0.25984251968503935,
          "duration": 0.16666649999999805
        },
        {
          "name": "D3",
          "midi": 50,
          "time": 35.16663150000007,
          "velocity": 0.25984251968503935,
          "duration": 0.16666649999999805
        },
        {
          "name": "D2",
          "midi": 38,
          "time": 35.16663150000007,
          "velocity": 0.25984251968503935,
          "duration": 0.16666649999999805
        },
        {
          "name": "D2",
          "midi": 38,
          "time": 35.33329800000007,
          "velocity": 0.25984251968503935,
          "duration": 0.16666649999999805
        },
        {
          "name": "E4",
          "midi": 64,
          "time": 35.33329800000007,
          "velocity": 0.25984251968503935,
          "duration": 0.6666659999999922
        },
        {
          "name": "E5",
          "midi": 76,
          "time": 35.33329800000007,
          "velocity": 0.25984251968503935,
          "duration": 0.6666659999999922
        },
        {
          "name": "E4",
          "midi": 64,
          "time": 35.33329800000007,
          "velocity": 0.25984251968503935,
          "duration": 0.6666659999999922
        },
        {
          "name": "E5",
          "midi": 76,
          "time": 35.33329800000007,
          "velocity": 0.25984251968503935,
          "duration": 0.6666659999999922
        },
        {
          "name": "D2",
          "midi": 38,
          "time": 35.49996450000007,
          "velocity": 0.25984251968503935,
          "duration": 0.16666649999999805
        },
        {
          "name": "A2",
          "midi": 45,
          "time": 35.666631000000066,
          "velocity": 0.25984251968503935,
          "duration": 0.16666649999999805
        },
        {
          "name": "D3",
          "midi": 50,
          "time": 35.666631000000066,
          "velocity": 0.25984251968503935,
          "duration": 0.16666649999999805
        },
        {
          "name": "D2",
          "midi": 38,
          "time": 35.833297500000064,
          "velocity": 0.25984251968503935,
          "duration": 0.16666649999999805
        },
        {
          "name": "D2",
          "midi": 38,
          "time": 35.99996400000006,
          "velocity": 0.25984251968503935,
          "duration": 0.16666649999999805
        },
        {
          "name": "E3",
          "midi": 52,
          "time": 35.99996400000006,
          "velocity": 0.25984251968503935,
          "duration": 1.3333319999999844
        },
        {
          "name": "E4",
          "midi": 64,
          "time": 35.99996400000006,
          "velocity": 0.25984251968503935,
          "duration": 1.3333319999999844
        },
        {
          "name": "E3",
          "midi": 52,
          "time": 35.99996400000006,
          "velocity": 0.25984251968503935,
          "duration": 1.3333319999999844
        },
        {
          "name": "E4",
          "midi": 64,
          "time": 35.99996400000006,
          "velocity": 0.25984251968503935,
          "duration": 1.3333319999999844
        },
        {
          "name": "D2",
          "midi": 38,
          "time": 36.16663050000006,
          "velocity": 0.25984251968503935,
          "duration": 0.16666649999999805
        },
        {
          "name": "D3",
          "midi": 50,
          "time": 36.16663050000006,
          "velocity": 0.25984251968503935,
          "duration": 0.16666649999999805
        },
        {
          "name": "A2",
          "midi": 45,
          "time": 36.33329700000006,
          "velocity": 0.25984251968503935,
          "duration": 0.16666649999999805
        },
        {
          "name": "D2",
          "midi": 38,
          "time": 36.49996350000006,
          "velocity": 0.25984251968503935,
          "duration": 0.16666649999999805
        },
        {
          "name": "D2",
          "midi": 38,
          "time": 36.666630000000055,
          "velocity": 0.25984251968503935,
          "duration": 0.16666649999999805
        },
        {
          "name": "D3",
          "midi": 50,
          "time": 36.666630000000055,
          "velocity": 0.25984251968503935,
          "duration": 0.16666649999999805
        },
        {
          "name": "D2",
          "midi": 38,
          "time": 36.83329650000005,
          "velocity": 0.25984251968503935,
          "duration": 0.16666649999999805
        },
        {
          "name": "D3",
          "midi": 50,
          "time": 36.99996300000005,
          "velocity": 0.25984251968503935,
          "duration": 0.16666649999999805
        },
        {
          "name": "A2",
          "midi": 45,
          "time": 36.99996300000005,
          "velocity": 0.25984251968503935,
          "duration": 0.16666649999999805
        },
        {
          "name": "E2",
          "midi": 40,
          "time": 37.16662950000005,
          "velocity": 0.25984251968503935,
          "duration": 0.16666649999999805
        },
        {
          "name": "C#3",
          "midi": 49,
          "time": 37.33329600000005,
          "velocity": 0.25984251968503935,
          "duration": 0.16666649999999805
        },
        {
          "name": "C#2",
          "midi": 37,
          "time": 37.33329600000005,
          "velocity": 0.25984251968503935,
          "duration": 0.16666649999999805
        },
        {
          "name": "E4",
          "midi": 64,
          "time": 37.33329600000005,
          "velocity": 0.25984251968503935,
          "duration": 0.6666659999999922
        },
        {
          "name": "C#4",
          "midi": 61,
          "time": 37.33329600000005,
          "velocity": 0.25984251968503935,
          "duration": 0.6666659999999922
        },
        {
          "name": "G#3",
          "midi": 56,
          "time": 37.33329600000005,
          "velocity": 0.25984251968503935,
          "duration": 0.6666659999999922
        },
        {
          "name": "E4",
          "midi": 64,
          "time": 37.33329600000005,
          "velocity": 0.25984251968503935,
          "duration": 0.6666659999999922
        },
        {
          "name": "C#4",
          "midi": 61,
          "time": 37.33329600000005,
          "velocity": 0.25984251968503935,
          "duration": 0.6666659999999922
        },
        {
          "name": "G#3",
          "midi": 56,
          "time": 37.33329600000005,
          "velocity": 0.25984251968503935,
          "duration": 0.6666659999999922
        },
        {
          "name": "C#2",
          "midi": 37,
          "time": 37.499962500000045,
          "velocity": 0.25984251968503935,
          "duration": 0.16666649999999805
        },
        {
          "name": "G#2",
          "midi": 44,
          "time": 37.66662900000004,
          "velocity": 0.25984251968503935,
          "duration": 0.16666649999999805
        },
        {
          "name": "C#3",
          "midi": 49,
          "time": 37.83329550000004,
          "velocity": 0.25984251968503935,
          "duration": 0.16666649999999805
        },
        {
          "name": "C#2",
          "midi": 37,
          "time": 37.83329550000004,
          "velocity": 0.25984251968503935,
          "duration": 0.16666649999999805
        },
        {
          "name": "C#2",
          "midi": 37,
          "time": 37.99996200000004,
          "velocity": 0.25984251968503935,
          "duration": 0.16666649999999805
        },
        {
          "name": "G#3",
          "midi": 56,
          "time": 37.99996200000004,
          "velocity": 0.25984251968503935,
          "duration": 0.6666659999999922
        },
        {
          "name": "C#4",
          "midi": 61,
          "time": 37.99996200000004,
          "velocity": 0.25984251968503935,
          "duration": 0.6666659999999922
        },
        {
          "name": "G#4",
          "midi": 68,
          "time": 37.99996200000004,
          "velocity": 0.25984251968503935,
          "duration": 0.6666659999999922
        },
        {
          "name": "G#3",
          "midi": 56,
          "time": 37.99996200000004,
          "velocity": 0.25984251968503935,
          "duration": 0.6666659999999922
        },
        {
          "name": "C#4",
          "midi": 61,
          "time": 37.99996200000004,
          "velocity": 0.25984251968503935,
          "duration": 0.6666659999999922
        },
        {
          "name": "G#4",
          "midi": 68,
          "time": 37.99996200000004,
          "velocity": 0.25984251968503935,
          "duration": 0.6666659999999922
        },
        {
          "name": "C#2",
          "midi": 37,
          "time": 38.16662850000004,
          "velocity": 0.25984251968503935,
          "duration": 0.16666649999999805
        },
        {
          "name": "G#2",
          "midi": 44,
          "time": 38.333295000000035,
          "velocity": 0.25984251968503935,
          "duration": 0.16666649999999805
        },
        {
          "name": "C#3",
          "midi": 49,
          "time": 38.333295000000035,
          "velocity": 0.25984251968503935,
          "duration": 0.16666649999999805
        },
        {
          "name": "C#2",
          "midi": 37,
          "time": 38.49996150000003,
          "velocity": 0.25984251968503935,
          "duration": 0.16666649999999805
        },
        {
          "name": "C#2",
          "midi": 37,
          "time": 38.66662800000003,
          "velocity": 0.25984251968503935,
          "duration": 0.16666649999999805
        },
        {
          "name": "G#4",
          "midi": 68,
          "time": 38.66662800000003,
          "velocity": 0.25984251968503935,
          "duration": 0.9999989999999883
        },
        {
          "name": "E5",
          "midi": 76,
          "time": 38.66662800000003,
          "velocity": 0.25984251968503935,
          "duration": 0.9999989999999883
        },
        {
          "name": "G#5",
          "midi": 80,
          "time": 38.66662800000003,
          "velocity": 0.25984251968503935,
          "duration": 0.9999989999999883
        },
        {
          "name": "G#4",
          "midi": 68,
          "time": 38.66662800000003,
          "velocity": 0.25984251968503935,
          "duration": 0.9999989999999883
        },
        {
          "name": "E5",
          "midi": 76,
          "time": 38.66662800000003,
          "velocity": 0.25984251968503935,
          "duration": 0.9999989999999883
        },
        {
          "name": "G#5",
          "midi": 80,
          "time": 38.66662800000003,
          "velocity": 0.25984251968503935,
          "duration": 0.9999989999999883
        },
        {
          "name": "C#2",
          "midi": 37,
          "time": 38.83329450000003,
          "velocity": 0.25984251968503935,
          "duration": 0.16666649999999805
        },
        {
          "name": "C#3",
          "midi": 49,
          "time": 38.83329450000003,
          "velocity": 0.25984251968503935,
          "duration": 0.16666649999999805
        },
        {
          "name": "G#2",
          "midi": 44,
          "time": 38.99996100000003,
          "velocity": 0.25984251968503935,
          "duration": 0.16666649999999805
        },
        {
          "name": "C#2",
          "midi": 37,
          "time": 39.166627500000025,
          "velocity": 0.25984251968503935,
          "duration": 0.16666649999999805
        },
        {
          "name": "C#2",
          "midi": 37,
          "time": 39.33329400000002,
          "velocity": 0.25984251968503935,
          "duration": 0.16666649999999805
        },
        {
          "name": "C#3",
          "midi": 49,
          "time": 39.33329400000002,
          "velocity": 0.25984251968503935,
          "duration": 0.16666649999999805
        },
        {
          "name": "C#2",
          "midi": 37,
          "time": 39.49996050000002,
          "velocity": 0.25984251968503935,
          "duration": 0.16666649999999805
        },
        {
          "name": "D2",
          "midi": 38,
          "time": 39.66662700000002,
          "velocity": 0.25984251968503935,
          "duration": 0.16666649999999805
        },
        {
          "name": "A5",
          "midi": 81,
          "time": 39.66662700000002,
          "velocity": 0.25984251968503935,
          "duration": 0.3333329999999961
        },
        {
          "name": "F#5",
          "midi": 78,
          "time": 39.66662700000002,
          "velocity": 0.25984251968503935,
          "duration": 0.3333329999999961
        },
        {
          "name": "A4",
          "midi": 69,
          "time": 39.66662700000002,
          "velocity": 0.25984251968503935,
          "duration": 0.3333329999999961
        },
        {
          "name": "A5",
          "midi": 81,
          "time": 39.66662700000002,
          "velocity": 0.25984251968503935,
          "duration": 0.3333329999999961
        },
        {
          "name": "F#5",
          "midi": 78,
          "time": 39.66662700000002,
          "velocity": 0.25984251968503935,
          "duration": 0.3333329999999961
        },
        {
          "name": "A4",
          "midi": 69,
          "time": 39.66662700000002,
          "velocity": 0.25984251968503935,
          "duration": 0.3333329999999961
        },
        {
          "name": "E2",
          "midi": 40,
          "time": 39.83329350000002,
          "velocity": 0.25984251968503935,
          "duration": 0.16666649999999805
        },
        {
          "name": "G#4",
          "midi": 68,
          "time": 39.999960000000016,
          "velocity": 0.25984251968503935,
          "duration": 0.6666659999999922
        },
        {
          "name": "E5",
          "midi": 76,
          "time": 39.999960000000016,
          "velocity": 0.25984251968503935,
          "duration": 0.6666659999999922
        },
        {
          "name": "G#5",
          "midi": 80,
          "time": 39.999960000000016,
          "velocity": 0.25984251968503935,
          "duration": 0.6666659999999922
        },
        {
          "name": "F#2",
          "midi": 42,
          "time": 39.999960000000016,
          "velocity": 0.25984251968503935,
          "duration": 0.16666649999999805
        },
        {
          "name": "F#3",
          "midi": 54,
          "time": 39.999960000000016,
          "velocity": 0.25984251968503935,
          "duration": 0.16666649999999805
        },
        {
          "name": "G#4",
          "midi": 68,
          "time": 39.999960000000016,
          "velocity": 0.25984251968503935,
          "duration": 0.6666659999999922
        },
        {
          "name": "E5",
          "midi": 76,
          "time": 39.999960000000016,
          "velocity": 0.25984251968503935,
          "duration": 0.6666659999999922
        },
        {
          "name": "G#5",
          "midi": 80,
          "time": 39.999960000000016,
          "velocity": 0.25984251968503935,
          "duration": 0.6666659999999922
        },
        {
          "name": "F#2",
          "midi": 42,
          "time": 40.166626500000014,
          "velocity": 0.25984251968503935,
          "duration": 0.16666649999999805
        },
        {
          "name": "C#3",
          "midi": 49,
          "time": 40.33329300000001,
          "velocity": 0.25984251968503935,
          "duration": 0.16666649999999805
        },
        {
          "name": "F#2",
          "midi": 42,
          "time": 40.49995950000001,
          "velocity": 0.25984251968503935,
          "duration": 0.16666649999999805
        },
        {
          "name": "G#3",
          "midi": 56,
          "time": 40.66662600000001,
          "velocity": 0.25984251968503935,
          "duration": 0.16666649999999805
        },
        {
          "name": "G#2",
          "midi": 44,
          "time": 40.66662600000001,
          "velocity": 0.25984251968503935,
          "duration": 0.16666649999999805
        },
        {
          "name": "E5",
          "midi": 76,
          "time": 40.66662600000001,
          "velocity": 0.25984251968503935,
          "duration": 0.6666659999999922
        },
        {
          "name": "E4",
          "midi": 64,
          "time": 40.66662600000001,
          "velocity": 0.25984251968503935,
          "duration": 0.6666659999999922
        },
        {
          "name": "B4",
          "midi": 71,
          "time": 40.66662600000001,
          "velocity": 0.25984251968503935,
          "duration": 0.6666659999999922
        },
        {
          "name": "E5",
          "midi": 76,
          "time": 40.66662600000001,
          "velocity": 0.25984251968503935,
          "duration": 0.6666659999999922
        },
        {
          "name": "E4",
          "midi": 64,
          "time": 40.66662600000001,
          "velocity": 0.25984251968503935,
          "duration": 0.6666659999999922
        },
        {
          "name": "B4",
          "midi": 71,
          "time": 40.66662600000001,
          "velocity": 0.25984251968503935,
          "duration": 0.6666659999999922
        },
        {
          "name": "G#2",
          "midi": 44,
          "time": 40.833292500000006,
          "velocity": 0.25984251968503935,
          "duration": 0.16666649999999805
        },
        {
          "name": "E3",
          "midi": 52,
          "time": 40.999959000000004,
          "velocity": 0.25984251968503935,
          "duration": 0.16666649999999805
        },
        {
          "name": "G#2",
          "midi": 44,
          "time": 41.1666255,
          "velocity": 0.25984251968503935,
          "duration": 0.16666649999999805
        },
        {
          "name": "A4",
          "midi": 69,
          "time": 41.333292,
          "velocity": 0.25984251968503935,
          "duration": 1.083332249999991
        },
        {
          "name": "F#4",
          "midi": 66,
          "time": 41.333292,
          "velocity": 0.25984251968503935,
          "duration": 1.3333319999999915
        },
        {
          "name": "A3",
          "midi": 57,
          "time": 41.333292,
          "velocity": 0.25984251968503935,
          "duration": 0.16666649999999805
        },
        {
          "name": "A2",
          "midi": 45,
          "time": 41.333292,
          "velocity": 0.25984251968503935,
          "duration": 0.16666649999999805
        },
        {
          "name": "A4",
          "midi": 69,
          "time": 41.333292,
          "velocity": 0.25984251968503935,
          "duration": 1.083332249999991
        },
        {
          "name": "F#4",
          "midi": 66,
          "time": 41.333292,
          "velocity": 0.25984251968503935,
          "duration": 1.3333319999999915
        },
        {
          "name": "A5",
          "midi": 81,
          "time": 41.4999585,
          "velocity": 0.25984251968503935,
          "duration": 0.16666649999999805
        },
        {
          "name": "A2",
          "midi": 45,
          "time": 41.4999585,
          "velocity": 0.25984251968503935,
          "duration": 0.16666649999999805
        },
        {
          "name": "A5",
          "midi": 81,
          "time": 41.4999585,
          "velocity": 0.25984251968503935,
          "duration": 0.16666649999999805
        },
        {
          "name": "G#5",
          "midi": 80,
          "time": 41.666624999999996,
          "velocity": 0.25984251968503935,
          "duration": 0.16666649999999805
        },
        {
          "name": "A3",
          "midi": 57,
          "time": 41.666624999999996,
          "velocity": 0.25984251968503935,
          "duration": 0.16666649999999805
        },
        {
          "name": "G#5",
          "midi": 80,
          "time": 41.666624999999996,
          "velocity": 0.25984251968503935,
          "duration": 0.16666649999999805
        },
        {
          "name": "E5",
          "midi": 76,
          "time": 41.833291499999994,
          "velocity": 0.25984251968503935,
          "duration": 0.16666649999999805
        },
        {
          "name": "A2",
          "midi": 45,
          "time": 41.833291499999994,
          "velocity": 0.25984251968503935,
          "duration": 0.16666649999999805
        },
        {
          "name": "E5",
          "midi": 76,
          "time": 41.833291499999994,
          "velocity": 0.25984251968503935,
          "duration": 0.16666649999999805
        },
        {
          "name": "C#5",
          "midi": 73,
          "time": 41.99995799999999,
          "velocity": 0.25984251968503935,
          "duration": 0.16666649999999805
        },
        {
          "name": "B2",
          "midi": 47,
          "time": 41.99995799999999,
          "velocity": 0.25984251968503935,
          "duration": 0.16666649999999805
        },
        {
          "name": "C#5",
          "midi": 73,
          "time": 41.99995799999999,
          "velocity": 0.25984251968503935,
          "duration": 0.16666649999999805
        },
        {
          "name": "B4",
          "midi": 71,
          "time": 42.16662449999999,
          "velocity": 0.25984251968503935,
          "duration": 0.16666649999999805
        },
        {
          "name": "A2",
          "midi": 45,
          "time": 42.16662449999999,
          "velocity": 0.25984251968503935,
          "duration": 0.16666649999999805
        },
        {
          "name": "B4",
          "midi": 71,
          "time": 42.16662449999999,
          "velocity": 0.25984251968503935,
          "duration": 0.16666649999999805
        },
        {
          "name": "A4",
          "midi": 69,
          "time": 42.33329099999999,
          "velocity": 0.25984251968503935,
          "duration": 0.3333330000000032
        },
        {
          "name": "B2",
          "midi": 47,
          "time": 42.33329099999999,
          "velocity": 0.25984251968503935,
          "duration": 0.16666650000000516
        },
        {
          "name": "A4",
          "midi": 69,
          "time": 42.33329099999999,
          "velocity": 0.25984251968503935,
          "duration": 0.3333330000000032
        },
        {
          "name": "E4",
          "midi": 64,
          "time": 42.499957499999994,
          "velocity": 0.25984251968503935,
          "duration": 0.16666649999999805
        },
        {
          "name": "C#3",
          "midi": 49,
          "time": 42.499957499999994,
          "velocity": 0.25984251968503935,
          "duration": 0.16666649999999805
        },
        {
          "name": "E4",
          "midi": 64,
          "time": 42.499957499999994,
          "velocity": 0.25984251968503935,
          "duration": 0.16666649999999805
        },
        {
          "name": "E4",
          "midi": 64,
          "time": 42.66662399999999,
          "velocity": 0.25984251968503935,
          "duration": 0.3333329999999961
        },
        {
          "name": "B1",
          "midi": 35,
          "time": 42.66662399999999,
          "velocity": 0.25984251968503935,
          "duration": 0.16666649999999805
        },
        {
          "name": "E4",
          "midi": 64,
          "time": 42.66662399999999,
          "velocity": 0.25984251968503935,
          "duration": 0.3333329999999961
        },
        {
          "name": "A3",
          "midi": 57,
          "time": 42.99995699999999,
          "velocity": 0.25984251968503935,
          "duration": 0.3333329999999961
        },
        {
          "name": "B1",
          "midi": 35,
          "time": 42.99995699999999,
          "velocity": 0.25984251968503935,
          "duration": 0.16666649999999805
        },
        {
          "name": "B3",
          "midi": 59,
          "time": 43.333289999999984,
          "velocity": 0.25984251968503935,
          "duration": 0.3333329999999961
        },
        {
          "name": "B1",
          "midi": 35,
          "time": 43.49995649999998,
          "velocity": 0.25984251968503935,
          "duration": 0.49999950000000126
        },
        {
          "name": "A3",
          "midi": 57,
          "time": 43.66662299999998,
          "velocity": 0.25984251968503935,
          "duration": 0.3333330000000032
        },
        {
          "name": "E3",
          "midi": 52,
          "time": 43.99995599999998,
          "velocity": 0.25984251968503935,
          "duration": 0.3333329999999961
        },
        {
          "name": "B1",
          "midi": 35,
          "time": 43.99995599999998,
          "velocity": 0.25984251968503935,
          "duration": 0.16666649999999805
        },
        {
          "name": "A3",
          "midi": 57,
          "time": 44.33328899999998,
          "velocity": 0.25984251968503935,
          "duration": 0.3333329999999961
        },
        {
          "name": "B1",
          "midi": 35,
          "time": 44.33328899999998,
          "velocity": 0.25984251968503935,
          "duration": 0.16666649999999805
        },
        {
          "name": "B3",
          "midi": 59,
          "time": 44.666621999999975,
          "velocity": 0.25984251968503935,
          "duration": 0.3333329999999961
        },
        {
          "name": "B1",
          "midi": 35,
          "time": 44.83328849999997,
          "velocity": 0.25984251968503935,
          "duration": 0.49999950000000126
        },
        {
          "name": "A3",
          "midi": 57,
          "time": 44.99995499999997,
          "velocity": 0.25984251968503935,
          "duration": 0.3333330000000032
        },
        {
          "name": "E3",
          "midi": 52,
          "time": 45.333287999999975,
          "velocity": 0.25984251968503935,
          "duration": 0.3333329999999961
        },
        {
          "name": "C#2",
          "midi": 37,
          "time": 45.333287999999975,
          "velocity": 0.25984251968503935,
          "duration": 0.16666649999999805
        },
        {
          "name": "E3",
          "midi": 52,
          "time": 45.66662099999997,
          "velocity": 0.25984251968503935,
          "duration": 0.16666649999999805
        },
        {
          "name": "C#2",
          "midi": 37,
          "time": 45.66662099999997,
          "velocity": 0.25984251968503935,
          "duration": 0.16666649999999805
        },
        {
          "name": "A3",
          "midi": 57,
          "time": 45.83328749999997,
          "velocity": 0.25984251968503935,
          "duration": 0.16666649999999805
        },
        {
          "name": "B3",
          "midi": 59,
          "time": 45.99995399999997,
          "velocity": 0.25984251968503935,
          "duration": 0.3333329999999961
        },
        {
          "name": "C#2",
          "midi": 37,
          "time": 46.166620499999965,
          "velocity": 0.25984251968503935,
          "duration": 0.49999950000000126
        },
        {
          "name": "D4",
          "midi": 62,
          "time": 46.33328699999996,
          "velocity": 0.25984251968503935,
          "duration": 0.3333330000000032
        },
        {
          "name": "C#4",
          "midi": 61,
          "time": 46.666619999999966,
          "velocity": 0.25984251968503935,
          "duration": 0.3333329999999961
        },
        {
          "name": "C#2",
          "midi": 37,
          "time": 46.666619999999966,
          "velocity": 0.25984251968503935,
          "duration": 0.16666649999999805
        },
        {
          "name": "D4",
          "midi": 62,
          "time": 46.99995299999996,
          "velocity": 0.25984251968503935,
          "duration": 0.3333329999999961
        },
        {
          "name": "C#2",
          "midi": 37,
          "time": 46.99995299999996,
          "velocity": 0.25984251968503935,
          "duration": 0.16666649999999805
        },
        {
          "name": "C#4",
          "midi": 61,
          "time": 47.33328599999996,
          "velocity": 0.25984251968503935,
          "duration": 0.16666649999999805
        },
        {
          "name": "B3",
          "midi": 59,
          "time": 47.49995249999996,
          "velocity": 0.25984251968503935,
          "duration": 0.16666649999999805
        },
        {
          "name": "C#2",
          "midi": 37,
          "time": 47.49995249999996,
          "velocity": 0.25984251968503935,
          "duration": 0.49999950000000126
        },
        {
          "name": "A3",
          "midi": 57,
          "time": 47.666618999999955,
          "velocity": 0.25984251968503935,
          "duration": 0.3333330000000032
        },
        {
          "name": "E4",
          "midi": 64,
          "time": 47.99995199999996,
          "velocity": 0.25984251968503935,
          "duration": 0.3333329999999961
        },
        {
          "name": "D2",
          "midi": 38,
          "time": 47.99995199999996,
          "velocity": 0.25984251968503935,
          "duration": 0.16666649999999805
        },
        {
          "name": "A3",
          "midi": 57,
          "time": 48.333284999999954,
          "velocity": 0.25984251968503935,
          "duration": 0.3333329999999961
        },
        {
          "name": "D2",
          "midi": 38,
          "time": 48.333284999999954,
          "velocity": 0.25984251968503935,
          "duration": 0.16666649999999805
        },
        {
          "name": "B3",
          "midi": 59,
          "time": 48.66661799999995,
          "velocity": 0.25984251968503935,
          "duration": 0.3333329999999961
        },
        {
          "name": "D2",
          "midi": 38,
          "time": 48.83328449999995,
          "velocity": 0.25984251968503935,
          "duration": 0.49999950000000126
        },
        {
          "name": "A3",
          "midi": 57,
          "time": 48.999950999999946,
          "velocity": 0.25984251968503935,
          "duration": 0.3333330000000032
        },
        {
          "name": "E3",
          "midi": 52,
          "time": 49.33328399999995,
          "velocity": 0.25984251968503935,
          "duration": 0.3333329999999961
        },
        {
          "name": "D2",
          "midi": 38,
          "time": 49.33328399999995,
          "velocity": 0.25984251968503935,
          "duration": 0.16666649999999805
        },
        {
          "name": "A3",
          "midi": 57,
          "time": 49.666616999999945,
          "velocity": 0.25984251968503935,
          "duration": 0.3333329999999961
        },
        {
          "name": "D2",
          "midi": 38,
          "time": 49.666616999999945,
          "velocity": 0.25984251968503935,
          "duration": 0.16666649999999805
        },
        {
          "name": "B3",
          "midi": 59,
          "time": 49.99994999999994,
          "velocity": 0.25984251968503935,
          "duration": 0.3333329999999961
        },
        {
          "name": "D2",
          "midi": 38,
          "time": 50.16661649999994,
          "velocity": 0.25984251968503935,
          "duration": 0.49999950000000126
        },
        {
          "name": "A3",
          "midi": 57,
          "time": 50.33328299999994,
          "velocity": 0.25984251968503935,
          "duration": 0.3333330000000032
        },
        {
          "name": "E3",
          "midi": 52,
          "time": 50.66661599999994,
          "velocity": 0.25984251968503935,
          "duration": 0.3333329999999961
        },
        {
          "name": "E2",
          "midi": 40,
          "time": 50.66661599999994,
          "velocity": 0.25984251968503935,
          "duration": 0.16666649999999805
        },
        {
          "name": "E3",
          "midi": 52,
          "time": 50.99994899999994,
          "velocity": 0.25984251968503935,
          "duration": 0.16666649999999805
        },
        {
          "name": "E2",
          "midi": 40,
          "time": 50.99994899999994,
          "velocity": 0.25984251968503935,
          "duration": 0.16666649999999805
        },
        {
          "name": "A3",
          "midi": 57,
          "time": 51.166615499999935,
          "velocity": 0.25984251968503935,
          "duration": 0.16666649999999805
        },
        {
          "name": "B3",
          "midi": 59,
          "time": 51.33328199999993,
          "velocity": 0.25984251968503935,
          "duration": 0.3333329999999961
        },
        {
          "name": "E2",
          "midi": 40,
          "time": 51.49994849999993,
          "velocity": 0.25984251968503935,
          "duration": 0.49999950000000126
        },
        {
          "name": "D4",
          "midi": 62,
          "time": 51.66661499999993,
          "velocity": 0.25984251968503935,
          "duration": 0.3333330000000032
        },
        {
          "name": "C#4",
          "midi": 61,
          "time": 51.99994799999993,
          "velocity": 0.25984251968503935,
          "duration": 0.3333329999999961
        },
        {
          "name": "E2",
          "midi": 40,
          "time": 51.99994799999993,
          "velocity": 0.25984251968503935,
          "duration": 0.16666649999999805
        },
        {
          "name": "D4",
          "midi": 62,
          "time": 52.33328099999993,
          "velocity": 0.25984251968503935,
          "duration": 0.3333329999999961
        },
        {
          "name": "E2",
          "midi": 40,
          "time": 52.33328099999993,
          "velocity": 0.25984251968503935,
          "duration": 0.16666649999999805
        },
        {
          "name": "C#4",
          "midi": 61,
          "time": 52.666613999999925,
          "velocity": 0.25984251968503935,
          "duration": 0.16666649999999805
        },
        {
          "name": "B3",
          "midi": 59,
          "time": 52.83328049999992,
          "velocity": 0.25984251968503935,
          "duration": 0.16666649999999805
        },
        {
          "name": "E2",
          "midi": 40,
          "time": 52.83328049999992,
          "velocity": 0.25984251968503935,
          "duration": 0.49999950000000126
        },
        {
          "name": "A3",
          "midi": 57,
          "time": 52.99994699999992,
          "velocity": 0.25984251968503935,
          "duration": 0.3333330000000032
        },
        {
          "name": "E4",
          "midi": 64,
          "time": 53.333279999999924,
          "velocity": 0.25984251968503935,
          "duration": 0.3333329999999961
        },
        {
          "name": "B1",
          "midi": 35,
          "time": 53.333279999999924,
          "velocity": 0.25984251968503935,
          "duration": 0.16666649999999805
        },
        {
          "name": "A3",
          "midi": 57,
          "time": 53.66661299999992,
          "velocity": 0.25984251968503935,
          "duration": 0.3333329999999961
        },
        {
          "name": "B1",
          "midi": 35,
          "time": 53.66661299999992,
          "velocity": 0.25984251968503935,
          "duration": 0.16666649999999805
        },
        {
          "name": "B3",
          "midi": 59,
          "time": 53.999945999999916,
          "velocity": 0.25984251968503935,
          "duration": 0.3333329999999961
        },
        {
          "name": "B1",
          "midi": 35,
          "time": 54.166612499999914,
          "velocity": 0.25984251968503935,
          "duration": 0.49999950000000126
        },
        {
          "name": "A3",
          "midi": 57,
          "time": 54.33327899999991,
          "velocity": 0.25984251968503935,
          "duration": 0.3333330000000032
        },
        {
          "name": "E3",
          "midi": 52,
          "time": 54.666611999999915,
          "velocity": 0.25984251968503935,
          "duration": 0.3333329999999961
        },
        {
          "name": "B1",
          "midi": 35,
          "time": 54.666611999999915,
          "velocity": 0.25984251968503935,
          "duration": 0.16666649999999805
        },
        {
          "name": "A3",
          "midi": 57,
          "time": 54.99994499999991,
          "velocity": 0.25984251968503935,
          "duration": 0.3333329999999961
        },
        {
          "name": "B1",
          "midi": 35,
          "time": 54.99994499999991,
          "velocity": 0.25984251968503935,
          "duration": 0.16666649999999805
        },
        {
          "name": "B3",
          "midi": 59,
          "time": 55.33327799999991,
          "velocity": 0.25984251968503935,
          "duration": 0.3333329999999961
        },
        {
          "name": "B1",
          "midi": 35,
          "time": 55.499944499999906,
          "velocity": 0.25984251968503935,
          "duration": 0.49999950000000126
        },
        {
          "name": "A3",
          "midi": 57,
          "time": 55.666610999999904,
          "velocity": 0.25984251968503935,
          "duration": 0.3333330000000032
        },
        {
          "name": "E3",
          "midi": 52,
          "time": 55.99994399999991,
          "velocity": 0.25984251968503935,
          "duration": 0.3333329999999961
        },
        {
          "name": "C#2",
          "midi": 37,
          "time": 55.99994399999991,
          "velocity": 0.25984251968503935,
          "duration": 0.16666649999999805
        },
        {
          "name": "E3",
          "midi": 52,
          "time": 56.3332769999999,
          "velocity": 0.25984251968503935,
          "duration": 0.16666649999999805
        },
        {
          "name": "C#2",
          "midi": 37,
          "time": 56.3332769999999,
          "velocity": 0.25984251968503935,
          "duration": 0.16666649999999805
        },
        {
          "name": "A3",
          "midi": 57,
          "time": 56.4999434999999,
          "velocity": 0.25984251968503935,
          "duration": 0.16666649999999805
        },
        {
          "name": "B3",
          "midi": 59,
          "time": 56.6666099999999,
          "velocity": 0.25984251968503935,
          "duration": 0.3333329999999961
        },
        {
          "name": "C#2",
          "midi": 37,
          "time": 56.8332764999999,
          "velocity": 0.25984251968503935,
          "duration": 0.49999950000000126
        },
        {
          "name": "D4",
          "midi": 62,
          "time": 56.999942999999895,
          "velocity": 0.25984251968503935,
          "duration": 0.3333330000000032
        },
        {
          "name": "C#4",
          "midi": 61,
          "time": 57.3332759999999,
          "velocity": 0.25984251968503935,
          "duration": 0.3333329999999961
        },
        {
          "name": "C#2",
          "midi": 37,
          "time": 57.3332759999999,
          "velocity": 0.25984251968503935,
          "duration": 0.16666649999999805
        },
        {
          "name": "D4",
          "midi": 62,
          "time": 57.666608999999895,
          "velocity": 0.25984251968503935,
          "duration": 0.3333329999999961
        },
        {
          "name": "C#2",
          "midi": 37,
          "time": 57.666608999999895,
          "velocity": 0.25984251968503935,
          "duration": 0.16666649999999805
        },
        {
          "name": "C#4",
          "midi": 61,
          "time": 57.99994199999989,
          "velocity": 0.25984251968503935,
          "duration": 0.16666649999999805
        },
        {
          "name": "B3",
          "midi": 59,
          "time": 58.16660849999989,
          "velocity": 0.25984251968503935,
          "duration": 0.16666649999999805
        },
        {
          "name": "C#2",
          "midi": 37,
          "time": 58.16660849999989,
          "velocity": 0.25984251968503935,
          "duration": 0.49999950000000126
        },
        {
          "name": "A3",
          "midi": 57,
          "time": 58.33327499999989,
          "velocity": 0.25984251968503935,
          "duration": 0.3333330000000032
        },
        {
          "name": "E4",
          "midi": 64,
          "time": 58.66660799999989,
          "velocity": 0.25984251968503935,
          "duration": 0.3333329999999961
        },
        {
          "name": "D2",
          "midi": 38,
          "time": 58.66660799999989,
          "velocity": 0.25984251968503935,
          "duration": 0.16666649999999805
        },
        {
          "name": "A3",
          "midi": 57,
          "time": 58.999940999999886,
          "velocity": 0.25984251968503935,
          "duration": 0.3333329999999961
        },
        {
          "name": "D2",
          "midi": 38,
          "time": 58.999940999999886,
          "velocity": 0.25984251968503935,
          "duration": 0.16666649999999805
        },
        {
          "name": "B3",
          "midi": 59,
          "time": 59.33327399999988,
          "velocity": 0.25984251968503935,
          "duration": 0.3333329999999961
        },
        {
          "name": "D2",
          "midi": 38,
          "time": 59.49994049999988,
          "velocity": 0.25984251968503935,
          "duration": 0.49999950000000126
        },
        {
          "name": "A3",
          "midi": 57,
          "time": 59.66660699999988,
          "velocity": 0.25984251968503935,
          "duration": 0.3333330000000032
        },
        {
          "name": "E3",
          "midi": 52,
          "time": 59.99993999999988,
          "velocity": 0.25984251968503935,
          "duration": 0.3333329999999961
        },
        {
          "name": "D2",
          "midi": 38,
          "time": 59.99993999999988,
          "velocity": 0.25984251968503935,
          "duration": 0.16666649999999805
        },
        {
          "name": "A3",
          "midi": 57,
          "time": 60.33327299999988,
          "velocity": 0.25984251968503935,
          "duration": 0.3333329999999961
        },
        {
          "name": "D2",
          "midi": 38,
          "time": 60.33327299999988,
          "velocity": 0.25984251968503935,
          "duration": 0.16666649999999805
        },
        {
          "name": "B3",
          "midi": 59,
          "time": 60.666605999999874,
          "velocity": 0.25984251968503935,
          "duration": 0.3333329999999961
        },
        {
          "name": "D2",
          "midi": 38,
          "time": 60.83327249999987,
          "velocity": 0.25984251968503935,
          "duration": 0.49999950000000126
        },
        {
          "name": "A3",
          "midi": 57,
          "time": 60.99993899999987,
          "velocity": 0.25984251968503935,
          "duration": 0.3333330000000032
        },
        {
          "name": "E3",
          "midi": 52,
          "time": 61.33327199999987,
          "velocity": 0.25984251968503935,
          "duration": 0.3333329999999961
        },
        {
          "name": "E2",
          "midi": 40,
          "time": 61.33327199999987,
          "velocity": 0.25984251968503935,
          "duration": 0.16666649999999805
        },
        {
          "name": "E3",
          "midi": 52,
          "time": 61.66660499999987,
          "velocity": 0.25984251968503935,
          "duration": 0.16666649999999805
        },
        {
          "name": "E2",
          "midi": 40,
          "time": 61.66660499999987,
          "velocity": 0.25984251968503935,
          "duration": 0.16666649999999805
        },
        {
          "name": "A3",
          "midi": 57,
          "time": 61.83327149999987,
          "velocity": 0.25984251968503935,
          "duration": 0.16666649999999805
        },
        {
          "name": "B3",
          "midi": 59,
          "time": 61.999937999999865,
          "velocity": 0.25984251968503935,
          "duration": 0.3333329999999961
        },
        {
          "name": "E2",
          "midi": 40,
          "time": 62.16660449999986,
          "velocity": 0.25984251968503935,
          "duration": 0.49999950000000126
        },
        {
          "name": "D4",
          "midi": 62,
          "time": 62.33327099999986,
          "velocity": 0.25984251968503935,
          "duration": 0.3333330000000032
        },
        {
          "name": "C#4",
          "midi": 61,
          "time": 62.666603999999865,
          "velocity": 0.25984251968503935,
          "duration": 0.3333330000000032
        },
        {
          "name": "D4",
          "midi": 62,
          "time": 62.99993699999987,
          "velocity": 0.25984251968503935,
          "duration": 0.3333330000000032
        },
        {
          "name": "C#4",
          "midi": 61,
          "time": 63.33326999999987,
          "velocity": 0.25984251968503935,
          "duration": 0.16666649999999805
        },
        {
          "name": "A3",
          "midi": 57,
          "time": 63.49993649999987,
          "velocity": 0.25984251968503935,
          "duration": 0.16666649999999805
        },
        {
          "name": "A3",
          "midi": 57,
          "time": 63.66660299999987,
          "velocity": 0.25984251968503935,
          "duration": 0.3333330000000032
        },
        {
          "name": "E5",
          "midi": 76,
          "time": 63.99993599999987,
          "velocity": 0.25984251968503935,
          "duration": 0.3333330000000032
        },
        {
          "name": "B1",
          "midi": 35,
          "time": 63.99993599999987,
          "velocity": 0.25984251968503935,
          "duration": 0.16666649999999805
        },
        {
          "name": "E5",
          "midi": 76,
          "time": 63.99993599999987,
          "velocity": 0.25984251968503935,
          "duration": 0.3333330000000032
        },
        {
          "name": "B1",
          "midi": 35,
          "time": 64.16660249999987,
          "velocity": 0.25984251968503935,
          "duration": 0.16666650000000516
        },
        {
          "name": "A4",
          "midi": 69,
          "time": 64.33326899999987,
          "velocity": 0.25984251968503935,
          "duration": 0.3333330000000103
        },
        {
          "name": "B2",
          "midi": 47,
          "time": 64.33326899999987,
          "velocity": 0.25984251968503935,
          "duration": 0.16666650000000516
        },
        {
          "name": "A4",
          "midi": 69,
          "time": 64.33326899999987,
          "velocity": 0.25984251968503935,
          "duration": 0.3333330000000103
        },
        {
          "name": "B1",
          "midi": 35,
          "time": 64.49993549999988,
          "velocity": 0.25984251968503935,
          "duration": 0.16666650000000516
        },
        {
          "name": "B4",
          "midi": 71,
          "time": 64.66660199999988,
          "velocity": 0.25984251968503935,
          "duration": 0.3333330000000103
        },
        {
          "name": "B1",
          "midi": 35,
          "time": 64.66660199999988,
          "velocity": 0.25984251968503935,
          "duration": 0.16666650000000516
        },
        {
          "name": "B4",
          "midi": 71,
          "time": 64.66660199999988,
          "velocity": 0.25984251968503935,
          "duration": 0.3333330000000103
        },
        {
          "name": "B2",
          "midi": 47,
          "time": 64.83326849999989,
          "velocity": 0.25984251968503935,
          "duration": 0.16666650000000516
        },
        {
          "name": "A4",
          "midi": 69,
          "time": 64.9999349999999,
          "velocity": 0.25984251968503935,
          "duration": 0.3333330000000103
        },
        {
          "name": "B1",
          "midi": 35,
          "time": 64.9999349999999,
          "velocity": 0.25984251968503935,
          "duration": 0.16666650000000516
        },
        {
          "name": "A4",
          "midi": 69,
          "time": 64.9999349999999,
          "velocity": 0.25984251968503935,
          "duration": 0.3333330000000103
        },
        {
          "name": "B2",
          "midi": 47,
          "time": 65.1666014999999,
          "velocity": 0.25984251968503935,
          "duration": 0.16666650000000516
        },
        {
          "name": "E4",
          "midi": 64,
          "time": 65.3332679999999,
          "velocity": 0.25984251968503935,
          "duration": 0.16666650000000516
        },
        {
          "name": "B1",
          "midi": 35,
          "time": 65.3332679999999,
          "velocity": 0.25984251968503935,
          "duration": 0.16666650000000516
        },
        {
          "name": "E4",
          "midi": 64,
          "time": 65.3332679999999,
          "velocity": 0.25984251968503935,
          "duration": 0.16666650000000516
        },
        {
          "name": "A4",
          "midi": 69,
          "time": 65.49993449999991,
          "velocity": 0.25984251968503935,
          "duration": 0.3333330000000103
        },
        {
          "name": "B1",
          "midi": 35,
          "time": 65.49993449999991,
          "velocity": 0.25984251968503935,
          "duration": 0.16666650000000516
        },
        {
          "name": "A4",
          "midi": 69,
          "time": 65.49993449999991,
          "velocity": 0.25984251968503935,
          "duration": 0.3333330000000103
        },
        {
          "name": "B2",
          "midi": 47,
          "time": 65.66660099999991,
          "velocity": 0.25984251968503935,
          "duration": 0.16666650000000516
        },
        {
          "name": "B4",
          "midi": 71,
          "time": 65.83326749999992,
          "velocity": 0.25984251968503935,
          "duration": 0.3333330000000103
        },
        {
          "name": "B1",
          "midi": 35,
          "time": 65.83326749999992,
          "velocity": 0.25984251968503935,
          "duration": 0.16666650000000516
        },
        {
          "name": "B4",
          "midi": 71,
          "time": 65.83326749999992,
          "velocity": 0.25984251968503935,
          "duration": 0.3333330000000103
        },
        {
          "name": "B1",
          "midi": 35,
          "time": 65.99993399999993,
          "velocity": 0.25984251968503935,
          "duration": 0.16666650000000516
        },
        {
          "name": "C#5",
          "midi": 73,
          "time": 66.16660049999993,
          "velocity": 0.25984251968503935,
          "duration": 0.08333324999999547
        },
        {
          "name": "B2",
          "midi": 47,
          "time": 66.16660049999993,
          "velocity": 0.25984251968503935,
          "duration": 0.16666649999999095
        },
        {
          "name": "C#5",
          "midi": 73,
          "time": 66.16660049999993,
          "velocity": 0.25984251968503935,
          "duration": 0.08333324999999547
        },
        {
          "name": "B4",
          "midi": 71,
          "time": 66.24993374999993,
          "velocity": 0.25984251968503935,
          "duration": 0.08333324999999547
        },
        {
          "name": "B4",
          "midi": 71,
          "time": 66.24993374999993,
          "velocity": 0.25984251968503935,
          "duration": 0.08333324999999547
        },
        {
          "name": "A4",
          "midi": 69,
          "time": 66.33326699999992,
          "velocity": 0.25984251968503935,
          "duration": 0.3333330000000103
        },
        {
          "name": "B1",
          "midi": 35,
          "time": 66.33326699999992,
          "velocity": 0.25984251968503935,
          "duration": 0.16666650000000516
        },
        {
          "name": "A4",
          "midi": 69,
          "time": 66.33326699999992,
          "velocity": 0.25984251968503935,
          "duration": 0.3333330000000103
        },
        {
          "name": "B2",
          "midi": 47,
          "time": 66.49993349999993,
          "velocity": 0.25984251968503935,
          "duration": 0.16666650000000516
        },
        {
          "name": "E4",
          "midi": 64,
          "time": 66.66659999999993,
          "velocity": 0.25984251968503935,
          "duration": 0.3333330000000103
        },
        {
          "name": "C#2",
          "midi": 37,
          "time": 66.66659999999993,
          "velocity": 0.25984251968503935,
          "duration": 0.16666650000000516
        },
        {
          "name": "E4",
          "midi": 64,
          "time": 66.66659999999993,
          "velocity": 0.25984251968503935,
          "duration": 0.3333330000000103
        },
        {
          "name": "C#2",
          "midi": 37,
          "time": 66.83326649999994,
          "velocity": 0.25984251968503935,
          "duration": 0.16666650000000516
        },
        {
          "name": "A4",
          "midi": 69,
          "time": 66.99993299999994,
          "velocity": 0.25984251968503935,
          "duration": 0.3333330000000103
        },
        {
          "name": "C#3",
          "midi": 49,
          "time": 66.99993299999994,
          "velocity": 0.25984251968503935,
          "duration": 0.16666650000000516
        },
        {
          "name": "A4",
          "midi": 69,
          "time": 66.99993299999994,
          "velocity": 0.25984251968503935,
          "duration": 0.3333330000000103
        },
        {
          "name": "C#2",
          "midi": 37,
          "time": 67.16659949999995,
          "velocity": 0.25984251968503935,
          "duration": 0.16666650000000516
        },
        {
          "name": "B4",
          "midi": 71,
          "time": 67.33326599999995,
          "velocity": 0.25984251968503935,
          "duration": 0.16666650000000516
        },
        {
          "name": "C#2",
          "midi": 37,
          "time": 67.33326599999995,
          "velocity": 0.25984251968503935,
          "duration": 0.16666650000000516
        },
        {
          "name": "B4",
          "midi": 71,
          "time": 67.33326599999995,
          "velocity": 0.25984251968503935,
          "duration": 0.16666650000000516
        },
        {
          "name": "D5",
          "midi": 74,
          "time": 67.49993249999996,
          "velocity": 0.25984251968503935,
          "duration": 0.3333330000000103
        },
        {
          "name": "C#3",
          "midi": 49,
          "time": 67.49993249999996,
          "velocity": 0.25984251968503935,
          "duration": 0.16666650000000516
        },
        {
          "name": "D5",
          "midi": 74,
          "time": 67.49993249999996,
          "velocity": 0.25984251968503935,
          "duration": 0.3333330000000103
        },
        {
          "name": "C#2",
          "midi": 37,
          "time": 67.66659899999996,
          "velocity": 0.25984251968503935,
          "duration": 0.16666650000000516
        },
        {
          "name": "C#5",
          "midi": 73,
          "time": 67.83326549999997,
          "velocity": 0.25984251968503935,
          "duration": 0.3333330000000103
        },
        {
          "name": "C#3",
          "midi": 49,
          "time": 67.83326549999997,
          "velocity": 0.25984251968503935,
          "duration": 0.16666650000000516
        },
        {
          "name": "C#5",
          "midi": 73,
          "time": 67.83326549999997,
          "velocity": 0.25984251968503935,
          "duration": 0.3333330000000103
        },
        {
          "name": "C#2",
          "midi": 37,
          "time": 67.99993199999997,
          "velocity": 0.25984251968503935,
          "duration": 0.16666650000000516
        },
        {
          "name": "D5",
          "midi": 74,
          "time": 68.16659849999998,
          "velocity": 0.25984251968503935,
          "duration": 0.08333324999999547
        },
        {
          "name": "C#2",
          "midi": 37,
          "time": 68.16659849999998,
          "velocity": 0.25984251968503935,
          "duration": 0.16666649999999095
        },
        {
          "name": "D5",
          "midi": 74,
          "time": 68.16659849999998,
          "velocity": 0.25984251968503935,
          "duration": 0.08333324999999547
        },
        {
          "name": "C#5",
          "midi": 73,
          "time": 68.24993174999997,
          "velocity": 0.25984251968503935,
          "duration": 0.08333324999999547
        },
        {
          "name": "C#5",
          "midi": 73,
          "time": 68.24993174999997,
          "velocity": 0.25984251968503935,
          "duration": 0.08333324999999547
        },
        {
          "name": "B4",
          "midi": 71,
          "time": 68.33326499999997,
          "velocity": 0.25984251968503935,
          "duration": 0.3333330000000103
        },
        {
          "name": "C#3",
          "midi": 49,
          "time": 68.33326499999997,
          "velocity": 0.25984251968503935,
          "duration": 0.16666650000000516
        },
        {
          "name": "B4",
          "midi": 71,
          "time": 68.33326499999997,
          "velocity": 0.25984251968503935,
          "duration": 0.3333330000000103
        },
        {
          "name": "C#2",
          "midi": 37,
          "time": 68.49993149999997,
          "velocity": 0.25984251968503935,
          "duration": 0.16666650000000516
        },
        {
          "name": "A4",
          "midi": 69,
          "time": 68.66659799999998,
          "velocity": 0.25984251968503935,
          "duration": 0.3333330000000103
        },
        {
          "name": "C#2",
          "midi": 37,
          "time": 68.66659799999998,
          "velocity": 0.25984251968503935,
          "duration": 0.16666650000000516
        },
        {
          "name": "A4",
          "midi": 69,
          "time": 68.66659799999998,
          "velocity": 0.25984251968503935,
          "duration": 0.3333330000000103
        },
        {
          "name": "C#3",
          "midi": 49,
          "time": 68.83326449999998,
          "velocity": 0.25984251968503935,
          "duration": 0.16666650000000516
        },
        {
          "name": "E4",
          "midi": 64,
          "time": 68.99993099999999,
          "velocity": 0.25984251968503935,
          "duration": 0.3333330000000103
        },
        {
          "name": "C#2",
          "midi": 37,
          "time": 68.99993099999999,
          "velocity": 0.25984251968503935,
          "duration": 0.16666650000000516
        },
        {
          "name": "E4",
          "midi": 64,
          "time": 68.99993099999999,
          "velocity": 0.25984251968503935,
          "duration": 0.3333330000000103
        },
        {
          "name": "C#3",
          "midi": 49,
          "time": 69.1665975,
          "velocity": 0.25984251968503935,
          "duration": 0.16666650000000516
        },
        {
          "name": "E5",
          "midi": 76,
          "time": 69.333264,
          "velocity": 0.25984251968503935,
          "duration": 0.3333330000000103
        },
        {
          "name": "D2",
          "midi": 38,
          "time": 69.333264,
          "velocity": 0.25984251968503935,
          "duration": 0.16666650000000516
        },
        {
          "name": "E5",
          "midi": 76,
          "time": 69.333264,
          "velocity": 0.25984251968503935,
          "duration": 0.3333330000000103
        },
        {
          "name": "D2",
          "midi": 38,
          "time": 69.4999305,
          "velocity": 0.25984251968503935,
          "duration": 0.16666650000000516
        },
        {
          "name": "A4",
          "midi": 69,
          "time": 69.66659700000001,
          "velocity": 0.25984251968503935,
          "duration": 0.3333330000000103
        },
        {
          "name": "D3",
          "midi": 50,
          "time": 69.66659700000001,
          "velocity": 0.25984251968503935,
          "duration": 0.16666650000000516
        },
        {
          "name": "A4",
          "midi": 69,
          "time": 69.66659700000001,
          "velocity": 0.25984251968503935,
          "duration": 0.3333330000000103
        },
        {
          "name": "D2",
          "midi": 38,
          "time": 69.83326350000002,
          "velocity": 0.25984251968503935,
          "duration": 0.16666650000000516
        },
        {
          "name": "B4",
          "midi": 71,
          "time": 69.99993000000002,
          "velocity": 0.25984251968503935,
          "duration": 0.3333330000000103
        },
        {
          "name": "D2",
          "midi": 38,
          "time": 69.99993000000002,
          "velocity": 0.25984251968503935,
          "duration": 0.16666650000000516
        },
        {
          "name": "B4",
          "midi": 71,
          "time": 69.99993000000002,
          "velocity": 0.25984251968503935,
          "duration": 0.3333330000000103
        },
        {
          "name": "D3",
          "midi": 50,
          "time": 70.16659650000003,
          "velocity": 0.25984251968503935,
          "duration": 0.16666650000000516
        },
        {
          "name": "A4",
          "midi": 69,
          "time": 70.33326300000003,
          "velocity": 0.25984251968503935,
          "duration": 0.3333330000000103
        },
        {
          "name": "D2",
          "midi": 38,
          "time": 70.33326300000003,
          "velocity": 0.25984251968503935,
          "duration": 0.16666650000000516
        },
        {
          "name": "A4",
          "midi": 69,
          "time": 70.33326300000003,
          "velocity": 0.25984251968503935,
          "duration": 0.3333330000000103
        },
        {
          "name": "D3",
          "midi": 50,
          "time": 70.49992950000004,
          "velocity": 0.25984251968503935,
          "duration": 0.16666650000000516
        },
        {
          "name": "E4",
          "midi": 64,
          "time": 70.66659600000004,
          "velocity": 0.25984251968503935,
          "duration": 0.16666650000000516
        },
        {
          "name": "D2",
          "midi": 38,
          "time": 70.66659600000004,
          "velocity": 0.25984251968503935,
          "duration": 0.16666650000000516
        },
        {
          "name": "E4",
          "midi": 64,
          "time": 70.66659600000004,
          "velocity": 0.25984251968503935,
          "duration": 0.16666650000000516
        },
        {
          "name": "A4",
          "midi": 69,
          "time": 70.83326250000005,
          "velocity": 0.25984251968503935,
          "duration": 0.3333330000000103
        },
        {
          "name": "D2",
          "midi": 38,
          "time": 70.83326250000005,
          "velocity": 0.25984251968503935,
          "duration": 0.16666650000000516
        },
        {
          "name": "A4",
          "midi": 69,
          "time": 70.83326250000005,
          "velocity": 0.25984251968503935,
          "duration": 0.3333330000000103
        },
        {
          "name": "D3",
          "midi": 50,
          "time": 70.99992900000005,
          "velocity": 0.25984251968503935,
          "duration": 0.16666650000000516
        },
        {
          "name": "B4",
          "midi": 71,
          "time": 71.16659550000006,
          "velocity": 0.25984251968503935,
          "duration": 0.3333330000000103
        },
        {
          "name": "D2",
          "midi": 38,
          "time": 71.16659550000006,
          "velocity": 0.25984251968503935,
          "duration": 0.16666650000000516
        },
        {
          "name": "B4",
          "midi": 71,
          "time": 71.16659550000006,
          "velocity": 0.25984251968503935,
          "duration": 0.3333330000000103
        },
        {
          "name": "D2",
          "midi": 38,
          "time": 71.33326200000006,
          "velocity": 0.25984251968503935,
          "duration": 0.16666650000000516
        },
        {
          "name": "C#5",
          "midi": 73,
          "time": 71.49992850000007,
          "velocity": 0.25984251968503935,
          "duration": 0.08333324999999547
        },
        {
          "name": "D3",
          "midi": 50,
          "time": 71.49992850000007,
          "velocity": 0.25984251968503935,
          "duration": 0.16666649999999095
        },
        {
          "name": "C#5",
          "midi": 73,
          "time": 71.49992850000007,
          "velocity": 0.25984251968503935,
          "duration": 0.08333324999999547
        },
        {
          "name": "B4",
          "midi": 71,
          "time": 71.58326175000006,
          "velocity": 0.25984251968503935,
          "duration": 0.08333324999999547
        },
        {
          "name": "B4",
          "midi": 71,
          "time": 71.58326175000006,
          "velocity": 0.25984251968503935,
          "duration": 0.08333324999999547
        },
        {
          "name": "A4",
          "midi": 69,
          "time": 71.66659500000006,
          "velocity": 0.25984251968503935,
          "duration": 0.3333330000000103
        },
        {
          "name": "D2",
          "midi": 38,
          "time": 71.66659500000006,
          "velocity": 0.25984251968503935,
          "duration": 0.16666650000000516
        },
        {
          "name": "A4",
          "midi": 69,
          "time": 71.66659500000006,
          "velocity": 0.25984251968503935,
          "duration": 0.3333330000000103
        },
        {
          "name": "D3",
          "midi": 50,
          "time": 71.83326150000006,
          "velocity": 0.25984251968503935,
          "duration": 0.16666650000000516
        },
        {
          "name": "E4",
          "midi": 64,
          "time": 71.99992800000007,
          "velocity": 0.25984251968503935,
          "duration": 0.3333330000000103
        },
        {
          "name": "E2",
          "midi": 40,
          "time": 71.99992800000007,
          "velocity": 0.25984251968503935,
          "duration": 0.16666650000000516
        },
        {
          "name": "E4",
          "midi": 64,
          "time": 71.99992800000007,
          "velocity": 0.25984251968503935,
          "duration": 0.3333330000000103
        },
        {
          "name": "E2",
          "midi": 40,
          "time": 72.16659450000007,
          "velocity": 0.25984251968503935,
          "duration": 0.16666650000000516
        },
        {
          "name": "A4",
          "midi": 69,
          "time": 72.33326100000008,
          "velocity": 0.25984251968503935,
          "duration": 0.3333330000000103
        },
        {
          "name": "E3",
          "midi": 52,
          "time": 72.33326100000008,
          "velocity": 0.25984251968503935,
          "duration": 0.16666650000000516
        },
        {
          "name": "A4",
          "midi": 69,
          "time": 72.33326100000008,
          "velocity": 0.25984251968503935,
          "duration": 0.3333330000000103
        },
        {
          "name": "E2",
          "midi": 40,
          "time": 72.49992750000008,
          "velocity": 0.25984251968503935,
          "duration": 0.16666650000000516
        },
        {
          "name": "B4",
          "midi": 71,
          "time": 72.66659400000009,
          "velocity": 0.25984251968503935,
          "duration": 0.16666650000000516
        },
        {
          "name": "E2",
          "midi": 40,
          "time": 72.66659400000009,
          "velocity": 0.25984251968503935,
          "duration": 0.16666650000000516
        },
        {
          "name": "B4",
          "midi": 71,
          "time": 72.66659400000009,
          "velocity": 0.25984251968503935,
          "duration": 0.16666650000000516
        },
        {
          "name": "D5",
          "midi": 74,
          "time": 72.8332605000001,
          "velocity": 0.25984251968503935,
          "duration": 0.3333330000000103
        },
        {
          "name": "E3",
          "midi": 52,
          "time": 72.8332605000001,
          "velocity": 0.25984251968503935,
          "duration": 0.16666650000000516
        },
        {
          "name": "D5",
          "midi": 74,
          "time": 72.8332605000001,
          "velocity": 0.25984251968503935,
          "duration": 0.3333330000000103
        },
        {
          "name": "E2",
          "midi": 40,
          "time": 72.9999270000001,
          "velocity": 0.25984251968503935,
          "duration": 0.16666650000000516
        },
        {
          "name": "C#5",
          "midi": 73,
          "time": 73.1665935000001,
          "velocity": 0.25984251968503935,
          "duration": 0.3333330000000103
        },
        {
          "name": "E3",
          "midi": 52,
          "time": 73.1665935000001,
          "velocity": 0.25984251968503935,
          "duration": 0.16666650000000516
        },
        {
          "name": "C#5",
          "midi": 73,
          "time": 73.1665935000001,
          "velocity": 0.25984251968503935,
          "duration": 0.3333330000000103
        },
        {
          "name": "F#2",
          "midi": 42,
          "time": 73.33326000000011,
          "velocity": 0.25984251968503935,
          "duration": 0.16666650000000516
        },
        {
          "name": "D5",
          "midi": 74,
          "time": 73.49992650000011,
          "velocity": 0.25984251968503935,
          "duration": 0.08333324999999547
        },
        {
          "name": "F#2",
          "midi": 42,
          "time": 73.49992650000011,
          "velocity": 0.25984251968503935,
          "duration": 0.16666649999999095
        },
        {
          "name": "D5",
          "midi": 74,
          "time": 73.49992650000011,
          "velocity": 0.25984251968503935,
          "duration": 0.08333324999999547
        },
        {
          "name": "C#5",
          "midi": 73,
          "time": 73.58325975000011,
          "velocity": 0.25984251968503935,
          "duration": 0.08333324999999547
        },
        {
          "name": "C#5",
          "midi": 73,
          "time": 73.58325975000011,
          "velocity": 0.25984251968503935,
          "duration": 0.08333324999999547
        },
        {
          "name": "B4",
          "midi": 71,
          "time": 73.6665930000001,
          "velocity": 0.25984251968503935,
          "duration": 0.3333330000000103
        },
        {
          "name": "F#3",
          "midi": 54,
          "time": 73.6665930000001,
          "velocity": 0.25984251968503935,
          "duration": 0.16666650000000516
        },
        {
          "name": "B4",
          "midi": 71,
          "time": 73.6665930000001,
          "velocity": 0.25984251968503935,
          "duration": 0.3333330000000103
        },
        {
          "name": "F#2",
          "midi": 42,
          "time": 73.83325950000011,
          "velocity": 0.25984251968503935,
          "duration": 0.16666650000000516
        },
        {
          "name": "A4",
          "midi": 69,
          "time": 73.99992600000012,
          "velocity": 0.25984251968503935,
          "duration": 0.3333330000000103
        },
        {
          "name": "F#2",
          "midi": 42,
          "time": 73.99992600000012,
          "velocity": 0.25984251968503935,
          "duration": 0.16666650000000516
        },
        {
          "name": "A4",
          "midi": 69,
          "time": 73.99992600000012,
          "velocity": 0.25984251968503935,
          "duration": 0.3333330000000103
        },
        {
          "name": "F#3",
          "midi": 54,
          "time": 74.16659250000012,
          "velocity": 0.25984251968503935,
          "duration": 0.16666650000000516
        },
        {
          "name": "E4",
          "midi": 64,
          "time": 74.33325900000013,
          "velocity": 0.25984251968503935,
          "duration": 0.3333330000000103
        },
        {
          "name": "F#2",
          "midi": 42,
          "time": 74.33325900000013,
          "velocity": 0.25984251968503935,
          "duration": 0.16666650000000516
        },
        {
          "name": "E4",
          "midi": 64,
          "time": 74.33325900000013,
          "velocity": 0.25984251968503935,
          "duration": 0.3333330000000103
        },
        {
          "name": "F#3",
          "midi": 54,
          "time": 74.49992550000013,
          "velocity": 0.25984251968503935,
          "duration": 0.16666650000000516
        },
        {
          "name": "B1",
          "midi": 35,
          "time": 74.66659200000014,
          "velocity": 0.25984251968503935,
          "duration": 0.16666650000000516
        },
        {
          "name": "E4",
          "midi": 64,
          "time": 74.66659200000014,
          "velocity": 0.25984251968503935,
          "duration": 0.3333330000000103
        },
        {
          "name": "A3",
          "midi": 57,
          "time": 74.66659200000014,
          "velocity": 0.25984251968503935,
          "duration": 0.3333330000000103
        },
        {
          "name": "B1",
          "midi": 35,
          "time": 74.83325850000014,
          "velocity": 0.25984251968503935,
          "duration": 0.16666650000000516
        },
        {
          "name": "B2",
          "midi": 47,
          "time": 74.99992500000015,
          "velocity": 0.25984251968503935,
          "duration": 0.16666650000000516
        },
        {
          "name": "A3",
          "midi": 57,
          "time": 74.99992500000015,
          "velocity": 0.25984251968503935,
          "duration": 0.16666650000000516
        },
        {
          "name": "A4",
          "midi": 69,
          "time": 74.99992500000015,
          "velocity": 0.25984251968503935,
          "duration": 0.3333330000000103
        },
        {
          "name": "B1",
          "midi": 35,
          "time": 75.16659150000015,
          "velocity": 0.25984251968503935,
          "duration": 0.16666650000000516
        },
        {
          "name": "B3",
          "midi": 59,
          "time": 75.16659150000015,
          "velocity": 0.25984251968503935,
          "duration": 0.16666650000000516
        },
        {
          "name": "B1",
          "midi": 35,
          "time": 75.33325800000016,
          "velocity": 0.25984251968503935,
          "duration": 0.16666650000000516
        },
        {
          "name": "C#4",
          "midi": 61,
          "time": 75.33325800000016,
          "velocity": 0.25984251968503935,
          "duration": 0.3333330000000103
        },
        {
          "name": "B4",
          "midi": 71,
          "time": 75.33325800000016,
          "velocity": 0.25984251968503935,
          "duration": 0.3333330000000103
        },
        {
          "name": "B2",
          "midi": 47,
          "time": 75.49992450000016,
          "velocity": 0.25984251968503935,
          "duration": 0.16666650000000516
        },
        {
          "name": "B1",
          "midi": 35,
          "time": 75.66659100000017,
          "velocity": 0.25984251968503935,
          "duration": 0.16666650000000516
        },
        {
          "name": "A3",
          "midi": 57,
          "time": 75.66659100000017,
          "velocity": 0.25984251968503935,
          "duration": 0.3333330000000103
        },
        {
          "name": "A4",
          "midi": 69,
          "time": 75.66659100000017,
          "velocity": 0.25984251968503935,
          "duration": 0.3333330000000103
        },
        {
          "name": "B2",
          "midi": 47,
          "time": 75.83325750000017,
          "velocity": 0.25984251968503935,
          "duration": 0.16666650000000516
        },
        {
          "name": "B1",
          "midi": 35,
          "time": 75.99992400000018,
          "velocity": 0.25984251968503935,
          "duration": 0.16666650000000516
        },
        {
          "name": "E4",
          "midi": 64,
          "time": 75.99992400000018,
          "velocity": 0.25984251968503935,
          "duration": 0.4999995000000155
        },
        {
          "name": "B3",
          "midi": 59,
          "time": 75.99992400000018,
          "velocity": 0.25984251968503935,
          "duration": 0.16666650000000516
        },
        {
          "name": "B1",
          "midi": 35,
          "time": 76.16659050000018,
          "velocity": 0.25984251968503935,
          "duration": 0.16666650000000516
        },
        {
          "name": "A4",
          "midi": 69,
          "time": 76.16659050000018,
          "velocity": 0.25984251968503935,
          "duration": 0.16666650000000516
        },
        {
          "name": "B2",
          "midi": 47,
          "time": 76.33325700000019,
          "velocity": 0.25984251968503935,
          "duration": 0.16666650000000516
        },
        {
          "name": "B3",
          "midi": 59,
          "time": 76.33325700000019,
          "velocity": 0.25984251968503935,
          "duration": 0.16666650000000516
        },
        {
          "name": "B1",
          "midi": 35,
          "time": 76.4999235000002,
          "velocity": 0.25984251968503935,
          "duration": 0.16666650000000516
        },
        {
          "name": "B4",
          "midi": 71,
          "time": 76.4999235000002,
          "velocity": 0.25984251968503935,
          "duration": 0.49999950000000126
        },
        {
          "name": "C#4",
          "midi": 61,
          "time": 76.4999235000002,
          "velocity": 0.25984251968503935,
          "duration": 0.16666650000000516
        },
        {
          "name": "B1",
          "midi": 35,
          "time": 76.6665900000002,
          "velocity": 0.25984251968503935,
          "duration": 0.16666650000000516
        },
        {
          "name": "B3",
          "midi": 59,
          "time": 76.6665900000002,
          "velocity": 0.25984251968503935,
          "duration": 0.16666650000000516
        },
        {
          "name": "B2",
          "midi": 47,
          "time": 76.8332565000002,
          "velocity": 0.25984251968503935,
          "duration": 0.16666649999999095
        },
        {
          "name": "C#4",
          "midi": 61,
          "time": 76.8332565000002,
          "velocity": 0.25984251968503935,
          "duration": 0.08333324999999547
        },
        {
          "name": "B3",
          "midi": 59,
          "time": 76.9165897500002,
          "velocity": 0.25984251968503935,
          "duration": 0.08333324999999547
        },
        {
          "name": "B1",
          "midi": 35,
          "time": 76.9999230000002,
          "velocity": 0.25984251968503935,
          "duration": 0.16666650000000516
        },
        {
          "name": "A4",
          "midi": 69,
          "time": 76.9999230000002,
          "velocity": 0.25984251968503935,
          "duration": 0.3333330000000103
        },
        {
          "name": "A3",
          "midi": 57,
          "time": 76.9999230000002,
          "velocity": 0.25984251968503935,
          "duration": 0.3333330000000103
        },
        {
          "name": "B2",
          "midi": 47,
          "time": 77.1665895000002,
          "velocity": 0.25984251968503935,
          "duration": 0.16666650000000516
        },
        {
          "name": "C#2",
          "midi": 37,
          "time": 77.3332560000002,
          "velocity": 0.25984251968503935,
          "duration": 0.16666650000000516
        },
        {
          "name": "E4",
          "midi": 64,
          "time": 77.3332560000002,
          "velocity": 0.25984251968503935,
          "duration": 0.3333330000000103
        },
        {
          "name": "C#4",
          "midi": 61,
          "time": 77.3332560000002,
          "velocity": 0.25984251968503935,
          "duration": 0.3333330000000103
        },
        {
          "name": "C#2",
          "midi": 37,
          "time": 77.49992250000021,
          "velocity": 0.25984251968503935,
          "duration": 0.16666650000000516
        },
        {
          "name": "C#3",
          "midi": 49,
          "time": 77.66658900000022,
          "velocity": 0.25984251968503935,
          "duration": 0.16666650000000516
        },
        {
          "name": "B4",
          "midi": 71,
          "time": 77.66658900000022,
          "velocity": 0.25984251968503935,
          "duration": 0.3333330000000103
        },
        {
          "name": "C#4",
          "midi": 61,
          "time": 77.66658900000022,
          "velocity": 0.25984251968503935,
          "duration": 0.16666650000000516
        },
        {
          "name": "C#2",
          "midi": 37,
          "time": 77.83325550000022,
          "velocity": 0.25984251968503935,
          "duration": 0.16666650000000516
        },
        {
          "name": "D4",
          "midi": 62,
          "time": 77.83325550000022,
          "velocity": 0.25984251968503935,
          "duration": 0.16666650000000516
        },
        {
          "name": "C#2",
          "midi": 37,
          "time": 77.99992200000023,
          "velocity": 0.25984251968503935,
          "duration": 0.16666650000000516
        },
        {
          "name": "A4",
          "midi": 69,
          "time": 77.99992200000023,
          "velocity": 0.25984251968503935,
          "duration": 0.6666660000000206
        },
        {
          "name": "E4",
          "midi": 64,
          "time": 77.99992200000023,
          "velocity": 0.25984251968503935,
          "duration": 0.16666650000000516
        },
        {
          "name": "C#3",
          "midi": 49,
          "time": 78.16658850000023,
          "velocity": 0.25984251968503935,
          "duration": 0.16666650000000516
        },
        {
          "name": "D5",
          "midi": 74,
          "time": 78.16658850000023,
          "velocity": 0.25984251968503935,
          "duration": 0.16666650000000516
        },
        {
          "name": "C#2",
          "midi": 37,
          "time": 78.33325500000024,
          "velocity": 0.25984251968503935,
          "duration": 0.16666650000000516
        },
        {
          "name": "G#4",
          "midi": 68,
          "time": 78.33325500000024,
          "velocity": 0.25984251968503935,
          "duration": 0.16666650000000516
        },
        {
          "name": "C#3",
          "midi": 49,
          "time": 78.49992150000024,
          "velocity": 0.25984251968503935,
          "duration": 0.16666650000000516
        },
        {
          "name": "C#5",
          "midi": 73,
          "time": 78.49992150000024,
          "velocity": 0.25984251968503935,
          "duration": 0.3333330000000103
        },
        {
          "name": "C#2",
          "midi": 37,
          "time": 78.66658800000025,
          "velocity": 0.25984251968503935,
          "duration": 0.16666650000000516
        },
        {
          "name": "F#4",
          "midi": 66,
          "time": 78.66658800000025,
          "velocity": 0.25984251968503935,
          "duration": 0.49999950000000126
        },
        {
          "name": "C#2",
          "midi": 37,
          "time": 78.83325450000025,
          "velocity": 0.25984251968503935,
          "duration": 0.16666649999999095
        },
        {
          "name": "D5",
          "midi": 74,
          "time": 78.83325450000025,
          "velocity": 0.25984251968503935,
          "duration": 0.08333324999999547
        },
        {
          "name": "C#5",
          "midi": 73,
          "time": 78.91658775000025,
          "velocity": 0.25984251968503935,
          "duration": 0.08333324999999547
        },
        {
          "name": "C#3",
          "midi": 49,
          "time": 78.99992100000024,
          "velocity": 0.25984251968503935,
          "duration": 0.16666650000000516
        },
        {
          "name": "B4",
          "midi": 71,
          "time": 78.99992100000024,
          "velocity": 0.25984251968503935,
          "duration": 0.3333330000000103
        },
        {
          "name": "C#2",
          "midi": 37,
          "time": 79.16658750000025,
          "velocity": 0.25984251968503935,
          "duration": 0.16666650000000516
        },
        {
          "name": "C#2",
          "midi": 37,
          "time": 79.33325400000025,
          "velocity": 0.25984251968503935,
          "duration": 0.16666650000000516
        },
        {
          "name": "E4",
          "midi": 64,
          "time": 79.33325400000025,
          "velocity": 0.25984251968503935,
          "duration": 0.3333330000000103
        },
        {
          "name": "A4",
          "midi": 69,
          "time": 79.33325400000025,
          "velocity": 0.25984251968503935,
          "duration": 0.3333330000000103
        },
        {
          "name": "C#3",
          "midi": 49,
          "time": 79.49992050000026,
          "velocity": 0.25984251968503935,
          "duration": 0.16666650000000516
        },
        {
          "name": "C#2",
          "midi": 37,
          "time": 79.66658700000026,
          "velocity": 0.25984251968503935,
          "duration": 0.16666650000000516
        },
        {
          "name": "E4",
          "midi": 64,
          "time": 79.66658700000026,
          "velocity": 0.25984251968503935,
          "duration": 0.3333330000000103
        },
        {
          "name": "C#3",
          "midi": 49,
          "time": 79.83325350000027,
          "velocity": 0.25984251968503935,
          "duration": 0.16666650000000516
        },
        {
          "name": "D2",
          "midi": 38,
          "time": 79.99992000000027,
          "velocity": 0.25984251968503935,
          "duration": 0.16666650000000516
        },
        {
          "name": "E4",
          "midi": 64,
          "time": 79.99992000000027,
          "velocity": 0.25984251968503935,
          "duration": 0.3333330000000103
        },
        {
          "name": "A3",
          "midi": 57,
          "time": 79.99992000000027,
          "velocity": 0.25984251968503935,
          "duration": 0.3333330000000103
        },
        {
          "name": "D2",
          "midi": 38,
          "time": 80.16658650000028,
          "velocity": 0.25984251968503935,
          "duration": 0.16666650000000516
        },
        {
          "name": "D3",
          "midi": 50,
          "time": 80.33325300000028,
          "velocity": 0.25984251968503935,
          "duration": 0.16666650000000516
        },
        {
          "name": "A3",
          "midi": 57,
          "time": 80.33325300000028,
          "velocity": 0.25984251968503935,
          "duration": 0.16666650000000516
        },
        {
          "name": "A4",
          "midi": 69,
          "time": 80.33325300000028,
          "velocity": 0.25984251968503935,
          "duration": 0.3333330000000103
        },
        {
          "name": "D2",
          "midi": 38,
          "time": 80.49991950000029,
          "velocity": 0.25984251968503935,
          "duration": 0.16666650000000516
        },
        {
          "name": "B3",
          "midi": 59,
          "time": 80.49991950000029,
          "velocity": 0.25984251968503935,
          "duration": 0.16666650000000516
        },
        {
          "name": "D2",
          "midi": 38,
          "time": 80.6665860000003,
          "velocity": 0.25984251968503935,
          "duration": 0.16666650000000516
        },
        {
          "name": "C#4",
          "midi": 61,
          "time": 80.6665860000003,
          "velocity": 0.25984251968503935,
          "duration": 0.3333330000000103
        },
        {
          "name": "B4",
          "midi": 71,
          "time": 80.6665860000003,
          "velocity": 0.25984251968503935,
          "duration": 0.3333330000000103
        },
        {
          "name": "D3",
          "midi": 50,
          "time": 80.8332525000003,
          "velocity": 0.25984251968503935,
          "duration": 0.16666650000000516
        },
        {
          "name": "D2",
          "midi": 38,
          "time": 80.9999190000003,
          "velocity": 0.25984251968503935,
          "duration": 0.16666650000000516
        },
        {
          "name": "A3",
          "midi": 57,
          "time": 80.9999190000003,
          "velocity": 0.25984251968503935,
          "duration": 0.3333330000000103
        },
        {
          "name": "A4",
          "midi": 69,
          "time": 80.9999190000003,
          "velocity": 0.25984251968503935,
          "duration": 0.3333330000000103
        },
        {
          "name": "D3",
          "midi": 50,
          "time": 81.16658550000031,
          "velocity": 0.25984251968503935,
          "duration": 0.16666650000000516
        },
        {
          "name": "D2",
          "midi": 38,
          "time": 81.33325200000031,
          "velocity": 0.25984251968503935,
          "duration": 0.16666650000000516
        },
        {
          "name": "E4",
          "midi": 64,
          "time": 81.33325200000031,
          "velocity": 0.25984251968503935,
          "duration": 0.4999995000000155
        },
        {
          "name": "B3",
          "midi": 59,
          "time": 81.33325200000031,
          "velocity": 0.25984251968503935,
          "duration": 0.16666650000000516
        },
        {
          "name": "D2",
          "midi": 38,
          "time": 81.49991850000032,
          "velocity": 0.25984251968503935,
          "duration": 0.16666650000000516
        },
        {
          "name": "A4",
          "midi": 69,
          "time": 81.49991850000032,
          "velocity": 0.25984251968503935,
          "duration": 0.16666650000000516
        },
        {
          "name": "D3",
          "midi": 50,
          "time": 81.66658500000032,
          "velocity": 0.25984251968503935,
          "duration": 0.16666650000000516
        },
        {
          "name": "B3",
          "midi": 59,
          "time": 81.66658500000032,
          "velocity": 0.25984251968503935,
          "duration": 0.16666650000000516
        },
        {
          "name": "D2",
          "midi": 38,
          "time": 81.83325150000033,
          "velocity": 0.25984251968503935,
          "duration": 0.16666650000000516
        },
        {
          "name": "B4",
          "midi": 71,
          "time": 81.83325150000033,
          "velocity": 0.25984251968503935,
          "duration": 0.49999950000000126
        },
        {
          "name": "C#4",
          "midi": 61,
          "time": 81.83325150000033,
          "velocity": 0.25984251968503935,
          "duration": 0.16666650000000516
        },
        {
          "name": "D2",
          "midi": 38,
          "time": 81.99991800000033,
          "velocity": 0.25984251968503935,
          "duration": 0.16666650000000516
        },
        {
          "name": "B3",
          "midi": 59,
          "time": 81.99991800000033,
          "velocity": 0.25984251968503935,
          "duration": 0.16666650000000516
        },
        {
          "name": "D3",
          "midi": 50,
          "time": 82.16658450000034,
          "velocity": 0.25984251968503935,
          "duration": 0.16666649999999095
        },
        {
          "name": "C#4",
          "midi": 61,
          "time": 82.16658450000034,
          "velocity": 0.25984251968503935,
          "duration": 0.08333324999999547
        },
        {
          "name": "B3",
          "midi": 59,
          "time": 82.24991775000034,
          "velocity": 0.25984251968503935,
          "duration": 0.08333324999999547
        },
        {
          "name": "D2",
          "midi": 38,
          "time": 82.33325100000033,
          "velocity": 0.25984251968503935,
          "duration": 0.16666650000000516
        },
        {
          "name": "A4",
          "midi": 69,
          "time": 82.33325100000033,
          "velocity": 0.25984251968503935,
          "duration": 0.3333330000000103
        },
        {
          "name": "A3",
          "midi": 57,
          "time": 82.33325100000033,
          "velocity": 0.25984251968503935,
          "duration": 0.3333330000000103
        },
        {
          "name": "D3",
          "midi": 50,
          "time": 82.49991750000034,
          "velocity": 0.25984251968503935,
          "duration": 0.16666650000000516
        },
        {
          "name": "E2",
          "midi": 40,
          "time": 82.66658400000034,
          "velocity": 0.25984251968503935,
          "duration": 0.16666650000000516
        },
        {
          "name": "E4",
          "midi": 64,
          "time": 82.66658400000034,
          "velocity": 0.25984251968503935,
          "duration": 0.3333330000000103
        },
        {
          "name": "C#4",
          "midi": 61,
          "time": 82.66658400000034,
          "velocity": 0.25984251968503935,
          "duration": 0.3333330000000103
        },
        {
          "name": "E2",
          "midi": 40,
          "time": 82.83325050000035,
          "velocity": 0.25984251968503935,
          "duration": 0.16666650000000516
        },
        {
          "name": "E3",
          "midi": 52,
          "time": 82.99991700000035,
          "velocity": 0.25984251968503935,
          "duration": 0.16666650000000516
        },
        {
          "name": "B4",
          "midi": 71,
          "time": 82.99991700000035,
          "velocity": 0.25984251968503935,
          "duration": 0.3333330000000103
        },
        {
          "name": "C#4",
          "midi": 61,
          "time": 82.99991700000035,
          "velocity": 0.25984251968503935,
          "duration": 0.16666650000000516
        },
        {
          "name": "E2",
          "midi": 40,
          "time": 83.16658350000036,
          "velocity": 0.25984251968503935,
          "duration": 0.16666650000000516
        },
        {
          "name": "D4",
          "midi": 62,
          "time": 83.16658350000036,
          "velocity": 0.25984251968503935,
          "duration": 0.16666650000000516
        },
        {
          "name": "E2",
          "midi": 40,
          "time": 83.33325000000036,
          "velocity": 0.25984251968503935,
          "duration": 0.16666650000000516
        },
        {
          "name": "A4",
          "midi": 69,
          "time": 83.33325000000036,
          "velocity": 0.25984251968503935,
          "duration": 0.6666660000000206
        },
        {
          "name": "E4",
          "midi": 64,
          "time": 83.33325000000036,
          "velocity": 0.25984251968503935,
          "duration": 0.16666650000000516
        },
        {
          "name": "E3",
          "midi": 52,
          "time": 83.49991650000037,
          "velocity": 0.25984251968503935,
          "duration": 0.16666650000000516
        },
        {
          "name": "D5",
          "midi": 74,
          "time": 83.49991650000037,
          "velocity": 0.25984251968503935,
          "duration": 0.16666650000000516
        },
        {
          "name": "E2",
          "midi": 40,
          "time": 83.66658300000037,
          "velocity": 0.25984251968503935,
          "duration": 0.16666650000000516
        },
        {
          "name": "G#4",
          "midi": 68,
          "time": 83.66658300000037,
          "velocity": 0.25984251968503935,
          "duration": 0.16666650000000516
        },
        {
          "name": "E3",
          "midi": 52,
          "time": 83.83324950000038,
          "velocity": 0.25984251968503935,
          "duration": 0.16666650000000516
        },
        {
          "name": "C#5",
          "midi": 73,
          "time": 83.83324950000038,
          "velocity": 0.25984251968503935,
          "duration": 0.3333330000000103
        },
        {
          "name": "F#2",
          "midi": 42,
          "time": 83.99991600000038,
          "velocity": 0.25984251968503935,
          "duration": 0.16666650000000516
        },
        {
          "name": "F#4",
          "midi": 66,
          "time": 83.99991600000038,
          "velocity": 0.25984251968503935,
          "duration": 0.49999950000000126
        },
        {
          "name": "F#2",
          "midi": 42,
          "time": 84.16658250000039,
          "velocity": 0.25984251968503935,
          "duration": 0.16666649999999095
        },
        {
          "name": "D5",
          "midi": 74,
          "time": 84.16658250000039,
          "velocity": 0.25984251968503935,
          "duration": 0.08333324999999547
        },
        {
          "name": "C#5",
          "midi": 73,
          "time": 84.24991575000038,
          "velocity": 0.25984251968503935,
          "duration": 0.08333324999999547
        },
        {
          "name": "F#3",
          "midi": 54,
          "time": 84.33324900000038,
          "velocity": 0.25984251968503935,
          "duration": 0.16666650000000516
        },
        {
          "name": "B4",
          "midi": 71,
          "time": 84.33324900000038,
          "velocity": 0.25984251968503935,
          "duration": 0.3333330000000103
        },
        {
          "name": "F#2",
          "midi": 42,
          "time": 84.49991550000038,
          "velocity": 0.25984251968503935,
          "duration": 0.16666650000000516
        },
        {
          "name": "F#2",
          "midi": 42,
          "time": 84.66658200000039,
          "velocity": 0.25984251968503935,
          "duration": 0.16666650000000516
        },
        {
          "name": "E4",
          "midi": 64,
          "time": 84.66658200000039,
          "velocity": 0.25984251968503935,
          "duration": 0.3333330000000103
        },
        {
          "name": "A4",
          "midi": 69,
          "time": 84.66658200000039,
          "velocity": 0.25984251968503935,
          "duration": 0.3333330000000103
        },
        {
          "name": "F#3",
          "midi": 54,
          "time": 84.8332485000004,
          "velocity": 0.25984251968503935,
          "duration": 0.16666650000000516
        },
        {
          "name": "F#2",
          "midi": 42,
          "time": 84.9999150000004,
          "velocity": 0.25984251968503935,
          "duration": 0.16666650000000516
        },
        {
          "name": "E4",
          "midi": 64,
          "time": 84.9999150000004,
          "velocity": 0.25984251968503935,
          "duration": 0.3333330000000103
        },
        {
          "name": "F#3",
          "midi": 54,
          "time": 85.1665815000004,
          "velocity": 0.25984251968503935,
          "duration": 0.16666650000000516
        },
        {
          "name": "B1",
          "midi": 35,
          "time": 85.33324800000041,
          "velocity": 0.25984251968503935,
          "duration": 0.16666650000000516
        },
        {
          "name": "A4",
          "midi": 69,
          "time": 85.33324800000041,
          "velocity": 0.25984251968503935,
          "duration": 0.3333330000000103
        },
        {
          "name": "C#4",
          "midi": 61,
          "time": 85.33324800000041,
          "velocity": 0.25984251968503935,
          "duration": 0.3333330000000103
        },
        {
          "name": "B1",
          "midi": 35,
          "time": 85.49991450000041,
          "velocity": 0.25984251968503935,
          "duration": 0.16666650000000516
        },
        {
          "name": "B2",
          "midi": 47,
          "time": 85.66658100000042,
          "velocity": 0.25984251968503935,
          "duration": 0.16666650000000516
        },
        {
          "name": "A4",
          "midi": 69,
          "time": 85.66658100000042,
          "velocity": 0.25984251968503935,
          "duration": 0.16666650000000516
        },
        {
          "name": "C#4",
          "midi": 61,
          "time": 85.66658100000042,
          "velocity": 0.25984251968503935,
          "duration": 0.16666650000000516
        },
        {
          "name": "B1",
          "midi": 35,
          "time": 85.83324750000043,
          "velocity": 0.25984251968503935,
          "duration": 0.16666650000000516
        },
        {
          "name": "B4",
          "midi": 71,
          "time": 85.83324750000043,
          "velocity": 0.25984251968503935,
          "duration": 0.16666650000000516
        },
        {
          "name": "D4",
          "midi": 62,
          "time": 85.83324750000043,
          "velocity": 0.25984251968503935,
          "duration": 0.16666650000000516
        },
        {
          "name": "B1",
          "midi": 35,
          "time": 85.99991400000043,
          "velocity": 0.25984251968503935,
          "duration": 0.16666650000000516
        },
        {
          "name": "C#5",
          "midi": 73,
          "time": 85.99991400000043,
          "velocity": 0.25984251968503935,
          "duration": 0.3333330000000103
        },
        {
          "name": "E4",
          "midi": 64,
          "time": 85.99991400000043,
          "velocity": 0.25984251968503935,
          "duration": 0.3333330000000103
        },
        {
          "name": "B2",
          "midi": 47,
          "time": 86.16658050000044,
          "velocity": 0.25984251968503935,
          "duration": 0.16666650000000516
        },
        {
          "name": "B1",
          "midi": 35,
          "time": 86.33324700000044,
          "velocity": 0.25984251968503935,
          "duration": 0.16666650000000516
        },
        {
          "name": "A4",
          "midi": 69,
          "time": 86.33324700000044,
          "velocity": 0.25984251968503935,
          "duration": 0.3333330000000103
        },
        {
          "name": "C#4",
          "midi": 61,
          "time": 86.33324700000044,
          "velocity": 0.25984251968503935,
          "duration": 0.3333330000000103
        },
        {
          "name": "B2",
          "midi": 47,
          "time": 86.49991350000045,
          "velocity": 0.25984251968503935,
          "duration": 0.16666650000000516
        },
        {
          "name": "B1",
          "midi": 35,
          "time": 86.66658000000045,
          "velocity": 0.25984251968503935,
          "duration": 0.16666650000000516
        },
        {
          "name": "B4",
          "midi": 71,
          "time": 86.66658000000045,
          "velocity": 0.25984251968503935,
          "duration": 0.3333330000000103
        },
        {
          "name": "D4",
          "midi": 62,
          "time": 86.66658000000045,
          "velocity": 0.25984251968503935,
          "duration": 0.3333330000000103
        },
        {
          "name": "B1",
          "midi": 35,
          "time": 86.83324650000046,
          "velocity": 0.25984251968503935,
          "duration": 0.16666650000000516
        },
        {
          "name": "B2",
          "midi": 47,
          "time": 86.99991300000046,
          "velocity": 0.25984251968503935,
          "duration": 0.16666650000000516
        },
        {
          "name": "B4",
          "midi": 71,
          "time": 86.99991300000046,
          "velocity": 0.25984251968503935,
          "duration": 0.16666650000000516
        },
        {
          "name": "D4",
          "midi": 62,
          "time": 86.99991300000046,
          "velocity": 0.25984251968503935,
          "duration": 0.16666650000000516
        },
        {
          "name": "B1",
          "midi": 35,
          "time": 87.16657950000047,
          "velocity": 0.25984251968503935,
          "duration": 0.16666650000000516
        },
        {
          "name": "C#5",
          "midi": 73,
          "time": 87.16657950000047,
          "velocity": 0.25984251968503935,
          "duration": 0.16666650000000516
        },
        {
          "name": "E4",
          "midi": 64,
          "time": 87.16657950000047,
          "velocity": 0.25984251968503935,
          "duration": 0.16666650000000516
        },
        {
          "name": "B1",
          "midi": 35,
          "time": 87.33324600000047,
          "velocity": 0.25984251968503935,
          "duration": 0.16666650000000516
        },
        {
          "name": "B4",
          "midi": 71,
          "time": 87.33324600000047,
          "velocity": 0.25984251968503935,
          "duration": 0.3333330000000103
        },
        {
          "name": "D4",
          "midi": 62,
          "time": 87.33324600000047,
          "velocity": 0.25984251968503935,
          "duration": 0.3333330000000103
        },
        {
          "name": "B2",
          "midi": 47,
          "time": 87.49991250000048,
          "velocity": 0.25984251968503935,
          "duration": 0.16666650000000516
        },
        {
          "name": "B1",
          "midi": 35,
          "time": 87.66657900000048,
          "velocity": 0.25984251968503935,
          "duration": 0.16666650000000516
        },
        {
          "name": "A4",
          "midi": 69,
          "time": 87.66657900000048,
          "velocity": 0.25984251968503935,
          "duration": 0.3333330000000103
        },
        {
          "name": "E4",
          "midi": 64,
          "time": 87.66657900000048,
          "velocity": 0.25984251968503935,
          "duration": 0.3333330000000103
        },
        {
          "name": "B2",
          "midi": 47,
          "time": 87.83324550000049,
          "velocity": 0.25984251968503935,
          "duration": 0.16666650000000516
        },
        {
          "name": "C#2",
          "midi": 37,
          "time": 87.99991200000049,
          "velocity": 0.25984251968503935,
          "duration": 0.16666650000000516
        },
        {
          "name": "C#5",
          "midi": 73,
          "time": 87.99991200000049,
          "velocity": 0.25984251968503935,
          "duration": 0.3333330000000103
        },
        {
          "name": "E4",
          "midi": 64,
          "time": 87.99991200000049,
          "velocity": 0.25984251968503935,
          "duration": 0.3333330000000103
        },
        {
          "name": "C#2",
          "midi": 37,
          "time": 88.1665785000005,
          "velocity": 0.25984251968503935,
          "duration": 0.16666650000000516
        },
        {
          "name": "C#3",
          "midi": 49,
          "time": 88.3332450000005,
          "velocity": 0.25984251968503935,
          "duration": 0.16666650000000516
        },
        {
          "name": "C#5",
          "midi": 73,
          "time": 88.3332450000005,
          "velocity": 0.25984251968503935,
          "duration": 0.16666650000000516
        },
        {
          "name": "E4",
          "midi": 64,
          "time": 88.3332450000005,
          "velocity": 0.25984251968503935,
          "duration": 0.16666650000000516
        },
        {
          "name": "C#2",
          "midi": 37,
          "time": 88.49991150000051,
          "velocity": 0.25984251968503935,
          "duration": 0.16666650000000516
        },
        {
          "name": "D5",
          "midi": 74,
          "time": 88.49991150000051,
          "velocity": 0.25984251968503935,
          "duration": 0.16666650000000516
        },
        {
          "name": "F#4",
          "midi": 66,
          "time": 88.49991150000051,
          "velocity": 0.25984251968503935,
          "duration": 0.16666650000000516
        },
        {
          "name": "C#2",
          "midi": 37,
          "time": 88.66657800000051,
          "velocity": 0.25984251968503935,
          "duration": 0.16666650000000516
        },
        {
          "name": "E5",
          "midi": 76,
          "time": 88.66657800000051,
          "velocity": 0.25984251968503935,
          "duration": 0.3333330000000103
        },
        {
          "name": "A4",
          "midi": 69,
          "time": 88.66657800000051,
          "velocity": 0.25984251968503935,
          "duration": 0.3333330000000103
        },
        {
          "name": "C#3",
          "midi": 49,
          "time": 88.83324450000052,
          "velocity": 0.25984251968503935,
          "duration": 0.16666650000000516
        },
        {
          "name": "C#2",
          "midi": 37,
          "time": 88.99991100000052,
          "velocity": 0.25984251968503935,
          "duration": 0.16666650000000516
        },
        {
          "name": "A5",
          "midi": 81,
          "time": 88.99991100000052,
          "velocity": 0.25984251968503935,
          "duration": 0.3333330000000103
        },
        {
          "name": "B4",
          "midi": 71,
          "time": 88.99991100000052,
          "velocity": 0.25984251968503935,
          "duration": 0.3333330000000103
        },
        {
          "name": "C#3",
          "midi": 49,
          "time": 89.16657750000053,
          "velocity": 0.25984251968503935,
          "duration": 0.16666650000000516
        },
        {
          "name": "C#2",
          "midi": 37,
          "time": 89.33324400000053,
          "velocity": 0.25984251968503935,
          "duration": 0.16666650000000516
        },
        {
          "name": "F#5",
          "midi": 78,
          "time": 89.33324400000053,
          "velocity": 0.25984251968503935,
          "duration": 0.6666660000000206
        },
        {
          "name": "A4",
          "midi": 69,
          "time": 89.33324400000053,
          "velocity": 0.25984251968503935,
          "duration": 0.6666660000000206
        },
        {
          "name": "C#2",
          "midi": 37,
          "time": 89.49991050000054,
          "velocity": 0.25984251968503935,
          "duration": 0.16666650000000516
        },
        {
          "name": "C#3",
          "midi": 49,
          "time": 89.66657700000054,
          "velocity": 0.25984251968503935,
          "duration": 0.16666650000000516
        },
        {
          "name": "C#2",
          "midi": 37,
          "time": 89.83324350000055,
          "velocity": 0.25984251968503935,
          "duration": 0.16666650000000516
        },
        {
          "name": "C#2",
          "midi": 37,
          "time": 89.99991000000055,
          "velocity": 0.25984251968503935,
          "duration": 0.16666650000000516
        },
        {
          "name": "E5",
          "midi": 76,
          "time": 89.99991000000055,
          "velocity": 0.25984251968503935,
          "duration": 0.6666660000000206
        },
        {
          "name": "B4",
          "midi": 71,
          "time": 89.99991000000055,
          "velocity": 0.25984251968503935,
          "duration": 0.6666660000000206
        },
        {
          "name": "C#3",
          "midi": 49,
          "time": 90.16657650000056,
          "velocity": 0.25984251968503935,
          "duration": 0.16666650000000516
        },
        {
          "name": "C#2",
          "midi": 37,
          "time": 90.33324300000056,
          "velocity": 0.25984251968503935,
          "duration": 0.16666650000000516
        },
        {
          "name": "C#3",
          "midi": 49,
          "time": 90.49990950000057,
          "velocity": 0.25984251968503935,
          "duration": 0.16666650000000516
        },
        {
          "name": "D2",
          "midi": 38,
          "time": 90.66657600000057,
          "velocity": 0.25984251968503935,
          "duration": 0.16666650000000516
        },
        {
          "name": "A4",
          "midi": 69,
          "time": 90.66657600000057,
          "velocity": 0.25984251968503935,
          "duration": 0.3333330000000103
        },
        {
          "name": "C#4",
          "midi": 61,
          "time": 90.66657600000057,
          "velocity": 0.25984251968503935,
          "duration": 0.3333330000000103
        },
        {
          "name": "D2",
          "midi": 38,
          "time": 90.83324250000058,
          "velocity": 0.25984251968503935,
          "duration": 0.16666650000000516
        },
        {
          "name": "D3",
          "midi": 50,
          "time": 90.99990900000059,
          "velocity": 0.25984251968503935,
          "duration": 0.16666650000000516
        },
        {
          "name": "A4",
          "midi": 69,
          "time": 90.99990900000059,
          "velocity": 0.25984251968503935,
          "duration": 0.16666650000000516
        },
        {
          "name": "C#4",
          "midi": 61,
          "time": 90.99990900000059,
          "velocity": 0.25984251968503935,
          "duration": 0.16666650000000516
        },
        {
          "name": "D2",
          "midi": 38,
          "time": 91.16657550000059,
          "velocity": 0.25984251968503935,
          "duration": 0.16666650000000516
        },
        {
          "name": "B4",
          "midi": 71,
          "time": 91.16657550000059,
          "velocity": 0.25984251968503935,
          "duration": 0.16666650000000516
        },
        {
          "name": "D4",
          "midi": 62,
          "time": 91.16657550000059,
          "velocity": 0.25984251968503935,
          "duration": 0.16666650000000516
        },
        {
          "name": "D2",
          "midi": 38,
          "time": 91.3332420000006,
          "velocity": 0.25984251968503935,
          "duration": 0.16666650000000516
        },
        {
          "name": "C#5",
          "midi": 73,
          "time": 91.3332420000006,
          "velocity": 0.25984251968503935,
          "duration": 0.3333330000000103
        },
        {
          "name": "E4",
          "midi": 64,
          "time": 91.3332420000006,
          "velocity": 0.25984251968503935,
          "duration": 0.3333330000000103
        },
        {
          "name": "D3",
          "midi": 50,
          "time": 91.4999085000006,
          "velocity": 0.25984251968503935,
          "duration": 0.16666650000000516
        },
        {
          "name": "D2",
          "midi": 38,
          "time": 91.6665750000006,
          "velocity": 0.25984251968503935,
          "duration": 0.16666650000000516
        },
        {
          "name": "A4",
          "midi": 69,
          "time": 91.6665750000006,
          "velocity": 0.25984251968503935,
          "duration": 0.3333330000000103
        },
        {
          "name": "C#4",
          "midi": 61,
          "time": 91.6665750000006,
          "velocity": 0.25984251968503935,
          "duration": 0.3333330000000103
        },
        {
          "name": "D3",
          "midi": 50,
          "time": 91.83324150000061,
          "velocity": 0.25984251968503935,
          "duration": 0.16666650000000516
        },
        {
          "name": "D2",
          "midi": 38,
          "time": 91.99990800000062,
          "velocity": 0.25984251968503935,
          "duration": 0.16666650000000516
        },
        {
          "name": "B4",
          "midi": 71,
          "time": 91.99990800000062,
          "velocity": 0.25984251968503935,
          "duration": 0.3333330000000103
        },
        {
          "name": "D4",
          "midi": 62,
          "time": 91.99990800000062,
          "velocity": 0.25984251968503935,
          "duration": 0.3333330000000103
        },
        {
          "name": "D2",
          "midi": 38,
          "time": 92.16657450000062,
          "velocity": 0.25984251968503935,
          "duration": 0.16666650000000516
        },
        {
          "name": "D3",
          "midi": 50,
          "time": 92.33324100000063,
          "velocity": 0.25984251968503935,
          "duration": 0.16666650000000516
        },
        {
          "name": "B4",
          "midi": 71,
          "time": 92.33324100000063,
          "velocity": 0.25984251968503935,
          "duration": 0.16666650000000516
        },
        {
          "name": "D4",
          "midi": 62,
          "time": 92.33324100000063,
          "velocity": 0.25984251968503935,
          "duration": 0.16666650000000516
        },
        {
          "name": "D2",
          "midi": 38,
          "time": 92.49990750000063,
          "velocity": 0.25984251968503935,
          "duration": 0.16666650000000516
        },
        {
          "name": "C#5",
          "midi": 73,
          "time": 92.49990750000063,
          "velocity": 0.25984251968503935,
          "duration": 0.16666650000000516
        },
        {
          "name": "E4",
          "midi": 64,
          "time": 92.49990750000063,
          "velocity": 0.25984251968503935,
          "duration": 0.16666650000000516
        },
        {
          "name": "D2",
          "midi": 38,
          "time": 92.66657400000064,
          "velocity": 0.25984251968503935,
          "duration": 0.16666650000000516
        },
        {
          "name": "B4",
          "midi": 71,
          "time": 92.66657400000064,
          "velocity": 0.25984251968503935,
          "duration": 0.3333330000000103
        },
        {
          "name": "D4",
          "midi": 62,
          "time": 92.66657400000064,
          "velocity": 0.25984251968503935,
          "duration": 0.3333330000000103
        },
        {
          "name": "D3",
          "midi": 50,
          "time": 92.83324050000064,
          "velocity": 0.25984251968503935,
          "duration": 0.16666650000000516
        },
        {
          "name": "D2",
          "midi": 38,
          "time": 92.99990700000065,
          "velocity": 0.25984251968503935,
          "duration": 0.16666650000000516
        },
        {
          "name": "A4",
          "midi": 69,
          "time": 92.99990700000065,
          "velocity": 0.25984251968503935,
          "duration": 0.3333330000000103
        },
        {
          "name": "E4",
          "midi": 64,
          "time": 92.99990700000065,
          "velocity": 0.25984251968503935,
          "duration": 0.3333330000000103
        },
        {
          "name": "D3",
          "midi": 50,
          "time": 93.16657350000065,
          "velocity": 0.25984251968503935,
          "duration": 0.16666650000000516
        },
        {
          "name": "E2",
          "midi": 40,
          "time": 93.33324000000066,
          "velocity": 0.25984251968503935,
          "duration": 0.16666650000000516
        },
        {
          "name": "C#5",
          "midi": 73,
          "time": 93.33324000000066,
          "velocity": 0.25984251968503935,
          "duration": 0.3333330000000103
        },
        {
          "name": "E4",
          "midi": 64,
          "time": 93.33324000000066,
          "velocity": 0.25984251968503935,
          "duration": 0.3333330000000103
        },
        {
          "name": "E2",
          "midi": 40,
          "time": 93.49990650000066,
          "velocity": 0.25984251968503935,
          "duration": 0.16666650000000516
        },
        {
          "name": "E3",
          "midi": 52,
          "time": 93.66657300000067,
          "velocity": 0.25984251968503935,
          "duration": 0.16666650000000516
        },
        {
          "name": "C#5",
          "midi": 73,
          "time": 93.66657300000067,
          "velocity": 0.25984251968503935,
          "duration": 0.16666650000000516
        },
        {
          "name": "E4",
          "midi": 64,
          "time": 93.66657300000067,
          "velocity": 0.25984251968503935,
          "duration": 0.16666650000000516
        },
        {
          "name": "E2",
          "midi": 40,
          "time": 93.83323950000067,
          "velocity": 0.25984251968503935,
          "duration": 0.16666650000000516
        },
        {
          "name": "D5",
          "midi": 74,
          "time": 93.83323950000067,
          "velocity": 0.25984251968503935,
          "duration": 0.16666650000000516
        },
        {
          "name": "F#4",
          "midi": 66,
          "time": 93.83323950000067,
          "velocity": 0.25984251968503935,
          "duration": 0.16666650000000516
        },
        {
          "name": "E2",
          "midi": 40,
          "time": 93.99990600000068,
          "velocity": 0.25984251968503935,
          "duration": 0.16666650000000516
        },
        {
          "name": "E5",
          "midi": 76,
          "time": 93.99990600000068,
          "velocity": 0.25984251968503935,
          "duration": 0.3333330000000103
        },
        {
          "name": "A4",
          "midi": 69,
          "time": 93.99990600000068,
          "velocity": 0.25984251968503935,
          "duration": 0.3333330000000103
        },
        {
          "name": "E3",
          "midi": 52,
          "time": 94.16657250000068,
          "velocity": 0.25984251968503935,
          "duration": 0.16666650000000516
        },
        {
          "name": "E2",
          "midi": 40,
          "time": 94.33323900000069,
          "velocity": 0.25984251968503935,
          "duration": 0.16666650000000516
        },
        {
          "name": "B4",
          "midi": 71,
          "time": 94.33323900000069,
          "velocity": 0.25984251968503935,
          "duration": 0.3333330000000103
        },
        {
          "name": "A5",
          "midi": 81,
          "time": 94.33323900000069,
          "velocity": 0.25984251968503935,
          "duration": 0.3333330000000103
        },
        {
          "name": "E3",
          "midi": 52,
          "time": 94.4999055000007,
          "velocity": 0.25984251968503935,
          "duration": 0.16666650000000516
        },
        {
          "name": "F#2",
          "midi": 42,
          "time": 94.6665720000007,
          "velocity": 0.25984251968503935,
          "duration": 0.16666650000000516
        },
        {
          "name": "F#5",
          "midi": 78,
          "time": 94.6665720000007,
          "velocity": 0.25984251968503935,
          "duration": 0.6666660000000206
        },
        {
          "name": "A4",
          "midi": 69,
          "time": 94.6665720000007,
          "velocity": 0.25984251968503935,
          "duration": 0.6666660000000206
        },
        {
          "name": "F#2",
          "midi": 42,
          "time": 94.8332385000007,
          "velocity": 0.25984251968503935,
          "duration": 0.16666650000000516
        },
        {
          "name": "F#3",
          "midi": 54,
          "time": 94.99990500000071,
          "velocity": 0.25984251968503935,
          "duration": 0.16666650000000516
        },
        {
          "name": "F#2",
          "midi": 42,
          "time": 95.16657150000071,
          "velocity": 0.25984251968503935,
          "duration": 0.16666650000000516
        },
        {
          "name": "F#2",
          "midi": 42,
          "time": 95.33323800000072,
          "velocity": 0.25984251968503935,
          "duration": 0.16666650000000516
        },
        {
          "name": "A4",
          "midi": 69,
          "time": 95.33323800000072,
          "velocity": 0.25984251968503935,
          "duration": 0.6666660000000206
        },
        {
          "name": "E4",
          "midi": 64,
          "time": 95.33323800000072,
          "velocity": 0.25984251968503935,
          "duration": 0.6666660000000206
        },
        {
          "name": "F#3",
          "midi": 54,
          "time": 95.49990450000072,
          "velocity": 0.25984251968503935,
          "duration": 0.16666650000000516
        },
        {
          "name": "F#2",
          "midi": 42,
          "time": 95.66657100000073,
          "velocity": 0.25984251968503935,
          "duration": 0.16666650000000516
        },
        {
          "name": "F#3",
          "midi": 54,
          "time": 95.83323750000073,
          "velocity": 0.25984251968503935,
          "duration": 0.16666650000000516
        },
        {
          "name": "B1",
          "midi": 35,
          "time": 95.99990400000074,
          "velocity": 0.25984251968503935,
          "duration": 0.16666650000000516
        },
        {
          "name": "E5",
          "midi": 76,
          "time": 95.99990400000074,
          "velocity": 0.25984251968503935,
          "duration": 0.3333330000000103
        },
        {
          "name": "B1",
          "midi": 35,
          "time": 96.16657050000074,
          "velocity": 0.25984251968503935,
          "duration": 0.16666650000000516
        },
        {
          "name": "B2",
          "midi": 47,
          "time": 96.33323700000075,
          "velocity": 0.25984251968503935,
          "duration": 0.16666650000000516
        },
        {
          "name": "A4",
          "midi": 69,
          "time": 96.33323700000075,
          "velocity": 0.25984251968503935,
          "duration": 0.3333330000000103
        },
        {
          "name": "B1",
          "midi": 35,
          "time": 96.49990350000076,
          "velocity": 0.25984251968503935,
          "duration": 0.16666650000000516
        },
        {
          "name": "B1",
          "midi": 35,
          "time": 96.66657000000076,
          "velocity": 0.25984251968503935,
          "duration": 0.16666650000000516
        },
        {
          "name": "B4",
          "midi": 71,
          "time": 96.66657000000076,
          "velocity": 0.25984251968503935,
          "duration": 0.3333330000000103
        },
        {
          "name": "B2",
          "midi": 47,
          "time": 96.83323650000077,
          "velocity": 0.25984251968503935,
          "duration": 0.16666650000000516
        },
        {
          "name": "B1",
          "midi": 35,
          "time": 96.99990300000077,
          "velocity": 0.25984251968503935,
          "duration": 0.16666650000000516
        },
        {
          "name": "A4",
          "midi": 69,
          "time": 96.99990300000077,
          "velocity": 0.25984251968503935,
          "duration": 0.3333330000000103
        },
        {
          "name": "B2",
          "midi": 47,
          "time": 97.16656950000078,
          "velocity": 0.25984251968503935,
          "duration": 0.16666650000000516
        },
        {
          "name": "B1",
          "midi": 35,
          "time": 97.33323600000078,
          "velocity": 0.25984251968503935,
          "duration": 0.16666650000000516
        },
        {
          "name": "E4",
          "midi": 64,
          "time": 97.33323600000078,
          "velocity": 0.25984251968503935,
          "duration": 0.16666650000000516
        },
        {
          "name": "B1",
          "midi": 35,
          "time": 97.49990250000079,
          "velocity": 0.25984251968503935,
          "duration": 0.16666650000000516
        },
        {
          "name": "A4",
          "midi": 69,
          "time": 97.49990250000079,
          "velocity": 0.25984251968503935,
          "duration": 0.3333330000000103
        },
        {
          "name": "B2",
          "midi": 47,
          "time": 97.66656900000079,
          "velocity": 0.25984251968503935,
          "duration": 0.16666650000000516
        },
        {
          "name": "B1",
          "midi": 35,
          "time": 97.8332355000008,
          "velocity": 0.25984251968503935,
          "duration": 0.16666650000000516
        },
        {
          "name": "B4",
          "midi": 71,
          "time": 97.8332355000008,
          "velocity": 0.25984251968503935,
          "duration": 0.3333330000000103
        },
        {
          "name": "B1",
          "midi": 35,
          "time": 97.9999020000008,
          "velocity": 0.25984251968503935,
          "duration": 0.16666650000000516
        },
        {
          "name": "B2",
          "midi": 47,
          "time": 98.1665685000008,
          "velocity": 0.25984251968503935,
          "duration": 0.16666649999999095
        },
        {
          "name": "C#5",
          "midi": 73,
          "time": 98.1665685000008,
          "velocity": 0.25984251968503935,
          "duration": 0.08333324999999547
        },
        {
          "name": "B4",
          "midi": 71,
          "time": 98.2499017500008,
          "velocity": 0.25984251968503935,
          "duration": 0.08333324999999547
        },
        {
          "name": "B1",
          "midi": 35,
          "time": 98.3332350000008,
          "velocity": 0.25984251968503935,
          "duration": 0.16666650000000516
        },
        {
          "name": "A4",
          "midi": 69,
          "time": 98.3332350000008,
          "velocity": 0.25984251968503935,
          "duration": 0.3333330000000103
        },
        {
          "name": "B2",
          "midi": 47,
          "time": 98.4999015000008,
          "velocity": 0.25984251968503935,
          "duration": 0.16666650000000516
        },
        {
          "name": "C#2",
          "midi": 37,
          "time": 98.66656800000081,
          "velocity": 0.25984251968503935,
          "duration": 0.16666650000000516
        },
        {
          "name": "E4",
          "midi": 64,
          "time": 98.66656800000081,
          "velocity": 0.25984251968503935,
          "duration": 0.3333330000000103
        },
        {
          "name": "C#2",
          "midi": 37,
          "time": 98.83323450000081,
          "velocity": 0.25984251968503935,
          "duration": 0.16666650000000516
        },
        {
          "name": "C#3",
          "midi": 49,
          "time": 98.99990100000082,
          "velocity": 0.25984251968503935,
          "duration": 0.16666650000000516
        },
        {
          "name": "A4",
          "midi": 69,
          "time": 98.99990100000082,
          "velocity": 0.25984251968503935,
          "duration": 0.3333330000000103
        },
        {
          "name": "C#2",
          "midi": 37,
          "time": 99.16656750000082,
          "velocity": 0.25984251968503935,
          "duration": 0.16666650000000516
        },
        {
          "name": "C#2",
          "midi": 37,
          "time": 99.33323400000083,
          "velocity": 0.25984251968503935,
          "duration": 0.16666650000000516
        },
        {
          "name": "B4",
          "midi": 71,
          "time": 99.33323400000083,
          "velocity": 0.25984251968503935,
          "duration": 0.16666650000000516
        },
        {
          "name": "C#3",
          "midi": 49,
          "time": 99.49990050000083,
          "velocity": 0.25984251968503935,
          "duration": 0.16666650000000516
        },
        {
          "name": "D5",
          "midi": 74,
          "time": 99.49990050000083,
          "velocity": 0.25984251968503935,
          "duration": 0.3333330000000103
        },
        {
          "name": "C#2",
          "midi": 37,
          "time": 99.66656700000084,
          "velocity": 0.25984251968503935,
          "duration": 0.16666650000000516
        },
        {
          "name": "C#3",
          "midi": 49,
          "time": 99.83323350000084,
          "velocity": 0.25984251968503935,
          "duration": 0.16666650000000516
        },
        {
          "name": "C#5",
          "midi": 73,
          "time": 99.83323350000084,
          "velocity": 0.25984251968503935,
          "duration": 0.3333330000000103
        },
        {
          "name": "C#2",
          "midi": 37,
          "time": 99.99990000000085,
          "velocity": 0.25984251968503935,
          "duration": 0.16666650000000516
        },
        {
          "name": "C#2",
          "midi": 37,
          "time": 100.16656650000085,
          "velocity": 0.25984251968503935,
          "duration": 0.16666649999999095
        },
        {
          "name": "D5",
          "midi": 74,
          "time": 100.16656650000085,
          "velocity": 0.25984251968503935,
          "duration": 0.08333324999999547
        },
        {
          "name": "C#5",
          "midi": 73,
          "time": 100.24989975000085,
          "velocity": 0.25984251968503935,
          "duration": 0.08333324999999547
        },
        {
          "name": "C#3",
          "midi": 49,
          "time": 100.33323300000085,
          "velocity": 0.25984251968503935,
          "duration": 0.16666650000000516
        },
        {
          "name": "B4",
          "midi": 71,
          "time": 100.33323300000085,
          "velocity": 0.25984251968503935,
          "duration": 0.3333330000000103
        },
        {
          "name": "C#2",
          "midi": 37,
          "time": 100.49989950000085,
          "velocity": 0.25984251968503935,
          "duration": 0.16666650000000516
        },
        {
          "name": "C#2",
          "midi": 37,
          "time": 100.66656600000086,
          "velocity": 0.25984251968503935,
          "duration": 0.16666650000000516
        },
        {
          "name": "A4",
          "midi": 69,
          "time": 100.66656600000086,
          "velocity": 0.25984251968503935,
          "duration": 0.3333330000000103
        },
        {
          "name": "C#3",
          "midi": 49,
          "time": 100.83323250000086,
          "velocity": 0.25984251968503935,
          "duration": 0.16666650000000516
        },
        {
          "name": "C#2",
          "midi": 37,
          "time": 100.99989900000087,
          "velocity": 0.25984251968503935,
          "duration": 0.16666650000000516
        },
        {
          "name": "E4",
          "midi": 64,
          "time": 100.99989900000087,
          "velocity": 0.25984251968503935,
          "duration": 0.3333330000000103
        },
        {
          "name": "C#3",
          "midi": 49,
          "time": 101.16656550000087,
          "velocity": 0.25984251968503935,
          "duration": 0.16666650000000516
        },
        {
          "name": "D2",
          "midi": 38,
          "time": 101.33323200000088,
          "velocity": 0.25984251968503935,
          "duration": 0.16666650000000516
        },
        {
          "name": "E5",
          "midi": 76,
          "time": 101.33323200000088,
          "velocity": 0.25984251968503935,
          "duration": 0.3333330000000103
        },
        {
          "name": "D2",
          "midi": 38,
          "time": 101.49989850000088,
          "velocity": 0.25984251968503935,
          "duration": 0.16666650000000516
        },
        {
          "name": "D3",
          "midi": 50,
          "time": 101.66656500000089,
          "velocity": 0.25984251968503935,
          "duration": 0.16666650000000516
        },
        {
          "name": "A4",
          "midi": 69,
          "time": 101.66656500000089,
          "velocity": 0.25984251968503935,
          "duration": 0.3333330000000103
        },
        {
          "name": "D2",
          "midi": 38,
          "time": 101.83323150000089,
          "velocity": 0.25984251968503935,
          "duration": 0.16666650000000516
        },
        {
          "name": "D2",
          "midi": 38,
          "time": 101.9998980000009,
          "velocity": 0.25984251968503935,
          "duration": 0.16666650000000516
        },
        {
          "name": "B4",
          "midi": 71,
          "time": 101.9998980000009,
          "velocity": 0.25984251968503935,
          "duration": 0.3333330000000103
        },
        {
          "name": "D3",
          "midi": 50,
          "time": 102.1665645000009,
          "velocity": 0.25984251968503935,
          "duration": 0.16666650000000516
        },
        {
          "name": "D2",
          "midi": 38,
          "time": 102.33323100000091,
          "velocity": 0.25984251968503935,
          "duration": 0.16666650000000516
        },
        {
          "name": "A4",
          "midi": 69,
          "time": 102.33323100000091,
          "velocity": 0.25984251968503935,
          "duration": 0.3333330000000103
        },
        {
          "name": "D3",
          "midi": 50,
          "time": 102.49989750000091,
          "velocity": 0.25984251968503935,
          "duration": 0.16666650000000516
        },
        {
          "name": "D2",
          "midi": 38,
          "time": 102.66656400000092,
          "velocity": 0.25984251968503935,
          "duration": 0.16666650000000516
        },
        {
          "name": "E4",
          "midi": 64,
          "time": 102.66656400000092,
          "velocity": 0.25984251968503935,
          "duration": 0.16666650000000516
        },
        {
          "name": "D2",
          "midi": 38,
          "time": 102.83323050000092,
          "velocity": 0.25984251968503935,
          "duration": 0.16666650000000516
        },
        {
          "name": "A4",
          "midi": 69,
          "time": 102.83323050000092,
          "velocity": 0.25984251968503935,
          "duration": 0.3333330000000103
        },
        {
          "name": "D3",
          "midi": 50,
          "time": 102.99989700000093,
          "velocity": 0.25984251968503935,
          "duration": 0.16666650000000516
        },
        {
          "name": "D2",
          "midi": 38,
          "time": 103.16656350000093,
          "velocity": 0.25984251968503935,
          "duration": 0.16666650000000516
        },
        {
          "name": "B4",
          "midi": 71,
          "time": 103.16656350000093,
          "velocity": 0.25984251968503935,
          "duration": 0.3333330000000103
        },
        {
          "name": "D2",
          "midi": 38,
          "time": 103.33323000000094,
          "velocity": 0.25984251968503935,
          "duration": 0.16666650000000516
        },
        {
          "name": "D3",
          "midi": 50,
          "time": 103.49989650000094,
          "velocity": 0.25984251968503935,
          "duration": 0.16666649999999095
        },
        {
          "name": "C#5",
          "midi": 73,
          "time": 103.49989650000094,
          "velocity": 0.25984251968503935,
          "duration": 0.08333324999999547
        },
        {
          "name": "B4",
          "midi": 71,
          "time": 103.58322975000094,
          "velocity": 0.25984251968503935,
          "duration": 0.08333324999999547
        },
        {
          "name": "D2",
          "midi": 38,
          "time": 103.66656300000093,
          "velocity": 0.25984251968503935,
          "duration": 0.16666650000000516
        },
        {
          "name": "A4",
          "midi": 69,
          "time": 103.66656300000093,
          "velocity": 0.25984251968503935,
          "duration": 0.3333330000000103
        },
        {
          "name": "D3",
          "midi": 50,
          "time": 103.83322950000094,
          "velocity": 0.25984251968503935,
          "duration": 0.16666650000000516
        },
        {
          "name": "E2",
          "midi": 40,
          "time": 103.99989600000094,
          "velocity": 0.25984251968503935,
          "duration": 0.16666650000000516
        },
        {
          "name": "E5",
          "midi": 76,
          "time": 103.99989600000094,
          "velocity": 0.25984251968503935,
          "duration": 0.3333330000000103
        },
        {
          "name": "E2",
          "midi": 40,
          "time": 104.16656250000095,
          "velocity": 0.25984251968503935,
          "duration": 0.16666650000000516
        },
        {
          "name": "E3",
          "midi": 52,
          "time": 104.33322900000096,
          "velocity": 0.25984251968503935,
          "duration": 0.16666650000000516
        },
        {
          "name": "A4",
          "midi": 69,
          "time": 104.33322900000096,
          "velocity": 0.25984251968503935,
          "duration": 0.3333330000000103
        },
        {
          "name": "E2",
          "midi": 40,
          "time": 104.49989550000096,
          "velocity": 0.25984251968503935,
          "duration": 0.16666650000000516
        },
        {
          "name": "E2",
          "midi": 40,
          "time": 104.66656200000097,
          "velocity": 0.25984251968503935,
          "duration": 0.16666650000000516
        },
        {
          "name": "A5",
          "midi": 81,
          "time": 104.66656200000097,
          "velocity": 0.25984251968503935,
          "duration": 0.16666650000000516
        },
        {
          "name": "A5",
          "midi": 81,
          "time": 104.66656200000097,
          "velocity": 0.25984251968503935,
          "duration": 0.16666650000000516
        },
        {
          "name": "E3",
          "midi": 52,
          "time": 104.83322850000097,
          "velocity": 0.25984251968503935,
          "duration": 0.16666650000000516
        },
        {
          "name": "G#5",
          "midi": 80,
          "time": 104.83322850000097,
          "velocity": 0.25984251968503935,
          "duration": 0.3333330000000103
        },
        {
          "name": "G#5",
          "midi": 80,
          "time": 104.83322850000097,
          "velocity": 0.25984251968503935,
          "duration": 0.3333330000000103
        },
        {
          "name": "E2",
          "midi": 40,
          "time": 104.99989500000098,
          "velocity": 0.25984251968503935,
          "duration": 0.16666650000000516
        },
        {
          "name": "E3",
          "midi": 52,
          "time": 105.16656150000098,
          "velocity": 0.25984251968503935,
          "duration": 0.16666650000000516
        },
        {
          "name": "E5",
          "midi": 76,
          "time": 105.16656150000098,
          "velocity": 0.25984251968503935,
          "duration": 0.3333330000000103
        },
        {
          "name": "E5",
          "midi": 76,
          "time": 105.16656150000098,
          "velocity": 0.25984251968503935,
          "duration": 0.3333330000000103
        },
        {
          "name": "F#2",
          "midi": 42,
          "time": 105.33322800000099,
          "velocity": 0.25984251968503935,
          "duration": 0.16666650000000516
        },
        {
          "name": "F#2",
          "midi": 42,
          "time": 105.49989450000099,
          "velocity": 0.25984251968503935,
          "duration": 0.16666650000000516
        },
        {
          "name": "C#5",
          "midi": 73,
          "time": 105.49989450000099,
          "velocity": 0.25984251968503935,
          "duration": 0.16666650000000516
        },
        {
          "name": "C#5",
          "midi": 73,
          "time": 105.49989450000099,
          "velocity": 0.25984251968503935,
          "duration": 0.16666650000000516
        },
        {
          "name": "F#3",
          "midi": 54,
          "time": 105.666561000001,
          "velocity": 0.25984251968503935,
          "duration": 0.16666650000000516
        },
        {
          "name": "B4",
          "midi": 71,
          "time": 105.666561000001,
          "velocity": 0.25984251968503935,
          "duration": 0.16666650000000516
        },
        {
          "name": "B4",
          "midi": 71,
          "time": 105.666561000001,
          "velocity": 0.25984251968503935,
          "duration": 0.16666650000000516
        },
        {
          "name": "F#2",
          "midi": 42,
          "time": 105.833227500001,
          "velocity": 0.25984251968503935,
          "duration": 0.16666650000000516
        },
        {
          "name": "A4",
          "midi": 69,
          "time": 105.833227500001,
          "velocity": 0.25984251968503935,
          "duration": 0.3333330000000103
        },
        {
          "name": "A4",
          "midi": 69,
          "time": 105.833227500001,
          "velocity": 0.25984251968503935,
          "duration": 0.3333330000000103
        },
        {
          "name": "F#2",
          "midi": 42,
          "time": 105.999894000001,
          "velocity": 0.25984251968503935,
          "duration": 0.16666650000000516
        },
        {
          "name": "F#3",
          "midi": 54,
          "time": 106.16656050000101,
          "velocity": 0.25984251968503935,
          "duration": 0.16666650000000516
        },
        {
          "name": "B4",
          "midi": 71,
          "time": 106.16656050000101,
          "velocity": 0.25984251968503935,
          "duration": 0.16666650000000516
        },
        {
          "name": "B4",
          "midi": 71,
          "time": 106.16656050000101,
          "velocity": 0.25984251968503935,
          "duration": 0.16666650000000516
        },
        {
          "name": "F#2",
          "midi": 42,
          "time": 106.33322700000102,
          "velocity": 0.25984251968503935,
          "duration": 0.16666650000000516
        },
        {
          "name": "A4",
          "midi": 69,
          "time": 106.33322700000102,
          "velocity": 0.25984251968503935,
          "duration": 0.16666650000000516
        },
        {
          "name": "A4",
          "midi": 69,
          "time": 106.33322700000102,
          "velocity": 0.25984251968503935,
          "duration": 0.16666650000000516
        },
        {
          "name": "F#3",
          "midi": 54,
          "time": 106.49989350000102,
          "velocity": 0.25984251968503935,
          "duration": 0.16666650000000516
        },
        {
          "name": "E4",
          "midi": 64,
          "time": 106.49989350000102,
          "velocity": 0.25984251968503935,
          "duration": 0.16666650000000516
        },
        {
          "name": "E4",
          "midi": 64,
          "time": 106.49989350000102,
          "velocity": 0.25984251968503935,
          "duration": 0.16666650000000516
        },
        {
          "name": "B1",
          "midi": 35,
          "time": 106.66656000000103,
          "velocity": 0.25984251968503935,
          "duration": 0.16666650000000516
        },
        {
          "name": "E5",
          "midi": 76,
          "time": 106.66656000000103,
          "velocity": 0.25984251968503935,
          "duration": 0.3333330000000103
        },
        {
          "name": "E5",
          "midi": 76,
          "time": 106.66656000000103,
          "velocity": 0.25984251968503935,
          "duration": 0.3333330000000103
        },
        {
          "name": "B1",
          "midi": 35,
          "time": 106.83322650000103,
          "velocity": 0.25984251968503935,
          "duration": 0.16666650000000516
        },
        {
          "name": "B2",
          "midi": 47,
          "time": 106.99989300000104,
          "velocity": 0.25984251968503935,
          "duration": 0.16666650000000516
        },
        {
          "name": "A4",
          "midi": 69,
          "time": 106.99989300000104,
          "velocity": 0.25984251968503935,
          "duration": 0.3333330000000103
        },
        {
          "name": "A4",
          "midi": 69,
          "time": 106.99989300000104,
          "velocity": 0.25984251968503935,
          "duration": 0.3333330000000103
        },
        {
          "name": "B1",
          "midi": 35,
          "time": 107.16655950000104,
          "velocity": 0.25984251968503935,
          "duration": 0.16666650000000516
        },
        {
          "name": "B1",
          "midi": 35,
          "time": 107.33322600000105,
          "velocity": 0.25984251968503935,
          "duration": 0.16666650000000516
        },
        {
          "name": "B4",
          "midi": 71,
          "time": 107.33322600000105,
          "velocity": 0.25984251968503935,
          "duration": 0.3333330000000103
        },
        {
          "name": "B4",
          "midi": 71,
          "time": 107.33322600000105,
          "velocity": 0.25984251968503935,
          "duration": 0.3333330000000103
        },
        {
          "name": "B2",
          "midi": 47,
          "time": 107.49989250000105,
          "velocity": 0.25984251968503935,
          "duration": 0.16666650000000516
        },
        {
          "name": "B1",
          "midi": 35,
          "time": 107.66655900000106,
          "velocity": 0.25984251968503935,
          "duration": 0.16666650000000516
        },
        {
          "name": "A4",
          "midi": 69,
          "time": 107.66655900000106,
          "velocity": 0.25984251968503935,
          "duration": 0.3333330000000103
        },
        {
          "name": "A4",
          "midi": 69,
          "time": 107.66655900000106,
          "velocity": 0.25984251968503935,
          "duration": 0.3333330000000103
        },
        {
          "name": "B2",
          "midi": 47,
          "time": 107.83322550000106,
          "velocity": 0.25984251968503935,
          "duration": 0.16666650000000516
        },
        {
          "name": "B1",
          "midi": 35,
          "time": 107.99989200000107,
          "velocity": 0.25984251968503935,
          "duration": 0.16666650000000516
        },
        {
          "name": "E4",
          "midi": 64,
          "time": 107.99989200000107,
          "velocity": 0.25984251968503935,
          "duration": 0.16666650000000516
        },
        {
          "name": "E4",
          "midi": 64,
          "time": 107.99989200000107,
          "velocity": 0.25984251968503935,
          "duration": 0.16666650000000516
        },
        {
          "name": "B1",
          "midi": 35,
          "time": 108.16655850000107,
          "velocity": 0.25984251968503935,
          "duration": 0.16666650000000516
        },
        {
          "name": "A4",
          "midi": 69,
          "time": 108.16655850000107,
          "velocity": 0.25984251968503935,
          "duration": 0.3333330000000103
        },
        {
          "name": "A4",
          "midi": 69,
          "time": 108.16655850000107,
          "velocity": 0.25984251968503935,
          "duration": 0.3333330000000103
        },
        {
          "name": "B2",
          "midi": 47,
          "time": 108.33322500000108,
          "velocity": 0.25984251968503935,
          "duration": 0.16666650000000516
        },
        {
          "name": "B1",
          "midi": 35,
          "time": 108.49989150000108,
          "velocity": 0.25984251968503935,
          "duration": 0.16666650000000516
        },
        {
          "name": "B4",
          "midi": 71,
          "time": 108.49989150000108,
          "velocity": 0.25984251968503935,
          "duration": 0.3333330000000103
        },
        {
          "name": "B4",
          "midi": 71,
          "time": 108.49989150000108,
          "velocity": 0.25984251968503935,
          "duration": 0.3333330000000103
        },
        {
          "name": "B1",
          "midi": 35,
          "time": 108.66655800000109,
          "velocity": 0.25984251968503935,
          "duration": 0.16666650000000516
        },
        {
          "name": "B2",
          "midi": 47,
          "time": 108.8332245000011,
          "velocity": 0.25984251968503935,
          "duration": 0.16666649999999095
        },
        {
          "name": "C#5",
          "midi": 73,
          "time": 108.8332245000011,
          "velocity": 0.25984251968503935,
          "duration": 0.08333324999999547
        },
        {
          "name": "C#5",
          "midi": 73,
          "time": 108.8332245000011,
          "velocity": 0.25984251968503935,
          "duration": 0.08333324999999547
        },
        {
          "name": "B4",
          "midi": 71,
          "time": 108.91655775000109,
          "velocity": 0.25984251968503935,
          "duration": 0.08333324999999547
        },
        {
          "name": "B4",
          "midi": 71,
          "time": 108.91655775000109,
          "velocity": 0.25984251968503935,
          "duration": 0.08333324999999547
        },
        {
          "name": "B1",
          "midi": 35,
          "time": 108.99989100000109,
          "velocity": 0.25984251968503935,
          "duration": 0.16666650000000516
        },
        {
          "name": "A4",
          "midi": 69,
          "time": 108.99989100000109,
          "velocity": 0.25984251968503935,
          "duration": 0.3333330000000103
        },
        {
          "name": "A4",
          "midi": 69,
          "time": 108.99989100000109,
          "velocity": 0.25984251968503935,
          "duration": 0.3333330000000103
        },
        {
          "name": "B2",
          "midi": 47,
          "time": 109.16655750000109,
          "velocity": 0.25984251968503935,
          "duration": 0.16666650000000516
        },
        {
          "name": "C#2",
          "midi": 37,
          "time": 109.3332240000011,
          "velocity": 0.25984251968503935,
          "duration": 0.16666650000000516
        },
        {
          "name": "E4",
          "midi": 64,
          "time": 109.3332240000011,
          "velocity": 0.25984251968503935,
          "duration": 0.3333330000000103
        },
        {
          "name": "E4",
          "midi": 64,
          "time": 109.3332240000011,
          "velocity": 0.25984251968503935,
          "duration": 0.3333330000000103
        },
        {
          "name": "C#2",
          "midi": 37,
          "time": 109.4998905000011,
          "velocity": 0.25984251968503935,
          "duration": 0.16666650000000516
        },
        {
          "name": "C#3",
          "midi": 49,
          "time": 109.6665570000011,
          "velocity": 0.25984251968503935,
          "duration": 0.16666650000000516
        },
        {
          "name": "A4",
          "midi": 69,
          "time": 109.6665570000011,
          "velocity": 0.25984251968503935,
          "duration": 0.3333330000000103
        },
        {
          "name": "A4",
          "midi": 69,
          "time": 109.6665570000011,
          "velocity": 0.25984251968503935,
          "duration": 0.3333330000000103
        },
        {
          "name": "C#2",
          "midi": 37,
          "time": 109.83322350000111,
          "velocity": 0.25984251968503935,
          "duration": 0.16666650000000516
        },
        {
          "name": "C#2",
          "midi": 37,
          "time": 109.99989000000112,
          "velocity": 0.25984251968503935,
          "duration": 0.16666650000000516
        },
        {
          "name": "B4",
          "midi": 71,
          "time": 109.99989000000112,
          "velocity": 0.25984251968503935,
          "duration": 0.16666650000000516
        },
        {
          "name": "B4",
          "midi": 71,
          "time": 109.99989000000112,
          "velocity": 0.25984251968503935,
          "duration": 0.16666650000000516
        },
        {
          "name": "C#3",
          "midi": 49,
          "time": 110.16655650000112,
          "velocity": 0.25984251968503935,
          "duration": 0.16666650000000516
        },
        {
          "name": "D5",
          "midi": 74,
          "time": 110.16655650000112,
          "velocity": 0.25984251968503935,
          "duration": 0.3333330000000103
        },
        {
          "name": "D5",
          "midi": 74,
          "time": 110.16655650000112,
          "velocity": 0.25984251968503935,
          "duration": 0.3333330000000103
        },
        {
          "name": "C#2",
          "midi": 37,
          "time": 110.33322300000113,
          "velocity": 0.25984251968503935,
          "duration": 0.16666650000000516
        },
        {
          "name": "C#3",
          "midi": 49,
          "time": 110.49988950000113,
          "velocity": 0.25984251968503935,
          "duration": 0.16666650000000516
        },
        {
          "name": "C#5",
          "midi": 73,
          "time": 110.49988950000113,
          "velocity": 0.25984251968503935,
          "duration": 0.3333330000000103
        },
        {
          "name": "C#5",
          "midi": 73,
          "time": 110.49988950000113,
          "velocity": 0.25984251968503935,
          "duration": 0.3333330000000103
        },
        {
          "name": "C#2",
          "midi": 37,
          "time": 110.66655600000114,
          "velocity": 0.25984251968503935,
          "duration": 0.16666650000000516
        },
        {
          "name": "C#2",
          "midi": 37,
          "time": 110.83322250000114,
          "velocity": 0.25984251968503935,
          "duration": 0.16666649999999095
        },
        {
          "name": "D5",
          "midi": 74,
          "time": 110.83322250000114,
          "velocity": 0.25984251968503935,
          "duration": 0.08333324999999547
        },
        {
          "name": "D5",
          "midi": 74,
          "time": 110.83322250000114,
          "velocity": 0.25984251968503935,
          "duration": 0.08333324999999547
        },
        {
          "name": "C#5",
          "midi": 73,
          "time": 110.91655575000114,
          "velocity": 0.25984251968503935,
          "duration": 0.08333324999999547
        },
        {
          "name": "C#5",
          "midi": 73,
          "time": 110.91655575000114,
          "velocity": 0.25984251968503935,
          "duration": 0.08333324999999547
        },
        {
          "name": "C#3",
          "midi": 49,
          "time": 110.99988900000113,
          "velocity": 0.25984251968503935,
          "duration": 0.16666650000000516
        },
        {
          "name": "B4",
          "midi": 71,
          "time": 110.99988900000113,
          "velocity": 0.25984251968503935,
          "duration": 0.3333330000000103
        },
        {
          "name": "B4",
          "midi": 71,
          "time": 110.99988900000113,
          "velocity": 0.25984251968503935,
          "duration": 0.3333330000000103
        },
        {
          "name": "C#2",
          "midi": 37,
          "time": 111.16655550000114,
          "velocity": 0.25984251968503935,
          "duration": 0.16666650000000516
        },
        {
          "name": "C#2",
          "midi": 37,
          "time": 111.33322200000114,
          "velocity": 0.25984251968503935,
          "duration": 0.16666650000000516
        },
        {
          "name": "A4",
          "midi": 69,
          "time": 111.33322200000114,
          "velocity": 0.25984251968503935,
          "duration": 0.3333330000000103
        },
        {
          "name": "A4",
          "midi": 69,
          "time": 111.33322200000114,
          "velocity": 0.25984251968503935,
          "duration": 0.3333330000000103
        },
        {
          "name": "C#3",
          "midi": 49,
          "time": 111.49988850000115,
          "velocity": 0.25984251968503935,
          "duration": 0.16666650000000516
        },
        {
          "name": "C#2",
          "midi": 37,
          "time": 111.66655500000115,
          "velocity": 0.25984251968503935,
          "duration": 0.16666650000000516
        },
        {
          "name": "E4",
          "midi": 64,
          "time": 111.66655500000115,
          "velocity": 0.25984251968503935,
          "duration": 0.3333330000000103
        },
        {
          "name": "E4",
          "midi": 64,
          "time": 111.66655500000115,
          "velocity": 0.25984251968503935,
          "duration": 0.3333330000000103
        },
        {
          "name": "C#3",
          "midi": 49,
          "time": 111.83322150000116,
          "velocity": 0.25984251968503935,
          "duration": 0.16666650000000516
        },
        {
          "name": "D2",
          "midi": 38,
          "time": 111.99988800000116,
          "velocity": 0.25984251968503935,
          "duration": 0.16666650000000516
        },
        {
          "name": "E5",
          "midi": 76,
          "time": 111.99988800000116,
          "velocity": 0.25984251968503935,
          "duration": 0.3333330000000103
        },
        {
          "name": "E5",
          "midi": 76,
          "time": 111.99988800000116,
          "velocity": 0.25984251968503935,
          "duration": 0.3333330000000103
        },
        {
          "name": "D2",
          "midi": 38,
          "time": 112.16655450000117,
          "velocity": 0.25984251968503935,
          "duration": 0.16666650000000516
        },
        {
          "name": "D3",
          "midi": 50,
          "time": 112.33322100000117,
          "velocity": 0.25984251968503935,
          "duration": 0.16666650000000516
        },
        {
          "name": "A4",
          "midi": 69,
          "time": 112.33322100000117,
          "velocity": 0.25984251968503935,
          "duration": 0.3333330000000103
        },
        {
          "name": "A4",
          "midi": 69,
          "time": 112.33322100000117,
          "velocity": 0.25984251968503935,
          "duration": 0.3333330000000103
        },
        {
          "name": "D2",
          "midi": 38,
          "time": 112.49988750000118,
          "velocity": 0.25984251968503935,
          "duration": 0.16666650000000516
        },
        {
          "name": "D2",
          "midi": 38,
          "time": 112.66655400000118,
          "velocity": 0.25984251968503935,
          "duration": 0.16666650000000516
        },
        {
          "name": "B4",
          "midi": 71,
          "time": 112.66655400000118,
          "velocity": 0.25984251968503935,
          "duration": 0.3333330000000103
        },
        {
          "name": "B4",
          "midi": 71,
          "time": 112.66655400000118,
          "velocity": 0.25984251968503935,
          "duration": 0.3333330000000103
        },
        {
          "name": "D3",
          "midi": 50,
          "time": 112.83322050000119,
          "velocity": 0.25984251968503935,
          "duration": 0.16666650000000516
        },
        {
          "name": "D2",
          "midi": 38,
          "time": 112.9998870000012,
          "velocity": 0.25984251968503935,
          "duration": 0.16666650000000516
        },
        {
          "name": "A4",
          "midi": 69,
          "time": 112.9998870000012,
          "velocity": 0.25984251968503935,
          "duration": 0.3333330000000103
        },
        {
          "name": "A4",
          "midi": 69,
          "time": 112.9998870000012,
          "velocity": 0.25984251968503935,
          "duration": 0.3333330000000103
        },
        {
          "name": "D3",
          "midi": 50,
          "time": 113.1665535000012,
          "velocity": 0.25984251968503935,
          "duration": 0.16666650000000516
        },
        {
          "name": "D2",
          "midi": 38,
          "time": 113.3332200000012,
          "velocity": 0.25984251968503935,
          "duration": 0.16666650000000516
        },
        {
          "name": "E4",
          "midi": 64,
          "time": 113.3332200000012,
          "velocity": 0.25984251968503935,
          "duration": 0.16666650000000516
        },
        {
          "name": "E4",
          "midi": 64,
          "time": 113.3332200000012,
          "velocity": 0.25984251968503935,
          "duration": 0.16666650000000516
        },
        {
          "name": "D2",
          "midi": 38,
          "time": 113.49988650000121,
          "velocity": 0.25984251968503935,
          "duration": 0.16666650000000516
        },
        {
          "name": "A4",
          "midi": 69,
          "time": 113.49988650000121,
          "velocity": 0.25984251968503935,
          "duration": 0.3333330000000103
        },
        {
          "name": "A4",
          "midi": 69,
          "time": 113.49988650000121,
          "velocity": 0.25984251968503935,
          "duration": 0.3333330000000103
        },
        {
          "name": "D3",
          "midi": 50,
          "time": 113.66655300000122,
          "velocity": 0.25984251968503935,
          "duration": 0.16666650000000516
        },
        {
          "name": "D2",
          "midi": 38,
          "time": 113.83321950000122,
          "velocity": 0.25984251968503935,
          "duration": 0.16666650000000516
        },
        {
          "name": "B4",
          "midi": 71,
          "time": 113.83321950000122,
          "velocity": 0.25984251968503935,
          "duration": 0.3333330000000103
        },
        {
          "name": "B4",
          "midi": 71,
          "time": 113.83321950000122,
          "velocity": 0.25984251968503935,
          "duration": 0.3333330000000103
        },
        {
          "name": "D2",
          "midi": 38,
          "time": 113.99988600000123,
          "velocity": 0.25984251968503935,
          "duration": 0.16666650000000516
        },
        {
          "name": "D3",
          "midi": 50,
          "time": 114.16655250000123,
          "velocity": 0.25984251968503935,
          "duration": 0.16666649999999095
        },
        {
          "name": "C#5",
          "midi": 73,
          "time": 114.16655250000123,
          "velocity": 0.25984251968503935,
          "duration": 0.08333324999999547
        },
        {
          "name": "C#5",
          "midi": 73,
          "time": 114.16655250000123,
          "velocity": 0.25984251968503935,
          "duration": 0.08333324999999547
        },
        {
          "name": "B4",
          "midi": 71,
          "time": 114.24988575000123,
          "velocity": 0.25984251968503935,
          "duration": 0.08333324999999547
        },
        {
          "name": "B4",
          "midi": 71,
          "time": 114.24988575000123,
          "velocity": 0.25984251968503935,
          "duration": 0.08333324999999547
        },
        {
          "name": "D2",
          "midi": 38,
          "time": 114.33321900000122,
          "velocity": 0.25984251968503935,
          "duration": 0.16666650000000516
        },
        {
          "name": "A4",
          "midi": 69,
          "time": 114.33321900000122,
          "velocity": 0.25984251968503935,
          "duration": 0.3333330000000103
        },
        {
          "name": "A4",
          "midi": 69,
          "time": 114.33321900000122,
          "velocity": 0.25984251968503935,
          "duration": 0.3333330000000103
        },
        {
          "name": "D3",
          "midi": 50,
          "time": 114.49988550000123,
          "velocity": 0.25984251968503935,
          "duration": 0.16666650000000516
        },
        {
          "name": "E2",
          "midi": 40,
          "time": 114.66655200000123,
          "velocity": 0.25984251968503935,
          "duration": 0.16666650000000516
        },
        {
          "name": "E5",
          "midi": 76,
          "time": 114.66655200000123,
          "velocity": 0.25984251968503935,
          "duration": 0.3333330000000103
        },
        {
          "name": "E5",
          "midi": 76,
          "time": 114.66655200000123,
          "velocity": 0.25984251968503935,
          "duration": 0.3333330000000103
        },
        {
          "name": "E2",
          "midi": 40,
          "time": 114.83321850000124,
          "velocity": 0.25984251968503935,
          "duration": 0.16666650000000516
        },
        {
          "name": "E3",
          "midi": 52,
          "time": 114.99988500000124,
          "velocity": 0.25984251968503935,
          "duration": 0.16666650000000516
        },
        {
          "name": "A4",
          "midi": 69,
          "time": 114.99988500000124,
          "velocity": 0.25984251968503935,
          "duration": 0.3333330000000103
        },
        {
          "name": "A4",
          "midi": 69,
          "time": 114.99988500000124,
          "velocity": 0.25984251968503935,
          "duration": 0.3333330000000103
        },
        {
          "name": "E2",
          "midi": 40,
          "time": 115.16655150000125,
          "velocity": 0.25984251968503935,
          "duration": 0.16666650000000516
        },
        {
          "name": "E2",
          "midi": 40,
          "time": 115.33321800000125,
          "velocity": 0.25984251968503935,
          "duration": 0.16666650000000516
        },
        {
          "name": "A5",
          "midi": 81,
          "time": 115.33321800000125,
          "velocity": 0.25984251968503935,
          "duration": 0.16666650000000516
        },
        {
          "name": "A5",
          "midi": 81,
          "time": 115.33321800000125,
          "velocity": 0.25984251968503935,
          "duration": 0.16666650000000516
        },
        {
          "name": "E3",
          "midi": 52,
          "time": 115.49988450000126,
          "velocity": 0.25984251968503935,
          "duration": 0.16666650000000516
        },
        {
          "name": "G#5",
          "midi": 80,
          "time": 115.49988450000126,
          "velocity": 0.25984251968503935,
          "duration": 0.3333330000000103
        },
        {
          "name": "G#5",
          "midi": 80,
          "time": 115.49988450000126,
          "velocity": 0.25984251968503935,
          "duration": 0.3333330000000103
        },
        {
          "name": "E2",
          "midi": 40,
          "time": 115.66655100000126,
          "velocity": 0.25984251968503935,
          "duration": 0.16666650000000516
        },
        {
          "name": "E3",
          "midi": 52,
          "time": 115.83321750000127,
          "velocity": 0.25984251968503935,
          "duration": 0.16666650000000516
        },
        {
          "name": "E5",
          "midi": 76,
          "time": 115.83321750000127,
          "velocity": 0.25984251968503935,
          "duration": 0.3333330000000103
        },
        {
          "name": "E5",
          "midi": 76,
          "time": 115.83321750000127,
          "velocity": 0.25984251968503935,
          "duration": 0.3333330000000103
        },
        {
          "name": "F#2",
          "midi": 42,
          "time": 115.99988400000127,
          "velocity": 0.25984251968503935,
          "duration": 0.16666650000000516
        },
        {
          "name": "F#2",
          "midi": 42,
          "time": 116.16655050000128,
          "velocity": 0.25984251968503935,
          "duration": 0.16666650000000516
        },
        {
          "name": "C#5",
          "midi": 73,
          "time": 116.16655050000128,
          "velocity": 0.25984251968503935,
          "duration": 0.16666650000000516
        },
        {
          "name": "C#5",
          "midi": 73,
          "time": 116.16655050000128,
          "velocity": 0.25984251968503935,
          "duration": 0.16666650000000516
        },
        {
          "name": "F#3",
          "midi": 54,
          "time": 116.33321700000128,
          "velocity": 0.25984251968503935,
          "duration": 0.16666650000000516
        },
        {
          "name": "B4",
          "midi": 71,
          "time": 116.33321700000128,
          "velocity": 0.25984251968503935,
          "duration": 0.16666650000000516
        },
        {
          "name": "B4",
          "midi": 71,
          "time": 116.33321700000128,
          "velocity": 0.25984251968503935,
          "duration": 0.16666650000000516
        },
        {
          "name": "F#2",
          "midi": 42,
          "time": 116.49988350000129,
          "velocity": 0.25984251968503935,
          "duration": 0.16666650000000516
        },
        {
          "name": "A4",
          "midi": 69,
          "time": 116.49988350000129,
          "velocity": 0.25984251968503935,
          "duration": 0.3333330000000103
        },
        {
          "name": "A4",
          "midi": 69,
          "time": 116.49988350000129,
          "velocity": 0.25984251968503935,
          "duration": 0.3333330000000103
        },
        {
          "name": "F#2",
          "midi": 42,
          "time": 116.6665500000013,
          "velocity": 0.25984251968503935,
          "duration": 0.16666650000000516
        },
        {
          "name": "F#3",
          "midi": 54,
          "time": 116.8332165000013,
          "velocity": 0.25984251968503935,
          "duration": 0.16666650000000516
        },
        {
          "name": "B4",
          "midi": 71,
          "time": 116.8332165000013,
          "velocity": 0.25984251968503935,
          "duration": 0.16666650000000516
        },
        {
          "name": "B4",
          "midi": 71,
          "time": 116.8332165000013,
          "velocity": 0.25984251968503935,
          "duration": 0.16666650000000516
        },
        {
          "name": "F#2",
          "midi": 42,
          "time": 116.9998830000013,
          "velocity": 0.25984251968503935,
          "duration": 0.16666650000000516
        },
        {
          "name": "A4",
          "midi": 69,
          "time": 116.9998830000013,
          "velocity": 0.25984251968503935,
          "duration": 0.16666650000000516
        },
        {
          "name": "A4",
          "midi": 69,
          "time": 116.9998830000013,
          "velocity": 0.25984251968503935,
          "duration": 0.16666650000000516
        },
        {
          "name": "F#3",
          "midi": 54,
          "time": 117.16654950000131,
          "velocity": 0.25984251968503935,
          "duration": 0.16666650000000516
        },
        {
          "name": "E4",
          "midi": 64,
          "time": 117.16654950000131,
          "velocity": 0.25984251968503935,
          "duration": 0.16666650000000516
        },
        {
          "name": "E4",
          "midi": 64,
          "time": 117.16654950000131,
          "velocity": 0.25984251968503935,
          "duration": 0.16666650000000516
        },
        {
          "name": "G#3",
          "midi": 56,
          "time": 117.33321600000131,
          "velocity": 0.25984251968503935,
          "duration": 1.4999984999999896
        },
        {
          "name": "E3",
          "midi": 52,
          "time": 117.33321600000131,
          "velocity": 0.25984251968503935,
          "duration": 1.4999984999999896
        },
        {
          "name": "C#3",
          "midi": 49,
          "time": 117.33321600000131,
          "velocity": 0.25984251968503935,
          "duration": 1.4999984999999896
        },
        {
          "name": "G#4",
          "midi": 68,
          "time": 117.66654900000131,
          "velocity": 0.25984251968503935,
          "duration": 0.3333329999999961
        },
        {
          "name": "E5",
          "midi": 76,
          "time": 117.66654900000131,
          "velocity": 0.25984251968503935,
          "duration": 0.3333329999999961
        },
        {
          "name": "E5",
          "midi": 76,
          "time": 117.9998820000013,
          "velocity": 0.25984251968503935,
          "duration": 0.16666650000000516
        },
        {
          "name": "G#4",
          "midi": 68,
          "time": 117.9998820000013,
          "velocity": 0.25984251968503935,
          "duration": 0.16666650000000516
        },
        {
          "name": "E5",
          "midi": 76,
          "time": 118.16654850000131,
          "velocity": 0.25984251968503935,
          "duration": 0.3333329999999961
        },
        {
          "name": "G#4",
          "midi": 68,
          "time": 118.16654850000131,
          "velocity": 0.25984251968503935,
          "duration": 0.3333329999999961
        },
        {
          "name": "E5",
          "midi": 76,
          "time": 118.49988150000131,
          "velocity": 0.25984251968503935,
          "duration": 0.3333329999999961
        },
        {
          "name": "G#4",
          "midi": 68,
          "time": 118.49988150000131,
          "velocity": 0.25984251968503935,
          "duration": 0.3333329999999961
        },
        {
          "name": "E5",
          "midi": 76,
          "time": 118.8332145000013,
          "velocity": 0.25984251968503935,
          "duration": 0.16666650000000516
        },
        {
          "name": "G#4",
          "midi": 68,
          "time": 118.8332145000013,
          "velocity": 0.25984251968503935,
          "duration": 0.16666650000000516
        },
        {
          "name": "D5",
          "midi": 74,
          "time": 118.99988100000131,
          "velocity": 0.25984251968503935,
          "duration": 0.3333329999999961
        },
        {
          "name": "F#4",
          "midi": 66,
          "time": 118.99988100000131,
          "velocity": 0.25984251968503935,
          "duration": 0.3333329999999961
        },
        {
          "name": "C#5",
          "midi": 73,
          "time": 119.3332140000013,
          "velocity": 0.25984251968503935,
          "duration": 0.3333329999999961
        },
        {
          "name": "E4",
          "midi": 64,
          "time": 119.3332140000013,
          "velocity": 0.25984251968503935,
          "duration": 0.3333329999999961
        },
        {
          "name": "D5",
          "midi": 74,
          "time": 119.6665470000013,
          "velocity": 0.25984251968503935,
          "duration": 0.3333329999999961
        },
        {
          "name": "F#4",
          "midi": 66,
          "time": 119.6665470000013,
          "velocity": 0.25984251968503935,
          "duration": 0.3333329999999961
        },
        {
          "name": "E5",
          "midi": 76,
          "time": 119.9998800000013,
          "velocity": 0.25984251968503935,
          "duration": 0.6666660000000064
        },
        {
          "name": "A4",
          "midi": 69,
          "time": 119.9998800000013,
          "velocity": 0.25984251968503935,
          "duration": 0.6666660000000064
        },
        {
          "name": "A3",
          "midi": 57,
          "time": 119.9998800000013,
          "velocity": 0.25984251968503935,
          "duration": 1.4999985000000038
        },
        {
          "name": "F#3",
          "midi": 54,
          "time": 119.9998800000013,
          "velocity": 0.25984251968503935,
          "duration": 1.4999985000000038
        },
        {
          "name": "D3",
          "midi": 50,
          "time": 119.9998800000013,
          "velocity": 0.25984251968503935,
          "duration": 1.4999985000000038
        },
        {
          "name": "A5",
          "midi": 81,
          "time": 120.6665460000013,
          "velocity": 0.25984251968503935,
          "duration": 0.49999950000000126
        },
        {
          "name": "C#5",
          "midi": 73,
          "time": 120.6665460000013,
          "velocity": 0.25984251968503935,
          "duration": 0.49999950000000126
        },
        {
          "name": "E5",
          "midi": 76,
          "time": 121.1665455000013,
          "velocity": 0.25984251968503935,
          "duration": 1.4999984999999896
        },
        {
          "name": "A4",
          "midi": 69,
          "time": 121.1665455000013,
          "velocity": 0.25984251968503935,
          "duration": 1.4999984999999896
        },
        {
          "name": "B4",
          "midi": 71,
          "time": 121.9998780000013,
          "velocity": 0.25984251968503935,
          "duration": 0.3333329999999961
        },
        {
          "name": "C#5",
          "midi": 73,
          "time": 122.3332110000013,
          "velocity": 0.25984251968503935,
          "duration": 0.3333329999999961
        },
        {
          "name": "G#3",
          "midi": 56,
          "time": 122.6665440000013,
          "velocity": 0.25984251968503935,
          "duration": 1.4999984999999896
        },
        {
          "name": "E3",
          "midi": 52,
          "time": 122.6665440000013,
          "velocity": 0.25984251968503935,
          "duration": 1.4999984999999896
        },
        {
          "name": "C#3",
          "midi": 49,
          "time": 122.6665440000013,
          "velocity": 0.25984251968503935,
          "duration": 1.4999984999999896
        },
        {
          "name": "E4",
          "midi": 64,
          "time": 122.6665440000013,
          "velocity": 0.25984251968503935,
          "duration": 1.4999984999999896
        },
        {
          "name": "G#4",
          "midi": 68,
          "time": 122.99987700000129,
          "velocity": 0.25984251968503935,
          "duration": 0.3333329999999961
        },
        {
          "name": "E5",
          "midi": 76,
          "time": 122.99987700000129,
          "velocity": 0.25984251968503935,
          "duration": 0.3333329999999961
        },
        {
          "name": "E5",
          "midi": 76,
          "time": 123.33321000000129,
          "velocity": 0.25984251968503935,
          "duration": 0.16666650000000516
        },
        {
          "name": "G#4",
          "midi": 68,
          "time": 123.33321000000129,
          "velocity": 0.25984251968503935,
          "duration": 0.16666650000000516
        },
        {
          "name": "E5",
          "midi": 76,
          "time": 123.49987650000129,
          "velocity": 0.25984251968503935,
          "duration": 0.3333329999999961
        },
        {
          "name": "G#4",
          "midi": 68,
          "time": 123.49987650000129,
          "velocity": 0.25984251968503935,
          "duration": 0.3333329999999961
        },
        {
          "name": "E5",
          "midi": 76,
          "time": 123.83320950000129,
          "velocity": 0.25984251968503935,
          "duration": 0.3333329999999961
        },
        {
          "name": "G#4",
          "midi": 68,
          "time": 123.83320950000129,
          "velocity": 0.25984251968503935,
          "duration": 0.3333329999999961
        },
        {
          "name": "E5",
          "midi": 76,
          "time": 124.16654250000128,
          "velocity": 0.25984251968503935,
          "duration": 0.16666650000000516
        },
        {
          "name": "G#4",
          "midi": 68,
          "time": 124.16654250000128,
          "velocity": 0.25984251968503935,
          "duration": 0.16666650000000516
        },
        {
          "name": "D5",
          "midi": 74,
          "time": 124.33320900000129,
          "velocity": 0.25984251968503935,
          "duration": 0.3333329999999961
        },
        {
          "name": "F#4",
          "midi": 66,
          "time": 124.33320900000129,
          "velocity": 0.25984251968503935,
          "duration": 0.3333329999999961
        },
        {
          "name": "C#5",
          "midi": 73,
          "time": 124.66654200000129,
          "velocity": 0.25984251968503935,
          "duration": 0.3333329999999961
        },
        {
          "name": "E4",
          "midi": 64,
          "time": 124.66654200000129,
          "velocity": 0.25984251968503935,
          "duration": 0.3333329999999961
        },
        {
          "name": "D5",
          "midi": 74,
          "time": 124.99987500000128,
          "velocity": 0.25984251968503935,
          "duration": 0.3333329999999961
        },
        {
          "name": "F#4",
          "midi": 66,
          "time": 124.99987500000128,
          "velocity": 0.25984251968503935,
          "duration": 0.3333329999999961
        },
        {
          "name": "E5",
          "midi": 76,
          "time": 125.33320800000128,
          "velocity": 0.25984251968503935,
          "duration": 0.3333329999999961
        },
        {
          "name": "G#4",
          "midi": 68,
          "time": 125.33320800000128,
          "velocity": 0.25984251968503935,
          "duration": 0.3333329999999961
        },
        {
          "name": "B3",
          "midi": 59,
          "time": 125.33320800000128,
          "velocity": 0.25984251968503935,
          "duration": 0.9999989999999883
        },
        {
          "name": "G#3",
          "midi": 56,
          "time": 125.33320800000128,
          "velocity": 0.25984251968503935,
          "duration": 0.9999989999999883
        },
        {
          "name": "E3",
          "midi": 52,
          "time": 125.33320800000128,
          "velocity": 0.25984251968503935,
          "duration": 0.9999989999999883
        },
        {
          "name": "B5",
          "midi": 83,
          "time": 125.66654100000127,
          "velocity": 0.25984251968503935,
          "duration": 0.3333329999999961
        },
        {
          "name": "E4",
          "midi": 64,
          "time": 125.66654100000127,
          "velocity": 0.25984251968503935,
          "duration": 0.3333329999999961
        },
        {
          "name": "G#5",
          "midi": 80,
          "time": 125.99987400000127,
          "velocity": 0.25984251968503935,
          "duration": 0.3333329999999961
        },
        {
          "name": "C#4",
          "midi": 61,
          "time": 125.99987400000127,
          "velocity": 0.25984251968503935,
          "duration": 0.3333329999999961
        },
        {
          "name": "A5",
          "midi": 81,
          "time": 126.33320700000127,
          "velocity": 0.25984251968503935,
          "duration": 1.6666649999999947
        },
        {
          "name": "F#4",
          "midi": 66,
          "time": 126.33320700000127,
          "velocity": 0.25984251968503935,
          "duration": 0.6666660000000064
        },
        {
          "name": "C#4",
          "midi": 61,
          "time": 126.33320700000127,
          "velocity": 0.25984251968503935,
          "duration": 0.6666660000000064
        },
        {
          "name": "A#3",
          "midi": 58,
          "time": 126.33320700000127,
          "velocity": 0.25984251968503935,
          "duration": 0.6666660000000064
        },
        {
          "name": "F#3",
          "midi": 54,
          "time": 126.33320700000127,
          "velocity": 0.25984251968503935,
          "duration": 0.6666660000000064
        },
        {
          "name": "C#4",
          "midi": 61,
          "time": 126.99987300000127,
          "velocity": 0.25984251968503935,
          "duration": 0.3333329999999961
        },
        {
          "name": "B3",
          "midi": 59,
          "time": 127.33320600000127,
          "velocity": 0.25984251968503935,
          "duration": 0.3333329999999961
        },
        {
          "name": "A3",
          "midi": 57,
          "time": 127.66653900000126,
          "velocity": 0.25984251968503935,
          "duration": 0.3333329999999961
        },
        {
          "name": "C#2",
          "midi": 37,
          "time": 127.99987200000126,
          "velocity": 0.25984251968503935,
          "duration": 0.16666649999999095
        },
        {
          "name": "C#2",
          "midi": 37,
          "time": 128.16653850000125,
          "velocity": 0.25984251968503935,
          "duration": 0.16666649999999095
        },
        {
          "name": "G#3",
          "midi": 56,
          "time": 128.33320500000124,
          "velocity": 0.25984251968503935,
          "duration": 0.3333329999999819
        },
        {
          "name": "E4",
          "midi": 64,
          "time": 128.33320500000124,
          "velocity": 0.25984251968503935,
          "duration": 0.3333329999999819
        },
        {
          "name": "C#3",
          "midi": 49,
          "time": 128.33320500000124,
          "velocity": 0.25984251968503935,
          "duration": 0.16666649999999095
        },
        {
          "name": "G#3",
          "midi": 56,
          "time": 128.33320500000124,
          "velocity": 0.25984251968503935,
          "duration": 0.3333329999999819
        },
        {
          "name": "E4",
          "midi": 64,
          "time": 128.33320500000124,
          "velocity": 0.25984251968503935,
          "duration": 0.3333329999999819
        },
        {
          "name": "C#2",
          "midi": 37,
          "time": 128.49987150000123,
          "velocity": 0.25984251968503935,
          "duration": 0.16666649999999095
        },
        {
          "name": "E4",
          "midi": 64,
          "time": 128.66653800000122,
          "velocity": 0.25984251968503935,
          "duration": 0.16666649999999095
        },
        {
          "name": "G#3",
          "midi": 56,
          "time": 128.66653800000122,
          "velocity": 0.25984251968503935,
          "duration": 0.16666649999999095
        },
        {
          "name": "C#2",
          "midi": 37,
          "time": 128.66653800000122,
          "velocity": 0.25984251968503935,
          "duration": 0.16666649999999095
        },
        {
          "name": "E4",
          "midi": 64,
          "time": 128.66653800000122,
          "velocity": 0.25984251968503935,
          "duration": 0.16666649999999095
        },
        {
          "name": "G#3",
          "midi": 56,
          "time": 128.66653800000122,
          "velocity": 0.25984251968503935,
          "duration": 0.16666649999999095
        },
        {
          "name": "E4",
          "midi": 64,
          "time": 128.83320450000122,
          "velocity": 0.25984251968503935,
          "duration": 0.3333329999999819
        },
        {
          "name": "G#3",
          "midi": 56,
          "time": 128.83320450000122,
          "velocity": 0.25984251968503935,
          "duration": 0.3333329999999819
        },
        {
          "name": "C#3",
          "midi": 49,
          "time": 128.83320450000122,
          "velocity": 0.25984251968503935,
          "duration": 0.16666649999999095
        },
        {
          "name": "E4",
          "midi": 64,
          "time": 128.83320450000122,
          "velocity": 0.25984251968503935,
          "duration": 0.3333329999999819
        },
        {
          "name": "G#3",
          "midi": 56,
          "time": 128.83320450000122,
          "velocity": 0.25984251968503935,
          "duration": 0.3333329999999819
        },
        {
          "name": "C#2",
          "midi": 37,
          "time": 128.9998710000012,
          "velocity": 0.25984251968503935,
          "duration": 0.16666649999999095
        },
        {
          "name": "E4",
          "midi": 64,
          "time": 129.1665375000012,
          "velocity": 0.25984251968503935,
          "duration": 0.3333329999999819
        },
        {
          "name": "G#3",
          "midi": 56,
          "time": 129.1665375000012,
          "velocity": 0.25984251968503935,
          "duration": 0.3333329999999819
        },
        {
          "name": "C#3",
          "midi": 49,
          "time": 129.1665375000012,
          "velocity": 0.25984251968503935,
          "duration": 0.16666649999999095
        },
        {
          "name": "E4",
          "midi": 64,
          "time": 129.1665375000012,
          "velocity": 0.25984251968503935,
          "duration": 0.3333329999999819
        },
        {
          "name": "G#3",
          "midi": 56,
          "time": 129.1665375000012,
          "velocity": 0.25984251968503935,
          "duration": 0.3333329999999819
        },
        {
          "name": "C#2",
          "midi": 37,
          "time": 129.3332040000012,
          "velocity": 0.25984251968503935,
          "duration": 0.16666649999999095
        },
        {
          "name": "E4",
          "midi": 64,
          "time": 129.49987050000118,
          "velocity": 0.25984251968503935,
          "duration": 0.16666649999999095
        },
        {
          "name": "G#3",
          "midi": 56,
          "time": 129.49987050000118,
          "velocity": 0.25984251968503935,
          "duration": 0.16666649999999095
        },
        {
          "name": "C#2",
          "midi": 37,
          "time": 129.49987050000118,
          "velocity": 0.25984251968503935,
          "duration": 0.16666649999999095
        },
        {
          "name": "E4",
          "midi": 64,
          "time": 129.49987050000118,
          "velocity": 0.25984251968503935,
          "duration": 0.16666649999999095
        },
        {
          "name": "G#3",
          "midi": 56,
          "time": 129.49987050000118,
          "velocity": 0.25984251968503935,
          "duration": 0.16666649999999095
        },
        {
          "name": "D4",
          "midi": 62,
          "time": 129.66653700000117,
          "velocity": 0.25984251968503935,
          "duration": 0.3333329999999819
        },
        {
          "name": "F#3",
          "midi": 54,
          "time": 129.66653700000117,
          "velocity": 0.25984251968503935,
          "duration": 0.3333329999999819
        },
        {
          "name": "C#3",
          "midi": 49,
          "time": 129.66653700000117,
          "velocity": 0.25984251968503935,
          "duration": 0.16666649999999095
        },
        {
          "name": "D4",
          "midi": 62,
          "time": 129.66653700000117,
          "velocity": 0.25984251968503935,
          "duration": 0.3333329999999819
        },
        {
          "name": "F#3",
          "midi": 54,
          "time": 129.66653700000117,
          "velocity": 0.25984251968503935,
          "duration": 0.3333329999999819
        },
        {
          "name": "C#2",
          "midi": 37,
          "time": 129.83320350000116,
          "velocity": 0.25984251968503935,
          "duration": 0.16666649999999095
        },
        {
          "name": "C#4",
          "midi": 61,
          "time": 129.99987000000115,
          "velocity": 0.25984251968503935,
          "duration": 0.3333329999999819
        },
        {
          "name": "E3",
          "midi": 52,
          "time": 129.99987000000115,
          "velocity": 0.25984251968503935,
          "duration": 0.3333329999999819
        },
        {
          "name": "C#2",
          "midi": 37,
          "time": 129.99987000000115,
          "velocity": 0.25984251968503935,
          "duration": 0.16666649999999095
        },
        {
          "name": "C#4",
          "midi": 61,
          "time": 129.99987000000115,
          "velocity": 0.25984251968503935,
          "duration": 0.3333329999999819
        },
        {
          "name": "E3",
          "midi": 52,
          "time": 129.99987000000115,
          "velocity": 0.25984251968503935,
          "duration": 0.3333329999999819
        },
        {
          "name": "C#3",
          "midi": 49,
          "time": 130.16653650000114,
          "velocity": 0.25984251968503935,
          "duration": 0.16666649999999095
        },
        {
          "name": "D4",
          "midi": 62,
          "time": 130.33320300000113,
          "velocity": 0.25984251968503935,
          "duration": 0.3333329999999819
        },
        {
          "name": "F#3",
          "midi": 54,
          "time": 130.33320300000113,
          "velocity": 0.25984251968503935,
          "duration": 0.3333329999999819
        },
        {
          "name": "C#2",
          "midi": 37,
          "time": 130.33320300000113,
          "velocity": 0.25984251968503935,
          "duration": 0.16666649999999095
        },
        {
          "name": "D4",
          "midi": 62,
          "time": 130.33320300000113,
          "velocity": 0.25984251968503935,
          "duration": 0.3333329999999819
        },
        {
          "name": "F#3",
          "midi": 54,
          "time": 130.33320300000113,
          "velocity": 0.25984251968503935,
          "duration": 0.3333329999999819
        },
        {
          "name": "C#3",
          "midi": 49,
          "time": 130.49986950000113,
          "velocity": 0.25984251968503935,
          "duration": 0.16666649999999095
        },
        {
          "name": "D2",
          "midi": 38,
          "time": 130.66653600000112,
          "velocity": 0.25984251968503935,
          "duration": 0.16666649999999095
        },
        {
          "name": "E4",
          "midi": 64,
          "time": 130.66653600000112,
          "velocity": 0.25984251968503935,
          "duration": 0.6666659999999638
        },
        {
          "name": "A3",
          "midi": 57,
          "time": 130.66653600000112,
          "velocity": 0.25984251968503935,
          "duration": 0.6666659999999638
        },
        {
          "name": "E4",
          "midi": 64,
          "time": 130.66653600000112,
          "velocity": 0.25984251968503935,
          "duration": 0.6666659999999638
        },
        {
          "name": "A3",
          "midi": 57,
          "time": 130.66653600000112,
          "velocity": 0.25984251968503935,
          "duration": 0.6666659999999638
        },
        {
          "name": "D2",
          "midi": 38,
          "time": 130.8332025000011,
          "velocity": 0.25984251968503935,
          "duration": 0.16666649999999095
        },
        {
          "name": "D3",
          "midi": 50,
          "time": 130.9998690000011,
          "velocity": 0.25984251968503935,
          "duration": 0.16666649999999095
        },
        {
          "name": "D2",
          "midi": 38,
          "time": 131.1665355000011,
          "velocity": 0.25984251968503935,
          "duration": 0.16666649999999095
        },
        {
          "name": "D2",
          "midi": 38,
          "time": 131.33320200000108,
          "velocity": 0.25984251968503935,
          "duration": 0.16666649999999095
        },
        {
          "name": "A4",
          "midi": 69,
          "time": 131.33320200000108,
          "velocity": 0.25984251968503935,
          "duration": 0.49999949999997284
        },
        {
          "name": "C#4",
          "midi": 61,
          "time": 131.33320200000108,
          "velocity": 0.25984251968503935,
          "duration": 0.49999949999997284
        },
        {
          "name": "A4",
          "midi": 69,
          "time": 131.33320200000108,
          "velocity": 0.25984251968503935,
          "duration": 0.49999949999997284
        },
        {
          "name": "C#4",
          "midi": 61,
          "time": 131.33320200000108,
          "velocity": 0.25984251968503935,
          "duration": 0.49999949999997284
        },
        {
          "name": "D3",
          "midi": 50,
          "time": 131.49986850000107,
          "velocity": 0.25984251968503935,
          "duration": 0.16666649999999095
        },
        {
          "name": "D2",
          "midi": 38,
          "time": 131.66653500000106,
          "velocity": 0.25984251968503935,
          "duration": 0.16666649999999095
        },
        {
          "name": "D3",
          "midi": 50,
          "time": 131.83320150000105,
          "velocity": 0.25984251968503935,
          "duration": 0.16666649999999095
        },
        {
          "name": "E4",
          "midi": 64,
          "time": 131.83320150000105,
          "velocity": 0.25984251968503935,
          "duration": 1.3333319999999276
        },
        {
          "name": "A3",
          "midi": 57,
          "time": 131.83320150000105,
          "velocity": 0.25984251968503935,
          "duration": 0.3333329999999819
        },
        {
          "name": "E4",
          "midi": 64,
          "time": 131.83320150000105,
          "velocity": 0.25984251968503935,
          "duration": 1.3333319999999276
        },
        {
          "name": "A3",
          "midi": 57,
          "time": 131.83320150000105,
          "velocity": 0.25984251968503935,
          "duration": 0.3333329999999819
        },
        {
          "name": "D2",
          "midi": 38,
          "time": 131.99986800000104,
          "velocity": 0.25984251968503935,
          "duration": 0.16666649999999095
        },
        {
          "name": "D2",
          "midi": 38,
          "time": 132.16653450000103,
          "velocity": 0.25984251968503935,
          "duration": 0.16666649999999095
        },
        {
          "name": "D3",
          "midi": 50,
          "time": 132.33320100000103,
          "velocity": 0.25984251968503935,
          "duration": 0.16666649999999095
        },
        {
          "name": "D2",
          "midi": 38,
          "time": 132.49986750000102,
          "velocity": 0.25984251968503935,
          "duration": 0.16666649999999095
        },
        {
          "name": "D2",
          "midi": 38,
          "time": 132.666534000001,
          "velocity": 0.25984251968503935,
          "duration": 0.16666649999999095
        },
        {
          "name": "B3",
          "midi": 59,
          "time": 132.666534000001,
          "velocity": 0.25984251968503935,
          "duration": 0.3333329999999819
        },
        {
          "name": "B3",
          "midi": 59,
          "time": 132.666534000001,
          "velocity": 0.25984251968503935,
          "duration": 0.3333329999999819
        },
        {
          "name": "D3",
          "midi": 50,
          "time": 132.833200500001,
          "velocity": 0.25984251968503935,
          "duration": 0.16666649999999095
        },
        {
          "name": "D2",
          "midi": 38,
          "time": 132.999867000001,
          "velocity": 0.25984251968503935,
          "duration": 0.16666649999999095
        },
        {
          "name": "C#4",
          "midi": 61,
          "time": 132.999867000001,
          "velocity": 0.25984251968503935,
          "duration": 0.3333329999999819
        },
        {
          "name": "C#4",
          "midi": 61,
          "time": 132.999867000001,
          "velocity": 0.25984251968503935,
          "duration": 0.3333329999999819
        },
        {
          "name": "D3",
          "midi": 50,
          "time": 133.16653350000098,
          "velocity": 0.25984251968503935,
          "duration": 0.16666649999999095
        },
        {
          "name": "E3",
          "midi": 52,
          "time": 133.33320000000097,
          "velocity": 0.25984251968503935,
          "duration": 1.4999984999999185
        },
        {
          "name": "C#2",
          "midi": 37,
          "time": 133.33320000000097,
          "velocity": 0.25984251968503935,
          "duration": 0.16666649999999095
        },
        {
          "name": "E3",
          "midi": 52,
          "time": 133.33320000000097,
          "velocity": 0.25984251968503935,
          "duration": 1.4999984999999185
        },
        {
          "name": "C#2",
          "midi": 37,
          "time": 133.49986650000096,
          "velocity": 0.25984251968503935,
          "duration": 0.16666649999999095
        },
        {
          "name": "G#3",
          "midi": 56,
          "time": 133.66653300000095,
          "velocity": 0.25984251968503935,
          "duration": 0.3333329999999819
        },
        {
          "name": "E4",
          "midi": 64,
          "time": 133.66653300000095,
          "velocity": 0.25984251968503935,
          "duration": 0.3333329999999819
        },
        {
          "name": "C#3",
          "midi": 49,
          "time": 133.66653300000095,
          "velocity": 0.25984251968503935,
          "duration": 0.16666649999999095
        },
        {
          "name": "G#3",
          "midi": 56,
          "time": 133.66653300000095,
          "velocity": 0.25984251968503935,
          "duration": 0.3333329999999819
        },
        {
          "name": "E4",
          "midi": 64,
          "time": 133.66653300000095,
          "velocity": 0.25984251968503935,
          "duration": 0.3333329999999819
        },
        {
          "name": "C#2",
          "midi": 37,
          "time": 133.83319950000094,
          "velocity": 0.25984251968503935,
          "duration": 0.16666649999999095
        },
        {
          "name": "E4",
          "midi": 64,
          "time": 133.99986600000094,
          "velocity": 0.25984251968503935,
          "duration": 0.16666649999999095
        },
        {
          "name": "G#3",
          "midi": 56,
          "time": 133.99986600000094,
          "velocity": 0.25984251968503935,
          "duration": 0.16666649999999095
        },
        {
          "name": "C#2",
          "midi": 37,
          "time": 133.99986600000094,
          "velocity": 0.25984251968503935,
          "duration": 0.16666649999999095
        },
        {
          "name": "E4",
          "midi": 64,
          "time": 133.99986600000094,
          "velocity": 0.25984251968503935,
          "duration": 0.16666649999999095
        },
        {
          "name": "G#3",
          "midi": 56,
          "time": 133.99986600000094,
          "velocity": 0.25984251968503935,
          "duration": 0.16666649999999095
        },
        {
          "name": "E4",
          "midi": 64,
          "time": 134.16653250000093,
          "velocity": 0.25984251968503935,
          "duration": 0.3333329999999819
        },
        {
          "name": "G#3",
          "midi": 56,
          "time": 134.16653250000093,
          "velocity": 0.25984251968503935,
          "duration": 0.3333329999999819
        },
        {
          "name": "C#3",
          "midi": 49,
          "time": 134.16653250000093,
          "velocity": 0.25984251968503935,
          "duration": 0.16666649999999095
        },
        {
          "name": "E4",
          "midi": 64,
          "time": 134.16653250000093,
          "velocity": 0.25984251968503935,
          "duration": 0.3333329999999819
        },
        {
          "name": "G#3",
          "midi": 56,
          "time": 134.16653250000093,
          "velocity": 0.25984251968503935,
          "duration": 0.3333329999999819
        },
        {
          "name": "C#2",
          "midi": 37,
          "time": 134.33319900000092,
          "velocity": 0.25984251968503935,
          "duration": 0.16666649999999095
        },
        {
          "name": "E4",
          "midi": 64,
          "time": 134.4998655000009,
          "velocity": 0.25984251968503935,
          "duration": 0.3333329999999819
        },
        {
          "name": "G#3",
          "midi": 56,
          "time": 134.4998655000009,
          "velocity": 0.25984251968503935,
          "duration": 0.3333329999999819
        },
        {
          "name": "C#3",
          "midi": 49,
          "time": 134.4998655000009,
          "velocity": 0.25984251968503935,
          "duration": 0.16666649999999095
        },
        {
          "name": "E4",
          "midi": 64,
          "time": 134.4998655000009,
          "velocity": 0.25984251968503935,
          "duration": 0.3333329999999819
        },
        {
          "name": "G#3",
          "midi": 56,
          "time": 134.4998655000009,
          "velocity": 0.25984251968503935,
          "duration": 0.3333329999999819
        },
        {
          "name": "C#2",
          "midi": 37,
          "time": 134.6665320000009,
          "velocity": 0.25984251968503935,
          "duration": 0.16666649999999095
        },
        {
          "name": "E4",
          "midi": 64,
          "time": 134.8331985000009,
          "velocity": 0.25984251968503935,
          "duration": 0.16666649999999095
        },
        {
          "name": "G#3",
          "midi": 56,
          "time": 134.8331985000009,
          "velocity": 0.25984251968503935,
          "duration": 0.16666649999999095
        },
        {
          "name": "C#2",
          "midi": 37,
          "time": 134.8331985000009,
          "velocity": 0.25984251968503935,
          "duration": 0.16666649999999095
        },
        {
          "name": "E4",
          "midi": 64,
          "time": 134.8331985000009,
          "velocity": 0.25984251968503935,
          "duration": 0.16666649999999095
        },
        {
          "name": "G#3",
          "midi": 56,
          "time": 134.8331985000009,
          "velocity": 0.25984251968503935,
          "duration": 0.16666649999999095
        },
        {
          "name": "D4",
          "midi": 62,
          "time": 134.99986500000088,
          "velocity": 0.25984251968503935,
          "duration": 0.3333329999999819
        },
        {
          "name": "F#3",
          "midi": 54,
          "time": 134.99986500000088,
          "velocity": 0.25984251968503935,
          "duration": 0.3333329999999819
        },
        {
          "name": "C#3",
          "midi": 49,
          "time": 134.99986500000088,
          "velocity": 0.25984251968503935,
          "duration": 0.16666649999999095
        },
        {
          "name": "D4",
          "midi": 62,
          "time": 134.99986500000088,
          "velocity": 0.25984251968503935,
          "duration": 0.3333329999999819
        },
        {
          "name": "F#3",
          "midi": 54,
          "time": 134.99986500000088,
          "velocity": 0.25984251968503935,
          "duration": 0.3333329999999819
        },
        {
          "name": "C#2",
          "midi": 37,
          "time": 135.16653150000087,
          "velocity": 0.25984251968503935,
          "duration": 0.16666649999999095
        },
        {
          "name": "C#4",
          "midi": 61,
          "time": 135.33319800000086,
          "velocity": 0.25984251968503935,
          "duration": 0.3333329999999819
        },
        {
          "name": "E3",
          "midi": 52,
          "time": 135.33319800000086,
          "velocity": 0.25984251968503935,
          "duration": 0.3333329999999819
        },
        {
          "name": "C#2",
          "midi": 37,
          "time": 135.33319800000086,
          "velocity": 0.25984251968503935,
          "duration": 0.16666649999999095
        },
        {
          "name": "C#4",
          "midi": 61,
          "time": 135.33319800000086,
          "velocity": 0.25984251968503935,
          "duration": 0.3333329999999819
        },
        {
          "name": "E3",
          "midi": 52,
          "time": 135.33319800000086,
          "velocity": 0.25984251968503935,
          "duration": 0.3333329999999819
        },
        {
          "name": "C#3",
          "midi": 49,
          "time": 135.49986450000085,
          "velocity": 0.25984251968503935,
          "duration": 0.16666649999999095
        },
        {
          "name": "D4",
          "midi": 62,
          "time": 135.66653100000084,
          "velocity": 0.25984251968503935,
          "duration": 0.3333329999999819
        },
        {
          "name": "F#3",
          "midi": 54,
          "time": 135.66653100000084,
          "velocity": 0.25984251968503935,
          "duration": 0.3333329999999819
        },
        {
          "name": "C#2",
          "midi": 37,
          "time": 135.66653100000084,
          "velocity": 0.25984251968503935,
          "duration": 0.16666649999999095
        },
        {
          "name": "D4",
          "midi": 62,
          "time": 135.66653100000084,
          "velocity": 0.25984251968503935,
          "duration": 0.3333329999999819
        },
        {
          "name": "F#3",
          "midi": 54,
          "time": 135.66653100000084,
          "velocity": 0.25984251968503935,
          "duration": 0.3333329999999819
        },
        {
          "name": "C#3",
          "midi": 49,
          "time": 135.83319750000084,
          "velocity": 0.25984251968503935,
          "duration": 0.16666649999999095
        },
        {
          "name": "E2",
          "midi": 40,
          "time": 135.99986400000083,
          "velocity": 0.25984251968503935,
          "duration": 0.16666649999999095
        },
        {
          "name": "E4",
          "midi": 64,
          "time": 135.99986400000083,
          "velocity": 0.25984251968503935,
          "duration": 0.3333329999999819
        },
        {
          "name": "B3",
          "midi": 59,
          "time": 135.99986400000083,
          "velocity": 0.25984251968503935,
          "duration": 0.3333329999999819
        },
        {
          "name": "E4",
          "midi": 64,
          "time": 135.99986400000083,
          "velocity": 0.25984251968503935,
          "duration": 0.3333329999999819
        },
        {
          "name": "B3",
          "midi": 59,
          "time": 135.99986400000083,
          "velocity": 0.25984251968503935,
          "duration": 0.3333329999999819
        },
        {
          "name": "E2",
          "midi": 40,
          "time": 136.16653050000082,
          "velocity": 0.25984251968503935,
          "duration": 0.16666649999999095
        },
        {
          "name": "E3",
          "midi": 52,
          "time": 136.3331970000008,
          "velocity": 0.25984251968503935,
          "duration": 0.16666649999999095
        },
        {
          "name": "A4",
          "midi": 69,
          "time": 136.3331970000008,
          "velocity": 0.25984251968503935,
          "duration": 0.3333329999999819
        },
        {
          "name": "C#4",
          "midi": 61,
          "time": 136.3331970000008,
          "velocity": 0.25984251968503935,
          "duration": 0.3333329999999819
        },
        {
          "name": "A4",
          "midi": 69,
          "time": 136.3331970000008,
          "velocity": 0.25984251968503935,
          "duration": 0.3333329999999819
        },
        {
          "name": "C#4",
          "midi": 61,
          "time": 136.3331970000008,
          "velocity": 0.25984251968503935,
          "duration": 0.3333329999999819
        },
        {
          "name": "E2",
          "midi": 40,
          "time": 136.4998635000008,
          "velocity": 0.25984251968503935,
          "duration": 0.16666649999999095
        },
        {
          "name": "E2",
          "midi": 40,
          "time": 136.6665300000008,
          "velocity": 0.25984251968503935,
          "duration": 0.16666649999999095
        },
        {
          "name": "G#4",
          "midi": 68,
          "time": 136.6665300000008,
          "velocity": 0.25984251968503935,
          "duration": 0.3333329999999819
        },
        {
          "name": "B3",
          "midi": 59,
          "time": 136.6665300000008,
          "velocity": 0.25984251968503935,
          "duration": 0.3333329999999819
        },
        {
          "name": "G#4",
          "midi": 68,
          "time": 136.6665300000008,
          "velocity": 0.25984251968503935,
          "duration": 0.3333329999999819
        },
        {
          "name": "B3",
          "midi": 59,
          "time": 136.6665300000008,
          "velocity": 0.25984251968503935,
          "duration": 0.3333329999999819
        },
        {
          "name": "E3",
          "midi": 52,
          "time": 136.83319650000078,
          "velocity": 0.25984251968503935,
          "duration": 0.16666649999999095
        },
        {
          "name": "E2",
          "midi": 40,
          "time": 136.99986300000077,
          "velocity": 0.25984251968503935,
          "duration": 0.16666649999999095
        },
        {
          "name": "A4",
          "midi": 69,
          "time": 136.99986300000077,
          "velocity": 0.25984251968503935,
          "duration": 1.6666649999999095
        },
        {
          "name": "A3",
          "midi": 57,
          "time": 136.99986300000077,
          "velocity": 0.25984251968503935,
          "duration": 1.6666649999999095
        },
        {
          "name": "F#4",
          "midi": 66,
          "time": 136.99986300000077,
          "velocity": 0.25984251968503935,
          "duration": 1.6666649999999095
        },
        {
          "name": "A4",
          "midi": 69,
          "time": 136.99986300000077,
          "velocity": 0.25984251968503935,
          "duration": 1.6666649999999095
        },
        {
          "name": "A3",
          "midi": 57,
          "time": 136.99986300000077,
          "velocity": 0.25984251968503935,
          "duration": 1.6666649999999095
        },
        {
          "name": "F#4",
          "midi": 66,
          "time": 136.99986300000077,
          "velocity": 0.25984251968503935,
          "duration": 1.6666649999999095
        },
        {
          "name": "E3",
          "midi": 52,
          "time": 137.16652950000076,
          "velocity": 0.25984251968503935,
          "duration": 0.16666649999999095
        },
        {
          "name": "F#2",
          "midi": 42,
          "time": 137.33319600000075,
          "velocity": 0.25984251968503935,
          "duration": 0.16666649999999095
        },
        {
          "name": "F#2",
          "midi": 42,
          "time": 137.49986250000075,
          "velocity": 0.25984251968503935,
          "duration": 0.16666649999999095
        },
        {
          "name": "F#3",
          "midi": 54,
          "time": 137.66652900000074,
          "velocity": 0.25984251968503935,
          "duration": 0.16666649999999095
        },
        {
          "name": "F#2",
          "midi": 42,
          "time": 137.83319550000073,
          "velocity": 0.25984251968503935,
          "duration": 0.16666649999999095
        },
        {
          "name": "F#2",
          "midi": 42,
          "time": 137.99986200000072,
          "velocity": 0.25984251968503935,
          "duration": 0.16666649999999095
        },
        {
          "name": "F#3",
          "midi": 54,
          "time": 138.1665285000007,
          "velocity": 0.25984251968503935,
          "duration": 0.16666649999999095
        },
        {
          "name": "F#2",
          "midi": 42,
          "time": 138.3331950000007,
          "velocity": 0.25984251968503935,
          "duration": 0.16666649999999095
        },
        {
          "name": "F#3",
          "midi": 54,
          "time": 138.4998615000007,
          "velocity": 0.25984251968503935,
          "duration": 0.16666649999999095
        },
        {
          "name": "C#2",
          "midi": 37,
          "time": 138.66652800000068,
          "velocity": 0.25984251968503935,
          "duration": 0.16666649999999095
        },
        {
          "name": "C#2",
          "midi": 37,
          "time": 138.83319450000067,
          "velocity": 0.25984251968503935,
          "duration": 0.16666649999999095
        },
        {
          "name": "G#3",
          "midi": 56,
          "time": 138.99986100000066,
          "velocity": 0.25984251968503935,
          "duration": 0.3333329999999819
        },
        {
          "name": "E4",
          "midi": 64,
          "time": 138.99986100000066,
          "velocity": 0.25984251968503935,
          "duration": 0.3333329999999819
        },
        {
          "name": "C#3",
          "midi": 49,
          "time": 138.99986100000066,
          "velocity": 0.25984251968503935,
          "duration": 0.16666649999999095
        },
        {
          "name": "G#3",
          "midi": 56,
          "time": 138.99986100000066,
          "velocity": 0.25984251968503935,
          "duration": 0.3333329999999819
        },
        {
          "name": "E4",
          "midi": 64,
          "time": 138.99986100000066,
          "velocity": 0.25984251968503935,
          "duration": 0.3333329999999819
        },
        {
          "name": "C#2",
          "midi": 37,
          "time": 139.16652750000065,
          "velocity": 0.25984251968503935,
          "duration": 0.16666649999999095
        },
        {
          "name": "E4",
          "midi": 64,
          "time": 139.33319400000065,
          "velocity": 0.25984251968503935,
          "duration": 0.16666649999999095
        },
        {
          "name": "G#3",
          "midi": 56,
          "time": 139.33319400000065,
          "velocity": 0.25984251968503935,
          "duration": 0.16666649999999095
        },
        {
          "name": "C#2",
          "midi": 37,
          "time": 139.33319400000065,
          "velocity": 0.25984251968503935,
          "duration": 0.16666649999999095
        },
        {
          "name": "E4",
          "midi": 64,
          "time": 139.33319400000065,
          "velocity": 0.25984251968503935,
          "duration": 0.16666649999999095
        },
        {
          "name": "G#3",
          "midi": 56,
          "time": 139.33319400000065,
          "velocity": 0.25984251968503935,
          "duration": 0.16666649999999095
        },
        {
          "name": "E4",
          "midi": 64,
          "time": 139.49986050000064,
          "velocity": 0.25984251968503935,
          "duration": 0.3333329999999819
        },
        {
          "name": "G#3",
          "midi": 56,
          "time": 139.49986050000064,
          "velocity": 0.25984251968503935,
          "duration": 0.3333329999999819
        },
        {
          "name": "C#3",
          "midi": 49,
          "time": 139.49986050000064,
          "velocity": 0.25984251968503935,
          "duration": 0.16666649999999095
        },
        {
          "name": "E4",
          "midi": 64,
          "time": 139.49986050000064,
          "velocity": 0.25984251968503935,
          "duration": 0.3333329999999819
        },
        {
          "name": "G#3",
          "midi": 56,
          "time": 139.49986050000064,
          "velocity": 0.25984251968503935,
          "duration": 0.3333329999999819
        },
        {
          "name": "C#2",
          "midi": 37,
          "time": 139.66652700000063,
          "velocity": 0.25984251968503935,
          "duration": 0.16666649999999095
        },
        {
          "name": "E4",
          "midi": 64,
          "time": 139.83319350000062,
          "velocity": 0.25984251968503935,
          "duration": 0.3333329999999819
        },
        {
          "name": "G#3",
          "midi": 56,
          "time": 139.83319350000062,
          "velocity": 0.25984251968503935,
          "duration": 0.3333329999999819
        },
        {
          "name": "C#3",
          "midi": 49,
          "time": 139.83319350000062,
          "velocity": 0.25984251968503935,
          "duration": 0.16666649999999095
        },
        {
          "name": "E4",
          "midi": 64,
          "time": 139.83319350000062,
          "velocity": 0.25984251968503935,
          "duration": 0.3333329999999819
        },
        {
          "name": "G#3",
          "midi": 56,
          "time": 139.83319350000062,
          "velocity": 0.25984251968503935,
          "duration": 0.3333329999999819
        },
        {
          "name": "C#2",
          "midi": 37,
          "time": 139.9998600000006,
          "velocity": 0.25984251968503935,
          "duration": 0.16666649999999095
        },
        {
          "name": "E4",
          "midi": 64,
          "time": 140.1665265000006,
          "velocity": 0.25984251968503935,
          "duration": 0.16666649999999095
        },
        {
          "name": "G#3",
          "midi": 56,
          "time": 140.1665265000006,
          "velocity": 0.25984251968503935,
          "duration": 0.16666649999999095
        },
        {
          "name": "C#2",
          "midi": 37,
          "time": 140.1665265000006,
          "velocity": 0.25984251968503935,
          "duration": 0.16666649999999095
        },
        {
          "name": "E4",
          "midi": 64,
          "time": 140.1665265000006,
          "velocity": 0.25984251968503935,
          "duration": 0.16666649999999095
        },
        {
          "name": "G#3",
          "midi": 56,
          "time": 140.1665265000006,
          "velocity": 0.25984251968503935,
          "duration": 0.16666649999999095
        },
        {
          "name": "D4",
          "midi": 62,
          "time": 140.3331930000006,
          "velocity": 0.25984251968503935,
          "duration": 0.3333329999999819
        },
        {
          "name": "F#3",
          "midi": 54,
          "time": 140.3331930000006,
          "velocity": 0.25984251968503935,
          "duration": 0.3333329999999819
        },
        {
          "name": "C#3",
          "midi": 49,
          "time": 140.3331930000006,
          "velocity": 0.25984251968503935,
          "duration": 0.16666649999999095
        },
        {
          "name": "D4",
          "midi": 62,
          "time": 140.3331930000006,
          "velocity": 0.25984251968503935,
          "duration": 0.3333329999999819
        },
        {
          "name": "F#3",
          "midi": 54,
          "time": 140.3331930000006,
          "velocity": 0.25984251968503935,
          "duration": 0.3333329999999819
        },
        {
          "name": "C#2",
          "midi": 37,
          "time": 140.49985950000058,
          "velocity": 0.25984251968503935,
          "duration": 0.16666649999999095
        },
        {
          "name": "C#4",
          "midi": 61,
          "time": 140.66652600000057,
          "velocity": 0.25984251968503935,
          "duration": 0.3333329999999819
        },
        {
          "name": "E3",
          "midi": 52,
          "time": 140.66652600000057,
          "velocity": 0.25984251968503935,
          "duration": 0.3333329999999819
        },
        {
          "name": "C#2",
          "midi": 37,
          "time": 140.66652600000057,
          "velocity": 0.25984251968503935,
          "duration": 0.16666649999999095
        },
        {
          "name": "C#4",
          "midi": 61,
          "time": 140.66652600000057,
          "velocity": 0.25984251968503935,
          "duration": 0.3333329999999819
        },
        {
          "name": "E3",
          "midi": 52,
          "time": 140.66652600000057,
          "velocity": 0.25984251968503935,
          "duration": 0.3333329999999819
        },
        {
          "name": "C#3",
          "midi": 49,
          "time": 140.83319250000056,
          "velocity": 0.25984251968503935,
          "duration": 0.16666649999999095
        },
        {
          "name": "D4",
          "midi": 62,
          "time": 140.99985900000055,
          "velocity": 0.25984251968503935,
          "duration": 0.3333329999999819
        },
        {
          "name": "F#3",
          "midi": 54,
          "time": 140.99985900000055,
          "velocity": 0.25984251968503935,
          "duration": 0.3333329999999819
        },
        {
          "name": "C#2",
          "midi": 37,
          "time": 140.99985900000055,
          "velocity": 0.25984251968503935,
          "duration": 0.16666649999999095
        },
        {
          "name": "D4",
          "midi": 62,
          "time": 140.99985900000055,
          "velocity": 0.25984251968503935,
          "duration": 0.3333329999999819
        },
        {
          "name": "F#3",
          "midi": 54,
          "time": 140.99985900000055,
          "velocity": 0.25984251968503935,
          "duration": 0.3333329999999819
        },
        {
          "name": "C#3",
          "midi": 49,
          "time": 141.16652550000055,
          "velocity": 0.25984251968503935,
          "duration": 0.16666649999999095
        },
        {
          "name": "D2",
          "midi": 38,
          "time": 141.33319200000054,
          "velocity": 0.25984251968503935,
          "duration": 0.16666649999999095
        },
        {
          "name": "E4",
          "midi": 64,
          "time": 141.33319200000054,
          "velocity": 0.25984251968503935,
          "duration": 0.6666659999999638
        },
        {
          "name": "A3",
          "midi": 57,
          "time": 141.33319200000054,
          "velocity": 0.25984251968503935,
          "duration": 0.6666659999999638
        },
        {
          "name": "E4",
          "midi": 64,
          "time": 141.33319200000054,
          "velocity": 0.25984251968503935,
          "duration": 0.6666659999999638
        },
        {
          "name": "A3",
          "midi": 57,
          "time": 141.33319200000054,
          "velocity": 0.25984251968503935,
          "duration": 0.6666659999999638
        },
        {
          "name": "D2",
          "midi": 38,
          "time": 141.49985850000053,
          "velocity": 0.25984251968503935,
          "duration": 0.16666649999999095
        },
        {
          "name": "D3",
          "midi": 50,
          "time": 141.66652500000052,
          "velocity": 0.25984251968503935,
          "duration": 0.16666649999999095
        },
        {
          "name": "D2",
          "midi": 38,
          "time": 141.8331915000005,
          "velocity": 0.25984251968503935,
          "duration": 0.16666649999999095
        },
        {
          "name": "D2",
          "midi": 38,
          "time": 141.9998580000005,
          "velocity": 0.25984251968503935,
          "duration": 0.16666649999999095
        },
        {
          "name": "A4",
          "midi": 69,
          "time": 141.9998580000005,
          "velocity": 0.25984251968503935,
          "duration": 0.49999949999997284
        },
        {
          "name": "C#4",
          "midi": 61,
          "time": 141.9998580000005,
          "velocity": 0.25984251968503935,
          "duration": 0.49999949999997284
        },
        {
          "name": "A4",
          "midi": 69,
          "time": 141.9998580000005,
          "velocity": 0.25984251968503935,
          "duration": 0.49999949999997284
        },
        {
          "name": "C#4",
          "midi": 61,
          "time": 141.9998580000005,
          "velocity": 0.25984251968503935,
          "duration": 0.49999949999997284
        },
        {
          "name": "D3",
          "midi": 50,
          "time": 142.1665245000005,
          "velocity": 0.25984251968503935,
          "duration": 0.16666649999999095
        },
        {
          "name": "D2",
          "midi": 38,
          "time": 142.33319100000048,
          "velocity": 0.25984251968503935,
          "duration": 0.16666649999999095
        },
        {
          "name": "D3",
          "midi": 50,
          "time": 142.49985750000047,
          "velocity": 0.25984251968503935,
          "duration": 0.16666649999999095
        },
        {
          "name": "E4",
          "midi": 64,
          "time": 142.49985750000047,
          "velocity": 0.25984251968503935,
          "duration": 1.3333319999999276
        },
        {
          "name": "A3",
          "midi": 57,
          "time": 142.49985750000047,
          "velocity": 0.25984251968503935,
          "duration": 0.3333329999999819
        },
        {
          "name": "E4",
          "midi": 64,
          "time": 142.49985750000047,
          "velocity": 0.25984251968503935,
          "duration": 1.3333319999999276
        },
        {
          "name": "A3",
          "midi": 57,
          "time": 142.49985750000047,
          "velocity": 0.25984251968503935,
          "duration": 0.3333329999999819
        },
        {
          "name": "D2",
          "midi": 38,
          "time": 142.66652400000046,
          "velocity": 0.25984251968503935,
          "duration": 0.16666649999999095
        },
        {
          "name": "D2",
          "midi": 38,
          "time": 142.83319050000046,
          "velocity": 0.25984251968503935,
          "duration": 0.16666649999999095
        },
        {
          "name": "D3",
          "midi": 50,
          "time": 142.99985700000045,
          "velocity": 0.25984251968503935,
          "duration": 0.16666649999999095
        },
        {
          "name": "D2",
          "midi": 38,
          "time": 143.16652350000044,
          "velocity": 0.25984251968503935,
          "duration": 0.16666649999999095
        },
        {
          "name": "D2",
          "midi": 38,
          "time": 143.33319000000043,
          "velocity": 0.25984251968503935,
          "duration": 0.16666649999999095
        },
        {
          "name": "B3",
          "midi": 59,
          "time": 143.33319000000043,
          "velocity": 0.25984251968503935,
          "duration": 0.3333329999999819
        },
        {
          "name": "B3",
          "midi": 59,
          "time": 143.33319000000043,
          "velocity": 0.25984251968503935,
          "duration": 0.3333329999999819
        },
        {
          "name": "D3",
          "midi": 50,
          "time": 143.49985650000042,
          "velocity": 0.25984251968503935,
          "duration": 0.16666649999999095
        },
        {
          "name": "D2",
          "midi": 38,
          "time": 143.6665230000004,
          "velocity": 0.25984251968503935,
          "duration": 0.16666649999999095
        },
        {
          "name": "C#4",
          "midi": 61,
          "time": 143.6665230000004,
          "velocity": 0.25984251968503935,
          "duration": 0.3333329999999819
        },
        {
          "name": "C#4",
          "midi": 61,
          "time": 143.6665230000004,
          "velocity": 0.25984251968503935,
          "duration": 0.3333329999999819
        },
        {
          "name": "D3",
          "midi": 50,
          "time": 143.8331895000004,
          "velocity": 0.25984251968503935,
          "duration": 0.16666649999999095
        },
        {
          "name": "E3",
          "midi": 52,
          "time": 143.9998560000004,
          "velocity": 0.25984251968503935,
          "duration": 1.4999984999999185
        },
        {
          "name": "C#2",
          "midi": 37,
          "time": 143.9998560000004,
          "velocity": 0.25984251968503935,
          "duration": 0.16666649999999095
        },
        {
          "name": "E3",
          "midi": 52,
          "time": 143.9998560000004,
          "velocity": 0.25984251968503935,
          "duration": 1.4999984999999185
        },
        {
          "name": "C#2",
          "midi": 37,
          "time": 144.16652250000038,
          "velocity": 0.25984251968503935,
          "duration": 0.16666649999999095
        },
        {
          "name": "G#3",
          "midi": 56,
          "time": 144.33318900000037,
          "velocity": 0.25984251968503935,
          "duration": 0.3333329999999819
        },
        {
          "name": "E4",
          "midi": 64,
          "time": 144.33318900000037,
          "velocity": 0.25984251968503935,
          "duration": 0.3333329999999819
        },
        {
          "name": "C#3",
          "midi": 49,
          "time": 144.33318900000037,
          "velocity": 0.25984251968503935,
          "duration": 0.16666649999999095
        },
        {
          "name": "G#3",
          "midi": 56,
          "time": 144.33318900000037,
          "velocity": 0.25984251968503935,
          "duration": 0.3333329999999819
        },
        {
          "name": "E4",
          "midi": 64,
          "time": 144.33318900000037,
          "velocity": 0.25984251968503935,
          "duration": 0.3333329999999819
        },
        {
          "name": "C#2",
          "midi": 37,
          "time": 144.49985550000036,
          "velocity": 0.25984251968503935,
          "duration": 0.16666649999999095
        },
        {
          "name": "E4",
          "midi": 64,
          "time": 144.66652200000036,
          "velocity": 0.25984251968503935,
          "duration": 0.16666649999999095
        },
        {
          "name": "G#3",
          "midi": 56,
          "time": 144.66652200000036,
          "velocity": 0.25984251968503935,
          "duration": 0.16666649999999095
        },
        {
          "name": "C#2",
          "midi": 37,
          "time": 144.66652200000036,
          "velocity": 0.25984251968503935,
          "duration": 0.16666649999999095
        },
        {
          "name": "E4",
          "midi": 64,
          "time": 144.66652200000036,
          "velocity": 0.25984251968503935,
          "duration": 0.16666649999999095
        },
        {
          "name": "G#3",
          "midi": 56,
          "time": 144.66652200000036,
          "velocity": 0.25984251968503935,
          "duration": 0.16666649999999095
        },
        {
          "name": "E4",
          "midi": 64,
          "time": 144.83318850000035,
          "velocity": 0.25984251968503935,
          "duration": 0.3333329999999819
        },
        {
          "name": "G#3",
          "midi": 56,
          "time": 144.83318850000035,
          "velocity": 0.25984251968503935,
          "duration": 0.3333329999999819
        },
        {
          "name": "C#3",
          "midi": 49,
          "time": 144.83318850000035,
          "velocity": 0.25984251968503935,
          "duration": 0.16666649999999095
        },
        {
          "name": "E4",
          "midi": 64,
          "time": 144.83318850000035,
          "velocity": 0.25984251968503935,
          "duration": 0.3333329999999819
        },
        {
          "name": "G#3",
          "midi": 56,
          "time": 144.83318850000035,
          "velocity": 0.25984251968503935,
          "duration": 0.3333329999999819
        },
        {
          "name": "C#2",
          "midi": 37,
          "time": 144.99985500000034,
          "velocity": 0.25984251968503935,
          "duration": 0.16666649999999095
        },
        {
          "name": "E4",
          "midi": 64,
          "time": 145.16652150000033,
          "velocity": 0.25984251968503935,
          "duration": 0.3333329999999819
        },
        {
          "name": "G#3",
          "midi": 56,
          "time": 145.16652150000033,
          "velocity": 0.25984251968503935,
          "duration": 0.3333329999999819
        },
        {
          "name": "C#3",
          "midi": 49,
          "time": 145.16652150000033,
          "velocity": 0.25984251968503935,
          "duration": 0.16666649999999095
        },
        {
          "name": "E4",
          "midi": 64,
          "time": 145.16652150000033,
          "velocity": 0.25984251968503935,
          "duration": 0.3333329999999819
        },
        {
          "name": "G#3",
          "midi": 56,
          "time": 145.16652150000033,
          "velocity": 0.25984251968503935,
          "duration": 0.3333329999999819
        },
        {
          "name": "C#2",
          "midi": 37,
          "time": 145.33318800000032,
          "velocity": 0.25984251968503935,
          "duration": 0.16666649999999095
        },
        {
          "name": "E4",
          "midi": 64,
          "time": 145.4998545000003,
          "velocity": 0.25984251968503935,
          "duration": 0.16666649999999095
        },
        {
          "name": "G#3",
          "midi": 56,
          "time": 145.4998545000003,
          "velocity": 0.25984251968503935,
          "duration": 0.16666649999999095
        },
        {
          "name": "C#2",
          "midi": 37,
          "time": 145.4998545000003,
          "velocity": 0.25984251968503935,
          "duration": 0.16666649999999095
        },
        {
          "name": "E4",
          "midi": 64,
          "time": 145.4998545000003,
          "velocity": 0.25984251968503935,
          "duration": 0.16666649999999095
        },
        {
          "name": "G#3",
          "midi": 56,
          "time": 145.4998545000003,
          "velocity": 0.25984251968503935,
          "duration": 0.16666649999999095
        },
        {
          "name": "D4",
          "midi": 62,
          "time": 145.6665210000003,
          "velocity": 0.25984251968503935,
          "duration": 0.3333329999999819
        },
        {
          "name": "F#3",
          "midi": 54,
          "time": 145.6665210000003,
          "velocity": 0.25984251968503935,
          "duration": 0.3333329999999819
        },
        {
          "name": "C#3",
          "midi": 49,
          "time": 145.6665210000003,
          "velocity": 0.25984251968503935,
          "duration": 0.16666649999999095
        },
        {
          "name": "D4",
          "midi": 62,
          "time": 145.6665210000003,
          "velocity": 0.25984251968503935,
          "duration": 0.3333329999999819
        },
        {
          "name": "F#3",
          "midi": 54,
          "time": 145.6665210000003,
          "velocity": 0.25984251968503935,
          "duration": 0.3333329999999819
        },
        {
          "name": "C#2",
          "midi": 37,
          "time": 145.8331875000003,
          "velocity": 0.25984251968503935,
          "duration": 0.16666649999999095
        },
        {
          "name": "C#4",
          "midi": 61,
          "time": 145.99985400000028,
          "velocity": 0.25984251968503935,
          "duration": 0.3333329999999819
        },
        {
          "name": "E3",
          "midi": 52,
          "time": 145.99985400000028,
          "velocity": 0.25984251968503935,
          "duration": 0.3333329999999819
        },
        {
          "name": "C#2",
          "midi": 37,
          "time": 145.99985400000028,
          "velocity": 0.25984251968503935,
          "duration": 0.16666649999999095
        },
        {
          "name": "C#4",
          "midi": 61,
          "time": 145.99985400000028,
          "velocity": 0.25984251968503935,
          "duration": 0.3333329999999819
        },
        {
          "name": "E3",
          "midi": 52,
          "time": 145.99985400000028,
          "velocity": 0.25984251968503935,
          "duration": 0.3333329999999819
        },
        {
          "name": "C#3",
          "midi": 49,
          "time": 146.16652050000027,
          "velocity": 0.25984251968503935,
          "duration": 0.16666649999999095
        },
        {
          "name": "D4",
          "midi": 62,
          "time": 146.33318700000027,
          "velocity": 0.25984251968503935,
          "duration": 0.3333329999999819
        },
        {
          "name": "F#3",
          "midi": 54,
          "time": 146.33318700000027,
          "velocity": 0.25984251968503935,
          "duration": 0.3333329999999819
        },
        {
          "name": "C#2",
          "midi": 37,
          "time": 146.33318700000027,
          "velocity": 0.25984251968503935,
          "duration": 0.16666649999999095
        },
        {
          "name": "D4",
          "midi": 62,
          "time": 146.33318700000027,
          "velocity": 0.25984251968503935,
          "duration": 0.3333329999999819
        },
        {
          "name": "F#3",
          "midi": 54,
          "time": 146.33318700000027,
          "velocity": 0.25984251968503935,
          "duration": 0.3333329999999819
        },
        {
          "name": "C#3",
          "midi": 49,
          "time": 146.49985350000026,
          "velocity": 0.25984251968503935,
          "duration": 0.16666649999999095
        },
        {
          "name": "E2",
          "midi": 40,
          "time": 146.66652000000025,
          "velocity": 0.25984251968503935,
          "duration": 0.16666649999999095
        },
        {
          "name": "E4",
          "midi": 64,
          "time": 146.66652000000025,
          "velocity": 0.25984251968503935,
          "duration": 0.3333329999999819
        },
        {
          "name": "B3",
          "midi": 59,
          "time": 146.66652000000025,
          "velocity": 0.25984251968503935,
          "duration": 0.3333329999999819
        },
        {
          "name": "E4",
          "midi": 64,
          "time": 146.66652000000025,
          "velocity": 0.25984251968503935,
          "duration": 0.3333329999999819
        },
        {
          "name": "B3",
          "midi": 59,
          "time": 146.66652000000025,
          "velocity": 0.25984251968503935,
          "duration": 0.3333329999999819
        },
        {
          "name": "E2",
          "midi": 40,
          "time": 146.83318650000024,
          "velocity": 0.25984251968503935,
          "duration": 0.16666649999999095
        },
        {
          "name": "E3",
          "midi": 52,
          "time": 146.99985300000023,
          "velocity": 0.25984251968503935,
          "duration": 0.16666649999999095
        },
        {
          "name": "A4",
          "midi": 69,
          "time": 146.99985300000023,
          "velocity": 0.25984251968503935,
          "duration": 0.3333329999999819
        },
        {
          "name": "C#4",
          "midi": 61,
          "time": 146.99985300000023,
          "velocity": 0.25984251968503935,
          "duration": 0.3333329999999819
        },
        {
          "name": "A4",
          "midi": 69,
          "time": 146.99985300000023,
          "velocity": 0.25984251968503935,
          "duration": 0.3333329999999819
        },
        {
          "name": "C#4",
          "midi": 61,
          "time": 146.99985300000023,
          "velocity": 0.25984251968503935,
          "duration": 0.3333329999999819
        },
        {
          "name": "E2",
          "midi": 40,
          "time": 147.16651950000022,
          "velocity": 0.25984251968503935,
          "duration": 0.16666649999999095
        },
        {
          "name": "E2",
          "midi": 40,
          "time": 147.3331860000002,
          "velocity": 0.25984251968503935,
          "duration": 0.16666649999999095
        },
        {
          "name": "G#4",
          "midi": 68,
          "time": 147.3331860000002,
          "velocity": 0.25984251968503935,
          "duration": 0.3333329999999819
        },
        {
          "name": "B3",
          "midi": 59,
          "time": 147.3331860000002,
          "velocity": 0.25984251968503935,
          "duration": 0.3333329999999819
        },
        {
          "name": "G#4",
          "midi": 68,
          "time": 147.3331860000002,
          "velocity": 0.25984251968503935,
          "duration": 0.3333329999999819
        },
        {
          "name": "B3",
          "midi": 59,
          "time": 147.3331860000002,
          "velocity": 0.25984251968503935,
          "duration": 0.3333329999999819
        },
        {
          "name": "E3",
          "midi": 52,
          "time": 147.4998525000002,
          "velocity": 0.25984251968503935,
          "duration": 0.16666649999999095
        },
        {
          "name": "E2",
          "midi": 40,
          "time": 147.6665190000002,
          "velocity": 0.25984251968503935,
          "duration": 0.16666649999999095
        },
        {
          "name": "A4",
          "midi": 69,
          "time": 147.6665190000002,
          "velocity": 0.25984251968503935,
          "duration": 1.6666649999999095
        },
        {
          "name": "A3",
          "midi": 57,
          "time": 147.6665190000002,
          "velocity": 0.25984251968503935,
          "duration": 1.6666649999999095
        },
        {
          "name": "F#4",
          "midi": 66,
          "time": 147.6665190000002,
          "velocity": 0.25984251968503935,
          "duration": 1.6666649999999095
        },
        {
          "name": "A4",
          "midi": 69,
          "time": 147.6665190000002,
          "velocity": 0.25984251968503935,
          "duration": 1.6666649999999095
        },
        {
          "name": "A3",
          "midi": 57,
          "time": 147.6665190000002,
          "velocity": 0.25984251968503935,
          "duration": 1.6666649999999095
        },
        {
          "name": "F#4",
          "midi": 66,
          "time": 147.6665190000002,
          "velocity": 0.25984251968503935,
          "duration": 1.6666649999999095
        },
        {
          "name": "E3",
          "midi": 52,
          "time": 147.83318550000018,
          "velocity": 0.25984251968503935,
          "duration": 0.16666649999999095
        },
        {
          "name": "F#2",
          "midi": 42,
          "time": 147.99985200000017,
          "velocity": 0.25984251968503935,
          "duration": 0.16666649999999095
        },
        {
          "name": "F#2",
          "midi": 42,
          "time": 148.16651850000017,
          "velocity": 0.25984251968503935,
          "duration": 0.16666649999999095
        },
        {
          "name": "F#3",
          "midi": 54,
          "time": 148.33318500000016,
          "velocity": 0.25984251968503935,
          "duration": 0.16666649999999095
        },
        {
          "name": "F#2",
          "midi": 42,
          "time": 148.49985150000015,
          "velocity": 0.25984251968503935,
          "duration": 0.16666649999999095
        },
        {
          "name": "F#2",
          "midi": 42,
          "time": 148.66651800000014,
          "velocity": 0.25984251968503935,
          "duration": 0.16666649999999095
        },
        {
          "name": "F#3",
          "midi": 54,
          "time": 148.83318450000013,
          "velocity": 0.25984251968503935,
          "duration": 0.16666649999999095
        },
        {
          "name": "F#2",
          "midi": 42,
          "time": 148.99985100000012,
          "velocity": 0.25984251968503935,
          "duration": 0.16666649999999095
        },
        {
          "name": "F#3",
          "midi": 54,
          "time": 149.1665175000001,
          "velocity": 0.25984251968503935,
          "duration": 0.16666649999999095
        },
        {
          "name": "C#4",
          "midi": 61,
          "time": 149.3331840000001,
          "velocity": 0.25984251968503935,
          "duration": 0.3333330000000103
        },
        {
          "name": "A3",
          "midi": 57,
          "time": 149.3331840000001,
          "velocity": 0.25984251968503935,
          "duration": 0.3333330000000103
        },
        {
          "name": "B1",
          "midi": 35,
          "time": 149.3331840000001,
          "velocity": 0.25984251968503935,
          "duration": 2.666664000000054
        },
        {
          "name": "C#4",
          "midi": 61,
          "time": 149.6665170000001,
          "velocity": 0.25984251968503935,
          "duration": 0.3333330000000103
        },
        {
          "name": "A3",
          "midi": 57,
          "time": 149.6665170000001,
          "velocity": 0.25984251968503935,
          "duration": 0.3333330000000103
        },
        {
          "name": "C#4",
          "midi": 61,
          "time": 149.99985000000012,
          "velocity": 0.25984251968503935,
          "duration": 0.16666649999999095
        },
        {
          "name": "A3",
          "midi": 57,
          "time": 149.99985000000012,
          "velocity": 0.25984251968503935,
          "duration": 0.16666649999999095
        },
        {
          "name": "C#4",
          "midi": 61,
          "time": 150.1665165000001,
          "velocity": 0.25984251968503935,
          "duration": 0.3333330000000103
        },
        {
          "name": "A3",
          "midi": 57,
          "time": 150.1665165000001,
          "velocity": 0.25984251968503935,
          "duration": 0.3333330000000103
        },
        {
          "name": "C#4",
          "midi": 61,
          "time": 150.49984950000012,
          "velocity": 0.25984251968503935,
          "duration": 0.3333330000000103
        },
        {
          "name": "A3",
          "midi": 57,
          "time": 150.49984950000012,
          "velocity": 0.25984251968503935,
          "duration": 0.3333330000000103
        },
        {
          "name": "C#4",
          "midi": 61,
          "time": 150.83318250000013,
          "velocity": 0.25984251968503935,
          "duration": 0.16666649999999095
        },
        {
          "name": "A3",
          "midi": 57,
          "time": 150.83318250000013,
          "velocity": 0.25984251968503935,
          "duration": 0.16666649999999095
        },
        {
          "name": "B3",
          "midi": 59,
          "time": 150.99984900000013,
          "velocity": 0.25984251968503935,
          "duration": 0.3333330000000103
        },
        {
          "name": "G#3",
          "midi": 56,
          "time": 150.99984900000013,
          "velocity": 0.25984251968503935,
          "duration": 0.3333330000000103
        },
        {
          "name": "A3",
          "midi": 57,
          "time": 151.33318200000014,
          "velocity": 0.25984251968503935,
          "duration": 0.3333330000000103
        },
        {
          "name": "F#3",
          "midi": 54,
          "time": 151.33318200000014,
          "velocity": 0.25984251968503935,
          "duration": 0.3333330000000103
        },
        {
          "name": "D3",
          "midi": 50,
          "time": 151.66651500000015,
          "velocity": 0.25984251968503935,
          "duration": 0.6666660000000206
        },
        {
          "name": "F#3",
          "midi": 54,
          "time": 151.66651500000015,
          "velocity": 0.25984251968503935,
          "duration": 0.6666660000000206
        },
        {
          "name": "C#2",
          "midi": 37,
          "time": 151.99984800000016,
          "velocity": 0.25984251968503935,
          "duration": 1.3333320000000128
        },
        {
          "name": "C#4",
          "midi": 61,
          "time": 152.33318100000017,
          "velocity": 0.25984251968503935,
          "duration": 0.3333330000000103
        },
        {
          "name": "G#3",
          "midi": 56,
          "time": 152.33318100000017,
          "velocity": 0.25984251968503935,
          "duration": 0.3333330000000103
        },
        {
          "name": "C#4",
          "midi": 61,
          "time": 152.66651400000018,
          "velocity": 0.25984251968503935,
          "duration": 0.16666649999999095
        },
        {
          "name": "G#3",
          "midi": 56,
          "time": 152.66651400000018,
          "velocity": 0.25984251968503935,
          "duration": 0.16666649999999095
        },
        {
          "name": "C#4",
          "midi": 61,
          "time": 152.83318050000017,
          "velocity": 0.25984251968503935,
          "duration": 0.3333330000000103
        },
        {
          "name": "G#3",
          "midi": 56,
          "time": 152.83318050000017,
          "velocity": 0.25984251968503935,
          "duration": 0.3333330000000103
        },
        {
          "name": "C#4",
          "midi": 61,
          "time": 153.16651350000018,
          "velocity": 0.25984251968503935,
          "duration": 0.3333329999999819
        },
        {
          "name": "G#3",
          "midi": 56,
          "time": 153.16651350000018,
          "velocity": 0.25984251968503935,
          "duration": 0.3333329999999819
        },
        {
          "name": "C#2",
          "midi": 37,
          "time": 153.33318000000017,
          "velocity": 0.25984251968503935,
          "duration": 0.16666649999999095
        },
        {
          "name": "C#4",
          "midi": 61,
          "time": 153.49984650000016,
          "velocity": 0.25984251968503935,
          "duration": 0.16666649999999095
        },
        {
          "name": "G#3",
          "midi": 56,
          "time": 153.49984650000016,
          "velocity": 0.25984251968503935,
          "duration": 0.16666649999999095
        },
        {
          "name": "C#2",
          "midi": 37,
          "time": 153.49984650000016,
          "velocity": 0.25984251968503935,
          "duration": 0.16666649999999095
        },
        {
          "name": "C#2",
          "midi": 37,
          "time": 153.66651300000015,
          "velocity": 0.25984251968503935,
          "duration": 0.3333330000000103
        },
        {
          "name": "B3",
          "midi": 59,
          "time": 153.66651300000015,
          "velocity": 0.25984251968503935,
          "duration": 0.3333330000000103
        },
        {
          "name": "F#3",
          "midi": 54,
          "time": 153.66651300000015,
          "velocity": 0.25984251968503935,
          "duration": 0.3333330000000103
        },
        {
          "name": "C#2",
          "midi": 37,
          "time": 153.99984600000016,
          "velocity": 0.25984251968503935,
          "duration": 0.16666649999999095
        },
        {
          "name": "C#4",
          "midi": 61,
          "time": 153.99984600000016,
          "velocity": 0.25984251968503935,
          "duration": 0.3333329999999819
        },
        {
          "name": "G#3",
          "midi": 56,
          "time": 153.99984600000016,
          "velocity": 0.25984251968503935,
          "duration": 0.3333329999999819
        },
        {
          "name": "C#2",
          "midi": 37,
          "time": 154.16651250000015,
          "velocity": 0.25984251968503935,
          "duration": 0.3333329999999819
        },
        {
          "name": "E4",
          "midi": 64,
          "time": 154.33317900000014,
          "velocity": 0.25984251968503935,
          "duration": 0.3333329999999819
        },
        {
          "name": "B3",
          "midi": 59,
          "time": 154.33317900000014,
          "velocity": 0.25984251968503935,
          "duration": 0.3333329999999819
        },
        {
          "name": "C#2",
          "midi": 37,
          "time": 154.49984550000013,
          "velocity": 0.25984251968503935,
          "duration": 0.16666649999999095
        },
        {
          "name": "F#4",
          "midi": 66,
          "time": 154.66651200000013,
          "velocity": 0.25984251968503935,
          "duration": 1.9999979999998914
        },
        {
          "name": "C#4",
          "midi": 61,
          "time": 154.66651200000013,
          "velocity": 0.25984251968503935,
          "duration": 1.9999979999998914
        },
        {
          "name": "A3",
          "midi": 57,
          "time": 154.66651200000013,
          "velocity": 0.25984251968503935,
          "duration": 1.9999979999998914
        },
        {
          "name": "D2",
          "midi": 38,
          "time": 154.66651200000013,
          "velocity": 0.25984251968503935,
          "duration": 0.16666649999999095
        },
        {
          "name": "D2",
          "midi": 38,
          "time": 154.83317850000012,
          "velocity": 0.25984251968503935,
          "duration": 0.16666649999999095
        },
        {
          "name": "D3",
          "midi": 50,
          "time": 154.9998450000001,
          "velocity": 0.25984251968503935,
          "duration": 0.16666649999999095
        },
        {
          "name": "D2",
          "midi": 38,
          "time": 155.1665115000001,
          "velocity": 0.25984251968503935,
          "duration": 0.16666649999999095
        },
        {
          "name": "D2",
          "midi": 38,
          "time": 155.3331780000001,
          "velocity": 0.25984251968503935,
          "duration": 0.16666649999999095
        },
        {
          "name": "D3",
          "midi": 50,
          "time": 155.49984450000008,
          "velocity": 0.25984251968503935,
          "duration": 0.16666649999999095
        },
        {
          "name": "D2",
          "midi": 38,
          "time": 155.66651100000007,
          "velocity": 0.25984251968503935,
          "duration": 0.16666649999999095
        },
        {
          "name": "D3",
          "midi": 50,
          "time": 155.83317750000006,
          "velocity": 0.25984251968503935,
          "duration": 0.16666649999999095
        },
        {
          "name": "D2",
          "midi": 38,
          "time": 155.99984400000005,
          "velocity": 0.25984251968503935,
          "duration": 0.16666649999999095
        },
        {
          "name": "D2",
          "midi": 38,
          "time": 156.16651050000004,
          "velocity": 0.25984251968503935,
          "duration": 0.16666649999999095
        },
        {
          "name": "D3",
          "midi": 50,
          "time": 156.33317700000003,
          "velocity": 0.25984251968503935,
          "duration": 0.16666649999999095
        },
        {
          "name": "D2",
          "midi": 38,
          "time": 156.49984350000003,
          "velocity": 0.25984251968503935,
          "duration": 0.16666649999999095
        },
        {
          "name": "D2",
          "midi": 38,
          "time": 156.66651000000002,
          "velocity": 0.25984251968503935,
          "duration": 0.16666649999999095
        },
        {
          "name": "C#4",
          "midi": 61,
          "time": 156.66651000000002,
          "velocity": 0.25984251968503935,
          "duration": 0.3333329999999819
        },
        {
          "name": "D3",
          "midi": 50,
          "time": 156.8331765,
          "velocity": 0.25984251968503935,
          "duration": 0.16666649999999095
        },
        {
          "name": "D2",
          "midi": 38,
          "time": 156.999843,
          "velocity": 0.25984251968503935,
          "duration": 0.16666649999999095
        },
        {
          "name": "A3",
          "midi": 57,
          "time": 156.999843,
          "velocity": 0.25984251968503935,
          "duration": 0.3333329999999819
        },
        {
          "name": "D3",
          "midi": 50,
          "time": 157.1665095,
          "velocity": 0.25984251968503935,
          "duration": 0.16666649999999095
        },
        {
          "name": "B3",
          "midi": 59,
          "time": 157.33317599999998,
          "velocity": 0.25984251968503935,
          "duration": 2.6666639999999973
        }
      ],
      "controlChanges": {},
      "id": 0,
      "name": "Electric Piano",
      "instrumentNumber": 0,
      "instrument": "acoustic grand piano",
      "instrumentFamily": "piano",
      "channelNumber": 0,
      "isPercussion": false
    }
  ]
}
