{
  "header": {
    "PPQ": 480,
    "timeSignature": [
      4,
      4
    ],
    "bpm": 85.00004250002125,
    "name": "Royals"
  },
  "tempo": [
    {
      "absoluteTime": 0,
      "seconds": 0,
      "bpm": 85.00004250002125
    }
  ],
  "timeSignature": [
    {
      "absoluteTime": 0,
      "seconds": 0,
      "numerator": 4,
      "denominator": 2,
      "click": 24,
      "notesQ": 8
    }
  ],
  "startTime": 0,
  "duration": 31.022043312500003,
  "tracks": [
    {
      "startTime": 0,
      "duration": 0,
      "length": 0,
      "notes": [],
      "controlChanges": {},
      "id": 0
    },
    {
      "startTime": 0,
      "duration": 0,
      "length": 0,
      "notes": [],
      "controlChanges": {},
      "id": 1,
      "name": "Royals"
    },
    {
      "startTime": 2.823528,
      "duration": 25.6985165625,
      "length": 38,
      "notes": [
        {
          "name": "D1",
          "midi": 26,
          "time": 2.823528,
          "velocity": 0.8740157480314961,
          "duration": 0.7264702249999999
        },
        {
          "name": "D2",
          "midi": 38,
          "time": 2.823528,
          "velocity": 0.9133858267716536,
          "duration": 0.7073525875
        },
        {
          "name": "D1",
          "midi": 26,
          "time": 3.882351,
          "velocity": 0.7795275590551181,
          "duration": 1.0985288625000003
        },
        {
          "name": "D2",
          "midi": 38,
          "time": 3.882351,
          "velocity": 0.8661417322834646,
          "duration": 1.0749994625000001
        },
        {
          "name": "D1",
          "midi": 26,
          "time": 5.647056,
          "velocity": 0.8110236220472441,
          "duration": 0.7794113749999996
        },
        {
          "name": "D2",
          "midi": 38,
          "time": 5.647056,
          "velocity": 0.8188976377952756,
          "duration": 0.7441172749999998
        },
        {
          "name": "D1",
          "midi": 26,
          "time": 6.7058789999999995,
          "velocity": 0.7716535433070866,
          "duration": 1.0838229875000005
        },
        {
          "name": "D2",
          "midi": 38,
          "time": 6.7058789999999995,
          "velocity": 0.84251968503937,
          "duration": 1.0205877250000004
        },
        {
          "name": "C2",
          "midi": 36,
          "time": 8.470584,
          "velocity": 0.8188976377952756,
          "duration": 0.7073525874999991
        },
        {
          "name": "C3",
          "midi": 48,
          "time": 8.470584,
          "velocity": 0.7874015748031497,
          "duration": 0.6397055624999997
        },
        {
          "name": "C2",
          "midi": 36,
          "time": 9.529406999999999,
          "velocity": 0.7637795275590551,
          "duration": 1.069117112499999
        },
        {
          "name": "C3",
          "midi": 48,
          "time": 9.529406999999999,
          "velocity": 0.7952755905511811,
          "duration": 1.0470582999999998
        },
        {
          "name": "G1",
          "midi": 31,
          "time": 11.294111999999998,
          "velocity": 0.8188976377952756,
          "duration": 0.7264702249999999
        },
        {
          "name": "G2",
          "midi": 43,
          "time": 11.294111999999998,
          "velocity": 0.8188976377952756,
          "duration": 0.68823495
        },
        {
          "name": "G1",
          "midi": 31,
          "time": 12.352934999999999,
          "velocity": 0.7795275590551181,
          "duration": 0.97058775
        },
        {
          "name": "G2",
          "midi": 43,
          "time": 12.352934999999999,
          "velocity": 0.8031496062992126,
          "duration": 0.9617642249999996
        },
        {
          "name": "F1",
          "midi": 29,
          "time": 13.588228499999998,
          "velocity": 0.7480314960629921,
          "duration": 0.6073526375
        },
        {
          "name": "F2",
          "midi": 41,
          "time": 13.588228499999998,
          "velocity": 0.7559055118110236,
          "duration": 0.526470325
        },
        {
          "name": "D1",
          "midi": 26,
          "time": 14.117639999999998,
          "velocity": 0.7244094488188977,
          "duration": 0.7367643375000004
        },
        {
          "name": "D2",
          "midi": 38,
          "time": 14.117639999999998,
          "velocity": 0.7952755905511811,
          "duration": 0.6867643625
        },
        {
          "name": "D1",
          "midi": 26,
          "time": 15.176462999999998,
          "velocity": 0.7874015748031497,
          "duration": 1.099999450000002
        },
        {
          "name": "D2",
          "midi": 38,
          "time": 15.176462999999998,
          "velocity": 0.7401574803149606,
          "duration": 1.0647053500000005
        },
        {
          "name": "D1",
          "midi": 26,
          "time": 16.941168,
          "velocity": 0.7244094488188977,
          "duration": 0.7764701999999986
        },
        {
          "name": "D2",
          "midi": 38,
          "time": 16.941168,
          "velocity": 0.7952755905511811,
          "duration": 0.6514702624999984
        },
        {
          "name": "D1",
          "midi": 26,
          "time": 17.999991,
          "velocity": 0.7559055118110236,
          "duration": 1.0882347500000016
        },
        {
          "name": "D2",
          "midi": 38,
          "time": 17.999991,
          "velocity": 0.7559055118110236,
          "duration": 1.0191171375000003
        },
        {
          "name": "C2",
          "midi": 36,
          "time": 19.764696000000004,
          "velocity": 0.8188976377952756,
          "duration": 0.7279408124999982
        },
        {
          "name": "C3",
          "midi": 48,
          "time": 19.764696000000004,
          "velocity": 0.7952755905511811,
          "duration": 0.6632349624999989
        },
        {
          "name": "C2",
          "midi": 36,
          "time": 20.823519,
          "velocity": 0.7559055118110236,
          "duration": 1.0955876875000001
        },
        {
          "name": "C3",
          "midi": 48,
          "time": 20.823519,
          "velocity": 0.7480314960629921,
          "duration": 1.0676465250000007
        },
        {
          "name": "G1",
          "midi": 31,
          "time": 22.588224,
          "velocity": 0.8110236220472441,
          "duration": 0.6647055500000008
        },
        {
          "name": "G2",
          "midi": 43,
          "time": 22.588224,
          "velocity": 0.84251968503937,
          "duration": 0.6852937750000017
        },
        {
          "name": "G1",
          "midi": 31,
          "time": 23.647047,
          "velocity": 0.8110236220472441,
          "duration": 1.0014700874999996
        },
        {
          "name": "G2",
          "midi": 43,
          "time": 23.647047,
          "velocity": 0.7795275590551181,
          "duration": 1.029411249999999
        },
        {
          "name": "A1",
          "midi": 33,
          "time": 24.882340499999998,
          "velocity": 0.7401574803149606,
          "duration": 0.4941174000000004
        },
        {
          "name": "A2",
          "midi": 45,
          "time": 24.882340499999998,
          "velocity": 0.7480314960629921,
          "duration": 0.45735271250000054
        },
        {
          "name": "D1",
          "midi": 26,
          "time": 25.411752,
          "velocity": 0.84251968503937,
          "duration": 0.32352925
        },
        {
          "name": "D2",
          "midi": 38,
          "time": 25.411752,
          "velocity": 0.8031496062992126,
          "duration": 0.28676456250000015
        }
      ],
      "controlChanges": {
        "6": [
          {
            "number": 6,
            "time": 0.8617642749999999,
            "value": 0.015748031496062992
          }
        ],
        "7": [
          {
            "number": 7,
            "time": 0.7117643499999999,
            "value": 0.8661417322834646
          }
        ],
        "10": [
          {
            "number": 10,
            "time": 0.7132349374999999,
            "value": 0.5039370078740157
          }
        ],
        "11": [
          {
            "number": 11,
            "time": 0.7147055249999998,
            "value": 1
          }
        ],
        "32": [
          {
            "number": 32,
            "time": 0.708823175,
            "value": 0
          }
        ],
        "91": [
          {
            "number": 91,
            "time": 0.7161761124999998,
            "value": 0.4330708661417323
          }
        ],
        "93": [
          {
            "number": 93,
            "time": 0.7176466999999997,
            "value": 0
          }
        ],
        "100": [
          {
            "number": 100,
            "time": 0.8558819249999998,
            "value": 0
          },
          {
            "number": 100,
            "time": 0.8735289749999999,
            "value": 1
          }
        ],
        "101": [
          {
            "number": 101,
            "time": 0.8499995749999998,
            "value": 0
          },
          {
            "number": 101,
            "time": 0.8676466249999999,
            "value": 1
          }
        ]
      },
      "id": 2,
      "name": "Polysynth (Low)",
      "instrumentNumber": 90,
      "instrument": "pad 3 (polysynth)",
      "instrumentFamily": "synth pad",
      "channelNumber": 0,
      "isPercussion": false
    },
    {
      "startTime": 2.8235279999999996,
      "duration": 25.645575412500005,
      "length": 19,
      "notes": [
        {
          "name": "D1",
          "midi": 26,
          "time": 2.8235279999999996,
          "velocity": 0.8503937007874016,
          "duration": 0.7397055125
        },
        {
          "name": "D1",
          "midi": 26,
          "time": 3.882351,
          "velocity": 0.84251968503937,
          "duration": 1.0661759375000006
        },
        {
          "name": "D1",
          "midi": 26,
          "time": 5.647056000000001,
          "velocity": 0.8188976377952756,
          "duration": 0.7176466999999995
        },
        {
          "name": "D1",
          "midi": 26,
          "time": 6.705879,
          "velocity": 0.7716535433070866,
          "duration": 1.0176465500000003
        },
        {
          "name": "C2",
          "midi": 36,
          "time": 8.470584,
          "velocity": 0.8740157480314961,
          "duration": 0.7529407999999993
        },
        {
          "name": "C2",
          "midi": 36,
          "time": 9.529406999999999,
          "velocity": 0.8740157480314961,
          "duration": 1.0588230000000003
        },
        {
          "name": "G1",
          "midi": 31,
          "time": 11.294112,
          "velocity": 0.8818897637795275,
          "duration": 0.7014702375000006
        },
        {
          "name": "G1",
          "midi": 31,
          "time": 12.352935,
          "velocity": 0.8503937007874016,
          "duration": 1.070587699999999
        },
        {
          "name": "F1",
          "midi": 29,
          "time": 13.5882285,
          "velocity": 0.84251968503937,
          "duration": 0.5279409125000001
        },
        {
          "name": "D1",
          "midi": 26,
          "time": 14.1161694125,
          "velocity": 0.8503937007874016,
          "duration": 0.7308819875000001
        },
        {
          "name": "D1",
          "midi": 26,
          "time": 15.176463,
          "velocity": 0.7637795275590551,
          "duration": 1.0794112249999994
        },
        {
          "name": "D1",
          "midi": 26,
          "time": 16.941168,
          "velocity": 0.8267716535433071,
          "duration": 0.6867643625
        },
        {
          "name": "D1",
          "midi": 26,
          "time": 17.999991,
          "velocity": 0.8188976377952756,
          "duration": 1.0279406625000007
        },
        {
          "name": "C2",
          "midi": 36,
          "time": 19.764696,
          "velocity": 0.889763779527559,
          "duration": 0.749999625000001
        },
        {
          "name": "C2",
          "midi": 36,
          "time": 20.823519,
          "velocity": 0.8661417322834646,
          "duration": 1.0205877249999986
        },
        {
          "name": "G1",
          "midi": 31,
          "time": 22.588224,
          "velocity": 0.889763779527559,
          "duration": 0.7220584625000015
        },
        {
          "name": "G1",
          "midi": 31,
          "time": 23.647047,
          "velocity": 0.9133858267716536,
          "duration": 1.0794112250000012
        },
        {
          "name": "A1",
          "midi": 33,
          "time": 24.8823405,
          "velocity": 0.8582677165354331,
          "duration": 0.45735271250000054
        },
        {
          "name": "D1",
          "midi": 26,
          "time": 25.411752000000003,
          "velocity": 0.8503937007874016,
          "duration": 0.23382341250000138
        }
      ],
      "controlChanges": {
        "6": [
          {
            "number": 6,
            "time": 0.7499996249999998,
            "value": 0.015748031496062992
          }
        ],
        "7": [
          {
            "number": 7,
            "time": 0.7235290499999999,
            "value": 0.9133858267716536
          }
        ],
        "10": [
          {
            "number": 10,
            "time": 0.7249996374999998,
            "value": 0.5039370078740157
          }
        ],
        "11": [
          {
            "number": 11,
            "time": 0.7264702249999998,
            "value": 1
          }
        ],
        "32": [
          {
            "number": 32,
            "time": 0.720587875,
            "value": 0
          }
        ],
        "91": [
          {
            "number": 91,
            "time": 0.7279408124999998,
            "value": 0.4330708661417323
          }
        ],
        "93": [
          {
            "number": 93,
            "time": 0.7294113999999997,
            "value": 0
          }
        ],
        "100": [
          {
            "number": 100,
            "time": 0.7441172749999998,
            "value": 0
          },
          {
            "number": 100,
            "time": 0.7617643249999999,
            "value": 1
          }
        ],
        "101": [
          {
            "number": 101,
            "time": 0.7382349249999998,
            "value": 0
          },
          {
            "number": 101,
            "time": 0.7558819749999999,
            "value": 1
          }
        ]
      },
      "id": 3,
      "name": "Fingered Bass",
      "instrumentNumber": 33,
      "instrument": "electric bass (finger)",
      "instrumentFamily": "bass",
      "channelNumber": 1,
      "isPercussion": false
    },
    {
      "startTime": 0,
      "duration": 0,
      "length": 0,
      "notes": [],
      "controlChanges": {
        "6": [
          {
            "number": 6,
            "time": 0.9294112999999998,
            "value": 0.015748031496062992
          }
        ],
        "7": [
          {
            "number": 7,
            "time": 0.7352937499999999,
            "value": 0.8661417322834646
          }
        ],
        "10": [
          {
            "number": 10,
            "time": 0.7367643374999998,
            "value": 0.5039370078740157
          }
        ],
        "11": [
          {
            "number": 11,
            "time": 0.7382349249999998,
            "value": 1
          }
        ],
        "32": [
          {
            "number": 32,
            "time": 0.732352575,
            "value": 0
          }
        ],
        "91": [
          {
            "number": 91,
            "time": 0.7382349249999998,
            "value": 0.4330708661417323
          }
        ],
        "93": [
          {
            "number": 93,
            "time": 0.7411760999999998,
            "value": 0
          }
        ],
        "100": [
          {
            "number": 100,
            "time": 0.9235289499999998,
            "value": 0
          },
          {
            "number": 100,
            "time": 0.9411759999999999,
            "value": 1
          }
        ],
        "101": [
          {
            "number": 101,
            "time": 0.9176465999999998,
            "value": 0
          },
          {
            "number": 101,
            "time": 0.9352936499999999,
            "value": 1
          }
        ]
      },
      "id": 4,
      "name": "Polysynth (High)",
      "instrumentNumber": 90,
      "instrument": "pad 3 (polysynth)",
      "instrumentFamily": "synth pad",
      "channelNumber": 2,
      "isPercussion": false
    },
    {
      "startTime": 2.823528,
      "duration": 30.99998450000001,
      "length": 58,
      "notes": [
        {
          "name": "A4",
          "midi": 69,
          "time": 2.823528,
          "velocity": 0.905511811023622,
          "duration": 0.6779408374999991
        },
        {
          "name": "F#4",
          "midi": 66,
          "time": 3.529409999999999,
          "velocity": 0.8740157480314961,
          "duration": 0.6617643750000002
        },
        {
          "name": "F#4",
          "midi": 66,
          "time": 4.235292,
          "velocity": 0.8740157480314961,
          "duration": 0.7102937624999992
        },
        {
          "name": "D4",
          "midi": 62,
          "time": 4.941173999999999,
          "velocity": 0.9133858267716536,
          "duration": 0.6338232125000003
        },
        {
          "name": "F#4",
          "midi": 66,
          "time": 5.647055999999999,
          "velocity": 0.8503937007874016,
          "duration": 0.1058823000000002
        },
        {
          "name": "F#4",
          "midi": 66,
          "time": 5.8235265,
          "velocity": 0.7322834645669292,
          "duration": 0.1147058249999997
        },
        {
          "name": "F#4",
          "midi": 66,
          "time": 5.999997,
          "velocity": 0.7795275590551181,
          "duration": 0.13382346249999966
        },
        {
          "name": "F#4",
          "midi": 66,
          "time": 6.176467499999999,
          "velocity": 0.7401574803149606,
          "duration": 0.12647052500000022
        },
        {
          "name": "F#4",
          "midi": 66,
          "time": 6.352938,
          "velocity": 0.7086614173228346,
          "duration": 0.22794106249999935
        },
        {
          "name": "G4",
          "midi": 67,
          "time": 6.5294085,
          "velocity": 0.8740157480314961,
          "duration": 0.2132351874999996
        },
        {
          "name": "A4",
          "midi": 69,
          "time": 6.7058789999999995,
          "velocity": 0.8661417322834646,
          "duration": 0.8779407374999968
        },
        {
          "name": "F#4",
          "midi": 66,
          "time": 7.941172499999996,
          "velocity": 0.7716535433070866,
          "duration": 0.18235285
        },
        {
          "name": "G4",
          "midi": 67,
          "time": 8.117642999999996,
          "velocity": 0.9133858267716536,
          "duration": 0.14852933749999941
        },
        {
          "name": "F#4",
          "midi": 66,
          "time": 8.294113499999995,
          "velocity": 0.5590551181102362,
          "duration": 0.18382343750000096
        },
        {
          "name": "E4",
          "midi": 64,
          "time": 8.470583999999995,
          "velocity": 0.9133858267716536,
          "duration": 0.24999987500000032
        },
        {
          "name": "E4",
          "midi": 64,
          "time": 8.823524999999995,
          "velocity": 0.5905511811023622,
          "duration": 0.1352940500000006
        },
        {
          "name": "E4",
          "midi": 64,
          "time": 8.999995499999995,
          "velocity": 0.905511811023622,
          "duration": 0.3323527750000004
        },
        {
          "name": "D4",
          "midi": 62,
          "time": 9.352936499999995,
          "velocity": 0.8110236220472441,
          "duration": 0.1911763750000013
        },
        {
          "name": "E4",
          "midi": 64,
          "time": 9.529406999999996,
          "velocity": 0.8740157480314961,
          "duration": 0.7529408000000064
        },
        {
          "name": "E4",
          "midi": 64,
          "time": 10.764700500000002,
          "velocity": 0.7559055118110236,
          "duration": 0.17499991250000058
        },
        {
          "name": "F#4",
          "midi": 66,
          "time": 10.939700412500002,
          "velocity": 0.8582677165354331,
          "duration": 0.22499988749999744
        },
        {
          "name": "E4",
          "midi": 64,
          "time": 11.1176415,
          "velocity": 0.8503937007874016,
          "duration": 0.1735293250000005
        },
        {
          "name": "D4",
          "midi": 62,
          "time": 11.294112,
          "velocity": 0.9133858267716536,
          "duration": 0.1191175874999999
        },
        {
          "name": "D4",
          "midi": 62,
          "time": 11.4705825,
          "velocity": 0.905511811023622,
          "duration": 0.22794106249999935
        },
        {
          "name": "D4",
          "midi": 62,
          "time": 11.8235235,
          "velocity": 0.7086614173228346,
          "duration": 0.3441174750000009
        },
        {
          "name": "B3",
          "midi": 59,
          "time": 12.176464500000002,
          "velocity": 0.7086614173228346,
          "duration": 0.19558813750000148
        },
        {
          "name": "D4",
          "midi": 62,
          "time": 12.352935000000002,
          "velocity": 0.8503937007874016,
          "duration": 0.5897055875000063
        },
        {
          "name": "D4",
          "midi": 62,
          "time": 13.058817000000008,
          "velocity": 0.8188976377952756,
          "duration": 0.12205876250000003
        },
        {
          "name": "D4",
          "midi": 62,
          "time": 13.235287500000009,
          "velocity": 0.7874015748031497,
          "duration": 0.11176464999999958
        },
        {
          "name": "D4",
          "midi": 62,
          "time": 13.411758000000008,
          "velocity": 0.8661417322834646,
          "duration": 0.19558813750000148
        },
        {
          "name": "E4",
          "midi": 64,
          "time": 13.588228500000008,
          "velocity": 0.8031496062992126,
          "duration": 0.19705872499999977
        },
        {
          "name": "F#4",
          "midi": 66,
          "time": 13.76469900000001,
          "velocity": 0.889763779527559,
          "duration": 0.36323511249999996
        },
        {
          "name": "A4",
          "midi": 69,
          "time": 14.117640000000009,
          "velocity": 0.8740157480314961,
          "duration": 0.7176466999999978
        },
        {
          "name": "F#4",
          "midi": 66,
          "time": 14.823522000000006,
          "velocity": 0.7874015748031497,
          "duration": 0.6588232000000005
        },
        {
          "name": "F#4",
          "midi": 66,
          "time": 15.529404000000005,
          "velocity": 0.7480314960629921,
          "duration": 0.7176467000000049
        },
        {
          "name": "D4",
          "midi": 62,
          "time": 16.23528600000001,
          "velocity": 0.905511811023622,
          "duration": 0.6191173375000005
        },
        {
          "name": "F#4",
          "midi": 66,
          "time": 16.941168000000008,
          "velocity": 0.84251968503937,
          "duration": 0.11764700000000161
        },
        {
          "name": "F#4",
          "midi": 66,
          "time": 17.11763850000001,
          "velocity": 0.7795275590551181,
          "duration": 0.11323523749999964
        },
        {
          "name": "F#4",
          "midi": 66,
          "time": 17.29410900000001,
          "velocity": 0.5826771653543307,
          "duration": 0.09558818749999887
        },
        {
          "name": "F#4",
          "midi": 66,
          "time": 17.470579500000007,
          "velocity": 0.7874015748031497,
          "duration": 0.14411757499999922
        },
        {
          "name": "F#4",
          "midi": 66,
          "time": 17.647050000000007,
          "velocity": 0.7716535433070866,
          "duration": 0.23235282499999954
        },
        {
          "name": "G4",
          "midi": 67,
          "time": 17.823520500000008,
          "velocity": 0.8740157480314961,
          "duration": 0.1749999124999988
        },
        {
          "name": "A4",
          "midi": 69,
          "time": 17.999991000000005,
          "velocity": 0.8582677165354331,
          "duration": 0.808823125
        },
        {
          "name": "A4",
          "midi": 69,
          "time": 18.882343500000005,
          "velocity": 0.8110236220472441,
          "duration": 0.13823522499999896
        },
        {
          "name": "A4",
          "midi": 69,
          "time": 19.058814000000005,
          "velocity": 0.8740157480314961,
          "duration": 0.098529362499999
        },
        {
          "name": "A4",
          "midi": 69,
          "time": 19.235284500000006,
          "velocity": 0.7795275590551181,
          "duration": 0.12647052499999845
        },
        {
          "name": "A4",
          "midi": 69,
          "time": 19.411755000000003,
          "velocity": 0.7952755905511811,
          "duration": 0.3088233750000029
        },
        {
          "name": "A4",
          "midi": 69,
          "time": 19.764696000000004,
          "velocity": 0.8503937007874016,
          "duration": 2.838233875000004
        },
        {
          "name": "D4",
          "midi": 62,
          "time": 23.647047000000004,
          "velocity": 0.8188976377952756,
          "duration": 0.11176465000000135
        },
        {
          "name": "D4",
          "midi": 62,
          "time": 23.823517500000005,
          "velocity": 0.9133858267716536,
          "duration": 0.14558816250000106
        },
        {
          "name": "F#4",
          "midi": 66,
          "time": 23.999988000000005,
          "velocity": 0.8031496062992126,
          "duration": 0.25441163750000584
        },
        {
          "name": "F#4",
          "midi": 66,
          "time": 24.35292900000001,
          "velocity": 0.84251968503937,
          "duration": 0.26176457500000083
        },
        {
          "name": "F#4",
          "midi": 66,
          "time": 24.70587000000001,
          "velocity": 0.6614173228346457,
          "duration": 0.22058812499999902
        },
        {
          "name": "E4",
          "midi": 64,
          "time": 24.882340500000012,
          "velocity": 0.8661417322834646,
          "duration": 0.2088234249999985
        },
        {
          "name": "D4",
          "midi": 62,
          "time": 25.05881100000001,
          "velocity": 0.8267716535433071,
          "duration": 0.42794096249999924
        },
        {
          "name": "A3",
          "midi": 57,
          "time": 30.17645550000001,
          "velocity": 0.7086614173228346,
          "duration": 0.13088228750000042
        },
        {
          "name": "A3",
          "midi": 57,
          "time": 30.35292600000001,
          "velocity": 0.8503937007874016,
          "duration": 0.30882337499999934
        },
        {
          "name": "A3",
          "midi": 57,
          "time": 30.70586700000001,
          "velocity": 0.8188976377952756,
          "duration": 0.29411750000000225
        }
      ],
      "controlChanges": {
        "1": [
          {
            "number": 1,
            "time": 6.8691142124999995,
            "value": 0.14173228346456693
          },
          {
            "number": 1,
            "time": 6.923525949999999,
            "value": 0.3937007874015748
          },
          {
            "number": 1,
            "time": 6.977937687499999,
            "value": 0.6062992125984252
          },
          {
            "number": 1,
            "time": 7.032349424999999,
            "value": 0.7716535433070866
          },
          {
            "number": 1,
            "time": 7.0882317499999985,
            "value": 0.8503937007874016
          },
          {
            "number": 1,
            "time": 7.142643487499998,
            "value": 0.8818897637795275
          },
          {
            "number": 1,
            "time": 7.223525799999998,
            "value": 0.8740157480314961
          },
          {
            "number": 1,
            "time": 7.279408124999998,
            "value": 0.84251968503937
          },
          {
            "number": 1,
            "time": 7.332349274999998,
            "value": 0.7874015748031497
          },
          {
            "number": 1,
            "time": 7.3882315999999975,
            "value": 0.7165354330708661
          },
          {
            "number": 1,
            "time": 7.441172749999997,
            "value": 0.6299212598425197
          },
          {
            "number": 1,
            "time": 7.497055074999997,
            "value": 0.5118110236220472
          },
          {
            "number": 1,
            "time": 7.551466812499997,
            "value": 0.33858267716535434
          },
          {
            "number": 1,
            "time": 7.605878549999996,
            "value": 0.11023622047244094
          },
          {
            "number": 1,
            "time": 7.663231462499996,
            "value": 0
          },
          {
            "number": 1,
            "time": 9.688230449999995,
            "value": 0.03937007874015748
          },
          {
            "number": 1,
            "time": 9.742642187499996,
            "value": 0.31496062992125984
          },
          {
            "number": 1,
            "time": 9.797053924999997,
            "value": 0.5905511811023622
          },
          {
            "number": 1,
            "time": 9.852936249999997,
            "value": 0.7952755905511811
          },
          {
            "number": 1,
            "time": 9.907347987499998,
            "value": 0.8661417322834646
          },
          {
            "number": 1,
            "time": 9.958818549999998,
            "value": 0.8503937007874016
          },
          {
            "number": 1,
            "time": 10.013230287499999,
            "value": 0.7401574803149606
          },
          {
            "number": 1,
            "time": 10.0691126125,
            "value": 0.5984251968503937
          },
          {
            "number": 1,
            "time": 10.12352435,
            "value": 0.4330708661417323
          },
          {
            "number": 1,
            "time": 10.177936087500001,
            "value": 0.2125984251968504
          },
          {
            "number": 1,
            "time": 10.233818412500002,
            "value": 0
          },
          {
            "number": 1,
            "time": 12.417640850000003,
            "value": 0.2125984251968504
          },
          {
            "number": 1,
            "time": 12.472052587500004,
            "value": 0.5354330708661418
          },
          {
            "number": 1,
            "time": 12.526464325000005,
            "value": 0.8031496062992126
          },
          {
            "number": 1,
            "time": 12.580876062500005,
            "value": 0.9212598425196851
          },
          {
            "number": 1,
            "time": 12.660287787500005,
            "value": 0.8267716535433071
          },
          {
            "number": 1,
            "time": 12.714699525000006,
            "value": 0.6456692913385826
          },
          {
            "number": 1,
            "time": 12.769111262500006,
            "value": 0.4645669291338583
          },
          {
            "number": 1,
            "time": 12.823523000000007,
            "value": 0.30708661417322836
          },
          {
            "number": 1,
            "time": 12.877934737500008,
            "value": 0.15748031496062992
          },
          {
            "number": 1,
            "time": 12.932346475000008,
            "value": 0
          },
          {
            "number": 1,
            "time": 18.132343875000004,
            "value": 0.16535433070866143
          },
          {
            "number": 1,
            "time": 18.186755612500004,
            "value": 0.4409448818897638
          },
          {
            "number": 1,
            "time": 18.241167350000005,
            "value": 0.6850393700787402
          },
          {
            "number": 1,
            "time": 18.295579087500005,
            "value": 0.8346456692913385
          },
          {
            "number": 1,
            "time": 18.349990825000006,
            "value": 0.8818897637795275
          },
          {
            "number": 1,
            "time": 18.454402537500005,
            "value": 0.8346456692913385
          },
          {
            "number": 1,
            "time": 18.508814275000006,
            "value": 0.7637795275590551
          },
          {
            "number": 1,
            "time": 18.563226012500007,
            "value": 0.6929133858267716
          },
          {
            "number": 1,
            "time": 18.619108337500005,
            "value": 0.5905511811023622
          },
          {
            "number": 1,
            "time": 18.673520075000006,
            "value": 0.48031496062992124
          },
          {
            "number": 1,
            "time": 18.727931812500007,
            "value": 0.33070866141732286
          },
          {
            "number": 1,
            "time": 18.783814137500006,
            "value": 0.13385826771653545
          },
          {
            "number": 1,
            "time": 18.841167050000006,
            "value": 0
          },
          {
            "number": 1,
            "time": 20.323519250000004,
            "value": 0.09448818897637795
          },
          {
            "number": 1,
            "time": 20.377930987500005,
            "value": 0.1968503937007874
          },
          {
            "number": 1,
            "time": 20.432342725000005,
            "value": 0.30708661417322836
          },
          {
            "number": 1,
            "time": 20.486754462500006,
            "value": 0.3858267716535433
          },
          {
            "number": 1,
            "time": 20.539695612500005,
            "value": 0.4330708661417323
          },
          {
            "number": 1,
            "time": 20.595577937500003,
            "value": 0.47244094488188976
          },
          {
            "number": 1,
            "time": 20.649989675000004,
            "value": 0.5039370078740157
          },
          {
            "number": 1,
            "time": 20.704401412500005,
            "value": 0.5275590551181102
          },
          {
            "number": 1,
            "time": 20.758813150000005,
            "value": 0.5433070866141733
          },
          {
            "number": 1,
            "time": 20.861754275000006,
            "value": 0.5511811023622047
          },
          {
            "number": 1,
            "time": 21.570577450000005,
            "value": 0.5433070866141733
          },
          {
            "number": 1,
            "time": 21.622048012500006,
            "value": 0.5354330708661418
          },
          {
            "number": 1,
            "time": 21.674989162500005,
            "value": 0.5275590551181102
          },
          {
            "number": 1,
            "time": 21.777930287500006,
            "value": 0.5196850393700787
          },
          {
            "number": 1,
            "time": 21.857342012500006,
            "value": 0.5039370078740157
          },
          {
            "number": 1,
            "time": 21.913224337500004,
            "value": 0.48031496062992124
          },
          {
            "number": 1,
            "time": 21.967636075000005,
            "value": 0.4645669291338583
          },
          {
            "number": 1,
            "time": 22.022047812500006,
            "value": 0.44881889763779526
          },
          {
            "number": 1,
            "time": 22.076459550000006,
            "value": 0.4251968503937008
          },
          {
            "number": 1,
            "time": 22.130871287500007,
            "value": 0.4094488188976378
          },
          {
            "number": 1,
            "time": 22.185283025000007,
            "value": 0.3858267716535433
          },
          {
            "number": 1,
            "time": 22.241165350000006,
            "value": 0.3700787401574803
          },
          {
            "number": 1,
            "time": 22.295577087500007,
            "value": 0.33858267716535434
          },
          {
            "number": 1,
            "time": 22.349988825000008,
            "value": 0.29133858267716534
          },
          {
            "number": 1,
            "time": 22.404400562500008,
            "value": 0.23622047244094488
          },
          {
            "number": 1,
            "time": 22.457341712500007,
            "value": 0.1889763779527559
          },
          {
            "number": 1,
            "time": 22.511753450000008,
            "value": 0.14173228346456693
          },
          {
            "number": 1,
            "time": 22.566165187500008,
            "value": 0.06299212598425197
          },
          {
            "number": 1,
            "time": 22.62057692500001,
            "value": 0
          },
          {
            "number": 1,
            "time": 25.18234035000001,
            "value": 0.007874015748031496
          },
          {
            "number": 1,
            "time": 25.23528150000001,
            "value": 0.16535433070866143
          },
          {
            "number": 1,
            "time": 25.29116382500001,
            "value": 0.36220472440944884
          },
          {
            "number": 1,
            "time": 25.34557556250001,
            "value": 0.5354330708661418
          },
          {
            "number": 1,
            "time": 25.398516712500008,
            "value": 0.6850393700787402
          },
          {
            "number": 1,
            "time": 25.45292845000001,
            "value": 0.7716535433070866
          },
          {
            "number": 1,
            "time": 25.53528135000001,
            "value": 0.6771653543307087
          },
          {
            "number": 1,
            "time": 25.58969308750001,
            "value": 0.4566929133858268
          },
          {
            "number": 1,
            "time": 25.64410482500001,
            "value": 0.1732283464566929
          },
          {
            "number": 1,
            "time": 25.69851656250001,
            "value": 0
          }
        ],
        "6": [
          {
            "number": 6,
            "time": 0.9426465874999999,
            "value": 0.015748031496062992
          }
        ],
        "7": [
          {
            "number": 7,
            "time": 0.7470584499999999,
            "value": 0.8661417322834646
          }
        ],
        "10": [
          {
            "number": 10,
            "time": 0.7485290374999999,
            "value": 0.5039370078740157
          }
        ],
        "11": [
          {
            "number": 11,
            "time": 0.7499996249999998,
            "value": 1
          }
        ],
        "32": [
          {
            "number": 32,
            "time": 0.7441172749999999,
            "value": 0
          }
        ],
        "91": [
          {
            "number": 91,
            "time": 0.7499996249999998,
            "value": 0.4330708661417323
          }
        ],
        "93": [
          {
            "number": 93,
            "time": 0.7529407999999999,
            "value": 0
          }
        ],
        "100": [
          {
            "number": 100,
            "time": 0.9367642374999998,
            "value": 0
          },
          {
            "number": 100,
            "time": 0.9544112874999999,
            "value": 1
          }
        ],
        "101": [
          {
            "number": 101,
            "time": 0.9308818874999998,
            "value": 0
          },
          {
            "number": 101,
            "time": 0.9485289374999999,
            "value": 1
          }
        ]
      },
      "id": 5,
      "name": "Vocal Guide",
      "instrumentNumber": 66,
      "instrument": "tenor sax",
      "instrumentFamily": "reed",
      "channelNumber": 3,
      "isPercussion": false
    },
    {
      "startTime": 4.235292,
      "duration": 31.022043312500003,
      "length": 21,
      "notes": [
        {
          "name": "D5",
          "midi": 74,
          "time": 4.235292,
          "velocity": 0.8661417322834646,
          "duration": 0.5955879375000004
        },
        {
          "name": "F#5",
          "midi": 78,
          "time": 4.235292,
          "velocity": 0.7716535433070866,
          "duration": 0.6338232125000003
        },
        {
          "name": "A4",
          "midi": 69,
          "time": 4.941174,
          "velocity": 0.7874015748031497,
          "duration": 0.6161761625000004
        },
        {
          "name": "D5",
          "midi": 74,
          "time": 4.941174,
          "velocity": 0.7401574803149606,
          "duration": 0.6205879250000006
        },
        {
          "name": "D5",
          "midi": 74,
          "time": 15.529404000000001,
          "velocity": 0.9133858267716536,
          "duration": 0.6132349874999985
        },
        {
          "name": "F#5",
          "midi": 78,
          "time": 15.529404000000001,
          "velocity": 0.7795275590551181,
          "duration": 0.6632349624999971
        },
        {
          "name": "A4",
          "midi": 69,
          "time": 16.235286,
          "velocity": 0.7874015748031497,
          "duration": 0.6499996750000001
        },
        {
          "name": "D5",
          "midi": 74,
          "time": 16.235286,
          "velocity": 0.7401574803149606,
          "duration": 0.6691173124999992
        },
        {
          "name": "D4",
          "midi": 62,
          "time": 18.882343499999998,
          "velocity": 0.8503937007874016,
          "duration": 0.11764700000000161
        },
        {
          "name": "F#4",
          "midi": 66,
          "time": 18.882343499999998,
          "velocity": 0.7007874015748031,
          "duration": 0.12058817500000174
        },
        {
          "name": "D4",
          "midi": 62,
          "time": 19.058813999999998,
          "velocity": 0.7874015748031497,
          "duration": 0.11176465000000135
        },
        {
          "name": "F#4",
          "midi": 66,
          "time": 19.058813999999998,
          "velocity": 0.7322834645669292,
          "duration": 0.11617641249999977
        },
        {
          "name": "D4",
          "midi": 62,
          "time": 19.2352845,
          "velocity": 0.6929133858267716,
          "duration": 0.11323523749999964
        },
        {
          "name": "F#4",
          "midi": 66,
          "time": 19.2352845,
          "velocity": 0.6062992125984252,
          "duration": 0.11764699999999806
        },
        {
          "name": "D4",
          "midi": 62,
          "time": 19.411754999999996,
          "velocity": 0.7086614173228346,
          "duration": 0.2941174999999987
        },
        {
          "name": "F#4",
          "midi": 66,
          "time": 19.411754999999996,
          "velocity": 0.6377952755905512,
          "duration": 0.3323527750000004
        },
        {
          "name": "C4",
          "midi": 60,
          "time": 19.764695999999997,
          "velocity": 0.8582677165354331,
          "duration": 2.717645700000002
        },
        {
          "name": "E4",
          "midi": 64,
          "time": 19.764695999999997,
          "velocity": 0.8503937007874016,
          "duration": 2.711763350000002
        },
        {
          "name": "D4",
          "midi": 62,
          "time": 30.1764555,
          "velocity": 0.7952755905511811,
          "duration": 0.11323523749999964
        },
        {
          "name": "D4",
          "midi": 62,
          "time": 30.352926,
          "velocity": 0.8188976377952756,
          "duration": 0.27499986249999964
        },
        {
          "name": "D4",
          "midi": 62,
          "time": 30.705867,
          "velocity": 0.8503937007874016,
          "duration": 0.31617631250000144
        }
      ],
      "controlChanges": {
        "6": [
          {
            "number": 6,
            "time": 0.967646575,
            "value": 0.015748031496062992
          }
        ],
        "7": [
          {
            "number": 7,
            "time": 0.75882315,
            "value": 0.8661417322834646
          }
        ],
        "10": [
          {
            "number": 10,
            "time": 0.7602937375,
            "value": 0.5039370078740157
          }
        ],
        "11": [
          {
            "number": 11,
            "time": 0.7617643249999999,
            "value": 1
          }
        ],
        "32": [
          {
            "number": 32,
            "time": 0.755881975,
            "value": 0
          }
        ],
        "91": [
          {
            "number": 91,
            "time": 0.7617643249999999,
            "value": 0.4330708661417323
          }
        ],
        "93": [
          {
            "number": 93,
            "time": 0.7647054999999999,
            "value": 0
          }
        ],
        "100": [
          {
            "number": 100,
            "time": 0.9617642249999999,
            "value": 0
          },
          {
            "number": 100,
            "time": 0.979411275,
            "value": 1
          }
        ],
        "101": [
          {
            "number": 101,
            "time": 0.9558818749999999,
            "value": 0
          },
          {
            "number": 101,
            "time": 0.973528925,
            "value": 1
          }
        ]
      },
      "id": 6,
      "name": "Backing Vocals",
      "instrumentNumber": 54,
      "instrument": "synth voice",
      "instrumentFamily": "ensemble",
      "channelNumber": 4,
      "isPercussion": false
    },
    {
      "startTime": 4.235292,
      "duration": 16.863226862499996,
      "length": 12,
      "notes": [
        {
          "name": "F#4",
          "midi": 66,
          "time": 4.235292,
          "velocity": 0.7007874015748031,
          "duration": 0.6720584875000002
        },
        {
          "name": "D5",
          "midi": 74,
          "time": 4.235292,
          "velocity": 0.8188976377952756,
          "duration": 0.6117644000000002
        },
        {
          "name": "F#5",
          "midi": 78,
          "time": 4.235292,
          "velocity": 0.7007874015748031,
          "duration": 0.6647055499999999
        },
        {
          "name": "D4",
          "midi": 62,
          "time": 4.941174,
          "velocity": 0.6771653543307087,
          "duration": 0.7044114124999998
        },
        {
          "name": "A4",
          "midi": 69,
          "time": 4.941174,
          "velocity": 0.6850393700787402,
          "duration": 0.6573526125000004
        },
        {
          "name": "D5",
          "midi": 74,
          "time": 4.941174,
          "velocity": 0.5590551181102362,
          "duration": 0.667646725
        },
        {
          "name": "F#4",
          "midi": 66,
          "time": 15.529404,
          "velocity": 0.7795275590551181,
          "duration": 0.6588232000000005
        },
        {
          "name": "D5",
          "midi": 74,
          "time": 15.529404,
          "velocity": 0.8503937007874016,
          "duration": 0.5867644124999991
        },
        {
          "name": "F#5",
          "midi": 78,
          "time": 15.529404,
          "velocity": 0.6929133858267716,
          "duration": 0.6205879249999988
        },
        {
          "name": "D4",
          "midi": 62,
          "time": 16.235286,
          "velocity": 0.7874015748031497,
          "duration": 0.642646737499998
        },
        {
          "name": "A4",
          "midi": 69,
          "time": 16.235286,
          "velocity": 0.7795275590551181,
          "duration": 0.6147055749999986
        },
        {
          "name": "D5",
          "midi": 74,
          "time": 16.235286,
          "velocity": 0.5984251968503937,
          "duration": 0.6279408624999974
        }
      ],
      "controlChanges": {
        "6": [
          {
            "number": 6,
            "time": 0.9632348124999998,
            "value": 0.015748031496062992
          }
        ],
        "7": [
          {
            "number": 7,
            "time": 0.7705878499999999,
            "value": 0.8661417322834646
          }
        ],
        "10": [
          {
            "number": 10,
            "time": 0.7720584374999998,
            "value": 0.5039370078740157
          }
        ],
        "11": [
          {
            "number": 11,
            "time": 0.7735290249999998,
            "value": 1
          }
        ],
        "32": [
          {
            "number": 32,
            "time": 0.767646675,
            "value": 0
          }
        ],
        "91": [
          {
            "number": 91,
            "time": 0.7749996124999997,
            "value": 0.4330708661417323
          }
        ],
        "93": [
          {
            "number": 93,
            "time": 0.7764701999999997,
            "value": 0
          }
        ],
        "100": [
          {
            "number": 100,
            "time": 0.9573524624999997,
            "value": 0
          },
          {
            "number": 100,
            "time": 0.9749995124999998,
            "value": 1
          }
        ],
        "101": [
          {
            "number": 101,
            "time": 0.9514701124999997,
            "value": 0
          },
          {
            "number": 101,
            "time": 0.9691171624999998,
            "value": 1
          }
        ]
      },
      "id": 7,
      "name": "Choir Aahs",
      "instrumentNumber": 52,
      "instrument": "choir aahs",
      "instrumentFamily": "ensemble",
      "channelNumber": 5,
      "isPercussion": false
    },
    {
      "startTime": 20.117637,
      "duration": 22.5338122625,
      "length": 10,
      "notes": [
        {
          "name": "E4",
          "midi": 64,
          "time": 20.117637,
          "velocity": 0.8110236220472441,
          "duration": 0.2970586750000024
        },
        {
          "name": "G4",
          "midi": 67,
          "time": 20.117637,
          "velocity": 0.8188976377952756,
          "duration": 0.2794116250000016
        },
        {
          "name": "E4",
          "midi": 64,
          "time": 20.470578,
          "velocity": 0.84251968503937,
          "duration": 2.0397048625000025
        },
        {
          "name": "G4",
          "midi": 67,
          "time": 20.470578,
          "velocity": 0.84251968503937,
          "duration": 2.044116625000001
        },
        {
          "name": "A4",
          "midi": 69,
          "time": 20.823519,
          "velocity": 0.7874015748031497,
          "duration": 0.29999984999999896
        },
        {
          "name": "C5",
          "midi": 72,
          "time": 20.823519,
          "velocity": 0.8661417322834646,
          "duration": 0.31323513749999776
        },
        {
          "name": "A4",
          "midi": 69,
          "time": 21.17646,
          "velocity": 0.7874015748031497,
          "duration": 1.3441169750000022
        },
        {
          "name": "C5",
          "midi": 72,
          "time": 21.17646,
          "velocity": 0.8740157480314961,
          "duration": 1.3455875625000004
        },
        {
          "name": "E5",
          "midi": 76,
          "time": 21.529401,
          "velocity": 0.9133858267716536,
          "duration": 0.26470575000000096
        },
        {
          "name": "E5",
          "midi": 76,
          "time": 21.882342,
          "velocity": 0.905511811023622,
          "duration": 0.6514702624999984
        }
      ],
      "controlChanges": {
        "6": [
          {
            "number": 6,
            "time": 0.9573524624999997,
            "value": 0.015748031496062992
          }
        ],
        "7": [
          {
            "number": 7,
            "time": 0.7823525499999998,
            "value": 0.8661417322834646
          }
        ],
        "10": [
          {
            "number": 10,
            "time": 0.7838231374999998,
            "value": 0.5039370078740157
          }
        ],
        "11": [
          {
            "number": 11,
            "time": 0.7852937249999997,
            "value": 1
          }
        ],
        "32": [
          {
            "number": 32,
            "time": 0.7794113749999999,
            "value": 0
          }
        ],
        "91": [
          {
            "number": 91,
            "time": 0.7867643124999997,
            "value": 0.4330708661417323
          }
        ],
        "93": [
          {
            "number": 93,
            "time": 0.7882348999999996,
            "value": 0
          }
        ],
        "100": [
          {
            "number": 100,
            "time": 0.9514701124999997,
            "value": 0
          },
          {
            "number": 100,
            "time": 0.9691171624999998,
            "value": 1
          }
        ],
        "101": [
          {
            "number": 101,
            "time": 0.9455877624999997,
            "value": 0
          },
          {
            "number": 101,
            "time": 0.9632348124999998,
            "value": 1
          }
        ]
      },
      "id": 8,
      "name": "Voice Oohs",
      "instrumentNumber": 53,
      "instrument": "voice oohs",
      "instrumentFamily": "ensemble",
      "channelNumber": 6,
      "isPercussion": false
    },
    {
      "startTime": 2.8235279999999996,
      "duration": 30.897043375000063,
      "length": 168,
      "notes": [
        {
          "name": "B1",
          "midi": 35,
          "time": 2.8235279999999996,
          "velocity": 0.905511811023622,
          "duration": 0.014705875000000201
        },
        {
          "name": "C2",
          "midi": 36,
          "time": 2.8235279999999996,
          "velocity": 0.84251968503937,
          "duration": 0.014705875000000201
        },
        {
          "name": "E3",
          "midi": 52,
          "time": 2.8235279999999996,
          "velocity": 0.9133858267716536,
          "duration": 0.014705875000000201
        },
        {
          "name": "F#2",
          "midi": 42,
          "time": 3.176469,
          "velocity": 0.7007874015748031,
          "duration": 0.014705875000000201
        },
        {
          "name": "B1",
          "midi": 35,
          "time": 3.3529395,
          "velocity": 0.8503937007874016,
          "duration": 0.014705875000000201
        },
        {
          "name": "F#2",
          "midi": 42,
          "time": 3.3529395,
          "velocity": 0.5669291338582677,
          "duration": 0.014705875000000201
        },
        {
          "name": "D#2",
          "midi": 39,
          "time": 3.5294100000000004,
          "velocity": 0.8503937007874016,
          "duration": 0.014705875000000201
        },
        {
          "name": "B1",
          "midi": 35,
          "time": 3.8823510000000008,
          "velocity": 0.8031496062992126,
          "duration": 0.014705875000000201
        },
        {
          "name": "F#2",
          "midi": 42,
          "time": 3.8823510000000008,
          "velocity": 0.7795275590551181,
          "duration": 0.014705875000000201
        },
        {
          "name": "F#2",
          "midi": 42,
          "time": 4.0588215000000005,
          "velocity": 0.5275590551181102,
          "duration": 0.014705874999999757
        },
        {
          "name": "F#2",
          "midi": 42,
          "time": 4.588233000000001,
          "velocity": 0.7322834645669292,
          "duration": 0.014705874999999757
        },
        {
          "name": "B1",
          "midi": 35,
          "time": 4.7647035,
          "velocity": 0.8267716535433071,
          "duration": 0.014705874999999757
        },
        {
          "name": "F#2",
          "midi": 42,
          "time": 4.7647035,
          "velocity": 0.7007874015748031,
          "duration": 0.014705874999999757
        },
        {
          "name": "F#2",
          "midi": 42,
          "time": 4.85293875,
          "velocity": 0.6220472440944882,
          "duration": 0.014705874999999757
        },
        {
          "name": "D#2",
          "midi": 39,
          "time": 4.941173999999999,
          "velocity": 0.9133858267716536,
          "duration": 0.014705874999999757
        },
        {
          "name": "F#2",
          "midi": 42,
          "time": 5.117644499999999,
          "velocity": 0.5669291338582677,
          "duration": 0.014705874999999757
        },
        {
          "name": "B1",
          "midi": 35,
          "time": 5.294114999999999,
          "velocity": 0.7874015748031497,
          "duration": 0.014705874999999757
        },
        {
          "name": "F#2",
          "midi": 42,
          "time": 5.294114999999999,
          "velocity": 0.6456692913385826,
          "duration": 0.014705874999999757
        },
        {
          "name": "F#2",
          "midi": 42,
          "time": 5.4705854999999985,
          "velocity": 0.6377952755905512,
          "duration": 0.014705874999999757
        },
        {
          "name": "B1",
          "midi": 35,
          "time": 5.647055999999998,
          "velocity": 0.8188976377952756,
          "duration": 0.014705874999999757
        },
        {
          "name": "C2",
          "midi": 36,
          "time": 5.647055999999998,
          "velocity": 0.8110236220472441,
          "duration": 0.014705874999999757
        },
        {
          "name": "F#2",
          "midi": 42,
          "time": 5.999996999999998,
          "velocity": 0.7007874015748031,
          "duration": 0.014705874999999757
        },
        {
          "name": "B1",
          "midi": 35,
          "time": 6.176467499999998,
          "velocity": 0.8110236220472441,
          "duration": 0.014705874999999757
        },
        {
          "name": "F#2",
          "midi": 42,
          "time": 6.176467499999998,
          "velocity": 0.5669291338582677,
          "duration": 0.014705874999999757
        },
        {
          "name": "D#2",
          "midi": 39,
          "time": 6.352937999999997,
          "velocity": 0.8503937007874016,
          "duration": 0.014705874999999757
        },
        {
          "name": "B1",
          "midi": 35,
          "time": 6.705878999999997,
          "velocity": 0.7637795275590551,
          "duration": 0.014705874999999757
        },
        {
          "name": "F#2",
          "midi": 42,
          "time": 6.705878999999997,
          "velocity": 0.7795275590551181,
          "duration": 0.014705874999999757
        },
        {
          "name": "F#2",
          "midi": 42,
          "time": 6.882349499999997,
          "velocity": 0.5275590551181102,
          "duration": 0.014705874999999757
        },
        {
          "name": "F#2",
          "midi": 42,
          "time": 7.411760999999997,
          "velocity": 0.7322834645669292,
          "duration": 0.014705874999999757
        },
        {
          "name": "B1",
          "midi": 35,
          "time": 7.5882314999999965,
          "velocity": 0.8031496062992126,
          "duration": 0.014705874999999757
        },
        {
          "name": "F#2",
          "midi": 42,
          "time": 7.5882314999999965,
          "velocity": 0.7007874015748031,
          "duration": 0.014705874999999757
        },
        {
          "name": "F#2",
          "midi": 42,
          "time": 7.676466749999996,
          "velocity": 0.6220472440944882,
          "duration": 0.014705874999999757
        },
        {
          "name": "D#2",
          "midi": 39,
          "time": 7.764701999999995,
          "velocity": 0.9133858267716536,
          "duration": 0.014705874999999757
        },
        {
          "name": "F#2",
          "midi": 42,
          "time": 7.941172499999995,
          "velocity": 0.5669291338582677,
          "duration": 0.014705874999999757
        },
        {
          "name": "B1",
          "midi": 35,
          "time": 8.117642999999994,
          "velocity": 0.7401574803149606,
          "duration": 0.014705875000000646
        },
        {
          "name": "F#2",
          "midi": 42,
          "time": 8.117642999999994,
          "velocity": 0.6456692913385826,
          "duration": 0.014705875000000646
        },
        {
          "name": "B1",
          "midi": 35,
          "time": 8.294113499999995,
          "velocity": 0.7401574803149606,
          "duration": 0.014705875000000646
        },
        {
          "name": "F#2",
          "midi": 42,
          "time": 8.294113499999995,
          "velocity": 0.6377952755905512,
          "duration": 0.014705875000000646
        },
        {
          "name": "B1",
          "midi": 35,
          "time": 8.470583999999995,
          "velocity": 0.8031496062992126,
          "duration": 0.014705875000000646
        },
        {
          "name": "C2",
          "midi": 36,
          "time": 8.470583999999995,
          "velocity": 0.8503937007874016,
          "duration": 0.014705875000000646
        },
        {
          "name": "F#2",
          "midi": 42,
          "time": 8.823524999999997,
          "velocity": 0.7007874015748031,
          "duration": 0.014705875000000646
        },
        {
          "name": "B1",
          "midi": 35,
          "time": 8.999995499999997,
          "velocity": 0.8110236220472441,
          "duration": 0.014705875000000646
        },
        {
          "name": "F#2",
          "midi": 42,
          "time": 8.999995499999997,
          "velocity": 0.5669291338582677,
          "duration": 0.014705875000000646
        },
        {
          "name": "D#2",
          "midi": 39,
          "time": 9.176465999999998,
          "velocity": 0.8503937007874016,
          "duration": 0.014705875000000646
        },
        {
          "name": "B1",
          "midi": 35,
          "time": 9.529406999999999,
          "velocity": 0.7637795275590551,
          "duration": 0.014705875000000646
        },
        {
          "name": "F#2",
          "midi": 42,
          "time": 9.529406999999999,
          "velocity": 0.7795275590551181,
          "duration": 0.014705875000000646
        },
        {
          "name": "F#2",
          "midi": 42,
          "time": 9.7058775,
          "velocity": 0.5275590551181102,
          "duration": 0.014705875000000646
        },
        {
          "name": "F#2",
          "midi": 42,
          "time": 10.235289,
          "velocity": 0.7322834645669292,
          "duration": 0.014705875000000646
        },
        {
          "name": "B1",
          "midi": 35,
          "time": 10.4117595,
          "velocity": 0.8188976377952756,
          "duration": 0.014705875000000646
        },
        {
          "name": "F#2",
          "midi": 42,
          "time": 10.4117595,
          "velocity": 0.7007874015748031,
          "duration": 0.014705875000000646
        },
        {
          "name": "F#2",
          "midi": 42,
          "time": 10.49999475,
          "velocity": 0.6220472440944882,
          "duration": 0.014705875000000646
        },
        {
          "name": "D#2",
          "midi": 39,
          "time": 10.588230000000001,
          "velocity": 0.9133858267716536,
          "duration": 0.014705875000000646
        },
        {
          "name": "F#2",
          "midi": 42,
          "time": 10.764700500000002,
          "velocity": 0.5669291338582677,
          "duration": 0.014705875000000646
        },
        {
          "name": "B1",
          "midi": 35,
          "time": 10.941171000000002,
          "velocity": 0.7637795275590551,
          "duration": 0.014705875000000646
        },
        {
          "name": "F#2",
          "midi": 42,
          "time": 10.941171000000002,
          "velocity": 0.6456692913385826,
          "duration": 0.014705875000000646
        },
        {
          "name": "F#2",
          "midi": 42,
          "time": 11.117641500000003,
          "velocity": 0.6377952755905512,
          "duration": 0.014705875000000646
        },
        {
          "name": "B1",
          "midi": 35,
          "time": 11.294112000000004,
          "velocity": 0.8267716535433071,
          "duration": 0.014705875000000646
        },
        {
          "name": "C2",
          "midi": 36,
          "time": 11.294112000000004,
          "velocity": 0.7480314960629921,
          "duration": 0.014705875000000646
        },
        {
          "name": "F#2",
          "midi": 42,
          "time": 11.647053000000005,
          "velocity": 0.7007874015748031,
          "duration": 0.014705875000000646
        },
        {
          "name": "B1",
          "midi": 35,
          "time": 11.823523500000006,
          "velocity": 0.7637795275590551,
          "duration": 0.014705875000000646
        },
        {
          "name": "F#2",
          "midi": 42,
          "time": 11.823523500000006,
          "velocity": 0.5669291338582677,
          "duration": 0.014705875000000646
        },
        {
          "name": "D#2",
          "midi": 39,
          "time": 11.999994000000006,
          "velocity": 0.8503937007874016,
          "duration": 0.014705875000000646
        },
        {
          "name": "B1",
          "midi": 35,
          "time": 12.352935000000008,
          "velocity": 0.7401574803149606,
          "duration": 0.014705875000000646
        },
        {
          "name": "F#2",
          "midi": 42,
          "time": 12.352935000000008,
          "velocity": 0.7795275590551181,
          "duration": 0.014705875000000646
        },
        {
          "name": "F#2",
          "midi": 42,
          "time": 12.529405500000008,
          "velocity": 0.5275590551181102,
          "duration": 0.014705875000000646
        },
        {
          "name": "F#2",
          "midi": 42,
          "time": 13.058817000000008,
          "velocity": 0.7322834645669292,
          "duration": 0.014705875000000646
        },
        {
          "name": "B1",
          "midi": 35,
          "time": 13.235287500000009,
          "velocity": 0.7480314960629921,
          "duration": 0.014705875000000646
        },
        {
          "name": "F#2",
          "midi": 42,
          "time": 13.235287500000009,
          "velocity": 0.7007874015748031,
          "duration": 0.014705875000000646
        },
        {
          "name": "F#2",
          "midi": 42,
          "time": 13.32352275000001,
          "velocity": 0.6220472440944882,
          "duration": 0.014705875000000646
        },
        {
          "name": "D#2",
          "midi": 39,
          "time": 13.41175800000001,
          "velocity": 0.9133858267716536,
          "duration": 0.014705875000000646
        },
        {
          "name": "B1",
          "midi": 35,
          "time": 13.58822850000001,
          "velocity": 0.7401574803149606,
          "duration": 0.014705875000000646
        },
        {
          "name": "F#2",
          "midi": 42,
          "time": 13.58822850000001,
          "velocity": 0.5669291338582677,
          "duration": 0.014705875000000646
        },
        {
          "name": "B1",
          "midi": 35,
          "time": 13.764699000000011,
          "velocity": 0.8582677165354331,
          "duration": 0.014705875000000646
        },
        {
          "name": "F#2",
          "midi": 42,
          "time": 13.764699000000011,
          "velocity": 0.6456692913385826,
          "duration": 0.014705875000000646
        },
        {
          "name": "F#2",
          "midi": 42,
          "time": 13.941169500000012,
          "velocity": 0.6377952755905512,
          "duration": 0.014705875000000646
        },
        {
          "name": "B1",
          "midi": 35,
          "time": 14.117640000000012,
          "velocity": 0.8661417322834646,
          "duration": 0.014705875000000646
        },
        {
          "name": "C2",
          "midi": 36,
          "time": 14.117640000000012,
          "velocity": 0.84251968503937,
          "duration": 0.014705875000000646
        },
        {
          "name": "E3",
          "midi": 52,
          "time": 14.117640000000012,
          "velocity": 0.9133858267716536,
          "duration": 0.014705875000000646
        },
        {
          "name": "F#2",
          "midi": 42,
          "time": 14.470581000000013,
          "velocity": 0.7007874015748031,
          "duration": 0.014705875000000646
        },
        {
          "name": "B1",
          "midi": 35,
          "time": 14.647051500000014,
          "velocity": 0.8503937007874016,
          "duration": 0.014705875000000646
        },
        {
          "name": "F#2",
          "midi": 42,
          "time": 14.647051500000014,
          "velocity": 0.5669291338582677,
          "duration": 0.014705875000000646
        },
        {
          "name": "D#2",
          "midi": 39,
          "time": 14.823522000000015,
          "velocity": 0.8503937007874016,
          "duration": 0.014705875000000646
        },
        {
          "name": "B1",
          "midi": 35,
          "time": 15.176463000000016,
          "velocity": 0.7795275590551181,
          "duration": 0.014705875000000646
        },
        {
          "name": "F#2",
          "midi": 42,
          "time": 15.176463000000016,
          "velocity": 0.7795275590551181,
          "duration": 0.014705875000000646
        },
        {
          "name": "F#2",
          "midi": 42,
          "time": 15.352933500000017,
          "velocity": 0.5275590551181102,
          "duration": 0.014705875000000646
        },
        {
          "name": "F#2",
          "midi": 42,
          "time": 15.882345000000017,
          "velocity": 0.7322834645669292,
          "duration": 0.014705875000000646
        },
        {
          "name": "B1",
          "midi": 35,
          "time": 16.058815500000016,
          "velocity": 0.7559055118110236,
          "duration": 0.014705875000000646
        },
        {
          "name": "F#2",
          "midi": 42,
          "time": 16.058815500000016,
          "velocity": 0.7007874015748031,
          "duration": 0.014705875000000646
        },
        {
          "name": "F#2",
          "midi": 42,
          "time": 16.147050750000016,
          "velocity": 0.6220472440944882,
          "duration": 0.014705875000000646
        },
        {
          "name": "D#2",
          "midi": 39,
          "time": 16.235286000000016,
          "velocity": 0.9133858267716536,
          "duration": 0.014705875000000646
        },
        {
          "name": "F#2",
          "midi": 42,
          "time": 16.411756500000017,
          "velocity": 0.5669291338582677,
          "duration": 0.014705875000000646
        },
        {
          "name": "B1",
          "midi": 35,
          "time": 16.588227000000018,
          "velocity": 0.8110236220472441,
          "duration": 0.014705875000000646
        },
        {
          "name": "F#2",
          "midi": 42,
          "time": 16.588227000000018,
          "velocity": 0.6456692913385826,
          "duration": 0.014705875000000646
        },
        {
          "name": "F#2",
          "midi": 42,
          "time": 16.76469750000002,
          "velocity": 0.6377952755905512,
          "duration": 0.014705875000000646
        },
        {
          "name": "B1",
          "midi": 35,
          "time": 16.94116800000002,
          "velocity": 0.8031496062992126,
          "duration": 0.014705875000000646
        },
        {
          "name": "C2",
          "midi": 36,
          "time": 16.94116800000002,
          "velocity": 0.7795275590551181,
          "duration": 0.014705875000000646
        },
        {
          "name": "F#2",
          "midi": 42,
          "time": 17.29410900000002,
          "velocity": 0.7007874015748031,
          "duration": 0.014705875000000646
        },
        {
          "name": "B1",
          "midi": 35,
          "time": 17.47057950000002,
          "velocity": 0.8267716535433071,
          "duration": 0.014705875000000646
        },
        {
          "name": "F#2",
          "midi": 42,
          "time": 17.47057950000002,
          "velocity": 0.5669291338582677,
          "duration": 0.014705875000000646
        },
        {
          "name": "D#2",
          "midi": 39,
          "time": 17.64705000000002,
          "velocity": 0.8503937007874016,
          "duration": 0.014705875000000646
        },
        {
          "name": "B1",
          "midi": 35,
          "time": 17.999991000000023,
          "velocity": 0.8110236220472441,
          "duration": 0.014705875000000646
        },
        {
          "name": "F#2",
          "midi": 42,
          "time": 17.999991000000023,
          "velocity": 0.7795275590551181,
          "duration": 0.014705875000000646
        },
        {
          "name": "F#2",
          "midi": 42,
          "time": 18.176461500000023,
          "velocity": 0.5275590551181102,
          "duration": 0.014705875000000646
        },
        {
          "name": "B1",
          "midi": 35,
          "time": 18.705873000000025,
          "velocity": 0.7086614173228346,
          "duration": 0.014705875000000646
        },
        {
          "name": "F#2",
          "midi": 42,
          "time": 18.705873000000025,
          "velocity": 0.7322834645669292,
          "duration": 0.014705875000000646
        },
        {
          "name": "B1",
          "midi": 35,
          "time": 18.882343500000026,
          "velocity": 0.8110236220472441,
          "duration": 0.014705875000000646
        },
        {
          "name": "F#2",
          "midi": 42,
          "time": 18.882343500000026,
          "velocity": 0.7007874015748031,
          "duration": 0.014705875000000646
        },
        {
          "name": "F#2",
          "midi": 42,
          "time": 18.970578750000026,
          "velocity": 0.6220472440944882,
          "duration": 0.014705875000000646
        },
        {
          "name": "D#2",
          "midi": 39,
          "time": 19.058814000000027,
          "velocity": 0.9133858267716536,
          "duration": 0.014705875000000646
        },
        {
          "name": "B1",
          "midi": 35,
          "time": 19.235284500000027,
          "velocity": 0.7795275590551181,
          "duration": 0.014705875000000646
        },
        {
          "name": "F#2",
          "midi": 42,
          "time": 19.235284500000027,
          "velocity": 0.5669291338582677,
          "duration": 0.014705875000000646
        },
        {
          "name": "B1",
          "midi": 35,
          "time": 19.411755000000028,
          "velocity": 0.7401574803149606,
          "duration": 0.014705875000000646
        },
        {
          "name": "F#2",
          "midi": 42,
          "time": 19.411755000000028,
          "velocity": 0.6456692913385826,
          "duration": 0.014705875000000646
        },
        {
          "name": "F#2",
          "midi": 42,
          "time": 19.58822550000003,
          "velocity": 0.6377952755905512,
          "duration": 0.014705875000000646
        },
        {
          "name": "B1",
          "midi": 35,
          "time": 19.76469600000003,
          "velocity": 0.7795275590551181,
          "duration": 0.014705875000000646
        },
        {
          "name": "C2",
          "midi": 36,
          "time": 19.76469600000003,
          "velocity": 0.8110236220472441,
          "duration": 0.014705875000000646
        },
        {
          "name": "F#2",
          "midi": 42,
          "time": 20.11763700000003,
          "velocity": 0.7007874015748031,
          "duration": 0.014705875000000646
        },
        {
          "name": "B1",
          "midi": 35,
          "time": 20.29410750000003,
          "velocity": 0.8110236220472441,
          "duration": 0.014705875000000646
        },
        {
          "name": "F#2",
          "midi": 42,
          "time": 20.29410750000003,
          "velocity": 0.5669291338582677,
          "duration": 0.014705875000000646
        },
        {
          "name": "D#2",
          "midi": 39,
          "time": 20.47057800000003,
          "velocity": 0.8503937007874016,
          "duration": 0.014705875000000646
        },
        {
          "name": "B1",
          "midi": 35,
          "time": 20.823519000000033,
          "velocity": 0.7874015748031497,
          "duration": 0.014705875000000646
        },
        {
          "name": "F#2",
          "midi": 42,
          "time": 20.823519000000033,
          "velocity": 0.7795275590551181,
          "duration": 0.014705875000000646
        },
        {
          "name": "F#2",
          "midi": 42,
          "time": 20.999989500000034,
          "velocity": 0.5275590551181102,
          "duration": 0.014705875000000646
        },
        {
          "name": "F#2",
          "midi": 42,
          "time": 21.529401000000036,
          "velocity": 0.7322834645669292,
          "duration": 0.014705875000000646
        },
        {
          "name": "B1",
          "midi": 35,
          "time": 21.705871500000036,
          "velocity": 0.8031496062992126,
          "duration": 0.014705875000000646
        },
        {
          "name": "F#2",
          "midi": 42,
          "time": 21.705871500000036,
          "velocity": 0.7007874015748031,
          "duration": 0.014705875000000646
        },
        {
          "name": "F#2",
          "midi": 42,
          "time": 21.794106750000036,
          "velocity": 0.6220472440944882,
          "duration": 0.014705875000000646
        },
        {
          "name": "D#2",
          "midi": 39,
          "time": 21.882342000000037,
          "velocity": 0.9133858267716536,
          "duration": 0.014705875000000646
        },
        {
          "name": "F#2",
          "midi": 42,
          "time": 22.058812500000037,
          "velocity": 0.5669291338582677,
          "duration": 0.014705875000000646
        },
        {
          "name": "B1",
          "midi": 35,
          "time": 22.235283000000038,
          "velocity": 0.7559055118110236,
          "duration": 0.014705875000000646
        },
        {
          "name": "F#2",
          "midi": 42,
          "time": 22.235283000000038,
          "velocity": 0.6456692913385826,
          "duration": 0.014705875000000646
        },
        {
          "name": "F#2",
          "midi": 42,
          "time": 22.41175350000004,
          "velocity": 0.6377952755905512,
          "duration": 0.014705875000000646
        },
        {
          "name": "B1",
          "midi": 35,
          "time": 22.58822400000004,
          "velocity": 0.8582677165354331,
          "duration": 0.014705875000000646
        },
        {
          "name": "C2",
          "midi": 36,
          "time": 22.58822400000004,
          "velocity": 0.8582677165354331,
          "duration": 0.014705875000000646
        },
        {
          "name": "F#2",
          "midi": 42,
          "time": 22.94116500000004,
          "velocity": 0.7007874015748031,
          "duration": 0.014705875000000646
        },
        {
          "name": "B1",
          "midi": 35,
          "time": 23.11763550000004,
          "velocity": 0.8031496062992126,
          "duration": 0.014705875000000646
        },
        {
          "name": "F#2",
          "midi": 42,
          "time": 23.11763550000004,
          "velocity": 0.5669291338582677,
          "duration": 0.014705875000000646
        },
        {
          "name": "D#2",
          "midi": 39,
          "time": 23.294106000000042,
          "velocity": 0.8503937007874016,
          "duration": 0.014705875000000646
        },
        {
          "name": "B1",
          "midi": 35,
          "time": 23.647047000000043,
          "velocity": 0.8110236220472441,
          "duration": 0.014705875000000646
        },
        {
          "name": "F#2",
          "midi": 42,
          "time": 23.647047000000043,
          "velocity": 0.7795275590551181,
          "duration": 0.014705875000000646
        },
        {
          "name": "F#2",
          "midi": 42,
          "time": 23.823517500000044,
          "velocity": 0.5275590551181102,
          "duration": 0.014705875000000646
        },
        {
          "name": "F#2",
          "midi": 42,
          "time": 24.352929000000046,
          "velocity": 0.7322834645669292,
          "duration": 0.014705875000000646
        },
        {
          "name": "B1",
          "midi": 35,
          "time": 24.529399500000046,
          "velocity": 0.7637795275590551,
          "duration": 0.014705875000000646
        },
        {
          "name": "F#2",
          "midi": 42,
          "time": 24.529399500000046,
          "velocity": 0.7007874015748031,
          "duration": 0.014705875000000646
        },
        {
          "name": "F#2",
          "midi": 42,
          "time": 24.617634750000047,
          "velocity": 0.6220472440944882,
          "duration": 0.014705875000000646
        },
        {
          "name": "D#2",
          "midi": 39,
          "time": 24.705870000000047,
          "velocity": 0.9133858267716536,
          "duration": 0.014705875000000646
        },
        {
          "name": "B1",
          "midi": 35,
          "time": 24.882340500000048,
          "velocity": 0.7637795275590551,
          "duration": 0.014705875000000646
        },
        {
          "name": "F#2",
          "midi": 42,
          "time": 24.882340500000048,
          "velocity": 0.5669291338582677,
          "duration": 0.014705875000000646
        },
        {
          "name": "B1",
          "midi": 35,
          "time": 25.05881100000005,
          "velocity": 0.8110236220472441,
          "duration": 0.014705875000000646
        },
        {
          "name": "F#2",
          "midi": 42,
          "time": 25.05881100000005,
          "velocity": 0.6456692913385826,
          "duration": 0.014705875000000646
        },
        {
          "name": "F#2",
          "midi": 42,
          "time": 25.23528150000005,
          "velocity": 0.6377952755905512,
          "duration": 0.014705875000000646
        },
        {
          "name": "B1",
          "midi": 35,
          "time": 25.41175200000005,
          "velocity": 0.9133858267716536,
          "duration": 0.014705875000000646
        },
        {
          "name": "C2",
          "midi": 36,
          "time": 25.41175200000005,
          "velocity": 0.84251968503937,
          "duration": 0.014705875000000646
        },
        {
          "name": "B1",
          "midi": 35,
          "time": 25.94116350000005,
          "velocity": 0.8110236220472441,
          "duration": 0.014705875000000646
        },
        {
          "name": "D#2",
          "midi": 39,
          "time": 26.117634000000052,
          "velocity": 0.8503937007874016,
          "duration": 0.014705875000000646
        },
        {
          "name": "B1",
          "midi": 35,
          "time": 26.470575000000053,
          "velocity": 0.8110236220472441,
          "duration": 0.014705875000000646
        },
        {
          "name": "B1",
          "midi": 35,
          "time": 27.352927500000053,
          "velocity": 0.7559055118110236,
          "duration": 0.014705875000000646
        },
        {
          "name": "D#2",
          "midi": 39,
          "time": 27.529398000000054,
          "velocity": 0.9133858267716536,
          "duration": 0.014705875000000646
        },
        {
          "name": "B1",
          "midi": 35,
          "time": 27.882339000000055,
          "velocity": 0.8188976377952756,
          "duration": 0.014705875000000646
        },
        {
          "name": "B1",
          "midi": 35,
          "time": 28.235280000000056,
          "velocity": 0.8661417322834646,
          "duration": 0.014705875000000646
        },
        {
          "name": "C2",
          "midi": 36,
          "time": 28.235280000000056,
          "velocity": 0.8582677165354331,
          "duration": 0.014705875000000646
        },
        {
          "name": "B1",
          "midi": 35,
          "time": 28.76469150000006,
          "velocity": 0.8267716535433071,
          "duration": 0.014705875000000646
        },
        {
          "name": "D#2",
          "midi": 39,
          "time": 28.94116200000006,
          "velocity": 0.8503937007874016,
          "duration": 0.014705875000000646
        },
        {
          "name": "B1",
          "midi": 35,
          "time": 29.29410300000006,
          "velocity": 0.84251968503937,
          "duration": 0.014705875000000646
        },
        {
          "name": "B1",
          "midi": 35,
          "time": 30.17645550000006,
          "velocity": 0.8188976377952756,
          "duration": 0.014705875000000646
        },
        {
          "name": "D#2",
          "midi": 39,
          "time": 30.35292600000006,
          "velocity": 0.9133858267716536,
          "duration": 0.014705875000000646
        },
        {
          "name": "B1",
          "midi": 35,
          "time": 30.70586700000006,
          "velocity": 0.7480314960629921,
          "duration": 0.014705875000000646
        },
        {
          "name": "B1",
          "midi": 35,
          "time": 30.882337500000062,
          "velocity": 0.7874015748031497,
          "duration": 0.014705875000000646
        }
      ],
      "controlChanges": {
        "7": [
          {
            "number": 7,
            "time": 0.8176466499999999,
            "value": 1
          }
        ],
        "10": [
          {
            "number": 10,
            "time": 0.8191172374999999,
            "value": 0.5039370078740157
          }
        ],
        "11": [
          {
            "number": 11,
            "time": 0.8205878249999998,
            "value": 1
          }
        ],
        "32": [
          {
            "number": 32,
            "time": 0.814705475,
            "value": 0
          }
        ],
        "91": [
          {
            "number": 91,
            "time": 0.8220584124999998,
            "value": 0.36220472440944884
          }
        ],
        "93": [
          {
            "number": 93,
            "time": 0.8235289999999997,
            "value": 0
          }
        ]
      },
      "id": 9,
      "name": "Drums",
      "instrumentNumber": 0,
      "instrument": "standard kit",
      "instrumentFamily": "drums",
      "channelNumber": 9,
      "isPercussion": true
    },
    {
      "startTime": 2.8235279999999996,
      "duration": 30.589690587500005,
      "length": 21,
      "notes": [
        {
          "name": "D3",
          "midi": 50,
          "time": 2.8235279999999996,
          "velocity": 0.007874015748031496,
          "duration": 3.886762762499999
        },
        {
          "name": "F#3",
          "midi": 54,
          "time": 2.8235279999999996,
          "velocity": 0.007874015748031496,
          "duration": 3.939703912499999
        },
        {
          "name": "A3",
          "midi": 57,
          "time": 2.8235279999999996,
          "velocity": 0.007874015748031496,
          "duration": 3.905880399999999
        },
        {
          "name": "C3",
          "midi": 48,
          "time": 8.470583999999999,
          "velocity": 0.007874015748031496,
          "duration": 0.5014703375000007
        },
        {
          "name": "E3",
          "midi": 52,
          "time": 8.470583999999999,
          "velocity": 0.007874015748031496,
          "duration": 0.5735291250000003
        },
        {
          "name": "G3",
          "midi": 55,
          "time": 8.470583999999999,
          "velocity": 0.007874015748031496,
          "duration": 0.5647055999999999
        },
        {
          "name": "G3",
          "midi": 55,
          "time": 11.294111999999998,
          "velocity": 0.007874015748031496,
          "duration": 1.7411756000000018
        },
        {
          "name": "B3",
          "midi": 59,
          "time": 11.294111999999998,
          "velocity": 0.007874015748031496,
          "duration": 1.6852932750000011
        },
        {
          "name": "D4",
          "midi": 62,
          "time": 11.294111999999998,
          "velocity": 0.007874015748031496,
          "duration": 1.7279403125000012
        },
        {
          "name": "D3",
          "midi": 50,
          "time": 14.117640000000002,
          "velocity": 0.007874015748031496,
          "duration": 4.549997724999997
        },
        {
          "name": "F#3",
          "midi": 54,
          "time": 14.117640000000002,
          "velocity": 0.007874015748031496,
          "duration": 4.597056524999996
        },
        {
          "name": "A3",
          "midi": 57,
          "time": 14.117640000000002,
          "velocity": 0.007874015748031496,
          "duration": 4.563233012499996
        },
        {
          "name": "C3",
          "midi": 48,
          "time": 19.764695999999997,
          "velocity": 0.007874015748031496,
          "duration": 1.877940237499999
        },
        {
          "name": "E3",
          "midi": 52,
          "time": 19.764695999999997,
          "velocity": 0.007874015748031496,
          "duration": 1.8897049374999995
        },
        {
          "name": "G3",
          "midi": 55,
          "time": 19.764695999999997,
          "velocity": 0.007874015748031496,
          "duration": 1.8999990499999981
        },
        {
          "name": "G3",
          "midi": 55,
          "time": 22.588223999999997,
          "velocity": 0.007874015748031496,
          "duration": 2.3441164750000034
        },
        {
          "name": "B3",
          "midi": 59,
          "time": 22.588223999999997,
          "velocity": 0.007874015748031496,
          "duration": 2.2838223875000025
        },
        {
          "name": "D4",
          "midi": 62,
          "time": 22.588223999999997,
          "velocity": 0.007874015748031496,
          "duration": 2.395587037500004
        },
        {
          "name": "D3",
          "midi": 50,
          "time": 25.411752000000003,
          "velocity": 0.007874015748031496,
          "duration": 5.129409200000001
        },
        {
          "name": "F#3",
          "midi": 54,
          "time": 25.411752000000003,
          "velocity": 0.007874015748031496,
          "duration": 5.185291525
        },
        {
          "name": "A3",
          "midi": 57,
          "time": 25.411752000000003,
          "velocity": 0.007874015748031496,
          "duration": 5.177938587500002
        }
      ],
      "controlChanges": {
        "6": [
          {
            "number": 6,
            "time": 0.9573524624999997,
            "value": 0.015748031496062992
          }
        ],
        "7": [
          {
            "number": 7,
            "time": 0.7823525499999998,
            "value": 0.8661417322834646
          }
        ],
        "10": [
          {
            "number": 10,
            "time": 0.7838231374999998,
            "value": 0.5039370078740157
          }
        ],
        "11": [
          {
            "number": 11,
            "time": 0.7852937249999997,
            "value": 1
          }
        ],
        "32": [
          {
            "number": 32,
            "time": 0.7794113749999999,
            "value": 0
          }
        ],
        "64": [
          {
            "number": 64,
            "time": 5.439703162499999,
            "value": 1
          },
          {
            "number": 64,
            "time": 8.385289924999999,
            "value": 0
          },
          {
            "number": 64,
            "time": 8.674995662499999,
            "value": 1
          },
          {
            "number": 64,
            "time": 11.222053212499999,
            "value": 0
          },
          {
            "number": 64,
            "time": 11.511758949999999,
            "value": 1
          },
          {
            "number": 64,
            "time": 14.0573459125,
            "value": 0
          },
          {
            "number": 64,
            "time": 14.266169337500001,
            "value": 1
          },
          {
            "number": 64,
            "time": 19.727931312499997,
            "value": 0
          },
          {
            "number": 64,
            "time": 19.966166487499997,
            "value": 1
          },
          {
            "number": 64,
            "time": 22.567635774999996,
            "value": 0
          },
          {
            "number": 64,
            "time": 22.8279297625,
            "value": 1
          },
          {
            "number": 64,
            "time": 25.373516725,
            "value": 0
          }
        ],
        "91": [
          {
            "number": 91,
            "time": 0.7867643124999997,
            "value": 0.4330708661417323
          }
        ],
        "93": [
          {
            "number": 93,
            "time": 0.7882348999999996,
            "value": 0
          }
        ],
        "100": [
          {
            "number": 100,
            "time": 0.9514701124999997,
            "value": 0
          },
          {
            "number": 100,
            "time": 0.9691171624999998,
            "value": 1
          }
        ],
        "101": [
          {
            "number": 101,
            "time": 0.9455877624999997,
            "value": 0
          },
          {
            "number": 101,
            "time": 0.9632348124999998,
            "value": 1
          }
        ]
      },
      "id": 10,
      "name": "Chords",
      "instrumentNumber": 0,
      "instrument": "acoustic grand piano",
      "instrumentFamily": "piano",
      "channelNumber": 15,
      "isPercussion": false
    }
  ]
}
