{"header":{"PPQ":480,"timeSignature":[4,4],"bpm":107.99991360006912,"name":""},"tempo":[{"absoluteTime":0,"seconds":0,"bpm":107.99991360006912},{"absoluteTime":17280,"seconds":20.000016000000016,"bpm":139.9998133335822},{"absoluteTime":20160,"seconds":23.333352000000016,"bpm":135.000135000135},{"absoluteTime":21120,"seconds":24.444464000000014,"bpm":139.9998133335822},{"absoluteTime":82560,"seconds":95.55563200000053,"bpm":139.9998133335822},{"absoluteTime":97920,"seconds":113.33342400000079,"bpm":143.5001602418456},{"absoluteTime":124800,"seconds":144.4445600000007,"bpm":139.9998133335822},{"absoluteTime":158040,"seconds":182.91681300000187,"bpm":279.9996266671644},{"absoluteTime":159360,"seconds":184.44459200000188,"bpm":175.00007291669704},{"absoluteTime":162240,"seconds":187.777928000002,"bpm":70.00023333411112},{"absoluteTime":163680,"seconds":189.44459600000198,"bpm":217.00054611804106},{"absoluteTime":166560,"seconds":192.77793200000195,"bpm":217.00054611804106},{"absoluteTime":228480,"seconds":264.4446560000019,"bpm":160},{"absoluteTime":233760,"seconds":270.5557720000021,"bpm":143.99988480009216},{"absoluteTime":418080,"seconds":483.8892759999997,"bpm":118.500026662506},{"absoluteTime":432960,"seconds":501.1115119999987,"bpm":200},{"absoluteTime":433440,"seconds":501.6670679999987,"bpm":109.99970666744889},{"absoluteTime":434160,"seconds":502.5004019999987,"bpm":100.00016666694445},{"absoluteTime":435360,"seconds":503.88929199999853,"bpm":120},{"absoluteTime":438240,"seconds":507.22262799999845,"bpm":100.00016666694445},{"absoluteTime":456480,"seconds":528.3337559999997,"bpm":200},{"absoluteTime":460320,"seconds":532.7782039999998,"bpm":200},{"absoluteTime":548640,"seconds":635.0005080000043,"bpm":100.00016666694445},{"absoluteTime":556320,"seconds":643.8894040000043,"bpm":100.00016666694445},{"absoluteTime":579360,"seconds":670.5560920000044,"bpm":200},{"absoluteTime":587040,"seconds":679.4449880000047,"bpm":200},{"absoluteTime":628560,"seconds":727.5005820000135,"bpm":450.0011250028125},{"absoluteTime":629520,"seconds":728.6116940000136,"bpm":200},{"absoluteTime":738000,"seconds":854.1673500000189,"bpm":349.9991250021875},{"absoluteTime":740880,"seconds":857.5006860000191,"bpm":200},{"absoluteTime":748560,"seconds":866.3895820000195,"bpm":200},{"absoluteTime":771600,"seconds":893.0562700000206,"bpm":100.00016666694445},{"absoluteTime":773520,"seconds":895.2784940000207,"bpm":200},{"absoluteTime":781200,"seconds":904.1673900000212,"bpm":200},{"absoluteTime":990000,"seconds":1145.8342500000192,"bpm":100.00016666694445},{"absoluteTime":990480,"seconds":1146.3898060000192,"bpm":139.9998133335822},{"absoluteTime":1121040,"seconds":1297.5010379999858,"bpm":130.00013000013},{"absoluteTime":1124880,"seconds":1301.9454859999842,"bpm":109.99970666744889},{"absoluteTime":1128720,"seconds":1306.3899339999834,"bpm":79.99978666723555}],"timeSignature":[{"absoluteTime":0,"seconds":0,"numerator":4,"denominator":2,"click":24,"notesQ":8},{"absoluteTime":161280,"seconds":186.66681600000197,"numerator":5,"denominator":2,"click":24,"notesQ":8},{"absoluteTime":163680,"seconds":189.44459600000198,"numerator":3,"denominator":2,"click":24,"notesQ":8},{"absoluteTime":166560,"seconds":192.77793200000195,"numerator":3,"denominator":2,"click":24,"notesQ":8},{"absoluteTime":229920,"seconds":266.11132400000196,"numerator":6,"denominator":2,"click":24,"notesQ":8},{"absoluteTime":232800,"seconds":269.4446600000021,"numerator":2,"denominator":2,"click":24,"notesQ":8},{"absoluteTime":233760,"seconds":270.5557720000021,"numerator":4,"denominator":2,"click":24,"notesQ":8},{"absoluteTime":435360,"seconds":503.88929199999853,"numerator":6,"denominator":2,"click":24,"notesQ":8},{"absoluteTime":438240,"seconds":507.22262799999845,"numerator":4,"denominator":2,"click":24,"notesQ":8},{"absoluteTime":455520,"seconds":527.2226439999996,"numerator":2,"denominator":2,"click":24,"notesQ":8},{"absoluteTime":456480,"seconds":528.3337559999997,"numerator":4,"denominator":2,"click":24,"notesQ":8},{"absoluteTime":460320,"seconds":532.7782039999998,"numerator":4,"denominator":2,"click":24,"notesQ":8},{"absoluteTime":627360,"seconds":726.1116920000136,"numerator":9,"denominator":3,"click":24,"notesQ":8},{"absoluteTime":629520,"seconds":728.6116940000136,"numerator":4,"denominator":2,"click":24,"notesQ":8},{"absoluteTime":737040,"seconds":853.0562380000189,"numerator":2,"denominator":2,"click":24,"notesQ":8},{"absoluteTime":738000,"seconds":854.1673500000189,"numerator":6,"denominator":2,"click":24,"notesQ":8},{"absoluteTime":740880,"seconds":857.5006860000191,"numerator":4,"denominator":2,"click":24,"notesQ":8},{"absoluteTime":748560,"seconds":866.3895820000195,"numerator":4,"denominator":2,"click":24,"notesQ":8}],"startTime":0,"duration":1312.7221149916656,"tracks":[{"startTime":0,"duration":1312.7221149916502,"length":6928,"notes":[{"name":"F#4","midi":66,"time":0,"velocity":0.6299212598425197,"duration":0.8321765916666667},{"name":"F#5","midi":78,"time":0.07291672500000002,"velocity":0.6299212598425197,"duration":0.7581024583333333},{"name":"D#5","midi":75,"time":0.833334,"velocity":0.6299212598425197,"duration":0.5266207916666665},{"name":"F5","midi":77,"time":1.38889,"velocity":0.6299212598425197,"duration":0.26273169166666666},{"name":"F#5","midi":78,"time":1.666668,"velocity":0.6299212598425197,"duration":0.1307871416666666},{"name":"G#5","midi":80,"time":1.805557,"velocity":0.6299212598425197,"duration":0.1307871416666666},{"name":"F#5","midi":78,"time":1.9444460000000001,"velocity":0.6299212598425197,"duration":0.1307871416666666},{"name":"F5","midi":77,"time":2.083335,"velocity":0.6299212598425197,"duration":0.1307871416666666},{"name":"F#5","midi":78,"time":2.2222239999999998,"velocity":0.6299212598425197,"duration":0.5266207916666668},{"name":"C#5","midi":73,"time":2.77778,"velocity":0.6299212598425197,"duration":0.5266207916666668},{"name":"A#5","midi":82,"time":3.333336,"velocity":0.6299212598425197,"duration":0.26273169166666666},{"name":"G#5","midi":80,"time":3.611114,"velocity":0.6299212598425197,"duration":0.26273169166666666},{"name":"F#5","midi":78,"time":3.8888920000000002,"velocity":0.6299212598425197,"duration":0.26273169166666666},{"name":"G#5","midi":80,"time":4.16667,"velocity":0.6299212598425197,"duration":0.26273169166666666},{"name":"F5","midi":77,"time":4.4444479999999995,"velocity":0.6299212598425197,"duration":0.3946762416666667},{"name":"D5","midi":74,"time":4.861115,"velocity":0.6299212598425197,"duration":0.3946762416666667},{"name":"B5","midi":83,"time":5.277782,"velocity":0.6299212598425197,"duration":0.26273169166666666},{"name":"A#5","midi":82,"time":5.55556,"velocity":0.6299212598425197,"duration":0.26273169166666666},{"name":"A#4","midi":70,"time":5.8333379999999995,"velocity":0.6299212598425197,"duration":0.26273169166666666},{"name":"G#5","midi":80,"time":6.111115999999999,"velocity":0.6299212598425197,"duration":0.26273169166666666},{"name":"G#4","midi":68,"time":6.388893999999999,"velocity":0.6299212598425197,"duration":0.26273169166666666},{"name":"F#5","midi":78,"time":6.666671999999998,"velocity":0.6299212598425197,"duration":0.5266207916666668},{"name":"F#4","midi":66,"time":7.2222279999999985,"velocity":0.6299212598425197,"duration":0.06481486666666658},{"name":"F#4","midi":66,"time":7.291672499999999,"velocity":0.6299212598425197,"duration":0.06481486666666658},{"name":"F#4","midi":66,"time":7.361116999999999,"velocity":0.6299212598425197,"duration":0.06481486666666658},{"name":"F#4","midi":66,"time":7.4305615,"velocity":0.6299212598425197,"duration":0.06481486666666658},{"name":"F#4","midi":66,"time":7.500006,"velocity":0.6299212598425197,"duration":0.06481486666666658},{"name":"F#4","midi":66,"time":7.5694505,"velocity":0.6299212598425197,"duration":0.06481486666666658},{"name":"F#4","midi":66,"time":7.638895000000001,"velocity":0.6299212598425197,"duration":0.06481486666666658},{"name":"F#4","midi":66,"time":7.708339500000001,"velocity":0.6299212598425197,"duration":0.06481486666666658},{"name":"G#5","midi":80,"time":7.777784000000001,"velocity":0.6299212598425197,"duration":0.5266207916666668},{"name":"A#5","midi":82,"time":8.333340000000002,"velocity":0.6299212598425197,"duration":0.5266207916666659},{"name":"D#5","midi":75,"time":8.888896,"velocity":0.6299212598425197,"duration":0.5266207916666659},{"name":"D#4","midi":63,"time":9.444452,"velocity":0.6299212598425197,"duration":0.06481486666666747},{"name":"D#4","midi":63,"time":9.513896500000001,"velocity":0.6299212598425197,"duration":0.06481486666666747},{"name":"D#4","midi":63,"time":9.583341000000003,"velocity":0.6299212598425197,"duration":0.06481486666666747},{"name":"D#4","midi":63,"time":9.652785500000004,"velocity":0.6299212598425197,"duration":0.06481486666666747},{"name":"D#4","midi":63,"time":9.722230000000005,"velocity":0.6299212598425197,"duration":0.06481486666666747},{"name":"D#4","midi":63,"time":9.791674500000006,"velocity":0.6299212598425197,"duration":0.06481486666666747},{"name":"D#4","midi":63,"time":9.861119000000008,"velocity":0.6299212598425197,"duration":0.06481486666666747},{"name":"D#4","midi":63,"time":9.930563500000009,"velocity":0.6299212598425197,"duration":0.06481486666666747},{"name":"F5","midi":77,"time":10.00000800000001,"velocity":0.6299212598425197,"duration":0.26273169166666754},{"name":"F4","midi":65,"time":10.277786000000011,"velocity":0.6299212598425197,"duration":0.26273169166666754},{"name":"F#5","midi":78,"time":10.555564000000013,"velocity":0.6299212598425197,"duration":0.26273169166666754},{"name":"F#4","midi":66,"time":10.833342000000014,"velocity":0.6299212598425197,"duration":0.26273169166666754},{"name":"F#5","midi":78,"time":11.111120000000016,"velocity":0.6299212598425197,"duration":0.790509891666666},{"name":"A#4","midi":70,"time":11.944454000000015,"velocity":0.6299212598425197,"duration":0.26273169166666577},{"name":"A#5","midi":82,"time":12.222232000000014,"velocity":0.6299212598425197,"duration":0.26273169166666754},{"name":"G#5","midi":80,"time":12.500010000000016,"velocity":0.6299212598425197,"duration":0.26273169166666754},{"name":"F#5","midi":78,"time":12.777788000000017,"velocity":0.6299212598425197,"duration":0.26273169166666754},{"name":"G#5","midi":80,"time":13.055566000000018,"velocity":0.6299212598425197,"duration":0.26273169166666754},{"name":"F5","midi":77,"time":13.33334400000002,"velocity":0.6299212598425197,"duration":0.790509891666666},{"name":"F5","midi":77,"time":14.166678000000019,"velocity":0.6299212598425197,"duration":0.08680562500000022},{"name":"F#5","midi":78,"time":14.259270666666685,"velocity":0.6299212598425197,"duration":0.08680562500000022},{"name":"F5","midi":77,"time":14.351863333333352,"velocity":0.6299212598425197,"duration":0.08680562500000022},{"name":"D#5","midi":75,"time":14.444456000000018,"velocity":0.6299212598425197,"duration":0.790509891666666},{"name":"D#5","midi":75,"time":15.277790000000017,"velocity":0.6299212598425197,"duration":0.08680562500000022},{"name":"F5","midi":77,"time":15.370382666666684,"velocity":0.6299212598425197,"duration":0.08680562500000022},{"name":"D#5","midi":75,"time":15.46297533333335,"velocity":0.6299212598425197,"duration":0.09143525833333399},{"name":"D5","midi":74,"time":15.555568000000017,"velocity":0.6299212598425197,"duration":6.332180991666666},{"name":"D5","midi":74,"time":22.222240000000017,"velocity":0.6299212598425197,"duration":1.054398991666666},{"name":"C5","midi":72,"time":23.333352000000016,"velocity":0.7559055118110236,"duration":0.2766205916666671},{"name":"D#5","midi":75,"time":23.333352000000016,"velocity":0.7559055118110236,"duration":0.2766205916666671},{"name":"D5","midi":74,"time":23.888908000000015,"velocity":0.8188976377952756,"duration":0.2766205916666671},{"name":"F5","midi":77,"time":23.888908000000015,"velocity":0.8188976377952756,"duration":0.2766205916666671},{"name":"F#4","midi":66,"time":24.444464000000014,"velocity":0.8818897637795275,"duration":0.5266207916666659},{"name":"F#5","midi":78,"time":24.444464000000014,"velocity":0.8818897637795275,"duration":0.5266207916666659},{"name":"D#4","midi":63,"time":25.000020000000013,"velocity":0.8818897637795275,"duration":0.26273169166666577},{"name":"D#5","midi":75,"time":25.000020000000013,"velocity":0.8818897637795275,"duration":0.26273169166666577},{"name":"A#3","midi":58,"time":25.27779800000001,"velocity":0.8818897637795275,"duration":0.26273169166666577},{"name":"A#4","midi":70,"time":25.27779800000001,"velocity":0.8818897637795275,"duration":0.26273169166666577},{"name":"C#4","midi":61,"time":25.55557600000001,"velocity":0.8818897637795275,"duration":0.13078714166666572},{"name":"C#5","midi":73,"time":25.55557600000001,"velocity":0.8818897637795275,"duration":0.13078714166666572},{"name":"D#4","midi":63,"time":25.694465000000008,"velocity":0.8818897637795275,"duration":0.13078714166666572},{"name":"D#5","midi":75,"time":25.694465000000008,"velocity":0.8818897637795275,"duration":0.13078714166666572},{"name":"F#4","midi":66,"time":25.972243000000006,"velocity":0.8818897637795275,"duration":0.3946762416666658},{"name":"F#5","midi":78,"time":25.972243000000006,"velocity":0.8818897637795275,"duration":0.3946762416666658},{"name":"D#4","midi":63,"time":26.388910000000006,"velocity":0.8818897637795275,"duration":0.26273169166666577},{"name":"D#5","midi":75,"time":26.388910000000006,"velocity":0.8818897637795275,"duration":0.26273169166666577},{"name":"C#5","midi":73,"time":26.666688000000004,"velocity":0.8818897637795275,"duration":0.3946762416666658},{"name":"C5","midi":72,"time":27.083355000000005,"velocity":0.8818897637795275,"duration":0.3946762416666658},{"name":"B4","midi":71,"time":27.500022000000005,"velocity":0.8818897637795275,"duration":0.26273169166666577},{"name":"A#4","midi":70,"time":27.777800000000003,"velocity":0.8818897637795275,"duration":0.17476865833333477},{"name":"A4","midi":69,"time":27.962985333333336,"velocity":0.8818897637795275,"duration":0.17476865833333477},{"name":"G#4","midi":68,"time":28.14817066666667,"velocity":0.8818897637795275,"duration":0.17476865833333477},{"name":"G4","midi":67,"time":28.333356000000002,"velocity":0.8818897637795275,"duration":0.17476865833333477},{"name":"F#4","midi":66,"time":28.518541333333335,"velocity":0.8818897637795275,"duration":0.17476865833333477},{"name":"F4","midi":65,"time":28.703726666666668,"velocity":0.8818897637795275,"duration":0.17476865833333477},{"name":"F4","midi":65,"time":28.888912,"velocity":0.8818897637795275,"duration":0.13078714166666572},{"name":"D4","midi":62,"time":29.027801,"velocity":0.8818897637795275,"duration":0.13078714166666572},{"name":"F#4","midi":66,"time":29.16669,"velocity":0.8818897637795275,"duration":0.13078714166666572},{"name":"G#4","midi":68,"time":29.305578999999998,"velocity":0.8818897637795275,"duration":0.13078714166666572},{"name":"A#4","midi":70,"time":29.722246,"velocity":0.8818897637795275,"duration":0.13078714166666572},{"name":"G#4","midi":68,"time":29.861134999999997,"velocity":0.8818897637795275,"duration":0.13078714166666572},{"name":"B4","midi":71,"time":30.000023999999996,"velocity":0.8818897637795275,"duration":0.13078714166666572},{"name":"C#5","midi":73,"time":30.138912999999995,"velocity":0.8818897637795275,"duration":0.13078714166666572},{"name":"B5","midi":83,"time":30.277801999999994,"velocity":0.8818897637795275,"duration":0.0648148666666657},{"name":"B5","midi":83,"time":30.347246499999994,"velocity":0.8818897637795275,"duration":0.0648148666666657},{"name":"B5","midi":83,"time":30.416690999999993,"velocity":0.8818897637795275,"duration":0.0648148666666657},{"name":"B5","midi":83,"time":30.486135499999993,"velocity":0.8818897637795275,"duration":0.0648148666666657},{"name":"B4","midi":71,"time":30.555579999999992,"velocity":0.8818897637795275,"duration":0.0648148666666657},{"name":"B5","midi":83,"time":30.555579999999992,"velocity":0.8818897637795275,"duration":0.0648148666666657},{"name":"B4","midi":71,"time":30.62502449999999,"velocity":0.8818897637795275,"duration":0.0648148666666657},{"name":"B5","midi":83,"time":30.62502449999999,"velocity":0.8818897637795275,"duration":0.0648148666666657},{"name":"B4","midi":71,"time":30.69446899999999,"velocity":0.8818897637795275,"duration":0.0648148666666657},{"name":"B5","midi":83,"time":30.69446899999999,"velocity":0.8818897637795275,"duration":0.0648148666666657},{"name":"B4","midi":71,"time":30.76391349999999,"velocity":0.8818897637795275,"duration":0.0648148666666657},{"name":"B5","midi":83,"time":30.76391349999999,"velocity":0.8818897637795275,"duration":0.0648148666666657},{"name":"B4","midi":71,"time":30.83335799999999,"velocity":0.8818897637795275,"duration":0.0648148666666657},{"name":"B5","midi":83,"time":30.83335799999999,"velocity":0.8818897637795275,"duration":0.0648148666666657},{"name":"B4","midi":71,"time":30.90280249999999,"velocity":0.8818897637795275,"duration":0.0648148666666657},{"name":"B5","midi":83,"time":30.90280249999999,"velocity":0.8818897637795275,"duration":0.0648148666666657},{"name":"B4","midi":71,"time":30.97224699999999,"velocity":0.8818897637795275,"duration":0.0648148666666657},{"name":"B5","midi":83,"time":30.97224699999999,"velocity":0.8818897637795275,"duration":0.0648148666666657},{"name":"B4","midi":71,"time":31.04169149999999,"velocity":0.8818897637795275,"duration":0.0648148666666657},{"name":"B5","midi":83,"time":31.04169149999999,"velocity":0.8818897637795275,"duration":0.0648148666666657},{"name":"A#5","midi":82,"time":31.111135999999988,"velocity":0.8818897637795275,"duration":0.3946762416666658},{"name":"G#5","midi":80,"time":31.527802999999988,"velocity":0.8818897637795275,"duration":0.3946762416666658},{"name":"F#5","midi":78,"time":31.94446999999999,"velocity":0.8818897637795275,"duration":0.13078714166666572},{"name":"G#5","midi":80,"time":32.08335899999999,"velocity":0.8818897637795275,"duration":0.26273169166666577},{"name":"A5","midi":81,"time":32.361136999999985,"velocity":0.8818897637795275,"duration":0.13078714166666572},{"name":"G#5","midi":80,"time":32.500025999999984,"velocity":0.8818897637795275,"duration":0.13078714166666572},{"name":"F#5","midi":78,"time":32.63891499999998,"velocity":0.8818897637795275,"duration":0.13078714166666572},{"name":"G#5","midi":80,"time":32.77780399999998,"velocity":0.8818897637795275,"duration":0.1377315916666646},{"name":"A#5","midi":82,"time":33.05558199999998,"velocity":0.8818897637795275,"duration":0.1377315916666646},{"name":"F#4","midi":66,"time":33.33335999999998,"velocity":0.8818897637795275,"duration":0.3946762416666658},{"name":"F#5","midi":78,"time":33.33335999999998,"velocity":0.8818897637795275,"duration":0.3946762416666658},{"name":"F#2","midi":42,"time":33.750026999999974,"velocity":0.8818897637795275,"duration":0.3946762416666658},{"name":"F#3","midi":54,"time":33.750026999999974,"velocity":0.8818897637795275,"duration":0.3946762416666658},{"name":"B2","midi":47,"time":34.16669399999997,"velocity":0.8818897637795275,"duration":0.3946762416666658},{"name":"B3","midi":59,"time":34.16669399999997,"velocity":0.8818897637795275,"duration":0.3946762416666658},{"name":"F#3","midi":54,"time":34.58336099999997,"velocity":0.8818897637795275,"duration":0.3946762416666658},{"name":"F#4","midi":66,"time":34.58336099999997,"velocity":0.8818897637795275,"duration":0.3946762416666658},{"name":"B3","midi":59,"time":35.000027999999965,"velocity":0.8818897637795275,"duration":0.3946762416666658},{"name":"B4","midi":71,"time":35.000027999999965,"velocity":0.8818897637795275,"duration":0.3946762416666658},{"name":"D#4","midi":63,"time":35.41669499999996,"velocity":0.8818897637795275,"duration":0.13078714166666572},{"name":"D#5","midi":75,"time":35.41669499999996,"velocity":0.8818897637795275,"duration":0.13078714166666572},{"name":"C#4","midi":61,"time":35.55558399999996,"velocity":0.8818897637795275,"duration":0.26273169166666577},{"name":"C#5","midi":73,"time":35.55558399999996,"velocity":0.8818897637795275,"duration":0.26273169166666577},{"name":"B4","midi":71,"time":35.83336199999996,"velocity":0.8818897637795275,"duration":0.26273169166666577},{"name":"B5","midi":83,"time":35.83336199999996,"velocity":0.8818897637795275,"duration":0.26273169166666577},{"name":"A#4","midi":70,"time":36.111139999999956,"velocity":0.8818897637795275,"duration":0.26273169166666577},{"name":"A#5","midi":82,"time":36.111139999999956,"velocity":0.8818897637795275,"duration":0.26273169166666577},{"name":"G#4","midi":68,"time":36.388917999999954,"velocity":0.8818897637795275,"duration":0.0648148666666657},{"name":"G#5","midi":80,"time":36.388917999999954,"velocity":0.8818897637795275,"duration":0.0648148666666657},{"name":"A#4","midi":70,"time":36.45836249999995,"velocity":0.8818897637795275,"duration":0.0648148666666657},{"name":"A#5","midi":82,"time":36.45836249999995,"velocity":0.8818897637795275,"duration":0.0648148666666657},{"name":"G#4","midi":68,"time":36.527806999999946,"velocity":0.8818897637795275,"duration":0.13078714166666572},{"name":"G#5","midi":80,"time":36.527806999999946,"velocity":0.8818897637795275,"duration":0.13078714166666572},{"name":"F#4","midi":66,"time":36.666695999999945,"velocity":0.8818897637795275,"duration":0.26273169166666577},{"name":"F#5","midi":78,"time":36.666695999999945,"velocity":0.8818897637795275,"duration":0.26273169166666577},{"name":"F#3","midi":54,"time":36.94447399999994,"velocity":0.8818897637795275,"duration":0.26273169166666577},{"name":"F#4","midi":66,"time":36.94447399999994,"velocity":0.8818897637795275,"duration":0.26273169166666577},{"name":"G#4","midi":68,"time":37.22225199999994,"velocity":0.8818897637795275,"duration":0.26273169166666577},{"name":"G#5","midi":80,"time":37.22225199999994,"velocity":0.8818897637795275,"duration":0.26273169166666577},{"name":"G#3","midi":56,"time":37.50002999999994,"velocity":0.8818897637795275,"duration":0.26273169166666577},{"name":"G#4","midi":68,"time":37.50002999999994,"velocity":0.8818897637795275,"duration":0.26273169166666577},{"name":"A#4","midi":70,"time":37.777807999999936,"velocity":0.8818897637795275,"duration":0.26273169166666577},{"name":"A#5","midi":82,"time":37.777807999999936,"velocity":0.8818897637795275,"duration":0.26273169166666577},{"name":"A#3","midi":58,"time":38.055585999999934,"velocity":0.8818897637795275,"duration":0.26273169166666577},{"name":"A#4","midi":70,"time":38.055585999999934,"velocity":0.8818897637795275,"duration":0.26273169166666577},{"name":"D4","midi":62,"time":38.33336399999993,"velocity":0.8818897637795275,"duration":0.26273169166666577},{"name":"D5","midi":74,"time":38.33336399999993,"velocity":0.8818897637795275,"duration":0.26273169166666577},{"name":"A#3","midi":58,"time":38.61114199999993,"velocity":0.8818897637795275,"duration":0.26273169166666577},{"name":"A#4","midi":70,"time":38.61114199999993,"velocity":0.8818897637795275,"duration":0.26273169166666577},{"name":"F4","midi":65,"time":38.88891999999993,"velocity":0.8818897637795275,"duration":0.26273169166666577},{"name":"F5","midi":77,"time":38.88891999999993,"velocity":0.8818897637795275,"duration":0.26273169166666577},{"name":"D4","midi":62,"time":39.166697999999926,"velocity":0.8818897637795275,"duration":0.26273169166666577},{"name":"D5","midi":74,"time":39.166697999999926,"velocity":0.8818897637795275,"duration":0.26273169166666577},{"name":"C#5","midi":73,"time":39.44447599999992,"velocity":0.8818897637795275,"duration":0.26273169166666577},{"name":"C#6","midi":85,"time":39.44447599999992,"velocity":0.8818897637795275,"duration":0.26273169166666577},{"name":"B4","midi":71,"time":39.72225399999992,"velocity":0.8818897637795275,"duration":0.0648148666666657},{"name":"B5","midi":83,"time":39.72225399999992,"velocity":0.8818897637795275,"duration":0.0648148666666657},{"name":"C#5","midi":73,"time":39.79169849999992,"velocity":0.8818897637795275,"duration":0.0648148666666657},{"name":"C#6","midi":85,"time":39.79169849999992,"velocity":0.8818897637795275,"duration":0.0648148666666657},{"name":"B4","midi":71,"time":39.86114299999991,"velocity":0.8818897637795275,"duration":0.13078714166666572},{"name":"B5","midi":83,"time":39.86114299999991,"velocity":0.8818897637795275,"duration":0.13078714166666572},{"name":"A#4","midi":70,"time":40.00003199999991,"velocity":0.8818897637795275,"duration":0.3946762416666658},{"name":"A#5","midi":82,"time":40.00003199999991,"velocity":0.8818897637795275,"duration":0.3946762416666658},{"name":"A#3","midi":58,"time":40.41669899999991,"velocity":0.8818897637795275,"duration":0.6585653416666659},{"name":"A#4","midi":70,"time":40.41669899999991,"velocity":0.8818897637795275,"duration":0.6585653416666659},{"name":"A#4","midi":70,"time":41.666699999999906,"velocity":0.8818897637795275,"duration":0.26273169166666577},{"name":"A#5","midi":82,"time":41.666699999999906,"velocity":0.8818897637795275,"duration":0.26273169166666577},{"name":"C#5","midi":73,"time":41.944477999999904,"velocity":0.8818897637795275,"duration":0.13078714166666572},{"name":"C#6","midi":85,"time":41.944477999999904,"velocity":0.8818897637795275,"duration":0.13078714166666572},{"name":"A#4","midi":70,"time":42.0833669999999,"velocity":0.8818897637795275,"duration":0.1377315916666646},{"name":"A#5","midi":82,"time":42.0833669999999,"velocity":0.8818897637795275,"duration":0.1377315916666646},{"name":"C#6","midi":85,"time":42.2222559999999,"velocity":0.8818897637795275,"duration":0.13078714166666572},{"name":"D#6","midi":87,"time":42.3611449999999,"velocity":0.8818897637795275,"duration":0.13078714166666572},{"name":"A#5","midi":82,"time":42.5000339999999,"velocity":0.8818897637795275,"duration":0.13078714166666572},{"name":"C#6","midi":85,"time":42.6389229999999,"velocity":0.8818897637795275,"duration":0.26273169166666577},{"name":"A#5","midi":82,"time":42.9167009999999,"velocity":0.8818897637795275,"duration":0.13078714166666572},{"name":"F#5","midi":78,"time":43.055589999999896,"velocity":0.8818897637795275,"duration":0.13078714166666572},{"name":"G#5","midi":80,"time":43.194478999999895,"velocity":0.8818897637795275,"duration":0.13078714166666572},{"name":"F#5","midi":78,"time":43.33336799999989,"velocity":0.8818897637795275,"duration":0.26273169166666577},{"name":"D#5","midi":75,"time":43.61114599999989,"velocity":0.8818897637795275,"duration":0.13078714166666572},{"name":"C#5","midi":73,"time":43.75003499999989,"velocity":0.8818897637795275,"duration":0.13078714166666572},{"name":"A#4","midi":70,"time":43.88892399999989,"velocity":0.8818897637795275,"duration":0.13078714166666572},{"name":"C#5","midi":73,"time":44.02781299999989,"velocity":0.8818897637795275,"duration":0.26273169166666577},{"name":"A#4","midi":70,"time":44.305590999999886,"velocity":0.8818897637795275,"duration":0.13078714166666572},{"name":"G#4","midi":68,"time":44.444479999999885,"velocity":0.8818897637795275,"duration":0.13078714166666572},{"name":"F#4","midi":66,"time":44.583368999999884,"velocity":0.8818897637795275,"duration":0.13078714166666572},{"name":"A#4","midi":70,"time":44.72225799999988,"velocity":0.8818897637795275,"duration":0.3946762416666658},{"name":"G#4","midi":68,"time":45.13892499999988,"velocity":0.8818897637795275,"duration":0.13078714166666572},{"name":"F#4","midi":66,"time":45.27781399999988,"velocity":0.8818897637795275,"duration":0.13078714166666572},{"name":"A4","midi":69,"time":45.41670299999988,"velocity":0.8818897637795275,"duration":0.3946762416666658},{"name":"G#4","midi":68,"time":45.833369999999874,"velocity":0.8818897637795275,"duration":0.13078714166666572},{"name":"F#4","midi":66,"time":45.97225899999987,"velocity":0.8818897637795275,"duration":0.13078714166666572},{"name":"G#4","midi":68,"time":46.11114799999987,"velocity":0.8818897637795275,"duration":0.13078714166666572},{"name":"A4","midi":69,"time":46.25003699999987,"velocity":0.8818897637795275,"duration":0.13078714166666572},{"name":"G#4","midi":68,"time":46.38892599999987,"velocity":0.8818897637795275,"duration":0.13078714166666572},{"name":"F#4","midi":66,"time":46.52781499999987,"velocity":0.8818897637795275,"duration":0.13078714166666572},{"name":"C#4","midi":61,"time":46.66670399999987,"velocity":0.8818897637795275,"duration":0.13078714166666572},{"name":"C#5","midi":73,"time":46.66670399999987,"velocity":0.8818897637795275,"duration":0.13078714166666572},{"name":"C#5","midi":73,"time":46.80559299999987,"velocity":0.8818897637795275,"duration":0.13078714166666572},{"name":"C#6","midi":85,"time":46.80559299999987,"velocity":0.8818897637795275,"duration":0.13078714166666572},{"name":"A#3","midi":58,"time":47.083370999999865,"velocity":0.8818897637795275,"duration":0.13078714166666572},{"name":"A#4","midi":70,"time":47.083370999999865,"velocity":0.8818897637795275,"duration":0.13078714166666572},{"name":"D#5","midi":75,"time":47.222259999999864,"velocity":0.8818897637795275,"duration":0.13078714166666572},{"name":"A#5","midi":82,"time":47.222259999999864,"velocity":0.8818897637795275,"duration":0.13078714166666572},{"name":"D#6","midi":87,"time":47.222259999999864,"velocity":0.8818897637795275,"duration":0.13078714166666572},{"name":"A#6","midi":94,"time":47.222259999999864,"velocity":0.8818897637795275,"duration":0.13078714166666572},{"name":"A#3","midi":58,"time":47.50003799999986,"velocity":0.8818897637795275,"duration":0.13078714166666572},{"name":"A#4","midi":70,"time":47.50003799999986,"velocity":0.8818897637795275,"duration":0.13078714166666572},{"name":"D#3","midi":51,"time":47.63892699999986,"velocity":0.8818897637795275,"duration":0.13078714166666572},{"name":"D#4","midi":63,"time":47.63892699999986,"velocity":0.8818897637795275,"duration":0.13078714166666572},{"name":"C#3","midi":49,"time":47.77781599999986,"velocity":0.8818897637795275,"duration":0.13078714166666572},{"name":"C#4","midi":61,"time":47.77781599999986,"velocity":0.8818897637795275,"duration":0.13078714166666572},{"name":"D#3","midi":51,"time":47.91670499999986,"velocity":0.8818897637795275,"duration":0.13078714166666572},{"name":"D#4","midi":63,"time":47.91670499999986,"velocity":0.8818897637795275,"duration":0.13078714166666572},{"name":"A#3","midi":58,"time":48.05559399999986,"velocity":0.8818897637795275,"duration":0.13078714166666572},{"name":"A#4","midi":70,"time":48.05559399999986,"velocity":0.8818897637795275,"duration":0.13078714166666572},{"name":"C#4","midi":61,"time":48.194482999999856,"velocity":0.8818897637795275,"duration":0.13078714166666572},{"name":"C#5","midi":73,"time":48.194482999999856,"velocity":0.8818897637795275,"duration":0.13078714166666572},{"name":"D#4","midi":63,"time":48.333371999999855,"velocity":0.8818897637795275,"duration":0.26273169166666577},{"name":"D#5","midi":75,"time":48.333371999999855,"velocity":0.8818897637795275,"duration":0.26273169166666577},{"name":"F#4","midi":66,"time":48.61114999999985,"velocity":0.8818897637795275,"duration":0.26273169166666577},{"name":"F#5","midi":78,"time":48.61114999999985,"velocity":0.8818897637795275,"duration":0.26273169166666577},{"name":"D#4","midi":63,"time":48.88892799999985,"velocity":0.8818897637795275,"duration":0.13078714166666572},{"name":"D#5","midi":75,"time":48.88892799999985,"velocity":0.8818897637795275,"duration":0.13078714166666572},{"name":"E4","midi":64,"time":49.02781699999985,"velocity":0.8818897637795275,"duration":0.3946762416666658},{"name":"E5","midi":76,"time":49.02781699999985,"velocity":0.8818897637795275,"duration":0.3946762416666658},{"name":"B3","midi":59,"time":49.444483999999846,"velocity":0.8818897637795275,"duration":0.1377315916666646},{"name":"B4","midi":71,"time":49.444483999999846,"velocity":0.8818897637795275,"duration":0.1377315916666646},{"name":"G#4","midi":68,"time":49.722261999999844,"velocity":0.8818897637795275,"duration":0.1377315916666646},{"name":"G#5","midi":80,"time":49.722261999999844,"velocity":0.8818897637795275,"duration":0.1377315916666646},{"name":"E4","midi":64,"time":50.00003999999984,"velocity":0.8818897637795275,"duration":0.1377315916666646},{"name":"E5","midi":76,"time":50.00003999999984,"velocity":0.8818897637795275,"duration":0.1377315916666646},{"name":"B4","midi":71,"time":50.27781799999984,"velocity":0.8818897637795275,"duration":0.1377315916666646},{"name":"B5","midi":83,"time":50.27781799999984,"velocity":0.8818897637795275,"duration":0.1377315916666646},{"name":"G#4","midi":68,"time":50.55559599999984,"velocity":0.8818897637795275,"duration":0.1377315916666646},{"name":"G#5","midi":80,"time":50.55559599999984,"velocity":0.8818897637795275,"duration":0.1377315916666646},{"name":"E5","midi":76,"time":50.833373999999836,"velocity":0.8818897637795275,"duration":0.1377315916666646},{"name":"E6","midi":88,"time":50.833373999999836,"velocity":0.8818897637795275,"duration":0.1377315916666646},{"name":"D#4","midi":63,"time":51.111151999999834,"velocity":0.8818897637795275,"duration":0.3946762416666658},{"name":"A#4","midi":70,"time":51.111151999999834,"velocity":0.8818897637795275,"duration":0.3946762416666658},{"name":"D#5","midi":75,"time":51.111151999999834,"velocity":0.8818897637795275,"duration":0.3946762416666658},{"name":"A#5","midi":82,"time":51.111151999999834,"velocity":0.8818897637795275,"duration":0.3946762416666658},{"name":"D#6","midi":87,"time":51.111151999999834,"velocity":0.8818897637795275,"duration":0.3946762416666658},{"name":"D#4","midi":63,"time":51.52781899999983,"velocity":0.8818897637795275,"duration":0.13078714166666572},{"name":"D#4","midi":63,"time":51.66670799999983,"velocity":0.8818897637795275,"duration":0.26273169166666577},{"name":"C#4","midi":61,"time":51.94448599999983,"velocity":0.8818897637795275,"duration":0.13078714166666572},{"name":"D#4","midi":63,"time":52.083374999999826,"velocity":0.8818897637795275,"duration":0.13078714166666572},{"name":"F#4","midi":66,"time":52.222263999999825,"velocity":0.8818897637795275,"duration":0.26273169166666577},{"name":"A#3","midi":58,"time":52.50004199999982,"velocity":0.8818897637795275,"duration":0.26273169166666577},{"name":"F4","midi":65,"time":52.50004199999982,"velocity":0.8818897637795275,"duration":0.26273169166666577},{"name":"C#4","midi":61,"time":52.77781999999982,"velocity":0.8818897637795275,"duration":0.26273169166666577},{"name":"F#4","midi":66,"time":52.77781999999982,"velocity":0.8818897637795275,"duration":0.26273169166666577},{"name":"D#4","midi":63,"time":53.05559799999982,"velocity":0.8818897637795275,"duration":0.13078714166666572},{"name":"A#4","midi":70,"time":53.05559799999982,"velocity":0.8818897637795275,"duration":0.13078714166666572},{"name":"F4","midi":65,"time":53.19448699999982,"velocity":0.8818897637795275,"duration":0.13078714166666572},{"name":"G#4","midi":68,"time":53.19448699999982,"velocity":0.8818897637795275,"duration":0.13078714166666572},{"name":"F5","midi":77,"time":53.19448699999982,"velocity":0.8818897637795275,"duration":0.13078714166666572},{"name":"F4","midi":65,"time":53.33337599999982,"velocity":0.8818897637795275,"duration":0.3946762416666658},{"name":"G#4","midi":68,"time":53.33337599999982,"velocity":0.8818897637795275,"duration":0.3946762416666658},{"name":"F5","midi":77,"time":53.33337599999982,"velocity":0.8818897637795275,"duration":0.3946762416666658},{"name":"F#4","midi":66,"time":53.75004299999981,"velocity":0.8818897637795275,"duration":0.0648148666666657},{"name":"A4","midi":69,"time":53.75004299999981,"velocity":0.8818897637795275,"duration":0.0648148666666657},{"name":"F#5","midi":78,"time":53.75004299999981,"velocity":0.8818897637795275,"duration":0.0648148666666657},{"name":"F4","midi":65,"time":53.81948749999981,"velocity":0.8818897637795275,"duration":0.0648148666666657},{"name":"G#4","midi":68,"time":53.81948749999981,"velocity":0.8818897637795275,"duration":0.0648148666666657},{"name":"F5","midi":77,"time":53.81948749999981,"velocity":0.8818897637795275,"duration":0.0648148666666657},{"name":"D#4","midi":63,"time":53.888931999999805,"velocity":0.8818897637795275,"duration":0.5266207916666659},{"name":"F#4","midi":66,"time":53.888931999999805,"velocity":0.8818897637795275,"duration":0.5266207916666659},{"name":"D#5","midi":75,"time":53.888931999999805,"velocity":0.8818897637795275,"duration":0.5266207916666659},{"name":"G#4","midi":68,"time":54.4444879999998,"velocity":0.8818897637795275,"duration":0.5266207916666659},{"name":"C#5","midi":73,"time":54.4444879999998,"velocity":0.8818897637795275,"duration":0.5266207916666659},{"name":"G#5","midi":80,"time":54.4444879999998,"velocity":0.8818897637795275,"duration":0.5266207916666659},{"name":"F#4","midi":66,"time":55.0000439999998,"velocity":0.8818897637795275,"duration":0.3946762416666658},{"name":"B4","midi":71,"time":55.0000439999998,"velocity":0.8818897637795275,"duration":0.3946762416666658},{"name":"F#5","midi":78,"time":55.0000439999998,"velocity":0.8818897637795275,"duration":0.3946762416666658},{"name":"G#4","midi":68,"time":55.41671099999979,"velocity":0.8818897637795275,"duration":0.0648148666666657},{"name":"C#5","midi":73,"time":55.41671099999979,"velocity":0.8818897637795275,"duration":0.0648148666666657},{"name":"G#5","midi":80,"time":55.41671099999979,"velocity":0.8818897637795275,"duration":0.0648148666666657},{"name":"F#4","midi":66,"time":55.48615549999979,"velocity":0.8818897637795275,"duration":0.0648148666666657},{"name":"B4","midi":71,"time":55.48615549999979,"velocity":0.8818897637795275,"duration":0.0648148666666657},{"name":"F#5","midi":78,"time":55.48615549999979,"velocity":0.8818897637795275,"duration":0.0648148666666657},{"name":"F4","midi":65,"time":55.555599999999785,"velocity":0.8818897637795275,"duration":1.6377327916666644},{"name":"A#4","midi":70,"time":55.555599999999785,"velocity":0.8818897637795275,"duration":1.0821767916666687},{"name":"F5","midi":77,"time":55.555599999999785,"velocity":0.8818897637795275,"duration":1.6377327916666644},{"name":"A#3","midi":58,"time":56.11115599999979,"velocity":0.8818897637795275,"duration":0.5266207916666659},{"name":"D4","midi":62,"time":56.11115599999979,"velocity":0.8818897637795275,"duration":0.5266207916666659},{"name":"A#4","midi":70,"time":56.11115599999979,"velocity":0.8818897637795275,"duration":1.5543993916666565},{"name":"F4","midi":65,"time":56.666711999999784,"velocity":0.8818897637795275,"duration":0.9988433916666608},{"name":"D5","midi":74,"time":56.666711999999784,"velocity":0.8818897637795275,"duration":0.5266207916666659},{"name":"F5","midi":77,"time":56.666711999999784,"velocity":0.8818897637795275,"duration":0.8182876916666615},{"name":"B4","midi":71,"time":57.22226799999978,"velocity":0.8818897637795275,"duration":0.26273169166666577},{"name":"F5","midi":77,"time":57.22226799999978,"velocity":0.8818897637795275,"duration":0.4432873916666651},{"name":"B5","midi":83,"time":57.22226799999978,"velocity":0.8818897637795275,"duration":0.26273169166666577},{"name":"A#3","midi":58,"time":57.50004599999978,"velocity":0.8818897637795275,"duration":0.26273169166666577},{"name":"F4","midi":65,"time":57.50004599999978,"velocity":0.8818897637795275,"duration":0.26273169166666577},{"name":"A#4","midi":70,"time":57.50004599999978,"velocity":0.8818897637795275,"duration":0.26273169166666577},{"name":"F5","midi":77,"time":57.777823999999775,"velocity":0.8818897637795275,"duration":0.1377315916666646},{"name":"A#5","midi":82,"time":57.777823999999775,"velocity":0.8818897637795275,"duration":0.1377315916666646},{"name":"F6","midi":89,"time":57.777823999999775,"velocity":0.8818897637795275,"duration":0.1377315916666646},{"name":"F5","midi":77,"time":58.05560199999977,"velocity":0.8818897637795275,"duration":0.1377315916666646},{"name":"A#5","midi":82,"time":58.05560199999977,"velocity":0.8818897637795275,"duration":0.1377315916666646},{"name":"F6","midi":89,"time":58.05560199999977,"velocity":0.8818897637795275,"duration":0.1377315916666646},{"name":"F5","midi":77,"time":58.33337999999977,"velocity":0.8818897637795275,"duration":0.13078714166666572},{"name":"A#5","midi":82,"time":58.33337999999977,"velocity":0.8818897637795275,"duration":0.13078714166666572},{"name":"F6","midi":89,"time":58.33337999999977,"velocity":0.8818897637795275,"duration":0.13078714166666572},{"name":"F5","midi":77,"time":58.47226899999977,"velocity":0.8818897637795275,"duration":0.13078714166666572},{"name":"A#5","midi":82,"time":58.47226899999977,"velocity":0.8818897637795275,"duration":0.13078714166666572},{"name":"F6","midi":89,"time":58.47226899999977,"velocity":0.8818897637795275,"duration":0.13078714166666572},{"name":"F5","midi":77,"time":58.61115799999977,"velocity":0.8818897637795275,"duration":0.13078714166666572},{"name":"A#5","midi":82,"time":58.61115799999977,"velocity":0.8818897637795275,"duration":0.13078714166666572},{"name":"F6","midi":89,"time":58.61115799999977,"velocity":0.8818897637795275,"duration":0.13078714166666572},{"name":"F5","midi":77,"time":58.75004699999977,"velocity":0.8818897637795275,"duration":0.13078714166666572},{"name":"A#5","midi":82,"time":58.75004699999977,"velocity":0.8818897637795275,"duration":0.13078714166666572},{"name":"F6","midi":89,"time":58.75004699999977,"velocity":0.8818897637795275,"duration":0.13078714166666572},{"name":"F5","midi":77,"time":59.027824999999766,"velocity":0.8818897637795275,"duration":0.13078714166666572},{"name":"A#5","midi":82,"time":59.027824999999766,"velocity":0.8818897637795275,"duration":0.13078714166666572},{"name":"F6","midi":89,"time":59.027824999999766,"velocity":0.8818897637795275,"duration":0.13078714166666572},{"name":"F5","midi":77,"time":59.30560299999976,"velocity":0.8818897637795275,"duration":0.13078714166666572},{"name":"A#5","midi":82,"time":59.30560299999976,"velocity":0.8818897637795275,"duration":0.13078714166666572},{"name":"F6","midi":89,"time":59.30560299999976,"velocity":0.8818897637795275,"duration":0.13078714166666572},{"name":"F5","midi":77,"time":59.44449199999976,"velocity":0.8818897637795275,"duration":0.13078714166666572},{"name":"A#5","midi":82,"time":59.44449199999976,"velocity":0.8818897637795275,"duration":0.13078714166666572},{"name":"F6","midi":89,"time":59.44449199999976,"velocity":0.8818897637795275,"duration":0.13078714166666572},{"name":"F5","midi":77,"time":59.58338099999976,"velocity":0.8818897637795275,"duration":0.13078714166666572},{"name":"A#5","midi":82,"time":59.58338099999976,"velocity":0.8818897637795275,"duration":0.13078714166666572},{"name":"F6","midi":89,"time":59.58338099999976,"velocity":0.8818897637795275,"duration":0.13078714166666572},{"name":"F5","midi":77,"time":59.72226999999976,"velocity":0.8818897637795275,"duration":0.1377315916666646},{"name":"A#5","midi":82,"time":59.72226999999976,"velocity":0.8818897637795275,"duration":0.1377315916666646},{"name":"F6","midi":89,"time":59.72226999999976,"velocity":0.8818897637795275,"duration":0.1377315916666646},{"name":"D#5","midi":75,"time":60.00004799999976,"velocity":0.8818897637795275,"duration":0.3946762416666658},{"name":"D#6","midi":87,"time":60.00004799999976,"velocity":0.8818897637795275,"duration":0.3946762416666658},{"name":"D#4","midi":63,"time":60.416714999999755,"velocity":0.8818897637795275,"duration":0.13078714166666572},{"name":"D#5","midi":75,"time":60.416714999999755,"velocity":0.8818897637795275,"duration":0.13078714166666572},{"name":"C#5","midi":73,"time":60.555603999999754,"velocity":0.8818897637795275,"duration":0.13078714166666572},{"name":"C#6","midi":85,"time":60.555603999999754,"velocity":0.8818897637795275,"duration":0.13078714166666572},{"name":"D#5","midi":75,"time":60.69449299999975,"velocity":0.8818897637795275,"duration":0.1377315916666646},{"name":"D#6","midi":87,"time":60.69449299999975,"velocity":0.8818897637795275,"duration":0.1377315916666646},{"name":"F#5","midi":78,"time":60.97227099999975,"velocity":0.8818897637795275,"duration":0.26273169166666577},{"name":"F#6","midi":90,"time":60.97227099999975,"velocity":0.8818897637795275,"duration":0.26273169166666577},{"name":"D#5","midi":75,"time":61.25004899999975,"velocity":0.8818897637795275,"duration":0.26273169166666577},{"name":"D#6","midi":87,"time":61.25004899999975,"velocity":0.8818897637795275,"duration":0.26273169166666577},{"name":"D#5","midi":75,"time":61.527826999999746,"velocity":0.8818897637795275,"duration":0.26273169166666577},{"name":"D#6","midi":87,"time":61.527826999999746,"velocity":0.8818897637795275,"duration":0.26273169166666577},{"name":"C#5","midi":73,"time":61.805604999999744,"velocity":0.8818897637795275,"duration":0.13078714166666572},{"name":"C#6","midi":85,"time":61.805604999999744,"velocity":0.8818897637795275,"duration":0.13078714166666572},{"name":"B4","midi":71,"time":61.94449399999974,"velocity":0.8818897637795275,"duration":0.13078714166666572},{"name":"B5","midi":83,"time":61.94449399999974,"velocity":0.8818897637795275,"duration":0.13078714166666572},{"name":"G#4","midi":68,"time":62.08338299999974,"velocity":0.8818897637795275,"duration":0.13078714166666572},{"name":"G#5","midi":80,"time":62.08338299999974,"velocity":0.8818897637795275,"duration":0.13078714166666572},{"name":"C#5","midi":73,"time":62.22227199999974,"velocity":0.8818897637795275,"duration":0.26273169166666577},{"name":"C#6","midi":85,"time":62.22227199999974,"velocity":0.8818897637795275,"duration":0.26273169166666577},{"name":"C#4","midi":61,"time":62.50004999999974,"velocity":0.8818897637795275,"duration":0.13078714166666572},{"name":"C#5","midi":73,"time":62.50004999999974,"velocity":0.8818897637795275,"duration":0.13078714166666572},{"name":"C5","midi":72,"time":62.63893899999974,"velocity":0.8818897637795275,"duration":0.3946762416666658},{"name":"C6","midi":84,"time":62.63893899999974,"velocity":0.8818897637795275,"duration":0.3946762416666658},{"name":"B4","midi":71,"time":63.055605999999734,"velocity":0.8818897637795275,"duration":0.26273169166666577},{"name":"B5","midi":83,"time":63.055605999999734,"velocity":0.8818897637795275,"duration":0.26273169166666577},{"name":"B3","midi":59,"time":63.33338399999973,"velocity":0.8818897637795275,"duration":0.13078714166666572},{"name":"B4","midi":71,"time":63.33338399999973,"velocity":0.8818897637795275,"duration":0.13078714166666572},{"name":"A#4","midi":70,"time":63.47227299999973,"velocity":0.8818897637795275,"duration":0.3946762416666658},{"name":"A#5","midi":82,"time":63.47227299999973,"velocity":0.8818897637795275,"duration":0.3946762416666658},{"name":"D#4","midi":63,"time":63.88893999999973,"velocity":0.8818897637795275,"duration":0.26273169166666577},{"name":"D#5","midi":75,"time":63.88893999999973,"velocity":0.8818897637795275,"duration":0.26273169166666577},{"name":"D#4","midi":63,"time":64.16671799999973,"velocity":0.8818897637795275,"duration":0.13078714166667282},{"name":"D#5","midi":75,"time":64.16671799999973,"velocity":0.8818897637795275,"duration":0.13078714166667282},{"name":"E4","midi":64,"time":64.30560699999974,"velocity":0.8818897637795275,"duration":0.13078714166667282},{"name":"E5","midi":76,"time":64.30560699999974,"velocity":0.8818897637795275,"duration":0.13078714166667282},{"name":"F4","midi":65,"time":64.44449599999975,"velocity":0.8818897637795275,"duration":0.1377315916666646},{"name":"F5","midi":77,"time":64.44449599999975,"velocity":0.8818897637795275,"duration":0.1377315916666646},{"name":"A#3","midi":58,"time":64.72227399999974,"velocity":0.8818897637795275,"duration":0.1377315916666646},{"name":"A#4","midi":70,"time":64.72227399999974,"velocity":0.8818897637795275,"duration":0.1377315916666646},{"name":"C#4","midi":61,"time":65.00005199999974,"velocity":0.8818897637795275,"duration":0.1377315916666646},{"name":"C#5","midi":73,"time":65.00005199999974,"velocity":0.8818897637795275,"duration":0.1377315916666646},{"name":"A#3","midi":58,"time":65.27782999999974,"velocity":0.8818897637795275,"duration":0.1377315916666646},{"name":"A#4","midi":70,"time":65.27782999999974,"velocity":0.8818897637795275,"duration":0.1377315916666646},{"name":"C#4","midi":61,"time":65.55560799999974,"velocity":0.8818897637795275,"duration":0.1377315916666646},{"name":"C#5","midi":73,"time":65.55560799999974,"velocity":0.8818897637795275,"duration":0.1377315916666646},{"name":"F4","midi":65,"time":65.83338599999973,"velocity":0.8818897637795275,"duration":0.1377315916666646},{"name":"F5","midi":77,"time":65.83338599999973,"velocity":0.8818897637795275,"duration":0.1377315916666646},{"name":"G#4","midi":68,"time":66.11116399999973,"velocity":0.8818897637795275,"duration":0.1377315916666646},{"name":"G#5","midi":80,"time":66.11116399999973,"velocity":0.8818897637795275,"duration":0.1377315916666646},{"name":"F4","midi":65,"time":66.38894199999973,"velocity":0.8818897637795275,"duration":0.1377315916666646},{"name":"F5","midi":77,"time":66.38894199999973,"velocity":0.8818897637795275,"duration":0.1377315916666646},{"name":"E4","midi":64,"time":66.66671999999973,"velocity":0.8818897637795275,"duration":0.27662059166667063},{"name":"E5","midi":76,"time":66.66671999999973,"velocity":0.8818897637795275,"duration":0.27662059166667063},{"name":"G#4","midi":68,"time":67.22227599999974,"velocity":0.8818897637795275,"duration":0.27662059166667063},{"name":"G#5","midi":80,"time":67.22227599999974,"velocity":0.8818897637795275,"duration":0.27662059166667063},{"name":"B4","midi":71,"time":67.77783199999975,"velocity":0.8818897637795275,"duration":0.0648148666666657},{"name":"B5","midi":83,"time":67.77783199999975,"velocity":0.8818897637795275,"duration":0.0648148666666657},{"name":"A#4","midi":70,"time":67.84727649999975,"velocity":0.8818897637795275,"duration":0.0648148666666657},{"name":"A#5","midi":82,"time":67.84727649999975,"velocity":0.8818897637795275,"duration":0.0648148666666657},{"name":"B4","midi":71,"time":67.91672099999975,"velocity":0.8818897637795275,"duration":0.0648148666666657},{"name":"B5","midi":83,"time":67.91672099999975,"velocity":0.8818897637795275,"duration":0.0648148666666657},{"name":"A#4","midi":70,"time":67.98616549999976,"velocity":0.8818897637795275,"duration":0.0648148666666657},{"name":"A#5","midi":82,"time":67.98616549999976,"velocity":0.8818897637795275,"duration":0.0648148666666657},{"name":"B4","midi":71,"time":68.05560999999976,"velocity":0.8818897637795275,"duration":0.1377315916666646},{"name":"B5","midi":83,"time":68.05560999999976,"velocity":0.8818897637795275,"duration":0.1377315916666646},{"name":"E5","midi":76,"time":68.33338799999976,"velocity":0.8818897637795275,"duration":0.27662059166667063},{"name":"E6","midi":88,"time":68.33338799999976,"velocity":0.8818897637795275,"duration":0.27662059166667063},{"name":"D#5","midi":75,"time":68.88894399999977,"velocity":0.8818897637795275,"duration":0.13078714166667282},{"name":"D#6","midi":87,"time":68.88894399999977,"velocity":0.8818897637795275,"duration":0.13078714166667282},{"name":"C#5","midi":73,"time":69.02783299999977,"velocity":0.8818897637795275,"duration":0.13078714166667282},{"name":"C#6","midi":85,"time":69.02783299999977,"velocity":0.8818897637795275,"duration":0.13078714166667282},{"name":"D#5","midi":75,"time":69.16672199999978,"velocity":0.8818897637795275,"duration":0.13078714166667282},{"name":"D#6","midi":87,"time":69.16672199999978,"velocity":0.8818897637795275,"duration":0.13078714166667282},{"name":"D#5","midi":75,"time":69.30561099999979,"velocity":0.8818897637795275,"duration":0.13078714166667282},{"name":"D#6","midi":87,"time":69.30561099999979,"velocity":0.8818897637795275,"duration":0.13078714166667282},{"name":"C#5","midi":73,"time":69.44449999999979,"velocity":0.8818897637795275,"duration":0.13078714166667282},{"name":"C#6","midi":85,"time":69.44449999999979,"velocity":0.8818897637795275,"duration":0.13078714166667282},{"name":"D#5","midi":75,"time":69.5833889999998,"velocity":0.8818897637795275,"duration":0.13078714166667282},{"name":"D#6","midi":87,"time":69.5833889999998,"velocity":0.8818897637795275,"duration":0.13078714166667282},{"name":"D#5","midi":75,"time":69.7222779999998,"velocity":0.8818897637795275,"duration":0.13078714166667282},{"name":"D#6","midi":87,"time":69.7222779999998,"velocity":0.8818897637795275,"duration":0.13078714166667282},{"name":"F#5","midi":78,"time":69.86116699999981,"velocity":0.8818897637795275,"duration":0.2627316916666729},{"name":"F#6","midi":90,"time":69.86116699999981,"velocity":0.8818897637795275,"duration":0.2627316916666729},{"name":"C#5","midi":73,"time":70.13894499999982,"velocity":0.8818897637795275,"duration":0.13078714166667282},{"name":"C#6","midi":85,"time":70.13894499999982,"velocity":0.8818897637795275,"duration":0.13078714166667282},{"name":"D#5","midi":75,"time":70.27783399999983,"velocity":0.8818897637795275,"duration":0.13078714166667282},{"name":"D#6","midi":87,"time":70.27783399999983,"velocity":0.8818897637795275,"duration":0.13078714166667282},{"name":"A#4","midi":70,"time":70.41672299999983,"velocity":0.8818897637795275,"duration":0.13078714166667282},{"name":"A#5","midi":82,"time":70.41672299999983,"velocity":0.8818897637795275,"duration":0.13078714166667282},{"name":"F#4","midi":66,"time":70.55561199999984,"velocity":0.8818897637795275,"duration":0.13078714166667282},{"name":"F#5","midi":78,"time":70.55561199999984,"velocity":0.8818897637795275,"duration":0.13078714166667282},{"name":"D#4","midi":63,"time":70.69450099999985,"velocity":0.8818897637795275,"duration":0.13078714166667282},{"name":"D#5","midi":75,"time":70.69450099999985,"velocity":0.8818897637795275,"duration":0.13078714166667282},{"name":"C#4","midi":61,"time":70.83338999999985,"velocity":0.8818897637795275,"duration":0.13078714166667282},{"name":"C#5","midi":73,"time":70.83338999999985,"velocity":0.8818897637795275,"duration":0.13078714166667282},{"name":"D#4","midi":63,"time":70.97227899999986,"velocity":0.8818897637795275,"duration":0.13078714166667282},{"name":"D#5","midi":75,"time":70.97227899999986,"velocity":0.8818897637795275,"duration":0.13078714166667282},{"name":"F#4","midi":66,"time":71.11116799999986,"velocity":0.8818897637795275,"duration":0.13078714166667282},{"name":"F#5","midi":78,"time":71.11116799999986,"velocity":0.8818897637795275,"duration":0.13078714166667282},{"name":"D#4","midi":63,"time":71.25005699999987,"velocity":0.8818897637795275,"duration":0.13078714166667282},{"name":"D#5","midi":75,"time":71.25005699999987,"velocity":0.8818897637795275,"duration":0.13078714166667282},{"name":"C#4","midi":61,"time":71.38894599999988,"velocity":0.8818897637795275,"duration":0.13078714166667282},{"name":"C#5","midi":73,"time":71.38894599999988,"velocity":0.8818897637795275,"duration":0.13078714166667282},{"name":"D#4","midi":63,"time":71.52783499999988,"velocity":0.8818897637795275,"duration":0.2627316916666729},{"name":"D#5","midi":75,"time":71.52783499999988,"velocity":0.8818897637795275,"duration":0.2627316916666729},{"name":"C#4","midi":61,"time":71.8056129999999,"velocity":0.8818897637795275,"duration":0.13078714166667282},{"name":"C#5","midi":73,"time":71.8056129999999,"velocity":0.8818897637795275,"duration":0.13078714166667282},{"name":"D4","midi":62,"time":71.9445019999999,"velocity":0.8818897637795275,"duration":0.13078714166667282},{"name":"D5","midi":74,"time":71.9445019999999,"velocity":0.8818897637795275,"duration":0.13078714166667282},{"name":"D#4","midi":63,"time":72.0833909999999,"velocity":0.8818897637795275,"duration":0.13078714166667282},{"name":"D#5","midi":75,"time":72.0833909999999,"velocity":0.8818897637795275,"duration":0.13078714166667282},{"name":"C#4","midi":61,"time":72.36116899999992,"velocity":0.8818897637795275,"duration":0.13078714166667282},{"name":"C#5","midi":73,"time":72.36116899999992,"velocity":0.8818897637795275,"duration":0.13078714166667282},{"name":"F#4","midi":66,"time":72.50005799999992,"velocity":0.8818897637795275,"duration":0.39467624166668713},{"name":"F#5","midi":78,"time":72.50005799999992,"velocity":0.8818897637795275,"duration":0.39467624166668713},{"name":"A#5","midi":82,"time":72.50005799999992,"velocity":0.8818897637795275,"duration":0.0648148666666657},{"name":"A#6","midi":94,"time":72.50005799999992,"velocity":0.8818897637795275,"duration":0.0648148666666657},{"name":"A#5","midi":82,"time":72.56950249999993,"velocity":0.8818897637795275,"duration":0.0648148666666657},{"name":"A#6","midi":94,"time":72.56950249999993,"velocity":0.8818897637795275,"duration":0.0648148666666657},{"name":"A#5","midi":82,"time":72.63894699999993,"velocity":0.8818897637795275,"duration":0.0648148666666657},{"name":"A#6","midi":94,"time":72.63894699999993,"velocity":0.8818897637795275,"duration":0.0648148666666657},{"name":"A#5","midi":82,"time":72.70839149999993,"velocity":0.8818897637795275,"duration":0.0648148666666657},{"name":"A#6","midi":94,"time":72.70839149999993,"velocity":0.8818897637795275,"duration":0.0648148666666657},{"name":"A#5","midi":82,"time":72.77783599999994,"velocity":0.8818897637795275,"duration":0.0648148666666657},{"name":"A#6","midi":94,"time":72.77783599999994,"velocity":0.8818897637795275,"duration":0.0648148666666657},{"name":"A#5","midi":82,"time":72.84728049999994,"velocity":0.8818897637795275,"duration":0.0648148666666657},{"name":"A#6","midi":94,"time":72.84728049999994,"velocity":0.8818897637795275,"duration":0.0648148666666657},{"name":"F#4","midi":66,"time":72.91672499999994,"velocity":0.8818897637795275,"duration":0.13078714166667282},{"name":"F#5","midi":78,"time":72.91672499999994,"velocity":0.8818897637795275,"duration":0.13078714166667282},{"name":"G#4","midi":68,"time":73.05561399999995,"velocity":0.8818897637795275,"duration":0.13078714166667282},{"name":"G#5","midi":80,"time":73.05561399999995,"velocity":0.8818897637795275,"duration":0.13078714166667282},{"name":"A4","midi":69,"time":73.19450299999995,"velocity":0.8818897637795275,"duration":0.13078714166667282},{"name":"A5","midi":81,"time":73.19450299999995,"velocity":0.8818897637795275,"duration":0.13078714166667282},{"name":"A#4","midi":70,"time":73.33339199999996,"velocity":0.8818897637795275,"duration":0.2627316916666729},{"name":"A#5","midi":82,"time":73.33339199999996,"velocity":0.8818897637795275,"duration":0.2627316916666729},{"name":"G#4","midi":68,"time":73.61116999999997,"velocity":0.8818897637795275,"duration":0.13078714166667282},{"name":"G#5","midi":80,"time":73.61116999999997,"velocity":0.8818897637795275,"duration":0.13078714166667282},{"name":"A#4","midi":70,"time":73.75005899999998,"velocity":0.8818897637795275,"duration":0.13078714166667282},{"name":"A#5","midi":82,"time":73.75005899999998,"velocity":0.8818897637795275,"duration":0.13078714166667282},{"name":"C#5","midi":73,"time":73.88894799999998,"velocity":0.8818897637795275,"duration":0.2627316916666729},{"name":"C#6","midi":85,"time":73.88894799999998,"velocity":0.8818897637795275,"duration":0.2627316916666729},{"name":"A#4","midi":70,"time":74.166726,"velocity":0.8818897637795275,"duration":0.13078714166667282},{"name":"A#5","midi":82,"time":74.166726,"velocity":0.8818897637795275,"duration":0.13078714166667282},{"name":"C#5","midi":73,"time":74.305615,"velocity":0.8818897637795275,"duration":0.13078714166667282},{"name":"C#6","midi":85,"time":74.305615,"velocity":0.8818897637795275,"duration":0.13078714166667282},{"name":"C#5","midi":73,"time":74.44450400000001,"velocity":0.8818897637795275,"duration":0.13078714166667282},{"name":"C#6","midi":85,"time":74.44450400000001,"velocity":0.8818897637795275,"duration":0.13078714166667282},{"name":"D#5","midi":75,"time":74.58339300000002,"velocity":0.8818897637795275,"duration":0.13078714166667282},{"name":"D#6","midi":87,"time":74.58339300000002,"velocity":0.8818897637795275,"duration":0.13078714166667282},{"name":"F#5","midi":78,"time":74.72228200000002,"velocity":0.8818897637795275,"duration":0.13078714166667282},{"name":"F#6","midi":90,"time":74.72228200000002,"velocity":0.8818897637795275,"duration":0.13078714166667282},{"name":"C#5","midi":73,"time":74.86117100000003,"velocity":0.8818897637795275,"duration":0.13078714166667282},{"name":"C#6","midi":85,"time":74.86117100000003,"velocity":0.8818897637795275,"duration":0.13078714166667282},{"name":"D5","midi":74,"time":75.00006000000003,"velocity":0.8818897637795275,"duration":0.13078714166667282},{"name":"D6","midi":86,"time":75.00006000000003,"velocity":0.8818897637795275,"duration":0.13078714166667282},{"name":"D#5","midi":75,"time":75.13894900000004,"velocity":0.8818897637795275,"duration":0.13078714166667282},{"name":"D#6","midi":87,"time":75.13894900000004,"velocity":0.8818897637795275,"duration":0.13078714166667282},{"name":"F#5","midi":78,"time":75.27783800000005,"velocity":0.8818897637795275,"duration":0.13078714166667282},{"name":"F#6","midi":90,"time":75.27783800000005,"velocity":0.8818897637795275,"duration":0.13078714166667282},{"name":"G#5","midi":80,"time":75.41672700000005,"velocity":0.8818897637795275,"duration":0.13078714166667282},{"name":"G#6","midi":92,"time":75.41672700000005,"velocity":0.8818897637795275,"duration":0.13078714166667282},{"name":"G#5","midi":80,"time":75.55561600000006,"velocity":0.8818897637795275,"duration":0.1377315916666646},{"name":"G#6","midi":92,"time":75.55561600000006,"velocity":0.8818897637795275,"duration":0.1377315916666646},{"name":"A#5","midi":82,"time":75.69450500000005,"velocity":0.8818897637795275,"duration":0.13078714166667282},{"name":"A#6","midi":94,"time":75.69450500000005,"velocity":0.8818897637795275,"duration":0.13078714166667282},{"name":"G#5","midi":80,"time":75.83339400000006,"velocity":0.8818897637795275,"duration":0.13078714166667282},{"name":"G#6","midi":92,"time":75.83339400000006,"velocity":0.8818897637795275,"duration":0.13078714166667282},{"name":"A#5","midi":82,"time":75.97228300000006,"velocity":0.8818897637795275,"duration":0.13078714166667282},{"name":"A#6","midi":94,"time":75.97228300000006,"velocity":0.8818897637795275,"duration":0.13078714166667282},{"name":"G#5","midi":80,"time":76.11117200000007,"velocity":0.8818897637795275,"duration":0.13078714166667282},{"name":"G#6","midi":92,"time":76.11117200000007,"velocity":0.8818897637795275,"duration":0.13078714166667282},{"name":"F#5","midi":78,"time":76.25006100000007,"velocity":0.8818897637795275,"duration":0.13078714166667282},{"name":"F#6","midi":90,"time":76.25006100000007,"velocity":0.8818897637795275,"duration":0.13078714166667282},{"name":"D#5","midi":75,"time":76.38895000000008,"velocity":0.8818897637795275,"duration":0.13078714166667282},{"name":"D#6","midi":87,"time":76.38895000000008,"velocity":0.8818897637795275,"duration":0.13078714166667282},{"name":"A#4","midi":70,"time":76.52783900000009,"velocity":0.8818897637795275,"duration":0.13078714166667282},{"name":"A#5","midi":82,"time":76.52783900000009,"velocity":0.8818897637795275,"duration":0.13078714166667282},{"name":"C#5","midi":73,"time":76.66672800000009,"velocity":0.8818897637795275,"duration":0.13078714166667282},{"name":"C#6","midi":85,"time":76.66672800000009,"velocity":0.8818897637795275,"duration":0.13078714166667282},{"name":"D#5","midi":75,"time":76.8056170000001,"velocity":0.8818897637795275,"duration":0.13078714166667282},{"name":"D#6","midi":87,"time":76.8056170000001,"velocity":0.8818897637795275,"duration":0.13078714166667282},{"name":"D#4","midi":63,"time":76.9445060000001,"velocity":0.8818897637795275,"duration":0.2627316916666729},{"name":"D#5","midi":75,"time":76.9445060000001,"velocity":0.8818897637795275,"duration":0.2627316916666729},{"name":"D#5","midi":75,"time":77.22228400000012,"velocity":0.8818897637795275,"duration":0.2627316916666729},{"name":"D#6","midi":87,"time":77.22228400000012,"velocity":0.8818897637795275,"duration":0.2627316916666729},{"name":"D#3","midi":51,"time":77.50006200000013,"velocity":0.8818897637795275,"duration":0.2627316916666729},{"name":"D#4","midi":63,"time":77.50006200000013,"velocity":0.8818897637795275,"duration":0.2627316916666729},{"name":"C#4","midi":61,"time":77.77784000000014,"velocity":0.8818897637795275,"duration":0.13078714166667282},{"name":"C#5","midi":73,"time":77.77784000000014,"velocity":0.8818897637795275,"duration":0.13078714166667282},{"name":"D4","midi":62,"time":77.91672900000015,"velocity":0.8818897637795275,"duration":0.13078714166667282},{"name":"D5","midi":74,"time":77.91672900000015,"velocity":0.8818897637795275,"duration":0.13078714166667282},{"name":"D#4","midi":63,"time":78.05561800000015,"velocity":0.8818897637795275,"duration":0.13078714166667282},{"name":"D#5","midi":75,"time":78.05561800000015,"velocity":0.8818897637795275,"duration":0.13078714166667282},{"name":"F#4","midi":66,"time":78.19450700000016,"velocity":0.8818897637795275,"duration":0.3946762416666729},{"name":"F#5","midi":78,"time":78.19450700000016,"velocity":0.8818897637795275,"duration":0.3946762416666729},{"name":"D#4","midi":63,"time":78.61117400000016,"velocity":0.8818897637795275,"duration":0.13078714166667282},{"name":"D#5","midi":75,"time":78.61117400000016,"velocity":0.8818897637795275,"duration":0.13078714166667282},{"name":"F#4","midi":66,"time":78.75006300000017,"velocity":0.8818897637795275,"duration":0.13078714166667282},{"name":"F#5","midi":78,"time":78.75006300000017,"velocity":0.8818897637795275,"duration":0.13078714166667282},{"name":"D#4","midi":63,"time":78.88895200000017,"velocity":0.8818897637795275,"duration":0.13078714166667282},{"name":"D#5","midi":75,"time":78.88895200000017,"velocity":0.8818897637795275,"duration":0.13078714166667282},{"name":"C#4","midi":61,"time":79.02784100000018,"velocity":0.8818897637795275,"duration":0.13078714166667282},{"name":"C#5","midi":73,"time":79.02784100000018,"velocity":0.8818897637795275,"duration":0.13078714166667282},{"name":"D4","midi":62,"time":79.16673000000019,"velocity":0.8818897637795275,"duration":0.13078714166667282},{"name":"D5","midi":74,"time":79.16673000000019,"velocity":0.8818897637795275,"duration":0.13078714166667282},{"name":"D#4","midi":63,"time":79.30561900000019,"velocity":0.8818897637795275,"duration":0.13078714166667282},{"name":"D#5","midi":75,"time":79.30561900000019,"velocity":0.8818897637795275,"duration":0.13078714166667282},{"name":"F#4","midi":66,"time":79.4445080000002,"velocity":0.8818897637795275,"duration":0.13078714166667282},{"name":"F#5","midi":78,"time":79.4445080000002,"velocity":0.8818897637795275,"duration":0.13078714166667282},{"name":"D#4","midi":63,"time":79.5833970000002,"velocity":0.8818897637795275,"duration":0.13078714166667282},{"name":"D#5","midi":75,"time":79.5833970000002,"velocity":0.8818897637795275,"duration":0.13078714166667282},{"name":"F#4","midi":66,"time":79.72228600000021,"velocity":0.8818897637795275,"duration":0.13078714166667282},{"name":"F#5","midi":78,"time":79.72228600000021,"velocity":0.8818897637795275,"duration":0.13078714166667282},{"name":"G#4","midi":68,"time":79.86117500000022,"velocity":0.8818897637795275,"duration":0.13078714166667282},{"name":"G#5","midi":80,"time":79.86117500000022,"velocity":0.8818897637795275,"duration":0.13078714166667282},{"name":"G#4","midi":68,"time":80.00006400000022,"velocity":0.8818897637795275,"duration":0.13078714166667282},{"name":"G#5","midi":80,"time":80.00006400000022,"velocity":0.8818897637795275,"duration":0.13078714166667282},{"name":"A4","midi":69,"time":80.13895300000023,"velocity":0.8818897637795275,"duration":0.13078714166667282},{"name":"A5","midi":81,"time":80.13895300000023,"velocity":0.8818897637795275,"duration":0.13078714166667282},{"name":"A#4","midi":70,"time":80.27784200000023,"velocity":0.8818897637795275,"duration":0.13078714166667282},{"name":"A#5","midi":82,"time":80.27784200000023,"velocity":0.8818897637795275,"duration":0.13078714166667282},{"name":"D#5","midi":75,"time":80.41673100000024,"velocity":0.8818897637795275,"duration":0.2627316916666729},{"name":"D#6","midi":87,"time":80.41673100000024,"velocity":0.8818897637795275,"duration":0.2627316916666729},{"name":"C#5","midi":73,"time":80.69450900000025,"velocity":0.8818897637795275,"duration":0.13078714166667282},{"name":"C#6","midi":85,"time":80.69450900000025,"velocity":0.8818897637795275,"duration":0.13078714166667282},{"name":"D#5","midi":75,"time":80.83339800000026,"velocity":0.8818897637795275,"duration":0.13078714166667282},{"name":"D#6","midi":87,"time":80.83339800000026,"velocity":0.8818897637795275,"duration":0.13078714166667282},{"name":"F#5","midi":78,"time":80.97228700000026,"velocity":0.8818897637795275,"duration":0.2627316916666729},{"name":"F#6","midi":90,"time":80.97228700000026,"velocity":0.8818897637795275,"duration":0.2627316916666729},{"name":"D5","midi":74,"time":81.25006500000028,"velocity":0.8818897637795275,"duration":0.13078714166667282},{"name":"D6","midi":86,"time":81.25006500000028,"velocity":0.8818897637795275,"duration":0.13078714166667282},{"name":"D#5","midi":75,"time":81.38895400000028,"velocity":0.8818897637795275,"duration":0.13078714166667282},{"name":"D#6","midi":87,"time":81.38895400000028,"velocity":0.8818897637795275,"duration":0.13078714166667282},{"name":"A#4","midi":70,"time":81.52784300000029,"velocity":0.8818897637795275,"duration":0.13078714166667282},{"name":"A#5","midi":82,"time":81.52784300000029,"velocity":0.8818897637795275,"duration":0.13078714166667282},{"name":"F#4","midi":66,"time":81.6667320000003,"velocity":0.8818897637795275,"duration":0.13078714166667282},{"name":"F#5","midi":78,"time":81.6667320000003,"velocity":0.8818897637795275,"duration":0.13078714166667282},{"name":"D#4","midi":63,"time":81.8056210000003,"velocity":0.8818897637795275,"duration":0.13078714166667282},{"name":"D#5","midi":75,"time":81.8056210000003,"velocity":0.8818897637795275,"duration":0.13078714166667282},{"name":"C#4","midi":61,"time":81.9445100000003,"velocity":0.8818897637795275,"duration":0.13078714166667282},{"name":"C#5","midi":73,"time":81.9445100000003,"velocity":0.8818897637795275,"duration":0.13078714166667282},{"name":"D#4","midi":63,"time":82.08339900000031,"velocity":0.8818897637795275,"duration":0.13078714166667282},{"name":"D#5","midi":75,"time":82.08339900000031,"velocity":0.8818897637795275,"duration":0.13078714166667282},{"name":"D#4","midi":63,"time":82.22228800000032,"velocity":0.8818897637795275,"duration":0.13078714166667282},{"name":"D#5","midi":75,"time":82.22228800000032,"velocity":0.8818897637795275,"duration":0.13078714166667282},{"name":"C#4","midi":61,"time":82.36117700000032,"velocity":0.8818897637795275,"duration":0.13078714166667282},{"name":"C#5","midi":73,"time":82.36117700000032,"velocity":0.8818897637795275,"duration":0.13078714166667282},{"name":"D#4","midi":63,"time":82.50006600000033,"velocity":0.8818897637795275,"duration":0.13078714166667282},{"name":"D#5","midi":75,"time":82.50006600000033,"velocity":0.8818897637795275,"duration":0.13078714166667282},{"name":"F#4","midi":66,"time":82.63895500000034,"velocity":0.8818897637795275,"duration":0.2627316916666729},{"name":"F#5","midi":78,"time":82.63895500000034,"velocity":0.8818897637795275,"duration":0.2627316916666729},{"name":"G#4","midi":68,"time":82.91673300000035,"velocity":0.8818897637795275,"duration":0.13078714166667282},{"name":"G#5","midi":80,"time":82.91673300000035,"velocity":0.8818897637795275,"duration":0.13078714166667282},{"name":"A4","midi":69,"time":83.05562200000035,"velocity":0.8818897637795275,"duration":0.13078714166667282},{"name":"A5","midi":81,"time":83.05562200000035,"velocity":0.8818897637795275,"duration":0.13078714166667282},{"name":"A3","midi":57,"time":83.19451100000036,"velocity":0.8818897637795275,"duration":0.13078714166667282},{"name":"A4","midi":69,"time":83.19451100000036,"velocity":0.8818897637795275,"duration":0.13078714166667282},{"name":"A4","midi":69,"time":83.33340000000037,"velocity":0.8818897637795275,"duration":0.13078714166667282},{"name":"A5","midi":81,"time":83.33340000000037,"velocity":0.8818897637795275,"duration":0.13078714166667282},{"name":"A3","midi":57,"time":83.47228900000037,"velocity":0.8818897637795275,"duration":0.13078714166667282},{"name":"A4","midi":69,"time":83.47228900000037,"velocity":0.8818897637795275,"duration":0.13078714166667282},{"name":"G#4","midi":68,"time":83.61117800000038,"velocity":0.8818897637795275,"duration":0.13078714166667282},{"name":"G#5","midi":80,"time":83.61117800000038,"velocity":0.8818897637795275,"duration":0.13078714166667282},{"name":"F#4","midi":66,"time":83.75006700000039,"velocity":0.8818897637795275,"duration":0.13078714166667282},{"name":"F#5","midi":78,"time":83.75006700000039,"velocity":0.8818897637795275,"duration":0.13078714166667282},{"name":"G#4","midi":68,"time":83.88895600000039,"velocity":0.8818897637795275,"duration":0.13078714166667282},{"name":"G#5","midi":80,"time":83.88895600000039,"velocity":0.8818897637795275,"duration":0.13078714166667282},{"name":"F#4","midi":66,"time":84.0278450000004,"velocity":0.8818897637795275,"duration":0.13078714166667282},{"name":"F#5","midi":78,"time":84.0278450000004,"velocity":0.8818897637795275,"duration":0.13078714166667282},{"name":"D#4","midi":63,"time":84.1667340000004,"velocity":0.8818897637795275,"duration":0.13078714166667282},{"name":"D#5","midi":75,"time":84.1667340000004,"velocity":0.8818897637795275,"duration":0.13078714166667282},{"name":"C#4","midi":61,"time":84.30562300000041,"velocity":0.8818897637795275,"duration":0.13078714166667282},{"name":"C#5","midi":73,"time":84.30562300000041,"velocity":0.8818897637795275,"duration":0.13078714166667282},{"name":"E4","midi":64,"time":84.44451200000042,"velocity":0.8818897637795275,"duration":0.1377315916666646},{"name":"E5","midi":76,"time":84.44451200000042,"velocity":0.8818897637795275,"duration":0.1377315916666646},{"name":"G#4","midi":68,"time":84.72229000000041,"velocity":0.8818897637795275,"duration":0.1377315916666646},{"name":"G#5","midi":80,"time":84.72229000000041,"velocity":0.8818897637795275,"duration":0.1377315916666646},{"name":"B4","midi":71,"time":85.00006800000041,"velocity":0.8818897637795275,"duration":0.1377315916666646},{"name":"B5","midi":83,"time":85.00006800000041,"velocity":0.8818897637795275,"duration":0.1377315916666646},{"name":"G#4","midi":68,"time":85.27784600000041,"velocity":0.8818897637795275,"duration":0.1377315916666646},{"name":"G#5","midi":80,"time":85.27784600000041,"velocity":0.8818897637795275,"duration":0.1377315916666646},{"name":"E5","midi":76,"time":85.5556240000004,"velocity":0.8818897637795275,"duration":0.1377315916666646},{"name":"E6","midi":88,"time":85.5556240000004,"velocity":0.8818897637795275,"duration":0.1377315916666646},{"name":"G#5","midi":80,"time":85.8334020000004,"velocity":0.8818897637795275,"duration":0.0648148666666657},{"name":"G#6","midi":92,"time":85.8334020000004,"velocity":0.8818897637795275,"duration":0.0648148666666657},{"name":"A5","midi":81,"time":85.90284650000041,"velocity":0.8818897637795275,"duration":0.0648148666666657},{"name":"A6","midi":93,"time":85.90284650000041,"velocity":0.8818897637795275,"duration":0.0648148666666657},{"name":"G#5","midi":80,"time":85.97229100000041,"velocity":0.8818897637795275,"duration":0.13078714166667282},{"name":"G#6","midi":92,"time":85.97229100000041,"velocity":0.8818897637795275,"duration":0.13078714166667282},{"name":"B4","midi":71,"time":86.11118000000042,"velocity":0.8818897637795275,"duration":0.1377315916666646},{"name":"B5","midi":83,"time":86.11118000000042,"velocity":0.8818897637795275,"duration":0.1377315916666646},{"name":"E5","midi":76,"time":86.38895800000041,"velocity":0.8818897637795275,"duration":0.1377315916666646},{"name":"E6","midi":88,"time":86.38895800000041,"velocity":0.8818897637795275,"duration":0.1377315916666646},{"name":"C#5","midi":73,"time":86.66673600000041,"velocity":0.8818897637795275,"duration":0.13078714166667282},{"name":"C#6","midi":85,"time":86.66673600000041,"velocity":0.8818897637795275,"duration":0.13078714166667282},{"name":"D5","midi":74,"time":86.80562500000042,"velocity":0.8818897637795275,"duration":0.13078714166667282},{"name":"D6","midi":86,"time":86.80562500000042,"velocity":0.8818897637795275,"duration":0.13078714166667282},{"name":"D#5","midi":75,"time":86.94451400000042,"velocity":0.8818897637795275,"duration":0.13078714166667282},{"name":"D#6","midi":87,"time":86.94451400000042,"velocity":0.8818897637795275,"duration":0.13078714166667282},{"name":"C#5","midi":73,"time":87.08340300000043,"velocity":0.8818897637795275,"duration":0.13078714166667282},{"name":"C#6","midi":85,"time":87.08340300000043,"velocity":0.8818897637795275,"duration":0.13078714166667282},{"name":"D5","midi":74,"time":87.22229200000044,"velocity":0.8818897637795275,"duration":0.13078714166667282},{"name":"D6","midi":86,"time":87.22229200000044,"velocity":0.8818897637795275,"duration":0.13078714166667282},{"name":"D#5","midi":75,"time":87.36118100000044,"velocity":0.8818897637795275,"duration":0.13078714166667282},{"name":"D#6","midi":87,"time":87.36118100000044,"velocity":0.8818897637795275,"duration":0.13078714166667282},{"name":"F#5","midi":78,"time":87.50007000000045,"velocity":0.8818897637795275,"duration":0.2627316916666729},{"name":"F#6","midi":90,"time":87.50007000000045,"velocity":0.8818897637795275,"duration":0.2627316916666729},{"name":"D#5","midi":75,"time":87.77784800000046,"velocity":0.8818897637795275,"duration":0.13078714166667282},{"name":"D#6","midi":87,"time":87.77784800000046,"velocity":0.8818897637795275,"duration":0.13078714166667282},{"name":"F#5","midi":78,"time":87.91673700000047,"velocity":0.8818897637795275,"duration":0.13078714166667282},{"name":"F#6","midi":90,"time":87.91673700000047,"velocity":0.8818897637795275,"duration":0.13078714166667282},{"name":"G#5","midi":80,"time":88.05562600000047,"velocity":0.8818897637795275,"duration":0.13078714166667282},{"name":"G#6","midi":92,"time":88.05562600000047,"velocity":0.8818897637795275,"duration":0.13078714166667282},{"name":"A5","midi":81,"time":88.19451500000048,"velocity":0.8818897637795275,"duration":0.2627316916666729},{"name":"A6","midi":93,"time":88.19451500000048,"velocity":0.8818897637795275,"duration":0.2627316916666729},{"name":"G#5","midi":80,"time":88.47229300000049,"velocity":0.8818897637795275,"duration":0.0648148666666657},{"name":"G#6","midi":92,"time":88.47229300000049,"velocity":0.8818897637795275,"duration":0.0648148666666657},{"name":"A5","midi":81,"time":88.5417375000005,"velocity":0.8818897637795275,"duration":0.0648148666666657},{"name":"A6","midi":93,"time":88.5417375000005,"velocity":0.8818897637795275,"duration":0.0648148666666657},{"name":"G#5","midi":80,"time":88.6111820000005,"velocity":0.8818897637795275,"duration":0.13078714166667282},{"name":"G#6","midi":92,"time":88.6111820000005,"velocity":0.8818897637795275,"duration":0.13078714166667282},{"name":"F#5","midi":78,"time":88.7500710000005,"velocity":0.8818897637795275,"duration":0.13078714166667282},{"name":"F#6","midi":90,"time":88.7500710000005,"velocity":0.8818897637795275,"duration":0.13078714166667282},{"name":"D#5","midi":75,"time":88.88896000000051,"velocity":0.8818897637795275,"duration":0.3946762416666729},{"name":"D#6","midi":87,"time":88.88896000000051,"velocity":0.8818897637795275,"duration":0.3946762416666729},{"name":"C#5","midi":73,"time":89.30562700000051,"velocity":0.8818897637795275,"duration":0.13078714166667282},{"name":"C#6","midi":85,"time":89.30562700000051,"velocity":0.8818897637795275,"duration":0.13078714166667282},{"name":"D#5","midi":75,"time":89.44451600000052,"velocity":0.8818897637795275,"duration":0.13078714166667282},{"name":"D#6","midi":87,"time":89.44451600000052,"velocity":0.8818897637795275,"duration":0.13078714166667282},{"name":"F#4","midi":66,"time":89.58340500000052,"velocity":0.8818897637795275,"duration":0.13078714166667282},{"name":"F#5","midi":78,"time":89.58340500000052,"velocity":0.8818897637795275,"duration":0.13078714166667282},{"name":"D#4","midi":63,"time":89.72229400000053,"velocity":0.8818897637795275,"duration":0.13078714166667282},{"name":"D#5","midi":75,"time":89.72229400000053,"velocity":0.8818897637795275,"duration":0.13078714166667282},{"name":"C#4","midi":61,"time":89.86118300000054,"velocity":0.8818897637795275,"duration":0.13078714166667282},{"name":"C#5","midi":73,"time":89.86118300000054,"velocity":0.8818897637795275,"duration":0.13078714166667282},{"name":"D4","midi":62,"time":90.00007200000054,"velocity":0.8818897637795275,"duration":0.13078714166667282},{"name":"D5","midi":74,"time":90.00007200000054,"velocity":0.8818897637795275,"duration":0.13078714166667282},{"name":"D#4","midi":63,"time":90.13896100000055,"velocity":0.8818897637795275,"duration":0.13078714166667282},{"name":"D#5","midi":75,"time":90.13896100000055,"velocity":0.8818897637795275,"duration":0.13078714166667282},{"name":"D#3","midi":51,"time":90.27785000000056,"velocity":0.8818897637795275,"duration":0.13078714166667282},{"name":"D#4","midi":63,"time":90.27785000000056,"velocity":0.8818897637795275,"duration":0.13078714166667282},{"name":"D#3","midi":51,"time":90.41673900000056,"velocity":0.8818897637795275,"duration":0.658565341666673},{"name":"D#4","midi":63,"time":90.41673900000056,"velocity":0.8818897637795275,"duration":0.658565341666673},{"name":"F4","midi":65,"time":91.11118400000056,"velocity":0.8818897637795275,"duration":0.2627316916666729},{"name":"F5","midi":77,"time":91.11118400000056,"velocity":0.8818897637795275,"duration":0.2627316916666729},{"name":"A#3","midi":58,"time":91.38896200000057,"velocity":0.8818897637795275,"duration":0.2627316916666729},{"name":"A#4","midi":70,"time":91.38896200000057,"velocity":0.8818897637795275,"duration":0.2627316916666729},{"name":"D4","midi":62,"time":91.66674000000059,"velocity":0.8818897637795275,"duration":0.2627316916666729},{"name":"D5","midi":74,"time":91.66674000000059,"velocity":0.8818897637795275,"duration":0.2627316916666729},{"name":"F4","midi":65,"time":91.9445180000006,"velocity":0.8818897637795275,"duration":0.3946762416666729},{"name":"F5","midi":77,"time":91.9445180000006,"velocity":0.8818897637795275,"duration":0.3946762416666729},{"name":"G#4","midi":68,"time":92.3611850000006,"velocity":0.8818897637795275,"duration":0.3946762416666729},{"name":"G#5","midi":80,"time":92.3611850000006,"velocity":0.8818897637795275,"duration":0.3946762416666729},{"name":"F4","midi":65,"time":92.7778520000006,"velocity":0.8818897637795275,"duration":0.13078714166667282},{"name":"F5","midi":77,"time":92.7778520000006,"velocity":0.8818897637795275,"duration":0.13078714166667282},{"name":"G#4","midi":68,"time":92.91674100000061,"velocity":0.8818897637795275,"duration":0.13078714166667282},{"name":"G#5","midi":80,"time":92.91674100000061,"velocity":0.8818897637795275,"duration":0.13078714166667282},{"name":"C#4","midi":61,"time":93.05563000000062,"velocity":0.8818897637795275,"duration":0.13078714166667282},{"name":"C#5","midi":73,"time":93.05563000000062,"velocity":0.8818897637795275,"duration":0.13078714166667282},{"name":"D#4","midi":63,"time":93.19451900000062,"velocity":0.8818897637795275,"duration":0.13078714166667282},{"name":"D#5","midi":75,"time":93.19451900000062,"velocity":0.8818897637795275,"duration":0.13078714166667282},{"name":"E4","midi":64,"time":93.33340800000063,"velocity":0.8818897637795275,"duration":0.08680562499999667},{"name":"E5","midi":76,"time":93.33340800000063,"velocity":0.8818897637795275,"duration":0.08680562499999667},{"name":"B3","midi":59,"time":93.42600066666729,"velocity":0.8818897637795275,"duration":0.08680562499999667},{"name":"B4","midi":71,"time":93.42600066666729,"velocity":0.8818897637795275,"duration":0.08680562499999667},{"name":"E4","midi":64,"time":93.51859333333395,"velocity":0.8818897637795275,"duration":0.08680562499999667},{"name":"E5","midi":76,"time":93.51859333333395,"velocity":0.8818897637795275,"duration":0.08680562499999667},{"name":"G#4","midi":68,"time":93.61118600000061,"velocity":0.8818897637795275,"duration":0.08680562499999667},{"name":"G#5","midi":80,"time":93.61118600000061,"velocity":0.8818897637795275,"duration":0.08680562499999667},{"name":"E4","midi":64,"time":93.70377866666728,"velocity":0.8818897637795275,"duration":0.08680562499999667},{"name":"E5","midi":76,"time":93.70377866666728,"velocity":0.8818897637795275,"duration":0.08680562499999667},{"name":"G#4","midi":68,"time":93.79637133333394,"velocity":0.8818897637795275,"duration":0.08680562499999667},{"name":"G#5","midi":80,"time":93.79637133333394,"velocity":0.8818897637795275,"duration":0.08680562499999667},{"name":"B4","midi":71,"time":93.8889640000006,"velocity":0.8818897637795275,"duration":0.08680562499999667},{"name":"B5","midi":83,"time":93.8889640000006,"velocity":0.8818897637795275,"duration":0.08680562499999667},{"name":"G#4","midi":68,"time":93.98155666666726,"velocity":0.8818897637795275,"duration":0.08680562499999667},{"name":"G#5","midi":80,"time":93.98155666666726,"velocity":0.8818897637795275,"duration":0.08680562499999667},{"name":"B4","midi":71,"time":94.07414933333392,"velocity":0.8818897637795275,"duration":0.08680562499999667},{"name":"B5","midi":83,"time":94.07414933333392,"velocity":0.8818897637795275,"duration":0.08680562499999667},{"name":"E5","midi":76,"time":94.16674200000058,"velocity":0.8818897637795275,"duration":0.08680562499999667},{"name":"E6","midi":88,"time":94.16674200000058,"velocity":0.8818897637795275,"duration":0.08680562499999667},{"name":"B4","midi":71,"time":94.25933466666724,"velocity":0.8818897637795275,"duration":0.08680562499999667},{"name":"B5","midi":83,"time":94.25933466666724,"velocity":0.8818897637795275,"duration":0.08680562499999667},{"name":"E5","midi":76,"time":94.3519273333339,"velocity":0.8818897637795275,"duration":0.08680562499999667},{"name":"E6","midi":88,"time":94.3519273333339,"velocity":0.8818897637795275,"duration":0.08680562499999667},{"name":"G#5","midi":80,"time":94.44452000000057,"velocity":0.8818897637795275,"duration":0.08680562499999667},{"name":"G#6","midi":92,"time":94.44452000000057,"velocity":0.8818897637795275,"duration":0.08680562499999667},{"name":"E5","midi":76,"time":94.53711266666723,"velocity":0.8818897637795275,"duration":0.08680562499999667},{"name":"E6","midi":88,"time":94.53711266666723,"velocity":0.8818897637795275,"duration":0.08680562499999667},{"name":"G#5","midi":80,"time":94.62970533333389,"velocity":0.8818897637795275,"duration":0.08680562499999667},{"name":"G#6","midi":92,"time":94.62970533333389,"velocity":0.8818897637795275,"duration":0.08680562499999667},{"name":"B5","midi":83,"time":94.72229800000055,"velocity":0.8818897637795275,"duration":0.08680562499999667},{"name":"B6","midi":95,"time":94.72229800000055,"velocity":0.8818897637795275,"duration":0.08680562499999667},{"name":"G#5","midi":80,"time":94.81489066666721,"velocity":0.8818897637795275,"duration":0.08680562499999667},{"name":"G#6","midi":92,"time":94.81489066666721,"velocity":0.8818897637795275,"duration":0.08680562499999667},{"name":"B5","midi":83,"time":94.90748333333387,"velocity":0.8818897637795275,"duration":0.08680562499999667},{"name":"B6","midi":95,"time":94.90748333333387,"velocity":0.8818897637795275,"duration":0.08680562499999667},{"name":"E6","midi":88,"time":95.00007600000053,"velocity":0.8818897637795275,"duration":0.17476865833333477},{"name":"E7","midi":100,"time":95.00007600000053,"velocity":0.8818897637795275,"duration":0.17476865833333477},{"name":"E5","midi":76,"time":95.18526133333387,"velocity":0.8818897637795275,"duration":0.35069472499999677},{"name":"E6","midi":88,"time":95.18526133333387,"velocity":0.8818897637795275,"duration":0.35069472499999677},{"name":"A#4","midi":70,"time":95.55563200000053,"velocity":0.8818897637795275,"duration":1.3182880916666733},{"name":"A#5","midi":82,"time":95.55563200000053,"velocity":0.8818897637795275,"duration":1.3182880916666733},{"name":"A#4","midi":70,"time":96.94452200000053,"velocity":0.8818897637795275,"duration":0.2627316916666729},{"name":"A#5","midi":82,"time":96.94452200000053,"velocity":0.8818897637795275,"duration":0.2627316916666729},{"name":"C5","midi":72,"time":97.22230000000054,"velocity":0.8818897637795275,"duration":0.2627316916666729},{"name":"C6","midi":84,"time":97.22230000000054,"velocity":0.8818897637795275,"duration":0.2627316916666729},{"name":"C#5","midi":73,"time":97.50007800000056,"velocity":0.8818897637795275,"duration":0.2627316916666729},{"name":"C#6","midi":85,"time":97.50007800000056,"velocity":0.8818897637795275,"duration":0.2627316916666729},{"name":"D#5","midi":75,"time":97.77785600000057,"velocity":0.8818897637795275,"duration":0.526620791666673},{"name":"D#6","midi":87,"time":97.77785600000057,"velocity":0.8818897637795275,"duration":0.526620791666673},{"name":"C#5","midi":73,"time":98.33341200000058,"velocity":0.8818897637795275,"duration":0.526620791666673},{"name":"C#6","midi":85,"time":98.33341200000058,"velocity":0.8818897637795275,"duration":0.526620791666673},{"name":"C5","midi":72,"time":98.88896800000059,"velocity":0.8818897637795275,"duration":0.526620791666673},{"name":"C6","midi":84,"time":98.88896800000059,"velocity":0.8818897637795275,"duration":0.526620791666673},{"name":"G#4","midi":68,"time":99.4445240000006,"velocity":0.8818897637795275,"duration":0.526620791666673},{"name":"G#5","midi":80,"time":99.4445240000006,"velocity":0.8818897637795275,"duration":0.526620791666673},{"name":"G#4","midi":68,"time":100.00008000000061,"velocity":0.8818897637795275,"duration":0.526620791666673},{"name":"G#5","midi":80,"time":100.00008000000061,"velocity":0.8818897637795275,"duration":0.526620791666673},{"name":"A#4","midi":70,"time":100.55563600000062,"velocity":0.8818897637795275,"duration":0.13078714166667282},{"name":"A#5","midi":82,"time":100.55563600000062,"velocity":0.8818897637795275,"duration":0.13078714166667282},{"name":"G#4","midi":68,"time":100.69452500000062,"velocity":0.8818897637795275,"duration":0.13078714166667282},{"name":"G#5","midi":80,"time":100.69452500000062,"velocity":0.8818897637795275,"duration":0.13078714166667282},{"name":"F#4","midi":66,"time":100.83341400000063,"velocity":0.8818897637795275,"duration":0.526620791666673},{"name":"F#5","midi":78,"time":100.83341400000063,"velocity":0.8818897637795275,"duration":0.526620791666673},{"name":"G#4","midi":68,"time":101.38897000000064,"velocity":0.8818897637795275,"duration":0.13078714166667282},{"name":"G#5","midi":80,"time":101.38897000000064,"velocity":0.8818897637795275,"duration":0.13078714166667282},{"name":"F#4","midi":66,"time":101.52785900000065,"velocity":0.8818897637795275,"duration":0.13078714166667282},{"name":"F#5","midi":78,"time":101.52785900000065,"velocity":0.8818897637795275,"duration":0.13078714166667282},{"name":"F4","midi":65,"time":101.66674800000065,"velocity":0.8818897637795275,"duration":0.2627316916666729},{"name":"F5","midi":77,"time":101.66674800000065,"velocity":0.8818897637795275,"duration":0.2627316916666729},{"name":"F#4","midi":66,"time":101.94452600000066,"velocity":0.8818897637795275,"duration":0.2627316916666729},{"name":"F#5","midi":78,"time":101.94452600000066,"velocity":0.8818897637795275,"duration":0.2627316916666729},{"name":"D#4","midi":63,"time":102.22230400000068,"velocity":0.8818897637795275,"duration":1.5821771916666734},{"name":"D#5","midi":75,"time":102.22230400000068,"velocity":0.8818897637795275,"duration":1.5821771916666734},{"name":"C4","midi":60,"time":103.88897200000068,"velocity":0.8818897637795275,"duration":0.526620791666673},{"name":"C5","midi":72,"time":103.88897200000068,"velocity":0.8818897637795275,"duration":0.526620791666673},{"name":"C#4","midi":61,"time":104.44452800000069,"velocity":0.8818897637795275,"duration":0.526620791666673},{"name":"C#5","midi":73,"time":104.44452800000069,"velocity":0.8818897637795275,"duration":0.526620791666673},{"name":"A#3","midi":58,"time":105.0000840000007,"velocity":0.8818897637795275,"duration":1.0543989916666732},{"name":"A#4","midi":70,"time":105.0000840000007,"velocity":0.8818897637795275,"duration":1.0543989916666732},{"name":"C#4","midi":61,"time":106.1111960000007,"velocity":0.8818897637795275,"duration":0.526620791666673},{"name":"C#5","midi":73,"time":106.1111960000007,"velocity":0.8818897637795275,"duration":0.526620791666673},{"name":"D#4","midi":63,"time":106.66675200000071,"velocity":0.8818897637795275,"duration":0.526620791666673},{"name":"D#5","midi":75,"time":106.66675200000071,"velocity":0.8818897637795275,"duration":0.526620791666673},{"name":"C#4","midi":61,"time":107.22230800000072,"velocity":0.8818897637795275,"duration":0.526620791666673},{"name":"C#5","midi":73,"time":107.22230800000072,"velocity":0.8818897637795275,"duration":0.526620791666673},{"name":"C4","midi":60,"time":107.77786400000073,"velocity":0.8818897637795275,"duration":0.526620791666673},{"name":"C5","midi":72,"time":107.77786400000073,"velocity":0.8818897637795275,"duration":0.526620791666673},{"name":"G#3","midi":56,"time":108.33342000000074,"velocity":0.8818897637795275,"duration":0.526620791666673},{"name":"G#4","midi":68,"time":108.33342000000074,"velocity":0.8818897637795275,"duration":0.526620791666673},{"name":"A#3","midi":58,"time":108.88897600000075,"velocity":0.8818897637795275,"duration":4.221068191666703},{"name":"A#4","midi":70,"time":108.88897600000075,"velocity":0.8818897637795275,"duration":4.221068191666703},{"name":"C5","midi":72,"time":112.22231200000076,"velocity":0.5039370078740157,"duration":0.2627316916666729},{"name":"F5","midi":77,"time":112.50009000000077,"velocity":0.5039370078740157,"duration":0.13078714166667282},{"name":"G#5","midi":80,"time":112.63897900000077,"velocity":0.5748031496062992,"duration":0.0648148666666657},{"name":"F5","midi":77,"time":112.70842350000078,"velocity":0.6141732283464567,"duration":0.03125002500000562},{"name":"G#5","midi":80,"time":112.74314575000078,"velocity":0.6299212598425197,"duration":0.03125002500000562},{"name":"F5","midi":77,"time":112.77786800000078,"velocity":0.6535433070866141,"duration":0.13078714166667282},{"name":"G#5","midi":80,"time":112.91675700000079,"velocity":0.7244094488188977,"duration":0.13078714166667282},{"name":"F5","midi":77,"time":113.05564600000079,"velocity":0.8031496062992126,"duration":0.1307871416666586},{"name":"G#5","midi":80,"time":113.19453500000078,"velocity":0.8818897637795275,"duration":0.13078714166667282},{"name":"F5","midi":77,"time":113.33342400000079,"velocity":0.8818897637795275,"duration":0.526620791666673},{"name":"F6","midi":89,"time":113.33342400000079,"velocity":0.8818897637795275,"duration":0.526620791666673},{"name":"A#4","midi":70,"time":113.8889800000008,"velocity":0.8818897637795275,"duration":0.2627316916666729},{"name":"A#5","midi":82,"time":113.8889800000008,"velocity":0.8818897637795275,"duration":0.2627316916666729},{"name":"A#4","midi":70,"time":114.16675800000081,"velocity":0.8818897637795275,"duration":1.3182880916666733},{"name":"A#5","midi":82,"time":114.16675800000081,"velocity":0.8818897637795275,"duration":1.3182880916666733},{"name":"F5","midi":77,"time":115.0000920000008,"velocity":0.8818897637795275,"duration":0.0648148666666657},{"name":"F6","midi":89,"time":115.0000920000008,"velocity":0.8818897637795275,"duration":0.0648148666666657},{"name":"F7","midi":101,"time":115.0000920000008,"velocity":0.8818897637795275,"duration":0.0648148666666657},{"name":"F5","midi":77,"time":115.06953650000081,"velocity":0.8818897637795275,"duration":0.0648148666666657},{"name":"F6","midi":89,"time":115.06953650000081,"velocity":0.8818897637795275,"duration":0.0648148666666657},{"name":"F7","midi":101,"time":115.06953650000081,"velocity":0.8818897637795275,"duration":0.0648148666666657},{"name":"F5","midi":77,"time":115.13898100000081,"velocity":0.8818897637795275,"duration":0.0648148666666657},{"name":"F6","midi":89,"time":115.13898100000081,"velocity":0.8818897637795275,"duration":0.0648148666666657},{"name":"F7","midi":101,"time":115.13898100000081,"velocity":0.8818897637795275,"duration":0.0648148666666657},{"name":"F5","midi":77,"time":115.20842550000081,"velocity":0.8818897637795275,"duration":0.0648148666666657},{"name":"F6","midi":89,"time":115.20842550000081,"velocity":0.8818897637795275,"duration":0.0648148666666657},{"name":"F7","midi":101,"time":115.20842550000081,"velocity":0.8818897637795275,"duration":0.0648148666666657},{"name":"F5","midi":77,"time":115.27787000000082,"velocity":0.8818897637795275,"duration":0.0648148666666657},{"name":"F6","midi":89,"time":115.27787000000082,"velocity":0.8818897637795275,"duration":0.0648148666666657},{"name":"F7","midi":101,"time":115.27787000000082,"velocity":0.8818897637795275,"duration":0.0648148666666657},{"name":"F5","midi":77,"time":115.34731450000082,"velocity":0.8818897637795275,"duration":0.0648148666666657},{"name":"F6","midi":89,"time":115.34731450000082,"velocity":0.8818897637795275,"duration":0.0648148666666657},{"name":"F7","midi":101,"time":115.34731450000082,"velocity":0.8818897637795275,"duration":0.0648148666666657},{"name":"F5","midi":77,"time":115.41675900000082,"velocity":0.8818897637795275,"duration":0.0648148666666657},{"name":"F6","midi":89,"time":115.41675900000082,"velocity":0.8818897637795275,"duration":0.0648148666666657},{"name":"F7","midi":101,"time":115.41675900000082,"velocity":0.8818897637795275,"duration":0.0648148666666657},{"name":"F5","midi":77,"time":115.48620350000081,"velocity":0.8818897637795275,"duration":0.0648148666666657},{"name":"F6","midi":89,"time":115.48620350000081,"velocity":0.8818897637795275,"duration":0.0648148666666657},{"name":"F7","midi":101,"time":115.48620350000081,"velocity":0.8818897637795275,"duration":0.0648148666666657},{"name":"A#4","midi":70,"time":115.55564800000082,"velocity":0.8818897637795275,"duration":0.526620791666673},{"name":"A#5","midi":82,"time":115.55564800000082,"velocity":0.8818897637795275,"duration":0.526620791666673},{"name":"C5","midi":72,"time":116.11120400000082,"velocity":0.8818897637795275,"duration":0.526620791666673},{"name":"C6","midi":84,"time":116.11120400000082,"velocity":0.8818897637795275,"duration":0.526620791666673},{"name":"C#5","midi":73,"time":116.66676000000083,"velocity":0.8818897637795275,"duration":0.526620791666673},{"name":"C#6","midi":85,"time":116.66676000000083,"velocity":0.8818897637795275,"duration":0.526620791666673},{"name":"F5","midi":77,"time":117.22231600000084,"velocity":0.8818897637795275,"duration":0.526620791666673},{"name":"F6","midi":89,"time":117.22231600000084,"velocity":0.8818897637795275,"duration":0.526620791666673},{"name":"F#5","midi":78,"time":117.77787200000085,"velocity":0.8818897637795275,"duration":0.3946762416666729},{"name":"F#6","midi":90,"time":117.77787200000085,"velocity":0.8818897637795275,"duration":0.3946762416666729},{"name":"F5","midi":77,"time":118.19453900000086,"velocity":0.8818897637795275,"duration":0.3946762416666729},{"name":"F6","midi":89,"time":118.19453900000086,"velocity":0.8818897637795275,"duration":0.3946762416666729},{"name":"D#5","midi":75,"time":118.61120600000086,"velocity":0.8818897637795275,"duration":0.2627316916666729},{"name":"D#6","midi":87,"time":118.61120600000086,"velocity":0.8818897637795275,"duration":0.2627316916666729},{"name":"F5","midi":77,"time":118.88898400000087,"velocity":0.8818897637795275,"duration":0.3946762416666729},{"name":"F6","midi":89,"time":118.88898400000087,"velocity":0.8818897637795275,"duration":0.3946762416666729},{"name":"F#5","midi":78,"time":119.30565100000088,"velocity":0.8818897637795275,"duration":0.0648148666666657},{"name":"F#6","midi":90,"time":119.30565100000088,"velocity":0.8818897637795275,"duration":0.0648148666666657},{"name":"F5","midi":77,"time":119.37509550000088,"velocity":0.8818897637795275,"duration":0.0648148666666657},{"name":"F6","midi":89,"time":119.37509550000088,"velocity":0.8818897637795275,"duration":0.0648148666666657},{"name":"C#5","midi":73,"time":119.44454000000088,"velocity":0.8818897637795275,"duration":0.526620791666673},{"name":"C#6","midi":85,"time":119.44454000000088,"velocity":0.8818897637795275,"duration":0.526620791666673},{"name":"D#5","midi":75,"time":120.0000960000009,"velocity":0.8818897637795275,"duration":1.5821771916666734},{"name":"D#6","midi":87,"time":120.0000960000009,"velocity":0.8818897637795275,"duration":1.5821771916666734},{"name":"C5","midi":72,"time":121.6667640000009,"velocity":0.8818897637795275,"duration":0.526620791666673},{"name":"D#5","midi":75,"time":121.6667640000009,"velocity":0.8818897637795275,"duration":0.526620791666673},{"name":"C6","midi":84,"time":121.6667640000009,"velocity":0.8818897637795275,"duration":0.526620791666673},{"name":"D#6","midi":87,"time":121.6667640000009,"velocity":0.8818897637795275,"duration":0.526620791666673},{"name":"C7","midi":96,"time":121.6667640000009,"velocity":0.8818897637795275,"duration":0.526620791666673},{"name":"C#5","midi":73,"time":122.2223200000009,"velocity":0.8818897637795275,"duration":0.526620791666673},{"name":"F5","midi":77,"time":122.2223200000009,"velocity":0.8818897637795275,"duration":0.526620791666673},{"name":"C#6","midi":85,"time":122.2223200000009,"velocity":0.8818897637795275,"duration":0.526620791666673},{"name":"F6","midi":89,"time":122.2223200000009,"velocity":0.8818897637795275,"duration":0.526620791666673},{"name":"C#7","midi":97,"time":122.2223200000009,"velocity":0.8818897637795275,"duration":0.526620791666673},{"name":"A#4","midi":70,"time":122.77787600000092,"velocity":0.8818897637795275,"duration":0.2627316916666729},{"name":"F5","midi":77,"time":122.77787600000092,"velocity":0.8818897637795275,"duration":0.2627316916666729},{"name":"A#5","midi":82,"time":122.77787600000092,"velocity":0.8818897637795275,"duration":0.2627316916666729},{"name":"F6","midi":89,"time":122.77787600000092,"velocity":0.8818897637795275,"duration":0.2627316916666729},{"name":"A#6","midi":94,"time":122.77787600000092,"velocity":0.8818897637795275,"duration":0.2627316916666729},{"name":"A#4","midi":70,"time":123.05565400000093,"velocity":0.8818897637795275,"duration":0.7905098916666731},{"name":"F5","midi":77,"time":123.05565400000093,"velocity":0.8818897637795275,"duration":0.7905098916666731},{"name":"A#5","midi":82,"time":123.05565400000093,"velocity":0.8818897637795275,"duration":0.7905098916666731},{"name":"F6","midi":89,"time":123.05565400000093,"velocity":0.8818897637795275,"duration":0.7905098916666731},{"name":"A#6","midi":94,"time":123.05565400000093,"velocity":0.8818897637795275,"duration":0.7905098916666731},{"name":"C#5","midi":73,"time":123.88898800000094,"velocity":0.8818897637795275,"duration":0.526620791666673},{"name":"F5","midi":77,"time":123.88898800000094,"velocity":0.8818897637795275,"duration":0.526620791666673},{"name":"C#6","midi":85,"time":123.88898800000094,"velocity":0.8818897637795275,"duration":0.526620791666673},{"name":"F6","midi":89,"time":123.88898800000094,"velocity":0.8818897637795275,"duration":0.526620791666673},{"name":"C#7","midi":97,"time":123.88898800000094,"velocity":0.8818897637795275,"duration":0.526620791666673},{"name":"D#5","midi":75,"time":124.44454400000095,"velocity":0.8818897637795275,"duration":0.526620791666673},{"name":"D#6","midi":87,"time":124.44454400000095,"velocity":0.8818897637795275,"duration":0.526620791666673},{"name":"D#7","midi":99,"time":124.44454400000095,"velocity":0.8818897637795275,"duration":0.526620791666673},{"name":"C#5","midi":73,"time":125.00010000000096,"velocity":0.8818897637795275,"duration":0.526620791666673},{"name":"C#6","midi":85,"time":125.00010000000096,"velocity":0.8818897637795275,"duration":0.526620791666673},{"name":"C#7","midi":97,"time":125.00010000000096,"velocity":0.8818897637795275,"duration":0.526620791666673},{"name":"C5","midi":72,"time":125.55565600000097,"velocity":0.8818897637795275,"duration":0.526620791666673},{"name":"G#5","midi":80,"time":125.55565600000097,"velocity":0.8818897637795275,"duration":0.526620791666673},{"name":"C6","midi":84,"time":125.55565600000097,"velocity":0.8818897637795275,"duration":0.526620791666673},{"name":"G#6","midi":92,"time":125.55565600000097,"velocity":0.8818897637795275,"duration":0.526620791666673},{"name":"C7","midi":96,"time":125.55565600000097,"velocity":0.8818897637795275,"duration":0.526620791666673},{"name":"A4","midi":69,"time":126.11121200000098,"velocity":0.8818897637795275,"duration":0.526620791666673},{"name":"A5","midi":81,"time":126.11121200000098,"velocity":0.8818897637795275,"duration":0.526620791666673},{"name":"A6","midi":93,"time":126.11121200000098,"velocity":0.8818897637795275,"duration":0.526620791666673},{"name":"A#4","midi":70,"time":126.66676800000099,"velocity":0.8818897637795275,"duration":2.1099553916666594},{"name":"A#5","midi":82,"time":126.66676800000099,"velocity":0.8818897637795275,"duration":2.1099553916666594},{"name":"A#6","midi":94,"time":126.66676800000099,"velocity":0.8818897637795275,"duration":2.1099553916666594},{"name":"F5","midi":77,"time":128.88899200000097,"velocity":0.8818897637795275,"duration":0.26273169166665866},{"name":"D#5","midi":75,"time":129.16677000000095,"velocity":0.8818897637795275,"duration":0.26273169166665866},{"name":"F#5","midi":78,"time":129.44454800000094,"velocity":0.8818897637795275,"duration":0.26273169166665866},{"name":"F5","midi":77,"time":129.72232600000092,"velocity":0.8818897637795275,"duration":0.26273169166665866},{"name":"A#5","midi":82,"time":130.0001040000009,"velocity":0.8818897637795275,"duration":0.26273169166665866},{"name":"A5","midi":81,"time":130.2778820000009,"velocity":0.8818897637795275,"duration":0.7905098916666873},{"name":"F4","midi":65,"time":130.5556600000009,"velocity":0.8818897637795275,"duration":0.13078714166667282},{"name":"A#4","midi":70,"time":130.6945490000009,"velocity":0.8818897637795275,"duration":0.13078714166667282},{"name":"C#5","midi":73,"time":130.8334380000009,"velocity":0.8818897637795275,"duration":0.13078714166667282},{"name":"F5","midi":77,"time":130.97232700000092,"velocity":0.8818897637795275,"duration":0.1307871416666444},{"name":"F#4","midi":66,"time":131.1112160000009,"velocity":0.8818897637795275,"duration":0.7905098916666589},{"name":"F#5","midi":78,"time":131.1112160000009,"velocity":0.8818897637795275,"duration":0.7905098916666589},{"name":"F4","midi":65,"time":131.94455000000087,"velocity":0.8818897637795275,"duration":0.13078714166667282},{"name":"F5","midi":77,"time":131.94455000000087,"velocity":0.8818897637795275,"duration":0.13078714166667282},{"name":"F#4","midi":66,"time":132.08343900000088,"velocity":0.8818897637795275,"duration":0.13078714166667282},{"name":"F#5","midi":78,"time":132.08343900000088,"velocity":0.8818897637795275,"duration":0.13078714166667282},{"name":"G#4","midi":68,"time":132.22232800000089,"velocity":0.8818897637795275,"duration":0.26273169166665866},{"name":"G#5","midi":80,"time":132.22232800000089,"velocity":0.8818897637795275,"duration":0.26273169166665866},{"name":"F#4","midi":66,"time":132.50010600000087,"velocity":0.8818897637795275,"duration":0.13078714166667282},{"name":"F#5","midi":78,"time":132.50010600000087,"velocity":0.8818897637795275,"duration":0.13078714166667282},{"name":"G#4","midi":68,"time":132.63899500000088,"velocity":0.8818897637795275,"duration":0.13078714166667282},{"name":"G#5","midi":80,"time":132.63899500000088,"velocity":0.8818897637795275,"duration":0.13078714166667282},{"name":"A#4","midi":70,"time":132.77788400000088,"velocity":0.8818897637795275,"duration":0.26273169166665866},{"name":"A#5","midi":82,"time":132.77788400000088,"velocity":0.8818897637795275,"duration":0.26273169166665866},{"name":"C5","midi":72,"time":133.05566200000086,"velocity":0.8818897637795275,"duration":0.26273169166665866},{"name":"C6","midi":84,"time":133.05566200000086,"velocity":0.8818897637795275,"duration":0.26273169166665866},{"name":"A#4","midi":70,"time":133.33344000000085,"velocity":0.8818897637795275,"duration":0.5266207916666588},{"name":"A#5","midi":82,"time":133.33344000000085,"velocity":0.8818897637795275,"duration":0.5266207916666588},{"name":"A#3","midi":58,"time":133.88899600000084,"velocity":0.8818897637795275,"duration":0.5266207916666588},{"name":"A#4","midi":70,"time":133.88899600000084,"velocity":0.8818897637795275,"duration":0.5266207916666588},{"name":"C#4","midi":61,"time":134.44455200000084,"velocity":0.8818897637795275,"duration":0.13078714166667282},{"name":"C#5","midi":73,"time":134.44455200000084,"velocity":0.8818897637795275,"duration":0.13078714166667282},{"name":"C#5","midi":73,"time":134.58344100000085,"velocity":0.8818897637795275,"duration":0.3946762416666729},{"name":"C#6","midi":85,"time":134.58344100000085,"velocity":0.8818897637795275,"duration":0.3946762416666729},{"name":"A#4","midi":70,"time":135.00010800000086,"velocity":0.8818897637795275,"duration":0.5266207916666588},{"name":"A#5","midi":82,"time":135.00010800000086,"velocity":0.8818897637795275,"duration":0.5266207916666588},{"name":"B4","midi":71,"time":135.55566400000086,"velocity":0.8818897637795275,"duration":0.5266207916666588},{"name":"B5","midi":83,"time":135.55566400000086,"velocity":0.8818897637795275,"duration":0.5266207916666588},{"name":"F#4","midi":66,"time":136.11122000000086,"velocity":0.8818897637795275,"duration":0.26273169166665866},{"name":"F#5","midi":78,"time":136.11122000000086,"velocity":0.8818897637795275,"duration":0.26273169166665866},{"name":"F#4","midi":66,"time":136.38899800000084,"velocity":0.8818897637795275,"duration":0.7905098916666589},{"name":"F#5","midi":78,"time":136.38899800000084,"velocity":0.8818897637795275,"duration":0.7905098916666589},{"name":"B4","midi":71,"time":137.22233200000082,"velocity":0.8818897637795275,"duration":0.26273169166665866},{"name":"B5","midi":83,"time":137.22233200000082,"velocity":0.8818897637795275,"duration":0.26273169166665866},{"name":"A#4","midi":70,"time":137.5001100000008,"velocity":0.8818897637795275,"duration":0.26273169166665866},{"name":"A#5","midi":82,"time":137.5001100000008,"velocity":0.8818897637795275,"duration":0.26273169166665866},{"name":"A4","midi":69,"time":137.7778880000008,"velocity":0.8818897637795275,"duration":0.5266207916666588},{"name":"A5","midi":81,"time":137.7778880000008,"velocity":0.8818897637795275,"duration":0.5266207916666588},{"name":"F4","midi":65,"time":138.33344400000078,"velocity":0.8818897637795275,"duration":0.26273169166665866},{"name":"F5","midi":77,"time":138.33344400000078,"velocity":0.8818897637795275,"duration":0.26273169166665866},{"name":"F4","midi":65,"time":138.61122200000077,"velocity":0.8818897637795275,"duration":0.7905098916666589},{"name":"F5","midi":77,"time":138.61122200000077,"velocity":0.8818897637795275,"duration":0.7905098916666589},{"name":"A4","midi":69,"time":139.44455600000074,"velocity":0.8818897637795275,"duration":0.5266207916666588},{"name":"A5","midi":81,"time":139.44455600000074,"velocity":0.8818897637795275,"duration":0.5266207916666588},{"name":"A#4","midi":70,"time":140.00011200000074,"velocity":0.8818897637795275,"duration":2.1099553916666594},{"name":"A#5","midi":82,"time":140.00011200000074,"velocity":0.8818897637795275,"duration":2.1099553916666594},{"name":"A#4","midi":70,"time":142.50011400000074,"velocity":0.8818897637795275,"duration":0.13078714166667282},{"name":"D5","midi":74,"time":142.63900300000074,"velocity":0.8818897637795275,"duration":0.13078714166667282},{"name":"D5","midi":74,"time":142.91678100000075,"velocity":0.8818897637795275,"duration":0.13078714166667282},{"name":"F5","midi":77,"time":143.05567000000076,"velocity":0.8818897637795275,"duration":0.13078714166667282},{"name":"F5","midi":77,"time":143.19455900000077,"velocity":0.8818897637795275,"duration":0.13078714166667282},{"name":"A#5","midi":82,"time":143.33344800000077,"velocity":0.8818897637795275,"duration":0.26273169166665866},{"name":"A#4","midi":70,"time":143.61122600000076,"velocity":0.8818897637795275,"duration":0.26273169166665866},{"name":"A#5","midi":82,"time":143.88900400000074,"velocity":0.8818897637795275,"duration":0.26273169166665866},{"name":"A#4","midi":70,"time":144.16678200000072,"velocity":0.8818897637795275,"duration":0.26273169166665866},{"name":"F5","midi":77,"time":144.4445600000007,"velocity":0.8818897637795275,"duration":0.1377315916666646},{"name":"A#5","midi":82,"time":144.4445600000007,"velocity":0.8818897637795275,"duration":0.1377315916666646},{"name":"F6","midi":89,"time":144.4445600000007,"velocity":0.8818897637795275,"duration":0.1377315916666646},{"name":"F5","midi":77,"time":144.72233800000072,"velocity":0.8818897637795275,"duration":0.1377315916666646},{"name":"A#5","midi":82,"time":144.72233800000072,"velocity":0.8818897637795275,"duration":0.1377315916666646},{"name":"F6","midi":89,"time":144.72233800000072,"velocity":0.8818897637795275,"duration":0.1377315916666646},{"name":"F5","midi":77,"time":145.00011600000073,"velocity":0.8818897637795275,"duration":0.13078714166667282},{"name":"A#5","midi":82,"time":145.00011600000073,"velocity":0.8818897637795275,"duration":0.13078714166667282},{"name":"F6","midi":89,"time":145.00011600000073,"velocity":0.8818897637795275,"duration":0.13078714166667282},{"name":"F5","midi":77,"time":145.13900500000074,"velocity":0.8818897637795275,"duration":0.13078714166667282},{"name":"A#5","midi":82,"time":145.13900500000074,"velocity":0.8818897637795275,"duration":0.13078714166667282},{"name":"F6","midi":89,"time":145.13900500000074,"velocity":0.8818897637795275,"duration":0.13078714166667282},{"name":"F5","midi":77,"time":145.27789400000074,"velocity":0.8818897637795275,"duration":0.13078714166667282},{"name":"A#5","midi":82,"time":145.27789400000074,"velocity":0.8818897637795275,"duration":0.13078714166667282},{"name":"F6","midi":89,"time":145.27789400000074,"velocity":0.8818897637795275,"duration":0.13078714166667282},{"name":"F5","midi":77,"time":145.41678300000075,"velocity":0.8818897637795275,"duration":0.06828709166666158},{"name":"A#5","midi":82,"time":145.41678300000075,"velocity":0.8818897637795275,"duration":0.06828709166666158},{"name":"F6","midi":89,"time":145.41678300000075,"velocity":0.8818897637795275,"duration":0.06828709166666158},{"name":"F5","midi":77,"time":145.69456100000073,"velocity":0.8818897637795275,"duration":0.06828709166666158},{"name":"A#5","midi":82,"time":145.69456100000073,"velocity":0.8818897637795275,"duration":0.06828709166666158},{"name":"F6","midi":89,"time":145.69456100000073,"velocity":0.8818897637795275,"duration":0.06828709166666158},{"name":"F5","midi":77,"time":145.97233900000072,"velocity":0.8818897637795275,"duration":0.13078714166667282},{"name":"A#5","midi":82,"time":145.97233900000072,"velocity":0.8818897637795275,"duration":0.13078714166667282},{"name":"F6","midi":89,"time":145.97233900000072,"velocity":0.8818897637795275,"duration":0.13078714166667282},{"name":"F5","midi":77,"time":146.11122800000072,"velocity":0.8818897637795275,"duration":0.13078714166667282},{"name":"A#5","midi":82,"time":146.11122800000072,"velocity":0.8818897637795275,"duration":0.13078714166667282},{"name":"F6","midi":89,"time":146.11122800000072,"velocity":0.8818897637795275,"duration":0.13078714166667282},{"name":"F5","midi":77,"time":146.25011700000073,"velocity":0.8818897637795275,"duration":0.13078714166667282},{"name":"A#5","midi":82,"time":146.25011700000073,"velocity":0.8818897637795275,"duration":0.13078714166667282},{"name":"F6","midi":89,"time":146.25011700000073,"velocity":0.8818897637795275,"duration":0.13078714166667282},{"name":"F5","midi":77,"time":146.38900600000073,"velocity":0.8818897637795275,"duration":0.1377315916666646},{"name":"A#5","midi":82,"time":146.38900600000073,"velocity":0.8818897637795275,"duration":0.1377315916666646},{"name":"F6","midi":89,"time":146.38900600000073,"velocity":0.8818897637795275,"duration":0.1377315916666646},{"name":"F5","midi":77,"time":146.66678400000075,"velocity":0.8818897637795275,"duration":0.1377315916666646},{"name":"A#5","midi":82,"time":146.66678400000075,"velocity":0.8818897637795275,"duration":0.1377315916666646},{"name":"F6","midi":89,"time":146.66678400000075,"velocity":0.8818897637795275,"duration":0.1377315916666646},{"name":"F5","midi":77,"time":146.94456200000076,"velocity":0.8818897637795275,"duration":0.13078714166667282},{"name":"A#5","midi":82,"time":146.94456200000076,"velocity":0.8818897637795275,"duration":0.13078714166667282},{"name":"F6","midi":89,"time":146.94456200000076,"velocity":0.8818897637795275,"duration":0.13078714166667282},{"name":"F5","midi":77,"time":147.08345100000076,"velocity":0.8818897637795275,"duration":0.13078714166667282},{"name":"A#5","midi":82,"time":147.08345100000076,"velocity":0.8818897637795275,"duration":0.13078714166667282},{"name":"F6","midi":89,"time":147.08345100000076,"velocity":0.8818897637795275,"duration":0.13078714166667282},{"name":"F5","midi":77,"time":147.22234000000077,"velocity":0.8818897637795275,"duration":0.13078714166667282},{"name":"A#5","midi":82,"time":147.22234000000077,"velocity":0.8818897637795275,"duration":0.13078714166667282},{"name":"F6","midi":89,"time":147.22234000000077,"velocity":0.8818897637795275,"duration":0.13078714166667282},{"name":"F5","midi":77,"time":147.36122900000078,"velocity":0.8818897637795275,"duration":0.13078714166667282},{"name":"A#5","midi":82,"time":147.36122900000078,"velocity":0.8818897637795275,"duration":0.13078714166667282},{"name":"F6","midi":89,"time":147.36122900000078,"velocity":0.8818897637795275,"duration":0.13078714166667282},{"name":"F5","midi":77,"time":147.6390070000008,"velocity":0.6299212598425197,"duration":0.13078714166667282},{"name":"A#5","midi":82,"time":147.6390070000008,"velocity":0.6299212598425197,"duration":0.13078714166667282},{"name":"F6","midi":89,"time":147.6390070000008,"velocity":0.6299212598425197,"duration":0.13078714166667282},{"name":"F5","midi":77,"time":147.9167850000008,"velocity":0.8818897637795275,"duration":0.13078714166667282},{"name":"A#5","midi":82,"time":147.9167850000008,"velocity":0.8818897637795275,"duration":0.13078714166667282},{"name":"F6","midi":89,"time":147.9167850000008,"velocity":0.8818897637795275,"duration":0.13078714166667282},{"name":"F5","midi":77,"time":148.1945630000008,"velocity":0.6299212598425197,"duration":0.13078714166667282},{"name":"A#5","midi":82,"time":148.1945630000008,"velocity":0.6299212598425197,"duration":0.13078714166667282},{"name":"F6","midi":89,"time":148.1945630000008,"velocity":0.6299212598425197,"duration":0.13078714166667282},{"name":"F5","midi":77,"time":148.47234100000082,"velocity":0.8818897637795275,"duration":0.13078714166667282},{"name":"A#5","midi":82,"time":148.47234100000082,"velocity":0.8818897637795275,"duration":0.13078714166667282},{"name":"F6","midi":89,"time":148.47234100000082,"velocity":0.8818897637795275,"duration":0.13078714166667282},{"name":"D#5","midi":75,"time":148.61123000000083,"velocity":0.8818897637795275,"duration":0.13078714166667282},{"name":"G#5","midi":80,"time":148.61123000000083,"velocity":0.8818897637795275,"duration":0.13078714166667282},{"name":"D#6","midi":87,"time":148.61123000000083,"velocity":0.8818897637795275,"duration":0.13078714166667282},{"name":"F5","midi":77,"time":148.75011900000084,"velocity":0.8818897637795275,"duration":0.13078714166667282},{"name":"A#5","midi":82,"time":148.75011900000084,"velocity":0.8818897637795275,"duration":0.13078714166667282},{"name":"F6","midi":89,"time":148.75011900000084,"velocity":0.8818897637795275,"duration":0.13078714166667282},{"name":"F#5","midi":78,"time":148.88900800000084,"velocity":0.8818897637795275,"duration":0.1377315916666646},{"name":"B5","midi":83,"time":148.88900800000084,"velocity":0.8818897637795275,"duration":0.1377315916666646},{"name":"F#6","midi":90,"time":148.88900800000084,"velocity":0.8818897637795275,"duration":0.1377315916666646},{"name":"F#5","midi":78,"time":149.16678600000085,"velocity":0.8818897637795275,"duration":0.1377315916666646},{"name":"B5","midi":83,"time":149.16678600000085,"velocity":0.8818897637795275,"duration":0.1377315916666646},{"name":"F#6","midi":90,"time":149.16678600000085,"velocity":0.8818897637795275,"duration":0.1377315916666646},{"name":"F#5","midi":78,"time":149.44456400000087,"velocity":0.8818897637795275,"duration":0.13078714166667282},{"name":"B5","midi":83,"time":149.44456400000087,"velocity":0.8818897637795275,"duration":0.13078714166667282},{"name":"F#6","midi":90,"time":149.44456400000087,"velocity":0.8818897637795275,"duration":0.13078714166667282},{"name":"F#5","midi":78,"time":149.58345300000087,"velocity":0.8818897637795275,"duration":0.13078714166667282},{"name":"B5","midi":83,"time":149.58345300000087,"velocity":0.8818897637795275,"duration":0.13078714166667282},{"name":"F#6","midi":90,"time":149.58345300000087,"velocity":0.8818897637795275,"duration":0.13078714166667282},{"name":"F#5","midi":78,"time":149.72234200000088,"velocity":0.8818897637795275,"duration":0.13078714166667282},{"name":"B5","midi":83,"time":149.72234200000088,"velocity":0.8818897637795275,"duration":0.13078714166667282},{"name":"F#6","midi":90,"time":149.72234200000088,"velocity":0.8818897637795275,"duration":0.13078714166667282},{"name":"F#5","midi":78,"time":149.86123100000088,"velocity":0.8818897637795275,"duration":0.06828709166666158},{"name":"B5","midi":83,"time":149.86123100000088,"velocity":0.8818897637795275,"duration":0.06828709166666158},{"name":"F#6","midi":90,"time":149.86123100000088,"velocity":0.8818897637795275,"duration":0.06828709166666158},{"name":"F#5","midi":78,"time":150.13900900000087,"velocity":0.8818897637795275,"duration":0.06828709166666158},{"name":"B5","midi":83,"time":150.13900900000087,"velocity":0.8818897637795275,"duration":0.06828709166666158},{"name":"F#6","midi":90,"time":150.13900900000087,"velocity":0.8818897637795275,"duration":0.06828709166666158},{"name":"F#5","midi":78,"time":150.41678700000085,"velocity":0.8818897637795275,"duration":0.13078714166667282},{"name":"B5","midi":83,"time":150.41678700000085,"velocity":0.8818897637795275,"duration":0.13078714166667282},{"name":"F#6","midi":90,"time":150.41678700000085,"velocity":0.8818897637795275,"duration":0.13078714166667282},{"name":"F#5","midi":78,"time":150.55567600000086,"velocity":0.8818897637795275,"duration":0.13078714166667282},{"name":"B5","midi":83,"time":150.55567600000086,"velocity":0.8818897637795275,"duration":0.13078714166667282},{"name":"F#6","midi":90,"time":150.55567600000086,"velocity":0.8818897637795275,"duration":0.13078714166667282},{"name":"F#5","midi":78,"time":150.69456500000086,"velocity":0.8818897637795275,"duration":0.13078714166667282},{"name":"B5","midi":83,"time":150.69456500000086,"velocity":0.8818897637795275,"duration":0.13078714166667282},{"name":"F#6","midi":90,"time":150.69456500000086,"velocity":0.8818897637795275,"duration":0.13078714166667282},{"name":"F#5","midi":78,"time":150.83345400000087,"velocity":0.8818897637795275,"duration":0.1377315916666646},{"name":"B5","midi":83,"time":150.83345400000087,"velocity":0.8818897637795275,"duration":0.1377315916666646},{"name":"F#6","midi":90,"time":150.83345400000087,"velocity":0.8818897637795275,"duration":0.1377315916666646},{"name":"F#5","midi":78,"time":151.11123200000088,"velocity":0.8818897637795275,"duration":0.1377315916666646},{"name":"B5","midi":83,"time":151.11123200000088,"velocity":0.8818897637795275,"duration":0.1377315916666646},{"name":"F#6","midi":90,"time":151.11123200000088,"velocity":0.8818897637795275,"duration":0.1377315916666646},{"name":"F#5","midi":78,"time":151.3890100000009,"velocity":0.8818897637795275,"duration":0.13078714166667282},{"name":"B5","midi":83,"time":151.3890100000009,"velocity":0.8818897637795275,"duration":0.13078714166667282},{"name":"F#6","midi":90,"time":151.3890100000009,"velocity":0.8818897637795275,"duration":0.13078714166667282},{"name":"F#5","midi":78,"time":151.5278990000009,"velocity":0.8818897637795275,"duration":0.13078714166667282},{"name":"B5","midi":83,"time":151.5278990000009,"velocity":0.8818897637795275,"duration":0.13078714166667282},{"name":"F#6","midi":90,"time":151.5278990000009,"velocity":0.8818897637795275,"duration":0.13078714166667282},{"name":"F#5","midi":78,"time":151.6667880000009,"velocity":0.8818897637795275,"duration":0.13078714166667282},{"name":"B5","midi":83,"time":151.6667880000009,"velocity":0.8818897637795275,"duration":0.13078714166667282},{"name":"F#6","midi":90,"time":151.6667880000009,"velocity":0.8818897637795275,"duration":0.13078714166667282},{"name":"F#5","midi":78,"time":151.8056770000009,"velocity":0.8818897637795275,"duration":0.13078714166667282},{"name":"B5","midi":83,"time":151.8056770000009,"velocity":0.8818897637795275,"duration":0.13078714166667282},{"name":"F#6","midi":90,"time":151.8056770000009,"velocity":0.8818897637795275,"duration":0.13078714166667282},{"name":"F#5","midi":78,"time":152.08345500000092,"velocity":0.6299212598425197,"duration":0.13078714166667282},{"name":"B5","midi":83,"time":152.08345500000092,"velocity":0.6299212598425197,"duration":0.13078714166667282},{"name":"F#6","midi":90,"time":152.08345500000092,"velocity":0.6299212598425197,"duration":0.13078714166667282},{"name":"F#5","midi":78,"time":152.36123300000094,"velocity":0.8818897637795275,"duration":0.13078714166667282},{"name":"B5","midi":83,"time":152.36123300000094,"velocity":0.8818897637795275,"duration":0.13078714166667282},{"name":"F#6","midi":90,"time":152.36123300000094,"velocity":0.8818897637795275,"duration":0.13078714166667282},{"name":"F#5","midi":78,"time":152.63901100000095,"velocity":0.6299212598425197,"duration":0.13078714166667282},{"name":"B5","midi":83,"time":152.63901100000095,"velocity":0.6299212598425197,"duration":0.13078714166667282},{"name":"F#6","midi":90,"time":152.63901100000095,"velocity":0.6299212598425197,"duration":0.13078714166667282},{"name":"F#5","midi":78,"time":152.91678900000096,"velocity":0.8818897637795275,"duration":0.13078714166667282},{"name":"B5","midi":83,"time":152.91678900000096,"velocity":0.8818897637795275,"duration":0.13078714166667282},{"name":"F#6","midi":90,"time":152.91678900000096,"velocity":0.8818897637795275,"duration":0.13078714166667282},{"name":"A#5","midi":82,"time":153.05567800000097,"velocity":0.8818897637795275,"duration":0.13078714166667282},{"name":"D#6","midi":87,"time":153.05567800000097,"velocity":0.8818897637795275,"duration":0.13078714166667282},{"name":"A#6","midi":94,"time":153.05567800000097,"velocity":0.8818897637795275,"duration":0.13078714166667282},{"name":"G#5","midi":80,"time":153.19456700000097,"velocity":0.8818897637795275,"duration":0.13078714166667282},{"name":"C#6","midi":85,"time":153.19456700000097,"velocity":0.8818897637795275,"duration":0.13078714166667282},{"name":"G#6","midi":92,"time":153.19456700000097,"velocity":0.8818897637795275,"duration":0.13078714166667282},{"name":"G5","midi":79,"time":153.33345600000098,"velocity":0.8818897637795275,"duration":0.1377315916666646},{"name":"C6","midi":84,"time":153.33345600000098,"velocity":0.8818897637795275,"duration":0.1377315916666646},{"name":"G6","midi":91,"time":153.33345600000098,"velocity":0.8818897637795275,"duration":0.1377315916666646},{"name":"G5","midi":79,"time":153.611234000001,"velocity":0.8818897637795275,"duration":0.1377315916666646},{"name":"C6","midi":84,"time":153.611234000001,"velocity":0.8818897637795275,"duration":0.1377315916666646},{"name":"G6","midi":91,"time":153.611234000001,"velocity":0.8818897637795275,"duration":0.1377315916666646},{"name":"G5","midi":79,"time":153.889012000001,"velocity":0.8818897637795275,"duration":0.13078714166667282},{"name":"C6","midi":84,"time":153.889012000001,"velocity":0.8818897637795275,"duration":0.13078714166667282},{"name":"G6","midi":91,"time":153.889012000001,"velocity":0.8818897637795275,"duration":0.13078714166667282},{"name":"G5","midi":79,"time":154.027901000001,"velocity":0.8818897637795275,"duration":0.13078714166667282},{"name":"C6","midi":84,"time":154.027901000001,"velocity":0.8818897637795275,"duration":0.13078714166667282},{"name":"G6","midi":91,"time":154.027901000001,"velocity":0.8818897637795275,"duration":0.13078714166667282},{"name":"G5","midi":79,"time":154.16679000000101,"velocity":0.8818897637795275,"duration":0.13078714166667282},{"name":"C6","midi":84,"time":154.16679000000101,"velocity":0.8818897637795275,"duration":0.13078714166667282},{"name":"G6","midi":91,"time":154.16679000000101,"velocity":0.8818897637795275,"duration":0.13078714166667282},{"name":"G5","midi":79,"time":154.30567900000102,"velocity":0.8818897637795275,"duration":0.06828709166666158},{"name":"C6","midi":84,"time":154.30567900000102,"velocity":0.8818897637795275,"duration":0.06828709166666158},{"name":"G6","midi":91,"time":154.30567900000102,"velocity":0.8818897637795275,"duration":0.06828709166666158},{"name":"G5","midi":79,"time":154.583457000001,"velocity":0.8818897637795275,"duration":0.13078714166667282},{"name":"C6","midi":84,"time":154.583457000001,"velocity":0.8818897637795275,"duration":0.13078714166667282},{"name":"G6","midi":91,"time":154.583457000001,"velocity":0.8818897637795275,"duration":0.13078714166667282},{"name":"G5","midi":79,"time":154.86123500000102,"velocity":0.8818897637795275,"duration":0.13078714166667282},{"name":"C6","midi":84,"time":154.86123500000102,"velocity":0.8818897637795275,"duration":0.13078714166667282},{"name":"G6","midi":91,"time":154.86123500000102,"velocity":0.8818897637795275,"duration":0.13078714166667282},{"name":"G5","midi":79,"time":155.00012400000102,"velocity":0.8818897637795275,"duration":0.13078714166667282},{"name":"C6","midi":84,"time":155.00012400000102,"velocity":0.8818897637795275,"duration":0.13078714166667282},{"name":"G6","midi":91,"time":155.00012400000102,"velocity":0.8818897637795275,"duration":0.13078714166667282},{"name":"G5","midi":79,"time":155.13901300000103,"velocity":0.8818897637795275,"duration":0.13078714166667282},{"name":"C6","midi":84,"time":155.13901300000103,"velocity":0.8818897637795275,"duration":0.13078714166667282},{"name":"G6","midi":91,"time":155.13901300000103,"velocity":0.8818897637795275,"duration":0.13078714166667282},{"name":"G5","midi":79,"time":155.27790200000103,"velocity":0.8818897637795275,"duration":0.1377315916666646},{"name":"C6","midi":84,"time":155.27790200000103,"velocity":0.8818897637795275,"duration":0.1377315916666646},{"name":"G6","midi":91,"time":155.27790200000103,"velocity":0.8818897637795275,"duration":0.1377315916666646},{"name":"G5","midi":79,"time":155.55568000000105,"velocity":0.8818897637795275,"duration":0.26273169166665866},{"name":"C6","midi":84,"time":155.55568000000105,"velocity":0.8818897637795275,"duration":0.26273169166665866},{"name":"G6","midi":91,"time":155.55568000000105,"velocity":0.8818897637795275,"duration":0.26273169166665866},{"name":"G5","midi":79,"time":155.83345800000103,"velocity":0.8818897637795275,"duration":0.13078714166667282},{"name":"C6","midi":84,"time":155.83345800000103,"velocity":0.8818897637795275,"duration":0.13078714166667282},{"name":"G6","midi":91,"time":155.83345800000103,"velocity":0.8818897637795275,"duration":0.13078714166667282},{"name":"G5","midi":79,"time":155.97234700000104,"velocity":0.8818897637795275,"duration":0.13078714166667282},{"name":"C6","midi":84,"time":155.97234700000104,"velocity":0.8818897637795275,"duration":0.13078714166667282},{"name":"G6","midi":91,"time":155.97234700000104,"velocity":0.8818897637795275,"duration":0.13078714166667282},{"name":"G5","midi":79,"time":156.11123600000104,"velocity":0.8818897637795275,"duration":0.13078714166667282},{"name":"C6","midi":84,"time":156.11123600000104,"velocity":0.8818897637795275,"duration":0.13078714166667282},{"name":"G6","midi":91,"time":156.11123600000104,"velocity":0.8818897637795275,"duration":0.13078714166667282},{"name":"G5","midi":79,"time":156.25012500000105,"velocity":0.8818897637795275,"duration":0.13078714166667282},{"name":"C6","midi":84,"time":156.25012500000105,"velocity":0.8818897637795275,"duration":0.13078714166667282},{"name":"G6","midi":91,"time":156.25012500000105,"velocity":0.8818897637795275,"duration":0.13078714166667282},{"name":"G5","midi":79,"time":156.52790300000106,"velocity":0.6299212598425197,"duration":0.13078714166667282},{"name":"C6","midi":84,"time":156.52790300000106,"velocity":0.6299212598425197,"duration":0.13078714166667282},{"name":"G6","midi":91,"time":156.52790300000106,"velocity":0.6299212598425197,"duration":0.13078714166667282},{"name":"G5","midi":79,"time":156.80568100000107,"velocity":0.8818897637795275,"duration":0.13078714166667282},{"name":"C6","midi":84,"time":156.80568100000107,"velocity":0.8818897637795275,"duration":0.13078714166667282},{"name":"G6","midi":91,"time":156.80568100000107,"velocity":0.8818897637795275,"duration":0.13078714166667282},{"name":"G5","midi":79,"time":157.08345900000108,"velocity":0.6299212598425197,"duration":0.13078714166667282},{"name":"C6","midi":84,"time":157.08345900000108,"velocity":0.6299212598425197,"duration":0.13078714166667282},{"name":"G6","midi":91,"time":157.08345900000108,"velocity":0.6299212598425197,"duration":0.13078714166667282},{"name":"G5","midi":79,"time":157.3612370000011,"velocity":0.8818897637795275,"duration":0.13078714166667282},{"name":"C6","midi":84,"time":157.3612370000011,"velocity":0.8818897637795275,"duration":0.13078714166667282},{"name":"G6","midi":91,"time":157.3612370000011,"velocity":0.8818897637795275,"duration":0.13078714166667282},{"name":"F5","midi":77,"time":157.5001260000011,"velocity":0.8818897637795275,"duration":0.13078714166667282},{"name":"A#5","midi":82,"time":157.5001260000011,"velocity":0.8818897637795275,"duration":0.13078714166667282},{"name":"F6","midi":89,"time":157.5001260000011,"velocity":0.8818897637795275,"duration":0.13078714166667282},{"name":"G5","midi":79,"time":157.6390150000011,"velocity":0.8818897637795275,"duration":0.13078714166667282},{"name":"C6","midi":84,"time":157.6390150000011,"velocity":0.8818897637795275,"duration":0.13078714166667282},{"name":"G6","midi":91,"time":157.6390150000011,"velocity":0.8818897637795275,"duration":0.13078714166667282},{"name":"F#5","midi":78,"time":157.77790400000112,"velocity":0.8818897637795275,"duration":0.1377315916666646},{"name":"B5","midi":83,"time":157.77790400000112,"velocity":0.8818897637795275,"duration":0.1377315916666646},{"name":"F#6","midi":90,"time":157.77790400000112,"velocity":0.8818897637795275,"duration":0.1377315916666646},{"name":"F#5","midi":78,"time":158.05568200000113,"velocity":0.8818897637795275,"duration":0.1377315916666646},{"name":"B5","midi":83,"time":158.05568200000113,"velocity":0.8818897637795275,"duration":0.1377315916666646},{"name":"F#6","midi":90,"time":158.05568200000113,"velocity":0.8818897637795275,"duration":0.1377315916666646},{"name":"F#5","midi":78,"time":158.33346000000114,"velocity":0.8818897637795275,"duration":0.13078714166667282},{"name":"B5","midi":83,"time":158.33346000000114,"velocity":0.8818897637795275,"duration":0.13078714166667282},{"name":"F#6","midi":90,"time":158.33346000000114,"velocity":0.8818897637795275,"duration":0.13078714166667282},{"name":"F#5","midi":78,"time":158.47234900000115,"velocity":0.8818897637795275,"duration":0.13078714166667282},{"name":"B5","midi":83,"time":158.47234900000115,"velocity":0.8818897637795275,"duration":0.13078714166667282},{"name":"F#6","midi":90,"time":158.47234900000115,"velocity":0.8818897637795275,"duration":0.13078714166667282},{"name":"F#5","midi":78,"time":158.61123800000115,"velocity":0.8818897637795275,"duration":0.13078714166667282},{"name":"B5","midi":83,"time":158.61123800000115,"velocity":0.8818897637795275,"duration":0.13078714166667282},{"name":"F#6","midi":90,"time":158.61123800000115,"velocity":0.8818897637795275,"duration":0.13078714166667282},{"name":"F#5","midi":78,"time":158.75012700000116,"velocity":0.8818897637795275,"duration":0.06828709166666158},{"name":"B5","midi":83,"time":158.75012700000116,"velocity":0.8818897637795275,"duration":0.06828709166666158},{"name":"F#6","midi":90,"time":158.75012700000116,"velocity":0.8818897637795275,"duration":0.06828709166666158},{"name":"F#5","midi":78,"time":159.02790500000114,"velocity":0.8818897637795275,"duration":0.06828709166666158},{"name":"B5","midi":83,"time":159.02790500000114,"velocity":0.8818897637795275,"duration":0.06828709166666158},{"name":"F#6","midi":90,"time":159.02790500000114,"velocity":0.8818897637795275,"duration":0.06828709166666158},{"name":"F#5","midi":78,"time":159.30568300000112,"velocity":0.8818897637795275,"duration":0.13078714166667282},{"name":"B5","midi":83,"time":159.30568300000112,"velocity":0.8818897637795275,"duration":0.13078714166667282},{"name":"F#6","midi":90,"time":159.30568300000112,"velocity":0.8818897637795275,"duration":0.13078714166667282},{"name":"F#5","midi":78,"time":159.44457200000113,"velocity":0.8818897637795275,"duration":0.13078714166667282},{"name":"B5","midi":83,"time":159.44457200000113,"velocity":0.8818897637795275,"duration":0.13078714166667282},{"name":"F#6","midi":90,"time":159.44457200000113,"velocity":0.8818897637795275,"duration":0.13078714166667282},{"name":"F#5","midi":78,"time":159.58346100000114,"velocity":0.8818897637795275,"duration":0.13078714166667282},{"name":"B5","midi":83,"time":159.58346100000114,"velocity":0.8818897637795275,"duration":0.13078714166667282},{"name":"F#6","midi":90,"time":159.58346100000114,"velocity":0.8818897637795275,"duration":0.13078714166667282},{"name":"F#5","midi":78,"time":159.72235000000114,"velocity":0.8818897637795275,"duration":0.1377315916666646},{"name":"B5","midi":83,"time":159.72235000000114,"velocity":0.8818897637795275,"duration":0.1377315916666646},{"name":"F#6","midi":90,"time":159.72235000000114,"velocity":0.8818897637795275,"duration":0.1377315916666646},{"name":"F#5","midi":78,"time":160.00012800000115,"velocity":0.8818897637795275,"duration":0.1377315916666646},{"name":"B5","midi":83,"time":160.00012800000115,"velocity":0.8818897637795275,"duration":0.1377315916666646},{"name":"F#6","midi":90,"time":160.00012800000115,"velocity":0.8818897637795275,"duration":0.1377315916666646},{"name":"F#5","midi":78,"time":160.27790600000117,"velocity":0.8818897637795275,"duration":0.13078714166667282},{"name":"B5","midi":83,"time":160.27790600000117,"velocity":0.8818897637795275,"duration":0.13078714166667282},{"name":"F#6","midi":90,"time":160.27790600000117,"velocity":0.8818897637795275,"duration":0.13078714166667282},{"name":"F#5","midi":78,"time":160.41679500000117,"velocity":0.8818897637795275,"duration":0.13078714166667282},{"name":"B5","midi":83,"time":160.41679500000117,"velocity":0.8818897637795275,"duration":0.13078714166667282},{"name":"F#6","midi":90,"time":160.41679500000117,"velocity":0.8818897637795275,"duration":0.13078714166667282},{"name":"F#5","midi":78,"time":160.55568400000118,"velocity":0.8818897637795275,"duration":0.13078714166667282},{"name":"B5","midi":83,"time":160.55568400000118,"velocity":0.8818897637795275,"duration":0.13078714166667282},{"name":"F#6","midi":90,"time":160.55568400000118,"velocity":0.8818897637795275,"duration":0.13078714166667282},{"name":"F#5","midi":78,"time":160.69457300000118,"velocity":0.8818897637795275,"duration":0.13078714166667282},{"name":"B5","midi":83,"time":160.69457300000118,"velocity":0.8818897637795275,"duration":0.13078714166667282},{"name":"F#6","midi":90,"time":160.69457300000118,"velocity":0.8818897637795275,"duration":0.13078714166667282},{"name":"F#5","midi":78,"time":160.9723510000012,"velocity":0.6299212598425197,"duration":0.13078714166667282},{"name":"B5","midi":83,"time":160.9723510000012,"velocity":0.6299212598425197,"duration":0.13078714166667282},{"name":"F#6","midi":90,"time":160.9723510000012,"velocity":0.6299212598425197,"duration":0.13078714166667282},{"name":"F#5","midi":78,"time":161.2501290000012,"velocity":0.8818897637795275,"duration":0.13078714166667282},{"name":"B5","midi":83,"time":161.2501290000012,"velocity":0.8818897637795275,"duration":0.13078714166667282},{"name":"F#6","midi":90,"time":161.2501290000012,"velocity":0.8818897637795275,"duration":0.13078714166667282},{"name":"F#5","midi":78,"time":161.52790700000122,"velocity":0.6299212598425197,"duration":0.13078714166667282},{"name":"B5","midi":83,"time":161.52790700000122,"velocity":0.6299212598425197,"duration":0.13078714166667282},{"name":"F#6","midi":90,"time":161.52790700000122,"velocity":0.6299212598425197,"duration":0.13078714166667282},{"name":"F#5","midi":78,"time":161.80568500000123,"velocity":0.8818897637795275,"duration":0.13078714166667282},{"name":"B5","midi":83,"time":161.80568500000123,"velocity":0.8818897637795275,"duration":0.13078714166667282},{"name":"F#6","midi":90,"time":161.80568500000123,"velocity":0.8818897637795275,"duration":0.13078714166667282},{"name":"A#5","midi":82,"time":161.94457400000124,"velocity":0.8818897637795275,"duration":0.13078714166667282},{"name":"D#6","midi":87,"time":161.94457400000124,"velocity":0.8818897637795275,"duration":0.13078714166667282},{"name":"A#6","midi":94,"time":161.94457400000124,"velocity":0.8818897637795275,"duration":0.13078714166667282},{"name":"G#5","midi":80,"time":162.08346300000125,"velocity":0.8818897637795275,"duration":0.13078714166667282},{"name":"C#6","midi":85,"time":162.08346300000125,"velocity":0.8818897637795275,"duration":0.13078714166667282},{"name":"G#6","midi":92,"time":162.08346300000125,"velocity":0.8818897637795275,"duration":0.13078714166667282},{"name":"F5","midi":77,"time":162.22235200000125,"velocity":0.8818897637795275,"duration":0.1377315916666646},{"name":"A#5","midi":82,"time":162.22235200000125,"velocity":0.8818897637795275,"duration":0.1377315916666646},{"name":"F6","midi":89,"time":162.22235200000125,"velocity":0.8818897637795275,"duration":0.1377315916666646},{"name":"A#6","midi":94,"time":162.22235200000125,"velocity":0.8818897637795275,"duration":0.1377315916666646},{"name":"F5","midi":77,"time":162.50013000000126,"velocity":0.8818897637795275,"duration":0.1377315916666646},{"name":"A#5","midi":82,"time":162.50013000000126,"velocity":0.8818897637795275,"duration":0.1377315916666646},{"name":"F6","midi":89,"time":162.50013000000126,"velocity":0.8818897637795275,"duration":0.1377315916666646},{"name":"A#6","midi":94,"time":162.50013000000126,"velocity":0.8818897637795275,"duration":0.1377315916666646},{"name":"F5","midi":77,"time":162.77790800000128,"velocity":0.8818897637795275,"duration":0.13078714166667282},{"name":"A#5","midi":82,"time":162.77790800000128,"velocity":0.8818897637795275,"duration":0.13078714166667282},{"name":"F6","midi":89,"time":162.77790800000128,"velocity":0.8818897637795275,"duration":0.13078714166667282},{"name":"A#6","midi":94,"time":162.77790800000128,"velocity":0.8818897637795275,"duration":0.13078714166667282},{"name":"F5","midi":77,"time":162.91679700000128,"velocity":0.8818897637795275,"duration":0.13078714166667282},{"name":"A#5","midi":82,"time":162.91679700000128,"velocity":0.8818897637795275,"duration":0.13078714166667282},{"name":"F6","midi":89,"time":162.91679700000128,"velocity":0.8818897637795275,"duration":0.13078714166667282},{"name":"A#6","midi":94,"time":162.91679700000128,"velocity":0.8818897637795275,"duration":0.13078714166667282},{"name":"F5","midi":77,"time":163.0556860000013,"velocity":0.8818897637795275,"duration":0.13078714166667282},{"name":"A#5","midi":82,"time":163.0556860000013,"velocity":0.8818897637795275,"duration":0.13078714166667282},{"name":"F6","midi":89,"time":163.0556860000013,"velocity":0.8818897637795275,"duration":0.13078714166667282},{"name":"A#6","midi":94,"time":163.0556860000013,"velocity":0.8818897637795275,"duration":0.13078714166667282},{"name":"F5","midi":77,"time":163.1945750000013,"velocity":0.8818897637795275,"duration":0.06828709166666158},{"name":"A#5","midi":82,"time":163.1945750000013,"velocity":0.8818897637795275,"duration":0.06828709166666158},{"name":"F6","midi":89,"time":163.1945750000013,"velocity":0.8818897637795275,"duration":0.06828709166666158},{"name":"A#6","midi":94,"time":163.1945750000013,"velocity":0.8818897637795275,"duration":0.06828709166666158},{"name":"F5","midi":77,"time":163.47235300000128,"velocity":0.8818897637795275,"duration":0.06828709166666158},{"name":"A#5","midi":82,"time":163.47235300000128,"velocity":0.8818897637795275,"duration":0.06828709166666158},{"name":"F6","midi":89,"time":163.47235300000128,"velocity":0.8818897637795275,"duration":0.06828709166666158},{"name":"A#6","midi":94,"time":163.47235300000128,"velocity":0.8818897637795275,"duration":0.06828709166666158},{"name":"F5","midi":77,"time":163.75013100000126,"velocity":0.8818897637795275,"duration":0.13078714166667282},{"name":"A#5","midi":82,"time":163.75013100000126,"velocity":0.8818897637795275,"duration":0.13078714166667282},{"name":"F6","midi":89,"time":163.75013100000126,"velocity":0.8818897637795275,"duration":0.13078714166667282},{"name":"A#6","midi":94,"time":163.75013100000126,"velocity":0.8818897637795275,"duration":0.13078714166667282},{"name":"F5","midi":77,"time":163.88902000000127,"velocity":0.8818897637795275,"duration":0.13078714166667282},{"name":"A#5","midi":82,"time":163.88902000000127,"velocity":0.8818897637795275,"duration":0.13078714166667282},{"name":"F6","midi":89,"time":163.88902000000127,"velocity":0.8818897637795275,"duration":0.13078714166667282},{"name":"A#6","midi":94,"time":163.88902000000127,"velocity":0.8818897637795275,"duration":0.13078714166667282},{"name":"F5","midi":77,"time":164.02790900000127,"velocity":0.8818897637795275,"duration":0.13078714166667282},{"name":"A#5","midi":82,"time":164.02790900000127,"velocity":0.8818897637795275,"duration":0.13078714166667282},{"name":"F6","midi":89,"time":164.02790900000127,"velocity":0.8818897637795275,"duration":0.13078714166667282},{"name":"A#6","midi":94,"time":164.02790900000127,"velocity":0.8818897637795275,"duration":0.13078714166667282},{"name":"F5","midi":77,"time":164.16679800000128,"velocity":0.8818897637795275,"duration":0.1377315916666646},{"name":"A#5","midi":82,"time":164.16679800000128,"velocity":0.8818897637795275,"duration":0.1377315916666646},{"name":"F6","midi":89,"time":164.16679800000128,"velocity":0.8818897637795275,"duration":0.1377315916666646},{"name":"A#6","midi":94,"time":164.16679800000128,"velocity":0.8818897637795275,"duration":0.1377315916666646},{"name":"F5","midi":77,"time":164.4445760000013,"velocity":0.8818897637795275,"duration":0.1377315916666646},{"name":"A#5","midi":82,"time":164.4445760000013,"velocity":0.8818897637795275,"duration":0.1377315916666646},{"name":"F6","midi":89,"time":164.4445760000013,"velocity":0.8818897637795275,"duration":0.1377315916666646},{"name":"A#6","midi":94,"time":164.4445760000013,"velocity":0.8818897637795275,"duration":0.1377315916666646},{"name":"F5","midi":77,"time":164.7223540000013,"velocity":0.8818897637795275,"duration":0.13078714166667282},{"name":"A#5","midi":82,"time":164.7223540000013,"velocity":0.8818897637795275,"duration":0.13078714166667282},{"name":"F6","midi":89,"time":164.7223540000013,"velocity":0.8818897637795275,"duration":0.13078714166667282},{"name":"A#6","midi":94,"time":164.7223540000013,"velocity":0.8818897637795275,"duration":0.13078714166667282},{"name":"F5","midi":77,"time":164.8612430000013,"velocity":0.8818897637795275,"duration":0.13078714166667282},{"name":"A#5","midi":82,"time":164.8612430000013,"velocity":0.8818897637795275,"duration":0.13078714166667282},{"name":"F6","midi":89,"time":164.8612430000013,"velocity":0.8818897637795275,"duration":0.13078714166667282},{"name":"A#6","midi":94,"time":164.8612430000013,"velocity":0.8818897637795275,"duration":0.13078714166667282},{"name":"F5","midi":77,"time":165.00013200000132,"velocity":0.8818897637795275,"duration":0.13078714166667282},{"name":"A#5","midi":82,"time":165.00013200000132,"velocity":0.8818897637795275,"duration":0.13078714166667282},{"name":"F6","midi":89,"time":165.00013200000132,"velocity":0.8818897637795275,"duration":0.13078714166667282},{"name":"A#6","midi":94,"time":165.00013200000132,"velocity":0.8818897637795275,"duration":0.13078714166667282},{"name":"F5","midi":77,"time":165.13902100000132,"velocity":0.8818897637795275,"duration":0.13078714166667282},{"name":"A#5","midi":82,"time":165.13902100000132,"velocity":0.8818897637795275,"duration":0.13078714166667282},{"name":"F6","midi":89,"time":165.13902100000132,"velocity":0.8818897637795275,"duration":0.13078714166667282},{"name":"A#6","midi":94,"time":165.13902100000132,"velocity":0.8818897637795275,"duration":0.13078714166667282},{"name":"F5","midi":77,"time":165.41679900000133,"velocity":0.6299212598425197,"duration":0.13078714166667282},{"name":"A#5","midi":82,"time":165.41679900000133,"velocity":0.6299212598425197,"duration":0.13078714166667282},{"name":"F6","midi":89,"time":165.41679900000133,"velocity":0.6299212598425197,"duration":0.13078714166667282},{"name":"A#6","midi":94,"time":165.41679900000133,"velocity":0.6299212598425197,"duration":0.13078714166667282},{"name":"F5","midi":77,"time":165.69457700000135,"velocity":0.8818897637795275,"duration":0.13078714166667282},{"name":"A#5","midi":82,"time":165.69457700000135,"velocity":0.8818897637795275,"duration":0.13078714166667282},{"name":"F6","midi":89,"time":165.69457700000135,"velocity":0.8818897637795275,"duration":0.13078714166667282},{"name":"A#6","midi":94,"time":165.69457700000135,"velocity":0.8818897637795275,"duration":0.13078714166667282},{"name":"F5","midi":77,"time":165.97235500000136,"velocity":0.6299212598425197,"duration":0.13078714166667282},{"name":"A#5","midi":82,"time":165.97235500000136,"velocity":0.6299212598425197,"duration":0.13078714166667282},{"name":"F6","midi":89,"time":165.97235500000136,"velocity":0.6299212598425197,"duration":0.13078714166667282},{"name":"A#6","midi":94,"time":165.97235500000136,"velocity":0.6299212598425197,"duration":0.13078714166667282},{"name":"F5","midi":77,"time":166.25013300000137,"velocity":0.8818897637795275,"duration":0.13078714166667282},{"name":"A#5","midi":82,"time":166.25013300000137,"velocity":0.8818897637795275,"duration":0.13078714166667282},{"name":"F6","midi":89,"time":166.25013300000137,"velocity":0.8818897637795275,"duration":0.13078714166667282},{"name":"A#6","midi":94,"time":166.25013300000137,"velocity":0.8818897637795275,"duration":0.13078714166667282},{"name":"D#5","midi":75,"time":166.38902200000138,"velocity":0.8818897637795275,"duration":0.13078714166667282},{"name":"G#5","midi":80,"time":166.38902200000138,"velocity":0.8818897637795275,"duration":0.13078714166667282},{"name":"D#6","midi":87,"time":166.38902200000138,"velocity":0.8818897637795275,"duration":0.13078714166667282},{"name":"G#6","midi":92,"time":166.38902200000138,"velocity":0.8818897637795275,"duration":0.13078714166667282},{"name":"F5","midi":77,"time":166.52791100000138,"velocity":0.8818897637795275,"duration":0.13078714166667282},{"name":"A#5","midi":82,"time":166.52791100000138,"velocity":0.8818897637795275,"duration":0.13078714166667282},{"name":"F6","midi":89,"time":166.52791100000138,"velocity":0.8818897637795275,"duration":0.13078714166667282},{"name":"A#6","midi":94,"time":166.52791100000138,"velocity":0.8818897637795275,"duration":0.13078714166667282},{"name":"F#5","midi":78,"time":166.6668000000014,"velocity":0.8818897637795275,"duration":0.1377315916666646},{"name":"B5","midi":83,"time":166.6668000000014,"velocity":0.8818897637795275,"duration":0.1377315916666646},{"name":"F#6","midi":90,"time":166.6668000000014,"velocity":0.8818897637795275,"duration":0.1377315916666646},{"name":"B6","midi":95,"time":166.6668000000014,"velocity":0.8818897637795275,"duration":0.1377315916666646},{"name":"F#5","midi":78,"time":166.9445780000014,"velocity":0.8818897637795275,"duration":0.1377315916666646},{"name":"B5","midi":83,"time":166.9445780000014,"velocity":0.8818897637795275,"duration":0.1377315916666646},{"name":"F#6","midi":90,"time":166.9445780000014,"velocity":0.8818897637795275,"duration":0.1377315916666646},{"name":"B6","midi":95,"time":166.9445780000014,"velocity":0.8818897637795275,"duration":0.1377315916666646},{"name":"F#5","midi":78,"time":167.2223560000014,"velocity":0.8818897637795275,"duration":0.13078714166667282},{"name":"B5","midi":83,"time":167.2223560000014,"velocity":0.8818897637795275,"duration":0.13078714166667282},{"name":"F#6","midi":90,"time":167.2223560000014,"velocity":0.8818897637795275,"duration":0.13078714166667282},{"name":"B6","midi":95,"time":167.2223560000014,"velocity":0.8818897637795275,"duration":0.13078714166667282},{"name":"F#5","midi":78,"time":167.36124500000142,"velocity":0.8818897637795275,"duration":0.13078714166667282},{"name":"B5","midi":83,"time":167.36124500000142,"velocity":0.8818897637795275,"duration":0.13078714166667282},{"name":"F#6","midi":90,"time":167.36124500000142,"velocity":0.8818897637795275,"duration":0.13078714166667282},{"name":"B6","midi":95,"time":167.36124500000142,"velocity":0.8818897637795275,"duration":0.13078714166667282},{"name":"F#5","midi":78,"time":167.50013400000142,"velocity":0.8818897637795275,"duration":0.13078714166667282},{"name":"B5","midi":83,"time":167.50013400000142,"velocity":0.8818897637795275,"duration":0.13078714166667282},{"name":"F#6","midi":90,"time":167.50013400000142,"velocity":0.8818897637795275,"duration":0.13078714166667282},{"name":"B6","midi":95,"time":167.50013400000142,"velocity":0.8818897637795275,"duration":0.13078714166667282},{"name":"F#5","midi":78,"time":167.63902300000143,"velocity":0.8818897637795275,"duration":0.06828709166666158},{"name":"B5","midi":83,"time":167.63902300000143,"velocity":0.8818897637795275,"duration":0.06828709166666158},{"name":"F#6","midi":90,"time":167.63902300000143,"velocity":0.8818897637795275,"duration":0.06828709166666158},{"name":"B6","midi":95,"time":167.63902300000143,"velocity":0.8818897637795275,"duration":0.06828709166666158},{"name":"F#5","midi":78,"time":167.9168010000014,"velocity":0.8818897637795275,"duration":0.06828709166666158},{"name":"B5","midi":83,"time":167.9168010000014,"velocity":0.8818897637795275,"duration":0.06828709166666158},{"name":"F#6","midi":90,"time":167.9168010000014,"velocity":0.8818897637795275,"duration":0.06828709166666158},{"name":"B6","midi":95,"time":167.9168010000014,"velocity":0.8818897637795275,"duration":0.06828709166666158},{"name":"F#5","midi":78,"time":168.1945790000014,"velocity":0.8818897637795275,"duration":0.13078714166667282},{"name":"B5","midi":83,"time":168.1945790000014,"velocity":0.8818897637795275,"duration":0.13078714166667282},{"name":"F#6","midi":90,"time":168.1945790000014,"velocity":0.8818897637795275,"duration":0.13078714166667282},{"name":"B6","midi":95,"time":168.1945790000014,"velocity":0.8818897637795275,"duration":0.13078714166667282},{"name":"F#5","midi":78,"time":168.3334680000014,"velocity":0.8818897637795275,"duration":0.13078714166667282},{"name":"B5","midi":83,"time":168.3334680000014,"velocity":0.8818897637795275,"duration":0.13078714166667282},{"name":"F#6","midi":90,"time":168.3334680000014,"velocity":0.8818897637795275,"duration":0.13078714166667282},{"name":"B6","midi":95,"time":168.3334680000014,"velocity":0.8818897637795275,"duration":0.13078714166667282},{"name":"F#5","midi":78,"time":168.4723570000014,"velocity":0.8818897637795275,"duration":0.13078714166667282},{"name":"B5","midi":83,"time":168.4723570000014,"velocity":0.8818897637795275,"duration":0.13078714166667282},{"name":"F#6","midi":90,"time":168.4723570000014,"velocity":0.8818897637795275,"duration":0.13078714166667282},{"name":"B6","midi":95,"time":168.4723570000014,"velocity":0.8818897637795275,"duration":0.13078714166667282},{"name":"F#5","midi":78,"time":168.61124600000142,"velocity":0.8818897637795275,"duration":0.1377315916666646},{"name":"B5","midi":83,"time":168.61124600000142,"velocity":0.8818897637795275,"duration":0.1377315916666646},{"name":"F#6","midi":90,"time":168.61124600000142,"velocity":0.8818897637795275,"duration":0.1377315916666646},{"name":"B6","midi":95,"time":168.61124600000142,"velocity":0.8818897637795275,"duration":0.1377315916666646},{"name":"F#5","midi":78,"time":168.88902400000143,"velocity":0.8818897637795275,"duration":0.1377315916666646},{"name":"B5","midi":83,"time":168.88902400000143,"velocity":0.8818897637795275,"duration":0.1377315916666646},{"name":"F#6","midi":90,"time":168.88902400000143,"velocity":0.8818897637795275,"duration":0.1377315916666646},{"name":"B6","midi":95,"time":168.88902400000143,"velocity":0.8818897637795275,"duration":0.1377315916666646},{"name":"F#5","midi":78,"time":169.16680200000144,"velocity":0.8818897637795275,"duration":0.13078714166667282},{"name":"B5","midi":83,"time":169.16680200000144,"velocity":0.8818897637795275,"duration":0.13078714166667282},{"name":"F#6","midi":90,"time":169.16680200000144,"velocity":0.8818897637795275,"duration":0.13078714166667282},{"name":"B6","midi":95,"time":169.16680200000144,"velocity":0.8818897637795275,"duration":0.13078714166667282},{"name":"F#5","midi":78,"time":169.30569100000145,"velocity":0.8818897637795275,"duration":0.13078714166667282},{"name":"B5","midi":83,"time":169.30569100000145,"velocity":0.8818897637795275,"duration":0.13078714166667282},{"name":"F#6","midi":90,"time":169.30569100000145,"velocity":0.8818897637795275,"duration":0.13078714166667282},{"name":"B6","midi":95,"time":169.30569100000145,"velocity":0.8818897637795275,"duration":0.13078714166667282},{"name":"F#5","midi":78,"time":169.44458000000145,"velocity":0.8818897637795275,"duration":0.13078714166667282},{"name":"B5","midi":83,"time":169.44458000000145,"velocity":0.8818897637795275,"duration":0.13078714166667282},{"name":"F#6","midi":90,"time":169.44458000000145,"velocity":0.8818897637795275,"duration":0.13078714166667282},{"name":"B6","midi":95,"time":169.44458000000145,"velocity":0.8818897637795275,"duration":0.13078714166667282},{"name":"F#5","midi":78,"time":169.58346900000146,"velocity":0.8818897637795275,"duration":0.13078714166667282},{"name":"B5","midi":83,"time":169.58346900000146,"velocity":0.8818897637795275,"duration":0.13078714166667282},{"name":"F#6","midi":90,"time":169.58346900000146,"velocity":0.8818897637795275,"duration":0.13078714166667282},{"name":"B6","midi":95,"time":169.58346900000146,"velocity":0.8818897637795275,"duration":0.13078714166667282},{"name":"F#5","midi":78,"time":169.86124700000147,"velocity":0.6299212598425197,"duration":0.13078714166667282},{"name":"B5","midi":83,"time":169.86124700000147,"velocity":0.6299212598425197,"duration":0.13078714166667282},{"name":"F#6","midi":90,"time":169.86124700000147,"velocity":0.6299212598425197,"duration":0.13078714166667282},{"name":"B6","midi":95,"time":169.86124700000147,"velocity":0.6299212598425197,"duration":0.13078714166667282},{"name":"F#5","midi":78,"time":170.13902500000148,"velocity":0.8818897637795275,"duration":0.13078714166667282},{"name":"B5","midi":83,"time":170.13902500000148,"velocity":0.8818897637795275,"duration":0.13078714166667282},{"name":"F#6","midi":90,"time":170.13902500000148,"velocity":0.8818897637795275,"duration":0.13078714166667282},{"name":"B6","midi":95,"time":170.13902500000148,"velocity":0.8818897637795275,"duration":0.13078714166667282},{"name":"F#5","midi":78,"time":170.4168030000015,"velocity":0.6299212598425197,"duration":0.13078714166667282},{"name":"B5","midi":83,"time":170.4168030000015,"velocity":0.6299212598425197,"duration":0.13078714166667282},{"name":"F#6","midi":90,"time":170.4168030000015,"velocity":0.6299212598425197,"duration":0.13078714166667282},{"name":"B6","midi":95,"time":170.4168030000015,"velocity":0.6299212598425197,"duration":0.13078714166667282},{"name":"F#5","midi":78,"time":170.6945810000015,"velocity":0.8818897637795275,"duration":0.13078714166667282},{"name":"B5","midi":83,"time":170.6945810000015,"velocity":0.8818897637795275,"duration":0.13078714166667282},{"name":"F#6","midi":90,"time":170.6945810000015,"velocity":0.8818897637795275,"duration":0.13078714166667282},{"name":"B6","midi":95,"time":170.6945810000015,"velocity":0.8818897637795275,"duration":0.13078714166667282},{"name":"A#5","midi":82,"time":170.8334700000015,"velocity":0.8818897637795275,"duration":0.13078714166667282},{"name":"D#6","midi":87,"time":170.8334700000015,"velocity":0.8818897637795275,"duration":0.13078714166667282},{"name":"A#6","midi":94,"time":170.8334700000015,"velocity":0.8818897637795275,"duration":0.13078714166667282},{"name":"D#7","midi":99,"time":170.8334700000015,"velocity":0.8818897637795275,"duration":0.13078714166667282},{"name":"G#5","midi":80,"time":170.97235900000152,"velocity":0.8818897637795275,"duration":0.13078714166667282},{"name":"C#6","midi":85,"time":170.97235900000152,"velocity":0.8818897637795275,"duration":0.13078714166667282},{"name":"G#6","midi":92,"time":170.97235900000152,"velocity":0.8818897637795275,"duration":0.13078714166667282},{"name":"C#7","midi":97,"time":170.97235900000152,"velocity":0.8818897637795275,"duration":0.13078714166667282},{"name":"G5","midi":79,"time":171.11124800000152,"velocity":0.8818897637795275,"duration":0.1377315916666646},{"name":"C6","midi":84,"time":171.11124800000152,"velocity":0.8818897637795275,"duration":0.1377315916666646},{"name":"G6","midi":91,"time":171.11124800000152,"velocity":0.8818897637795275,"duration":0.1377315916666646},{"name":"C7","midi":96,"time":171.11124800000152,"velocity":0.8818897637795275,"duration":0.1377315916666646},{"name":"G5","midi":79,"time":171.38902600000154,"velocity":0.8818897637795275,"duration":0.1377315916666646},{"name":"C6","midi":84,"time":171.38902600000154,"velocity":0.8818897637795275,"duration":0.1377315916666646},{"name":"G6","midi":91,"time":171.38902600000154,"velocity":0.8818897637795275,"duration":0.1377315916666646},{"name":"C7","midi":96,"time":171.38902600000154,"velocity":0.8818897637795275,"duration":0.1377315916666646},{"name":"G5","midi":79,"time":171.66680400000155,"velocity":0.8818897637795275,"duration":0.13078714166667282},{"name":"C6","midi":84,"time":171.66680400000155,"velocity":0.8818897637795275,"duration":0.13078714166667282},{"name":"G6","midi":91,"time":171.66680400000155,"velocity":0.8818897637795275,"duration":0.13078714166667282},{"name":"C7","midi":96,"time":171.66680400000155,"velocity":0.8818897637795275,"duration":0.13078714166667282},{"name":"G5","midi":79,"time":171.80569300000155,"velocity":0.8818897637795275,"duration":0.13078714166667282},{"name":"C6","midi":84,"time":171.80569300000155,"velocity":0.8818897637795275,"duration":0.13078714166667282},{"name":"G6","midi":91,"time":171.80569300000155,"velocity":0.8818897637795275,"duration":0.13078714166667282},{"name":"C7","midi":96,"time":171.80569300000155,"velocity":0.8818897637795275,"duration":0.13078714166667282},{"name":"G5","midi":79,"time":171.94458200000156,"velocity":0.8818897637795275,"duration":0.13078714166667282},{"name":"C6","midi":84,"time":171.94458200000156,"velocity":0.8818897637795275,"duration":0.13078714166667282},{"name":"G6","midi":91,"time":171.94458200000156,"velocity":0.8818897637795275,"duration":0.13078714166667282},{"name":"C7","midi":96,"time":171.94458200000156,"velocity":0.8818897637795275,"duration":0.13078714166667282},{"name":"G5","midi":79,"time":172.08347100000157,"velocity":0.8818897637795275,"duration":0.06828709166666158},{"name":"C6","midi":84,"time":172.08347100000157,"velocity":0.8818897637795275,"duration":0.06828709166666158},{"name":"G6","midi":91,"time":172.08347100000157,"velocity":0.8818897637795275,"duration":0.06828709166666158},{"name":"C7","midi":96,"time":172.08347100000157,"velocity":0.8818897637795275,"duration":0.06828709166666158},{"name":"G5","midi":79,"time":172.36124900000155,"velocity":0.8818897637795275,"duration":0.13078714166667282},{"name":"C6","midi":84,"time":172.36124900000155,"velocity":0.8818897637795275,"duration":0.13078714166667282},{"name":"G6","midi":91,"time":172.36124900000155,"velocity":0.8818897637795275,"duration":0.13078714166667282},{"name":"C7","midi":96,"time":172.36124900000155,"velocity":0.8818897637795275,"duration":0.13078714166667282},{"name":"G5","midi":79,"time":172.63902700000156,"velocity":0.8818897637795275,"duration":0.13078714166667282},{"name":"C6","midi":84,"time":172.63902700000156,"velocity":0.8818897637795275,"duration":0.13078714166667282},{"name":"G6","midi":91,"time":172.63902700000156,"velocity":0.8818897637795275,"duration":0.13078714166667282},{"name":"C7","midi":96,"time":172.63902700000156,"velocity":0.8818897637795275,"duration":0.13078714166667282},{"name":"G5","midi":79,"time":172.77791600000157,"velocity":0.8818897637795275,"duration":0.13078714166667282},{"name":"C6","midi":84,"time":172.77791600000157,"velocity":0.8818897637795275,"duration":0.13078714166667282},{"name":"G6","midi":91,"time":172.77791600000157,"velocity":0.8818897637795275,"duration":0.13078714166667282},{"name":"C7","midi":96,"time":172.77791600000157,"velocity":0.8818897637795275,"duration":0.13078714166667282},{"name":"G5","midi":79,"time":172.91680500000157,"velocity":0.8818897637795275,"duration":0.13078714166667282},{"name":"C6","midi":84,"time":172.91680500000157,"velocity":0.8818897637795275,"duration":0.13078714166667282},{"name":"G6","midi":91,"time":172.91680500000157,"velocity":0.8818897637795275,"duration":0.13078714166667282},{"name":"C7","midi":96,"time":172.91680500000157,"velocity":0.8818897637795275,"duration":0.13078714166667282},{"name":"G5","midi":79,"time":173.05569400000158,"velocity":0.8818897637795275,"duration":0.1377315916666646},{"name":"C6","midi":84,"time":173.05569400000158,"velocity":0.8818897637795275,"duration":0.1377315916666646},{"name":"G6","midi":91,"time":173.05569400000158,"velocity":0.8818897637795275,"duration":0.1377315916666646},{"name":"C7","midi":96,"time":173.05569400000158,"velocity":0.8818897637795275,"duration":0.1377315916666646},{"name":"G5","midi":79,"time":173.3334720000016,"velocity":0.8818897637795275,"duration":0.26273169166665866},{"name":"C6","midi":84,"time":173.3334720000016,"velocity":0.8818897637795275,"duration":0.26273169166665866},{"name":"G6","midi":91,"time":173.3334720000016,"velocity":0.8818897637795275,"duration":0.26273169166665866},{"name":"C7","midi":96,"time":173.3334720000016,"velocity":0.8818897637795275,"duration":0.26273169166665866},{"name":"G5","midi":79,"time":173.61125000000158,"velocity":0.8818897637795275,"duration":0.13078714166667282},{"name":"C6","midi":84,"time":173.61125000000158,"velocity":0.8818897637795275,"duration":0.13078714166667282},{"name":"G6","midi":91,"time":173.61125000000158,"velocity":0.8818897637795275,"duration":0.13078714166667282},{"name":"C7","midi":96,"time":173.61125000000158,"velocity":0.8818897637795275,"duration":0.13078714166667282},{"name":"G5","midi":79,"time":173.75013900000158,"velocity":0.8818897637795275,"duration":0.13078714166667282},{"name":"C6","midi":84,"time":173.75013900000158,"velocity":0.8818897637795275,"duration":0.13078714166667282},{"name":"G6","midi":91,"time":173.75013900000158,"velocity":0.8818897637795275,"duration":0.13078714166667282},{"name":"C7","midi":96,"time":173.75013900000158,"velocity":0.8818897637795275,"duration":0.13078714166667282},{"name":"G5","midi":79,"time":173.8890280000016,"velocity":0.8818897637795275,"duration":0.13078714166667282},{"name":"C6","midi":84,"time":173.8890280000016,"velocity":0.8818897637795275,"duration":0.13078714166667282},{"name":"G6","midi":91,"time":173.8890280000016,"velocity":0.8818897637795275,"duration":0.13078714166667282},{"name":"C7","midi":96,"time":173.8890280000016,"velocity":0.8818897637795275,"duration":0.13078714166667282},{"name":"G5","midi":79,"time":174.0279170000016,"velocity":0.8818897637795275,"duration":0.13078714166667282},{"name":"C6","midi":84,"time":174.0279170000016,"velocity":0.8818897637795275,"duration":0.13078714166667282},{"name":"G6","midi":91,"time":174.0279170000016,"velocity":0.8818897637795275,"duration":0.13078714166667282},{"name":"C7","midi":96,"time":174.0279170000016,"velocity":0.8818897637795275,"duration":0.13078714166667282},{"name":"G5","midi":79,"time":174.3056950000016,"velocity":0.6299212598425197,"duration":0.13078714166667282},{"name":"C6","midi":84,"time":174.3056950000016,"velocity":0.6299212598425197,"duration":0.13078714166667282},{"name":"G6","midi":91,"time":174.3056950000016,"velocity":0.6299212598425197,"duration":0.13078714166667282},{"name":"C7","midi":96,"time":174.3056950000016,"velocity":0.6299212598425197,"duration":0.13078714166667282},{"name":"G5","midi":79,"time":174.58347300000162,"velocity":0.8818897637795275,"duration":0.13078714166667282},{"name":"C6","midi":84,"time":174.58347300000162,"velocity":0.8818897637795275,"duration":0.13078714166667282},{"name":"G6","midi":91,"time":174.58347300000162,"velocity":0.8818897637795275,"duration":0.13078714166667282},{"name":"C7","midi":96,"time":174.58347300000162,"velocity":0.8818897637795275,"duration":0.13078714166667282},{"name":"G5","midi":79,"time":174.86125100000163,"velocity":0.6299212598425197,"duration":0.13078714166667282},{"name":"C6","midi":84,"time":174.86125100000163,"velocity":0.6299212598425197,"duration":0.13078714166667282},{"name":"G6","midi":91,"time":174.86125100000163,"velocity":0.6299212598425197,"duration":0.13078714166667282},{"name":"C7","midi":96,"time":174.86125100000163,"velocity":0.6299212598425197,"duration":0.13078714166667282},{"name":"G5","midi":79,"time":175.13902900000164,"velocity":0.8818897637795275,"duration":0.13078714166667282},{"name":"C6","midi":84,"time":175.13902900000164,"velocity":0.8818897637795275,"duration":0.13078714166667282},{"name":"G6","midi":91,"time":175.13902900000164,"velocity":0.8818897637795275,"duration":0.13078714166667282},{"name":"C7","midi":96,"time":175.13902900000164,"velocity":0.8818897637795275,"duration":0.13078714166667282},{"name":"F5","midi":77,"time":175.27791800000165,"velocity":0.8818897637795275,"duration":0.13078714166667282},{"name":"A#5","midi":82,"time":175.27791800000165,"velocity":0.8818897637795275,"duration":0.13078714166667282},{"name":"F6","midi":89,"time":175.27791800000165,"velocity":0.8818897637795275,"duration":0.13078714166667282},{"name":"A#6","midi":94,"time":175.27791800000165,"velocity":0.8818897637795275,"duration":0.13078714166667282},{"name":"G5","midi":79,"time":175.41680700000165,"velocity":0.8818897637795275,"duration":0.13078714166667282},{"name":"C6","midi":84,"time":175.41680700000165,"velocity":0.8818897637795275,"duration":0.13078714166667282},{"name":"G6","midi":91,"time":175.41680700000165,"velocity":0.8818897637795275,"duration":0.13078714166667282},{"name":"C7","midi":96,"time":175.41680700000165,"velocity":0.8818897637795275,"duration":0.13078714166667282},{"name":"F#5","midi":78,"time":175.55569600000166,"velocity":0.8818897637795275,"duration":0.1377315916666646},{"name":"B5","midi":83,"time":175.55569600000166,"velocity":0.8818897637795275,"duration":0.1377315916666646},{"name":"F#6","midi":90,"time":175.55569600000166,"velocity":0.8818897637795275,"duration":0.1377315916666646},{"name":"B6","midi":95,"time":175.55569600000166,"velocity":0.8818897637795275,"duration":0.1377315916666646},{"name":"F#5","midi":78,"time":175.83347400000167,"velocity":0.8818897637795275,"duration":0.1377315916666646},{"name":"B5","midi":83,"time":175.83347400000167,"velocity":0.8818897637795275,"duration":0.1377315916666646},{"name":"F#6","midi":90,"time":175.83347400000167,"velocity":0.8818897637795275,"duration":0.1377315916666646},{"name":"B6","midi":95,"time":175.83347400000167,"velocity":0.8818897637795275,"duration":0.1377315916666646},{"name":"F#5","midi":78,"time":176.11125200000168,"velocity":0.8818897637795275,"duration":0.13078714166667282},{"name":"B5","midi":83,"time":176.11125200000168,"velocity":0.8818897637795275,"duration":0.13078714166667282},{"name":"F#6","midi":90,"time":176.11125200000168,"velocity":0.8818897637795275,"duration":0.13078714166667282},{"name":"B6","midi":95,"time":176.11125200000168,"velocity":0.8818897637795275,"duration":0.13078714166667282},{"name":"F#5","midi":78,"time":176.2501410000017,"velocity":0.8818897637795275,"duration":0.13078714166667282},{"name":"B5","midi":83,"time":176.2501410000017,"velocity":0.8818897637795275,"duration":0.13078714166667282},{"name":"F#6","midi":90,"time":176.2501410000017,"velocity":0.8818897637795275,"duration":0.13078714166667282},{"name":"B6","midi":95,"time":176.2501410000017,"velocity":0.8818897637795275,"duration":0.13078714166667282},{"name":"F#5","midi":78,"time":176.3890300000017,"velocity":0.8818897637795275,"duration":0.13078714166667282},{"name":"B5","midi":83,"time":176.3890300000017,"velocity":0.8818897637795275,"duration":0.13078714166667282},{"name":"F#6","midi":90,"time":176.3890300000017,"velocity":0.8818897637795275,"duration":0.13078714166667282},{"name":"B6","midi":95,"time":176.3890300000017,"velocity":0.8818897637795275,"duration":0.13078714166667282},{"name":"F#5","midi":78,"time":176.5279190000017,"velocity":0.8818897637795275,"duration":0.06828709166666158},{"name":"B5","midi":83,"time":176.5279190000017,"velocity":0.8818897637795275,"duration":0.06828709166666158},{"name":"F#6","midi":90,"time":176.5279190000017,"velocity":0.8818897637795275,"duration":0.06828709166666158},{"name":"B6","midi":95,"time":176.5279190000017,"velocity":0.8818897637795275,"duration":0.06828709166666158},{"name":"F#5","midi":78,"time":176.8056970000017,"velocity":0.8818897637795275,"duration":0.06828709166666158},{"name":"B5","midi":83,"time":176.8056970000017,"velocity":0.8818897637795275,"duration":0.06828709166666158},{"name":"F#6","midi":90,"time":176.8056970000017,"velocity":0.8818897637795275,"duration":0.06828709166666158},{"name":"B6","midi":95,"time":176.8056970000017,"velocity":0.8818897637795275,"duration":0.06828709166666158},{"name":"F#5","midi":78,"time":177.08347500000167,"velocity":0.8818897637795275,"duration":0.13078714166667282},{"name":"B5","midi":83,"time":177.08347500000167,"velocity":0.8818897637795275,"duration":0.13078714166667282},{"name":"F#6","midi":90,"time":177.08347500000167,"velocity":0.8818897637795275,"duration":0.13078714166667282},{"name":"B6","midi":95,"time":177.08347500000167,"velocity":0.8818897637795275,"duration":0.13078714166667282},{"name":"F#5","midi":78,"time":177.22236400000168,"velocity":0.8818897637795275,"duration":0.13078714166667282},{"name":"B5","midi":83,"time":177.22236400000168,"velocity":0.8818897637795275,"duration":0.13078714166667282},{"name":"F#6","midi":90,"time":177.22236400000168,"velocity":0.8818897637795275,"duration":0.13078714166667282},{"name":"B6","midi":95,"time":177.22236400000168,"velocity":0.8818897637795275,"duration":0.13078714166667282},{"name":"F#5","midi":78,"time":177.36125300000168,"velocity":0.8818897637795275,"duration":0.13078714166667282},{"name":"B5","midi":83,"time":177.36125300000168,"velocity":0.8818897637795275,"duration":0.13078714166667282},{"name":"F#6","midi":90,"time":177.36125300000168,"velocity":0.8818897637795275,"duration":0.13078714166667282},{"name":"B6","midi":95,"time":177.36125300000168,"velocity":0.8818897637795275,"duration":0.13078714166667282},{"name":"F#5","midi":78,"time":177.5001420000017,"velocity":0.8818897637795275,"duration":0.1377315916666646},{"name":"B5","midi":83,"time":177.5001420000017,"velocity":0.8818897637795275,"duration":0.1377315916666646},{"name":"F#6","midi":90,"time":177.5001420000017,"velocity":0.8818897637795275,"duration":0.1377315916666646},{"name":"B6","midi":95,"time":177.5001420000017,"velocity":0.8818897637795275,"duration":0.1377315916666646},{"name":"F#5","midi":78,"time":177.7779200000017,"velocity":0.8818897637795275,"duration":0.1377315916666646},{"name":"B5","midi":83,"time":177.7779200000017,"velocity":0.8818897637795275,"duration":0.1377315916666646},{"name":"F#6","midi":90,"time":177.7779200000017,"velocity":0.8818897637795275,"duration":0.1377315916666646},{"name":"B6","midi":95,"time":177.7779200000017,"velocity":0.8818897637795275,"duration":0.1377315916666646},{"name":"F#5","midi":78,"time":178.0556980000017,"velocity":0.8818897637795275,"duration":0.13078714166667282},{"name":"B5","midi":83,"time":178.0556980000017,"velocity":0.8818897637795275,"duration":0.13078714166667282},{"name":"F#6","midi":90,"time":178.0556980000017,"velocity":0.8818897637795275,"duration":0.13078714166667282},{"name":"B6","midi":95,"time":178.0556980000017,"velocity":0.8818897637795275,"duration":0.13078714166667282},{"name":"F#5","midi":78,"time":178.19458700000172,"velocity":0.8818897637795275,"duration":0.13078714166667282},{"name":"B5","midi":83,"time":178.19458700000172,"velocity":0.8818897637795275,"duration":0.13078714166667282},{"name":"F#6","midi":90,"time":178.19458700000172,"velocity":0.8818897637795275,"duration":0.13078714166667282},{"name":"B6","midi":95,"time":178.19458700000172,"velocity":0.8818897637795275,"duration":0.13078714166667282},{"name":"F#5","midi":78,"time":178.33347600000172,"velocity":0.8818897637795275,"duration":0.13078714166667282},{"name":"B5","midi":83,"time":178.33347600000172,"velocity":0.8818897637795275,"duration":0.13078714166667282},{"name":"F#6","midi":90,"time":178.33347600000172,"velocity":0.8818897637795275,"duration":0.13078714166667282},{"name":"B6","midi":95,"time":178.33347600000172,"velocity":0.8818897637795275,"duration":0.13078714166667282},{"name":"F#5","midi":78,"time":178.47236500000173,"velocity":0.8818897637795275,"duration":0.13078714166667282},{"name":"B5","midi":83,"time":178.47236500000173,"velocity":0.8818897637795275,"duration":0.13078714166667282},{"name":"F#6","midi":90,"time":178.47236500000173,"velocity":0.8818897637795275,"duration":0.13078714166667282},{"name":"B6","midi":95,"time":178.47236500000173,"velocity":0.8818897637795275,"duration":0.13078714166667282},{"name":"F#5","midi":78,"time":178.75014300000174,"velocity":0.6299212598425197,"duration":0.13078714166667282},{"name":"B5","midi":83,"time":178.75014300000174,"velocity":0.6299212598425197,"duration":0.13078714166667282},{"name":"F#6","midi":90,"time":178.75014300000174,"velocity":0.6299212598425197,"duration":0.13078714166667282},{"name":"B6","midi":95,"time":178.75014300000174,"velocity":0.6299212598425197,"duration":0.13078714166667282},{"name":"F#5","midi":78,"time":179.02792100000175,"velocity":0.8818897637795275,"duration":0.13078714166667282},{"name":"B5","midi":83,"time":179.02792100000175,"velocity":0.8818897637795275,"duration":0.13078714166667282},{"name":"F#6","midi":90,"time":179.02792100000175,"velocity":0.8818897637795275,"duration":0.13078714166667282},{"name":"B6","midi":95,"time":179.02792100000175,"velocity":0.8818897637795275,"duration":0.13078714166667282},{"name":"F#5","midi":78,"time":179.30569900000177,"velocity":0.6299212598425197,"duration":0.13078714166667282},{"name":"B5","midi":83,"time":179.30569900000177,"velocity":0.6299212598425197,"duration":0.13078714166667282},{"name":"F#6","midi":90,"time":179.30569900000177,"velocity":0.6299212598425197,"duration":0.13078714166667282},{"name":"B6","midi":95,"time":179.30569900000177,"velocity":0.6299212598425197,"duration":0.13078714166667282},{"name":"F#5","midi":78,"time":179.58347700000178,"velocity":0.8818897637795275,"duration":0.13078714166667282},{"name":"B5","midi":83,"time":179.58347700000178,"velocity":0.8818897637795275,"duration":0.13078714166667282},{"name":"F#6","midi":90,"time":179.58347700000178,"velocity":0.8818897637795275,"duration":0.13078714166667282},{"name":"B6","midi":95,"time":179.58347700000178,"velocity":0.8818897637795275,"duration":0.13078714166667282},{"name":"A#5","midi":82,"time":179.72236600000178,"velocity":0.8818897637795275,"duration":0.13078714166667282},{"name":"D#6","midi":87,"time":179.72236600000178,"velocity":0.8818897637795275,"duration":0.13078714166667282},{"name":"A#6","midi":94,"time":179.72236600000178,"velocity":0.8818897637795275,"duration":0.13078714166667282},{"name":"D#7","midi":99,"time":179.72236600000178,"velocity":0.8818897637795275,"duration":0.13078714166667282},{"name":"G#5","midi":80,"time":179.8612550000018,"velocity":0.8818897637795275,"duration":0.13078714166667282},{"name":"C#6","midi":85,"time":179.8612550000018,"velocity":0.8818897637795275,"duration":0.13078714166667282},{"name":"G#6","midi":92,"time":179.8612550000018,"velocity":0.8818897637795275,"duration":0.13078714166667282},{"name":"C#7","midi":97,"time":179.8612550000018,"velocity":0.8818897637795275,"duration":0.13078714166667282},{"name":"F5","midi":77,"time":180.0001440000018,"velocity":0.8818897637795275,"duration":0.1377315916666646},{"name":"A#5","midi":82,"time":180.0001440000018,"velocity":0.8818897637795275,"duration":0.1377315916666646},{"name":"F6","midi":89,"time":180.0001440000018,"velocity":0.8818897637795275,"duration":0.1377315916666646},{"name":"F5","midi":77,"time":180.2779220000018,"velocity":0.8818897637795275,"duration":0.1377315916666646},{"name":"A#5","midi":82,"time":180.2779220000018,"velocity":0.8818897637795275,"duration":0.1377315916666646},{"name":"F6","midi":89,"time":180.2779220000018,"velocity":0.8818897637795275,"duration":0.1377315916666646},{"name":"F5","midi":77,"time":180.55570000000182,"velocity":0.8818897637795275,"duration":0.13078714166667282},{"name":"A#5","midi":82,"time":180.55570000000182,"velocity":0.8818897637795275,"duration":0.13078714166667282},{"name":"F6","midi":89,"time":180.55570000000182,"velocity":0.8818897637795275,"duration":0.13078714166667282},{"name":"F5","midi":77,"time":180.69458900000183,"velocity":0.8818897637795275,"duration":0.13078714166667282},{"name":"A#5","midi":82,"time":180.69458900000183,"velocity":0.8818897637795275,"duration":0.13078714166667282},{"name":"F6","midi":89,"time":180.69458900000183,"velocity":0.8818897637795275,"duration":0.13078714166667282},{"name":"F5","midi":77,"time":180.83347800000183,"velocity":0.8818897637795275,"duration":0.13078714166667282},{"name":"A#5","midi":82,"time":180.83347800000183,"velocity":0.8818897637795275,"duration":0.13078714166667282},{"name":"F6","midi":89,"time":180.83347800000183,"velocity":0.8818897637795275,"duration":0.13078714166667282},{"name":"F5","midi":77,"time":180.97236700000184,"velocity":0.8818897637795275,"duration":0.06828709166666158},{"name":"A#5","midi":82,"time":180.97236700000184,"velocity":0.8818897637795275,"duration":0.06828709166666158},{"name":"F6","midi":89,"time":180.97236700000184,"velocity":0.8818897637795275,"duration":0.06828709166666158},{"name":"F5","midi":77,"time":181.25014500000182,"velocity":0.8818897637795275,"duration":0.06828709166666158},{"name":"A#5","midi":82,"time":181.25014500000182,"velocity":0.8818897637795275,"duration":0.06828709166666158},{"name":"F6","midi":89,"time":181.25014500000182,"velocity":0.8818897637795275,"duration":0.06828709166666158},{"name":"F5","midi":77,"time":181.5279230000018,"velocity":0.8818897637795275,"duration":0.13078714166667282},{"name":"A#5","midi":82,"time":181.5279230000018,"velocity":0.8818897637795275,"duration":0.13078714166667282},{"name":"F6","midi":89,"time":181.5279230000018,"velocity":0.8818897637795275,"duration":0.13078714166667282},{"name":"F5","midi":77,"time":181.6668120000018,"velocity":0.8818897637795275,"duration":0.13078714166667282},{"name":"A#5","midi":82,"time":181.6668120000018,"velocity":0.8818897637795275,"duration":0.13078714166667282},{"name":"F6","midi":89,"time":181.6668120000018,"velocity":0.8818897637795275,"duration":0.13078714166667282},{"name":"A#6","midi":94,"time":181.6668120000018,"velocity":0.8818897637795275,"duration":0.13078714166667282},{"name":"F5","midi":77,"time":181.80570100000182,"velocity":0.8818897637795275,"duration":0.13078714166667282},{"name":"A#5","midi":82,"time":181.80570100000182,"velocity":0.8818897637795275,"duration":0.13078714166667282},{"name":"F6","midi":89,"time":181.80570100000182,"velocity":0.8818897637795275,"duration":0.13078714166667282},{"name":"A#6","midi":94,"time":181.80570100000182,"velocity":0.8818897637795275,"duration":0.13078714166667282},{"name":"F5","midi":77,"time":181.94459000000182,"velocity":0.8818897637795275,"duration":0.1377315916666646},{"name":"A#5","midi":82,"time":181.94459000000182,"velocity":0.8818897637795275,"duration":0.1377315916666646},{"name":"F6","midi":89,"time":181.94459000000182,"velocity":0.8818897637795275,"duration":0.1377315916666646},{"name":"A#6","midi":94,"time":181.94459000000182,"velocity":0.8818897637795275,"duration":0.1377315916666646},{"name":"F5","midi":77,"time":182.22236800000184,"velocity":0.8818897637795275,"duration":0.1377315916666646},{"name":"A#5","midi":82,"time":182.22236800000184,"velocity":0.8818897637795275,"duration":0.1377315916666646},{"name":"F6","midi":89,"time":182.22236800000184,"velocity":0.8818897637795275,"duration":0.1377315916666646},{"name":"A#6","midi":94,"time":182.22236800000184,"velocity":0.8818897637795275,"duration":0.1377315916666646},{"name":"F5","midi":77,"time":182.50014600000185,"velocity":0.8818897637795275,"duration":0.13078714166667282},{"name":"A#5","midi":82,"time":182.50014600000185,"velocity":0.8818897637795275,"duration":0.13078714166667282},{"name":"F6","midi":89,"time":182.50014600000185,"velocity":0.8818897637795275,"duration":0.13078714166667282},{"name":"A#6","midi":94,"time":182.50014600000185,"velocity":0.8818897637795275,"duration":0.13078714166667282},{"name":"F5","midi":77,"time":182.63903500000185,"velocity":0.8818897637795275,"duration":0.13078714166667282},{"name":"A#5","midi":82,"time":182.63903500000185,"velocity":0.8818897637795275,"duration":0.13078714166667282},{"name":"F6","midi":89,"time":182.63903500000185,"velocity":0.8818897637795275,"duration":0.13078714166667282},{"name":"A#6","midi":94,"time":182.63903500000185,"velocity":0.8818897637795275,"duration":0.13078714166667282},{"name":"A#4","midi":70,"time":182.77792400000186,"velocity":0.8818897637795275,"duration":0.13078714166667282},{"name":"F5","midi":77,"time":182.77792400000186,"velocity":0.8818897637795275,"duration":0.13078714166667282},{"name":"A#5","midi":82,"time":182.77792400000186,"velocity":0.8818897637795275,"duration":0.13078714166667282},{"name":"F6","midi":89,"time":182.77792400000186,"velocity":0.8818897637795275,"duration":0.13078714166667282},{"name":"A#6","midi":94,"time":182.77792400000186,"velocity":0.8818897637795275,"duration":0.13078714166667282},{"name":"A#5","midi":82,"time":182.91681300000187,"velocity":0.8818897637795275,"duration":1.4502326416666733},{"name":"A#6","midi":94,"time":182.91681300000187,"velocity":0.8818897637795275,"duration":1.4502326416666733},{"name":"F5","midi":77,"time":184.44459200000188,"velocity":0.8818897637795275,"duration":0.3946762416666729},{"name":"D#5","midi":75,"time":184.8612590000019,"velocity":0.8818897637795275,"duration":0.3946762416666729},{"name":"F#5","midi":78,"time":185.2779260000019,"velocity":0.8818897637795275,"duration":0.3946762416666729},{"name":"C#5","midi":73,"time":185.69459300000193,"velocity":0.8818897637795275,"duration":0.13078714166667282},{"name":"A#4","midi":70,"time":185.83348200000194,"velocity":0.8818897637795275,"duration":0.13078714166667282},{"name":"F5","midi":77,"time":185.97237100000194,"velocity":0.8818897637795275,"duration":0.13078714166667282},{"name":"C#5","midi":73,"time":186.11126000000195,"velocity":0.8818897637795275,"duration":0.13078714166667282},{"name":"A#4","midi":70,"time":186.25014900000195,"velocity":0.8818897637795275,"duration":0.13078714166667282},{"name":"C#5","midi":73,"time":186.38903800000196,"velocity":0.8818897637795275,"duration":0.0648148666666657},{"name":"A#4","midi":70,"time":186.45848250000196,"velocity":0.8818897637795275,"duration":0.0648148666666657},{"name":"F4","midi":65,"time":186.52792700000197,"velocity":0.8818897637795275,"duration":0.0648148666666657},{"name":"A#4","midi":70,"time":186.59737150000197,"velocity":0.8818897637795275,"duration":0.0648148666666657},{"name":"F4","midi":65,"time":186.66681600000197,"velocity":0.8818897637795275,"duration":0.13078714166667282},{"name":"C#4","midi":61,"time":186.80570500000198,"velocity":0.8818897637795275,"duration":0.13078714166667282},{"name":"A#4","midi":70,"time":186.94459400000198,"velocity":0.8818897637795275,"duration":0.13078714166667282},{"name":"F4","midi":65,"time":187.083483000002,"velocity":0.8818897637795275,"duration":0.13078714166667282},{"name":"A#3","midi":58,"time":187.222372000002,"velocity":0.8818897637795275,"duration":0.13078714166667282},{"name":"F3","midi":53,"time":187.361261000002,"velocity":0.8818897637795275,"duration":1.978010841666645},{"name":"F3","midi":53,"time":189.44459600000198,"velocity":0.7559055118110236,"duration":0.5266207916666588},{"name":"A#3","midi":58,"time":189.44459600000198,"velocity":0.7559055118110236,"duration":0.5266207916666588},{"name":"A#4","midi":70,"time":190.00015200000198,"velocity":0.7559055118110236,"duration":0.5266207916666588},{"name":"F5","midi":77,"time":190.00015200000198,"velocity":0.7559055118110236,"duration":0.5266207916666588},{"name":"A#5","midi":82,"time":190.00015200000198,"velocity":0.7559055118110236,"duration":0.5266207916666588},{"name":"A#4","midi":70,"time":190.55570800000197,"velocity":0.7559055118110236,"duration":0.5266207916666588},{"name":"F5","midi":77,"time":190.55570800000197,"velocity":0.7559055118110236,"duration":0.5266207916666588},{"name":"A#5","midi":82,"time":190.55570800000197,"velocity":0.7559055118110236,"duration":0.5266207916666588},{"name":"F3","midi":53,"time":191.11126400000197,"velocity":0.7559055118110236,"duration":0.5266207916666588},{"name":"A#3","midi":58,"time":191.11126400000197,"velocity":0.7559055118110236,"duration":0.5266207916666588},{"name":"C5","midi":72,"time":191.66682000000196,"velocity":0.7559055118110236,"duration":0.5266207916666588},{"name":"F5","midi":77,"time":191.66682000000196,"velocity":0.7559055118110236,"duration":0.5266207916666588},{"name":"C6","midi":84,"time":191.66682000000196,"velocity":0.7559055118110236,"duration":0.5266207916666588},{"name":"F4","midi":65,"time":192.22237600000196,"velocity":0.7559055118110236,"duration":0.5266207916666588},{"name":"C5","midi":72,"time":192.22237600000196,"velocity":0.7559055118110236,"duration":0.5266207916666588},{"name":"F5","midi":77,"time":192.22237600000196,"velocity":0.7559055118110236,"duration":0.5266207916666588},{"name":"F3","midi":53,"time":192.77793200000195,"velocity":0.7559055118110236,"duration":0.5266207916666588},{"name":"A#3","midi":58,"time":192.77793200000195,"velocity":0.7559055118110236,"duration":0.5266207916666588},{"name":"A#4","midi":70,"time":193.33348800000195,"velocity":0.7559055118110236,"duration":0.5266207916666588},{"name":"F5","midi":77,"time":193.33348800000195,"velocity":0.7559055118110236,"duration":0.5266207916666588},{"name":"A#5","midi":82,"time":193.33348800000195,"velocity":0.7559055118110236,"duration":0.5266207916666588},{"name":"A#4","midi":70,"time":193.88904400000195,"velocity":0.7559055118110236,"duration":0.5266207916666588},{"name":"F5","midi":77,"time":193.88904400000195,"velocity":0.7559055118110236,"duration":0.5266207916666588},{"name":"A#5","midi":82,"time":193.88904400000195,"velocity":0.7559055118110236,"duration":0.5266207916666588},{"name":"F3","midi":53,"time":194.44460000000194,"velocity":0.7559055118110236,"duration":0.5266207916666588},{"name":"A#3","midi":58,"time":194.44460000000194,"velocity":0.7559055118110236,"duration":0.5266207916666588},{"name":"C5","midi":72,"time":195.00015600000194,"velocity":0.7559055118110236,"duration":0.5266207916666588},{"name":"F5","midi":77,"time":195.00015600000194,"velocity":0.7559055118110236,"duration":0.5266207916666588},{"name":"C6","midi":84,"time":195.00015600000194,"velocity":0.7559055118110236,"duration":0.5266207916666588},{"name":"F4","midi":65,"time":195.55571200000193,"velocity":0.7559055118110236,"duration":0.5266207916666588},{"name":"C5","midi":72,"time":195.55571200000193,"velocity":0.7559055118110236,"duration":0.5266207916666588},{"name":"F5","midi":77,"time":195.55571200000193,"velocity":0.7559055118110236,"duration":0.5266207916666588},{"name":"G3","midi":55,"time":196.11126800000193,"velocity":0.7559055118110236,"duration":0.5266207916666588},{"name":"D4","midi":62,"time":196.11126800000193,"velocity":0.7559055118110236,"duration":0.5266207916666588},{"name":"G4","midi":67,"time":196.11126800000193,"velocity":0.7559055118110236,"duration":0.5266207916666588},{"name":"G4","midi":67,"time":196.66682400000192,"velocity":0.7559055118110236,"duration":0.5266207916666588},{"name":"D5","midi":74,"time":196.66682400000192,"velocity":0.7559055118110236,"duration":0.5266207916666588},{"name":"G5","midi":79,"time":196.66682400000192,"velocity":0.7559055118110236,"duration":0.5266207916666588},{"name":"G4","midi":67,"time":197.22238000000192,"velocity":0.7559055118110236,"duration":0.5266207916666588},{"name":"D5","midi":74,"time":197.22238000000192,"velocity":0.7559055118110236,"duration":0.5266207916666588},{"name":"G5","midi":79,"time":197.22238000000192,"velocity":0.7559055118110236,"duration":0.5266207916666588},{"name":"G3","midi":55,"time":197.77793600000192,"velocity":0.7559055118110236,"duration":0.5266207916666588},{"name":"D4","midi":62,"time":197.77793600000192,"velocity":0.7559055118110236,"duration":0.5266207916666588},{"name":"G4","midi":67,"time":197.77793600000192,"velocity":0.7559055118110236,"duration":0.5266207916666588},{"name":"A4","midi":69,"time":198.3334920000019,"velocity":0.7559055118110236,"duration":0.5266207916666588},{"name":"D5","midi":74,"time":198.3334920000019,"velocity":0.7559055118110236,"duration":0.5266207916666588},{"name":"A5","midi":81,"time":198.3334920000019,"velocity":0.7559055118110236,"duration":0.5266207916666588},{"name":"D4","midi":62,"time":198.8890480000019,"velocity":0.7559055118110236,"duration":0.5266207916666588},{"name":"G4","midi":67,"time":198.8890480000019,"velocity":0.7559055118110236,"duration":0.5266207916666588},{"name":"D5","midi":74,"time":198.8890480000019,"velocity":0.7559055118110236,"duration":0.5266207916666588},{"name":"G3","midi":55,"time":199.4446040000019,"velocity":0.7559055118110236,"duration":0.5266207916666588},{"name":"D4","midi":62,"time":199.4446040000019,"velocity":0.7559055118110236,"duration":0.5266207916666588},{"name":"G4","midi":67,"time":199.4446040000019,"velocity":0.7559055118110236,"duration":0.5266207916666588},{"name":"G4","midi":67,"time":200.0001600000019,"velocity":0.7559055118110236,"duration":0.5266207916666588},{"name":"D5","midi":74,"time":200.0001600000019,"velocity":0.7559055118110236,"duration":0.5266207916666588},{"name":"G5","midi":79,"time":200.0001600000019,"velocity":0.7559055118110236,"duration":0.5266207916666588},{"name":"G4","midi":67,"time":200.5557160000019,"velocity":0.7559055118110236,"duration":0.5266207916666588},{"name":"D5","midi":74,"time":200.5557160000019,"velocity":0.7559055118110236,"duration":0.5266207916666588},{"name":"G5","midi":79,"time":200.5557160000019,"velocity":0.7559055118110236,"duration":0.5266207916666588},{"name":"G3","midi":55,"time":201.1112720000019,"velocity":0.7559055118110236,"duration":0.5266207916666588},{"name":"D4","midi":62,"time":201.1112720000019,"velocity":0.7559055118110236,"duration":0.5266207916666588},{"name":"G4","midi":67,"time":201.1112720000019,"velocity":0.7559055118110236,"duration":0.5266207916666588},{"name":"A4","midi":69,"time":201.66682800000189,"velocity":0.7559055118110236,"duration":0.5266207916666588},{"name":"D5","midi":74,"time":201.66682800000189,"velocity":0.7559055118110236,"duration":0.5266207916666588},{"name":"A5","midi":81,"time":201.66682800000189,"velocity":0.7559055118110236,"duration":0.5266207916666588},{"name":"D4","midi":62,"time":202.22238400000188,"velocity":0.7559055118110236,"duration":0.5266207916666588},{"name":"G4","midi":67,"time":202.22238400000188,"velocity":0.7559055118110236,"duration":0.5266207916666588},{"name":"D5","midi":74,"time":202.22238400000188,"velocity":0.7559055118110236,"duration":0.5266207916666588},{"name":"D#3","midi":51,"time":202.77794000000188,"velocity":0.7559055118110236,"duration":0.5266207916666588},{"name":"A#3","midi":58,"time":202.77794000000188,"velocity":0.7559055118110236,"duration":0.5266207916666588},{"name":"D#4","midi":63,"time":202.77794000000188,"velocity":0.7559055118110236,"duration":0.5266207916666588},{"name":"D#4","midi":63,"time":203.33349600000187,"velocity":0.7559055118110236,"duration":0.5266207916666588},{"name":"A#4","midi":70,"time":203.33349600000187,"velocity":0.7559055118110236,"duration":0.5266207916666588},{"name":"D#5","midi":75,"time":203.33349600000187,"velocity":0.7559055118110236,"duration":0.5266207916666588},{"name":"D#4","midi":63,"time":203.88905200000187,"velocity":0.7559055118110236,"duration":0.5266207916666588},{"name":"A#4","midi":70,"time":203.88905200000187,"velocity":0.7559055118110236,"duration":0.5266207916666588},{"name":"D#5","midi":75,"time":203.88905200000187,"velocity":0.7559055118110236,"duration":0.5266207916666588},{"name":"D#3","midi":51,"time":204.44460800000186,"velocity":0.7559055118110236,"duration":0.5266207916666588},{"name":"A#3","midi":58,"time":204.44460800000186,"velocity":0.7559055118110236,"duration":0.5266207916666588},{"name":"D#4","midi":63,"time":204.44460800000186,"velocity":0.7559055118110236,"duration":0.5266207916666588},{"name":"F4","midi":65,"time":205.00016400000186,"velocity":0.7559055118110236,"duration":0.5266207916666588},{"name":"A#4","midi":70,"time":205.00016400000186,"velocity":0.7559055118110236,"duration":0.5266207916666588},{"name":"F5","midi":77,"time":205.00016400000186,"velocity":0.7559055118110236,"duration":0.5266207916666588},{"name":"A#3","midi":58,"time":205.55572000000186,"velocity":0.7559055118110236,"duration":0.5266207916666588},{"name":"F4","midi":65,"time":205.55572000000186,"velocity":0.7559055118110236,"duration":0.5266207916666588},{"name":"A#4","midi":70,"time":205.55572000000186,"velocity":0.7559055118110236,"duration":0.5266207916666588},{"name":"D#3","midi":51,"time":206.11127600000185,"velocity":0.7559055118110236,"duration":0.5266207916666588},{"name":"A#3","midi":58,"time":206.11127600000185,"velocity":0.7559055118110236,"duration":0.5266207916666588},{"name":"D#4","midi":63,"time":206.11127600000185,"velocity":0.7559055118110236,"duration":0.5266207916666588},{"name":"D#4","midi":63,"time":206.66683200000185,"velocity":0.7559055118110236,"duration":0.5266207916666588},{"name":"A#4","midi":70,"time":206.66683200000185,"velocity":0.7559055118110236,"duration":0.5266207916666588},{"name":"D#5","midi":75,"time":206.66683200000185,"velocity":0.7559055118110236,"duration":0.5266207916666588},{"name":"D#4","midi":63,"time":207.22238800000184,"velocity":0.7559055118110236,"duration":0.5266207916666588},{"name":"A#4","midi":70,"time":207.22238800000184,"velocity":0.7559055118110236,"duration":0.5266207916666588},{"name":"D#5","midi":75,"time":207.22238800000184,"velocity":0.7559055118110236,"duration":0.5266207916666588},{"name":"D#3","midi":51,"time":207.77794400000184,"velocity":0.7559055118110236,"duration":0.5266207916666588},{"name":"A#3","midi":58,"time":207.77794400000184,"velocity":0.7559055118110236,"duration":0.5266207916666588},{"name":"D#4","midi":63,"time":207.77794400000184,"velocity":0.7559055118110236,"duration":0.5266207916666588},{"name":"F4","midi":65,"time":208.33350000000183,"velocity":0.7559055118110236,"duration":0.5266207916666588},{"name":"A#4","midi":70,"time":208.33350000000183,"velocity":0.7559055118110236,"duration":0.5266207916666588},{"name":"F5","midi":77,"time":208.33350000000183,"velocity":0.7559055118110236,"duration":0.5266207916666588},{"name":"A#3","midi":58,"time":208.88905600000183,"velocity":0.7559055118110236,"duration":0.5266207916666588},{"name":"F4","midi":65,"time":208.88905600000183,"velocity":0.7559055118110236,"duration":0.5266207916666588},{"name":"A#4","midi":70,"time":208.88905600000183,"velocity":0.7559055118110236,"duration":0.5266207916666588},{"name":"F3","midi":53,"time":209.44461200000183,"velocity":0.7559055118110236,"duration":0.5266207916666588},{"name":"C4","midi":60,"time":209.44461200000183,"velocity":0.7559055118110236,"duration":0.5266207916666588},{"name":"F4","midi":65,"time":209.44461200000183,"velocity":0.7559055118110236,"duration":0.5266207916666588},{"name":"F4","midi":65,"time":210.00016800000182,"velocity":0.7559055118110236,"duration":0.5266207916666588},{"name":"C5","midi":72,"time":210.00016800000182,"velocity":0.7559055118110236,"duration":0.5266207916666588},{"name":"F5","midi":77,"time":210.00016800000182,"velocity":0.7559055118110236,"duration":0.5266207916666588},{"name":"F4","midi":65,"time":210.55572400000182,"velocity":0.7559055118110236,"duration":0.5266207916666588},{"name":"C5","midi":72,"time":210.55572400000182,"velocity":0.7559055118110236,"duration":0.5266207916666588},{"name":"F5","midi":77,"time":210.55572400000182,"velocity":0.7559055118110236,"duration":0.5266207916666588},{"name":"F3","midi":53,"time":211.1112800000018,"velocity":0.7559055118110236,"duration":0.5266207916666588},{"name":"C4","midi":60,"time":211.1112800000018,"velocity":0.7559055118110236,"duration":0.5266207916666588},{"name":"F4","midi":65,"time":211.1112800000018,"velocity":0.7559055118110236,"duration":0.5266207916666588},{"name":"G4","midi":67,"time":211.6668360000018,"velocity":0.7559055118110236,"duration":0.5266207916666588},{"name":"C5","midi":72,"time":211.6668360000018,"velocity":0.7559055118110236,"duration":0.5266207916666588},{"name":"G5","midi":79,"time":211.6668360000018,"velocity":0.7559055118110236,"duration":0.5266207916666588},{"name":"C4","midi":60,"time":212.2223920000018,"velocity":0.7559055118110236,"duration":0.5266207916666588},{"name":"G4","midi":67,"time":212.2223920000018,"velocity":0.7559055118110236,"duration":0.5266207916666588},{"name":"C5","midi":72,"time":212.2223920000018,"velocity":0.7559055118110236,"duration":0.5266207916666588},{"name":"F3","midi":53,"time":212.7779480000018,"velocity":0.7559055118110236,"duration":0.5266207916666588},{"name":"C4","midi":60,"time":212.7779480000018,"velocity":0.7559055118110236,"duration":0.5266207916666588},{"name":"F4","midi":65,"time":212.7779480000018,"velocity":0.7559055118110236,"duration":0.5266207916666588},{"name":"F4","midi":65,"time":213.3335040000018,"velocity":0.7559055118110236,"duration":0.5266207916666588},{"name":"C5","midi":72,"time":213.3335040000018,"velocity":0.7559055118110236,"duration":0.5266207916666588},{"name":"F5","midi":77,"time":213.3335040000018,"velocity":0.7559055118110236,"duration":0.5266207916666588},{"name":"F4","midi":65,"time":213.8890600000018,"velocity":0.7559055118110236,"duration":0.5266207916666588},{"name":"C5","midi":72,"time":213.8890600000018,"velocity":0.7559055118110236,"duration":0.5266207916666588},{"name":"F5","midi":77,"time":213.8890600000018,"velocity":0.7559055118110236,"duration":0.5266207916666588},{"name":"F3","midi":53,"time":214.4446160000018,"velocity":0.7559055118110236,"duration":0.5266207916666588},{"name":"C4","midi":60,"time":214.4446160000018,"velocity":0.7559055118110236,"duration":0.5266207916666588},{"name":"F4","midi":65,"time":214.4446160000018,"velocity":0.7559055118110236,"duration":0.5266207916666588},{"name":"G4","midi":67,"time":215.00017200000178,"velocity":0.7559055118110236,"duration":0.5266207916666588},{"name":"C5","midi":72,"time":215.00017200000178,"velocity":0.7559055118110236,"duration":0.5266207916666588},{"name":"G5","midi":79,"time":215.00017200000178,"velocity":0.7559055118110236,"duration":0.5266207916666588},{"name":"C4","midi":60,"time":215.55572800000178,"velocity":0.7559055118110236,"duration":0.5266207916666588},{"name":"G4","midi":67,"time":215.55572800000178,"velocity":0.7559055118110236,"duration":0.5266207916666588},{"name":"C5","midi":72,"time":215.55572800000178,"velocity":0.7559055118110236,"duration":0.5266207916666588},{"name":"F3","midi":53,"time":216.11128400000177,"velocity":0.6299212598425197,"duration":0.5266207916666588},{"name":"A#3","midi":58,"time":216.11128400000177,"velocity":0.6299212598425197,"duration":0.5266207916666588},{"name":"A#4","midi":70,"time":216.66684000000177,"velocity":0.6299212598425197,"duration":0.5266207916666588},{"name":"F5","midi":77,"time":216.66684000000177,"velocity":0.6299212598425197,"duration":0.5266207916666588},{"name":"A#5","midi":82,"time":216.66684000000177,"velocity":0.6299212598425197,"duration":0.5266207916666588},{"name":"A#4","midi":70,"time":217.22239600000177,"velocity":0.6299212598425197,"duration":0.5266207916666588},{"name":"F5","midi":77,"time":217.22239600000177,"velocity":0.6299212598425197,"duration":0.5266207916666588},{"name":"A#5","midi":82,"time":217.22239600000177,"velocity":0.6299212598425197,"duration":0.5266207916666588},{"name":"F3","midi":53,"time":217.77795200000176,"velocity":0.6299212598425197,"duration":0.5266207916666588},{"name":"A#3","midi":58,"time":217.77795200000176,"velocity":0.6299212598425197,"duration":0.5266207916666588},{"name":"F4","midi":65,"time":218.33350800000176,"velocity":0.6299212598425197,"duration":0.5266207916666588},{"name":"C5","midi":72,"time":218.33350800000176,"velocity":0.6299212598425197,"duration":0.5266207916666588},{"name":"F5","midi":77,"time":218.33350800000176,"velocity":0.6299212598425197,"duration":0.5266207916666588},{"name":"F4","midi":65,"time":218.88906400000175,"velocity":0.6299212598425197,"duration":0.5266207916666588},{"name":"C5","midi":72,"time":218.88906400000175,"velocity":0.6299212598425197,"duration":0.5266207916666588},{"name":"F5","midi":77,"time":218.88906400000175,"velocity":0.6299212598425197,"duration":0.5266207916666588},{"name":"F3","midi":53,"time":219.44462000000175,"velocity":0.6299212598425197,"duration":0.5266207916666588},{"name":"A#3","midi":58,"time":219.44462000000175,"velocity":0.6299212598425197,"duration":0.5266207916666588},{"name":"A#4","midi":70,"time":220.00017600000174,"velocity":0.6299212598425197,"duration":0.5266207916666588},{"name":"F5","midi":77,"time":220.00017600000174,"velocity":0.6299212598425197,"duration":0.5266207916666588},{"name":"A#5","midi":82,"time":220.00017600000174,"velocity":0.6299212598425197,"duration":0.5266207916666588},{"name":"A#4","midi":70,"time":220.55573200000174,"velocity":0.6299212598425197,"duration":0.5266207916666588},{"name":"F5","midi":77,"time":220.55573200000174,"velocity":0.6299212598425197,"duration":0.5266207916666588},{"name":"A#5","midi":82,"time":220.55573200000174,"velocity":0.6299212598425197,"duration":0.5266207916666588},{"name":"F3","midi":53,"time":221.11128800000174,"velocity":0.6299212598425197,"duration":0.5266207916666588},{"name":"A#3","midi":58,"time":221.11128800000174,"velocity":0.6299212598425197,"duration":0.5266207916666588},{"name":"F4","midi":65,"time":221.66684400000173,"velocity":0.6299212598425197,"duration":0.5266207916666588},{"name":"C5","midi":72,"time":221.66684400000173,"velocity":0.6299212598425197,"duration":0.5266207916666588},{"name":"F5","midi":77,"time":221.66684400000173,"velocity":0.6299212598425197,"duration":0.5266207916666588},{"name":"F4","midi":65,"time":222.22240000000173,"velocity":0.6299212598425197,"duration":0.5266207916666588},{"name":"C5","midi":72,"time":222.22240000000173,"velocity":0.6299212598425197,"duration":0.5266207916666588},{"name":"F5","midi":77,"time":222.22240000000173,"velocity":0.6299212598425197,"duration":0.5266207916666588},{"name":"B3","midi":59,"time":222.77795600000172,"velocity":0.6299212598425197,"duration":0.5266207916666588},{"name":"E4","midi":64,"time":222.77795600000172,"velocity":0.6299212598425197,"duration":0.5266207916666588},{"name":"E4","midi":64,"time":223.33351200000172,"velocity":0.6299212598425197,"duration":0.5266207916666588},{"name":"B4","midi":71,"time":223.33351200000172,"velocity":0.6299212598425197,"duration":0.5266207916666588},{"name":"E5","midi":76,"time":223.33351200000172,"velocity":0.6299212598425197,"duration":0.5266207916666588},{"name":"E4","midi":64,"time":223.8890680000017,"velocity":0.6299212598425197,"duration":0.5266207916666588},{"name":"B4","midi":71,"time":223.8890680000017,"velocity":0.6299212598425197,"duration":0.5266207916666588},{"name":"E5","midi":76,"time":223.8890680000017,"velocity":0.6299212598425197,"duration":0.5266207916666588},{"name":"B3","midi":59,"time":224.4446240000017,"velocity":0.6299212598425197,"duration":0.5266207916666588},{"name":"E4","midi":64,"time":224.4446240000017,"velocity":0.6299212598425197,"duration":0.5266207916666588},{"name":"B3","midi":59,"time":225.0001800000017,"velocity":0.6299212598425197,"duration":0.5266207916666588},{"name":"E4","midi":64,"time":225.0001800000017,"velocity":0.6299212598425197,"duration":0.5266207916666588},{"name":"B4","midi":71,"time":225.0001800000017,"velocity":0.6299212598425197,"duration":0.5266207916666588},{"name":"B3","midi":59,"time":225.5557360000017,"velocity":0.6299212598425197,"duration":0.5266207916666588},{"name":"E4","midi":64,"time":225.5557360000017,"velocity":0.6299212598425197,"duration":0.5266207916666588},{"name":"B4","midi":71,"time":225.5557360000017,"velocity":0.6299212598425197,"duration":0.5266207916666588},{"name":"C4","midi":60,"time":226.1112920000017,"velocity":0.6299212598425197,"duration":0.5266207916666588},{"name":"F4","midi":65,"time":226.1112920000017,"velocity":0.6299212598425197,"duration":0.5266207916666588},{"name":"F4","midi":65,"time":226.6668480000017,"velocity":0.6299212598425197,"duration":0.5266207916666588},{"name":"C5","midi":72,"time":226.6668480000017,"velocity":0.6299212598425197,"duration":0.5266207916666588},{"name":"F5","midi":77,"time":226.6668480000017,"velocity":0.6299212598425197,"duration":0.5266207916666588},{"name":"F4","midi":65,"time":227.2224040000017,"velocity":0.6299212598425197,"duration":0.5266207916666588},{"name":"C5","midi":72,"time":227.2224040000017,"velocity":0.6299212598425197,"duration":0.5266207916666588},{"name":"F5","midi":77,"time":227.2224040000017,"velocity":0.6299212598425197,"duration":0.5266207916666588},{"name":"C4","midi":60,"time":227.77796000000168,"velocity":0.6299212598425197,"duration":0.5266207916666588},{"name":"F4","midi":65,"time":227.77796000000168,"velocity":0.6299212598425197,"duration":0.5266207916666588},{"name":"C4","midi":60,"time":228.33351600000168,"velocity":0.6299212598425197,"duration":0.5266207916666588},{"name":"F4","midi":65,"time":228.33351600000168,"velocity":0.6299212598425197,"duration":0.5266207916666588},{"name":"C5","midi":72,"time":228.33351600000168,"velocity":0.6299212598425197,"duration":0.5266207916666588},{"name":"C4","midi":60,"time":228.88907200000168,"velocity":0.6299212598425197,"duration":0.5266207916666588},{"name":"F4","midi":65,"time":228.88907200000168,"velocity":0.6299212598425197,"duration":0.5266207916666588},{"name":"C5","midi":72,"time":228.88907200000168,"velocity":0.6299212598425197,"duration":0.5266207916666588},{"name":"F3","midi":53,"time":229.44462800000167,"velocity":0.6299212598425197,"duration":0.5266207916666588},{"name":"A#3","midi":58,"time":229.44462800000167,"velocity":0.6299212598425197,"duration":0.5266207916666588},{"name":"A#4","midi":70,"time":230.00018400000167,"velocity":0.6299212598425197,"duration":0.5266207916666588},{"name":"F5","midi":77,"time":230.00018400000167,"velocity":0.6299212598425197,"duration":0.5266207916666588},{"name":"A#5","midi":82,"time":230.00018400000167,"velocity":0.6299212598425197,"duration":0.5266207916666588},{"name":"A#4","midi":70,"time":230.55574000000166,"velocity":0.6299212598425197,"duration":0.5266207916666588},{"name":"F5","midi":77,"time":230.55574000000166,"velocity":0.6299212598425197,"duration":0.5266207916666588},{"name":"A#5","midi":82,"time":230.55574000000166,"velocity":0.6299212598425197,"duration":0.5266207916666588},{"name":"F3","midi":53,"time":231.11129600000166,"velocity":0.6299212598425197,"duration":0.5266207916666588},{"name":"A#3","midi":58,"time":231.11129600000166,"velocity":0.6299212598425197,"duration":0.5266207916666588},{"name":"F4","midi":65,"time":231.66685200000165,"velocity":0.6299212598425197,"duration":0.5266207916666588},{"name":"C5","midi":72,"time":231.66685200000165,"velocity":0.6299212598425197,"duration":0.5266207916666588},{"name":"F5","midi":77,"time":231.66685200000165,"velocity":0.6299212598425197,"duration":0.5266207916666588},{"name":"F4","midi":65,"time":232.22240800000165,"velocity":0.6299212598425197,"duration":0.5266207916666588},{"name":"C5","midi":72,"time":232.22240800000165,"velocity":0.6299212598425197,"duration":0.5266207916666588},{"name":"F5","midi":77,"time":232.22240800000165,"velocity":0.6299212598425197,"duration":0.5266207916666588},{"name":"F3","midi":53,"time":232.77796400000165,"velocity":0.6299212598425197,"duration":0.5266207916666588},{"name":"A#3","midi":58,"time":232.77796400000165,"velocity":0.6299212598425197,"duration":0.5266207916666588},{"name":"A#4","midi":70,"time":233.33352000000164,"velocity":0.6299212598425197,"duration":0.5266207916666588},{"name":"F5","midi":77,"time":233.33352000000164,"velocity":0.6299212598425197,"duration":0.5266207916666588},{"name":"A#5","midi":82,"time":233.33352000000164,"velocity":0.6299212598425197,"duration":0.5266207916666588},{"name":"A#4","midi":70,"time":233.88907600000164,"velocity":0.6299212598425197,"duration":0.5266207916666588},{"name":"F5","midi":77,"time":233.88907600000164,"velocity":0.6299212598425197,"duration":0.5266207916666588},{"name":"A#5","midi":82,"time":233.88907600000164,"velocity":0.6299212598425197,"duration":0.5266207916666588},{"name":"F3","midi":53,"time":234.44463200000163,"velocity":0.6299212598425197,"duration":0.5266207916666588},{"name":"A#3","midi":58,"time":234.44463200000163,"velocity":0.6299212598425197,"duration":0.5266207916666588},{"name":"F4","midi":65,"time":235.00018800000163,"velocity":0.6299212598425197,"duration":0.5266207916666588},{"name":"C5","midi":72,"time":235.00018800000163,"velocity":0.6299212598425197,"duration":0.5266207916666588},{"name":"F5","midi":77,"time":235.00018800000163,"velocity":0.6299212598425197,"duration":0.5266207916666588},{"name":"F4","midi":65,"time":235.55574400000162,"velocity":0.6299212598425197,"duration":0.5266207916666588},{"name":"C5","midi":72,"time":235.55574400000162,"velocity":0.6299212598425197,"duration":0.5266207916666588},{"name":"F5","midi":77,"time":235.55574400000162,"velocity":0.6299212598425197,"duration":0.5266207916666588},{"name":"B3","midi":59,"time":236.11130000000162,"velocity":0.6299212598425197,"duration":0.5266207916666588},{"name":"E4","midi":64,"time":236.11130000000162,"velocity":0.6299212598425197,"duration":0.5266207916666588},{"name":"E4","midi":64,"time":236.66685600000162,"velocity":0.6299212598425197,"duration":0.5266207916666588},{"name":"B4","midi":71,"time":236.66685600000162,"velocity":0.6299212598425197,"duration":0.5266207916666588},{"name":"E5","midi":76,"time":236.66685600000162,"velocity":0.6299212598425197,"duration":0.5266207916666588},{"name":"E4","midi":64,"time":237.2224120000016,"velocity":0.6299212598425197,"duration":0.5266207916666588},{"name":"B4","midi":71,"time":237.2224120000016,"velocity":0.6299212598425197,"duration":0.5266207916666588},{"name":"E5","midi":76,"time":237.2224120000016,"velocity":0.6299212598425197,"duration":0.5266207916666588},{"name":"B3","midi":59,"time":237.7779680000016,"velocity":0.6299212598425197,"duration":0.5266207916666588},{"name":"E4","midi":64,"time":237.7779680000016,"velocity":0.6299212598425197,"duration":0.5266207916666588},{"name":"B3","midi":59,"time":238.3335240000016,"velocity":0.6299212598425197,"duration":0.5266207916666588},{"name":"E4","midi":64,"time":238.3335240000016,"velocity":0.6299212598425197,"duration":0.5266207916666588},{"name":"B4","midi":71,"time":238.3335240000016,"velocity":0.6299212598425197,"duration":0.5266207916666588},{"name":"B3","midi":59,"time":238.8890800000016,"velocity":0.6299212598425197,"duration":0.5266207916666588},{"name":"E4","midi":64,"time":238.8890800000016,"velocity":0.6299212598425197,"duration":0.5266207916666588},{"name":"B4","midi":71,"time":238.8890800000016,"velocity":0.6299212598425197,"duration":0.5266207916666588},{"name":"C4","midi":60,"time":239.4446360000016,"velocity":0.6299212598425197,"duration":0.5266207916666588},{"name":"F4","midi":65,"time":239.4446360000016,"velocity":0.6299212598425197,"duration":0.5266207916666588},{"name":"F4","midi":65,"time":240.0001920000016,"velocity":0.6299212598425197,"duration":0.5266207916666588},{"name":"C5","midi":72,"time":240.0001920000016,"velocity":0.6299212598425197,"duration":0.5266207916666588},{"name":"F5","midi":77,"time":240.0001920000016,"velocity":0.6299212598425197,"duration":0.5266207916666588},{"name":"F4","midi":65,"time":240.55574800000159,"velocity":0.6299212598425197,"duration":0.5266207916666588},{"name":"C5","midi":72,"time":240.55574800000159,"velocity":0.6299212598425197,"duration":0.5266207916666588},{"name":"F5","midi":77,"time":240.55574800000159,"velocity":0.6299212598425197,"duration":0.5266207916666588},{"name":"C4","midi":60,"time":241.11130400000158,"velocity":0.6299212598425197,"duration":0.5266207916666588},{"name":"F4","midi":65,"time":241.11130400000158,"velocity":0.6299212598425197,"duration":0.5266207916666588},{"name":"C4","midi":60,"time":241.66686000000158,"velocity":0.6299212598425197,"duration":0.5266207916666588},{"name":"F4","midi":65,"time":241.66686000000158,"velocity":0.6299212598425197,"duration":0.5266207916666588},{"name":"C5","midi":72,"time":241.66686000000158,"velocity":0.6299212598425197,"duration":0.5266207916666588},{"name":"C4","midi":60,"time":242.22241600000157,"velocity":0.6299212598425197,"duration":0.5266207916666588},{"name":"F4","midi":65,"time":242.22241600000157,"velocity":0.6299212598425197,"duration":0.5266207916666588},{"name":"C5","midi":72,"time":242.22241600000157,"velocity":0.6299212598425197,"duration":0.5266207916666588},{"name":"F2","midi":41,"time":242.77797200000157,"velocity":0.6299212598425197,"duration":0.5266207916666588},{"name":"A#2","midi":46,"time":242.77797200000157,"velocity":0.6299212598425197,"duration":0.5266207916666588},{"name":"A#2","midi":46,"time":243.33352800000156,"velocity":0.6299212598425197,"duration":0.5266207916666588},{"name":"F3","midi":53,"time":243.33352800000156,"velocity":0.6299212598425197,"duration":0.5266207916666588},{"name":"A#3","midi":58,"time":243.33352800000156,"velocity":0.6299212598425197,"duration":0.5266207916666588},{"name":"A#2","midi":46,"time":243.88908400000156,"velocity":0.6299212598425197,"duration":0.5266207916666588},{"name":"F3","midi":53,"time":243.88908400000156,"velocity":0.6299212598425197,"duration":0.5266207916666588},{"name":"A#3","midi":58,"time":243.88908400000156,"velocity":0.6299212598425197,"duration":0.5266207916666588},{"name":"F2","midi":41,"time":244.44464000000156,"velocity":0.6299212598425197,"duration":0.5266207916666588},{"name":"A#2","midi":46,"time":244.44464000000156,"velocity":0.6299212598425197,"duration":0.5266207916666588},{"name":"F2","midi":41,"time":245.00019600000155,"velocity":0.6299212598425197,"duration":0.5266207916666588},{"name":"A#2","midi":46,"time":245.00019600000155,"velocity":0.6299212598425197,"duration":0.5266207916666588},{"name":"F3","midi":53,"time":245.00019600000155,"velocity":0.6299212598425197,"duration":0.5266207916666588},{"name":"F2","midi":41,"time":245.55575200000155,"velocity":0.6299212598425197,"duration":0.5266207916666588},{"name":"A#2","midi":46,"time":245.55575200000155,"velocity":0.6299212598425197,"duration":0.5266207916666588},{"name":"F3","midi":53,"time":245.55575200000155,"velocity":0.6299212598425197,"duration":0.5266207916666588},{"name":"F2","midi":41,"time":246.11130800000154,"velocity":0.6299212598425197,"duration":0.5266207916666588},{"name":"A#2","midi":46,"time":246.11130800000154,"velocity":0.6299212598425197,"duration":0.5266207916666588},{"name":"A#2","midi":46,"time":246.66686400000154,"velocity":0.6299212598425197,"duration":0.5266207916666588},{"name":"F3","midi":53,"time":246.66686400000154,"velocity":0.6299212598425197,"duration":0.5266207916666588},{"name":"A#3","midi":58,"time":246.66686400000154,"velocity":0.6299212598425197,"duration":0.5266207916666588},{"name":"A#2","midi":46,"time":247.22242000000153,"velocity":0.6299212598425197,"duration":0.5266207916666588},{"name":"F3","midi":53,"time":247.22242000000153,"velocity":0.6299212598425197,"duration":0.5266207916666588},{"name":"A#3","midi":58,"time":247.22242000000153,"velocity":0.6299212598425197,"duration":0.5266207916666588},{"name":"F2","midi":41,"time":247.77797600000153,"velocity":0.6299212598425197,"duration":0.5266207916666588},{"name":"A#2","midi":46,"time":247.77797600000153,"velocity":0.6299212598425197,"duration":0.5266207916666588},{"name":"F2","midi":41,"time":248.33353200000153,"velocity":0.6299212598425197,"duration":0.5266207916666588},{"name":"A#2","midi":46,"time":248.33353200000153,"velocity":0.6299212598425197,"duration":0.5266207916666588},{"name":"F3","midi":53,"time":248.33353200000153,"velocity":0.6299212598425197,"duration":0.5266207916666588},{"name":"F2","midi":41,"time":248.88908800000152,"velocity":0.6299212598425197,"duration":0.5266207916666588},{"name":"A#2","midi":46,"time":248.88908800000152,"velocity":0.6299212598425197,"duration":0.5266207916666588},{"name":"F3","midi":53,"time":248.88908800000152,"velocity":0.6299212598425197,"duration":0.5266207916666588},{"name":"E2","midi":40,"time":250.0002000000015,"velocity":0.6299212598425197,"duration":0.5266207916666588},{"name":"B2","midi":47,"time":250.0002000000015,"velocity":0.6299212598425197,"duration":0.5266207916666588},{"name":"E3","midi":52,"time":250.0002000000015,"velocity":0.6299212598425197,"duration":0.5266207916666588},{"name":"E2","midi":40,"time":250.5557560000015,"velocity":0.6299212598425197,"duration":0.5266207916666588},{"name":"B2","midi":47,"time":250.5557560000015,"velocity":0.6299212598425197,"duration":0.5266207916666588},{"name":"E3","midi":52,"time":250.5557560000015,"velocity":0.6299212598425197,"duration":0.5266207916666588},{"name":"G1","midi":31,"time":251.6668680000015,"velocity":0.6299212598425197,"duration":0.5266207916666588},{"name":"E2","midi":40,"time":251.6668680000015,"velocity":0.6299212598425197,"duration":0.5266207916666588},{"name":"B2","midi":47,"time":251.6668680000015,"velocity":0.6299212598425197,"duration":0.5266207916666588},{"name":"G1","midi":31,"time":252.2224240000015,"velocity":0.6299212598425197,"duration":0.5266207916666588},{"name":"E2","midi":40,"time":252.2224240000015,"velocity":0.6299212598425197,"duration":0.5266207916666588},{"name":"B2","midi":47,"time":252.2224240000015,"velocity":0.6299212598425197,"duration":0.5266207916666588},{"name":"E2","midi":40,"time":253.3335360000015,"velocity":0.6299212598425197,"duration":0.5266207916666588},{"name":"B2","midi":47,"time":253.3335360000015,"velocity":0.6299212598425197,"duration":0.5266207916666588},{"name":"E3","midi":52,"time":253.3335360000015,"velocity":0.6299212598425197,"duration":0.5266207916666588},{"name":"E2","midi":40,"time":253.88909200000148,"velocity":0.6299212598425197,"duration":0.5266207916666588},{"name":"B2","midi":47,"time":253.88909200000148,"velocity":0.6299212598425197,"duration":0.5266207916666588},{"name":"E3","midi":52,"time":253.88909200000148,"velocity":0.6299212598425197,"duration":0.5266207916666588},{"name":"G1","midi":31,"time":255.00020400000147,"velocity":0.6299212598425197,"duration":1.0543989916666874},{"name":"E2","midi":40,"time":255.00020400000147,"velocity":0.6299212598425197,"duration":1.0543989916666874},{"name":"B2","midi":47,"time":255.00020400000147,"velocity":0.6299212598425197,"duration":1.0543989916666874},{"name":"F2","midi":41,"time":256.1113160000015,"velocity":0.6299212598425197,"duration":0.5266207916666872},{"name":"A#2","midi":46,"time":256.1113160000015,"velocity":0.6299212598425197,"duration":0.5266207916666872},{"name":"A#3","midi":58,"time":256.66687200000155,"velocity":0.6299212598425197,"duration":0.5266207916666872},{"name":"F4","midi":65,"time":256.66687200000155,"velocity":0.6299212598425197,"duration":0.5266207916666872},{"name":"A#4","midi":70,"time":256.66687200000155,"velocity":0.6299212598425197,"duration":0.5266207916666872},{"name":"A#3","midi":58,"time":257.22242800000157,"velocity":0.6299212598425197,"duration":0.5266207916666872},{"name":"F4","midi":65,"time":257.22242800000157,"velocity":0.6299212598425197,"duration":0.5266207916666872},{"name":"A#4","midi":70,"time":257.22242800000157,"velocity":0.6299212598425197,"duration":0.5266207916666872},{"name":"F2","midi":41,"time":257.7779840000016,"velocity":0.6299212598425197,"duration":0.5266207916666872},{"name":"A#2","midi":46,"time":257.7779840000016,"velocity":0.6299212598425197,"duration":0.5266207916666872},{"name":"F3","midi":53,"time":258.3335400000016,"velocity":0.6299212598425197,"duration":0.5266207916666872},{"name":"C4","midi":60,"time":258.3335400000016,"velocity":0.6299212598425197,"duration":0.5266207916666872},{"name":"F4","midi":65,"time":258.3335400000016,"velocity":0.6299212598425197,"duration":0.5266207916666872},{"name":"F3","midi":53,"time":258.88909600000164,"velocity":0.6299212598425197,"duration":0.5266207916666872},{"name":"C4","midi":60,"time":258.88909600000164,"velocity":0.6299212598425197,"duration":0.5266207916666872},{"name":"F4","midi":65,"time":258.88909600000164,"velocity":0.6299212598425197,"duration":0.5266207916666872},{"name":"F2","midi":41,"time":259.44465200000167,"velocity":0.6299212598425197,"duration":0.5266207916666872},{"name":"A#2","midi":46,"time":259.44465200000167,"velocity":0.6299212598425197,"duration":0.5266207916666872},{"name":"F#2","midi":42,"time":260.0002080000017,"velocity":0.6299212598425197,"duration":0.5266207916666872},{"name":"A#2","midi":46,"time":260.0002080000017,"velocity":0.6299212598425197,"duration":0.5266207916666872},{"name":"F#3","midi":54,"time":260.0002080000017,"velocity":0.6299212598425197,"duration":0.5266207916666872},{"name":"F#2","midi":42,"time":260.5557640000017,"velocity":0.6299212598425197,"duration":0.5266207916666872},{"name":"A#2","midi":46,"time":260.5557640000017,"velocity":0.6299212598425197,"duration":0.5266207916666872},{"name":"F#3","midi":54,"time":260.5557640000017,"velocity":0.6299212598425197,"duration":0.5266207916666872},{"name":"E2","midi":40,"time":261.66687600000176,"velocity":0.6299212598425197,"duration":0.5266207916666872},{"name":"B2","midi":47,"time":261.66687600000176,"velocity":0.6299212598425197,"duration":0.5266207916666872},{"name":"E3","midi":52,"time":261.66687600000176,"velocity":0.6299212598425197,"duration":0.5266207916666872},{"name":"E2","midi":40,"time":262.2224320000018,"velocity":0.6299212598425197,"duration":0.5266207916666872},{"name":"B2","midi":47,"time":262.2224320000018,"velocity":0.6299212598425197,"duration":0.5266207916666872},{"name":"E3","midi":52,"time":262.2224320000018,"velocity":0.6299212598425197,"duration":0.5266207916666872},{"name":"F2","midi":41,"time":262.7779880000018,"velocity":0.6299212598425197,"duration":0.5266207916666872},{"name":"F3","midi":53,"time":262.7779880000018,"velocity":0.6299212598425197,"duration":0.5266207916666872},{"name":"F2","midi":41,"time":263.33354400000184,"velocity":0.6299212598425197,"duration":0.5266207916666872},{"name":"A#2","midi":46,"time":263.33354400000184,"velocity":0.6299212598425197,"duration":0.5266207916666872},{"name":"F3","midi":53,"time":263.33354400000184,"velocity":0.6299212598425197,"duration":0.5266207916666872},{"name":"F2","midi":41,"time":263.88910000000186,"velocity":0.6299212598425197,"duration":0.5266207916666872},{"name":"A#2","midi":46,"time":263.88910000000186,"velocity":0.6299212598425197,"duration":0.5266207916666872},{"name":"F3","midi":53,"time":263.88910000000186,"velocity":0.6299212598425197,"duration":0.5266207916666872},{"name":"F2","midi":41,"time":264.4446560000019,"velocity":0.6299212598425197,"duration":0.5266207916666872},{"name":"F3","midi":53,"time":264.4446560000019,"velocity":0.6299212598425197,"duration":0.5266207916666872},{"name":"F2","midi":41,"time":265.0002120000019,"velocity":0.6299212598425197,"duration":0.5266207916666872},{"name":"C3","midi":48,"time":265.0002120000019,"velocity":0.6299212598425197,"duration":0.5266207916666872},{"name":"F3","midi":53,"time":265.0002120000019,"velocity":0.6299212598425197,"duration":0.5266207916666872},{"name":"F2","midi":41,"time":265.55576800000193,"velocity":0.6299212598425197,"duration":0.5266207916666872},{"name":"C3","midi":48,"time":265.55576800000193,"velocity":0.6299212598425197,"duration":0.5266207916666872},{"name":"F3","midi":53,"time":265.55576800000193,"velocity":0.6299212598425197,"duration":0.5266207916666872},{"name":"C5","midi":72,"time":266.11132400000196,"velocity":0.6299212598425197,"duration":0.1307871416666444},{"name":"F5","midi":77,"time":266.25021300000196,"velocity":0.6299212598425197,"duration":0.1307871416666444},{"name":"A5","midi":81,"time":266.38910200000197,"velocity":0.6299212598425197,"duration":0.1307871416666444},{"name":"F5","midi":77,"time":266.527991000002,"velocity":0.6299212598425197,"duration":0.1307871416666444},{"name":"C5","midi":72,"time":266.666880000002,"velocity":0.6299212598425197,"duration":0.1307871416666444},{"name":"F5","midi":77,"time":266.805769000002,"velocity":0.6377952755905512,"duration":0.1307871416666444},{"name":"A5","midi":81,"time":266.944658000002,"velocity":0.6456692913385826,"duration":0.1307871416666444},{"name":"F5","midi":77,"time":267.083547000002,"velocity":0.6535433070866141,"duration":0.1307871416666444},{"name":"C5","midi":72,"time":267.222436000002,"velocity":0.6614173228346457,"duration":0.1307871416666444},{"name":"F5","midi":77,"time":267.361325000002,"velocity":0.6692913385826772,"duration":0.1307871416666444},{"name":"A5","midi":81,"time":267.500214000002,"velocity":0.6771653543307087,"duration":0.1307871416666444},{"name":"F5","midi":77,"time":267.639103000002,"velocity":0.6850393700787402,"duration":0.1307871416666444},{"name":"C5","midi":72,"time":267.77799200000203,"velocity":0.6929133858267716,"duration":0.1307871416666444},{"name":"F5","midi":77,"time":267.91688100000204,"velocity":0.7007874015748031,"duration":0.1307871416666444},{"name":"A5","midi":81,"time":268.05577000000204,"velocity":0.7086614173228346,"duration":0.1307871416666444},{"name":"F5","midi":77,"time":268.19465900000205,"velocity":0.7165354330708661,"duration":0.1307871416666444},{"name":"F5","midi":77,"time":268.33354800000205,"velocity":0.7244094488188977,"duration":0.1307871416666444},{"name":"A5","midi":81,"time":268.47243700000206,"velocity":0.7322834645669292,"duration":0.1307871416666444},{"name":"C6","midi":84,"time":268.61132600000207,"velocity":0.7401574803149606,"duration":0.1307871416666444},{"name":"A5","midi":81,"time":268.7502150000021,"velocity":0.7480314960629921,"duration":0.1307871416666444},{"name":"C6","midi":84,"time":268.8891040000021,"velocity":0.7559055118110236,"duration":0.1307871416666444},{"name":"D#6","midi":87,"time":269.0279930000021,"velocity":0.7559055118110236,"duration":0.1307871416666444},{"name":"F6","midi":89,"time":269.1668820000021,"velocity":0.7559055118110236,"duration":0.26273169166665866},{"name":"D5","midi":74,"time":270.5557720000021,"velocity":0.6299212598425197,"duration":0.1307871416666444},{"name":"A4","midi":69,"time":270.83355000000205,"velocity":0.6299212598425197,"duration":0.1307871416666444},{"name":"A#4","midi":70,"time":271.111328000002,"velocity":0.6299212598425197,"duration":0.1307871416666444},{"name":"G4","midi":67,"time":271.38910600000196,"velocity":0.6299212598425197,"duration":0.1307871416666444},{"name":"A4","midi":69,"time":271.6668840000019,"velocity":0.6299212598425197,"duration":0.1307871416666444},{"name":"D5","midi":74,"time":271.94466200000187,"velocity":0.6299212598425197,"duration":0.1307871416666444},{"name":"A4","midi":69,"time":272.2224400000018,"velocity":0.6299212598425197,"duration":0.1307871416666444},{"name":"G4","midi":67,"time":272.36132900000183,"velocity":0.6299212598425197,"duration":0.1307871416666444},{"name":"F4","midi":65,"time":272.50021800000184,"velocity":0.6299212598425197,"duration":0.26273169166665866},{"name":"E4","midi":64,"time":272.77799600000185,"velocity":0.6299212598425197,"duration":0.1307871416666444},{"name":"G4","midi":67,"time":273.0557740000018,"velocity":0.6299212598425197,"duration":0.1307871416666444},{"name":"F4","midi":65,"time":273.33355200000176,"velocity":0.6299212598425197,"duration":0.1307871416666444},{"name":"E4","midi":64,"time":273.47244100000177,"velocity":0.6299212598425197,"duration":0.1307871416666444},{"name":"C#4","midi":61,"time":273.6113300000018,"velocity":0.6299212598425197,"duration":0.26273169166665866},{"name":"D4","midi":62,"time":273.8891080000018,"velocity":0.6299212598425197,"duration":0.1307871416666444},{"name":"A#4","midi":70,"time":274.16688600000174,"velocity":0.6299212598425197,"duration":0.1307871416666444},{"name":"A4","midi":69,"time":274.4446640000017,"velocity":0.6299212598425197,"duration":0.1307871416666444},{"name":"G4","midi":67,"time":274.5835530000017,"velocity":0.6299212598425197,"duration":0.1307871416666444},{"name":"A4","midi":69,"time":274.7224420000017,"velocity":0.6299212598425197,"duration":0.26273169166665866},{"name":"E4","midi":64,"time":275.0002200000017,"velocity":0.6299212598425197,"duration":0.1307871416666444},{"name":"C#4","midi":61,"time":275.2779980000017,"velocity":0.6299212598425197,"duration":0.1307871416666444},{"name":"A#4","midi":70,"time":275.55577600000163,"velocity":0.6299212598425197,"duration":0.1307871416666444},{"name":"A4","midi":69,"time":275.69466500000163,"velocity":0.6299212598425197,"duration":0.1307871416666444},{"name":"G4","midi":67,"time":275.83355400000164,"velocity":0.6299212598425197,"duration":0.26273169166665866},{"name":"A4","midi":69,"time":276.11133200000165,"velocity":0.6299212598425197,"duration":0.26273169166665866},{"name":"D5","midi":74,"time":276.38911000000166,"velocity":0.6299212598425197,"duration":0.1307871416666444},{"name":"F5","midi":77,"time":276.6668880000016,"velocity":0.6299212598425197,"duration":0.1307871416666444},{"name":"E5","midi":76,"time":276.8057770000016,"velocity":0.6299212598425197,"duration":0.1307871416666444},{"name":"D5","midi":74,"time":276.94466600000163,"velocity":0.6299212598425197,"duration":0.26273169166665866},{"name":"F5","midi":77,"time":277.22244400000164,"velocity":0.6299212598425197,"duration":0.1307871416666444},{"name":"D5","midi":74,"time":277.5002220000016,"velocity":0.6299212598425197,"duration":0.1307871416666444},{"name":"A#4","midi":70,"time":277.77800000000155,"velocity":0.6299212598425197,"duration":0.1307871416666444},{"name":"G4","midi":67,"time":277.91688900000156,"velocity":0.6299212598425197,"duration":0.1307871416666444},{"name":"E4","midi":64,"time":278.05577800000157,"velocity":0.6299212598425197,"duration":0.26273169166665866},{"name":"A4","midi":69,"time":278.3335560000016,"velocity":0.6299212598425197,"duration":0.26273169166665866},{"name":"A#4","midi":70,"time":278.6113340000016,"velocity":0.6299212598425197,"duration":0.1307871416666444},{"name":"A4","midi":69,"time":278.88911200000155,"velocity":0.6299212598425197,"duration":0.26273169166665866},{"name":"D5","midi":74,"time":279.4446680000015,"velocity":0.7559055118110236,"duration":0.1307871416666444},{"name":"F5","midi":77,"time":279.4446680000015,"velocity":0.7559055118110236,"duration":0.1307871416666444},{"name":"A4","midi":69,"time":279.72244600000147,"velocity":0.7559055118110236,"duration":0.1307871416666444},{"name":"D5","midi":74,"time":279.72244600000147,"velocity":0.7559055118110236,"duration":0.1307871416666444},{"name":"A#4","midi":70,"time":280.0002240000014,"velocity":0.7559055118110236,"duration":0.1307871416666444},{"name":"E5","midi":76,"time":280.0002240000014,"velocity":0.7559055118110236,"duration":0.1307871416666444},{"name":"G4","midi":67,"time":280.2780020000014,"velocity":0.7559055118110236,"duration":0.1307871416666444},{"name":"C#5","midi":73,"time":280.2780020000014,"velocity":0.7559055118110236,"duration":0.1307871416666444},{"name":"A4","midi":69,"time":280.55578000000133,"velocity":0.7559055118110236,"duration":0.1307871416666444},{"name":"D5","midi":74,"time":280.55578000000133,"velocity":0.7559055118110236,"duration":0.1307871416666444},{"name":"D5","midi":74,"time":280.8335580000013,"velocity":0.7559055118110236,"duration":0.1307871416666444},{"name":"F5","midi":77,"time":280.8335580000013,"velocity":0.7559055118110236,"duration":0.1307871416666444},{"name":"A4","midi":69,"time":281.11133600000124,"velocity":0.7559055118110236,"duration":0.1307871416666444},{"name":"D5","midi":74,"time":281.11133600000124,"velocity":0.7559055118110236,"duration":0.1307871416666444},{"name":"G4","midi":67,"time":281.25022500000125,"velocity":0.7559055118110236,"duration":0.1307871416666444},{"name":"C#5","midi":73,"time":281.25022500000125,"velocity":0.7559055118110236,"duration":0.1307871416666444},{"name":"F4","midi":65,"time":281.38911400000126,"velocity":0.7559055118110236,"duration":0.26273169166665866},{"name":"D5","midi":74,"time":281.38911400000126,"velocity":0.7559055118110236,"duration":0.26273169166665866},{"name":"E4","midi":64,"time":281.66689200000127,"velocity":0.7559055118110236,"duration":0.1307871416666444},{"name":"C#5","midi":73,"time":281.66689200000127,"velocity":0.7559055118110236,"duration":0.1307871416666444},{"name":"G4","midi":67,"time":281.9446700000012,"velocity":0.7559055118110236,"duration":0.1307871416666444},{"name":"E5","midi":76,"time":281.9446700000012,"velocity":0.7559055118110236,"duration":0.1307871416666444},{"name":"F4","midi":65,"time":282.2224480000012,"velocity":0.7559055118110236,"duration":0.1307871416666444},{"name":"C#5","midi":73,"time":282.2224480000012,"velocity":0.7559055118110236,"duration":0.1307871416666444},{"name":"E4","midi":64,"time":282.3613370000012,"velocity":0.7559055118110236,"duration":0.1307871416666444},{"name":"A4","midi":69,"time":282.3613370000012,"velocity":0.7559055118110236,"duration":0.1307871416666444},{"name":"C#4","midi":61,"time":282.5002260000012,"velocity":0.7559055118110236,"duration":0.26273169166665866},{"name":"G4","midi":67,"time":282.5002260000012,"velocity":0.7559055118110236,"duration":0.26273169166665866},{"name":"D4","midi":62,"time":282.7780040000012,"velocity":0.7559055118110236,"duration":0.1307871416666444},{"name":"A4","midi":69,"time":282.7780040000012,"velocity":0.7559055118110236,"duration":0.1307871416666444},{"name":"A#4","midi":70,"time":283.05578200000116,"velocity":0.7559055118110236,"duration":0.1307871416666444},{"name":"F5","midi":77,"time":283.05578200000116,"velocity":0.7559055118110236,"duration":0.1307871416666444},{"name":"A4","midi":69,"time":283.3335600000011,"velocity":0.7559055118110236,"duration":0.1307871416666444},{"name":"D5","midi":74,"time":283.3335600000011,"velocity":0.7559055118110236,"duration":0.1307871416666444},{"name":"G4","midi":67,"time":283.4724490000011,"velocity":0.7559055118110236,"duration":0.1307871416666444},{"name":"C#5","midi":73,"time":283.4724490000011,"velocity":0.7559055118110236,"duration":0.1307871416666444},{"name":"A4","midi":69,"time":283.6113380000011,"velocity":0.7559055118110236,"duration":0.26273169166665866},{"name":"D5","midi":74,"time":283.6113380000011,"velocity":0.7559055118110236,"duration":0.26273169166665866},{"name":"E4","midi":64,"time":283.88911600000114,"velocity":0.7559055118110236,"duration":0.1307871416666444},{"name":"C#5","midi":73,"time":283.88911600000114,"velocity":0.7559055118110236,"duration":0.1307871416666444},{"name":"C#4","midi":61,"time":284.1668940000011,"velocity":0.7559055118110236,"duration":0.1307871416666444},{"name":"A4","midi":69,"time":284.1668940000011,"velocity":0.7559055118110236,"duration":0.1307871416666444},{"name":"A#4","midi":70,"time":284.44467200000105,"velocity":0.7559055118110236,"duration":0.1307871416666444},{"name":"F5","midi":77,"time":284.44467200000105,"velocity":0.7559055118110236,"duration":0.1307871416666444},{"name":"A4","midi":69,"time":284.58356100000105,"velocity":0.7559055118110236,"duration":0.1307871416666444},{"name":"E5","midi":76,"time":284.58356100000105,"velocity":0.7559055118110236,"duration":0.1307871416666444},{"name":"G4","midi":67,"time":284.72245000000106,"velocity":0.7559055118110236,"duration":0.26273169166665866},{"name":"C#5","midi":73,"time":284.72245000000106,"velocity":0.7559055118110236,"duration":0.26273169166665866},{"name":"A4","midi":69,"time":285.0002280000011,"velocity":0.7559055118110236,"duration":0.26273169166665866},{"name":"D5","midi":74,"time":285.0002280000011,"velocity":0.7559055118110236,"duration":0.26273169166665866},{"name":"D5","midi":74,"time":285.2780060000011,"velocity":0.7559055118110236,"duration":0.1307871416666444},{"name":"A5","midi":81,"time":285.2780060000011,"velocity":0.7559055118110236,"duration":0.1307871416666444},{"name":"F5","midi":77,"time":285.55578400000104,"velocity":0.7559055118110236,"duration":0.1307871416666444},{"name":"C6","midi":84,"time":285.55578400000104,"velocity":0.7559055118110236,"duration":0.1307871416666444},{"name":"E5","midi":76,"time":285.69467300000105,"velocity":0.7559055118110236,"duration":0.1307871416666444},{"name":"A#5","midi":82,"time":285.69467300000105,"velocity":0.7559055118110236,"duration":0.1307871416666444},{"name":"D5","midi":74,"time":285.83356200000105,"velocity":0.7559055118110236,"duration":0.26273169166665866},{"name":"A5","midi":81,"time":285.83356200000105,"velocity":0.7559055118110236,"duration":0.26273169166665866},{"name":"A#4","midi":70,"time":286.11134000000106,"velocity":0.7559055118110236,"duration":0.1307871416666444},{"name":"A#4","midi":70,"time":286.389118000001,"velocity":0.7559055118110236,"duration":0.1307871416666444},{"name":"A4","midi":69,"time":286.528007000001,"velocity":0.7559055118110236,"duration":0.1307871416666444},{"name":"G4","midi":67,"time":286.66689600000103,"velocity":0.7559055118110236,"duration":0.1307871416666444},{"name":"F4","midi":65,"time":286.80578500000104,"velocity":0.7559055118110236,"duration":0.1307871416666444},{"name":"E4","midi":64,"time":286.94467400000104,"velocity":0.7559055118110236,"duration":0.26273169166665866},{"name":"C#4","midi":61,"time":287.22245200000106,"velocity":0.7559055118110236,"duration":0.26273169166665866},{"name":"A4","midi":69,"time":287.50023000000107,"velocity":0.7559055118110236,"duration":0.26273169166665866},{"name":"D4","midi":62,"time":287.7780080000011,"velocity":0.7559055118110236,"duration":0.26273169166665866},{"name":"D3","midi":50,"time":288.33356400000105,"velocity":0.8818897637795275,"duration":0.1307871416666444},{"name":"D4","midi":62,"time":288.33356400000105,"velocity":0.8818897637795275,"duration":0.1307871416666444},{"name":"A2","midi":45,"time":288.611342000001,"velocity":0.8818897637795275,"duration":0.1307871416666444},{"name":"A3","midi":57,"time":288.611342000001,"velocity":0.8818897637795275,"duration":0.1307871416666444},{"name":"A#2","midi":46,"time":288.88912000000096,"velocity":0.8818897637795275,"duration":0.1307871416666444},{"name":"A#3","midi":58,"time":288.88912000000096,"velocity":0.8818897637795275,"duration":0.1307871416666444},{"name":"G2","midi":43,"time":289.1668980000009,"velocity":0.8818897637795275,"duration":0.1307871416666444},{"name":"G3","midi":55,"time":289.1668980000009,"velocity":0.8818897637795275,"duration":0.1307871416666444},{"name":"G2","midi":43,"time":289.44467600000087,"velocity":0.8818897637795275,"duration":0.084490808333328},{"name":"G3","midi":55,"time":289.44467600000087,"velocity":0.8818897637795275,"duration":0.084490808333328},{"name":"A2","midi":45,"time":289.5303242166675,"velocity":0.8818897637795275,"duration":0.17939829166664367},{"name":"A3","midi":57,"time":289.5303242166675,"velocity":0.8818897637795275,"duration":0.17939829166664367},{"name":"D3","midi":50,"time":289.7224540000008,"velocity":0.8818897637795275,"duration":0.1307871416666444},{"name":"D4","midi":62,"time":289.7224540000008,"velocity":0.8818897637795275,"duration":0.1307871416666444},{"name":"A2","midi":45,"time":290.0002320000008,"velocity":0.8818897637795275,"duration":0.1307871416666444},{"name":"A3","midi":57,"time":290.0002320000008,"velocity":0.8818897637795275,"duration":0.1307871416666444},{"name":"G2","midi":43,"time":290.1391210000008,"velocity":0.8818897637795275,"duration":0.1307871416666444},{"name":"G3","midi":55,"time":290.1391210000008,"velocity":0.8818897637795275,"duration":0.1307871416666444},{"name":"F2","midi":41,"time":290.2780100000008,"velocity":0.8818897637795275,"duration":0.26273169166665866},{"name":"F3","midi":53,"time":290.2780100000008,"velocity":0.8818897637795275,"duration":0.26273169166665866},{"name":"F2","midi":41,"time":290.5557880000008,"velocity":0.8818897637795275,"duration":0.084490808333328},{"name":"F3","midi":53,"time":290.5557880000008,"velocity":0.8818897637795275,"duration":0.084490808333328},{"name":"E2","midi":40,"time":290.64143621666744,"velocity":0.8818897637795275,"duration":0.17939829166664367},{"name":"E3","midi":52,"time":290.64143621666744,"velocity":0.8818897637795275,"duration":0.17939829166664367},{"name":"G2","midi":43,"time":290.83356600000076,"velocity":0.8818897637795275,"duration":0.1307871416666444},{"name":"G3","midi":55,"time":290.83356600000076,"velocity":0.8818897637795275,"duration":0.1307871416666444},{"name":"F2","midi":41,"time":291.1113440000007,"velocity":0.8818897637795275,"duration":0.1307871416666444},{"name":"F3","midi":53,"time":291.1113440000007,"velocity":0.8818897637795275,"duration":0.1307871416666444},{"name":"E2","midi":40,"time":291.2502330000007,"velocity":0.8818897637795275,"duration":0.1307871416666444},{"name":"E3","midi":52,"time":291.2502330000007,"velocity":0.8818897637795275,"duration":0.1307871416666444},{"name":"C#2","midi":37,"time":291.3891220000007,"velocity":0.8818897637795275,"duration":0.26273169166665866},{"name":"C#3","midi":49,"time":291.3891220000007,"velocity":0.8818897637795275,"duration":0.26273169166665866},{"name":"D2","midi":38,"time":291.66690000000074,"velocity":0.8818897637795275,"duration":0.26273169166665866},{"name":"D3","midi":50,"time":291.66690000000074,"velocity":0.8818897637795275,"duration":0.26273169166665866},{"name":"A#2","midi":46,"time":291.94467800000075,"velocity":0.8818897637795275,"duration":0.1307871416666444},{"name":"A#3","midi":58,"time":291.94467800000075,"velocity":0.8818897637795275,"duration":0.1307871416666444},{"name":"A2","midi":45,"time":292.2224560000007,"velocity":0.8818897637795275,"duration":0.1307871416666444},{"name":"A3","midi":57,"time":292.2224560000007,"velocity":0.8818897637795275,"duration":0.1307871416666444},{"name":"G2","midi":43,"time":292.3613450000007,"velocity":0.8818897637795275,"duration":0.1307871416666444},{"name":"G3","midi":55,"time":292.3613450000007,"velocity":0.8818897637795275,"duration":0.1307871416666444},{"name":"A2","midi":45,"time":292.5002340000007,"velocity":0.8818897637795275,"duration":0.26273169166665866},{"name":"A3","midi":57,"time":292.5002340000007,"velocity":0.8818897637795275,"duration":0.26273169166665866},{"name":"E2","midi":40,"time":292.77801200000073,"velocity":0.8818897637795275,"duration":0.1307871416666444},{"name":"E3","midi":52,"time":292.77801200000073,"velocity":0.8818897637795275,"duration":0.1307871416666444},{"name":"C#2","midi":37,"time":293.0557900000007,"velocity":0.8818897637795275,"duration":0.1307871416666444},{"name":"C#3","midi":49,"time":293.0557900000007,"velocity":0.8818897637795275,"duration":0.1307871416666444},{"name":"A#2","midi":46,"time":293.33356800000064,"velocity":0.8818897637795275,"duration":0.1307871416666444},{"name":"A#3","midi":58,"time":293.33356800000064,"velocity":0.8818897637795275,"duration":0.1307871416666444},{"name":"A2","midi":45,"time":293.47245700000065,"velocity":0.8818897637795275,"duration":0.1307871416666444},{"name":"A3","midi":57,"time":293.47245700000065,"velocity":0.8818897637795275,"duration":0.1307871416666444},{"name":"G2","midi":43,"time":293.61134600000065,"velocity":0.8818897637795275,"duration":0.1307871416666444},{"name":"G3","midi":55,"time":293.61134600000065,"velocity":0.8818897637795275,"duration":0.1307871416666444},{"name":"A2","midi":45,"time":293.8891240000006,"velocity":0.8818897637795275,"duration":0.26273169166665866},{"name":"A3","midi":57,"time":293.8891240000006,"velocity":0.8818897637795275,"duration":0.26273169166665866},{"name":"D3","midi":50,"time":294.1669020000006,"velocity":0.8818897637795275,"duration":0.1307871416666444},{"name":"D4","midi":62,"time":294.1669020000006,"velocity":0.8818897637795275,"duration":0.1307871416666444},{"name":"F3","midi":53,"time":294.4446800000006,"velocity":0.8818897637795275,"duration":0.1307871416666444},{"name":"F4","midi":65,"time":294.4446800000006,"velocity":0.8818897637795275,"duration":0.1307871416666444},{"name":"E3","midi":52,"time":294.5835690000006,"velocity":0.8818897637795275,"duration":0.1307871416666444},{"name":"E4","midi":64,"time":294.5835690000006,"velocity":0.8818897637795275,"duration":0.1307871416666444},{"name":"D3","midi":50,"time":294.7224580000006,"velocity":0.8818897637795275,"duration":0.26273169166665866},{"name":"D4","midi":62,"time":294.7224580000006,"velocity":0.8818897637795275,"duration":0.26273169166665866},{"name":"F3","midi":53,"time":295.0002360000006,"velocity":0.8818897637795275,"duration":0.1307871416666444},{"name":"F4","midi":65,"time":295.0002360000006,"velocity":0.8818897637795275,"duration":0.1307871416666444},{"name":"D3","midi":50,"time":295.27801400000055,"velocity":0.8818897637795275,"duration":0.08680562500001088},{"name":"D4","midi":62,"time":295.27801400000055,"velocity":0.8818897637795275,"duration":0.08680562500001088},{"name":"F3","midi":53,"time":295.37060666666724,"velocity":0.8818897637795275,"duration":0.08680562500001088},{"name":"F4","midi":65,"time":295.37060666666724,"velocity":0.8818897637795275,"duration":0.08680562500001088},{"name":"D3","midi":50,"time":295.46319933333393,"velocity":0.8818897637795275,"duration":0.08680562500001088},{"name":"D4","midi":62,"time":295.46319933333393,"velocity":0.8818897637795275,"duration":0.08680562500001088},{"name":"A#2","midi":46,"time":295.5557920000006,"velocity":0.8818897637795275,"duration":0.1307871416666444},{"name":"A#3","midi":58,"time":295.5557920000006,"velocity":0.8818897637795275,"duration":0.1307871416666444},{"name":"G2","midi":43,"time":295.6946810000006,"velocity":0.8818897637795275,"duration":0.1307871416666444},{"name":"G3","midi":55,"time":295.6946810000006,"velocity":0.8818897637795275,"duration":0.1307871416666444},{"name":"E2","midi":40,"time":295.83357000000063,"velocity":0.8818897637795275,"duration":0.26273169166665866},{"name":"E3","midi":52,"time":295.83357000000063,"velocity":0.8818897637795275,"duration":0.26273169166665866},{"name":"A2","midi":45,"time":296.11134800000065,"velocity":0.8818897637795275,"duration":0.1307871416666444},{"name":"A3","midi":57,"time":296.11134800000065,"velocity":0.8818897637795275,"duration":0.1307871416666444},{"name":"A#2","midi":46,"time":296.3891260000006,"velocity":0.8818897637795275,"duration":0.1307871416666444},{"name":"A#3","midi":58,"time":296.3891260000006,"velocity":0.8818897637795275,"duration":0.1307871416666444},{"name":"A2","midi":45,"time":296.66690400000056,"velocity":0.8818897637795275,"duration":0.3946762416666729},{"name":"A3","midi":57,"time":296.66690400000056,"velocity":0.8818897637795275,"duration":0.3946762416666729},{"name":"C3","midi":48,"time":297.0835710000006,"velocity":0.8818897637795275,"duration":0.0648148666666657},{"name":"C4","midi":60,"time":297.0835710000006,"velocity":0.8818897637795275,"duration":0.0648148666666657},{"name":"C#3","midi":49,"time":297.15301550000055,"velocity":0.8818897637795275,"duration":0.0648148666666657},{"name":"C#4","midi":61,"time":297.15301550000055,"velocity":0.8818897637795275,"duration":0.0648148666666657},{"name":"D3","midi":50,"time":297.2224600000005,"velocity":0.8818897637795275,"duration":0.1307871416666444},{"name":"D4","midi":62,"time":297.2224600000005,"velocity":0.8818897637795275,"duration":0.1307871416666444},{"name":"A2","midi":45,"time":297.5002380000005,"velocity":0.8818897637795275,"duration":0.1307871416666444},{"name":"A3","midi":57,"time":297.5002380000005,"velocity":0.8818897637795275,"duration":0.1307871416666444},{"name":"A#2","midi":46,"time":297.77801600000043,"velocity":0.8818897637795275,"duration":0.1307871416666444},{"name":"A#3","midi":58,"time":297.77801600000043,"velocity":0.8818897637795275,"duration":0.1307871416666444},{"name":"G2","midi":43,"time":298.0557940000004,"velocity":0.8818897637795275,"duration":0.1307871416666444},{"name":"G3","midi":55,"time":298.0557940000004,"velocity":0.8818897637795275,"duration":0.1307871416666444},{"name":"G2","midi":43,"time":298.33357200000034,"velocity":0.8818897637795275,"duration":0.084490808333328},{"name":"G3","midi":55,"time":298.33357200000034,"velocity":0.8818897637795275,"duration":0.084490808333328},{"name":"A2","midi":45,"time":298.419220216667,"velocity":0.8818897637795275,"duration":0.17939829166664367},{"name":"A3","midi":57,"time":298.419220216667,"velocity":0.8818897637795275,"duration":0.17939829166664367},{"name":"D3","midi":50,"time":298.6113500000003,"velocity":0.8818897637795275,"duration":0.1307871416666444},{"name":"D4","midi":62,"time":298.6113500000003,"velocity":0.8818897637795275,"duration":0.1307871416666444},{"name":"A2","midi":45,"time":298.88912800000026,"velocity":0.8818897637795275,"duration":0.1307871416666444},{"name":"A3","midi":57,"time":298.88912800000026,"velocity":0.8818897637795275,"duration":0.1307871416666444},{"name":"G2","midi":43,"time":299.02801700000026,"velocity":0.8818897637795275,"duration":0.1307871416666444},{"name":"G3","midi":55,"time":299.02801700000026,"velocity":0.8818897637795275,"duration":0.1307871416666444},{"name":"F2","midi":41,"time":299.16690600000027,"velocity":0.8818897637795275,"duration":0.26273169166665866},{"name":"F3","midi":53,"time":299.16690600000027,"velocity":0.8818897637795275,"duration":0.26273169166665866},{"name":"F2","midi":41,"time":299.4446840000003,"velocity":0.8818897637795275,"duration":0.084490808333328},{"name":"F3","midi":53,"time":299.4446840000003,"velocity":0.8818897637795275,"duration":0.084490808333328},{"name":"E2","midi":40,"time":299.5303322166669,"velocity":0.8818897637795275,"duration":0.17939829166664367},{"name":"E3","midi":52,"time":299.5303322166669,"velocity":0.8818897637795275,"duration":0.17939829166664367},{"name":"G2","midi":43,"time":299.72246200000023,"velocity":0.8818897637795275,"duration":0.1307871416666444},{"name":"G3","midi":55,"time":299.72246200000023,"velocity":0.8818897637795275,"duration":0.1307871416666444},{"name":"F2","midi":41,"time":300.0002400000002,"velocity":0.8818897637795275,"duration":0.1307871416666444},{"name":"F3","midi":53,"time":300.0002400000002,"velocity":0.8818897637795275,"duration":0.1307871416666444},{"name":"E2","midi":40,"time":300.1391290000002,"velocity":0.8818897637795275,"duration":0.1307871416666444},{"name":"E3","midi":52,"time":300.1391290000002,"velocity":0.8818897637795275,"duration":0.1307871416666444},{"name":"C#2","midi":37,"time":300.2780180000002,"velocity":0.8818897637795275,"duration":0.26273169166665866},{"name":"C#3","midi":49,"time":300.2780180000002,"velocity":0.8818897637795275,"duration":0.26273169166665866},{"name":"D2","midi":38,"time":300.5557960000002,"velocity":0.8818897637795275,"duration":0.26273169166665866},{"name":"D3","midi":50,"time":300.5557960000002,"velocity":0.8818897637795275,"duration":0.26273169166665866},{"name":"A#2","midi":46,"time":300.8335740000002,"velocity":0.8818897637795275,"duration":0.1307871416666444},{"name":"A#3","midi":58,"time":300.8335740000002,"velocity":0.8818897637795275,"duration":0.1307871416666444},{"name":"A2","midi":45,"time":301.1113520000002,"velocity":0.8818897637795275,"duration":0.1307871416666444},{"name":"A3","midi":57,"time":301.1113520000002,"velocity":0.8818897637795275,"duration":0.1307871416666444},{"name":"G2","midi":43,"time":301.2502410000002,"velocity":0.8818897637795275,"duration":0.1307871416666444},{"name":"G3","midi":55,"time":301.2502410000002,"velocity":0.8818897637795275,"duration":0.1307871416666444},{"name":"A2","midi":45,"time":301.3891300000002,"velocity":0.8818897637795275,"duration":0.26273169166665866},{"name":"A3","midi":57,"time":301.3891300000002,"velocity":0.8818897637795275,"duration":0.26273169166665866},{"name":"E2","midi":40,"time":301.6669080000002,"velocity":0.8818897637795275,"duration":0.1307871416666444},{"name":"E3","midi":52,"time":301.6669080000002,"velocity":0.8818897637795275,"duration":0.1307871416666444},{"name":"C#2","midi":37,"time":301.94468600000016,"velocity":0.8818897637795275,"duration":0.1307871416666444},{"name":"C#3","midi":49,"time":301.94468600000016,"velocity":0.8818897637795275,"duration":0.1307871416666444},{"name":"A#2","midi":46,"time":302.2224640000001,"velocity":0.8818897637795275,"duration":0.1307871416666444},{"name":"A#3","midi":58,"time":302.2224640000001,"velocity":0.8818897637795275,"duration":0.1307871416666444},{"name":"A2","midi":45,"time":302.3613530000001,"velocity":0.8818897637795275,"duration":0.1307871416666444},{"name":"A3","midi":57,"time":302.3613530000001,"velocity":0.8818897637795275,"duration":0.1307871416666444},{"name":"G2","midi":43,"time":302.5002420000001,"velocity":0.8818897637795275,"duration":0.1307871416666444},{"name":"G3","midi":55,"time":302.5002420000001,"velocity":0.8818897637795275,"duration":0.1307871416666444},{"name":"A2","midi":45,"time":302.7780200000001,"velocity":0.8818897637795275,"duration":0.26273169166665866},{"name":"A3","midi":57,"time":302.7780200000001,"velocity":0.8818897637795275,"duration":0.26273169166665866},{"name":"D3","midi":50,"time":303.0557980000001,"velocity":0.8818897637795275,"duration":0.1307871416666444},{"name":"D4","midi":62,"time":303.0557980000001,"velocity":0.8818897637795275,"duration":0.1307871416666444},{"name":"F3","midi":53,"time":303.33357600000005,"velocity":0.8818897637795275,"duration":0.1307871416666444},{"name":"F4","midi":65,"time":303.33357600000005,"velocity":0.8818897637795275,"duration":0.1307871416666444},{"name":"E3","midi":52,"time":303.47246500000006,"velocity":0.8818897637795275,"duration":0.1307871416666444},{"name":"E4","midi":64,"time":303.47246500000006,"velocity":0.8818897637795275,"duration":0.1307871416666444},{"name":"D3","midi":50,"time":303.61135400000006,"velocity":0.8818897637795275,"duration":0.26273169166665866},{"name":"D4","midi":62,"time":303.61135400000006,"velocity":0.8818897637795275,"duration":0.26273169166665866},{"name":"A3","midi":57,"time":303.8891320000001,"velocity":0.8818897637795275,"duration":0.06828709166666158},{"name":"A#3","midi":58,"time":303.95857650000005,"velocity":0.8818897637795275,"duration":0.0648148666666657},{"name":"A#3","midi":58,"time":304.16691000000003,"velocity":0.8818897637795275,"duration":0.1307871416666444},{"name":"A3","midi":57,"time":304.30579900000004,"velocity":0.8818897637795275,"duration":0.1307871416666444},{"name":"G3","midi":55,"time":304.44468800000004,"velocity":0.8818897637795275,"duration":0.1307871416666444},{"name":"F3","midi":53,"time":304.58357700000005,"velocity":0.8818897637795275,"duration":0.1307871416666444},{"name":"E3","midi":52,"time":304.72246600000005,"velocity":0.8818897637795275,"duration":0.26273169166665866},{"name":"C#3","midi":49,"time":305.00024400000007,"velocity":0.8818897637795275,"duration":0.26273169166665866},{"name":"A3","midi":57,"time":305.2780220000001,"velocity":0.8818897637795275,"duration":0.26273169166665866},{"name":"D3","midi":50,"time":305.5558000000001,"velocity":0.8818897637795275,"duration":0.26273169166665866},{"name":"F2","midi":41,"time":306.11135600000006,"velocity":0.8818897637795275,"duration":0.7905098916666589},{"name":"F3","midi":53,"time":306.11135600000006,"velocity":0.8818897637795275,"duration":0.7905098916666589},{"name":"F4","midi":65,"time":306.11135600000006,"velocity":0.8818897637795275,"duration":0.7905098916666589},{"name":"G2","midi":43,"time":306.94469000000004,"velocity":0.8818897637795275,"duration":0.26273169166665866},{"name":"G3","midi":55,"time":306.94469000000004,"velocity":0.8818897637795275,"duration":0.26273169166665866},{"name":"G4","midi":67,"time":306.94469000000004,"velocity":0.8818897637795275,"duration":0.26273169166665866},{"name":"F2","midi":41,"time":307.22246800000005,"velocity":0.8818897637795275,"duration":0.7905098916666589},{"name":"F3","midi":53,"time":307.22246800000005,"velocity":0.8818897637795275,"duration":0.7905098916666589},{"name":"F4","midi":65,"time":307.22246800000005,"velocity":0.8818897637795275,"duration":0.7905098916666589},{"name":"G2","midi":43,"time":308.055802,"velocity":0.8818897637795275,"duration":0.26273169166665866},{"name":"G3","midi":55,"time":308.055802,"velocity":0.8818897637795275,"duration":0.26273169166665866},{"name":"G4","midi":67,"time":308.055802,"velocity":0.8818897637795275,"duration":0.26273169166665866},{"name":"F2","midi":41,"time":308.33358000000004,"velocity":0.8818897637795275,"duration":0.26273169166665866},{"name":"F3","midi":53,"time":308.33358000000004,"velocity":0.8818897637795275,"duration":0.26273169166665866},{"name":"F4","midi":65,"time":308.33358000000004,"velocity":0.8818897637795275,"duration":0.26273169166665866},{"name":"G2","midi":43,"time":308.61135800000005,"velocity":0.8818897637795275,"duration":0.1307871416666444},{"name":"G3","midi":55,"time":308.61135800000005,"velocity":0.8818897637795275,"duration":0.1307871416666444},{"name":"G4","midi":67,"time":308.61135800000005,"velocity":0.8818897637795275,"duration":0.1307871416666444},{"name":"F2","midi":41,"time":308.75024700000006,"velocity":0.8818897637795275,"duration":0.3946762416666729},{"name":"F3","midi":53,"time":308.75024700000006,"velocity":0.8818897637795275,"duration":0.3946762416666729},{"name":"F4","midi":65,"time":308.75024700000006,"velocity":0.8818897637795275,"duration":0.3946762416666729},{"name":"D2","midi":38,"time":309.1669140000001,"velocity":0.8818897637795275,"duration":0.26273169166665866},{"name":"D3","midi":50,"time":309.1669140000001,"velocity":0.8818897637795275,"duration":0.26273169166665866},{"name":"D4","midi":62,"time":309.1669140000001,"velocity":0.8818897637795275,"duration":0.26273169166665866},{"name":"F2","midi":41,"time":309.4446920000001,"velocity":0.8818897637795275,"duration":0.26273169166665866},{"name":"F3","midi":53,"time":309.4446920000001,"velocity":0.8818897637795275,"duration":0.26273169166665866},{"name":"F4","midi":65,"time":309.4446920000001,"velocity":0.8818897637795275,"duration":0.26273169166665866},{"name":"G2","midi":43,"time":309.7224700000001,"velocity":0.8818897637795275,"duration":0.1307871416666444},{"name":"G3","midi":55,"time":309.7224700000001,"velocity":0.8818897637795275,"duration":0.1307871416666444},{"name":"G4","midi":67,"time":309.7224700000001,"velocity":0.8818897637795275,"duration":0.1307871416666444},{"name":"A2","midi":45,"time":309.8613590000001,"velocity":0.8818897637795275,"duration":0.26273169166665866},{"name":"A3","midi":57,"time":309.8613590000001,"velocity":0.8818897637795275,"duration":0.26273169166665866},{"name":"A4","midi":69,"time":309.8613590000001,"velocity":0.8818897637795275,"duration":0.26273169166665866},{"name":"G2","midi":43,"time":310.1391370000001,"velocity":0.8818897637795275,"duration":0.1307871416666444},{"name":"G3","midi":55,"time":310.1391370000001,"velocity":0.8818897637795275,"duration":0.1307871416666444},{"name":"G4","midi":67,"time":310.1391370000001,"velocity":0.8818897637795275,"duration":0.1307871416666444},{"name":"F2","midi":41,"time":310.2780260000001,"velocity":0.8818897637795275,"duration":0.1307871416666444},{"name":"F3","midi":53,"time":310.2780260000001,"velocity":0.8818897637795275,"duration":0.1307871416666444},{"name":"F4","midi":65,"time":310.2780260000001,"velocity":0.8818897637795275,"duration":0.1307871416666444},{"name":"E2","midi":40,"time":310.41691500000013,"velocity":0.8818897637795275,"duration":0.1307871416666444},{"name":"E3","midi":52,"time":310.41691500000013,"velocity":0.8818897637795275,"duration":0.1307871416666444},{"name":"E4","midi":64,"time":310.41691500000013,"velocity":0.8818897637795275,"duration":0.1307871416666444},{"name":"D2","midi":38,"time":310.55580400000014,"velocity":0.8818897637795275,"duration":0.1307871416666444},{"name":"D3","midi":50,"time":310.55580400000014,"velocity":0.8818897637795275,"duration":0.1307871416666444},{"name":"D4","midi":62,"time":310.55580400000014,"velocity":0.8818897637795275,"duration":0.1307871416666444},{"name":"D2","midi":38,"time":310.69469300000014,"velocity":0.8818897637795275,"duration":0.1307871416666444},{"name":"D3","midi":50,"time":310.69469300000014,"velocity":0.8818897637795275,"duration":0.1307871416666444},{"name":"D4","midi":62,"time":310.69469300000014,"velocity":0.8818897637795275,"duration":0.1307871416666444},{"name":"A#1","midi":34,"time":310.83358200000015,"velocity":0.8818897637795275,"duration":0.1307871416666444},{"name":"A#2","midi":46,"time":310.83358200000015,"velocity":0.8818897637795275,"duration":0.1307871416666444},{"name":"A#3","midi":58,"time":310.83358200000015,"velocity":0.8818897637795275,"duration":0.1307871416666444},{"name":"A#1","midi":34,"time":310.97247100000016,"velocity":0.8818897637795275,"duration":0.1307871416666444},{"name":"A#2","midi":46,"time":310.97247100000016,"velocity":0.8818897637795275,"duration":0.1307871416666444},{"name":"A#3","midi":58,"time":310.97247100000016,"velocity":0.8818897637795275,"duration":0.1307871416666444},{"name":"D2","midi":38,"time":311.11136000000016,"velocity":0.8818897637795275,"duration":0.06828709166666158},{"name":"D3","midi":50,"time":311.11136000000016,"velocity":0.8818897637795275,"duration":0.06828709166666158},{"name":"D4","midi":62,"time":311.11136000000016,"velocity":0.8818897637795275,"duration":0.06828709166666158},{"name":"D2","midi":38,"time":311.25024900000017,"velocity":0.8818897637795275,"duration":0.06828709166666158},{"name":"D3","midi":50,"time":311.25024900000017,"velocity":0.8818897637795275,"duration":0.06828709166666158},{"name":"D4","midi":62,"time":311.25024900000017,"velocity":0.8818897637795275,"duration":0.06828709166666158},{"name":"A#1","midi":34,"time":311.3891380000002,"velocity":0.8818897637795275,"duration":0.06828709166666158},{"name":"A#2","midi":46,"time":311.3891380000002,"velocity":0.8818897637795275,"duration":0.06828709166666158},{"name":"A#3","midi":58,"time":311.3891380000002,"velocity":0.8818897637795275,"duration":0.06828709166666158},{"name":"A#1","midi":34,"time":311.5280270000002,"velocity":0.8818897637795275,"duration":0.06828709166666158},{"name":"A#2","midi":46,"time":311.5280270000002,"velocity":0.8818897637795275,"duration":0.06828709166666158},{"name":"A#3","midi":58,"time":311.5280270000002,"velocity":0.8818897637795275,"duration":0.06828709166666158},{"name":"D2","midi":38,"time":311.6669160000002,"velocity":0.8818897637795275,"duration":0.1307871416666444},{"name":"D3","midi":50,"time":311.6669160000002,"velocity":0.8818897637795275,"duration":0.1307871416666444},{"name":"D4","midi":62,"time":311.6669160000002,"velocity":0.8818897637795275,"duration":0.1307871416666444},{"name":"A#1","midi":34,"time":311.8058050000002,"velocity":0.8818897637795275,"duration":0.1307871416666444},{"name":"A#2","midi":46,"time":311.8058050000002,"velocity":0.8818897637795275,"duration":0.1307871416666444},{"name":"A#3","midi":58,"time":311.8058050000002,"velocity":0.8818897637795275,"duration":0.1307871416666444},{"name":"E2","midi":40,"time":311.9446940000002,"velocity":0.8818897637795275,"duration":0.1307871416666444},{"name":"E3","midi":52,"time":311.9446940000002,"velocity":0.8818897637795275,"duration":0.1307871416666444},{"name":"E4","midi":64,"time":311.9446940000002,"velocity":0.8818897637795275,"duration":0.1307871416666444},{"name":"A#1","midi":34,"time":312.0835830000002,"velocity":0.8818897637795275,"duration":0.1307871416666444},{"name":"A#2","midi":46,"time":312.0835830000002,"velocity":0.8818897637795275,"duration":0.1307871416666444},{"name":"A#3","midi":58,"time":312.0835830000002,"velocity":0.8818897637795275,"duration":0.1307871416666444},{"name":"F2","midi":41,"time":312.2224720000002,"velocity":0.8818897637795275,"duration":0.1307871416666444},{"name":"F3","midi":53,"time":312.2224720000002,"velocity":0.8818897637795275,"duration":0.1307871416666444},{"name":"F4","midi":65,"time":312.2224720000002,"velocity":0.8818897637795275,"duration":0.1307871416666444},{"name":"A#1","midi":34,"time":312.3613610000002,"velocity":0.8818897637795275,"duration":0.1307871416666444},{"name":"A#2","midi":46,"time":312.3613610000002,"velocity":0.8818897637795275,"duration":0.1307871416666444},{"name":"A#3","midi":58,"time":312.3613610000002,"velocity":0.8818897637795275,"duration":0.1307871416666444},{"name":"G2","midi":43,"time":312.5002500000002,"velocity":0.8818897637795275,"duration":0.1307871416666444},{"name":"G3","midi":55,"time":312.5002500000002,"velocity":0.8818897637795275,"duration":0.1307871416666444},{"name":"G4","midi":67,"time":312.5002500000002,"velocity":0.8818897637795275,"duration":0.1307871416666444},{"name":"F2","midi":41,"time":312.6391390000002,"velocity":0.8818897637795275,"duration":0.1307871416666444},{"name":"F3","midi":53,"time":312.6391390000002,"velocity":0.8818897637795275,"duration":0.1307871416666444},{"name":"F4","midi":65,"time":312.6391390000002,"velocity":0.8818897637795275,"duration":0.1307871416666444},{"name":"A3","midi":57,"time":312.77802800000023,"velocity":0.8818897637795275,"duration":0.1307871416666444},{"name":"A4","midi":69,"time":312.77802800000023,"velocity":0.8818897637795275,"duration":0.1307871416666444},{"name":"G3","midi":55,"time":312.91691700000024,"velocity":0.8818897637795275,"duration":0.1307871416666444},{"name":"G4","midi":67,"time":312.91691700000024,"velocity":0.8818897637795275,"duration":0.1307871416666444},{"name":"F3","midi":53,"time":313.05580600000025,"velocity":0.8818897637795275,"duration":0.1307871416666444},{"name":"F4","midi":65,"time":313.05580600000025,"velocity":0.8818897637795275,"duration":0.1307871416666444},{"name":"G3","midi":55,"time":313.19469500000025,"velocity":0.8818897637795275,"duration":0.1307871416666444},{"name":"G4","midi":67,"time":313.19469500000025,"velocity":0.8818897637795275,"duration":0.1307871416666444},{"name":"F3","midi":53,"time":313.33358400000026,"velocity":0.8818897637795275,"duration":0.1307871416666444},{"name":"F4","midi":65,"time":313.33358400000026,"velocity":0.8818897637795275,"duration":0.1307871416666444},{"name":"E3","midi":52,"time":313.47247300000026,"velocity":0.8818897637795275,"duration":0.1307871416666444},{"name":"E4","midi":64,"time":313.47247300000026,"velocity":0.8818897637795275,"duration":0.1307871416666444},{"name":"D3","midi":50,"time":313.61136200000027,"velocity":0.8818897637795275,"duration":0.1307871416666444},{"name":"D4","midi":62,"time":313.61136200000027,"velocity":0.8818897637795275,"duration":0.1307871416666444},{"name":"G3","midi":55,"time":313.7502510000003,"velocity":0.8818897637795275,"duration":0.1307871416666444},{"name":"G4","midi":67,"time":313.7502510000003,"velocity":0.8818897637795275,"duration":0.1307871416666444},{"name":"A3","midi":57,"time":313.8891400000003,"velocity":0.8818897637795275,"duration":0.26273169166665866},{"name":"A4","midi":69,"time":313.8891400000003,"velocity":0.8818897637795275,"duration":0.26273169166665866},{"name":"G#3","midi":56,"time":314.1669180000003,"velocity":0.8818897637795275,"duration":0.26273169166665866},{"name":"G#4","midi":68,"time":314.1669180000003,"velocity":0.8818897637795275,"duration":0.26273169166665866},{"name":"G3","midi":55,"time":314.4446960000003,"velocity":0.8818897637795275,"duration":0.26273169166665866},{"name":"G4","midi":67,"time":314.4446960000003,"velocity":0.8818897637795275,"duration":0.26273169166665866},{"name":"F#3","midi":54,"time":314.7224740000003,"velocity":0.8818897637795275,"duration":0.26273169166665866},{"name":"F#4","midi":66,"time":314.7224740000003,"velocity":0.8818897637795275,"duration":0.26273169166665866},{"name":"F2","midi":41,"time":315.00025200000033,"velocity":0.8818897637795275,"duration":0.7905098916666589},{"name":"F3","midi":53,"time":315.00025200000033,"velocity":0.8818897637795275,"duration":0.7905098916666589},{"name":"F4","midi":65,"time":315.00025200000033,"velocity":0.8818897637795275,"duration":0.7905098916666589},{"name":"G2","midi":43,"time":315.8335860000003,"velocity":0.8818897637795275,"duration":0.26273169166665866},{"name":"G3","midi":55,"time":315.8335860000003,"velocity":0.8818897637795275,"duration":0.26273169166665866},{"name":"G4","midi":67,"time":315.8335860000003,"velocity":0.8818897637795275,"duration":0.26273169166665866},{"name":"F2","midi":41,"time":316.1113640000003,"velocity":0.8818897637795275,"duration":0.7905098916666589},{"name":"F3","midi":53,"time":316.1113640000003,"velocity":0.8818897637795275,"duration":0.7905098916666589},{"name":"F4","midi":65,"time":316.1113640000003,"velocity":0.8818897637795275,"duration":0.7905098916666589},{"name":"G2","midi":43,"time":316.9446980000003,"velocity":0.8818897637795275,"duration":0.26273169166665866},{"name":"G3","midi":55,"time":316.9446980000003,"velocity":0.8818897637795275,"duration":0.26273169166665866},{"name":"G4","midi":67,"time":316.9446980000003,"velocity":0.8818897637795275,"duration":0.26273169166665866},{"name":"F2","midi":41,"time":317.2224760000003,"velocity":0.8818897637795275,"duration":0.26273169166665866},{"name":"F3","midi":53,"time":317.2224760000003,"velocity":0.8818897637795275,"duration":0.26273169166665866},{"name":"F4","midi":65,"time":317.2224760000003,"velocity":0.8818897637795275,"duration":0.26273169166665866},{"name":"G2","midi":43,"time":317.5002540000003,"velocity":0.8818897637795275,"duration":0.1307871416666444},{"name":"G3","midi":55,"time":317.5002540000003,"velocity":0.8818897637795275,"duration":0.1307871416666444},{"name":"G4","midi":67,"time":317.5002540000003,"velocity":0.8818897637795275,"duration":0.1307871416666444},{"name":"F2","midi":41,"time":317.63914300000033,"velocity":0.8818897637795275,"duration":0.3946762416666729},{"name":"F3","midi":53,"time":317.63914300000033,"velocity":0.8818897637795275,"duration":0.3946762416666729},{"name":"F4","midi":65,"time":317.63914300000033,"velocity":0.8818897637795275,"duration":0.3946762416666729},{"name":"D2","midi":38,"time":318.05581000000035,"velocity":0.8818897637795275,"duration":0.26273169166665866},{"name":"D3","midi":50,"time":318.05581000000035,"velocity":0.8818897637795275,"duration":0.26273169166665866},{"name":"D4","midi":62,"time":318.05581000000035,"velocity":0.8818897637795275,"duration":0.26273169166665866},{"name":"F2","midi":41,"time":318.33358800000036,"velocity":0.8818897637795275,"duration":0.26273169166665866},{"name":"F3","midi":53,"time":318.33358800000036,"velocity":0.8818897637795275,"duration":0.26273169166665866},{"name":"F4","midi":65,"time":318.33358800000036,"velocity":0.8818897637795275,"duration":0.26273169166665866},{"name":"G2","midi":43,"time":318.6113660000004,"velocity":0.8818897637795275,"duration":0.1307871416666444},{"name":"G3","midi":55,"time":318.6113660000004,"velocity":0.8818897637795275,"duration":0.1307871416666444},{"name":"G4","midi":67,"time":318.6113660000004,"velocity":0.8818897637795275,"duration":0.1307871416666444},{"name":"F3","midi":53,"time":318.7502550000004,"velocity":0.8818897637795275,"duration":0.26273169166665866},{"name":"D4","midi":62,"time":318.7502550000004,"velocity":0.8818897637795275,"duration":0.26273169166665866},{"name":"D5","midi":74,"time":318.7502550000004,"velocity":0.8818897637795275,"duration":0.26273169166665866},{"name":"G2","midi":43,"time":319.0280330000004,"velocity":0.8818897637795275,"duration":0.1307871416666444},{"name":"G3","midi":55,"time":319.0280330000004,"velocity":0.8818897637795275,"duration":0.1307871416666444},{"name":"G4","midi":67,"time":319.0280330000004,"velocity":0.8818897637795275,"duration":0.1307871416666444},{"name":"F2","midi":41,"time":319.1669220000004,"velocity":0.8818897637795275,"duration":0.1307871416666444},{"name":"F3","midi":53,"time":319.1669220000004,"velocity":0.8818897637795275,"duration":0.1307871416666444},{"name":"F4","midi":65,"time":319.1669220000004,"velocity":0.8818897637795275,"duration":0.1307871416666444},{"name":"E2","midi":40,"time":319.3058110000004,"velocity":0.8818897637795275,"duration":0.1307871416666444},{"name":"E3","midi":52,"time":319.3058110000004,"velocity":0.8818897637795275,"duration":0.1307871416666444},{"name":"E4","midi":64,"time":319.3058110000004,"velocity":0.8818897637795275,"duration":0.1307871416666444},{"name":"D2","midi":38,"time":319.4447000000004,"velocity":0.8818897637795275,"duration":0.1307871416666444},{"name":"D3","midi":50,"time":319.4447000000004,"velocity":0.8818897637795275,"duration":0.1307871416666444},{"name":"D4","midi":62,"time":319.4447000000004,"velocity":0.8818897637795275,"duration":0.1307871416666444},{"name":"D2","midi":38,"time":319.5835890000004,"velocity":0.8818897637795275,"duration":0.1307871416666444},{"name":"D3","midi":50,"time":319.5835890000004,"velocity":0.8818897637795275,"duration":0.1307871416666444},{"name":"D4","midi":62,"time":319.5835890000004,"velocity":0.8818897637795275,"duration":0.1307871416666444},{"name":"A#1","midi":34,"time":319.7224780000004,"velocity":0.8818897637795275,"duration":0.1307871416666444},{"name":"A#2","midi":46,"time":319.7224780000004,"velocity":0.8818897637795275,"duration":0.1307871416666444},{"name":"A#3","midi":58,"time":319.7224780000004,"velocity":0.8818897637795275,"duration":0.1307871416666444},{"name":"A#1","midi":34,"time":319.8613670000004,"velocity":0.8818897637795275,"duration":0.1307871416666444},{"name":"A#2","midi":46,"time":319.8613670000004,"velocity":0.8818897637795275,"duration":0.1307871416666444},{"name":"A#3","midi":58,"time":319.8613670000004,"velocity":0.8818897637795275,"duration":0.1307871416666444},{"name":"D2","midi":38,"time":320.00025600000043,"velocity":0.8818897637795275,"duration":0.06828709166666158},{"name":"D3","midi":50,"time":320.00025600000043,"velocity":0.8818897637795275,"duration":0.06828709166666158},{"name":"D4","midi":62,"time":320.00025600000043,"velocity":0.8818897637795275,"duration":0.06828709166666158},{"name":"D2","midi":38,"time":320.13914500000044,"velocity":0.8818897637795275,"duration":0.06828709166666158},{"name":"D3","midi":50,"time":320.13914500000044,"velocity":0.8818897637795275,"duration":0.06828709166666158},{"name":"D4","midi":62,"time":320.13914500000044,"velocity":0.8818897637795275,"duration":0.06828709166666158},{"name":"A#1","midi":34,"time":320.27803400000045,"velocity":0.8818897637795275,"duration":0.06828709166666158},{"name":"A#2","midi":46,"time":320.27803400000045,"velocity":0.8818897637795275,"duration":0.06828709166666158},{"name":"A#3","midi":58,"time":320.27803400000045,"velocity":0.8818897637795275,"duration":0.06828709166666158},{"name":"A#1","midi":34,"time":320.41692300000045,"velocity":0.8818897637795275,"duration":0.06828709166666158},{"name":"A#2","midi":46,"time":320.41692300000045,"velocity":0.8818897637795275,"duration":0.06828709166666158},{"name":"A#3","midi":58,"time":320.41692300000045,"velocity":0.8818897637795275,"duration":0.06828709166666158},{"name":"D2","midi":38,"time":320.55581200000046,"velocity":0.8818897637795275,"duration":0.1307871416666444},{"name":"D3","midi":50,"time":320.55581200000046,"velocity":0.8818897637795275,"duration":0.1307871416666444},{"name":"D4","midi":62,"time":320.55581200000046,"velocity":0.8818897637795275,"duration":0.1307871416666444},{"name":"A#1","midi":34,"time":320.69470100000046,"velocity":0.8818897637795275,"duration":0.1307871416666444},{"name":"A#2","midi":46,"time":320.69470100000046,"velocity":0.8818897637795275,"duration":0.1307871416666444},{"name":"A#3","midi":58,"time":320.69470100000046,"velocity":0.8818897637795275,"duration":0.1307871416666444},{"name":"E2","midi":40,"time":320.83359000000047,"velocity":0.8818897637795275,"duration":0.1307871416666444},{"name":"E3","midi":52,"time":320.83359000000047,"velocity":0.8818897637795275,"duration":0.1307871416666444},{"name":"E4","midi":64,"time":320.83359000000047,"velocity":0.8818897637795275,"duration":0.1307871416666444},{"name":"A#1","midi":34,"time":320.9724790000005,"velocity":0.8818897637795275,"duration":0.1307871416666444},{"name":"A#2","midi":46,"time":320.9724790000005,"velocity":0.8818897637795275,"duration":0.1307871416666444},{"name":"A#3","midi":58,"time":320.9724790000005,"velocity":0.8818897637795275,"duration":0.1307871416666444},{"name":"F2","midi":41,"time":321.1113680000005,"velocity":0.8818897637795275,"duration":0.1307871416666444},{"name":"F3","midi":53,"time":321.1113680000005,"velocity":0.8818897637795275,"duration":0.1307871416666444},{"name":"F4","midi":65,"time":321.1113680000005,"velocity":0.8818897637795275,"duration":0.1307871416666444},{"name":"A#1","midi":34,"time":321.2502570000005,"velocity":0.8818897637795275,"duration":0.1307871416666444},{"name":"A#2","midi":46,"time":321.2502570000005,"velocity":0.8818897637795275,"duration":0.1307871416666444},{"name":"A#3","midi":58,"time":321.2502570000005,"velocity":0.8818897637795275,"duration":0.1307871416666444},{"name":"G2","midi":43,"time":321.3891460000005,"velocity":0.8818897637795275,"duration":0.1307871416666444},{"name":"G3","midi":55,"time":321.3891460000005,"velocity":0.8818897637795275,"duration":0.1307871416666444},{"name":"G4","midi":67,"time":321.3891460000005,"velocity":0.8818897637795275,"duration":0.1307871416666444},{"name":"F2","midi":41,"time":321.5280350000005,"velocity":0.8818897637795275,"duration":0.1307871416666444},{"name":"F3","midi":53,"time":321.5280350000005,"velocity":0.8818897637795275,"duration":0.1307871416666444},{"name":"F4","midi":65,"time":321.5280350000005,"velocity":0.8818897637795275,"duration":0.1307871416666444},{"name":"A3","midi":57,"time":321.6669240000005,"velocity":0.8818897637795275,"duration":0.1307871416666444},{"name":"A4","midi":69,"time":321.6669240000005,"velocity":0.8818897637795275,"duration":0.1307871416666444},{"name":"G3","midi":55,"time":321.8058130000005,"velocity":0.8818897637795275,"duration":0.1307871416666444},{"name":"G4","midi":67,"time":321.8058130000005,"velocity":0.8818897637795275,"duration":0.1307871416666444},{"name":"F3","midi":53,"time":321.9447020000005,"velocity":0.8818897637795275,"duration":0.1307871416666444},{"name":"F4","midi":65,"time":321.9447020000005,"velocity":0.8818897637795275,"duration":0.1307871416666444},{"name":"C4","midi":60,"time":322.0835910000005,"velocity":0.8818897637795275,"duration":0.1307871416666444},{"name":"C5","midi":72,"time":322.0835910000005,"velocity":0.8818897637795275,"duration":0.1307871416666444},{"name":"A3","midi":57,"time":322.22248000000053,"velocity":0.8818897637795275,"duration":0.1307871416666444},{"name":"A4","midi":69,"time":322.22248000000053,"velocity":0.8818897637795275,"duration":0.1307871416666444},{"name":"G3","midi":55,"time":322.36136900000054,"velocity":0.8818897637795275,"duration":0.1307871416666444},{"name":"G4","midi":67,"time":322.36136900000054,"velocity":0.8818897637795275,"duration":0.1307871416666444},{"name":"F3","midi":53,"time":322.50025800000054,"velocity":0.8818897637795275,"duration":0.1307871416666444},{"name":"F4","midi":65,"time":322.50025800000054,"velocity":0.8818897637795275,"duration":0.1307871416666444},{"name":"G3","midi":55,"time":322.63914700000055,"velocity":0.8818897637795275,"duration":0.1307871416666444},{"name":"G4","midi":67,"time":322.63914700000055,"velocity":0.8818897637795275,"duration":0.1307871416666444},{"name":"A3","midi":57,"time":322.77803600000055,"velocity":0.8818897637795275,"duration":0.26273169166665866},{"name":"A4","midi":69,"time":322.77803600000055,"velocity":0.8818897637795275,"duration":0.26273169166665866},{"name":"C4","midi":60,"time":323.05581400000057,"velocity":0.8818897637795275,"duration":0.26273169166665866},{"name":"C5","midi":72,"time":323.05581400000057,"velocity":0.8818897637795275,"duration":0.26273169166665866},{"name":"D4","midi":62,"time":323.3335920000006,"velocity":0.8818897637795275,"duration":0.26273169166665866},{"name":"D5","midi":74,"time":323.3335920000006,"velocity":0.8818897637795275,"duration":0.26273169166665866},{"name":"E4","midi":64,"time":323.6113700000006,"velocity":0.8818897637795275,"duration":0.26273169166665866},{"name":"E5","midi":76,"time":323.6113700000006,"velocity":0.8818897637795275,"duration":0.26273169166665866},{"name":"F4","midi":65,"time":323.8891480000006,"velocity":1,"duration":1.1099545916666784},{"name":"F5","midi":77,"time":323.8891480000006,"velocity":1,"duration":1.1099545916666784},{"name":"G#3","midi":56,"time":325.0002600000006,"velocity":0.8818897637795275,"duration":0.2766205916666422},{"name":"G#4","midi":68,"time":325.0002600000006,"velocity":0.8818897637795275,"duration":0.2766205916666422},{"name":"F4","midi":65,"time":326.1113720000006,"velocity":1,"duration":1.1099545916666784},{"name":"F5","midi":77,"time":326.1113720000006,"velocity":1,"duration":1.1099545916666784},{"name":"G3","midi":55,"time":327.2224840000006,"velocity":0.8818897637795275,"duration":0.2766205916666422},{"name":"G4","midi":67,"time":327.2224840000006,"velocity":0.8818897637795275,"duration":0.2766205916666422},{"name":"F4","midi":65,"time":328.33359600000057,"velocity":1,"duration":1.1099545916666784},{"name":"F5","midi":77,"time":328.33359600000057,"velocity":1,"duration":1.1099545916666784},{"name":"G#3","midi":56,"time":329.44470800000056,"velocity":0.8818897637795275,"duration":0.2766205916666422},{"name":"G#4","midi":68,"time":329.44470800000056,"velocity":0.8818897637795275,"duration":0.2766205916666422},{"name":"F4","midi":65,"time":330.55582000000055,"velocity":1,"duration":1.1099545916666784},{"name":"F5","midi":77,"time":330.55582000000055,"velocity":1,"duration":1.1099545916666784},{"name":"G3","midi":55,"time":331.66693200000054,"velocity":0.8818897637795275,"duration":0.2766205916666422},{"name":"G4","midi":67,"time":331.66693200000054,"velocity":0.8818897637795275,"duration":0.2766205916666422},{"name":"A4","midi":69,"time":341.6669400000005,"velocity":0.8818897637795275,"duration":0.7905098916666589},{"name":"D5","midi":74,"time":341.6669400000005,"velocity":0.8818897637795275,"duration":0.7905098916666589},{"name":"A5","midi":81,"time":341.6669400000005,"velocity":0.8818897637795275,"duration":0.7905098916666589},{"name":"D6","midi":86,"time":341.6669400000005,"velocity":0.8818897637795275,"duration":0.7905098916666589},{"name":"D4","midi":62,"time":342.5002740000005,"velocity":0.8818897637795275,"duration":0.5266207916666872},{"name":"D5","midi":74,"time":342.5002740000005,"velocity":0.8818897637795275,"duration":0.5266207916666872},{"name":"E4","midi":64,"time":343.0558300000005,"velocity":0.8818897637795275,"duration":0.26273169166665866},{"name":"E5","midi":76,"time":343.0558300000005,"velocity":0.8818897637795275,"duration":0.26273169166665866},{"name":"F4","midi":65,"time":343.33360800000054,"velocity":0.8818897637795275,"duration":0.1307871416666444},{"name":"F5","midi":77,"time":343.33360800000054,"velocity":0.8818897637795275,"duration":0.1307871416666444},{"name":"G4","midi":67,"time":343.47249700000054,"velocity":0.8818897637795275,"duration":0.1307871416666444},{"name":"G5","midi":79,"time":343.47249700000054,"velocity":0.8818897637795275,"duration":0.1307871416666444},{"name":"F4","midi":65,"time":343.61138600000055,"velocity":0.8818897637795275,"duration":0.1307871416666444},{"name":"F5","midi":77,"time":343.61138600000055,"velocity":0.8818897637795275,"duration":0.1307871416666444},{"name":"E4","midi":64,"time":343.75027500000056,"velocity":0.8818897637795275,"duration":0.1307871416666444},{"name":"E5","midi":76,"time":343.75027500000056,"velocity":0.8818897637795275,"duration":0.1307871416666444},{"name":"F4","midi":65,"time":343.88916400000056,"velocity":0.8818897637795275,"duration":0.7905098916666589},{"name":"C5","midi":72,"time":343.88916400000056,"velocity":0.8818897637795275,"duration":0.7905098916666589},{"name":"F5","midi":77,"time":343.88916400000056,"velocity":0.8818897637795275,"duration":0.7905098916666589},{"name":"D4","midi":62,"time":344.72249800000054,"velocity":0.8818897637795275,"duration":0.26273169166665866},{"name":"D5","midi":74,"time":344.72249800000054,"velocity":0.8818897637795275,"duration":0.26273169166665866},{"name":"A4","midi":69,"time":345.00027600000055,"velocity":0.8818897637795275,"duration":0.26273169166665866},{"name":"A5","midi":81,"time":345.00027600000055,"velocity":0.8818897637795275,"duration":0.26273169166665866},{"name":"G4","midi":67,"time":345.27805400000057,"velocity":0.8818897637795275,"duration":0.26273169166665866},{"name":"G5","midi":79,"time":345.27805400000057,"velocity":0.8818897637795275,"duration":0.26273169166665866},{"name":"F4","midi":65,"time":345.5558320000006,"velocity":0.8818897637795275,"duration":0.26273169166665866},{"name":"F5","midi":77,"time":345.5558320000006,"velocity":0.8818897637795275,"duration":0.26273169166665866},{"name":"G4","midi":67,"time":345.8336100000006,"velocity":0.8818897637795275,"duration":0.26273169166665866},{"name":"G5","midi":79,"time":345.8336100000006,"velocity":0.8818897637795275,"duration":0.26273169166665866},{"name":"E4","midi":64,"time":346.1113880000006,"velocity":0.8818897637795275,"duration":0.3946762416666729},{"name":"E5","midi":76,"time":346.1113880000006,"velocity":0.8818897637795275,"duration":0.3946762416666729},{"name":"C#4","midi":61,"time":346.5280550000006,"velocity":0.8818897637795275,"duration":0.3946762416666729},{"name":"C#5","midi":73,"time":346.5280550000006,"velocity":0.8818897637795275,"duration":0.3946762416666729},{"name":"A#4","midi":70,"time":346.94472200000064,"velocity":0.8818897637795275,"duration":0.26273169166665866},{"name":"A#5","midi":82,"time":346.94472200000064,"velocity":0.8818897637795275,"duration":0.26273169166665866},{"name":"A4","midi":69,"time":347.22250000000065,"velocity":0.8818897637795275,"duration":0.26273169166665866},{"name":"A5","midi":81,"time":347.22250000000065,"velocity":0.8818897637795275,"duration":0.26273169166665866},{"name":"A3","midi":57,"time":347.50027800000066,"velocity":0.8818897637795275,"duration":0.26273169166665866},{"name":"A4","midi":69,"time":347.50027800000066,"velocity":0.8818897637795275,"duration":0.26273169166665866},{"name":"G4","midi":67,"time":347.7780560000007,"velocity":0.8818897637795275,"duration":0.26273169166665866},{"name":"G5","midi":79,"time":347.7780560000007,"velocity":0.8818897637795275,"duration":0.26273169166665866},{"name":"G3","midi":55,"time":348.0558340000007,"velocity":0.8818897637795275,"duration":0.26273169166665866},{"name":"G4","midi":67,"time":348.0558340000007,"velocity":0.8818897637795275,"duration":0.26273169166665866},{"name":"F4","midi":65,"time":348.3336120000007,"velocity":0.8818897637795275,"duration":2.1099553916666878},{"name":"F5","midi":77,"time":348.3336120000007,"velocity":0.8818897637795275,"duration":2.1099553916666878},{"name":"D5","midi":74,"time":350.55583600000074,"velocity":0.8818897637795275,"duration":1.0543989916666874},{"name":"D6","midi":86,"time":350.55583600000074,"velocity":0.8818897637795275,"duration":1.0543989916666874},{"name":"E5","midi":76,"time":351.6669480000008,"velocity":0.8818897637795275,"duration":0.5266207916666872},{"name":"E6","midi":88,"time":351.6669480000008,"velocity":0.8818897637795275,"duration":0.5266207916666872},{"name":"F5","midi":77,"time":352.2225040000008,"velocity":0.8818897637795275,"duration":0.5266207916666872},{"name":"F6","midi":89,"time":352.2225040000008,"velocity":0.8818897637795275,"duration":0.5266207916666872},{"name":"A5","midi":81,"time":352.77806000000083,"velocity":0.8818897637795275,"duration":0.7905098916666589},{"name":"C5","midi":72,"time":353.6113940000008,"velocity":0.8818897637795275,"duration":0.26273169166665866},{"name":"C6","midi":84,"time":353.8891720000008,"velocity":0.8818897637795275,"duration":0.26273169166665866},{"name":"A#5","midi":82,"time":354.16695000000084,"velocity":0.8818897637795275,"duration":0.26273169166665866},{"name":"A5","midi":81,"time":354.44472800000085,"velocity":0.8818897637795275,"duration":0.26273169166665866},{"name":"A#5","midi":82,"time":354.72250600000086,"velocity":0.8818897637795275,"duration":0.26273169166665866},{"name":"G5","midi":79,"time":355.0002840000009,"velocity":0.8818897637795275,"duration":0.7905098916666589},{"name":"G5","midi":79,"time":355.83361800000085,"velocity":0.8818897637795275,"duration":0.08680562500001088},{"name":"A5","midi":81,"time":355.92621066666754,"velocity":0.8818897637795275,"duration":0.08680562500001088},{"name":"G5","midi":79,"time":356.01880333333423,"velocity":0.8818897637795275,"duration":0.08680562500001088},{"name":"F5","midi":77,"time":356.1113960000009,"velocity":0.8818897637795275,"duration":0.7905098916666589},{"name":"F5","midi":77,"time":356.9447300000009,"velocity":0.8818897637795275,"duration":0.08680562500001088},{"name":"G5","midi":79,"time":357.0373226666676,"velocity":0.8818897637795275,"duration":0.08680562500001088},{"name":"F5","midi":77,"time":357.1299153333343,"velocity":0.8818897637795275,"duration":0.08680562500001088},{"name":"E5","midi":76,"time":357.22250800000097,"velocity":0.8818897637795275,"duration":2.1099553916666878},{"name":"F4","midi":65,"time":359.444732000001,"velocity":0.8818897637795275,"duration":0.5266207916666872},{"name":"F5","midi":77,"time":359.444732000001,"velocity":0.8818897637795275,"duration":0.5266207916666872},{"name":"D4","midi":62,"time":360.00028800000104,"velocity":0.8818897637795275,"duration":0.26273169166665866},{"name":"D5","midi":74,"time":360.00028800000104,"velocity":0.8818897637795275,"duration":0.26273169166665866},{"name":"A3","midi":57,"time":360.27806600000105,"velocity":0.8818897637795275,"duration":0.26273169166665866},{"name":"A4","midi":69,"time":360.27806600000105,"velocity":0.8818897637795275,"duration":0.26273169166665866},{"name":"C4","midi":60,"time":360.55584400000106,"velocity":0.8818897637795275,"duration":0.1307871416666444},{"name":"C5","midi":72,"time":360.55584400000106,"velocity":0.8818897637795275,"duration":0.1307871416666444},{"name":"D4","midi":62,"time":360.69473300000107,"velocity":0.8818897637795275,"duration":0.1307871416666444},{"name":"D5","midi":74,"time":360.69473300000107,"velocity":0.8818897637795275,"duration":0.1307871416666444},{"name":"F4","midi":65,"time":360.972511000001,"velocity":0.8818897637795275,"duration":0.3946762416666729},{"name":"F5","midi":77,"time":360.972511000001,"velocity":0.8818897637795275,"duration":0.3946762416666729},{"name":"D4","midi":62,"time":361.38917800000104,"velocity":0.8818897637795275,"duration":0.26273169166665866},{"name":"D5","midi":74,"time":361.38917800000104,"velocity":0.8818897637795275,"duration":0.26273169166665866},{"name":"C4","midi":60,"time":361.66695600000105,"velocity":0.8818897637795275,"duration":0.3946762416666729},{"name":"C5","midi":72,"time":361.66695600000105,"velocity":0.8818897637795275,"duration":0.3946762416666729},{"name":"B3","midi":59,"time":362.08362300000107,"velocity":0.8818897637795275,"duration":0.3946762416666729},{"name":"B4","midi":71,"time":362.08362300000107,"velocity":0.8818897637795275,"duration":0.3946762416666729},{"name":"A#3","midi":58,"time":362.5002900000011,"velocity":0.8818897637795275,"duration":0.26273169166665866},{"name":"A#4","midi":70,"time":362.5002900000011,"velocity":0.8818897637795275,"duration":0.26273169166665866},{"name":"A3","midi":57,"time":362.7780680000011,"velocity":0.8818897637795275,"duration":0.17476865833333477},{"name":"A4","midi":69,"time":362.7780680000011,"velocity":0.8818897637795275,"duration":0.17476865833333477},{"name":"G#3","midi":56,"time":362.9632533333344,"velocity":0.8818897637795275,"duration":0.17476865833333477},{"name":"G#4","midi":68,"time":362.9632533333344,"velocity":0.8818897637795275,"duration":0.17476865833333477},{"name":"G3","midi":55,"time":363.14843866666774,"velocity":0.8818897637795275,"duration":0.17476865833333477},{"name":"G4","midi":67,"time":363.14843866666774,"velocity":0.8818897637795275,"duration":0.17476865833333477},{"name":"F#3","midi":54,"time":363.33362400000107,"velocity":0.8818897637795275,"duration":0.17476865833333477},{"name":"F#4","midi":66,"time":363.33362400000107,"velocity":0.8818897637795275,"duration":0.17476865833333477},{"name":"F3","midi":53,"time":363.5188093333344,"velocity":0.8818897637795275,"duration":0.17476865833333477},{"name":"F4","midi":65,"time":363.5188093333344,"velocity":0.8818897637795275,"duration":0.17476865833333477},{"name":"E3","midi":52,"time":363.7039946666677,"velocity":0.8818897637795275,"duration":0.17476865833333477},{"name":"E4","midi":64,"time":363.7039946666677,"velocity":0.8818897637795275,"duration":0.17476865833333477},{"name":"E4","midi":64,"time":363.88918000000103,"velocity":0.8818897637795275,"duration":0.1307871416666444},{"name":"C#4","midi":61,"time":364.02806900000104,"velocity":0.8818897637795275,"duration":0.1307871416666444},{"name":"F4","midi":65,"time":364.16695800000105,"velocity":0.8818897637795275,"duration":0.1307871416666444},{"name":"G4","midi":67,"time":364.30584700000105,"velocity":0.8818897637795275,"duration":0.1307871416666444},{"name":"A4","midi":69,"time":364.722514000001,"velocity":0.8818897637795275,"duration":0.1307871416666444},{"name":"G4","midi":67,"time":364.861403000001,"velocity":0.8818897637795275,"duration":0.1307871416666444},{"name":"A#4","midi":70,"time":365.000292000001,"velocity":0.8818897637795275,"duration":0.1307871416666444},{"name":"C5","midi":72,"time":365.13918100000103,"velocity":0.8818897637795275,"duration":0.1307871416666444},{"name":"A#4","midi":70,"time":365.27807000000104,"velocity":0.8818897637795275,"duration":0.0648148666666657},{"name":"A#4","midi":70,"time":365.347514500001,"velocity":0.8818897637795275,"duration":0.0648148666666657},{"name":"A#4","midi":70,"time":365.416959000001,"velocity":0.8818897637795275,"duration":0.0648148666666657},{"name":"A#4","midi":70,"time":365.48640350000096,"velocity":0.8818897637795275,"duration":0.0648148666666657},{"name":"A#4","midi":70,"time":365.55584800000094,"velocity":0.8818897637795275,"duration":0.0648148666666657},{"name":"A#5","midi":82,"time":365.55584800000094,"velocity":0.8818897637795275,"duration":0.0648148666666657},{"name":"A#4","midi":70,"time":365.6252925000009,"velocity":0.8818897637795275,"duration":0.0648148666666657},{"name":"A#5","midi":82,"time":365.6252925000009,"velocity":0.8818897637795275,"duration":0.0648148666666657},{"name":"A#4","midi":70,"time":365.6947370000009,"velocity":0.8818897637795275,"duration":0.03356484166664586},{"name":"A#5","midi":82,"time":365.6947370000009,"velocity":0.8818897637795275,"duration":0.03356484166664586},{"name":"A#4","midi":70,"time":365.76418150000086,"velocity":0.8818897637795275,"duration":0.03356484166664586},{"name":"A#5","midi":82,"time":365.76418150000086,"velocity":0.8818897637795275,"duration":0.03356484166664586},{"name":"A#4","midi":70,"time":365.83362600000083,"velocity":0.8818897637795275,"duration":0.03356484166664586},{"name":"A#5","midi":82,"time":365.83362600000083,"velocity":0.8818897637795275,"duration":0.03356484166664586},{"name":"A#4","midi":70,"time":365.9030705000008,"velocity":0.8818897637795275,"duration":0.03356484166664586},{"name":"A#5","midi":82,"time":365.9030705000008,"velocity":0.8818897637795275,"duration":0.03356484166664586},{"name":"A#4","midi":70,"time":365.9725150000008,"velocity":0.8818897637795275,"duration":0.03356484166664586},{"name":"A#5","midi":82,"time":365.9725150000008,"velocity":0.8818897637795275,"duration":0.03356484166664586},{"name":"A#4","midi":70,"time":366.04195950000076,"velocity":0.8818897637795275,"duration":0.03356484166664586},{"name":"A#5","midi":82,"time":366.04195950000076,"velocity":0.8818897637795275,"duration":0.03356484166664586},{"name":"A4","midi":69,"time":366.11140400000073,"velocity":0.8818897637795275,"duration":0.26273169166665866},{"name":"A5","midi":81,"time":366.11140400000073,"velocity":0.8818897637795275,"duration":0.26273169166665866},{"name":"A3","midi":57,"time":366.38918200000074,"velocity":0.8818897637795275,"duration":0.1307871416666444},{"name":"A4","midi":69,"time":366.38918200000074,"velocity":0.8818897637795275,"duration":0.1307871416666444},{"name":"G4","midi":67,"time":366.52807100000075,"velocity":0.8818897637795275,"duration":0.3946762416666729},{"name":"G5","midi":79,"time":366.52807100000075,"velocity":0.8818897637795275,"duration":0.3946762416666729},{"name":"F4","midi":65,"time":366.94473800000077,"velocity":0.8818897637795275,"duration":0.1307871416666444},{"name":"F5","midi":77,"time":366.94473800000077,"velocity":0.8818897637795275,"duration":0.1307871416666444},{"name":"G4","midi":67,"time":367.0836270000008,"velocity":0.8818897637795275,"duration":0.26273169166665866},{"name":"G5","midi":79,"time":367.0836270000008,"velocity":0.8818897637795275,"duration":0.26273169166665866},{"name":"G#4","midi":68,"time":367.3614050000008,"velocity":0.8818897637795275,"duration":0.1307871416666444},{"name":"G#5","midi":80,"time":367.3614050000008,"velocity":0.8818897637795275,"duration":0.1307871416666444},{"name":"G4","midi":67,"time":367.5002940000008,"velocity":0.8818897637795275,"duration":0.1307871416666444},{"name":"G5","midi":79,"time":367.5002940000008,"velocity":0.8818897637795275,"duration":0.1307871416666444},{"name":"F4","midi":65,"time":367.6391830000008,"velocity":0.8818897637795275,"duration":0.1307871416666444},{"name":"F5","midi":77,"time":367.6391830000008,"velocity":0.8818897637795275,"duration":0.1307871416666444},{"name":"G4","midi":67,"time":367.7780720000008,"velocity":0.8818897637795275,"duration":0.13773159166669302},{"name":"G5","midi":79,"time":367.7780720000008,"velocity":0.8818897637795275,"duration":0.13773159166669302},{"name":"A4","midi":69,"time":368.0558500000008,"velocity":0.8818897637795275,"duration":0.13773159166669302},{"name":"A5","midi":81,"time":368.0558500000008,"velocity":0.8818897637795275,"duration":0.13773159166669302},{"name":"F4","midi":65,"time":368.33362800000083,"velocity":0.8818897637795275,"duration":0.3946762416666729},{"name":"F5","midi":77,"time":368.33362800000083,"velocity":0.8818897637795275,"duration":0.3946762416666729},{"name":"F2","midi":41,"time":368.75029500000085,"velocity":0.8818897637795275,"duration":0.3946762416666729},{"name":"F3","midi":53,"time":368.75029500000085,"velocity":0.8818897637795275,"duration":0.3946762416666729},{"name":"A#2","midi":46,"time":369.16696200000086,"velocity":0.8818897637795275,"duration":0.3946762416666729},{"name":"A#3","midi":58,"time":369.16696200000086,"velocity":0.8818897637795275,"duration":0.3946762416666729},{"name":"F3","midi":53,"time":369.5836290000009,"velocity":0.8818897637795275,"duration":0.3946762416666729},{"name":"F4","midi":65,"time":369.5836290000009,"velocity":0.8818897637795275,"duration":0.3946762416666729},{"name":"A#3","midi":58,"time":370.0002960000009,"velocity":0.8818897637795275,"duration":0.3946762416666729},{"name":"A#4","midi":70,"time":370.0002960000009,"velocity":0.8818897637795275,"duration":0.3946762416666729},{"name":"D4","midi":62,"time":370.4169630000009,"velocity":0.8818897637795275,"duration":0.1307871416666444},{"name":"D5","midi":74,"time":370.4169630000009,"velocity":0.8818897637795275,"duration":0.1307871416666444},{"name":"C4","midi":60,"time":370.5558520000009,"velocity":0.8818897637795275,"duration":0.26273169166665866},{"name":"C5","midi":72,"time":370.5558520000009,"velocity":0.8818897637795275,"duration":0.26273169166665866},{"name":"A#4","midi":70,"time":370.83363000000094,"velocity":0.8818897637795275,"duration":0.26273169166665866},{"name":"A#5","midi":82,"time":370.83363000000094,"velocity":0.8818897637795275,"duration":0.26273169166665866},{"name":"A4","midi":69,"time":371.11140800000095,"velocity":0.8818897637795275,"duration":0.26273169166665866},{"name":"A5","midi":81,"time":371.11140800000095,"velocity":0.8818897637795275,"duration":0.26273169166665866},{"name":"G4","midi":67,"time":371.38918600000096,"velocity":0.8818897637795275,"duration":0.0648148666666657},{"name":"G5","midi":79,"time":371.38918600000096,"velocity":0.8818897637795275,"duration":0.0648148666666657},{"name":"A4","midi":69,"time":371.45863050000094,"velocity":0.8818897637795275,"duration":0.0648148666666657},{"name":"A5","midi":81,"time":371.45863050000094,"velocity":0.8818897637795275,"duration":0.0648148666666657},{"name":"G4","midi":67,"time":371.5280750000009,"velocity":0.8818897637795275,"duration":0.1307871416666444},{"name":"G5","midi":79,"time":371.5280750000009,"velocity":0.8818897637795275,"duration":0.1307871416666444},{"name":"F4","midi":65,"time":371.6669640000009,"velocity":0.8818897637795275,"duration":0.26273169166665866},{"name":"F5","midi":77,"time":371.6669640000009,"velocity":0.8818897637795275,"duration":0.26273169166665866},{"name":"F3","midi":53,"time":371.94474200000093,"velocity":0.8818897637795275,"duration":0.26273169166665866},{"name":"F4","midi":65,"time":371.94474200000093,"velocity":0.8818897637795275,"duration":0.26273169166665866},{"name":"G4","midi":67,"time":372.22252000000094,"velocity":0.8818897637795275,"duration":0.26273169166665866},{"name":"G5","midi":79,"time":372.22252000000094,"velocity":0.8818897637795275,"duration":0.26273169166665866},{"name":"G3","midi":55,"time":372.50029800000095,"velocity":0.8818897637795275,"duration":0.26273169166665866},{"name":"G4","midi":67,"time":372.50029800000095,"velocity":0.8818897637795275,"duration":0.26273169166665866},{"name":"A4","midi":69,"time":372.77807600000096,"velocity":0.8818897637795275,"duration":0.26273169166665866},{"name":"A5","midi":81,"time":372.77807600000096,"velocity":0.8818897637795275,"duration":0.26273169166665866},{"name":"A3","midi":57,"time":373.055854000001,"velocity":0.8818897637795275,"duration":0.26273169166665866},{"name":"A4","midi":69,"time":373.055854000001,"velocity":0.8818897637795275,"duration":0.26273169166665866},{"name":"C#4","midi":61,"time":373.333632000001,"velocity":0.8818897637795275,"duration":0.26273169166665866},{"name":"C#5","midi":73,"time":373.333632000001,"velocity":0.8818897637795275,"duration":0.26273169166665866},{"name":"A3","midi":57,"time":373.611410000001,"velocity":0.8818897637795275,"duration":0.26273169166665866},{"name":"A4","midi":69,"time":373.611410000001,"velocity":0.8818897637795275,"duration":0.26273169166665866},{"name":"E4","midi":64,"time":373.889188000001,"velocity":0.8818897637795275,"duration":0.26273169166665866},{"name":"E5","midi":76,"time":373.889188000001,"velocity":0.8818897637795275,"duration":0.26273169166665866},{"name":"C#4","midi":61,"time":374.166966000001,"velocity":0.8818897637795275,"duration":0.26273169166665866},{"name":"C#5","midi":73,"time":374.166966000001,"velocity":0.8818897637795275,"duration":0.26273169166665866},{"name":"C5","midi":72,"time":374.44474400000104,"velocity":0.8818897637795275,"duration":0.26273169166665866},{"name":"C6","midi":84,"time":374.44474400000104,"velocity":0.8818897637795275,"duration":0.26273169166665866},{"name":"A#4","midi":70,"time":374.72252200000105,"velocity":0.8818897637795275,"duration":0.0648148666666657},{"name":"A#5","midi":82,"time":374.72252200000105,"velocity":0.8818897637795275,"duration":0.0648148666666657},{"name":"C5","midi":72,"time":374.791966500001,"velocity":0.8818897637795275,"duration":0.0648148666666657},{"name":"C6","midi":84,"time":374.791966500001,"velocity":0.8818897637795275,"duration":0.0648148666666657},{"name":"A#4","midi":70,"time":374.861411000001,"velocity":0.8818897637795275,"duration":0.1307871416666444},{"name":"A#5","midi":82,"time":374.861411000001,"velocity":0.8818897637795275,"duration":0.1307871416666444},{"name":"A4","midi":69,"time":375.000300000001,"velocity":0.8818897637795275,"duration":0.3946762416666729},{"name":"A5","midi":81,"time":375.000300000001,"velocity":0.8818897637795275,"duration":0.3946762416666729},{"name":"A3","midi":57,"time":375.416967000001,"velocity":0.8818897637795275,"duration":0.6585653416666446},{"name":"A4","midi":69,"time":375.416967000001,"velocity":0.8818897637795275,"duration":0.6585653416666446},{"name":"A4","midi":69,"time":376.666968000001,"velocity":0.8818897637795275,"duration":0.26273169166665866},{"name":"C5","midi":72,"time":376.94474600000103,"velocity":0.8818897637795275,"duration":0.1307871416666444},{"name":"C6","midi":84,"time":376.94474600000103,"velocity":0.8818897637795275,"duration":0.1307871416666444},{"name":"A4","midi":69,"time":377.08363500000104,"velocity":0.8818897637795275,"duration":0.13773159166669302},{"name":"A5","midi":81,"time":377.08363500000104,"velocity":0.8818897637795275,"duration":0.13773159166669302},{"name":"C5","midi":72,"time":377.22252400000104,"velocity":0.8818897637795275,"duration":0.1307871416666444},{"name":"C6","midi":84,"time":377.22252400000104,"velocity":0.8818897637795275,"duration":0.1307871416666444},{"name":"D5","midi":74,"time":377.36141300000105,"velocity":0.8818897637795275,"duration":0.1307871416666444},{"name":"D6","midi":86,"time":377.36141300000105,"velocity":0.8818897637795275,"duration":0.1307871416666444},{"name":"A4","midi":69,"time":377.50030200000106,"velocity":0.8818897637795275,"duration":0.1307871416666444},{"name":"A5","midi":81,"time":377.50030200000106,"velocity":0.8818897637795275,"duration":0.1307871416666444},{"name":"C5","midi":72,"time":377.63919100000106,"velocity":0.8818897637795275,"duration":0.26273169166665866},{"name":"C6","midi":84,"time":377.63919100000106,"velocity":0.8818897637795275,"duration":0.26273169166665866},{"name":"A4","midi":69,"time":377.9169690000011,"velocity":0.8818897637795275,"duration":0.1307871416666444},{"name":"A5","midi":81,"time":377.9169690000011,"velocity":0.8818897637795275,"duration":0.1307871416666444},{"name":"F4","midi":65,"time":378.0558580000011,"velocity":0.8818897637795275,"duration":0.1307871416666444},{"name":"F5","midi":77,"time":378.0558580000011,"velocity":0.8818897637795275,"duration":0.1307871416666444},{"name":"G4","midi":67,"time":378.1947470000011,"velocity":0.8818897637795275,"duration":0.1307871416666444},{"name":"G5","midi":79,"time":378.1947470000011,"velocity":0.8818897637795275,"duration":0.1307871416666444},{"name":"F4","midi":65,"time":378.3336360000011,"velocity":0.8818897637795275,"duration":0.26273169166665866},{"name":"F5","midi":77,"time":378.3336360000011,"velocity":0.8818897637795275,"duration":0.26273169166665866},{"name":"D4","midi":62,"time":378.6114140000011,"velocity":0.8818897637795275,"duration":0.1307871416666444},{"name":"D5","midi":74,"time":378.6114140000011,"velocity":0.8818897637795275,"duration":0.1307871416666444},{"name":"C4","midi":60,"time":378.7503030000011,"velocity":0.8818897637795275,"duration":0.1307871416666444},{"name":"C5","midi":72,"time":378.7503030000011,"velocity":0.8818897637795275,"duration":0.1307871416666444},{"name":"A3","midi":57,"time":378.8891920000011,"velocity":0.8818897637795275,"duration":0.1307871416666444},{"name":"A4","midi":69,"time":378.8891920000011,"velocity":0.8818897637795275,"duration":0.1307871416666444},{"name":"C4","midi":60,"time":379.0280810000011,"velocity":0.8818897637795275,"duration":0.26273169166665866},{"name":"C5","midi":72,"time":379.0280810000011,"velocity":0.8818897637795275,"duration":0.26273169166665866},{"name":"A3","midi":57,"time":379.30585900000113,"velocity":0.8818897637795275,"duration":0.1307871416666444},{"name":"A4","midi":69,"time":379.30585900000113,"velocity":0.8818897637795275,"duration":0.1307871416666444},{"name":"G3","midi":55,"time":379.44474800000114,"velocity":0.8818897637795275,"duration":0.1307871416666444},{"name":"G4","midi":67,"time":379.44474800000114,"velocity":0.8818897637795275,"duration":0.1307871416666444},{"name":"F3","midi":53,"time":379.58363700000115,"velocity":0.8818897637795275,"duration":0.1307871416666444},{"name":"F4","midi":65,"time":379.58363700000115,"velocity":0.8818897637795275,"duration":0.1307871416666444},{"name":"A3","midi":57,"time":379.72252600000115,"velocity":0.8818897637795275,"duration":0.3946762416666729},{"name":"A4","midi":69,"time":379.72252600000115,"velocity":0.8818897637795275,"duration":0.3946762416666729},{"name":"G3","midi":55,"time":380.13919300000117,"velocity":0.8818897637795275,"duration":0.1307871416666444},{"name":"G4","midi":67,"time":380.13919300000117,"velocity":0.8818897637795275,"duration":0.1307871416666444},{"name":"F3","midi":53,"time":380.2780820000012,"velocity":0.8818897637795275,"duration":0.1307871416666444},{"name":"F4","midi":65,"time":380.2780820000012,"velocity":0.8818897637795275,"duration":0.1307871416666444},{"name":"G#3","midi":56,"time":380.4169710000012,"velocity":0.8818897637795275,"duration":0.3946762416666729},{"name":"G#4","midi":68,"time":380.4169710000012,"velocity":0.8818897637795275,"duration":0.3946762416666729},{"name":"G3","midi":55,"time":380.8336380000012,"velocity":0.8818897637795275,"duration":0.1307871416666444},{"name":"G4","midi":67,"time":380.8336380000012,"velocity":0.8818897637795275,"duration":0.1307871416666444},{"name":"F3","midi":53,"time":380.9725270000012,"velocity":0.8818897637795275,"duration":0.1307871416666444},{"name":"F4","midi":65,"time":380.9725270000012,"velocity":0.8818897637795275,"duration":0.1307871416666444},{"name":"G3","midi":55,"time":381.1114160000012,"velocity":0.8818897637795275,"duration":0.1307871416666444},{"name":"G4","midi":67,"time":381.1114160000012,"velocity":0.8818897637795275,"duration":0.1307871416666444},{"name":"G#3","midi":56,"time":381.2503050000012,"velocity":0.8818897637795275,"duration":0.1307871416666444},{"name":"G#4","midi":68,"time":381.2503050000012,"velocity":0.8818897637795275,"duration":0.1307871416666444},{"name":"G3","midi":55,"time":381.3891940000012,"velocity":0.8818897637795275,"duration":0.1307871416666444},{"name":"G4","midi":67,"time":381.3891940000012,"velocity":0.8818897637795275,"duration":0.1307871416666444},{"name":"F3","midi":53,"time":381.52808300000123,"velocity":0.8818897637795275,"duration":0.1307871416666444},{"name":"F4","midi":65,"time":381.52808300000123,"velocity":0.8818897637795275,"duration":0.1307871416666444},{"name":"E3","midi":52,"time":381.66697200000124,"velocity":0.8818897637795275,"duration":0.0648148666666657},{"name":"E4","midi":64,"time":381.66697200000124,"velocity":0.8818897637795275,"duration":0.0648148666666657},{"name":"B3","midi":59,"time":381.7364165000012,"velocity":0.8818897637795275,"duration":0.0648148666666657},{"name":"B4","midi":71,"time":381.7364165000012,"velocity":0.8818897637795275,"duration":0.0648148666666657},{"name":"E3","midi":52,"time":382.0836390000012,"velocity":0.8818897637795275,"duration":0.0648148666666657},{"name":"E4","midi":64,"time":382.0836390000012,"velocity":0.8818897637795275,"duration":0.0648148666666657},{"name":"B3","midi":59,"time":382.1530835000012,"velocity":0.8818897637795275,"duration":0.0648148666666657},{"name":"B4","midi":71,"time":382.1530835000012,"velocity":0.8818897637795275,"duration":0.0648148666666657},{"name":"A4","midi":69,"time":382.50030600000116,"velocity":0.8818897637795275,"duration":0.1307871416666444},{"name":"A5","midi":81,"time":382.50030600000116,"velocity":0.8818897637795275,"duration":0.1307871416666444},{"name":"C5","midi":72,"time":382.63919500000117,"velocity":0.8818897637795275,"duration":0.1307871416666444},{"name":"C6","midi":84,"time":382.63919500000117,"velocity":0.8818897637795275,"duration":0.1307871416666444},{"name":"D5","midi":74,"time":382.7780840000012,"velocity":0.8818897637795275,"duration":0.1307871416666444},{"name":"D6","midi":86,"time":382.7780840000012,"velocity":0.8818897637795275,"duration":0.1307871416666444},{"name":"A4","midi":69,"time":382.9169730000012,"velocity":0.8818897637795275,"duration":0.1307871416666444},{"name":"A5","midi":81,"time":382.9169730000012,"velocity":0.8818897637795275,"duration":0.1307871416666444},{"name":"C5","midi":72,"time":383.0558620000012,"velocity":0.8818897637795275,"duration":0.1307871416666444},{"name":"C6","midi":84,"time":383.0558620000012,"velocity":0.8818897637795275,"duration":0.1307871416666444},{"name":"D5","midi":74,"time":383.1947510000012,"velocity":0.8818897637795275,"duration":0.1307871416666444},{"name":"D6","midi":86,"time":383.1947510000012,"velocity":0.8818897637795275,"duration":0.1307871416666444},{"name":"F5","midi":77,"time":383.3336400000012,"velocity":0.8818897637795275,"duration":0.04282410833332051},{"name":"F6","midi":89,"time":383.3336400000012,"velocity":0.8818897637795275,"duration":0.04282410833332051},{"name":"E5","midi":76,"time":383.3799363333345,"velocity":0.8818897637795275,"duration":0.04282410833332051},{"name":"E6","midi":88,"time":383.3799363333345,"velocity":0.8818897637795275,"duration":0.04282410833332051},{"name":"D5","midi":74,"time":383.42623266666783,"velocity":0.8818897637795275,"duration":0.04282410833332051},{"name":"D6","midi":86,"time":383.42623266666783,"velocity":0.8818897637795275,"duration":0.04282410833332051},{"name":"C5","midi":72,"time":383.47252900000115,"velocity":0.8818897637795275,"duration":0.19675941666667995},{"name":"C6","midi":84,"time":383.47252900000115,"velocity":0.8818897637795275,"duration":0.19675941666667995},{"name":"A4","midi":69,"time":383.6808625000012,"velocity":0.8818897637795275,"duration":0.19675941666667995},{"name":"A5","midi":81,"time":383.6808625000012,"velocity":0.8818897637795275,"duration":0.19675941666667995},{"name":"A#3","midi":58,"time":383.8891960000012,"velocity":0.8818897637795275,"duration":0.26273169166665866},{"name":"A#4","midi":70,"time":383.8891960000012,"velocity":0.8818897637795275,"duration":0.26273169166665866},{"name":"A#3","midi":58,"time":384.16697400000123,"velocity":0.8818897637795275,"duration":0.1307871416666444},{"name":"A#4","midi":70,"time":384.16697400000123,"velocity":0.8818897637795275,"duration":0.1307871416666444},{"name":"A#3","midi":58,"time":384.30586300000124,"velocity":0.8818897637795275,"duration":0.3946762416666729},{"name":"A#4","midi":70,"time":384.30586300000124,"velocity":0.8818897637795275,"duration":0.3946762416666729},{"name":"B3","midi":59,"time":384.72253000000126,"velocity":0.8818897637795275,"duration":0.26273169166665866},{"name":"B4","midi":71,"time":384.72253000000126,"velocity":0.8818897637795275,"duration":0.26273169166665866},{"name":"C4","midi":60,"time":385.00030800000127,"velocity":0.8818897637795275,"duration":0.26273169166665866},{"name":"C5","midi":72,"time":385.00030800000127,"velocity":0.8818897637795275,"duration":0.26273169166665866},{"name":"B3","midi":59,"time":385.2780860000013,"velocity":0.8818897637795275,"duration":0.26273169166665866},{"name":"B4","midi":71,"time":385.2780860000013,"velocity":0.8818897637795275,"duration":0.26273169166665866},{"name":"A#3","midi":58,"time":385.5558640000013,"velocity":0.8818897637795275,"duration":0.26273169166665866},{"name":"A#4","midi":70,"time":385.5558640000013,"velocity":0.8818897637795275,"duration":0.26273169166665866},{"name":"A3","midi":57,"time":385.8336420000013,"velocity":0.8818897637795275,"duration":0.26273169166665866},{"name":"A4","midi":69,"time":385.8336420000013,"velocity":0.8818897637795275,"duration":0.26273169166665866},{"name":"F4","midi":65,"time":386.1114200000013,"velocity":0.8818897637795275,"duration":0.26273169166665866},{"name":"F5","midi":77,"time":386.1114200000013,"velocity":0.8818897637795275,"duration":0.26273169166665866},{"name":"F4","midi":65,"time":386.38919800000133,"velocity":0.8818897637795275,"duration":0.1307871416666444},{"name":"F5","midi":77,"time":386.38919800000133,"velocity":0.8818897637795275,"duration":0.1307871416666444},{"name":"F4","midi":65,"time":386.52808700000134,"velocity":0.8818897637795275,"duration":0.1307871416666444},{"name":"F5","midi":77,"time":386.52808700000134,"velocity":0.8818897637795275,"duration":0.1307871416666444},{"name":"F4","midi":65,"time":386.8058650000013,"velocity":0.8818897637795275,"duration":0.1307871416666444},{"name":"F5","midi":77,"time":386.8058650000013,"velocity":0.8818897637795275,"duration":0.1307871416666444},{"name":"G4","midi":67,"time":387.08364300000125,"velocity":0.8818897637795275,"duration":0.26273169166665866},{"name":"G5","midi":79,"time":387.08364300000125,"velocity":0.8818897637795275,"duration":0.26273169166665866},{"name":"F4","midi":65,"time":387.36142100000126,"velocity":0.8818897637795275,"duration":0.1307871416666444},{"name":"F5","midi":77,"time":387.36142100000126,"velocity":0.8818897637795275,"duration":0.1307871416666444},{"name":"G4","midi":67,"time":387.50031000000126,"velocity":0.8818897637795275,"duration":0.1307871416666444},{"name":"G5","midi":79,"time":387.50031000000126,"velocity":0.8818897637795275,"duration":0.1307871416666444},{"name":"A4","midi":69,"time":387.63919900000127,"velocity":0.8818897637795275,"duration":0.1307871416666444},{"name":"A5","midi":81,"time":387.63919900000127,"velocity":0.8818897637795275,"duration":0.1307871416666444},{"name":"F4","midi":65,"time":387.7780880000013,"velocity":0.8818897637795275,"duration":0.26273169166665866},{"name":"F5","midi":77,"time":387.7780880000013,"velocity":0.8818897637795275,"duration":0.26273169166665866},{"name":"C4","midi":60,"time":388.0558660000013,"velocity":0.8818897637795275,"duration":0.1307871416666444},{"name":"C5","midi":72,"time":388.0558660000013,"velocity":0.8818897637795275,"duration":0.1307871416666444},{"name":"D4","midi":62,"time":388.1947550000013,"velocity":0.8818897637795275,"duration":0.1307871416666444},{"name":"D5","midi":74,"time":388.1947550000013,"velocity":0.8818897637795275,"duration":0.1307871416666444},{"name":"F4","midi":65,"time":388.3336440000013,"velocity":0.8818897637795275,"duration":0.26273169166665866},{"name":"F5","midi":77,"time":388.3336440000013,"velocity":0.8818897637795275,"duration":0.26273169166665866},{"name":"F4","midi":65,"time":388.6114220000013,"velocity":0.8818897637795275,"duration":0.1307871416666444},{"name":"F5","midi":77,"time":388.6114220000013,"velocity":0.8818897637795275,"duration":0.1307871416666444},{"name":"F4","midi":65,"time":388.7503110000013,"velocity":0.8818897637795275,"duration":0.1307871416666444},{"name":"F5","midi":77,"time":388.7503110000013,"velocity":0.8818897637795275,"duration":0.1307871416666444},{"name":"G4","midi":67,"time":389.0280890000013,"velocity":0.8818897637795275,"duration":0.1307871416666444},{"name":"G5","midi":79,"time":389.0280890000013,"velocity":0.8818897637795275,"duration":0.1307871416666444},{"name":"G#4","midi":68,"time":389.30586700000123,"velocity":0.8818897637795275,"duration":0.26273169166665866},{"name":"G#5","midi":80,"time":389.30586700000123,"velocity":0.8818897637795275,"duration":0.26273169166665866},{"name":"G4","midi":67,"time":389.58364500000124,"velocity":0.8818897637795275,"duration":0.1307871416666444},{"name":"G5","midi":79,"time":389.58364500000124,"velocity":0.8818897637795275,"duration":0.1307871416666444},{"name":"F4","midi":65,"time":389.72253400000125,"velocity":0.8818897637795275,"duration":0.1307871416666444},{"name":"F5","midi":77,"time":389.72253400000125,"velocity":0.8818897637795275,"duration":0.1307871416666444},{"name":"D4","midi":62,"time":389.86142300000125,"velocity":0.8818897637795275,"duration":0.1307871416666444},{"name":"D5","midi":74,"time":389.86142300000125,"velocity":0.8818897637795275,"duration":0.1307871416666444},{"name":"F4","midi":65,"time":390.00031200000126,"velocity":0.8818897637795275,"duration":0.1307871416666444},{"name":"F5","midi":77,"time":390.00031200000126,"velocity":0.8818897637795275,"duration":0.1307871416666444},{"name":"G4","midi":67,"time":390.13920100000126,"velocity":0.8818897637795275,"duration":0.1307871416666444},{"name":"G5","midi":79,"time":390.13920100000126,"velocity":0.8818897637795275,"duration":0.1307871416666444},{"name":"F4","midi":65,"time":390.27809000000127,"velocity":0.8818897637795275,"duration":0.08680562500001088},{"name":"F5","midi":77,"time":390.27809000000127,"velocity":0.8818897637795275,"duration":0.08680562500001088},{"name":"E4","midi":64,"time":390.37068266666796,"velocity":0.8818897637795275,"duration":0.08680562500001088},{"name":"E5","midi":76,"time":390.37068266666796,"velocity":0.8818897637795275,"duration":0.08680562500001088},{"name":"D4","midi":62,"time":390.46327533333465,"velocity":0.8818897637795275,"duration":0.08680562500001088},{"name":"D5","midi":74,"time":390.46327533333465,"velocity":0.8818897637795275,"duration":0.08680562500001088},{"name":"E4","midi":64,"time":390.55586800000134,"velocity":0.8818897637795275,"duration":0.26273169166665866},{"name":"E5","midi":76,"time":390.55586800000134,"velocity":0.8818897637795275,"duration":0.26273169166665866},{"name":"E4","midi":64,"time":390.83364600000135,"velocity":0.8818897637795275,"duration":0.1307871416666444},{"name":"E5","midi":76,"time":390.83364600000135,"velocity":0.8818897637795275,"duration":0.1307871416666444},{"name":"E4","midi":64,"time":390.97253500000136,"velocity":0.8818897637795275,"duration":0.1307871416666444},{"name":"E5","midi":76,"time":390.97253500000136,"velocity":0.8818897637795275,"duration":0.1307871416666444},{"name":"F4","midi":65,"time":391.2503130000013,"velocity":0.8818897637795275,"duration":0.1307871416666444},{"name":"F5","midi":77,"time":391.2503130000013,"velocity":0.8818897637795275,"duration":0.1307871416666444},{"name":"G4","midi":67,"time":391.52809100000127,"velocity":0.8818897637795275,"duration":0.1307871416666444},{"name":"G5","midi":79,"time":391.52809100000127,"velocity":0.8818897637795275,"duration":0.1307871416666444},{"name":"A4","midi":69,"time":391.8058690000012,"velocity":0.8818897637795275,"duration":0.1307871416666444},{"name":"A5","midi":81,"time":391.8058690000012,"velocity":0.8818897637795275,"duration":0.1307871416666444},{"name":"G4","midi":67,"time":392.0836470000012,"velocity":0.8818897637795275,"duration":0.26273169166665866},{"name":"G5","midi":79,"time":392.0836470000012,"velocity":0.8818897637795275,"duration":0.26273169166665866},{"name":"F4","midi":65,"time":392.3614250000012,"velocity":0.8818897637795275,"duration":0.1307871416666444},{"name":"F5","midi":77,"time":392.3614250000012,"velocity":0.8818897637795275,"duration":0.1307871416666444},{"name":"E4","midi":64,"time":392.5003140000012,"velocity":0.8818897637795275,"duration":0.1307871416666444},{"name":"E5","midi":76,"time":392.5003140000012,"velocity":0.8818897637795275,"duration":0.1307871416666444},{"name":"C#4","midi":61,"time":392.6392030000012,"velocity":0.8818897637795275,"duration":0.1307871416666444},{"name":"C#5","midi":73,"time":392.6392030000012,"velocity":0.8818897637795275,"duration":0.1307871416666444},{"name":"A4","midi":69,"time":392.7780920000012,"velocity":0.8818897637795275,"duration":0.1307871416666444},{"name":"A5","midi":81,"time":392.7780920000012,"velocity":0.8818897637795275,"duration":0.1307871416666444},{"name":"A4","midi":69,"time":393.05587000000116,"velocity":0.8818897637795275,"duration":0.1307871416666444},{"name":"A5","midi":81,"time":393.05587000000116,"velocity":0.8818897637795275,"duration":0.1307871416666444},{"name":"G4","midi":67,"time":393.3336480000011,"velocity":0.8818897637795275,"duration":0.1307871416666444},{"name":"G5","midi":79,"time":393.3336480000011,"velocity":0.8818897637795275,"duration":0.1307871416666444},{"name":"G4","midi":67,"time":393.4725370000011,"velocity":0.8818897637795275,"duration":0.1307871416666444},{"name":"G5","midi":79,"time":393.4725370000011,"velocity":0.8818897637795275,"duration":0.1307871416666444},{"name":"F4","midi":65,"time":393.61142600000113,"velocity":0.8818897637795275,"duration":0.1307871416666444},{"name":"F5","midi":77,"time":393.61142600000113,"velocity":0.8818897637795275,"duration":0.1307871416666444},{"name":"G4","midi":67,"time":393.75031500000114,"velocity":0.8818897637795275,"duration":0.26273169166665866},{"name":"G5","midi":79,"time":393.75031500000114,"velocity":0.8818897637795275,"duration":0.26273169166665866},{"name":"G4","midi":67,"time":394.02809300000115,"velocity":0.8818897637795275,"duration":0.3946762416666729},{"name":"G5","midi":79,"time":394.02809300000115,"velocity":0.8818897637795275,"duration":0.3946762416666729},{"name":"F4","midi":65,"time":394.44476000000117,"velocity":0.8818897637795275,"duration":0.26273169166665866},{"name":"F5","midi":77,"time":394.44476000000117,"velocity":0.8818897637795275,"duration":0.26273169166665866},{"name":"E4","midi":64,"time":394.7225380000012,"velocity":0.8818897637795275,"duration":0.26273169166665866},{"name":"E5","midi":76,"time":394.7225380000012,"velocity":0.8818897637795275,"duration":0.26273169166665866},{"name":"E3","midi":52,"time":395.0003160000012,"velocity":0.8818897637795275,"duration":0.084490808333328},{"name":"E4","midi":64,"time":395.0003160000012,"velocity":0.8818897637795275,"duration":0.084490808333328},{"name":"E5","midi":76,"time":395.0003160000012,"velocity":0.8818897637795275,"duration":0.084490808333328},{"name":"F3","midi":53,"time":395.08596421666783,"velocity":0.8818897637795275,"duration":0.7071764916666439},{"name":"F4","midi":65,"time":395.08596421666783,"velocity":0.8818897637795275,"duration":0.7071764916666439},{"name":"F5","midi":77,"time":395.08596421666783,"velocity":0.8818897637795275,"duration":0.7071764916666439},{"name":"G3","midi":55,"time":395.83365000000117,"velocity":0.8818897637795275,"duration":0.26273169166665866},{"name":"G4","midi":67,"time":395.83365000000117,"velocity":0.8818897637795275,"duration":0.26273169166665866},{"name":"G5","midi":79,"time":395.83365000000117,"velocity":0.8818897637795275,"duration":0.26273169166665866},{"name":"F3","midi":53,"time":396.1114280000012,"velocity":0.8818897637795275,"duration":0.7905098916666589},{"name":"F4","midi":65,"time":396.1114280000012,"velocity":0.8818897637795275,"duration":0.7905098916666589},{"name":"F5","midi":77,"time":396.1114280000012,"velocity":0.8818897637795275,"duration":0.7905098916666589},{"name":"G3","midi":55,"time":396.94476200000116,"velocity":0.8818897637795275,"duration":0.26273169166665866},{"name":"G4","midi":67,"time":396.94476200000116,"velocity":0.8818897637795275,"duration":0.26273169166665866},{"name":"G5","midi":79,"time":396.94476200000116,"velocity":0.8818897637795275,"duration":0.26273169166665866},{"name":"F3","midi":53,"time":397.2225400000012,"velocity":0.8818897637795275,"duration":0.26273169166665866},{"name":"F4","midi":65,"time":397.2225400000012,"velocity":0.8818897637795275,"duration":0.26273169166665866},{"name":"F5","midi":77,"time":397.2225400000012,"velocity":0.8818897637795275,"duration":0.26273169166665866},{"name":"G3","midi":55,"time":397.5003180000012,"velocity":0.8818897637795275,"duration":0.1307871416666444},{"name":"G4","midi":67,"time":397.5003180000012,"velocity":0.8818897637795275,"duration":0.1307871416666444},{"name":"G5","midi":79,"time":397.5003180000012,"velocity":0.8818897637795275,"duration":0.1307871416666444},{"name":"F3","midi":53,"time":397.6392070000012,"velocity":0.8818897637795275,"duration":0.3946762416666729},{"name":"F4","midi":65,"time":397.6392070000012,"velocity":0.8818897637795275,"duration":0.3946762416666729},{"name":"F5","midi":77,"time":397.6392070000012,"velocity":0.8818897637795275,"duration":0.3946762416666729},{"name":"D3","midi":50,"time":398.0558740000012,"velocity":0.8818897637795275,"duration":0.26273169166665866},{"name":"D4","midi":62,"time":398.0558740000012,"velocity":0.8818897637795275,"duration":0.26273169166665866},{"name":"D5","midi":74,"time":398.0558740000012,"velocity":0.8818897637795275,"duration":0.26273169166665866},{"name":"F3","midi":53,"time":398.3336520000012,"velocity":0.8818897637795275,"duration":0.26273169166665866},{"name":"F4","midi":65,"time":398.3336520000012,"velocity":0.8818897637795275,"duration":0.26273169166665866},{"name":"F5","midi":77,"time":398.3336520000012,"velocity":0.8818897637795275,"duration":0.26273169166665866},{"name":"G3","midi":55,"time":398.61143000000123,"velocity":0.8818897637795275,"duration":0.1307871416666444},{"name":"G4","midi":67,"time":398.61143000000123,"velocity":0.8818897637795275,"duration":0.1307871416666444},{"name":"G5","midi":79,"time":398.61143000000123,"velocity":0.8818897637795275,"duration":0.1307871416666444},{"name":"D4","midi":62,"time":398.75031900000124,"velocity":0.8818897637795275,"duration":0.26273169166665866},{"name":"D5","midi":74,"time":398.75031900000124,"velocity":0.8818897637795275,"duration":0.26273169166665866},{"name":"D6","midi":86,"time":398.75031900000124,"velocity":0.8818897637795275,"duration":0.26273169166665866},{"name":"G3","midi":55,"time":399.02809700000125,"velocity":0.8818897637795275,"duration":0.1307871416666444},{"name":"G4","midi":67,"time":399.02809700000125,"velocity":0.8818897637795275,"duration":0.1307871416666444},{"name":"G5","midi":79,"time":399.02809700000125,"velocity":0.8818897637795275,"duration":0.1307871416666444},{"name":"F3","midi":53,"time":399.16698600000126,"velocity":0.8818897637795275,"duration":0.1307871416666444},{"name":"F4","midi":65,"time":399.16698600000126,"velocity":0.8818897637795275,"duration":0.1307871416666444},{"name":"F5","midi":77,"time":399.16698600000126,"velocity":0.8818897637795275,"duration":0.1307871416666444},{"name":"E3","midi":52,"time":399.30587500000127,"velocity":0.8818897637795275,"duration":0.1307871416666444},{"name":"E4","midi":64,"time":399.30587500000127,"velocity":0.8818897637795275,"duration":0.1307871416666444},{"name":"E5","midi":76,"time":399.30587500000127,"velocity":0.8818897637795275,"duration":0.1307871416666444},{"name":"D3","midi":50,"time":399.44476400000127,"velocity":0.8818897637795275,"duration":0.13078714166670125},{"name":"D4","midi":62,"time":399.44476400000127,"velocity":0.8818897637795275,"duration":0.13078714166670125},{"name":"D5","midi":74,"time":399.44476400000127,"velocity":0.8818897637795275,"duration":0.13078714166670125},{"name":"D3","midi":50,"time":399.58365300000133,"velocity":0.8818897637795275,"duration":0.1307871416666444},{"name":"D4","midi":62,"time":399.58365300000133,"velocity":0.8818897637795275,"duration":0.1307871416666444},{"name":"D5","midi":74,"time":399.58365300000133,"velocity":0.8818897637795275,"duration":0.1307871416666444},{"name":"A#2","midi":46,"time":399.72254200000134,"velocity":0.8818897637795275,"duration":0.1307871416666444},{"name":"A#3","midi":58,"time":399.72254200000134,"velocity":0.8818897637795275,"duration":0.1307871416666444},{"name":"A#4","midi":70,"time":399.72254200000134,"velocity":0.8818897637795275,"duration":0.1307871416666444},{"name":"A#2","midi":46,"time":399.86143100000135,"velocity":0.8818897637795275,"duration":0.1307871416666444},{"name":"A#3","midi":58,"time":399.86143100000135,"velocity":0.8818897637795275,"duration":0.1307871416666444},{"name":"A#4","midi":70,"time":399.86143100000135,"velocity":0.8818897637795275,"duration":0.1307871416666444},{"name":"D3","midi":50,"time":400.00032000000135,"velocity":0.8818897637795275,"duration":0.06828709166666158},{"name":"D4","midi":62,"time":400.00032000000135,"velocity":0.8818897637795275,"duration":0.06828709166666158},{"name":"D5","midi":74,"time":400.00032000000135,"velocity":0.8818897637795275,"duration":0.06828709166666158},{"name":"D3","midi":50,"time":400.13920900000136,"velocity":0.8818897637795275,"duration":0.06828709166666158},{"name":"D4","midi":62,"time":400.13920900000136,"velocity":0.8818897637795275,"duration":0.06828709166666158},{"name":"D5","midi":74,"time":400.13920900000136,"velocity":0.8818897637795275,"duration":0.06828709166666158},{"name":"A#2","midi":46,"time":400.27809800000136,"velocity":0.8818897637795275,"duration":0.06828709166666158},{"name":"A#3","midi":58,"time":400.27809800000136,"velocity":0.8818897637795275,"duration":0.06828709166666158},{"name":"A#4","midi":70,"time":400.27809800000136,"velocity":0.8818897637795275,"duration":0.06828709166666158},{"name":"A#2","midi":46,"time":400.41698700000137,"velocity":0.8818897637795275,"duration":0.06828709166666158},{"name":"A#3","midi":58,"time":400.41698700000137,"velocity":0.8818897637795275,"duration":0.06828709166666158},{"name":"A#4","midi":70,"time":400.41698700000137,"velocity":0.8818897637795275,"duration":0.06828709166666158},{"name":"D3","midi":50,"time":400.5558760000014,"velocity":0.8818897637795275,"duration":0.1307871416666444},{"name":"D4","midi":62,"time":400.5558760000014,"velocity":0.8818897637795275,"duration":0.1307871416666444},{"name":"D5","midi":74,"time":400.5558760000014,"velocity":0.8818897637795275,"duration":0.1307871416666444},{"name":"A#2","midi":46,"time":400.6947650000014,"velocity":0.8818897637795275,"duration":0.1307871416666444},{"name":"A#3","midi":58,"time":400.6947650000014,"velocity":0.8818897637795275,"duration":0.1307871416666444},{"name":"A#4","midi":70,"time":400.6947650000014,"velocity":0.8818897637795275,"duration":0.1307871416666444},{"name":"E3","midi":52,"time":400.8336540000014,"velocity":0.8818897637795275,"duration":0.1307871416666444},{"name":"E4","midi":64,"time":400.8336540000014,"velocity":0.8818897637795275,"duration":0.1307871416666444},{"name":"E5","midi":76,"time":400.8336540000014,"velocity":0.8818897637795275,"duration":0.1307871416666444},{"name":"A#2","midi":46,"time":400.9725430000014,"velocity":0.8818897637795275,"duration":0.1307871416666444},{"name":"A#3","midi":58,"time":400.9725430000014,"velocity":0.8818897637795275,"duration":0.1307871416666444},{"name":"A#4","midi":70,"time":400.9725430000014,"velocity":0.8818897637795275,"duration":0.1307871416666444},{"name":"F3","midi":53,"time":401.1114320000014,"velocity":0.8818897637795275,"duration":0.1307871416666444},{"name":"F4","midi":65,"time":401.1114320000014,"velocity":0.8818897637795275,"duration":0.1307871416666444},{"name":"F5","midi":77,"time":401.1114320000014,"velocity":0.8818897637795275,"duration":0.1307871416666444},{"name":"A#2","midi":46,"time":401.2503210000014,"velocity":0.8818897637795275,"duration":0.1307871416666444},{"name":"A#3","midi":58,"time":401.2503210000014,"velocity":0.8818897637795275,"duration":0.1307871416666444},{"name":"A#4","midi":70,"time":401.2503210000014,"velocity":0.8818897637795275,"duration":0.1307871416666444},{"name":"G3","midi":55,"time":401.3892100000014,"velocity":0.8818897637795275,"duration":0.1307871416666444},{"name":"G4","midi":67,"time":401.3892100000014,"velocity":0.8818897637795275,"duration":0.1307871416666444},{"name":"G5","midi":79,"time":401.3892100000014,"velocity":0.8818897637795275,"duration":0.1307871416666444},{"name":"F3","midi":53,"time":401.5280990000014,"velocity":0.8818897637795275,"duration":0.1307871416666444},{"name":"F4","midi":65,"time":401.5280990000014,"velocity":0.8818897637795275,"duration":0.1307871416666444},{"name":"F5","midi":77,"time":401.5280990000014,"velocity":0.8818897637795275,"duration":0.1307871416666444},{"name":"A3","midi":57,"time":401.6669880000014,"velocity":0.8818897637795275,"duration":0.1307871416666444},{"name":"A4","midi":69,"time":401.6669880000014,"velocity":0.8818897637795275,"duration":0.1307871416666444},{"name":"A5","midi":81,"time":401.6669880000014,"velocity":0.8818897637795275,"duration":0.1307871416666444},{"name":"G3","midi":55,"time":401.80587700000143,"velocity":0.8818897637795275,"duration":0.1307871416666444},{"name":"G4","midi":67,"time":401.80587700000143,"velocity":0.8818897637795275,"duration":0.1307871416666444},{"name":"G5","midi":79,"time":401.80587700000143,"velocity":0.8818897637795275,"duration":0.1307871416666444},{"name":"F3","midi":53,"time":401.94476600000144,"velocity":0.8818897637795275,"duration":0.1307871416666444},{"name":"F4","midi":65,"time":401.94476600000144,"velocity":0.8818897637795275,"duration":0.1307871416666444},{"name":"F5","midi":77,"time":401.94476600000144,"velocity":0.8818897637795275,"duration":0.1307871416666444},{"name":"G3","midi":55,"time":402.08365500000144,"velocity":0.8818897637795275,"duration":0.1307871416666444},{"name":"G4","midi":67,"time":402.08365500000144,"velocity":0.8818897637795275,"duration":0.1307871416666444},{"name":"G5","midi":79,"time":402.08365500000144,"velocity":0.8818897637795275,"duration":0.1307871416666444},{"name":"F3","midi":53,"time":402.22254400000145,"velocity":0.8818897637795275,"duration":0.1307871416666444},{"name":"F4","midi":65,"time":402.22254400000145,"velocity":0.8818897637795275,"duration":0.1307871416666444},{"name":"F5","midi":77,"time":402.22254400000145,"velocity":0.8818897637795275,"duration":0.1307871416666444},{"name":"E3","midi":52,"time":402.36143300000145,"velocity":0.8818897637795275,"duration":0.1307871416666444},{"name":"E4","midi":64,"time":402.36143300000145,"velocity":0.8818897637795275,"duration":0.1307871416666444},{"name":"E5","midi":76,"time":402.36143300000145,"velocity":0.8818897637795275,"duration":0.1307871416666444},{"name":"D3","midi":50,"time":402.50032200000146,"velocity":0.8818897637795275,"duration":0.1307871416666444},{"name":"D4","midi":62,"time":402.50032200000146,"velocity":0.8818897637795275,"duration":0.1307871416666444},{"name":"D5","midi":74,"time":402.50032200000146,"velocity":0.8818897637795275,"duration":0.1307871416666444},{"name":"G3","midi":55,"time":402.63921100000147,"velocity":0.8818897637795275,"duration":0.1307871416666444},{"name":"G4","midi":67,"time":402.63921100000147,"velocity":0.8818897637795275,"duration":0.1307871416666444},{"name":"G5","midi":79,"time":402.63921100000147,"velocity":0.8818897637795275,"duration":0.1307871416666444},{"name":"A3","midi":57,"time":402.7781000000015,"velocity":0.8818897637795275,"duration":0.2627316916666018},{"name":"A4","midi":69,"time":402.7781000000015,"velocity":0.8818897637795275,"duration":0.2627316916666018},{"name":"A5","midi":81,"time":402.7781000000015,"velocity":0.8818897637795275,"duration":0.2627316916666018},{"name":"G#3","midi":56,"time":403.0558780000014,"velocity":0.8818897637795275,"duration":0.26273169166665866},{"name":"G#4","midi":68,"time":403.0558780000014,"velocity":0.8818897637795275,"duration":0.26273169166665866},{"name":"G#5","midi":80,"time":403.0558780000014,"velocity":0.8818897637795275,"duration":0.26273169166665866},{"name":"G3","midi":55,"time":403.33365600000144,"velocity":0.8818897637795275,"duration":0.26273169166665866},{"name":"G4","midi":67,"time":403.33365600000144,"velocity":0.8818897637795275,"duration":0.26273169166665866},{"name":"G5","midi":79,"time":403.33365600000144,"velocity":0.8818897637795275,"duration":0.26273169166665866},{"name":"F#3","midi":54,"time":403.61143400000145,"velocity":0.8818897637795275,"duration":0.26273169166665866},{"name":"F#4","midi":66,"time":403.61143400000145,"velocity":0.8818897637795275,"duration":0.26273169166665866},{"name":"F#5","midi":78,"time":403.61143400000145,"velocity":0.8818897637795275,"duration":0.26273169166665866},{"name":"F4","midi":65,"time":403.88921200000146,"velocity":1,"duration":1.1099545916666216},{"name":"F5","midi":77,"time":403.88921200000146,"velocity":1,"duration":1.1099545916666216},{"name":"G#3","midi":56,"time":405.0003240000014,"velocity":0.8818897637795275,"duration":0.2766205916666422},{"name":"G#4","midi":68,"time":405.0003240000014,"velocity":0.8818897637795275,"duration":0.2766205916666422},{"name":"F4","midi":65,"time":406.1114360000014,"velocity":1,"duration":1.1099545916666784},{"name":"F5","midi":77,"time":406.1114360000014,"velocity":1,"duration":1.1099545916666784},{"name":"G3","midi":55,"time":407.2225480000014,"velocity":0.8818897637795275,"duration":0.2766205916666422},{"name":"G4","midi":67,"time":407.2225480000014,"velocity":0.8818897637795275,"duration":0.2766205916666422},{"name":"D4","midi":62,"time":408.3336600000014,"velocity":0.8818897637795275,"duration":0.1307871416666444},{"name":"D5","midi":74,"time":408.3336600000014,"velocity":0.8818897637795275,"duration":0.1307871416666444},{"name":"A4","midi":69,"time":408.4725490000014,"velocity":0.8818897637795275,"duration":0.26273169166665866},{"name":"E4","midi":64,"time":408.7503270000014,"velocity":0.8818897637795275,"duration":0.1307871416666444},{"name":"E5","midi":76,"time":408.7503270000014,"velocity":0.8818897637795275,"duration":0.1307871416666444},{"name":"A4","midi":69,"time":408.8892160000014,"velocity":0.8818897637795275,"duration":0.26273169166665866},{"name":"F4","midi":65,"time":409.1669940000014,"velocity":0.8818897637795275,"duration":0.1307871416666444},{"name":"F5","midi":77,"time":409.1669940000014,"velocity":0.8818897637795275,"duration":0.1307871416666444},{"name":"A4","midi":69,"time":409.3058830000014,"velocity":0.8818897637795275,"duration":0.26273169166665866},{"name":"G4","midi":67,"time":409.5836610000014,"velocity":0.8818897637795275,"duration":0.26273169166665866},{"name":"G5","midi":79,"time":409.5836610000014,"velocity":0.8818897637795275,"duration":0.26273169166665866},{"name":"G#4","midi":68,"time":410.00032800000145,"velocity":0.8818897637795275,"duration":0.26273169166665866},{"name":"G#5","midi":80,"time":410.00032800000145,"velocity":0.8818897637795275,"duration":0.26273169166665866},{"name":"A4","midi":69,"time":410.27810600000146,"velocity":0.8818897637795275,"duration":0.26273169166665866},{"name":"A5","midi":81,"time":410.27810600000146,"velocity":0.8818897637795275,"duration":0.26273169166665866},{"name":"C5","midi":72,"time":410.55588400000147,"velocity":0.8818897637795275,"duration":0.1307871416666444},{"name":"C6","midi":84,"time":410.55588400000147,"velocity":0.8818897637795275,"duration":0.1307871416666444},{"name":"C4","midi":60,"time":410.6947730000015,"velocity":0.8818897637795275,"duration":0.26273169166665866},{"name":"C5","midi":72,"time":410.6947730000015,"velocity":0.8818897637795275,"duration":0.26273169166665866},{"name":"C#5","midi":73,"time":410.9725510000015,"velocity":0.8818897637795275,"duration":0.1307871416666444},{"name":"C#6","midi":85,"time":410.9725510000015,"velocity":0.8818897637795275,"duration":0.1307871416666444},{"name":"C#4","midi":61,"time":411.1114400000015,"velocity":0.8818897637795275,"duration":0.26273169166665866},{"name":"C#5","midi":73,"time":411.1114400000015,"velocity":0.8818897637795275,"duration":0.26273169166665866},{"name":"D4","midi":62,"time":411.3892180000015,"velocity":0.8818897637795275,"duration":0.7905098916666589},{"name":"D5","midi":74,"time":411.3892180000015,"velocity":0.8818897637795275,"duration":0.7905098916666589},{"name":"D6","midi":86,"time":411.3892180000015,"velocity":0.8818897637795275,"duration":0.7905098916666589},{"name":"D4","midi":62,"time":412.2225520000015,"velocity":0.8818897637795275,"duration":0.26273169166665866},{"name":"D5","midi":74,"time":412.2225520000015,"velocity":0.8818897637795275,"duration":0.26273169166665866},{"name":"E4","midi":64,"time":412.5003300000015,"velocity":0.8818897637795275,"duration":0.26273169166665866},{"name":"E5","midi":76,"time":412.5003300000015,"velocity":0.8818897637795275,"duration":0.26273169166665866},{"name":"F4","midi":65,"time":413.3336640000015,"velocity":0.8818897637795275,"duration":0.1307871416666444},{"name":"F5","midi":77,"time":413.3336640000015,"velocity":0.8818897637795275,"duration":0.1307871416666444},{"name":"E4","midi":64,"time":413.61144200000143,"velocity":0.8818897637795275,"duration":0.1307871416666444},{"name":"E5","midi":76,"time":413.61144200000143,"velocity":0.8818897637795275,"duration":0.1307871416666444},{"name":"F4","midi":65,"time":413.8892200000014,"velocity":0.8818897637795275,"duration":0.5266207916666872},{"name":"F5","midi":77,"time":413.8892200000014,"velocity":0.8818897637795275,"duration":0.5266207916666872},{"name":"D4","midi":62,"time":414.4447760000014,"velocity":0.8818897637795275,"duration":0.26273169166665866},{"name":"D5","midi":74,"time":414.4447760000014,"velocity":0.8818897637795275,"duration":0.26273169166665866},{"name":"E4","midi":64,"time":414.7225540000014,"velocity":0.8818897637795275,"duration":0.26273169166665866},{"name":"E5","midi":76,"time":414.7225540000014,"velocity":0.8818897637795275,"duration":0.26273169166665866},{"name":"F4","midi":65,"time":415.00033200000144,"velocity":0.8818897637795275,"duration":0.1307871416666444},{"name":"F5","midi":77,"time":415.00033200000144,"velocity":0.8818897637795275,"duration":0.1307871416666444},{"name":"D4","midi":62,"time":415.2781100000014,"velocity":0.8818897637795275,"duration":0.1307871416666444},{"name":"D5","midi":74,"time":415.2781100000014,"velocity":0.8818897637795275,"duration":0.1307871416666444},{"name":"C4","midi":60,"time":415.55588800000135,"velocity":0.8818897637795275,"duration":0.1307871416666444},{"name":"C5","midi":72,"time":415.55588800000135,"velocity":0.8818897637795275,"duration":0.1307871416666444},{"name":"G#3","midi":56,"time":415.8336660000013,"velocity":0.8818897637795275,"duration":0.084490808333328},{"name":"G#4","midi":68,"time":415.8336660000013,"velocity":0.8818897637795275,"duration":0.084490808333328},{"name":"A3","midi":57,"time":415.91931421666794,"velocity":0.8818897637795275,"duration":0.4432873916666722},{"name":"A4","midi":69,"time":415.91931421666794,"velocity":0.8818897637795275,"duration":0.4432873916666722},{"name":"D3","midi":50,"time":416.38922200000127,"velocity":0.8818897637795275,"duration":0.26273169166665866},{"name":"D4","midi":62,"time":416.38922200000127,"velocity":0.8818897637795275,"duration":0.26273169166665866},{"name":"F3","midi":53,"time":416.6670000000013,"velocity":0.8818897637795275,"duration":0.26273169166665866},{"name":"F4","midi":65,"time":416.6670000000013,"velocity":0.8818897637795275,"duration":0.26273169166665866},{"name":"G3","midi":55,"time":416.9447780000013,"velocity":0.8818897637795275,"duration":0.26273169166665866},{"name":"G4","midi":67,"time":416.9447780000013,"velocity":0.8818897637795275,"duration":0.26273169166665866},{"name":"G3","midi":55,"time":417.2225560000013,"velocity":0.8818897637795275,"duration":0.5266207916666872},{"name":"G4","midi":67,"time":417.2225560000013,"velocity":0.8818897637795275,"duration":0.5266207916666872},{"name":"G3","midi":55,"time":417.77811200000133,"velocity":0.8818897637795275,"duration":0.1307871416666444},{"name":"G4","midi":67,"time":417.77811200000133,"velocity":0.8818897637795275,"duration":0.1307871416666444},{"name":"F3","midi":53,"time":418.0558900000013,"velocity":0.8818897637795275,"duration":0.1307871416666444},{"name":"F4","midi":65,"time":418.0558900000013,"velocity":0.8818897637795275,"duration":0.1307871416666444},{"name":"G3","midi":55,"time":418.33366800000124,"velocity":0.8818897637795275,"duration":0.5266207916666872},{"name":"G4","midi":67,"time":418.33366800000124,"velocity":0.8818897637795275,"duration":0.5266207916666872},{"name":"G3","midi":55,"time":418.88922400000126,"velocity":0.8818897637795275,"duration":0.26273169166665866},{"name":"G4","midi":67,"time":418.88922400000126,"velocity":0.8818897637795275,"duration":0.26273169166665866},{"name":"F3","midi":53,"time":419.1670020000013,"velocity":0.8818897637795275,"duration":0.26273169166665866},{"name":"F4","midi":65,"time":419.1670020000013,"velocity":0.8818897637795275,"duration":0.26273169166665866},{"name":"G3","midi":55,"time":419.4447800000013,"velocity":0.8818897637795275,"duration":0.1307871416666444},{"name":"G4","midi":67,"time":419.4447800000013,"velocity":0.8818897637795275,"duration":0.1307871416666444},{"name":"F3","midi":53,"time":419.72255800000124,"velocity":0.8818897637795275,"duration":0.1307871416666444},{"name":"F4","midi":65,"time":419.72255800000124,"velocity":0.8818897637795275,"duration":0.1307871416666444},{"name":"A3","midi":57,"time":420.0003360000012,"velocity":0.8818897637795275,"duration":0.26273169166665866},{"name":"A4","midi":69,"time":420.0003360000012,"velocity":0.8818897637795275,"duration":0.26273169166665866},{"name":"G3","midi":55,"time":420.2781140000012,"velocity":0.8818897637795275,"duration":0.26273169166665866},{"name":"G4","midi":67,"time":420.2781140000012,"velocity":0.8818897637795275,"duration":0.26273169166665866},{"name":"G3","midi":55,"time":420.8336700000012,"velocity":0.8818897637795275,"duration":0.26273169166665866},{"name":"G4","midi":67,"time":420.8336700000012,"velocity":0.8818897637795275,"duration":0.26273169166665866},{"name":"F3","midi":53,"time":421.1114480000012,"velocity":0.8818897637795275,"duration":0.5266207916666872},{"name":"F4","midi":65,"time":421.1114480000012,"velocity":0.8818897637795275,"duration":0.5266207916666872},{"name":"A#3","midi":58,"time":422.22256000000124,"velocity":0.8818897637795275,"duration":0.1307871416666444},{"name":"A#4","midi":70,"time":422.22256000000124,"velocity":0.8818897637795275,"duration":0.1307871416666444},{"name":"A3","midi":57,"time":422.5003380000012,"velocity":0.8818897637795275,"duration":0.1307871416666444},{"name":"A4","midi":69,"time":422.5003380000012,"velocity":0.8818897637795275,"duration":0.1307871416666444},{"name":"A#3","midi":58,"time":422.77811600000115,"velocity":0.8818897637795275,"duration":0.1307871416666444},{"name":"A#4","midi":70,"time":422.77811600000115,"velocity":0.8818897637795275,"duration":0.1307871416666444},{"name":"A#3","midi":58,"time":423.3336720000011,"velocity":0.8818897637795275,"duration":0.26273169166665866},{"name":"A#4","midi":70,"time":423.3336720000011,"velocity":0.8818897637795275,"duration":0.26273169166665866},{"name":"B3","midi":59,"time":423.6114500000011,"velocity":0.8818897637795275,"duration":0.26273169166665866},{"name":"B4","midi":71,"time":423.6114500000011,"velocity":0.8818897637795275,"duration":0.26273169166665866},{"name":"C4","midi":60,"time":423.88922800000114,"velocity":0.8818897637795275,"duration":0.1307871416666444},{"name":"C5","midi":72,"time":423.88922800000114,"velocity":0.8818897637795275,"duration":0.1307871416666444},{"name":"A3","midi":57,"time":424.1670060000011,"velocity":0.8818897637795275,"duration":0.1307871416666444},{"name":"A4","midi":69,"time":424.1670060000011,"velocity":0.8818897637795275,"duration":0.1307871416666444},{"name":"G3","midi":55,"time":424.44478400000105,"velocity":0.8818897637795275,"duration":0.26273169166665866},{"name":"G4","midi":67,"time":424.44478400000105,"velocity":0.8818897637795275,"duration":0.26273169166665866},{"name":"F3","midi":53,"time":424.72256200000106,"velocity":0.8818897637795275,"duration":0.1307871416666444},{"name":"F4","midi":65,"time":424.72256200000106,"velocity":0.8818897637795275,"duration":0.1307871416666444},{"name":"G3","midi":55,"time":425.27811800000103,"velocity":0.8818897637795275,"duration":0.26273169166665866},{"name":"G4","midi":67,"time":425.27811800000103,"velocity":0.8818897637795275,"duration":0.26273169166665866},{"name":"F3","midi":53,"time":425.55589600000104,"velocity":0.8818897637795275,"duration":0.26273169166665866},{"name":"F4","midi":65,"time":425.55589600000104,"velocity":0.8818897637795275,"duration":0.26273169166665866},{"name":"E3","midi":52,"time":425.83367400000105,"velocity":0.8818897637795275,"duration":0.26273169166665866},{"name":"E4","midi":64,"time":425.83367400000105,"velocity":0.8818897637795275,"duration":0.26273169166665866},{"name":"C#3","midi":49,"time":426.11145200000107,"velocity":0.8818897637795275,"duration":0.1307871416666444},{"name":"C#4","midi":61,"time":426.11145200000107,"velocity":0.8818897637795275,"duration":0.1307871416666444},{"name":"D3","midi":50,"time":426.389230000001,"velocity":0.8818897637795275,"duration":0.1307871416666444},{"name":"D4","midi":62,"time":426.389230000001,"velocity":0.8818897637795275,"duration":0.1307871416666444},{"name":"E3","midi":52,"time":426.667008000001,"velocity":0.8818897637795275,"duration":0.5266207916666872},{"name":"E4","midi":64,"time":426.667008000001,"velocity":0.8818897637795275,"duration":0.5266207916666872},{"name":"F3","midi":53,"time":427.222564000001,"velocity":0.8818897637795275,"duration":0.1307871416666444},{"name":"F4","midi":65,"time":427.222564000001,"velocity":0.8818897637795275,"duration":0.1307871416666444},{"name":"D3","midi":50,"time":427.50034200000096,"velocity":0.8818897637795275,"duration":0.1307871416666444},{"name":"D4","midi":62,"time":427.50034200000096,"velocity":0.8818897637795275,"duration":0.1307871416666444},{"name":"C#3","midi":49,"time":427.7781200000009,"velocity":0.8818897637795275,"duration":0.1307871416666444},{"name":"C#4","midi":61,"time":427.7781200000009,"velocity":0.8818897637795275,"duration":0.1307871416666444},{"name":"A2","midi":45,"time":428.05589800000087,"velocity":0.8818897637795275,"duration":0.1307871416666444},{"name":"A3","midi":57,"time":428.05589800000087,"velocity":0.8818897637795275,"duration":0.1307871416666444},{"name":"C#3","midi":49,"time":428.3336760000008,"velocity":0.8818897637795275,"duration":0.1307871416666444},{"name":"C#4","midi":61,"time":428.3336760000008,"velocity":0.8818897637795275,"duration":0.1307871416666444},{"name":"B2","midi":47,"time":428.6114540000008,"velocity":0.8818897637795275,"duration":0.1307871416666444},{"name":"B3","midi":59,"time":428.6114540000008,"velocity":0.8818897637795275,"duration":0.1307871416666444},{"name":"C#3","midi":49,"time":428.88923200000073,"velocity":0.8818897637795275,"duration":0.08680562500001088},{"name":"C#4","midi":61,"time":428.88923200000073,"velocity":0.8818897637795275,"duration":0.08680562500001088},{"name":"B2","midi":47,"time":428.9818246666674,"velocity":0.8818897637795275,"duration":0.08680562500001088},{"name":"B3","midi":59,"time":428.9818246666674,"velocity":0.8818897637795275,"duration":0.08680562500001088},{"name":"C#3","midi":49,"time":429.0744173333341,"velocity":0.8818897637795275,"duration":0.3506947250000394},{"name":"C#4","midi":61,"time":429.0744173333341,"velocity":0.8818897637795275,"duration":0.08680562500001088},{"name":"C#4","midi":61,"time":429.1670100000008,"velocity":0.8818897637795275,"duration":0.26273169166665866},{"name":"D3","midi":50,"time":429.4447880000008,"velocity":0.8818897637795275,"duration":0.26273169166665866},{"name":"D4","midi":62,"time":429.4447880000008,"velocity":0.8818897637795275,"duration":0.26273169166665866},{"name":"E3","midi":52,"time":429.7225660000008,"velocity":0.8818897637795275,"duration":0.26273169166665866},{"name":"E4","midi":64,"time":429.7225660000008,"velocity":0.8818897637795275,"duration":0.26273169166665866},{"name":"D3","midi":50,"time":430.00034400000084,"velocity":0.8818897637795275,"duration":0.26273169166665866},{"name":"D4","midi":62,"time":430.00034400000084,"velocity":0.8818897637795275,"duration":0.26273169166665866},{"name":"C3","midi":48,"time":430.27812200000085,"velocity":0.8818897637795275,"duration":0.26273169166665866},{"name":"C4","midi":60,"time":430.27812200000085,"velocity":0.8818897637795275,"duration":0.26273169166665866},{"name":"D3","midi":50,"time":430.8336780000008,"velocity":0.8818897637795275,"duration":0.1307871416666444},{"name":"D4","midi":62,"time":430.8336780000008,"velocity":0.8818897637795275,"duration":0.1307871416666444},{"name":"A3","midi":57,"time":431.11145600000077,"velocity":0.8818897637795275,"duration":0.1307871416666444},{"name":"A4","midi":69,"time":431.11145600000077,"velocity":0.8818897637795275,"duration":0.1307871416666444},{"name":"D4","midi":62,"time":431.3892340000007,"velocity":0.8818897637795275,"duration":0.1307871416666444},{"name":"D5","midi":74,"time":431.3892340000007,"velocity":0.8818897637795275,"duration":0.1307871416666444},{"name":"F4","midi":65,"time":431.6670120000007,"velocity":0.8818897637795275,"duration":0.5266207916666872},{"name":"F5","midi":77,"time":431.6670120000007,"velocity":0.8818897637795275,"duration":0.5266207916666872},{"name":"D4","midi":62,"time":432.2225680000007,"velocity":0.8818897637795275,"duration":0.5266207916666872},{"name":"D5","midi":74,"time":432.2225680000007,"velocity":0.8818897637795275,"duration":0.5266207916666872},{"name":"C#4","midi":61,"time":432.77812400000073,"velocity":0.8818897637795275,"duration":0.1307871416666444},{"name":"C#5","midi":73,"time":432.77812400000073,"velocity":0.8818897637795275,"duration":0.1307871416666444},{"name":"D4","midi":62,"time":433.0559020000007,"velocity":0.8818897637795275,"duration":0.1307871416666444},{"name":"D5","midi":74,"time":433.0559020000007,"velocity":0.8818897637795275,"duration":0.1307871416666444},{"name":"E4","midi":64,"time":433.33368000000064,"velocity":0.8818897637795275,"duration":0.5266207916666872},{"name":"E5","midi":76,"time":433.33368000000064,"velocity":0.8818897637795275,"duration":0.5266207916666872},{"name":"D4","midi":62,"time":433.88923600000066,"velocity":0.8818897637795275,"duration":0.1307871416666444},{"name":"D5","midi":74,"time":433.88923600000066,"velocity":0.8818897637795275,"duration":0.1307871416666444},{"name":"A3","midi":57,"time":434.1670140000006,"velocity":0.8818897637795275,"duration":0.1307871416666444},{"name":"A4","midi":69,"time":434.1670140000006,"velocity":0.8818897637795275,"duration":0.1307871416666444},{"name":"F3","midi":53,"time":434.4447920000006,"velocity":0.8818897637795275,"duration":0.1307871416666444},{"name":"F4","midi":65,"time":434.4447920000006,"velocity":0.8818897637795275,"duration":0.1307871416666444},{"name":"D3","midi":50,"time":434.72257000000053,"velocity":0.8818897637795275,"duration":0.1307871416666444},{"name":"D4","midi":62,"time":434.72257000000053,"velocity":0.8818897637795275,"duration":0.1307871416666444},{"name":"E3","midi":52,"time":435.0003480000005,"velocity":0.8818897637795275,"duration":0.1307871416666444},{"name":"E4","midi":64,"time":435.0003480000005,"velocity":0.8818897637795275,"duration":0.1307871416666444},{"name":"F3","midi":53,"time":435.27812600000044,"velocity":0.8818897637795275,"duration":0.1307871416666444},{"name":"F4","midi":65,"time":435.27812600000044,"velocity":0.8818897637795275,"duration":0.1307871416666444},{"name":"G#3","midi":56,"time":435.5559040000004,"velocity":0.8818897637795275,"duration":0.5266207916666872},{"name":"G#4","midi":68,"time":435.5559040000004,"velocity":0.8818897637795275,"duration":0.5266207916666872},{"name":"A3","midi":57,"time":436.1114600000004,"velocity":0.8818897637795275,"duration":0.1307871416666444},{"name":"A4","midi":69,"time":436.1114600000004,"velocity":0.8818897637795275,"duration":0.1307871416666444},{"name":"F3","midi":53,"time":436.3892380000004,"velocity":0.8818897637795275,"duration":0.1307871416666444},{"name":"F4","midi":65,"time":436.3892380000004,"velocity":0.8818897637795275,"duration":0.1307871416666444},{"name":"D3","midi":50,"time":436.66701600000033,"velocity":0.8818897637795275,"duration":0.1307871416666444},{"name":"D4","midi":62,"time":436.66701600000033,"velocity":0.8818897637795275,"duration":0.1307871416666444},{"name":"A2","midi":45,"time":436.9447940000003,"velocity":0.8818897637795275,"duration":0.1307871416666444},{"name":"A3","midi":57,"time":436.9447940000003,"velocity":0.8818897637795275,"duration":0.1307871416666444},{"name":"C#3","midi":49,"time":437.22257200000024,"velocity":0.8818897637795275,"duration":0.1307871416666444},{"name":"C#4","midi":61,"time":437.22257200000024,"velocity":0.8818897637795275,"duration":0.1307871416666444},{"name":"D3","midi":50,"time":437.5003500000002,"velocity":0.8818897637795275,"duration":0.1307871416666444},{"name":"D4","midi":62,"time":437.5003500000002,"velocity":0.8818897637795275,"duration":0.1307871416666444},{"name":"E3","midi":52,"time":437.77812800000015,"velocity":0.8818897637795275,"duration":0.5266207916666872},{"name":"E4","midi":64,"time":437.77812800000015,"velocity":0.8818897637795275,"duration":0.5266207916666872},{"name":"D3","midi":50,"time":438.3336840000002,"velocity":0.8818897637795275,"duration":0.26273169166665866},{"name":"D4","midi":62,"time":438.3336840000002,"velocity":0.8818897637795275,"duration":0.26273169166665866},{"name":"E3","midi":52,"time":438.6114620000002,"velocity":0.8818897637795275,"duration":0.1307871416666444},{"name":"E4","midi":64,"time":438.6114620000002,"velocity":0.8818897637795275,"duration":0.1307871416666444},{"name":"C#3","midi":49,"time":438.88924000000014,"velocity":0.8818897637795275,"duration":0.13773159166669302},{"name":"C#4","midi":61,"time":438.88924000000014,"velocity":0.8818897637795275,"duration":0.13773159166669302},{"name":"D3","midi":50,"time":439.7225740000002,"velocity":0.8818897637795275,"duration":0.1307871416666444},{"name":"D4","midi":62,"time":439.7225740000002,"velocity":0.8818897637795275,"duration":0.1307871416666444},{"name":"A2","midi":45,"time":440.00035200000013,"velocity":0.8818897637795275,"duration":0.1307871416666444},{"name":"A3","midi":57,"time":440.00035200000013,"velocity":0.8818897637795275,"duration":0.1307871416666444},{"name":"D3","midi":50,"time":440.2781300000001,"velocity":0.8818897637795275,"duration":0.1307871416666444},{"name":"D4","midi":62,"time":440.2781300000001,"velocity":0.8818897637795275,"duration":0.1307871416666444},{"name":"F3","midi":53,"time":440.55590800000004,"velocity":0.8818897637795275,"duration":0.5266207916666872},{"name":"F4","midi":65,"time":440.55590800000004,"velocity":0.8818897637795275,"duration":0.5266207916666872},{"name":"C4","midi":60,"time":441.11146400000007,"velocity":0.8818897637795275,"duration":0.5266207916666872},{"name":"C5","midi":72,"time":441.11146400000007,"velocity":0.8818897637795275,"duration":0.5266207916666872},{"name":"B3","midi":59,"time":441.6670200000001,"velocity":0.8818897637795275,"duration":0.1307871416666444},{"name":"B4","midi":71,"time":441.6670200000001,"velocity":0.8818897637795275,"duration":0.1307871416666444},{"name":"A3","midi":57,"time":441.94479800000005,"velocity":0.8818897637795275,"duration":0.1307871416666444},{"name":"A4","midi":69,"time":441.94479800000005,"velocity":0.8818897637795275,"duration":0.1307871416666444},{"name":"B3","midi":59,"time":442.222576,"velocity":0.8818897637795275,"duration":0.26273169166665866},{"name":"B4","midi":71,"time":442.222576,"velocity":0.8818897637795275,"duration":0.26273169166665866},{"name":"C4","midi":60,"time":442.77813199999997,"velocity":0.8818897637795275,"duration":0.1307871416666444},{"name":"C5","midi":72,"time":442.77813199999997,"velocity":0.8818897637795275,"duration":0.1307871416666444},{"name":"A3","midi":57,"time":443.0559099999999,"velocity":0.8818897637795275,"duration":0.1307871416666444},{"name":"A4","midi":69,"time":443.0559099999999,"velocity":0.8818897637795275,"duration":0.1307871416666444},{"name":"F3","midi":53,"time":443.3336879999999,"velocity":0.8818897637795275,"duration":0.1307871416666444},{"name":"F4","midi":65,"time":443.3336879999999,"velocity":0.8818897637795275,"duration":0.1307871416666444},{"name":"D3","midi":50,"time":443.61146599999984,"velocity":0.8818897637795275,"duration":0.1307871416666444},{"name":"D4","midi":62,"time":443.61146599999984,"velocity":0.8818897637795275,"duration":0.1307871416666444},{"name":"C#2","midi":37,"time":443.8892439999998,"velocity":0.8818897637795275,"duration":0.1307871416666444},{"name":"C#3","midi":49,"time":443.8892439999998,"velocity":0.8818897637795275,"duration":0.1307871416666444},{"name":"D2","midi":38,"time":444.16702199999975,"velocity":0.8818897637795275,"duration":0.1307871416666444},{"name":"D3","midi":50,"time":444.16702199999975,"velocity":0.8818897637795275,"duration":0.1307871416666444},{"name":"E2","midi":40,"time":444.4447999999997,"velocity":0.8818897637795275,"duration":0.5266207916666872},{"name":"E3","midi":52,"time":444.4447999999997,"velocity":0.8818897637795275,"duration":0.5266207916666872},{"name":"F2","midi":41,"time":445.0003559999997,"velocity":0.8818897637795275,"duration":0.1307871416666444},{"name":"F3","midi":53,"time":445.0003559999997,"velocity":0.8818897637795275,"duration":0.1307871416666444},{"name":"D2","midi":38,"time":445.2781339999997,"velocity":0.8818897637795275,"duration":0.1307871416666444},{"name":"D3","midi":50,"time":445.2781339999997,"velocity":0.8818897637795275,"duration":0.1307871416666444},{"name":"A1","midi":33,"time":445.55591199999964,"velocity":0.8818897637795275,"duration":0.1307871416666444},{"name":"A2","midi":45,"time":445.55591199999964,"velocity":0.8818897637795275,"duration":0.1307871416666444},{"name":"F1","midi":29,"time":445.8336899999996,"velocity":0.8818897637795275,"duration":0.1307871416666444},{"name":"F2","midi":41,"time":445.8336899999996,"velocity":0.8818897637795275,"duration":0.1307871416666444},{"name":"C#2","midi":37,"time":446.11146799999955,"velocity":0.8818897637795275,"duration":0.1307871416666444},{"name":"C#3","midi":49,"time":446.11146799999955,"velocity":0.8818897637795275,"duration":0.1307871416666444},{"name":"B1","midi":35,"time":446.3892459999995,"velocity":0.8818897637795275,"duration":0.1307871416666444},{"name":"B2","midi":47,"time":446.3892459999995,"velocity":0.8818897637795275,"duration":0.1307871416666444},{"name":"C#2","midi":37,"time":446.66702399999946,"velocity":0.8818897637795275,"duration":0.08680562500001088},{"name":"C#3","midi":49,"time":446.66702399999946,"velocity":0.8818897637795275,"duration":0.08680562500001088},{"name":"B1","midi":35,"time":446.75961666666615,"velocity":0.8818897637795275,"duration":0.08680562500001088},{"name":"B2","midi":47,"time":446.75961666666615,"velocity":0.8818897637795275,"duration":0.08680562500001088},{"name":"C#2","midi":37,"time":446.85220933333284,"velocity":0.8818897637795275,"duration":0.3506947250000394},{"name":"C#3","midi":49,"time":446.85220933333284,"velocity":0.8818897637795275,"duration":0.08680562500001088},{"name":"C#3","midi":49,"time":446.9448019999995,"velocity":0.8818897637795275,"duration":0.26273169166665866},{"name":"D2","midi":38,"time":447.22257999999954,"velocity":0.8818897637795275,"duration":0.26273169166665866},{"name":"D3","midi":50,"time":447.22257999999954,"velocity":0.8818897637795275,"duration":0.26273169166665866},{"name":"E2","midi":40,"time":447.50035799999955,"velocity":0.8818897637795275,"duration":0.26273169166665866},{"name":"E3","midi":52,"time":447.50035799999955,"velocity":0.8818897637795275,"duration":0.26273169166665866},{"name":"D2","midi":38,"time":447.77813599999956,"velocity":0.8818897637795275,"duration":0.26273169166665866},{"name":"D3","midi":50,"time":447.77813599999956,"velocity":0.8818897637795275,"duration":0.26273169166665866},{"name":"C2","midi":36,"time":448.0559139999996,"velocity":0.8818897637795275,"duration":0.26273169166665866},{"name":"C3","midi":48,"time":448.0559139999996,"velocity":0.8818897637795275,"duration":0.26273169166665866},{"name":"A#1","midi":34,"time":448.3336919999996,"velocity":0.8818897637795275,"duration":0.26273169166665866},{"name":"A#2","midi":46,"time":448.3336919999996,"velocity":0.8818897637795275,"duration":0.26273169166665866},{"name":"A#3","midi":58,"time":448.3336919999996,"velocity":0.8818897637795275,"duration":0.26273169166665866},{"name":"F2","midi":41,"time":448.6114699999996,"velocity":0.8818897637795275,"duration":0.26273169166665866},{"name":"F3","midi":53,"time":448.6114699999996,"velocity":0.8818897637795275,"duration":0.26273169166665866},{"name":"F4","midi":65,"time":448.6114699999996,"velocity":0.8818897637795275,"duration":0.26273169166665866},{"name":"F2","midi":41,"time":448.8892479999996,"velocity":0.8818897637795275,"duration":0.3946762416666729},{"name":"F3","midi":53,"time":448.8892479999996,"velocity":0.8818897637795275,"duration":0.3946762416666729},{"name":"F4","midi":65,"time":448.8892479999996,"velocity":0.8818897637795275,"duration":0.3946762416666729},{"name":"F2","midi":41,"time":449.30591499999963,"velocity":0.8818897637795275,"duration":0.1307871416666444},{"name":"F3","midi":53,"time":449.30591499999963,"velocity":0.8818897637795275,"duration":0.1307871416666444},{"name":"F4","midi":65,"time":449.30591499999963,"velocity":0.8818897637795275,"duration":0.1307871416666444},{"name":"F2","midi":41,"time":449.5836929999996,"velocity":0.8818897637795275,"duration":0.1307871416666444},{"name":"F3","midi":53,"time":449.5836929999996,"velocity":0.8818897637795275,"duration":0.1307871416666444},{"name":"F4","midi":65,"time":449.5836929999996,"velocity":0.8818897637795275,"duration":0.1307871416666444},{"name":"E2","midi":40,"time":449.7225819999996,"velocity":0.8818897637795275,"duration":0.1307871416666444},{"name":"E3","midi":52,"time":449.7225819999996,"velocity":0.8818897637795275,"duration":0.1307871416666444},{"name":"E4","midi":64,"time":449.7225819999996,"velocity":0.8818897637795275,"duration":0.1307871416666444},{"name":"D2","midi":38,"time":450.00035999999955,"velocity":0.8818897637795275,"duration":0.13773159166669302},{"name":"D3","midi":50,"time":450.00035999999955,"velocity":0.8818897637795275,"duration":0.13773159166669302},{"name":"D4","midi":62,"time":450.00035999999955,"velocity":0.8818897637795275,"duration":0.13773159166669302},{"name":"E2","midi":40,"time":450.27813799999956,"velocity":0.8818897637795275,"duration":0.13773159166669302},{"name":"E3","midi":52,"time":450.27813799999956,"velocity":0.8818897637795275,"duration":0.13773159166669302},{"name":"E4","midi":64,"time":450.27813799999956,"velocity":0.8818897637795275,"duration":0.13773159166669302},{"name":"F2","midi":41,"time":450.55591599999957,"velocity":0.8818897637795275,"duration":0.5266207916666872},{"name":"F3","midi":53,"time":450.55591599999957,"velocity":0.8818897637795275,"duration":0.5266207916666872},{"name":"F4","midi":65,"time":450.55591599999957,"velocity":0.8818897637795275,"duration":0.5266207916666872},{"name":"A2","midi":45,"time":451.1114719999996,"velocity":0.8818897637795275,"duration":0.5266207916666872},{"name":"A3","midi":57,"time":451.1114719999996,"velocity":0.8818897637795275,"duration":0.5266207916666872},{"name":"A4","midi":69,"time":451.1114719999996,"velocity":0.8818897637795275,"duration":0.5266207916666872},{"name":"F2","midi":41,"time":451.6670279999996,"velocity":0.8818897637795275,"duration":0.5266207916666872},{"name":"F3","midi":53,"time":451.6670279999996,"velocity":0.8818897637795275,"duration":0.5266207916666872},{"name":"F4","midi":65,"time":451.6670279999996,"velocity":0.8818897637795275,"duration":0.5266207916666872},{"name":"D2","midi":38,"time":452.22258399999964,"velocity":0.8818897637795275,"duration":0.26273169166665866},{"name":"D3","midi":50,"time":452.22258399999964,"velocity":0.8818897637795275,"duration":0.26273169166665866},{"name":"D4","midi":62,"time":452.22258399999964,"velocity":0.8818897637795275,"duration":0.26273169166665866},{"name":"E2","midi":40,"time":452.50036199999965,"velocity":0.8818897637795275,"duration":0.26273169166665866},{"name":"E3","midi":52,"time":452.50036199999965,"velocity":0.8818897637795275,"duration":0.26273169166665866},{"name":"E4","midi":64,"time":452.50036199999965,"velocity":0.8818897637795275,"duration":0.26273169166665866},{"name":"A#1","midi":34,"time":452.77813999999967,"velocity":0.8818897637795275,"duration":0.26273169166665866},{"name":"A#2","midi":46,"time":452.77813999999967,"velocity":0.8818897637795275,"duration":0.26273169166665866},{"name":"A#3","midi":58,"time":452.77813999999967,"velocity":0.8818897637795275,"duration":0.26273169166665866},{"name":"F2","midi":41,"time":453.0559179999997,"velocity":0.8818897637795275,"duration":0.26273169166665866},{"name":"F3","midi":53,"time":453.0559179999997,"velocity":0.8818897637795275,"duration":0.26273169166665866},{"name":"F4","midi":65,"time":453.0559179999997,"velocity":0.8818897637795275,"duration":0.26273169166665866},{"name":"F2","midi":41,"time":453.3336959999997,"velocity":0.8818897637795275,"duration":0.3946762416666729},{"name":"F3","midi":53,"time":453.3336959999997,"velocity":0.8818897637795275,"duration":0.3946762416666729},{"name":"F4","midi":65,"time":453.3336959999997,"velocity":0.8818897637795275,"duration":0.3946762416666729},{"name":"F2","midi":41,"time":453.7503629999997,"velocity":0.8818897637795275,"duration":0.1307871416666444},{"name":"F3","midi":53,"time":453.7503629999997,"velocity":0.8818897637795275,"duration":0.1307871416666444},{"name":"F4","midi":65,"time":453.7503629999997,"velocity":0.8818897637795275,"duration":0.1307871416666444},{"name":"F2","midi":41,"time":454.02814099999966,"velocity":0.8818897637795275,"duration":0.1307871416666444},{"name":"F3","midi":53,"time":454.02814099999966,"velocity":0.8818897637795275,"duration":0.1307871416666444},{"name":"F4","midi":65,"time":454.02814099999966,"velocity":0.8818897637795275,"duration":0.1307871416666444},{"name":"E2","midi":40,"time":454.16702999999967,"velocity":0.8818897637795275,"duration":0.1307871416666444},{"name":"E3","midi":52,"time":454.16702999999967,"velocity":0.8818897637795275,"duration":0.1307871416666444},{"name":"E4","midi":64,"time":454.16702999999967,"velocity":0.8818897637795275,"duration":0.1307871416666444},{"name":"D2","midi":38,"time":454.4448079999996,"velocity":0.8818897637795275,"duration":0.13773159166669302},{"name":"D3","midi":50,"time":454.4448079999996,"velocity":0.8818897637795275,"duration":0.13773159166669302},{"name":"D4","midi":62,"time":454.4448079999996,"velocity":0.8818897637795275,"duration":0.13773159166669302},{"name":"E2","midi":40,"time":454.72258599999964,"velocity":0.8818897637795275,"duration":0.13773159166669302},{"name":"E3","midi":52,"time":454.72258599999964,"velocity":0.8818897637795275,"duration":0.13773159166669302},{"name":"E4","midi":64,"time":454.72258599999964,"velocity":0.8818897637795275,"duration":0.13773159166669302},{"name":"F2","midi":41,"time":455.00036399999965,"velocity":0.8818897637795275,"duration":0.26273169166665866},{"name":"F3","midi":53,"time":455.00036399999965,"velocity":0.8818897637795275,"duration":0.26273169166665866},{"name":"F4","midi":65,"time":455.00036399999965,"velocity":0.8818897637795275,"duration":0.26273169166665866},{"name":"E2","midi":40,"time":455.27814199999966,"velocity":0.8818897637795275,"duration":0.26273169166665866},{"name":"E3","midi":52,"time":455.27814199999966,"velocity":0.8818897637795275,"duration":0.26273169166665866},{"name":"E4","midi":64,"time":455.27814199999966,"velocity":0.8818897637795275,"duration":0.26273169166665866},{"name":"D2","midi":38,"time":455.5559199999997,"velocity":0.8818897637795275,"duration":0.26273169166665866},{"name":"D3","midi":50,"time":455.5559199999997,"velocity":0.8818897637795275,"duration":0.26273169166665866},{"name":"D4","midi":62,"time":455.5559199999997,"velocity":0.8818897637795275,"duration":0.26273169166665866},{"name":"C2","midi":36,"time":455.8336979999997,"velocity":0.8818897637795275,"duration":0.26273169166665866},{"name":"C3","midi":48,"time":455.8336979999997,"velocity":0.8818897637795275,"duration":0.26273169166665866},{"name":"C4","midi":60,"time":455.8336979999997,"velocity":0.8818897637795275,"duration":0.26273169166665866},{"name":"A1","midi":33,"time":456.1114759999997,"velocity":0.8818897637795275,"duration":0.26273169166665866},{"name":"A2","midi":45,"time":456.1114759999997,"velocity":0.8818897637795275,"duration":0.26273169166665866},{"name":"A3","midi":57,"time":456.1114759999997,"velocity":0.8818897637795275,"duration":0.26273169166665866},{"name":"C2","midi":36,"time":456.3892539999997,"velocity":0.8818897637795275,"duration":0.26273169166665866},{"name":"C3","midi":48,"time":456.3892539999997,"velocity":0.8818897637795275,"duration":0.26273169166665866},{"name":"C4","midi":60,"time":456.3892539999997,"velocity":0.8818897637795275,"duration":0.26273169166665866},{"name":"G2","midi":43,"time":456.6670319999997,"velocity":0.8818897637795275,"duration":0.084490808333328},{"name":"G3","midi":55,"time":456.6670319999997,"velocity":0.8818897637795275,"duration":0.084490808333328},{"name":"G4","midi":67,"time":456.6670319999997,"velocity":0.8818897637795275,"duration":0.084490808333328},{"name":"A2","midi":45,"time":456.75268021666636,"velocity":0.8818897637795275,"duration":0.17939829166664367},{"name":"A3","midi":57,"time":456.75268021666636,"velocity":0.8818897637795275,"duration":0.17939829166664367},{"name":"A4","midi":69,"time":456.75268021666636,"velocity":0.8818897637795275,"duration":0.17939829166664367},{"name":"E2","midi":40,"time":456.9448099999997,"velocity":0.8818897637795275,"duration":0.26273169166665866},{"name":"E3","midi":52,"time":456.9448099999997,"velocity":0.8818897637795275,"duration":0.26273169166665866},{"name":"E4","midi":64,"time":456.9448099999997,"velocity":0.8818897637795275,"duration":0.26273169166665866},{"name":"F2","midi":41,"time":457.2225879999997,"velocity":0.8818897637795275,"duration":0.26273169166665866},{"name":"F3","midi":53,"time":457.2225879999997,"velocity":0.8818897637795275,"duration":0.26273169166665866},{"name":"F4","midi":65,"time":457.2225879999997,"velocity":0.8818897637795275,"duration":0.26273169166665866},{"name":"E2","midi":40,"time":457.5003659999997,"velocity":0.8818897637795275,"duration":0.26273169166665866},{"name":"E3","midi":52,"time":457.5003659999997,"velocity":0.8818897637795275,"duration":0.26273169166665866},{"name":"E4","midi":64,"time":457.5003659999997,"velocity":0.8818897637795275,"duration":0.26273169166665866},{"name":"F2","midi":41,"time":457.7781439999997,"velocity":0.8818897637795275,"duration":0.3946762416666729},{"name":"F3","midi":53,"time":457.7781439999997,"velocity":0.8818897637795275,"duration":0.3946762416666729},{"name":"F4","midi":65,"time":457.7781439999997,"velocity":0.8818897637795275,"duration":0.3946762416666729},{"name":"F2","midi":41,"time":458.19481099999973,"velocity":0.8818897637795275,"duration":0.1307871416666444},{"name":"F3","midi":53,"time":458.19481099999973,"velocity":0.8818897637795275,"duration":0.1307871416666444},{"name":"F4","midi":65,"time":458.19481099999973,"velocity":0.8818897637795275,"duration":0.1307871416666444},{"name":"F2","midi":41,"time":458.4725889999997,"velocity":0.8818897637795275,"duration":0.1307871416666444},{"name":"F3","midi":53,"time":458.4725889999997,"velocity":0.8818897637795275,"duration":0.1307871416666444},{"name":"F4","midi":65,"time":458.4725889999997,"velocity":0.8818897637795275,"duration":0.1307871416666444},{"name":"E2","midi":40,"time":458.6114779999997,"velocity":0.8818897637795275,"duration":0.1307871416666444},{"name":"E3","midi":52,"time":458.6114779999997,"velocity":0.8818897637795275,"duration":0.1307871416666444},{"name":"E4","midi":64,"time":458.6114779999997,"velocity":0.8818897637795275,"duration":0.1307871416666444},{"name":"D2","midi":38,"time":458.88925599999965,"velocity":0.8818897637795275,"duration":0.13773159166669302},{"name":"D3","midi":50,"time":458.88925599999965,"velocity":0.8818897637795275,"duration":0.13773159166669302},{"name":"D4","midi":62,"time":458.88925599999965,"velocity":0.8818897637795275,"duration":0.13773159166669302},{"name":"E2","midi":40,"time":459.16703399999966,"velocity":0.8818897637795275,"duration":0.13773159166669302},{"name":"E3","midi":52,"time":459.16703399999966,"velocity":0.8818897637795275,"duration":0.13773159166669302},{"name":"E4","midi":64,"time":459.16703399999966,"velocity":0.8818897637795275,"duration":0.13773159166669302},{"name":"F2","midi":41,"time":459.4448119999997,"velocity":0.8818897637795275,"duration":0.26273169166665866},{"name":"F3","midi":53,"time":459.4448119999997,"velocity":0.8818897637795275,"duration":0.26273169166665866},{"name":"F4","midi":65,"time":459.4448119999997,"velocity":0.8818897637795275,"duration":0.26273169166665866},{"name":"D2","midi":38,"time":459.7225899999997,"velocity":0.8818897637795275,"duration":0.1307871416666444},{"name":"D3","midi":50,"time":459.7225899999997,"velocity":0.8818897637795275,"duration":0.1307871416666444},{"name":"D4","midi":62,"time":459.7225899999997,"velocity":0.8818897637795275,"duration":0.1307871416666444},{"name":"F2","midi":41,"time":459.8614789999997,"velocity":0.8818897637795275,"duration":0.1307871416666444},{"name":"F3","midi":53,"time":459.8614789999997,"velocity":0.8818897637795275,"duration":0.1307871416666444},{"name":"F4","midi":65,"time":459.8614789999997,"velocity":0.8818897637795275,"duration":0.1307871416666444},{"name":"D2","midi":38,"time":460.0003679999997,"velocity":0.8818897637795275,"duration":0.1307871416666444},{"name":"D3","midi":50,"time":460.0003679999997,"velocity":0.8818897637795275,"duration":0.1307871416666444},{"name":"D4","midi":62,"time":460.0003679999997,"velocity":0.8818897637795275,"duration":0.1307871416666444},{"name":"C3","midi":48,"time":460.1392569999997,"velocity":0.8818897637795275,"duration":0.1307871416666444},{"name":"C4","midi":60,"time":460.1392569999997,"velocity":0.8818897637795275,"duration":0.1307871416666444},{"name":"C5","midi":72,"time":460.1392569999997,"velocity":0.8818897637795275,"duration":0.1307871416666444},{"name":"E2","midi":40,"time":460.2781459999997,"velocity":0.8818897637795275,"duration":0.1307871416666444},{"name":"E3","midi":52,"time":460.2781459999997,"velocity":0.8818897637795275,"duration":0.1307871416666444},{"name":"E4","midi":64,"time":460.2781459999997,"velocity":0.8818897637795275,"duration":0.1307871416666444},{"name":"F2","midi":41,"time":460.4170349999997,"velocity":0.8818897637795275,"duration":0.6585653416666446},{"name":"F3","midi":53,"time":460.4170349999997,"velocity":0.8818897637795275,"duration":0.6585653416666446},{"name":"F4","midi":65,"time":460.4170349999997,"velocity":0.8818897637795275,"duration":0.6585653416666446},{"name":"D2","midi":38,"time":461.1114799999997,"velocity":0.8818897637795275,"duration":0.26273169166665866},{"name":"D3","midi":50,"time":461.1114799999997,"velocity":0.8818897637795275,"duration":0.26273169166665866},{"name":"D4","midi":62,"time":461.1114799999997,"velocity":0.8818897637795275,"duration":0.26273169166665866},{"name":"E2","midi":40,"time":461.3892579999997,"velocity":0.8818897637795275,"duration":0.26273169166665866},{"name":"E3","midi":52,"time":461.3892579999997,"velocity":0.8818897637795275,"duration":0.26273169166665866},{"name":"E4","midi":64,"time":461.3892579999997,"velocity":0.8818897637795275,"duration":0.26273169166665866},{"name":"A#1","midi":34,"time":461.6670359999997,"velocity":0.8818897637795275,"duration":0.26273169166665866},{"name":"A#2","midi":46,"time":461.6670359999997,"velocity":0.8818897637795275,"duration":0.26273169166665866},{"name":"A#3","midi":58,"time":461.6670359999997,"velocity":0.8818897637795275,"duration":0.26273169166665866},{"name":"F2","midi":41,"time":461.9448139999997,"velocity":0.8818897637795275,"duration":0.26273169166665866},{"name":"F3","midi":53,"time":461.9448139999997,"velocity":0.8818897637795275,"duration":0.26273169166665866},{"name":"F4","midi":65,"time":461.9448139999997,"velocity":0.8818897637795275,"duration":0.26273169166665866},{"name":"F2","midi":41,"time":462.22259199999974,"velocity":0.8818897637795275,"duration":0.3946762416666729},{"name":"F3","midi":53,"time":462.22259199999974,"velocity":0.8818897637795275,"duration":0.3946762416666729},{"name":"F4","midi":65,"time":462.22259199999974,"velocity":0.8818897637795275,"duration":0.3946762416666729},{"name":"F2","midi":41,"time":462.63925899999975,"velocity":0.8818897637795275,"duration":0.1307871416666444},{"name":"F3","midi":53,"time":462.63925899999975,"velocity":0.8818897637795275,"duration":0.1307871416666444},{"name":"F4","midi":65,"time":462.63925899999975,"velocity":0.8818897637795275,"duration":0.1307871416666444},{"name":"F2","midi":41,"time":462.9170369999997,"velocity":0.8818897637795275,"duration":0.1307871416666444},{"name":"F3","midi":53,"time":462.9170369999997,"velocity":0.8818897637795275,"duration":0.1307871416666444},{"name":"F4","midi":65,"time":462.9170369999997,"velocity":0.8818897637795275,"duration":0.1307871416666444},{"name":"E2","midi":40,"time":463.0559259999997,"velocity":0.8818897637795275,"duration":0.1307871416666444},{"name":"E3","midi":52,"time":463.0559259999997,"velocity":0.8818897637795275,"duration":0.1307871416666444},{"name":"E4","midi":64,"time":463.0559259999997,"velocity":0.8818897637795275,"duration":0.1307871416666444},{"name":"D2","midi":38,"time":463.33370399999967,"velocity":0.8818897637795275,"duration":0.13773159166669302},{"name":"D3","midi":50,"time":463.33370399999967,"velocity":0.8818897637795275,"duration":0.13773159166669302},{"name":"D4","midi":62,"time":463.33370399999967,"velocity":0.8818897637795275,"duration":0.13773159166669302},{"name":"E2","midi":40,"time":463.6114819999997,"velocity":0.8818897637795275,"duration":0.13773159166669302},{"name":"E3","midi":52,"time":463.6114819999997,"velocity":0.8818897637795275,"duration":0.13773159166669302},{"name":"E4","midi":64,"time":463.6114819999997,"velocity":0.8818897637795275,"duration":0.13773159166669302},{"name":"F2","midi":41,"time":463.8892599999997,"velocity":0.8818897637795275,"duration":0.26273169166665866},{"name":"F3","midi":53,"time":463.8892599999997,"velocity":0.8818897637795275,"duration":0.26273169166665866},{"name":"F2","midi":41,"time":464.1670379999997,"velocity":0.8818897637795275,"duration":0.1307871416666444},{"name":"F3","midi":53,"time":464.1670379999997,"velocity":0.8818897637795275,"duration":0.1307871416666444},{"name":"F2","midi":41,"time":464.3059269999997,"velocity":0.8818897637795275,"duration":0.1307871416666444},{"name":"F3","midi":53,"time":464.3059269999997,"velocity":0.8818897637795275,"duration":0.1307871416666444},{"name":"D2","midi":38,"time":464.4448159999997,"velocity":0.8818897637795275,"duration":0.26273169166665866},{"name":"D3","midi":50,"time":464.4448159999997,"velocity":0.8818897637795275,"duration":0.26273169166665866},{"name":"E2","midi":40,"time":464.72259399999973,"velocity":0.8818897637795275,"duration":0.26273169166665866},{"name":"E3","midi":52,"time":464.72259399999973,"velocity":0.8818897637795275,"duration":0.26273169166665866},{"name":"A2","midi":45,"time":465.00037199999974,"velocity":0.8818897637795275,"duration":0.1307871416666444},{"name":"A3","midi":57,"time":465.00037199999974,"velocity":0.8818897637795275,"duration":0.1307871416666444},{"name":"C3","midi":48,"time":465.13926099999975,"velocity":0.8818897637795275,"duration":0.1307871416666444},{"name":"C4","midi":60,"time":465.13926099999975,"velocity":0.8818897637795275,"duration":0.1307871416666444},{"name":"D3","midi":50,"time":465.27814999999975,"velocity":0.8818897637795275,"duration":0.1307871416666444},{"name":"D4","midi":62,"time":465.27814999999975,"velocity":0.8818897637795275,"duration":0.1307871416666444},{"name":"C3","midi":48,"time":465.41703899999976,"velocity":0.8818897637795275,"duration":0.1307871416666444},{"name":"C4","midi":60,"time":465.41703899999976,"velocity":0.8818897637795275,"duration":0.1307871416666444},{"name":"D3","midi":50,"time":465.55592799999977,"velocity":0.8818897637795275,"duration":0.26273169166665866},{"name":"D4","midi":62,"time":465.55592799999977,"velocity":0.8818897637795275,"duration":0.26273169166665866},{"name":"E3","midi":52,"time":465.8337059999998,"velocity":0.8818897637795275,"duration":0.26273169166665866},{"name":"E4","midi":64,"time":465.8337059999998,"velocity":0.8818897637795275,"duration":0.26273169166665866},{"name":"F4","midi":65,"time":466.1114839999998,"velocity":1,"duration":1.1099545916666784},{"name":"F5","midi":77,"time":466.1114839999998,"velocity":1,"duration":1.1099545916666784},{"name":"G#3","midi":56,"time":467.2225959999998,"velocity":0.6929133858267716,"duration":0.2766205916666422},{"name":"G#4","midi":68,"time":467.2225959999998,"velocity":0.6929133858267716,"duration":0.2766205916666422},{"name":"F4","midi":65,"time":468.3337079999998,"velocity":0.7559055118110236,"duration":1.1099545916666784},{"name":"F5","midi":77,"time":468.3337079999998,"velocity":0.7559055118110236,"duration":1.1099545916666784},{"name":"G3","midi":55,"time":469.44481999999977,"velocity":0.6929133858267716,"duration":0.2766205916666422},{"name":"G4","midi":67,"time":469.44481999999977,"velocity":0.6929133858267716,"duration":0.2766205916666422},{"name":"F4","midi":65,"time":470.55593199999976,"velocity":1,"duration":1.1099545916666784},{"name":"F5","midi":77,"time":470.55593199999976,"velocity":1,"duration":1.1099545916666784},{"name":"G#3","midi":56,"time":471.66704399999975,"velocity":0.6929133858267716,"duration":0.2766205916666422},{"name":"G#4","midi":68,"time":471.66704399999975,"velocity":0.6929133858267716,"duration":0.2766205916666422},{"name":"F4","midi":65,"time":472.77815599999974,"velocity":0.7559055118110236,"duration":1.1099545916666784},{"name":"F5","midi":77,"time":472.77815599999974,"velocity":0.7559055118110236,"duration":1.1099545916666784},{"name":"G3","midi":55,"time":473.88926799999973,"velocity":0.6929133858267716,"duration":0.2766205916666422},{"name":"G4","midi":67,"time":473.88926799999973,"velocity":0.6929133858267716,"duration":0.2766205916666422},{"name":"D6","midi":86,"time":483.8892759999997,"velocity":0.6299212598425197,"duration":0.1307871416666444},{"name":"A5","midi":81,"time":484.16705399999967,"velocity":0.6299212598425197,"duration":0.1307871416666444},{"name":"A#5","midi":82,"time":484.4448319999996,"velocity":0.6299212598425197,"duration":0.1307871416666444},{"name":"G5","midi":79,"time":484.7226099999996,"velocity":0.6299212598425197,"duration":0.1307871416666444},{"name":"A5","midi":81,"time":485.00038799999953,"velocity":0.6299212598425197,"duration":0.1307871416666444},{"name":"D6","midi":86,"time":485.2781659999995,"velocity":0.6299212598425197,"duration":0.1307871416666444},{"name":"A5","midi":81,"time":485.55594399999944,"velocity":0.6299212598425197,"duration":0.1307871416666444},{"name":"G5","midi":79,"time":485.69483299999945,"velocity":0.6299212598425197,"duration":0.1307871416666444},{"name":"F5","midi":77,"time":485.83372199999945,"velocity":0.6299212598425197,"duration":0.26273169166665866},{"name":"E5","midi":76,"time":486.11149999999947,"velocity":0.6299212598425197,"duration":0.1307871416666444},{"name":"G5","midi":79,"time":486.3892779999994,"velocity":0.6299212598425197,"duration":0.1307871416666444},{"name":"F5","midi":77,"time":486.6670559999994,"velocity":0.6299212598425197,"duration":0.1307871416666444},{"name":"E5","midi":76,"time":486.8059449999994,"velocity":0.6299212598425197,"duration":0.1307871416666444},{"name":"C#5","midi":73,"time":486.9448339999994,"velocity":0.6299212598425197,"duration":0.26273169166665866},{"name":"D5","midi":74,"time":487.2226119999994,"velocity":0.6299212598425197,"duration":0.26273169166665866},{"name":"A#5","midi":82,"time":487.5003899999994,"velocity":0.6299212598425197,"duration":0.1307871416666444},{"name":"A5","midi":81,"time":487.77816799999937,"velocity":0.6299212598425197,"duration":0.1307871416666444},{"name":"G5","midi":79,"time":487.9170569999994,"velocity":0.6299212598425197,"duration":0.1307871416666444},{"name":"A5","midi":81,"time":488.0559459999994,"velocity":0.6299212598425197,"duration":0.26273169166665866},{"name":"E5","midi":76,"time":488.3337239999994,"velocity":0.6299212598425197,"duration":0.1307871416666444},{"name":"C#5","midi":73,"time":488.61150199999935,"velocity":0.6299212598425197,"duration":0.1307871416666444},{"name":"A#5","midi":82,"time":488.8892799999993,"velocity":0.6299212598425197,"duration":0.1307871416666444},{"name":"A5","midi":81,"time":489.0281689999993,"velocity":0.6299212598425197,"duration":0.1307871416666444},{"name":"G5","midi":79,"time":489.1670579999993,"velocity":0.6299212598425197,"duration":0.26273169166665866},{"name":"A5","midi":81,"time":489.4448359999993,"velocity":0.6299212598425197,"duration":0.26273169166665866},{"name":"D6","midi":86,"time":489.72261399999934,"velocity":0.6299212598425197,"duration":0.1307871416666444},{"name":"F6","midi":89,"time":490.0003919999993,"velocity":0.6299212598425197,"duration":0.1307871416666444},{"name":"E6","midi":88,"time":490.1392809999993,"velocity":0.6299212598425197,"duration":0.1307871416666444},{"name":"D6","midi":86,"time":490.2781699999993,"velocity":0.6299212598425197,"duration":0.26273169166665866},{"name":"F6","midi":89,"time":490.5559479999993,"velocity":0.6299212598425197,"duration":0.1307871416666444},{"name":"D6","midi":86,"time":490.8337259999993,"velocity":0.6299212598425197,"duration":0.1307871416666444},{"name":"A#5","midi":82,"time":491.11150399999923,"velocity":0.6299212598425197,"duration":0.1307871416666444},{"name":"G5","midi":79,"time":491.25039299999924,"velocity":0.6299212598425197,"duration":0.1307871416666444},{"name":"E5","midi":76,"time":491.38928199999924,"velocity":0.6299212598425197,"duration":0.26273169166665866},{"name":"A5","midi":81,"time":491.66705999999925,"velocity":0.6299212598425197,"duration":0.26273169166665866},{"name":"A#5","midi":82,"time":491.94483799999927,"velocity":0.6299212598425197,"duration":0.1307871416666444},{"name":"A5","midi":81,"time":492.2226159999992,"velocity":0.6299212598425197,"duration":0.26273169166665866},{"name":"F6","midi":89,"time":492.7781719999992,"velocity":0.6299212598425197,"duration":0.1307871416666444},{"name":"D6","midi":86,"time":493.05594999999914,"velocity":0.6299212598425197,"duration":0.1307871416666444},{"name":"E6","midi":88,"time":493.3337279999991,"velocity":0.6299212598425197,"duration":0.1307871416666444},{"name":"C#6","midi":85,"time":493.61150599999905,"velocity":0.6299212598425197,"duration":0.1307871416666444},{"name":"D6","midi":86,"time":493.889283999999,"velocity":0.6299212598425197,"duration":0.1307871416666444},{"name":"F6","midi":89,"time":494.16706199999896,"velocity":0.6299212598425197,"duration":0.1307871416666444},{"name":"D6","midi":86,"time":494.4448399999989,"velocity":0.6299212598425197,"duration":0.1307871416666444},{"name":"C#6","midi":85,"time":494.5837289999989,"velocity":0.6299212598425197,"duration":0.1307871416666444},{"name":"D6","midi":86,"time":494.72261799999893,"velocity":0.6299212598425197,"duration":0.26273169166665866},{"name":"C#6","midi":85,"time":495.00039599999894,"velocity":0.6299212598425197,"duration":0.1307871416666444},{"name":"E6","midi":88,"time":495.2781739999989,"velocity":0.6299212598425197,"duration":0.1307871416666444},{"name":"C#6","midi":85,"time":495.55595199999885,"velocity":0.6299212598425197,"duration":0.1307871416666444},{"name":"A#5","midi":82,"time":495.69484099999886,"velocity":0.6299212598425197,"duration":0.1307871416666444},{"name":"G5","midi":79,"time":495.83372999999887,"velocity":0.6299212598425197,"duration":0.26273169166665866},{"name":"A5","midi":81,"time":496.1115079999989,"velocity":0.6299212598425197,"duration":0.1307871416666444},{"name":"F6","midi":89,"time":496.38928599999883,"velocity":0.6299212598425197,"duration":0.1307871416666444},{"name":"D6","midi":86,"time":496.6670639999988,"velocity":0.6299212598425197,"duration":0.1307871416666444},{"name":"C#6","midi":85,"time":496.8059529999988,"velocity":0.6299212598425197,"duration":0.1307871416666444},{"name":"D6","midi":86,"time":496.9448419999988,"velocity":0.6299212598425197,"duration":0.26273169166665866},{"name":"C#6","midi":85,"time":497.2226199999988,"velocity":0.6299212598425197,"duration":0.1307871416666444},{"name":"A5","midi":81,"time":497.50039799999877,"velocity":0.6299212598425197,"duration":0.1307871416666444},{"name":"F6","midi":89,"time":497.7781759999987,"velocity":0.6299212598425197,"duration":0.1307871416666444},{"name":"E6","midi":88,"time":497.91706499999873,"velocity":0.6299212598425197,"duration":0.1307871416666444},{"name":"C#6","midi":85,"time":498.05595399999874,"velocity":0.6299212598425197,"duration":0.26273169166665866},{"name":"D6","midi":86,"time":498.33373199999875,"velocity":0.6299212598425197,"duration":0.26273169166665866},{"name":"A6","midi":93,"time":498.61150999999876,"velocity":0.6299212598425197,"duration":0.1307871416666444},{"name":"C7","midi":96,"time":498.8892879999987,"velocity":0.6299212598425197,"duration":0.1307871416666444},{"name":"A#6","midi":94,"time":499.0281769999987,"velocity":0.6299212598425197,"duration":0.1307871416666444},{"name":"A6","midi":93,"time":499.1670659999987,"velocity":0.6299212598425197,"duration":0.26273169166665866},{"name":"A#6","midi":94,"time":499.44484399999874,"velocity":0.6299212598425197,"duration":0.1307871416666444},{"name":"A6","midi":93,"time":499.58373299999874,"velocity":0.6299212598425197,"duration":0.0648148666666657},{"name":"A#6","midi":94,"time":499.6531774999987,"velocity":0.6299212598425197,"duration":0.0648148666666657},{"name":"A6","midi":93,"time":499.7226219999987,"velocity":0.6299212598425197,"duration":0.0648148666666657},{"name":"A#6","midi":94,"time":499.79206649999867,"velocity":0.6299212598425197,"duration":0.0648148666666657},{"name":"F6","midi":89,"time":500.00039999999865,"velocity":0.6299212598425197,"duration":0.1307871416666444},{"name":"E6","midi":88,"time":500.13928899999866,"velocity":0.6299212598425197,"duration":0.1307871416666444},{"name":"C#6","midi":85,"time":500.27817799999866,"velocity":0.6299212598425197,"duration":0.1307871416666444},{"name":"A#5","midi":82,"time":500.41706699999867,"velocity":0.6299212598425197,"duration":0.1307871416666444},{"name":"A5","midi":81,"time":500.5559559999987,"velocity":0.6299212598425197,"duration":0.26273169166665866},{"name":"E6","midi":88,"time":500.8337339999987,"velocity":0.6299212598425197,"duration":0.26273169166665866},{"name":"D6","midi":86,"time":501.1115119999987,"velocity":0.6299212598425197,"duration":0.5266207916666872},{"name":"D6","midi":86,"time":501.6670679999987,"velocity":0.6299212598425197,"duration":0.1307871416666444},{"name":"A#5","midi":82,"time":501.8059569999987,"velocity":0.6299212598425197,"duration":0.1307871416666444},{"name":"A5","midi":81,"time":501.94484599999873,"velocity":0.6299212598425197,"duration":0.26273169166665866},{"name":"D6","midi":86,"time":502.22262399999875,"velocity":0.6299212598425197,"duration":0.1307871416666444},{"name":"C#6","midi":85,"time":502.5004019999987,"velocity":0.6299212598425197,"duration":0.1307871416666444},{"name":"D6","midi":86,"time":502.77817999999866,"velocity":0.6299212598425197,"duration":0.1307871416666444},{"name":"E6","midi":88,"time":503.0559579999986,"velocity":0.6299212598425197,"duration":0.1307871416666444},{"name":"C#6","midi":85,"time":503.33373599999857,"velocity":0.6299212598425197,"duration":0.26273169166665866},{"name":"C6","midi":84,"time":503.88929199999853,"velocity":0.6299212598425197,"duration":0.5266207916666872},{"name":"C#6","midi":85,"time":504.44484799999856,"velocity":0.6299212598425197,"duration":0.07060190833334445},{"name":"C6","midi":84,"time":504.5166073166652,"velocity":0.6299212598425197,"duration":0.45717629166665574},{"name":"C#6","midi":85,"time":505.0004039999985,"velocity":0.6299212598425197,"duration":0.0694444999999746},{"name":"D6","midi":86,"time":505.0710059083318,"velocity":0.6299212598425197,"duration":0.0694444999999746},{"name":"D#6","midi":87,"time":505.1439226333318,"velocity":0.6299212598425197,"duration":1.9710663916666817},{"name":"C6","midi":84,"time":509.44485199999843,"velocity":0.7559055118110236,"duration":1.318288091666659},{"name":"G5","midi":79,"time":510.83374199999844,"velocity":0.7559055118110236,"duration":0.26273169166665866},{"name":"C6","midi":84,"time":511.11151999999845,"velocity":0.7559055118110236,"duration":0.26273169166665866},{"name":"D#6","midi":87,"time":511.38929799999846,"velocity":0.7559055118110236,"duration":0.26273169166665866},{"name":"D6","midi":86,"time":511.6670759999985,"velocity":0.7559055118110236,"duration":1.318288091666659},{"name":"D6","midi":86,"time":513.0559659999984,"velocity":0.7559055118110236,"duration":0.26273169166665866},{"name":"F6","midi":89,"time":513.3337439999984,"velocity":0.7559055118110236,"duration":0.26273169166665866},{"name":"G6","midi":91,"time":513.6115219999984,"velocity":0.7559055118110236,"duration":0.26273169166665866},{"name":"D6","midi":86,"time":513.8892999999985,"velocity":0.7559055118110236,"duration":1.5821771916666876},{"name":"C6","midi":84,"time":515.5559679999985,"velocity":0.7559055118110236,"duration":0.5266207916666872},{"name":"D6","midi":86,"time":516.1115239999986,"velocity":0.7559055118110236,"duration":1.846066291666716},{"name":"C6","midi":84,"time":518.0559699999986,"velocity":0.7559055118110236,"duration":0.13078714166670125},{"name":"D6","midi":86,"time":518.1948589999987,"velocity":0.7559055118110236,"duration":0.13078714166670125},{"name":"D#6","midi":87,"time":518.3337479999988,"velocity":0.7559055118110236,"duration":0.7905098916667157},{"name":"C6","midi":84,"time":519.1670819999988,"velocity":0.7559055118110236,"duration":0.5266207916666872},{"name":"D6","midi":86,"time":519.7226379999988,"velocity":0.7559055118110236,"duration":0.26273169166665866},{"name":"D#6","midi":87,"time":520.0004159999988,"velocity":0.7559055118110236,"duration":0.13078714166670125},{"name":"F6","midi":89,"time":520.1393049999989,"velocity":0.7559055118110236,"duration":0.13078714166670125},{"name":"D#6","midi":87,"time":520.278193999999,"velocity":0.7559055118110236,"duration":0.13078714166670125},{"name":"D6","midi":86,"time":520.417082999999,"velocity":0.7559055118110236,"duration":0.13078714166670125},{"name":"D#6","midi":87,"time":520.5559719999991,"velocity":0.7559055118110236,"duration":0.5266207916666872},{"name":"G6","midi":91,"time":521.1115279999991,"velocity":0.7559055118110236,"duration":0.5266207916666872},{"name":"D6","midi":86,"time":521.6670839999991,"velocity":0.7559055118110236,"duration":0.7905098916667157},{"name":"D#6","midi":87,"time":522.5004179999992,"velocity":0.7559055118110236,"duration":0.13078714166670125},{"name":"D6","midi":86,"time":522.6393069999992,"velocity":0.7559055118110236,"duration":0.13078714166670125},{"name":"D#6","midi":87,"time":522.7781959999993,"velocity":0.7559055118110236,"duration":0.7905098916667157},{"name":"C6","midi":84,"time":523.6115299999993,"velocity":0.7559055118110236,"duration":0.5266207916666872},{"name":"D6","midi":86,"time":524.1670859999994,"velocity":0.7559055118110236,"duration":0.26273169166665866},{"name":"D#6","midi":87,"time":524.4448639999994,"velocity":0.7559055118110236,"duration":0.13078714166670125},{"name":"F6","midi":89,"time":524.5837529999994,"velocity":0.7559055118110236,"duration":0.13078714166670125},{"name":"D#6","midi":87,"time":524.7226419999995,"velocity":0.7559055118110236,"duration":0.13078714166670125},{"name":"D6","midi":86,"time":524.8615309999996,"velocity":0.7559055118110236,"duration":0.13078714166670125},{"name":"D#6","midi":87,"time":525.0004199999996,"velocity":0.7559055118110236,"duration":0.5266207916666872},{"name":"D#6","midi":87,"time":525.5559759999996,"velocity":0.7559055118110236,"duration":0.5266207916666872},{"name":"D6","midi":86,"time":526.1115319999997,"velocity":0.7559055118110236,"duration":1.0543989916666305},{"name":"G2","midi":43,"time":527.2226439999996,"velocity":0.7559055118110236,"duration":0.13078714166658756},{"name":"G3","midi":55,"time":527.2226439999996,"velocity":0.7559055118110236,"duration":0.13078714166658756},{"name":"G2","midi":43,"time":527.3615329999996,"velocity":0.7716535433070866,"duration":0.13773159166669302},{"name":"G3","midi":55,"time":527.3615329999996,"velocity":0.7716535433070866,"duration":0.13773159166669302},{"name":"G2","midi":43,"time":527.6393109999996,"velocity":0.8031496062992126,"duration":0.13078714166670125},{"name":"G3","midi":55,"time":527.6393109999996,"velocity":0.8031496062992126,"duration":0.13078714166670125},{"name":"G1","midi":31,"time":527.7781999999996,"velocity":0.8188976377952756,"duration":0.13773159166669302},{"name":"G2","midi":43,"time":527.7781999999996,"velocity":0.8188976377952756,"duration":0.13773159166669302},{"name":"G1","midi":31,"time":528.0559779999996,"velocity":0.8503937007874016,"duration":0.13078714166670125},{"name":"G2","midi":43,"time":528.0559779999996,"velocity":0.8503937007874016,"duration":0.13078714166670125},{"name":"G1","midi":31,"time":528.1948669999997,"velocity":0.8661417322834646,"duration":0.06828709166666158},{"name":"G2","midi":43,"time":528.1948669999997,"velocity":0.8661417322834646,"duration":0.06828709166666158},{"name":"G3","midi":55,"time":528.6115339999997,"velocity":0.8818897637795275,"duration":0.26273169166665866},{"name":"G4","midi":67,"time":528.6115339999997,"velocity":0.8818897637795275,"duration":0.26273169166665866},{"name":"F#3","midi":54,"time":529.1670899999997,"velocity":0.8818897637795275,"duration":0.26273169166665866},{"name":"F#4","midi":66,"time":529.1670899999997,"velocity":0.8818897637795275,"duration":0.26273169166665866},{"name":"G3","midi":55,"time":529.7226459999997,"velocity":0.8818897637795275,"duration":0.26273169166665866},{"name":"G4","midi":67,"time":529.7226459999997,"velocity":0.8818897637795275,"duration":0.26273169166665866},{"name":"F#3","midi":54,"time":530.2782019999997,"velocity":0.8818897637795275,"duration":0.26273169166665866},{"name":"F#4","midi":66,"time":530.2782019999997,"velocity":0.8818897637795275,"duration":0.26273169166665866},{"name":"G3","midi":55,"time":530.8337579999998,"velocity":0.8818897637795275,"duration":0.26273169166665866},{"name":"G4","midi":67,"time":530.8337579999998,"velocity":0.8818897637795275,"duration":0.26273169166665866},{"name":"F#3","midi":54,"time":531.3893139999998,"velocity":0.8818897637795275,"duration":0.26273169166665866},{"name":"F#4","midi":66,"time":531.3893139999998,"velocity":0.8818897637795275,"duration":0.26273169166665866},{"name":"G3","midi":55,"time":531.9448699999998,"velocity":0.8818897637795275,"duration":0.26273169166665866},{"name":"G4","midi":67,"time":531.9448699999998,"velocity":0.8818897637795275,"duration":0.26273169166665866},{"name":"F#3","midi":54,"time":532.5004259999998,"velocity":0.8818897637795275,"duration":0.26273169166665866},{"name":"F#4","midi":66,"time":532.5004259999998,"velocity":0.8818897637795275,"duration":0.26273169166665866},{"name":"G3","midi":55,"time":533.0559819999999,"velocity":0.8818897637795275,"duration":0.26273169166665866},{"name":"G4","midi":67,"time":533.0559819999999,"velocity":0.8818897637795275,"duration":0.26273169166665866},{"name":"F#3","midi":54,"time":533.6115379999999,"velocity":0.8818897637795275,"duration":0.26273169166665866},{"name":"F#4","midi":66,"time":533.6115379999999,"velocity":0.8818897637795275,"duration":0.26273169166665866},{"name":"G3","midi":55,"time":534.1670939999999,"velocity":0.8818897637795275,"duration":0.26273169166665866},{"name":"G4","midi":67,"time":534.1670939999999,"velocity":0.8818897637795275,"duration":0.26273169166665866},{"name":"F#3","midi":54,"time":534.7226499999999,"velocity":0.8818897637795275,"duration":0.26273169166665866},{"name":"F#4","midi":66,"time":534.7226499999999,"velocity":0.8818897637795275,"duration":0.26273169166665866},{"name":"G3","midi":55,"time":535.278206,"velocity":0.8818897637795275,"duration":0.26273169166665866},{"name":"G4","midi":67,"time":535.278206,"velocity":0.8818897637795275,"duration":0.26273169166665866},{"name":"F#3","midi":54,"time":535.833762,"velocity":0.8818897637795275,"duration":0.26273169166665866},{"name":"F#4","midi":66,"time":535.833762,"velocity":0.8818897637795275,"duration":0.26273169166665866},{"name":"G3","midi":55,"time":536.389318,"velocity":0.8818897637795275,"duration":0.26273169166665866},{"name":"G4","midi":67,"time":536.389318,"velocity":0.8818897637795275,"duration":0.26273169166665866},{"name":"F#3","midi":54,"time":536.944874,"velocity":0.8818897637795275,"duration":0.26273169166665866},{"name":"F#4","midi":66,"time":536.944874,"velocity":0.8818897637795275,"duration":0.26273169166665866},{"name":"G3","midi":55,"time":537.50043,"velocity":0.8818897637795275,"duration":0.26273169166665866},{"name":"G4","midi":67,"time":537.50043,"velocity":0.8818897637795275,"duration":0.26273169166665866},{"name":"F#3","midi":54,"time":538.0559860000001,"velocity":0.8818897637795275,"duration":0.26273169166665866},{"name":"F#4","midi":66,"time":538.0559860000001,"velocity":0.8818897637795275,"duration":0.26273169166665866},{"name":"G3","midi":55,"time":538.6115420000001,"velocity":0.8818897637795275,"duration":0.26273169166665866},{"name":"G4","midi":67,"time":538.6115420000001,"velocity":0.8818897637795275,"duration":0.26273169166665866},{"name":"F#3","midi":54,"time":539.1670980000001,"velocity":0.8818897637795275,"duration":0.26273169166665866},{"name":"F#4","midi":66,"time":539.1670980000001,"velocity":0.8818897637795275,"duration":0.26273169166665866},{"name":"G3","midi":55,"time":539.7226540000001,"velocity":0.8818897637795275,"duration":0.26273169166665866},{"name":"G4","midi":67,"time":539.7226540000001,"velocity":0.8818897637795275,"duration":0.26273169166665866},{"name":"F#3","midi":54,"time":540.2782100000002,"velocity":0.8818897637795275,"duration":0.26273169166665866},{"name":"F#4","midi":66,"time":540.2782100000002,"velocity":0.8818897637795275,"duration":0.26273169166665866},{"name":"G3","midi":55,"time":540.8337660000002,"velocity":0.8818897637795275,"duration":0.26273169166665866},{"name":"G4","midi":67,"time":540.8337660000002,"velocity":0.8818897637795275,"duration":0.26273169166665866},{"name":"F#3","midi":54,"time":541.3893220000002,"velocity":0.8818897637795275,"duration":0.26273169166665866},{"name":"F#4","midi":66,"time":541.3893220000002,"velocity":0.8818897637795275,"duration":0.26273169166665866},{"name":"G3","midi":55,"time":541.9448780000002,"velocity":0.8818897637795275,"duration":0.26273169166665866},{"name":"G4","midi":67,"time":541.9448780000002,"velocity":0.8818897637795275,"duration":0.26273169166665866},{"name":"F#3","midi":54,"time":542.5004340000003,"velocity":0.8818897637795275,"duration":0.26273169166665866},{"name":"F#4","midi":66,"time":542.5004340000003,"velocity":0.8818897637795275,"duration":0.26273169166665866},{"name":"G3","midi":55,"time":543.0559900000003,"velocity":0.8818897637795275,"duration":0.26273169166665866},{"name":"G4","midi":67,"time":543.0559900000003,"velocity":0.8818897637795275,"duration":0.26273169166665866},{"name":"F#3","midi":54,"time":543.6115460000003,"velocity":0.8818897637795275,"duration":0.26273169166665866},{"name":"F#4","midi":66,"time":543.6115460000003,"velocity":0.8818897637795275,"duration":0.26273169166665866},{"name":"G3","midi":55,"time":544.1671020000003,"velocity":0.8818897637795275,"duration":0.26273169166665866},{"name":"G4","midi":67,"time":544.1671020000003,"velocity":0.8818897637795275,"duration":0.26273169166665866},{"name":"A3","midi":57,"time":544.7226580000004,"velocity":0.8818897637795275,"duration":0.26273169166665866},{"name":"A4","midi":69,"time":544.7226580000004,"velocity":0.8818897637795275,"duration":0.26273169166665866},{"name":"G3","midi":55,"time":545.2782140000004,"velocity":0.8818897637795275,"duration":0.26273169166665866},{"name":"G4","midi":67,"time":545.2782140000004,"velocity":0.8818897637795275,"duration":0.26273169166665866},{"name":"F#3","midi":54,"time":545.8337700000004,"velocity":0.8818897637795275,"duration":0.26273169166665866},{"name":"F#4","midi":66,"time":545.8337700000004,"velocity":0.8818897637795275,"duration":0.26273169166665866},{"name":"G5","midi":79,"time":546.1115480000004,"velocity":0.8818897637795275,"duration":2.1099553916667446},{"name":"C6","midi":84,"time":546.1115480000004,"velocity":0.8818897637795275,"duration":2.1099553916667446},{"name":"G6","midi":91,"time":546.1115480000004,"velocity":0.8818897637795275,"duration":2.1099553916667446},{"name":"G3","midi":55,"time":546.3893260000004,"velocity":0.8818897637795275,"duration":0.26273169166665866},{"name":"G4","midi":67,"time":546.3893260000004,"velocity":0.8818897637795275,"duration":0.26273169166665866},{"name":"F#3","midi":54,"time":546.9448820000005,"velocity":0.8818897637795275,"duration":0.26273169166665866},{"name":"F#4","midi":66,"time":546.9448820000005,"velocity":0.8818897637795275,"duration":0.26273169166665866},{"name":"G3","midi":55,"time":547.5004380000005,"velocity":0.8818897637795275,"duration":0.26273169166665866},{"name":"G4","midi":67,"time":547.5004380000005,"velocity":0.8818897637795275,"duration":0.26273169166665866},{"name":"F#3","midi":54,"time":548.0559940000005,"velocity":0.8818897637795275,"duration":0.26273169166665866},{"name":"F#4","midi":66,"time":548.0559940000005,"velocity":0.8818897637795275,"duration":0.26273169166665866},{"name":"F#5","midi":78,"time":548.3337720000005,"velocity":0.8818897637795275,"duration":2.1099553916667446},{"name":"A5","midi":81,"time":548.3337720000005,"velocity":0.8818897637795275,"duration":2.1099553916667446},{"name":"F#6","midi":90,"time":548.3337720000005,"velocity":0.8818897637795275,"duration":2.1099553916667446},{"name":"A6","midi":93,"time":548.3337720000005,"velocity":0.8818897637795275,"duration":2.1099553916667446},{"name":"G3","midi":55,"time":548.6115500000005,"velocity":0.8818897637795275,"duration":0.26273169166665866},{"name":"G4","midi":67,"time":548.6115500000005,"velocity":0.8818897637795275,"duration":0.26273169166665866},{"name":"F#3","midi":54,"time":549.1671060000006,"velocity":0.8818897637795275,"duration":0.26273169166665866},{"name":"F#4","midi":66,"time":549.1671060000006,"velocity":0.8818897637795275,"duration":0.26273169166665866},{"name":"G3","midi":55,"time":549.7226620000006,"velocity":0.8818897637795275,"duration":0.26273169166665866},{"name":"G4","midi":67,"time":549.7226620000006,"velocity":0.8818897637795275,"duration":0.26273169166665866},{"name":"F#3","midi":54,"time":550.2782180000006,"velocity":0.8818897637795275,"duration":0.26273169166665866},{"name":"F#4","midi":66,"time":550.2782180000006,"velocity":0.8818897637795275,"duration":0.26273169166665866},{"name":"G5","midi":79,"time":550.5559960000006,"velocity":0.8818897637795275,"duration":2.1099553916667446},{"name":"C6","midi":84,"time":550.5559960000006,"velocity":0.8818897637795275,"duration":2.1099553916667446},{"name":"G6","midi":91,"time":550.5559960000006,"velocity":0.8818897637795275,"duration":2.1099553916667446},{"name":"G3","midi":55,"time":550.8337740000006,"velocity":0.8818897637795275,"duration":0.26273169166665866},{"name":"G4","midi":67,"time":550.8337740000006,"velocity":0.8818897637795275,"duration":0.26273169166665866},{"name":"F#3","midi":54,"time":551.3893300000007,"velocity":0.8818897637795275,"duration":0.26273169166665866},{"name":"F#4","midi":66,"time":551.3893300000007,"velocity":0.8818897637795275,"duration":0.26273169166665866},{"name":"G3","midi":55,"time":551.9448860000007,"velocity":0.8818897637795275,"duration":0.26273169166665866},{"name":"G4","midi":67,"time":551.9448860000007,"velocity":0.8818897637795275,"duration":0.26273169166665866},{"name":"F#3","midi":54,"time":552.5004420000007,"velocity":0.8818897637795275,"duration":0.26273169166665866},{"name":"F#4","midi":66,"time":552.5004420000007,"velocity":0.8818897637795275,"duration":0.26273169166665866},{"name":"F#5","midi":78,"time":552.7782200000007,"velocity":0.8818897637795275,"duration":2.1099553916667446},{"name":"A5","midi":81,"time":552.7782200000007,"velocity":0.8818897637795275,"duration":2.1099553916667446},{"name":"F#6","midi":90,"time":552.7782200000007,"velocity":0.8818897637795275,"duration":2.1099553916667446},{"name":"A6","midi":93,"time":552.7782200000007,"velocity":0.8818897637795275,"duration":2.1099553916667446},{"name":"G3","midi":55,"time":553.0559980000007,"velocity":0.8818897637795275,"duration":0.26273169166665866},{"name":"G4","midi":67,"time":553.0559980000007,"velocity":0.8818897637795275,"duration":0.26273169166665866},{"name":"F#3","midi":54,"time":553.6115540000008,"velocity":0.8818897637795275,"duration":0.26273169166665866},{"name":"F#4","midi":66,"time":553.6115540000008,"velocity":0.8818897637795275,"duration":0.26273169166665866},{"name":"G3","midi":55,"time":554.1671100000008,"velocity":0.8818897637795275,"duration":0.26273169166665866},{"name":"G4","midi":67,"time":554.1671100000008,"velocity":0.8818897637795275,"duration":0.26273169166665866},{"name":"F#3","midi":54,"time":554.7226660000008,"velocity":0.8818897637795275,"duration":0.26273169166665866},{"name":"F#4","midi":66,"time":554.7226660000008,"velocity":0.8818897637795275,"duration":0.26273169166665866},{"name":"G5","midi":79,"time":555.0004440000008,"velocity":0.8818897637795275,"duration":2.1099553916667446},{"name":"C6","midi":84,"time":555.0004440000008,"velocity":0.8818897637795275,"duration":2.1099553916667446},{"name":"G6","midi":91,"time":555.0004440000008,"velocity":0.8818897637795275,"duration":2.1099553916667446},{"name":"G3","midi":55,"time":555.2782220000008,"velocity":0.8818897637795275,"duration":0.26273169166665866},{"name":"G4","midi":67,"time":555.2782220000008,"velocity":0.8818897637795275,"duration":0.26273169166665866},{"name":"F#3","midi":54,"time":555.8337780000008,"velocity":0.8818897637795275,"duration":0.26273169166665866},{"name":"F#4","midi":66,"time":555.8337780000008,"velocity":0.8818897637795275,"duration":0.26273169166665866},{"name":"G3","midi":55,"time":556.3893340000009,"velocity":0.8818897637795275,"duration":0.26273169166665866},{"name":"G4","midi":67,"time":556.3893340000009,"velocity":0.8818897637795275,"duration":0.26273169166665866},{"name":"F#3","midi":54,"time":556.9448900000009,"velocity":0.8818897637795275,"duration":0.26273169166665866},{"name":"F#4","midi":66,"time":556.9448900000009,"velocity":0.8818897637795275,"duration":0.26273169166665866},{"name":"F#5","midi":78,"time":557.2226680000009,"velocity":0.8818897637795275,"duration":2.1099553916667446},{"name":"A5","midi":81,"time":557.2226680000009,"velocity":0.8818897637795275,"duration":2.1099553916667446},{"name":"F#6","midi":90,"time":557.2226680000009,"velocity":0.8818897637795275,"duration":2.1099553916667446},{"name":"A6","midi":93,"time":557.2226680000009,"velocity":0.8818897637795275,"duration":2.1099553916667446},{"name":"G3","midi":55,"time":557.5004460000009,"velocity":0.8818897637795275,"duration":0.26273169166665866},{"name":"G4","midi":67,"time":557.5004460000009,"velocity":0.8818897637795275,"duration":0.26273169166665866},{"name":"F#3","midi":54,"time":558.056002000001,"velocity":0.8818897637795275,"duration":0.26273169166665866},{"name":"F#4","midi":66,"time":558.056002000001,"velocity":0.8818897637795275,"duration":0.26273169166665866},{"name":"G3","midi":55,"time":558.611558000001,"velocity":0.8818897637795275,"duration":0.26273169166665866},{"name":"G4","midi":67,"time":558.611558000001,"velocity":0.8818897637795275,"duration":0.26273169166665866},{"name":"F#3","midi":54,"time":559.167114000001,"velocity":0.8818897637795275,"duration":0.26273169166665866},{"name":"F#4","midi":66,"time":559.167114000001,"velocity":0.8818897637795275,"duration":0.26273169166665866},{"name":"G5","midi":79,"time":559.444892000001,"velocity":0.8818897637795275,"duration":2.1099553916667446},{"name":"C6","midi":84,"time":559.444892000001,"velocity":0.8818897637795275,"duration":2.1099553916667446},{"name":"G6","midi":91,"time":559.444892000001,"velocity":0.8818897637795275,"duration":2.1099553916667446},{"name":"G3","midi":55,"time":559.722670000001,"velocity":0.8818897637795275,"duration":0.26273169166665866},{"name":"G4","midi":67,"time":559.722670000001,"velocity":0.8818897637795275,"duration":0.26273169166665866},{"name":"F#3","midi":54,"time":560.278226000001,"velocity":0.8818897637795275,"duration":0.26273169166665866},{"name":"F#4","midi":66,"time":560.278226000001,"velocity":0.8818897637795275,"duration":0.26273169166665866},{"name":"G3","midi":55,"time":560.8337820000011,"velocity":0.8818897637795275,"duration":0.26273169166665866},{"name":"G4","midi":67,"time":560.8337820000011,"velocity":0.8818897637795275,"duration":0.26273169166665866},{"name":"F#3","midi":54,"time":561.3893380000011,"velocity":0.8818897637795275,"duration":0.26273169166665866},{"name":"F#4","midi":66,"time":561.3893380000011,"velocity":0.8818897637795275,"duration":0.26273169166665866},{"name":"F#5","midi":78,"time":561.6671160000011,"velocity":0.8818897637795275,"duration":2.1099553916667446},{"name":"A5","midi":81,"time":561.6671160000011,"velocity":0.8818897637795275,"duration":2.1099553916667446},{"name":"F#6","midi":90,"time":561.6671160000011,"velocity":0.8818897637795275,"duration":2.1099553916667446},{"name":"A6","midi":93,"time":561.6671160000011,"velocity":0.8818897637795275,"duration":2.1099553916667446},{"name":"G3","midi":55,"time":561.9448940000011,"velocity":0.8818897637795275,"duration":0.26273169166665866},{"name":"G4","midi":67,"time":561.9448940000011,"velocity":0.8818897637795275,"duration":0.26273169166665866},{"name":"F#3","midi":54,"time":562.5004500000011,"velocity":0.8818897637795275,"duration":0.26273169166665866},{"name":"F#4","midi":66,"time":562.5004500000011,"velocity":0.8818897637795275,"duration":0.26273169166665866},{"name":"G3","midi":55,"time":563.0560060000012,"velocity":0.8818897637795275,"duration":0.26273169166665866},{"name":"G4","midi":67,"time":563.0560060000012,"velocity":0.8818897637795275,"duration":0.26273169166665866},{"name":"F#3","midi":54,"time":563.6115620000012,"velocity":0.8818897637795275,"duration":0.26273169166665866},{"name":"F#4","midi":66,"time":563.6115620000012,"velocity":0.8818897637795275,"duration":0.26273169166665866},{"name":"G3","midi":55,"time":564.1671180000012,"velocity":0.6299212598425197,"duration":0.26273169166665866},{"name":"G4","midi":67,"time":564.1671180000012,"velocity":0.6299212598425197,"duration":0.26273169166665866},{"name":"F#3","midi":54,"time":564.7226740000012,"velocity":0.6299212598425197,"duration":0.26273169166665866},{"name":"F#4","midi":66,"time":564.7226740000012,"velocity":0.6299212598425197,"duration":0.26273169166665866},{"name":"G3","midi":55,"time":565.2782300000013,"velocity":0.6299212598425197,"duration":0.26273169166665866},{"name":"G4","midi":67,"time":565.2782300000013,"velocity":0.6299212598425197,"duration":0.26273169166665866},{"name":"F#3","midi":54,"time":565.8337860000013,"velocity":0.6299212598425197,"duration":0.26273169166665866},{"name":"F#4","midi":66,"time":565.8337860000013,"velocity":0.6299212598425197,"duration":0.26273169166665866},{"name":"G3","midi":55,"time":566.3893420000013,"velocity":0.6299212598425197,"duration":0.26273169166665866},{"name":"G4","midi":67,"time":566.3893420000013,"velocity":0.6299212598425197,"duration":0.26273169166665866},{"name":"F#3","midi":54,"time":566.9448980000013,"velocity":0.6299212598425197,"duration":0.26273169166665866},{"name":"F#4","midi":66,"time":566.9448980000013,"velocity":0.6299212598425197,"duration":0.26273169166665866},{"name":"G3","midi":55,"time":567.5004540000014,"velocity":0.6299212598425197,"duration":0.26273169166665866},{"name":"G4","midi":67,"time":567.5004540000014,"velocity":0.6299212598425197,"duration":0.26273169166665866},{"name":"F#3","midi":54,"time":568.0560100000014,"velocity":0.6299212598425197,"duration":0.26273169166665866},{"name":"F#4","midi":66,"time":568.0560100000014,"velocity":0.6299212598425197,"duration":0.26273169166665866},{"name":"G3","midi":55,"time":568.6115660000014,"velocity":0.6299212598425197,"duration":0.26273169166665866},{"name":"G4","midi":67,"time":568.6115660000014,"velocity":0.6299212598425197,"duration":0.26273169166665866},{"name":"F#3","midi":54,"time":569.1671220000014,"velocity":0.6299212598425197,"duration":0.26273169166665866},{"name":"F#4","midi":66,"time":569.1671220000014,"velocity":0.6299212598425197,"duration":0.26273169166665866},{"name":"G3","midi":55,"time":569.7226780000015,"velocity":0.6299212598425197,"duration":0.26273169166665866},{"name":"G4","midi":67,"time":569.7226780000015,"velocity":0.6299212598425197,"duration":0.26273169166665866},{"name":"F#3","midi":54,"time":570.2782340000015,"velocity":0.6299212598425197,"duration":0.26273169166665866},{"name":"F#4","midi":66,"time":570.2782340000015,"velocity":0.6299212598425197,"duration":0.26273169166665866},{"name":"G3","midi":55,"time":570.8337900000015,"velocity":0.6299212598425197,"duration":0.26273169166665866},{"name":"G4","midi":67,"time":570.8337900000015,"velocity":0.6299212598425197,"duration":0.26273169166665866},{"name":"F#3","midi":54,"time":571.3893460000015,"velocity":0.6299212598425197,"duration":0.26273169166665866},{"name":"F#4","midi":66,"time":571.3893460000015,"velocity":0.6299212598425197,"duration":0.26273169166665866},{"name":"G3","midi":55,"time":571.9449020000015,"velocity":0.6299212598425197,"duration":0.26273169166665866},{"name":"G4","midi":67,"time":571.9449020000015,"velocity":0.6299212598425197,"duration":0.26273169166665866},{"name":"F#3","midi":54,"time":572.5004580000016,"velocity":0.6299212598425197,"duration":0.26273169166665866},{"name":"F#4","midi":66,"time":572.5004580000016,"velocity":0.6299212598425197,"duration":0.26273169166665866},{"name":"G3","midi":55,"time":573.0560140000016,"velocity":0.6299212598425197,"duration":0.26273169166665866},{"name":"G4","midi":67,"time":573.0560140000016,"velocity":0.6299212598425197,"duration":0.26273169166665866},{"name":"F#3","midi":54,"time":573.6115700000016,"velocity":0.6299212598425197,"duration":0.26273169166665866},{"name":"F#4","midi":66,"time":573.6115700000016,"velocity":0.6299212598425197,"duration":0.26273169166665866},{"name":"G3","midi":55,"time":574.1671260000016,"velocity":0.6299212598425197,"duration":0.26273169166665866},{"name":"G4","midi":67,"time":574.1671260000016,"velocity":0.6299212598425197,"duration":0.26273169166665866},{"name":"F#3","midi":54,"time":574.7226820000017,"velocity":0.6299212598425197,"duration":0.26273169166665866},{"name":"F#4","midi":66,"time":574.7226820000017,"velocity":0.6299212598425197,"duration":0.26273169166665866},{"name":"G3","midi":55,"time":575.2782380000017,"velocity":0.6299212598425197,"duration":0.26273169166665866},{"name":"G4","midi":67,"time":575.2782380000017,"velocity":0.6299212598425197,"duration":0.26273169166665866},{"name":"F#3","midi":54,"time":575.8337940000017,"velocity":0.6299212598425197,"duration":0.26273169166665866},{"name":"F#4","midi":66,"time":575.8337940000017,"velocity":0.6299212598425197,"duration":0.26273169166665866},{"name":"G3","midi":55,"time":576.3893500000017,"velocity":0.6299212598425197,"duration":0.26273169166665866},{"name":"G4","midi":67,"time":576.3893500000017,"velocity":0.6299212598425197,"duration":0.26273169166665866},{"name":"F#3","midi":54,"time":576.9449060000018,"velocity":0.6299212598425197,"duration":0.26273169166665866},{"name":"F#4","midi":66,"time":576.9449060000018,"velocity":0.6299212598425197,"duration":0.26273169166665866},{"name":"G3","midi":55,"time":577.5004620000018,"velocity":0.6299212598425197,"duration":0.26273169166665866},{"name":"G4","midi":67,"time":577.5004620000018,"velocity":0.6299212598425197,"duration":0.26273169166665866},{"name":"F#3","midi":54,"time":578.0560180000018,"velocity":0.6299212598425197,"duration":0.26273169166665866},{"name":"F#4","midi":66,"time":578.0560180000018,"velocity":0.6299212598425197,"duration":0.26273169166665866},{"name":"G3","midi":55,"time":578.6115740000018,"velocity":0.6299212598425197,"duration":0.26273169166665866},{"name":"G4","midi":67,"time":578.6115740000018,"velocity":0.6299212598425197,"duration":0.26273169166665866},{"name":"F#3","midi":54,"time":579.1671300000019,"velocity":0.6299212598425197,"duration":0.26273169166665866},{"name":"F#4","midi":66,"time":579.1671300000019,"velocity":0.6299212598425197,"duration":0.26273169166665866},{"name":"G3","midi":55,"time":579.7226860000019,"velocity":0.6299212598425197,"duration":0.26273169166665866},{"name":"G4","midi":67,"time":579.7226860000019,"velocity":0.6299212598425197,"duration":0.26273169166665866},{"name":"F#3","midi":54,"time":580.2782420000019,"velocity":0.6299212598425197,"duration":0.26273169166665866},{"name":"F#4","midi":66,"time":580.2782420000019,"velocity":0.6299212598425197,"duration":0.26273169166665866},{"name":"G3","midi":55,"time":580.8337980000019,"velocity":0.6299212598425197,"duration":0.26273169166665866},{"name":"G4","midi":67,"time":580.8337980000019,"velocity":0.6299212598425197,"duration":0.26273169166665866},{"name":"F#3","midi":54,"time":581.389354000002,"velocity":0.6299212598425197,"duration":0.26273169166665866},{"name":"F#4","midi":66,"time":581.389354000002,"velocity":0.6299212598425197,"duration":0.26273169166665866},{"name":"G3","midi":55,"time":581.944910000002,"velocity":0.5039370078740157,"duration":0.26273169166665866},{"name":"G4","midi":67,"time":581.944910000002,"velocity":0.5039370078740157,"duration":0.26273169166665866},{"name":"F#3","midi":54,"time":582.500466000002,"velocity":0.5039370078740157,"duration":0.26273169166665866},{"name":"F#4","midi":66,"time":582.500466000002,"velocity":0.5039370078740157,"duration":0.26273169166665866},{"name":"G3","midi":55,"time":583.056022000002,"velocity":0.5039370078740157,"duration":0.26273169166665866},{"name":"G4","midi":67,"time":583.056022000002,"velocity":0.5039370078740157,"duration":0.26273169166665866},{"name":"F#3","midi":54,"time":583.611578000002,"velocity":0.5039370078740157,"duration":0.26273169166665866},{"name":"F#4","midi":66,"time":583.611578000002,"velocity":0.5039370078740157,"duration":0.26273169166665866},{"name":"G3","midi":55,"time":584.1671340000021,"velocity":0.5039370078740157,"duration":0.26273169166665866},{"name":"G4","midi":67,"time":584.1671340000021,"velocity":0.5039370078740157,"duration":0.26273169166665866},{"name":"F#3","midi":54,"time":584.7226900000021,"velocity":0.5039370078740157,"duration":0.26273169166665866},{"name":"F#4","midi":66,"time":584.7226900000021,"velocity":0.5039370078740157,"duration":0.26273169166665866},{"name":"G3","midi":55,"time":585.2782460000021,"velocity":0.5039370078740157,"duration":0.26273169166665866},{"name":"G4","midi":67,"time":585.2782460000021,"velocity":0.5039370078740157,"duration":0.26273169166665866},{"name":"F#3","midi":54,"time":585.8338020000022,"velocity":0.5039370078740157,"duration":0.26273169166665866},{"name":"F#4","midi":66,"time":585.8338020000022,"velocity":0.5039370078740157,"duration":0.26273169166665866},{"name":"G3","midi":55,"time":586.3893580000022,"velocity":0.5039370078740157,"duration":0.26273169166665866},{"name":"G4","midi":67,"time":586.3893580000022,"velocity":0.5039370078740157,"duration":0.26273169166665866},{"name":"F#3","midi":54,"time":586.9449140000022,"velocity":0.5039370078740157,"duration":0.26273169166665866},{"name":"F#4","midi":66,"time":586.9449140000022,"velocity":0.5039370078740157,"duration":0.26273169166665866},{"name":"G3","midi":55,"time":587.5004700000022,"velocity":0.5039370078740157,"duration":0.26273169166665866},{"name":"G4","midi":67,"time":587.5004700000022,"velocity":0.5039370078740157,"duration":0.26273169166665866},{"name":"F#3","midi":54,"time":588.0560260000022,"velocity":0.5039370078740157,"duration":0.26273169166665866},{"name":"F#4","midi":66,"time":588.0560260000022,"velocity":0.5039370078740157,"duration":0.26273169166665866},{"name":"G3","midi":55,"time":588.6115820000023,"velocity":0.5039370078740157,"duration":0.26273169166665866},{"name":"G4","midi":67,"time":588.6115820000023,"velocity":0.5039370078740157,"duration":0.26273169166665866},{"name":"F#3","midi":54,"time":589.1671380000023,"velocity":0.5039370078740157,"duration":0.26273169166665866},{"name":"F#4","midi":66,"time":589.1671380000023,"velocity":0.5039370078740157,"duration":0.26273169166665866},{"name":"G3","midi":55,"time":589.7226940000023,"velocity":0.5039370078740157,"duration":0.26273169166665866},{"name":"G4","midi":67,"time":589.7226940000023,"velocity":0.5039370078740157,"duration":0.26273169166665866},{"name":"F#3","midi":54,"time":590.2782500000023,"velocity":0.5039370078740157,"duration":0.26273169166665866},{"name":"F#4","midi":66,"time":590.2782500000023,"velocity":0.5039370078740157,"duration":0.26273169166665866},{"name":"G3","midi":55,"time":590.8338060000024,"velocity":0.5039370078740157,"duration":0.26273169166665866},{"name":"G4","midi":67,"time":590.8338060000024,"velocity":0.5039370078740157,"duration":0.26273169166665866},{"name":"F#3","midi":54,"time":591.3893620000024,"velocity":0.5039370078740157,"duration":0.26273169166665866},{"name":"F#4","midi":66,"time":591.3893620000024,"velocity":0.5039370078740157,"duration":0.26273169166665866},{"name":"G3","midi":55,"time":591.9449180000024,"velocity":0.5039370078740157,"duration":0.26273169166665866},{"name":"G4","midi":67,"time":591.9449180000024,"velocity":0.5039370078740157,"duration":0.26273169166665866},{"name":"F#3","midi":54,"time":592.5004740000024,"velocity":0.5039370078740157,"duration":0.26273169166665866},{"name":"F#4","midi":66,"time":592.5004740000024,"velocity":0.5039370078740157,"duration":0.26273169166665866},{"name":"G3","midi":55,"time":593.0560300000025,"velocity":0.5039370078740157,"duration":0.26273169166665866},{"name":"G4","midi":67,"time":593.0560300000025,"velocity":0.5039370078740157,"duration":0.26273169166665866},{"name":"F#3","midi":54,"time":593.6115860000025,"velocity":0.5039370078740157,"duration":0.26273169166665866},{"name":"F#4","midi":66,"time":593.6115860000025,"velocity":0.5039370078740157,"duration":0.26273169166665866},{"name":"G3","midi":55,"time":594.1671420000025,"velocity":0.5039370078740157,"duration":0.26273169166665866},{"name":"G4","midi":67,"time":594.1671420000025,"velocity":0.5039370078740157,"duration":0.26273169166665866},{"name":"F#3","midi":54,"time":594.7226980000025,"velocity":0.5039370078740157,"duration":0.26273169166665866},{"name":"F#4","midi":66,"time":594.7226980000025,"velocity":0.5039370078740157,"duration":0.26273169166665866},{"name":"G3","midi":55,"time":595.2782540000026,"velocity":0.5039370078740157,"duration":0.26273169166665866},{"name":"G4","midi":67,"time":595.2782540000026,"velocity":0.5039370078740157,"duration":0.26273169166665866},{"name":"F#3","midi":54,"time":595.8338100000026,"velocity":0.5039370078740157,"duration":0.26273169166665866},{"name":"F#4","midi":66,"time":595.8338100000026,"velocity":0.5039370078740157,"duration":0.26273169166665866},{"name":"G3","midi":55,"time":596.3893660000026,"velocity":0.5039370078740157,"duration":0.26273169166665866},{"name":"G4","midi":67,"time":596.3893660000026,"velocity":0.5039370078740157,"duration":0.26273169166665866},{"name":"F#3","midi":54,"time":596.9449220000026,"velocity":0.5039370078740157,"duration":0.26273169166665866},{"name":"F#4","midi":66,"time":596.9449220000026,"velocity":0.5039370078740157,"duration":0.26273169166665866},{"name":"G3","midi":55,"time":597.5004780000027,"velocity":0.5039370078740157,"duration":0.26273169166665866},{"name":"G4","midi":67,"time":597.5004780000027,"velocity":0.5039370078740157,"duration":0.26273169166665866},{"name":"F#3","midi":54,"time":598.0560340000027,"velocity":0.5039370078740157,"duration":0.26273169166665866},{"name":"F#4","midi":66,"time":598.0560340000027,"velocity":0.5039370078740157,"duration":0.26273169166665866},{"name":"G3","midi":55,"time":598.6115900000027,"velocity":0.5039370078740157,"duration":0.26273169166665866},{"name":"G4","midi":67,"time":598.6115900000027,"velocity":0.5039370078740157,"duration":0.26273169166665866},{"name":"F#3","midi":54,"time":599.1671460000027,"velocity":0.5039370078740157,"duration":0.26273169166665866},{"name":"F#4","midi":66,"time":599.1671460000027,"velocity":0.5039370078740157,"duration":0.26273169166665866},{"name":"G3","midi":55,"time":599.7227020000028,"velocity":0.5039370078740157,"duration":0.26273169166665866},{"name":"G4","midi":67,"time":599.7227020000028,"velocity":0.5039370078740157,"duration":0.26273169166665866},{"name":"F#3","midi":54,"time":600.2782580000028,"velocity":0.5039370078740157,"duration":0.26273169166665866},{"name":"F#4","midi":66,"time":600.2782580000028,"velocity":0.5039370078740157,"duration":0.26273169166665866},{"name":"G3","midi":55,"time":600.8338140000028,"velocity":0.5039370078740157,"duration":0.26273169166665866},{"name":"G4","midi":67,"time":600.8338140000028,"velocity":0.5039370078740157,"duration":0.26273169166665866},{"name":"F#3","midi":54,"time":601.3893700000028,"velocity":0.5039370078740157,"duration":0.26273169166665866},{"name":"F#4","midi":66,"time":601.3893700000028,"velocity":0.5039370078740157,"duration":0.26273169166665866},{"name":"G3","midi":55,"time":601.9449260000029,"velocity":0.5039370078740157,"duration":0.26273169166665866},{"name":"G4","midi":67,"time":601.9449260000029,"velocity":0.5039370078740157,"duration":0.26273169166665866},{"name":"F#3","midi":54,"time":602.5004820000029,"velocity":0.5039370078740157,"duration":0.26273169166665866},{"name":"F#4","midi":66,"time":602.5004820000029,"velocity":0.5039370078740157,"duration":0.26273169166665866},{"name":"G3","midi":55,"time":603.0560380000029,"velocity":0.5039370078740157,"duration":0.26273169166665866},{"name":"G4","midi":67,"time":603.0560380000029,"velocity":0.5039370078740157,"duration":0.26273169166665866},{"name":"F#3","midi":54,"time":603.6115940000029,"velocity":0.5039370078740157,"duration":0.26273169166665866},{"name":"F#4","midi":66,"time":603.6115940000029,"velocity":0.5039370078740157,"duration":0.26273169166665866},{"name":"G3","midi":55,"time":604.167150000003,"velocity":0.5039370078740157,"duration":0.26273169166665866},{"name":"G4","midi":67,"time":604.167150000003,"velocity":0.5039370078740157,"duration":0.26273169166665866},{"name":"F#3","midi":54,"time":604.722706000003,"velocity":0.5039370078740157,"duration":0.26273169166665866},{"name":"F#4","midi":66,"time":604.722706000003,"velocity":0.5039370078740157,"duration":0.26273169166665866},{"name":"G3","midi":55,"time":605.278262000003,"velocity":0.5039370078740157,"duration":0.26273169166665866},{"name":"G4","midi":67,"time":605.278262000003,"velocity":0.5039370078740157,"duration":0.26273169166665866},{"name":"F#3","midi":54,"time":605.833818000003,"velocity":0.5039370078740157,"duration":0.26273169166665866},{"name":"F#4","midi":66,"time":605.833818000003,"velocity":0.5039370078740157,"duration":0.26273169166665866},{"name":"G3","midi":55,"time":606.389374000003,"velocity":0.5039370078740157,"duration":0.26273169166665866},{"name":"G4","midi":67,"time":606.389374000003,"velocity":0.5039370078740157,"duration":0.26273169166665866},{"name":"F#3","midi":54,"time":606.9449300000031,"velocity":0.5039370078740157,"duration":0.26273169166665866},{"name":"F#4","midi":66,"time":606.9449300000031,"velocity":0.5039370078740157,"duration":0.26273169166665866},{"name":"G3","midi":55,"time":607.5004860000031,"velocity":0.5039370078740157,"duration":0.26273169166665866},{"name":"G4","midi":67,"time":607.5004860000031,"velocity":0.5039370078740157,"duration":0.26273169166665866},{"name":"F#3","midi":54,"time":608.0560420000031,"velocity":0.5039370078740157,"duration":0.26273169166665866},{"name":"F#4","midi":66,"time":608.0560420000031,"velocity":0.5039370078740157,"duration":0.26273169166665866},{"name":"G3","midi":55,"time":608.6115980000031,"velocity":0.5039370078740157,"duration":0.26273169166665866},{"name":"G4","midi":67,"time":608.6115980000031,"velocity":0.5039370078740157,"duration":0.26273169166665866},{"name":"F#3","midi":54,"time":609.1671540000032,"velocity":0.5039370078740157,"duration":0.26273169166665866},{"name":"F#4","midi":66,"time":609.1671540000032,"velocity":0.5039370078740157,"duration":0.26273169166665866},{"name":"G3","midi":55,"time":609.7227100000032,"velocity":0.5039370078740157,"duration":0.26273169166665866},{"name":"G4","midi":67,"time":609.7227100000032,"velocity":0.5039370078740157,"duration":0.26273169166665866},{"name":"F#3","midi":54,"time":610.2782660000032,"velocity":0.5039370078740157,"duration":0.26273169166665866},{"name":"F#4","midi":66,"time":610.2782660000032,"velocity":0.5039370078740157,"duration":0.26273169166665866},{"name":"G3","midi":55,"time":610.8338220000032,"velocity":0.5039370078740157,"duration":0.26273169166665866},{"name":"G4","midi":67,"time":610.8338220000032,"velocity":0.5039370078740157,"duration":0.26273169166665866},{"name":"F#3","midi":54,"time":611.3893780000033,"velocity":0.5039370078740157,"duration":0.26273169166665866},{"name":"F#4","midi":66,"time":611.3893780000033,"velocity":0.5039370078740157,"duration":0.26273169166665866},{"name":"G3","midi":55,"time":611.9449340000033,"velocity":0.5039370078740157,"duration":0.26273169166665866},{"name":"G4","midi":67,"time":611.9449340000033,"velocity":0.5039370078740157,"duration":0.26273169166665866},{"name":"F#3","midi":54,"time":612.5004900000033,"velocity":0.5039370078740157,"duration":0.26273169166665866},{"name":"F#4","midi":66,"time":612.5004900000033,"velocity":0.5039370078740157,"duration":0.26273169166665866},{"name":"G3","midi":55,"time":613.0560460000033,"velocity":0.5039370078740157,"duration":0.26273169166665866},{"name":"G4","midi":67,"time":613.0560460000033,"velocity":0.5039370078740157,"duration":0.26273169166665866},{"name":"F#3","midi":54,"time":613.6116020000034,"velocity":0.5039370078740157,"duration":0.26273169166665866},{"name":"F#4","midi":66,"time":613.6116020000034,"velocity":0.5039370078740157,"duration":0.26273169166665866},{"name":"G3","midi":55,"time":614.1671580000034,"velocity":0.5039370078740157,"duration":0.26273169166665866},{"name":"G4","midi":67,"time":614.1671580000034,"velocity":0.5039370078740157,"duration":0.26273169166665866},{"name":"F#3","midi":54,"time":614.7227140000034,"velocity":0.5039370078740157,"duration":0.26273169166665866},{"name":"F#4","midi":66,"time":614.7227140000034,"velocity":0.5039370078740157,"duration":0.26273169166665866},{"name":"G3","midi":55,"time":615.2782700000034,"velocity":0.5039370078740157,"duration":0.26273169166665866},{"name":"G4","midi":67,"time":615.2782700000034,"velocity":0.5039370078740157,"duration":0.26273169166665866},{"name":"F#3","midi":54,"time":615.8338260000035,"velocity":0.5039370078740157,"duration":0.26273169166665866},{"name":"F#4","midi":66,"time":615.8338260000035,"velocity":0.5039370078740157,"duration":0.26273169166665866},{"name":"G3","midi":55,"time":616.3893820000035,"velocity":0.5039370078740157,"duration":0.26273169166665866},{"name":"G4","midi":67,"time":616.3893820000035,"velocity":0.5039370078740157,"duration":0.26273169166665866},{"name":"F#3","midi":54,"time":616.9449380000035,"velocity":0.5039370078740157,"duration":0.26273169166665866},{"name":"F#4","midi":66,"time":616.9449380000035,"velocity":0.5039370078740157,"duration":0.26273169166665866},{"name":"G3","midi":55,"time":617.5004940000035,"velocity":0.5039370078740157,"duration":0.26273169166665866},{"name":"G4","midi":67,"time":617.5004940000035,"velocity":0.5039370078740157,"duration":0.26273169166665866},{"name":"F#3","midi":54,"time":618.0560500000036,"velocity":0.5039370078740157,"duration":0.26273169166665866},{"name":"F#4","midi":66,"time":618.0560500000036,"velocity":0.5039370078740157,"duration":0.26273169166665866},{"name":"G3","midi":55,"time":618.6116060000036,"velocity":0.5039370078740157,"duration":0.26273169166665866},{"name":"G4","midi":67,"time":618.6116060000036,"velocity":0.5039370078740157,"duration":0.26273169166665866},{"name":"F#3","midi":54,"time":619.1671620000036,"velocity":0.5039370078740157,"duration":0.26273169166665866},{"name":"F#4","midi":66,"time":619.1671620000036,"velocity":0.5039370078740157,"duration":0.26273169166665866},{"name":"G3","midi":55,"time":619.7227180000036,"velocity":0.5039370078740157,"duration":0.26273169166665866},{"name":"G4","midi":67,"time":619.7227180000036,"velocity":0.5039370078740157,"duration":0.26273169166665866},{"name":"F#3","midi":54,"time":620.2782740000036,"velocity":0.5039370078740157,"duration":0.26273169166665866},{"name":"F#4","midi":66,"time":620.2782740000036,"velocity":0.5039370078740157,"duration":0.26273169166665866},{"name":"G3","midi":55,"time":620.8338300000037,"velocity":0.5039370078740157,"duration":0.26273169166665866},{"name":"G4","midi":67,"time":620.8338300000037,"velocity":0.5039370078740157,"duration":0.26273169166665866},{"name":"F#3","midi":54,"time":621.3893860000037,"velocity":0.5039370078740157,"duration":0.26273169166665866},{"name":"F#4","midi":66,"time":621.3893860000037,"velocity":0.5039370078740157,"duration":0.26273169166665866},{"name":"G3","midi":55,"time":621.9449420000037,"velocity":0.5039370078740157,"duration":0.26273169166665866},{"name":"G4","midi":67,"time":621.9449420000037,"velocity":0.5039370078740157,"duration":0.26273169166665866},{"name":"F#3","midi":54,"time":622.5004980000037,"velocity":0.5039370078740157,"duration":0.26273169166665866},{"name":"F#4","midi":66,"time":622.5004980000037,"velocity":0.5039370078740157,"duration":0.26273169166665866},{"name":"G3","midi":55,"time":623.0560540000038,"velocity":0.5039370078740157,"duration":0.26273169166665866},{"name":"G4","midi":67,"time":623.0560540000038,"velocity":0.5039370078740157,"duration":0.26273169166665866},{"name":"F#3","midi":54,"time":623.6116100000038,"velocity":0.5039370078740157,"duration":0.26273169166665866},{"name":"F#4","midi":66,"time":623.6116100000038,"velocity":0.5039370078740157,"duration":0.26273169166665866},{"name":"G3","midi":55,"time":624.1671660000038,"velocity":0.5039370078740157,"duration":0.26273169166665866},{"name":"G4","midi":67,"time":624.1671660000038,"velocity":0.5039370078740157,"duration":0.26273169166665866},{"name":"F#3","midi":54,"time":624.7227220000038,"velocity":0.5039370078740157,"duration":0.26273169166665866},{"name":"F#4","midi":66,"time":624.7227220000038,"velocity":0.5039370078740157,"duration":0.26273169166665866},{"name":"G3","midi":55,"time":625.2782780000039,"velocity":0.5039370078740157,"duration":0.26273169166665866},{"name":"G4","midi":67,"time":625.2782780000039,"velocity":0.5039370078740157,"duration":0.26273169166665866},{"name":"F#3","midi":54,"time":625.8338340000039,"velocity":0.5039370078740157,"duration":0.26273169166665866},{"name":"F#4","midi":66,"time":625.8338340000039,"velocity":0.5039370078740157,"duration":0.26273169166665866},{"name":"G3","midi":55,"time":626.3893900000039,"velocity":0.5039370078740157,"duration":0.26273169166665866},{"name":"G4","midi":67,"time":626.3893900000039,"velocity":0.5039370078740157,"duration":0.26273169166665866},{"name":"F#3","midi":54,"time":626.9449460000039,"velocity":0.5039370078740157,"duration":0.26273169166665866},{"name":"F#4","midi":66,"time":626.9449460000039,"velocity":0.5039370078740157,"duration":0.26273169166665866},{"name":"G3","midi":55,"time":627.500502000004,"velocity":0.5039370078740157,"duration":0.26273169166665866},{"name":"G4","midi":67,"time":627.500502000004,"velocity":0.5039370078740157,"duration":0.26273169166665866},{"name":"F#3","midi":54,"time":628.056058000004,"velocity":0.5039370078740157,"duration":0.26273169166665866},{"name":"F#4","midi":66,"time":628.056058000004,"velocity":0.5039370078740157,"duration":0.26273169166665866},{"name":"G3","midi":55,"time":628.611614000004,"velocity":0.5039370078740157,"duration":0.26273169166665866},{"name":"G4","midi":67,"time":628.611614000004,"velocity":0.5039370078740157,"duration":0.26273169166665866},{"name":"F#3","midi":54,"time":629.167170000004,"velocity":0.5039370078740157,"duration":0.26273169166665866},{"name":"F#4","midi":66,"time":629.167170000004,"velocity":0.5039370078740157,"duration":0.26273169166665866},{"name":"G3","midi":55,"time":629.7227260000041,"velocity":0.5039370078740157,"duration":0.26273169166665866},{"name":"G4","midi":67,"time":629.7227260000041,"velocity":0.5039370078740157,"duration":0.26273169166665866},{"name":"F#3","midi":54,"time":630.2782820000041,"velocity":0.5039370078740157,"duration":0.26273169166665866},{"name":"F#4","midi":66,"time":630.2782820000041,"velocity":0.5039370078740157,"duration":0.26273169166665866},{"name":"G3","midi":55,"time":630.8338380000041,"velocity":0.5039370078740157,"duration":0.26273169166665866},{"name":"G4","midi":67,"time":630.8338380000041,"velocity":0.5039370078740157,"duration":0.26273169166665866},{"name":"F#3","midi":54,"time":631.3893940000041,"velocity":0.5039370078740157,"duration":0.26273169166665866},{"name":"F#4","midi":66,"time":631.3893940000041,"velocity":0.5039370078740157,"duration":0.26273169166665866},{"name":"G3","midi":55,"time":631.9449500000042,"velocity":0.5039370078740157,"duration":0.26273169166665866},{"name":"G4","midi":67,"time":631.9449500000042,"velocity":0.5039370078740157,"duration":0.26273169166665866},{"name":"F#3","midi":54,"time":632.5005060000042,"velocity":0.5039370078740157,"duration":0.26273169166665866},{"name":"F#4","midi":66,"time":632.5005060000042,"velocity":0.5039370078740157,"duration":0.26273169166665866},{"name":"G3","midi":55,"time":633.0560620000042,"velocity":0.5039370078740157,"duration":0.26273169166665866},{"name":"G4","midi":67,"time":633.0560620000042,"velocity":0.5039370078740157,"duration":0.26273169166665866},{"name":"F#3","midi":54,"time":633.6116180000042,"velocity":0.5039370078740157,"duration":0.26273169166665866},{"name":"F#4","midi":66,"time":633.6116180000042,"velocity":0.5039370078740157,"duration":0.26273169166665866},{"name":"G3","midi":55,"time":634.1671740000043,"velocity":0.5039370078740157,"duration":0.26273169166665866},{"name":"G4","midi":67,"time":634.1671740000043,"velocity":0.5039370078740157,"duration":0.26273169166665866},{"name":"F#3","midi":54,"time":634.7227300000043,"velocity":0.5039370078740157,"duration":0.26273169166665866},{"name":"F#4","midi":66,"time":634.7227300000043,"velocity":0.5039370078740157,"duration":0.26273169166665866},{"name":"G3","midi":55,"time":670.8338700000044,"velocity":0.6299212598425197,"duration":0.26273169166665866},{"name":"G4","midi":67,"time":670.8338700000044,"velocity":0.6299212598425197,"duration":0.26273169166665866},{"name":"F#3","midi":54,"time":671.3894260000044,"velocity":0.6299212598425197,"duration":0.26273169166665866},{"name":"F#4","midi":66,"time":671.3894260000044,"velocity":0.6299212598425197,"duration":0.26273169166665866},{"name":"G3","midi":55,"time":671.9449820000044,"velocity":0.6299212598425197,"duration":0.26273169166665866},{"name":"G4","midi":67,"time":671.9449820000044,"velocity":0.6299212598425197,"duration":0.26273169166665866},{"name":"F#3","midi":54,"time":672.5005380000044,"velocity":0.6299212598425197,"duration":0.26273169166665866},{"name":"F#4","midi":66,"time":672.5005380000044,"velocity":0.6299212598425197,"duration":0.26273169166665866},{"name":"G3","midi":55,"time":673.0560940000045,"velocity":0.6299212598425197,"duration":0.26273169166665866},{"name":"G4","midi":67,"time":673.0560940000045,"velocity":0.6299212598425197,"duration":0.26273169166665866},{"name":"F#3","midi":54,"time":673.6116500000045,"velocity":0.6299212598425197,"duration":0.26273169166665866},{"name":"F#4","midi":66,"time":673.6116500000045,"velocity":0.6299212598425197,"duration":0.26273169166665866},{"name":"G3","midi":55,"time":674.1672060000045,"velocity":0.6299212598425197,"duration":0.26273169166665866},{"name":"G4","midi":67,"time":674.1672060000045,"velocity":0.6299212598425197,"duration":0.26273169166665866},{"name":"F#3","midi":54,"time":674.7227620000045,"velocity":0.6299212598425197,"duration":0.26273169166665866},{"name":"F#4","midi":66,"time":674.7227620000045,"velocity":0.6299212598425197,"duration":0.26273169166665866},{"name":"G3","midi":55,"time":675.2783180000046,"velocity":0.6299212598425197,"duration":0.26273169166665866},{"name":"G4","midi":67,"time":675.2783180000046,"velocity":0.6299212598425197,"duration":0.26273169166665866},{"name":"F#3","midi":54,"time":675.8338740000046,"velocity":0.6299212598425197,"duration":0.26273169166665866},{"name":"F#4","midi":66,"time":675.8338740000046,"velocity":0.6299212598425197,"duration":0.26273169166665866},{"name":"G3","midi":55,"time":676.3894300000046,"velocity":0.6299212598425197,"duration":0.26273169166665866},{"name":"G4","midi":67,"time":676.3894300000046,"velocity":0.6299212598425197,"duration":0.26273169166665866},{"name":"F#3","midi":54,"time":676.9449860000046,"velocity":0.6299212598425197,"duration":0.26273169166665866},{"name":"F#4","midi":66,"time":676.9449860000046,"velocity":0.6299212598425197,"duration":0.26273169166665866},{"name":"G3","midi":55,"time":677.5005420000047,"velocity":0.6299212598425197,"duration":0.26273169166665866},{"name":"G4","midi":67,"time":677.5005420000047,"velocity":0.6299212598425197,"duration":0.26273169166665866},{"name":"F#3","midi":54,"time":678.0560980000047,"velocity":0.6299212598425197,"duration":0.26273169166665866},{"name":"F#4","midi":66,"time":678.0560980000047,"velocity":0.6299212598425197,"duration":0.26273169166665866},{"name":"G3","midi":55,"time":678.6116540000047,"velocity":0.6299212598425197,"duration":0.26273169166665866},{"name":"G4","midi":67,"time":678.6116540000047,"velocity":0.6299212598425197,"duration":0.26273169166665866},{"name":"F#3","midi":54,"time":679.1672100000047,"velocity":0.6299212598425197,"duration":0.26273169166665866},{"name":"F#4","midi":66,"time":679.1672100000047,"velocity":0.6299212598425197,"duration":0.26273169166665866},{"name":"G3","midi":55,"time":679.7227660000048,"velocity":0.6299212598425197,"duration":0.26273169166665866},{"name":"G4","midi":67,"time":679.7227660000048,"velocity":0.6299212598425197,"duration":0.26273169166665866},{"name":"F#3","midi":54,"time":680.2783220000048,"velocity":0.6299212598425197,"duration":0.26273169166665866},{"name":"F#4","midi":66,"time":680.2783220000048,"velocity":0.6299212598425197,"duration":0.26273169166665866},{"name":"G3","midi":55,"time":680.8338780000048,"velocity":0.6299212598425197,"duration":0.26273169166665866},{"name":"G4","midi":67,"time":680.8338780000048,"velocity":0.6299212598425197,"duration":0.26273169166665866},{"name":"F#3","midi":54,"time":681.3894340000048,"velocity":0.6299212598425197,"duration":0.26273169166665866},{"name":"F#4","midi":66,"time":681.3894340000048,"velocity":0.6299212598425197,"duration":0.26273169166665866},{"name":"G3","midi":55,"time":681.9449900000049,"velocity":0.6299212598425197,"duration":0.26273169166665866},{"name":"G4","midi":67,"time":681.9449900000049,"velocity":0.6299212598425197,"duration":0.26273169166665866},{"name":"F#3","midi":54,"time":682.5005460000049,"velocity":0.6299212598425197,"duration":0.26273169166665866},{"name":"F#4","midi":66,"time":682.5005460000049,"velocity":0.6299212598425197,"duration":0.26273169166665866},{"name":"G3","midi":55,"time":683.0561020000049,"velocity":0.6299212598425197,"duration":0.26273169166665866},{"name":"G4","midi":67,"time":683.0561020000049,"velocity":0.6299212598425197,"duration":0.26273169166665866},{"name":"F#3","midi":54,"time":683.6116580000049,"velocity":0.6299212598425197,"duration":0.26273169166665866},{"name":"F#4","midi":66,"time":683.6116580000049,"velocity":0.6299212598425197,"duration":0.26273169166665866},{"name":"G3","midi":55,"time":684.167214000005,"velocity":0.6299212598425197,"duration":0.26273169166665866},{"name":"G4","midi":67,"time":684.167214000005,"velocity":0.6299212598425197,"duration":0.26273169166665866},{"name":"F#3","midi":54,"time":684.722770000005,"velocity":0.6299212598425197,"duration":0.26273169166665866},{"name":"F#4","midi":66,"time":684.722770000005,"velocity":0.6299212598425197,"duration":0.26273169166665866},{"name":"G3","midi":55,"time":685.278326000005,"velocity":0.6299212598425197,"duration":0.26273169166665866},{"name":"G4","midi":67,"time":685.278326000005,"velocity":0.6299212598425197,"duration":0.26273169166665866},{"name":"F#3","midi":54,"time":685.833882000005,"velocity":0.6299212598425197,"duration":0.26273169166665866},{"name":"F#4","midi":66,"time":685.833882000005,"velocity":0.6299212598425197,"duration":0.26273169166665866},{"name":"G3","midi":55,"time":686.389438000005,"velocity":0.6299212598425197,"duration":0.26273169166665866},{"name":"G4","midi":67,"time":686.389438000005,"velocity":0.6299212598425197,"duration":0.26273169166665866},{"name":"F#3","midi":54,"time":686.9449940000051,"velocity":0.6299212598425197,"duration":0.26273169166665866},{"name":"F#4","midi":66,"time":686.9449940000051,"velocity":0.6299212598425197,"duration":0.26273169166665866},{"name":"G3","midi":55,"time":687.5005500000051,"velocity":0.6299212598425197,"duration":0.26273169166665866},{"name":"G4","midi":67,"time":687.5005500000051,"velocity":0.6299212598425197,"duration":0.26273169166665866},{"name":"F#3","midi":54,"time":688.0561060000051,"velocity":0.6299212598425197,"duration":0.26273169166665866},{"name":"F#4","midi":66,"time":688.0561060000051,"velocity":0.6299212598425197,"duration":0.26273169166665866},{"name":"G3","midi":55,"time":688.6116620000051,"velocity":0.6299212598425197,"duration":0.26273169166665866},{"name":"G4","midi":67,"time":688.6116620000051,"velocity":0.6299212598425197,"duration":0.26273169166665866},{"name":"F#3","midi":54,"time":689.1672180000052,"velocity":0.6299212598425197,"duration":0.26273169166665866},{"name":"F#4","midi":66,"time":689.1672180000052,"velocity":0.6299212598425197,"duration":0.26273169166665866},{"name":"G3","midi":55,"time":689.7227740000052,"velocity":0.6299212598425197,"duration":0.26273169166665866},{"name":"G4","midi":67,"time":689.7227740000052,"velocity":0.6299212598425197,"duration":0.26273169166665866},{"name":"F#3","midi":54,"time":690.2783300000052,"velocity":0.6299212598425197,"duration":0.26273169166665866},{"name":"F#4","midi":66,"time":690.2783300000052,"velocity":0.6299212598425197,"duration":0.26273169166665866},{"name":"G3","midi":55,"time":690.8338860000052,"velocity":0.6299212598425197,"duration":0.26273169166665866},{"name":"G4","midi":67,"time":690.8338860000052,"velocity":0.6299212598425197,"duration":0.26273169166665866},{"name":"F#3","midi":54,"time":691.3894420000053,"velocity":0.6299212598425197,"duration":0.26273169166665866},{"name":"F#4","midi":66,"time":691.3894420000053,"velocity":0.6299212598425197,"duration":0.26273169166665866},{"name":"G3","midi":55,"time":691.9449980000053,"velocity":0.6299212598425197,"duration":0.26273169166665866},{"name":"G4","midi":67,"time":691.9449980000053,"velocity":0.6299212598425197,"duration":0.26273169166665866},{"name":"F#3","midi":54,"time":692.5005540000053,"velocity":0.6299212598425197,"duration":0.26273169166665866},{"name":"F#4","midi":66,"time":692.5005540000053,"velocity":0.6299212598425197,"duration":0.26273169166665866},{"name":"G3","midi":55,"time":693.0561100000053,"velocity":0.6299212598425197,"duration":0.26273169166665866},{"name":"G4","midi":67,"time":693.0561100000053,"velocity":0.6299212598425197,"duration":0.26273169166665866},{"name":"F#3","midi":54,"time":693.6116660000054,"velocity":0.6299212598425197,"duration":0.26273169166665866},{"name":"F#4","midi":66,"time":693.6116660000054,"velocity":0.6299212598425197,"duration":0.26273169166665866},{"name":"G3","midi":55,"time":694.1672220000054,"velocity":0.6299212598425197,"duration":0.26273169166665866},{"name":"G4","midi":67,"time":694.1672220000054,"velocity":0.6299212598425197,"duration":0.26273169166665866},{"name":"F#3","midi":54,"time":694.7227780000054,"velocity":0.6299212598425197,"duration":0.26273169166665866},{"name":"F#4","midi":66,"time":694.7227780000054,"velocity":0.6299212598425197,"duration":0.26273169166665866},{"name":"G3","midi":55,"time":695.2783340000054,"velocity":0.6299212598425197,"duration":0.26273169166665866},{"name":"G4","midi":67,"time":695.2783340000054,"velocity":0.6299212598425197,"duration":0.26273169166665866},{"name":"F#3","midi":54,"time":695.8338900000055,"velocity":0.6299212598425197,"duration":0.26273169166665866},{"name":"F#4","midi":66,"time":695.8338900000055,"velocity":0.6299212598425197,"duration":0.26273169166665866},{"name":"G3","midi":55,"time":696.3894460000055,"velocity":0.6299212598425197,"duration":0.26273169166665866},{"name":"G4","midi":67,"time":696.3894460000055,"velocity":0.6299212598425197,"duration":0.26273169166665866},{"name":"F#3","midi":54,"time":696.9450020000055,"velocity":0.6299212598425197,"duration":0.26273169166665866},{"name":"F#4","midi":66,"time":696.9450020000055,"velocity":0.6299212598425197,"duration":0.26273169166665866},{"name":"G3","midi":55,"time":697.5005580000055,"velocity":0.6299212598425197,"duration":0.26273169166665866},{"name":"G4","midi":67,"time":697.5005580000055,"velocity":0.6299212598425197,"duration":0.26273169166665866},{"name":"F#3","midi":54,"time":698.0561140000056,"velocity":0.6299212598425197,"duration":0.26273169166665866},{"name":"F#4","midi":66,"time":698.0561140000056,"velocity":0.6299212598425197,"duration":0.26273169166665866},{"name":"G3","midi":55,"time":698.6116700000056,"velocity":0.6299212598425197,"duration":0.26273169166665866},{"name":"G4","midi":67,"time":698.6116700000056,"velocity":0.6299212598425197,"duration":0.26273169166665866},{"name":"F#3","midi":54,"time":699.1672260000056,"velocity":0.6299212598425197,"duration":0.26273169166665866},{"name":"F#4","midi":66,"time":699.1672260000056,"velocity":0.6299212598425197,"duration":0.26273169166665866},{"name":"G3","midi":55,"time":699.7227820000056,"velocity":0.6299212598425197,"duration":0.26273169166665866},{"name":"G4","midi":67,"time":699.7227820000056,"velocity":0.6299212598425197,"duration":0.26273169166665866},{"name":"F#3","midi":54,"time":700.2783380000056,"velocity":0.6299212598425197,"duration":0.26273169166665866},{"name":"F#4","midi":66,"time":700.2783380000056,"velocity":0.6299212598425197,"duration":0.26273169166665866},{"name":"G3","midi":55,"time":700.8338940000057,"velocity":0.6299212598425197,"duration":0.26273169166665866},{"name":"G4","midi":67,"time":700.8338940000057,"velocity":0.6299212598425197,"duration":0.26273169166665866},{"name":"F#3","midi":54,"time":701.3894500000057,"velocity":0.6299212598425197,"duration":0.26273169166665866},{"name":"F#4","midi":66,"time":701.3894500000057,"velocity":0.6299212598425197,"duration":0.26273169166665866},{"name":"G3","midi":55,"time":701.9450060000057,"velocity":0.6299212598425197,"duration":0.26273169166665866},{"name":"G4","midi":67,"time":701.9450060000057,"velocity":0.6299212598425197,"duration":0.26273169166665866},{"name":"F#3","midi":54,"time":702.5005620000057,"velocity":0.6299212598425197,"duration":0.26273169166665866},{"name":"F#4","midi":66,"time":702.5005620000057,"velocity":0.6299212598425197,"duration":0.26273169166665866},{"name":"G3","midi":55,"time":703.0561180000058,"velocity":0.6299212598425197,"duration":0.26273169166665866},{"name":"G4","midi":67,"time":703.0561180000058,"velocity":0.6299212598425197,"duration":0.26273169166665866},{"name":"F#3","midi":54,"time":703.6116740000058,"velocity":0.6299212598425197,"duration":0.26273169166665866},{"name":"F#4","midi":66,"time":703.6116740000058,"velocity":0.6299212598425197,"duration":0.26273169166665866},{"name":"G3","midi":55,"time":704.1672300000058,"velocity":0.6299212598425197,"duration":0.26273169166665866},{"name":"G4","midi":67,"time":704.1672300000058,"velocity":0.6299212598425197,"duration":0.26273169166665866},{"name":"F#3","midi":54,"time":704.7227860000058,"velocity":0.6299212598425197,"duration":0.26273169166665866},{"name":"F#4","midi":66,"time":704.7227860000058,"velocity":0.6299212598425197,"duration":0.26273169166665866},{"name":"D#4","midi":63,"time":706.1116760000058,"velocity":0.8818897637795275,"duration":0.13078714166670125},{"name":"D4","midi":62,"time":706.2505650000058,"velocity":0.8818897637795275,"duration":0.13078714166670125},{"name":"C4","midi":60,"time":706.3894540000059,"velocity":0.8818897637795275,"duration":0.13078714166670125},{"name":"B3","midi":59,"time":706.528343000006,"velocity":0.8818897637795275,"duration":0.13078714166670125},{"name":"C4","midi":60,"time":706.667232000006,"velocity":0.8818897637795275,"duration":0.13078714166670125},{"name":"D4","midi":62,"time":706.8061210000061,"velocity":0.8818897637795275,"duration":0.13078714166670125},{"name":"D#4","midi":63,"time":706.9450100000062,"velocity":0.8818897637795275,"duration":0.13078714166670125},{"name":"G4","midi":67,"time":707.0838990000062,"velocity":0.8818897637795275,"duration":0.13078714166670125},{"name":"D5","midi":74,"time":707.2227880000063,"velocity":0.8818897637795275,"duration":0.13078714166670125},{"name":"C5","midi":72,"time":707.3616770000064,"velocity":0.8818897637795275,"duration":0.13078714166670125},{"name":"B4","midi":71,"time":707.5005660000064,"velocity":0.8818897637795275,"duration":0.13078714166670125},{"name":"C5","midi":72,"time":707.6394550000065,"velocity":0.8818897637795275,"duration":0.13078714166670125},{"name":"D5","midi":74,"time":707.7783440000065,"velocity":0.8818897637795275,"duration":0.13078714166670125},{"name":"C5","midi":72,"time":707.9172330000066,"velocity":0.8818897637795275,"duration":0.13078714166670125},{"name":"B4","midi":71,"time":708.0561220000067,"velocity":0.8818897637795275,"duration":0.13078714166670125},{"name":"C5","midi":72,"time":708.1950110000067,"velocity":0.8818897637795275,"duration":0.13078714166670125},{"name":"D#5","midi":75,"time":708.3339000000068,"velocity":0.8818897637795275,"duration":0.13078714166670125},{"name":"G5","midi":79,"time":708.4727890000069,"velocity":0.8818897637795275,"duration":0.13078714166670125},{"name":"C5","midi":72,"time":708.6116780000069,"velocity":0.8818897637795275,"duration":0.13078714166670125},{"name":"G5","midi":79,"time":708.750567000007,"velocity":0.8818897637795275,"duration":0.13078714166670125},{"name":"A#4","midi":70,"time":708.889456000007,"velocity":0.8818897637795275,"duration":0.13078714166670125},{"name":"G5","midi":79,"time":709.0283450000071,"velocity":0.8818897637795275,"duration":0.13078714166670125},{"name":"G#4","midi":68,"time":709.1672340000072,"velocity":0.8818897637795275,"duration":0.13078714166670125},{"name":"G5","midi":79,"time":709.3061230000072,"velocity":0.8818897637795275,"duration":0.13078714166670125},{"name":"G4","midi":67,"time":709.4450120000073,"velocity":0.8818897637795275,"duration":0.13078714166670125},{"name":"G5","midi":79,"time":709.5839010000074,"velocity":0.8818897637795275,"duration":0.13078714166670125},{"name":"F5","midi":77,"time":709.7227900000074,"velocity":0.8818897637795275,"duration":0.13078714166670125},{"name":"D#5","midi":75,"time":709.8616790000075,"velocity":0.8818897637795275,"duration":0.13078714166670125},{"name":"D5","midi":74,"time":710.0005680000075,"velocity":0.8818897637795275,"duration":0.13078714166670125},{"name":"C5","midi":72,"time":710.1394570000076,"velocity":0.8818897637795275,"duration":0.13078714166670125},{"name":"G4","midi":67,"time":710.2783460000077,"velocity":0.8818897637795275,"duration":0.13078714166670125},{"name":"B4","midi":71,"time":710.4172350000077,"velocity":0.8818897637795275,"duration":0.13078714166670125},{"name":"D#5","midi":75,"time":710.5561240000078,"velocity":0.8818897637795275,"duration":0.13078714166670125},{"name":"G4","midi":67,"time":710.6950130000079,"velocity":0.8818897637795275,"duration":0.13078714166670125},{"name":"D5","midi":74,"time":710.8339020000079,"velocity":0.8818897637795275,"duration":0.13078714166670125},{"name":"F4","midi":65,"time":710.972791000008,"velocity":0.8818897637795275,"duration":0.13078714166670125},{"name":"B4","midi":71,"time":711.111680000008,"velocity":0.8818897637795275,"duration":0.13078714166670125},{"name":"D#4","midi":63,"time":711.2505690000081,"velocity":0.8818897637795275,"duration":0.13078714166670125},{"name":"A4","midi":69,"time":711.3894580000082,"velocity":0.8818897637795275,"duration":0.13078714166670125},{"name":"F4","midi":65,"time":711.5283470000082,"velocity":0.8818897637795275,"duration":0.13078714166670125},{"name":"G4","midi":67,"time":711.6672360000083,"velocity":0.8818897637795275,"duration":0.13078714166670125},{"name":"D4","midi":62,"time":711.8061250000084,"velocity":0.8818897637795275,"duration":0.13078714166670125},{"name":"C4","midi":60,"time":711.9450140000084,"velocity":0.8818897637795275,"duration":0.13078714166670125},{"name":"B3","midi":59,"time":712.0839030000085,"velocity":0.8818897637795275,"duration":0.13078714166670125},{"name":"C4","midi":60,"time":712.2227920000086,"velocity":0.8818897637795275,"duration":0.13078714166670125},{"name":"D4","midi":62,"time":712.3616810000086,"velocity":0.8818897637795275,"duration":0.13078714166670125},{"name":"D#4","midi":63,"time":712.5005700000087,"velocity":0.8818897637795275,"duration":0.13078714166670125},{"name":"F4","midi":65,"time":712.6394590000087,"velocity":0.8818897637795275,"duration":0.13078714166670125},{"name":"G4","midi":67,"time":712.7783480000088,"velocity":0.8818897637795275,"duration":0.13078714166670125},{"name":"G5","midi":79,"time":712.9172370000089,"velocity":0.8818897637795275,"duration":0.13078714166670125},{"name":"F#4","midi":66,"time":713.0561260000089,"velocity":0.8818897637795275,"duration":0.13078714166670125},{"name":"G5","midi":79,"time":713.195015000009,"velocity":0.8818897637795275,"duration":0.13078714166670125},{"name":"F4","midi":65,"time":713.333904000009,"velocity":0.8818897637795275,"duration":0.13078714166670125},{"name":"G5","midi":79,"time":713.4727930000091,"velocity":0.8818897637795275,"duration":0.13078714166670125},{"name":"D#4","midi":63,"time":713.6116820000092,"velocity":0.8818897637795275,"duration":0.13078714166670125},{"name":"G5","midi":79,"time":713.7505710000092,"velocity":0.8818897637795275,"duration":0.13078714166670125},{"name":"D4","midi":62,"time":713.8894600000093,"velocity":0.8818897637795275,"duration":0.13078714166670125},{"name":"G5","midi":79,"time":714.0283490000094,"velocity":0.8818897637795275,"duration":0.13078714166670125},{"name":"C4","midi":60,"time":714.1672380000094,"velocity":0.8818897637795275,"duration":0.13078714166670125},{"name":"G5","midi":79,"time":714.3061270000095,"velocity":0.8818897637795275,"duration":0.13078714166670125},{"name":"G3","midi":55,"time":714.4450160000096,"velocity":0.8818897637795275,"duration":0.13078714166670125},{"name":"G5","midi":79,"time":714.5839050000096,"velocity":0.8818897637795275,"duration":0.13078714166670125},{"name":"G3","midi":55,"time":714.7227940000097,"velocity":0.8818897637795275,"duration":0.13078714166670125},{"name":"G5","midi":79,"time":714.8616830000097,"velocity":0.8818897637795275,"duration":0.13078714166670125},{"name":"C4","midi":60,"time":715.0005720000098,"velocity":0.8818897637795275,"duration":0.13078714166670125},{"name":"C5","midi":72,"time":715.0005720000098,"velocity":0.8818897637795275,"duration":0.13078714166670125},{"name":"C5","midi":72,"time":715.1394610000099,"velocity":0.8818897637795275,"duration":0.13078714166670125},{"name":"C6","midi":84,"time":715.1394610000099,"velocity":0.8818897637795275,"duration":0.13078714166670125},{"name":"A#4","midi":70,"time":715.2783500000099,"velocity":0.8818897637795275,"duration":0.13078714166670125},{"name":"A#5","midi":82,"time":715.2783500000099,"velocity":0.8818897637795275,"duration":0.13078714166670125},{"name":"G#4","midi":68,"time":715.41723900001,"velocity":0.8818897637795275,"duration":0.13078714166670125},{"name":"G#5","midi":80,"time":715.41723900001,"velocity":0.8818897637795275,"duration":0.13078714166670125},{"name":"G4","midi":67,"time":715.5561280000101,"velocity":0.8818897637795275,"duration":0.26273169166665866},{"name":"G5","midi":79,"time":715.5561280000101,"velocity":0.8818897637795275,"duration":0.26273169166665866},{"name":"F4","midi":65,"time":715.8339060000101,"velocity":0.8818897637795275,"duration":0.13078714166670125},{"name":"F5","midi":77,"time":715.8339060000101,"velocity":0.8818897637795275,"duration":0.13078714166670125},{"name":"D#4","midi":63,"time":715.9727950000101,"velocity":0.8818897637795275,"duration":0.13078714166670125},{"name":"D#5","midi":75,"time":715.9727950000101,"velocity":0.8818897637795275,"duration":0.13078714166670125},{"name":"F4","midi":65,"time":716.1116840000102,"velocity":0.8818897637795275,"duration":0.13078714166670125},{"name":"F5","midi":77,"time":716.1116840000102,"velocity":0.8818897637795275,"duration":0.13078714166670125},{"name":"F#4","midi":66,"time":716.2505730000103,"velocity":0.8818897637795275,"duration":0.13078714166670125},{"name":"F#5","midi":78,"time":716.2505730000103,"velocity":0.8818897637795275,"duration":0.13078714166670125},{"name":"F4","midi":65,"time":716.3894620000103,"velocity":0.8818897637795275,"duration":0.13078714166670125},{"name":"F5","midi":77,"time":716.3894620000103,"velocity":0.8818897637795275,"duration":0.13078714166670125},{"name":"F#4","midi":66,"time":716.5283510000104,"velocity":0.8818897637795275,"duration":0.13078714166670125},{"name":"F#5","midi":78,"time":716.5283510000104,"velocity":0.8818897637795275,"duration":0.13078714166670125},{"name":"G4","midi":67,"time":716.6672400000105,"velocity":0.8818897637795275,"duration":0.13078714166670125},{"name":"G5","midi":79,"time":716.6672400000105,"velocity":0.8818897637795275,"duration":0.13078714166670125},{"name":"F4","midi":65,"time":716.8061290000105,"velocity":0.8818897637795275,"duration":0.13078714166670125},{"name":"F5","midi":77,"time":716.8061290000105,"velocity":0.8818897637795275,"duration":0.13078714166670125},{"name":"D#4","midi":63,"time":716.9450180000106,"velocity":0.8818897637795275,"duration":0.13078714166670125},{"name":"D#5","midi":75,"time":716.9450180000106,"velocity":0.8818897637795275,"duration":0.13078714166670125},{"name":"C4","midi":60,"time":717.0839070000106,"velocity":0.8818897637795275,"duration":0.13078714166670125},{"name":"C5","midi":72,"time":717.0839070000106,"velocity":0.8818897637795275,"duration":0.13078714166670125},{"name":"D#4","midi":63,"time":717.2227960000107,"velocity":0.8818897637795275,"duration":0.13078714166670125},{"name":"D#5","midi":75,"time":717.2227960000107,"velocity":0.8818897637795275,"duration":0.13078714166670125},{"name":"G4","midi":67,"time":717.3616850000108,"velocity":0.8818897637795275,"duration":0.13078714166670125},{"name":"G5","midi":79,"time":717.3616850000108,"velocity":0.8818897637795275,"duration":0.13078714166670125},{"name":"C4","midi":60,"time":717.5005740000108,"velocity":0.8818897637795275,"duration":0.13078714166670125},{"name":"C5","midi":72,"time":717.5005740000108,"velocity":0.8818897637795275,"duration":0.13078714166670125},{"name":"G3","midi":55,"time":717.6394630000109,"velocity":0.8818897637795275,"duration":0.13078714166670125},{"name":"G4","midi":67,"time":717.6394630000109,"velocity":0.8818897637795275,"duration":0.13078714166670125},{"name":"D4","midi":62,"time":717.778352000011,"velocity":0.8818897637795275,"duration":0.13078714166670125},{"name":"D5","midi":74,"time":717.778352000011,"velocity":0.8818897637795275,"duration":0.13078714166670125},{"name":"G4","midi":67,"time":717.917241000011,"velocity":0.8818897637795275,"duration":0.13078714166670125},{"name":"G5","midi":79,"time":717.917241000011,"velocity":0.8818897637795275,"duration":0.13078714166670125},{"name":"C4","midi":60,"time":718.0561300000111,"velocity":0.8818897637795275,"duration":0.13078714166670125},{"name":"C5","midi":72,"time":718.0561300000111,"velocity":0.8818897637795275,"duration":0.13078714166670125},{"name":"G3","midi":55,"time":718.1950190000111,"velocity":0.8818897637795275,"duration":0.13078714166670125},{"name":"G4","midi":67,"time":718.1950190000111,"velocity":0.8818897637795275,"duration":0.13078714166670125},{"name":"C4","midi":60,"time":718.3339080000112,"velocity":0.8818897637795275,"duration":0.13078714166670125},{"name":"C5","midi":72,"time":718.3339080000112,"velocity":0.8818897637795275,"duration":0.13078714166670125},{"name":"G4","midi":67,"time":718.4727970000113,"velocity":0.8818897637795275,"duration":0.13078714166670125},{"name":"G5","midi":79,"time":718.4727970000113,"velocity":0.8818897637795275,"duration":0.13078714166670125},{"name":"C4","midi":60,"time":718.6116860000113,"velocity":0.8818897637795275,"duration":0.13078714166670125},{"name":"C5","midi":72,"time":718.6116860000113,"velocity":0.8818897637795275,"duration":0.13078714166670125},{"name":"G3","midi":55,"time":718.7505750000114,"velocity":0.8818897637795275,"duration":0.13078714166670125},{"name":"G4","midi":67,"time":718.7505750000114,"velocity":0.8818897637795275,"duration":0.13078714166670125},{"name":"A#3","midi":58,"time":718.8894640000115,"velocity":0.8818897637795275,"duration":0.13078714166670125},{"name":"A#4","midi":70,"time":718.8894640000115,"velocity":0.8818897637795275,"duration":0.13078714166670125},{"name":"G4","midi":67,"time":719.0283530000115,"velocity":0.8818897637795275,"duration":0.13078714166670125},{"name":"G5","midi":79,"time":719.0283530000115,"velocity":0.8818897637795275,"duration":0.13078714166670125},{"name":"C4","midi":60,"time":719.1672420000116,"velocity":0.8818897637795275,"duration":0.13078714166670125},{"name":"C5","midi":72,"time":719.1672420000116,"velocity":0.8818897637795275,"duration":0.13078714166670125},{"name":"G3","midi":55,"time":719.3061310000116,"velocity":0.8818897637795275,"duration":0.13078714166670125},{"name":"G4","midi":67,"time":719.3061310000116,"velocity":0.8818897637795275,"duration":0.13078714166670125},{"name":"C4","midi":60,"time":719.4450200000117,"velocity":0.8818897637795275,"duration":0.13078714166670125},{"name":"C5","midi":72,"time":719.5839090000118,"velocity":0.8818897637795275,"duration":0.13078714166670125},{"name":"D#5","midi":75,"time":719.7227980000118,"velocity":0.8818897637795275,"duration":0.13078714166670125},{"name":"C5","midi":72,"time":719.8616870000119,"velocity":0.8818897637795275,"duration":0.13078714166670125},{"name":"C4","midi":60,"time":720.000576000012,"velocity":0.8818897637795275,"duration":0.13078714166670125},{"name":"D#4","midi":63,"time":720.139465000012,"velocity":0.8818897637795275,"duration":0.13078714166670125},{"name":"D#5","midi":75,"time":720.139465000012,"velocity":0.8818897637795275,"duration":0.13078714166670125},{"name":"G4","midi":67,"time":720.2783540000121,"velocity":0.8818897637795275,"duration":0.13078714166670125},{"name":"G5","midi":79,"time":720.2783540000121,"velocity":0.8818897637795275,"duration":0.13078714166670125},{"name":"C4","midi":60,"time":720.4172430000121,"velocity":0.8818897637795275,"duration":0.13078714166670125},{"name":"G4","midi":67,"time":720.5561320000122,"velocity":0.8818897637795275,"duration":0.13078714166670125},{"name":"G5","midi":79,"time":720.5561320000122,"velocity":0.8818897637795275,"duration":0.13078714166670125},{"name":"A#4","midi":70,"time":720.6950210000123,"velocity":0.8818897637795275,"duration":0.13078714166670125},{"name":"A#5","midi":82,"time":720.6950210000123,"velocity":0.8818897637795275,"duration":0.13078714166670125},{"name":"C4","midi":60,"time":720.8339100000123,"velocity":0.8818897637795275,"duration":0.13078714166670125},{"name":"A#4","midi":70,"time":720.9727990000124,"velocity":0.8818897637795275,"duration":0.13078714166670125},{"name":"A#5","midi":82,"time":720.9727990000124,"velocity":0.8818897637795275,"duration":0.13078714166670125},{"name":"C5","midi":72,"time":721.1116880000125,"velocity":0.8818897637795275,"duration":0.13078714166670125},{"name":"C6","midi":84,"time":721.1116880000125,"velocity":0.8818897637795275,"duration":0.13078714166670125},{"name":"C4","midi":60,"time":721.2505770000125,"velocity":0.8818897637795275,"duration":0.13078714166670125},{"name":"C5","midi":72,"time":721.3894660000126,"velocity":0.8818897637795275,"duration":0.13078714166670125},{"name":"C6","midi":84,"time":721.3894660000126,"velocity":0.8818897637795275,"duration":0.13078714166670125},{"name":"D#5","midi":75,"time":721.5283550000127,"velocity":0.8818897637795275,"duration":0.13078714166670125},{"name":"D#6","midi":87,"time":721.5283550000127,"velocity":0.8818897637795275,"duration":0.13078714166670125},{"name":"C4","midi":60,"time":721.6672440000127,"velocity":0.8818897637795275,"duration":0.13078714166670125},{"name":"D#5","midi":75,"time":721.8061330000128,"velocity":0.8818897637795275,"duration":0.13078714166670125},{"name":"D#6","midi":87,"time":721.8061330000128,"velocity":0.8818897637795275,"duration":0.13078714166670125},{"name":"C5","midi":72,"time":721.9450220000128,"velocity":0.8818897637795275,"duration":0.13078714166670125},{"name":"C6","midi":84,"time":721.9450220000128,"velocity":0.8818897637795275,"duration":0.13078714166670125},{"name":"A#4","midi":70,"time":722.0839110000129,"velocity":0.8818897637795275,"duration":0.13078714166670125},{"name":"A#5","midi":82,"time":722.0839110000129,"velocity":0.8818897637795275,"duration":0.13078714166670125},{"name":"C5","midi":72,"time":722.222800000013,"velocity":0.8818897637795275,"duration":0.13078714166670125},{"name":"C6","midi":84,"time":722.222800000013,"velocity":0.8818897637795275,"duration":0.13078714166670125},{"name":"A#4","midi":70,"time":722.361689000013,"velocity":0.8818897637795275,"duration":0.13078714166670125},{"name":"A#5","midi":82,"time":722.361689000013,"velocity":0.8818897637795275,"duration":0.13078714166670125},{"name":"G4","midi":67,"time":722.5005780000131,"velocity":0.8818897637795275,"duration":0.13078714166670125},{"name":"G5","midi":79,"time":722.5005780000131,"velocity":0.8818897637795275,"duration":0.13078714166670125},{"name":"D#4","midi":63,"time":722.6394670000132,"velocity":0.8818897637795275,"duration":0.13078714166670125},{"name":"D#5","midi":75,"time":722.6394670000132,"velocity":0.8818897637795275,"duration":0.13078714166670125},{"name":"G4","midi":67,"time":722.7783560000132,"velocity":0.8818897637795275,"duration":0.13078714166670125},{"name":"G5","midi":79,"time":722.7783560000132,"velocity":0.8818897637795275,"duration":0.13078714166670125},{"name":"D#4","midi":63,"time":722.9172450000133,"velocity":0.8818897637795275,"duration":0.13078714166670125},{"name":"D#5","midi":75,"time":722.9172450000133,"velocity":0.8818897637795275,"duration":0.13078714166670125},{"name":"C4","midi":60,"time":723.0561340000133,"velocity":0.8818897637795275,"duration":0.13078714166670125},{"name":"C5","midi":72,"time":723.0561340000133,"velocity":0.8818897637795275,"duration":0.13078714166670125},{"name":"D#4","midi":63,"time":723.1950230000134,"velocity":0.8818897637795275,"duration":0.13078714166670125},{"name":"D#5","midi":75,"time":723.1950230000134,"velocity":0.8818897637795275,"duration":0.13078714166670125},{"name":"C4","midi":60,"time":723.3339120000135,"velocity":0.8818897637795275,"duration":0.13078714166670125},{"name":"C5","midi":72,"time":723.3339120000135,"velocity":0.8818897637795275,"duration":0.13078714166670125},{"name":"A#3","midi":58,"time":723.4728010000135,"velocity":0.8818897637795275,"duration":0.13078714166670125},{"name":"A#4","midi":70,"time":723.4728010000135,"velocity":0.8818897637795275,"duration":0.13078714166670125},{"name":"G4","midi":67,"time":723.6116900000136,"velocity":0.6299212598425197,"duration":0.13773159166669302},{"name":"G3","midi":55,"time":728.8894720000136,"velocity":0.6299212598425197,"duration":0.26273169166665866},{"name":"G4","midi":67,"time":728.8894720000136,"velocity":0.6299212598425197,"duration":0.26273169166665866},{"name":"F#3","midi":54,"time":729.4450280000136,"velocity":0.6299212598425197,"duration":0.26273169166665866},{"name":"F#4","midi":66,"time":729.4450280000136,"velocity":0.6299212598425197,"duration":0.26273169166665866},{"name":"G3","midi":55,"time":730.0005840000136,"velocity":0.6299212598425197,"duration":0.26273169166665866},{"name":"G4","midi":67,"time":730.0005840000136,"velocity":0.6299212598425197,"duration":0.26273169166665866},{"name":"F#3","midi":54,"time":730.5561400000137,"velocity":0.6299212598425197,"duration":0.26273169166665866},{"name":"F#4","midi":66,"time":730.5561400000137,"velocity":0.6299212598425197,"duration":0.26273169166665866},{"name":"G3","midi":55,"time":731.1116960000137,"velocity":0.6299212598425197,"duration":0.26273169166665866},{"name":"G4","midi":67,"time":731.1116960000137,"velocity":0.6299212598425197,"duration":0.26273169166665866},{"name":"F#3","midi":54,"time":731.6672520000137,"velocity":0.6299212598425197,"duration":0.26273169166665866},{"name":"F#4","midi":66,"time":731.6672520000137,"velocity":0.6299212598425197,"duration":0.26273169166665866},{"name":"G3","midi":55,"time":732.2228080000137,"velocity":0.6299212598425197,"duration":0.26273169166665866},{"name":"G4","midi":67,"time":732.2228080000137,"velocity":0.6299212598425197,"duration":0.26273169166665866},{"name":"F#3","midi":54,"time":732.7783640000138,"velocity":0.6299212598425197,"duration":0.26273169166665866},{"name":"F#4","midi":66,"time":732.7783640000138,"velocity":0.6299212598425197,"duration":0.26273169166665866},{"name":"G3","midi":55,"time":733.3339200000138,"velocity":0.6299212598425197,"duration":0.26273169166665866},{"name":"G4","midi":67,"time":733.3339200000138,"velocity":0.6299212598425197,"duration":0.26273169166665866},{"name":"F#3","midi":54,"time":733.8894760000138,"velocity":0.6299212598425197,"duration":0.26273169166665866},{"name":"F#4","midi":66,"time":733.8894760000138,"velocity":0.6299212598425197,"duration":0.26273169166665866},{"name":"G3","midi":55,"time":734.4450320000138,"velocity":0.6299212598425197,"duration":0.26273169166665866},{"name":"G4","midi":67,"time":734.4450320000138,"velocity":0.6299212598425197,"duration":0.26273169166665866},{"name":"F#3","midi":54,"time":735.0005880000139,"velocity":0.6299212598425197,"duration":0.26273169166665866},{"name":"F#4","midi":66,"time":735.0005880000139,"velocity":0.6299212598425197,"duration":0.26273169166665866},{"name":"G3","midi":55,"time":735.5561440000139,"velocity":0.6299212598425197,"duration":0.26273169166665866},{"name":"G4","midi":67,"time":735.5561440000139,"velocity":0.6299212598425197,"duration":0.26273169166665866},{"name":"F#3","midi":54,"time":736.1117000000139,"velocity":0.6299212598425197,"duration":0.26273169166665866},{"name":"F#4","midi":66,"time":736.1117000000139,"velocity":0.6299212598425197,"duration":0.26273169166665866},{"name":"G3","midi":55,"time":736.6672560000139,"velocity":0.6299212598425197,"duration":0.26273169166665866},{"name":"G4","midi":67,"time":736.6672560000139,"velocity":0.6299212598425197,"duration":0.26273169166665866},{"name":"F#3","midi":54,"time":737.222812000014,"velocity":0.6299212598425197,"duration":0.26273169166665866},{"name":"F#4","midi":66,"time":737.222812000014,"velocity":0.6299212598425197,"duration":0.26273169166665866},{"name":"G3","midi":55,"time":737.778368000014,"velocity":0.6299212598425197,"duration":0.26273169166665866},{"name":"G4","midi":67,"time":737.778368000014,"velocity":0.6299212598425197,"duration":0.26273169166665866},{"name":"F#3","midi":54,"time":738.333924000014,"velocity":0.6299212598425197,"duration":0.26273169166665866},{"name":"F#4","midi":66,"time":738.333924000014,"velocity":0.6299212598425197,"duration":0.26273169166665866},{"name":"G3","midi":55,"time":738.889480000014,"velocity":0.6299212598425197,"duration":0.26273169166665866},{"name":"G4","midi":67,"time":738.889480000014,"velocity":0.6299212598425197,"duration":0.26273169166665866},{"name":"F#3","midi":54,"time":739.445036000014,"velocity":0.6299212598425197,"duration":0.26273169166665866},{"name":"F#4","midi":66,"time":739.445036000014,"velocity":0.6299212598425197,"duration":0.26273169166665866},{"name":"G3","midi":55,"time":740.0005920000141,"velocity":0.6299212598425197,"duration":0.26273169166665866},{"name":"G4","midi":67,"time":740.0005920000141,"velocity":0.6299212598425197,"duration":0.26273169166665866},{"name":"F#3","midi":54,"time":740.5561480000141,"velocity":0.6299212598425197,"duration":0.26273169166665866},{"name":"F#4","midi":66,"time":740.5561480000141,"velocity":0.6299212598425197,"duration":0.26273169166665866},{"name":"G3","midi":55,"time":741.1117040000141,"velocity":0.6299212598425197,"duration":0.26273169166665866},{"name":"G4","midi":67,"time":741.1117040000141,"velocity":0.6299212598425197,"duration":0.26273169166665866},{"name":"F#3","midi":54,"time":741.6672600000142,"velocity":0.6299212598425197,"duration":0.26273169166665866},{"name":"F#4","midi":66,"time":741.6672600000142,"velocity":0.6299212598425197,"duration":0.26273169166665866},{"name":"G3","midi":55,"time":742.2228160000142,"velocity":0.6299212598425197,"duration":0.26273169166665866},{"name":"G4","midi":67,"time":742.2228160000142,"velocity":0.6299212598425197,"duration":0.26273169166665866},{"name":"F#3","midi":54,"time":742.7783720000142,"velocity":0.6299212598425197,"duration":0.26273169166665866},{"name":"F#4","midi":66,"time":742.7783720000142,"velocity":0.6299212598425197,"duration":0.26273169166665866},{"name":"G3","midi":55,"time":743.3339280000142,"velocity":0.6299212598425197,"duration":0.26273169166665866},{"name":"G4","midi":67,"time":743.3339280000142,"velocity":0.6299212598425197,"duration":0.26273169166665866},{"name":"F#3","midi":54,"time":743.8894840000142,"velocity":0.6299212598425197,"duration":0.26273169166665866},{"name":"F#4","midi":66,"time":743.8894840000142,"velocity":0.6299212598425197,"duration":0.26273169166665866},{"name":"G3","midi":55,"time":744.4450400000143,"velocity":0.6299212598425197,"duration":0.26273169166665866},{"name":"G4","midi":67,"time":744.4450400000143,"velocity":0.6299212598425197,"duration":0.26273169166665866},{"name":"F#3","midi":54,"time":745.0005960000143,"velocity":0.6299212598425197,"duration":0.26273169166665866},{"name":"F#4","midi":66,"time":745.0005960000143,"velocity":0.6299212598425197,"duration":0.26273169166665866},{"name":"G3","midi":55,"time":745.5561520000143,"velocity":0.6299212598425197,"duration":0.26273169166665866},{"name":"G4","midi":67,"time":745.5561520000143,"velocity":0.6299212598425197,"duration":0.26273169166665866},{"name":"F#3","midi":54,"time":746.1117080000143,"velocity":0.6299212598425197,"duration":0.26273169166665866},{"name":"F#4","midi":66,"time":746.1117080000143,"velocity":0.6299212598425197,"duration":0.26273169166665866},{"name":"G3","midi":55,"time":746.6672640000144,"velocity":0.6299212598425197,"duration":0.26273169166665866},{"name":"G4","midi":67,"time":746.6672640000144,"velocity":0.6299212598425197,"duration":0.26273169166665866},{"name":"F#3","midi":54,"time":747.2228200000144,"velocity":0.6299212598425197,"duration":0.26273169166665866},{"name":"F#4","midi":66,"time":747.2228200000144,"velocity":0.6299212598425197,"duration":0.26273169166665866},{"name":"G3","midi":55,"time":747.7783760000144,"velocity":0.6299212598425197,"duration":0.26273169166665866},{"name":"G4","midi":67,"time":747.7783760000144,"velocity":0.6299212598425197,"duration":0.26273169166665866},{"name":"F#3","midi":54,"time":748.3339320000144,"velocity":0.6299212598425197,"duration":0.26273169166665866},{"name":"F#4","midi":66,"time":748.3339320000144,"velocity":0.6299212598425197,"duration":0.26273169166665866},{"name":"G3","midi":55,"time":748.8894880000145,"velocity":0.6299212598425197,"duration":0.26273169166665866},{"name":"G4","midi":67,"time":748.8894880000145,"velocity":0.6299212598425197,"duration":0.26273169166665866},{"name":"F#3","midi":54,"time":749.4450440000145,"velocity":0.6299212598425197,"duration":0.26273169166665866},{"name":"F#4","midi":66,"time":749.4450440000145,"velocity":0.6299212598425197,"duration":0.26273169166665866},{"name":"G3","midi":55,"time":750.0006000000145,"velocity":0.6299212598425197,"duration":0.26273169166665866},{"name":"G4","midi":67,"time":750.0006000000145,"velocity":0.6299212598425197,"duration":0.26273169166665866},{"name":"F#3","midi":54,"time":750.5561560000145,"velocity":0.6299212598425197,"duration":0.26273169166665866},{"name":"F#4","midi":66,"time":750.5561560000145,"velocity":0.6299212598425197,"duration":0.26273169166665866},{"name":"G3","midi":55,"time":751.1117120000146,"velocity":0.6299212598425197,"duration":0.26273169166665866},{"name":"G4","midi":67,"time":751.1117120000146,"velocity":0.6299212598425197,"duration":0.26273169166665866},{"name":"F#3","midi":54,"time":751.6672680000146,"velocity":0.6299212598425197,"duration":0.26273169166665866},{"name":"F#4","midi":66,"time":751.6672680000146,"velocity":0.6299212598425197,"duration":0.26273169166665866},{"name":"G3","midi":55,"time":752.2228240000146,"velocity":0.6299212598425197,"duration":0.26273169166665866},{"name":"G4","midi":67,"time":752.2228240000146,"velocity":0.6299212598425197,"duration":0.26273169166665866},{"name":"F#3","midi":54,"time":752.7783800000146,"velocity":0.6299212598425197,"duration":0.26273169166665866},{"name":"F#4","midi":66,"time":752.7783800000146,"velocity":0.6299212598425197,"duration":0.26273169166665866},{"name":"G3","midi":55,"time":753.3339360000147,"velocity":0.6299212598425197,"duration":0.26273169166665866},{"name":"G4","midi":67,"time":753.3339360000147,"velocity":0.6299212598425197,"duration":0.26273169166665866},{"name":"F#3","midi":54,"time":753.8894920000147,"velocity":0.6299212598425197,"duration":0.26273169166665866},{"name":"F#4","midi":66,"time":753.8894920000147,"velocity":0.6299212598425197,"duration":0.26273169166665866},{"name":"G3","midi":55,"time":754.4450480000147,"velocity":0.6299212598425197,"duration":0.26273169166665866},{"name":"G4","midi":67,"time":754.4450480000147,"velocity":0.6299212598425197,"duration":0.26273169166665866},{"name":"F#3","midi":54,"time":755.0006040000147,"velocity":0.6299212598425197,"duration":0.26273169166665866},{"name":"F#4","midi":66,"time":755.0006040000147,"velocity":0.6299212598425197,"duration":0.26273169166665866},{"name":"G3","midi":55,"time":755.5561600000148,"velocity":0.6299212598425197,"duration":0.26273169166665866},{"name":"G4","midi":67,"time":755.5561600000148,"velocity":0.6299212598425197,"duration":0.26273169166665866},{"name":"F#3","midi":54,"time":756.1117160000148,"velocity":0.6299212598425197,"duration":0.26273169166665866},{"name":"F#4","midi":66,"time":756.1117160000148,"velocity":0.6299212598425197,"duration":0.26273169166665866},{"name":"G3","midi":55,"time":756.6672720000148,"velocity":0.6299212598425197,"duration":0.26273169166665866},{"name":"G4","midi":67,"time":756.6672720000148,"velocity":0.6299212598425197,"duration":0.26273169166665866},{"name":"F#3","midi":54,"time":757.2228280000148,"velocity":0.6299212598425197,"duration":0.26273169166665866},{"name":"F#4","midi":66,"time":757.2228280000148,"velocity":0.6299212598425197,"duration":0.26273169166665866},{"name":"G3","midi":55,"time":757.7783840000149,"velocity":0.6299212598425197,"duration":0.26273169166665866},{"name":"G4","midi":67,"time":757.7783840000149,"velocity":0.6299212598425197,"duration":0.26273169166665866},{"name":"F#3","midi":54,"time":758.3339400000149,"velocity":0.6299212598425197,"duration":0.26273169166665866},{"name":"F#4","midi":66,"time":758.3339400000149,"velocity":0.6299212598425197,"duration":0.26273169166665866},{"name":"G3","midi":55,"time":758.8894960000149,"velocity":0.6299212598425197,"duration":0.26273169166665866},{"name":"G4","midi":67,"time":758.8894960000149,"velocity":0.6299212598425197,"duration":0.26273169166665866},{"name":"F#3","midi":54,"time":759.4450520000149,"velocity":0.6299212598425197,"duration":0.26273169166665866},{"name":"F#4","midi":66,"time":759.4450520000149,"velocity":0.6299212598425197,"duration":0.26273169166665866},{"name":"G3","midi":55,"time":760.000608000015,"velocity":0.6299212598425197,"duration":0.26273169166665866},{"name":"G4","midi":67,"time":760.000608000015,"velocity":0.6299212598425197,"duration":0.26273169166665866},{"name":"F#3","midi":54,"time":760.556164000015,"velocity":0.6299212598425197,"duration":0.26273169166665866},{"name":"F#4","midi":66,"time":760.556164000015,"velocity":0.6299212598425197,"duration":0.26273169166665866},{"name":"G3","midi":55,"time":761.111720000015,"velocity":0.6299212598425197,"duration":0.26273169166665866},{"name":"G4","midi":67,"time":761.111720000015,"velocity":0.6299212598425197,"duration":0.26273169166665866},{"name":"F#3","midi":54,"time":761.667276000015,"velocity":0.6299212598425197,"duration":0.26273169166665866},{"name":"F#4","midi":66,"time":761.667276000015,"velocity":0.6299212598425197,"duration":0.26273169166665866},{"name":"G3","midi":55,"time":762.222832000015,"velocity":0.6299212598425197,"duration":0.26273169166665866},{"name":"G4","midi":67,"time":762.222832000015,"velocity":0.6299212598425197,"duration":0.26273169166665866},{"name":"F#3","midi":54,"time":762.7783880000151,"velocity":0.6299212598425197,"duration":0.26273169166665866},{"name":"F#4","midi":66,"time":762.7783880000151,"velocity":0.6299212598425197,"duration":0.26273169166665866},{"name":"G3","midi":55,"time":763.3339440000151,"velocity":0.6299212598425197,"duration":0.26273169166665866},{"name":"G4","midi":67,"time":763.3339440000151,"velocity":0.6299212598425197,"duration":0.26273169166665866},{"name":"F#3","midi":54,"time":763.8895000000151,"velocity":0.6299212598425197,"duration":0.26273169166665866},{"name":"F#4","midi":66,"time":763.8895000000151,"velocity":0.6299212598425197,"duration":0.26273169166665866},{"name":"G#3","midi":56,"time":764.4450560000151,"velocity":0.7559055118110236,"duration":0.26273169166665866},{"name":"G#4","midi":68,"time":764.4450560000151,"velocity":0.7559055118110236,"duration":0.26273169166665866},{"name":"F3","midi":53,"time":765.0006120000152,"velocity":0.7559055118110236,"duration":0.26273169166665866},{"name":"F4","midi":65,"time":765.0006120000152,"velocity":0.7559055118110236,"duration":0.26273169166665866},{"name":"G#3","midi":56,"time":765.5561680000152,"velocity":0.7559055118110236,"duration":0.26273169166665866},{"name":"G#4","midi":68,"time":765.5561680000152,"velocity":0.7559055118110236,"duration":0.26273169166665866},{"name":"F3","midi":53,"time":766.1117240000152,"velocity":0.7559055118110236,"duration":0.26273169166665866},{"name":"F4","midi":65,"time":766.1117240000152,"velocity":0.7559055118110236,"duration":0.26273169166665866},{"name":"B3","midi":59,"time":766.6672800000152,"velocity":0.7559055118110236,"duration":0.26273169166665866},{"name":"B4","midi":71,"time":766.6672800000152,"velocity":0.7559055118110236,"duration":0.26273169166665866},{"name":"D5","midi":74,"time":766.6672800000152,"velocity":0.7559055118110236,"duration":0.26273169166665866},{"name":"G3","midi":55,"time":767.2228360000153,"velocity":0.7559055118110236,"duration":0.26273169166665866},{"name":"G4","midi":67,"time":767.2228360000153,"velocity":0.7559055118110236,"duration":0.26273169166665866},{"name":"B4","midi":71,"time":767.2228360000153,"velocity":0.7559055118110236,"duration":0.26273169166665866},{"name":"B3","midi":59,"time":767.7783920000153,"velocity":0.7559055118110236,"duration":0.26273169166665866},{"name":"B4","midi":71,"time":767.7783920000153,"velocity":0.7559055118110236,"duration":0.26273169166665866},{"name":"D5","midi":74,"time":767.7783920000153,"velocity":0.7559055118110236,"duration":0.26273169166665866},{"name":"G3","midi":55,"time":768.3339480000153,"velocity":0.7559055118110236,"duration":0.26273169166665866},{"name":"G4","midi":67,"time":768.3339480000153,"velocity":0.7559055118110236,"duration":0.26273169166665866},{"name":"B4","midi":71,"time":768.3339480000153,"velocity":0.7559055118110236,"duration":0.26273169166665866},{"name":"C4","midi":60,"time":768.8895040000153,"velocity":0.7559055118110236,"duration":0.26273169166665866},{"name":"C5","midi":72,"time":768.8895040000153,"velocity":0.7559055118110236,"duration":0.26273169166665866},{"name":"G#3","midi":56,"time":769.4450600000154,"velocity":0.7559055118110236,"duration":0.26273169166665866},{"name":"G#4","midi":68,"time":769.4450600000154,"velocity":0.7559055118110236,"duration":0.26273169166665866},{"name":"C4","midi":60,"time":770.0006160000154,"velocity":0.7559055118110236,"duration":0.26273169166665866},{"name":"C5","midi":72,"time":770.0006160000154,"velocity":0.7559055118110236,"duration":0.26273169166665866},{"name":"G#3","midi":56,"time":770.5561720000154,"velocity":0.7559055118110236,"duration":0.26273169166665866},{"name":"G#4","midi":68,"time":770.5561720000154,"velocity":0.7559055118110236,"duration":0.26273169166665866},{"name":"B3","midi":59,"time":771.1117280000154,"velocity":0.7559055118110236,"duration":0.26273169166665866},{"name":"B4","midi":71,"time":771.1117280000154,"velocity":0.7559055118110236,"duration":0.26273169166665866},{"name":"G3","midi":55,"time":771.6672840000155,"velocity":0.7559055118110236,"duration":0.26273169166665866},{"name":"G4","midi":67,"time":771.6672840000155,"velocity":0.7559055118110236,"duration":0.26273169166665866},{"name":"B3","midi":59,"time":772.2228400000155,"velocity":0.7559055118110236,"duration":0.26273169166665866},{"name":"B4","midi":71,"time":772.2228400000155,"velocity":0.7559055118110236,"duration":0.26273169166665866},{"name":"G3","midi":55,"time":772.7783960000155,"velocity":0.7559055118110236,"duration":0.26273169166665866},{"name":"G4","midi":67,"time":772.7783960000155,"velocity":0.7559055118110236,"duration":0.26273169166665866},{"name":"G#3","midi":56,"time":773.3339520000155,"velocity":0.7559055118110236,"duration":0.26273169166665866},{"name":"G#4","midi":68,"time":773.3339520000155,"velocity":0.7559055118110236,"duration":0.26273169166665866},{"name":"F3","midi":53,"time":773.8895080000156,"velocity":0.7559055118110236,"duration":0.26273169166665866},{"name":"F4","midi":65,"time":773.8895080000156,"velocity":0.7559055118110236,"duration":0.26273169166665866},{"name":"G#3","midi":56,"time":774.4450640000156,"velocity":0.7559055118110236,"duration":0.26273169166665866},{"name":"G#4","midi":68,"time":774.4450640000156,"velocity":0.7559055118110236,"duration":0.26273169166665866},{"name":"F3","midi":53,"time":775.0006200000156,"velocity":0.7559055118110236,"duration":0.26273169166665866},{"name":"F4","midi":65,"time":775.0006200000156,"velocity":0.7559055118110236,"duration":0.26273169166665866},{"name":"B3","midi":59,"time":775.5561760000156,"velocity":0.7559055118110236,"duration":0.26273169166665866},{"name":"B4","midi":71,"time":775.5561760000156,"velocity":0.7559055118110236,"duration":0.26273169166665866},{"name":"D5","midi":74,"time":775.5561760000156,"velocity":0.7559055118110236,"duration":0.26273169166665866},{"name":"G3","midi":55,"time":776.1117320000156,"velocity":0.7559055118110236,"duration":0.26273169166665866},{"name":"G4","midi":67,"time":776.1117320000156,"velocity":0.7559055118110236,"duration":0.26273169166665866},{"name":"B4","midi":71,"time":776.1117320000156,"velocity":0.7559055118110236,"duration":0.26273169166665866},{"name":"B3","midi":59,"time":776.6672880000157,"velocity":0.7559055118110236,"duration":0.26273169166665866},{"name":"B4","midi":71,"time":776.6672880000157,"velocity":0.7559055118110236,"duration":0.26273169166665866},{"name":"D5","midi":74,"time":776.6672880000157,"velocity":0.7559055118110236,"duration":0.26273169166665866},{"name":"G3","midi":55,"time":777.2228440000157,"velocity":0.7559055118110236,"duration":0.26273169166665866},{"name":"G4","midi":67,"time":777.2228440000157,"velocity":0.7559055118110236,"duration":0.26273169166665866},{"name":"B4","midi":71,"time":777.2228440000157,"velocity":0.7559055118110236,"duration":0.26273169166665866},{"name":"C4","midi":60,"time":777.7784000000157,"velocity":0.7559055118110236,"duration":0.26273169166665866},{"name":"D#4","midi":63,"time":777.7784000000157,"velocity":0.7559055118110236,"duration":0.26273169166665866},{"name":"C5","midi":72,"time":777.7784000000157,"velocity":0.7559055118110236,"duration":0.26273169166665866},{"name":"D#5","midi":75,"time":777.7784000000157,"velocity":0.7559055118110236,"duration":0.26273169166665866},{"name":"G#3","midi":56,"time":778.3339560000157,"velocity":0.7559055118110236,"duration":0.26273169166665866},{"name":"C4","midi":60,"time":778.3339560000157,"velocity":0.7559055118110236,"duration":0.26273169166665866},{"name":"G#4","midi":68,"time":778.3339560000157,"velocity":0.7559055118110236,"duration":0.26273169166665866},{"name":"C5","midi":72,"time":778.3339560000157,"velocity":0.7559055118110236,"duration":0.26273169166665866},{"name":"C4","midi":60,"time":778.8895120000158,"velocity":0.7559055118110236,"duration":0.26273169166665866},{"name":"D#4","midi":63,"time":778.8895120000158,"velocity":0.7559055118110236,"duration":0.26273169166665866},{"name":"C5","midi":72,"time":778.8895120000158,"velocity":0.7559055118110236,"duration":0.26273169166665866},{"name":"D#5","midi":75,"time":778.8895120000158,"velocity":0.7559055118110236,"duration":0.26273169166665866},{"name":"G#3","midi":56,"time":779.4450680000158,"velocity":0.7559055118110236,"duration":0.26273169166665866},{"name":"C4","midi":60,"time":779.4450680000158,"velocity":0.7559055118110236,"duration":0.26273169166665866},{"name":"G#4","midi":68,"time":779.4450680000158,"velocity":0.7559055118110236,"duration":0.26273169166665866},{"name":"C5","midi":72,"time":779.4450680000158,"velocity":0.7559055118110236,"duration":0.26273169166665866},{"name":"B3","midi":59,"time":780.0006240000158,"velocity":0.7559055118110236,"duration":0.26273169166665866},{"name":"D4","midi":62,"time":780.0006240000158,"velocity":0.7559055118110236,"duration":0.26273169166665866},{"name":"B4","midi":71,"time":780.0006240000158,"velocity":0.7559055118110236,"duration":0.26273169166665866},{"name":"D5","midi":74,"time":780.0006240000158,"velocity":0.7559055118110236,"duration":0.26273169166665866},{"name":"G3","midi":55,"time":780.5561800000158,"velocity":0.7559055118110236,"duration":0.26273169166665866},{"name":"B3","midi":59,"time":780.5561800000158,"velocity":0.7559055118110236,"duration":0.26273169166665866},{"name":"G4","midi":67,"time":780.5561800000158,"velocity":0.7559055118110236,"duration":0.26273169166665866},{"name":"B4","midi":71,"time":780.5561800000158,"velocity":0.7559055118110236,"duration":0.26273169166665866},{"name":"B3","midi":59,"time":781.1117360000159,"velocity":0.7559055118110236,"duration":0.26273169166665866},{"name":"D4","midi":62,"time":781.1117360000159,"velocity":0.7559055118110236,"duration":0.26273169166665866},{"name":"B4","midi":71,"time":781.1117360000159,"velocity":0.7559055118110236,"duration":0.26273169166665866},{"name":"D5","midi":74,"time":781.1117360000159,"velocity":0.7559055118110236,"duration":0.26273169166665866},{"name":"G3","midi":55,"time":781.6672920000159,"velocity":0.7559055118110236,"duration":0.26273169166665866},{"name":"B3","midi":59,"time":781.6672920000159,"velocity":0.7559055118110236,"duration":0.26273169166665866},{"name":"G4","midi":67,"time":781.6672920000159,"velocity":0.7559055118110236,"duration":0.26273169166665866},{"name":"B4","midi":71,"time":781.6672920000159,"velocity":0.7559055118110236,"duration":0.26273169166665866},{"name":"G3","midi":55,"time":782.2228480000159,"velocity":0.7559055118110236,"duration":0.26273169166665866},{"name":"G4","midi":67,"time":782.2228480000159,"velocity":0.7559055118110236,"duration":0.26273169166665866},{"name":"F#3","midi":54,"time":782.7784040000159,"velocity":0.7559055118110236,"duration":0.26273169166665866},{"name":"F#4","midi":66,"time":782.7784040000159,"velocity":0.7559055118110236,"duration":0.26273169166665866},{"name":"G3","midi":55,"time":783.333960000016,"velocity":0.7559055118110236,"duration":0.26273169166665866},{"name":"G4","midi":67,"time":783.333960000016,"velocity":0.7559055118110236,"duration":0.26273169166665866},{"name":"F#3","midi":54,"time":783.889516000016,"velocity":0.7559055118110236,"duration":0.26273169166665866},{"name":"F#4","midi":66,"time":783.889516000016,"velocity":0.7559055118110236,"duration":0.26273169166665866},{"name":"G3","midi":55,"time":784.445072000016,"velocity":0.7559055118110236,"duration":0.26273169166665866},{"name":"G4","midi":67,"time":784.445072000016,"velocity":0.7559055118110236,"duration":0.26273169166665866},{"name":"F#3","midi":54,"time":785.000628000016,"velocity":0.7559055118110236,"duration":0.26273169166665866},{"name":"F#4","midi":66,"time":785.000628000016,"velocity":0.7559055118110236,"duration":0.26273169166665866},{"name":"G3","midi":55,"time":785.5561840000161,"velocity":0.7559055118110236,"duration":0.26273169166665866},{"name":"G4","midi":67,"time":785.5561840000161,"velocity":0.7559055118110236,"duration":0.26273169166665866},{"name":"F#3","midi":54,"time":786.1117400000161,"velocity":0.7559055118110236,"duration":0.26273169166665866},{"name":"F#4","midi":66,"time":786.1117400000161,"velocity":0.7559055118110236,"duration":0.26273169166665866},{"name":"G3","midi":55,"time":786.6672960000161,"velocity":0.7559055118110236,"duration":0.26273169166665866},{"name":"G4","midi":67,"time":786.6672960000161,"velocity":0.7559055118110236,"duration":0.26273169166665866},{"name":"F#3","midi":54,"time":787.2228520000161,"velocity":0.7559055118110236,"duration":0.26273169166665866},{"name":"F#4","midi":66,"time":787.2228520000161,"velocity":0.7559055118110236,"duration":0.26273169166665866},{"name":"G3","midi":55,"time":787.7784080000162,"velocity":0.7559055118110236,"duration":0.26273169166665866},{"name":"G4","midi":67,"time":787.7784080000162,"velocity":0.7559055118110236,"duration":0.26273169166665866},{"name":"F#3","midi":54,"time":788.3339640000162,"velocity":0.7559055118110236,"duration":0.26273169166665866},{"name":"F#4","midi":66,"time":788.3339640000162,"velocity":0.7559055118110236,"duration":0.26273169166665866},{"name":"G3","midi":55,"time":788.8895200000162,"velocity":0.7559055118110236,"duration":0.26273169166665866},{"name":"G4","midi":67,"time":788.8895200000162,"velocity":0.7559055118110236,"duration":0.26273169166665866},{"name":"F#3","midi":54,"time":789.4450760000162,"velocity":0.7559055118110236,"duration":0.26273169166665866},{"name":"F#4","midi":66,"time":789.4450760000162,"velocity":0.7559055118110236,"duration":0.26273169166665866},{"name":"G3","midi":55,"time":790.0006320000163,"velocity":0.7559055118110236,"duration":0.26273169166665866},{"name":"G4","midi":67,"time":790.0006320000163,"velocity":0.7559055118110236,"duration":0.26273169166665866},{"name":"F#3","midi":54,"time":790.5561880000163,"velocity":0.7559055118110236,"duration":0.26273169166665866},{"name":"F#4","midi":66,"time":790.5561880000163,"velocity":0.7559055118110236,"duration":0.26273169166665866},{"name":"G3","midi":55,"time":791.1117440000163,"velocity":0.7559055118110236,"duration":0.26273169166665866},{"name":"G4","midi":67,"time":791.1117440000163,"velocity":0.7559055118110236,"duration":0.26273169166665866},{"name":"F#3","midi":54,"time":791.6673000000163,"velocity":0.7559055118110236,"duration":0.26273169166665866},{"name":"F#4","midi":66,"time":791.6673000000163,"velocity":0.7559055118110236,"duration":0.26273169166665866},{"name":"G3","midi":55,"time":792.2228560000163,"velocity":0.7559055118110236,"duration":0.26273169166665866},{"name":"G4","midi":67,"time":792.2228560000163,"velocity":0.7559055118110236,"duration":0.26273169166665866},{"name":"F#3","midi":54,"time":792.7784120000164,"velocity":0.7559055118110236,"duration":0.26273169166665866},{"name":"F#4","midi":66,"time":792.7784120000164,"velocity":0.7559055118110236,"duration":0.26273169166665866},{"name":"G3","midi":55,"time":793.3339680000164,"velocity":0.7559055118110236,"duration":0.26273169166665866},{"name":"G4","midi":67,"time":793.3339680000164,"velocity":0.7559055118110236,"duration":0.26273169166665866},{"name":"F#3","midi":54,"time":793.8895240000164,"velocity":0.7559055118110236,"duration":0.26273169166665866},{"name":"F#4","midi":66,"time":793.8895240000164,"velocity":0.7559055118110236,"duration":0.26273169166665866},{"name":"G3","midi":55,"time":794.4450800000164,"velocity":0.7559055118110236,"duration":0.26273169166665866},{"name":"G4","midi":67,"time":794.4450800000164,"velocity":0.7559055118110236,"duration":0.26273169166665866},{"name":"F#3","midi":54,"time":795.0006360000165,"velocity":0.7559055118110236,"duration":0.26273169166665866},{"name":"F#4","midi":66,"time":795.0006360000165,"velocity":0.7559055118110236,"duration":0.26273169166665866},{"name":"G3","midi":55,"time":795.5561920000165,"velocity":0.7559055118110236,"duration":0.26273169166665866},{"name":"G4","midi":67,"time":795.5561920000165,"velocity":0.7559055118110236,"duration":0.26273169166665866},{"name":"F#3","midi":54,"time":796.1117480000165,"velocity":0.7559055118110236,"duration":0.26273169166665866},{"name":"F#4","midi":66,"time":796.1117480000165,"velocity":0.7559055118110236,"duration":0.26273169166665866},{"name":"G3","midi":55,"time":796.6673040000165,"velocity":0.7559055118110236,"duration":0.26273169166665866},{"name":"G4","midi":67,"time":796.6673040000165,"velocity":0.7559055118110236,"duration":0.26273169166665866},{"name":"F#3","midi":54,"time":797.2228600000166,"velocity":0.7559055118110236,"duration":0.26273169166665866},{"name":"F#4","midi":66,"time":797.2228600000166,"velocity":0.7559055118110236,"duration":0.26273169166665866},{"name":"G3","midi":55,"time":797.7784160000166,"velocity":0.7559055118110236,"duration":0.26273169166665866},{"name":"G4","midi":67,"time":797.7784160000166,"velocity":0.7559055118110236,"duration":0.26273169166665866},{"name":"F#3","midi":54,"time":798.3339720000166,"velocity":0.7559055118110236,"duration":0.26273169166665866},{"name":"F#4","midi":66,"time":798.3339720000166,"velocity":0.7559055118110236,"duration":0.26273169166665866},{"name":"G3","midi":55,"time":798.8895280000166,"velocity":0.7559055118110236,"duration":0.26273169166665866},{"name":"G4","midi":67,"time":798.8895280000166,"velocity":0.7559055118110236,"duration":0.26273169166665866},{"name":"F#3","midi":54,"time":799.4450840000167,"velocity":0.7559055118110236,"duration":0.26273169166665866},{"name":"F#4","midi":66,"time":799.4450840000167,"velocity":0.7559055118110236,"duration":0.26273169166665866},{"name":"G3","midi":55,"time":800.0006400000167,"velocity":0.7559055118110236,"duration":0.26273169166665866},{"name":"G4","midi":67,"time":800.0006400000167,"velocity":0.7559055118110236,"duration":0.26273169166665866},{"name":"F#3","midi":54,"time":800.5561960000167,"velocity":0.7559055118110236,"duration":0.26273169166665866},{"name":"F#4","midi":66,"time":800.5561960000167,"velocity":0.7559055118110236,"duration":0.26273169166665866},{"name":"G3","midi":55,"time":801.1117520000167,"velocity":0.7559055118110236,"duration":0.26273169166665866},{"name":"G4","midi":67,"time":801.1117520000167,"velocity":0.7559055118110236,"duration":0.26273169166665866},{"name":"F#3","midi":54,"time":801.6673080000168,"velocity":0.7559055118110236,"duration":0.26273169166665866},{"name":"F#4","midi":66,"time":801.6673080000168,"velocity":0.7559055118110236,"duration":0.26273169166665866},{"name":"G3","midi":55,"time":802.2228640000168,"velocity":0.7559055118110236,"duration":0.26273169166665866},{"name":"G4","midi":67,"time":802.2228640000168,"velocity":0.7559055118110236,"duration":0.26273169166665866},{"name":"F#3","midi":54,"time":802.7784200000168,"velocity":0.7559055118110236,"duration":0.26273169166665866},{"name":"F#4","midi":66,"time":802.7784200000168,"velocity":0.7559055118110236,"duration":0.26273169166665866},{"name":"G3","midi":55,"time":803.3339760000168,"velocity":0.7559055118110236,"duration":0.26273169166665866},{"name":"G4","midi":67,"time":803.3339760000168,"velocity":0.7559055118110236,"duration":0.26273169166665866},{"name":"F#3","midi":54,"time":803.8895320000169,"velocity":0.7559055118110236,"duration":0.26273169166665866},{"name":"F#4","midi":66,"time":803.8895320000169,"velocity":0.7559055118110236,"duration":0.26273169166665866},{"name":"G3","midi":55,"time":804.4450880000169,"velocity":0.7559055118110236,"duration":0.26273169166665866},{"name":"G4","midi":67,"time":804.4450880000169,"velocity":0.7559055118110236,"duration":0.26273169166665866},{"name":"F#3","midi":54,"time":805.0006440000169,"velocity":0.7559055118110236,"duration":0.26273169166665866},{"name":"F#4","midi":66,"time":805.0006440000169,"velocity":0.7559055118110236,"duration":0.26273169166665866},{"name":"G3","midi":55,"time":805.5562000000169,"velocity":0.7559055118110236,"duration":0.26273169166665866},{"name":"G4","midi":67,"time":805.5562000000169,"velocity":0.7559055118110236,"duration":0.26273169166665866},{"name":"F#3","midi":54,"time":806.111756000017,"velocity":0.7559055118110236,"duration":0.26273169166665866},{"name":"F#4","midi":66,"time":806.111756000017,"velocity":0.7559055118110236,"duration":0.26273169166665866},{"name":"G3","midi":55,"time":806.667312000017,"velocity":0.7559055118110236,"duration":0.26273169166665866},{"name":"G4","midi":67,"time":806.667312000017,"velocity":0.7559055118110236,"duration":0.26273169166665866},{"name":"F#3","midi":54,"time":807.222868000017,"velocity":0.7559055118110236,"duration":0.26273169166665866},{"name":"F#4","midi":66,"time":807.222868000017,"velocity":0.7559055118110236,"duration":0.26273169166665866},{"name":"G3","midi":55,"time":807.778424000017,"velocity":0.7559055118110236,"duration":0.26273169166665866},{"name":"G4","midi":67,"time":807.778424000017,"velocity":0.7559055118110236,"duration":0.26273169166665866},{"name":"F#3","midi":54,"time":808.333980000017,"velocity":0.7559055118110236,"duration":0.26273169166665866},{"name":"F#4","midi":66,"time":808.333980000017,"velocity":0.7559055118110236,"duration":0.26273169166665866},{"name":"G3","midi":55,"time":808.8895360000171,"velocity":0.7559055118110236,"duration":0.26273169166665866},{"name":"G4","midi":67,"time":808.8895360000171,"velocity":0.7559055118110236,"duration":0.26273169166665866},{"name":"F#3","midi":54,"time":809.4450920000171,"velocity":0.7559055118110236,"duration":0.26273169166665866},{"name":"F#4","midi":66,"time":809.4450920000171,"velocity":0.7559055118110236,"duration":0.26273169166665866},{"name":"G3","midi":55,"time":810.0006480000171,"velocity":0.7559055118110236,"duration":0.26273169166665866},{"name":"G4","midi":67,"time":810.0006480000171,"velocity":0.7559055118110236,"duration":0.26273169166665866},{"name":"F#3","midi":54,"time":810.5562040000171,"velocity":0.7559055118110236,"duration":0.26273169166665866},{"name":"F#4","midi":66,"time":810.5562040000171,"velocity":0.7559055118110236,"duration":0.26273169166665866},{"name":"G3","midi":55,"time":811.1117600000172,"velocity":0.7559055118110236,"duration":0.26273169166665866},{"name":"G4","midi":67,"time":811.1117600000172,"velocity":0.7559055118110236,"duration":0.26273169166665866},{"name":"F#3","midi":54,"time":811.6673160000172,"velocity":0.7559055118110236,"duration":0.26273169166665866},{"name":"F#4","midi":66,"time":811.6673160000172,"velocity":0.7559055118110236,"duration":0.26273169166665866},{"name":"G3","midi":55,"time":812.2228720000172,"velocity":0.7559055118110236,"duration":0.26273169166665866},{"name":"G4","midi":67,"time":812.2228720000172,"velocity":0.7559055118110236,"duration":0.26273169166665866},{"name":"F#3","midi":54,"time":812.7784280000172,"velocity":0.7559055118110236,"duration":0.26273169166665866},{"name":"F#4","midi":66,"time":812.7784280000172,"velocity":0.7559055118110236,"duration":0.26273169166665866},{"name":"G3","midi":55,"time":813.3339840000173,"velocity":0.7559055118110236,"duration":0.26273169166665866},{"name":"G4","midi":67,"time":813.3339840000173,"velocity":0.7559055118110236,"duration":0.26273169166665866},{"name":"F#3","midi":54,"time":813.8895400000173,"velocity":0.7559055118110236,"duration":0.26273169166665866},{"name":"F#4","midi":66,"time":813.8895400000173,"velocity":0.7559055118110236,"duration":0.26273169166665866},{"name":"G3","midi":55,"time":814.4450960000173,"velocity":0.7559055118110236,"duration":0.26273169166665866},{"name":"G4","midi":67,"time":814.4450960000173,"velocity":0.7559055118110236,"duration":0.26273169166665866},{"name":"F#3","midi":54,"time":815.0006520000173,"velocity":0.7559055118110236,"duration":0.26273169166665866},{"name":"F#4","midi":66,"time":815.0006520000173,"velocity":0.7559055118110236,"duration":0.26273169166665866},{"name":"G3","midi":55,"time":815.5562080000174,"velocity":0.7559055118110236,"duration":0.26273169166665866},{"name":"G4","midi":67,"time":815.5562080000174,"velocity":0.7559055118110236,"duration":0.26273169166665866},{"name":"F#3","midi":54,"time":816.1117640000174,"velocity":0.7559055118110236,"duration":0.26273169166665866},{"name":"F#4","midi":66,"time":816.1117640000174,"velocity":0.7559055118110236,"duration":0.26273169166665866},{"name":"G3","midi":55,"time":816.6673200000174,"velocity":0.7559055118110236,"duration":0.26273169166665866},{"name":"G4","midi":67,"time":816.6673200000174,"velocity":0.7559055118110236,"duration":0.26273169166665866},{"name":"F#3","midi":54,"time":817.2228760000174,"velocity":0.7559055118110236,"duration":0.26273169166665866},{"name":"F#4","midi":66,"time":817.2228760000174,"velocity":0.7559055118110236,"duration":0.26273169166665866},{"name":"G#3","midi":56,"time":817.7784320000175,"velocity":0.7559055118110236,"duration":0.26273169166665866},{"name":"G#4","midi":68,"time":817.7784320000175,"velocity":0.7559055118110236,"duration":0.26273169166665866},{"name":"F3","midi":53,"time":818.3339880000175,"velocity":0.7559055118110236,"duration":0.26273169166665866},{"name":"F4","midi":65,"time":818.3339880000175,"velocity":0.7559055118110236,"duration":0.26273169166665866},{"name":"G#3","midi":56,"time":818.8895440000175,"velocity":0.7559055118110236,"duration":0.26273169166665866},{"name":"G#4","midi":68,"time":818.8895440000175,"velocity":0.7559055118110236,"duration":0.26273169166665866},{"name":"F3","midi":53,"time":819.4451000000175,"velocity":0.7559055118110236,"duration":0.26273169166665866},{"name":"F4","midi":65,"time":819.4451000000175,"velocity":0.7559055118110236,"duration":0.26273169166665866},{"name":"B3","midi":59,"time":820.0006560000176,"velocity":0.7559055118110236,"duration":0.26273169166665866},{"name":"B4","midi":71,"time":820.0006560000176,"velocity":0.7559055118110236,"duration":0.26273169166665866},{"name":"G3","midi":55,"time":820.5562120000176,"velocity":0.7559055118110236,"duration":0.26273169166665866},{"name":"G4","midi":67,"time":820.5562120000176,"velocity":0.7559055118110236,"duration":0.26273169166665866},{"name":"B3","midi":59,"time":821.1117680000176,"velocity":0.7559055118110236,"duration":0.26273169166665866},{"name":"B4","midi":71,"time":821.1117680000176,"velocity":0.7559055118110236,"duration":0.26273169166665866},{"name":"G3","midi":55,"time":821.6673240000176,"velocity":0.7559055118110236,"duration":0.26273169166665866},{"name":"G4","midi":67,"time":821.6673240000176,"velocity":0.7559055118110236,"duration":0.26273169166665866},{"name":"C4","midi":60,"time":822.2228800000177,"velocity":0.7559055118110236,"duration":0.26273169166665866},{"name":"C5","midi":72,"time":822.2228800000177,"velocity":0.7559055118110236,"duration":0.26273169166665866},{"name":"G#3","midi":56,"time":822.7784360000177,"velocity":0.7559055118110236,"duration":0.26273169166665866},{"name":"G#4","midi":68,"time":822.7784360000177,"velocity":0.7559055118110236,"duration":0.26273169166665866},{"name":"C4","midi":60,"time":823.3339920000177,"velocity":0.7559055118110236,"duration":0.26273169166665866},{"name":"C5","midi":72,"time":823.3339920000177,"velocity":0.7559055118110236,"duration":0.26273169166665866},{"name":"G#3","midi":56,"time":823.8895480000177,"velocity":0.7559055118110236,"duration":0.26273169166665866},{"name":"G#4","midi":68,"time":823.8895480000177,"velocity":0.7559055118110236,"duration":0.26273169166665866},{"name":"B3","midi":59,"time":824.4451040000177,"velocity":0.7559055118110236,"duration":0.26273169166665866},{"name":"B4","midi":71,"time":824.4451040000177,"velocity":0.7559055118110236,"duration":0.26273169166665866},{"name":"D5","midi":74,"time":824.4451040000177,"velocity":0.7559055118110236,"duration":0.26273169166665866},{"name":"G3","midi":55,"time":825.0006600000178,"velocity":0.7559055118110236,"duration":0.26273169166665866},{"name":"G4","midi":67,"time":825.0006600000178,"velocity":0.7559055118110236,"duration":0.26273169166665866},{"name":"B4","midi":71,"time":825.0006600000178,"velocity":0.7559055118110236,"duration":0.26273169166665866},{"name":"B3","midi":59,"time":825.5562160000178,"velocity":0.7559055118110236,"duration":0.26273169166665866},{"name":"B4","midi":71,"time":825.5562160000178,"velocity":0.7559055118110236,"duration":0.26273169166665866},{"name":"D5","midi":74,"time":825.5562160000178,"velocity":0.7559055118110236,"duration":0.26273169166665866},{"name":"G3","midi":55,"time":826.1117720000178,"velocity":0.7559055118110236,"duration":0.26273169166665866},{"name":"G4","midi":67,"time":826.1117720000178,"velocity":0.7559055118110236,"duration":0.26273169166665866},{"name":"B4","midi":71,"time":826.1117720000178,"velocity":0.7559055118110236,"duration":0.26273169166665866},{"name":"G#3","midi":56,"time":826.6673280000178,"velocity":0.7559055118110236,"duration":0.26273169166665866},{"name":"G#4","midi":68,"time":826.6673280000178,"velocity":0.7559055118110236,"duration":0.26273169166665866},{"name":"F3","midi":53,"time":827.2228840000179,"velocity":0.7559055118110236,"duration":0.26273169166665866},{"name":"F4","midi":65,"time":827.2228840000179,"velocity":0.7559055118110236,"duration":0.26273169166665866},{"name":"G#3","midi":56,"time":827.7784400000179,"velocity":0.7559055118110236,"duration":0.26273169166665866},{"name":"G#4","midi":68,"time":827.7784400000179,"velocity":0.7559055118110236,"duration":0.26273169166665866},{"name":"F3","midi":53,"time":828.3339960000179,"velocity":0.7559055118110236,"duration":0.26273169166665866},{"name":"F4","midi":65,"time":828.3339960000179,"velocity":0.7559055118110236,"duration":0.26273169166665866},{"name":"B3","midi":59,"time":828.8895520000179,"velocity":0.7559055118110236,"duration":0.26273169166665866},{"name":"B4","midi":71,"time":828.8895520000179,"velocity":0.7559055118110236,"duration":0.26273169166665866},{"name":"G3","midi":55,"time":829.445108000018,"velocity":0.7559055118110236,"duration":0.26273169166665866},{"name":"G4","midi":67,"time":829.445108000018,"velocity":0.7559055118110236,"duration":0.26273169166665866},{"name":"B3","midi":59,"time":830.000664000018,"velocity":0.7559055118110236,"duration":0.26273169166665866},{"name":"B4","midi":71,"time":830.000664000018,"velocity":0.7559055118110236,"duration":0.26273169166665866},{"name":"G3","midi":55,"time":830.556220000018,"velocity":0.7559055118110236,"duration":0.26273169166665866},{"name":"G4","midi":67,"time":830.556220000018,"velocity":0.7559055118110236,"duration":0.26273169166665866},{"name":"C4","midi":60,"time":831.111776000018,"velocity":0.7559055118110236,"duration":0.26273169166665866},{"name":"D#4","midi":63,"time":831.111776000018,"velocity":0.7559055118110236,"duration":0.26273169166665866},{"name":"C5","midi":72,"time":831.111776000018,"velocity":0.7559055118110236,"duration":0.26273169166665866},{"name":"D#5","midi":75,"time":831.111776000018,"velocity":0.7559055118110236,"duration":0.26273169166665866},{"name":"G#3","midi":56,"time":831.6673320000181,"velocity":0.7559055118110236,"duration":0.26273169166665866},{"name":"C4","midi":60,"time":831.6673320000181,"velocity":0.7559055118110236,"duration":0.26273169166665866},{"name":"G#4","midi":68,"time":831.6673320000181,"velocity":0.7559055118110236,"duration":0.26273169166665866},{"name":"C5","midi":72,"time":831.6673320000181,"velocity":0.7559055118110236,"duration":0.26273169166665866},{"name":"C4","midi":60,"time":832.2228880000181,"velocity":0.7559055118110236,"duration":0.26273169166665866},{"name":"D#4","midi":63,"time":832.2228880000181,"velocity":0.7559055118110236,"duration":0.26273169166665866},{"name":"C5","midi":72,"time":832.2228880000181,"velocity":0.7559055118110236,"duration":0.26273169166665866},{"name":"D#5","midi":75,"time":832.2228880000181,"velocity":0.7559055118110236,"duration":0.26273169166665866},{"name":"G#3","midi":56,"time":832.7784440000181,"velocity":0.7559055118110236,"duration":0.26273169166665866},{"name":"C4","midi":60,"time":832.7784440000181,"velocity":0.7559055118110236,"duration":0.26273169166665866},{"name":"G#4","midi":68,"time":832.7784440000181,"velocity":0.7559055118110236,"duration":0.26273169166665866},{"name":"C5","midi":72,"time":832.7784440000181,"velocity":0.7559055118110236,"duration":0.26273169166665866},{"name":"B3","midi":59,"time":833.3340000000181,"velocity":0.7559055118110236,"duration":0.26273169166665866},{"name":"B4","midi":71,"time":833.3340000000181,"velocity":0.7559055118110236,"duration":0.26273169166665866},{"name":"D5","midi":74,"time":833.3340000000181,"velocity":0.7559055118110236,"duration":0.26273169166665866},{"name":"G3","midi":55,"time":833.8895560000182,"velocity":0.7559055118110236,"duration":0.26273169166665866},{"name":"G4","midi":67,"time":833.8895560000182,"velocity":0.7559055118110236,"duration":0.26273169166665866},{"name":"B4","midi":71,"time":833.8895560000182,"velocity":0.7559055118110236,"duration":0.26273169166665866},{"name":"B3","midi":59,"time":834.4451120000182,"velocity":0.7559055118110236,"duration":0.26273169166665866},{"name":"B4","midi":71,"time":834.4451120000182,"velocity":0.7559055118110236,"duration":0.26273169166665866},{"name":"D5","midi":74,"time":834.4451120000182,"velocity":0.7559055118110236,"duration":0.26273169166665866},{"name":"G3","midi":55,"time":835.0006680000182,"velocity":0.7559055118110236,"duration":0.26273169166665866},{"name":"G4","midi":67,"time":835.0006680000182,"velocity":0.7559055118110236,"duration":0.26273169166665866},{"name":"B4","midi":71,"time":835.0006680000182,"velocity":0.7559055118110236,"duration":0.26273169166665866},{"name":"G#3","midi":56,"time":835.5562240000182,"velocity":0.7559055118110236,"duration":0.26273169166665866},{"name":"G#4","midi":68,"time":835.5562240000182,"velocity":0.7559055118110236,"duration":0.26273169166665866},{"name":"F3","midi":53,"time":836.1117800000183,"velocity":0.7559055118110236,"duration":0.26273169166665866},{"name":"F4","midi":65,"time":836.1117800000183,"velocity":0.7559055118110236,"duration":0.26273169166665866},{"name":"G#3","midi":56,"time":836.6673360000183,"velocity":0.7559055118110236,"duration":0.26273169166665866},{"name":"G#4","midi":68,"time":836.6673360000183,"velocity":0.7559055118110236,"duration":0.26273169166665866},{"name":"F3","midi":53,"time":837.2228920000183,"velocity":0.7559055118110236,"duration":0.26273169166665866},{"name":"F4","midi":65,"time":837.2228920000183,"velocity":0.7559055118110236,"duration":0.26273169166665866},{"name":"B3","midi":59,"time":837.7784480000183,"velocity":0.7559055118110236,"duration":0.26273169166665866},{"name":"B4","midi":71,"time":837.7784480000183,"velocity":0.7559055118110236,"duration":0.26273169166665866},{"name":"G3","midi":55,"time":838.3340040000184,"velocity":0.7559055118110236,"duration":0.26273169166665866},{"name":"G4","midi":67,"time":838.3340040000184,"velocity":0.7559055118110236,"duration":0.26273169166665866},{"name":"B3","midi":59,"time":838.8895600000184,"velocity":0.7559055118110236,"duration":0.26273169166665866},{"name":"B4","midi":71,"time":838.8895600000184,"velocity":0.7559055118110236,"duration":0.26273169166665866},{"name":"G3","midi":55,"time":839.4451160000184,"velocity":0.7559055118110236,"duration":0.26273169166665866},{"name":"G4","midi":67,"time":839.4451160000184,"velocity":0.7559055118110236,"duration":0.26273169166665866},{"name":"C4","midi":60,"time":840.0006720000184,"velocity":0.7559055118110236,"duration":0.26273169166665866},{"name":"C5","midi":72,"time":840.0006720000184,"velocity":0.7559055118110236,"duration":0.26273169166665866},{"name":"G#3","midi":56,"time":840.5562280000185,"velocity":0.7559055118110236,"duration":0.26273169166665866},{"name":"G#4","midi":68,"time":840.5562280000185,"velocity":0.7559055118110236,"duration":0.26273169166665866},{"name":"C4","midi":60,"time":841.1117840000185,"velocity":0.7559055118110236,"duration":0.26273169166665866},{"name":"C5","midi":72,"time":841.1117840000185,"velocity":0.7559055118110236,"duration":0.26273169166665866},{"name":"G#3","midi":56,"time":841.6673400000185,"velocity":0.7559055118110236,"duration":0.26273169166665866},{"name":"G#4","midi":68,"time":841.6673400000185,"velocity":0.7559055118110236,"duration":0.26273169166665866},{"name":"B3","midi":59,"time":842.2228960000185,"velocity":0.7559055118110236,"duration":0.26273169166665866},{"name":"B4","midi":71,"time":842.2228960000185,"velocity":0.7559055118110236,"duration":0.26273169166665866},{"name":"G3","midi":55,"time":842.7784520000185,"velocity":0.7559055118110236,"duration":0.26273169166665866},{"name":"G4","midi":67,"time":842.7784520000185,"velocity":0.7559055118110236,"duration":0.26273169166665866},{"name":"B3","midi":59,"time":843.3340080000186,"velocity":0.7559055118110236,"duration":0.26273169166665866},{"name":"B4","midi":71,"time":843.3340080000186,"velocity":0.7559055118110236,"duration":0.26273169166665866},{"name":"G3","midi":55,"time":843.8895640000186,"velocity":0.7559055118110236,"duration":0.26273169166665866},{"name":"G4","midi":67,"time":843.8895640000186,"velocity":0.7559055118110236,"duration":0.26273169166665866},{"name":"G#3","midi":56,"time":844.4451200000186,"velocity":0.7559055118110236,"duration":0.26273169166665866},{"name":"G#4","midi":68,"time":844.4451200000186,"velocity":0.7559055118110236,"duration":0.26273169166665866},{"name":"F3","midi":53,"time":845.0006760000186,"velocity":0.7559055118110236,"duration":0.26273169166665866},{"name":"F4","midi":65,"time":845.0006760000186,"velocity":0.7559055118110236,"duration":0.26273169166665866},{"name":"G#3","midi":56,"time":845.5562320000187,"velocity":0.7559055118110236,"duration":0.26273169166665866},{"name":"G#4","midi":68,"time":845.5562320000187,"velocity":0.7559055118110236,"duration":0.26273169166665866},{"name":"F3","midi":53,"time":846.1117880000187,"velocity":0.7559055118110236,"duration":0.26273169166665866},{"name":"F4","midi":65,"time":846.1117880000187,"velocity":0.7559055118110236,"duration":0.26273169166665866},{"name":"B3","midi":59,"time":846.6673440000187,"velocity":0.7559055118110236,"duration":0.26273169166665866},{"name":"B4","midi":71,"time":846.6673440000187,"velocity":0.7559055118110236,"duration":0.26273169166665866},{"name":"G3","midi":55,"time":847.2229000000187,"velocity":0.7559055118110236,"duration":0.26273169166665866},{"name":"G4","midi":67,"time":847.2229000000187,"velocity":0.7559055118110236,"duration":0.26273169166665866},{"name":"B3","midi":59,"time":847.7784560000188,"velocity":0.7559055118110236,"duration":0.26273169166665866},{"name":"B4","midi":71,"time":847.7784560000188,"velocity":0.7559055118110236,"duration":0.26273169166665866},{"name":"G3","midi":55,"time":848.3340120000188,"velocity":0.7559055118110236,"duration":0.26273169166665866},{"name":"G4","midi":67,"time":848.3340120000188,"velocity":0.7559055118110236,"duration":0.26273169166665866},{"name":"C4","midi":60,"time":848.8895680000188,"velocity":0.7559055118110236,"duration":0.26273169166665866},{"name":"C5","midi":72,"time":848.8895680000188,"velocity":0.7559055118110236,"duration":0.26273169166665866},{"name":"G#3","midi":56,"time":849.4451240000188,"velocity":0.7559055118110236,"duration":0.26273169166665866},{"name":"G#4","midi":68,"time":849.4451240000188,"velocity":0.7559055118110236,"duration":0.26273169166665866},{"name":"G#3","midi":56,"time":850.0006800000189,"velocity":0.7559055118110236,"duration":0.26273169166665866},{"name":"G#4","midi":68,"time":850.0006800000189,"velocity":0.7559055118110236,"duration":0.26273169166665866},{"name":"F3","midi":53,"time":850.5562360000189,"velocity":0.7559055118110236,"duration":0.26273169166665866},{"name":"F4","midi":65,"time":850.5562360000189,"velocity":0.7559055118110236,"duration":0.26273169166665866},{"name":"B3","midi":59,"time":851.1117920000189,"velocity":0.7559055118110236,"duration":0.26273169166665866},{"name":"B4","midi":71,"time":851.1117920000189,"velocity":0.7559055118110236,"duration":0.26273169166665866},{"name":"G3","midi":55,"time":851.6673480000189,"velocity":0.7559055118110236,"duration":0.26273169166665866},{"name":"G4","midi":67,"time":851.6673480000189,"velocity":0.7559055118110236,"duration":0.26273169166665866},{"name":"A#3","midi":58,"time":854.1673500000189,"velocity":0.6299212598425197,"duration":0.5266207916666872},{"name":"A#4","midi":70,"time":854.1673500000189,"velocity":0.6299212598425197,"duration":0.5266207916666872},{"name":"D#4","midi":63,"time":855.278462000019,"velocity":0.6299212598425197,"duration":0.26273169166665866},{"name":"D#5","midi":75,"time":855.278462000019,"velocity":0.6299212598425197,"duration":0.26273169166665866},{"name":"D#4","midi":63,"time":855.556240000019,"velocity":0.6299212598425197,"duration":0.26273169166665866},{"name":"D#5","midi":75,"time":855.556240000019,"velocity":0.6299212598425197,"duration":0.26273169166665866},{"name":"D#4","midi":63,"time":855.834018000019,"velocity":0.7559055118110236,"duration":0.26273169166665866},{"name":"D#5","midi":75,"time":855.834018000019,"velocity":0.7559055118110236,"duration":0.26273169166665866},{"name":"A#3","midi":58,"time":856.111796000019,"velocity":0.7559055118110236,"duration":0.26273169166665866},{"name":"A#4","midi":70,"time":856.111796000019,"velocity":0.7559055118110236,"duration":0.26273169166665866},{"name":"C#4","midi":61,"time":856.389574000019,"velocity":0.7559055118110236,"duration":0.26273169166665866},{"name":"C#5","midi":73,"time":856.389574000019,"velocity":0.7559055118110236,"duration":0.26273169166665866},{"name":"C#4","midi":61,"time":856.667352000019,"velocity":0.7559055118110236,"duration":0.26273169166665866},{"name":"C#5","midi":73,"time":856.667352000019,"velocity":0.7559055118110236,"duration":0.26273169166665866},{"name":"D#4","midi":63,"time":856.945130000019,"velocity":0.7559055118110236,"duration":0.26273169166665866},{"name":"D#5","midi":75,"time":856.945130000019,"velocity":0.7559055118110236,"duration":0.26273169166665866},{"name":"D#4","midi":63,"time":857.2229080000191,"velocity":0.7559055118110236,"duration":0.26273169166665866},{"name":"D#5","midi":75,"time":857.2229080000191,"velocity":0.7559055118110236,"duration":0.26273169166665866},{"name":"G#3","midi":56,"time":857.5006860000191,"velocity":0.8818897637795275,"duration":0.5266207916666872},{"name":"G#4","midi":68,"time":857.5006860000191,"velocity":0.8818897637795275,"duration":0.5266207916666872},{"name":"G#3","midi":56,"time":858.0562420000191,"velocity":0.8818897637795275,"duration":0.13773159166669302},{"name":"G#4","midi":68,"time":858.0562420000191,"velocity":0.8818897637795275,"duration":0.13773159166669302},{"name":"G#3","midi":56,"time":858.3340200000191,"velocity":0.8818897637795275,"duration":0.13773159166669302},{"name":"G#4","midi":68,"time":858.3340200000191,"velocity":0.8818897637795275,"duration":0.13773159166669302},{"name":"G#3","midi":56,"time":858.8895760000191,"velocity":0.8818897637795275,"duration":0.13773159166669302},{"name":"G#4","midi":68,"time":858.8895760000191,"velocity":0.8818897637795275,"duration":0.13773159166669302},{"name":"G#3","midi":56,"time":859.4451320000192,"velocity":0.8818897637795275,"duration":0.13773159166669302},{"name":"G#4","midi":68,"time":859.4451320000192,"velocity":0.8818897637795275,"duration":0.13773159166669302},{"name":"G#3","midi":56,"time":860.0006880000192,"velocity":0.8818897637795275,"duration":0.13773159166669302},{"name":"G#4","midi":68,"time":860.0006880000192,"velocity":0.8818897637795275,"duration":0.13773159166669302},{"name":"G#3","midi":56,"time":860.5562440000192,"velocity":0.8818897637795275,"duration":0.13773159166669302},{"name":"G#4","midi":68,"time":860.5562440000192,"velocity":0.8818897637795275,"duration":0.13773159166669302},{"name":"G#3","midi":56,"time":861.1118000000192,"velocity":0.8818897637795275,"duration":0.26273169166665866},{"name":"G#4","midi":68,"time":861.1118000000192,"velocity":0.8818897637795275,"duration":0.26273169166665866},{"name":"G#3","midi":56,"time":861.3895780000192,"velocity":0.8818897637795275,"duration":0.5266207916666872},{"name":"G#4","midi":68,"time":861.3895780000192,"velocity":0.8818897637795275,"duration":0.5266207916666872},{"name":"A#3","midi":58,"time":861.9451340000193,"velocity":0.8818897637795275,"duration":0.5266207916666872},{"name":"A#4","midi":70,"time":861.9451340000193,"velocity":0.8818897637795275,"duration":0.5266207916666872},{"name":"A#3","midi":58,"time":862.5006900000193,"velocity":0.8818897637795275,"duration":0.13773159166669302},{"name":"A#4","midi":70,"time":862.5006900000193,"velocity":0.8818897637795275,"duration":0.13773159166669302},{"name":"A#3","midi":58,"time":862.7784680000193,"velocity":0.8818897637795275,"duration":0.13773159166669302},{"name":"A#4","midi":70,"time":862.7784680000193,"velocity":0.8818897637795275,"duration":0.13773159166669302},{"name":"A#3","midi":58,"time":863.3340240000193,"velocity":0.8818897637795275,"duration":0.13773159166669302},{"name":"A#4","midi":70,"time":863.3340240000193,"velocity":0.8818897637795275,"duration":0.13773159166669302},{"name":"A#3","midi":58,"time":863.8895800000194,"velocity":0.8818897637795275,"duration":0.13773159166669302},{"name":"A#4","midi":70,"time":863.8895800000194,"velocity":0.8818897637795275,"duration":0.13773159166669302},{"name":"A#3","midi":58,"time":864.4451360000194,"velocity":0.8818897637795275,"duration":0.13773159166669302},{"name":"A#4","midi":70,"time":864.4451360000194,"velocity":0.8818897637795275,"duration":0.13773159166669302},{"name":"A#3","midi":58,"time":865.0006920000194,"velocity":0.8818897637795275,"duration":0.13773159166669302},{"name":"A#4","midi":70,"time":865.0006920000194,"velocity":0.8818897637795275,"duration":0.13773159166669302},{"name":"A#3","midi":58,"time":865.5562480000194,"velocity":0.8818897637795275,"duration":0.26273169166665866},{"name":"A#4","midi":70,"time":865.5562480000194,"velocity":0.8818897637795275,"duration":0.26273169166665866},{"name":"A#3","midi":58,"time":865.8340260000194,"velocity":0.8818897637795275,"duration":0.26273169166665866},{"name":"A#4","midi":70,"time":865.8340260000194,"velocity":0.8818897637795275,"duration":0.26273169166665866},{"name":"A3","midi":57,"time":866.1118040000194,"velocity":0.8818897637795275,"duration":0.26273169166665866},{"name":"A4","midi":69,"time":866.1118040000194,"velocity":0.8818897637795275,"duration":0.26273169166665866},{"name":"G#3","midi":56,"time":866.3895820000195,"velocity":0.8818897637795275,"duration":0.5266207916666872},{"name":"G#4","midi":68,"time":866.3895820000195,"velocity":0.8818897637795275,"duration":0.5266207916666872},{"name":"G#3","midi":56,"time":866.9451380000195,"velocity":0.8818897637795275,"duration":0.13773159166669302},{"name":"G#4","midi":68,"time":866.9451380000195,"velocity":0.8818897637795275,"duration":0.13773159166669302},{"name":"G#3","midi":56,"time":867.2229160000195,"velocity":0.8818897637795275,"duration":0.13773159166669302},{"name":"G#4","midi":68,"time":867.2229160000195,"velocity":0.8818897637795275,"duration":0.13773159166669302},{"name":"G#3","midi":56,"time":867.7784720000195,"velocity":0.8818897637795275,"duration":0.13773159166669302},{"name":"G#4","midi":68,"time":867.7784720000195,"velocity":0.8818897637795275,"duration":0.13773159166669302},{"name":"G#3","midi":56,"time":868.3340280000195,"velocity":0.8818897637795275,"duration":0.13773159166669302},{"name":"G#4","midi":68,"time":868.3340280000195,"velocity":0.8818897637795275,"duration":0.13773159166669302},{"name":"G#3","midi":56,"time":868.8895840000196,"velocity":0.8818897637795275,"duration":0.13773159166669302},{"name":"G#4","midi":68,"time":868.8895840000196,"velocity":0.8818897637795275,"duration":0.13773159166669302},{"name":"G#3","midi":56,"time":869.4451400000196,"velocity":0.8818897637795275,"duration":0.13773159166669302},{"name":"G#4","midi":68,"time":869.4451400000196,"velocity":0.8818897637795275,"duration":0.13773159166669302},{"name":"G#3","midi":56,"time":870.0006960000196,"velocity":0.8818897637795275,"duration":0.26273169166665866},{"name":"G#4","midi":68,"time":870.0006960000196,"velocity":0.8818897637795275,"duration":0.26273169166665866},{"name":"G#3","midi":56,"time":870.2784740000196,"velocity":0.8818897637795275,"duration":0.5266207916666872},{"name":"G#4","midi":68,"time":870.2784740000196,"velocity":0.8818897637795275,"duration":0.5266207916666872},{"name":"A#3","midi":58,"time":870.8340300000197,"velocity":0.8818897637795275,"duration":0.5266207916666872},{"name":"A#4","midi":70,"time":870.8340300000197,"velocity":0.8818897637795275,"duration":0.5266207916666872},{"name":"A#3","midi":58,"time":871.3895860000197,"velocity":0.8818897637795275,"duration":0.13773159166669302},{"name":"A#4","midi":70,"time":871.3895860000197,"velocity":0.8818897637795275,"duration":0.13773159166669302},{"name":"A#3","midi":58,"time":871.6673640000197,"velocity":0.8818897637795275,"duration":0.13773159166669302},{"name":"A#4","midi":70,"time":871.6673640000197,"velocity":0.8818897637795275,"duration":0.13773159166669302},{"name":"A#3","midi":58,"time":872.2229200000197,"velocity":0.8818897637795275,"duration":0.13773159166669302},{"name":"A#4","midi":70,"time":872.2229200000197,"velocity":0.8818897637795275,"duration":0.13773159166669302},{"name":"A#3","midi":58,"time":872.7784760000197,"velocity":0.8818897637795275,"duration":0.13773159166669302},{"name":"A#4","midi":70,"time":872.7784760000197,"velocity":0.8818897637795275,"duration":0.13773159166669302},{"name":"A#3","midi":58,"time":873.3340320000198,"velocity":0.8818897637795275,"duration":0.13773159166669302},{"name":"A#4","midi":70,"time":873.3340320000198,"velocity":0.8818897637795275,"duration":0.13773159166669302},{"name":"A#3","midi":58,"time":873.8895880000198,"velocity":0.8818897637795275,"duration":0.13773159166669302},{"name":"A#4","midi":70,"time":873.8895880000198,"velocity":0.8818897637795275,"duration":0.13773159166669302},{"name":"A#3","midi":58,"time":874.4451440000198,"velocity":0.8818897637795275,"duration":0.26273169166665866},{"name":"A#4","midi":70,"time":874.4451440000198,"velocity":0.8818897637795275,"duration":0.26273169166665866},{"name":"A#3","midi":58,"time":874.7229220000198,"velocity":0.8818897637795275,"duration":0.26273169166665866},{"name":"A#4","midi":70,"time":874.7229220000198,"velocity":0.8818897637795275,"duration":0.26273169166665866},{"name":"A3","midi":57,"time":875.0007000000198,"velocity":0.8818897637795275,"duration":0.26273169166665866},{"name":"A4","midi":69,"time":875.0007000000198,"velocity":0.8818897637795275,"duration":0.26273169166665866},{"name":"G#3","midi":56,"time":875.2784780000198,"velocity":0.8818897637795275,"duration":0.5266207916666872},{"name":"G#4","midi":68,"time":875.2784780000198,"velocity":0.8818897637795275,"duration":0.5266207916666872},{"name":"G#3","midi":56,"time":875.8340340000199,"velocity":0.8818897637795275,"duration":0.13773159166669302},{"name":"G#4","midi":68,"time":875.8340340000199,"velocity":0.8818897637795275,"duration":0.13773159166669302},{"name":"G#3","midi":56,"time":876.1118120000199,"velocity":0.8818897637795275,"duration":0.13773159166669302},{"name":"G#4","midi":68,"time":876.1118120000199,"velocity":0.8818897637795275,"duration":0.13773159166669302},{"name":"G#3","midi":56,"time":876.6673680000199,"velocity":0.8818897637795275,"duration":0.13773159166669302},{"name":"G#4","midi":68,"time":876.6673680000199,"velocity":0.8818897637795275,"duration":0.13773159166669302},{"name":"G#3","midi":56,"time":877.2229240000199,"velocity":0.8818897637795275,"duration":0.13773159166669302},{"name":"G#4","midi":68,"time":877.2229240000199,"velocity":0.8818897637795275,"duration":0.13773159166669302},{"name":"G#3","midi":56,"time":877.77848000002,"velocity":0.8818897637795275,"duration":0.13773159166669302},{"name":"G#4","midi":68,"time":877.77848000002,"velocity":0.8818897637795275,"duration":0.13773159166669302},{"name":"G#3","midi":56,"time":878.33403600002,"velocity":0.8818897637795275,"duration":0.13773159166669302},{"name":"G#4","midi":68,"time":878.33403600002,"velocity":0.8818897637795275,"duration":0.13773159166669302},{"name":"G#3","midi":56,"time":878.88959200002,"velocity":0.8818897637795275,"duration":0.26273169166665866},{"name":"G#4","midi":68,"time":878.88959200002,"velocity":0.8818897637795275,"duration":0.26273169166665866},{"name":"G#3","midi":56,"time":879.16737000002,"velocity":0.8818897637795275,"duration":0.5266207916666872},{"name":"G#4","midi":68,"time":879.16737000002,"velocity":0.8818897637795275,"duration":0.5266207916666872},{"name":"A#3","midi":58,"time":879.72292600002,"velocity":0.8818897637795275,"duration":0.5266207916666872},{"name":"A#4","midi":70,"time":879.72292600002,"velocity":0.8818897637795275,"duration":0.5266207916666872},{"name":"A#3","midi":58,"time":880.2784820000201,"velocity":0.8818897637795275,"duration":0.13773159166669302},{"name":"A#4","midi":70,"time":880.2784820000201,"velocity":0.8818897637795275,"duration":0.13773159166669302},{"name":"A#3","midi":58,"time":880.5562600000201,"velocity":0.8818897637795275,"duration":0.13773159166669302},{"name":"A#4","midi":70,"time":880.5562600000201,"velocity":0.8818897637795275,"duration":0.13773159166669302},{"name":"A#3","midi":58,"time":881.1118160000201,"velocity":0.8818897637795275,"duration":0.13773159166669302},{"name":"A#4","midi":70,"time":881.1118160000201,"velocity":0.8818897637795275,"duration":0.13773159166669302},{"name":"A#3","midi":58,"time":881.6673720000201,"velocity":0.8818897637795275,"duration":0.13773159166669302},{"name":"A#4","midi":70,"time":881.6673720000201,"velocity":0.8818897637795275,"duration":0.13773159166669302},{"name":"A#3","midi":58,"time":882.2229280000201,"velocity":0.8818897637795275,"duration":0.13773159166669302},{"name":"A#4","midi":70,"time":882.2229280000201,"velocity":0.8818897637795275,"duration":0.13773159166669302},{"name":"A#3","midi":58,"time":882.7784840000202,"velocity":0.8818897637795275,"duration":0.13773159166669302},{"name":"A#4","midi":70,"time":882.7784840000202,"velocity":0.8818897637795275,"duration":0.13773159166669302},{"name":"A#3","midi":58,"time":883.3340400000202,"velocity":0.8818897637795275,"duration":0.26273169166665866},{"name":"A#4","midi":70,"time":883.3340400000202,"velocity":0.8818897637795275,"duration":0.26273169166665866},{"name":"A#3","midi":58,"time":883.6118180000202,"velocity":0.8818897637795275,"duration":0.26273169166665866},{"name":"A#4","midi":70,"time":883.6118180000202,"velocity":0.8818897637795275,"duration":0.26273169166665866},{"name":"A3","midi":57,"time":883.8895960000202,"velocity":0.8818897637795275,"duration":0.26273169166665866},{"name":"A4","midi":69,"time":883.8895960000202,"velocity":0.8818897637795275,"duration":0.26273169166665866},{"name":"G#3","midi":56,"time":884.1673740000202,"velocity":0.8818897637795275,"duration":0.5266207916666872},{"name":"G#4","midi":68,"time":884.1673740000202,"velocity":0.8818897637795275,"duration":0.5266207916666872},{"name":"G#3","midi":56,"time":884.7229300000203,"velocity":0.8818897637795275,"duration":0.13773159166669302},{"name":"G#4","midi":68,"time":884.7229300000203,"velocity":0.8818897637795275,"duration":0.13773159166669302},{"name":"G#3","midi":56,"time":885.0007080000203,"velocity":0.8818897637795275,"duration":0.13773159166669302},{"name":"G#4","midi":68,"time":885.0007080000203,"velocity":0.8818897637795275,"duration":0.13773159166669302},{"name":"G#3","midi":56,"time":885.5562640000203,"velocity":0.8818897637795275,"duration":0.13773159166669302},{"name":"G#4","midi":68,"time":885.5562640000203,"velocity":0.8818897637795275,"duration":0.13773159166669302},{"name":"G#3","midi":56,"time":886.1118200000203,"velocity":0.8818897637795275,"duration":0.13773159166669302},{"name":"G#4","midi":68,"time":886.1118200000203,"velocity":0.8818897637795275,"duration":0.13773159166669302},{"name":"G#3","midi":56,"time":886.6673760000203,"velocity":0.8818897637795275,"duration":0.13773159166669302},{"name":"G#4","midi":68,"time":886.6673760000203,"velocity":0.8818897637795275,"duration":0.13773159166669302},{"name":"G#3","midi":56,"time":887.2229320000204,"velocity":0.8818897637795275,"duration":0.13773159166669302},{"name":"G#4","midi":68,"time":887.2229320000204,"velocity":0.8818897637795275,"duration":0.13773159166669302},{"name":"G#3","midi":56,"time":887.7784880000204,"velocity":0.8818897637795275,"duration":0.26273169166665866},{"name":"G#4","midi":68,"time":887.7784880000204,"velocity":0.8818897637795275,"duration":0.26273169166665866},{"name":"G#3","midi":56,"time":888.0562660000204,"velocity":0.8818897637795275,"duration":0.5266207916666872},{"name":"G#4","midi":68,"time":888.0562660000204,"velocity":0.8818897637795275,"duration":0.5266207916666872},{"name":"A#3","midi":58,"time":888.6118220000204,"velocity":0.8818897637795275,"duration":0.5266207916666872},{"name":"A#4","midi":70,"time":888.6118220000204,"velocity":0.8818897637795275,"duration":0.5266207916666872},{"name":"A#3","midi":58,"time":889.1673780000204,"velocity":0.8818897637795275,"duration":0.13773159166669302},{"name":"A#4","midi":70,"time":889.1673780000204,"velocity":0.8818897637795275,"duration":0.13773159166669302},{"name":"A#3","midi":58,"time":889.4451560000205,"velocity":0.8818897637795275,"duration":0.13773159166669302},{"name":"A#4","midi":70,"time":889.4451560000205,"velocity":0.8818897637795275,"duration":0.13773159166669302},{"name":"A#3","midi":58,"time":890.0007120000205,"velocity":0.8818897637795275,"duration":0.13773159166669302},{"name":"A#4","midi":70,"time":890.0007120000205,"velocity":0.8818897637795275,"duration":0.13773159166669302},{"name":"A#3","midi":58,"time":890.5562680000205,"velocity":0.8818897637795275,"duration":0.13773159166669302},{"name":"A#4","midi":70,"time":890.5562680000205,"velocity":0.8818897637795275,"duration":0.13773159166669302},{"name":"A#3","midi":58,"time":891.1118240000205,"velocity":0.8818897637795275,"duration":0.13773159166669302},{"name":"A#4","midi":70,"time":891.1118240000205,"velocity":0.8818897637795275,"duration":0.13773159166669302},{"name":"A#3","midi":58,"time":891.6673800000206,"velocity":0.8818897637795275,"duration":0.13773159166669302},{"name":"A#4","midi":70,"time":891.6673800000206,"velocity":0.8818897637795275,"duration":0.13773159166669302},{"name":"A#3","midi":58,"time":892.2229360000206,"velocity":0.8818897637795275,"duration":0.26273169166665866},{"name":"A#4","midi":70,"time":892.2229360000206,"velocity":0.8818897637795275,"duration":0.26273169166665866},{"name":"A#3","midi":58,"time":892.5007140000206,"velocity":0.8818897637795275,"duration":0.26273169166665866},{"name":"A#4","midi":70,"time":892.5007140000206,"velocity":0.8818897637795275,"duration":0.26273169166665866},{"name":"A3","midi":57,"time":892.7784920000206,"velocity":0.8818897637795275,"duration":0.26273169166665866},{"name":"A4","midi":69,"time":892.7784920000206,"velocity":0.8818897637795275,"duration":0.26273169166665866},{"name":"A#3","midi":58,"time":895.1396050000207,"velocity":0.8818897637795275,"duration":0.0648148666666657},{"name":"B3","midi":59,"time":895.2090495000207,"velocity":0.8818897637795275,"duration":0.0648148666666657},{"name":"C4","midi":60,"time":895.2784940000207,"velocity":0.8818897637795275,"duration":0.26273169166665866},{"name":"C5","midi":72,"time":895.2784940000207,"velocity":0.8818897637795275,"duration":0.26273169166665866},{"name":"C4","midi":60,"time":895.5562720000207,"velocity":0.8818897637795275,"duration":0.26273169166665866},{"name":"C5","midi":72,"time":895.5562720000207,"velocity":0.8818897637795275,"duration":0.26273169166665866},{"name":"C5","midi":72,"time":895.8340500000207,"velocity":0.8818897637795275,"duration":0.26273169166665866},{"name":"C6","midi":84,"time":895.8340500000207,"velocity":0.8818897637795275,"duration":0.26273169166665866},{"name":"A#4","midi":70,"time":896.1118280000208,"velocity":0.8818897637795275,"duration":0.26273169166665866},{"name":"A#5","midi":82,"time":896.1118280000208,"velocity":0.8818897637795275,"duration":0.26273169166665866},{"name":"G4","midi":67,"time":896.3896060000208,"velocity":0.8818897637795275,"duration":0.26273169166665866},{"name":"G5","midi":79,"time":896.3896060000208,"velocity":0.8818897637795275,"duration":0.26273169166665866},{"name":"F4","midi":65,"time":896.6673840000208,"velocity":0.8818897637795275,"duration":0.26273169166665866},{"name":"F5","midi":77,"time":896.6673840000208,"velocity":0.8818897637795275,"duration":0.26273169166665866},{"name":"D#4","midi":63,"time":896.9451620000208,"velocity":0.8818897637795275,"duration":0.26273169166665866},{"name":"D#5","midi":75,"time":896.9451620000208,"velocity":0.8818897637795275,"duration":0.26273169166665866},{"name":"F4","midi":65,"time":897.2229400000208,"velocity":0.8818897637795275,"duration":0.26273169166665866},{"name":"F5","midi":77,"time":897.2229400000208,"velocity":0.8818897637795275,"duration":0.26273169166665866},{"name":"C4","midi":60,"time":897.5007180000208,"velocity":0.8818897637795275,"duration":0.26273169166665866},{"name":"C5","midi":72,"time":897.5007180000208,"velocity":0.8818897637795275,"duration":0.26273169166665866},{"name":"C4","midi":60,"time":897.7784960000208,"velocity":0.8818897637795275,"duration":0.26273169166665866},{"name":"C5","midi":72,"time":897.7784960000208,"velocity":0.8818897637795275,"duration":0.26273169166665866},{"name":"C5","midi":72,"time":898.0562740000208,"velocity":0.8818897637795275,"duration":0.26273169166665866},{"name":"C6","midi":84,"time":898.0562740000208,"velocity":0.8818897637795275,"duration":0.26273169166665866},{"name":"A#4","midi":70,"time":898.3340520000208,"velocity":0.8818897637795275,"duration":0.26273169166665866},{"name":"A#5","midi":82,"time":898.3340520000208,"velocity":0.8818897637795275,"duration":0.26273169166665866},{"name":"G4","midi":67,"time":898.6118300000209,"velocity":0.8818897637795275,"duration":0.26273169166665866},{"name":"G5","midi":79,"time":898.6118300000209,"velocity":0.8818897637795275,"duration":0.26273169166665866},{"name":"F4","midi":65,"time":898.8896080000209,"velocity":0.8818897637795275,"duration":0.26273169166665866},{"name":"F5","midi":77,"time":898.8896080000209,"velocity":0.8818897637795275,"duration":0.26273169166665866},{"name":"D#4","midi":63,"time":899.1673860000209,"velocity":0.8818897637795275,"duration":0.26273169166665866},{"name":"D#5","midi":75,"time":899.1673860000209,"velocity":0.8818897637795275,"duration":0.26273169166665866},{"name":"F4","midi":65,"time":899.4451640000209,"velocity":0.8818897637795275,"duration":0.13078714166670125},{"name":"F5","midi":77,"time":899.4451640000209,"velocity":0.8818897637795275,"duration":0.13078714166670125},{"name":"C4","midi":60,"time":899.584053000021,"velocity":0.8818897637795275,"duration":0.13078714166670125},{"name":"C5","midi":72,"time":899.584053000021,"velocity":0.8818897637795275,"duration":0.13078714166670125},{"name":"B3","midi":59,"time":899.722942000021,"velocity":0.8818897637795275,"duration":1.846066291666716},{"name":"B4","midi":71,"time":899.722942000021,"velocity":0.8818897637795275,"duration":1.846066291666716},{"name":"C4","midi":60,"time":901.6673880000211,"velocity":0.8818897637795275,"duration":0.13078714166670125},{"name":"C5","midi":72,"time":901.6673880000211,"velocity":0.8818897637795275,"duration":0.13078714166670125},{"name":"C#4","midi":61,"time":901.8062770000212,"velocity":0.8818897637795275,"duration":0.13078714166670125},{"name":"C#5","midi":73,"time":901.8062770000212,"velocity":0.8818897637795275,"duration":0.13078714166670125},{"name":"D4","midi":62,"time":901.9451660000212,"velocity":0.8818897637795275,"duration":2.109955391666631},{"name":"D5","midi":74,"time":901.9451660000212,"velocity":0.8818897637795275,"duration":2.109955391666631},{"name":"C4","midi":60,"time":904.1673900000212,"velocity":0.8818897637795275,"duration":0.26273169166665866},{"name":"C5","midi":72,"time":904.1673900000212,"velocity":0.8818897637795275,"duration":0.26273169166665866},{"name":"C4","midi":60,"time":904.4451680000212,"velocity":0.8818897637795275,"duration":0.26273169166665866},{"name":"C5","midi":72,"time":904.4451680000212,"velocity":0.8818897637795275,"duration":0.26273169166665866},{"name":"C5","midi":72,"time":904.7229460000212,"velocity":0.8818897637795275,"duration":0.26273169166665866},{"name":"C6","midi":84,"time":904.7229460000212,"velocity":0.8818897637795275,"duration":0.26273169166665866},{"name":"A#4","midi":70,"time":905.0007240000213,"velocity":0.8818897637795275,"duration":0.26273169166665866},{"name":"A#5","midi":82,"time":905.0007240000213,"velocity":0.8818897637795275,"duration":0.26273169166665866},{"name":"G4","midi":67,"time":905.2785020000213,"velocity":0.8818897637795275,"duration":0.26273169166665866},{"name":"G5","midi":79,"time":905.2785020000213,"velocity":0.8818897637795275,"duration":0.26273169166665866},{"name":"F4","midi":65,"time":905.5562800000213,"velocity":0.8818897637795275,"duration":0.26273169166665866},{"name":"F5","midi":77,"time":905.5562800000213,"velocity":0.8818897637795275,"duration":0.26273169166665866},{"name":"D#4","midi":63,"time":905.8340580000213,"velocity":0.8818897637795275,"duration":0.26273169166665866},{"name":"D#5","midi":75,"time":905.8340580000213,"velocity":0.8818897637795275,"duration":0.26273169166665866},{"name":"F4","midi":65,"time":906.1118360000213,"velocity":0.8818897637795275,"duration":0.26273169166665866},{"name":"F5","midi":77,"time":906.1118360000213,"velocity":0.8818897637795275,"duration":0.26273169166665866},{"name":"C4","midi":60,"time":906.3896140000213,"velocity":0.8818897637795275,"duration":0.26273169166665866},{"name":"C5","midi":72,"time":906.3896140000213,"velocity":0.8818897637795275,"duration":0.26273169166665866},{"name":"C4","midi":60,"time":906.6673920000213,"velocity":0.8818897637795275,"duration":0.26273169166665866},{"name":"C5","midi":72,"time":906.6673920000213,"velocity":0.8818897637795275,"duration":0.26273169166665866},{"name":"C5","midi":72,"time":906.9451700000213,"velocity":0.8818897637795275,"duration":0.26273169166665866},{"name":"C6","midi":84,"time":906.9451700000213,"velocity":0.8818897637795275,"duration":0.26273169166665866},{"name":"A#4","midi":70,"time":907.2229480000213,"velocity":0.8818897637795275,"duration":0.26273169166665866},{"name":"A#5","midi":82,"time":907.2229480000213,"velocity":0.8818897637795275,"duration":0.26273169166665866},{"name":"G4","midi":67,"time":907.5007260000214,"velocity":0.8818897637795275,"duration":0.26273169166665866},{"name":"G5","midi":79,"time":907.5007260000214,"velocity":0.8818897637795275,"duration":0.26273169166665866},{"name":"F4","midi":65,"time":907.7785040000214,"velocity":0.8818897637795275,"duration":0.26273169166665866},{"name":"F5","midi":77,"time":907.7785040000214,"velocity":0.8818897637795275,"duration":0.26273169166665866},{"name":"D#4","midi":63,"time":908.0562820000214,"velocity":0.8818897637795275,"duration":0.26273169166665866},{"name":"D#5","midi":75,"time":908.0562820000214,"velocity":0.8818897637795275,"duration":0.26273169166665866},{"name":"F4","midi":65,"time":908.3340600000214,"velocity":0.8818897637795275,"duration":0.13078714166670125},{"name":"F5","midi":77,"time":908.3340600000214,"velocity":0.8818897637795275,"duration":0.13078714166670125},{"name":"C4","midi":60,"time":908.4729490000215,"velocity":0.8818897637795275,"duration":0.13078714166670125},{"name":"C5","midi":72,"time":908.4729490000215,"velocity":0.8818897637795275,"duration":0.13078714166670125},{"name":"D4","midi":62,"time":908.6118380000215,"velocity":0.8818897637795275,"duration":1.846066291666716},{"name":"D5","midi":74,"time":908.6118380000215,"velocity":0.8818897637795275,"duration":1.846066291666716},{"name":"E4","midi":64,"time":910.5562840000216,"velocity":0.8818897637795275,"duration":0.13078714166670125},{"name":"E5","midi":76,"time":910.5562840000216,"velocity":0.8818897637795275,"duration":0.13078714166670125},{"name":"F4","midi":65,"time":910.6951730000217,"velocity":0.8818897637795275,"duration":0.13078714166670125},{"name":"F5","midi":77,"time":910.6951730000217,"velocity":0.8818897637795275,"duration":0.13078714166670125},{"name":"F#4","midi":66,"time":910.8340620000217,"velocity":0.8818897637795275,"duration":2.109955391666631},{"name":"F#5","midi":78,"time":910.8340620000217,"velocity":0.8818897637795275,"duration":2.109955391666631},{"name":"C4","midi":60,"time":913.0562860000217,"velocity":0.8818897637795275,"duration":0.26273169166665866},{"name":"C5","midi":72,"time":913.0562860000217,"velocity":0.8818897637795275,"duration":0.26273169166665866},{"name":"C4","midi":60,"time":913.3340640000217,"velocity":0.8818897637795275,"duration":0.26273169166665866},{"name":"C5","midi":72,"time":913.3340640000217,"velocity":0.8818897637795275,"duration":0.26273169166665866},{"name":"C5","midi":72,"time":913.6118420000217,"velocity":0.8818897637795275,"duration":0.26273169166665866},{"name":"C6","midi":84,"time":913.6118420000217,"velocity":0.8818897637795275,"duration":0.26273169166665866},{"name":"A#4","midi":70,"time":913.8896200000218,"velocity":0.8818897637795275,"duration":0.26273169166665866},{"name":"A#5","midi":82,"time":913.8896200000218,"velocity":0.8818897637795275,"duration":0.26273169166665866},{"name":"G4","midi":67,"time":914.1673980000218,"velocity":0.8818897637795275,"duration":0.26273169166665866},{"name":"G5","midi":79,"time":914.1673980000218,"velocity":0.8818897637795275,"duration":0.26273169166665866},{"name":"F4","midi":65,"time":914.4451760000218,"velocity":0.8818897637795275,"duration":0.26273169166665866},{"name":"F5","midi":77,"time":914.4451760000218,"velocity":0.8818897637795275,"duration":0.26273169166665866},{"name":"D#4","midi":63,"time":914.7229540000218,"velocity":0.8818897637795275,"duration":0.26273169166665866},{"name":"D#5","midi":75,"time":914.7229540000218,"velocity":0.8818897637795275,"duration":0.26273169166665866},{"name":"F4","midi":65,"time":915.0007320000218,"velocity":0.8818897637795275,"duration":0.26273169166665866},{"name":"F5","midi":77,"time":915.0007320000218,"velocity":0.8818897637795275,"duration":0.26273169166665866},{"name":"C4","midi":60,"time":915.2785100000218,"velocity":0.8818897637795275,"duration":0.26273169166665866},{"name":"C5","midi":72,"time":915.2785100000218,"velocity":0.8818897637795275,"duration":0.26273169166665866},{"name":"C4","midi":60,"time":915.5562880000218,"velocity":0.8818897637795275,"duration":0.26273169166665866},{"name":"C5","midi":72,"time":915.5562880000218,"velocity":0.8818897637795275,"duration":0.26273169166665866},{"name":"C5","midi":72,"time":915.8340660000218,"velocity":0.8818897637795275,"duration":0.26273169166665866},{"name":"C6","midi":84,"time":915.8340660000218,"velocity":0.8818897637795275,"duration":0.26273169166665866},{"name":"A#4","midi":70,"time":916.1118440000218,"velocity":0.8818897637795275,"duration":0.26273169166665866},{"name":"A#5","midi":82,"time":916.1118440000218,"velocity":0.8818897637795275,"duration":0.26273169166665866},{"name":"G4","midi":67,"time":916.3896220000219,"velocity":0.8818897637795275,"duration":0.26273169166665866},{"name":"G5","midi":79,"time":916.3896220000219,"velocity":0.8818897637795275,"duration":0.26273169166665866},{"name":"F4","midi":65,"time":916.6674000000219,"velocity":0.8818897637795275,"duration":0.26273169166665866},{"name":"F5","midi":77,"time":916.6674000000219,"velocity":0.8818897637795275,"duration":0.26273169166665866},{"name":"D#4","midi":63,"time":916.9451780000219,"velocity":0.8818897637795275,"duration":0.26273169166665866},{"name":"D#5","midi":75,"time":916.9451780000219,"velocity":0.8818897637795275,"duration":0.26273169166665866},{"name":"F4","midi":65,"time":917.2229560000219,"velocity":0.8818897637795275,"duration":0.13078714166670125},{"name":"F5","midi":77,"time":917.2229560000219,"velocity":0.8818897637795275,"duration":0.13078714166670125},{"name":"C4","midi":60,"time":917.361845000022,"velocity":0.8818897637795275,"duration":0.13078714166670125},{"name":"C5","midi":72,"time":917.361845000022,"velocity":0.8818897637795275,"duration":0.13078714166670125},{"name":"B3","midi":59,"time":917.500734000022,"velocity":0.8818897637795275,"duration":1.846066291666716},{"name":"B4","midi":71,"time":917.500734000022,"velocity":0.8818897637795275,"duration":1.846066291666716},{"name":"C4","midi":60,"time":919.4451800000221,"velocity":0.8818897637795275,"duration":0.13078714166670125},{"name":"C5","midi":72,"time":919.4451800000221,"velocity":0.8818897637795275,"duration":0.13078714166670125},{"name":"C#4","midi":61,"time":919.5840690000222,"velocity":0.8818897637795275,"duration":0.13078714166670125},{"name":"C#5","midi":73,"time":919.5840690000222,"velocity":0.8818897637795275,"duration":0.13078714166670125},{"name":"D4","midi":62,"time":919.7229580000222,"velocity":0.8818897637795275,"duration":2.109955391666631},{"name":"D5","midi":74,"time":919.7229580000222,"velocity":0.8818897637795275,"duration":2.109955391666631},{"name":"C4","midi":60,"time":921.9451820000222,"velocity":0.8818897637795275,"duration":0.26273169166665866},{"name":"C5","midi":72,"time":921.9451820000222,"velocity":0.8818897637795275,"duration":0.26273169166665866},{"name":"C4","midi":60,"time":922.2229600000222,"velocity":0.8818897637795275,"duration":0.26273169166665866},{"name":"C5","midi":72,"time":922.2229600000222,"velocity":0.8818897637795275,"duration":0.26273169166665866},{"name":"C5","midi":72,"time":922.5007380000222,"velocity":0.8818897637795275,"duration":0.26273169166665866},{"name":"C6","midi":84,"time":922.5007380000222,"velocity":0.8818897637795275,"duration":0.26273169166665866},{"name":"A#4","midi":70,"time":922.7785160000223,"velocity":0.8818897637795275,"duration":0.26273169166665866},{"name":"A#5","midi":82,"time":922.7785160000223,"velocity":0.8818897637795275,"duration":0.26273169166665866},{"name":"G4","midi":67,"time":923.0562940000223,"velocity":0.8818897637795275,"duration":0.26273169166665866},{"name":"G5","midi":79,"time":923.0562940000223,"velocity":0.8818897637795275,"duration":0.26273169166665866},{"name":"F4","midi":65,"time":923.3340720000223,"velocity":0.8818897637795275,"duration":0.26273169166665866},{"name":"F5","midi":77,"time":923.3340720000223,"velocity":0.8818897637795275,"duration":0.26273169166665866},{"name":"D#4","midi":63,"time":923.6118500000223,"velocity":0.8818897637795275,"duration":0.26273169166665866},{"name":"D#5","midi":75,"time":923.6118500000223,"velocity":0.8818897637795275,"duration":0.26273169166665866},{"name":"F4","midi":65,"time":923.8896280000223,"velocity":0.8818897637795275,"duration":0.26273169166665866},{"name":"F5","midi":77,"time":923.8896280000223,"velocity":0.8818897637795275,"duration":0.26273169166665866},{"name":"C4","midi":60,"time":924.1674060000223,"velocity":0.8818897637795275,"duration":0.26273169166665866},{"name":"C5","midi":72,"time":924.1674060000223,"velocity":0.8818897637795275,"duration":0.26273169166665866},{"name":"C4","midi":60,"time":924.4451840000223,"velocity":0.8818897637795275,"duration":0.26273169166665866},{"name":"C5","midi":72,"time":924.4451840000223,"velocity":0.8818897637795275,"duration":0.26273169166665866},{"name":"C5","midi":72,"time":924.7229620000223,"velocity":0.8818897637795275,"duration":0.26273169166665866},{"name":"C6","midi":84,"time":924.7229620000223,"velocity":0.8818897637795275,"duration":0.26273169166665866},{"name":"A#4","midi":70,"time":925.0007400000223,"velocity":0.8818897637795275,"duration":0.26273169166665866},{"name":"A#5","midi":82,"time":925.0007400000223,"velocity":0.8818897637795275,"duration":0.26273169166665866},{"name":"G4","midi":67,"time":925.2785180000224,"velocity":0.8818897637795275,"duration":0.26273169166665866},{"name":"G5","midi":79,"time":925.2785180000224,"velocity":0.8818897637795275,"duration":0.26273169166665866},{"name":"F4","midi":65,"time":925.5562960000224,"velocity":0.8818897637795275,"duration":0.26273169166665866},{"name":"F5","midi":77,"time":925.5562960000224,"velocity":0.8818897637795275,"duration":0.26273169166665866},{"name":"D#4","midi":63,"time":925.8340740000224,"velocity":0.8818897637795275,"duration":0.26273169166665866},{"name":"D#5","midi":75,"time":925.8340740000224,"velocity":0.8818897637795275,"duration":0.26273169166665866},{"name":"F4","midi":65,"time":926.1118520000224,"velocity":0.8818897637795275,"duration":0.13078714166670125},{"name":"F5","midi":77,"time":926.1118520000224,"velocity":0.8818897637795275,"duration":0.13078714166670125},{"name":"C4","midi":60,"time":926.2507410000225,"velocity":0.8818897637795275,"duration":0.13078714166670125},{"name":"C5","midi":72,"time":926.2507410000225,"velocity":0.8818897637795275,"duration":0.13078714166670125},{"name":"D4","midi":62,"time":926.3896300000225,"velocity":0.8818897637795275,"duration":1.846066291666716},{"name":"D5","midi":74,"time":926.3896300000225,"velocity":0.8818897637795275,"duration":1.846066291666716},{"name":"E4","midi":64,"time":928.3340760000226,"velocity":0.8818897637795275,"duration":0.13078714166670125},{"name":"E5","midi":76,"time":928.3340760000226,"velocity":0.8818897637795275,"duration":0.13078714166670125},{"name":"F4","midi":65,"time":928.4729650000227,"velocity":0.8818897637795275,"duration":0.13078714166670125},{"name":"F5","midi":77,"time":928.4729650000227,"velocity":0.8818897637795275,"duration":0.13078714166670125},{"name":"F#4","midi":66,"time":928.6118540000227,"velocity":0.8818897637795275,"duration":2.109955391666631},{"name":"F#5","midi":78,"time":928.6118540000227,"velocity":0.8818897637795275,"duration":2.109955391666631},{"name":"D#4","midi":63,"time":933.0563020000227,"velocity":0.8818897637795275,"duration":0.5266207916666872},{"name":"D#5","midi":75,"time":933.0563020000227,"velocity":0.8818897637795275,"duration":0.5266207916666872},{"name":"C4","midi":60,"time":933.0563020000227,"velocity":0.8818897637795275,"duration":0.26273169166665866},{"name":"C4","midi":60,"time":933.3340800000227,"velocity":0.8818897637795275,"duration":0.26273169166665866},{"name":"D#4","midi":63,"time":933.6118580000227,"velocity":0.8818897637795275,"duration":0.26273169166665866},{"name":"D#5","midi":75,"time":933.6118580000227,"velocity":0.8818897637795275,"duration":0.26273169166665866},{"name":"C5","midi":72,"time":933.6118580000227,"velocity":0.8818897637795275,"duration":0.26273169166665866},{"name":"D#4","midi":63,"time":933.8896360000227,"velocity":0.8818897637795275,"duration":0.26273169166665866},{"name":"D#5","midi":75,"time":933.8896360000227,"velocity":0.8818897637795275,"duration":0.26273169166665866},{"name":"G4","midi":67,"time":934.1674140000227,"velocity":0.8818897637795275,"duration":0.26273169166665866},{"name":"D#4","midi":63,"time":934.4451920000228,"velocity":0.8818897637795275,"duration":0.5266207916666872},{"name":"D#5","midi":75,"time":934.4451920000228,"velocity":0.8818897637795275,"duration":0.5266207916666872},{"name":"D#4","midi":63,"time":935.0007480000228,"velocity":0.8818897637795275,"duration":0.5266207916666872},{"name":"D#5","midi":75,"time":935.0007480000228,"velocity":0.8818897637795275,"duration":0.5266207916666872},{"name":"F#4","midi":66,"time":935.0007480000228,"velocity":0.8818897637795275,"duration":0.26273169166665866},{"name":"C4","midi":60,"time":935.5563040000228,"velocity":0.8818897637795275,"duration":0.26273169166665866},{"name":"C5","midi":72,"time":935.5563040000228,"velocity":0.8818897637795275,"duration":0.26273169166665866},{"name":"F4","midi":65,"time":935.5563040000228,"velocity":0.8818897637795275,"duration":0.26273169166665866},{"name":"C4","midi":60,"time":936.1118600000228,"velocity":0.8818897637795275,"duration":0.8182876916666828},{"name":"C5","midi":72,"time":936.1118600000228,"velocity":0.8818897637795275,"duration":1.318288091666659},{"name":"D#4","midi":63,"time":936.1118600000228,"velocity":0.8818897637795275,"duration":0.5266207916666872},{"name":"C4","midi":60,"time":936.6674160000229,"velocity":0.8818897637795275,"duration":0.7627320916666349},{"name":"D#4","midi":63,"time":936.9451940000229,"velocity":0.8818897637795275,"duration":0.26273169166665866},{"name":"F4","midi":65,"time":937.2229720000229,"velocity":0.8818897637795275,"duration":0.26273169166665866},{"name":"D#4","midi":63,"time":937.5007500000229,"velocity":0.8818897637795275,"duration":0.5266207916666872},{"name":"D#5","midi":75,"time":937.5007500000229,"velocity":0.8818897637795275,"duration":0.5266207916666872},{"name":"B3","midi":59,"time":937.5007500000229,"velocity":0.8818897637795275,"duration":0.26273169166665866},{"name":"B3","midi":59,"time":937.7785280000229,"velocity":0.8818897637795275,"duration":0.26273169166665866},{"name":"D#4","midi":63,"time":938.0563060000229,"velocity":0.8818897637795275,"duration":0.26273169166665866},{"name":"D#5","midi":75,"time":938.0563060000229,"velocity":0.8818897637795275,"duration":0.26273169166665866},{"name":"B4","midi":71,"time":938.0563060000229,"velocity":0.8818897637795275,"duration":0.26273169166665866},{"name":"D#4","midi":63,"time":938.3340840000229,"velocity":0.8818897637795275,"duration":0.26273169166665866},{"name":"D#5","midi":75,"time":938.3340840000229,"velocity":0.8818897637795275,"duration":0.26273169166665866},{"name":"G4","midi":67,"time":938.6118620000229,"velocity":0.8818897637795275,"duration":0.26273169166665866},{"name":"F4","midi":65,"time":938.889640000023,"velocity":0.8818897637795275,"duration":0.5266207916666872},{"name":"F5","midi":77,"time":938.889640000023,"velocity":0.8818897637795275,"duration":0.5266207916666872},{"name":"F#4","midi":66,"time":939.445196000023,"velocity":0.8818897637795275,"duration":0.26273169166665866},{"name":"F#5","midi":78,"time":939.445196000023,"velocity":0.8818897637795275,"duration":0.5266207916666872},{"name":"F#4","midi":66,"time":939.445196000023,"velocity":0.8818897637795275,"duration":0.5266207916666872},{"name":"F4","midi":65,"time":940.000752000023,"velocity":0.8818897637795275,"duration":0.26273169166665866},{"name":"F5","midi":77,"time":940.000752000023,"velocity":0.8818897637795275,"duration":0.26273169166665866},{"name":"F4","midi":65,"time":940.000752000023,"velocity":0.8818897637795275,"duration":0.26273169166665866},{"name":"D#4","midi":63,"time":940.278530000023,"velocity":0.8818897637795275,"duration":0.26273169166665866},{"name":"D#5","midi":75,"time":940.278530000023,"velocity":0.8818897637795275,"duration":0.26273169166665866},{"name":"C4","midi":60,"time":940.556308000023,"velocity":0.8818897637795275,"duration":0.26273169166665866},{"name":"C5","midi":72,"time":940.556308000023,"velocity":0.8818897637795275,"duration":0.26273169166665866},{"name":"D4","midi":62,"time":940.556308000023,"velocity":0.8818897637795275,"duration":0.5266207916666872},{"name":"D#4","midi":63,"time":940.834086000023,"velocity":0.8818897637795275,"duration":0.26273169166665866},{"name":"D#5","midi":75,"time":940.834086000023,"velocity":0.8818897637795275,"duration":0.26273169166665866},{"name":"F4","midi":65,"time":941.111864000023,"velocity":0.8818897637795275,"duration":0.26273169166665866},{"name":"F5","midi":77,"time":941.111864000023,"velocity":0.8818897637795275,"duration":0.26273169166665866},{"name":"B3","midi":59,"time":941.111864000023,"velocity":0.8818897637795275,"duration":0.26273169166665866},{"name":"D4","midi":62,"time":941.3896420000231,"velocity":0.8818897637795275,"duration":0.26273169166665866},{"name":"F4","midi":65,"time":941.6674200000231,"velocity":0.8818897637795275,"duration":0.26273169166665866},{"name":"D#4","midi":63,"time":941.9451980000231,"velocity":0.8818897637795275,"duration":0.5266207916666872},{"name":"D#5","midi":75,"time":941.9451980000231,"velocity":0.8818897637795275,"duration":0.5266207916666872},{"name":"C4","midi":60,"time":941.9451980000231,"velocity":0.8818897637795275,"duration":0.26273169166665866},{"name":"C4","midi":60,"time":942.2229760000231,"velocity":0.8818897637795275,"duration":0.26273169166665866},{"name":"D#4","midi":63,"time":942.5007540000231,"velocity":0.8818897637795275,"duration":0.26273169166665866},{"name":"D#5","midi":75,"time":942.5007540000231,"velocity":0.8818897637795275,"duration":0.26273169166665866},{"name":"C5","midi":72,"time":942.5007540000231,"velocity":0.8818897637795275,"duration":0.26273169166665866},{"name":"D#4","midi":63,"time":942.7785320000231,"velocity":0.8818897637795275,"duration":0.26273169166665866},{"name":"D#5","midi":75,"time":942.7785320000231,"velocity":0.8818897637795275,"duration":0.26273169166665866},{"name":"G4","midi":67,"time":943.0563100000231,"velocity":0.8818897637795275,"duration":0.26273169166665866},{"name":"F4","midi":65,"time":943.3340880000231,"velocity":0.8818897637795275,"duration":0.5266207916666872},{"name":"F5","midi":77,"time":943.3340880000231,"velocity":0.8818897637795275,"duration":0.5266207916666872},{"name":"F#4","midi":66,"time":943.8896440000232,"velocity":0.8818897637795275,"duration":0.26273169166665866},{"name":"F#5","midi":78,"time":943.8896440000232,"velocity":0.8818897637795275,"duration":0.26273169166665866},{"name":"F#4","midi":66,"time":943.8896440000232,"velocity":0.8818897637795275,"duration":0.26273169166665866},{"name":"G4","midi":67,"time":944.4452000000232,"velocity":0.8818897637795275,"duration":0.26273169166665866},{"name":"G5","midi":79,"time":944.4452000000232,"velocity":0.8818897637795275,"duration":0.26273169166665866},{"name":"F4","midi":65,"time":944.4452000000232,"velocity":0.8818897637795275,"duration":0.26273169166665866},{"name":"A#4","midi":70,"time":945.0007560000232,"velocity":0.8818897637795275,"duration":0.26273169166665866},{"name":"A#5","midi":82,"time":945.0007560000232,"velocity":0.8818897637795275,"duration":0.26273169166665866},{"name":"D#4","midi":63,"time":945.0007560000232,"velocity":0.8818897637795275,"duration":0.5266207916666872},{"name":"G4","midi":67,"time":945.5563120000232,"velocity":0.8818897637795275,"duration":0.26273169166665866},{"name":"G5","midi":79,"time":945.5563120000232,"velocity":0.8818897637795275,"duration":0.26273169166665866},{"name":"C4","midi":60,"time":945.5563120000232,"velocity":0.8818897637795275,"duration":0.26273169166665866},{"name":"D#4","midi":63,"time":945.8340900000233,"velocity":0.8818897637795275,"duration":0.26273169166665866},{"name":"F4","midi":65,"time":946.1118680000233,"velocity":0.8818897637795275,"duration":0.26273169166665866},{"name":"C5","midi":72,"time":946.3896460000233,"velocity":0.8818897637795275,"duration":0.26273169166665866},{"name":"C6","midi":84,"time":946.3896460000233,"velocity":0.8818897637795275,"duration":0.26273169166665866},{"name":"B3","midi":59,"time":946.3896460000233,"velocity":0.8818897637795275,"duration":0.26273169166665866},{"name":"B3","midi":59,"time":946.6674240000233,"velocity":0.8818897637795275,"duration":0.26273169166665866},{"name":"C5","midi":72,"time":946.9452020000233,"velocity":0.8818897637795275,"duration":0.26273169166665866},{"name":"C6","midi":84,"time":946.9452020000233,"velocity":0.8818897637795275,"duration":0.26273169166665866},{"name":"B4","midi":71,"time":946.9452020000233,"velocity":0.8818897637795275,"duration":0.26273169166665866},{"name":"C5","midi":72,"time":947.5007580000233,"velocity":0.8818897637795275,"duration":0.26273169166665866},{"name":"C6","midi":84,"time":947.5007580000233,"velocity":0.8818897637795275,"duration":0.26273169166665866},{"name":"G4","midi":67,"time":947.5007580000233,"velocity":0.8818897637795275,"duration":0.26273169166665866},{"name":"G4","midi":67,"time":947.7785360000233,"velocity":0.8818897637795275,"duration":0.26273169166665866},{"name":"G5","midi":79,"time":947.7785360000233,"velocity":0.8818897637795275,"duration":0.26273169166665866},{"name":"C5","midi":72,"time":948.0563140000233,"velocity":0.8818897637795275,"duration":0.26273169166665866},{"name":"C6","midi":84,"time":948.0563140000233,"velocity":0.8818897637795275,"duration":0.26273169166665866},{"name":"A#4","midi":70,"time":948.3340920000234,"velocity":0.8818897637795275,"duration":1.1863435416667016},{"name":"A#5","midi":82,"time":948.3340920000234,"velocity":0.8818897637795275,"duration":1.1863435416667016},{"name":"F#4","midi":66,"time":948.3340920000234,"velocity":0.8818897637795275,"duration":0.26273169166665866},{"name":"F4","midi":65,"time":948.8896480000234,"velocity":0.8818897637795275,"duration":0.26273169166665866},{"name":"D4","midi":62,"time":949.4452040000234,"velocity":0.8818897637795275,"duration":0.5266207916666872},{"name":"G#5","midi":80,"time":949.5840930000234,"velocity":0.8818897637795275,"duration":0.0648148666666657},{"name":"G#6","midi":92,"time":949.5840930000234,"velocity":0.8818897637795275,"duration":0.0648148666666657},{"name":"A5","midi":81,"time":949.6535375000234,"velocity":0.8818897637795275,"duration":0.0648148666666657},{"name":"A6","midi":93,"time":949.6535375000234,"velocity":0.8818897637795275,"duration":0.0648148666666657},{"name":"A#5","midi":82,"time":949.7229820000234,"velocity":0.8818897637795275,"duration":1.0543989916667442},{"name":"A#6","midi":94,"time":949.7229820000234,"velocity":0.8818897637795275,"duration":1.0543989916667442},{"name":"B3","midi":59,"time":950.0007600000234,"velocity":0.8818897637795275,"duration":0.26273169166665866},{"name":"D4","midi":62,"time":950.2785380000234,"velocity":0.8818897637795275,"duration":0.26273169166665866},{"name":"F4","midi":65,"time":950.5563160000235,"velocity":0.8818897637795275,"duration":0.26273169166665866},{"name":"D#4","midi":63,"time":950.8340940000235,"velocity":0.8818897637795275,"duration":0.5266207916666872},{"name":"G4","midi":67,"time":950.8340940000235,"velocity":0.8818897637795275,"duration":0.5266207916666872},{"name":"D#5","midi":75,"time":950.8340940000235,"velocity":0.8818897637795275,"duration":0.5266207916666872},{"name":"G5","midi":79,"time":950.8340940000235,"velocity":0.8818897637795275,"duration":0.5266207916666872},{"name":"C4","midi":60,"time":950.8340940000235,"velocity":0.8818897637795275,"duration":0.26273169166665866},{"name":"C4","midi":60,"time":951.1118720000235,"velocity":0.8818897637795275,"duration":0.26273169166665866},{"name":"D#4","midi":63,"time":951.3896500000235,"velocity":0.8818897637795275,"duration":0.26273169166665866},{"name":"G4","midi":67,"time":951.3896500000235,"velocity":0.8818897637795275,"duration":0.26273169166665866},{"name":"D#5","midi":75,"time":951.3896500000235,"velocity":0.8818897637795275,"duration":0.26273169166665866},{"name":"G5","midi":79,"time":951.3896500000235,"velocity":0.8818897637795275,"duration":0.26273169166665866},{"name":"C5","midi":72,"time":951.3896500000235,"velocity":0.8818897637795275,"duration":0.26273169166665866},{"name":"D#4","midi":63,"time":951.6674280000235,"velocity":0.8818897637795275,"duration":0.26273169166665866},{"name":"G4","midi":67,"time":951.6674280000235,"velocity":0.8818897637795275,"duration":0.26273169166665866},{"name":"D#5","midi":75,"time":951.6674280000235,"velocity":0.8818897637795275,"duration":0.26273169166665866},{"name":"G5","midi":79,"time":951.6674280000235,"velocity":0.8818897637795275,"duration":0.26273169166665866},{"name":"G4","midi":67,"time":951.9452060000235,"velocity":0.8818897637795275,"duration":0.26273169166665866},{"name":"D#4","midi":63,"time":952.2229840000235,"velocity":0.8818897637795275,"duration":0.5266207916666872},{"name":"G4","midi":67,"time":952.2229840000235,"velocity":0.8818897637795275,"duration":0.5266207916666872},{"name":"D#5","midi":75,"time":952.2229840000235,"velocity":0.8818897637795275,"duration":0.5266207916666872},{"name":"G5","midi":79,"time":952.2229840000235,"velocity":0.8818897637795275,"duration":0.5266207916666872},{"name":"D#4","midi":63,"time":952.7785400000236,"velocity":0.8818897637795275,"duration":0.5266207916666872},{"name":"G4","midi":67,"time":952.7785400000236,"velocity":0.8818897637795275,"duration":0.5266207916666872},{"name":"D#5","midi":75,"time":952.7785400000236,"velocity":0.8818897637795275,"duration":0.5266207916666872},{"name":"G5","midi":79,"time":952.7785400000236,"velocity":0.8818897637795275,"duration":0.5266207916666872},{"name":"F#4","midi":66,"time":952.7785400000236,"velocity":0.8818897637795275,"duration":0.26273169166665866},{"name":"C4","midi":60,"time":953.3340960000236,"velocity":0.8818897637795275,"duration":0.26273169166665866},{"name":"D#4","midi":63,"time":953.3340960000236,"velocity":0.8818897637795275,"duration":0.26273169166665866},{"name":"C5","midi":72,"time":953.3340960000236,"velocity":0.8818897637795275,"duration":0.26273169166665866},{"name":"D#5","midi":75,"time":953.3340960000236,"velocity":0.8818897637795275,"duration":0.26273169166665866},{"name":"F4","midi":65,"time":953.3340960000236,"velocity":0.8818897637795275,"duration":0.26273169166665866},{"name":"C4","midi":60,"time":953.8896520000236,"velocity":0.8818897637795275,"duration":0.8182876916666828},{"name":"D#4","midi":63,"time":953.8896520000236,"velocity":0.8818897637795275,"duration":0.5266207916666872},{"name":"C5","midi":72,"time":953.8896520000236,"velocity":0.8818897637795275,"duration":1.318288091666659},{"name":"D#5","midi":75,"time":953.8896520000236,"velocity":0.8818897637795275,"duration":1.318288091666659},{"name":"D#4","midi":63,"time":953.8896520000236,"velocity":0.8818897637795275,"duration":1.0960656916666949},{"name":"C4","midi":60,"time":954.4452080000236,"velocity":0.8818897637795275,"duration":0.7627320916666349},{"name":"D#4","midi":63,"time":954.7229860000236,"velocity":0.8818897637795275,"duration":0.48495409166662284},{"name":"F4","midi":65,"time":955.0007640000237,"velocity":0.8818897637795275,"duration":0.26273169166665866},{"name":"D#4","midi":63,"time":955.2785420000237,"velocity":0.8818897637795275,"duration":0.5266207916666872},{"name":"G4","midi":67,"time":955.2785420000237,"velocity":0.8818897637795275,"duration":0.5266207916666872},{"name":"D#5","midi":75,"time":955.2785420000237,"velocity":0.8818897637795275,"duration":0.5266207916666872},{"name":"G5","midi":79,"time":955.2785420000237,"velocity":0.8818897637795275,"duration":0.5266207916666872},{"name":"B3","midi":59,"time":955.2785420000237,"velocity":0.8818897637795275,"duration":0.26273169166665866},{"name":"B3","midi":59,"time":955.5563200000237,"velocity":0.8818897637795275,"duration":0.26273169166665866},{"name":"D#4","midi":63,"time":955.8340980000237,"velocity":0.8818897637795275,"duration":0.26273169166665866},{"name":"G4","midi":67,"time":955.8340980000237,"velocity":0.8818897637795275,"duration":0.26273169166665866},{"name":"D#5","midi":75,"time":955.8340980000237,"velocity":0.8818897637795275,"duration":0.26273169166665866},{"name":"G5","midi":79,"time":955.8340980000237,"velocity":0.8818897637795275,"duration":0.26273169166665866},{"name":"B4","midi":71,"time":955.8340980000237,"velocity":0.8818897637795275,"duration":0.26273169166665866},{"name":"D#4","midi":63,"time":956.1118760000237,"velocity":0.8818897637795275,"duration":0.26273169166665866},{"name":"G4","midi":67,"time":956.1118760000237,"velocity":0.8818897637795275,"duration":0.26273169166665866},{"name":"D#5","midi":75,"time":956.1118760000237,"velocity":0.8818897637795275,"duration":0.26273169166665866},{"name":"G5","midi":79,"time":956.1118760000237,"velocity":0.8818897637795275,"duration":0.26273169166665866},{"name":"G4","midi":67,"time":956.3896540000237,"velocity":0.8818897637795275,"duration":0.26273169166665866},{"name":"F4","midi":65,"time":956.6674320000237,"velocity":0.8818897637795275,"duration":0.5266207916666872},{"name":"A#4","midi":70,"time":956.6674320000237,"velocity":0.8818897637795275,"duration":0.5266207916666872},{"name":"F5","midi":77,"time":956.6674320000237,"velocity":0.8818897637795275,"duration":0.5266207916666872},{"name":"A#5","midi":82,"time":956.6674320000237,"velocity":0.8818897637795275,"duration":0.5266207916666872},{"name":"F#4","midi":66,"time":957.2229880000237,"velocity":0.8818897637795275,"duration":0.26273169166665866},{"name":"D5","midi":74,"time":957.2229880000237,"velocity":0.8818897637795275,"duration":0.5266207916666872},{"name":"F#5","midi":78,"time":957.2229880000237,"velocity":0.8818897637795275,"duration":0.5266207916666872},{"name":"D6","midi":86,"time":957.2229880000237,"velocity":0.8818897637795275,"duration":0.5266207916666872},{"name":"F#4","midi":66,"time":957.2229880000237,"velocity":0.8818897637795275,"duration":0.5266207916666872},{"name":"F4","midi":65,"time":957.7785440000238,"velocity":0.8818897637795275,"duration":0.26273169166665866},{"name":"A#4","midi":70,"time":957.7785440000238,"velocity":0.8818897637795275,"duration":0.26273169166665866},{"name":"F5","midi":77,"time":957.7785440000238,"velocity":0.8818897637795275,"duration":0.26273169166665866},{"name":"A#5","midi":82,"time":957.7785440000238,"velocity":0.8818897637795275,"duration":0.26273169166665866},{"name":"F4","midi":65,"time":957.7785440000238,"velocity":0.8818897637795275,"duration":0.26273169166665866},{"name":"D#4","midi":63,"time":958.0563220000238,"velocity":0.8818897637795275,"duration":0.26273169166665866},{"name":"G4","midi":67,"time":958.0563220000238,"velocity":0.8818897637795275,"duration":0.26273169166665866},{"name":"D#5","midi":75,"time":958.0563220000238,"velocity":0.8818897637795275,"duration":0.26273169166665866},{"name":"G5","midi":79,"time":958.0563220000238,"velocity":0.8818897637795275,"duration":0.26273169166665866},{"name":"D4","midi":62,"time":958.3341000000238,"velocity":0.8818897637795275,"duration":0.26273169166665866},{"name":"D5","midi":74,"time":958.3341000000238,"velocity":0.8818897637795275,"duration":0.26273169166665866},{"name":"D4","midi":62,"time":958.3341000000238,"velocity":0.8818897637795275,"duration":0.5266207916666872},{"name":"D#4","midi":63,"time":958.6118780000238,"velocity":0.8818897637795275,"duration":0.26273169166665866},{"name":"G4","midi":67,"time":958.6118780000238,"velocity":0.8818897637795275,"duration":0.26273169166665866},{"name":"D#5","midi":75,"time":958.6118780000238,"velocity":0.8818897637795275,"duration":0.26273169166665866},{"name":"G5","midi":79,"time":958.6118780000238,"velocity":0.8818897637795275,"duration":0.26273169166665866},{"name":"F4","midi":65,"time":958.8896560000238,"velocity":0.8818897637795275,"duration":0.26273169166665866},{"name":"A#4","midi":70,"time":958.8896560000238,"velocity":0.8818897637795275,"duration":0.26273169166665866},{"name":"F5","midi":77,"time":958.8896560000238,"velocity":0.8818897637795275,"duration":0.26273169166665866},{"name":"A#5","midi":82,"time":958.8896560000238,"velocity":0.8818897637795275,"duration":0.26273169166665866},{"name":"B3","midi":59,"time":958.8896560000238,"velocity":0.8818897637795275,"duration":0.26273169166665866},{"name":"D4","midi":62,"time":959.1674340000238,"velocity":0.8818897637795275,"duration":0.26273169166665866},{"name":"A#3","midi":58,"time":959.1674340000238,"velocity":0.8818897637795275,"duration":0.26273169166665866},{"name":"A#4","midi":70,"time":959.1674340000238,"velocity":0.8818897637795275,"duration":0.26273169166665866},{"name":"F4","midi":65,"time":959.4452120000238,"velocity":0.8818897637795275,"duration":0.26273169166665866},{"name":"B3","midi":59,"time":959.4452120000238,"velocity":0.8818897637795275,"duration":0.26273169166665866},{"name":"B4","midi":71,"time":959.4452120000238,"velocity":0.8818897637795275,"duration":0.26273169166665866},{"name":"C4","midi":60,"time":959.7229900000239,"velocity":0.8818897637795275,"duration":0.26273169166665866},{"name":"C5","midi":72,"time":959.7229900000239,"velocity":0.8818897637795275,"duration":0.26273169166665866},{"name":"C4","midi":60,"time":959.7229900000239,"velocity":0.8818897637795275,"duration":0.5266207916666872},{"name":"C5","midi":72,"time":959.7229900000239,"velocity":0.8818897637795275,"duration":0.5266207916666872},{"name":"C6","midi":84,"time":959.7229900000239,"velocity":0.8818897637795275,"duration":0.26273169166665866},{"name":"C4","midi":60,"time":960.0007680000239,"velocity":0.8818897637795275,"duration":0.26273169166665866},{"name":"A#4","midi":70,"time":960.0007680000239,"velocity":0.8818897637795275,"duration":0.26273169166665866},{"name":"A#5","midi":82,"time":960.0007680000239,"velocity":0.8818897637795275,"duration":0.26273169166665866},{"name":"G3","midi":55,"time":960.2785460000239,"velocity":0.8818897637795275,"duration":0.5266207916666872},{"name":"G4","midi":67,"time":960.2785460000239,"velocity":0.8818897637795275,"duration":0.5266207916666872},{"name":"C5","midi":72,"time":960.2785460000239,"velocity":0.8818897637795275,"duration":0.26273169166665866},{"name":"G5","midi":79,"time":960.2785460000239,"velocity":0.8818897637795275,"duration":0.7905098916667157},{"name":"G6","midi":91,"time":960.2785460000239,"velocity":0.8818897637795275,"duration":0.7905098916667157},{"name":"C4","midi":60,"time":960.8341020000239,"velocity":0.8818897637795275,"duration":0.5266207916666872},{"name":"C5","midi":72,"time":960.8341020000239,"velocity":0.8818897637795275,"duration":0.5266207916666872},{"name":"G4","midi":67,"time":960.8341020000239,"velocity":0.8818897637795275,"duration":0.26273169166665866},{"name":"A#5","midi":82,"time":961.1118800000239,"velocity":0.8818897637795275,"duration":0.26273169166665866},{"name":"A#6","midi":94,"time":961.1118800000239,"velocity":0.8818897637795275,"duration":0.26273169166665866},{"name":"D4","midi":62,"time":961.3896580000239,"velocity":0.8818897637795275,"duration":0.5266207916668009},{"name":"D5","midi":74,"time":961.3896580000239,"velocity":0.8818897637795275,"duration":0.5266207916668009},{"name":"C6","midi":84,"time":961.3896580000239,"velocity":0.8818897637795275,"duration":0.13078714166670125},{"name":"C7","midi":96,"time":961.3896580000239,"velocity":0.8818897637795275,"duration":0.13078714166670125},{"name":"A#5","midi":82,"time":961.528547000024,"velocity":0.8818897637795275,"duration":0.13078714166670125},{"name":"A#6","midi":94,"time":961.528547000024,"velocity":0.8818897637795275,"duration":0.13078714166670125},{"name":"F#4","midi":66,"time":961.667436000024,"velocity":0.8818897637795275,"duration":0.26273169166665866},{"name":"G5","midi":79,"time":961.667436000024,"velocity":0.8818897637795275,"duration":0.13078714166670125},{"name":"G6","midi":91,"time":961.667436000024,"velocity":0.8818897637795275,"duration":0.13078714166670125},{"name":"D#4","midi":63,"time":961.9452140000241,"velocity":0.8818897637795275,"duration":1.054398991666858},{"name":"D#5","midi":75,"time":961.9452140000241,"velocity":0.8818897637795275,"duration":0.6863431416667254},{"name":"F#5","midi":78,"time":961.9452140000241,"velocity":0.8818897637795275,"duration":0.26273169166665866},{"name":"F#6","midi":90,"time":961.9452140000241,"velocity":0.8818897637795275,"duration":0.26273169166665866},{"name":"F4","midi":65,"time":962.2229920000241,"velocity":0.8818897637795275,"duration":0.26273169166665866},{"name":"F5","midi":77,"time":962.2229920000241,"velocity":0.8818897637795275,"duration":0.26273169166665866},{"name":"F6","midi":89,"time":962.2229920000241,"velocity":0.8818897637795275,"duration":0.26273169166665866},{"name":"D#5","midi":75,"time":962.5007700000241,"velocity":0.8818897637795275,"duration":0.49884299166683377},{"name":"D#6","midi":87,"time":962.5007700000241,"velocity":0.8818897637795275,"duration":0.13078714166670125},{"name":"C5","midi":72,"time":962.6396590000242,"velocity":0.8818897637795275,"duration":0.13078714166670125},{"name":"C6","midi":84,"time":962.6396590000242,"velocity":0.8818897637795275,"duration":0.13078714166670125},{"name":"D#4","midi":63,"time":962.7785480000242,"velocity":0.8818897637795275,"duration":0.5266207916666872},{"name":"A#3","midi":58,"time":962.7785480000242,"velocity":0.8818897637795275,"duration":0.26273169166665866},{"name":"A#4","midi":70,"time":962.7785480000242,"velocity":0.8818897637795275,"duration":0.26273169166665866},{"name":"C4","midi":60,"time":963.0563260000242,"velocity":0.8818897637795275,"duration":0.5405096916666707},{"name":"C5","midi":72,"time":963.0563260000242,"velocity":0.8818897637795275,"duration":0.5405096916666707},{"name":"D#5","midi":75,"time":963.0563260000242,"velocity":0.8818897637795275,"duration":0.26273169166665866},{"name":"D#6","midi":87,"time":963.0563260000242,"velocity":0.8818897637795275,"duration":0.26273169166665866},{"name":"C4","midi":60,"time":963.3341040000242,"velocity":0.8818897637795275,"duration":0.7766209916667322},{"name":"C5","midi":72,"time":963.3341040000242,"velocity":0.8818897637795275,"duration":0.7766209916667322},{"name":"C6","midi":84,"time":963.3341040000242,"velocity":0.8818897637795275,"duration":0.26273169166665866},{"name":"D#4","midi":63,"time":963.6118820000243,"velocity":0.8818897637795275,"duration":0.26273169166665866},{"name":"A#4","midi":70,"time":963.6118820000243,"velocity":0.8818897637795275,"duration":0.26273169166665866},{"name":"A#5","midi":82,"time":963.6118820000243,"velocity":0.8818897637795275,"duration":0.26273169166665866},{"name":"F4","midi":65,"time":963.8896600000243,"velocity":0.8818897637795275,"duration":0.26273169166665866},{"name":"C5","midi":72,"time":963.8896600000243,"velocity":0.8818897637795275,"duration":0.26273169166665866},{"name":"C6","midi":84,"time":963.8896600000243,"velocity":0.8818897637795275,"duration":0.26273169166665866},{"name":"B3","midi":59,"time":964.1674380000243,"velocity":0.8818897637795275,"duration":0.26273169166665866},{"name":"B4","midi":71,"time":964.1674380000243,"velocity":0.8818897637795275,"duration":0.5266207916666872},{"name":"B3","midi":59,"time":964.1674380000243,"velocity":0.8818897637795275,"duration":0.5266207916666872},{"name":"D#5","midi":75,"time":964.1674380000243,"velocity":0.8818897637795275,"duration":0.26273169166665866},{"name":"D#6","midi":87,"time":964.1674380000243,"velocity":0.8818897637795275,"duration":0.26273169166665866},{"name":"B3","midi":59,"time":964.4452160000243,"velocity":0.8818897637795275,"duration":0.26273169166665866},{"name":"G5","midi":79,"time":964.4452160000243,"velocity":0.8818897637795275,"duration":0.26273169166665866},{"name":"G6","midi":91,"time":964.4452160000243,"velocity":0.8818897637795275,"duration":0.26273169166665866},{"name":"C4","midi":60,"time":964.7229940000243,"velocity":0.8818897637795275,"duration":0.5266207916666872},{"name":"C5","midi":72,"time":964.7229940000243,"velocity":0.8818897637795275,"duration":0.5266207916666872},{"name":"B4","midi":71,"time":964.7229940000243,"velocity":0.8818897637795275,"duration":0.26273169166665866},{"name":"A#5","midi":82,"time":964.7229940000243,"velocity":0.8818897637795275,"duration":0.26273169166665866},{"name":"A#6","midi":94,"time":964.7229940000243,"velocity":0.8818897637795275,"duration":0.26273169166665866},{"name":"C6","midi":84,"time":965.0007720000243,"velocity":0.8818897637795275,"duration":0.26273169166665866},{"name":"C7","midi":96,"time":965.0007720000243,"velocity":0.8818897637795275,"duration":0.26273169166665866},{"name":"D4","midi":62,"time":965.2785500000243,"velocity":0.8818897637795275,"duration":2.4710667916667717},{"name":"D5","midi":74,"time":965.2785500000243,"velocity":0.8818897637795275,"duration":3.165511791666745},{"name":"G4","midi":67,"time":965.2785500000243,"velocity":0.8818897637795275,"duration":0.26273169166665866},{"name":"C6","midi":84,"time":965.2785500000243,"velocity":0.8818897637795275,"duration":0.26273169166665866},{"name":"C7","midi":96,"time":965.2785500000243,"velocity":0.8818897637795275,"duration":0.26273169166665866},{"name":"D6","midi":86,"time":965.5563280000243,"velocity":0.8818897637795275,"duration":0.26273169166665866},{"name":"D7","midi":98,"time":965.5563280000243,"velocity":0.8818897637795275,"duration":0.26273169166665866},{"name":"A#5","midi":82,"time":965.8341060000243,"velocity":0.8818897637795275,"duration":0.26273169166665866},{"name":"A#6","midi":94,"time":965.8341060000243,"velocity":0.8818897637795275,"duration":0.26273169166665866},{"name":"F#4","midi":66,"time":966.1118840000244,"velocity":0.8818897637795275,"duration":0.26273169166665866},{"name":"G5","midi":79,"time":966.1118840000244,"velocity":0.8818897637795275,"duration":2.3738444916666595},{"name":"G6","midi":91,"time":966.1118840000244,"velocity":0.8818897637795275,"duration":2.3738444916666595},{"name":"F4","midi":65,"time":966.6674400000244,"velocity":0.8818897637795275,"duration":0.26273169166665866},{"name":"D4","midi":62,"time":967.2229960000244,"velocity":0.8818897637795275,"duration":1.0960656916666949},{"name":"B3","midi":59,"time":967.7785520000244,"velocity":0.8818897637795275,"duration":0.26273169166665866},{"name":"D4","midi":62,"time":968.0563300000244,"velocity":0.8818897637795275,"duration":0.3877317916666243},{"name":"F4","midi":65,"time":968.3341080000245,"velocity":0.8818897637795275,"duration":0.262731691666545},{"name":"C4","midi":60,"time":970.8341100000243,"velocity":0.8818897637795275,"duration":0.26273169166665866},{"name":"D#4","midi":63,"time":970.8341100000243,"velocity":0.8818897637795275,"duration":0.26273169166665866},{"name":"C5","midi":72,"time":970.8341100000243,"velocity":0.8818897637795275,"duration":0.26273169166665866},{"name":"D#5","midi":75,"time":970.8341100000243,"velocity":0.8818897637795275,"duration":0.26273169166665866},{"name":"C6","midi":84,"time":970.8341100000243,"velocity":0.8818897637795275,"duration":0.26273169166665866},{"name":"D#6","midi":87,"time":970.8341100000243,"velocity":0.8818897637795275,"duration":0.26273169166665866},{"name":"G#3","midi":56,"time":971.1118880000244,"velocity":0.8818897637795275,"duration":0.26273169166665866},{"name":"C4","midi":60,"time":971.1118880000244,"velocity":0.8818897637795275,"duration":0.26273169166665866},{"name":"G#4","midi":68,"time":971.1118880000244,"velocity":0.8818897637795275,"duration":0.26273169166665866},{"name":"C5","midi":72,"time":971.1118880000244,"velocity":0.8818897637795275,"duration":0.26273169166665866},{"name":"G#5","midi":80,"time":971.1118880000244,"velocity":0.8818897637795275,"duration":0.26273169166665866},{"name":"C6","midi":84,"time":971.1118880000244,"velocity":0.8818897637795275,"duration":0.26273169166665866},{"name":"C4","midi":60,"time":971.3896660000244,"velocity":0.8818897637795275,"duration":0.26273169166665866},{"name":"D#4","midi":63,"time":971.3896660000244,"velocity":0.8818897637795275,"duration":0.26273169166665866},{"name":"C5","midi":72,"time":971.3896660000244,"velocity":0.8818897637795275,"duration":0.26273169166665866},{"name":"D#5","midi":75,"time":971.3896660000244,"velocity":0.8818897637795275,"duration":0.26273169166665866},{"name":"C6","midi":84,"time":971.3896660000244,"velocity":0.8818897637795275,"duration":0.26273169166665866},{"name":"D#6","midi":87,"time":971.3896660000244,"velocity":0.8818897637795275,"duration":0.26273169166665866},{"name":"D4","midi":62,"time":971.6674440000244,"velocity":0.8818897637795275,"duration":0.26273169166665866},{"name":"F4","midi":65,"time":971.6674440000244,"velocity":0.8818897637795275,"duration":0.26273169166665866},{"name":"D5","midi":74,"time":971.6674440000244,"velocity":0.8818897637795275,"duration":0.26273169166665866},{"name":"F5","midi":77,"time":971.6674440000244,"velocity":0.8818897637795275,"duration":0.26273169166665866},{"name":"D6","midi":86,"time":971.6674440000244,"velocity":0.8818897637795275,"duration":0.26273169166665866},{"name":"F6","midi":89,"time":971.6674440000244,"velocity":0.8818897637795275,"duration":0.26273169166665866},{"name":"D#4","midi":63,"time":971.9452220000244,"velocity":0.8818897637795275,"duration":0.13078714166670125},{"name":"F#4","midi":66,"time":971.9452220000244,"velocity":0.8818897637795275,"duration":0.13078714166670125},{"name":"D#5","midi":75,"time":971.9452220000244,"velocity":0.8818897637795275,"duration":0.13078714166670125},{"name":"F#5","midi":78,"time":971.9452220000244,"velocity":0.8818897637795275,"duration":0.13078714166670125},{"name":"D#6","midi":87,"time":971.9452220000244,"velocity":0.8818897637795275,"duration":0.13078714166670125},{"name":"F#6","midi":90,"time":971.9452220000244,"velocity":0.8818897637795275,"duration":0.13078714166670125},{"name":"C4","midi":60,"time":972.0841110000244,"velocity":0.8818897637795275,"duration":0.13078714166670125},{"name":"D#4","midi":63,"time":972.0841110000244,"velocity":0.8818897637795275,"duration":0.13078714166670125},{"name":"C5","midi":72,"time":972.0841110000244,"velocity":0.8818897637795275,"duration":0.13078714166670125},{"name":"D#5","midi":75,"time":972.0841110000244,"velocity":0.8818897637795275,"duration":0.13078714166670125},{"name":"C6","midi":84,"time":972.0841110000244,"velocity":0.8818897637795275,"duration":0.13078714166670125},{"name":"D#6","midi":87,"time":972.0841110000244,"velocity":0.8818897637795275,"duration":0.13078714166670125},{"name":"G#3","midi":56,"time":972.2230000000245,"velocity":0.8818897637795275,"duration":0.26273169166665866},{"name":"C4","midi":60,"time":972.2230000000245,"velocity":0.8818897637795275,"duration":0.26273169166665866},{"name":"G#4","midi":68,"time":972.2230000000245,"velocity":0.8818897637795275,"duration":0.26273169166665866},{"name":"C5","midi":72,"time":972.2230000000245,"velocity":0.8818897637795275,"duration":0.26273169166665866},{"name":"G#5","midi":80,"time":972.2230000000245,"velocity":0.8818897637795275,"duration":0.26273169166665866},{"name":"C6","midi":84,"time":972.2230000000245,"velocity":0.8818897637795275,"duration":0.26273169166665866},{"name":"C4","midi":60,"time":972.5007780000245,"velocity":0.8818897637795275,"duration":0.26273169166665866},{"name":"D#4","midi":63,"time":972.5007780000245,"velocity":0.8818897637795275,"duration":0.26273169166665866},{"name":"C5","midi":72,"time":972.5007780000245,"velocity":0.8818897637795275,"duration":0.26273169166665866},{"name":"D#5","midi":75,"time":972.5007780000245,"velocity":0.8818897637795275,"duration":0.26273169166665866},{"name":"C6","midi":84,"time":972.5007780000245,"velocity":0.8818897637795275,"duration":0.26273169166665866},{"name":"D#6","midi":87,"time":972.5007780000245,"velocity":0.8818897637795275,"duration":0.26273169166665866},{"name":"D4","midi":62,"time":972.7785560000245,"velocity":0.8818897637795275,"duration":0.26273169166665866},{"name":"F4","midi":65,"time":972.7785560000245,"velocity":0.8818897637795275,"duration":0.26273169166665866},{"name":"D5","midi":74,"time":972.7785560000245,"velocity":0.8818897637795275,"duration":0.26273169166665866},{"name":"F5","midi":77,"time":972.7785560000245,"velocity":0.8818897637795275,"duration":0.26273169166665866},{"name":"D6","midi":86,"time":972.7785560000245,"velocity":0.8818897637795275,"duration":0.26273169166665866},{"name":"F6","midi":89,"time":972.7785560000245,"velocity":0.8818897637795275,"duration":0.26273169166665866},{"name":"D4","midi":62,"time":973.0563340000245,"velocity":0.8818897637795275,"duration":0.26273169166665866},{"name":"F#4","midi":66,"time":973.0563340000245,"velocity":0.8818897637795275,"duration":0.26273169166665866},{"name":"D5","midi":74,"time":973.0563340000245,"velocity":0.8818897637795275,"duration":0.26273169166665866},{"name":"F#5","midi":78,"time":973.0563340000245,"velocity":0.8818897637795275,"duration":0.26273169166665866},{"name":"D6","midi":86,"time":973.0563340000245,"velocity":0.8818897637795275,"duration":0.26273169166665866},{"name":"F#6","midi":90,"time":973.0563340000245,"velocity":0.8818897637795275,"duration":0.26273169166665866},{"name":"G#3","midi":56,"time":973.3341120000246,"velocity":0.8818897637795275,"duration":0.26273169166665866},{"name":"C4","midi":60,"time":973.3341120000246,"velocity":0.8818897637795275,"duration":0.26273169166665866},{"name":"G#4","midi":68,"time":973.3341120000246,"velocity":0.8818897637795275,"duration":0.26273169166665866},{"name":"C5","midi":72,"time":973.3341120000246,"velocity":0.8818897637795275,"duration":0.26273169166665866},{"name":"G#5","midi":80,"time":973.3341120000246,"velocity":0.8818897637795275,"duration":0.26273169166665866},{"name":"C6","midi":84,"time":973.3341120000246,"velocity":0.8818897637795275,"duration":0.26273169166665866},{"name":"C4","midi":60,"time":973.6118900000246,"velocity":0.8818897637795275,"duration":0.2766205916666422},{"name":"D#4","midi":63,"time":973.6118900000246,"velocity":0.8818897637795275,"duration":0.2766205916666422},{"name":"C5","midi":72,"time":973.6118900000246,"velocity":0.8818897637795275,"duration":0.2766205916666422},{"name":"D#5","midi":75,"time":973.6118900000246,"velocity":0.8818897637795275,"duration":0.2766205916666422},{"name":"C6","midi":84,"time":973.6118900000246,"velocity":0.8818897637795275,"duration":0.2766205916666422},{"name":"D#6","midi":87,"time":973.6118900000246,"velocity":0.8818897637795275,"duration":0.2766205916666422},{"name":"D4","midi":62,"time":974.1674460000246,"velocity":0.8818897637795275,"duration":2.3738444916666595},{"name":"F4","midi":65,"time":974.1674460000246,"velocity":0.8818897637795275,"duration":2.3738444916666595},{"name":"D5","midi":74,"time":974.1674460000246,"velocity":0.8818897637795275,"duration":2.3738444916666595},{"name":"F5","midi":77,"time":974.1674460000246,"velocity":0.8818897637795275,"duration":2.3738444916666595},{"name":"D6","midi":86,"time":974.1674460000246,"velocity":0.8818897637795275,"duration":2.3738444916666595},{"name":"F6","midi":89,"time":974.1674460000246,"velocity":0.8818897637795275,"duration":2.3738444916666595},{"name":"D4","midi":62,"time":976.6674480000246,"velocity":0.8818897637795275,"duration":0.5266207916666872},{"name":"F#4","midi":66,"time":976.6674480000246,"velocity":0.8818897637795275,"duration":0.5266207916666872},{"name":"D5","midi":74,"time":976.6674480000246,"velocity":0.8818897637795275,"duration":0.5266207916666872},{"name":"F#5","midi":78,"time":976.6674480000246,"velocity":0.8818897637795275,"duration":0.5266207916666872},{"name":"D6","midi":86,"time":976.6674480000246,"velocity":0.8818897637795275,"duration":0.5266207916666872},{"name":"F#6","midi":90,"time":976.6674480000246,"velocity":0.8818897637795275,"duration":0.5266207916666872},{"name":"D#4","midi":63,"time":977.2230040000246,"velocity":0.8818897637795275,"duration":0.26273169166665866},{"name":"G4","midi":67,"time":977.2230040000246,"velocity":0.8818897637795275,"duration":0.26273169166665866},{"name":"D#5","midi":75,"time":977.2230040000246,"velocity":0.8818897637795275,"duration":0.26273169166665866},{"name":"G5","midi":79,"time":977.2230040000246,"velocity":0.8818897637795275,"duration":0.26273169166665866},{"name":"D#6","midi":87,"time":977.2230040000246,"velocity":0.8818897637795275,"duration":0.26273169166665866},{"name":"G6","midi":91,"time":977.2230040000246,"velocity":0.8818897637795275,"duration":0.26273169166665866},{"name":"G4","midi":67,"time":977.5007820000246,"velocity":0.8818897637795275,"duration":0.2766205916666422},{"name":"A#4","midi":70,"time":977.5007820000246,"velocity":0.8818897637795275,"duration":0.2766205916666422},{"name":"G5","midi":79,"time":977.5007820000246,"velocity":0.8818897637795275,"duration":0.2766205916666422},{"name":"A#5","midi":82,"time":977.5007820000246,"velocity":0.8818897637795275,"duration":0.2766205916666422},{"name":"G6","midi":91,"time":977.5007820000246,"velocity":0.8818897637795275,"duration":0.2766205916666422},{"name":"A#6","midi":94,"time":977.5007820000246,"velocity":0.8818897637795275,"duration":0.2766205916666422},{"name":"D#4","midi":63,"time":978.0563380000247,"velocity":0.8818897637795275,"duration":0.26273169166665866},{"name":"G4","midi":67,"time":978.0563380000247,"velocity":0.8818897637795275,"duration":0.26273169166665866},{"name":"D#5","midi":75,"time":978.0563380000247,"velocity":0.8818897637795275,"duration":0.26273169166665866},{"name":"G5","midi":79,"time":978.0563380000247,"velocity":0.8818897637795275,"duration":0.26273169166665866},{"name":"D#6","midi":87,"time":978.0563380000247,"velocity":0.8818897637795275,"duration":0.26273169166665866},{"name":"G6","midi":91,"time":978.0563380000247,"velocity":0.8818897637795275,"duration":0.26273169166665866},{"name":"D#4","midi":63,"time":978.3341160000247,"velocity":0.8818897637795275,"duration":0.26273169166665866},{"name":"F#4","midi":66,"time":978.3341160000247,"velocity":0.8818897637795275,"duration":0.26273169166665866},{"name":"D#5","midi":75,"time":978.3341160000247,"velocity":0.8818897637795275,"duration":0.26273169166665866},{"name":"F#5","midi":78,"time":978.3341160000247,"velocity":0.8818897637795275,"duration":0.26273169166665866},{"name":"D#6","midi":87,"time":978.3341160000247,"velocity":0.8818897637795275,"duration":0.26273169166665866},{"name":"F#6","midi":90,"time":978.3341160000247,"velocity":0.8818897637795275,"duration":0.26273169166665866},{"name":"D4","midi":62,"time":978.6118940000247,"velocity":0.8818897637795275,"duration":0.26273169166665866},{"name":"F4","midi":65,"time":978.6118940000247,"velocity":0.8818897637795275,"duration":0.26273169166665866},{"name":"D5","midi":74,"time":978.6118940000247,"velocity":0.8818897637795275,"duration":0.26273169166665866},{"name":"F5","midi":77,"time":978.6118940000247,"velocity":0.8818897637795275,"duration":0.26273169166665866},{"name":"D6","midi":86,"time":978.6118940000247,"velocity":0.8818897637795275,"duration":0.26273169166665866},{"name":"F6","midi":89,"time":978.6118940000247,"velocity":0.8818897637795275,"duration":0.26273169166665866},{"name":"C4","midi":60,"time":978.8896720000247,"velocity":0.8818897637795275,"duration":0.26273169166665866},{"name":"D#4","midi":63,"time":978.8896720000247,"velocity":0.8818897637795275,"duration":0.26273169166665866},{"name":"C5","midi":72,"time":978.8896720000247,"velocity":0.8818897637795275,"duration":0.26273169166665866},{"name":"D#5","midi":75,"time":978.8896720000247,"velocity":0.8818897637795275,"duration":0.26273169166665866},{"name":"C6","midi":84,"time":978.8896720000247,"velocity":0.8818897637795275,"duration":0.26273169166665866},{"name":"D#6","midi":87,"time":978.8896720000247,"velocity":0.8818897637795275,"duration":0.26273169166665866},{"name":"G3","midi":55,"time":979.1674500000247,"velocity":0.8818897637795275,"duration":0.26273169166665866},{"name":"A#3","midi":58,"time":979.1674500000247,"velocity":0.8818897637795275,"duration":0.26273169166665866},{"name":"G4","midi":67,"time":979.1674500000247,"velocity":0.8818897637795275,"duration":0.26273169166665866},{"name":"A#4","midi":70,"time":979.1674500000247,"velocity":0.8818897637795275,"duration":0.26273169166665866},{"name":"G5","midi":79,"time":979.1674500000247,"velocity":0.8818897637795275,"duration":0.26273169166665866},{"name":"A#5","midi":82,"time":979.1674500000247,"velocity":0.8818897637795275,"duration":0.26273169166665866},{"name":"G3","midi":55,"time":979.4452280000247,"velocity":0.8818897637795275,"duration":0.26273169166665866},{"name":"C4","midi":60,"time":979.4452280000247,"velocity":0.8818897637795275,"duration":0.26273169166665866},{"name":"G4","midi":67,"time":979.4452280000247,"velocity":0.8818897637795275,"duration":0.26273169166665866},{"name":"C5","midi":72,"time":979.4452280000247,"velocity":0.8818897637795275,"duration":0.26273169166665866},{"name":"G5","midi":79,"time":979.4452280000247,"velocity":0.8818897637795275,"duration":0.26273169166665866},{"name":"C6","midi":84,"time":979.4452280000247,"velocity":0.8818897637795275,"duration":0.26273169166665866},{"name":"C4","midi":60,"time":979.7230060000247,"velocity":0.8818897637795275,"duration":0.5266207916666872},{"name":"D#4","midi":63,"time":979.7230060000247,"velocity":0.8818897637795275,"duration":0.5266207916666872},{"name":"C5","midi":72,"time":979.7230060000247,"velocity":0.8818897637795275,"duration":0.5266207916666872},{"name":"D#5","midi":75,"time":979.7230060000247,"velocity":0.8818897637795275,"duration":0.5266207916666872},{"name":"C6","midi":84,"time":979.7230060000247,"velocity":0.8818897637795275,"duration":0.5266207916666872},{"name":"D#6","midi":87,"time":979.7230060000247,"velocity":0.8818897637795275,"duration":0.5266207916666872},{"name":"D4","midi":62,"time":980.2785620000247,"velocity":0.8818897637795275,"duration":0.5266207916666872},{"name":"F4","midi":65,"time":980.2785620000247,"velocity":0.8818897637795275,"duration":0.5266207916666872},{"name":"D5","midi":74,"time":980.2785620000247,"velocity":0.8818897637795275,"duration":0.5266207916666872},{"name":"F5","midi":77,"time":980.2785620000247,"velocity":0.8818897637795275,"duration":0.5266207916666872},{"name":"D6","midi":86,"time":980.2785620000247,"velocity":0.8818897637795275,"duration":0.5266207916666872},{"name":"F6","midi":89,"time":980.2785620000247,"velocity":0.8818897637795275,"duration":0.5266207916666872},{"name":"D#4","midi":63,"time":980.8341180000248,"velocity":0.8818897637795275,"duration":0.5266207916666872},{"name":"G4","midi":67,"time":980.8341180000248,"velocity":0.8818897637795275,"duration":0.5266207916666872},{"name":"D#5","midi":75,"time":980.8341180000248,"velocity":0.8818897637795275,"duration":0.5266207916666872},{"name":"G5","midi":79,"time":980.8341180000248,"velocity":0.8818897637795275,"duration":0.5266207916666872},{"name":"D#6","midi":87,"time":980.8341180000248,"velocity":0.8818897637795275,"duration":0.5266207916666872},{"name":"G6","midi":91,"time":980.8341180000248,"velocity":0.8818897637795275,"duration":0.5266207916666872},{"name":"G4","midi":67,"time":981.3896740000248,"velocity":0.8818897637795275,"duration":0.5266207916666872},{"name":"A#4","midi":70,"time":981.3896740000248,"velocity":0.8818897637795275,"duration":0.5266207916666872},{"name":"G5","midi":79,"time":981.3896740000248,"velocity":0.8818897637795275,"duration":0.5266207916666872},{"name":"A#5","midi":82,"time":981.3896740000248,"velocity":0.8818897637795275,"duration":0.5266207916666872},{"name":"G6","midi":91,"time":981.3896740000248,"velocity":0.8818897637795275,"duration":0.5266207916666872},{"name":"A#6","midi":94,"time":981.3896740000248,"velocity":0.8818897637795275,"duration":0.5266207916666872},{"name":"G4","midi":67,"time":981.9452300000248,"velocity":0.8818897637795275,"duration":0.5266207916666872},{"name":"C5","midi":72,"time":981.9452300000248,"velocity":0.8818897637795275,"duration":0.5266207916666872},{"name":"G5","midi":79,"time":981.9452300000248,"velocity":0.8818897637795275,"duration":0.5266207916666872},{"name":"C6","midi":84,"time":981.9452300000248,"velocity":0.8818897637795275,"duration":0.5266207916666872},{"name":"G6","midi":91,"time":981.9452300000248,"velocity":0.8818897637795275,"duration":0.5266207916666872},{"name":"C7","midi":96,"time":981.9452300000248,"velocity":0.8818897637795275,"duration":0.5266207916666872},{"name":"D#4","midi":63,"time":982.5007860000248,"velocity":0.8818897637795275,"duration":0.5266207916666872},{"name":"G4","midi":67,"time":982.5007860000248,"velocity":0.8818897637795275,"duration":0.5266207916666872},{"name":"D#5","midi":75,"time":982.5007860000248,"velocity":0.8818897637795275,"duration":0.5266207916666872},{"name":"G5","midi":79,"time":982.5007860000248,"velocity":0.8818897637795275,"duration":0.5266207916666872},{"name":"D#6","midi":87,"time":982.5007860000248,"velocity":0.8818897637795275,"duration":0.5266207916666872},{"name":"G6","midi":91,"time":982.5007860000248,"velocity":0.8818897637795275,"duration":0.5266207916666872},{"name":"D#4","midi":63,"time":983.0563420000249,"velocity":0.8818897637795275,"duration":0.26273169166665866},{"name":"F#4","midi":66,"time":983.0563420000249,"velocity":0.8818897637795275,"duration":0.26273169166665866},{"name":"D#5","midi":75,"time":983.0563420000249,"velocity":0.8818897637795275,"duration":0.26273169166665866},{"name":"F#5","midi":78,"time":983.0563420000249,"velocity":0.8818897637795275,"duration":0.26273169166665866},{"name":"D#6","midi":87,"time":983.0563420000249,"velocity":0.8818897637795275,"duration":0.26273169166665866},{"name":"F#6","midi":90,"time":983.0563420000249,"velocity":0.8818897637795275,"duration":0.26273169166665866},{"name":"D4","midi":62,"time":983.3341200000249,"velocity":0.8818897637795275,"duration":0.26273169166665866},{"name":"F4","midi":65,"time":983.3341200000249,"velocity":0.8818897637795275,"duration":0.26273169166665866},{"name":"D5","midi":74,"time":983.3341200000249,"velocity":0.8818897637795275,"duration":0.26273169166665866},{"name":"F5","midi":77,"time":983.3341200000249,"velocity":0.8818897637795275,"duration":0.26273169166665866},{"name":"D6","midi":86,"time":983.3341200000249,"velocity":0.8818897637795275,"duration":0.26273169166665866},{"name":"F6","midi":89,"time":983.3341200000249,"velocity":0.8818897637795275,"duration":0.26273169166665866},{"name":"C4","midi":60,"time":983.6118980000249,"velocity":0.8818897637795275,"duration":0.26273169166665866},{"name":"D#4","midi":63,"time":983.6118980000249,"velocity":0.8818897637795275,"duration":0.26273169166665866},{"name":"C5","midi":72,"time":983.6118980000249,"velocity":0.8818897637795275,"duration":0.26273169166665866},{"name":"D#5","midi":75,"time":983.6118980000249,"velocity":0.8818897637795275,"duration":0.26273169166665866},{"name":"C6","midi":84,"time":983.6118980000249,"velocity":0.8818897637795275,"duration":0.26273169166665866},{"name":"D#6","midi":87,"time":983.6118980000249,"velocity":0.8818897637795275,"duration":0.26273169166665866},{"name":"D4","midi":62,"time":983.8896760000249,"velocity":0.8818897637795275,"duration":2.3738444916666595},{"name":"F4","midi":65,"time":983.8896760000249,"velocity":0.8818897637795275,"duration":2.3738444916666595},{"name":"D5","midi":74,"time":983.8896760000249,"velocity":0.8818897637795275,"duration":2.3738444916666595},{"name":"F5","midi":77,"time":983.8896760000249,"velocity":0.8818897637795275,"duration":2.3738444916666595},{"name":"D6","midi":86,"time":983.8896760000249,"velocity":0.8818897637795275,"duration":2.3738444916666595},{"name":"F6","midi":89,"time":983.8896760000249,"velocity":0.8818897637795275,"duration":2.3738444916666595},{"name":"F3","midi":53,"time":986.3896780000249,"velocity":0.8818897637795275,"duration":0.5266207916666872},{"name":"G#3","midi":56,"time":986.3896780000249,"velocity":0.8818897637795275,"duration":0.5266207916666872},{"name":"F4","midi":65,"time":986.3896780000249,"velocity":0.8818897637795275,"duration":0.5266207916666872},{"name":"G#4","midi":68,"time":986.3896780000249,"velocity":0.8818897637795275,"duration":0.5266207916666872},{"name":"F5","midi":77,"time":986.3896780000249,"velocity":0.8818897637795275,"duration":0.5266207916666872},{"name":"G#5","midi":80,"time":986.3896780000249,"velocity":0.8818897637795275,"duration":0.5266207916666872},{"name":"G3","midi":55,"time":986.9452340000249,"velocity":0.8818897637795275,"duration":0.5266207916666872},{"name":"A#3","midi":58,"time":986.9452340000249,"velocity":0.8818897637795275,"duration":0.5266207916666872},{"name":"G4","midi":67,"time":986.9452340000249,"velocity":0.8818897637795275,"duration":0.5266207916666872},{"name":"A#4","midi":70,"time":986.9452340000249,"velocity":0.8818897637795275,"duration":0.5266207916666872},{"name":"G5","midi":79,"time":986.9452340000249,"velocity":0.8818897637795275,"duration":0.5266207916666872},{"name":"A#5","midi":82,"time":986.9452340000249,"velocity":0.8818897637795275,"duration":0.5266207916666872},{"name":"G#3","midi":56,"time":987.500790000025,"velocity":0.8818897637795275,"duration":0.5266207916666872},{"name":"C4","midi":60,"time":987.500790000025,"velocity":0.8818897637795275,"duration":0.5266207916666872},{"name":"G#4","midi":68,"time":987.500790000025,"velocity":0.8818897637795275,"duration":0.5266207916666872},{"name":"C5","midi":72,"time":987.500790000025,"velocity":0.8818897637795275,"duration":0.5266207916666872},{"name":"G#5","midi":80,"time":987.500790000025,"velocity":0.8818897637795275,"duration":0.5266207916666872},{"name":"C6","midi":84,"time":987.500790000025,"velocity":0.8818897637795275,"duration":0.5266207916666872},{"name":"C4","midi":60,"time":988.056346000025,"velocity":0.8818897637795275,"duration":0.5266207916666872},{"name":"D#4","midi":63,"time":988.056346000025,"velocity":0.8818897637795275,"duration":0.5266207916666872},{"name":"C5","midi":72,"time":988.056346000025,"velocity":0.8818897637795275,"duration":0.5266207916666872},{"name":"D#5","midi":75,"time":988.056346000025,"velocity":0.8818897637795275,"duration":0.5266207916666872},{"name":"C6","midi":84,"time":988.056346000025,"velocity":0.8818897637795275,"duration":0.5266207916666872},{"name":"D#6","midi":87,"time":988.056346000025,"velocity":0.8818897637795275,"duration":0.5266207916666872},{"name":"A#3","midi":58,"time":988.611902000025,"velocity":0.8818897637795275,"duration":1.0543989916666305},{"name":"D4","midi":62,"time":988.611902000025,"velocity":0.8818897637795275,"duration":1.0543989916666305},{"name":"A#4","midi":70,"time":988.611902000025,"velocity":0.8818897637795275,"duration":1.0543989916666305},{"name":"D5","midi":74,"time":988.611902000025,"velocity":0.8818897637795275,"duration":1.0543989916666305},{"name":"A#5","midi":82,"time":988.611902000025,"velocity":0.8818897637795275,"duration":1.0543989916666305},{"name":"D6","midi":86,"time":988.611902000025,"velocity":0.8818897637795275,"duration":1.0543989916666305},{"name":"G#3","midi":56,"time":989.7230140000249,"velocity":0.8818897637795275,"duration":1.0543989916666305},{"name":"C4","midi":60,"time":989.7230140000249,"velocity":0.8818897637795275,"duration":1.0543989916666305},{"name":"G#4","midi":68,"time":989.7230140000249,"velocity":0.8818897637795275,"duration":1.0543989916666305},{"name":"C5","midi":72,"time":989.7230140000249,"velocity":0.8818897637795275,"duration":1.0543989916666305},{"name":"G#5","midi":80,"time":989.7230140000249,"velocity":0.8818897637795275,"duration":1.0543989916666305},{"name":"C6","midi":84,"time":989.7230140000249,"velocity":0.8818897637795275,"duration":1.0543989916666305},{"name":"A#3","midi":58,"time":990.8341260000249,"velocity":0.8818897637795275,"duration":1.0543989916666305},{"name":"D4","midi":62,"time":990.8341260000249,"velocity":0.8818897637795275,"duration":1.0543989916666305},{"name":"A#4","midi":70,"time":990.8341260000249,"velocity":0.8818897637795275,"duration":1.0543989916666305},{"name":"D5","midi":74,"time":990.8341260000249,"velocity":0.8818897637795275,"duration":1.0543989916666305},{"name":"A#5","midi":82,"time":990.8341260000249,"velocity":0.8818897637795275,"duration":1.0543989916666305},{"name":"D6","midi":86,"time":990.8341260000249,"velocity":0.8818897637795275,"duration":1.0543989916666305},{"name":"C4","midi":60,"time":991.9452380000248,"velocity":0.8818897637795275,"duration":1.0543989916666305},{"name":"D#4","midi":63,"time":991.9452380000248,"velocity":0.8818897637795275,"duration":1.0543989916666305},{"name":"C5","midi":72,"time":991.9452380000248,"velocity":0.8818897637795275,"duration":1.0543989916666305},{"name":"D#5","midi":75,"time":991.9452380000248,"velocity":0.8818897637795275,"duration":1.0543989916666305},{"name":"C6","midi":84,"time":991.9452380000248,"velocity":0.8818897637795275,"duration":1.0543989916666305},{"name":"D#6","midi":87,"time":991.9452380000248,"velocity":0.8818897637795275,"duration":1.0543989916666305},{"name":"D4","midi":62,"time":993.0563500000247,"velocity":0.8818897637795275,"duration":1.0543989916666305},{"name":"F4","midi":65,"time":993.0563500000247,"velocity":0.8818897637795275,"duration":1.0543989916666305},{"name":"D5","midi":74,"time":993.0563500000247,"velocity":0.8818897637795275,"duration":1.0543989916666305},{"name":"F5","midi":77,"time":993.0563500000247,"velocity":0.8818897637795275,"duration":1.0543989916666305},{"name":"D6","midi":86,"time":993.0563500000247,"velocity":0.8818897637795275,"duration":1.0543989916666305},{"name":"F6","midi":89,"time":993.0563500000247,"velocity":0.8818897637795275,"duration":1.0543989916666305},{"name":"G3","midi":55,"time":994.1674620000247,"velocity":0.8818897637795275,"duration":1.0543989916666305},{"name":"A#3","midi":58,"time":994.1674620000247,"velocity":0.8818897637795275,"duration":1.0543989916666305},{"name":"G4","midi":67,"time":994.1674620000247,"velocity":0.8818897637795275,"duration":1.0543989916666305},{"name":"A#4","midi":70,"time":994.1674620000247,"velocity":0.8818897637795275,"duration":1.0543989916666305},{"name":"G5","midi":79,"time":994.1674620000247,"velocity":0.8818897637795275,"duration":1.0543989916666305},{"name":"A#5","midi":82,"time":994.1674620000247,"velocity":0.8818897637795275,"duration":1.0543989916666305},{"name":"C4","midi":60,"time":995.2785740000246,"velocity":0.8818897637795275,"duration":4.221068191666632},{"name":"G4","midi":67,"time":995.2785740000246,"velocity":0.8818897637795275,"duration":4.221068191666632},{"name":"C5","midi":72,"time":995.2785740000246,"velocity":0.8818897637795275,"duration":4.221068191666632},{"name":"G5","midi":79,"time":995.2785740000246,"velocity":0.8818897637795275,"duration":4.221068191666632},{"name":"C6","midi":84,"time":995.2785740000246,"velocity":0.8818897637795275,"duration":4.221068191666632},{"name":"G6","midi":91,"time":995.2785740000246,"velocity":0.8818897637795275,"duration":4.221068191666632},{"name":"C4","midi":60,"time":999.7230220000246,"velocity":0.8818897637795275,"duration":2.109955391666631},{"name":"G4","midi":67,"time":999.7230220000246,"velocity":0.8818897637795275,"duration":2.109955391666631},{"name":"C5","midi":72,"time":999.7230220000246,"velocity":0.8818897637795275,"duration":2.109955391666631},{"name":"G5","midi":79,"time":999.7230220000246,"velocity":0.8818897637795275,"duration":2.109955391666631},{"name":"C6","midi":84,"time":999.7230220000246,"velocity":0.8818897637795275,"duration":2.109955391666631},{"name":"A#3","midi":58,"time":1001.9452460000246,"velocity":0.8818897637795275,"duration":2.109955391666631},{"name":"D4","midi":62,"time":1001.9452460000246,"velocity":0.8818897637795275,"duration":2.109955391666631},{"name":"A#4","midi":70,"time":1001.9452460000246,"velocity":0.8818897637795275,"duration":2.109955391666631},{"name":"D5","midi":74,"time":1001.9452460000246,"velocity":0.8818897637795275,"duration":2.109955391666631},{"name":"A#5","midi":82,"time":1001.9452460000246,"velocity":0.8818897637795275,"duration":2.109955391666631},{"name":"D6","midi":86,"time":1001.9452460000246,"velocity":0.8818897637795275,"duration":2.109955391666631},{"name":"C4","midi":60,"time":1006.3896940000245,"velocity":0.8818897637795275,"duration":0.26273169166665866},{"name":"D#4","midi":63,"time":1006.3896940000245,"velocity":0.8818897637795275,"duration":0.26273169166665866},{"name":"C5","midi":72,"time":1006.3896940000245,"velocity":0.8818897637795275,"duration":0.26273169166665866},{"name":"D#5","midi":75,"time":1006.3896940000245,"velocity":0.8818897637795275,"duration":0.26273169166665866},{"name":"C6","midi":84,"time":1006.3896940000245,"velocity":0.8818897637795275,"duration":0.26273169166665866},{"name":"D#6","midi":87,"time":1006.3896940000245,"velocity":0.8818897637795275,"duration":0.26273169166665866},{"name":"G#3","midi":56,"time":1006.6674720000245,"velocity":0.8818897637795275,"duration":0.26273169166665866},{"name":"C4","midi":60,"time":1006.6674720000245,"velocity":0.8818897637795275,"duration":0.26273169166665866},{"name":"G#4","midi":68,"time":1006.6674720000245,"velocity":0.8818897637795275,"duration":0.26273169166665866},{"name":"C5","midi":72,"time":1006.6674720000245,"velocity":0.8818897637795275,"duration":0.26273169166665866},{"name":"G#5","midi":80,"time":1006.6674720000245,"velocity":0.8818897637795275,"duration":0.26273169166665866},{"name":"C6","midi":84,"time":1006.6674720000245,"velocity":0.8818897637795275,"duration":0.26273169166665866},{"name":"C4","midi":60,"time":1006.9452500000245,"velocity":0.8818897637795275,"duration":0.26273169166665866},{"name":"D#4","midi":63,"time":1006.9452500000245,"velocity":0.8818897637795275,"duration":0.26273169166665866},{"name":"C5","midi":72,"time":1006.9452500000245,"velocity":0.8818897637795275,"duration":0.26273169166665866},{"name":"D#5","midi":75,"time":1006.9452500000245,"velocity":0.8818897637795275,"duration":0.26273169166665866},{"name":"C6","midi":84,"time":1006.9452500000245,"velocity":0.8818897637795275,"duration":0.26273169166665866},{"name":"D#6","midi":87,"time":1006.9452500000245,"velocity":0.8818897637795275,"duration":0.26273169166665866},{"name":"D4","midi":62,"time":1007.2230280000246,"velocity":0.8818897637795275,"duration":0.26273169166665866},{"name":"F4","midi":65,"time":1007.2230280000246,"velocity":0.8818897637795275,"duration":0.26273169166665866},{"name":"D5","midi":74,"time":1007.2230280000246,"velocity":0.8818897637795275,"duration":0.26273169166665866},{"name":"F5","midi":77,"time":1007.2230280000246,"velocity":0.8818897637795275,"duration":0.26273169166665866},{"name":"D6","midi":86,"time":1007.2230280000246,"velocity":0.8818897637795275,"duration":0.26273169166665866},{"name":"F6","midi":89,"time":1007.2230280000246,"velocity":0.8818897637795275,"duration":0.26273169166665866},{"name":"D#4","midi":63,"time":1007.5008060000246,"velocity":0.8818897637795275,"duration":0.13078714166670125},{"name":"F#4","midi":66,"time":1007.5008060000246,"velocity":0.8818897637795275,"duration":0.13078714166670125},{"name":"D#5","midi":75,"time":1007.5008060000246,"velocity":0.8818897637795275,"duration":0.13078714166670125},{"name":"F#5","midi":78,"time":1007.5008060000246,"velocity":0.8818897637795275,"duration":0.13078714166670125},{"name":"D#6","midi":87,"time":1007.5008060000246,"velocity":0.8818897637795275,"duration":0.13078714166670125},{"name":"F#6","midi":90,"time":1007.5008060000246,"velocity":0.8818897637795275,"duration":0.13078714166670125},{"name":"C4","midi":60,"time":1007.6396950000246,"velocity":0.8818897637795275,"duration":0.13078714166670125},{"name":"D#4","midi":63,"time":1007.6396950000246,"velocity":0.8818897637795275,"duration":0.13078714166670125},{"name":"C5","midi":72,"time":1007.6396950000246,"velocity":0.8818897637795275,"duration":0.13078714166670125},{"name":"D#5","midi":75,"time":1007.6396950000246,"velocity":0.8818897637795275,"duration":0.13078714166670125},{"name":"C6","midi":84,"time":1007.6396950000246,"velocity":0.8818897637795275,"duration":0.13078714166670125},{"name":"D#6","midi":87,"time":1007.6396950000246,"velocity":0.8818897637795275,"duration":0.13078714166670125},{"name":"G#3","midi":56,"time":1007.7785840000247,"velocity":0.8818897637795275,"duration":0.26273169166665866},{"name":"C4","midi":60,"time":1007.7785840000247,"velocity":0.8818897637795275,"duration":0.26273169166665866},{"name":"G#4","midi":68,"time":1007.7785840000247,"velocity":0.8818897637795275,"duration":0.26273169166665866},{"name":"C5","midi":72,"time":1007.7785840000247,"velocity":0.8818897637795275,"duration":0.26273169166665866},{"name":"G#5","midi":80,"time":1007.7785840000247,"velocity":0.8818897637795275,"duration":0.26273169166665866},{"name":"C6","midi":84,"time":1007.7785840000247,"velocity":0.8818897637795275,"duration":0.26273169166665866},{"name":"C4","midi":60,"time":1008.0563620000247,"velocity":0.8818897637795275,"duration":0.26273169166665866},{"name":"D#4","midi":63,"time":1008.0563620000247,"velocity":0.8818897637795275,"duration":0.26273169166665866},{"name":"C5","midi":72,"time":1008.0563620000247,"velocity":0.8818897637795275,"duration":0.26273169166665866},{"name":"D#5","midi":75,"time":1008.0563620000247,"velocity":0.8818897637795275,"duration":0.26273169166665866},{"name":"C6","midi":84,"time":1008.0563620000247,"velocity":0.8818897637795275,"duration":0.26273169166665866},{"name":"D#6","midi":87,"time":1008.0563620000247,"velocity":0.8818897637795275,"duration":0.26273169166665866},{"name":"D4","midi":62,"time":1008.3341400000247,"velocity":0.8818897637795275,"duration":0.26273169166665866},{"name":"F4","midi":65,"time":1008.3341400000247,"velocity":0.8818897637795275,"duration":0.26273169166665866},{"name":"D5","midi":74,"time":1008.3341400000247,"velocity":0.8818897637795275,"duration":0.26273169166665866},{"name":"F5","midi":77,"time":1008.3341400000247,"velocity":0.8818897637795275,"duration":0.26273169166665866},{"name":"D6","midi":86,"time":1008.3341400000247,"velocity":0.8818897637795275,"duration":0.26273169166665866},{"name":"F6","midi":89,"time":1008.3341400000247,"velocity":0.8818897637795275,"duration":0.26273169166665866},{"name":"D4","midi":62,"time":1008.6119180000247,"velocity":0.8818897637795275,"duration":0.26273169166665866},{"name":"F#4","midi":66,"time":1008.6119180000247,"velocity":0.8818897637795275,"duration":0.26273169166665866},{"name":"D5","midi":74,"time":1008.6119180000247,"velocity":0.8818897637795275,"duration":0.26273169166665866},{"name":"F#5","midi":78,"time":1008.6119180000247,"velocity":0.8818897637795275,"duration":0.26273169166665866},{"name":"D6","midi":86,"time":1008.6119180000247,"velocity":0.8818897637795275,"duration":0.26273169166665866},{"name":"F#6","midi":90,"time":1008.6119180000247,"velocity":0.8818897637795275,"duration":0.26273169166665866},{"name":"G#3","midi":56,"time":1008.8896960000247,"velocity":0.8818897637795275,"duration":0.26273169166665866},{"name":"C4","midi":60,"time":1008.8896960000247,"velocity":0.8818897637795275,"duration":0.26273169166665866},{"name":"G#4","midi":68,"time":1008.8896960000247,"velocity":0.8818897637795275,"duration":0.26273169166665866},{"name":"C5","midi":72,"time":1008.8896960000247,"velocity":0.8818897637795275,"duration":0.26273169166665866},{"name":"G#5","midi":80,"time":1008.8896960000247,"velocity":0.8818897637795275,"duration":0.26273169166665866},{"name":"C6","midi":84,"time":1008.8896960000247,"velocity":0.8818897637795275,"duration":0.26273169166665866},{"name":"C4","midi":60,"time":1009.1674740000248,"velocity":0.8818897637795275,"duration":0.2766205916666422},{"name":"D#4","midi":63,"time":1009.1674740000248,"velocity":0.8818897637795275,"duration":0.2766205916666422},{"name":"C5","midi":72,"time":1009.1674740000248,"velocity":0.8818897637795275,"duration":0.2766205916666422},{"name":"D#5","midi":75,"time":1009.1674740000248,"velocity":0.8818897637795275,"duration":0.2766205916666422},{"name":"C6","midi":84,"time":1009.1674740000248,"velocity":0.8818897637795275,"duration":0.2766205916666422},{"name":"D#6","midi":87,"time":1009.1674740000248,"velocity":0.8818897637795275,"duration":0.2766205916666422},{"name":"D4","midi":62,"time":1009.7230300000248,"velocity":0.8818897637795275,"duration":2.3738444916666595},{"name":"F4","midi":65,"time":1009.7230300000248,"velocity":0.8818897637795275,"duration":2.3738444916666595},{"name":"D5","midi":74,"time":1009.7230300000248,"velocity":0.8818897637795275,"duration":2.3738444916666595},{"name":"F5","midi":77,"time":1009.7230300000248,"velocity":0.8818897637795275,"duration":2.3738444916666595},{"name":"D6","midi":86,"time":1009.7230300000248,"velocity":0.8818897637795275,"duration":2.3738444916666595},{"name":"F6","midi":89,"time":1009.7230300000248,"velocity":0.8818897637795275,"duration":2.3738444916666595},{"name":"D4","midi":62,"time":1012.2230320000248,"velocity":0.8818897637795275,"duration":0.5266207916666872},{"name":"F#4","midi":66,"time":1012.2230320000248,"velocity":0.8818897637795275,"duration":0.5266207916666872},{"name":"D5","midi":74,"time":1012.2230320000248,"velocity":0.8818897637795275,"duration":0.5266207916666872},{"name":"F#5","midi":78,"time":1012.2230320000248,"velocity":0.8818897637795275,"duration":0.5266207916666872},{"name":"D6","midi":86,"time":1012.2230320000248,"velocity":0.8818897637795275,"duration":0.5266207916666872},{"name":"F#6","midi":90,"time":1012.2230320000248,"velocity":0.8818897637795275,"duration":0.5266207916666872},{"name":"D#4","midi":63,"time":1012.7785880000248,"velocity":0.8818897637795275,"duration":0.26273169166665866},{"name":"G4","midi":67,"time":1012.7785880000248,"velocity":0.8818897637795275,"duration":0.26273169166665866},{"name":"D#5","midi":75,"time":1012.7785880000248,"velocity":0.8818897637795275,"duration":0.26273169166665866},{"name":"G5","midi":79,"time":1012.7785880000248,"velocity":0.8818897637795275,"duration":0.26273169166665866},{"name":"D#6","midi":87,"time":1012.7785880000248,"velocity":0.8818897637795275,"duration":0.26273169166665866},{"name":"G6","midi":91,"time":1012.7785880000248,"velocity":0.8818897637795275,"duration":0.26273169166665866},{"name":"G4","midi":67,"time":1013.0563660000248,"velocity":0.8818897637795275,"duration":0.2766205916666422},{"name":"A#4","midi":70,"time":1013.0563660000248,"velocity":0.8818897637795275,"duration":0.2766205916666422},{"name":"G5","midi":79,"time":1013.0563660000248,"velocity":0.8818897637795275,"duration":0.2766205916666422},{"name":"A#5","midi":82,"time":1013.0563660000248,"velocity":0.8818897637795275,"duration":0.2766205916666422},{"name":"G6","midi":91,"time":1013.0563660000248,"velocity":0.8818897637795275,"duration":0.2766205916666422},{"name":"A#6","midi":94,"time":1013.0563660000248,"velocity":0.8818897637795275,"duration":0.2766205916666422},{"name":"D#4","midi":63,"time":1013.6119220000248,"velocity":0.8818897637795275,"duration":0.26273169166665866},{"name":"G4","midi":67,"time":1013.6119220000248,"velocity":0.8818897637795275,"duration":0.26273169166665866},{"name":"D#5","midi":75,"time":1013.6119220000248,"velocity":0.8818897637795275,"duration":0.26273169166665866},{"name":"G5","midi":79,"time":1013.6119220000248,"velocity":0.8818897637795275,"duration":0.26273169166665866},{"name":"D#6","midi":87,"time":1013.6119220000248,"velocity":0.8818897637795275,"duration":0.26273169166665866},{"name":"G6","midi":91,"time":1013.6119220000248,"velocity":0.8818897637795275,"duration":0.26273169166665866},{"name":"D#4","midi":63,"time":1013.8897000000248,"velocity":0.8818897637795275,"duration":0.26273169166665866},{"name":"F#4","midi":66,"time":1013.8897000000248,"velocity":0.8818897637795275,"duration":0.26273169166665866},{"name":"D#5","midi":75,"time":1013.8897000000248,"velocity":0.8818897637795275,"duration":0.26273169166665866},{"name":"F#5","midi":78,"time":1013.8897000000248,"velocity":0.8818897637795275,"duration":0.26273169166665866},{"name":"D#6","midi":87,"time":1013.8897000000248,"velocity":0.8818897637795275,"duration":0.26273169166665866},{"name":"F#6","midi":90,"time":1013.8897000000248,"velocity":0.8818897637795275,"duration":0.26273169166665866},{"name":"D4","midi":62,"time":1014.1674780000249,"velocity":0.8818897637795275,"duration":0.26273169166665866},{"name":"F4","midi":65,"time":1014.1674780000249,"velocity":0.8818897637795275,"duration":0.26273169166665866},{"name":"D5","midi":74,"time":1014.1674780000249,"velocity":0.8818897637795275,"duration":0.26273169166665866},{"name":"F5","midi":77,"time":1014.1674780000249,"velocity":0.8818897637795275,"duration":0.26273169166665866},{"name":"D6","midi":86,"time":1014.1674780000249,"velocity":0.8818897637795275,"duration":0.26273169166665866},{"name":"F6","midi":89,"time":1014.1674780000249,"velocity":0.8818897637795275,"duration":0.26273169166665866},{"name":"C4","midi":60,"time":1014.4452560000249,"velocity":0.8818897637795275,"duration":0.26273169166665866},{"name":"D#4","midi":63,"time":1014.4452560000249,"velocity":0.8818897637795275,"duration":0.26273169166665866},{"name":"C5","midi":72,"time":1014.4452560000249,"velocity":0.8818897637795275,"duration":0.26273169166665866},{"name":"D#5","midi":75,"time":1014.4452560000249,"velocity":0.8818897637795275,"duration":0.26273169166665866},{"name":"C6","midi":84,"time":1014.4452560000249,"velocity":0.8818897637795275,"duration":0.26273169166665866},{"name":"D#6","midi":87,"time":1014.4452560000249,"velocity":0.8818897637795275,"duration":0.26273169166665866},{"name":"G3","midi":55,"time":1014.7230340000249,"velocity":0.8818897637795275,"duration":0.26273169166665866},{"name":"A#3","midi":58,"time":1014.7230340000249,"velocity":0.8818897637795275,"duration":0.26273169166665866},{"name":"G4","midi":67,"time":1014.7230340000249,"velocity":0.8818897637795275,"duration":0.26273169166665866},{"name":"A#4","midi":70,"time":1014.7230340000249,"velocity":0.8818897637795275,"duration":0.26273169166665866},{"name":"G5","midi":79,"time":1014.7230340000249,"velocity":0.8818897637795275,"duration":0.26273169166665866},{"name":"A#5","midi":82,"time":1014.7230340000249,"velocity":0.8818897637795275,"duration":0.26273169166665866},{"name":"G3","midi":55,"time":1015.0008120000249,"velocity":0.8818897637795275,"duration":0.26273169166665866},{"name":"C4","midi":60,"time":1015.0008120000249,"velocity":0.8818897637795275,"duration":0.26273169166665866},{"name":"G4","midi":67,"time":1015.0008120000249,"velocity":0.8818897637795275,"duration":0.26273169166665866},{"name":"C5","midi":72,"time":1015.0008120000249,"velocity":0.8818897637795275,"duration":0.26273169166665866},{"name":"G5","midi":79,"time":1015.0008120000249,"velocity":0.8818897637795275,"duration":0.26273169166665866},{"name":"C6","midi":84,"time":1015.0008120000249,"velocity":0.8818897637795275,"duration":0.26273169166665866},{"name":"C4","midi":60,"time":1015.2785900000249,"velocity":0.8818897637795275,"duration":0.5266207916666872},{"name":"D#4","midi":63,"time":1015.2785900000249,"velocity":0.8818897637795275,"duration":0.5266207916666872},{"name":"C5","midi":72,"time":1015.2785900000249,"velocity":0.8818897637795275,"duration":0.5266207916666872},{"name":"D#5","midi":75,"time":1015.2785900000249,"velocity":0.8818897637795275,"duration":0.5266207916666872},{"name":"C6","midi":84,"time":1015.2785900000249,"velocity":0.8818897637795275,"duration":0.5266207916666872},{"name":"D#6","midi":87,"time":1015.2785900000249,"velocity":0.8818897637795275,"duration":0.5266207916666872},{"name":"D4","midi":62,"time":1015.8341460000249,"velocity":0.8818897637795275,"duration":0.5266207916666872},{"name":"F4","midi":65,"time":1015.8341460000249,"velocity":0.8818897637795275,"duration":0.5266207916666872},{"name":"D5","midi":74,"time":1015.8341460000249,"velocity":0.8818897637795275,"duration":0.5266207916666872},{"name":"F5","midi":77,"time":1015.8341460000249,"velocity":0.8818897637795275,"duration":0.5266207916666872},{"name":"D6","midi":86,"time":1015.8341460000249,"velocity":0.8818897637795275,"duration":0.5266207916666872},{"name":"F6","midi":89,"time":1015.8341460000249,"velocity":0.8818897637795275,"duration":0.5266207916666872},{"name":"D#4","midi":63,"time":1016.389702000025,"velocity":0.8818897637795275,"duration":0.5266207916666872},{"name":"G4","midi":67,"time":1016.389702000025,"velocity":0.8818897637795275,"duration":0.5266207916666872},{"name":"D#5","midi":75,"time":1016.389702000025,"velocity":0.8818897637795275,"duration":0.5266207916666872},{"name":"G5","midi":79,"time":1016.389702000025,"velocity":0.8818897637795275,"duration":0.5266207916666872},{"name":"D#6","midi":87,"time":1016.389702000025,"velocity":0.8818897637795275,"duration":0.5266207916666872},{"name":"G6","midi":91,"time":1016.389702000025,"velocity":0.8818897637795275,"duration":0.5266207916666872},{"name":"G4","midi":67,"time":1016.945258000025,"velocity":0.8818897637795275,"duration":0.5266207916666872},{"name":"A#4","midi":70,"time":1016.945258000025,"velocity":0.8818897637795275,"duration":0.5266207916666872},{"name":"G5","midi":79,"time":1016.945258000025,"velocity":0.8818897637795275,"duration":0.5266207916666872},{"name":"A#5","midi":82,"time":1016.945258000025,"velocity":0.8818897637795275,"duration":0.5266207916666872},{"name":"G6","midi":91,"time":1016.945258000025,"velocity":0.8818897637795275,"duration":0.5266207916666872},{"name":"A#6","midi":94,"time":1016.945258000025,"velocity":0.8818897637795275,"duration":0.5266207916666872},{"name":"G4","midi":67,"time":1017.500814000025,"velocity":0.8818897637795275,"duration":0.5266207916666872},{"name":"C5","midi":72,"time":1017.500814000025,"velocity":0.8818897637795275,"duration":0.5266207916666872},{"name":"G5","midi":79,"time":1017.500814000025,"velocity":0.8818897637795275,"duration":0.5266207916666872},{"name":"C6","midi":84,"time":1017.500814000025,"velocity":0.8818897637795275,"duration":0.5266207916666872},{"name":"G6","midi":91,"time":1017.500814000025,"velocity":0.8818897637795275,"duration":0.5266207916666872},{"name":"C7","midi":96,"time":1017.500814000025,"velocity":0.8818897637795275,"duration":0.5266207916666872},{"name":"D#4","midi":63,"time":1018.056370000025,"velocity":0.8818897637795275,"duration":0.5266207916666872},{"name":"G4","midi":67,"time":1018.056370000025,"velocity":0.8818897637795275,"duration":0.5266207916666872},{"name":"D#5","midi":75,"time":1018.056370000025,"velocity":0.8818897637795275,"duration":0.5266207916666872},{"name":"G5","midi":79,"time":1018.056370000025,"velocity":0.8818897637795275,"duration":0.5266207916666872},{"name":"D#6","midi":87,"time":1018.056370000025,"velocity":0.8818897637795275,"duration":0.5266207916666872},{"name":"G6","midi":91,"time":1018.056370000025,"velocity":0.8818897637795275,"duration":0.5266207916666872},{"name":"D#4","midi":63,"time":1018.611926000025,"velocity":0.8818897637795275,"duration":0.26273169166665866},{"name":"F#4","midi":66,"time":1018.611926000025,"velocity":0.8818897637795275,"duration":0.26273169166665866},{"name":"D#5","midi":75,"time":1018.611926000025,"velocity":0.8818897637795275,"duration":0.26273169166665866},{"name":"F#5","midi":78,"time":1018.611926000025,"velocity":0.8818897637795275,"duration":0.26273169166665866},{"name":"D#6","midi":87,"time":1018.611926000025,"velocity":0.8818897637795275,"duration":0.26273169166665866},{"name":"F#6","midi":90,"time":1018.611926000025,"velocity":0.8818897637795275,"duration":0.26273169166665866},{"name":"D4","midi":62,"time":1018.8897040000251,"velocity":0.8818897637795275,"duration":0.26273169166665866},{"name":"F4","midi":65,"time":1018.8897040000251,"velocity":0.8818897637795275,"duration":0.26273169166665866},{"name":"D5","midi":74,"time":1018.8897040000251,"velocity":0.8818897637795275,"duration":0.26273169166665866},{"name":"F5","midi":77,"time":1018.8897040000251,"velocity":0.8818897637795275,"duration":0.26273169166665866},{"name":"D6","midi":86,"time":1018.8897040000251,"velocity":0.8818897637795275,"duration":0.26273169166665866},{"name":"F6","midi":89,"time":1018.8897040000251,"velocity":0.8818897637795275,"duration":0.26273169166665866},{"name":"C4","midi":60,"time":1019.1674820000251,"velocity":0.8818897637795275,"duration":0.26273169166665866},{"name":"D#4","midi":63,"time":1019.1674820000251,"velocity":0.8818897637795275,"duration":0.26273169166665866},{"name":"C5","midi":72,"time":1019.1674820000251,"velocity":0.8818897637795275,"duration":0.26273169166665866},{"name":"D#5","midi":75,"time":1019.1674820000251,"velocity":0.8818897637795275,"duration":0.26273169166665866},{"name":"C6","midi":84,"time":1019.1674820000251,"velocity":0.8818897637795275,"duration":0.26273169166665866},{"name":"D#6","midi":87,"time":1019.1674820000251,"velocity":0.8818897637795275,"duration":0.26273169166665866},{"name":"D4","midi":62,"time":1019.4452600000251,"velocity":0.8818897637795275,"duration":2.3738444916666595},{"name":"F4","midi":65,"time":1019.4452600000251,"velocity":0.8818897637795275,"duration":2.3738444916666595},{"name":"D5","midi":74,"time":1019.4452600000251,"velocity":0.8818897637795275,"duration":2.3738444916666595},{"name":"F5","midi":77,"time":1019.4452600000251,"velocity":0.8818897637795275,"duration":2.3738444916666595},{"name":"D6","midi":86,"time":1019.4452600000251,"velocity":0.8818897637795275,"duration":2.3738444916666595},{"name":"F6","midi":89,"time":1019.4452600000251,"velocity":0.8818897637795275,"duration":2.3738444916666595},{"name":"F3","midi":53,"time":1021.9452620000251,"velocity":0.8818897637795275,"duration":0.5266207916666872},{"name":"G#3","midi":56,"time":1021.9452620000251,"velocity":0.8818897637795275,"duration":0.5266207916666872},{"name":"F4","midi":65,"time":1021.9452620000251,"velocity":0.8818897637795275,"duration":0.5266207916666872},{"name":"G#4","midi":68,"time":1021.9452620000251,"velocity":0.8818897637795275,"duration":0.5266207916666872},{"name":"F5","midi":77,"time":1021.9452620000251,"velocity":0.8818897637795275,"duration":0.5266207916666872},{"name":"G#5","midi":80,"time":1021.9452620000251,"velocity":0.8818897637795275,"duration":0.5266207916666872},{"name":"G3","midi":55,"time":1022.5008180000251,"velocity":0.8818897637795275,"duration":0.5266207916666872},{"name":"A#3","midi":58,"time":1022.5008180000251,"velocity":0.8818897637795275,"duration":0.5266207916666872},{"name":"G4","midi":67,"time":1022.5008180000251,"velocity":0.8818897637795275,"duration":0.5266207916666872},{"name":"A#4","midi":70,"time":1022.5008180000251,"velocity":0.8818897637795275,"duration":0.5266207916666872},{"name":"G5","midi":79,"time":1022.5008180000251,"velocity":0.8818897637795275,"duration":0.5266207916666872},{"name":"A#5","midi":82,"time":1022.5008180000251,"velocity":0.8818897637795275,"duration":0.5266207916666872},{"name":"G#3","midi":56,"time":1023.0563740000251,"velocity":0.8818897637795275,"duration":0.5266207916666872},{"name":"C4","midi":60,"time":1023.0563740000251,"velocity":0.8818897637795275,"duration":0.5266207916666872},{"name":"G#4","midi":68,"time":1023.0563740000251,"velocity":0.8818897637795275,"duration":0.5266207916666872},{"name":"C5","midi":72,"time":1023.0563740000251,"velocity":0.8818897637795275,"duration":0.5266207916666872},{"name":"G#5","midi":80,"time":1023.0563740000251,"velocity":0.8818897637795275,"duration":0.5266207916666872},{"name":"C6","midi":84,"time":1023.0563740000251,"velocity":0.8818897637795275,"duration":0.5266207916666872},{"name":"C4","midi":60,"time":1023.6119300000252,"velocity":0.8818897637795275,"duration":0.5266207916666872},{"name":"D#4","midi":63,"time":1023.6119300000252,"velocity":0.8818897637795275,"duration":0.5266207916666872},{"name":"C5","midi":72,"time":1023.6119300000252,"velocity":0.8818897637795275,"duration":0.5266207916666872},{"name":"D#5","midi":75,"time":1023.6119300000252,"velocity":0.8818897637795275,"duration":0.5266207916666872},{"name":"C6","midi":84,"time":1023.6119300000252,"velocity":0.8818897637795275,"duration":0.5266207916666872},{"name":"D#6","midi":87,"time":1023.6119300000252,"velocity":0.8818897637795275,"duration":0.5266207916666872},{"name":"A#3","midi":58,"time":1024.167486000025,"velocity":0.8818897637795275,"duration":1.0543989916666305},{"name":"D4","midi":62,"time":1024.167486000025,"velocity":0.8818897637795275,"duration":1.0543989916666305},{"name":"A#4","midi":70,"time":1024.167486000025,"velocity":0.8818897637795275,"duration":1.0543989916666305},{"name":"D5","midi":74,"time":1024.167486000025,"velocity":0.8818897637795275,"duration":1.0543989916666305},{"name":"A#5","midi":82,"time":1024.167486000025,"velocity":0.8818897637795275,"duration":1.0543989916666305},{"name":"D6","midi":86,"time":1024.167486000025,"velocity":0.8818897637795275,"duration":1.0543989916666305},{"name":"G#3","midi":56,"time":1025.278598000025,"velocity":0.8818897637795275,"duration":1.0543989916666305},{"name":"C4","midi":60,"time":1025.278598000025,"velocity":0.8818897637795275,"duration":1.0543989916666305},{"name":"G#4","midi":68,"time":1025.278598000025,"velocity":0.8818897637795275,"duration":1.0543989916666305},{"name":"C5","midi":72,"time":1025.278598000025,"velocity":0.8818897637795275,"duration":1.0543989916666305},{"name":"G#5","midi":80,"time":1025.278598000025,"velocity":0.8818897637795275,"duration":1.0543989916666305},{"name":"C6","midi":84,"time":1025.278598000025,"velocity":0.8818897637795275,"duration":1.0543989916666305},{"name":"A#3","midi":58,"time":1026.3897100000252,"velocity":0.8818897637795275,"duration":1.0543989916666305},{"name":"D4","midi":62,"time":1026.3897100000252,"velocity":0.8818897637795275,"duration":1.0543989916666305},{"name":"A#4","midi":70,"time":1026.3897100000252,"velocity":0.8818897637795275,"duration":1.0543989916666305},{"name":"D5","midi":74,"time":1026.3897100000252,"velocity":0.8818897637795275,"duration":1.0543989916666305},{"name":"A#5","midi":82,"time":1026.3897100000252,"velocity":0.8818897637795275,"duration":1.0543989916666305},{"name":"D6","midi":86,"time":1026.3897100000252,"velocity":0.8818897637795275,"duration":1.0543989916666305},{"name":"C4","midi":60,"time":1027.5008220000252,"velocity":0.8818897637795275,"duration":1.0543989916666305},{"name":"D#4","midi":63,"time":1027.5008220000252,"velocity":0.8818897637795275,"duration":1.0543989916666305},{"name":"C5","midi":72,"time":1027.5008220000252,"velocity":0.8818897637795275,"duration":1.0543989916666305},{"name":"D#5","midi":75,"time":1027.5008220000252,"velocity":0.8818897637795275,"duration":1.0543989916666305},{"name":"C6","midi":84,"time":1027.5008220000252,"velocity":0.8818897637795275,"duration":1.0543989916666305},{"name":"D#6","midi":87,"time":1027.5008220000252,"velocity":0.8818897637795275,"duration":1.0543989916666305},{"name":"D4","midi":62,"time":1028.6119340000253,"velocity":0.8818897637795275,"duration":1.0543989916666305},{"name":"F4","midi":65,"time":1028.6119340000253,"velocity":0.8818897637795275,"duration":1.0543989916666305},{"name":"D5","midi":74,"time":1028.6119340000253,"velocity":0.8818897637795275,"duration":1.0543989916666305},{"name":"F5","midi":77,"time":1028.6119340000253,"velocity":0.8818897637795275,"duration":1.0543989916666305},{"name":"D6","midi":86,"time":1028.6119340000253,"velocity":0.8818897637795275,"duration":1.0543989916666305},{"name":"F6","midi":89,"time":1028.6119340000253,"velocity":0.8818897637795275,"duration":1.0543989916666305},{"name":"G3","midi":55,"time":1029.7230460000253,"velocity":0.8818897637795275,"duration":1.0543989916666305},{"name":"A#3","midi":58,"time":1029.7230460000253,"velocity":0.8818897637795275,"duration":1.0543989916666305},{"name":"G4","midi":67,"time":1029.7230460000253,"velocity":0.8818897637795275,"duration":1.0543989916666305},{"name":"A#4","midi":70,"time":1029.7230460000253,"velocity":0.8818897637795275,"duration":1.0543989916666305},{"name":"G5","midi":79,"time":1029.7230460000253,"velocity":0.8818897637795275,"duration":1.0543989916666305},{"name":"A#5","midi":82,"time":1029.7230460000253,"velocity":0.8818897637795275,"duration":1.0543989916666305},{"name":"C4","midi":60,"time":1030.8341580000254,"velocity":0.8818897637795275,"duration":4.221068191666745},{"name":"G4","midi":67,"time":1030.8341580000254,"velocity":0.8818897637795275,"duration":4.221068191666745},{"name":"C5","midi":72,"time":1030.8341580000254,"velocity":0.8818897637795275,"duration":4.221068191666745},{"name":"G5","midi":79,"time":1030.8341580000254,"velocity":0.8818897637795275,"duration":4.221068191666745},{"name":"C6","midi":84,"time":1030.8341580000254,"velocity":0.8818897637795275,"duration":4.221068191666745},{"name":"G6","midi":91,"time":1030.8341580000254,"velocity":0.8818897637795275,"duration":4.221068191666745},{"name":"C4","midi":60,"time":1035.2786060000253,"velocity":0.8818897637795275,"duration":2.1099553916667446},{"name":"G4","midi":67,"time":1035.2786060000253,"velocity":0.8818897637795275,"duration":2.1099553916667446},{"name":"C5","midi":72,"time":1035.2786060000253,"velocity":0.8818897637795275,"duration":2.1099553916667446},{"name":"G5","midi":79,"time":1035.2786060000253,"velocity":0.8818897637795275,"duration":2.1099553916667446},{"name":"C6","midi":84,"time":1035.2786060000253,"velocity":0.8818897637795275,"duration":2.1099553916667446},{"name":"A#3","midi":58,"time":1037.5008300000254,"velocity":0.8818897637795275,"duration":2.1099553916667446},{"name":"D4","midi":62,"time":1037.5008300000254,"velocity":0.8818897637795275,"duration":2.1099553916667446},{"name":"A#4","midi":70,"time":1037.5008300000254,"velocity":0.8818897637795275,"duration":2.1099553916667446},{"name":"D5","midi":74,"time":1037.5008300000254,"velocity":0.8818897637795275,"duration":2.1099553916667446},{"name":"A#5","midi":82,"time":1037.5008300000254,"velocity":0.8818897637795275,"duration":2.1099553916667446},{"name":"D6","midi":86,"time":1037.5008300000254,"velocity":0.8818897637795275,"duration":2.1099553916667446},{"name":"F3","midi":53,"time":1075.8341940000255,"velocity":0.8818897637795275,"duration":0.5266207916665735},{"name":"F4","midi":65,"time":1075.8341940000255,"velocity":0.8818897637795275,"duration":0.5266207916665735},{"name":"G#3","midi":56,"time":1076.3897500000253,"velocity":0.8818897637795275,"duration":0.5266207916665735},{"name":"G#4","midi":68,"time":1076.3897500000253,"velocity":0.8818897637795275,"duration":0.5266207916665735},{"name":"C4","midi":60,"time":1076.945306000025,"velocity":0.8818897637795275,"duration":0.5266207916665735},{"name":"C5","midi":72,"time":1076.945306000025,"velocity":0.8818897637795275,"duration":0.5266207916665735},{"name":"E4","midi":64,"time":1077.5008620000249,"velocity":0.8818897637795275,"duration":0.26273169166665866},{"name":"E5","midi":76,"time":1077.5008620000249,"velocity":0.8818897637795275,"duration":0.26273169166665866},{"name":"F4","midi":65,"time":1077.7786400000248,"velocity":0.8818897637795275,"duration":0.7905098916667157},{"name":"F5","midi":77,"time":1077.7786400000248,"velocity":0.8818897637795275,"duration":0.7905098916667157},{"name":"C4","midi":60,"time":1078.611974000025,"velocity":0.8818897637795275,"duration":1.0543989916666305},{"name":"C5","midi":72,"time":1078.611974000025,"velocity":0.8818897637795275,"duration":1.0543989916666305},{"name":"B3","midi":59,"time":1079.723086000025,"velocity":0.8818897637795275,"duration":0.2766205916666422},{"name":"B4","midi":71,"time":1079.723086000025,"velocity":0.8818897637795275,"duration":0.2766205916666422},{"name":"C4","midi":60,"time":1080.278642000025,"velocity":0.8818897637795275,"duration":0.20717609166672446},{"name":"C5","midi":72,"time":1080.278642000025,"velocity":0.8818897637795275,"duration":0.20717609166672446},{"name":"C4","midi":60,"time":1080.695309000025,"velocity":0.8818897637795275,"duration":0.13078714166658756},{"name":"C5","midi":72,"time":1080.695309000025,"velocity":0.8818897637795275,"duration":0.13078714166658756},{"name":"D4","midi":62,"time":1080.8341980000248,"velocity":0.8818897637795275,"duration":1.0543989916666305},{"name":"D5","midi":74,"time":1080.8341980000248,"velocity":0.8818897637795275,"duration":1.0543989916666305},{"name":"B3","midi":59,"time":1081.9453100000248,"velocity":0.8818897637795275,"duration":0.2766205916666422},{"name":"B4","midi":71,"time":1081.9453100000248,"velocity":0.8818897637795275,"duration":0.2766205916666422},{"name":"G3","midi":55,"time":1082.5008660000249,"velocity":0.8818897637795275,"duration":0.2766205916666422},{"name":"G4","midi":67,"time":1082.5008660000249,"velocity":0.8818897637795275,"duration":0.2766205916666422},{"name":"B3","midi":59,"time":1083.056422000025,"velocity":0.8818897637795275,"duration":0.5266207916665735},{"name":"B4","midi":71,"time":1083.056422000025,"velocity":0.8818897637795275,"duration":0.5266207916665735},{"name":"D4","midi":62,"time":1083.6119780000247,"velocity":0.8818897637795275,"duration":0.5266207916665735},{"name":"D5","midi":74,"time":1083.6119780000247,"velocity":0.8818897637795275,"duration":0.5266207916665735},{"name":"D#4","midi":63,"time":1084.1675340000245,"velocity":0.8818897637795275,"duration":1.0543989916666305},{"name":"D#5","midi":75,"time":1084.1675340000245,"velocity":0.8818897637795275,"duration":1.0543989916666305},{"name":"D4","midi":62,"time":1085.2786460000245,"velocity":0.8818897637795275,"duration":0.2766205916666422},{"name":"D5","midi":74,"time":1085.2786460000245,"velocity":0.8818897637795275,"duration":0.2766205916666422},{"name":"C4","midi":60,"time":1085.8342020000246,"velocity":0.8818897637795275,"duration":0.2766205916666422},{"name":"C5","midi":72,"time":1085.8342020000246,"velocity":0.8818897637795275,"duration":0.2766205916666422},{"name":"A#4","midi":70,"time":1086.3897580000246,"velocity":0.8818897637795275,"duration":0.26273169166665866},{"name":"A#5","midi":82,"time":1086.3897580000246,"velocity":0.8818897637795275,"duration":0.26273169166665866},{"name":"C5","midi":72,"time":1086.6675360000245,"velocity":0.8818897637795275,"duration":0.7905098916667157},{"name":"C6","midi":84,"time":1086.6675360000245,"velocity":0.8818897637795275,"duration":0.7905098916667157},{"name":"A#4","midi":70,"time":1087.5008700000246,"velocity":0.8818897637795275,"duration":0.2766205916666422},{"name":"A#5","midi":82,"time":1087.5008700000246,"velocity":0.8818897637795275,"duration":0.2766205916666422},{"name":"G#4","midi":68,"time":1088.0564260000247,"velocity":0.8818897637795275,"duration":0.2766205916666422},{"name":"G#5","midi":80,"time":1088.0564260000247,"velocity":0.8818897637795275,"duration":0.2766205916666422},{"name":"G4","midi":67,"time":1088.6119820000247,"velocity":0.8818897637795275,"duration":1.0543989916666305},{"name":"G5","midi":79,"time":1088.6119820000247,"velocity":0.8818897637795275,"duration":1.0543989916666305},{"name":"F4","midi":65,"time":1089.7230940000247,"velocity":0.8818897637795275,"duration":0.2766205916666422},{"name":"F5","midi":77,"time":1089.7230940000247,"velocity":0.8818897637795275,"duration":0.2766205916666422},{"name":"G#4","midi":68,"time":1090.2786500000248,"velocity":0.8818897637795275,"duration":0.2766205916666422},{"name":"G#5","midi":80,"time":1090.2786500000248,"velocity":0.8818897637795275,"duration":0.2766205916666422},{"name":"G4","midi":67,"time":1090.8342060000248,"velocity":0.8818897637795275,"duration":2.1099553916667446},{"name":"G5","midi":79,"time":1090.8342060000248,"velocity":0.8818897637795275,"duration":2.1099553916667446},{"name":"F3","midi":53,"time":1093.611986000025,"velocity":0.8818897637795275,"duration":0.5266207916665735},{"name":"F4","midi":65,"time":1093.611986000025,"velocity":0.8818897637795275,"duration":0.5266207916665735},{"name":"G#3","midi":56,"time":1094.1675420000247,"velocity":0.8818897637795275,"duration":0.5266207916665735},{"name":"G#4","midi":68,"time":1094.1675420000247,"velocity":0.8818897637795275,"duration":0.5266207916665735},{"name":"C4","midi":60,"time":1094.7230980000245,"velocity":0.8818897637795275,"duration":0.5266207916665735},{"name":"C5","midi":72,"time":1094.7230980000245,"velocity":0.8818897637795275,"duration":0.5266207916665735},{"name":"E4","midi":64,"time":1095.2786540000243,"velocity":0.8818897637795275,"duration":0.26273169166665866},{"name":"E5","midi":76,"time":1095.2786540000243,"velocity":0.8818897637795275,"duration":0.26273169166665866},{"name":"F4","midi":65,"time":1095.5564320000242,"velocity":0.8818897637795275,"duration":0.7905098916667157},{"name":"F5","midi":77,"time":1095.5564320000242,"velocity":0.8818897637795275,"duration":0.7905098916667157},{"name":"C4","midi":60,"time":1096.3897660000243,"velocity":0.8818897637795275,"duration":1.0543989916666305},{"name":"C5","midi":72,"time":1096.3897660000243,"velocity":0.8818897637795275,"duration":1.0543989916666305},{"name":"B3","midi":59,"time":1097.5008780000244,"velocity":0.8818897637795275,"duration":0.2766205916666422},{"name":"B4","midi":71,"time":1097.5008780000244,"velocity":0.8818897637795275,"duration":0.2766205916666422},{"name":"C4","midi":60,"time":1098.0564340000244,"velocity":0.8818897637795275,"duration":0.20717609166672446},{"name":"C5","midi":72,"time":1098.0564340000244,"velocity":0.8818897637795275,"duration":0.20717609166672446},{"name":"C4","midi":60,"time":1098.4731010000244,"velocity":0.8818897637795275,"duration":0.13078714166658756},{"name":"C5","midi":72,"time":1098.4731010000244,"velocity":0.8818897637795275,"duration":0.13078714166658756},{"name":"D4","midi":62,"time":1098.6119900000242,"velocity":0.8818897637795275,"duration":1.0543989916666305},{"name":"D5","midi":74,"time":1098.6119900000242,"velocity":0.8818897637795275,"duration":1.0543989916666305},{"name":"B3","midi":59,"time":1099.7231020000243,"velocity":0.8818897637795275,"duration":0.2766205916666422},{"name":"B4","midi":71,"time":1099.7231020000243,"velocity":0.8818897637795275,"duration":0.2766205916666422},{"name":"G3","midi":55,"time":1100.2786580000243,"velocity":0.8818897637795275,"duration":0.2766205916666422},{"name":"G4","midi":67,"time":1100.2786580000243,"velocity":0.8818897637795275,"duration":0.2766205916666422},{"name":"B3","midi":59,"time":1100.8342140000243,"velocity":0.8818897637795275,"duration":0.5266207916665735},{"name":"B4","midi":71,"time":1100.8342140000243,"velocity":0.8818897637795275,"duration":0.5266207916665735},{"name":"D4","midi":62,"time":1101.389770000024,"velocity":0.8818897637795275,"duration":0.5266207916665735},{"name":"D5","midi":74,"time":1101.389770000024,"velocity":0.8818897637795275,"duration":0.5266207916665735},{"name":"D#4","midi":63,"time":1101.945326000024,"velocity":0.8818897637795275,"duration":1.0543989916666305},{"name":"D#5","midi":75,"time":1101.945326000024,"velocity":0.8818897637795275,"duration":1.0543989916666305},{"name":"D4","midi":62,"time":1103.056438000024,"velocity":0.8818897637795275,"duration":0.2766205916666422},{"name":"D5","midi":74,"time":1103.056438000024,"velocity":0.8818897637795275,"duration":0.2766205916666422},{"name":"C4","midi":60,"time":1103.611994000024,"velocity":0.8818897637795275,"duration":0.2766205916666422},{"name":"C5","midi":72,"time":1103.611994000024,"velocity":0.8818897637795275,"duration":0.2766205916666422},{"name":"A#4","midi":70,"time":1104.167550000024,"velocity":0.8818897637795275,"duration":0.26273169166665866},{"name":"A#5","midi":82,"time":1104.167550000024,"velocity":0.8818897637795275,"duration":0.26273169166665866},{"name":"C5","midi":72,"time":1104.445328000024,"velocity":0.8818897637795275,"duration":0.7905098916667157},{"name":"C6","midi":84,"time":1104.445328000024,"velocity":0.8818897637795275,"duration":0.7905098916667157},{"name":"D5","midi":74,"time":1105.278662000024,"velocity":0.8818897637795275,"duration":0.5266207916665735},{"name":"D6","midi":86,"time":1105.278662000024,"velocity":0.8818897637795275,"duration":0.5266207916665735},{"name":"D#5","midi":75,"time":1105.8342180000238,"velocity":0.8818897637795275,"duration":0.5266207916665735},{"name":"D#6","midi":87,"time":1105.8342180000238,"velocity":0.8818897637795275,"duration":0.5266207916665735},{"name":"D5","midi":74,"time":1106.3897740000236,"velocity":0.8818897637795275,"duration":0.5266207916665735},{"name":"D6","midi":86,"time":1106.3897740000236,"velocity":0.8818897637795275,"duration":0.5266207916665735},{"name":"C5","midi":72,"time":1106.9453300000234,"velocity":0.8818897637795275,"duration":0.5266207916665735},{"name":"C6","midi":84,"time":1106.9453300000234,"velocity":0.8818897637795275,"duration":0.5266207916665735},{"name":"A#4","midi":70,"time":1107.5008860000232,"velocity":0.8818897637795275,"duration":0.5266207916665735},{"name":"A#5","midi":82,"time":1107.5008860000232,"velocity":0.8818897637795275,"duration":0.5266207916665735},{"name":"G#4","midi":68,"time":1108.056442000023,"velocity":0.8818897637795275,"duration":0.5266207916665735},{"name":"G#5","midi":80,"time":1108.056442000023,"velocity":0.8818897637795275,"duration":0.5266207916665735},{"name":"F4","midi":65,"time":1108.6119980000228,"velocity":0.8818897637795275,"duration":0.26273169166665866},{"name":"F5","midi":77,"time":1108.6119980000228,"velocity":0.8818897637795275,"duration":0.26273169166665866},{"name":"G4","midi":67,"time":1108.8897760000227,"velocity":0.8818897637795275,"duration":1.8460662916666024},{"name":"G5","midi":79,"time":1108.8897760000227,"velocity":0.8818897637795275,"duration":1.8460662916666024},{"name":"F3","midi":53,"time":1111.3897780000227,"velocity":0.8818897637795275,"duration":0.5266207916665735},{"name":"C4","midi":60,"time":1111.3897780000227,"velocity":0.8818897637795275,"duration":0.5266207916665735},{"name":"F4","midi":65,"time":1111.3897780000227,"velocity":0.8818897637795275,"duration":0.5266207916665735},{"name":"G#3","midi":56,"time":1111.9453340000225,"velocity":0.8818897637795275,"duration":0.5266207916665735},{"name":"F4","midi":65,"time":1111.9453340000225,"velocity":0.8818897637795275,"duration":0.5266207916665735},{"name":"G#4","midi":68,"time":1111.9453340000225,"velocity":0.8818897637795275,"duration":0.5266207916665735},{"name":"C4","midi":60,"time":1112.5008900000223,"velocity":0.8818897637795275,"duration":0.5266207916665735},{"name":"G#4","midi":68,"time":1112.5008900000223,"velocity":0.8818897637795275,"duration":0.5266207916665735},{"name":"C5","midi":72,"time":1112.5008900000223,"velocity":0.8818897637795275,"duration":0.5266207916665735},{"name":"E4","midi":64,"time":1113.056446000022,"velocity":0.8818897637795275,"duration":0.26273169166665866},{"name":"G4","midi":67,"time":1113.056446000022,"velocity":0.8818897637795275,"duration":0.26273169166665866},{"name":"E5","midi":76,"time":1113.056446000022,"velocity":0.8818897637795275,"duration":0.26273169166665866},{"name":"F4","midi":65,"time":1113.334224000022,"velocity":0.8818897637795275,"duration":0.7905098916667157},{"name":"G#4","midi":68,"time":1113.334224000022,"velocity":0.8818897637795275,"duration":0.7905098916667157},{"name":"F5","midi":77,"time":1113.334224000022,"velocity":0.8818897637795275,"duration":0.7905098916667157},{"name":"G#3","midi":56,"time":1114.1675580000222,"velocity":0.8818897637795275,"duration":1.0543989916666305},{"name":"C4","midi":60,"time":1114.1675580000222,"velocity":0.8818897637795275,"duration":1.0543989916666305},{"name":"G#4","midi":68,"time":1114.1675580000222,"velocity":0.8818897637795275,"duration":1.0543989916666305},{"name":"C5","midi":72,"time":1114.1675580000222,"velocity":0.8818897637795275,"duration":1.0543989916666305},{"name":"B3","midi":59,"time":1115.2786700000222,"velocity":0.8818897637795275,"duration":0.2766205916666422},{"name":"B4","midi":71,"time":1115.2786700000222,"velocity":0.8818897637795275,"duration":0.2766205916666422},{"name":"C4","midi":60,"time":1115.8342260000222,"velocity":0.8818897637795275,"duration":0.20717609166672446},{"name":"C5","midi":72,"time":1115.8342260000222,"velocity":0.8818897637795275,"duration":0.20717609166672446},{"name":"C4","midi":60,"time":1116.2508930000222,"velocity":0.8818897637795275,"duration":0.13078714166658756},{"name":"C5","midi":72,"time":1116.2508930000222,"velocity":0.8818897637795275,"duration":0.13078714166658756},{"name":"D4","midi":62,"time":1116.389782000022,"velocity":0.8818897637795275,"duration":1.0543989916666305},{"name":"D5","midi":74,"time":1116.389782000022,"velocity":0.8818897637795275,"duration":1.0543989916666305},{"name":"G3","midi":55,"time":1117.500894000022,"velocity":0.8818897637795275,"duration":0.2766205916666422},{"name":"B3","midi":59,"time":1117.500894000022,"velocity":0.8818897637795275,"duration":0.2766205916666422},{"name":"G4","midi":67,"time":1117.500894000022,"velocity":0.8818897637795275,"duration":0.2766205916666422},{"name":"B4","midi":71,"time":1117.500894000022,"velocity":0.8818897637795275,"duration":0.2766205916666422},{"name":"D3","midi":50,"time":1118.056450000022,"velocity":0.8818897637795275,"duration":0.2766205916666422},{"name":"G3","midi":55,"time":1118.056450000022,"velocity":0.8818897637795275,"duration":0.2766205916666422},{"name":"D4","midi":62,"time":1118.056450000022,"velocity":0.8818897637795275,"duration":0.2766205916666422},{"name":"G4","midi":67,"time":1118.056450000022,"velocity":0.8818897637795275,"duration":0.2766205916666422},{"name":"G3","midi":55,"time":1118.6120060000221,"velocity":0.8818897637795275,"duration":0.5266207916665735},{"name":"B3","midi":59,"time":1118.6120060000221,"velocity":0.8818897637795275,"duration":0.5266207916665735},{"name":"G4","midi":67,"time":1118.6120060000221,"velocity":0.8818897637795275,"duration":0.5266207916665735},{"name":"B4","midi":71,"time":1118.6120060000221,"velocity":0.8818897637795275,"duration":0.5266207916665735},{"name":"B3","midi":59,"time":1119.167562000022,"velocity":0.8818897637795275,"duration":0.5266207916665735},{"name":"D4","midi":62,"time":1119.167562000022,"velocity":0.8818897637795275,"duration":0.5266207916665735},{"name":"B4","midi":71,"time":1119.167562000022,"velocity":0.8818897637795275,"duration":0.5266207916665735},{"name":"D5","midi":74,"time":1119.167562000022,"velocity":0.8818897637795275,"duration":0.5266207916665735},{"name":"C4","midi":60,"time":1119.7231180000217,"velocity":0.8818897637795275,"duration":1.0543989916666305},{"name":"D#4","midi":63,"time":1119.7231180000217,"velocity":0.8818897637795275,"duration":1.0543989916666305},{"name":"C5","midi":72,"time":1119.7231180000217,"velocity":0.8818897637795275,"duration":1.0543989916666305},{"name":"D#5","midi":75,"time":1119.7231180000217,"velocity":0.8818897637795275,"duration":1.0543989916666305},{"name":"A#3","midi":58,"time":1120.8342300000218,"velocity":0.8818897637795275,"duration":0.2766205916666422},{"name":"D4","midi":62,"time":1120.8342300000218,"velocity":0.8818897637795275,"duration":0.2766205916666422},{"name":"A#4","midi":70,"time":1120.8342300000218,"velocity":0.8818897637795275,"duration":0.2766205916666422},{"name":"D5","midi":74,"time":1120.8342300000218,"velocity":0.8818897637795275,"duration":0.2766205916666422},{"name":"G#3","midi":56,"time":1121.3897860000218,"velocity":0.8818897637795275,"duration":0.2766205916666422},{"name":"C4","midi":60,"time":1121.3897860000218,"velocity":0.8818897637795275,"duration":0.2766205916666422},{"name":"G#4","midi":68,"time":1121.3897860000218,"velocity":0.8818897637795275,"duration":0.2766205916666422},{"name":"C5","midi":72,"time":1121.3897860000218,"velocity":0.8818897637795275,"duration":0.2766205916666422},{"name":"G4","midi":67,"time":1121.9453420000218,"velocity":0.8818897637795275,"duration":0.26273169166665866},{"name":"A#4","midi":70,"time":1121.9453420000218,"velocity":0.8818897637795275,"duration":0.26273169166665866},{"name":"G5","midi":79,"time":1121.9453420000218,"velocity":0.8818897637795275,"duration":0.26273169166665866},{"name":"A#5","midi":82,"time":1121.9453420000218,"velocity":0.8818897637795275,"duration":0.26273169166665866},{"name":"G#4","midi":68,"time":1122.2231200000217,"velocity":0.8818897637795275,"duration":0.7905098916667157},{"name":"C5","midi":72,"time":1122.2231200000217,"velocity":0.8818897637795275,"duration":0.7905098916667157},{"name":"G#5","midi":80,"time":1122.2231200000217,"velocity":0.8818897637795275,"duration":0.7905098916667157},{"name":"C6","midi":84,"time":1122.2231200000217,"velocity":0.8818897637795275,"duration":0.7905098916667157},{"name":"D#4","midi":63,"time":1123.0564540000219,"velocity":0.8818897637795275,"duration":0.2766205916666422},{"name":"A#4","midi":70,"time":1123.0564540000219,"velocity":0.8818897637795275,"duration":0.2766205916666422},{"name":"D#5","midi":75,"time":1123.0564540000219,"velocity":0.8818897637795275,"duration":0.2766205916666422},{"name":"A#5","midi":82,"time":1123.0564540000219,"velocity":0.8818897637795275,"duration":0.2766205916666422},{"name":"D4","midi":62,"time":1123.6120100000219,"velocity":0.8818897637795275,"duration":0.2766205916666422},{"name":"G#4","midi":68,"time":1123.6120100000219,"velocity":0.8818897637795275,"duration":0.2766205916666422},{"name":"D5","midi":74,"time":1123.6120100000219,"velocity":0.8818897637795275,"duration":0.2766205916666422},{"name":"G#5","midi":80,"time":1123.6120100000219,"velocity":0.8818897637795275,"duration":0.2766205916666422},{"name":"G4","midi":67,"time":1124.167566000022,"velocity":0.8818897637795275,"duration":1.0543989916666305},{"name":"C5","midi":72,"time":1124.167566000022,"velocity":0.8818897637795275,"duration":1.0543989916666305},{"name":"G5","midi":79,"time":1124.167566000022,"velocity":0.8818897637795275,"duration":1.0543989916666305},{"name":"C6","midi":84,"time":1124.167566000022,"velocity":0.8818897637795275,"duration":1.0543989916666305},{"name":"F4","midi":65,"time":1125.278678000022,"velocity":0.8818897637795275,"duration":0.2766205916666422},{"name":"A#4","midi":70,"time":1125.278678000022,"velocity":0.8818897637795275,"duration":0.2766205916666422},{"name":"F5","midi":77,"time":1125.278678000022,"velocity":0.8818897637795275,"duration":0.2766205916666422},{"name":"A#5","midi":82,"time":1125.278678000022,"velocity":0.8818897637795275,"duration":0.2766205916666422},{"name":"G#4","midi":68,"time":1125.834234000022,"velocity":0.8818897637795275,"duration":0.2766205916666422},{"name":"D5","midi":74,"time":1125.834234000022,"velocity":0.8818897637795275,"duration":0.2766205916666422},{"name":"G#5","midi":80,"time":1125.834234000022,"velocity":0.8818897637795275,"duration":0.2766205916666422},{"name":"D6","midi":86,"time":1125.834234000022,"velocity":0.8818897637795275,"duration":0.2766205916666422},{"name":"G4","midi":67,"time":1126.389790000022,"velocity":0.8818897637795275,"duration":2.1099553916667446},{"name":"C5","midi":72,"time":1126.389790000022,"velocity":0.8818897637795275,"duration":2.1099553916667446},{"name":"G5","midi":79,"time":1126.389790000022,"velocity":0.8818897637795275,"duration":2.1099553916667446},{"name":"C6","midi":84,"time":1126.389790000022,"velocity":0.8818897637795275,"duration":2.1099553916667446},{"name":"F3","midi":53,"time":1129.1675700000221,"velocity":0.8818897637795275,"duration":0.5266207916665735},{"name":"F4","midi":65,"time":1129.1675700000221,"velocity":0.8818897637795275,"duration":0.5266207916665735},{"name":"G#3","midi":56,"time":1129.723126000022,"velocity":0.8818897637795275,"duration":0.5266207916665735},{"name":"G#4","midi":68,"time":1129.723126000022,"velocity":0.8818897637795275,"duration":0.5266207916665735},{"name":"C4","midi":60,"time":1130.2786820000217,"velocity":0.8818897637795275,"duration":0.5266207916665735},{"name":"C5","midi":72,"time":1130.2786820000217,"velocity":0.8818897637795275,"duration":0.5266207916665735},{"name":"E4","midi":64,"time":1130.8342380000215,"velocity":0.8818897637795275,"duration":0.26273169166665866},{"name":"E5","midi":76,"time":1130.8342380000215,"velocity":0.8818897637795275,"duration":0.26273169166665866},{"name":"F4","midi":65,"time":1131.1120160000214,"velocity":0.8818897637795275,"duration":0.7905098916667157},{"name":"F5","midi":77,"time":1131.1120160000214,"velocity":0.8818897637795275,"duration":0.7905098916667157},{"name":"G#4","midi":68,"time":1131.9453500000216,"velocity":0.8818897637795275,"duration":1.0543989916666305},{"name":"G#5","midi":80,"time":1131.9453500000216,"velocity":0.8818897637795275,"duration":1.0543989916666305},{"name":"G4","midi":67,"time":1133.0564620000216,"velocity":0.8818897637795275,"duration":0.2766205916666422},{"name":"G5","midi":79,"time":1133.0564620000216,"velocity":0.8818897637795275,"duration":0.2766205916666422},{"name":"F4","midi":65,"time":1133.6120180000216,"velocity":0.8818897637795275,"duration":0.2766205916666422},{"name":"F5","midi":77,"time":1133.6120180000216,"velocity":0.8818897637795275,"duration":0.2766205916666422},{"name":"D4","midi":62,"time":1134.1675740000217,"velocity":0.8818897637795275,"duration":1.0543989916666305},{"name":"D5","midi":74,"time":1134.1675740000217,"velocity":0.8818897637795275,"duration":1.0543989916666305},{"name":"B3","midi":59,"time":1135.2786860000217,"velocity":0.8818897637795275,"duration":0.26273169166665866},{"name":"B4","midi":71,"time":1135.2786860000217,"velocity":0.8818897637795275,"duration":0.26273169166665866},{"name":"D#4","midi":63,"time":1136.3897980000218,"velocity":0.8818897637795275,"duration":0.5266207916665735},{"name":"D#5","midi":75,"time":1136.3897980000218,"velocity":0.8818897637795275,"duration":0.5266207916665735},{"name":"D4","midi":62,"time":1136.9453540000216,"velocity":0.8818897637795275,"duration":0.5266207916665735},{"name":"D5","midi":74,"time":1136.9453540000216,"velocity":0.8818897637795275,"duration":0.5266207916665735},{"name":"C4","midi":60,"time":1137.5009100000213,"velocity":0.8818897637795275,"duration":0.5266207916665735},{"name":"C5","midi":72,"time":1137.5009100000213,"velocity":0.8818897637795275,"duration":0.5266207916665735},{"name":"B3","midi":59,"time":1138.0564660000211,"velocity":0.8818897637795275,"duration":0.5266207916665735},{"name":"B4","midi":71,"time":1138.0564660000211,"velocity":0.8818897637795275,"duration":0.5266207916665735},{"name":"C4","midi":60,"time":1138.612022000021,"velocity":0.8818897637795275,"duration":0.5266207916665735},{"name":"C5","midi":72,"time":1138.612022000021,"velocity":0.8818897637795275,"duration":0.5266207916665735},{"name":"D4","midi":62,"time":1139.1675780000207,"velocity":0.8818897637795275,"duration":0.5266207916665735},{"name":"D5","midi":74,"time":1139.1675780000207,"velocity":0.8818897637795275,"duration":0.5266207916665735},{"name":"D#4","midi":63,"time":1139.7231340000205,"velocity":0.8818897637795275,"duration":0.5266207916665735},{"name":"D#5","midi":75,"time":1139.7231340000205,"velocity":0.8818897637795275,"duration":0.5266207916665735},{"name":"C4","midi":60,"time":1140.8342460000204,"velocity":0.8818897637795275,"duration":0.5266207916665735},{"name":"C5","midi":72,"time":1140.8342460000204,"velocity":0.8818897637795275,"duration":0.5266207916665735},{"name":"B3","midi":59,"time":1141.9453580000202,"velocity":0.8818897637795275,"duration":0.5266207916665735},{"name":"B4","midi":71,"time":1141.9453580000202,"velocity":0.8818897637795275,"duration":0.5266207916665735},{"name":"C4","midi":60,"time":1142.50091400002,"velocity":0.8818897637795275,"duration":0.5266207916665735},{"name":"C5","midi":72,"time":1142.50091400002,"velocity":0.8818897637795275,"duration":0.5266207916665735},{"name":"D4","midi":62,"time":1143.0564700000198,"velocity":0.8818897637795275,"duration":0.5266207916665735},{"name":"D5","midi":74,"time":1143.0564700000198,"velocity":0.8818897637795275,"duration":0.5266207916665735},{"name":"C4","midi":60,"time":1144.1675820000196,"velocity":0.8818897637795275,"duration":0.5266207916665735},{"name":"C5","midi":72,"time":1144.1675820000196,"velocity":0.8818897637795275,"duration":0.5266207916665735},{"name":"C5","midi":72,"time":1145.2786940000194,"velocity":0.8818897637795275,"duration":0.5266207916665735},{"name":"C6","midi":84,"time":1145.2786940000194,"velocity":0.8818897637795275,"duration":0.5266207916665735},{"name":"F#5","midi":78,"time":1146.3898060000192,"velocity":0.7559055118110236,"duration":0.7905098916667157},{"name":"G#5","midi":80,"time":1147.2231400000194,"velocity":0.7559055118110236,"duration":0.26273169166665866},{"name":"A5","midi":81,"time":1147.5009180000193,"velocity":0.7559055118110236,"duration":0.2766205916666422},{"name":"G#5","midi":80,"time":1148.0564740000193,"velocity":0.7559055118110236,"duration":0.2766205916666422},{"name":"E5","midi":76,"time":1148.6120300000193,"velocity":0.7559055118110236,"duration":0.7905098916667157},{"name":"G#5","midi":80,"time":1149.4453640000195,"velocity":0.7559055118110236,"duration":0.26273169166665866},{"name":"F#5","midi":78,"time":1149.7231420000194,"velocity":0.7559055118110236,"duration":0.13078714166658756},{"name":"D5","midi":74,"time":1149.8620310000192,"velocity":0.7559055118110236,"duration":0.13078714166658756},{"name":"C#5","midi":73,"time":1150.000920000019,"velocity":0.7559055118110236,"duration":0.5266207916665735},{"name":"B4","midi":71,"time":1150.5564760000188,"velocity":0.7559055118110236,"duration":0.26273169166665866},{"name":"C#5","midi":73,"time":1150.8342540000187,"velocity":0.7559055118110236,"duration":0.7905098916667157},{"name":"B4","midi":71,"time":1151.667588000019,"velocity":0.7559055118110236,"duration":0.26273169166665866},{"name":"C#5","midi":73,"time":1151.9453660000188,"velocity":0.7559055118110236,"duration":0.26273169166665866},{"name":"F#5","midi":78,"time":1152.2231440000187,"velocity":0.7559055118110236,"duration":0.26273169166665866},{"name":"A5","midi":81,"time":1152.5009220000186,"velocity":0.7559055118110236,"duration":0.13078714166658756},{"name":"G#5","midi":80,"time":1152.6398110000184,"velocity":0.7559055118110236,"duration":0.13078714166658756},{"name":"F#5","midi":78,"time":1152.7787000000183,"velocity":0.7559055118110236,"duration":0.26273169166665866},{"name":"A5","midi":81,"time":1153.0564780000182,"velocity":0.7559055118110236,"duration":0.26273169166665866},{"name":"F#5","midi":78,"time":1153.334256000018,"velocity":0.7559055118110236,"duration":0.26273169166665866},{"name":"D5","midi":74,"time":1153.612034000018,"velocity":0.7559055118110236,"duration":0.13078714166658756},{"name":"C#5","midi":73,"time":1153.7509230000178,"velocity":0.7559055118110236,"duration":0.13078714166658756},{"name":"B4","midi":71,"time":1153.8898120000176,"velocity":0.7559055118110236,"duration":0.26273169166665866},{"name":"A5","midi":81,"time":1154.1675900000175,"velocity":0.7559055118110236,"duration":0.26273169166665866},{"name":"G#5","midi":80,"time":1154.4453680000174,"velocity":0.7559055118110236,"duration":0.26273169166665866},{"name":"G#5","midi":80,"time":1154.7231460000173,"velocity":0.7559055118110236,"duration":0.26273169166665866},{"name":"F#5","midi":78,"time":1155.0009240000172,"velocity":0.7559055118110236,"duration":0.13078714166658756},{"name":"A5","midi":81,"time":1155.139813000017,"velocity":0.7559055118110236,"duration":0.13078714166658756},{"name":"B5","midi":83,"time":1155.278702000017,"velocity":0.7559055118110236,"duration":0.7905098916667157},{"name":"C#6","midi":85,"time":1156.112036000017,"velocity":0.7559055118110236,"duration":0.26273169166665866},{"name":"D6","midi":86,"time":1156.389814000017,"velocity":0.7559055118110236,"duration":0.13078714166658756},{"name":"F#6","midi":90,"time":1156.5287030000168,"velocity":0.7559055118110236,"duration":0.13078714166658756},{"name":"D6","midi":86,"time":1156.6675920000166,"velocity":0.7559055118110236,"duration":0.13078714166658756},{"name":"C#6","midi":85,"time":1156.8064810000164,"velocity":0.7559055118110236,"duration":0.13078714166658756},{"name":"B5","midi":83,"time":1156.9453700000163,"velocity":0.7559055118110236,"duration":0.13078714166658756},{"name":"C#6","midi":85,"time":1157.0842590000161,"velocity":0.7559055118110236,"duration":0.13078714166658756},{"name":"B5","midi":83,"time":1157.223148000016,"velocity":0.7559055118110236,"duration":0.13078714166658756},{"name":"A5","midi":81,"time":1157.3620370000158,"velocity":0.7559055118110236,"duration":0.13078714166658756},{"name":"G#5","midi":80,"time":1157.5009260000156,"velocity":0.7559055118110236,"duration":0.26273169166665866},{"name":"B5","midi":83,"time":1157.7787040000155,"velocity":0.7559055118110236,"duration":0.26273169166665866},{"name":"A5","midi":81,"time":1158.0564820000154,"velocity":0.7559055118110236,"duration":0.13078714166658756},{"name":"G#5","midi":80,"time":1158.1953710000153,"velocity":0.7559055118110236,"duration":0.13078714166658756},{"name":"F5","midi":77,"time":1158.334260000015,"velocity":0.7559055118110236,"duration":0.26273169166665866},{"name":"F#5","midi":78,"time":1158.612038000015,"velocity":0.7559055118110236,"duration":0.26273169166665866},{"name":"B5","midi":83,"time":1158.889816000015,"velocity":0.7559055118110236,"duration":0.26273169166665866},{"name":"C#6","midi":85,"time":1159.1675940000148,"velocity":0.7559055118110236,"duration":0.13078714166658756},{"name":"A5","midi":81,"time":1159.3064830000146,"velocity":0.7559055118110236,"duration":0.13078714166658756},{"name":"G#5","midi":80,"time":1159.4453720000145,"velocity":0.7559055118110236,"duration":0.13078714166658756},{"name":"F#5","midi":78,"time":1159.5842610000143,"velocity":0.7559055118110236,"duration":0.13078714166658756},{"name":"F5","midi":77,"time":1159.7231500000141,"velocity":0.7559055118110236,"duration":0.7905098916667157},{"name":"C#5","midi":73,"time":1160.5564840000143,"velocity":0.7559055118110236,"duration":0.26273169166665866},{"name":"G#5","midi":80,"time":1160.8342620000142,"velocity":0.7559055118110236,"duration":0.26273169166665866},{"name":"F#5","midi":78,"time":1161.112040000014,"velocity":0.7559055118110236,"duration":0.26273169166665866},{"name":"F5","midi":77,"time":1161.389818000014,"velocity":0.7559055118110236,"duration":0.26273169166665866},{"name":"F#5","midi":78,"time":1161.6675960000139,"velocity":0.7559055118110236,"duration":0.26273169166665866},{"name":"G#5","midi":80,"time":1161.9453740000138,"velocity":0.7559055118110236,"duration":0.39467624166672977},{"name":"A5","midi":81,"time":1162.3620410000137,"velocity":0.7559055118110236,"duration":0.06828709166666158},{"name":"D6","midi":86,"time":1162.7787080000137,"velocity":0.7559055118110236,"duration":0.26273169166665866},{"name":"C#6","midi":85,"time":1163.0564860000136,"velocity":0.7559055118110236,"duration":0.2766205916666422},{"name":"B5","midi":83,"time":1163.6120420000136,"velocity":0.7559055118110236,"duration":0.2766205916666422},{"name":"A5","midi":81,"time":1164.1675980000136,"velocity":0.7559055118110236,"duration":0.7905098916667157},{"name":"C#6","midi":85,"time":1165.0009320000138,"velocity":0.7559055118110236,"duration":0.26273169166665866},{"name":"D6","midi":86,"time":1165.2787100000137,"velocity":0.7559055118110236,"duration":0.2766205916666422},{"name":"C#6","midi":85,"time":1165.8342660000137,"velocity":0.7559055118110236,"duration":0.2766205916666422},{"name":"B5","midi":83,"time":1166.3898220000137,"velocity":0.7559055118110236,"duration":0.7905098916667157},{"name":"G#5","midi":80,"time":1167.223156000014,"velocity":0.7559055118110236,"duration":0.26273169166665866},{"name":"A5","midi":81,"time":1167.5009340000138,"velocity":0.7559055118110236,"duration":0.26273169166665866},{"name":"G#5","midi":80,"time":1167.7787120000137,"velocity":0.7559055118110236,"duration":0.26273169166665866},{"name":"F#5","midi":78,"time":1168.0564900000136,"velocity":0.7559055118110236,"duration":0.26273169166665866},{"name":"E5","midi":76,"time":1168.3342680000135,"velocity":0.7559055118110236,"duration":0.26273169166665866},{"name":"D5","midi":74,"time":1168.6120460000134,"velocity":0.7559055118110236,"duration":0.7905098916667157},{"name":"G#5","midi":80,"time":1169.4453800000135,"velocity":0.7559055118110236,"duration":0.26273169166665866},{"name":"C#5","midi":73,"time":1169.7231580000134,"velocity":0.7559055118110236,"duration":0.7905098916667157},{"name":"B4","midi":71,"time":1170.5564920000136,"velocity":0.7559055118110236,"duration":0.26273169166665866},{"name":"C#5","midi":73,"time":1170.8342700000135,"velocity":0.7559055118110236,"duration":0.5266207916665735},{"name":"C#7","midi":97,"time":1171.3898260000133,"velocity":0.7559055118110236,"duration":0.13078714166658756},{"name":"B6","midi":95,"time":1171.528715000013,"velocity":0.7559055118110236,"duration":0.13078714166658756},{"name":"A6","midi":93,"time":1171.667604000013,"velocity":0.7559055118110236,"duration":0.13078714166658756},{"name":"G#6","midi":92,"time":1171.8064930000128,"velocity":0.7559055118110236,"duration":0.13078714166658756},{"name":"F#6","midi":90,"time":1171.9453820000126,"velocity":0.7559055118110236,"duration":0.13078714166658756},{"name":"D6","midi":86,"time":1172.0842710000124,"velocity":0.7559055118110236,"duration":0.13078714166658756},{"name":"C#6","midi":85,"time":1172.2231600000123,"velocity":0.7559055118110236,"duration":0.13078714166658756},{"name":"B5","midi":83,"time":1172.3620490000121,"velocity":0.7559055118110236,"duration":0.13078714166658756},{"name":"G#5","midi":80,"time":1172.500938000012,"velocity":0.7559055118110236,"duration":0.26273169166665866},{"name":"B5","midi":83,"time":1172.7787160000119,"velocity":0.7559055118110236,"duration":0.26273169166665866},{"name":"A5","midi":81,"time":1173.0564940000118,"velocity":0.7559055118110236,"duration":0.7905098916667157},{"name":"B5","midi":83,"time":1173.889828000012,"velocity":0.7559055118110236,"duration":0.26273169166665866},{"name":"A5","midi":81,"time":1174.1676060000118,"velocity":0.7559055118110236,"duration":0.7905098916667157},{"name":"F#5","midi":78,"time":1175.000940000012,"velocity":0.7559055118110236,"duration":0.26273169166665866},{"name":"A5","midi":81,"time":1175.2787180000118,"velocity":0.7559055118110236,"duration":0.26273169166665866},{"name":"B5","midi":83,"time":1175.5564960000117,"velocity":0.7559055118110236,"duration":0.13078714166658756},{"name":"A5","midi":81,"time":1175.6953850000116,"velocity":0.7559055118110236,"duration":0.13078714166658756},{"name":"F#5","midi":78,"time":1176.1120520000115,"velocity":0.7559055118110236,"duration":0.26273169166665866},{"name":"A5","midi":81,"time":1176.3898300000114,"velocity":0.7559055118110236,"duration":0.26273169166665866},{"name":"B5","midi":83,"time":1176.6676080000113,"velocity":0.7559055118110236,"duration":0.13078714166658756},{"name":"F#6","midi":90,"time":1176.8064970000112,"velocity":0.7559055118110236,"duration":0.13773159166657933},{"name":"D6","midi":86,"time":1177.084275000011,"velocity":0.7559055118110236,"duration":0.13078714166658756},{"name":"C#6","midi":85,"time":1177.223164000011,"velocity":0.7559055118110236,"duration":0.13078714166658756},{"name":"B5","midi":83,"time":1177.3620530000107,"velocity":0.7559055118110236,"duration":0.13078714166658756},{"name":"G#5","midi":80,"time":1177.5009420000106,"velocity":0.7559055118110236,"duration":0.39467624166672977},{"name":"F5","midi":77,"time":1177.9176090000105,"velocity":0.7559055118110236,"duration":0.39467624166672977},{"name":"D5","midi":74,"time":1178.3342760000105,"velocity":0.7559055118110236,"duration":0.26273169166665866},{"name":"C#5","midi":73,"time":1178.6120540000104,"velocity":0.7559055118110236,"duration":0.26273169166665866},{"name":"E5","midi":76,"time":1178.8898320000103,"velocity":0.7559055118110236,"duration":0.26273169166665866},{"name":"F5","midi":77,"time":1179.1676100000102,"velocity":0.7559055118110236,"duration":0.26273169166665866},{"name":"G#5","midi":80,"time":1179.44538800001,"velocity":0.7559055118110236,"duration":0.26273169166665866},{"name":"F#5","midi":78,"time":1179.72316600001,"velocity":0.7559055118110236,"duration":1.0543989916666305},{"name":"F#6","midi":90,"time":1180.83427800001,"velocity":0.7559055118110236,"duration":1.0543989916666305},{"name":"A4","midi":69,"time":1181.94539000001,"velocity":0.8818897637795275,"duration":0.7905098916667157},{"name":"F#5","midi":78,"time":1181.94539000001,"velocity":0.8818897637795275,"duration":0.7905098916667157},{"name":"A5","midi":81,"time":1181.94539000001,"velocity":0.8818897637795275,"duration":0.7905098916667157},{"name":"F#4","midi":66,"time":1182.7787240000102,"velocity":0.8818897637795275,"duration":0.5266207916665735},{"name":"C#5","midi":73,"time":1182.7787240000102,"velocity":0.8818897637795275,"duration":0.5266207916665735},{"name":"F#5","midi":78,"time":1182.7787240000102,"velocity":0.8818897637795275,"duration":0.5266207916665735},{"name":"G#4","midi":68,"time":1183.33428000001,"velocity":0.8818897637795275,"duration":0.26273169166665866},{"name":"E5","midi":76,"time":1183.33428000001,"velocity":0.8818897637795275,"duration":0.26273169166665866},{"name":"G#5","midi":80,"time":1183.33428000001,"velocity":0.8818897637795275,"duration":0.26273169166665866},{"name":"A4","midi":69,"time":1183.61205800001,"velocity":0.8818897637795275,"duration":0.13078714166658756},{"name":"E5","midi":76,"time":1183.61205800001,"velocity":0.8818897637795275,"duration":0.13078714166658756},{"name":"A5","midi":81,"time":1183.61205800001,"velocity":0.8818897637795275,"duration":0.13078714166658756},{"name":"B4","midi":71,"time":1183.7509470000098,"velocity":0.8818897637795275,"duration":0.13078714166658756},{"name":"F#5","midi":78,"time":1183.7509470000098,"velocity":0.8818897637795275,"duration":0.13078714166658756},{"name":"B5","midi":83,"time":1183.7509470000098,"velocity":0.8818897637795275,"duration":0.13078714166658756},{"name":"A4","midi":69,"time":1183.8898360000096,"velocity":0.8818897637795275,"duration":0.13078714166658756},{"name":"E5","midi":76,"time":1183.8898360000096,"velocity":0.8818897637795275,"duration":0.13078714166658756},{"name":"A5","midi":81,"time":1183.8898360000096,"velocity":0.8818897637795275,"duration":0.13078714166658756},{"name":"G#4","midi":68,"time":1184.0287250000094,"velocity":0.8818897637795275,"duration":0.13078714166658756},{"name":"E5","midi":76,"time":1184.0287250000094,"velocity":0.8818897637795275,"duration":0.13078714166658756},{"name":"G#5","midi":80,"time":1184.0287250000094,"velocity":0.8818897637795275,"duration":0.13078714166658756},{"name":"A4","midi":69,"time":1184.1676140000093,"velocity":0.8818897637795275,"duration":0.5266207916665735},{"name":"E5","midi":76,"time":1184.1676140000093,"velocity":0.8818897637795275,"duration":0.5266207916665735},{"name":"A5","midi":81,"time":1184.1676140000093,"velocity":0.8818897637795275,"duration":0.5266207916665735},{"name":"E4","midi":64,"time":1184.723170000009,"velocity":0.8818897637795275,"duration":0.5266207916665735},{"name":"A4","midi":69,"time":1184.723170000009,"velocity":0.8818897637795275,"duration":0.5266207916665735},{"name":"C#5","midi":73,"time":1184.723170000009,"velocity":0.8818897637795275,"duration":0.5266207916665735},{"name":"E5","midi":76,"time":1184.723170000009,"velocity":0.8818897637795275,"duration":0.5266207916665735},{"name":"C#5","midi":73,"time":1185.2787260000089,"velocity":0.8818897637795275,"duration":0.26273169166665866},{"name":"E5","midi":76,"time":1185.2787260000089,"velocity":0.8818897637795275,"duration":0.26273169166665866},{"name":"C#6","midi":85,"time":1185.2787260000089,"velocity":0.8818897637795275,"duration":0.26273169166665866},{"name":"B4","midi":71,"time":1185.5565040000088,"velocity":0.8818897637795275,"duration":0.26273169166665866},{"name":"E5","midi":76,"time":1185.5565040000088,"velocity":0.8818897637795275,"duration":0.26273169166665866},{"name":"B5","midi":83,"time":1185.5565040000088,"velocity":0.8818897637795275,"duration":0.26273169166665866},{"name":"A4","midi":69,"time":1185.8342820000087,"velocity":0.8818897637795275,"duration":0.26273169166665866},{"name":"E5","midi":76,"time":1185.8342820000087,"velocity":0.8818897637795275,"duration":0.26273169166665866},{"name":"A5","midi":81,"time":1185.8342820000087,"velocity":0.8818897637795275,"duration":0.26273169166665866},{"name":"B4","midi":71,"time":1186.1120600000086,"velocity":0.8818897637795275,"duration":0.26273169166665866},{"name":"E5","midi":76,"time":1186.1120600000086,"velocity":0.8818897637795275,"duration":0.26273169166665866},{"name":"B5","midi":83,"time":1186.1120600000086,"velocity":0.8818897637795275,"duration":0.26273169166665866},{"name":"G#4","midi":68,"time":1186.3898380000085,"velocity":0.8818897637795275,"duration":0.39467624166672977},{"name":"F5","midi":77,"time":1186.3898380000085,"velocity":0.8818897637795275,"duration":0.39467624166672977},{"name":"G#5","midi":80,"time":1186.3898380000085,"velocity":0.8818897637795275,"duration":0.39467624166672977},{"name":"C#4","midi":61,"time":1186.8065050000084,"velocity":0.8818897637795275,"duration":0.39467624166672977},{"name":"F4","midi":65,"time":1186.8065050000084,"velocity":0.8818897637795275,"duration":0.39467624166672977},{"name":"F5","midi":77,"time":1186.8065050000084,"velocity":0.8818897637795275,"duration":0.39467624166672977},{"name":"D5","midi":74,"time":1187.2231720000084,"velocity":0.8818897637795275,"duration":0.26273169166665866},{"name":"B5","midi":83,"time":1187.2231720000084,"velocity":0.8818897637795275,"duration":0.26273169166665866},{"name":"D6","midi":86,"time":1187.2231720000084,"velocity":0.8818897637795275,"duration":0.26273169166665866},{"name":"G#4","midi":68,"time":1187.5009500000083,"velocity":0.8818897637795275,"duration":0.5266207916665735},{"name":"C#5","midi":73,"time":1187.5009500000083,"velocity":0.8818897637795275,"duration":0.5266207916665735},{"name":"G#5","midi":80,"time":1187.5009500000083,"velocity":0.8818897637795275,"duration":0.5266207916665735},{"name":"C#6","midi":85,"time":1187.5009500000083,"velocity":0.8818897637795275,"duration":0.5266207916665735},{"name":"G#4","midi":68,"time":1188.056506000008,"velocity":0.8818897637795275,"duration":0.5266207916665735},{"name":"B4","midi":71,"time":1188.056506000008,"velocity":0.8818897637795275,"duration":0.5266207916665735},{"name":"G#5","midi":80,"time":1188.056506000008,"velocity":0.8818897637795275,"duration":0.5266207916665735},{"name":"B5","midi":83,"time":1188.056506000008,"velocity":0.8818897637795275,"duration":0.5266207916665735},{"name":"A4","midi":69,"time":1188.6120620000079,"velocity":0.8818897637795275,"duration":1.0543989916666305},{"name":"F#5","midi":78,"time":1188.6120620000079,"velocity":0.8818897637795275,"duration":1.0543989916666305},{"name":"A5","midi":81,"time":1188.6120620000079,"velocity":0.8818897637795275,"duration":1.0543989916666305},{"name":"B4","midi":71,"time":1189.723174000008,"velocity":0.8818897637795275,"duration":0.5266207916665735},{"name":"E5","midi":76,"time":1189.723174000008,"velocity":0.8818897637795275,"duration":0.5266207916665735},{"name":"B5","midi":83,"time":1189.723174000008,"velocity":0.8818897637795275,"duration":0.5266207916665735},{"name":"C#5","midi":73,"time":1190.2787300000077,"velocity":0.8818897637795275,"duration":0.5266207916665735},{"name":"E5","midi":76,"time":1190.2787300000077,"velocity":0.8818897637795275,"duration":0.5266207916665735},{"name":"C#6","midi":85,"time":1190.2787300000077,"velocity":0.8818897637795275,"duration":0.5266207916665735},{"name":"F#4","midi":66,"time":1190.8342860000075,"velocity":0.8818897637795275,"duration":1.0543989916666305},{"name":"D5","midi":74,"time":1190.8342860000075,"velocity":0.8818897637795275,"duration":1.0543989916666305},{"name":"F#5","midi":78,"time":1190.8342860000075,"velocity":0.8818897637795275,"duration":1.0543989916666305},{"name":"G#4","midi":68,"time":1191.9453980000076,"velocity":0.8818897637795275,"duration":0.26273169166665866},{"name":"G#5","midi":80,"time":1191.9453980000076,"velocity":0.8818897637795275,"duration":0.26273169166665866},{"name":"G#3","midi":56,"time":1192.2231760000075,"velocity":0.8818897637795275,"duration":0.26273169166665866},{"name":"G#4","midi":68,"time":1192.2231760000075,"velocity":0.8818897637795275,"duration":0.26273169166665866},{"name":"A4","midi":69,"time":1192.5009540000074,"velocity":0.8818897637795275,"duration":0.26273169166665866},{"name":"A5","midi":81,"time":1192.5009540000074,"velocity":0.8818897637795275,"duration":0.26273169166665866},{"name":"A3","midi":57,"time":1192.7787320000073,"velocity":0.8818897637795275,"duration":0.26273169166665866},{"name":"A4","midi":69,"time":1192.7787320000073,"velocity":0.8818897637795275,"duration":0.26273169166665866},{"name":"A4","midi":69,"time":1193.0565100000072,"velocity":0.8818897637795275,"duration":0.7905098916667157},{"name":"E5","midi":76,"time":1193.0565100000072,"velocity":0.8818897637795275,"duration":0.7905098916667157},{"name":"A5","midi":81,"time":1193.0565100000072,"velocity":0.8818897637795275,"duration":0.7905098916667157},{"name":"E4","midi":64,"time":1193.8898440000073,"velocity":0.8818897637795275,"duration":0.26273169166665866},{"name":"A4","midi":69,"time":1193.8898440000073,"velocity":0.8818897637795275,"duration":0.26273169166665866},{"name":"C#5","midi":73,"time":1193.8898440000073,"velocity":0.8818897637795275,"duration":0.26273169166665866},{"name":"E5","midi":76,"time":1193.8898440000073,"velocity":0.8818897637795275,"duration":0.26273169166665866},{"name":"C#5","midi":73,"time":1194.1676220000072,"velocity":0.8818897637795275,"duration":0.26273169166665866},{"name":"E5","midi":76,"time":1194.1676220000072,"velocity":0.8818897637795275,"duration":0.26273169166665866},{"name":"C#6","midi":85,"time":1194.1676220000072,"velocity":0.8818897637795275,"duration":0.26273169166665866},{"name":"B4","midi":71,"time":1194.445400000007,"velocity":0.8818897637795275,"duration":0.26273169166665866},{"name":"E5","midi":76,"time":1194.445400000007,"velocity":0.8818897637795275,"duration":0.26273169166665866},{"name":"B5","midi":83,"time":1194.445400000007,"velocity":0.8818897637795275,"duration":0.26273169166665866},{"name":"A4","midi":69,"time":1194.723178000007,"velocity":0.8818897637795275,"duration":0.26273169166665866},{"name":"E5","midi":76,"time":1194.723178000007,"velocity":0.8818897637795275,"duration":0.26273169166665866},{"name":"A5","midi":81,"time":1194.723178000007,"velocity":0.8818897637795275,"duration":0.26273169166665866},{"name":"B4","midi":71,"time":1195.000956000007,"velocity":0.8818897637795275,"duration":0.26273169166665866},{"name":"E5","midi":76,"time":1195.000956000007,"velocity":0.8818897637795275,"duration":0.26273169166665866},{"name":"B5","midi":83,"time":1195.000956000007,"velocity":0.8818897637795275,"duration":0.26273169166665866},{"name":"G#4","midi":68,"time":1195.2787340000068,"velocity":0.8818897637795275,"duration":0.5266207916665735},{"name":"G#5","midi":80,"time":1195.2787340000068,"velocity":0.8818897637795275,"duration":0.5266207916665735},{"name":"F4","midi":65,"time":1195.8342900000066,"velocity":0.8818897637795275,"duration":0.5266207916665735},{"name":"F5","midi":77,"time":1195.8342900000066,"velocity":0.8818897637795275,"duration":0.5266207916665735},{"name":"F#4","midi":66,"time":1196.3898460000064,"velocity":0.8818897637795275,"duration":0.26273169166665866},{"name":"F#5","midi":78,"time":1196.3898460000064,"velocity":0.8818897637795275,"duration":0.26273169166665866},{"name":"G#4","midi":68,"time":1196.6676240000063,"velocity":0.8818897637795275,"duration":0.26273169166665866},{"name":"G#5","midi":80,"time":1196.6676240000063,"velocity":0.8818897637795275,"duration":0.26273169166665866},{"name":"A4","midi":69,"time":1196.9454020000062,"velocity":0.8818897637795275,"duration":0.26273169166665866},{"name":"A5","midi":81,"time":1196.9454020000062,"velocity":0.8818897637795275,"duration":0.26273169166665866},{"name":"B4","midi":71,"time":1197.223180000006,"velocity":0.8818897637795275,"duration":0.26273169166665866},{"name":"B5","midi":83,"time":1197.223180000006,"velocity":0.8818897637795275,"duration":0.26273169166665866},{"name":"C#5","midi":73,"time":1197.500958000006,"velocity":0.8818897637795275,"duration":0.13773159166657933},{"name":"C#6","midi":85,"time":1197.500958000006,"velocity":0.8818897637795275,"duration":0.13773159166657933},{"name":"C#5","midi":73,"time":1197.778736000006,"velocity":0.8818897637795275,"duration":0.13773159166657933},{"name":"C#6","midi":85,"time":1197.778736000006,"velocity":0.8818897637795275,"duration":0.13773159166657933},{"name":"C#5","midi":73,"time":1198.0565140000058,"velocity":0.8818897637795275,"duration":0.13078714166658756},{"name":"C#6","midi":85,"time":1198.0565140000058,"velocity":0.8818897637795275,"duration":0.13078714166658756},{"name":"C#5","midi":73,"time":1198.1954030000056,"velocity":0.8818897637795275,"duration":0.13078714166658756},{"name":"C#6","midi":85,"time":1198.1954030000056,"velocity":0.8818897637795275,"duration":0.13078714166658756},{"name":"C#5","midi":73,"time":1198.3342920000055,"velocity":0.8818897637795275,"duration":0.13078714166658756},{"name":"C#6","midi":85,"time":1198.3342920000055,"velocity":0.8818897637795275,"duration":0.13078714166658756},{"name":"C#5","midi":73,"time":1198.4731810000053,"velocity":0.8818897637795275,"duration":0.13078714166658756},{"name":"C#6","midi":85,"time":1198.4731810000053,"velocity":0.8818897637795275,"duration":0.13078714166658756},{"name":"C#5","midi":73,"time":1198.7509590000052,"velocity":0.8818897637795275,"duration":0.13078714166658756},{"name":"C#6","midi":85,"time":1198.7509590000052,"velocity":0.8818897637795275,"duration":0.13078714166658756},{"name":"C#5","midi":73,"time":1199.028737000005,"velocity":0.8818897637795275,"duration":0.13078714166658756},{"name":"C#6","midi":85,"time":1199.028737000005,"velocity":0.8818897637795275,"duration":0.13078714166658756},{"name":"C#5","midi":73,"time":1199.167626000005,"velocity":0.8818897637795275,"duration":0.13078714166658756},{"name":"C#6","midi":85,"time":1199.167626000005,"velocity":0.8818897637795275,"duration":0.13078714166658756},{"name":"C#5","midi":73,"time":1199.3065150000048,"velocity":0.8818897637795275,"duration":0.13078714166658756},{"name":"C#6","midi":85,"time":1199.3065150000048,"velocity":0.8818897637795275,"duration":0.13078714166658756},{"name":"C#5","midi":73,"time":1199.4454040000046,"velocity":0.8818897637795275,"duration":0.26273169166665866},{"name":"C#6","midi":85,"time":1199.4454040000046,"velocity":0.8818897637795275,"duration":0.26273169166665866},{"name":"F#4","midi":66,"time":1199.7231820000045,"velocity":0.8818897637795275,"duration":1.5821771916666876},{"name":"F#5","midi":78,"time":1199.7231820000045,"velocity":0.8818897637795275,"duration":1.5821771916666876},{"name":"F#4","midi":66,"time":1201.3898500000046,"velocity":0.8818897637795275,"duration":0.26273169166665866},{"name":"F#5","midi":78,"time":1201.3898500000046,"velocity":0.8818897637795275,"duration":0.26273169166665866},{"name":"G#4","midi":68,"time":1201.6676280000045,"velocity":0.8818897637795275,"duration":0.26273169166665866},{"name":"G#5","midi":80,"time":1201.6676280000045,"velocity":0.8818897637795275,"duration":0.26273169166665866},{"name":"A4","midi":69,"time":1201.9454060000044,"velocity":0.8818897637795275,"duration":0.7905098916667157},{"name":"A5","midi":81,"time":1201.9454060000044,"velocity":0.8818897637795275,"duration":0.7905098916667157},{"name":"E4","midi":64,"time":1202.7787400000045,"velocity":0.8818897637795275,"duration":0.7905098916667157},{"name":"E5","midi":76,"time":1202.7787400000045,"velocity":0.8818897637795275,"duration":0.7905098916667157},{"name":"E4","midi":64,"time":1203.6120740000047,"velocity":0.8818897637795275,"duration":0.26273169166665866},{"name":"E5","midi":76,"time":1203.6120740000047,"velocity":0.8818897637795275,"duration":0.26273169166665866},{"name":"D4","midi":62,"time":1203.8898520000046,"velocity":0.8818897637795275,"duration":0.26273169166665866},{"name":"D5","midi":74,"time":1203.8898520000046,"velocity":0.8818897637795275,"duration":0.26273169166665866},{"name":"C#4","midi":61,"time":1204.1676300000045,"velocity":0.8818897637795275,"duration":0.7905098916667157},{"name":"C#5","midi":73,"time":1204.1676300000045,"velocity":0.8818897637795275,"duration":0.7905098916667157},{"name":"C#5","midi":73,"time":1205.0009640000046,"velocity":0.8818897637795275,"duration":0.5266207916665735},{"name":"C#6","midi":85,"time":1205.0009640000046,"velocity":0.8818897637795275,"duration":0.5266207916665735},{"name":"A4","midi":69,"time":1205.5565200000044,"velocity":0.8818897637795275,"duration":0.26273169166665866},{"name":"A5","midi":81,"time":1205.5565200000044,"velocity":0.8818897637795275,"duration":0.26273169166665866},{"name":"C#5","midi":73,"time":1205.8342980000043,"velocity":0.8818897637795275,"duration":0.26273169166665866},{"name":"C#6","midi":85,"time":1205.8342980000043,"velocity":0.8818897637795275,"duration":0.26273169166665866},{"name":"E5","midi":76,"time":1206.1120760000042,"velocity":0.8818897637795275,"duration":0.26273169166665866},{"name":"E6","midi":88,"time":1206.1120760000042,"velocity":0.8818897637795275,"duration":0.26273169166665866},{"name":"F#5","midi":78,"time":1206.389854000004,"velocity":0.8818897637795275,"duration":1.0543989916666305},{"name":"F#6","midi":90,"time":1206.389854000004,"velocity":0.8818897637795275,"duration":1.0543989916666305},{"name":"F#5","midi":78,"time":1207.5009660000042,"velocity":0.8818897637795275,"duration":0.5266207916665735},{"name":"F#6","midi":90,"time":1207.5009660000042,"velocity":0.8818897637795275,"duration":0.5266207916665735},{"name":"E5","midi":76,"time":1208.056522000004,"velocity":0.8818897637795275,"duration":0.26273169166665866},{"name":"E6","midi":88,"time":1208.056522000004,"velocity":0.8818897637795275,"duration":0.26273169166665866},{"name":"F#5","midi":78,"time":1208.3343000000039,"velocity":0.8818897637795275,"duration":0.13078714166658756},{"name":"F#6","midi":90,"time":1208.3343000000039,"velocity":0.8818897637795275,"duration":0.13078714166658756},{"name":"E5","midi":76,"time":1208.4731890000037,"velocity":0.8818897637795275,"duration":0.13078714166658756},{"name":"E6","midi":88,"time":1208.4731890000037,"velocity":0.8818897637795275,"duration":0.13078714166658756},{"name":"D5","midi":74,"time":1208.6120780000035,"velocity":0.8818897637795275,"duration":1.0543989916666305},{"name":"D6","midi":86,"time":1208.6120780000035,"velocity":0.8818897637795275,"duration":1.0543989916666305},{"name":"F#4","midi":66,"time":1209.7231900000036,"velocity":0.8818897637795275,"duration":0.26273169166665866},{"name":"F#5","midi":78,"time":1209.7231900000036,"velocity":0.8818897637795275,"duration":0.26273169166665866},{"name":"A4","midi":69,"time":1210.0009680000035,"velocity":0.8818897637795275,"duration":0.26273169166665866},{"name":"A5","midi":81,"time":1210.0009680000035,"velocity":0.8818897637795275,"duration":0.26273169166665866},{"name":"D5","midi":74,"time":1210.2787460000034,"velocity":0.8818897637795275,"duration":0.26273169166665866},{"name":"D6","midi":86,"time":1210.2787460000034,"velocity":0.8818897637795275,"duration":0.26273169166665866},{"name":"F#5","midi":78,"time":1210.5565240000033,"velocity":0.8818897637795275,"duration":0.26273169166665866},{"name":"F#6","midi":90,"time":1210.5565240000033,"velocity":0.8818897637795275,"duration":0.26273169166665866},{"name":"E5","midi":76,"time":1210.8343020000032,"velocity":0.8818897637795275,"duration":0.26273169166665866},{"name":"E6","midi":88,"time":1210.8343020000032,"velocity":0.8818897637795275,"duration":0.26273169166665866},{"name":"G#5","midi":80,"time":1211.112080000003,"velocity":0.8818897637795275,"duration":0.26273169166665866},{"name":"G#6","midi":92,"time":1211.112080000003,"velocity":0.8818897637795275,"duration":0.26273169166665866},{"name":"A5","midi":81,"time":1211.389858000003,"velocity":0.8818897637795275,"duration":0.26273169166665866},{"name":"A6","midi":93,"time":1211.389858000003,"velocity":0.8818897637795275,"duration":0.26273169166665866},{"name":"G#5","midi":80,"time":1211.6676360000029,"velocity":0.8818897637795275,"duration":0.26273169166665866},{"name":"G#6","midi":92,"time":1211.6676360000029,"velocity":0.8818897637795275,"duration":0.26273169166665866},{"name":"A5","midi":81,"time":1212.5009700000028,"velocity":0.8818897637795275,"duration":0.26273169166665866},{"name":"A6","midi":93,"time":1212.5009700000028,"velocity":0.8818897637795275,"duration":0.26273169166665866},{"name":"B5","midi":83,"time":1212.7787480000027,"velocity":0.8818897637795275,"duration":0.26273169166665866},{"name":"B6","midi":95,"time":1212.7787480000027,"velocity":0.8818897637795275,"duration":0.26273169166665866},{"name":"C#6","midi":85,"time":1213.0565260000026,"velocity":0.8818897637795275,"duration":2.1099553916667446},{"name":"C#7","midi":97,"time":1213.0565260000026,"velocity":0.8818897637795275,"duration":2.1099553916667446},{"name":"C#5","midi":73,"time":1215.2787500000027,"velocity":0.8818897637795275,"duration":0.13773159166657933},{"name":"C#6","midi":85,"time":1215.2787500000027,"velocity":0.8818897637795275,"duration":0.13773159166657933},{"name":"C#5","midi":73,"time":1215.5565280000026,"velocity":0.8818897637795275,"duration":0.13773159166657933},{"name":"C#6","midi":85,"time":1215.5565280000026,"velocity":0.8818897637795275,"duration":0.13773159166657933},{"name":"C#5","midi":73,"time":1215.8343060000025,"velocity":0.8818897637795275,"duration":0.13078714166658756},{"name":"C#6","midi":85,"time":1215.8343060000025,"velocity":0.8818897637795275,"duration":0.13078714166658756},{"name":"C#5","midi":73,"time":1215.9731950000023,"velocity":0.8818897637795275,"duration":0.13078714166658756},{"name":"C#6","midi":85,"time":1215.9731950000023,"velocity":0.8818897637795275,"duration":0.13078714166658756},{"name":"C#5","midi":73,"time":1216.1120840000021,"velocity":0.8818897637795275,"duration":0.13078714166658756},{"name":"C#6","midi":85,"time":1216.1120840000021,"velocity":0.8818897637795275,"duration":0.13078714166658756},{"name":"C#5","midi":73,"time":1216.250973000002,"velocity":0.8818897637795275,"duration":0.13078714166658756},{"name":"C#6","midi":85,"time":1216.250973000002,"velocity":0.8818897637795275,"duration":0.13078714166658756},{"name":"C#5","midi":73,"time":1216.5287510000019,"velocity":0.8818897637795275,"duration":0.13078714166658756},{"name":"C#6","midi":85,"time":1216.5287510000019,"velocity":0.8818897637795275,"duration":0.13078714166658756},{"name":"C#5","midi":73,"time":1216.8065290000018,"velocity":0.8818897637795275,"duration":0.13078714166658756},{"name":"C#6","midi":85,"time":1216.8065290000018,"velocity":0.8818897637795275,"duration":0.13078714166658756},{"name":"C#5","midi":73,"time":1216.9454180000016,"velocity":0.8818897637795275,"duration":0.13078714166658756},{"name":"C#6","midi":85,"time":1216.9454180000016,"velocity":0.8818897637795275,"duration":0.13078714166658756},{"name":"C#5","midi":73,"time":1217.0843070000014,"velocity":0.8818897637795275,"duration":0.13078714166658756},{"name":"C#6","midi":85,"time":1217.0843070000014,"velocity":0.8818897637795275,"duration":0.13078714166658756},{"name":"C#5","midi":73,"time":1217.2231960000013,"velocity":0.8818897637795275,"duration":0.26273169166665866},{"name":"C#6","midi":85,"time":1217.2231960000013,"velocity":0.8818897637795275,"duration":0.26273169166665866},{"name":"F#4","midi":66,"time":1217.5009740000012,"velocity":0.8818897637795275,"duration":1.3182880916667727},{"name":"F#5","midi":78,"time":1217.5009740000012,"velocity":0.8818897637795275,"duration":1.3182880916667727},{"name":"C#4","midi":61,"time":1218.8898640000014,"velocity":0.8818897637795275,"duration":0.26273169166665866},{"name":"C#5","midi":73,"time":1218.8898640000014,"velocity":0.8818897637795275,"duration":0.26273169166665866},{"name":"F#4","midi":66,"time":1219.1676420000013,"velocity":0.8818897637795275,"duration":0.26273169166665866},{"name":"F#5","midi":78,"time":1219.1676420000013,"velocity":0.8818897637795275,"duration":0.26273169166665866},{"name":"G#4","midi":68,"time":1219.4454200000011,"velocity":0.8818897637795275,"duration":0.26273169166665866},{"name":"G#5","midi":80,"time":1219.4454200000011,"velocity":0.8818897637795275,"duration":0.26273169166665866},{"name":"A4","midi":69,"time":1219.723198000001,"velocity":0.8818897637795275,"duration":0.7905098916667157},{"name":"A5","midi":81,"time":1219.723198000001,"velocity":0.8818897637795275,"duration":0.7905098916667157},{"name":"C#5","midi":73,"time":1220.5565320000012,"velocity":0.8818897637795275,"duration":0.7905098916667157},{"name":"C#6","midi":85,"time":1220.5565320000012,"velocity":0.8818897637795275,"duration":0.7905098916667157},{"name":"A4","midi":69,"time":1221.3898660000013,"velocity":0.8818897637795275,"duration":0.26273169166665866},{"name":"A5","midi":81,"time":1221.3898660000013,"velocity":0.8818897637795275,"duration":0.26273169166665866},{"name":"E4","midi":64,"time":1221.6676440000012,"velocity":0.8818897637795275,"duration":0.26273169166665866},{"name":"E5","midi":76,"time":1221.6676440000012,"velocity":0.8818897637795275,"duration":0.26273169166665866},{"name":"D#4","midi":63,"time":1221.9454220000011,"velocity":0.8818897637795275,"duration":0.7905098916667157},{"name":"D#5","midi":75,"time":1221.9454220000011,"velocity":0.8818897637795275,"duration":0.7905098916667157},{"name":"B3","midi":59,"time":1222.7787560000013,"velocity":0.8818897637795275,"duration":0.26273169166665866},{"name":"B4","midi":71,"time":1222.7787560000013,"velocity":0.8818897637795275,"duration":0.26273169166665866},{"name":"B3","midi":59,"time":1223.0565340000012,"velocity":0.8818897637795275,"duration":0.2766205916666422},{"name":"B4","midi":71,"time":1223.0565340000012,"velocity":0.8818897637795275,"duration":0.2766205916666422},{"name":"D#4","midi":63,"time":1223.6120900000012,"velocity":0.8818897637795275,"duration":0.5266207916665735},{"name":"D#5","midi":75,"time":1223.6120900000012,"velocity":0.8818897637795275,"duration":0.5266207916665735},{"name":"D4","midi":62,"time":1224.167646000001,"velocity":0.8818897637795275,"duration":1.0543989916666305},{"name":"D5","midi":74,"time":1224.167646000001,"velocity":0.8818897637795275,"duration":1.0543989916666305},{"name":"D5","midi":74,"time":1225.278758000001,"velocity":0.8818897637795275,"duration":0.4155095916667051},{"name":"D6","midi":86,"time":1225.278758000001,"velocity":0.8818897637795275,"duration":0.4155095916667051},{"name":"E5","midi":76,"time":1226.1120920000012,"velocity":0.8818897637795275,"duration":0.26273169166665866},{"name":"E6","midi":88,"time":1226.1120920000012,"velocity":0.8818897637795275,"duration":0.26273169166665866},{"name":"F#5","midi":78,"time":1226.389870000001,"velocity":0.8818897637795275,"duration":1.0543989916666305},{"name":"F#6","midi":90,"time":1226.389870000001,"velocity":0.8818897637795275,"duration":1.0543989916666305},{"name":"F#4","midi":66,"time":1227.5009820000012,"velocity":0.8818897637795275,"duration":0.39467624166672977},{"name":"F#5","midi":78,"time":1227.5009820000012,"velocity":0.8818897637795275,"duration":0.39467624166672977},{"name":"A4","midi":69,"time":1227.9176490000011,"velocity":0.8818897637795275,"duration":0.20717609166672446},{"name":"A5","midi":81,"time":1227.9176490000011,"velocity":0.8818897637795275,"duration":0.20717609166672446},{"name":"E5","midi":76,"time":1228.334316000001,"velocity":0.8818897637795275,"duration":0.26273169166665866},{"name":"E6","midi":88,"time":1228.334316000001,"velocity":0.8818897637795275,"duration":0.26273169166665866},{"name":"F#5","midi":78,"time":1228.612094000001,"velocity":0.8818897637795275,"duration":0.7905098916667157},{"name":"F#6","midi":90,"time":1228.612094000001,"velocity":0.8818897637795275,"duration":0.7905098916667157},{"name":"A4","midi":69,"time":1229.4454280000011,"velocity":0.8818897637795275,"duration":0.5266207916665735},{"name":"A5","midi":81,"time":1229.4454280000011,"velocity":0.8818897637795275,"duration":0.5266207916665735},{"name":"F#4","midi":66,"time":1230.000984000001,"velocity":0.8818897637795275,"duration":0.26273169166665866},{"name":"F#5","midi":78,"time":1230.000984000001,"velocity":0.8818897637795275,"duration":0.26273169166665866},{"name":"A4","midi":69,"time":1230.2787620000008,"velocity":0.8818897637795275,"duration":0.26273169166665866},{"name":"A5","midi":81,"time":1230.2787620000008,"velocity":0.8818897637795275,"duration":0.26273169166665866},{"name":"C5","midi":72,"time":1230.5565400000007,"velocity":0.8818897637795275,"duration":0.26273169166665866},{"name":"C6","midi":84,"time":1230.5565400000007,"velocity":0.8818897637795275,"duration":0.26273169166665866},{"name":"C#5","midi":73,"time":1230.8343180000006,"velocity":0.8818897637795275,"duration":2.1099553916667446},{"name":"C#6","midi":85,"time":1230.8343180000006,"velocity":0.8818897637795275,"duration":2.1099553916667446},{"name":"B5","midi":83,"time":1233.0565420000007,"velocity":0.8818897637795275,"duration":0.13773159166657933},{"name":"B6","midi":95,"time":1233.0565420000007,"velocity":0.8818897637795275,"duration":0.13773159166657933},{"name":"B5","midi":83,"time":1233.3343200000006,"velocity":0.8818897637795275,"duration":0.13773159166657933},{"name":"B6","midi":95,"time":1233.3343200000006,"velocity":0.8818897637795275,"duration":0.13773159166657933},{"name":"B5","midi":83,"time":1233.6120980000005,"velocity":0.8818897637795275,"duration":0.13078714166658756},{"name":"B6","midi":95,"time":1233.6120980000005,"velocity":0.8818897637795275,"duration":0.13078714166658756},{"name":"B5","midi":83,"time":1233.7509870000004,"velocity":0.8818897637795275,"duration":0.13078714166658756},{"name":"B6","midi":95,"time":1233.7509870000004,"velocity":0.8818897637795275,"duration":0.13078714166658756},{"name":"B5","midi":83,"time":1233.8898760000002,"velocity":0.8818897637795275,"duration":0.13078714166658756},{"name":"B6","midi":95,"time":1233.8898760000002,"velocity":0.8818897637795275,"duration":0.13078714166658756},{"name":"B5","midi":83,"time":1234.028765,"velocity":0.8818897637795275,"duration":0.13078714166658756},{"name":"B6","midi":95,"time":1234.028765,"velocity":0.8818897637795275,"duration":0.13078714166658756},{"name":"B5","midi":83,"time":1234.306543,"velocity":0.8818897637795275,"duration":0.13078714166658756},{"name":"B6","midi":95,"time":1234.306543,"velocity":0.8818897637795275,"duration":0.13078714166658756},{"name":"B5","midi":83,"time":1234.5843209999998,"velocity":0.8818897637795275,"duration":0.13078714166658756},{"name":"B6","midi":95,"time":1234.5843209999998,"velocity":0.8818897637795275,"duration":0.13078714166658756},{"name":"B5","midi":83,"time":1234.7232099999997,"velocity":0.8818897637795275,"duration":0.13078714166658756},{"name":"B6","midi":95,"time":1234.7232099999997,"velocity":0.8818897637795275,"duration":0.13078714166658756},{"name":"B5","midi":83,"time":1234.8620989999995,"velocity":0.8818897637795275,"duration":0.13078714166658756},{"name":"B6","midi":95,"time":1234.8620989999995,"velocity":0.8818897637795275,"duration":0.13078714166658756},{"name":"B5","midi":83,"time":1235.0009879999993,"velocity":0.8818897637795275,"duration":0.26273169166665866},{"name":"B6","midi":95,"time":1235.0009879999993,"velocity":0.8818897637795275,"duration":0.26273169166665866},{"name":"F#3","midi":54,"time":1235.5565439999993,"velocity":0.8818897637795275,"duration":0.13773159166657933},{"name":"F#4","midi":66,"time":1235.5565439999993,"velocity":0.8818897637795275,"duration":0.13773159166657933},{"name":"A3","midi":57,"time":1235.8343219999992,"velocity":0.8818897637795275,"duration":0.13773159166657933},{"name":"A4","midi":69,"time":1235.8343219999992,"velocity":0.8818897637795275,"duration":0.13773159166657933},{"name":"C#4","midi":61,"time":1236.1120999999991,"velocity":0.8818897637795275,"duration":0.13773159166657933},{"name":"C#5","midi":73,"time":1236.1120999999991,"velocity":0.8818897637795275,"duration":0.13773159166657933},{"name":"B3","midi":59,"time":1236.389877999999,"velocity":0.8818897637795275,"duration":0.5266207916665735},{"name":"B4","midi":71,"time":1236.389877999999,"velocity":0.8818897637795275,"duration":0.5266207916665735},{"name":"A3","midi":57,"time":1236.9454339999988,"velocity":0.8818897637795275,"duration":0.5266207916665735},{"name":"A4","midi":69,"time":1236.9454339999988,"velocity":0.8818897637795275,"duration":0.5266207916665735},{"name":"G#3","midi":56,"time":1237.5009899999986,"velocity":0.8818897637795275,"duration":0.13773159166657933},{"name":"G#4","midi":68,"time":1237.5009899999986,"velocity":0.8818897637795275,"duration":0.13773159166657933},{"name":"F#3","midi":54,"time":1237.7787679999985,"velocity":0.8818897637795275,"duration":0.13773159166657933},{"name":"F#4","midi":66,"time":1237.7787679999985,"velocity":0.8818897637795275,"duration":0.13773159166657933},{"name":"G#3","midi":56,"time":1238.0565459999984,"velocity":0.8818897637795275,"duration":0.5266207916665735},{"name":"G#4","midi":68,"time":1238.0565459999984,"velocity":0.8818897637795275,"duration":0.5266207916665735},{"name":"A3","midi":57,"time":1238.6121019999982,"velocity":0.8818897637795275,"duration":0.13773159166657933},{"name":"A4","midi":69,"time":1238.6121019999982,"velocity":0.8818897637795275,"duration":0.13773159166657933},{"name":"B3","midi":59,"time":1238.8898799999981,"velocity":0.8818897637795275,"duration":0.13773159166657933},{"name":"B4","midi":71,"time":1238.8898799999981,"velocity":0.8818897637795275,"duration":0.13773159166657933},{"name":"G#3","midi":56,"time":1239.167657999998,"velocity":0.8818897637795275,"duration":0.13773159166657933},{"name":"G#4","midi":68,"time":1239.167657999998,"velocity":0.8818897637795275,"duration":0.13773159166657933},{"name":"F3","midi":53,"time":1239.445435999998,"velocity":0.8818897637795275,"duration":0.13773159166657933},{"name":"F4","midi":65,"time":1239.445435999998,"velocity":0.8818897637795275,"duration":0.13773159166657933},{"name":"C#3","midi":49,"time":1239.7232139999978,"velocity":0.8818897637795275,"duration":0.2766205916666422},{"name":"C#4","midi":61,"time":1239.7232139999978,"velocity":0.8818897637795275,"duration":0.2766205916666422},{"name":"A3","midi":57,"time":1240.0009919999977,"velocity":0.8818897637795275,"duration":0.13773159166657933},{"name":"A4","midi":69,"time":1240.0009919999977,"velocity":0.8818897637795275,"duration":0.13773159166657933},{"name":"G#3","midi":56,"time":1240.2787699999976,"velocity":0.8818897637795275,"duration":0.5266207916665735},{"name":"G#4","midi":68,"time":1240.2787699999976,"velocity":0.8818897637795275,"duration":0.5266207916665735},{"name":"A3","midi":57,"time":1240.8343259999974,"velocity":0.8818897637795275,"duration":0.13773159166657933},{"name":"A4","midi":69,"time":1240.8343259999974,"velocity":0.8818897637795275,"duration":0.13773159166657933},{"name":"G#3","midi":56,"time":1241.1121039999973,"velocity":0.8818897637795275,"duration":0.13773159166657933},{"name":"G#4","midi":68,"time":1241.1121039999973,"velocity":0.8818897637795275,"duration":0.13773159166657933},{"name":"C#3","midi":49,"time":1241.3898819999972,"velocity":0.8818897637795275,"duration":0.26273169166665866},{"name":"C#4","midi":61,"time":1241.3898819999972,"velocity":0.8818897637795275,"duration":0.26273169166665866},{"name":"A2","midi":45,"time":1241.667659999997,"velocity":0.8818897637795275,"duration":0.26273169166665866},{"name":"A3","midi":57,"time":1241.667659999997,"velocity":0.8818897637795275,"duration":0.26273169166665866},{"name":"B2","midi":47,"time":1241.945437999997,"velocity":0.8818897637795275,"duration":0.13773159166657933},{"name":"B3","midi":59,"time":1241.945437999997,"velocity":0.8818897637795275,"duration":0.13773159166657933},{"name":"C#3","midi":49,"time":1242.223215999997,"velocity":0.8818897637795275,"duration":0.13773159166657933},{"name":"C#4","midi":61,"time":1242.223215999997,"velocity":0.8818897637795275,"duration":0.13773159166657933},{"name":"E3","midi":52,"time":1242.5009939999968,"velocity":0.8818897637795275,"duration":0.5266207916665735},{"name":"E4","midi":64,"time":1242.5009939999968,"velocity":0.8818897637795275,"duration":0.5266207916665735},{"name":"F#3","midi":54,"time":1243.0565499999966,"velocity":0.8818897637795275,"duration":0.5266207916665735},{"name":"F#4","midi":66,"time":1243.0565499999966,"velocity":0.8818897637795275,"duration":0.5266207916665735},{"name":"F#4","midi":66,"time":1244.4454399999966,"velocity":0.8818897637795275,"duration":0.13773159166657933},{"name":"F#5","midi":78,"time":1244.4454399999966,"velocity":0.8818897637795275,"duration":0.13773159166657933},{"name":"C#5","midi":73,"time":1244.7232179999965,"velocity":0.8818897637795275,"duration":0.13773159166657933},{"name":"C#6","midi":85,"time":1244.7232179999965,"velocity":0.8818897637795275,"duration":0.13773159166657933},{"name":"F#5","midi":78,"time":1245.0009959999963,"velocity":0.8818897637795275,"duration":0.13773159166657933},{"name":"F#6","midi":90,"time":1245.0009959999963,"velocity":0.8818897637795275,"duration":0.13773159166657933},{"name":"A5","midi":81,"time":1245.2787739999962,"velocity":0.8818897637795275,"duration":0.5266207916665735},{"name":"A6","midi":93,"time":1245.2787739999962,"velocity":0.8818897637795275,"duration":0.5266207916665735},{"name":"E5","midi":76,"time":1245.834329999996,"velocity":0.8818897637795275,"duration":0.5266207916665735},{"name":"E6","midi":88,"time":1245.834329999996,"velocity":0.8818897637795275,"duration":0.5266207916665735},{"name":"A4","midi":69,"time":1246.3898859999958,"velocity":0.8818897637795275,"duration":0.13773159166657933},{"name":"A5","midi":81,"time":1246.3898859999958,"velocity":0.8818897637795275,"duration":0.13773159166657933},{"name":"B4","midi":71,"time":1246.6676639999957,"velocity":0.8818897637795275,"duration":0.13773159166657933},{"name":"B5","midi":83,"time":1246.6676639999957,"velocity":0.8818897637795275,"duration":0.13773159166657933},{"name":"C#5","midi":73,"time":1246.9454419999956,"velocity":0.8818897637795275,"duration":0.5266207916665735},{"name":"C#6","midi":85,"time":1246.9454419999956,"velocity":0.8818897637795275,"duration":0.5266207916665735},{"name":"D5","midi":74,"time":1247.5009979999954,"velocity":0.8818897637795275,"duration":0.13773159166657933},{"name":"D6","midi":86,"time":1247.5009979999954,"velocity":0.8818897637795275,"duration":0.13773159166657933},{"name":"E5","midi":76,"time":1247.7787759999953,"velocity":0.8818897637795275,"duration":0.13773159166657933},{"name":"E6","midi":88,"time":1247.7787759999953,"velocity":0.8818897637795275,"duration":0.13773159166657933},{"name":"C#5","midi":73,"time":1248.0565539999952,"velocity":0.8818897637795275,"duration":0.13773159166657933},{"name":"C#6","midi":85,"time":1248.0565539999952,"velocity":0.8818897637795275,"duration":0.13773159166657933},{"name":"B4","midi":71,"time":1248.3343319999951,"velocity":0.8818897637795275,"duration":0.13773159166657933},{"name":"B5","midi":83,"time":1248.3343319999951,"velocity":0.8818897637795275,"duration":0.13773159166657933},{"name":"A4","midi":69,"time":1248.612109999995,"velocity":0.8818897637795275,"duration":0.26273169166665866},{"name":"A5","midi":81,"time":1248.612109999995,"velocity":0.8818897637795275,"duration":0.26273169166665866},{"name":"G#4","midi":68,"time":1248.889887999995,"velocity":0.8818897637795275,"duration":0.26273169166665866},{"name":"G#5","midi":80,"time":1248.889887999995,"velocity":0.8818897637795275,"duration":0.26273169166665866},{"name":"A4","midi":69,"time":1249.1676659999948,"velocity":0.8818897637795275,"duration":0.5266207916665735},{"name":"A5","midi":81,"time":1249.1676659999948,"velocity":0.8818897637795275,"duration":0.5266207916665735},{"name":"G#4","midi":68,"time":1249.7232219999946,"velocity":0.8818897637795275,"duration":0.2766205916666422},{"name":"G#5","midi":80,"time":1249.7232219999946,"velocity":0.8818897637795275,"duration":0.2766205916666422},{"name":"F#4","midi":66,"time":1250.0009999999945,"velocity":0.8818897637795275,"duration":0.13773159166657933},{"name":"F#5","midi":78,"time":1250.0009999999945,"velocity":0.8818897637795275,"duration":0.13773159166657933},{"name":"C#4","midi":61,"time":1250.2787779999944,"velocity":0.8818897637795275,"duration":0.2766205916666422},{"name":"C#5","midi":73,"time":1250.2787779999944,"velocity":0.8818897637795275,"duration":0.2766205916666422},{"name":"F#4","midi":66,"time":1250.5565559999943,"velocity":0.8818897637795275,"duration":0.13773159166657933},{"name":"F#5","midi":78,"time":1250.5565559999943,"velocity":0.8818897637795275,"duration":0.13773159166657933},{"name":"G#4","midi":68,"time":1250.8343339999942,"velocity":0.8818897637795275,"duration":0.2766205916666422},{"name":"G#5","midi":80,"time":1250.8343339999942,"velocity":0.8818897637795275,"duration":0.2766205916666422},{"name":"F#4","midi":66,"time":1251.112111999994,"velocity":0.8818897637795275,"duration":0.13773159166657933},{"name":"F#5","midi":78,"time":1251.112111999994,"velocity":0.8818897637795275,"duration":0.13773159166657933},{"name":"A4","midi":69,"time":1251.389889999994,"velocity":0.8818897637795275,"duration":0.5266207916665735},{"name":"A5","midi":81,"time":1251.389889999994,"velocity":0.8818897637795275,"duration":0.5266207916665735},{"name":"F#4","midi":66,"time":1251.9454459999938,"velocity":0.8818897637795275,"duration":0.2766205916666422},{"name":"F#5","midi":78,"time":1251.9454459999938,"velocity":0.8818897637795275,"duration":0.2766205916666422},{"name":"F#3","midi":54,"time":1253.3343359999938,"velocity":0.8818897637795275,"duration":0.26273169166665866},{"name":"F#4","midi":66,"time":1253.3343359999938,"velocity":0.8818897637795275,"duration":0.26273169166665866},{"name":"A3","midi":57,"time":1253.6121139999937,"velocity":0.8818897637795275,"duration":0.26273169166665866},{"name":"A4","midi":69,"time":1253.6121139999937,"velocity":0.8818897637795275,"duration":0.26273169166665866},{"name":"B3","midi":59,"time":1253.8898919999936,"velocity":0.8818897637795275,"duration":0.26273169166665866},{"name":"B4","midi":71,"time":1253.8898919999936,"velocity":0.8818897637795275,"duration":0.26273169166665866},{"name":"C#4","midi":61,"time":1254.1676699999934,"velocity":0.8818897637795275,"duration":0.5266207916665735},{"name":"C#5","midi":73,"time":1254.1676699999934,"velocity":0.8818897637795275,"duration":0.5266207916665735},{"name":"D#4","midi":63,"time":1254.7232259999932,"velocity":0.8818897637795275,"duration":0.0648148666666657},{"name":"D#5","midi":75,"time":1254.7232259999932,"velocity":0.8818897637795275,"duration":0.0648148666666657},{"name":"E4","midi":64,"time":1254.7926704999932,"velocity":0.8818897637795275,"duration":0.09722230000011223},{"name":"E5","midi":76,"time":1254.7926704999932,"velocity":0.8818897637795275,"duration":0.09722230000011223},{"name":"D#4","midi":63,"time":1254.8968372499933,"velocity":0.8818897637795275,"duration":0.36111140000002706},{"name":"D#5","midi":75,"time":1254.8968372499933,"velocity":0.8818897637795275,"duration":0.36111140000002706},{"name":"C#4","midi":61,"time":1255.2787819999933,"velocity":0.8818897637795275,"duration":0.0648148666666657},{"name":"C#5","midi":73,"time":1255.2787819999933,"velocity":0.8818897637795275,"duration":0.0648148666666657},{"name":"D#4","midi":63,"time":1255.3482264999932,"velocity":0.8818897637795275,"duration":0.09722230000011223},{"name":"D#5","midi":75,"time":1255.3482264999932,"velocity":0.8818897637795275,"duration":0.09722230000011223},{"name":"C#4","midi":61,"time":1255.4523932499933,"velocity":0.8818897637795275,"duration":0.36111140000002706},{"name":"C#5","midi":73,"time":1255.4523932499933,"velocity":0.8818897637795275,"duration":0.09722230000011223},{"name":"C#5","midi":73,"time":1255.5565599999934,"velocity":0.8818897637795275,"duration":0.26273169166665866},{"name":"B3","midi":59,"time":1255.8343379999933,"velocity":0.8818897637795275,"duration":0.26273169166665866},{"name":"B4","midi":71,"time":1255.8343379999933,"velocity":0.8818897637795275,"duration":0.26273169166665866},{"name":"A3","midi":57,"time":1256.1121159999932,"velocity":0.8818897637795275,"duration":0.26273169166665866},{"name":"A4","midi":69,"time":1256.1121159999932,"velocity":0.8818897637795275,"duration":0.26273169166665866},{"name":"A3","midi":57,"time":1256.389893999993,"velocity":0.8818897637795275,"duration":0.0648148666666657},{"name":"A4","midi":69,"time":1256.389893999993,"velocity":0.8818897637795275,"duration":0.0648148666666657},{"name":"B3","midi":59,"time":1256.459338499993,"velocity":0.8818897637795275,"duration":0.09722230000011223},{"name":"B4","midi":71,"time":1256.459338499993,"velocity":0.8818897637795275,"duration":0.09722230000011223},{"name":"A3","midi":57,"time":1256.563505249993,"velocity":0.8818897637795275,"duration":0.36111140000002706},{"name":"A4","midi":69,"time":1256.563505249993,"velocity":0.8818897637795275,"duration":0.36111140000002706},{"name":"G#3","midi":56,"time":1256.9454499999931,"velocity":0.8818897637795275,"duration":0.26273169166665866},{"name":"G#4","midi":68,"time":1256.9454499999931,"velocity":0.8818897637795275,"duration":0.26273169166665866},{"name":"G3","midi":55,"time":1257.223227999993,"velocity":0.8818897637795275,"duration":0.26273169166665866},{"name":"G4","midi":67,"time":1257.223227999993,"velocity":0.8818897637795275,"duration":0.26273169166665866},{"name":"G#3","midi":56,"time":1257.501005999993,"velocity":0.8818897637795275,"duration":1.0543989916666305},{"name":"G#4","midi":68,"time":1257.501005999993,"velocity":0.8818897637795275,"duration":1.0543989916666305},{"name":"G#3","midi":56,"time":1258.612117999993,"velocity":0.8818897637795275,"duration":0.26273169166665866},{"name":"G#4","midi":68,"time":1258.612117999993,"velocity":0.8818897637795275,"duration":0.26273169166665866},{"name":"A3","midi":57,"time":1258.8898959999929,"velocity":0.8818897637795275,"duration":0.26273169166665866},{"name":"A4","midi":69,"time":1258.8898959999929,"velocity":0.8818897637795275,"duration":0.26273169166665866},{"name":"F#3","midi":54,"time":1259.1676739999928,"velocity":0.8818897637795275,"duration":0.2766205916666422},{"name":"F#4","midi":66,"time":1259.1676739999928,"velocity":0.8818897637795275,"duration":0.2766205916666422},{"name":"C#4","midi":61,"time":1259.4454519999927,"velocity":0.8818897637795275,"duration":0.13773159166657933},{"name":"C#5","midi":73,"time":1259.4454519999927,"velocity":0.8818897637795275,"duration":0.13773159166657933},{"name":"B3","midi":59,"time":1259.7232299999926,"velocity":0.8818897637795275,"duration":0.5266207916665735},{"name":"B4","midi":71,"time":1259.7232299999926,"velocity":0.8818897637795275,"duration":0.5266207916665735},{"name":"D4","midi":62,"time":1260.2787859999924,"velocity":0.8818897637795275,"duration":0.26273169166665866},{"name":"D5","midi":74,"time":1260.2787859999924,"velocity":0.8818897637795275,"duration":0.26273169166665866},{"name":"C#4","midi":61,"time":1260.5565639999922,"velocity":0.8818897637795275,"duration":0.26273169166665866},{"name":"C#5","midi":73,"time":1260.5565639999922,"velocity":0.8818897637795275,"duration":0.26273169166665866},{"name":"F4","midi":65,"time":1261.1121199999923,"velocity":0.8818897637795275,"duration":0.26273169166665866},{"name":"F5","midi":77,"time":1261.1121199999923,"velocity":0.8818897637795275,"duration":0.26273169166665866},{"name":"F#4","midi":66,"time":1261.3898979999922,"velocity":0.8818897637795275,"duration":0.5266207916665735},{"name":"F#5","midi":78,"time":1261.3898979999922,"velocity":0.8818897637795275,"duration":0.5266207916665735},{"name":"F#3","midi":54,"time":1262.223231999992,"velocity":0.8818897637795275,"duration":0.13773159166657933},{"name":"F#4","midi":66,"time":1262.223231999992,"velocity":0.8818897637795275,"duration":0.13773159166657933},{"name":"C#3","midi":49,"time":1262.501009999992,"velocity":0.8818897637795275,"duration":0.13773159166657933},{"name":"C#4","midi":61,"time":1262.501009999992,"velocity":0.8818897637795275,"duration":0.13773159166657933},{"name":"F#3","midi":54,"time":1262.778787999992,"velocity":0.8818897637795275,"duration":0.13773159166657933},{"name":"F#4","midi":66,"time":1262.778787999992,"velocity":0.8818897637795275,"duration":0.13773159166657933},{"name":"A3","midi":57,"time":1263.0565659999918,"velocity":0.8818897637795275,"duration":0.5266207916665735},{"name":"A4","midi":69,"time":1263.0565659999918,"velocity":0.8818897637795275,"duration":0.5266207916665735},{"name":"B3","midi":59,"time":1263.6121219999916,"velocity":0.8818897637795275,"duration":0.26273169166665866},{"name":"B4","midi":71,"time":1263.6121219999916,"velocity":0.8818897637795275,"duration":0.26273169166665866},{"name":"A3","midi":57,"time":1263.8898999999915,"velocity":0.8818897637795275,"duration":0.26273169166665866},{"name":"A4","midi":69,"time":1263.8898999999915,"velocity":0.8818897637795275,"duration":0.26273169166665866},{"name":"G#3","midi":56,"time":1264.1676779999914,"velocity":0.8818897637795275,"duration":0.5266207916665735},{"name":"G#4","midi":68,"time":1264.1676779999914,"velocity":0.8818897637795275,"duration":0.5266207916665735},{"name":"D4","midi":62,"time":1264.7232339999912,"velocity":0.8818897637795275,"duration":0.26273169166665866},{"name":"D5","midi":74,"time":1264.7232339999912,"velocity":0.8818897637795275,"duration":0.26273169166665866},{"name":"C#4","midi":61,"time":1265.001011999991,"velocity":0.8818897637795275,"duration":0.26273169166665866},{"name":"C#5","midi":73,"time":1265.001011999991,"velocity":0.8818897637795275,"duration":0.26273169166665866},{"name":"A4","midi":69,"time":1265.278789999991,"velocity":0.8818897637795275,"duration":0.5266207916665735},{"name":"A5","midi":81,"time":1265.278789999991,"velocity":0.8818897637795275,"duration":0.5266207916665735},{"name":"G#4","midi":68,"time":1265.8343459999908,"velocity":0.8818897637795275,"duration":1.0543989916666305},{"name":"G#5","midi":80,"time":1265.8343459999908,"velocity":0.8818897637795275,"duration":1.0543989916666305},{"name":"E5","midi":76,"time":1266.9454579999908,"velocity":0.8818897637795275,"duration":0.0648148666666657},{"name":"E6","midi":88,"time":1266.9454579999908,"velocity":0.8818897637795275,"duration":0.0648148666666657},{"name":"D5","midi":74,"time":1267.0149024999907,"velocity":0.8818897637795275,"duration":0.0648148666666657},{"name":"D6","midi":86,"time":1267.0149024999907,"velocity":0.8818897637795275,"duration":0.0648148666666657},{"name":"C#5","midi":73,"time":1267.0843469999907,"velocity":0.8818897637795275,"duration":0.0648148666666657},{"name":"C#6","midi":85,"time":1267.0843469999907,"velocity":0.8818897637795275,"duration":0.0648148666666657},{"name":"B4","midi":71,"time":1267.1537914999906,"velocity":0.8818897637795275,"duration":0.0648148666666657},{"name":"B5","midi":83,"time":1267.1537914999906,"velocity":0.8818897637795275,"duration":0.0648148666666657},{"name":"A4","midi":69,"time":1267.2232359999905,"velocity":0.8818897637795275,"duration":0.0648148666666657},{"name":"A5","midi":81,"time":1267.2232359999905,"velocity":0.8818897637795275,"duration":0.0648148666666657},{"name":"G#4","midi":68,"time":1267.2926804999904,"velocity":0.8818897637795275,"duration":0.0648148666666657},{"name":"G#5","midi":80,"time":1267.2926804999904,"velocity":0.8818897637795275,"duration":0.0648148666666657},{"name":"F#4","midi":66,"time":1267.3621249999903,"velocity":0.8818897637795275,"duration":0.0648148666666657},{"name":"F#5","midi":78,"time":1267.3621249999903,"velocity":0.8818897637795275,"duration":0.0648148666666657},{"name":"E4","midi":64,"time":1267.4315694999902,"velocity":0.8818897637795275,"duration":0.0648148666666657},{"name":"E5","midi":76,"time":1267.4315694999902,"velocity":0.8818897637795275,"duration":0.0648148666666657},{"name":"F#4","midi":66,"time":1267.5010139999902,"velocity":0.8818897637795275,"duration":0.26273169166665866},{"name":"F#5","midi":78,"time":1267.5010139999902,"velocity":0.8818897637795275,"duration":0.26273169166665866},{"name":"G#4","midi":68,"time":1267.77879199999,"velocity":0.8818897637795275,"duration":0.26273169166665866},{"name":"G#5","midi":80,"time":1267.77879199999,"velocity":0.8818897637795275,"duration":0.26273169166665866},{"name":"E4","midi":64,"time":1268.05656999999,"velocity":0.8818897637795275,"duration":0.26273169166665866},{"name":"E5","midi":76,"time":1268.05656999999,"velocity":0.8818897637795275,"duration":0.26273169166665866},{"name":"D4","midi":62,"time":1268.3343479999899,"velocity":0.8818897637795275,"duration":0.26273169166665866},{"name":"D5","midi":74,"time":1268.3343479999899,"velocity":0.8818897637795275,"duration":0.26273169166665866},{"name":"C#4","midi":61,"time":1268.6121259999898,"velocity":0.8818897637795275,"duration":1.0543989916666305},{"name":"C#5","midi":73,"time":1268.6121259999898,"velocity":0.8818897637795275,"duration":1.0543989916666305},{"name":"F#3","midi":54,"time":1269.7232379999898,"velocity":0.8818897637795275,"duration":1.0543989916666305},{"name":"F#4","midi":66,"time":1269.7232379999898,"velocity":0.8818897637795275,"duration":1.0543989916666305},{"name":"A3","midi":57,"time":1270.8343499999899,"velocity":0.8818897637795275,"duration":1.5821771916666876},{"name":"A4","midi":69,"time":1270.8343499999899,"velocity":0.8818897637795275,"duration":1.5821771916666876},{"name":"F#3","midi":54,"time":1272.50101799999,"velocity":0.8818897637795275,"duration":1.0543989916666305},{"name":"F#4","midi":66,"time":1272.50101799999,"velocity":0.8818897637795275,"duration":1.0543989916666305},{"name":"G#3","midi":56,"time":1273.61212999999,"velocity":0.8818897637795275,"duration":0.5266207916665735},{"name":"G#4","midi":68,"time":1273.61212999999,"velocity":0.8818897637795275,"duration":0.5266207916665735},{"name":"A3","midi":57,"time":1274.1676859999898,"velocity":0.8818897637795275,"duration":0.26273169166665866},{"name":"A4","midi":69,"time":1274.1676859999898,"velocity":0.8818897637795275,"duration":0.26273169166665866},{"name":"B3","midi":59,"time":1274.4454639999897,"velocity":0.8818897637795275,"duration":0.26273169166665866},{"name":"B4","midi":71,"time":1274.4454639999897,"velocity":0.8818897637795275,"duration":0.26273169166665866},{"name":"A3","midi":57,"time":1274.7232419999896,"velocity":0.8818897637795275,"duration":0.26273169166665866},{"name":"A4","midi":69,"time":1274.7232419999896,"velocity":0.8818897637795275,"duration":0.26273169166665866},{"name":"G#3","midi":56,"time":1275.0010199999895,"velocity":0.8818897637795275,"duration":0.26273169166665866},{"name":"G#4","midi":68,"time":1275.0010199999895,"velocity":0.8818897637795275,"duration":0.26273169166665866},{"name":"C#4","midi":61,"time":1275.2787979999894,"velocity":0.8818897637795275,"duration":1.0543989916666305},{"name":"C#5","midi":73,"time":1275.2787979999894,"velocity":0.8818897637795275,"duration":1.0543989916666305},{"name":"B3","midi":59,"time":1276.3899099999894,"velocity":0.8818897637795275,"duration":1.0543989916666305},{"name":"B4","midi":71,"time":1276.3899099999894,"velocity":0.8818897637795275,"duration":1.0543989916666305},{"name":"E4","midi":64,"time":1277.5010219999895,"velocity":0.8818897637795275,"duration":0.5266207916665735},{"name":"E5","midi":76,"time":1277.5010219999895,"velocity":0.8818897637795275,"duration":0.5266207916665735},{"name":"D4","midi":62,"time":1278.0565779999893,"velocity":0.8818897637795275,"duration":0.5266207916665735},{"name":"D5","midi":74,"time":1278.0565779999893,"velocity":0.8818897637795275,"duration":0.5266207916665735},{"name":"C#4","midi":61,"time":1278.612133999989,"velocity":0.8818897637795275,"duration":0.5266207916665735},{"name":"C#5","midi":73,"time":1278.612133999989,"velocity":0.8818897637795275,"duration":0.5266207916665735},{"name":"B3","midi":59,"time":1279.1676899999889,"velocity":0.8818897637795275,"duration":0.5266207916665735},{"name":"B4","midi":71,"time":1279.1676899999889,"velocity":0.8818897637795275,"duration":0.5266207916665735},{"name":"C#4","midi":61,"time":1279.7232459999886,"velocity":0.8818897637795275,"duration":2.1099553916667446},{"name":"C#5","midi":73,"time":1279.7232459999886,"velocity":0.8818897637795275,"duration":2.1099553916667446},{"name":"F#3","midi":54,"time":1281.9454699999887,"velocity":0.8818897637795275,"duration":2.1099553916667446},{"name":"F#4","midi":66,"time":1281.9454699999887,"velocity":0.8818897637795275,"duration":2.1099553916667446},{"name":"G#3","midi":56,"time":1284.1676939999888,"velocity":0.8818897637795275,"duration":2.1099553916667446},{"name":"G#4","midi":68,"time":1284.1676939999888,"velocity":0.8818897637795275,"duration":2.1099553916667446},{"name":"F#3","midi":54,"time":1286.389917999989,"velocity":0.8818897637795275,"duration":2.1099553916667446},{"name":"F#4","midi":66,"time":1286.389917999989,"velocity":0.8818897637795275,"duration":2.1099553916667446},{"name":"F#5","midi":78,"time":1288.612141999989,"velocity":0.8818897637795275,"duration":0.5266207916665735},{"name":"F#5","midi":78,"time":1289.1676979999888,"velocity":0.8818897637795275,"duration":0.5266207916665735},{"name":"E5","midi":76,"time":1289.7232539999886,"velocity":0.8818897637795275,"duration":0.26273169166665866},{"name":"E5","midi":76,"time":1290.0010319999885,"velocity":0.8818897637795275,"duration":0.26273169166665866},{"name":"E5","midi":76,"time":1290.2788099999884,"velocity":0.8818897637795275,"duration":0.5266207916665735},{"name":"D5","midi":74,"time":1290.8343659999882,"velocity":0.8818897637795275,"duration":0.5266207916665735},{"name":"D5","midi":74,"time":1291.389921999988,"velocity":0.8818897637795275,"duration":0.5266207916665735},{"name":"D5","midi":74,"time":1291.9454779999878,"velocity":0.8818897637795275,"duration":0.26273169166665866},{"name":"D5","midi":74,"time":1292.2232559999877,"velocity":0.8818897637795275,"duration":0.26273169166665866},{"name":"D5","midi":74,"time":1292.5010339999876,"velocity":0.8818897637795275,"duration":0.5266207916665735},{"name":"C#5","midi":73,"time":1293.0565899999874,"velocity":0.8818897637795275,"duration":0.5266207916665735},{"name":"C#5","midi":73,"time":1293.6121459999872,"velocity":0.8818897637795275,"duration":0.5266207916665735},{"name":"C#5","midi":73,"time":1294.167701999987,"velocity":0.8818897637795275,"duration":0.26273169166665866},{"name":"C#5","midi":73,"time":1294.445479999987,"velocity":0.8818897637795275,"duration":0.26273169166665866},{"name":"E5","midi":76,"time":1294.7232579999868,"velocity":0.8818897637795275,"duration":0.5266207916665735},{"name":"B4","midi":71,"time":1295.2788139999866,"velocity":0.8818897637795275,"duration":0.5266207916665735},{"name":"B4","midi":71,"time":1295.8343699999864,"velocity":0.8818897637795275,"duration":0.5266207916665735},{"name":"D5","midi":74,"time":1296.3899259999862,"velocity":0.8818897637795275,"duration":0.26273169166665866},{"name":"D5","midi":74,"time":1296.667703999986,"velocity":0.8818897637795275,"duration":0.26273169166665866},{"name":"C#5","midi":73,"time":1296.945481999986,"velocity":0.8818897637795275,"duration":0.5266207916665735},{"name":"F#5","midi":78,"time":1297.5010379999858,"velocity":0.8818897637795275,"duration":0.26273169166665866},{"name":"F#5","midi":78,"time":1297.7788159999857,"velocity":0.8818897637795275,"duration":0.26273169166665866},{"name":"F#5","midi":78,"time":1298.0565939999856,"velocity":0.8818897637795275,"duration":0.26273169166665866},{"name":"F#5","midi":78,"time":1298.3343719999855,"velocity":0.8818897637795275,"duration":0.26273169166665866},{"name":"F#5","midi":78,"time":1298.6121499999854,"velocity":0.8818897637795275,"duration":0.26273169166665866},{"name":"F#5","midi":78,"time":1298.8899279999853,"velocity":0.8818897637795275,"duration":0.26273169166665866},{"name":"A5","midi":81,"time":1299.1677059999852,"velocity":0.8818897637795275,"duration":0.26273169166665866},{"name":"G#5","midi":80,"time":1299.445483999985,"velocity":0.8818897637795275,"duration":0.26273169166665866},{"name":"E5","midi":76,"time":1299.723261999985,"velocity":0.8818897637795275,"duration":0.26273169166665866},{"name":"E5","midi":76,"time":1300.0010399999849,"velocity":0.8818897637795275,"duration":0.26273169166665866},{"name":"E5","midi":76,"time":1300.2788179999848,"velocity":0.8818897637795275,"duration":0.26273169166665866},{"name":"E5","midi":76,"time":1300.5565959999847,"velocity":0.8818897637795275,"duration":0.26273169166665866},{"name":"E5","midi":76,"time":1300.8343739999846,"velocity":0.8818897637795275,"duration":0.26273169166665866},{"name":"E5","midi":76,"time":1301.1121519999845,"velocity":0.8818897637795275,"duration":0.26273169166665866},{"name":"G#5","midi":80,"time":1301.3899299999844,"velocity":0.8818897637795275,"duration":0.26273169166665866},{"name":"A5","midi":81,"time":1301.6677079999843,"velocity":0.8818897637795275,"duration":0.26273169166665866},{"name":"D5","midi":74,"time":1301.9454859999842,"velocity":0.8818897637795275,"duration":0.5266207916665735},{"name":"E5","midi":76,"time":1302.501041999984,"velocity":0.8818897637795275,"duration":0.5266207916665735},{"name":"C#5","midi":73,"time":1303.0565979999838,"velocity":0.8818897637795275,"duration":0.5266207916665735},{"name":"F#5","midi":78,"time":1303.6121539999835,"velocity":0.8818897637795275,"duration":0.26273169166665866},{"name":"G#5","midi":80,"time":1303.8899319999834,"velocity":0.8818897637795275,"duration":0.26273169166665866},{"name":"A5","midi":81,"time":1304.1677099999833,"velocity":0.8818897637795275,"duration":2.1099553916667446},{"name":"F#5","midi":78,"time":1306.3899339999834,"velocity":0.8818897637795275,"duration":6.332180991666746}],"controlChanges":{"7":[{"number":7,"time":0,"value":1}],"10":[{"number":10,"time":0,"value":0.5039370078740157}],"64":[{"number":64,"time":399.44707881666795,"value":1},{"number":64,"time":401.66814540833474,"value":0},{"number":64,"time":401.66930281666805,"value":1},{"number":64,"time":402.7792574083348,"value":0},{"number":64,"time":402.7804148166681,"value":1},{"number":64,"time":403.8903694083348,"value":0},{"number":64,"time":527.2249588166662,"value":1},{"number":64,"time":528.334913408333,"value":0},{"number":64,"time":532.7793614083332,"value":0}],"91":[{"number":91,"time":0,"value":0}],"93":[{"number":93,"time":0,"value":0}],"121":[{"number":121,"time":0,"value":0}]},"id":0,"instrumentNumber":0,"instrument":"acoustic grand piano","instrumentFamily":"piano","channelNumber":0,"isPercussion":false},{"startTime":0,"duration":1312.7221149916656,"length":6939,"notes":[{"name":"D#2","midi":39,"time":0,"velocity":0.6299212598425197,"duration":1.5821771916666667},{"name":"D#3","midi":51,"time":0,"velocity":0.6299212598425197,"duration":1.5821771916666667},{"name":"F2","midi":41,"time":1.666668,"velocity":0.6299212598425197,"duration":0.5266207916666668},{"name":"F3","midi":53,"time":1.666668,"velocity":0.6299212598425197,"duration":0.5266207916666668},{"name":"F#2","midi":42,"time":2.222224,"velocity":0.6299212598425197,"duration":1.054398991666667},{"name":"F#3","midi":54,"time":2.222224,"velocity":0.6299212598425197,"duration":1.054398991666667},{"name":"F#2","midi":42,"time":3.3333360000000005,"velocity":0.6299212598425197,"duration":0.5266207916666668},{"name":"F#3","midi":54,"time":3.3333360000000005,"velocity":0.6299212598425197,"duration":0.5266207916666668},{"name":"G#2","midi":44,"time":3.8888920000000007,"velocity":0.6299212598425197,"duration":0.5266207916666663},{"name":"G#3","midi":56,"time":3.8888920000000007,"velocity":0.6299212598425197,"duration":0.5266207916666663},{"name":"F2","midi":41,"time":4.444448,"velocity":0.6299212598425197,"duration":1.054398991666667},{"name":"F3","midi":53,"time":4.444448,"velocity":0.6299212598425197,"duration":1.054398991666667},{"name":"D2","midi":38,"time":5.555560000000001,"velocity":0.6299212598425197,"duration":1.054398991666667},{"name":"D3","midi":50,"time":5.555560000000001,"velocity":0.6299212598425197,"duration":1.054398991666667},{"name":"D#2","midi":39,"time":6.666672000000001,"velocity":0.6299212598425197,"duration":1.5821771916666671},{"name":"D#3","midi":51,"time":6.666672000000001,"velocity":0.6299212598425197,"duration":1.5821771916666671},{"name":"C#2","midi":37,"time":8.333340000000002,"velocity":0.6299212598425197,"duration":0.5266207916666659},{"name":"C#3","midi":49,"time":8.333340000000002,"velocity":0.6299212598425197,"duration":0.5266207916666659},{"name":"B1","midi":35,"time":8.888896,"velocity":0.6299212598425197,"duration":2.1099553916666647},{"name":"B2","midi":47,"time":8.888896,"velocity":0.6299212598425197,"duration":2.1099553916666647},{"name":"C#2","midi":37,"time":11.11112,"velocity":0.6299212598425197,"duration":2.1099553916666665},{"name":"C#3","midi":49,"time":11.11112,"velocity":0.6299212598425197,"duration":2.1099553916666665},{"name":"A#1","midi":34,"time":13.333344,"velocity":0.6299212598425197,"duration":1.054398991666666},{"name":"A#2","midi":46,"time":13.333344,"velocity":0.6299212598425197,"duration":1.054398991666666},{"name":"A#2","midi":46,"time":14.444455999999999,"velocity":0.6299212598425197,"duration":1.054398991666666},{"name":"A#3","midi":58,"time":14.444455999999999,"velocity":0.6299212598425197,"duration":1.054398991666666},{"name":"A#3","midi":58,"time":15.555567999999997,"velocity":0.6299212598425197,"duration":4.221068191666667},{"name":"A#3","midi":58,"time":20.000016,"velocity":0.6299212598425197,"duration":0.26273169166666577},{"name":"A#2","midi":46,"time":20.277793999999997,"velocity":0.6299212598425197,"duration":0.26273169166666577},{"name":"A#1","midi":34,"time":20.555571999999994,"velocity":0.6299212598425197,"duration":0.13078714166666572},{"name":"A#1","midi":34,"time":20.694460999999993,"velocity":0.6299212598425197,"duration":0.13078714166666572},{"name":"A#2","midi":46,"time":20.833349999999992,"velocity":0.6299212598425197,"duration":0.13078714166666572},{"name":"A#1","midi":34,"time":20.97223899999999,"velocity":0.6299212598425197,"duration":0.13078714166666572},{"name":"A#1","midi":34,"time":21.11112799999999,"velocity":0.6299212598425197,"duration":0.13078714166666572},{"name":"A#1","midi":34,"time":21.25001699999999,"velocity":0.6299212598425197,"duration":0.13078714166666572},{"name":"A#2","midi":46,"time":21.388905999999988,"velocity":0.6299212598425197,"duration":0.13078714166666572},{"name":"A#1","midi":34,"time":21.527794999999987,"velocity":0.6299212598425197,"duration":0.13078714166666572},{"name":"A#1","midi":34,"time":21.666683999999986,"velocity":0.6299212598425197,"duration":0.13078714166666572},{"name":"A#1","midi":34,"time":21.805572999999985,"velocity":0.6299212598425197,"duration":0.13078714166666572},{"name":"A#2","midi":46,"time":21.944461999999984,"velocity":0.6299212598425197,"duration":0.13078714166666572},{"name":"A#1","midi":34,"time":22.083350999999983,"velocity":0.6299212598425197,"duration":0.13078714166666572},{"name":"A#1","midi":34,"time":22.22223999999998,"velocity":0.6299212598425197,"duration":0.13078714166666927},{"name":"A#1","midi":34,"time":22.361128999999984,"velocity":0.6456692913385826,"duration":0.13078714166666572},{"name":"A#2","midi":46,"time":22.500017999999983,"velocity":0.6614173228346457,"duration":0.13078714166666572},{"name":"A#1","midi":34,"time":22.638906999999982,"velocity":0.6771653543307087,"duration":0.13078714166666572},{"name":"A#1","midi":34,"time":22.77779599999998,"velocity":0.6929133858267716,"duration":0.13078714166666572},{"name":"A#1","midi":34,"time":22.91668499999998,"velocity":0.7086614173228346,"duration":0.13078714166666572},{"name":"A#1","midi":34,"time":23.05557399999998,"velocity":0.7244094488188977,"duration":0.13078714166666572},{"name":"A#2","midi":46,"time":23.05557399999998,"velocity":0.7244094488188977,"duration":0.13078714166666572},{"name":"A#2","midi":46,"time":23.194462999999978,"velocity":0.7401574803149606,"duration":0.13078714166666572},{"name":"A#3","midi":58,"time":23.194462999999978,"velocity":0.7401574803149606,"duration":0.13078714166666572},{"name":"D#2","midi":39,"time":24.44446399999998,"velocity":0.8818897637795275,"duration":0.26273169166666577},{"name":"D#3","midi":51,"time":24.722241999999977,"velocity":0.8818897637795275,"duration":0.13078714166666572},{"name":"D#2","midi":39,"time":24.861130999999975,"velocity":0.8818897637795275,"duration":0.13078714166666572},{"name":"D#2","midi":39,"time":25.000019999999974,"velocity":0.8818897637795275,"duration":0.13078714166666572},{"name":"D#2","midi":39,"time":25.138908999999973,"velocity":0.8818897637795275,"duration":0.13078714166666572},{"name":"D#3","midi":51,"time":25.277797999999972,"velocity":0.8818897637795275,"duration":0.13078714166666572},{"name":"D#2","midi":39,"time":25.41668699999997,"velocity":0.8818897637795275,"duration":0.13078714166666572},{"name":"D#2","midi":39,"time":25.55557599999997,"velocity":0.8818897637795275,"duration":0.13078714166666572},{"name":"D#2","midi":39,"time":25.69446499999997,"velocity":0.8818897637795275,"duration":0.13078714166666572},{"name":"D#3","midi":51,"time":25.833353999999968,"velocity":0.8818897637795275,"duration":0.13078714166666572},{"name":"D#2","midi":39,"time":25.972242999999967,"velocity":0.8818897637795275,"duration":0.13078714166666572},{"name":"D#2","midi":39,"time":26.111131999999966,"velocity":0.8818897637795275,"duration":0.13078714166666572},{"name":"D#2","midi":39,"time":26.250020999999965,"velocity":0.8818897637795275,"duration":0.13078714166666572},{"name":"D#3","midi":51,"time":26.388909999999964,"velocity":0.8818897637795275,"duration":0.13078714166666572},{"name":"D#2","midi":39,"time":26.527798999999963,"velocity":0.8818897637795275,"duration":0.13078714166666572},{"name":"F#2","midi":42,"time":26.66668799999996,"velocity":0.8818897637795275,"duration":0.13078714166666927},{"name":"F#2","midi":42,"time":26.805576999999964,"velocity":0.8818897637795275,"duration":0.13078714166666572},{"name":"F#3","midi":54,"time":26.944465999999963,"velocity":0.8818897637795275,"duration":0.13078714166666572},{"name":"F#2","midi":42,"time":27.083354999999962,"velocity":0.8818897637795275,"duration":0.13078714166666572},{"name":"F#2","midi":42,"time":27.22224399999996,"velocity":0.8818897637795275,"duration":0.13078714166666572},{"name":"F#2","midi":42,"time":27.36113299999996,"velocity":0.8818897637795275,"duration":0.13078714166666572},{"name":"F#3","midi":54,"time":27.50002199999996,"velocity":0.8818897637795275,"duration":0.13078714166666572},{"name":"F#2","midi":42,"time":27.638910999999958,"velocity":0.8818897637795275,"duration":0.13078714166666572},{"name":"F#2","midi":42,"time":27.777799999999957,"velocity":0.8818897637795275,"duration":0.13078714166666572},{"name":"F#2","midi":42,"time":27.916688999999955,"velocity":0.8818897637795275,"duration":0.13078714166666572},{"name":"F#3","midi":54,"time":28.055577999999954,"velocity":0.8818897637795275,"duration":0.13078714166666572},{"name":"F#2","midi":42,"time":28.194466999999953,"velocity":0.8818897637795275,"duration":0.13078714166666572},{"name":"F#2","midi":42,"time":28.333355999999952,"velocity":0.8818897637795275,"duration":0.13078714166666572},{"name":"F#2","midi":42,"time":28.47224499999995,"velocity":0.8818897637795275,"duration":0.13078714166666572},{"name":"F#3","midi":54,"time":28.61113399999995,"velocity":0.8818897637795275,"duration":0.13078714166666572},{"name":"F#2","midi":42,"time":28.75002299999995,"velocity":0.8818897637795275,"duration":0.13078714166666572},{"name":"A#1","midi":34,"time":28.888911999999948,"velocity":0.8818897637795275,"duration":0.13078714166666927},{"name":"A#1","midi":34,"time":29.02780099999995,"velocity":0.8818897637795275,"duration":0.13078714166666572},{"name":"A#2","midi":46,"time":29.16668999999995,"velocity":0.8818897637795275,"duration":0.13078714166666572},{"name":"A#1","midi":34,"time":29.30557899999995,"velocity":0.8818897637795275,"duration":0.13078714166666572},{"name":"A#1","midi":34,"time":29.444467999999947,"velocity":0.8818897637795275,"duration":0.13078714166666572},{"name":"A#1","midi":34,"time":29.583356999999946,"velocity":0.8818897637795275,"duration":0.13078714166666572},{"name":"A#2","midi":46,"time":29.722245999999945,"velocity":0.8818897637795275,"duration":0.13078714166666572},{"name":"A#1","midi":34,"time":29.861134999999944,"velocity":0.8818897637795275,"duration":0.13078714166666572},{"name":"A#2","midi":46,"time":30.000023999999943,"velocity":0.8818897637795275,"duration":0.13078714166666572},{"name":"A#1","midi":34,"time":30.138912999999942,"velocity":0.8818897637795275,"duration":0.13078714166666572},{"name":"A#1","midi":34,"time":30.27780199999994,"velocity":0.8818897637795275,"duration":0.13078714166666572},{"name":"A#2","midi":46,"time":30.41669099999994,"velocity":0.8818897637795275,"duration":0.13078714166666572},{"name":"A#2","midi":46,"time":30.55557999999994,"velocity":0.8818897637795275,"duration":0.13078714166666572},{"name":"A#1","midi":34,"time":30.694468999999938,"velocity":0.8818897637795275,"duration":0.13078714166666572},{"name":"A#1","midi":34,"time":30.833357999999937,"velocity":0.8818897637795275,"duration":0.13078714166666572},{"name":"A#2","midi":46,"time":30.972246999999935,"velocity":0.8818897637795275,"duration":0.13078714166666572},{"name":"D#2","midi":39,"time":31.111135999999934,"velocity":0.8818897637795275,"duration":0.13078714166666927},{"name":"D#2","midi":39,"time":31.250024999999937,"velocity":0.8818897637795275,"duration":0.13078714166666572},{"name":"D#3","midi":51,"time":31.388913999999936,"velocity":0.8818897637795275,"duration":0.13078714166666572},{"name":"D#2","midi":39,"time":31.527802999999935,"velocity":0.8818897637795275,"duration":0.13078714166666572},{"name":"D#2","midi":39,"time":31.666691999999934,"velocity":0.8818897637795275,"duration":0.13078714166666572},{"name":"D#2","midi":39,"time":31.805580999999933,"velocity":0.8818897637795275,"duration":0.13078714166666572},{"name":"D#3","midi":51,"time":31.94446999999993,"velocity":0.8818897637795275,"duration":0.13078714166666572},{"name":"D#2","midi":39,"time":32.08335899999993,"velocity":0.8818897637795275,"duration":0.13078714166666572},{"name":"D#2","midi":39,"time":32.22224799999993,"velocity":0.8818897637795275,"duration":0.5266207916666659},{"name":"D#3","midi":51,"time":32.22224799999993,"velocity":0.8818897637795275,"duration":0.5266207916666659},{"name":"C#2","midi":37,"time":32.777803999999925,"velocity":0.8818897637795275,"duration":0.5266207916666659},{"name":"C#3","midi":49,"time":32.777803999999925,"velocity":0.8818897637795275,"duration":0.5266207916666659},{"name":"B1","midi":35,"time":33.33335999999992,"velocity":0.8818897637795275,"duration":0.13078714166666572},{"name":"B1","midi":35,"time":33.47224899999992,"velocity":0.8818897637795275,"duration":0.13078714166666572},{"name":"B2","midi":47,"time":33.61113799999992,"velocity":0.8818897637795275,"duration":0.13078714166666572},{"name":"B1","midi":35,"time":33.75002699999992,"velocity":0.8818897637795275,"duration":0.13078714166666572},{"name":"B1","midi":35,"time":33.88891599999992,"velocity":0.8818897637795275,"duration":0.13078714166666572},{"name":"B1","midi":35,"time":34.027804999999915,"velocity":0.8818897637795275,"duration":0.13078714166666572},{"name":"B2","midi":47,"time":34.166693999999914,"velocity":0.8818897637795275,"duration":0.13078714166666572},{"name":"B1","midi":35,"time":34.30558299999991,"velocity":0.8818897637795275,"duration":0.13078714166666572},{"name":"B1","midi":35,"time":34.44447199999991,"velocity":0.8818897637795275,"duration":0.13078714166666572},{"name":"B1","midi":35,"time":34.58336099999991,"velocity":0.8818897637795275,"duration":0.13078714166666572},{"name":"B2","midi":47,"time":34.72224999999991,"velocity":0.8818897637795275,"duration":0.13078714166666572},{"name":"B1","midi":35,"time":34.86113899999991,"velocity":0.8818897637795275,"duration":0.13078714166666572},{"name":"B1","midi":35,"time":35.00002799999991,"velocity":0.8818897637795275,"duration":0.13078714166666572},{"name":"B1","midi":35,"time":35.13891699999991,"velocity":0.8818897637795275,"duration":0.13078714166666572},{"name":"B2","midi":47,"time":35.277805999999906,"velocity":0.8818897637795275,"duration":0.13078714166666572},{"name":"B1","midi":35,"time":35.416694999999905,"velocity":0.8818897637795275,"duration":0.13078714166666572},{"name":"C#2","midi":37,"time":35.555583999999904,"velocity":0.8818897637795275,"duration":0.13078714166666572},{"name":"C#2","midi":37,"time":35.6944729999999,"velocity":0.8818897637795275,"duration":0.13078714166666572},{"name":"C#3","midi":49,"time":35.8333619999999,"velocity":0.8818897637795275,"duration":0.13078714166666572},{"name":"C#2","midi":37,"time":35.9722509999999,"velocity":0.8818897637795275,"duration":0.13078714166666572},{"name":"C#2","midi":37,"time":36.1111399999999,"velocity":0.8818897637795275,"duration":0.13078714166666572},{"name":"C#2","midi":37,"time":36.2500289999999,"velocity":0.8818897637795275,"duration":0.13078714166666572},{"name":"C#3","midi":49,"time":36.3889179999999,"velocity":0.8818897637795275,"duration":0.13078714166666572},{"name":"C#2","midi":37,"time":36.527806999999896,"velocity":0.8818897637795275,"duration":0.13078714166666572},{"name":"C#2","midi":37,"time":36.666695999999895,"velocity":0.8818897637795275,"duration":0.13078714166666572},{"name":"C#2","midi":37,"time":36.805584999999894,"velocity":0.8818897637795275,"duration":0.13078714166666572},{"name":"C#3","midi":49,"time":36.94447399999989,"velocity":0.8818897637795275,"duration":0.13078714166666572},{"name":"C#2","midi":37,"time":37.08336299999989,"velocity":0.8818897637795275,"duration":0.13078714166666572},{"name":"C#2","midi":37,"time":37.22225199999989,"velocity":0.8818897637795275,"duration":0.13078714166666572},{"name":"C#2","midi":37,"time":37.36114099999989,"velocity":0.8818897637795275,"duration":0.13078714166666572},{"name":"C#3","midi":49,"time":37.50002999999989,"velocity":0.8818897637795275,"duration":0.13078714166666572},{"name":"C#2","midi":37,"time":37.63891899999989,"velocity":0.8818897637795275,"duration":0.13078714166666572},{"name":"A#1","midi":34,"time":37.77780799999989,"velocity":0.8818897637795275,"duration":0.13078714166666572},{"name":"A#1","midi":34,"time":37.916696999999886,"velocity":0.8818897637795275,"duration":0.13078714166666572},{"name":"A#2","midi":46,"time":38.055585999999884,"velocity":0.8818897637795275,"duration":0.13078714166666572},{"name":"A#1","midi":34,"time":38.19447499999988,"velocity":0.8818897637795275,"duration":0.13078714166666572},{"name":"A#1","midi":34,"time":38.33336399999988,"velocity":0.8818897637795275,"duration":0.13078714166666572},{"name":"A#1","midi":34,"time":38.47225299999988,"velocity":0.8818897637795275,"duration":0.13078714166666572},{"name":"A#2","midi":46,"time":38.61114199999988,"velocity":0.8818897637795275,"duration":0.13078714166666572},{"name":"A#1","midi":34,"time":38.75003099999988,"velocity":0.8818897637795275,"duration":0.13078714166666572},{"name":"A#1","midi":34,"time":38.88891999999988,"velocity":0.8818897637795275,"duration":0.13078714166666572},{"name":"A#1","midi":34,"time":39.02780899999988,"velocity":0.8818897637795275,"duration":0.13078714166666572},{"name":"A#2","midi":46,"time":39.166697999999876,"velocity":0.8818897637795275,"duration":0.13078714166666572},{"name":"A#1","midi":34,"time":39.305586999999875,"velocity":0.8818897637795275,"duration":0.13078714166666572},{"name":"A#1","midi":34,"time":39.444475999999874,"velocity":0.8818897637795275,"duration":0.13078714166666572},{"name":"A#1","midi":34,"time":39.58336499999987,"velocity":0.8818897637795275,"duration":0.13078714166666572},{"name":"A#2","midi":46,"time":39.72225399999987,"velocity":0.8818897637795275,"duration":0.13078714166666572},{"name":"A#1","midi":34,"time":39.86114299999987,"velocity":0.8818897637795275,"duration":0.13078714166666572},{"name":"A#1","midi":34,"time":40.00003199999987,"velocity":0.8818897637795275,"duration":0.13078714166666572},{"name":"A#1","midi":34,"time":40.13892099999987,"velocity":0.8818897637795275,"duration":0.13078714166666572},{"name":"A#2","midi":46,"time":40.27780999999987,"velocity":0.8818897637795275,"duration":0.13078714166666572},{"name":"A#1","midi":34,"time":40.416698999999866,"velocity":0.8818897637795275,"duration":0.13078714166666572},{"name":"A#1","midi":34,"time":40.555587999999865,"velocity":0.8818897637795275,"duration":0.13078714166666572},{"name":"A#1","midi":34,"time":40.694476999999864,"velocity":0.8818897637795275,"duration":0.13078714166666572},{"name":"A#2","midi":46,"time":40.83336599999986,"velocity":0.8818897637795275,"duration":0.13078714166666572},{"name":"A#1","midi":34,"time":40.97225499999986,"velocity":0.8818897637795275,"duration":0.13078714166666572},{"name":"A#1","midi":34,"time":41.11114399999986,"velocity":0.8818897637795275,"duration":0.5266207916666659},{"name":"A#2","midi":46,"time":41.11114399999986,"velocity":0.8818897637795275,"duration":0.5266207916666659},{"name":"C#2","midi":37,"time":41.66669999999986,"velocity":0.8818897637795275,"duration":0.5266207916666659},{"name":"C#3","midi":49,"time":41.66669999999986,"velocity":0.8818897637795275,"duration":0.5266207916666659},{"name":"D#2","midi":39,"time":42.22225599999985,"velocity":0.8818897637795275,"duration":0.13078714166666572},{"name":"D#2","midi":39,"time":42.36114499999985,"velocity":0.8818897637795275,"duration":0.13078714166666572},{"name":"D#3","midi":51,"time":42.50003399999985,"velocity":0.8818897637795275,"duration":0.13078714166666572},{"name":"D#2","midi":39,"time":42.63892299999985,"velocity":0.8818897637795275,"duration":0.13078714166666572},{"name":"D#2","midi":39,"time":42.77781199999985,"velocity":0.8818897637795275,"duration":0.13078714166666572},{"name":"D#2","midi":39,"time":42.91670099999985,"velocity":0.8818897637795275,"duration":0.13078714166666572},{"name":"D#3","midi":51,"time":43.055589999999846,"velocity":0.8818897637795275,"duration":0.13078714166666572},{"name":"D#2","midi":39,"time":43.194478999999845,"velocity":0.8818897637795275,"duration":0.13078714166666572},{"name":"D#2","midi":39,"time":43.333367999999844,"velocity":0.8818897637795275,"duration":0.13078714166666572},{"name":"D#2","midi":39,"time":43.47225699999984,"velocity":0.8818897637795275,"duration":0.13078714166666572},{"name":"D#3","midi":51,"time":43.61114599999984,"velocity":0.8818897637795275,"duration":0.13078714166666572},{"name":"D#2","midi":39,"time":43.75003499999984,"velocity":0.8818897637795275,"duration":0.13078714166666572},{"name":"D#2","midi":39,"time":43.88892399999984,"velocity":0.8818897637795275,"duration":0.13078714166666572},{"name":"D#2","midi":39,"time":44.02781299999984,"velocity":0.8818897637795275,"duration":0.13078714166666572},{"name":"D#3","midi":51,"time":44.16670199999984,"velocity":0.8818897637795275,"duration":0.13078714166666572},{"name":"D#2","midi":39,"time":44.305590999999836,"velocity":0.8818897637795275,"duration":0.13078714166666572},{"name":"D#2","midi":39,"time":44.444479999999835,"velocity":0.8818897637795275,"duration":0.13078714166666572},{"name":"D#2","midi":39,"time":44.583368999999834,"velocity":0.8818897637795275,"duration":0.13078714166666572},{"name":"F#3","midi":54,"time":44.72225799999983,"velocity":0.8818897637795275,"duration":0.13078714166666572},{"name":"F#2","midi":42,"time":44.86114699999983,"velocity":0.8818897637795275,"duration":0.13078714166666572},{"name":"F#2","midi":42,"time":45.00003599999983,"velocity":0.8818897637795275,"duration":0.13078714166666572},{"name":"F#2","midi":42,"time":45.13892499999983,"velocity":0.8818897637795275,"duration":0.13078714166666572},{"name":"F#3","midi":54,"time":45.27781399999983,"velocity":0.8818897637795275,"duration":0.13078714166666572},{"name":"F#2","midi":42,"time":45.41670299999983,"velocity":0.8818897637795275,"duration":0.13078714166666572},{"name":"F#2","midi":42,"time":45.55559199999983,"velocity":0.8818897637795275,"duration":0.13078714166666572},{"name":"F#2","midi":42,"time":45.694480999999826,"velocity":0.8818897637795275,"duration":0.13078714166666572},{"name":"F#3","midi":54,"time":45.833369999999825,"velocity":0.8818897637795275,"duration":0.13078714166666572},{"name":"F#2","midi":42,"time":45.97225899999982,"velocity":0.8818897637795275,"duration":0.13078714166666572},{"name":"F#2","midi":42,"time":46.11114799999982,"velocity":0.8818897637795275,"duration":0.13078714166666572},{"name":"F#2","midi":42,"time":46.25003699999982,"velocity":0.8818897637795275,"duration":0.13078714166666572},{"name":"F#3","midi":54,"time":46.38892599999982,"velocity":0.8818897637795275,"duration":0.13078714166666572},{"name":"F#2","midi":42,"time":46.52781499999982,"velocity":0.8818897637795275,"duration":0.13078714166666572},{"name":"C#2","midi":37,"time":46.66670399999982,"velocity":0.8818897637795275,"duration":0.13078714166666572},{"name":"C#2","midi":37,"time":46.80559299999982,"velocity":0.8818897637795275,"duration":0.13078714166666572},{"name":"C#3","midi":49,"time":46.944481999999816,"velocity":0.8818897637795275,"duration":0.13078714166666572},{"name":"C#2","midi":37,"time":47.083370999999815,"velocity":0.8818897637795275,"duration":0.13078714166666572},{"name":"C#2","midi":37,"time":47.222259999999814,"velocity":0.8818897637795275,"duration":0.13078714166666572},{"name":"C#2","midi":37,"time":47.36114899999981,"velocity":0.8818897637795275,"duration":0.13078714166666572},{"name":"C#3","midi":49,"time":47.50003799999981,"velocity":0.8818897637795275,"duration":0.13078714166666572},{"name":"C#2","midi":37,"time":47.63892699999981,"velocity":0.8818897637795275,"duration":0.13078714166666572},{"name":"C#2","midi":37,"time":47.77781599999981,"velocity":0.8818897637795275,"duration":0.13078714166666572},{"name":"C#2","midi":37,"time":47.91670499999981,"velocity":0.8818897637795275,"duration":0.13078714166666572},{"name":"C#3","midi":49,"time":48.05559399999981,"velocity":0.8818897637795275,"duration":0.13078714166666572},{"name":"C#2","midi":37,"time":48.194482999999806,"velocity":0.8818897637795275,"duration":0.13078714166666572},{"name":"C#2","midi":37,"time":48.333371999999805,"velocity":0.8818897637795275,"duration":0.13078714166666572},{"name":"C#2","midi":37,"time":48.472260999999804,"velocity":0.8818897637795275,"duration":0.13078714166666572},{"name":"C#3","midi":49,"time":48.6111499999998,"velocity":0.8818897637795275,"duration":0.13078714166666572},{"name":"C#2","midi":37,"time":48.7500389999998,"velocity":0.8818897637795275,"duration":0.13078714166666572},{"name":"C#2","midi":37,"time":48.8889279999998,"velocity":0.8818897637795275,"duration":0.13078714166666572},{"name":"C#2","midi":37,"time":49.0278169999998,"velocity":0.8818897637795275,"duration":0.13078714166666572},{"name":"E3","midi":52,"time":49.1667059999998,"velocity":0.8818897637795275,"duration":0.13078714166666572},{"name":"E2","midi":40,"time":49.3055949999998,"velocity":0.8818897637795275,"duration":0.13078714166666572},{"name":"E2","midi":40,"time":49.4444839999998,"velocity":0.8818897637795275,"duration":0.13078714166666572},{"name":"E2","midi":40,"time":49.583372999999796,"velocity":0.8818897637795275,"duration":0.13078714166666572},{"name":"E3","midi":52,"time":49.722261999999795,"velocity":0.8818897637795275,"duration":0.13078714166666572},{"name":"E2","midi":40,"time":49.86115099999979,"velocity":0.8818897637795275,"duration":0.13078714166666572},{"name":"E2","midi":40,"time":50.00003999999979,"velocity":0.8818897637795275,"duration":0.13078714166666572},{"name":"E2","midi":40,"time":50.13892899999979,"velocity":0.8818897637795275,"duration":0.13078714166666572},{"name":"E3","midi":52,"time":50.27781799999979,"velocity":0.8818897637795275,"duration":0.13078714166666572},{"name":"E2","midi":40,"time":50.41670699999979,"velocity":0.8818897637795275,"duration":0.13078714166666572},{"name":"E2","midi":40,"time":50.55559599999979,"velocity":0.8818897637795275,"duration":0.13078714166666572},{"name":"E2","midi":40,"time":50.69448499999979,"velocity":0.8818897637795275,"duration":0.13078714166666572},{"name":"E3","midi":52,"time":50.833373999999786,"velocity":0.8818897637795275,"duration":0.13078714166666572},{"name":"E2","midi":40,"time":50.972262999999785,"velocity":0.8818897637795275,"duration":0.13078714166666572},{"name":"D#2","midi":39,"time":51.111151999999784,"velocity":0.8818897637795275,"duration":0.13078714166666572},{"name":"D#2","midi":39,"time":51.25004099999978,"velocity":0.8818897637795275,"duration":0.13078714166666572},{"name":"D#3","midi":51,"time":51.38892999999978,"velocity":0.8818897637795275,"duration":0.13078714166666572},{"name":"D#2","midi":39,"time":51.52781899999978,"velocity":0.8818897637795275,"duration":0.13078714166666572},{"name":"D#2","midi":39,"time":51.66670799999978,"velocity":0.8818897637795275,"duration":0.13078714166666572},{"name":"D#2","midi":39,"time":51.80559699999978,"velocity":0.8818897637795275,"duration":0.13078714166666572},{"name":"D#3","midi":51,"time":51.94448599999978,"velocity":0.8818897637795275,"duration":0.13078714166666572},{"name":"D#2","midi":39,"time":52.083374999999776,"velocity":0.8818897637795275,"duration":0.13078714166666572},{"name":"D#2","midi":39,"time":52.222263999999775,"velocity":0.8818897637795275,"duration":0.13078714166666572},{"name":"D#2","midi":39,"time":52.361152999999774,"velocity":0.8818897637795275,"duration":0.13078714166666572},{"name":"D#3","midi":51,"time":52.50004199999977,"velocity":0.8818897637795275,"duration":0.13078714166666572},{"name":"D#2","midi":39,"time":52.63893099999977,"velocity":0.8818897637795275,"duration":0.13078714166666572},{"name":"D#2","midi":39,"time":52.77781999999977,"velocity":0.8818897637795275,"duration":0.13078714166666572},{"name":"D#2","midi":39,"time":52.91670899999977,"velocity":0.8818897637795275,"duration":0.13078714166666572},{"name":"D#3","midi":51,"time":53.05559799999977,"velocity":0.8818897637795275,"duration":0.13078714166666572},{"name":"D#2","midi":39,"time":53.19448699999977,"velocity":0.8818897637795275,"duration":0.13078714166666572},{"name":"C#2","midi":37,"time":53.33337599999977,"velocity":0.8818897637795275,"duration":0.13078714166666572},{"name":"C#2","midi":37,"time":53.472264999999766,"velocity":0.8818897637795275,"duration":0.13078714166666572},{"name":"C#3","midi":49,"time":53.611153999999765,"velocity":0.8818897637795275,"duration":0.13078714166666572},{"name":"C#2","midi":37,"time":53.75004299999976,"velocity":0.8818897637795275,"duration":0.13078714166666572},{"name":"C#2","midi":37,"time":53.88893199999976,"velocity":0.8818897637795275,"duration":0.13078714166666572},{"name":"C#2","midi":37,"time":54.02782099999976,"velocity":0.8818897637795275,"duration":0.13078714166666572},{"name":"C#3","midi":49,"time":54.16670999999976,"velocity":0.8818897637795275,"duration":0.13078714166666572},{"name":"C#2","midi":37,"time":54.30559899999976,"velocity":0.8818897637795275,"duration":0.13078714166666572},{"name":"C#2","midi":37,"time":54.44448799999976,"velocity":0.8818897637795275,"duration":0.13078714166666572},{"name":"C#2","midi":37,"time":54.58337699999976,"velocity":0.8818897637795275,"duration":0.13078714166666572},{"name":"C#3","midi":49,"time":54.722265999999756,"velocity":0.8818897637795275,"duration":0.13078714166666572},{"name":"C#2","midi":37,"time":54.861154999999755,"velocity":0.8818897637795275,"duration":0.13078714166666572},{"name":"C#2","midi":37,"time":55.000043999999754,"velocity":0.8818897637795275,"duration":0.13078714166666572},{"name":"C#2","midi":37,"time":55.13893299999975,"velocity":0.8818897637795275,"duration":0.13078714166666572},{"name":"C#3","midi":49,"time":55.27782199999975,"velocity":0.8818897637795275,"duration":0.13078714166666572},{"name":"C#2","midi":37,"time":55.41671099999975,"velocity":0.8818897637795275,"duration":0.13078714166666572},{"name":"A#1","midi":34,"time":55.55559999999975,"velocity":0.8818897637795275,"duration":0.13078714166666572},{"name":"A#1","midi":34,"time":55.69448899999975,"velocity":0.8818897637795275,"duration":0.13078714166666572},{"name":"A#2","midi":46,"time":55.83337799999975,"velocity":0.8818897637795275,"duration":0.13078714166666572},{"name":"A#1","midi":34,"time":55.972266999999746,"velocity":0.8818897637795275,"duration":0.13078714166666572},{"name":"A#1","midi":34,"time":56.111155999999745,"velocity":0.8818897637795275,"duration":0.13078714166666572},{"name":"A#1","midi":34,"time":56.250044999999744,"velocity":0.8818897637795275,"duration":0.13078714166666572},{"name":"A#2","midi":46,"time":56.38893399999974,"velocity":0.8818897637795275,"duration":0.13078714166666572},{"name":"A#1","midi":34,"time":56.52782299999974,"velocity":0.8818897637795275,"duration":0.13078714166666572},{"name":"A#1","midi":34,"time":56.66671199999974,"velocity":0.8818897637795275,"duration":0.13078714166666572},{"name":"A#1","midi":34,"time":56.80560099999974,"velocity":0.8818897637795275,"duration":0.13078714166666572},{"name":"A#2","midi":46,"time":56.94448999999974,"velocity":0.8818897637795275,"duration":0.13078714166666572},{"name":"A#1","midi":34,"time":57.08337899999974,"velocity":0.8818897637795275,"duration":0.13078714166666572},{"name":"A#1","midi":34,"time":57.22226799999974,"velocity":0.8818897637795275,"duration":0.13078714166666572},{"name":"A#1","midi":34,"time":57.361156999999736,"velocity":0.8818897637795275,"duration":0.13078714166666572},{"name":"A#2","midi":46,"time":57.500045999999735,"velocity":0.8818897637795275,"duration":0.13078714166666572},{"name":"A#1","midi":34,"time":57.638934999999734,"velocity":0.8818897637795275,"duration":0.13078714166666572},{"name":"A#1","midi":34,"time":57.77782399999973,"velocity":0.8818897637795275,"duration":0.13078714166666572},{"name":"A#2","midi":46,"time":57.77782399999973,"velocity":0.8818897637795275,"duration":0.26273169166666577},{"name":"F3","midi":53,"time":57.77782399999973,"velocity":0.8818897637795275,"duration":0.26273169166666577},{"name":"A#3","midi":58,"time":57.77782399999973,"velocity":0.8818897637795275,"duration":0.26273169166666577},{"name":"A#1","midi":34,"time":57.91671299999973,"velocity":0.8818897637795275,"duration":0.13078714166666572},{"name":"A#2","midi":46,"time":58.05560199999973,"velocity":0.8818897637795275,"duration":0.13078714166666572},{"name":"A#2","midi":46,"time":58.05560199999973,"velocity":0.8818897637795275,"duration":0.26273169166666577},{"name":"F3","midi":53,"time":58.05560199999973,"velocity":0.8818897637795275,"duration":0.26273169166666577},{"name":"A#3","midi":58,"time":58.05560199999973,"velocity":0.8818897637795275,"duration":0.26273169166666577},{"name":"A#1","midi":34,"time":58.19449099999973,"velocity":0.8818897637795275,"duration":0.13078714166666572},{"name":"A#1","midi":34,"time":58.33337999999973,"velocity":0.8818897637795275,"duration":0.13078714166666572},{"name":"A#2","midi":46,"time":58.33337999999973,"velocity":0.8818897637795275,"duration":0.13078714166666572},{"name":"F3","midi":53,"time":58.33337999999973,"velocity":0.8818897637795275,"duration":0.13078714166666572},{"name":"A#3","midi":58,"time":58.33337999999973,"velocity":0.8818897637795275,"duration":0.13078714166666572},{"name":"A#1","midi":34,"time":58.47226899999973,"velocity":0.8818897637795275,"duration":0.13078714166666572},{"name":"A#2","midi":46,"time":58.47226899999973,"velocity":0.8818897637795275,"duration":0.13078714166666572},{"name":"F3","midi":53,"time":58.47226899999973,"velocity":0.8818897637795275,"duration":0.13078714166666572},{"name":"A#3","midi":58,"time":58.47226899999973,"velocity":0.8818897637795275,"duration":0.13078714166666572},{"name":"A#2","midi":46,"time":58.611157999999726,"velocity":0.8818897637795275,"duration":0.13078714166666572},{"name":"A#2","midi":46,"time":58.611157999999726,"velocity":0.8818897637795275,"duration":0.13078714166666572},{"name":"F3","midi":53,"time":58.611157999999726,"velocity":0.8818897637795275,"duration":0.13078714166666572},{"name":"A#3","midi":58,"time":58.611157999999726,"velocity":0.8818897637795275,"duration":0.13078714166666572},{"name":"A#1","midi":34,"time":58.750046999999725,"velocity":0.8818897637795275,"duration":0.13078714166666572},{"name":"A#2","midi":46,"time":58.750046999999725,"velocity":0.8818897637795275,"duration":0.13078714166666572},{"name":"F3","midi":53,"time":58.750046999999725,"velocity":0.8818897637795275,"duration":0.13078714166666572},{"name":"A#3","midi":58,"time":58.750046999999725,"velocity":0.8818897637795275,"duration":0.13078714166666572},{"name":"A#1","midi":34,"time":58.888935999999724,"velocity":0.8818897637795275,"duration":0.13078714166666572},{"name":"A#1","midi":34,"time":59.02782499999972,"velocity":0.8818897637795275,"duration":0.13078714166666572},{"name":"A#2","midi":46,"time":59.02782499999972,"velocity":0.8818897637795275,"duration":0.13078714166666572},{"name":"F3","midi":53,"time":59.02782499999972,"velocity":0.8818897637795275,"duration":0.13078714166666572},{"name":"A#3","midi":58,"time":59.02782499999972,"velocity":0.8818897637795275,"duration":0.13078714166666572},{"name":"A#2","midi":46,"time":59.16671399999972,"velocity":0.8818897637795275,"duration":0.13078714166666572},{"name":"A#1","midi":34,"time":59.30560299999972,"velocity":0.8818897637795275,"duration":0.13078714166666572},{"name":"A#3","midi":58,"time":59.30560299999972,"velocity":0.8818897637795275,"duration":0.13078714166666572},{"name":"F4","midi":65,"time":59.30560299999972,"velocity":0.8818897637795275,"duration":0.13078714166666572},{"name":"A#4","midi":70,"time":59.30560299999972,"velocity":0.8818897637795275,"duration":0.13078714166666572},{"name":"A#1","midi":34,"time":59.44449199999972,"velocity":0.8818897637795275,"duration":0.13078714166666572},{"name":"A#3","midi":58,"time":59.44449199999972,"velocity":0.8818897637795275,"duration":0.13078714166666572},{"name":"F4","midi":65,"time":59.44449199999972,"velocity":0.8818897637795275,"duration":0.13078714166666572},{"name":"A#4","midi":70,"time":59.44449199999972,"velocity":0.8818897637795275,"duration":0.13078714166666572},{"name":"A#1","midi":34,"time":59.58338099999972,"velocity":0.8818897637795275,"duration":0.13078714166666572},{"name":"A#3","midi":58,"time":59.58338099999972,"velocity":0.8818897637795275,"duration":0.13078714166666572},{"name":"F4","midi":65,"time":59.58338099999972,"velocity":0.8818897637795275,"duration":0.13078714166666572},{"name":"A#4","midi":70,"time":59.58338099999972,"velocity":0.8818897637795275,"duration":0.13078714166666572},{"name":"A#2","midi":46,"time":59.72226999999972,"velocity":0.8818897637795275,"duration":0.13078714166666572},{"name":"A#3","midi":58,"time":59.72226999999972,"velocity":0.8818897637795275,"duration":0.26273169166666577},{"name":"F4","midi":65,"time":59.72226999999972,"velocity":0.8818897637795275,"duration":0.26273169166666577},{"name":"A#4","midi":70,"time":59.72226999999972,"velocity":0.8818897637795275,"duration":0.26273169166666577},{"name":"A#1","midi":34,"time":59.86115899999972,"velocity":0.8818897637795275,"duration":0.13078714166666572},{"name":"D#2","midi":39,"time":60.000047999999715,"velocity":0.8818897637795275,"duration":0.13078714166666572},{"name":"D#2","midi":39,"time":60.138936999999714,"velocity":0.8818897637795275,"duration":0.13078714166666572},{"name":"D#3","midi":51,"time":60.27782599999971,"velocity":0.8818897637795275,"duration":0.13078714166666572},{"name":"D#2","midi":39,"time":60.41671499999971,"velocity":0.8818897637795275,"duration":0.13078714166666572},{"name":"D#2","midi":39,"time":60.55560399999971,"velocity":0.8818897637795275,"duration":0.13078714166666572},{"name":"D#2","midi":39,"time":60.69449299999971,"velocity":0.8818897637795275,"duration":0.13078714166666572},{"name":"D#3","midi":51,"time":60.83338199999971,"velocity":0.8818897637795275,"duration":0.13078714166666572},{"name":"D#2","midi":39,"time":60.97227099999971,"velocity":0.8818897637795275,"duration":0.13078714166666572},{"name":"D#2","midi":39,"time":61.11115999999971,"velocity":0.8818897637795275,"duration":0.13078714166666572},{"name":"D#2","midi":39,"time":61.250048999999706,"velocity":0.8818897637795275,"duration":0.13078714166666572},{"name":"D#3","midi":51,"time":61.388937999999705,"velocity":0.8818897637795275,"duration":0.13078714166666572},{"name":"D#2","midi":39,"time":61.527826999999704,"velocity":0.8818897637795275,"duration":0.13078714166666572},{"name":"D#2","midi":39,"time":61.6667159999997,"velocity":0.8818897637795275,"duration":0.13078714166666572},{"name":"D#2","midi":39,"time":61.8056049999997,"velocity":0.8818897637795275,"duration":0.13078714166666572},{"name":"D#3","midi":51,"time":61.9444939999997,"velocity":0.8818897637795275,"duration":0.13078714166666572},{"name":"D#2","midi":39,"time":62.0833829999997,"velocity":0.8818897637795275,"duration":0.13078714166666572},{"name":"C#2","midi":37,"time":62.2222719999997,"velocity":0.8818897637795275,"duration":0.13078714166666572},{"name":"C#2","midi":37,"time":62.3611609999997,"velocity":0.8818897637795275,"duration":0.13078714166666572},{"name":"C#3","midi":49,"time":62.500049999999696,"velocity":0.8818897637795275,"duration":0.13078714166666572},{"name":"C#2","midi":37,"time":62.638938999999695,"velocity":0.8818897637795275,"duration":0.13078714166666572},{"name":"C#2","midi":37,"time":62.777827999999694,"velocity":0.8818897637795275,"duration":0.13078714166666572},{"name":"C#2","midi":37,"time":62.91671699999969,"velocity":0.8818897637795275,"duration":0.13078714166666572},{"name":"C#3","midi":49,"time":63.05560599999969,"velocity":0.8818897637795275,"duration":0.13078714166666572},{"name":"C#2","midi":37,"time":63.19449499999969,"velocity":0.8818897637795275,"duration":0.13078714166666572},{"name":"C#2","midi":37,"time":63.33338399999969,"velocity":0.8818897637795275,"duration":0.13078714166666572},{"name":"C#2","midi":37,"time":63.47227299999969,"velocity":0.8818897637795275,"duration":0.13078714166666572},{"name":"C#3","midi":49,"time":63.61116199999969,"velocity":0.8818897637795275,"duration":0.13078714166666572},{"name":"C#2","midi":37,"time":63.75005099999969,"velocity":0.8818897637795275,"duration":0.13078714166666572},{"name":"C#2","midi":37,"time":63.888939999999685,"velocity":0.8818897637795275,"duration":0.13078714166666572},{"name":"C#2","midi":37,"time":64.02782899999968,"velocity":0.8818897637795275,"duration":0.13078714166667282},{"name":"C#3","midi":49,"time":64.16671799999969,"velocity":0.8818897637795275,"duration":0.13078714166667282},{"name":"C#2","midi":37,"time":64.3056069999997,"velocity":0.8818897637795275,"duration":0.13078714166667282},{"name":"A#1","midi":34,"time":64.4444959999997,"velocity":0.8818897637795275,"duration":0.1307871416666586},{"name":"A#1","midi":34,"time":64.5833849999997,"velocity":0.8818897637795275,"duration":0.13078714166667282},{"name":"A#2","midi":46,"time":64.7222739999997,"velocity":0.8818897637795275,"duration":0.13078714166667282},{"name":"A#1","midi":34,"time":64.8611629999997,"velocity":0.8818897637795275,"duration":0.13078714166667282},{"name":"A#1","midi":34,"time":65.00005199999971,"velocity":0.8818897637795275,"duration":0.13078714166667282},{"name":"A#1","midi":34,"time":65.13894099999972,"velocity":0.8818897637795275,"duration":0.13078714166667282},{"name":"A#2","midi":46,"time":65.27782999999972,"velocity":0.8818897637795275,"duration":0.13078714166667282},{"name":"A#1","midi":34,"time":65.41671899999973,"velocity":0.8818897637795275,"duration":0.13078714166667282},{"name":"A#1","midi":34,"time":65.55560799999974,"velocity":0.8818897637795275,"duration":0.13078714166667282},{"name":"A#1","midi":34,"time":65.69449699999974,"velocity":0.8818897637795275,"duration":0.13078714166667282},{"name":"A#2","midi":46,"time":65.83338599999975,"velocity":0.8818897637795275,"duration":0.13078714166667282},{"name":"A#1","midi":34,"time":65.97227499999975,"velocity":0.8818897637795275,"duration":0.13078714166667282},{"name":"A#1","midi":34,"time":66.11116399999976,"velocity":0.8818897637795275,"duration":0.13078714166667282},{"name":"A#1","midi":34,"time":66.25005299999977,"velocity":0.8818897637795275,"duration":0.13078714166667282},{"name":"A#2","midi":46,"time":66.38894199999977,"velocity":0.8818897637795275,"duration":0.13078714166667282},{"name":"A#1","midi":34,"time":66.52783099999978,"velocity":0.8818897637795275,"duration":0.13078714166667282},{"name":"E2","midi":40,"time":66.66671999999978,"velocity":0.8818897637795275,"duration":0.1307871416666586},{"name":"E2","midi":40,"time":66.80560899999978,"velocity":0.8818897637795275,"duration":0.13078714166667282},{"name":"E3","midi":52,"time":66.94449799999978,"velocity":0.8818897637795275,"duration":0.13078714166667282},{"name":"E2","midi":40,"time":67.08338699999979,"velocity":0.8818897637795275,"duration":0.13078714166667282},{"name":"E2","midi":40,"time":67.2222759999998,"velocity":0.8818897637795275,"duration":0.13078714166667282},{"name":"E2","midi":40,"time":67.3611649999998,"velocity":0.8818897637795275,"duration":0.13078714166667282},{"name":"E3","midi":52,"time":67.5000539999998,"velocity":0.8818897637795275,"duration":0.13078714166667282},{"name":"E2","midi":40,"time":67.63894299999981,"velocity":0.8818897637795275,"duration":0.13078714166667282},{"name":"E2","midi":40,"time":67.77783199999982,"velocity":0.8818897637795275,"duration":0.13078714166667282},{"name":"E2","midi":40,"time":67.91672099999982,"velocity":0.8818897637795275,"duration":0.13078714166667282},{"name":"E3","midi":52,"time":68.05560999999983,"velocity":0.8818897637795275,"duration":0.13078714166667282},{"name":"E2","midi":40,"time":68.19449899999984,"velocity":0.8818897637795275,"duration":0.13078714166667282},{"name":"E2","midi":40,"time":68.33338799999984,"velocity":0.8818897637795275,"duration":0.13078714166667282},{"name":"E2","midi":40,"time":68.47227699999985,"velocity":0.8818897637795275,"duration":0.13078714166667282},{"name":"E3","midi":52,"time":68.61116599999986,"velocity":0.8818897637795275,"duration":0.13078714166667282},{"name":"E2","midi":40,"time":68.75005499999986,"velocity":0.8818897637795275,"duration":0.13078714166667282},{"name":"D#2","midi":39,"time":68.88894399999987,"velocity":0.8818897637795275,"duration":0.1307871416666586},{"name":"D#2","midi":39,"time":69.02783299999986,"velocity":0.8818897637795275,"duration":0.13078714166667282},{"name":"D#3","midi":51,"time":69.16672199999987,"velocity":0.8818897637795275,"duration":0.13078714166667282},{"name":"D#2","midi":39,"time":69.30561099999987,"velocity":0.8818897637795275,"duration":0.13078714166667282},{"name":"D#2","midi":39,"time":69.44449999999988,"velocity":0.8818897637795275,"duration":0.13078714166667282},{"name":"D#2","midi":39,"time":69.58338899999988,"velocity":0.8818897637795275,"duration":0.13078714166667282},{"name":"D#3","midi":51,"time":69.72227799999989,"velocity":0.8818897637795275,"duration":0.13078714166667282},{"name":"D#2","midi":39,"time":69.8611669999999,"velocity":0.8818897637795275,"duration":0.13078714166667282},{"name":"D#2","midi":39,"time":70.0000559999999,"velocity":0.8818897637795275,"duration":0.13078714166667282},{"name":"D#2","midi":39,"time":70.13894499999991,"velocity":0.8818897637795275,"duration":0.13078714166667282},{"name":"D#3","midi":51,"time":70.27783399999991,"velocity":0.8818897637795275,"duration":0.13078714166667282},{"name":"D#2","midi":39,"time":70.41672299999992,"velocity":0.8818897637795275,"duration":0.13078714166667282},{"name":"D#2","midi":39,"time":70.55561199999993,"velocity":0.8818897637795275,"duration":0.13078714166667282},{"name":"D#2","midi":39,"time":70.69450099999993,"velocity":0.8818897637795275,"duration":0.13078714166667282},{"name":"D#3","midi":51,"time":70.83338999999994,"velocity":0.8818897637795275,"duration":0.13078714166667282},{"name":"D#2","midi":39,"time":70.97227899999994,"velocity":0.8818897637795275,"duration":0.13078714166667282},{"name":"C#2","midi":37,"time":71.11116799999995,"velocity":0.8818897637795275,"duration":0.1307871416666586},{"name":"C#2","midi":37,"time":71.25005699999994,"velocity":0.8818897637795275,"duration":0.13078714166667282},{"name":"C#3","midi":49,"time":71.38894599999995,"velocity":0.8818897637795275,"duration":0.13078714166667282},{"name":"C#2","midi":37,"time":71.52783499999995,"velocity":0.8818897637795275,"duration":0.13078714166667282},{"name":"C#2","midi":37,"time":71.66672399999996,"velocity":0.8818897637795275,"duration":0.13078714166667282},{"name":"C#2","midi":37,"time":71.80561299999997,"velocity":0.8818897637795275,"duration":0.13078714166667282},{"name":"C#3","midi":49,"time":71.94450199999997,"velocity":0.8818897637795275,"duration":0.13078714166667282},{"name":"C#2","midi":37,"time":72.08339099999998,"velocity":0.8818897637795275,"duration":0.13078714166667282},{"name":"C#2","midi":37,"time":72.22227999999998,"velocity":0.8818897637795275,"duration":0.13078714166667282},{"name":"C#2","midi":37,"time":72.36116899999999,"velocity":0.8818897637795275,"duration":0.13078714166667282},{"name":"C#3","midi":49,"time":72.500058,"velocity":0.8818897637795275,"duration":0.13078714166667282},{"name":"C#2","midi":37,"time":72.638947,"velocity":0.8818897637795275,"duration":0.13078714166667282},{"name":"C#2","midi":37,"time":72.77783600000001,"velocity":0.8818897637795275,"duration":0.13078714166667282},{"name":"C#2","midi":37,"time":72.91672500000001,"velocity":0.8818897637795275,"duration":0.13078714166667282},{"name":"C#3","midi":49,"time":73.05561400000002,"velocity":0.8818897637795275,"duration":0.13078714166667282},{"name":"C#2","midi":37,"time":73.19450300000003,"velocity":0.8818897637795275,"duration":0.13078714166667282},{"name":"C#2","midi":37,"time":73.33339200000003,"velocity":0.8818897637795275,"duration":0.1307871416666586},{"name":"C#2","midi":37,"time":73.47228100000002,"velocity":0.8818897637795275,"duration":0.13078714166667282},{"name":"C#3","midi":49,"time":73.61117000000003,"velocity":0.8818897637795275,"duration":0.13078714166667282},{"name":"C#2","midi":37,"time":73.75005900000004,"velocity":0.8818897637795275,"duration":0.13078714166667282},{"name":"C#2","midi":37,"time":73.88894800000004,"velocity":0.8818897637795275,"duration":0.13078714166667282},{"name":"C#2","midi":37,"time":74.02783700000005,"velocity":0.8818897637795275,"duration":0.13078714166667282},{"name":"C#3","midi":49,"time":74.16672600000005,"velocity":0.8818897637795275,"duration":0.13078714166667282},{"name":"C#2","midi":37,"time":74.30561500000006,"velocity":0.8818897637795275,"duration":0.13078714166667282},{"name":"C#2","midi":37,"time":74.44450400000007,"velocity":0.8818897637795275,"duration":0.13078714166667282},{"name":"C#2","midi":37,"time":74.58339300000007,"velocity":0.8818897637795275,"duration":0.13078714166667282},{"name":"C#3","midi":49,"time":74.72228200000008,"velocity":0.8818897637795275,"duration":0.13078714166667282},{"name":"C#2","midi":37,"time":74.86117100000008,"velocity":0.8818897637795275,"duration":0.13078714166667282},{"name":"C#2","midi":37,"time":75.00006000000009,"velocity":0.8818897637795275,"duration":0.13078714166667282},{"name":"C#2","midi":37,"time":75.1389490000001,"velocity":0.8818897637795275,"duration":0.13078714166667282},{"name":"C#3","midi":49,"time":75.2778380000001,"velocity":0.8818897637795275,"duration":0.13078714166667282},{"name":"C#2","midi":37,"time":75.41672700000011,"velocity":0.8818897637795275,"duration":0.13078714166667282},{"name":"A#1","midi":34,"time":75.55561600000011,"velocity":0.8818897637795275,"duration":0.1307871416666586},{"name":"A#1","midi":34,"time":75.6945050000001,"velocity":0.8818897637795275,"duration":0.13078714166667282},{"name":"A#2","midi":46,"time":75.83339400000011,"velocity":0.8818897637795275,"duration":0.13078714166667282},{"name":"A#1","midi":34,"time":75.97228300000012,"velocity":0.8818897637795275,"duration":0.13078714166667282},{"name":"A#1","midi":34,"time":76.11117200000012,"velocity":0.8818897637795275,"duration":0.13078714166667282},{"name":"A#1","midi":34,"time":76.25006100000013,"velocity":0.8818897637795275,"duration":0.13078714166667282},{"name":"A#2","midi":46,"time":76.38895000000014,"velocity":0.8818897637795275,"duration":0.13078714166667282},{"name":"A#1","midi":34,"time":76.52783900000014,"velocity":0.8818897637795275,"duration":0.13078714166667282},{"name":"C#2","midi":37,"time":76.66672800000015,"velocity":0.8818897637795275,"duration":0.13078714166667282},{"name":"C#2","midi":37,"time":76.80561700000015,"velocity":0.8818897637795275,"duration":0.13078714166667282},{"name":"C#3","midi":49,"time":76.94450600000016,"velocity":0.8818897637795275,"duration":0.13078714166667282},{"name":"C#2","midi":37,"time":77.08339500000017,"velocity":0.8818897637795275,"duration":0.13078714166667282},{"name":"D#2","midi":39,"time":77.22228400000017,"velocity":0.8818897637795275,"duration":0.13078714166667282},{"name":"D#2","midi":39,"time":77.36117300000018,"velocity":0.8818897637795275,"duration":0.13078714166667282},{"name":"D#3","midi":51,"time":77.50006200000018,"velocity":0.8818897637795275,"duration":0.13078714166667282},{"name":"D#2","midi":39,"time":77.63895100000019,"velocity":0.8818897637795275,"duration":0.13078714166667282},{"name":"D#2","midi":39,"time":77.7778400000002,"velocity":0.8818897637795275,"duration":0.1307871416666586},{"name":"D#2","midi":39,"time":77.91672900000019,"velocity":0.8818897637795275,"duration":0.13078714166667282},{"name":"D#3","midi":51,"time":78.0556180000002,"velocity":0.8818897637795275,"duration":0.13078714166667282},{"name":"D#2","midi":39,"time":78.1945070000002,"velocity":0.8818897637795275,"duration":0.13078714166667282},{"name":"D#2","midi":39,"time":78.3333960000002,"velocity":0.8818897637795275,"duration":0.13078714166667282},{"name":"D#2","midi":39,"time":78.47228500000021,"velocity":0.8818897637795275,"duration":0.13078714166667282},{"name":"D#3","midi":51,"time":78.61117400000022,"velocity":0.8818897637795275,"duration":0.13078714166667282},{"name":"D#2","midi":39,"time":78.75006300000022,"velocity":0.8818897637795275,"duration":0.13078714166667282},{"name":"D#2","midi":39,"time":78.88895200000023,"velocity":0.8818897637795275,"duration":0.13078714166667282},{"name":"D#2","midi":39,"time":79.02784100000024,"velocity":0.8818897637795275,"duration":0.13078714166667282},{"name":"D#3","midi":51,"time":79.16673000000024,"velocity":0.8818897637795275,"duration":0.13078714166667282},{"name":"D#2","midi":39,"time":79.30561900000025,"velocity":0.8818897637795275,"duration":0.13078714166667282},{"name":"D#2","midi":39,"time":79.44450800000025,"velocity":0.8818897637795275,"duration":0.13078714166667282},{"name":"D#2","midi":39,"time":79.58339700000026,"velocity":0.8818897637795275,"duration":0.13078714166667282},{"name":"D#3","midi":51,"time":79.72228600000027,"velocity":0.8818897637795275,"duration":0.13078714166667282},{"name":"D#2","midi":39,"time":79.86117500000027,"velocity":0.8818897637795275,"duration":0.13078714166667282},{"name":"C#2","midi":37,"time":80.00006400000028,"velocity":0.8818897637795275,"duration":0.1307871416666586},{"name":"C#2","midi":37,"time":80.13895300000027,"velocity":0.8818897637795275,"duration":0.13078714166667282},{"name":"C#3","midi":49,"time":80.27784200000028,"velocity":0.8818897637795275,"duration":0.13078714166667282},{"name":"C#2","midi":37,"time":80.41673100000028,"velocity":0.8818897637795275,"duration":0.13078714166667282},{"name":"C#2","midi":37,"time":80.55562000000029,"velocity":0.8818897637795275,"duration":0.13078714166667282},{"name":"C#2","midi":37,"time":80.6945090000003,"velocity":0.8818897637795275,"duration":0.13078714166667282},{"name":"C#3","midi":49,"time":80.8333980000003,"velocity":0.8818897637795275,"duration":0.13078714166667282},{"name":"C#2","midi":37,"time":80.9722870000003,"velocity":0.8818897637795275,"duration":0.13078714166667282},{"name":"C#2","midi":37,"time":81.11117600000031,"velocity":0.8818897637795275,"duration":0.13078714166667282},{"name":"C#2","midi":37,"time":81.25006500000032,"velocity":0.8818897637795275,"duration":0.13078714166667282},{"name":"C#3","midi":49,"time":81.38895400000033,"velocity":0.8818897637795275,"duration":0.13078714166667282},{"name":"C#2","midi":37,"time":81.52784300000033,"velocity":0.8818897637795275,"duration":0.13078714166667282},{"name":"C#2","midi":37,"time":81.66673200000034,"velocity":0.8818897637795275,"duration":0.13078714166667282},{"name":"C#2","midi":37,"time":81.80562100000034,"velocity":0.8818897637795275,"duration":0.13078714166667282},{"name":"C#3","midi":49,"time":81.94451000000035,"velocity":0.8818897637795275,"duration":0.13078714166667282},{"name":"C#2","midi":37,"time":82.08339900000036,"velocity":0.8818897637795275,"duration":0.13078714166667282},{"name":"C#2","midi":37,"time":82.22228800000036,"velocity":0.8818897637795275,"duration":0.1307871416666586},{"name":"C#2","midi":37,"time":82.36117700000035,"velocity":0.8818897637795275,"duration":0.13078714166667282},{"name":"C#3","midi":49,"time":82.50006600000036,"velocity":0.8818897637795275,"duration":0.13078714166667282},{"name":"C#2","midi":37,"time":82.63895500000037,"velocity":0.8818897637795275,"duration":0.13078714166667282},{"name":"C#2","midi":37,"time":82.77784400000037,"velocity":0.8818897637795275,"duration":0.13078714166667282},{"name":"C#2","midi":37,"time":82.91673300000038,"velocity":0.8818897637795275,"duration":0.13078714166667282},{"name":"C#3","midi":49,"time":83.05562200000038,"velocity":0.8818897637795275,"duration":0.13078714166667282},{"name":"C#2","midi":37,"time":83.19451100000039,"velocity":0.8818897637795275,"duration":0.13078714166667282},{"name":"C#2","midi":37,"time":83.3334000000004,"velocity":0.8818897637795275,"duration":0.13078714166667282},{"name":"C#2","midi":37,"time":83.4722890000004,"velocity":0.8818897637795275,"duration":0.13078714166667282},{"name":"C#3","midi":49,"time":83.61117800000041,"velocity":0.8818897637795275,"duration":0.13078714166667282},{"name":"C#2","midi":37,"time":83.75006700000041,"velocity":0.8818897637795275,"duration":0.13078714166667282},{"name":"C#2","midi":37,"time":83.88895600000042,"velocity":0.8818897637795275,"duration":0.13078714166667282},{"name":"C#2","midi":37,"time":84.02784500000043,"velocity":0.8818897637795275,"duration":0.13078714166667282},{"name":"C#3","midi":49,"time":84.16673400000043,"velocity":0.8818897637795275,"duration":0.13078714166667282},{"name":"C#2","midi":37,"time":84.30562300000044,"velocity":0.8818897637795275,"duration":0.13078714166667282},{"name":"E2","midi":40,"time":84.44451200000044,"velocity":0.8818897637795275,"duration":0.1307871416666586},{"name":"E2","midi":40,"time":84.58340100000044,"velocity":0.8818897637795275,"duration":0.13078714166667282},{"name":"E3","midi":52,"time":84.72229000000044,"velocity":0.8818897637795275,"duration":0.13078714166667282},{"name":"E2","midi":40,"time":84.86117900000045,"velocity":0.8818897637795275,"duration":0.13078714166667282},{"name":"E2","midi":40,"time":85.00006800000045,"velocity":0.8818897637795275,"duration":0.13078714166667282},{"name":"E2","midi":40,"time":85.13895700000046,"velocity":0.8818897637795275,"duration":0.13078714166667282},{"name":"E3","midi":52,"time":85.27784600000047,"velocity":0.8818897637795275,"duration":0.13078714166667282},{"name":"E2","midi":40,"time":85.41673500000047,"velocity":0.8818897637795275,"duration":0.13078714166667282},{"name":"E2","midi":40,"time":85.55562400000048,"velocity":0.8818897637795275,"duration":0.13078714166667282},{"name":"E2","midi":40,"time":85.69451300000048,"velocity":0.8818897637795275,"duration":0.13078714166667282},{"name":"E3","midi":52,"time":85.83340200000049,"velocity":0.8818897637795275,"duration":0.13078714166667282},{"name":"E2","midi":40,"time":85.9722910000005,"velocity":0.8818897637795275,"duration":0.13078714166667282},{"name":"E2","midi":40,"time":86.1111800000005,"velocity":0.8818897637795275,"duration":0.13078714166667282},{"name":"E2","midi":40,"time":86.25006900000051,"velocity":0.8818897637795275,"duration":0.13078714166667282},{"name":"E3","midi":52,"time":86.38895800000051,"velocity":0.8818897637795275,"duration":0.13078714166667282},{"name":"E2","midi":40,"time":86.52784700000052,"velocity":0.8818897637795275,"duration":0.13078714166667282},{"name":"D#2","midi":39,"time":86.66673600000053,"velocity":0.8818897637795275,"duration":0.1307871416666586},{"name":"D#2","midi":39,"time":86.80562500000052,"velocity":0.8818897637795275,"duration":0.13078714166667282},{"name":"D#3","midi":51,"time":86.94451400000052,"velocity":0.8818897637795275,"duration":0.13078714166667282},{"name":"D#2","midi":39,"time":87.08340300000053,"velocity":0.8818897637795275,"duration":0.13078714166667282},{"name":"D#2","midi":39,"time":87.22229200000054,"velocity":0.8818897637795275,"duration":0.13078714166667282},{"name":"D#2","midi":39,"time":87.36118100000054,"velocity":0.8818897637795275,"duration":0.13078714166667282},{"name":"D#3","midi":51,"time":87.50007000000055,"velocity":0.8818897637795275,"duration":0.13078714166667282},{"name":"D#2","midi":39,"time":87.63895900000055,"velocity":0.8818897637795275,"duration":0.13078714166667282},{"name":"D#2","midi":39,"time":87.77784800000056,"velocity":0.8818897637795275,"duration":0.13078714166667282},{"name":"D#2","midi":39,"time":87.91673700000057,"velocity":0.8818897637795275,"duration":0.13078714166667282},{"name":"D#3","midi":51,"time":88.05562600000057,"velocity":0.8818897637795275,"duration":0.13078714166667282},{"name":"D#2","midi":39,"time":88.19451500000058,"velocity":0.8818897637795275,"duration":0.13078714166667282},{"name":"D#2","midi":39,"time":88.33340400000058,"velocity":0.8818897637795275,"duration":0.13078714166667282},{"name":"D#2","midi":39,"time":88.47229300000059,"velocity":0.8818897637795275,"duration":0.13078714166667282},{"name":"D#3","midi":51,"time":88.6111820000006,"velocity":0.8818897637795275,"duration":0.13078714166667282},{"name":"D#2","midi":39,"time":88.7500710000006,"velocity":0.8818897637795275,"duration":0.13078714166667282},{"name":"C#2","midi":37,"time":88.88896000000061,"velocity":0.8818897637795275,"duration":0.1307871416666586},{"name":"C#2","midi":37,"time":89.0278490000006,"velocity":0.8818897637795275,"duration":0.13078714166667282},{"name":"C#3","midi":49,"time":89.1667380000006,"velocity":0.8818897637795275,"duration":0.13078714166667282},{"name":"C#2","midi":37,"time":89.30562700000061,"velocity":0.8818897637795275,"duration":0.13078714166667282},{"name":"C#2","midi":37,"time":89.44451600000062,"velocity":0.8818897637795275,"duration":0.13078714166667282},{"name":"C#2","midi":37,"time":89.58340500000062,"velocity":0.8818897637795275,"duration":0.13078714166667282},{"name":"C#3","midi":49,"time":89.72229400000063,"velocity":0.8818897637795275,"duration":0.13078714166667282},{"name":"C#2","midi":37,"time":89.86118300000064,"velocity":0.8818897637795275,"duration":0.13078714166667282},{"name":"C#2","midi":37,"time":90.00007200000064,"velocity":0.8818897637795275,"duration":0.13078714166667282},{"name":"C#2","midi":37,"time":90.13896100000065,"velocity":0.8818897637795275,"duration":0.13078714166667282},{"name":"C#3","midi":49,"time":90.27785000000065,"velocity":0.8818897637795275,"duration":0.13078714166667282},{"name":"C#2","midi":37,"time":90.41673900000066,"velocity":0.8818897637795275,"duration":0.13078714166667282},{"name":"C#2","midi":37,"time":90.55562800000067,"velocity":0.8818897637795275,"duration":0.13078714166667282},{"name":"C#2","midi":37,"time":90.69451700000067,"velocity":0.8818897637795275,"duration":0.13078714166667282},{"name":"C#3","midi":49,"time":90.83340600000068,"velocity":0.8818897637795275,"duration":0.13078714166667282},{"name":"C#2","midi":37,"time":90.97229500000068,"velocity":0.8818897637795275,"duration":0.13078714166667282},{"name":"A#1","midi":34,"time":91.11118400000069,"velocity":0.8818897637795275,"duration":0.1307871416666586},{"name":"A#1","midi":34,"time":91.25007300000068,"velocity":0.8818897637795275,"duration":0.13078714166667282},{"name":"A#2","midi":46,"time":91.38896200000069,"velocity":0.8818897637795275,"duration":0.13078714166667282},{"name":"A#1","midi":34,"time":91.5278510000007,"velocity":0.8818897637795275,"duration":0.13078714166667282},{"name":"A#1","midi":34,"time":91.6667400000007,"velocity":0.8818897637795275,"duration":0.13078714166667282},{"name":"A#1","midi":34,"time":91.8056290000007,"velocity":0.8818897637795275,"duration":0.13078714166667282},{"name":"A#2","midi":46,"time":91.94451800000071,"velocity":0.8818897637795275,"duration":0.13078714166667282},{"name":"A#1","midi":34,"time":92.08340700000072,"velocity":0.8818897637795275,"duration":0.13078714166667282},{"name":"A#1","midi":34,"time":92.22229600000072,"velocity":0.8818897637795275,"duration":0.13078714166667282},{"name":"A#1","midi":34,"time":92.36118500000073,"velocity":0.8818897637795275,"duration":0.13078714166667282},{"name":"A#2","midi":46,"time":92.50007400000074,"velocity":0.8818897637795275,"duration":0.13078714166667282},{"name":"A#1","midi":34,"time":92.63896300000074,"velocity":0.8818897637795275,"duration":0.13078714166667282},{"name":"A#1","midi":34,"time":92.77785200000075,"velocity":0.8818897637795275,"duration":0.13078714166667282},{"name":"A#1","midi":34,"time":92.91674100000075,"velocity":0.8818897637795275,"duration":0.13078714166667282},{"name":"A#2","midi":46,"time":93.05563000000076,"velocity":0.8818897637795275,"duration":0.13078714166667282},{"name":"A#1","midi":34,"time":93.19451900000077,"velocity":0.8818897637795275,"duration":0.13078714166667282},{"name":"E1","midi":28,"time":93.33340800000077,"velocity":0.8818897637795275,"duration":2.1099553916666594},{"name":"F2","midi":41,"time":93.33340800000077,"velocity":0.8818897637795275,"duration":2.1099553916666594},{"name":"E3","midi":52,"time":93.33340800000077,"velocity":0.8818897637795275,"duration":2.1099553916666594},{"name":"A#2","midi":46,"time":95.55563200000077,"velocity":0.8818897637795275,"duration":0.5266207916666588},{"name":"F3","midi":53,"time":95.55563200000077,"velocity":0.8818897637795275,"duration":0.5266207916666588},{"name":"A#3","midi":58,"time":95.55563200000077,"velocity":0.8818897637795275,"duration":0.5266207916666588},{"name":"A#1","midi":34,"time":96.11118800000077,"velocity":0.8818897637795275,"duration":0.526620791666673},{"name":"A#2","midi":46,"time":96.11118800000077,"velocity":0.8818897637795275,"duration":0.526620791666673},{"name":"A#1","midi":34,"time":96.66674400000078,"velocity":0.8818897637795275,"duration":0.526620791666673},{"name":"A#2","midi":46,"time":96.66674400000078,"velocity":0.8818897637795275,"duration":0.526620791666673},{"name":"A#1","midi":34,"time":97.22230000000079,"velocity":0.8818897637795275,"duration":0.526620791666673},{"name":"A#2","midi":46,"time":97.22230000000079,"velocity":0.8818897637795275,"duration":0.526620791666673},{"name":"G#2","midi":44,"time":97.7778560000008,"velocity":0.8818897637795275,"duration":0.5266207916666588},{"name":"D#3","midi":51,"time":97.7778560000008,"velocity":0.8818897637795275,"duration":0.5266207916666588},{"name":"G#3","midi":56,"time":97.7778560000008,"velocity":0.8818897637795275,"duration":0.5266207916666588},{"name":"G#1","midi":32,"time":98.33341200000079,"velocity":0.8818897637795275,"duration":0.526620791666673},{"name":"G#2","midi":44,"time":98.33341200000079,"velocity":0.8818897637795275,"duration":0.526620791666673},{"name":"G#1","midi":32,"time":98.8889680000008,"velocity":0.8818897637795275,"duration":0.526620791666673},{"name":"G#2","midi":44,"time":98.8889680000008,"velocity":0.8818897637795275,"duration":0.526620791666673},{"name":"G#1","midi":32,"time":99.44452400000081,"velocity":0.8818897637795275,"duration":0.526620791666673},{"name":"G#2","midi":44,"time":99.44452400000081,"velocity":0.8818897637795275,"duration":0.526620791666673},{"name":"F#2","midi":42,"time":100.00008000000082,"velocity":0.8818897637795275,"duration":0.5266207916666588},{"name":"C#3","midi":49,"time":100.00008000000082,"velocity":0.8818897637795275,"duration":0.5266207916666588},{"name":"F#3","midi":54,"time":100.00008000000082,"velocity":0.8818897637795275,"duration":0.5266207916666588},{"name":"F#1","midi":30,"time":100.55563600000082,"velocity":0.8818897637795275,"duration":0.526620791666673},{"name":"F#2","midi":42,"time":100.55563600000082,"velocity":0.8818897637795275,"duration":0.526620791666673},{"name":"F#1","midi":30,"time":101.11119200000083,"velocity":0.8818897637795275,"duration":0.526620791666673},{"name":"F#2","midi":42,"time":101.11119200000083,"velocity":0.8818897637795275,"duration":0.526620791666673},{"name":"F#1","midi":30,"time":101.66674800000084,"velocity":0.8818897637795275,"duration":0.526620791666673},{"name":"F#2","midi":42,"time":101.66674800000084,"velocity":0.8818897637795275,"duration":0.526620791666673},{"name":"D#2","midi":39,"time":102.22230400000085,"velocity":0.8818897637795275,"duration":0.5266207916666588},{"name":"A#2","midi":46,"time":102.22230400000085,"velocity":0.8818897637795275,"duration":0.5266207916666588},{"name":"D#3","midi":51,"time":102.22230400000085,"velocity":0.8818897637795275,"duration":0.5266207916666588},{"name":"D#1","midi":27,"time":102.77786000000084,"velocity":0.8818897637795275,"duration":0.526620791666673},{"name":"D#2","midi":39,"time":102.77786000000084,"velocity":0.8818897637795275,"duration":0.526620791666673},{"name":"D#1","midi":27,"time":103.33341600000085,"velocity":0.8818897637795275,"duration":0.526620791666673},{"name":"D#2","midi":39,"time":103.33341600000085,"velocity":0.8818897637795275,"duration":0.526620791666673},{"name":"D#1","midi":27,"time":103.88897200000086,"velocity":0.8818897637795275,"duration":0.526620791666673},{"name":"D#2","midi":39,"time":103.88897200000086,"velocity":0.8818897637795275,"duration":0.526620791666673},{"name":"F#2","midi":42,"time":104.44452800000087,"velocity":0.8818897637795275,"duration":0.5266207916666588},{"name":"C#3","midi":49,"time":104.44452800000087,"velocity":0.8818897637795275,"duration":0.5266207916666588},{"name":"F#3","midi":54,"time":104.44452800000087,"velocity":0.8818897637795275,"duration":0.5266207916666588},{"name":"F#1","midi":30,"time":105.00008400000087,"velocity":0.8818897637795275,"duration":0.526620791666673},{"name":"F#2","midi":42,"time":105.00008400000087,"velocity":0.8818897637795275,"duration":0.526620791666673},{"name":"F#1","midi":30,"time":105.55564000000088,"velocity":0.8818897637795275,"duration":0.526620791666673},{"name":"F#2","midi":42,"time":105.55564000000088,"velocity":0.8818897637795275,"duration":0.526620791666673},{"name":"F#1","midi":30,"time":106.11119600000089,"velocity":0.8818897637795275,"duration":0.526620791666673},{"name":"F#2","midi":42,"time":106.11119600000089,"velocity":0.8818897637795275,"duration":0.526620791666673},{"name":"G#2","midi":44,"time":106.6667520000009,"velocity":0.8818897637795275,"duration":0.5266207916666588},{"name":"D#3","midi":51,"time":106.6667520000009,"velocity":0.8818897637795275,"duration":0.5266207916666588},{"name":"G#3","midi":56,"time":106.6667520000009,"velocity":0.8818897637795275,"duration":0.5266207916666588},{"name":"G#1","midi":32,"time":107.2223080000009,"velocity":0.8818897637795275,"duration":0.526620791666673},{"name":"G#2","midi":44,"time":107.2223080000009,"velocity":0.8818897637795275,"duration":0.526620791666673},{"name":"G#1","midi":32,"time":107.7778640000009,"velocity":0.8818897637795275,"duration":0.526620791666673},{"name":"G#2","midi":44,"time":107.7778640000009,"velocity":0.8818897637795275,"duration":0.526620791666673},{"name":"G#1","midi":32,"time":108.33342000000091,"velocity":0.8818897637795275,"duration":0.526620791666673},{"name":"G#2","midi":44,"time":108.33342000000091,"velocity":0.8818897637795275,"duration":0.526620791666673},{"name":"A#2","midi":46,"time":108.88897600000092,"velocity":0.8818897637795275,"duration":0.5266207916666588},{"name":"F3","midi":53,"time":108.88897600000092,"velocity":0.8818897637795275,"duration":0.5266207916666588},{"name":"A#3","midi":58,"time":108.88897600000092,"velocity":0.8818897637795275,"duration":0.5266207916666588},{"name":"A#1","midi":34,"time":109.44453200000092,"velocity":0.8818897637795275,"duration":0.526620791666673},{"name":"A#2","midi":46,"time":109.44453200000092,"velocity":0.8818897637795275,"duration":0.526620791666673},{"name":"A#1","midi":34,"time":110.00008800000093,"velocity":0.8818897637795275,"duration":0.526620791666673},{"name":"A#2","midi":46,"time":110.00008800000093,"velocity":0.8818897637795275,"duration":0.526620791666673},{"name":"A#1","midi":34,"time":110.55564400000094,"velocity":0.8818897637795275,"duration":0.526620791666673},{"name":"A#2","midi":46,"time":110.55564400000094,"velocity":0.8818897637795275,"duration":0.526620791666673},{"name":"A#2","midi":46,"time":111.11120000000095,"velocity":0.8818897637795275,"duration":0.5266207916666588},{"name":"F3","midi":53,"time":111.11120000000095,"velocity":0.8818897637795275,"duration":0.5266207916666588},{"name":"A#3","midi":58,"time":111.11120000000095,"velocity":0.8818897637795275,"duration":0.5266207916666588},{"name":"A#1","midi":34,"time":111.66675600000094,"velocity":0.8818897637795275,"duration":0.526620791666673},{"name":"A#2","midi":46,"time":111.66675600000094,"velocity":0.8818897637795275,"duration":0.526620791666673},{"name":"A#1","midi":34,"time":112.22231200000095,"velocity":0.5039370078740157,"duration":0.526620791666673},{"name":"A#2","midi":46,"time":112.22231200000095,"velocity":0.5039370078740157,"duration":0.526620791666673},{"name":"A#1","midi":34,"time":112.77786800000096,"velocity":0.6535433070866141,"duration":0.526620791666673},{"name":"A#2","midi":46,"time":112.77786800000096,"velocity":0.6535433070866141,"duration":0.526620791666673},{"name":"A#2","midi":46,"time":113.33342400000097,"velocity":0.8818897637795275,"duration":0.26273169166665866},{"name":"F3","midi":53,"time":113.33342400000097,"velocity":0.8818897637795275,"duration":0.5266207916666588},{"name":"A#3","midi":58,"time":113.33342400000097,"velocity":0.8818897637795275,"duration":0.5266207916666588},{"name":"A#1","midi":34,"time":113.33342400000097,"velocity":0.8818897637795275,"duration":0.26273169166665866},{"name":"A#2","midi":46,"time":113.33342400000097,"velocity":0.8818897637795275,"duration":0.5266207916666588},{"name":"A#2","midi":46,"time":113.61120200000097,"velocity":0.8818897637795275,"duration":0.26273169166665866},{"name":"A#3","midi":58,"time":113.61120200000097,"velocity":0.8818897637795275,"duration":0.26273169166665866},{"name":"A#1","midi":34,"time":113.88898000000097,"velocity":0.8818897637795275,"duration":0.526620791666673},{"name":"A#2","midi":46,"time":113.88898000000097,"velocity":0.8818897637795275,"duration":0.526620791666673},{"name":"A#1","midi":34,"time":114.44453600000098,"velocity":0.8818897637795275,"duration":0.2627316916666729},{"name":"A#2","midi":46,"time":114.44453600000098,"velocity":0.8818897637795275,"duration":0.2627316916666729},{"name":"A#2","midi":46,"time":114.72231400000099,"velocity":0.8818897637795275,"duration":0.2627316916666729},{"name":"A#3","midi":58,"time":114.72231400000099,"velocity":0.8818897637795275,"duration":0.2627316916666729},{"name":"A#1","midi":34,"time":115.000092000001,"velocity":0.8818897637795275,"duration":0.526620791666673},{"name":"A#2","midi":46,"time":115.000092000001,"velocity":0.8818897637795275,"duration":0.526620791666673},{"name":"A#2","midi":46,"time":115.55564800000101,"velocity":0.8818897637795275,"duration":0.26273169166665866},{"name":"F3","midi":53,"time":115.55564800000101,"velocity":0.8818897637795275,"duration":0.5266207916666588},{"name":"A#3","midi":58,"time":115.55564800000101,"velocity":0.8818897637795275,"duration":0.5266207916666588},{"name":"A#1","midi":34,"time":115.55564800000101,"velocity":0.8818897637795275,"duration":0.26273169166665866},{"name":"A#2","midi":46,"time":115.55564800000101,"velocity":0.8818897637795275,"duration":0.5266207916666588},{"name":"A#2","midi":46,"time":115.83342600000101,"velocity":0.8818897637795275,"duration":0.26273169166665866},{"name":"A#3","midi":58,"time":115.83342600000101,"velocity":0.8818897637795275,"duration":0.26273169166665866},{"name":"A#1","midi":34,"time":116.11120400000101,"velocity":0.8818897637795275,"duration":0.526620791666673},{"name":"A#2","midi":46,"time":116.11120400000101,"velocity":0.8818897637795275,"duration":0.526620791666673},{"name":"A#1","midi":34,"time":116.66676000000102,"velocity":0.8818897637795275,"duration":0.2627316916666729},{"name":"A#2","midi":46,"time":116.66676000000102,"velocity":0.8818897637795275,"duration":0.2627316916666729},{"name":"A#2","midi":46,"time":116.94453800000103,"velocity":0.8818897637795275,"duration":0.2627316916666729},{"name":"A#3","midi":58,"time":116.94453800000103,"velocity":0.8818897637795275,"duration":0.2627316916666729},{"name":"A#1","midi":34,"time":117.22231600000104,"velocity":0.8818897637795275,"duration":0.526620791666673},{"name":"A#2","midi":46,"time":117.22231600000104,"velocity":0.8818897637795275,"duration":0.526620791666673},{"name":"G#2","midi":44,"time":117.77787200000105,"velocity":0.8818897637795275,"duration":0.5266207916666588},{"name":"D#3","midi":51,"time":117.77787200000105,"velocity":0.8818897637795275,"duration":0.5266207916666588},{"name":"G#3","midi":56,"time":117.77787200000105,"velocity":0.8818897637795275,"duration":0.5266207916666588},{"name":"G#1","midi":32,"time":118.33342800000105,"velocity":0.8818897637795275,"duration":0.526620791666673},{"name":"G#2","midi":44,"time":118.33342800000105,"velocity":0.8818897637795275,"duration":0.526620791666673},{"name":"G#1","midi":32,"time":118.88898400000106,"velocity":0.8818897637795275,"duration":0.2627316916666729},{"name":"G#2","midi":44,"time":118.88898400000106,"velocity":0.8818897637795275,"duration":0.2627316916666729},{"name":"G#2","midi":44,"time":119.16676200000107,"velocity":0.8818897637795275,"duration":0.2627316916666729},{"name":"G#3","midi":56,"time":119.16676200000107,"velocity":0.8818897637795275,"duration":0.2627316916666729},{"name":"G#1","midi":32,"time":119.44454000000108,"velocity":0.8818897637795275,"duration":0.526620791666673},{"name":"G#2","midi":44,"time":119.44454000000108,"velocity":0.8818897637795275,"duration":0.526620791666673},{"name":"G#2","midi":44,"time":120.0000960000011,"velocity":0.8818897637795275,"duration":0.5266207916666588},{"name":"D#3","midi":51,"time":120.0000960000011,"velocity":0.8818897637795275,"duration":0.5266207916666588},{"name":"G#3","midi":56,"time":120.0000960000011,"velocity":0.8818897637795275,"duration":0.5266207916666588},{"name":"G#1","midi":32,"time":120.55565200000109,"velocity":0.8818897637795275,"duration":0.526620791666673},{"name":"G#2","midi":44,"time":120.55565200000109,"velocity":0.8818897637795275,"duration":0.526620791666673},{"name":"G#1","midi":32,"time":121.1112080000011,"velocity":0.8818897637795275,"duration":0.2627316916666729},{"name":"G#2","midi":44,"time":121.1112080000011,"velocity":0.8818897637795275,"duration":0.2627316916666729},{"name":"G#2","midi":44,"time":121.38898600000111,"velocity":0.8818897637795275,"duration":0.2627316916666729},{"name":"G#3","midi":56,"time":121.38898600000111,"velocity":0.8818897637795275,"duration":0.2627316916666729},{"name":"G#1","midi":32,"time":121.66676400000112,"velocity":0.8818897637795275,"duration":0.526620791666673},{"name":"G#2","midi":44,"time":121.66676400000112,"velocity":0.8818897637795275,"duration":0.526620791666673},{"name":"F#2","midi":42,"time":122.22232000000113,"velocity":0.8818897637795275,"duration":0.26273169166665866},{"name":"C#3","midi":49,"time":122.22232000000113,"velocity":0.8818897637795275,"duration":0.5266207916666588},{"name":"F#3","midi":54,"time":122.22232000000113,"velocity":0.8818897637795275,"duration":0.5266207916666588},{"name":"F#1","midi":30,"time":122.22232000000113,"velocity":0.8818897637795275,"duration":0.26273169166665866},{"name":"F#2","midi":42,"time":122.22232000000113,"velocity":0.8818897637795275,"duration":0.5266207916666588},{"name":"F#2","midi":42,"time":122.50009800000113,"velocity":0.8818897637795275,"duration":0.26273169166665866},{"name":"F#3","midi":54,"time":122.50009800000113,"velocity":0.8818897637795275,"duration":0.26273169166665866},{"name":"F#1","midi":30,"time":122.77787600000113,"velocity":0.8818897637795275,"duration":0.526620791666673},{"name":"F#2","midi":42,"time":122.77787600000113,"velocity":0.8818897637795275,"duration":0.526620791666673},{"name":"F#1","midi":30,"time":123.33343200000114,"velocity":0.8818897637795275,"duration":0.2627316916666729},{"name":"F#2","midi":42,"time":123.33343200000114,"velocity":0.8818897637795275,"duration":0.2627316916666729},{"name":"F#2","midi":42,"time":123.61121000000115,"velocity":0.8818897637795275,"duration":0.2627316916666729},{"name":"F#3","midi":54,"time":123.61121000000115,"velocity":0.8818897637795275,"duration":0.2627316916666729},{"name":"F#1","midi":30,"time":123.88898800000116,"velocity":0.8818897637795275,"duration":0.526620791666673},{"name":"F#2","midi":42,"time":123.88898800000116,"velocity":0.8818897637795275,"duration":0.526620791666673},{"name":"G#2","midi":44,"time":124.44454400000117,"velocity":0.8818897637795275,"duration":0.5266207916666588},{"name":"D#3","midi":51,"time":124.44454400000117,"velocity":0.8818897637795275,"duration":0.5266207916666588},{"name":"G#3","midi":56,"time":124.44454400000117,"velocity":0.8818897637795275,"duration":0.5266207916666588},{"name":"G#1","midi":32,"time":125.00010000000117,"velocity":0.8818897637795275,"duration":0.526620791666673},{"name":"G#2","midi":44,"time":125.00010000000117,"velocity":0.8818897637795275,"duration":0.526620791666673},{"name":"G#1","midi":32,"time":125.55565600000118,"velocity":0.8818897637795275,"duration":0.2627316916666729},{"name":"G#2","midi":44,"time":125.55565600000118,"velocity":0.8818897637795275,"duration":0.2627316916666729},{"name":"G#2","midi":44,"time":125.83343400000119,"velocity":0.8818897637795275,"duration":0.2627316916666729},{"name":"G#3","midi":56,"time":125.83343400000119,"velocity":0.8818897637795275,"duration":0.2627316916666729},{"name":"A1","midi":33,"time":126.1112120000012,"velocity":0.8818897637795275,"duration":0.526620791666673},{"name":"A2","midi":45,"time":126.1112120000012,"velocity":0.8818897637795275,"duration":0.526620791666673},{"name":"A#2","midi":46,"time":126.66676800000121,"velocity":0.8818897637795275,"duration":0.26273169166665866},{"name":"F3","midi":53,"time":126.66676800000121,"velocity":0.8818897637795275,"duration":0.5266207916666588},{"name":"A#3","midi":58,"time":126.66676800000121,"velocity":0.8818897637795275,"duration":0.5266207916666588},{"name":"A#1","midi":34,"time":126.66676800000121,"velocity":0.8818897637795275,"duration":0.26273169166665866},{"name":"A#2","midi":46,"time":126.66676800000121,"velocity":0.8818897637795275,"duration":0.5266207916666588},{"name":"A#2","midi":46,"time":126.94454600000121,"velocity":0.8818897637795275,"duration":0.26273169166665866},{"name":"A#3","midi":58,"time":126.94454600000121,"velocity":0.8818897637795275,"duration":0.26273169166665866},{"name":"A#1","midi":34,"time":127.22232400000121,"velocity":0.8818897637795275,"duration":0.526620791666673},{"name":"A#2","midi":46,"time":127.22232400000121,"velocity":0.8818897637795275,"duration":0.526620791666673},{"name":"A#1","midi":34,"time":127.77788000000122,"velocity":0.8818897637795275,"duration":0.2627316916666729},{"name":"A#2","midi":46,"time":127.77788000000122,"velocity":0.8818897637795275,"duration":0.2627316916666729},{"name":"A#2","midi":46,"time":128.05565800000122,"velocity":0.8818897637795275,"duration":0.26273169166665866},{"name":"A#3","midi":58,"time":128.05565800000122,"velocity":0.8818897637795275,"duration":0.26273169166665866},{"name":"A#1","midi":34,"time":128.3334360000012,"velocity":0.8818897637795275,"duration":0.5266207916666588},{"name":"A#2","midi":46,"time":128.3334360000012,"velocity":0.8818897637795275,"duration":0.5266207916666588},{"name":"F3","midi":53,"time":130.5556600000012,"velocity":0.8818897637795275,"duration":0.13078714166667282},{"name":"A#3","midi":58,"time":130.69454900000122,"velocity":0.8818897637795275,"duration":0.13078714166667282},{"name":"C#4","midi":61,"time":130.83343800000122,"velocity":0.8818897637795275,"duration":0.13078714166667282},{"name":"F4","midi":65,"time":130.97232700000123,"velocity":0.8818897637795275,"duration":0.13078714166667282},{"name":"D#2","midi":39,"time":131.11121600000124,"velocity":0.8818897637795275,"duration":0.2627316916666871},{"name":"A#2","midi":46,"time":131.11121600000124,"velocity":0.8818897637795275,"duration":0.5266207916666872},{"name":"D#3","midi":51,"time":131.11121600000124,"velocity":0.8818897637795275,"duration":0.5266207916666872},{"name":"D#1","midi":27,"time":131.11121600000124,"velocity":0.8818897637795275,"duration":0.2627316916666871},{"name":"D#2","midi":39,"time":131.11121600000124,"velocity":0.8818897637795275,"duration":0.5266207916666872},{"name":"D#2","midi":39,"time":131.38899400000125,"velocity":0.8818897637795275,"duration":0.2627316916666871},{"name":"D#3","midi":51,"time":131.38899400000125,"velocity":0.8818897637795275,"duration":0.2627316916666871},{"name":"D#1","midi":27,"time":131.66677200000126,"velocity":0.8818897637795275,"duration":0.5266207916666588},{"name":"D#2","midi":39,"time":131.66677200000126,"velocity":0.8818897637795275,"duration":0.5266207916666588},{"name":"D#1","midi":27,"time":132.22232800000126,"velocity":0.8818897637795275,"duration":0.26273169166665866},{"name":"D#2","midi":39,"time":132.22232800000126,"velocity":0.8818897637795275,"duration":0.26273169166665866},{"name":"D#1","midi":27,"time":132.22232800000126,"velocity":0.8818897637795275,"duration":0.5266207916666588},{"name":"D#2","midi":39,"time":132.22232800000126,"velocity":0.8818897637795275,"duration":0.5266207916666588},{"name":"D#2","midi":39,"time":132.50010600000124,"velocity":0.8818897637795275,"duration":0.2627316916666871},{"name":"D#3","midi":51,"time":132.50010600000124,"velocity":0.8818897637795275,"duration":0.2627316916666871},{"name":"D#1","midi":27,"time":132.77788400000125,"velocity":0.8818897637795275,"duration":0.5266207916666588},{"name":"D#2","midi":39,"time":132.77788400000125,"velocity":0.8818897637795275,"duration":0.5266207916666588},{"name":"A#2","midi":46,"time":133.33344000000125,"velocity":0.8818897637795275,"duration":0.2627316916666871},{"name":"F3","midi":53,"time":133.33344000000125,"velocity":0.8818897637795275,"duration":0.5266207916666872},{"name":"A#3","midi":58,"time":133.33344000000125,"velocity":0.8818897637795275,"duration":0.5266207916666872},{"name":"A#1","midi":34,"time":133.33344000000125,"velocity":0.8818897637795275,"duration":0.2627316916666871},{"name":"A#2","midi":46,"time":133.33344000000125,"velocity":0.8818897637795275,"duration":0.5266207916666872},{"name":"A#2","midi":46,"time":133.61121800000126,"velocity":0.8818897637795275,"duration":0.2627316916666871},{"name":"A#3","midi":58,"time":133.61121800000126,"velocity":0.8818897637795275,"duration":0.2627316916666871},{"name":"A#1","midi":34,"time":133.88899600000127,"velocity":0.8818897637795275,"duration":0.5266207916666588},{"name":"A#2","midi":46,"time":133.88899600000127,"velocity":0.8818897637795275,"duration":0.5266207916666588},{"name":"A#1","midi":34,"time":134.44455200000127,"velocity":0.8818897637795275,"duration":0.26273169166665866},{"name":"A#2","midi":46,"time":134.44455200000127,"velocity":0.8818897637795275,"duration":0.26273169166665866},{"name":"A#2","midi":46,"time":134.72233000000125,"velocity":0.8818897637795275,"duration":0.26273169166665866},{"name":"A#3","midi":58,"time":134.72233000000125,"velocity":0.8818897637795275,"duration":0.26273169166665866},{"name":"A#1","midi":34,"time":135.00010800000123,"velocity":0.8818897637795275,"duration":0.5266207916666588},{"name":"A#2","midi":46,"time":135.00010800000123,"velocity":0.8818897637795275,"duration":0.5266207916666588},{"name":"B2","midi":47,"time":135.55566400000123,"velocity":0.8818897637795275,"duration":0.2627316916666871},{"name":"F#3","midi":54,"time":135.55566400000123,"velocity":0.8818897637795275,"duration":0.5266207916666872},{"name":"B3","midi":59,"time":135.55566400000123,"velocity":0.8818897637795275,"duration":0.5266207916666872},{"name":"B1","midi":35,"time":135.55566400000123,"velocity":0.8818897637795275,"duration":0.2627316916666871},{"name":"B2","midi":47,"time":135.55566400000123,"velocity":0.8818897637795275,"duration":0.5266207916666872},{"name":"B2","midi":47,"time":135.83344200000124,"velocity":0.8818897637795275,"duration":0.2627316916666871},{"name":"B3","midi":59,"time":135.83344200000124,"velocity":0.8818897637795275,"duration":0.2627316916666871},{"name":"B1","midi":35,"time":136.11122000000125,"velocity":0.8818897637795275,"duration":0.5266207916666588},{"name":"B2","midi":47,"time":136.11122000000125,"velocity":0.8818897637795275,"duration":0.5266207916666588},{"name":"B1","midi":35,"time":136.66677600000125,"velocity":0.8818897637795275,"duration":0.26273169166665866},{"name":"B2","midi":47,"time":136.66677600000125,"velocity":0.8818897637795275,"duration":0.26273169166665866},{"name":"B1","midi":35,"time":136.66677600000125,"velocity":0.8818897637795275,"duration":0.5266207916666588},{"name":"B2","midi":47,"time":136.66677600000125,"velocity":0.8818897637795275,"duration":0.5266207916666588},{"name":"B2","midi":47,"time":136.94455400000123,"velocity":0.8818897637795275,"duration":0.2627316916666871},{"name":"B3","midi":59,"time":136.94455400000123,"velocity":0.8818897637795275,"duration":0.2627316916666871},{"name":"B1","midi":35,"time":137.22233200000124,"velocity":0.8818897637795275,"duration":0.5266207916666588},{"name":"B2","midi":47,"time":137.22233200000124,"velocity":0.8818897637795275,"duration":0.5266207916666588},{"name":"A2","midi":45,"time":137.77788800000124,"velocity":0.8818897637795275,"duration":0.5266207916666872},{"name":"F3","midi":53,"time":137.77788800000124,"velocity":0.8818897637795275,"duration":0.5266207916666872},{"name":"A3","midi":57,"time":137.77788800000124,"velocity":0.8818897637795275,"duration":0.5266207916666872},{"name":"A1","midi":33,"time":138.33344400000126,"velocity":0.8818897637795275,"duration":0.5266207916666588},{"name":"A2","midi":45,"time":138.33344400000126,"velocity":0.8818897637795275,"duration":0.5266207916666588},{"name":"A1","midi":33,"time":138.88900000000126,"velocity":0.8818897637795275,"duration":0.26273169166665866},{"name":"A2","midi":45,"time":138.88900000000126,"velocity":0.8818897637795275,"duration":0.26273169166665866},{"name":"A1","midi":33,"time":138.88900000000126,"velocity":0.8818897637795275,"duration":0.26273169166665866},{"name":"A2","midi":45,"time":138.88900000000126,"velocity":0.8818897637795275,"duration":0.26273169166665866},{"name":"A2","midi":45,"time":139.16677800000124,"velocity":0.8818897637795275,"duration":0.26273169166665866},{"name":"A3","midi":57,"time":139.16677800000124,"velocity":0.8818897637795275,"duration":0.26273169166665866},{"name":"A1","midi":33,"time":139.44455600000123,"velocity":0.8818897637795275,"duration":0.5266207916666588},{"name":"A2","midi":45,"time":139.44455600000123,"velocity":0.8818897637795275,"duration":0.5266207916666588},{"name":"A#2","midi":46,"time":140.00011200000122,"velocity":0.8818897637795275,"duration":0.5266207916666872},{"name":"F3","midi":53,"time":140.00011200000122,"velocity":0.8818897637795275,"duration":0.5266207916666872},{"name":"A#3","midi":58,"time":140.00011200000122,"velocity":0.8818897637795275,"duration":0.5266207916666872},{"name":"A#1","midi":34,"time":140.55566800000125,"velocity":0.8818897637795275,"duration":0.5266207916666588},{"name":"A#2","midi":46,"time":140.55566800000125,"velocity":0.8818897637795275,"duration":0.5266207916666588},{"name":"A#1","midi":34,"time":141.11122400000124,"velocity":0.8818897637795275,"duration":0.26273169166665866},{"name":"A#2","midi":46,"time":141.11122400000124,"velocity":0.8818897637795275,"duration":0.26273169166665866},{"name":"A#2","midi":46,"time":141.38900200000123,"velocity":0.8818897637795275,"duration":0.26273169166665866},{"name":"A#3","midi":58,"time":141.38900200000123,"velocity":0.8818897637795275,"duration":0.26273169166665866},{"name":"A#1","midi":34,"time":141.6667800000012,"velocity":0.8818897637795275,"duration":0.5266207916666588},{"name":"A#2","midi":46,"time":141.6667800000012,"velocity":0.8818897637795275,"duration":0.5266207916666588},{"name":"A#2","midi":46,"time":142.2223360000012,"velocity":0.8818897637795275,"duration":0.5266207916666872},{"name":"F3","midi":53,"time":142.2223360000012,"velocity":0.8818897637795275,"duration":0.5266207916666872},{"name":"A#3","midi":58,"time":142.2223360000012,"velocity":0.8818897637795275,"duration":0.5266207916666872},{"name":"A#1","midi":34,"time":142.77789200000123,"velocity":0.8818897637795275,"duration":0.5266207916666588},{"name":"A#2","midi":46,"time":142.77789200000123,"velocity":0.8818897637795275,"duration":0.5266207916666588},{"name":"A#1","midi":34,"time":143.33344800000123,"velocity":0.8818897637795275,"duration":1.054398991666659},{"name":"A#2","midi":46,"time":143.33344800000123,"velocity":0.8818897637795275,"duration":1.054398991666659},{"name":"A#1","midi":34,"time":144.44456000000122,"velocity":0.8818897637795275,"duration":0.13078714166667282},{"name":"A#1","midi":34,"time":144.58344900000122,"velocity":0.8818897637795275,"duration":0.13078714166667282},{"name":"A#2","midi":46,"time":144.72233800000123,"velocity":0.8818897637795275,"duration":0.13078714166667282},{"name":"A#1","midi":34,"time":144.86122700000124,"velocity":0.8818897637795275,"duration":0.13078714166667282},{"name":"A#1","midi":34,"time":145.00011600000124,"velocity":0.8818897637795275,"duration":0.13078714166667282},{"name":"A#1","midi":34,"time":145.13900500000125,"velocity":0.8818897637795275,"duration":0.13078714166667282},{"name":"A#2","midi":46,"time":145.27789400000125,"velocity":0.8818897637795275,"duration":0.13078714166667282},{"name":"A#1","midi":34,"time":145.41678300000126,"velocity":0.8818897637795275,"duration":0.13078714166667282},{"name":"A#1","midi":34,"time":145.55567200000127,"velocity":0.8818897637795275,"duration":0.13078714166667282},{"name":"A#1","midi":34,"time":145.69456100000127,"velocity":0.8818897637795275,"duration":0.13078714166667282},{"name":"A#2","midi":46,"time":145.83345000000128,"velocity":0.8818897637795275,"duration":0.13078714166667282},{"name":"A#1","midi":34,"time":145.97233900000128,"velocity":0.8818897637795275,"duration":0.13078714166667282},{"name":"A#1","midi":34,"time":146.1112280000013,"velocity":0.8818897637795275,"duration":0.13078714166667282},{"name":"A#1","midi":34,"time":146.2501170000013,"velocity":0.8818897637795275,"duration":0.13078714166667282},{"name":"A#2","midi":46,"time":146.3890060000013,"velocity":0.8818897637795275,"duration":0.13078714166667282},{"name":"A#1","midi":34,"time":146.5278950000013,"velocity":0.8818897637795275,"duration":0.13078714166667282},{"name":"A#1","midi":34,"time":146.66678400000131,"velocity":0.8818897637795275,"duration":0.13078714166667282},{"name":"A#1","midi":34,"time":146.80567300000132,"velocity":0.8818897637795275,"duration":0.13078714166667282},{"name":"A#2","midi":46,"time":146.94456200000133,"velocity":0.8818897637795275,"duration":0.13078714166667282},{"name":"A#1","midi":34,"time":147.08345100000133,"velocity":0.8818897637795275,"duration":0.13078714166667282},{"name":"A#1","midi":34,"time":147.22234000000134,"velocity":0.8818897637795275,"duration":0.13078714166667282},{"name":"A#1","midi":34,"time":147.36122900000134,"velocity":0.8818897637795275,"duration":0.13078714166667282},{"name":"A#2","midi":46,"time":147.50011800000135,"velocity":0.8818897637795275,"duration":0.13078714166667282},{"name":"A#1","midi":34,"time":147.63900700000136,"velocity":0.6299212598425197,"duration":0.13078714166667282},{"name":"A#1","midi":34,"time":147.77789600000136,"velocity":0.6299212598425197,"duration":0.13078714166667282},{"name":"A#1","midi":34,"time":147.91678500000137,"velocity":0.8818897637795275,"duration":0.13078714166667282},{"name":"A#2","midi":46,"time":148.05567400000137,"velocity":0.8818897637795275,"duration":0.13078714166667282},{"name":"A#1","midi":34,"time":148.19456300000138,"velocity":0.6299212598425197,"duration":0.13078714166667282},{"name":"A#1","midi":34,"time":148.3334520000014,"velocity":0.6299212598425197,"duration":0.13078714166667282},{"name":"A#1","midi":34,"time":148.4723410000014,"velocity":0.8818897637795275,"duration":0.13078714166667282},{"name":"A#2","midi":46,"time":148.6112300000014,"velocity":0.8818897637795275,"duration":0.13078714166667282},{"name":"A#1","midi":34,"time":148.7501190000014,"velocity":0.8818897637795275,"duration":0.13078714166667282},{"name":"B1","midi":35,"time":148.8890080000014,"velocity":0.8818897637795275,"duration":0.13078714166667282},{"name":"B1","midi":35,"time":149.02789700000142,"velocity":0.8818897637795275,"duration":0.13078714166667282},{"name":"B2","midi":47,"time":149.16678600000142,"velocity":0.8818897637795275,"duration":0.13078714166667282},{"name":"B1","midi":35,"time":149.30567500000143,"velocity":0.8818897637795275,"duration":0.13078714166667282},{"name":"B1","midi":35,"time":149.44456400000144,"velocity":0.8818897637795275,"duration":0.13078714166667282},{"name":"B1","midi":35,"time":149.58345300000144,"velocity":0.8818897637795275,"duration":0.13078714166667282},{"name":"B2","midi":47,"time":149.72234200000145,"velocity":0.8818897637795275,"duration":0.13078714166667282},{"name":"B1","midi":35,"time":149.86123100000145,"velocity":0.8818897637795275,"duration":0.13078714166667282},{"name":"B1","midi":35,"time":150.00012000000146,"velocity":0.8818897637795275,"duration":0.13078714166667282},{"name":"B1","midi":35,"time":150.13900900000147,"velocity":0.8818897637795275,"duration":0.13078714166667282},{"name":"B2","midi":47,"time":150.27789800000147,"velocity":0.8818897637795275,"duration":0.13078714166667282},{"name":"B1","midi":35,"time":150.41678700000148,"velocity":0.8818897637795275,"duration":0.13078714166667282},{"name":"B1","midi":35,"time":150.55567600000148,"velocity":0.8818897637795275,"duration":0.13078714166667282},{"name":"B1","midi":35,"time":150.6945650000015,"velocity":0.8818897637795275,"duration":0.13078714166667282},{"name":"B2","midi":47,"time":150.8334540000015,"velocity":0.8818897637795275,"duration":0.13078714166667282},{"name":"B1","midi":35,"time":150.9723430000015,"velocity":0.8818897637795275,"duration":0.13078714166667282},{"name":"B1","midi":35,"time":151.1112320000015,"velocity":0.8818897637795275,"duration":0.13078714166667282},{"name":"B1","midi":35,"time":151.2501210000015,"velocity":0.8818897637795275,"duration":0.13078714166667282},{"name":"B2","midi":47,"time":151.38901000000152,"velocity":0.8818897637795275,"duration":0.13078714166667282},{"name":"B1","midi":35,"time":151.52789900000153,"velocity":0.8818897637795275,"duration":0.13078714166667282},{"name":"B1","midi":35,"time":151.66678800000153,"velocity":0.8818897637795275,"duration":0.13078714166667282},{"name":"B1","midi":35,"time":151.80567700000154,"velocity":0.8818897637795275,"duration":0.13078714166667282},{"name":"B2","midi":47,"time":151.94456600000154,"velocity":0.8818897637795275,"duration":0.13078714166667282},{"name":"B1","midi":35,"time":152.08345500000155,"velocity":0.6299212598425197,"duration":0.13078714166667282},{"name":"B1","midi":35,"time":152.22234400000156,"velocity":0.6299212598425197,"duration":0.13078714166667282},{"name":"B1","midi":35,"time":152.36123300000156,"velocity":0.8818897637795275,"duration":0.13078714166667282},{"name":"B2","midi":47,"time":152.50012200000157,"velocity":0.8818897637795275,"duration":0.13078714166667282},{"name":"B1","midi":35,"time":152.63901100000157,"velocity":0.6299212598425197,"duration":0.13078714166667282},{"name":"B1","midi":35,"time":152.77790000000158,"velocity":0.6299212598425197,"duration":0.13078714166667282},{"name":"B1","midi":35,"time":152.9167890000016,"velocity":0.8818897637795275,"duration":0.13078714166667282},{"name":"B2","midi":47,"time":153.0556780000016,"velocity":0.8818897637795275,"duration":0.13078714166667282},{"name":"B1","midi":35,"time":153.1945670000016,"velocity":0.8818897637795275,"duration":0.13078714166667282},{"name":"C2","midi":36,"time":153.3334560000016,"velocity":0.8818897637795275,"duration":0.13078714166667282},{"name":"C2","midi":36,"time":153.4723450000016,"velocity":0.8818897637795275,"duration":0.13078714166667282},{"name":"C3","midi":48,"time":153.61123400000162,"velocity":0.8818897637795275,"duration":0.13078714166667282},{"name":"C2","midi":36,"time":153.75012300000162,"velocity":0.8818897637795275,"duration":0.13078714166667282},{"name":"C2","midi":36,"time":153.88901200000163,"velocity":0.8818897637795275,"duration":0.13078714166667282},{"name":"C2","midi":36,"time":154.02790100000163,"velocity":0.8818897637795275,"duration":0.13078714166667282},{"name":"C3","midi":48,"time":154.16679000000164,"velocity":0.8818897637795275,"duration":0.13078714166667282},{"name":"C2","midi":36,"time":154.30567900000165,"velocity":0.8818897637795275,"duration":0.13078714166667282},{"name":"C2","midi":36,"time":154.44456800000165,"velocity":0.8818897637795275,"duration":0.13078714166667282},{"name":"C2","midi":36,"time":154.58345700000166,"velocity":0.8818897637795275,"duration":0.13078714166667282},{"name":"C3","midi":48,"time":154.72234600000166,"velocity":0.8818897637795275,"duration":0.13078714166667282},{"name":"C2","midi":36,"time":154.86123500000167,"velocity":0.8818897637795275,"duration":0.13078714166667282},{"name":"C2","midi":36,"time":155.00012400000168,"velocity":0.8818897637795275,"duration":0.13078714166667282},{"name":"C2","midi":36,"time":155.13901300000168,"velocity":0.8818897637795275,"duration":0.13078714166667282},{"name":"C3","midi":48,"time":155.2779020000017,"velocity":0.8818897637795275,"duration":0.13078714166667282},{"name":"C2","midi":36,"time":155.4167910000017,"velocity":0.8818897637795275,"duration":0.13078714166667282},{"name":"C2","midi":36,"time":155.5556800000017,"velocity":0.8818897637795275,"duration":0.13078714166667282},{"name":"C2","midi":36,"time":155.6945690000017,"velocity":0.8818897637795275,"duration":0.13078714166667282},{"name":"C3","midi":48,"time":155.8334580000017,"velocity":0.8818897637795275,"duration":0.13078714166667282},{"name":"C2","midi":36,"time":155.97234700000172,"velocity":0.8818897637795275,"duration":0.13078714166667282},{"name":"C2","midi":36,"time":156.11123600000172,"velocity":0.8818897637795275,"duration":0.13078714166667282},{"name":"C2","midi":36,"time":156.25012500000173,"velocity":0.8818897637795275,"duration":0.13078714166667282},{"name":"C3","midi":48,"time":156.38901400000174,"velocity":0.8818897637795275,"duration":0.13078714166667282},{"name":"C2","midi":36,"time":156.52790300000174,"velocity":0.6299212598425197,"duration":0.13078714166667282},{"name":"C2","midi":36,"time":156.66679200000175,"velocity":0.6299212598425197,"duration":0.13078714166667282},{"name":"C2","midi":36,"time":156.80568100000175,"velocity":0.8818897637795275,"duration":0.13078714166667282},{"name":"C3","midi":48,"time":156.94457000000176,"velocity":0.8818897637795275,"duration":0.13078714166667282},{"name":"C2","midi":36,"time":157.08345900000177,"velocity":0.6299212598425197,"duration":0.13078714166667282},{"name":"C2","midi":36,"time":157.22234800000177,"velocity":0.6299212598425197,"duration":0.13078714166667282},{"name":"C2","midi":36,"time":157.36123700000178,"velocity":0.8818897637795275,"duration":0.13078714166667282},{"name":"C3","midi":48,"time":157.50012600000179,"velocity":0.8818897637795275,"duration":0.13078714166667282},{"name":"C2","midi":36,"time":157.6390150000018,"velocity":0.8818897637795275,"duration":0.13078714166667282},{"name":"B1","midi":35,"time":157.7779040000018,"velocity":0.8818897637795275,"duration":0.13078714166667282},{"name":"B1","midi":35,"time":157.9167930000018,"velocity":0.8818897637795275,"duration":0.13078714166667282},{"name":"B2","midi":47,"time":158.0556820000018,"velocity":0.8818897637795275,"duration":0.13078714166667282},{"name":"B1","midi":35,"time":158.19457100000182,"velocity":0.8818897637795275,"duration":0.13078714166667282},{"name":"B1","midi":35,"time":158.33346000000182,"velocity":0.8818897637795275,"duration":0.13078714166667282},{"name":"B1","midi":35,"time":158.47234900000183,"velocity":0.8818897637795275,"duration":0.13078714166667282},{"name":"B2","midi":47,"time":158.61123800000183,"velocity":0.8818897637795275,"duration":0.13078714166667282},{"name":"B1","midi":35,"time":158.75012700000184,"velocity":0.8818897637795275,"duration":0.13078714166667282},{"name":"B1","midi":35,"time":158.88901600000185,"velocity":0.8818897637795275,"duration":0.13078714166667282},{"name":"B1","midi":35,"time":159.02790500000185,"velocity":0.8818897637795275,"duration":0.13078714166667282},{"name":"B2","midi":47,"time":159.16679400000186,"velocity":0.8818897637795275,"duration":0.13078714166667282},{"name":"B1","midi":35,"time":159.30568300000186,"velocity":0.8818897637795275,"duration":0.13078714166667282},{"name":"B1","midi":35,"time":159.44457200000187,"velocity":0.8818897637795275,"duration":0.13078714166667282},{"name":"B1","midi":35,"time":159.58346100000188,"velocity":0.8818897637795275,"duration":0.13078714166667282},{"name":"B2","midi":47,"time":159.72235000000188,"velocity":0.8818897637795275,"duration":0.13078714166667282},{"name":"B1","midi":35,"time":159.8612390000019,"velocity":0.8818897637795275,"duration":0.13078714166667282},{"name":"B1","midi":35,"time":160.0001280000019,"velocity":0.8818897637795275,"duration":0.13078714166667282},{"name":"B1","midi":35,"time":160.1390170000019,"velocity":0.8818897637795275,"duration":0.13078714166667282},{"name":"B2","midi":47,"time":160.2779060000019,"velocity":0.8818897637795275,"duration":0.13078714166667282},{"name":"B1","midi":35,"time":160.4167950000019,"velocity":0.8818897637795275,"duration":0.13078714166667282},{"name":"B1","midi":35,"time":160.55568400000192,"velocity":0.8818897637795275,"duration":0.13078714166667282},{"name":"B1","midi":35,"time":160.69457300000192,"velocity":0.8818897637795275,"duration":0.13078714166667282},{"name":"B2","midi":47,"time":160.83346200000193,"velocity":0.8818897637795275,"duration":0.13078714166667282},{"name":"B1","midi":35,"time":160.97235100000194,"velocity":0.6299212598425197,"duration":0.13078714166667282},{"name":"B1","midi":35,"time":161.11124000000194,"velocity":0.6299212598425197,"duration":0.13078714166667282},{"name":"B1","midi":35,"time":161.25012900000195,"velocity":0.8818897637795275,"duration":0.13078714166667282},{"name":"B2","midi":47,"time":161.38901800000195,"velocity":0.8818897637795275,"duration":0.13078714166667282},{"name":"B1","midi":35,"time":161.52790700000196,"velocity":0.6299212598425197,"duration":0.13078714166667282},{"name":"B1","midi":35,"time":161.66679600000197,"velocity":0.6299212598425197,"duration":0.13078714166667282},{"name":"B1","midi":35,"time":161.80568500000197,"velocity":0.8818897637795275,"duration":0.13078714166667282},{"name":"B2","midi":47,"time":161.94457400000198,"velocity":0.8818897637795275,"duration":0.13078714166667282},{"name":"B1","midi":35,"time":162.08346300000198,"velocity":0.8818897637795275,"duration":0.13078714166667282},{"name":"A#1","midi":34,"time":162.222352000002,"velocity":0.8818897637795275,"duration":0.13078714166667282},{"name":"A#1","midi":34,"time":162.361241000002,"velocity":0.8818897637795275,"duration":0.13078714166667282},{"name":"A#2","midi":46,"time":162.500130000002,"velocity":0.8818897637795275,"duration":0.13078714166667282},{"name":"A#1","midi":34,"time":162.639019000002,"velocity":0.8818897637795275,"duration":0.13078714166667282},{"name":"A#1","midi":34,"time":162.77790800000201,"velocity":0.8818897637795275,"duration":0.13078714166667282},{"name":"A#1","midi":34,"time":162.91679700000202,"velocity":0.8818897637795275,"duration":0.13078714166667282},{"name":"A#2","midi":46,"time":163.05568600000203,"velocity":0.8818897637795275,"duration":0.13078714166667282},{"name":"A#1","midi":34,"time":163.19457500000203,"velocity":0.8818897637795275,"duration":0.13078714166667282},{"name":"A#1","midi":34,"time":163.33346400000204,"velocity":0.8818897637795275,"duration":0.13078714166667282},{"name":"A#1","midi":34,"time":163.47235300000204,"velocity":0.8818897637795275,"duration":0.13078714166667282},{"name":"A#2","midi":46,"time":163.61124200000205,"velocity":0.8818897637795275,"duration":0.13078714166667282},{"name":"A#1","midi":34,"time":163.75013100000206,"velocity":0.8818897637795275,"duration":0.13078714166667282},{"name":"A#1","midi":34,"time":163.88902000000206,"velocity":0.8818897637795275,"duration":0.13078714166667282},{"name":"A#1","midi":34,"time":164.02790900000207,"velocity":0.8818897637795275,"duration":0.13078714166667282},{"name":"A#2","midi":46,"time":164.16679800000207,"velocity":0.8818897637795275,"duration":0.13078714166667282},{"name":"A#1","midi":34,"time":164.30568700000208,"velocity":0.8818897637795275,"duration":0.13078714166667282},{"name":"A#1","midi":34,"time":164.4445760000021,"velocity":0.8818897637795275,"duration":0.13078714166667282},{"name":"A#1","midi":34,"time":164.5834650000021,"velocity":0.8818897637795275,"duration":0.13078714166667282},{"name":"A#2","midi":46,"time":164.7223540000021,"velocity":0.8818897637795275,"duration":0.13078714166667282},{"name":"A#1","midi":34,"time":164.8612430000021,"velocity":0.8818897637795275,"duration":0.13078714166667282},{"name":"A#1","midi":34,"time":165.0001320000021,"velocity":0.8818897637795275,"duration":0.13078714166667282},{"name":"A#1","midi":34,"time":165.13902100000212,"velocity":0.8818897637795275,"duration":0.13078714166667282},{"name":"A#2","midi":46,"time":165.27791000000212,"velocity":0.8818897637795275,"duration":0.13078714166667282},{"name":"A#1","midi":34,"time":165.41679900000213,"velocity":0.6299212598425197,"duration":0.13078714166667282},{"name":"A#1","midi":34,"time":165.55568800000214,"velocity":0.6299212598425197,"duration":0.13078714166667282},{"name":"A#1","midi":34,"time":165.69457700000214,"velocity":0.8818897637795275,"duration":0.13078714166667282},{"name":"A#2","midi":46,"time":165.83346600000215,"velocity":0.8818897637795275,"duration":0.13078714166667282},{"name":"A#1","midi":34,"time":165.97235500000215,"velocity":0.6299212598425197,"duration":0.13078714166667282},{"name":"A#1","midi":34,"time":166.11124400000216,"velocity":0.6299212598425197,"duration":0.13078714166667282},{"name":"A#1","midi":34,"time":166.25013300000217,"velocity":0.8818897637795275,"duration":0.13078714166667282},{"name":"A#2","midi":46,"time":166.38902200000217,"velocity":0.8818897637795275,"duration":0.13078714166667282},{"name":"A#1","midi":34,"time":166.52791100000218,"velocity":0.8818897637795275,"duration":0.13078714166667282},{"name":"B1","midi":35,"time":166.66680000000218,"velocity":0.8818897637795275,"duration":0.13078714166667282},{"name":"B1","midi":35,"time":166.8056890000022,"velocity":0.8818897637795275,"duration":0.13078714166667282},{"name":"B2","midi":47,"time":166.9445780000022,"velocity":0.8818897637795275,"duration":0.13078714166667282},{"name":"B1","midi":35,"time":167.0834670000022,"velocity":0.8818897637795275,"duration":0.13078714166667282},{"name":"B1","midi":35,"time":167.2223560000022,"velocity":0.8818897637795275,"duration":0.13078714166667282},{"name":"B1","midi":35,"time":167.3612450000022,"velocity":0.8818897637795275,"duration":0.13078714166667282},{"name":"B2","midi":47,"time":167.50013400000222,"velocity":0.8818897637795275,"duration":0.13078714166667282},{"name":"B1","midi":35,"time":167.63902300000223,"velocity":0.8818897637795275,"duration":0.13078714166667282},{"name":"B1","midi":35,"time":167.77791200000223,"velocity":0.8818897637795275,"duration":0.13078714166667282},{"name":"B1","midi":35,"time":167.91680100000224,"velocity":0.8818897637795275,"duration":0.13078714166667282},{"name":"B2","midi":47,"time":168.05569000000224,"velocity":0.8818897637795275,"duration":0.13078714166667282},{"name":"B1","midi":35,"time":168.19457900000225,"velocity":0.8818897637795275,"duration":0.13078714166667282},{"name":"B1","midi":35,"time":168.33346800000226,"velocity":0.8818897637795275,"duration":0.13078714166667282},{"name":"B1","midi":35,"time":168.47235700000226,"velocity":0.8818897637795275,"duration":0.13078714166667282},{"name":"B2","midi":47,"time":168.61124600000227,"velocity":0.8818897637795275,"duration":0.13078714166667282},{"name":"B1","midi":35,"time":168.75013500000227,"velocity":0.8818897637795275,"duration":0.13078714166667282},{"name":"B1","midi":35,"time":168.88902400000228,"velocity":0.8818897637795275,"duration":0.13078714166667282},{"name":"B1","midi":35,"time":169.0279130000023,"velocity":0.8818897637795275,"duration":0.13078714166667282},{"name":"B2","midi":47,"time":169.1668020000023,"velocity":0.8818897637795275,"duration":0.13078714166667282},{"name":"B1","midi":35,"time":169.3056910000023,"velocity":0.8818897637795275,"duration":0.13078714166667282},{"name":"B1","midi":35,"time":169.4445800000023,"velocity":0.8818897637795275,"duration":0.13078714166667282},{"name":"B1","midi":35,"time":169.5834690000023,"velocity":0.8818897637795275,"duration":0.13078714166667282},{"name":"B2","midi":47,"time":169.72235800000232,"velocity":0.8818897637795275,"duration":0.13078714166667282},{"name":"B1","midi":35,"time":169.86124700000232,"velocity":0.6299212598425197,"duration":0.13078714166667282},{"name":"B1","midi":35,"time":170.00013600000233,"velocity":0.6299212598425197,"duration":0.13078714166667282},{"name":"B1","midi":35,"time":170.13902500000233,"velocity":0.8818897637795275,"duration":0.13078714166667282},{"name":"B2","midi":47,"time":170.27791400000234,"velocity":0.8818897637795275,"duration":0.13078714166667282},{"name":"B1","midi":35,"time":170.41680300000235,"velocity":0.6299212598425197,"duration":0.13078714166667282},{"name":"B1","midi":35,"time":170.55569200000235,"velocity":0.6299212598425197,"duration":0.13078714166667282},{"name":"B1","midi":35,"time":170.69458100000236,"velocity":0.8818897637795275,"duration":0.13078714166667282},{"name":"B2","midi":47,"time":170.83347000000236,"velocity":0.8818897637795275,"duration":0.13078714166667282},{"name":"B1","midi":35,"time":170.97235900000237,"velocity":0.8818897637795275,"duration":0.13078714166667282},{"name":"C2","midi":36,"time":171.11124800000238,"velocity":0.8818897637795275,"duration":0.13078714166667282},{"name":"C2","midi":36,"time":171.25013700000238,"velocity":0.8818897637795275,"duration":0.13078714166667282},{"name":"C3","midi":48,"time":171.3890260000024,"velocity":0.8818897637795275,"duration":0.13078714166667282},{"name":"C2","midi":36,"time":171.5279150000024,"velocity":0.8818897637795275,"duration":0.13078714166667282},{"name":"C2","midi":36,"time":171.6668040000024,"velocity":0.8818897637795275,"duration":0.13078714166667282},{"name":"C2","midi":36,"time":171.8056930000024,"velocity":0.8818897637795275,"duration":0.13078714166667282},{"name":"C3","midi":48,"time":171.9445820000024,"velocity":0.8818897637795275,"duration":0.13078714166667282},{"name":"C2","midi":36,"time":172.08347100000242,"velocity":0.8818897637795275,"duration":0.13078714166667282},{"name":"C2","midi":36,"time":172.22236000000242,"velocity":0.8818897637795275,"duration":0.13078714166667282},{"name":"C2","midi":36,"time":172.36124900000243,"velocity":0.8818897637795275,"duration":0.13078714166667282},{"name":"C3","midi":48,"time":172.50013800000244,"velocity":0.8818897637795275,"duration":0.13078714166667282},{"name":"C2","midi":36,"time":172.63902700000244,"velocity":0.8818897637795275,"duration":0.13078714166667282},{"name":"C2","midi":36,"time":172.77791600000245,"velocity":0.8818897637795275,"duration":0.13078714166667282},{"name":"C2","midi":36,"time":172.91680500000246,"velocity":0.8818897637795275,"duration":0.13078714166667282},{"name":"C3","midi":48,"time":173.05569400000246,"velocity":0.8818897637795275,"duration":0.13078714166667282},{"name":"C2","midi":36,"time":173.19458300000247,"velocity":0.8818897637795275,"duration":0.13078714166667282},{"name":"C2","midi":36,"time":173.33347200000247,"velocity":0.8818897637795275,"duration":0.13078714166667282},{"name":"C2","midi":36,"time":173.47236100000248,"velocity":0.8818897637795275,"duration":0.13078714166667282},{"name":"C3","midi":48,"time":173.61125000000249,"velocity":0.8818897637795275,"duration":0.13078714166667282},{"name":"C2","midi":36,"time":173.7501390000025,"velocity":0.8818897637795275,"duration":0.13078714166667282},{"name":"C2","midi":36,"time":173.8890280000025,"velocity":0.8818897637795275,"duration":0.13078714166667282},{"name":"C2","midi":36,"time":174.0279170000025,"velocity":0.8818897637795275,"duration":0.13078714166667282},{"name":"C3","midi":48,"time":174.1668060000025,"velocity":0.8818897637795275,"duration":0.13078714166667282},{"name":"C2","midi":36,"time":174.30569500000252,"velocity":0.6299212598425197,"duration":0.13078714166667282},{"name":"C2","midi":36,"time":174.44458400000252,"velocity":0.6299212598425197,"duration":0.13078714166667282},{"name":"C2","midi":36,"time":174.58347300000253,"velocity":0.8818897637795275,"duration":0.13078714166667282},{"name":"C3","midi":48,"time":174.72236200000253,"velocity":0.8818897637795275,"duration":0.13078714166667282},{"name":"C2","midi":36,"time":174.86125100000254,"velocity":0.6299212598425197,"duration":0.13078714166667282},{"name":"C2","midi":36,"time":175.00014000000255,"velocity":0.6299212598425197,"duration":0.13078714166667282},{"name":"C2","midi":36,"time":175.13902900000255,"velocity":0.8818897637795275,"duration":0.13078714166667282},{"name":"C3","midi":48,"time":175.27791800000256,"velocity":0.8818897637795275,"duration":0.13078714166667282},{"name":"C2","midi":36,"time":175.41680700000256,"velocity":0.8818897637795275,"duration":0.13078714166667282},{"name":"B1","midi":35,"time":175.55569600000257,"velocity":0.8818897637795275,"duration":0.13078714166667282},{"name":"B1","midi":35,"time":175.69458500000258,"velocity":0.8818897637795275,"duration":0.13078714166667282},{"name":"B2","midi":47,"time":175.83347400000258,"velocity":0.8818897637795275,"duration":0.13078714166667282},{"name":"B1","midi":35,"time":175.9723630000026,"velocity":0.8818897637795275,"duration":0.13078714166667282},{"name":"B1","midi":35,"time":176.1112520000026,"velocity":0.8818897637795275,"duration":0.13078714166667282},{"name":"B1","midi":35,"time":176.2501410000026,"velocity":0.8818897637795275,"duration":0.13078714166667282},{"name":"B2","midi":47,"time":176.3890300000026,"velocity":0.8818897637795275,"duration":0.13078714166667282},{"name":"B1","midi":35,"time":176.5279190000026,"velocity":0.8818897637795275,"duration":0.13078714166667282},{"name":"B1","midi":35,"time":176.66680800000262,"velocity":0.8818897637795275,"duration":0.13078714166667282},{"name":"B1","midi":35,"time":176.80569700000262,"velocity":0.8818897637795275,"duration":0.13078714166667282},{"name":"B2","midi":47,"time":176.94458600000263,"velocity":0.8818897637795275,"duration":0.13078714166667282},{"name":"B1","midi":35,"time":177.08347500000264,"velocity":0.8818897637795275,"duration":0.13078714166667282},{"name":"B1","midi":35,"time":177.22236400000264,"velocity":0.8818897637795275,"duration":0.13078714166667282},{"name":"B1","midi":35,"time":177.36125300000265,"velocity":0.8818897637795275,"duration":0.13078714166667282},{"name":"B2","midi":47,"time":177.50014200000265,"velocity":0.8818897637795275,"duration":0.13078714166667282},{"name":"B1","midi":35,"time":177.63903100000266,"velocity":0.8818897637795275,"duration":0.13078714166667282},{"name":"B1","midi":35,"time":177.77792000000267,"velocity":0.8818897637795275,"duration":0.13078714166667282},{"name":"B1","midi":35,"time":177.91680900000267,"velocity":0.8818897637795275,"duration":0.13078714166667282},{"name":"B2","midi":47,"time":178.05569800000268,"velocity":0.8818897637795275,"duration":0.13078714166667282},{"name":"B1","midi":35,"time":178.19458700000268,"velocity":0.8818897637795275,"duration":0.13078714166667282},{"name":"B1","midi":35,"time":178.3334760000027,"velocity":0.8818897637795275,"duration":0.13078714166667282},{"name":"B1","midi":35,"time":178.4723650000027,"velocity":0.8818897637795275,"duration":0.13078714166667282},{"name":"B2","midi":47,"time":178.6112540000027,"velocity":0.8818897637795275,"duration":0.13078714166667282},{"name":"B1","midi":35,"time":178.7501430000027,"velocity":0.6299212598425197,"duration":0.13078714166667282},{"name":"B1","midi":35,"time":178.88903200000271,"velocity":0.6299212598425197,"duration":0.13078714166667282},{"name":"B1","midi":35,"time":179.02792100000272,"velocity":0.8818897637795275,"duration":0.13078714166667282},{"name":"B2","midi":47,"time":179.16681000000273,"velocity":0.8818897637795275,"duration":0.13078714166667282},{"name":"B1","midi":35,"time":179.30569900000273,"velocity":0.6299212598425197,"duration":0.13078714166667282},{"name":"B1","midi":35,"time":179.44458800000274,"velocity":0.6299212598425197,"duration":0.13078714166667282},{"name":"B1","midi":35,"time":179.58347700000274,"velocity":0.8818897637795275,"duration":0.13078714166667282},{"name":"B2","midi":47,"time":179.72236600000275,"velocity":0.8818897637795275,"duration":0.13078714166667282},{"name":"B1","midi":35,"time":179.86125500000276,"velocity":0.8818897637795275,"duration":0.13078714166667282},{"name":"A#1","midi":34,"time":180.00014400000276,"velocity":0.8818897637795275,"duration":0.13078714166667282},{"name":"A#1","midi":34,"time":180.00014400000276,"velocity":0.8818897637795275,"duration":0.26273169166665866},{"name":"F2","midi":41,"time":180.00014400000276,"velocity":0.8818897637795275,"duration":0.26273169166665866},{"name":"A#2","midi":46,"time":180.00014400000276,"velocity":0.8818897637795275,"duration":0.26273169166665866},{"name":"A#1","midi":34,"time":180.13903300000277,"velocity":0.8818897637795275,"duration":0.1307871416666444},{"name":"A#2","midi":46,"time":180.27792200000275,"velocity":0.8818897637795275,"duration":0.13078714166667282},{"name":"A#1","midi":34,"time":180.27792200000275,"velocity":0.8818897637795275,"duration":0.26273169166665866},{"name":"F2","midi":41,"time":180.27792200000275,"velocity":0.8818897637795275,"duration":0.26273169166665866},{"name":"A#2","midi":46,"time":180.27792200000275,"velocity":0.8818897637795275,"duration":0.26273169166665866},{"name":"A#1","midi":34,"time":180.41681100000275,"velocity":0.8818897637795275,"duration":0.1307871416666444},{"name":"A#1","midi":34,"time":180.55570000000273,"velocity":0.8818897637795275,"duration":0.13078714166667282},{"name":"A#1","midi":34,"time":180.55570000000273,"velocity":0.8818897637795275,"duration":0.13078714166667282},{"name":"F2","midi":41,"time":180.55570000000273,"velocity":0.8818897637795275,"duration":0.13078714166667282},{"name":"A#2","midi":46,"time":180.55570000000273,"velocity":0.8818897637795275,"duration":0.13078714166667282},{"name":"A#1","midi":34,"time":180.69458900000274,"velocity":0.8818897637795275,"duration":0.13078714166667282},{"name":"A#1","midi":34,"time":180.69458900000274,"velocity":0.8818897637795275,"duration":0.13078714166667282},{"name":"F2","midi":41,"time":180.69458900000274,"velocity":0.8818897637795275,"duration":0.13078714166667282},{"name":"A#2","midi":46,"time":180.69458900000274,"velocity":0.8818897637795275,"duration":0.13078714166667282},{"name":"A#2","midi":46,"time":180.83347800000274,"velocity":0.8818897637795275,"duration":0.13078714166667282},{"name":"A#1","midi":34,"time":180.83347800000274,"velocity":0.8818897637795275,"duration":0.13078714166667282},{"name":"F2","midi":41,"time":180.83347800000274,"velocity":0.8818897637795275,"duration":0.13078714166667282},{"name":"A#2","midi":46,"time":180.83347800000274,"velocity":0.8818897637795275,"duration":0.13078714166667282},{"name":"A#1","midi":34,"time":180.97236700000275,"velocity":0.8818897637795275,"duration":0.13078714166667282},{"name":"A#1","midi":34,"time":180.97236700000275,"velocity":0.8818897637795275,"duration":0.13078714166667282},{"name":"F2","midi":41,"time":180.97236700000275,"velocity":0.8818897637795275,"duration":0.13078714166667282},{"name":"A#2","midi":46,"time":180.97236700000275,"velocity":0.8818897637795275,"duration":0.13078714166667282},{"name":"A#1","midi":34,"time":181.11125600000275,"velocity":0.8818897637795275,"duration":0.13078714166667282},{"name":"A#1","midi":34,"time":181.25014500000276,"velocity":0.8818897637795275,"duration":0.13078714166667282},{"name":"A#1","midi":34,"time":181.25014500000276,"velocity":0.8818897637795275,"duration":0.13078714166667282},{"name":"F2","midi":41,"time":181.25014500000276,"velocity":0.8818897637795275,"duration":0.13078714166667282},{"name":"A#2","midi":46,"time":181.25014500000276,"velocity":0.8818897637795275,"duration":0.13078714166667282},{"name":"A#2","midi":46,"time":181.38903400000277,"velocity":0.8818897637795275,"duration":0.13078714166667282},{"name":"A#1","midi":34,"time":181.52792300000277,"velocity":0.8818897637795275,"duration":0.13078714166667282},{"name":"A#1","midi":34,"time":181.52792300000277,"velocity":0.8818897637795275,"duration":0.13078714166667282},{"name":"F2","midi":41,"time":181.52792300000277,"velocity":0.8818897637795275,"duration":0.13078714166667282},{"name":"A#2","midi":46,"time":181.52792300000277,"velocity":0.8818897637795275,"duration":0.13078714166667282},{"name":"A#1","midi":34,"time":181.66681200000278,"velocity":0.8818897637795275,"duration":0.13078714166667282},{"name":"A#2","midi":46,"time":181.66681200000278,"velocity":0.8818897637795275,"duration":0.13078714166667282},{"name":"F3","midi":53,"time":181.66681200000278,"velocity":0.8818897637795275,"duration":0.13078714166667282},{"name":"A#3","midi":58,"time":181.66681200000278,"velocity":0.8818897637795275,"duration":0.13078714166667282},{"name":"A#1","midi":34,"time":181.80570100000278,"velocity":0.8818897637795275,"duration":0.13078714166667282},{"name":"A#2","midi":46,"time":181.80570100000278,"velocity":0.8818897637795275,"duration":0.13078714166667282},{"name":"F3","midi":53,"time":181.80570100000278,"velocity":0.8818897637795275,"duration":0.13078714166667282},{"name":"A#3","midi":58,"time":181.80570100000278,"velocity":0.8818897637795275,"duration":0.13078714166667282},{"name":"A#2","midi":46,"time":181.9445900000028,"velocity":0.8818897637795275,"duration":0.13078714166667282},{"name":"A#2","midi":46,"time":181.9445900000028,"velocity":0.8818897637795275,"duration":0.26273169166665866},{"name":"F3","midi":53,"time":181.9445900000028,"velocity":0.8818897637795275,"duration":0.26273169166665866},{"name":"A#3","midi":58,"time":181.9445900000028,"velocity":0.8818897637795275,"duration":0.26273169166665866},{"name":"A#1","midi":34,"time":182.0834790000028,"velocity":0.8818897637795275,"duration":0.1307871416666444},{"name":"A#1","midi":34,"time":182.22236800000277,"velocity":0.8818897637795275,"duration":0.13078714166667282},{"name":"A#2","midi":46,"time":182.22236800000277,"velocity":0.8818897637795275,"duration":0.26273169166665866},{"name":"F3","midi":53,"time":182.22236800000277,"velocity":0.8818897637795275,"duration":0.26273169166665866},{"name":"A#3","midi":58,"time":182.22236800000277,"velocity":0.8818897637795275,"duration":0.26273169166665866},{"name":"A#1","midi":34,"time":182.36125700000278,"velocity":0.8818897637795275,"duration":0.1307871416666444},{"name":"A#2","midi":46,"time":182.50014600000276,"velocity":0.8818897637795275,"duration":0.13078714166667282},{"name":"A#2","midi":46,"time":182.50014600000276,"velocity":0.8818897637795275,"duration":0.13078714166667282},{"name":"F3","midi":53,"time":182.50014600000276,"velocity":0.8818897637795275,"duration":0.13078714166667282},{"name":"A#3","midi":58,"time":182.50014600000276,"velocity":0.8818897637795275,"duration":0.13078714166667282},{"name":"A#1","midi":34,"time":182.63903500000276,"velocity":0.8818897637795275,"duration":0.13078714166667282},{"name":"A#2","midi":46,"time":182.63903500000276,"velocity":0.8818897637795275,"duration":0.13078714166667282},{"name":"F3","midi":53,"time":182.63903500000276,"velocity":0.8818897637795275,"duration":0.13078714166667282},{"name":"A#3","midi":58,"time":182.63903500000276,"velocity":0.8818897637795275,"duration":0.13078714166667282},{"name":"A#2","midi":46,"time":182.77792400000277,"velocity":0.8818897637795275,"duration":0.13078714166667282},{"name":"F3","midi":53,"time":182.77792400000277,"velocity":0.8818897637795275,"duration":0.13078714166667282},{"name":"A#3","midi":58,"time":182.77792400000277,"velocity":0.8818897637795275,"duration":0.13078714166667282},{"name":"A#3","midi":58,"time":182.91681300000278,"velocity":0.8818897637795275,"duration":1.4502326416666733},{"name":"F4","midi":65,"time":182.91681300000278,"velocity":0.8818897637795275,"duration":1.4502326416666733},{"name":"A#4","midi":70,"time":182.91681300000278,"velocity":0.8818897637795275,"duration":1.4502326416666733},{"name":"F4","midi":65,"time":184.44459200000279,"velocity":0.8818897637795275,"duration":0.3946762416666729},{"name":"D#4","midi":63,"time":184.8612590000028,"velocity":0.8818897637795275,"duration":0.3946762416666729},{"name":"F#4","midi":66,"time":185.27792600000282,"velocity":0.8818897637795275,"duration":0.3946762416666729},{"name":"C#4","midi":61,"time":185.69459300000284,"velocity":0.8818897637795275,"duration":0.13078714166667282},{"name":"A#3","midi":58,"time":185.83348200000285,"velocity":0.8818897637795275,"duration":0.13078714166667282},{"name":"F4","midi":65,"time":185.97237100000285,"velocity":0.8818897637795275,"duration":0.13078714166667282},{"name":"C#4","midi":61,"time":186.11126000000286,"velocity":0.8818897637795275,"duration":0.13078714166667282},{"name":"A#3","midi":58,"time":186.25014900000286,"velocity":0.8818897637795275,"duration":0.13078714166667282},{"name":"C#4","midi":61,"time":186.38903800000287,"velocity":0.8818897637795275,"duration":0.0648148666666657},{"name":"A#3","midi":58,"time":186.45848250000287,"velocity":0.8818897637795275,"duration":0.0648148666666657},{"name":"F3","midi":53,"time":186.52792700000288,"velocity":0.8818897637795275,"duration":0.0648148666666657},{"name":"A#3","midi":58,"time":186.59737150000288,"velocity":0.8818897637795275,"duration":0.0648148666666657},{"name":"F3","midi":53,"time":186.66681600000288,"velocity":0.8818897637795275,"duration":0.13078714166667282},{"name":"C#3","midi":49,"time":186.8057050000029,"velocity":0.8818897637795275,"duration":0.13078714166667282},{"name":"A#3","midi":58,"time":186.9445940000029,"velocity":0.8818897637795275,"duration":0.13078714166667282},{"name":"F3","midi":53,"time":187.0834830000029,"velocity":0.8818897637795275,"duration":0.13078714166667282},{"name":"A#2","midi":46,"time":187.2223720000029,"velocity":0.8818897637795275,"duration":0.13078714166667282},{"name":"F2","midi":41,"time":187.3612610000029,"velocity":0.8818897637795275,"duration":0.3946762416666729},{"name":"A#1","midi":34,"time":189.44459600000292,"velocity":0.7559055118110236,"duration":0.5266207916666872},{"name":"F2","midi":41,"time":189.44459600000292,"velocity":0.7559055118110236,"duration":0.5266207916666872},{"name":"A#2","midi":46,"time":189.44459600000292,"velocity":0.7559055118110236,"duration":0.5266207916666872},{"name":"A#2","midi":46,"time":190.00015200000294,"velocity":0.7559055118110236,"duration":0.5266207916666588},{"name":"F3","midi":53,"time":190.00015200000294,"velocity":0.7559055118110236,"duration":0.5266207916666588},{"name":"A#3","midi":58,"time":190.00015200000294,"velocity":0.7559055118110236,"duration":0.5266207916666588},{"name":"A#2","midi":46,"time":190.55570800000294,"velocity":0.7559055118110236,"duration":0.5266207916666588},{"name":"F3","midi":53,"time":190.55570800000294,"velocity":0.7559055118110236,"duration":0.5266207916666588},{"name":"A#3","midi":58,"time":190.55570800000294,"velocity":0.7559055118110236,"duration":0.5266207916666588},{"name":"A#1","midi":34,"time":191.11126400000293,"velocity":0.7559055118110236,"duration":0.5266207916666872},{"name":"F2","midi":41,"time":191.11126400000293,"velocity":0.7559055118110236,"duration":0.5266207916666872},{"name":"A#2","midi":46,"time":191.11126400000293,"velocity":0.7559055118110236,"duration":0.5266207916666872},{"name":"A#2","midi":46,"time":191.66682000000296,"velocity":0.7559055118110236,"duration":0.5266207916666588},{"name":"F3","midi":53,"time":191.66682000000296,"velocity":0.7559055118110236,"duration":0.5266207916666588},{"name":"A#3","midi":58,"time":191.66682000000296,"velocity":0.7559055118110236,"duration":0.5266207916666588},{"name":"A#2","midi":46,"time":192.22237600000295,"velocity":0.7559055118110236,"duration":0.5266207916666588},{"name":"F3","midi":53,"time":192.22237600000295,"velocity":0.7559055118110236,"duration":0.5266207916666588},{"name":"C4","midi":60,"time":192.22237600000295,"velocity":0.7559055118110236,"duration":0.5266207916666588},{"name":"A#1","midi":34,"time":192.77793200000295,"velocity":0.7559055118110236,"duration":0.5266207916666872},{"name":"F2","midi":41,"time":192.77793200000295,"velocity":0.7559055118110236,"duration":0.5266207916666872},{"name":"A#2","midi":46,"time":192.77793200000295,"velocity":0.7559055118110236,"duration":0.5266207916666872},{"name":"A#2","midi":46,"time":193.33348800000297,"velocity":0.7559055118110236,"duration":0.5266207916666588},{"name":"F3","midi":53,"time":193.33348800000297,"velocity":0.7559055118110236,"duration":0.5266207916666588},{"name":"A#3","midi":58,"time":193.33348800000297,"velocity":0.7559055118110236,"duration":0.5266207916666588},{"name":"A#2","midi":46,"time":193.88904400000297,"velocity":0.7559055118110236,"duration":0.5266207916666588},{"name":"F3","midi":53,"time":193.88904400000297,"velocity":0.7559055118110236,"duration":0.5266207916666588},{"name":"A#3","midi":58,"time":193.88904400000297,"velocity":0.7559055118110236,"duration":0.5266207916666588},{"name":"A#1","midi":34,"time":194.44460000000296,"velocity":0.7559055118110236,"duration":0.5266207916666872},{"name":"F2","midi":41,"time":194.44460000000296,"velocity":0.7559055118110236,"duration":0.5266207916666872},{"name":"A#2","midi":46,"time":194.44460000000296,"velocity":0.7559055118110236,"duration":0.5266207916666872},{"name":"A#2","midi":46,"time":195.000156000003,"velocity":0.7559055118110236,"duration":0.5266207916666588},{"name":"F3","midi":53,"time":195.000156000003,"velocity":0.7559055118110236,"duration":0.5266207916666588},{"name":"A#3","midi":58,"time":195.000156000003,"velocity":0.7559055118110236,"duration":0.5266207916666588},{"name":"A#2","midi":46,"time":195.55571200000298,"velocity":0.7559055118110236,"duration":0.5266207916666588},{"name":"F3","midi":53,"time":195.55571200000298,"velocity":0.7559055118110236,"duration":0.5266207916666588},{"name":"C4","midi":60,"time":195.55571200000298,"velocity":0.7559055118110236,"duration":0.5266207916666588},{"name":"G1","midi":31,"time":196.11126800000298,"velocity":0.7559055118110236,"duration":0.5266207916666872},{"name":"G2","midi":43,"time":196.11126800000298,"velocity":0.7559055118110236,"duration":0.5266207916666872},{"name":"G3","midi":55,"time":196.666824000003,"velocity":0.7559055118110236,"duration":0.5266207916666588},{"name":"D4","midi":62,"time":196.666824000003,"velocity":0.7559055118110236,"duration":0.5266207916666588},{"name":"G2","midi":43,"time":197.222380000003,"velocity":0.7559055118110236,"duration":0.5266207916666588},{"name":"D3","midi":50,"time":197.222380000003,"velocity":0.7559055118110236,"duration":0.5266207916666588},{"name":"G1","midi":31,"time":197.777936000003,"velocity":0.7559055118110236,"duration":0.5266207916666872},{"name":"G2","midi":43,"time":197.777936000003,"velocity":0.7559055118110236,"duration":0.5266207916666872},{"name":"D3","midi":50,"time":198.33349200000302,"velocity":0.7559055118110236,"duration":0.5266207916666588},{"name":"A3","midi":57,"time":198.33349200000302,"velocity":0.7559055118110236,"duration":0.5266207916666588},{"name":"D3","midi":50,"time":198.88904800000302,"velocity":0.7559055118110236,"duration":0.5266207916666588},{"name":"G3","midi":55,"time":198.88904800000302,"velocity":0.7559055118110236,"duration":0.5266207916666588},{"name":"G1","midi":31,"time":199.444604000003,"velocity":0.7559055118110236,"duration":0.5266207916666872},{"name":"G2","midi":43,"time":199.444604000003,"velocity":0.7559055118110236,"duration":0.5266207916666872},{"name":"G3","midi":55,"time":200.00016000000304,"velocity":0.7559055118110236,"duration":0.5266207916666588},{"name":"D4","midi":62,"time":200.00016000000304,"velocity":0.7559055118110236,"duration":0.5266207916666588},{"name":"G2","midi":43,"time":200.55571600000303,"velocity":0.7559055118110236,"duration":0.5266207916666588},{"name":"D3","midi":50,"time":200.55571600000303,"velocity":0.7559055118110236,"duration":0.5266207916666588},{"name":"G1","midi":31,"time":201.11127200000303,"velocity":0.7559055118110236,"duration":0.5266207916666872},{"name":"G2","midi":43,"time":201.11127200000303,"velocity":0.7559055118110236,"duration":0.5266207916666872},{"name":"D3","midi":50,"time":201.66682800000305,"velocity":0.7559055118110236,"duration":0.5266207916666588},{"name":"A3","midi":57,"time":201.66682800000305,"velocity":0.7559055118110236,"duration":0.5266207916666588},{"name":"D3","midi":50,"time":202.22238400000305,"velocity":0.7559055118110236,"duration":0.5266207916666588},{"name":"G3","midi":55,"time":202.22238400000305,"velocity":0.7559055118110236,"duration":0.5266207916666588},{"name":"D#2","midi":39,"time":202.77794000000304,"velocity":0.7559055118110236,"duration":0.5266207916666872},{"name":"A#2","midi":46,"time":202.77794000000304,"velocity":0.7559055118110236,"duration":0.5266207916666872},{"name":"D#3","midi":51,"time":202.77794000000304,"velocity":0.7559055118110236,"duration":0.5266207916666872},{"name":"D#3","midi":51,"time":203.33349600000307,"velocity":0.7559055118110236,"duration":0.5266207916666588},{"name":"A#3","midi":58,"time":203.33349600000307,"velocity":0.7559055118110236,"duration":0.5266207916666588},{"name":"D#3","midi":51,"time":203.88905200000306,"velocity":0.7559055118110236,"duration":0.5266207916666588},{"name":"A#3","midi":58,"time":203.88905200000306,"velocity":0.7559055118110236,"duration":0.5266207916666588},{"name":"D#2","midi":39,"time":204.44460800000306,"velocity":0.7559055118110236,"duration":0.5266207916666872},{"name":"A#2","midi":46,"time":204.44460800000306,"velocity":0.7559055118110236,"duration":0.5266207916666872},{"name":"D#3","midi":51,"time":204.44460800000306,"velocity":0.7559055118110236,"duration":0.5266207916666872},{"name":"F3","midi":53,"time":205.00016400000308,"velocity":0.7559055118110236,"duration":0.5266207916666588},{"name":"A#3","midi":58,"time":205.00016400000308,"velocity":0.7559055118110236,"duration":0.5266207916666588},{"name":"C3","midi":48,"time":205.55572000000308,"velocity":0.7559055118110236,"duration":0.5266207916666588},{"name":"F3","midi":53,"time":205.55572000000308,"velocity":0.7559055118110236,"duration":0.5266207916666588},{"name":"D#2","midi":39,"time":206.11127600000307,"velocity":0.7559055118110236,"duration":0.5266207916666872},{"name":"A#2","midi":46,"time":206.11127600000307,"velocity":0.7559055118110236,"duration":0.5266207916666872},{"name":"D#3","midi":51,"time":206.11127600000307,"velocity":0.7559055118110236,"duration":0.5266207916666872},{"name":"D#3","midi":51,"time":206.6668320000031,"velocity":0.7559055118110236,"duration":0.5266207916666588},{"name":"A#3","midi":58,"time":206.6668320000031,"velocity":0.7559055118110236,"duration":0.5266207916666588},{"name":"D#3","midi":51,"time":207.2223880000031,"velocity":0.7559055118110236,"duration":0.5266207916666588},{"name":"A#3","midi":58,"time":207.2223880000031,"velocity":0.7559055118110236,"duration":0.5266207916666588},{"name":"D#2","midi":39,"time":207.7779440000031,"velocity":0.7559055118110236,"duration":0.5266207916666872},{"name":"A#2","midi":46,"time":207.7779440000031,"velocity":0.7559055118110236,"duration":0.5266207916666872},{"name":"D#3","midi":51,"time":207.7779440000031,"velocity":0.7559055118110236,"duration":0.5266207916666872},{"name":"F3","midi":53,"time":208.3335000000031,"velocity":0.7559055118110236,"duration":0.5266207916666588},{"name":"A#3","midi":58,"time":208.3335000000031,"velocity":0.7559055118110236,"duration":0.5266207916666588},{"name":"C3","midi":48,"time":208.8890560000031,"velocity":0.7559055118110236,"duration":0.5266207916666588},{"name":"F3","midi":53,"time":208.8890560000031,"velocity":0.7559055118110236,"duration":0.5266207916666588},{"name":"F2","midi":41,"time":209.4446120000031,"velocity":0.7559055118110236,"duration":0.5266207916666872},{"name":"C3","midi":48,"time":209.4446120000031,"velocity":0.7559055118110236,"duration":0.5266207916666872},{"name":"F3","midi":53,"time":209.4446120000031,"velocity":0.7559055118110236,"duration":0.5266207916666872},{"name":"F3","midi":53,"time":210.00016800000313,"velocity":0.7559055118110236,"duration":0.5266207916666588},{"name":"C4","midi":60,"time":210.00016800000313,"velocity":0.7559055118110236,"duration":0.5266207916666588},{"name":"F3","midi":53,"time":210.55572400000312,"velocity":0.7559055118110236,"duration":0.5266207916666588},{"name":"C4","midi":60,"time":210.55572400000312,"velocity":0.7559055118110236,"duration":0.5266207916666588},{"name":"F2","midi":41,"time":211.11128000000312,"velocity":0.7559055118110236,"duration":0.5266207916666872},{"name":"C3","midi":48,"time":211.11128000000312,"velocity":0.7559055118110236,"duration":0.5266207916666872},{"name":"F3","midi":53,"time":211.11128000000312,"velocity":0.7559055118110236,"duration":0.5266207916666872},{"name":"F3","midi":53,"time":211.66683600000314,"velocity":0.7559055118110236,"duration":0.5266207916666588},{"name":"C4","midi":60,"time":211.66683600000314,"velocity":0.7559055118110236,"duration":0.5266207916666588},{"name":"C3","midi":48,"time":212.22239200000314,"velocity":0.7559055118110236,"duration":0.5266207916666588},{"name":"G3","midi":55,"time":212.22239200000314,"velocity":0.7559055118110236,"duration":0.5266207916666588},{"name":"F2","midi":41,"time":212.77794800000314,"velocity":0.7559055118110236,"duration":0.5266207916666872},{"name":"C3","midi":48,"time":212.77794800000314,"velocity":0.7559055118110236,"duration":0.5266207916666872},{"name":"F3","midi":53,"time":212.77794800000314,"velocity":0.7559055118110236,"duration":0.5266207916666872},{"name":"F3","midi":53,"time":213.33350400000316,"velocity":0.7559055118110236,"duration":0.5266207916666588},{"name":"C4","midi":60,"time":213.33350400000316,"velocity":0.7559055118110236,"duration":0.5266207916666588},{"name":"F3","midi":53,"time":213.88906000000316,"velocity":0.7559055118110236,"duration":0.5266207916666588},{"name":"C4","midi":60,"time":213.88906000000316,"velocity":0.7559055118110236,"duration":0.5266207916666588},{"name":"F2","midi":41,"time":214.44461600000315,"velocity":0.7559055118110236,"duration":0.5266207916666872},{"name":"C3","midi":48,"time":214.44461600000315,"velocity":0.7559055118110236,"duration":0.5266207916666872},{"name":"F3","midi":53,"time":214.44461600000315,"velocity":0.7559055118110236,"duration":0.5266207916666872},{"name":"F3","midi":53,"time":215.00017200000318,"velocity":0.7559055118110236,"duration":0.5266207916666588},{"name":"C4","midi":60,"time":215.00017200000318,"velocity":0.7559055118110236,"duration":0.5266207916666588},{"name":"C3","midi":48,"time":215.55572800000317,"velocity":0.7559055118110236,"duration":0.5266207916666588},{"name":"G3","midi":55,"time":215.55572800000317,"velocity":0.7559055118110236,"duration":0.5266207916666588},{"name":"A#1","midi":34,"time":216.11128400000317,"velocity":0.6299212598425197,"duration":0.5266207916666872},{"name":"F2","midi":41,"time":216.11128400000317,"velocity":0.6299212598425197,"duration":0.5266207916666872},{"name":"A#2","midi":46,"time":216.11128400000317,"velocity":0.6299212598425197,"duration":0.5266207916666872},{"name":"A#2","midi":46,"time":216.6668400000032,"velocity":0.6299212598425197,"duration":0.5266207916666588},{"name":"F3","midi":53,"time":216.6668400000032,"velocity":0.6299212598425197,"duration":0.5266207916666588},{"name":"A#3","midi":58,"time":216.6668400000032,"velocity":0.6299212598425197,"duration":0.5266207916666588},{"name":"A#2","midi":46,"time":217.2223960000032,"velocity":0.6299212598425197,"duration":0.5266207916666588},{"name":"F3","midi":53,"time":217.2223960000032,"velocity":0.6299212598425197,"duration":0.5266207916666588},{"name":"A#3","midi":58,"time":217.2223960000032,"velocity":0.6299212598425197,"duration":0.5266207916666588},{"name":"A#1","midi":34,"time":217.77795200000318,"velocity":0.6299212598425197,"duration":0.5266207916666872},{"name":"F2","midi":41,"time":217.77795200000318,"velocity":0.6299212598425197,"duration":0.5266207916666872},{"name":"A#2","midi":46,"time":217.77795200000318,"velocity":0.6299212598425197,"duration":0.5266207916666872},{"name":"A#2","midi":46,"time":218.3335080000032,"velocity":0.6299212598425197,"duration":0.5266207916666588},{"name":"F3","midi":53,"time":218.3335080000032,"velocity":0.6299212598425197,"duration":0.5266207916666588},{"name":"A#3","midi":58,"time":218.3335080000032,"velocity":0.6299212598425197,"duration":0.5266207916666588},{"name":"A#2","midi":46,"time":218.8890640000032,"velocity":0.6299212598425197,"duration":0.5266207916666588},{"name":"F3","midi":53,"time":218.8890640000032,"velocity":0.6299212598425197,"duration":0.5266207916666588},{"name":"C4","midi":60,"time":218.8890640000032,"velocity":0.6299212598425197,"duration":0.5266207916666588},{"name":"A#1","midi":34,"time":219.4446200000032,"velocity":0.6299212598425197,"duration":0.5266207916666872},{"name":"F2","midi":41,"time":219.4446200000032,"velocity":0.6299212598425197,"duration":0.5266207916666872},{"name":"A#2","midi":46,"time":219.4446200000032,"velocity":0.6299212598425197,"duration":0.5266207916666872},{"name":"A#2","midi":46,"time":220.00017600000322,"velocity":0.6299212598425197,"duration":0.5266207916666588},{"name":"F3","midi":53,"time":220.00017600000322,"velocity":0.6299212598425197,"duration":0.5266207916666588},{"name":"A#3","midi":58,"time":220.00017600000322,"velocity":0.6299212598425197,"duration":0.5266207916666588},{"name":"A#2","midi":46,"time":220.55573200000322,"velocity":0.6299212598425197,"duration":0.5266207916666588},{"name":"F3","midi":53,"time":220.55573200000322,"velocity":0.6299212598425197,"duration":0.5266207916666588},{"name":"A#3","midi":58,"time":220.55573200000322,"velocity":0.6299212598425197,"duration":0.5266207916666588},{"name":"A#1","midi":34,"time":221.1112880000032,"velocity":0.6299212598425197,"duration":0.5266207916666872},{"name":"F2","midi":41,"time":221.1112880000032,"velocity":0.6299212598425197,"duration":0.5266207916666872},{"name":"A#2","midi":46,"time":221.1112880000032,"velocity":0.6299212598425197,"duration":0.5266207916666872},{"name":"A#2","midi":46,"time":221.66684400000324,"velocity":0.6299212598425197,"duration":0.5266207916666588},{"name":"F3","midi":53,"time":221.66684400000324,"velocity":0.6299212598425197,"duration":0.5266207916666588},{"name":"A#3","midi":58,"time":221.66684400000324,"velocity":0.6299212598425197,"duration":0.5266207916666588},{"name":"A#2","midi":46,"time":222.22240000000323,"velocity":0.6299212598425197,"duration":0.5266207916666588},{"name":"F3","midi":53,"time":222.22240000000323,"velocity":0.6299212598425197,"duration":0.5266207916666588},{"name":"C4","midi":60,"time":222.22240000000323,"velocity":0.6299212598425197,"duration":0.5266207916666588},{"name":"E2","midi":40,"time":222.77795600000323,"velocity":0.6299212598425197,"duration":0.5266207916666872},{"name":"E3","midi":52,"time":222.77795600000323,"velocity":0.6299212598425197,"duration":0.5266207916666872},{"name":"E3","midi":52,"time":223.33351200000325,"velocity":0.6299212598425197,"duration":0.5266207916666588},{"name":"B3","midi":59,"time":223.33351200000325,"velocity":0.6299212598425197,"duration":0.5266207916666588},{"name":"E3","midi":52,"time":223.88906800000325,"velocity":0.6299212598425197,"duration":0.5266207916666588},{"name":"B3","midi":59,"time":223.88906800000325,"velocity":0.6299212598425197,"duration":0.5266207916666588},{"name":"E2","midi":40,"time":224.44462400000324,"velocity":0.6299212598425197,"duration":0.5266207916666872},{"name":"E3","midi":52,"time":224.44462400000324,"velocity":0.6299212598425197,"duration":0.5266207916666872},{"name":"B2","midi":47,"time":225.00018000000327,"velocity":0.6299212598425197,"duration":0.5266207916666588},{"name":"E3","midi":52,"time":225.00018000000327,"velocity":0.6299212598425197,"duration":0.5266207916666588},{"name":"B2","midi":47,"time":225.55573600000326,"velocity":0.6299212598425197,"duration":0.5266207916666588},{"name":"E3","midi":52,"time":225.55573600000326,"velocity":0.6299212598425197,"duration":0.5266207916666588},{"name":"F2","midi":41,"time":226.11129200000326,"velocity":0.6299212598425197,"duration":0.5266207916666872},{"name":"F3","midi":53,"time":226.11129200000326,"velocity":0.6299212598425197,"duration":0.5266207916666872},{"name":"F3","midi":53,"time":226.66684800000328,"velocity":0.6299212598425197,"duration":0.5266207916666588},{"name":"C4","midi":60,"time":226.66684800000328,"velocity":0.6299212598425197,"duration":0.5266207916666588},{"name":"F3","midi":53,"time":227.22240400000328,"velocity":0.6299212598425197,"duration":0.5266207916666588},{"name":"C4","midi":60,"time":227.22240400000328,"velocity":0.6299212598425197,"duration":0.5266207916666588},{"name":"F2","midi":41,"time":227.77796000000328,"velocity":0.6299212598425197,"duration":0.5266207916666872},{"name":"F3","midi":53,"time":227.77796000000328,"velocity":0.6299212598425197,"duration":0.5266207916666872},{"name":"F3","midi":53,"time":228.3335160000033,"velocity":0.6299212598425197,"duration":0.5266207916666588},{"name":"C4","midi":60,"time":228.3335160000033,"velocity":0.6299212598425197,"duration":0.5266207916666588},{"name":"F3","midi":53,"time":228.8890720000033,"velocity":0.6299212598425197,"duration":0.5266207916666588},{"name":"C4","midi":60,"time":228.8890720000033,"velocity":0.6299212598425197,"duration":0.5266207916666588},{"name":"A#1","midi":34,"time":229.4446280000033,"velocity":0.6299212598425197,"duration":0.5266207916666872},{"name":"F2","midi":41,"time":229.4446280000033,"velocity":0.6299212598425197,"duration":0.5266207916666872},{"name":"A#2","midi":46,"time":229.4446280000033,"velocity":0.6299212598425197,"duration":0.5266207916666872},{"name":"A#2","midi":46,"time":230.00018400000332,"velocity":0.6299212598425197,"duration":0.5266207916666588},{"name":"F3","midi":53,"time":230.00018400000332,"velocity":0.6299212598425197,"duration":0.5266207916666588},{"name":"A#3","midi":58,"time":230.00018400000332,"velocity":0.6299212598425197,"duration":0.5266207916666588},{"name":"A#2","midi":46,"time":230.5557400000033,"velocity":0.6299212598425197,"duration":0.5266207916666588},{"name":"F3","midi":53,"time":230.5557400000033,"velocity":0.6299212598425197,"duration":0.5266207916666588},{"name":"A#3","midi":58,"time":230.5557400000033,"velocity":0.6299212598425197,"duration":0.5266207916666588},{"name":"A#1","midi":34,"time":231.1112960000033,"velocity":0.6299212598425197,"duration":0.5266207916666872},{"name":"F2","midi":41,"time":231.1112960000033,"velocity":0.6299212598425197,"duration":0.5266207916666872},{"name":"A#2","midi":46,"time":231.1112960000033,"velocity":0.6299212598425197,"duration":0.5266207916666872},{"name":"A#2","midi":46,"time":231.66685200000333,"velocity":0.6299212598425197,"duration":0.5266207916666588},{"name":"F3","midi":53,"time":231.66685200000333,"velocity":0.6299212598425197,"duration":0.5266207916666588},{"name":"A#3","midi":58,"time":231.66685200000333,"velocity":0.6299212598425197,"duration":0.5266207916666588},{"name":"A#2","midi":46,"time":232.22240800000333,"velocity":0.6299212598425197,"duration":0.5266207916666588},{"name":"F3","midi":53,"time":232.22240800000333,"velocity":0.6299212598425197,"duration":0.5266207916666588},{"name":"A#3","midi":58,"time":232.22240800000333,"velocity":0.6299212598425197,"duration":0.5266207916666588},{"name":"A#1","midi":34,"time":232.77796400000332,"velocity":0.6299212598425197,"duration":0.5266207916666872},{"name":"F2","midi":41,"time":232.77796400000332,"velocity":0.6299212598425197,"duration":0.5266207916666872},{"name":"A#2","midi":46,"time":232.77796400000332,"velocity":0.6299212598425197,"duration":0.5266207916666872},{"name":"A#2","midi":46,"time":233.33352000000335,"velocity":0.6299212598425197,"duration":0.5266207916666588},{"name":"F3","midi":53,"time":233.33352000000335,"velocity":0.6299212598425197,"duration":0.5266207916666588},{"name":"A#3","midi":58,"time":233.33352000000335,"velocity":0.6299212598425197,"duration":0.5266207916666588},{"name":"A#2","midi":46,"time":233.88907600000334,"velocity":0.6299212598425197,"duration":0.5266207916666588},{"name":"F3","midi":53,"time":233.88907600000334,"velocity":0.6299212598425197,"duration":0.5266207916666588},{"name":"A#3","midi":58,"time":233.88907600000334,"velocity":0.6299212598425197,"duration":0.5266207916666588},{"name":"A#1","midi":34,"time":234.44463200000334,"velocity":0.6299212598425197,"duration":0.5266207916666872},{"name":"F2","midi":41,"time":234.44463200000334,"velocity":0.6299212598425197,"duration":0.5266207916666872},{"name":"A#2","midi":46,"time":234.44463200000334,"velocity":0.6299212598425197,"duration":0.5266207916666872},{"name":"A#2","midi":46,"time":235.00018800000336,"velocity":0.6299212598425197,"duration":0.5266207916666588},{"name":"F3","midi":53,"time":235.00018800000336,"velocity":0.6299212598425197,"duration":0.5266207916666588},{"name":"A#3","midi":58,"time":235.00018800000336,"velocity":0.6299212598425197,"duration":0.5266207916666588},{"name":"A#2","midi":46,"time":235.55574400000336,"velocity":0.6299212598425197,"duration":0.5266207916666588},{"name":"F3","midi":53,"time":235.55574400000336,"velocity":0.6299212598425197,"duration":0.5266207916666588},{"name":"A#3","midi":58,"time":235.55574400000336,"velocity":0.6299212598425197,"duration":0.5266207916666588},{"name":"E2","midi":40,"time":236.11130000000335,"velocity":0.6299212598425197,"duration":0.5266207916666872},{"name":"E3","midi":52,"time":236.11130000000335,"velocity":0.6299212598425197,"duration":0.5266207916666872},{"name":"E3","midi":52,"time":236.66685600000338,"velocity":0.6299212598425197,"duration":0.5266207916666588},{"name":"B3","midi":59,"time":236.66685600000338,"velocity":0.6299212598425197,"duration":0.5266207916666588},{"name":"E3","midi":52,"time":237.22241200000337,"velocity":0.6299212598425197,"duration":0.5266207916666588},{"name":"B3","midi":59,"time":237.22241200000337,"velocity":0.6299212598425197,"duration":0.5266207916666588},{"name":"E2","midi":40,"time":237.77796800000337,"velocity":0.6299212598425197,"duration":0.5266207916666872},{"name":"E3","midi":52,"time":237.77796800000337,"velocity":0.6299212598425197,"duration":0.5266207916666872},{"name":"B2","midi":47,"time":238.3335240000034,"velocity":0.6299212598425197,"duration":0.5266207916666588},{"name":"E3","midi":52,"time":238.3335240000034,"velocity":0.6299212598425197,"duration":0.5266207916666588},{"name":"B2","midi":47,"time":238.8890800000034,"velocity":0.6299212598425197,"duration":0.5266207916666588},{"name":"E3","midi":52,"time":238.8890800000034,"velocity":0.6299212598425197,"duration":0.5266207916666588},{"name":"F2","midi":41,"time":239.44463600000338,"velocity":0.6299212598425197,"duration":0.5266207916666872},{"name":"F3","midi":53,"time":239.44463600000338,"velocity":0.6299212598425197,"duration":0.5266207916666872},{"name":"F3","midi":53,"time":240.0001920000034,"velocity":0.6299212598425197,"duration":0.5266207916666588},{"name":"C4","midi":60,"time":240.0001920000034,"velocity":0.6299212598425197,"duration":0.5266207916666588},{"name":"F3","midi":53,"time":240.5557480000034,"velocity":0.6299212598425197,"duration":0.5266207916666588},{"name":"C4","midi":60,"time":240.5557480000034,"velocity":0.6299212598425197,"duration":0.5266207916666588},{"name":"F2","midi":41,"time":241.1113040000034,"velocity":0.6299212598425197,"duration":0.5266207916666872},{"name":"F3","midi":53,"time":241.1113040000034,"velocity":0.6299212598425197,"duration":0.5266207916666872},{"name":"F3","midi":53,"time":241.66686000000342,"velocity":0.6299212598425197,"duration":0.5266207916666588},{"name":"C4","midi":60,"time":241.66686000000342,"velocity":0.6299212598425197,"duration":0.5266207916666588},{"name":"F3","midi":53,"time":242.22241600000342,"velocity":0.6299212598425197,"duration":0.5266207916666588},{"name":"C4","midi":60,"time":242.22241600000342,"velocity":0.6299212598425197,"duration":0.5266207916666588},{"name":"A#2","midi":46,"time":242.77797200000342,"velocity":0.6299212598425197,"duration":0.5266207916666872},{"name":"F3","midi":53,"time":242.77797200000342,"velocity":0.6299212598425197,"duration":0.5266207916666872},{"name":"A#3","midi":58,"time":242.77797200000342,"velocity":0.6299212598425197,"duration":0.5266207916666872},{"name":"A#1","midi":34,"time":243.33352800000344,"velocity":0.6299212598425197,"duration":0.5266207916666588},{"name":"A#2","midi":46,"time":243.33352800000344,"velocity":0.6299212598425197,"duration":0.5266207916666588},{"name":"F3","midi":53,"time":243.33352800000344,"velocity":0.6299212598425197,"duration":0.5266207916666588},{"name":"A#1","midi":34,"time":243.88908400000344,"velocity":0.6299212598425197,"duration":0.5266207916666588},{"name":"A#2","midi":46,"time":243.88908400000344,"velocity":0.6299212598425197,"duration":0.5266207916666588},{"name":"F3","midi":53,"time":243.88908400000344,"velocity":0.6299212598425197,"duration":0.5266207916666588},{"name":"A#2","midi":46,"time":244.44464000000343,"velocity":0.6299212598425197,"duration":0.5266207916666872},{"name":"F3","midi":53,"time":244.44464000000343,"velocity":0.6299212598425197,"duration":0.5266207916666872},{"name":"A#3","midi":58,"time":244.44464000000343,"velocity":0.6299212598425197,"duration":0.5266207916666872},{"name":"A#1","midi":34,"time":245.00019600000346,"velocity":0.6299212598425197,"duration":0.5266207916666588},{"name":"A#2","midi":46,"time":245.00019600000346,"velocity":0.6299212598425197,"duration":0.5266207916666588},{"name":"F3","midi":53,"time":245.00019600000346,"velocity":0.6299212598425197,"duration":0.5266207916666588},{"name":"A#1","midi":34,"time":245.55575200000345,"velocity":0.6299212598425197,"duration":0.5266207916666588},{"name":"A#2","midi":46,"time":245.55575200000345,"velocity":0.6299212598425197,"duration":0.5266207916666588},{"name":"F3","midi":53,"time":245.55575200000345,"velocity":0.6299212598425197,"duration":0.5266207916666588},{"name":"A#2","midi":46,"time":246.11130800000345,"velocity":0.6299212598425197,"duration":0.5266207916666872},{"name":"F3","midi":53,"time":246.11130800000345,"velocity":0.6299212598425197,"duration":0.5266207916666872},{"name":"A#3","midi":58,"time":246.11130800000345,"velocity":0.6299212598425197,"duration":0.5266207916666872},{"name":"A#1","midi":34,"time":246.66686400000347,"velocity":0.6299212598425197,"duration":0.5266207916666588},{"name":"A#2","midi":46,"time":246.66686400000347,"velocity":0.6299212598425197,"duration":0.5266207916666588},{"name":"F3","midi":53,"time":246.66686400000347,"velocity":0.6299212598425197,"duration":0.5266207916666588},{"name":"A#1","midi":34,"time":247.22242000000347,"velocity":0.6299212598425197,"duration":0.5266207916666588},{"name":"A#2","midi":46,"time":247.22242000000347,"velocity":0.6299212598425197,"duration":0.5266207916666588},{"name":"F3","midi":53,"time":247.22242000000347,"velocity":0.6299212598425197,"duration":0.5266207916666588},{"name":"A#2","midi":46,"time":247.77797600000346,"velocity":0.6299212598425197,"duration":0.5266207916666872},{"name":"F3","midi":53,"time":247.77797600000346,"velocity":0.6299212598425197,"duration":0.5266207916666872},{"name":"A#3","midi":58,"time":247.77797600000346,"velocity":0.6299212598425197,"duration":0.5266207916666872},{"name":"A#1","midi":34,"time":248.3335320000035,"velocity":0.6299212598425197,"duration":0.5266207916666588},{"name":"A#2","midi":46,"time":248.3335320000035,"velocity":0.6299212598425197,"duration":0.5266207916666588},{"name":"F3","midi":53,"time":248.3335320000035,"velocity":0.6299212598425197,"duration":0.5266207916666588},{"name":"A#1","midi":34,"time":248.88908800000348,"velocity":0.6299212598425197,"duration":0.5266207916666588},{"name":"A#2","midi":46,"time":248.88908800000348,"velocity":0.6299212598425197,"duration":0.5266207916666588},{"name":"F3","midi":53,"time":248.88908800000348,"velocity":0.6299212598425197,"duration":0.5266207916666588},{"name":"E2","midi":40,"time":249.44464400000348,"velocity":0.6299212598425197,"duration":0.5266207916666872},{"name":"E3","midi":52,"time":249.44464400000348,"velocity":0.6299212598425197,"duration":0.5266207916666872},{"name":"B2","midi":47,"time":250.0002000000035,"velocity":0.6299212598425197,"duration":0.5266207916666588},{"name":"E3","midi":52,"time":250.0002000000035,"velocity":0.6299212598425197,"duration":0.5266207916666588},{"name":"B2","midi":47,"time":250.5557560000035,"velocity":0.6299212598425197,"duration":0.5266207916666588},{"name":"E3","midi":52,"time":250.5557560000035,"velocity":0.6299212598425197,"duration":0.5266207916666588},{"name":"E2","midi":40,"time":251.1113120000035,"velocity":0.6299212598425197,"duration":0.5266207916666872},{"name":"E3","midi":52,"time":251.1113120000035,"velocity":0.6299212598425197,"duration":0.5266207916666872},{"name":"B2","midi":47,"time":251.66686800000352,"velocity":0.6299212598425197,"duration":0.5266207916666588},{"name":"E3","midi":52,"time":251.66686800000352,"velocity":0.6299212598425197,"duration":0.5266207916666588},{"name":"B2","midi":47,"time":252.2224240000035,"velocity":0.6299212598425197,"duration":0.5266207916666588},{"name":"E3","midi":52,"time":252.2224240000035,"velocity":0.6299212598425197,"duration":0.5266207916666588},{"name":"E2","midi":40,"time":252.7779800000035,"velocity":0.6299212598425197,"duration":0.5266207916666872},{"name":"E3","midi":52,"time":252.7779800000035,"velocity":0.6299212598425197,"duration":0.5266207916666872},{"name":"B2","midi":47,"time":253.33353600000353,"velocity":0.6299212598425197,"duration":0.5266207916666588},{"name":"E3","midi":52,"time":253.33353600000353,"velocity":0.6299212598425197,"duration":0.5266207916666588},{"name":"B2","midi":47,"time":253.88909200000353,"velocity":0.6299212598425197,"duration":0.5266207916666588},{"name":"E3","midi":52,"time":253.88909200000353,"velocity":0.6299212598425197,"duration":0.5266207916666588},{"name":"E2","midi":40,"time":254.44464800000353,"velocity":0.6299212598425197,"duration":0.5266207916666872},{"name":"E3","midi":52,"time":254.44464800000353,"velocity":0.6299212598425197,"duration":0.5266207916666872},{"name":"B2","midi":47,"time":255.00020400000355,"velocity":0.6299212598425197,"duration":1.054398991666659},{"name":"E3","midi":52,"time":255.00020400000355,"velocity":0.6299212598425197,"duration":1.054398991666659},{"name":"A#0","midi":22,"time":256.11131600000357,"velocity":0.6299212598425197,"duration":0.5266207916666303},{"name":"F1","midi":29,"time":256.11131600000357,"velocity":0.6299212598425197,"duration":0.5266207916666303},{"name":"A#1","midi":34,"time":256.11131600000357,"velocity":0.6299212598425197,"duration":0.5266207916666303},{"name":"A#1","midi":34,"time":256.66687200000354,"velocity":0.6299212598425197,"duration":0.5266207916666872},{"name":"F2","midi":41,"time":256.66687200000354,"velocity":0.6299212598425197,"duration":0.5266207916666872},{"name":"A#2","midi":46,"time":256.66687200000354,"velocity":0.6299212598425197,"duration":0.5266207916666872},{"name":"A#1","midi":34,"time":257.22242800000356,"velocity":0.6299212598425197,"duration":0.5266207916666872},{"name":"F2","midi":41,"time":257.22242800000356,"velocity":0.6299212598425197,"duration":0.5266207916666872},{"name":"A#2","midi":46,"time":257.22242800000356,"velocity":0.6299212598425197,"duration":0.5266207916666872},{"name":"A#0","midi":22,"time":257.7779840000036,"velocity":0.6299212598425197,"duration":0.5266207916666303},{"name":"F1","midi":29,"time":257.7779840000036,"velocity":0.6299212598425197,"duration":0.5266207916666303},{"name":"A#1","midi":34,"time":257.7779840000036,"velocity":0.6299212598425197,"duration":0.5266207916666303},{"name":"A#1","midi":34,"time":258.33354000000355,"velocity":0.6299212598425197,"duration":0.5266207916666872},{"name":"F2","midi":41,"time":258.33354000000355,"velocity":0.6299212598425197,"duration":0.5266207916666872},{"name":"A#2","midi":46,"time":258.33354000000355,"velocity":0.6299212598425197,"duration":0.5266207916666872},{"name":"A#1","midi":34,"time":258.8890960000036,"velocity":0.6299212598425197,"duration":0.5266207916666872},{"name":"F2","midi":41,"time":258.8890960000036,"velocity":0.6299212598425197,"duration":0.5266207916666872},{"name":"A#2","midi":46,"time":258.8890960000036,"velocity":0.6299212598425197,"duration":0.5266207916666872},{"name":"A#2","midi":46,"time":259.4446520000036,"velocity":0.6299212598425197,"duration":0.5266207916666303},{"name":"F#3","midi":54,"time":259.4446520000036,"velocity":0.6299212598425197,"duration":0.5266207916666303},{"name":"A#3","midi":58,"time":259.4446520000036,"velocity":0.6299212598425197,"duration":0.5266207916666303},{"name":"A#1","midi":34,"time":260.00020800000357,"velocity":0.6299212598425197,"duration":0.5266207916666872},{"name":"A#2","midi":46,"time":260.00020800000357,"velocity":0.6299212598425197,"duration":0.5266207916666872},{"name":"F#3","midi":54,"time":260.00020800000357,"velocity":0.6299212598425197,"duration":0.5266207916666872},{"name":"A#1","midi":34,"time":260.5557640000036,"velocity":0.6299212598425197,"duration":0.5266207916666872},{"name":"A#2","midi":46,"time":260.5557640000036,"velocity":0.6299212598425197,"duration":0.5266207916666872},{"name":"F#3","midi":54,"time":260.5557640000036,"velocity":0.6299212598425197,"duration":0.5266207916666872},{"name":"E2","midi":40,"time":261.1113200000036,"velocity":0.6299212598425197,"duration":0.5266207916666303},{"name":"E3","midi":52,"time":261.1113200000036,"velocity":0.6299212598425197,"duration":0.5266207916666303},{"name":"B2","midi":47,"time":261.6668760000036,"velocity":0.6299212598425197,"duration":0.5266207916666872},{"name":"E3","midi":52,"time":261.6668760000036,"velocity":0.6299212598425197,"duration":0.5266207916666872},{"name":"B2","midi":47,"time":262.2224320000036,"velocity":0.6299212598425197,"duration":0.5266207916666872},{"name":"E3","midi":52,"time":262.2224320000036,"velocity":0.6299212598425197,"duration":0.5266207916666872},{"name":"F2","midi":41,"time":262.77798800000363,"velocity":0.6299212598425197,"duration":0.5266207916666303},{"name":"F3","midi":53,"time":262.77798800000363,"velocity":0.6299212598425197,"duration":0.5266207916666303},{"name":"F3","midi":53,"time":263.3335440000036,"velocity":0.6299212598425197,"duration":0.5266207916666872},{"name":"C4","midi":60,"time":263.3335440000036,"velocity":0.6299212598425197,"duration":0.5266207916666872},{"name":"F3","midi":53,"time":263.8891000000036,"velocity":0.6299212598425197,"duration":0.5266207916666872},{"name":"C4","midi":60,"time":263.8891000000036,"velocity":0.6299212598425197,"duration":0.5266207916666872},{"name":"F2","midi":41,"time":264.44465600000365,"velocity":0.6299212598425197,"duration":0.5266207916666303},{"name":"F3","midi":53,"time":264.44465600000365,"velocity":0.6299212598425197,"duration":0.5266207916666303},{"name":"F3","midi":53,"time":265.0002120000036,"velocity":0.6299212598425197,"duration":0.5266207916666872},{"name":"C4","midi":60,"time":265.0002120000036,"velocity":0.6299212598425197,"duration":0.5266207916666872},{"name":"F3","midi":53,"time":265.55576800000364,"velocity":0.6299212598425197,"duration":0.5266207916666872},{"name":"C4","midi":60,"time":265.55576800000364,"velocity":0.6299212598425197,"duration":0.5266207916666872},{"name":"F2","midi":41,"time":266.11132400000366,"velocity":0.6299212598425197,"duration":0.5266207916666303},{"name":"F3","midi":53,"time":266.11132400000366,"velocity":0.6299212598425197,"duration":0.5266207916666303},{"name":"F2","midi":41,"time":266.66688000000363,"velocity":0.6299212598425197,"duration":0.5266207916666872},{"name":"F3","midi":53,"time":266.66688000000363,"velocity":0.6299212598425197,"duration":0.5266207916666872},{"name":"F2","midi":41,"time":267.22243600000365,"velocity":0.6614173228346457,"duration":0.5266207916666872},{"name":"F3","midi":53,"time":267.22243600000365,"velocity":0.6614173228346457,"duration":0.5266207916666872},{"name":"F2","midi":41,"time":267.7779920000037,"velocity":0.6929133858267716,"duration":0.5266207916666872},{"name":"F3","midi":53,"time":267.7779920000037,"velocity":0.6929133858267716,"duration":0.5266207916666872},{"name":"F2","midi":41,"time":268.3335480000037,"velocity":0.7244094488188977,"duration":0.5266207916666872},{"name":"F3","midi":53,"time":268.3335480000037,"velocity":0.7244094488188977,"duration":0.5266207916666872},{"name":"F2","midi":41,"time":268.8891040000037,"velocity":0.7559055118110236,"duration":0.5266207916666872},{"name":"F3","midi":53,"time":268.8891040000037,"velocity":0.7559055118110236,"duration":0.5266207916666872},{"name":"F1","midi":29,"time":269.44466000000375,"velocity":0.8818897637795275,"duration":1.0543989916666305},{"name":"F2","midi":41,"time":269.44466000000375,"velocity":0.8818897637795275,"duration":1.0543989916666305},{"name":"D2","midi":38,"time":270.55577200000374,"velocity":0.6299212598425197,"duration":0.26273169166665866},{"name":"D3","midi":50,"time":270.83355000000375,"velocity":0.6299212598425197,"duration":0.26273169166665866},{"name":"D2","midi":38,"time":271.11132800000377,"velocity":0.6299212598425197,"duration":0.26273169166665866},{"name":"D3","midi":50,"time":271.3891060000038,"velocity":0.6299212598425197,"duration":0.26273169166665866},{"name":"D2","midi":38,"time":271.6668840000038,"velocity":0.6299212598425197,"duration":0.26273169166665866},{"name":"D3","midi":50,"time":271.9446620000038,"velocity":0.6299212598425197,"duration":0.26273169166665866},{"name":"D2","midi":38,"time":272.2224400000038,"velocity":0.6299212598425197,"duration":0.26273169166665866},{"name":"D3","midi":50,"time":272.5002180000038,"velocity":0.6299212598425197,"duration":0.26273169166665866},{"name":"C#2","midi":37,"time":272.77799600000384,"velocity":0.6299212598425197,"duration":0.26273169166665866},{"name":"C#3","midi":49,"time":273.05577400000385,"velocity":0.6299212598425197,"duration":0.26273169166665866},{"name":"C#2","midi":37,"time":273.33355200000386,"velocity":0.6299212598425197,"duration":0.26273169166665866},{"name":"C#3","midi":49,"time":273.6113300000039,"velocity":0.6299212598425197,"duration":0.26273169166665866},{"name":"D2","midi":38,"time":273.8891080000039,"velocity":0.6299212598425197,"duration":0.26273169166665866},{"name":"D3","midi":50,"time":274.1668860000039,"velocity":0.6299212598425197,"duration":0.26273169166665866},{"name":"D2","midi":38,"time":274.4446640000039,"velocity":0.6299212598425197,"duration":0.26273169166665866},{"name":"D3","midi":50,"time":274.7224420000039,"velocity":0.6299212598425197,"duration":0.26273169166665866},{"name":"A1","midi":33,"time":275.00022000000394,"velocity":0.6299212598425197,"duration":0.26273169166665866},{"name":"A2","midi":45,"time":275.27799800000395,"velocity":0.6299212598425197,"duration":0.26273169166665866},{"name":"A1","midi":33,"time":275.55577600000396,"velocity":0.6299212598425197,"duration":0.26273169166665866},{"name":"A2","midi":45,"time":275.83355400000397,"velocity":0.6299212598425197,"duration":0.26273169166665866},{"name":"D2","midi":38,"time":276.111332000004,"velocity":0.6299212598425197,"duration":0.26273169166665866},{"name":"D3","midi":50,"time":276.389110000004,"velocity":0.6299212598425197,"duration":0.26273169166665866},{"name":"D2","midi":38,"time":276.666888000004,"velocity":0.6299212598425197,"duration":0.26273169166665866},{"name":"D3","midi":50,"time":276.944666000004,"velocity":0.6299212598425197,"duration":0.26273169166665866},{"name":"A#1","midi":34,"time":277.22244400000403,"velocity":0.6299212598425197,"duration":0.26273169166665866},{"name":"A#2","midi":46,"time":277.50022200000404,"velocity":0.6299212598425197,"duration":0.26273169166665866},{"name":"A#1","midi":34,"time":277.77800000000406,"velocity":0.6299212598425197,"duration":0.26273169166665866},{"name":"A#2","midi":46,"time":278.05577800000407,"velocity":0.6299212598425197,"duration":0.26273169166665866},{"name":"A1","midi":33,"time":278.3335560000041,"velocity":0.6299212598425197,"duration":0.26273169166665866},{"name":"A2","midi":45,"time":278.6113340000041,"velocity":0.6299212598425197,"duration":0.26273169166665866},{"name":"A2","midi":45,"time":278.8891120000041,"velocity":0.6299212598425197,"duration":0.26273169166665866},{"name":"D2","midi":38,"time":279.44466800000407,"velocity":0.7559055118110236,"duration":0.26273169166665866},{"name":"D3","midi":50,"time":279.7224460000041,"velocity":0.7559055118110236,"duration":0.26273169166665866},{"name":"D2","midi":38,"time":280.0002240000041,"velocity":0.7559055118110236,"duration":0.26273169166665866},{"name":"D3","midi":50,"time":280.2780020000041,"velocity":0.7559055118110236,"duration":0.26273169166665866},{"name":"D2","midi":38,"time":280.5557800000041,"velocity":0.7559055118110236,"duration":0.26273169166665866},{"name":"D3","midi":50,"time":280.83355800000413,"velocity":0.7559055118110236,"duration":0.26273169166665866},{"name":"D2","midi":38,"time":281.11133600000414,"velocity":0.7559055118110236,"duration":0.26273169166665866},{"name":"D3","midi":50,"time":281.38911400000416,"velocity":0.7559055118110236,"duration":0.26273169166665866},{"name":"C#2","midi":37,"time":281.66689200000417,"velocity":0.7559055118110236,"duration":0.26273169166665866},{"name":"C#3","midi":49,"time":281.9446700000042,"velocity":0.7559055118110236,"duration":0.26273169166665866},{"name":"C#2","midi":37,"time":282.2224480000042,"velocity":0.7559055118110236,"duration":0.26273169166665866},{"name":"C#3","midi":49,"time":282.5002260000042,"velocity":0.7559055118110236,"duration":0.26273169166665866},{"name":"D2","midi":38,"time":282.7780040000042,"velocity":0.7559055118110236,"duration":0.26273169166665866},{"name":"D3","midi":50,"time":283.0557820000042,"velocity":0.7559055118110236,"duration":0.26273169166665866},{"name":"D2","midi":38,"time":283.33356000000424,"velocity":0.7559055118110236,"duration":0.26273169166665866},{"name":"D3","midi":50,"time":283.61133800000425,"velocity":0.7559055118110236,"duration":0.26273169166665866},{"name":"A1","midi":33,"time":283.88911600000426,"velocity":0.7559055118110236,"duration":0.26273169166665866},{"name":"A2","midi":45,"time":284.1668940000043,"velocity":0.7559055118110236,"duration":0.26273169166665866},{"name":"A1","midi":33,"time":284.4446720000043,"velocity":0.7559055118110236,"duration":0.26273169166665866},{"name":"A2","midi":45,"time":284.7224500000043,"velocity":0.7559055118110236,"duration":0.26273169166665866},{"name":"D2","midi":38,"time":285.0002280000043,"velocity":0.7559055118110236,"duration":0.26273169166665866},{"name":"D3","midi":50,"time":285.2780060000043,"velocity":0.7559055118110236,"duration":0.26273169166665866},{"name":"D2","midi":38,"time":285.55578400000434,"velocity":0.7559055118110236,"duration":0.26273169166665866},{"name":"D3","midi":50,"time":285.83356200000435,"velocity":0.7559055118110236,"duration":0.26273169166665866},{"name":"A#1","midi":34,"time":286.11134000000436,"velocity":0.7559055118110236,"duration":0.26273169166665866},{"name":"A#2","midi":46,"time":286.3891180000044,"velocity":0.7559055118110236,"duration":0.26273169166665866},{"name":"A#1","midi":34,"time":286.6668960000044,"velocity":0.7559055118110236,"duration":0.26273169166665866},{"name":"A#2","midi":46,"time":286.9446740000044,"velocity":0.7559055118110236,"duration":0.26273169166665866},{"name":"A1","midi":33,"time":287.2224520000044,"velocity":0.7559055118110236,"duration":0.26273169166665866},{"name":"A2","midi":45,"time":287.5002300000044,"velocity":0.7559055118110236,"duration":0.26273169166665866},{"name":"D2","midi":38,"time":287.77800800000443,"velocity":0.7559055118110236,"duration":0.26273169166665866},{"name":"D3","midi":50,"time":287.77800800000443,"velocity":0.7559055118110236,"duration":0.26273169166665866},{"name":"D2","midi":38,"time":288.3335640000044,"velocity":0.8818897637795275,"duration":0.1307871416666444},{"name":"D2","midi":38,"time":288.4724530000044,"velocity":0.8818897637795275,"duration":0.1307871416666444},{"name":"D3","midi":50,"time":288.6113420000044,"velocity":0.8818897637795275,"duration":0.1307871416666444},{"name":"D2","midi":38,"time":288.7502310000044,"velocity":0.8818897637795275,"duration":0.1307871416666444},{"name":"D2","midi":38,"time":288.8891200000044,"velocity":0.8818897637795275,"duration":0.1307871416666444},{"name":"D2","midi":38,"time":289.02800900000443,"velocity":0.8818897637795275,"duration":0.1307871416666444},{"name":"D3","midi":50,"time":289.16689800000444,"velocity":0.8818897637795275,"duration":0.1307871416666444},{"name":"D2","midi":38,"time":289.30578700000444,"velocity":0.8818897637795275,"duration":0.1307871416666444},{"name":"D2","midi":38,"time":289.44467600000445,"velocity":0.8818897637795275,"duration":0.1307871416666444},{"name":"D2","midi":38,"time":289.58356500000446,"velocity":0.8818897637795275,"duration":0.1307871416666444},{"name":"D3","midi":50,"time":289.72245400000446,"velocity":0.8818897637795275,"duration":0.1307871416666444},{"name":"D2","midi":38,"time":289.86134300000447,"velocity":0.8818897637795275,"duration":0.1307871416666444},{"name":"D2","midi":38,"time":290.0002320000045,"velocity":0.8818897637795275,"duration":0.1307871416666444},{"name":"D2","midi":38,"time":290.1391210000045,"velocity":0.8818897637795275,"duration":0.1307871416666444},{"name":"D3","midi":50,"time":290.2780100000045,"velocity":0.8818897637795275,"duration":0.1307871416666444},{"name":"D2","midi":38,"time":290.4168990000045,"velocity":0.8818897637795275,"duration":0.1307871416666444},{"name":"A1","midi":33,"time":290.5557880000045,"velocity":0.8818897637795275,"duration":0.1307871416666444},{"name":"A1","midi":33,"time":290.6946770000045,"velocity":0.8818897637795275,"duration":0.1307871416666444},{"name":"A2","midi":45,"time":290.8335660000045,"velocity":0.8818897637795275,"duration":0.1307871416666444},{"name":"A1","midi":33,"time":290.9724550000045,"velocity":0.8818897637795275,"duration":0.1307871416666444},{"name":"A1","midi":33,"time":291.1113440000045,"velocity":0.8818897637795275,"duration":0.1307871416666444},{"name":"A2","midi":45,"time":291.2502330000045,"velocity":0.8818897637795275,"duration":0.1307871416666444},{"name":"A1","midi":33,"time":291.38912200000453,"velocity":0.8818897637795275,"duration":0.1307871416666444},{"name":"A2","midi":45,"time":291.52801100000454,"velocity":0.8818897637795275,"duration":0.1307871416666444},{"name":"D2","midi":38,"time":291.66690000000455,"velocity":0.8818897637795275,"duration":0.1307871416666444},{"name":"D2","midi":38,"time":291.80578900000455,"velocity":0.8818897637795275,"duration":0.1307871416666444},{"name":"D3","midi":50,"time":291.94467800000456,"velocity":0.8818897637795275,"duration":0.1307871416666444},{"name":"D2","midi":38,"time":292.08356700000456,"velocity":0.8818897637795275,"duration":0.1307871416666444},{"name":"D2","midi":38,"time":292.22245600000457,"velocity":0.8818897637795275,"duration":0.1307871416666444},{"name":"D3","midi":50,"time":292.3613450000046,"velocity":0.8818897637795275,"duration":0.1307871416666444},{"name":"D2","midi":38,"time":292.5002340000046,"velocity":0.8818897637795275,"duration":0.1307871416666444},{"name":"D3","midi":50,"time":292.6391230000046,"velocity":0.8818897637795275,"duration":0.1307871416666444},{"name":"A1","midi":33,"time":292.7780120000046,"velocity":0.8818897637795275,"duration":0.1307871416666444},{"name":"A1","midi":33,"time":292.9169010000046,"velocity":0.8818897637795275,"duration":0.1307871416666444},{"name":"A2","midi":45,"time":293.0557900000046,"velocity":0.8818897637795275,"duration":0.1307871416666444},{"name":"A1","midi":33,"time":293.1946790000046,"velocity":0.8818897637795275,"duration":0.1307871416666444},{"name":"A1","midi":33,"time":293.3335680000046,"velocity":0.8818897637795275,"duration":0.1307871416666444},{"name":"A2","midi":45,"time":293.4724570000046,"velocity":0.8818897637795275,"duration":0.1307871416666444},{"name":"A1","midi":33,"time":293.61134600000463,"velocity":0.8818897637795275,"duration":0.1307871416666444},{"name":"A2","midi":45,"time":293.75023500000464,"velocity":0.8818897637795275,"duration":0.1307871416666444},{"name":"D2","midi":38,"time":293.88912400000464,"velocity":0.8818897637795275,"duration":0.1307871416666444},{"name":"D2","midi":38,"time":294.02801300000465,"velocity":0.8818897637795275,"duration":0.1307871416666444},{"name":"D3","midi":50,"time":294.16690200000465,"velocity":0.8818897637795275,"duration":0.1307871416666444},{"name":"D2","midi":38,"time":294.30579100000466,"velocity":0.8818897637795275,"duration":0.1307871416666444},{"name":"D2","midi":38,"time":294.44468000000467,"velocity":0.8818897637795275,"duration":0.1307871416666444},{"name":"D3","midi":50,"time":294.5835690000047,"velocity":0.8818897637795275,"duration":0.1307871416666444},{"name":"D2","midi":38,"time":294.7224580000047,"velocity":0.8818897637795275,"duration":0.1307871416666444},{"name":"D3","midi":50,"time":294.8613470000047,"velocity":0.8818897637795275,"duration":0.1307871416666444},{"name":"A#1","midi":34,"time":295.0002360000047,"velocity":0.8818897637795275,"duration":0.1307871416666444},{"name":"A#1","midi":34,"time":295.1391250000047,"velocity":0.8818897637795275,"duration":0.1307871416666444},{"name":"A#2","midi":46,"time":295.2780140000047,"velocity":0.8818897637795275,"duration":0.1307871416666444},{"name":"A#1","midi":34,"time":295.4169030000047,"velocity":0.8818897637795275,"duration":0.1307871416666444},{"name":"A#1","midi":34,"time":295.5557920000047,"velocity":0.8818897637795275,"duration":0.1307871416666444},{"name":"A#1","midi":34,"time":295.6946810000047,"velocity":0.8818897637795275,"duration":0.1307871416666444},{"name":"A#2","midi":46,"time":295.8335700000047,"velocity":0.8818897637795275,"duration":0.1307871416666444},{"name":"A#1","midi":34,"time":295.97245900000473,"velocity":0.8818897637795275,"duration":0.1307871416666444},{"name":"A1","midi":33,"time":296.11134800000474,"velocity":0.8818897637795275,"duration":0.1307871416666444},{"name":"A2","midi":45,"time":296.3891260000047,"velocity":0.8818897637795275,"duration":0.1307871416666444},{"name":"A2","midi":45,"time":296.66690400000465,"velocity":0.8818897637795275,"duration":0.5266207916666872},{"name":"A3","midi":57,"time":296.66690400000465,"velocity":0.8818897637795275,"duration":0.5266207916666872},{"name":"D2","midi":38,"time":297.2224600000047,"velocity":0.8818897637795275,"duration":0.1307871416666444},{"name":"D2","midi":38,"time":297.3613490000047,"velocity":0.8818897637795275,"duration":0.1307871416666444},{"name":"D3","midi":50,"time":297.5002380000047,"velocity":0.8818897637795275,"duration":0.1307871416666444},{"name":"D2","midi":38,"time":297.6391270000047,"velocity":0.8818897637795275,"duration":0.1307871416666444},{"name":"D2","midi":38,"time":297.7780160000047,"velocity":0.8818897637795275,"duration":0.1307871416666444},{"name":"D2","midi":38,"time":297.9169050000047,"velocity":0.8818897637795275,"duration":0.1307871416666444},{"name":"D3","midi":50,"time":298.0557940000047,"velocity":0.8818897637795275,"duration":0.1307871416666444},{"name":"D2","midi":38,"time":298.1946830000047,"velocity":0.8818897637795275,"duration":0.1307871416666444},{"name":"D2","midi":38,"time":298.3335720000047,"velocity":0.8818897637795275,"duration":0.1307871416666444},{"name":"D2","midi":38,"time":298.4724610000047,"velocity":0.8818897637795275,"duration":0.1307871416666444},{"name":"D3","midi":50,"time":298.61135000000473,"velocity":0.8818897637795275,"duration":0.1307871416666444},{"name":"D2","midi":38,"time":298.75023900000474,"velocity":0.8818897637795275,"duration":0.1307871416666444},{"name":"D2","midi":38,"time":298.88912800000475,"velocity":0.8818897637795275,"duration":0.1307871416666444},{"name":"D2","midi":38,"time":299.02801700000475,"velocity":0.8818897637795275,"duration":0.1307871416666444},{"name":"D3","midi":50,"time":299.16690600000476,"velocity":0.8818897637795275,"duration":0.1307871416666444},{"name":"D2","midi":38,"time":299.30579500000476,"velocity":0.8818897637795275,"duration":0.1307871416666444},{"name":"A1","midi":33,"time":299.44468400000477,"velocity":0.8818897637795275,"duration":0.1307871416666444},{"name":"A1","midi":33,"time":299.5835730000048,"velocity":0.8818897637795275,"duration":0.1307871416666444},{"name":"A2","midi":45,"time":299.7224620000048,"velocity":0.8818897637795275,"duration":0.1307871416666444},{"name":"A1","midi":33,"time":299.8613510000048,"velocity":0.8818897637795275,"duration":0.1307871416666444},{"name":"A1","midi":33,"time":300.0002400000048,"velocity":0.8818897637795275,"duration":0.1307871416666444},{"name":"A2","midi":45,"time":300.1391290000048,"velocity":0.8818897637795275,"duration":0.1307871416666444},{"name":"A1","midi":33,"time":300.2780180000048,"velocity":0.8818897637795275,"duration":0.1307871416666444},{"name":"A2","midi":45,"time":300.4169070000048,"velocity":0.8818897637795275,"duration":0.1307871416666444},{"name":"D2","midi":38,"time":300.5557960000048,"velocity":0.8818897637795275,"duration":0.1307871416666444},{"name":"D2","midi":38,"time":300.6946850000048,"velocity":0.8818897637795275,"duration":0.1307871416666444},{"name":"D3","midi":50,"time":300.83357400000483,"velocity":0.8818897637795275,"duration":0.1307871416666444},{"name":"D2","midi":38,"time":300.97246300000484,"velocity":0.8818897637795275,"duration":0.1307871416666444},{"name":"D2","midi":38,"time":301.11135200000484,"velocity":0.8818897637795275,"duration":0.1307871416666444},{"name":"D3","midi":50,"time":301.25024100000485,"velocity":0.8818897637795275,"duration":0.1307871416666444},{"name":"D2","midi":38,"time":301.38913000000485,"velocity":0.8818897637795275,"duration":0.1307871416666444},{"name":"D3","midi":50,"time":301.52801900000486,"velocity":0.8818897637795275,"duration":0.1307871416666444},{"name":"A1","midi":33,"time":301.66690800000487,"velocity":0.8818897637795275,"duration":0.1307871416666444},{"name":"A1","midi":33,"time":301.8057970000049,"velocity":0.8818897637795275,"duration":0.1307871416666444},{"name":"A2","midi":45,"time":301.9446860000049,"velocity":0.8818897637795275,"duration":0.1307871416666444},{"name":"A1","midi":33,"time":302.0835750000049,"velocity":0.8818897637795275,"duration":0.1307871416666444},{"name":"A1","midi":33,"time":302.2224640000049,"velocity":0.8818897637795275,"duration":0.1307871416666444},{"name":"A2","midi":45,"time":302.3613530000049,"velocity":0.8818897637795275,"duration":0.1307871416666444},{"name":"A1","midi":33,"time":302.5002420000049,"velocity":0.8818897637795275,"duration":0.1307871416666444},{"name":"A2","midi":45,"time":302.6391310000049,"velocity":0.8818897637795275,"duration":0.1307871416666444},{"name":"D2","midi":38,"time":302.7780200000049,"velocity":0.8818897637795275,"duration":0.1307871416666444},{"name":"D2","midi":38,"time":302.9169090000049,"velocity":0.8818897637795275,"duration":0.1307871416666444},{"name":"D3","midi":50,"time":303.0557980000049,"velocity":0.8818897637795275,"duration":0.1307871416666444},{"name":"D2","midi":38,"time":303.19468700000493,"velocity":0.8818897637795275,"duration":0.1307871416666444},{"name":"D2","midi":38,"time":303.33357600000494,"velocity":0.8818897637795275,"duration":0.1307871416666444},{"name":"D3","midi":50,"time":303.47246500000495,"velocity":0.8818897637795275,"duration":0.1307871416666444},{"name":"D2","midi":38,"time":303.61135400000495,"velocity":0.8818897637795275,"duration":0.1307871416666444},{"name":"D3","midi":50,"time":303.75024300000496,"velocity":0.8818897637795275,"duration":0.1307871416666444},{"name":"A#1","midi":34,"time":303.88913200000496,"velocity":0.8818897637795275,"duration":0.1307871416666444},{"name":"A#1","midi":34,"time":304.02802100000497,"velocity":0.8818897637795275,"duration":0.1307871416666444},{"name":"A#2","midi":46,"time":304.166910000005,"velocity":0.8818897637795275,"duration":0.1307871416666444},{"name":"A#1","midi":34,"time":304.305799000005,"velocity":0.8818897637795275,"duration":0.1307871416666444},{"name":"A#1","midi":34,"time":304.444688000005,"velocity":0.8818897637795275,"duration":0.1307871416666444},{"name":"A#1","midi":34,"time":304.583577000005,"velocity":0.8818897637795275,"duration":0.1307871416666444},{"name":"A#2","midi":46,"time":304.722466000005,"velocity":0.8818897637795275,"duration":0.1307871416666444},{"name":"A#1","midi":34,"time":304.861355000005,"velocity":0.8818897637795275,"duration":0.1307871416666444},{"name":"A1","midi":33,"time":305.000244000005,"velocity":0.8818897637795275,"duration":0.26273169166665866},{"name":"A2","midi":45,"time":305.278022000005,"velocity":0.8818897637795275,"duration":0.26273169166665866},{"name":"D3","midi":50,"time":305.55580000000504,"velocity":0.8818897637795275,"duration":0.26273169166665866},{"name":"A#1","midi":34,"time":306.111356000005,"velocity":0.8818897637795275,"duration":0.13078714166670125},{"name":"A#1","midi":34,"time":306.25024500000507,"velocity":0.8818897637795275,"duration":0.1307871416666444},{"name":"A#2","midi":46,"time":306.3891340000051,"velocity":0.8818897637795275,"duration":0.1307871416666444},{"name":"A#1","midi":34,"time":306.5280230000051,"velocity":0.8818897637795275,"duration":0.1307871416666444},{"name":"A#1","midi":34,"time":306.6669120000051,"velocity":0.8818897637795275,"duration":0.1307871416666444},{"name":"A#1","midi":34,"time":306.8058010000051,"velocity":0.8818897637795275,"duration":0.1307871416666444},{"name":"A#2","midi":46,"time":306.9446900000051,"velocity":0.8818897637795275,"duration":0.1307871416666444},{"name":"A#1","midi":34,"time":307.0835790000051,"velocity":0.8818897637795275,"duration":0.1307871416666444},{"name":"A#1","midi":34,"time":307.2224680000051,"velocity":0.8818897637795275,"duration":0.1307871416666444},{"name":"A#1","midi":34,"time":307.3613570000051,"velocity":0.8818897637795275,"duration":0.1307871416666444},{"name":"A#2","midi":46,"time":307.5002460000051,"velocity":0.8818897637795275,"duration":0.1307871416666444},{"name":"A#1","midi":34,"time":307.6391350000051,"velocity":0.8818897637795275,"duration":0.1307871416666444},{"name":"A#1","midi":34,"time":307.77802400000513,"velocity":0.8818897637795275,"duration":0.1307871416666444},{"name":"A#1","midi":34,"time":307.91691300000514,"velocity":0.8818897637795275,"duration":0.1307871416666444},{"name":"A#2","midi":46,"time":308.05580200000514,"velocity":0.8818897637795275,"duration":0.1307871416666444},{"name":"A#1","midi":34,"time":308.19469100000515,"velocity":0.8818897637795275,"duration":0.1307871416666444},{"name":"A#1","midi":34,"time":308.33358000000516,"velocity":0.8818897637795275,"duration":0.1307871416666444},{"name":"A#1","midi":34,"time":308.47246900000516,"velocity":0.8818897637795275,"duration":0.1307871416666444},{"name":"A#2","midi":46,"time":308.61135800000517,"velocity":0.8818897637795275,"duration":0.1307871416666444},{"name":"A#1","midi":34,"time":308.7502470000052,"velocity":0.8818897637795275,"duration":0.1307871416666444},{"name":"A#1","midi":34,"time":308.8891360000052,"velocity":0.8818897637795275,"duration":0.1307871416666444},{"name":"A#1","midi":34,"time":309.0280250000052,"velocity":0.8818897637795275,"duration":0.1307871416666444},{"name":"A#2","midi":46,"time":309.1669140000052,"velocity":0.8818897637795275,"duration":0.1307871416666444},{"name":"A#1","midi":34,"time":309.3058030000052,"velocity":0.8818897637795275,"duration":0.1307871416666444},{"name":"A#1","midi":34,"time":309.4446920000052,"velocity":0.8818897637795275,"duration":0.1307871416666444},{"name":"A#1","midi":34,"time":309.5835810000052,"velocity":0.8818897637795275,"duration":0.1307871416666444},{"name":"A#2","midi":46,"time":309.7224700000052,"velocity":0.8818897637795275,"duration":0.1307871416666444},{"name":"A#1","midi":34,"time":309.8613590000052,"velocity":0.8818897637795275,"duration":0.1307871416666444},{"name":"A#1","midi":34,"time":310.00024800000523,"velocity":0.8818897637795275,"duration":0.1307871416666444},{"name":"A#1","midi":34,"time":310.13913700000523,"velocity":0.8818897637795275,"duration":0.1307871416666444},{"name":"A#2","midi":46,"time":310.27802600000524,"velocity":0.8818897637795275,"duration":0.1307871416666444},{"name":"A#1","midi":34,"time":310.41691500000525,"velocity":0.8818897637795275,"duration":0.1307871416666444},{"name":"A#1","midi":34,"time":310.55580400000525,"velocity":0.8818897637795275,"duration":0.1307871416666444},{"name":"A#1","midi":34,"time":310.69469300000526,"velocity":0.8818897637795275,"duration":0.1307871416666444},{"name":"A#2","midi":46,"time":310.83358200000526,"velocity":0.8818897637795275,"duration":0.1307871416666444},{"name":"A#1","midi":34,"time":310.97247100000527,"velocity":0.8818897637795275,"duration":0.1307871416666444},{"name":"A#1","midi":34,"time":311.1113600000053,"velocity":0.8818897637795275,"duration":0.1307871416666444},{"name":"A#1","midi":34,"time":311.2502490000053,"velocity":0.8818897637795275,"duration":0.1307871416666444},{"name":"A#2","midi":46,"time":311.3891380000053,"velocity":0.8818897637795275,"duration":0.1307871416666444},{"name":"A#1","midi":34,"time":311.5280270000053,"velocity":0.8818897637795275,"duration":0.1307871416666444},{"name":"A#1","midi":34,"time":311.6669160000053,"velocity":0.8818897637795275,"duration":0.1307871416666444},{"name":"A#1","midi":34,"time":311.8058050000053,"velocity":0.8818897637795275,"duration":0.1307871416666444},{"name":"A#2","midi":46,"time":311.9446940000053,"velocity":0.8818897637795275,"duration":0.1307871416666444},{"name":"A#1","midi":34,"time":312.0835830000053,"velocity":0.8818897637795275,"duration":0.1307871416666444},{"name":"A#1","midi":34,"time":312.2224720000053,"velocity":0.8818897637795275,"duration":0.1307871416666444},{"name":"A#1","midi":34,"time":312.36136100000533,"velocity":0.8818897637795275,"duration":0.1307871416666444},{"name":"A#2","midi":46,"time":312.50025000000534,"velocity":0.8818897637795275,"duration":0.1307871416666444},{"name":"A#1","midi":34,"time":312.63913900000534,"velocity":0.8818897637795275,"duration":0.1307871416666444},{"name":"A#1","midi":34,"time":315.00025200000533,"velocity":0.8818897637795275,"duration":0.13078714166670125},{"name":"A#1","midi":34,"time":315.1391410000054,"velocity":0.8818897637795275,"duration":0.1307871416666444},{"name":"A#2","midi":46,"time":315.2780300000054,"velocity":0.8818897637795275,"duration":0.1307871416666444},{"name":"A#1","midi":34,"time":315.4169190000054,"velocity":0.8818897637795275,"duration":0.1307871416666444},{"name":"A#1","midi":34,"time":315.5558080000054,"velocity":0.8818897637795275,"duration":0.1307871416666444},{"name":"A#1","midi":34,"time":315.6946970000054,"velocity":0.8818897637795275,"duration":0.1307871416666444},{"name":"A#2","midi":46,"time":315.8335860000054,"velocity":0.8818897637795275,"duration":0.1307871416666444},{"name":"A#1","midi":34,"time":315.97247500000543,"velocity":0.8818897637795275,"duration":0.1307871416666444},{"name":"A#1","midi":34,"time":316.11136400000544,"velocity":0.8818897637795275,"duration":0.1307871416666444},{"name":"A#1","midi":34,"time":316.25025300000544,"velocity":0.8818897637795275,"duration":0.1307871416666444},{"name":"A#2","midi":46,"time":316.38914200000545,"velocity":0.8818897637795275,"duration":0.1307871416666444},{"name":"A#1","midi":34,"time":316.52803100000546,"velocity":0.8818897637795275,"duration":0.1307871416666444},{"name":"A#1","midi":34,"time":316.66692000000546,"velocity":0.8818897637795275,"duration":0.1307871416666444},{"name":"A#1","midi":34,"time":316.80580900000547,"velocity":0.8818897637795275,"duration":0.1307871416666444},{"name":"A#2","midi":46,"time":316.9446980000055,"velocity":0.8818897637795275,"duration":0.1307871416666444},{"name":"A#1","midi":34,"time":317.0835870000055,"velocity":0.8818897637795275,"duration":0.1307871416666444},{"name":"A#1","midi":34,"time":317.2224760000055,"velocity":0.8818897637795275,"duration":0.1307871416666444},{"name":"A#1","midi":34,"time":317.3613650000055,"velocity":0.8818897637795275,"duration":0.1307871416666444},{"name":"A#2","midi":46,"time":317.5002540000055,"velocity":0.8818897637795275,"duration":0.1307871416666444},{"name":"A#1","midi":34,"time":317.6391430000055,"velocity":0.8818897637795275,"duration":0.1307871416666444},{"name":"A#1","midi":34,"time":317.7780320000055,"velocity":0.8818897637795275,"duration":0.1307871416666444},{"name":"A#1","midi":34,"time":317.9169210000055,"velocity":0.8818897637795275,"duration":0.1307871416666444},{"name":"A#2","midi":46,"time":318.0558100000055,"velocity":0.8818897637795275,"duration":0.1307871416666444},{"name":"A#1","midi":34,"time":318.1946990000055,"velocity":0.8818897637795275,"duration":0.1307871416666444},{"name":"A#1","midi":34,"time":318.33358800000553,"velocity":0.8818897637795275,"duration":0.1307871416666444},{"name":"A#1","midi":34,"time":318.47247700000554,"velocity":0.8818897637795275,"duration":0.1307871416666444},{"name":"A#2","midi":46,"time":318.61136600000555,"velocity":0.8818897637795275,"duration":0.1307871416666444},{"name":"A#1","midi":34,"time":318.75025500000555,"velocity":0.8818897637795275,"duration":0.1307871416666444},{"name":"A#1","midi":34,"time":318.88914400000556,"velocity":0.8818897637795275,"duration":0.1307871416666444},{"name":"A#1","midi":34,"time":319.02803300000556,"velocity":0.8818897637795275,"duration":0.1307871416666444},{"name":"A#2","midi":46,"time":319.16692200000557,"velocity":0.8818897637795275,"duration":0.1307871416666444},{"name":"A#1","midi":34,"time":319.3058110000056,"velocity":0.8818897637795275,"duration":0.1307871416666444},{"name":"A#1","midi":34,"time":319.4447000000056,"velocity":0.8818897637795275,"duration":0.1307871416666444},{"name":"A#1","midi":34,"time":319.5835890000056,"velocity":0.8818897637795275,"duration":0.1307871416666444},{"name":"A#2","midi":46,"time":319.7224780000056,"velocity":0.8818897637795275,"duration":0.1307871416666444},{"name":"A#1","midi":34,"time":319.8613670000056,"velocity":0.8818897637795275,"duration":0.1307871416666444},{"name":"A#1","midi":34,"time":320.0002560000056,"velocity":0.8818897637795275,"duration":0.1307871416666444},{"name":"A#1","midi":34,"time":320.1391450000056,"velocity":0.8818897637795275,"duration":0.1307871416666444},{"name":"A#2","midi":46,"time":320.2780340000056,"velocity":0.8818897637795275,"duration":0.1307871416666444},{"name":"A#1","midi":34,"time":320.4169230000056,"velocity":0.8818897637795275,"duration":0.1307871416666444},{"name":"A#1","midi":34,"time":320.55581200000563,"velocity":0.8818897637795275,"duration":0.1307871416666444},{"name":"A#1","midi":34,"time":320.69470100000564,"velocity":0.8818897637795275,"duration":0.1307871416666444},{"name":"A#2","midi":46,"time":320.83359000000564,"velocity":0.8818897637795275,"duration":0.1307871416666444},{"name":"A#1","midi":34,"time":320.97247900000565,"velocity":0.8818897637795275,"duration":0.1307871416666444},{"name":"A#1","midi":34,"time":321.11136800000565,"velocity":0.8818897637795275,"duration":0.1307871416666444},{"name":"A#1","midi":34,"time":321.25025700000566,"velocity":0.8818897637795275,"duration":0.1307871416666444},{"name":"A#2","midi":46,"time":321.38914600000567,"velocity":0.8818897637795275,"duration":0.1307871416666444},{"name":"A#1","midi":34,"time":321.5280350000057,"velocity":0.8818897637795275,"duration":0.1307871416666444},{"name":"G#1","midi":32,"time":323.88914800000566,"velocity":0.8818897637795275,"duration":0.26273169166665866},{"name":"G#2","midi":44,"time":323.88914800000566,"velocity":0.8818897637795275,"duration":0.26273169166665866},{"name":"G#1","midi":32,"time":324.1669260000057,"velocity":0.8818897637795275,"duration":0.26273169166665866},{"name":"G#2","midi":44,"time":324.1669260000057,"velocity":0.8818897637795275,"duration":0.26273169166665866},{"name":"G#2","midi":44,"time":324.4447040000057,"velocity":0.8818897637795275,"duration":0.13773159166669302},{"name":"G#3","midi":56,"time":324.4447040000057,"velocity":0.8818897637795275,"duration":0.13773159166669302},{"name":"G#2","midi":44,"time":324.7224820000057,"velocity":0.8818897637795275,"duration":0.13773159166669302},{"name":"G#3","midi":56,"time":324.7224820000057,"velocity":0.8818897637795275,"duration":0.13773159166669302},{"name":"G#2","midi":44,"time":325.0002600000057,"velocity":0.8818897637795275,"duration":0.13773159166663618},{"name":"G#3","midi":56,"time":325.0002600000057,"velocity":0.8818897637795275,"duration":0.13773159166663618},{"name":"G#2","midi":44,"time":325.27803800000567,"velocity":0.8818897637795275,"duration":0.13773159166669302},{"name":"G#3","midi":56,"time":325.27803800000567,"velocity":0.8818897637795275,"duration":0.13773159166669302},{"name":"G#2","midi":44,"time":325.5558160000057,"velocity":0.8818897637795275,"duration":0.13773159166669302},{"name":"G#3","midi":56,"time":325.5558160000057,"velocity":0.8818897637795275,"duration":0.13773159166669302},{"name":"G#2","midi":44,"time":325.8335940000057,"velocity":0.8818897637795275,"duration":0.13773159166669302},{"name":"G#3","midi":56,"time":325.8335940000057,"velocity":0.8818897637795275,"duration":0.13773159166669302},{"name":"G1","midi":31,"time":326.1113720000057,"velocity":0.8818897637795275,"duration":0.26273169166665866},{"name":"G2","midi":43,"time":326.1113720000057,"velocity":0.8818897637795275,"duration":0.26273169166665866},{"name":"G1","midi":31,"time":326.3891500000057,"velocity":0.8818897637795275,"duration":0.26273169166665866},{"name":"G2","midi":43,"time":326.3891500000057,"velocity":0.8818897637795275,"duration":0.26273169166665866},{"name":"G2","midi":43,"time":326.6669280000057,"velocity":0.8818897637795275,"duration":0.13773159166669302},{"name":"G3","midi":55,"time":326.6669280000057,"velocity":0.8818897637795275,"duration":0.13773159166669302},{"name":"G2","midi":43,"time":326.94470600000574,"velocity":0.8818897637795275,"duration":0.13773159166669302},{"name":"G3","midi":55,"time":326.94470600000574,"velocity":0.8818897637795275,"duration":0.13773159166669302},{"name":"G2","midi":43,"time":327.22248400000575,"velocity":0.8818897637795275,"duration":0.13773159166663618},{"name":"G3","midi":55,"time":327.22248400000575,"velocity":0.8818897637795275,"duration":0.13773159166663618},{"name":"G2","midi":43,"time":327.5002620000057,"velocity":0.8818897637795275,"duration":0.13773159166669302},{"name":"G3","midi":55,"time":327.5002620000057,"velocity":0.8818897637795275,"duration":0.13773159166669302},{"name":"G2","midi":43,"time":327.7780400000057,"velocity":0.8818897637795275,"duration":0.13773159166669302},{"name":"G3","midi":55,"time":327.7780400000057,"velocity":0.8818897637795275,"duration":0.13773159166669302},{"name":"G2","midi":43,"time":328.05581800000573,"velocity":0.8818897637795275,"duration":0.13773159166669302},{"name":"G3","midi":55,"time":328.05581800000573,"velocity":0.8818897637795275,"duration":0.13773159166669302},{"name":"G#1","midi":32,"time":328.33359600000574,"velocity":0.8818897637795275,"duration":0.26273169166665866},{"name":"G#2","midi":44,"time":328.33359600000574,"velocity":0.8818897637795275,"duration":0.26273169166665866},{"name":"G#1","midi":32,"time":328.61137400000575,"velocity":0.8818897637795275,"duration":0.26273169166665866},{"name":"G#2","midi":44,"time":328.61137400000575,"velocity":0.8818897637795275,"duration":0.26273169166665866},{"name":"G#2","midi":44,"time":328.88915200000577,"velocity":0.8818897637795275,"duration":0.13773159166669302},{"name":"G#3","midi":56,"time":328.88915200000577,"velocity":0.8818897637795275,"duration":0.13773159166669302},{"name":"G#2","midi":44,"time":329.1669300000058,"velocity":0.8818897637795275,"duration":0.13773159166669302},{"name":"G#3","midi":56,"time":329.1669300000058,"velocity":0.8818897637795275,"duration":0.13773159166669302},{"name":"G#2","midi":44,"time":329.4447080000058,"velocity":0.8818897637795275,"duration":0.13773159166663618},{"name":"G#3","midi":56,"time":329.4447080000058,"velocity":0.8818897637795275,"duration":0.13773159166663618},{"name":"G#2","midi":44,"time":329.72248600000574,"velocity":0.8818897637795275,"duration":0.13773159166669302},{"name":"G#3","midi":56,"time":329.72248600000574,"velocity":0.8818897637795275,"duration":0.13773159166669302},{"name":"G#2","midi":44,"time":330.00026400000576,"velocity":0.8818897637795275,"duration":0.13773159166669302},{"name":"G#3","midi":56,"time":330.00026400000576,"velocity":0.8818897637795275,"duration":0.13773159166669302},{"name":"G#2","midi":44,"time":330.27804200000577,"velocity":0.8818897637795275,"duration":0.13773159166669302},{"name":"G#3","midi":56,"time":330.27804200000577,"velocity":0.8818897637795275,"duration":0.13773159166669302},{"name":"G1","midi":31,"time":330.5558200000058,"velocity":0.8818897637795275,"duration":0.26273169166665866},{"name":"G2","midi":43,"time":330.5558200000058,"velocity":0.8818897637795275,"duration":0.26273169166665866},{"name":"G1","midi":31,"time":330.8335980000058,"velocity":0.8818897637795275,"duration":0.26273169166665866},{"name":"G2","midi":43,"time":330.8335980000058,"velocity":0.8818897637795275,"duration":0.26273169166665866},{"name":"G2","midi":43,"time":331.1113760000058,"velocity":0.8818897637795275,"duration":0.13773159166669302},{"name":"G3","midi":55,"time":331.1113760000058,"velocity":0.8818897637795275,"duration":0.13773159166669302},{"name":"G2","midi":43,"time":331.3891540000058,"velocity":0.8818897637795275,"duration":0.13773159166669302},{"name":"G3","midi":55,"time":331.3891540000058,"velocity":0.8818897637795275,"duration":0.13773159166669302},{"name":"G2","midi":43,"time":331.66693200000583,"velocity":0.8818897637795275,"duration":0.13773159166663618},{"name":"G3","midi":55,"time":331.66693200000583,"velocity":0.8818897637795275,"duration":0.13773159166663618},{"name":"G2","midi":43,"time":331.9447100000058,"velocity":0.8818897637795275,"duration":0.13773159166669302},{"name":"G3","midi":55,"time":331.9447100000058,"velocity":0.8818897637795275,"duration":0.13773159166669302},{"name":"G2","midi":43,"time":332.2224880000058,"velocity":0.8818897637795275,"duration":0.13773159166669302},{"name":"G3","midi":55,"time":332.2224880000058,"velocity":0.8818897637795275,"duration":0.13773159166669302},{"name":"G2","midi":43,"time":332.5002660000058,"velocity":0.8818897637795275,"duration":0.13773159166669302},{"name":"G3","midi":55,"time":332.5002660000058,"velocity":0.8818897637795275,"duration":0.13773159166669302},{"name":"F5","midi":77,"time":349.16694600000585,"velocity":0.3858267716535433,"duration":0.0648148666666657},{"name":"F6","midi":89,"time":349.16694600000585,"velocity":0.3858267716535433,"duration":0.0648148666666657},{"name":"F5","midi":77,"time":349.2363905000058,"velocity":0.4094488188976378,"duration":0.0648148666666657},{"name":"F6","midi":89,"time":349.2363905000058,"velocity":0.4094488188976378,"duration":0.0648148666666657},{"name":"F5","midi":77,"time":349.3058350000058,"velocity":0.4330708661417323,"duration":0.0648148666666657},{"name":"F6","midi":89,"time":349.3058350000058,"velocity":0.4330708661417323,"duration":0.0648148666666657},{"name":"F5","midi":77,"time":349.3752795000058,"velocity":0.4566929133858268,"duration":0.0648148666666657},{"name":"F6","midi":89,"time":349.3752795000058,"velocity":0.4566929133858268,"duration":0.0648148666666657},{"name":"F5","midi":77,"time":349.44472400000575,"velocity":0.48031496062992124,"duration":0.0648148666666657},{"name":"F6","midi":89,"time":349.44472400000575,"velocity":0.48031496062992124,"duration":0.0648148666666657},{"name":"G5","midi":79,"time":349.44472400000575,"velocity":0.48031496062992124,"duration":0.5266207916665167},{"name":"G6","midi":91,"time":349.44472400000575,"velocity":0.48031496062992124,"duration":0.5266207916665167},{"name":"F5","midi":77,"time":349.5141685000057,"velocity":0.5039370078740157,"duration":0.0648148666666657},{"name":"F6","midi":89,"time":349.5141685000057,"velocity":0.5039370078740157,"duration":0.0648148666666657},{"name":"F5","midi":77,"time":349.5836130000057,"velocity":0.5275590551181102,"duration":0.0648148666666657},{"name":"F6","midi":89,"time":349.5836130000057,"velocity":0.5275590551181102,"duration":0.0648148666666657},{"name":"F5","midi":77,"time":349.6530575000057,"velocity":0.5590551181102362,"duration":0.0648148666666657},{"name":"F6","midi":89,"time":349.6530575000057,"velocity":0.5590551181102362,"duration":0.0648148666666657},{"name":"F5","midi":77,"time":349.72250200000565,"velocity":0.5826771653543307,"duration":0.0648148666666657},{"name":"F6","midi":89,"time":349.72250200000565,"velocity":0.5826771653543307,"duration":0.0648148666666657},{"name":"F5","midi":77,"time":349.7919465000056,"velocity":0.6062992125984252,"duration":0.0648148666666657},{"name":"F6","midi":89,"time":349.7919465000056,"velocity":0.6062992125984252,"duration":0.0648148666666657},{"name":"F5","midi":77,"time":349.8613910000056,"velocity":0.6299212598425197,"duration":0.0648148666666657},{"name":"F6","midi":89,"time":349.8613910000056,"velocity":0.6299212598425197,"duration":0.0648148666666657},{"name":"F5","midi":77,"time":349.93083550000557,"velocity":0.6535433070866141,"duration":0.06481486666672254},{"name":"F6","midi":89,"time":349.93083550000557,"velocity":0.6535433070866141,"duration":0.06481486666672254},{"name":"E5","midi":76,"time":350.0002800000056,"velocity":0.6771653543307087,"duration":0.5266207916666872},{"name":"E6","midi":88,"time":350.0002800000056,"velocity":0.6771653543307087,"duration":0.5266207916666872},{"name":"A5","midi":81,"time":350.0002800000056,"velocity":0.6771653543307087,"duration":0.5266207916666872},{"name":"A6","midi":93,"time":350.0002800000056,"velocity":0.6771653543307087,"duration":0.5266207916666872},{"name":"F5","midi":77,"time":350.5558360000056,"velocity":0.8818897637795275,"duration":0.5266207916666303},{"name":"F6","midi":89,"time":350.5558360000056,"velocity":0.8818897637795275,"duration":0.5266207916666303},{"name":"D5","midi":74,"time":351.1113920000056,"velocity":0.8818897637795275,"duration":0.5266207916666872},{"name":"D6","midi":86,"time":351.1113920000056,"velocity":0.8818897637795275,"duration":0.5266207916666872},{"name":"A4","midi":69,"time":351.6669480000056,"velocity":0.8818897637795275,"duration":0.5266207916666872},{"name":"A5","midi":81,"time":351.6669480000056,"velocity":0.8818897637795275,"duration":0.5266207916666872},{"name":"G4","midi":67,"time":352.22250400000564,"velocity":0.8818897637795275,"duration":0.26273169166665866},{"name":"G5","midi":79,"time":352.22250400000564,"velocity":0.8818897637795275,"duration":0.26273169166665866},{"name":"C5","midi":72,"time":352.50028200000565,"velocity":0.8818897637795275,"duration":0.26273169166665866},{"name":"C6","midi":84,"time":352.50028200000565,"velocity":0.8818897637795275,"duration":0.26273169166665866},{"name":"F5","midi":77,"time":352.77806000000567,"velocity":0.8818897637795275,"duration":0.7905098916666589},{"name":"A4","midi":69,"time":353.61139400000565,"velocity":0.8818897637795275,"duration":0.26273169166665866},{"name":"A5","midi":81,"time":353.88917200000566,"velocity":0.8818897637795275,"duration":0.26273169166665866},{"name":"G5","midi":79,"time":354.16695000000567,"velocity":0.8818897637795275,"duration":0.26273169166665866},{"name":"F5","midi":77,"time":354.4447280000057,"velocity":0.8818897637795275,"duration":0.26273169166665866},{"name":"G5","midi":79,"time":354.7225060000057,"velocity":0.8818897637795275,"duration":0.26273169166665866},{"name":"E5","midi":76,"time":355.0002840000057,"velocity":0.8818897637795275,"duration":0.7905098916666589},{"name":"E5","midi":76,"time":355.8336180000057,"velocity":0.8818897637795275,"duration":0.08680562500001088},{"name":"F5","midi":77,"time":355.9262106666724,"velocity":0.8818897637795275,"duration":0.08680562500001088},{"name":"E5","midi":76,"time":356.01880333333906,"velocity":0.8818897637795275,"duration":0.08680562500001088},{"name":"D5","midi":74,"time":356.11139600000575,"velocity":0.8818897637795275,"duration":0.7905098916666589},{"name":"D5","midi":74,"time":356.94473000000573,"velocity":0.8818897637795275,"duration":0.08680562500001088},{"name":"E5","midi":76,"time":357.0373226666724,"velocity":0.8818897637795275,"duration":0.08680562500001088},{"name":"D5","midi":74,"time":357.1299153333391,"velocity":0.8818897637795275,"duration":0.08680562500001088},{"name":"C#5","midi":73,"time":357.2225080000058,"velocity":0.8818897637795275,"duration":2.1099553916666878},{"name":"D2","midi":38,"time":359.44473200000584,"velocity":0.8818897637795275,"duration":0.1307871416666444},{"name":"D2","midi":38,"time":359.58362100000585,"velocity":0.8818897637795275,"duration":0.1307871416666444},{"name":"D3","midi":50,"time":359.72251000000585,"velocity":0.8818897637795275,"duration":0.1307871416666444},{"name":"D2","midi":38,"time":359.86139900000586,"velocity":0.8818897637795275,"duration":0.1307871416666444},{"name":"D2","midi":38,"time":360.00028800000587,"velocity":0.8818897637795275,"duration":0.1307871416666444},{"name":"D2","midi":38,"time":360.1391770000059,"velocity":0.8818897637795275,"duration":0.1307871416666444},{"name":"D3","midi":50,"time":360.2780660000059,"velocity":0.8818897637795275,"duration":0.1307871416666444},{"name":"D2","midi":38,"time":360.4169550000059,"velocity":0.8818897637795275,"duration":0.1307871416666444},{"name":"D2","midi":38,"time":360.5558440000059,"velocity":0.8818897637795275,"duration":0.1307871416666444},{"name":"D2","midi":38,"time":360.6947330000059,"velocity":0.8818897637795275,"duration":0.1307871416666444},{"name":"D3","midi":50,"time":360.8336220000059,"velocity":0.8818897637795275,"duration":0.1307871416666444},{"name":"D2","midi":38,"time":360.9725110000059,"velocity":0.8818897637795275,"duration":0.1307871416666444},{"name":"D2","midi":38,"time":361.1114000000059,"velocity":0.8818897637795275,"duration":0.1307871416666444},{"name":"D2","midi":38,"time":361.2502890000059,"velocity":0.8818897637795275,"duration":0.1307871416666444},{"name":"D3","midi":50,"time":361.3891780000059,"velocity":0.8818897637795275,"duration":0.1307871416666444},{"name":"D2","midi":38,"time":361.52806700000593,"velocity":0.8818897637795275,"duration":0.1307871416666444},{"name":"F2","midi":41,"time":361.66695600000594,"velocity":0.8818897637795275,"duration":0.1307871416666444},{"name":"F2","midi":41,"time":361.80584500000595,"velocity":0.8818897637795275,"duration":0.1307871416666444},{"name":"F3","midi":53,"time":361.94473400000595,"velocity":0.8818897637795275,"duration":0.1307871416666444},{"name":"F2","midi":41,"time":362.08362300000596,"velocity":0.8818897637795275,"duration":0.1307871416666444},{"name":"F2","midi":41,"time":362.22251200000596,"velocity":0.8818897637795275,"duration":0.1307871416666444},{"name":"F2","midi":41,"time":362.36140100000597,"velocity":0.8818897637795275,"duration":0.1307871416666444},{"name":"F3","midi":53,"time":362.500290000006,"velocity":0.8818897637795275,"duration":0.1307871416666444},{"name":"F2","midi":41,"time":362.639179000006,"velocity":0.8818897637795275,"duration":0.1307871416666444},{"name":"F2","midi":41,"time":362.778068000006,"velocity":0.8818897637795275,"duration":0.1307871416666444},{"name":"F2","midi":41,"time":362.916957000006,"velocity":0.8818897637795275,"duration":0.1307871416666444},{"name":"F3","midi":53,"time":363.055846000006,"velocity":0.8818897637795275,"duration":0.1307871416666444},{"name":"F2","midi":41,"time":363.194735000006,"velocity":0.8818897637795275,"duration":0.1307871416666444},{"name":"F2","midi":41,"time":363.333624000006,"velocity":0.8818897637795275,"duration":0.1307871416666444},{"name":"F2","midi":41,"time":363.472513000006,"velocity":0.8818897637795275,"duration":0.1307871416666444},{"name":"F3","midi":53,"time":363.611402000006,"velocity":0.8818897637795275,"duration":0.1307871416666444},{"name":"F2","midi":41,"time":363.75029100000603,"velocity":0.8818897637795275,"duration":0.1307871416666444},{"name":"A1","midi":33,"time":363.88918000000604,"velocity":0.8818897637795275,"duration":0.1307871416666444},{"name":"A1","midi":33,"time":364.02806900000604,"velocity":0.8818897637795275,"duration":0.1307871416666444},{"name":"A2","midi":45,"time":364.16695800000605,"velocity":0.8818897637795275,"duration":0.1307871416666444},{"name":"A1","midi":33,"time":364.30584700000605,"velocity":0.8818897637795275,"duration":0.1307871416666444},{"name":"A1","midi":33,"time":364.44473600000606,"velocity":0.8818897637795275,"duration":0.1307871416666444},{"name":"A1","midi":33,"time":364.58362500000607,"velocity":0.8818897637795275,"duration":0.1307871416666444},{"name":"A2","midi":45,"time":364.7225140000061,"velocity":0.8818897637795275,"duration":0.1307871416666444},{"name":"A1","midi":33,"time":364.8614030000061,"velocity":0.8818897637795275,"duration":0.1307871416666444},{"name":"A#1","midi":34,"time":365.0002920000061,"velocity":0.8818897637795275,"duration":0.1307871416666444},{"name":"A#1","midi":34,"time":365.1391810000061,"velocity":0.8818897637795275,"duration":0.1307871416666444},{"name":"A#2","midi":46,"time":365.2780700000061,"velocity":0.8818897637795275,"duration":0.13078714166670125},{"name":"A#1","midi":34,"time":365.41695900000616,"velocity":0.8818897637795275,"duration":0.1307871416666444},{"name":"A#1","midi":34,"time":365.55584800000616,"velocity":0.8818897637795275,"duration":0.1307871416666444},{"name":"A#1","midi":34,"time":365.69473700000617,"velocity":0.8818897637795275,"duration":0.1307871416666444},{"name":"A#2","midi":46,"time":365.8336260000062,"velocity":0.8818897637795275,"duration":0.1307871416666444},{"name":"A#1","midi":34,"time":365.9725150000062,"velocity":0.8818897637795275,"duration":0.1307871416666444},{"name":"D2","midi":38,"time":366.1114040000062,"velocity":0.8818897637795275,"duration":0.1307871416666444},{"name":"D2","midi":38,"time":366.2502930000062,"velocity":0.8818897637795275,"duration":0.1307871416666444},{"name":"D3","midi":50,"time":366.3891820000062,"velocity":0.8818897637795275,"duration":0.1307871416666444},{"name":"D2","midi":38,"time":366.5280710000062,"velocity":0.8818897637795275,"duration":0.1307871416666444},{"name":"D2","midi":38,"time":366.6669600000062,"velocity":0.8818897637795275,"duration":0.1307871416666444},{"name":"D2","midi":38,"time":366.8058490000062,"velocity":0.8818897637795275,"duration":0.1307871416666444},{"name":"D3","midi":50,"time":366.9447380000062,"velocity":0.8818897637795275,"duration":0.1307871416666444},{"name":"D2","midi":38,"time":367.08362700000623,"velocity":0.8818897637795275,"duration":0.1307871416666444},{"name":"D2","midi":38,"time":367.22251600000624,"velocity":0.8818897637795275,"duration":0.5266207916666872},{"name":"D3","midi":50,"time":367.22251600000624,"velocity":0.8818897637795275,"duration":0.5266207916666872},{"name":"C2","midi":36,"time":367.77807200000626,"velocity":0.8818897637795275,"duration":0.5266207916666872},{"name":"C3","midi":48,"time":367.77807200000626,"velocity":0.8818897637795275,"duration":0.5266207916666872},{"name":"A#1","midi":34,"time":368.3336280000063,"velocity":0.8818897637795275,"duration":0.1307871416666444},{"name":"A#1","midi":34,"time":368.4725170000063,"velocity":0.8818897637795275,"duration":0.1307871416666444},{"name":"A#2","midi":46,"time":368.6114060000063,"velocity":0.8818897637795275,"duration":0.1307871416666444},{"name":"A#1","midi":34,"time":368.7502950000063,"velocity":0.8818897637795275,"duration":0.1307871416666444},{"name":"A#1","midi":34,"time":368.8891840000063,"velocity":0.8818897637795275,"duration":0.1307871416666444},{"name":"A#1","midi":34,"time":369.0280730000063,"velocity":0.8818897637795275,"duration":0.1307871416666444},{"name":"A#2","midi":46,"time":369.1669620000063,"velocity":0.8818897637795275,"duration":0.1307871416666444},{"name":"A#1","midi":34,"time":369.3058510000063,"velocity":0.8818897637795275,"duration":0.1307871416666444},{"name":"A#1","midi":34,"time":369.44474000000633,"velocity":0.8818897637795275,"duration":0.1307871416666444},{"name":"A#1","midi":34,"time":369.58362900000634,"velocity":0.8818897637795275,"duration":0.1307871416666444},{"name":"A#2","midi":46,"time":369.72251800000635,"velocity":0.8818897637795275,"duration":0.1307871416666444},{"name":"A#1","midi":34,"time":369.86140700000635,"velocity":0.8818897637795275,"duration":0.1307871416666444},{"name":"A#1","midi":34,"time":370.00029600000636,"velocity":0.8818897637795275,"duration":0.1307871416666444},{"name":"A#1","midi":34,"time":370.13918500000636,"velocity":0.8818897637795275,"duration":0.1307871416666444},{"name":"A#2","midi":46,"time":370.27807400000637,"velocity":0.8818897637795275,"duration":0.1307871416666444},{"name":"A#1","midi":34,"time":370.4169630000064,"velocity":0.8818897637795275,"duration":0.1307871416666444},{"name":"C2","midi":36,"time":370.5558520000064,"velocity":0.8818897637795275,"duration":0.1307871416666444},{"name":"C2","midi":36,"time":370.6947410000064,"velocity":0.8818897637795275,"duration":0.1307871416666444},{"name":"C3","midi":48,"time":370.8336300000064,"velocity":0.8818897637795275,"duration":0.1307871416666444},{"name":"C2","midi":36,"time":370.9725190000064,"velocity":0.8818897637795275,"duration":0.1307871416666444},{"name":"C2","midi":36,"time":371.1114080000064,"velocity":0.8818897637795275,"duration":0.1307871416666444},{"name":"C2","midi":36,"time":371.2502970000064,"velocity":0.8818897637795275,"duration":0.1307871416666444},{"name":"C3","midi":48,"time":371.3891860000064,"velocity":0.8818897637795275,"duration":0.1307871416666444},{"name":"C2","midi":36,"time":371.5280750000064,"velocity":0.8818897637795275,"duration":0.1307871416666444},{"name":"C2","midi":36,"time":371.66696400000643,"velocity":0.8818897637795275,"duration":0.1307871416666444},{"name":"C2","midi":36,"time":371.80585300000644,"velocity":0.8818897637795275,"duration":0.1307871416666444},{"name":"C3","midi":48,"time":371.94474200000644,"velocity":0.8818897637795275,"duration":0.1307871416666444},{"name":"C2","midi":36,"time":372.08363100000645,"velocity":0.8818897637795275,"duration":0.1307871416666444},{"name":"C2","midi":36,"time":372.22252000000645,"velocity":0.8818897637795275,"duration":0.1307871416666444},{"name":"C2","midi":36,"time":372.36140900000646,"velocity":0.8818897637795275,"duration":0.1307871416666444},{"name":"C3","midi":48,"time":372.50029800000647,"velocity":0.8818897637795275,"duration":0.1307871416666444},{"name":"C2","midi":36,"time":372.6391870000065,"velocity":0.8818897637795275,"duration":0.1307871416666444},{"name":"A1","midi":33,"time":372.7780760000065,"velocity":0.8818897637795275,"duration":0.1307871416666444},{"name":"A1","midi":33,"time":372.9169650000065,"velocity":0.8818897637795275,"duration":0.1307871416666444},{"name":"A2","midi":45,"time":373.0558540000065,"velocity":0.8818897637795275,"duration":0.1307871416666444},{"name":"A1","midi":33,"time":373.1947430000065,"velocity":0.8818897637795275,"duration":0.1307871416666444},{"name":"A1","midi":33,"time":373.3336320000065,"velocity":0.8818897637795275,"duration":0.1307871416666444},{"name":"A1","midi":33,"time":373.4725210000065,"velocity":0.8818897637795275,"duration":0.1307871416666444},{"name":"A2","midi":45,"time":373.6114100000065,"velocity":0.8818897637795275,"duration":0.1307871416666444},{"name":"A1","midi":33,"time":373.7502990000065,"velocity":0.8818897637795275,"duration":0.1307871416666444},{"name":"A1","midi":33,"time":373.8891880000065,"velocity":0.8818897637795275,"duration":0.1307871416666444},{"name":"A1","midi":33,"time":374.02807700000653,"velocity":0.8818897637795275,"duration":0.1307871416666444},{"name":"A2","midi":45,"time":374.16696600000654,"velocity":0.8818897637795275,"duration":0.1307871416666444},{"name":"A1","midi":33,"time":374.30585500000655,"velocity":0.8818897637795275,"duration":0.1307871416666444},{"name":"A1","midi":33,"time":374.44474400000655,"velocity":0.8818897637795275,"duration":0.1307871416666444},{"name":"A1","midi":33,"time":374.58363300000656,"velocity":0.8818897637795275,"duration":0.1307871416666444},{"name":"A2","midi":45,"time":374.72252200000656,"velocity":0.8818897637795275,"duration":0.1307871416666444},{"name":"A1","midi":33,"time":374.86141100000657,"velocity":0.8818897637795275,"duration":0.1307871416666444},{"name":"A1","midi":33,"time":375.0003000000066,"velocity":0.8818897637795275,"duration":0.1307871416666444},{"name":"A1","midi":33,"time":375.1391890000066,"velocity":0.8818897637795275,"duration":0.1307871416666444},{"name":"A2","midi":45,"time":375.2780780000066,"velocity":0.8818897637795275,"duration":0.1307871416666444},{"name":"A1","midi":33,"time":375.4169670000066,"velocity":0.8818897637795275,"duration":0.1307871416666444},{"name":"A1","midi":33,"time":375.5558560000066,"velocity":0.8818897637795275,"duration":0.1307871416666444},{"name":"A1","midi":33,"time":375.6947450000066,"velocity":0.8818897637795275,"duration":0.1307871416666444},{"name":"A2","midi":45,"time":375.8336340000066,"velocity":0.8818897637795275,"duration":0.1307871416666444},{"name":"A1","midi":33,"time":375.9725230000066,"velocity":0.8818897637795275,"duration":0.1307871416666444},{"name":"A1","midi":33,"time":376.1114120000066,"velocity":0.8818897637795275,"duration":0.5266207916666872},{"name":"A2","midi":45,"time":376.1114120000066,"velocity":0.8818897637795275,"duration":0.5266207916666872},{"name":"C2","midi":36,"time":376.66696800000665,"velocity":0.8818897637795275,"duration":0.5266207916666872},{"name":"C3","midi":48,"time":376.66696800000665,"velocity":0.8818897637795275,"duration":0.5266207916666872},{"name":"D2","midi":38,"time":377.2225240000067,"velocity":0.8818897637795275,"duration":0.13078714166670125},{"name":"D2","midi":38,"time":377.36141300000673,"velocity":0.8818897637795275,"duration":0.1307871416666444},{"name":"D3","midi":50,"time":377.50030200000674,"velocity":0.8818897637795275,"duration":0.1307871416666444},{"name":"D2","midi":38,"time":377.63919100000675,"velocity":0.8818897637795275,"duration":0.1307871416666444},{"name":"D2","midi":38,"time":377.77808000000675,"velocity":0.8818897637795275,"duration":0.1307871416666444},{"name":"D2","midi":38,"time":377.91696900000676,"velocity":0.8818897637795275,"duration":0.1307871416666444},{"name":"D3","midi":50,"time":378.05585800000676,"velocity":0.8818897637795275,"duration":0.1307871416666444},{"name":"D2","midi":38,"time":378.19474700000677,"velocity":0.8818897637795275,"duration":0.1307871416666444},{"name":"D2","midi":38,"time":378.3336360000068,"velocity":0.8818897637795275,"duration":0.1307871416666444},{"name":"D2","midi":38,"time":378.4725250000068,"velocity":0.8818897637795275,"duration":0.1307871416666444},{"name":"D3","midi":50,"time":378.6114140000068,"velocity":0.8818897637795275,"duration":0.1307871416666444},{"name":"D2","midi":38,"time":378.7503030000068,"velocity":0.8818897637795275,"duration":0.1307871416666444},{"name":"D2","midi":38,"time":378.8891920000068,"velocity":0.8818897637795275,"duration":0.1307871416666444},{"name":"D2","midi":38,"time":379.0280810000068,"velocity":0.8818897637795275,"duration":0.1307871416666444},{"name":"D3","midi":50,"time":379.1669700000068,"velocity":0.8818897637795275,"duration":0.1307871416666444},{"name":"D2","midi":38,"time":379.3058590000068,"velocity":0.8818897637795275,"duration":0.1307871416666444},{"name":"F2","midi":41,"time":379.4447480000068,"velocity":0.8818897637795275,"duration":0.1307871416666444},{"name":"F2","midi":41,"time":379.58363700000683,"velocity":0.8818897637795275,"duration":0.1307871416666444},{"name":"F3","midi":53,"time":379.72252600000684,"velocity":0.8818897637795275,"duration":0.1307871416666444},{"name":"F2","midi":41,"time":379.86141500000684,"velocity":0.8818897637795275,"duration":0.1307871416666444},{"name":"F2","midi":41,"time":380.00030400000685,"velocity":0.8818897637795275,"duration":0.1307871416666444},{"name":"F2","midi":41,"time":380.13919300000686,"velocity":0.8818897637795275,"duration":0.1307871416666444},{"name":"F3","midi":53,"time":380.27808200000686,"velocity":0.8818897637795275,"duration":0.1307871416666444},{"name":"F2","midi":41,"time":380.41697100000687,"velocity":0.8818897637795275,"duration":0.1307871416666444},{"name":"F2","midi":41,"time":380.5558600000069,"velocity":0.8818897637795275,"duration":0.1307871416666444},{"name":"F2","midi":41,"time":380.6947490000069,"velocity":0.8818897637795275,"duration":0.1307871416666444},{"name":"F3","midi":53,"time":380.8336380000069,"velocity":0.8818897637795275,"duration":0.1307871416666444},{"name":"F2","midi":41,"time":380.9725270000069,"velocity":0.8818897637795275,"duration":0.1307871416666444},{"name":"F2","midi":41,"time":381.1114160000069,"velocity":0.8818897637795275,"duration":0.1307871416666444},{"name":"F2","midi":41,"time":381.2503050000069,"velocity":0.8818897637795275,"duration":0.1307871416666444},{"name":"F3","midi":53,"time":381.3891940000069,"velocity":0.8818897637795275,"duration":0.1307871416666444},{"name":"F2","midi":41,"time":381.5280830000069,"velocity":0.8818897637795275,"duration":0.1307871416666444},{"name":"E2","midi":40,"time":381.6669720000069,"velocity":0.8818897637795275,"duration":0.1307871416666444},{"name":"E2","midi":40,"time":381.8058610000069,"velocity":0.8818897637795275,"duration":0.1307871416666444},{"name":"E3","midi":52,"time":381.94475000000693,"velocity":0.8818897637795275,"duration":0.1307871416666444},{"name":"E2","midi":40,"time":382.08363900000694,"velocity":0.8818897637795275,"duration":0.1307871416666444},{"name":"E2","midi":40,"time":382.22252800000695,"velocity":0.8818897637795275,"duration":0.1307871416666444},{"name":"E2","midi":40,"time":382.36141700000695,"velocity":0.8818897637795275,"duration":0.1307871416666444},{"name":"E3","midi":52,"time":382.50030600000696,"velocity":0.8818897637795275,"duration":0.1307871416666444},{"name":"E2","midi":40,"time":382.63919500000696,"velocity":0.8818897637795275,"duration":0.1307871416666444},{"name":"E2","midi":40,"time":382.77808400000697,"velocity":0.8818897637795275,"duration":0.1307871416666444},{"name":"E2","midi":40,"time":382.916973000007,"velocity":0.8818897637795275,"duration":0.1307871416666444},{"name":"E3","midi":52,"time":383.055862000007,"velocity":0.8818897637795275,"duration":0.1307871416666444},{"name":"E2","midi":40,"time":383.194751000007,"velocity":0.8818897637795275,"duration":0.1307871416666444},{"name":"E2","midi":40,"time":383.333640000007,"velocity":0.8818897637795275,"duration":0.1307871416666444},{"name":"E2","midi":40,"time":383.472529000007,"velocity":0.8818897637795275,"duration":0.1307871416666444},{"name":"E3","midi":52,"time":383.611418000007,"velocity":0.8818897637795275,"duration":0.1307871416666444},{"name":"E2","midi":40,"time":383.750307000007,"velocity":0.8818897637795275,"duration":0.1307871416666444},{"name":"D#2","midi":39,"time":383.889196000007,"velocity":0.8818897637795275,"duration":0.1307871416666444},{"name":"D#2","midi":39,"time":384.028085000007,"velocity":0.8818897637795275,"duration":0.1307871416666444},{"name":"D#3","midi":51,"time":384.16697400000703,"velocity":0.8818897637795275,"duration":0.1307871416666444},{"name":"D#2","midi":39,"time":384.30586300000704,"velocity":0.8818897637795275,"duration":0.1307871416666444},{"name":"D#2","midi":39,"time":384.44475200000704,"velocity":0.8818897637795275,"duration":0.1307871416666444},{"name":"D#2","midi":39,"time":384.58364100000705,"velocity":0.8818897637795275,"duration":0.1307871416666444},{"name":"D#3","midi":51,"time":384.72253000000705,"velocity":0.8818897637795275,"duration":0.1307871416666444},{"name":"D#2","midi":39,"time":384.86141900000706,"velocity":0.8818897637795275,"duration":0.1307871416666444},{"name":"C#2","midi":37,"time":385.00030800000707,"velocity":0.8818897637795275,"duration":0.1307871416666444},{"name":"C#2","midi":37,"time":385.1391970000071,"velocity":0.8818897637795275,"duration":0.1307871416666444},{"name":"C#3","midi":49,"time":385.2780860000071,"velocity":0.8818897637795275,"duration":0.1307871416666444},{"name":"C#2","midi":37,"time":385.4169750000071,"velocity":0.8818897637795275,"duration":0.1307871416666444},{"name":"C#2","midi":37,"time":385.5558640000071,"velocity":0.8818897637795275,"duration":0.1307871416666444},{"name":"C#2","midi":37,"time":385.6947530000071,"velocity":0.8818897637795275,"duration":0.1307871416666444},{"name":"C#3","midi":49,"time":385.8336420000071,"velocity":0.8818897637795275,"duration":0.1307871416666444},{"name":"C#2","midi":37,"time":385.9725310000071,"velocity":0.8818897637795275,"duration":0.1307871416666444},{"name":"D2","midi":38,"time":386.1114200000071,"velocity":0.8818897637795275,"duration":0.1307871416666444},{"name":"D2","midi":38,"time":386.2503090000071,"velocity":0.8818897637795275,"duration":0.1307871416666444},{"name":"D3","midi":50,"time":386.3891980000071,"velocity":0.8818897637795275,"duration":0.1307871416666444},{"name":"D2","midi":38,"time":386.52808700000713,"velocity":0.8818897637795275,"duration":0.1307871416666444},{"name":"D2","midi":38,"time":386.66697600000714,"velocity":0.8818897637795275,"duration":0.1307871416666444},{"name":"D2","midi":38,"time":386.80586500000715,"velocity":0.8818897637795275,"duration":0.1307871416666444},{"name":"D3","midi":50,"time":386.94475400000715,"velocity":0.8818897637795275,"duration":0.1307871416666444},{"name":"D2","midi":38,"time":387.08364300000716,"velocity":0.8818897637795275,"duration":0.1307871416666444},{"name":"D2","midi":38,"time":387.22253200000716,"velocity":0.8818897637795275,"duration":0.1307871416666444},{"name":"D2","midi":38,"time":387.36142100000717,"velocity":0.8818897637795275,"duration":0.1307871416666444},{"name":"D3","midi":50,"time":387.5003100000072,"velocity":0.8818897637795275,"duration":0.1307871416666444},{"name":"D2","midi":38,"time":387.6391990000072,"velocity":0.8818897637795275,"duration":0.1307871416666444},{"name":"D2","midi":38,"time":387.7780880000072,"velocity":0.8818897637795275,"duration":0.1307871416666444},{"name":"D2","midi":38,"time":387.9169770000072,"velocity":0.8818897637795275,"duration":0.1307871416666444},{"name":"D3","midi":50,"time":388.0558660000072,"velocity":0.8818897637795275,"duration":0.1307871416666444},{"name":"D2","midi":38,"time":388.1947550000072,"velocity":0.8818897637795275,"duration":0.1307871416666444},{"name":"C2","midi":36,"time":388.3336440000072,"velocity":0.8818897637795275,"duration":0.1307871416666444},{"name":"C2","midi":36,"time":388.4725330000072,"velocity":0.8818897637795275,"duration":0.1307871416666444},{"name":"C3","midi":48,"time":388.6114220000072,"velocity":0.8818897637795275,"duration":0.1307871416666444},{"name":"C2","midi":36,"time":388.75031100000723,"velocity":0.8818897637795275,"duration":0.1307871416666444},{"name":"C2","midi":36,"time":388.88920000000724,"velocity":0.8818897637795275,"duration":0.1307871416666444},{"name":"C2","midi":36,"time":389.02808900000724,"velocity":0.8818897637795275,"duration":0.1307871416666444},{"name":"C3","midi":48,"time":389.16697800000725,"velocity":0.8818897637795275,"duration":0.1307871416666444},{"name":"C2","midi":36,"time":389.30586700000725,"velocity":0.8818897637795275,"duration":0.1307871416666444},{"name":"C2","midi":36,"time":389.44475600000726,"velocity":0.8818897637795275,"duration":0.1307871416666444},{"name":"C2","midi":36,"time":389.58364500000727,"velocity":0.8818897637795275,"duration":0.1307871416666444},{"name":"C3","midi":48,"time":389.7225340000073,"velocity":0.8818897637795275,"duration":0.1307871416666444},{"name":"C2","midi":36,"time":389.8614230000073,"velocity":0.8818897637795275,"duration":0.1307871416666444},{"name":"C2","midi":36,"time":390.0003120000073,"velocity":0.8818897637795275,"duration":0.1307871416666444},{"name":"C2","midi":36,"time":390.1392010000073,"velocity":0.8818897637795275,"duration":0.1307871416666444},{"name":"C3","midi":48,"time":390.2780900000073,"velocity":0.8818897637795275,"duration":0.1307871416666444},{"name":"C2","midi":36,"time":390.4169790000073,"velocity":0.8818897637795275,"duration":0.1307871416666444},{"name":"A1","midi":33,"time":390.5558680000073,"velocity":0.8818897637795275,"duration":0.1307871416666444},{"name":"A1","midi":33,"time":390.6947570000073,"velocity":0.8818897637795275,"duration":0.1307871416666444},{"name":"A2","midi":45,"time":390.8336460000073,"velocity":0.8818897637795275,"duration":0.1307871416666444},{"name":"A1","midi":33,"time":390.9725350000073,"velocity":0.8818897637795275,"duration":0.1307871416666444},{"name":"A1","midi":33,"time":391.11142400000733,"velocity":0.8818897637795275,"duration":0.1307871416666444},{"name":"A1","midi":33,"time":391.25031300000734,"velocity":0.8818897637795275,"duration":0.1307871416666444},{"name":"A2","midi":45,"time":391.38920200000734,"velocity":0.8818897637795275,"duration":0.1307871416666444},{"name":"A1","midi":33,"time":391.52809100000735,"velocity":0.8818897637795275,"duration":0.1307871416666444},{"name":"A1","midi":33,"time":391.66698000000736,"velocity":0.8818897637795275,"duration":0.1307871416666444},{"name":"A1","midi":33,"time":391.80586900000736,"velocity":0.8818897637795275,"duration":0.1307871416666444},{"name":"A2","midi":45,"time":391.94475800000737,"velocity":0.8818897637795275,"duration":0.1307871416666444},{"name":"A1","midi":33,"time":392.0836470000074,"velocity":0.8818897637795275,"duration":0.1307871416666444},{"name":"A1","midi":33,"time":392.2225360000074,"velocity":0.8818897637795275,"duration":0.1307871416666444},{"name":"A1","midi":33,"time":392.3614250000074,"velocity":0.8818897637795275,"duration":0.1307871416666444},{"name":"A2","midi":45,"time":392.5003140000074,"velocity":0.8818897637795275,"duration":0.1307871416666444},{"name":"A1","midi":33,"time":392.6392030000074,"velocity":0.8818897637795275,"duration":0.1307871416666444},{"name":"A1","midi":33,"time":392.7780920000074,"velocity":0.8818897637795275,"duration":0.1307871416666444},{"name":"A1","midi":33,"time":392.9169810000074,"velocity":0.8818897637795275,"duration":0.1307871416666444},{"name":"A2","midi":45,"time":393.0558700000074,"velocity":0.8818897637795275,"duration":0.1307871416666444},{"name":"A1","midi":33,"time":393.1947590000074,"velocity":0.8818897637795275,"duration":0.1307871416666444},{"name":"A1","midi":33,"time":393.33364800000743,"velocity":0.8818897637795275,"duration":0.1307871416666444},{"name":"A1","midi":33,"time":393.47253700000743,"velocity":0.8818897637795275,"duration":0.1307871416666444},{"name":"A2","midi":45,"time":393.61142600000744,"velocity":0.8818897637795275,"duration":0.1307871416666444},{"name":"A1","midi":33,"time":393.75031500000745,"velocity":0.8818897637795275,"duration":0.1307871416666444},{"name":"A1","midi":33,"time":393.88920400000745,"velocity":0.8818897637795275,"duration":0.1307871416666444},{"name":"A1","midi":33,"time":394.02809300000746,"velocity":0.8818897637795275,"duration":0.1307871416666444},{"name":"A2","midi":45,"time":394.16698200000747,"velocity":0.8818897637795275,"duration":0.1307871416666444},{"name":"A1","midi":33,"time":394.30587100000747,"velocity":0.8818897637795275,"duration":0.1307871416666444},{"name":"C#2","midi":37,"time":394.4447600000075,"velocity":0.8818897637795275,"duration":0.1307871416666444},{"name":"C#2","midi":37,"time":394.5836490000075,"velocity":0.8818897637795275,"duration":0.1307871416666444},{"name":"C#3","midi":49,"time":394.7225380000075,"velocity":0.8818897637795275,"duration":0.1307871416666444},{"name":"C#2","midi":37,"time":394.8614270000075,"velocity":0.8818897637795275,"duration":0.1307871416666444},{"name":"A#1","midi":34,"time":395.0003160000075,"velocity":0.8818897637795275,"duration":0.1307871416666444},{"name":"A#1","midi":34,"time":395.1392050000075,"velocity":0.8818897637795275,"duration":0.1307871416666444},{"name":"A#2","midi":46,"time":395.2780940000075,"velocity":0.8818897637795275,"duration":0.1307871416666444},{"name":"A#1","midi":34,"time":395.4169830000075,"velocity":0.8818897637795275,"duration":0.1307871416666444},{"name":"A#1","midi":34,"time":395.5558720000075,"velocity":0.8818897637795275,"duration":0.1307871416666444},{"name":"A#1","midi":34,"time":395.69476100000753,"velocity":0.8818897637795275,"duration":0.1307871416666444},{"name":"A#2","midi":46,"time":395.83365000000754,"velocity":0.8818897637795275,"duration":0.1307871416666444},{"name":"A#1","midi":34,"time":395.97253900000754,"velocity":0.8818897637795275,"duration":0.1307871416666444},{"name":"A#1","midi":34,"time":396.11142800000755,"velocity":0.8818897637795275,"duration":0.1307871416666444},{"name":"A#1","midi":34,"time":396.25031700000756,"velocity":0.8818897637795275,"duration":0.1307871416666444},{"name":"A#2","midi":46,"time":396.38920600000756,"velocity":0.8818897637795275,"duration":0.1307871416666444},{"name":"A#1","midi":34,"time":396.52809500000757,"velocity":0.8818897637795275,"duration":0.1307871416666444},{"name":"A#1","midi":34,"time":396.6669840000076,"velocity":0.8818897637795275,"duration":0.1307871416666444},{"name":"A#1","midi":34,"time":396.8058730000076,"velocity":0.8818897637795275,"duration":0.1307871416666444},{"name":"A#2","midi":46,"time":396.9447620000076,"velocity":0.8818897637795275,"duration":0.1307871416666444},{"name":"A#1","midi":34,"time":397.0836510000076,"velocity":0.8818897637795275,"duration":0.1307871416666444},{"name":"A#1","midi":34,"time":397.2225400000076,"velocity":0.8818897637795275,"duration":0.1307871416666444},{"name":"A#1","midi":34,"time":397.3614290000076,"velocity":0.8818897637795275,"duration":0.1307871416666444},{"name":"A#2","midi":46,"time":397.5003180000076,"velocity":0.8818897637795275,"duration":0.1307871416666444},{"name":"A#1","midi":34,"time":397.6392070000076,"velocity":0.8818897637795275,"duration":0.1307871416666444},{"name":"A#1","midi":34,"time":397.7780960000076,"velocity":0.8818897637795275,"duration":0.1307871416666444},{"name":"A#1","midi":34,"time":397.9169850000076,"velocity":0.8818897637795275,"duration":0.1307871416666444},{"name":"A#2","midi":46,"time":398.05587400000763,"velocity":0.8818897637795275,"duration":0.1307871416666444},{"name":"A#1","midi":34,"time":398.19476300000764,"velocity":0.8818897637795275,"duration":0.1307871416666444},{"name":"A#1","midi":34,"time":398.33365200000765,"velocity":0.8818897637795275,"duration":0.1307871416666444},{"name":"A#1","midi":34,"time":398.47254100000765,"velocity":0.8818897637795275,"duration":0.1307871416666444},{"name":"A#2","midi":46,"time":398.61143000000766,"velocity":0.8818897637795275,"duration":0.1307871416666444},{"name":"A#1","midi":34,"time":398.75031900000766,"velocity":0.8818897637795275,"duration":0.1307871416666444},{"name":"A#1","midi":34,"time":398.88920800000767,"velocity":0.8818897637795275,"duration":0.1307871416666444},{"name":"A#1","midi":34,"time":399.0280970000077,"velocity":0.8818897637795275,"duration":0.1307871416666444},{"name":"A#2","midi":46,"time":399.1669860000077,"velocity":0.8818897637795275,"duration":0.1307871416666444},{"name":"A#1","midi":34,"time":399.3058750000077,"velocity":0.8818897637795275,"duration":0.1307871416666444},{"name":"A#1","midi":34,"time":399.4447640000077,"velocity":0.8818897637795275,"duration":0.1307871416666444},{"name":"A#1","midi":34,"time":399.5836530000077,"velocity":0.8818897637795275,"duration":0.1307871416666444},{"name":"A#2","midi":46,"time":399.7225420000077,"velocity":0.8818897637795275,"duration":0.1307871416666444},{"name":"A#1","midi":34,"time":399.8614310000077,"velocity":0.8818897637795275,"duration":0.1307871416666444},{"name":"A#1","midi":34,"time":400.0003200000077,"velocity":0.8818897637795275,"duration":0.1307871416666444},{"name":"A#1","midi":34,"time":400.1392090000077,"velocity":0.8818897637795275,"duration":0.1307871416666444},{"name":"A#2","midi":46,"time":400.27809800000773,"velocity":0.8818897637795275,"duration":0.1307871416666444},{"name":"A#1","midi":34,"time":400.41698700000774,"velocity":0.8818897637795275,"duration":0.1307871416666444},{"name":"A#1","midi":34,"time":400.55587600000774,"velocity":0.8818897637795275,"duration":0.1307871416666444},{"name":"A#1","midi":34,"time":400.69476500000775,"velocity":0.8818897637795275,"duration":0.1307871416666444},{"name":"A#2","midi":46,"time":400.83365400000775,"velocity":0.8818897637795275,"duration":0.1307871416666444},{"name":"A#1","midi":34,"time":400.97254300000776,"velocity":0.8818897637795275,"duration":0.1307871416666444},{"name":"A#1","midi":34,"time":401.11143200000777,"velocity":0.8818897637795275,"duration":0.1307871416666444},{"name":"A#1","midi":34,"time":401.2503210000078,"velocity":0.8818897637795275,"duration":0.1307871416666444},{"name":"A#2","midi":46,"time":401.3892100000078,"velocity":0.8818897637795275,"duration":0.1307871416666444},{"name":"A#1","midi":34,"time":401.5280990000078,"velocity":0.8818897637795275,"duration":0.1307871416666444},{"name":"G#1","midi":32,"time":403.8892120000078,"velocity":0.8818897637795275,"duration":0.26273169166665866},{"name":"G#2","midi":44,"time":403.8892120000078,"velocity":0.8818897637795275,"duration":0.26273169166665866},{"name":"G#1","midi":32,"time":404.1669900000078,"velocity":0.8818897637795275,"duration":0.26273169166665866},{"name":"G#2","midi":44,"time":404.1669900000078,"velocity":0.8818897637795275,"duration":0.26273169166665866},{"name":"G#2","midi":44,"time":404.4447680000078,"velocity":0.8818897637795275,"duration":0.13773159166669302},{"name":"G#3","midi":56,"time":404.4447680000078,"velocity":0.8818897637795275,"duration":0.13773159166669302},{"name":"G#2","midi":44,"time":404.7225460000078,"velocity":0.8818897637795275,"duration":0.13773159166669302},{"name":"G#3","midi":56,"time":404.7225460000078,"velocity":0.8818897637795275,"duration":0.13773159166669302},{"name":"G#2","midi":44,"time":405.0003240000078,"velocity":0.8818897637795275,"duration":0.13773159166663618},{"name":"G#3","midi":56,"time":405.0003240000078,"velocity":0.8818897637795275,"duration":0.13773159166663618},{"name":"G#2","midi":44,"time":405.2781020000078,"velocity":0.8818897637795275,"duration":0.13773159166669302},{"name":"G#3","midi":56,"time":405.2781020000078,"velocity":0.8818897637795275,"duration":0.13773159166669302},{"name":"G#2","midi":44,"time":405.5558800000078,"velocity":0.8818897637795275,"duration":0.13773159166669302},{"name":"G#3","midi":56,"time":405.5558800000078,"velocity":0.8818897637795275,"duration":0.13773159166669302},{"name":"G#2","midi":44,"time":405.8336580000078,"velocity":0.8818897637795275,"duration":0.13773159166669302},{"name":"G#3","midi":56,"time":405.8336580000078,"velocity":0.8818897637795275,"duration":0.13773159166669302},{"name":"G1","midi":31,"time":406.1114360000078,"velocity":0.8818897637795275,"duration":0.26273169166665866},{"name":"G2","midi":43,"time":406.1114360000078,"velocity":0.8818897637795275,"duration":0.26273169166665866},{"name":"G1","midi":31,"time":406.3892140000078,"velocity":0.8818897637795275,"duration":0.26273169166665866},{"name":"G2","midi":43,"time":406.3892140000078,"velocity":0.8818897637795275,"duration":0.26273169166665866},{"name":"G2","midi":43,"time":406.66699200000784,"velocity":0.8818897637795275,"duration":0.13773159166669302},{"name":"G3","midi":55,"time":406.66699200000784,"velocity":0.8818897637795275,"duration":0.13773159166669302},{"name":"G2","midi":43,"time":406.94477000000785,"velocity":0.8818897637795275,"duration":0.13773159166669302},{"name":"G3","midi":55,"time":406.94477000000785,"velocity":0.8818897637795275,"duration":0.13773159166669302},{"name":"G2","midi":43,"time":407.22254800000786,"velocity":0.8818897637795275,"duration":0.13773159166663618},{"name":"G3","midi":55,"time":407.22254800000786,"velocity":0.8818897637795275,"duration":0.13773159166663618},{"name":"G2","midi":43,"time":407.5003260000078,"velocity":0.8818897637795275,"duration":0.13773159166669302},{"name":"G3","midi":55,"time":407.5003260000078,"velocity":0.8818897637795275,"duration":0.13773159166669302},{"name":"G2","midi":43,"time":407.77810400000783,"velocity":0.8818897637795275,"duration":0.13773159166669302},{"name":"G3","midi":55,"time":407.77810400000783,"velocity":0.8818897637795275,"duration":0.13773159166669302},{"name":"G2","midi":43,"time":408.05588200000784,"velocity":0.8818897637795275,"duration":0.13773159166669302},{"name":"G3","midi":55,"time":408.05588200000784,"velocity":0.8818897637795275,"duration":0.13773159166669302},{"name":"D2","midi":38,"time":408.33366000000785,"velocity":0.8818897637795275,"duration":0.1307871416666444},{"name":"D3","midi":50,"time":408.33366000000785,"velocity":0.8818897637795275,"duration":0.1307871416666444},{"name":"A2","midi":45,"time":408.47254900000786,"velocity":0.8818897637795275,"duration":0.26273169166665866},{"name":"A3","midi":57,"time":408.47254900000786,"velocity":0.8818897637795275,"duration":0.26273169166665866},{"name":"E2","midi":40,"time":408.75032700000787,"velocity":0.8818897637795275,"duration":0.1307871416666444},{"name":"E3","midi":52,"time":408.75032700000787,"velocity":0.8818897637795275,"duration":0.1307871416666444},{"name":"A2","midi":45,"time":408.8892160000079,"velocity":0.8818897637795275,"duration":0.26273169166665866},{"name":"A3","midi":57,"time":408.8892160000079,"velocity":0.8818897637795275,"duration":0.26273169166665866},{"name":"F2","midi":41,"time":409.1669940000079,"velocity":0.8818897637795275,"duration":0.1307871416666444},{"name":"F3","midi":53,"time":409.1669940000079,"velocity":0.8818897637795275,"duration":0.1307871416666444},{"name":"A2","midi":45,"time":409.3058830000079,"velocity":0.8818897637795275,"duration":0.26273169166665866},{"name":"A3","midi":57,"time":409.3058830000079,"velocity":0.8818897637795275,"duration":0.26273169166665866},{"name":"G2","midi":43,"time":409.5836610000079,"velocity":0.8818897637795275,"duration":0.26273169166665866},{"name":"G3","midi":55,"time":409.5836610000079,"velocity":0.8818897637795275,"duration":0.26273169166665866},{"name":"G#2","midi":44,"time":410.0003280000079,"velocity":0.8818897637795275,"duration":0.26273169166665866},{"name":"G#3","midi":56,"time":410.0003280000079,"velocity":0.8818897637795275,"duration":0.26273169166665866},{"name":"A2","midi":45,"time":410.27810600000794,"velocity":0.8818897637795275,"duration":0.26273169166665866},{"name":"A3","midi":57,"time":410.27810600000794,"velocity":0.8818897637795275,"duration":0.26273169166665866},{"name":"C3","midi":48,"time":410.55588400000795,"velocity":0.8818897637795275,"duration":0.1307871416666444},{"name":"C4","midi":60,"time":410.55588400000795,"velocity":0.8818897637795275,"duration":0.1307871416666444},{"name":"C2","midi":36,"time":410.69477300000796,"velocity":0.8818897637795275,"duration":0.26273169166665866},{"name":"C3","midi":48,"time":410.69477300000796,"velocity":0.8818897637795275,"duration":0.26273169166665866},{"name":"C#3","midi":49,"time":410.97255100000797,"velocity":0.8818897637795275,"duration":0.1307871416666444},{"name":"C#4","midi":61,"time":410.97255100000797,"velocity":0.8818897637795275,"duration":0.1307871416666444},{"name":"C#2","midi":37,"time":411.111440000008,"velocity":0.8818897637795275,"duration":0.26273169166665866},{"name":"C#3","midi":49,"time":411.111440000008,"velocity":0.8818897637795275,"duration":0.26273169166665866},{"name":"D3","midi":50,"time":411.389218000008,"velocity":0.8818897637795275,"duration":1.318288091666659},{"name":"D4","midi":62,"time":411.389218000008,"velocity":0.8818897637795275,"duration":1.318288091666659},{"name":"D2","midi":38,"time":412.778108000008,"velocity":0.8818897637795275,"duration":0.13078714166670125},{"name":"D2","midi":38,"time":412.91699700000805,"velocity":0.8818897637795275,"duration":0.1307871416666444},{"name":"D3","midi":50,"time":413.05588600000806,"velocity":0.8818897637795275,"duration":0.1307871416666444},{"name":"D2","midi":38,"time":413.19477500000806,"velocity":0.8818897637795275,"duration":0.1307871416666444},{"name":"D2","midi":38,"time":413.33366400000807,"velocity":0.8818897637795275,"duration":0.1307871416666444},{"name":"D2","midi":38,"time":413.4725530000081,"velocity":0.8818897637795275,"duration":0.1307871416666444},{"name":"D3","midi":50,"time":413.6114420000081,"velocity":0.8818897637795275,"duration":0.1307871416666444},{"name":"D2","midi":38,"time":413.7503310000081,"velocity":0.8818897637795275,"duration":0.1307871416666444},{"name":"D2","midi":38,"time":413.8892200000081,"velocity":0.8818897637795275,"duration":0.1307871416666444},{"name":"D2","midi":38,"time":414.0281090000081,"velocity":0.8818897637795275,"duration":0.1307871416666444},{"name":"D3","midi":50,"time":414.1669980000081,"velocity":0.8818897637795275,"duration":0.1307871416666444},{"name":"D2","midi":38,"time":414.3058870000081,"velocity":0.8818897637795275,"duration":0.1307871416666444},{"name":"D2","midi":38,"time":414.4447760000081,"velocity":0.8818897637795275,"duration":0.1307871416666444},{"name":"D2","midi":38,"time":414.5836650000081,"velocity":0.8818897637795275,"duration":0.1307871416666444},{"name":"D3","midi":50,"time":414.72255400000813,"velocity":0.8818897637795275,"duration":0.1307871416666444},{"name":"D2","midi":38,"time":414.86144300000814,"velocity":0.8818897637795275,"duration":0.1307871416666444},{"name":"C2","midi":36,"time":415.00033200000814,"velocity":0.8818897637795275,"duration":0.1307871416666444},{"name":"C2","midi":36,"time":415.13922100000815,"velocity":0.8818897637795275,"duration":0.1307871416666444},{"name":"C3","midi":48,"time":415.27811000000816,"velocity":0.8818897637795275,"duration":0.1307871416666444},{"name":"C2","midi":36,"time":415.41699900000816,"velocity":0.8818897637795275,"duration":0.1307871416666444},{"name":"C2","midi":36,"time":415.55588800000817,"velocity":0.8818897637795275,"duration":0.1307871416666444},{"name":"C2","midi":36,"time":415.6947770000082,"velocity":0.8818897637795275,"duration":0.1307871416666444},{"name":"C3","midi":48,"time":415.8336660000082,"velocity":0.8818897637795275,"duration":0.1307871416666444},{"name":"C2","midi":36,"time":415.9725550000082,"velocity":0.8818897637795275,"duration":0.1307871416666444},{"name":"C2","midi":36,"time":416.1114440000082,"velocity":0.8818897637795275,"duration":0.1307871416666444},{"name":"C2","midi":36,"time":416.2503330000082,"velocity":0.8818897637795275,"duration":0.1307871416666444},{"name":"C3","midi":48,"time":416.3892220000082,"velocity":0.8818897637795275,"duration":0.1307871416666444},{"name":"C2","midi":36,"time":416.5281110000082,"velocity":0.8818897637795275,"duration":0.1307871416666444},{"name":"C2","midi":36,"time":416.6670000000082,"velocity":0.8818897637795275,"duration":0.1307871416666444},{"name":"C2","midi":36,"time":416.8058890000082,"velocity":0.8818897637795275,"duration":0.1307871416666444},{"name":"C3","midi":48,"time":416.9447780000082,"velocity":0.8818897637795275,"duration":0.1307871416666444},{"name":"C2","midi":36,"time":417.08366700000823,"velocity":0.8818897637795275,"duration":0.1307871416666444},{"name":"A1","midi":33,"time":417.22255600000824,"velocity":0.8818897637795275,"duration":0.1307871416666444},{"name":"A1","midi":33,"time":417.36144500000825,"velocity":0.8818897637795275,"duration":0.1307871416666444},{"name":"A2","midi":45,"time":417.50033400000825,"velocity":0.8818897637795275,"duration":0.1307871416666444},{"name":"A1","midi":33,"time":417.63922300000826,"velocity":0.8818897637795275,"duration":0.1307871416666444},{"name":"A1","midi":33,"time":417.77811200000826,"velocity":0.8818897637795275,"duration":0.1307871416666444},{"name":"A1","midi":33,"time":417.91700100000827,"velocity":0.8818897637795275,"duration":0.1307871416666444},{"name":"A2","midi":45,"time":418.0558900000083,"velocity":0.8818897637795275,"duration":0.1307871416666444},{"name":"A1","midi":33,"time":418.1947790000083,"velocity":0.8818897637795275,"duration":0.1307871416666444},{"name":"A1","midi":33,"time":418.3336680000083,"velocity":0.8818897637795275,"duration":0.1307871416666444},{"name":"A1","midi":33,"time":418.4725570000083,"velocity":0.8818897637795275,"duration":0.1307871416666444},{"name":"A2","midi":45,"time":418.6114460000083,"velocity":0.8818897637795275,"duration":0.1307871416666444},{"name":"A1","midi":33,"time":418.7503350000083,"velocity":0.8818897637795275,"duration":0.1307871416666444},{"name":"A1","midi":33,"time":418.8892240000083,"velocity":0.8818897637795275,"duration":0.1307871416666444},{"name":"A1","midi":33,"time":419.0281130000083,"velocity":0.8818897637795275,"duration":0.1307871416666444},{"name":"A2","midi":45,"time":419.1670020000083,"velocity":0.8818897637795275,"duration":0.1307871416666444},{"name":"A1","midi":33,"time":419.30589100000833,"velocity":0.8818897637795275,"duration":0.1307871416666444},{"name":"D2","midi":38,"time":419.44478000000834,"velocity":0.8818897637795275,"duration":0.1307871416666444},{"name":"D2","midi":38,"time":419.58366900000834,"velocity":0.8818897637795275,"duration":0.1307871416666444},{"name":"D3","midi":50,"time":419.72255800000835,"velocity":0.8818897637795275,"duration":0.1307871416666444},{"name":"D2","midi":38,"time":419.86144700000835,"velocity":0.8818897637795275,"duration":0.1307871416666444},{"name":"D2","midi":38,"time":420.00033600000836,"velocity":0.8818897637795275,"duration":0.1307871416666444},{"name":"D2","midi":38,"time":420.13922500000837,"velocity":0.8818897637795275,"duration":0.1307871416666444},{"name":"D3","midi":50,"time":420.2781140000084,"velocity":0.8818897637795275,"duration":0.1307871416666444},{"name":"D2","midi":38,"time":420.4170030000084,"velocity":0.8818897637795275,"duration":0.1307871416666444},{"name":"D1","midi":26,"time":420.5558920000084,"velocity":0.8818897637795275,"duration":0.3946762416666729},{"name":"D2","midi":38,"time":420.5558920000084,"velocity":0.8818897637795275,"duration":0.3946762416666729},{"name":"C#1","midi":25,"time":420.9725590000084,"velocity":0.8818897637795275,"duration":0.3946762416666729},{"name":"C#2","midi":37,"time":420.9725590000084,"velocity":0.8818897637795275,"duration":0.3946762416666729},{"name":"C1","midi":24,"time":421.3892260000084,"velocity":0.8818897637795275,"duration":0.26273169166665866},{"name":"C2","midi":36,"time":421.3892260000084,"velocity":0.8818897637795275,"duration":0.26273169166665866},{"name":"A#1","midi":34,"time":421.66700400000843,"velocity":0.8818897637795275,"duration":0.1307871416666444},{"name":"A#1","midi":34,"time":421.80589300000844,"velocity":0.8818897637795275,"duration":0.1307871416666444},{"name":"A#2","midi":46,"time":421.94478200000844,"velocity":0.8818897637795275,"duration":0.1307871416666444},{"name":"A#1","midi":34,"time":422.08367100000845,"velocity":0.8818897637795275,"duration":0.1307871416666444},{"name":"A#1","midi":34,"time":422.22256000000846,"velocity":0.8818897637795275,"duration":0.1307871416666444},{"name":"A#1","midi":34,"time":422.36144900000846,"velocity":0.8818897637795275,"duration":0.1307871416666444},{"name":"A#2","midi":46,"time":422.50033800000847,"velocity":0.8818897637795275,"duration":0.1307871416666444},{"name":"A#1","midi":34,"time":422.6392270000085,"velocity":0.8818897637795275,"duration":0.1307871416666444},{"name":"A#1","midi":34,"time":422.7781160000085,"velocity":0.8818897637795275,"duration":0.1307871416666444},{"name":"A#1","midi":34,"time":422.9170050000085,"velocity":0.8818897637795275,"duration":0.1307871416666444},{"name":"A#2","midi":46,"time":423.0558940000085,"velocity":0.8818897637795275,"duration":0.1307871416666444},{"name":"A#1","midi":34,"time":423.1947830000085,"velocity":0.8818897637795275,"duration":0.1307871416666444},{"name":"A#1","midi":34,"time":423.3336720000085,"velocity":0.8818897637795275,"duration":0.1307871416666444},{"name":"A#1","midi":34,"time":423.4725610000085,"velocity":0.8818897637795275,"duration":0.1307871416666444},{"name":"A#2","midi":46,"time":423.6114500000085,"velocity":0.8818897637795275,"duration":0.1307871416666444},{"name":"A#1","midi":34,"time":423.7503390000085,"velocity":0.8818897637795275,"duration":0.1307871416666444},{"name":"C2","midi":36,"time":423.88922800000853,"velocity":0.8818897637795275,"duration":0.1307871416666444},{"name":"C2","midi":36,"time":424.02811700000854,"velocity":0.8818897637795275,"duration":0.1307871416666444},{"name":"C3","midi":48,"time":424.16700600000854,"velocity":0.8818897637795275,"duration":0.1307871416666444},{"name":"C2","midi":36,"time":424.30589500000855,"velocity":0.8818897637795275,"duration":0.1307871416666444},{"name":"C2","midi":36,"time":424.44478400000855,"velocity":0.8818897637795275,"duration":0.1307871416666444},{"name":"C2","midi":36,"time":424.58367300000856,"velocity":0.8818897637795275,"duration":0.1307871416666444},{"name":"C3","midi":48,"time":424.72256200000857,"velocity":0.8818897637795275,"duration":0.1307871416666444},{"name":"C2","midi":36,"time":424.86145100000857,"velocity":0.8818897637795275,"duration":0.1307871416666444},{"name":"C2","midi":36,"time":425.0003400000086,"velocity":0.8818897637795275,"duration":0.1307871416666444},{"name":"C2","midi":36,"time":425.1392290000086,"velocity":0.8818897637795275,"duration":0.1307871416666444},{"name":"C3","midi":48,"time":425.2781180000086,"velocity":0.8818897637795275,"duration":0.1307871416666444},{"name":"C2","midi":36,"time":425.4170070000086,"velocity":0.8818897637795275,"duration":0.1307871416666444},{"name":"C2","midi":36,"time":425.5558960000086,"velocity":0.8818897637795275,"duration":0.1307871416666444},{"name":"C2","midi":36,"time":425.6947850000086,"velocity":0.8818897637795275,"duration":0.1307871416666444},{"name":"C3","midi":48,"time":425.8336740000086,"velocity":0.8818897637795275,"duration":0.1307871416666444},{"name":"C2","midi":36,"time":425.9725630000086,"velocity":0.8818897637795275,"duration":0.1307871416666444},{"name":"A1","midi":33,"time":426.1114520000086,"velocity":0.8818897637795275,"duration":0.1307871416666444},{"name":"A1","midi":33,"time":426.25034100000863,"velocity":0.8818897637795275,"duration":0.1307871416666444},{"name":"A2","midi":45,"time":426.38923000000864,"velocity":0.8818897637795275,"duration":0.1307871416666444},{"name":"A1","midi":33,"time":426.52811900000864,"velocity":0.8818897637795275,"duration":0.1307871416666444},{"name":"A1","midi":33,"time":426.66700800000865,"velocity":0.8818897637795275,"duration":0.1307871416666444},{"name":"A1","midi":33,"time":426.80589700000866,"velocity":0.8818897637795275,"duration":0.1307871416666444},{"name":"A2","midi":45,"time":426.94478600000866,"velocity":0.8818897637795275,"duration":0.1307871416666444},{"name":"A1","midi":33,"time":427.08367500000867,"velocity":0.8818897637795275,"duration":0.1307871416666444},{"name":"D2","midi":38,"time":427.2225640000087,"velocity":0.8818897637795275,"duration":0.1307871416666444},{"name":"D2","midi":38,"time":427.3614530000087,"velocity":0.8818897637795275,"duration":0.1307871416666444},{"name":"D3","midi":50,"time":427.5003420000087,"velocity":0.8818897637795275,"duration":0.1307871416666444},{"name":"D2","midi":38,"time":427.6392310000087,"velocity":0.8818897637795275,"duration":0.1307871416666444},{"name":"D2","midi":38,"time":427.7781200000087,"velocity":0.8818897637795275,"duration":0.1307871416666444},{"name":"D2","midi":38,"time":427.9170090000087,"velocity":0.8818897637795275,"duration":0.1307871416666444},{"name":"D3","midi":50,"time":428.0558980000087,"velocity":0.8818897637795275,"duration":0.1307871416666444},{"name":"D2","midi":38,"time":428.1947870000087,"velocity":0.8818897637795275,"duration":0.1307871416666444},{"name":"A1","midi":33,"time":428.3336760000087,"velocity":0.8818897637795275,"duration":0.3946762416666161},{"name":"A2","midi":45,"time":428.3336760000087,"velocity":0.8818897637795275,"duration":0.3946762416666161},{"name":"A1","midi":33,"time":428.7503430000087,"velocity":0.8818897637795275,"duration":0.3946762416666729},{"name":"A2","midi":45,"time":428.7503430000087,"velocity":0.8818897637795275,"duration":0.3946762416666729},{"name":"A1","midi":33,"time":429.1670100000087,"velocity":0.8818897637795275,"duration":0.26273169166665866},{"name":"A2","midi":45,"time":429.1670100000087,"velocity":0.8818897637795275,"duration":0.26273169166665866},{"name":"D2","midi":38,"time":429.4447880000087,"velocity":0.8818897637795275,"duration":0.3946762416666729},{"name":"D3","midi":50,"time":429.4447880000087,"velocity":0.8818897637795275,"duration":0.3946762416666729},{"name":"D2","midi":38,"time":429.86145500000873,"velocity":0.8818897637795275,"duration":0.3946762416666729},{"name":"D3","midi":50,"time":429.86145500000873,"velocity":0.8818897637795275,"duration":0.3946762416666729},{"name":"D2","midi":38,"time":430.27812200000875,"velocity":0.8818897637795275,"duration":0.26273169166665866},{"name":"D3","midi":50,"time":430.27812200000875,"velocity":0.8818897637795275,"duration":0.26273169166665866},{"name":"D1","midi":26,"time":430.55590000000876,"velocity":0.8818897637795275,"duration":0.5266207916666303},{"name":"D2","midi":38,"time":430.55590000000876,"velocity":0.8818897637795275,"duration":0.5266207916666303},{"name":"D2","midi":38,"time":431.11145600000873,"velocity":0.8818897637795275,"duration":0.5266207916666872},{"name":"A2","midi":45,"time":431.11145600000873,"velocity":0.8818897637795275,"duration":0.5266207916666872},{"name":"D3","midi":50,"time":431.11145600000873,"velocity":0.8818897637795275,"duration":0.5266207916666872},{"name":"D1","midi":26,"time":431.66701200000875,"velocity":0.8818897637795275,"duration":0.5266207916666872},{"name":"D2","midi":38,"time":431.66701200000875,"velocity":0.8818897637795275,"duration":0.5266207916666872},{"name":"D2","midi":38,"time":432.2225680000088,"velocity":0.8818897637795275,"duration":0.5266207916666872},{"name":"A2","midi":45,"time":432.2225680000088,"velocity":0.8818897637795275,"duration":0.5266207916666872},{"name":"D3","midi":50,"time":432.2225680000088,"velocity":0.8818897637795275,"duration":0.5266207916666872},{"name":"C#1","midi":25,"time":432.7781240000088,"velocity":0.8818897637795275,"duration":0.5266207916666303},{"name":"C#2","midi":37,"time":432.7781240000088,"velocity":0.8818897637795275,"duration":0.5266207916666303},{"name":"C#2","midi":37,"time":433.33368000000877,"velocity":0.8818897637795275,"duration":0.5266207916666872},{"name":"G#2","midi":44,"time":433.33368000000877,"velocity":0.8818897637795275,"duration":0.5266207916666872},{"name":"C#3","midi":49,"time":433.33368000000877,"velocity":0.8818897637795275,"duration":0.5266207916666872},{"name":"D1","midi":26,"time":433.8892360000088,"velocity":0.8818897637795275,"duration":0.5266207916666872},{"name":"D2","midi":38,"time":433.8892360000088,"velocity":0.8818897637795275,"duration":0.5266207916666872},{"name":"D2","midi":38,"time":434.4447920000088,"velocity":0.8818897637795275,"duration":0.5266207916666872},{"name":"A2","midi":45,"time":434.4447920000088,"velocity":0.8818897637795275,"duration":0.5266207916666872},{"name":"D3","midi":50,"time":434.4447920000088,"velocity":0.8818897637795275,"duration":0.5266207916666872},{"name":"A0","midi":21,"time":435.00034800000884,"velocity":0.8818897637795275,"duration":0.5266207916666303},{"name":"A1","midi":33,"time":435.00034800000884,"velocity":0.8818897637795275,"duration":0.5266207916666303},{"name":"A1","midi":33,"time":435.5559040000088,"velocity":0.8818897637795275,"duration":0.5266207916666872},{"name":"E2","midi":40,"time":435.5559040000088,"velocity":0.8818897637795275,"duration":0.5266207916666872},{"name":"A2","midi":45,"time":435.5559040000088,"velocity":0.8818897637795275,"duration":0.5266207916666872},{"name":"D1","midi":26,"time":436.11146000000883,"velocity":0.8818897637795275,"duration":0.5266207916666872},{"name":"D2","midi":38,"time":436.11146000000883,"velocity":0.8818897637795275,"duration":0.5266207916666872},{"name":"D1","midi":26,"time":436.66701600000886,"velocity":0.8818897637795275,"duration":0.5266207916666872},{"name":"A1","midi":33,"time":436.66701600000886,"velocity":0.8818897637795275,"duration":0.5266207916666872},{"name":"D2","midi":38,"time":436.66701600000886,"velocity":0.8818897637795275,"duration":0.5266207916666872},{"name":"A1","midi":33,"time":437.2225720000089,"velocity":0.8818897637795275,"duration":0.5266207916666303},{"name":"A2","midi":45,"time":437.2225720000089,"velocity":0.8818897637795275,"duration":0.5266207916666303},{"name":"A2","midi":45,"time":437.77812800000885,"velocity":0.8818897637795275,"duration":0.5266207916666872},{"name":"E3","midi":52,"time":437.77812800000885,"velocity":0.8818897637795275,"duration":0.5266207916666872},{"name":"A3","midi":57,"time":437.77812800000885,"velocity":0.8818897637795275,"duration":0.5266207916666872},{"name":"D1","midi":26,"time":438.3336840000089,"velocity":0.8818897637795275,"duration":0.5266207916666872},{"name":"D2","midi":38,"time":438.3336840000089,"velocity":0.8818897637795275,"duration":0.5266207916666872},{"name":"D1","midi":26,"time":438.8892400000089,"velocity":0.8818897637795275,"duration":0.5266207916666872},{"name":"A1","midi":33,"time":438.8892400000089,"velocity":0.8818897637795275,"duration":0.5266207916666872},{"name":"D2","midi":38,"time":438.8892400000089,"velocity":0.8818897637795275,"duration":0.5266207916666872},{"name":"D1","midi":26,"time":439.4447960000089,"velocity":0.8818897637795275,"duration":0.5266207916666303},{"name":"D2","midi":38,"time":439.4447960000089,"velocity":0.8818897637795275,"duration":0.5266207916666303},{"name":"D2","midi":38,"time":440.0003520000089,"velocity":0.8818897637795275,"duration":0.5266207916666872},{"name":"A2","midi":45,"time":440.0003520000089,"velocity":0.8818897637795275,"duration":0.5266207916666872},{"name":"D3","midi":50,"time":440.0003520000089,"velocity":0.8818897637795275,"duration":0.5266207916666872},{"name":"D1","midi":26,"time":440.5559080000089,"velocity":0.8818897637795275,"duration":0.5266207916666872},{"name":"D2","midi":38,"time":440.5559080000089,"velocity":0.8818897637795275,"duration":0.5266207916666872},{"name":"D2","midi":38,"time":441.11146400000894,"velocity":0.8818897637795275,"duration":0.5266207916666872},{"name":"A2","midi":45,"time":441.11146400000894,"velocity":0.8818897637795275,"duration":0.5266207916666872},{"name":"D3","midi":50,"time":441.11146400000894,"velocity":0.8818897637795275,"duration":0.5266207916666872},{"name":"C#1","midi":25,"time":441.66702000000896,"velocity":0.8818897637795275,"duration":0.5266207916666303},{"name":"C#2","midi":37,"time":441.66702000000896,"velocity":0.8818897637795275,"duration":0.5266207916666303},{"name":"C#2","midi":37,"time":442.2225760000089,"velocity":0.8818897637795275,"duration":0.5266207916666872},{"name":"G#2","midi":44,"time":442.2225760000089,"velocity":0.8818897637795275,"duration":0.5266207916666872},{"name":"C#3","midi":49,"time":442.2225760000089,"velocity":0.8818897637795275,"duration":0.5266207916666872},{"name":"D1","midi":26,"time":442.77813200000895,"velocity":0.8818897637795275,"duration":0.5266207916666872},{"name":"D2","midi":38,"time":442.77813200000895,"velocity":0.8818897637795275,"duration":0.5266207916666872},{"name":"D2","midi":38,"time":443.333688000009,"velocity":0.8818897637795275,"duration":0.5266207916666872},{"name":"A2","midi":45,"time":443.333688000009,"velocity":0.8818897637795275,"duration":0.5266207916666872},{"name":"D3","midi":50,"time":443.333688000009,"velocity":0.8818897637795275,"duration":0.5266207916666872},{"name":"A0","midi":21,"time":443.889244000009,"velocity":0.8818897637795275,"duration":0.5266207916666303},{"name":"A1","midi":33,"time":443.889244000009,"velocity":0.8818897637795275,"duration":0.5266207916666303},{"name":"A1","midi":33,"time":444.44480000000897,"velocity":0.8818897637795275,"duration":0.5266207916666872},{"name":"E2","midi":40,"time":444.44480000000897,"velocity":0.8818897637795275,"duration":0.5266207916666872},{"name":"A2","midi":45,"time":444.44480000000897,"velocity":0.8818897637795275,"duration":0.5266207916666872},{"name":"D1","midi":26,"time":445.000356000009,"velocity":0.8818897637795275,"duration":0.5266207916666872},{"name":"D2","midi":38,"time":445.000356000009,"velocity":0.8818897637795275,"duration":0.5266207916666872},{"name":"D1","midi":26,"time":445.555912000009,"velocity":0.8818897637795275,"duration":0.5266207916666872},{"name":"A1","midi":33,"time":445.555912000009,"velocity":0.8818897637795275,"duration":0.5266207916666872},{"name":"D2","midi":38,"time":445.555912000009,"velocity":0.8818897637795275,"duration":0.5266207916666872},{"name":"A0","midi":21,"time":446.11146800000904,"velocity":0.8818897637795275,"duration":0.5266207916666303},{"name":"A1","midi":33,"time":446.11146800000904,"velocity":0.8818897637795275,"duration":0.5266207916666303},{"name":"A1","midi":33,"time":446.667024000009,"velocity":0.8818897637795275,"duration":0.5266207916666872},{"name":"E2","midi":40,"time":446.667024000009,"velocity":0.8818897637795275,"duration":0.5266207916666872},{"name":"A2","midi":45,"time":446.667024000009,"velocity":0.8818897637795275,"duration":0.5266207916666872},{"name":"D1","midi":26,"time":447.22258000000903,"velocity":0.8818897637795275,"duration":0.5266207916666872},{"name":"D2","midi":38,"time":447.22258000000903,"velocity":0.8818897637795275,"duration":0.5266207916666872},{"name":"D1","midi":26,"time":447.77813600000906,"velocity":0.8818897637795275,"duration":0.5266207916666872},{"name":"A1","midi":33,"time":447.77813600000906,"velocity":0.8818897637795275,"duration":0.5266207916666872},{"name":"D2","midi":38,"time":447.77813600000906,"velocity":0.8818897637795275,"duration":0.5266207916666872},{"name":"A#1","midi":34,"time":448.3336920000091,"velocity":0.8818897637795275,"duration":0.1307871416666444},{"name":"A#1","midi":34,"time":448.4725810000091,"velocity":0.8818897637795275,"duration":0.1307871416666444},{"name":"A#2","midi":46,"time":448.6114700000091,"velocity":0.8818897637795275,"duration":0.1307871416666444},{"name":"A#1","midi":34,"time":448.7503590000091,"velocity":0.8818897637795275,"duration":0.1307871416666444},{"name":"A#1","midi":34,"time":448.8892480000091,"velocity":0.8818897637795275,"duration":0.1307871416666444},{"name":"A#1","midi":34,"time":449.0281370000091,"velocity":0.8818897637795275,"duration":0.1307871416666444},{"name":"A#2","midi":46,"time":449.1670260000091,"velocity":0.8818897637795275,"duration":0.1307871416666444},{"name":"A#1","midi":34,"time":449.3059150000091,"velocity":0.8818897637795275,"duration":0.1307871416666444},{"name":"A#1","midi":34,"time":449.4448040000091,"velocity":0.8818897637795275,"duration":0.1307871416666444},{"name":"A#1","midi":34,"time":449.58369300000913,"velocity":0.8818897637795275,"duration":0.1307871416666444},{"name":"A#2","midi":46,"time":449.72258200000914,"velocity":0.8818897637795275,"duration":0.1307871416666444},{"name":"A#1","midi":34,"time":449.86147100000915,"velocity":0.8818897637795275,"duration":0.1307871416666444},{"name":"A#1","midi":34,"time":450.00036000000915,"velocity":0.8818897637795275,"duration":0.1307871416666444},{"name":"A#1","midi":34,"time":450.13924900000916,"velocity":0.8818897637795275,"duration":0.1307871416666444},{"name":"A#2","midi":46,"time":450.27813800000916,"velocity":0.8818897637795275,"duration":0.1307871416666444},{"name":"A#1","midi":34,"time":450.41702700000917,"velocity":0.8818897637795275,"duration":0.1307871416666444},{"name":"D2","midi":38,"time":450.5559160000092,"velocity":0.8818897637795275,"duration":0.1307871416666444},{"name":"D2","midi":38,"time":450.6948050000092,"velocity":0.8818897637795275,"duration":0.1307871416666444},{"name":"D3","midi":50,"time":450.8336940000092,"velocity":0.8818897637795275,"duration":0.1307871416666444},{"name":"D2","midi":38,"time":450.9725830000092,"velocity":0.8818897637795275,"duration":0.1307871416666444},{"name":"D2","midi":38,"time":451.1114720000092,"velocity":0.8818897637795275,"duration":0.1307871416666444},{"name":"D2","midi":38,"time":451.2503610000092,"velocity":0.8818897637795275,"duration":0.1307871416666444},{"name":"D3","midi":50,"time":451.3892500000092,"velocity":0.8818897637795275,"duration":0.1307871416666444},{"name":"D2","midi":38,"time":451.5281390000092,"velocity":0.8818897637795275,"duration":0.1307871416666444},{"name":"D2","midi":38,"time":451.6670280000092,"velocity":0.8818897637795275,"duration":0.1307871416666444},{"name":"D2","midi":38,"time":451.80591700000923,"velocity":0.8818897637795275,"duration":0.1307871416666444},{"name":"D3","midi":50,"time":451.94480600000924,"velocity":0.8818897637795275,"duration":0.1307871416666444},{"name":"D2","midi":38,"time":452.08369500000924,"velocity":0.8818897637795275,"duration":0.1307871416666444},{"name":"C2","midi":36,"time":452.22258400000925,"velocity":0.8818897637795275,"duration":0.1307871416666444},{"name":"C2","midi":36,"time":452.36147300000925,"velocity":0.8818897637795275,"duration":0.1307871416666444},{"name":"C3","midi":48,"time":452.50036200000926,"velocity":0.8818897637795275,"duration":0.1307871416666444},{"name":"C2","midi":36,"time":452.63925100000927,"velocity":0.8818897637795275,"duration":0.1307871416666444},{"name":"A#1","midi":34,"time":452.7781400000093,"velocity":0.8818897637795275,"duration":0.1307871416666444},{"name":"A#1","midi":34,"time":452.9170290000093,"velocity":0.8818897637795275,"duration":0.1307871416666444},{"name":"A#2","midi":46,"time":453.0559180000093,"velocity":0.8818897637795275,"duration":0.1307871416666444},{"name":"A#1","midi":34,"time":453.1948070000093,"velocity":0.8818897637795275,"duration":0.1307871416666444},{"name":"A#1","midi":34,"time":453.3336960000093,"velocity":0.8818897637795275,"duration":0.1307871416666444},{"name":"A#1","midi":34,"time":453.4725850000093,"velocity":0.8818897637795275,"duration":0.1307871416666444},{"name":"A#2","midi":46,"time":453.6114740000093,"velocity":0.8818897637795275,"duration":0.1307871416666444},{"name":"A#1","midi":34,"time":453.7503630000093,"velocity":0.8818897637795275,"duration":0.1307871416666444},{"name":"A#1","midi":34,"time":453.8892520000093,"velocity":0.8818897637795275,"duration":0.1307871416666444},{"name":"A#1","midi":34,"time":454.0281410000093,"velocity":0.8818897637795275,"duration":0.1307871416666444},{"name":"A#2","midi":46,"time":454.16703000000933,"velocity":0.8818897637795275,"duration":0.1307871416666444},{"name":"A#1","midi":34,"time":454.30591900000934,"velocity":0.8818897637795275,"duration":0.1307871416666444},{"name":"A#1","midi":34,"time":454.44480800000935,"velocity":0.8818897637795275,"duration":0.1307871416666444},{"name":"A#1","midi":34,"time":454.58369700000935,"velocity":0.8818897637795275,"duration":0.1307871416666444},{"name":"A#2","midi":46,"time":454.72258600000936,"velocity":0.8818897637795275,"duration":0.1307871416666444},{"name":"A#1","midi":34,"time":454.86147500000936,"velocity":0.8818897637795275,"duration":0.1307871416666444},{"name":"D2","midi":38,"time":455.00036400000937,"velocity":0.8818897637795275,"duration":0.1307871416666444},{"name":"D2","midi":38,"time":455.1392530000094,"velocity":0.8818897637795275,"duration":0.1307871416666444},{"name":"D3","midi":50,"time":455.2781420000094,"velocity":0.8818897637795275,"duration":0.1307871416666444},{"name":"D2","midi":38,"time":455.4170310000094,"velocity":0.8818897637795275,"duration":0.1307871416666444},{"name":"D2","midi":38,"time":455.5559200000094,"velocity":0.8818897637795275,"duration":0.1307871416666444},{"name":"D2","midi":38,"time":455.6948090000094,"velocity":0.8818897637795275,"duration":0.1307871416666444},{"name":"D3","midi":50,"time":455.8336980000094,"velocity":0.8818897637795275,"duration":0.1307871416666444},{"name":"D2","midi":38,"time":455.9725870000094,"velocity":0.8818897637795275,"duration":0.1307871416666444},{"name":"C2","midi":36,"time":456.1114760000094,"velocity":0.8818897637795275,"duration":0.1307871416666444},{"name":"C2","midi":36,"time":456.2503650000094,"velocity":0.8818897637795275,"duration":0.1307871416666444},{"name":"C3","midi":48,"time":456.38925400000943,"velocity":0.8818897637795275,"duration":0.1307871416666444},{"name":"C2","midi":36,"time":456.52814300000944,"velocity":0.8818897637795275,"duration":0.1307871416666444},{"name":"A1","midi":33,"time":456.66703200000944,"velocity":0.8818897637795275,"duration":0.1307871416666444},{"name":"A1","midi":33,"time":456.80592100000945,"velocity":0.8818897637795275,"duration":0.1307871416666444},{"name":"A2","midi":45,"time":456.94481000000945,"velocity":0.8818897637795275,"duration":0.1307871416666444},{"name":"A1","midi":33,"time":457.08369900000946,"velocity":0.8818897637795275,"duration":0.1307871416666444},{"name":"A#1","midi":34,"time":457.22258800000947,"velocity":0.8818897637795275,"duration":0.1307871416666444},{"name":"A#1","midi":34,"time":457.3614770000095,"velocity":0.8818897637795275,"duration":0.1307871416666444},{"name":"A#2","midi":46,"time":457.5003660000095,"velocity":0.8818897637795275,"duration":0.1307871416666444},{"name":"A#1","midi":34,"time":457.6392550000095,"velocity":0.8818897637795275,"duration":0.1307871416666444},{"name":"A#1","midi":34,"time":457.7781440000095,"velocity":0.8818897637795275,"duration":0.1307871416666444},{"name":"A#1","midi":34,"time":457.9170330000095,"velocity":0.8818897637795275,"duration":0.1307871416666444},{"name":"A#2","midi":46,"time":458.0559220000095,"velocity":0.8818897637795275,"duration":0.1307871416666444},{"name":"A#1","midi":34,"time":458.1948110000095,"velocity":0.8818897637795275,"duration":0.1307871416666444},{"name":"A#1","midi":34,"time":458.3337000000095,"velocity":0.8818897637795275,"duration":0.1307871416666444},{"name":"A#1","midi":34,"time":458.4725890000095,"velocity":0.8818897637795275,"duration":0.1307871416666444},{"name":"A#2","midi":46,"time":458.6114780000095,"velocity":0.8818897637795275,"duration":0.1307871416666444},{"name":"A#1","midi":34,"time":458.75036700000953,"velocity":0.8818897637795275,"duration":0.1307871416666444},{"name":"A#1","midi":34,"time":458.88925600000954,"velocity":0.8818897637795275,"duration":0.1307871416666444},{"name":"A#1","midi":34,"time":459.02814500000954,"velocity":0.8818897637795275,"duration":0.1307871416666444},{"name":"A#2","midi":46,"time":459.16703400000955,"velocity":0.8818897637795275,"duration":0.1307871416666444},{"name":"A#1","midi":34,"time":459.30592300000956,"velocity":0.8818897637795275,"duration":0.1307871416666444},{"name":"D2","midi":38,"time":459.44481200000956,"velocity":0.8818897637795275,"duration":0.1307871416666444},{"name":"D2","midi":38,"time":459.58370100000957,"velocity":0.8818897637795275,"duration":0.1307871416666444},{"name":"D3","midi":50,"time":459.7225900000096,"velocity":0.8818897637795275,"duration":0.1307871416666444},{"name":"D2","midi":38,"time":459.8614790000096,"velocity":0.8818897637795275,"duration":0.1307871416666444},{"name":"D2","midi":38,"time":460.0003680000096,"velocity":0.8818897637795275,"duration":0.1307871416666444},{"name":"D2","midi":38,"time":460.1392570000096,"velocity":0.8818897637795275,"duration":0.1307871416666444},{"name":"D3","midi":50,"time":460.2781460000096,"velocity":0.8818897637795275,"duration":0.1307871416666444},{"name":"D2","midi":38,"time":460.4170350000096,"velocity":0.8818897637795275,"duration":0.1307871416666444},{"name":"D2","midi":38,"time":460.5559240000096,"velocity":0.8818897637795275,"duration":0.1307871416666444},{"name":"D2","midi":38,"time":460.6948130000096,"velocity":0.8818897637795275,"duration":0.1307871416666444},{"name":"D3","midi":50,"time":460.8337020000096,"velocity":0.8818897637795275,"duration":0.1307871416666444},{"name":"D2","midi":38,"time":460.97259100000963,"velocity":0.8818897637795275,"duration":0.1307871416666444},{"name":"C2","midi":36,"time":461.11148000000964,"velocity":0.8818897637795275,"duration":0.1307871416666444},{"name":"C2","midi":36,"time":461.25036900000964,"velocity":0.8818897637795275,"duration":0.1307871416666444},{"name":"C3","midi":48,"time":461.38925800000965,"velocity":0.8818897637795275,"duration":0.1307871416666444},{"name":"C2","midi":36,"time":461.52814700000965,"velocity":0.8818897637795275,"duration":0.1307871416666444},{"name":"A#1","midi":34,"time":461.66703600000966,"velocity":0.8818897637795275,"duration":0.1307871416666444},{"name":"A#1","midi":34,"time":461.80592500000967,"velocity":0.8818897637795275,"duration":0.1307871416666444},{"name":"A#2","midi":46,"time":461.94481400000967,"velocity":0.8818897637795275,"duration":0.1307871416666444},{"name":"A#1","midi":34,"time":462.0837030000097,"velocity":0.8818897637795275,"duration":0.1307871416666444},{"name":"A#1","midi":34,"time":462.2225920000097,"velocity":0.8818897637795275,"duration":0.1307871416666444},{"name":"A#1","midi":34,"time":462.3614810000097,"velocity":0.8818897637795275,"duration":0.1307871416666444},{"name":"A#2","midi":46,"time":462.5003700000097,"velocity":0.8818897637795275,"duration":0.1307871416666444},{"name":"A#1","midi":34,"time":462.6392590000097,"velocity":0.8818897637795275,"duration":0.1307871416666444},{"name":"A#1","midi":34,"time":462.7781480000097,"velocity":0.8818897637795275,"duration":0.1307871416666444},{"name":"A#1","midi":34,"time":462.9170370000097,"velocity":0.8818897637795275,"duration":0.1307871416666444},{"name":"A#2","midi":46,"time":463.0559260000097,"velocity":0.8818897637795275,"duration":0.1307871416666444},{"name":"A#1","midi":34,"time":463.1948150000097,"velocity":0.8818897637795275,"duration":0.1307871416666444},{"name":"A#1","midi":34,"time":463.33370400000973,"velocity":0.8818897637795275,"duration":0.1307871416666444},{"name":"A#1","midi":34,"time":463.47259300000974,"velocity":0.8818897637795275,"duration":0.1307871416666444},{"name":"A#2","midi":46,"time":463.61148200000974,"velocity":0.8818897637795275,"duration":0.1307871416666444},{"name":"A#1","midi":34,"time":463.75037100000975,"velocity":0.8818897637795275,"duration":0.1307871416666444},{"name":"D2","midi":38,"time":463.88926000000976,"velocity":0.8818897637795275,"duration":0.1307871416666444},{"name":"D2","midi":38,"time":464.02814900000976,"velocity":0.8818897637795275,"duration":0.1307871416666444},{"name":"D3","midi":50,"time":464.16703800000977,"velocity":0.8818897637795275,"duration":0.1307871416666444},{"name":"D2","midi":38,"time":464.3059270000098,"velocity":0.8818897637795275,"duration":0.1307871416666444},{"name":"D2","midi":38,"time":464.4448160000098,"velocity":0.8818897637795275,"duration":0.1307871416666444},{"name":"D2","midi":38,"time":464.5837050000098,"velocity":0.8818897637795275,"duration":0.1307871416666444},{"name":"D3","midi":50,"time":464.7225940000098,"velocity":0.8818897637795275,"duration":0.1307871416666444},{"name":"D2","midi":38,"time":464.8614830000098,"velocity":0.8818897637795275,"duration":0.1307871416666444},{"name":"A1","midi":33,"time":465.0003720000098,"velocity":0.8818897637795275,"duration":0.1307871416666444},{"name":"A1","midi":33,"time":465.1392610000098,"velocity":0.8818897637795275,"duration":0.1307871416666444},{"name":"A2","midi":45,"time":465.2781500000098,"velocity":0.8818897637795275,"duration":0.1307871416666444},{"name":"A1","midi":33,"time":465.4170390000098,"velocity":0.8818897637795275,"duration":0.1307871416666444},{"name":"A1","midi":33,"time":465.5559280000098,"velocity":0.8818897637795275,"duration":0.1307871416666444},{"name":"A1","midi":33,"time":465.69481700000983,"velocity":0.8818897637795275,"duration":0.1307871416666444},{"name":"A2","midi":45,"time":465.83370600000984,"velocity":0.8818897637795275,"duration":0.1307871416666444},{"name":"A1","midi":33,"time":465.97259500000985,"velocity":0.8818897637795275,"duration":0.1307871416666444},{"name":"D5","midi":74,"time":466.6670400000098,"velocity":0.6299212598425197,"duration":0.13773159166669302},{"name":"D5","midi":74,"time":466.94481800000983,"velocity":0.6299212598425197,"duration":0.13773159166669302},{"name":"D5","midi":74,"time":467.22259600000984,"velocity":0.6929133858267716,"duration":0.13773159166669302},{"name":"D5","midi":74,"time":467.50037400000986,"velocity":0.7559055118110236,"duration":0.13773159166669302},{"name":"D6","midi":86,"time":467.50037400000986,"velocity":0.7559055118110236,"duration":0.13773159166669302},{"name":"D5","midi":74,"time":467.77815200000987,"velocity":0.8188976377952756,"duration":0.13773159166669302},{"name":"D6","midi":86,"time":467.77815200000987,"velocity":0.8188976377952756,"duration":0.13773159166669302},{"name":"D5","midi":74,"time":468.0559300000099,"velocity":0.8818897637795275,"duration":0.13773159166669302},{"name":"D6","midi":86,"time":468.0559300000099,"velocity":0.8818897637795275,"duration":0.13773159166669302},{"name":"D5","midi":74,"time":468.8892640000099,"velocity":0.6299212598425197,"duration":0.13773159166669302},{"name":"D5","midi":74,"time":469.1670420000099,"velocity":0.6299212598425197,"duration":0.13773159166669302},{"name":"D5","midi":74,"time":469.44482000000994,"velocity":0.6929133858267716,"duration":0.13773159166669302},{"name":"D5","midi":74,"time":469.72259800000995,"velocity":0.7559055118110236,"duration":0.13773159166669302},{"name":"D6","midi":86,"time":469.72259800000995,"velocity":0.7559055118110236,"duration":0.13773159166669302},{"name":"D5","midi":74,"time":470.00037600000996,"velocity":0.8188976377952756,"duration":0.13773159166669302},{"name":"D6","midi":86,"time":470.00037600000996,"velocity":0.8188976377952756,"duration":0.13773159166669302},{"name":"D5","midi":74,"time":470.27815400001,"velocity":0.8818897637795275,"duration":0.13773159166669302},{"name":"D6","midi":86,"time":470.27815400001,"velocity":0.8818897637795275,"duration":0.13773159166669302},{"name":"D5","midi":74,"time":471.11148800001,"velocity":0.6299212598425197,"duration":0.13773159166669302},{"name":"D5","midi":74,"time":471.38926600001,"velocity":0.6299212598425197,"duration":0.13773159166669302},{"name":"D5","midi":74,"time":471.66704400001004,"velocity":0.6929133858267716,"duration":0.13773159166669302},{"name":"D5","midi":74,"time":471.94482200001005,"velocity":0.7559055118110236,"duration":0.13773159166669302},{"name":"D6","midi":86,"time":471.94482200001005,"velocity":0.7559055118110236,"duration":0.13773159166669302},{"name":"D5","midi":74,"time":472.22260000001006,"velocity":0.8188976377952756,"duration":0.13773159166669302},{"name":"D6","midi":86,"time":472.22260000001006,"velocity":0.8188976377952756,"duration":0.13773159166669302},{"name":"D5","midi":74,"time":472.5003780000101,"velocity":0.8818897637795275,"duration":0.13773159166669302},{"name":"D6","midi":86,"time":472.5003780000101,"velocity":0.8818897637795275,"duration":0.13773159166669302},{"name":"D5","midi":74,"time":473.3337120000101,"velocity":0.6299212598425197,"duration":0.13773159166669302},{"name":"D5","midi":74,"time":473.6114900000101,"velocity":0.6299212598425197,"duration":0.13773159166669302},{"name":"D5","midi":74,"time":473.88926800001013,"velocity":0.6929133858267716,"duration":0.13773159166669302},{"name":"D5","midi":74,"time":474.16704600001015,"velocity":0.7559055118110236,"duration":0.13773159166669302},{"name":"D6","midi":86,"time":474.16704600001015,"velocity":0.7559055118110236,"duration":0.13773159166669302},{"name":"D5","midi":74,"time":474.44482400001016,"velocity":0.8188976377952756,"duration":0.13773159166669302},{"name":"D6","midi":86,"time":474.44482400001016,"velocity":0.8188976377952756,"duration":0.13773159166669302},{"name":"D5","midi":74,"time":474.72260200001017,"velocity":0.8818897637795275,"duration":0.13773159166669302},{"name":"D6","midi":86,"time":474.72260200001017,"velocity":0.8818897637795275,"duration":0.13773159166669302},{"name":"D6","midi":86,"time":492.7781720000102,"velocity":0.6299212598425197,"duration":0.1307871416666444},{"name":"A5","midi":81,"time":493.05595000001017,"velocity":0.6299212598425197,"duration":0.1307871416666444},{"name":"A#5","midi":82,"time":493.3337280000101,"velocity":0.6299212598425197,"duration":0.1307871416666444},{"name":"G5","midi":79,"time":493.6115060000101,"velocity":0.6299212598425197,"duration":0.1307871416666444},{"name":"A5","midi":81,"time":493.88928400001004,"velocity":0.6299212598425197,"duration":0.1307871416666444},{"name":"D6","midi":86,"time":494.16706200001,"velocity":0.6299212598425197,"duration":0.1307871416666444},{"name":"A5","midi":81,"time":494.44484000000995,"velocity":0.6299212598425197,"duration":0.1307871416666444},{"name":"G5","midi":79,"time":494.58372900000995,"velocity":0.6299212598425197,"duration":0.1307871416666444},{"name":"F5","midi":77,"time":494.72261800000996,"velocity":0.6299212598425197,"duration":0.26273169166665866},{"name":"E5","midi":76,"time":495.00039600000997,"velocity":0.6299212598425197,"duration":0.1307871416666444},{"name":"G5","midi":79,"time":495.2781740000099,"velocity":0.6299212598425197,"duration":0.1307871416666444},{"name":"F5","midi":77,"time":495.5559520000099,"velocity":0.6299212598425197,"duration":0.1307871416666444},{"name":"E5","midi":76,"time":495.6948410000099,"velocity":0.6299212598425197,"duration":0.1307871416666444},{"name":"C#5","midi":73,"time":495.8337300000099,"velocity":0.6299212598425197,"duration":0.26273169166665866},{"name":"D5","midi":74,"time":496.1115080000099,"velocity":0.6299212598425197,"duration":0.1307871416666444},{"name":"A#5","midi":82,"time":496.38928600000986,"velocity":0.6299212598425197,"duration":0.1307871416666444},{"name":"A5","midi":81,"time":496.6670640000098,"velocity":0.6299212598425197,"duration":0.1307871416666444},{"name":"G5","midi":79,"time":496.8059530000098,"velocity":0.6299212598425197,"duration":0.1307871416666444},{"name":"A5","midi":81,"time":496.9448420000098,"velocity":0.6299212598425197,"duration":0.26273169166665866},{"name":"E5","midi":76,"time":497.22262000000984,"velocity":0.6299212598425197,"duration":0.1307871416666444},{"name":"C#5","midi":73,"time":497.5003980000098,"velocity":0.6299212598425197,"duration":0.1307871416666444},{"name":"A#5","midi":82,"time":497.77817600000975,"velocity":0.6299212598425197,"duration":0.1307871416666444},{"name":"A5","midi":81,"time":497.91706500000976,"velocity":0.6299212598425197,"duration":0.1307871416666444},{"name":"G5","midi":79,"time":498.05595400000976,"velocity":0.6299212598425197,"duration":0.26273169166665866},{"name":"F6","midi":89,"time":498.3337320000098,"velocity":0.6299212598425197,"duration":0.08680562500001088},{"name":"A5","midi":81,"time":498.3337320000098,"velocity":0.6299212598425197,"duration":0.2627316916667155},{"name":"D6","midi":86,"time":498.42632466667646,"velocity":0.6299212598425197,"duration":0.08680562500001088},{"name":"F6","midi":89,"time":498.51891733334315,"velocity":0.6299212598425197,"duration":0.08680562500001088},{"name":"D6","midi":86,"time":498.61151000000984,"velocity":0.6299212598425197,"duration":0.1307871416666444},{"name":"F6","midi":89,"time":498.8892880000098,"velocity":0.6299212598425197,"duration":0.1307871416666444},{"name":"E6","midi":88,"time":499.0281770000098,"velocity":0.6299212598425197,"duration":0.1307871416666444},{"name":"D6","midi":86,"time":499.1670660000098,"velocity":0.6299212598425197,"duration":0.26273169166665866},{"name":"A#5","midi":82,"time":499.4448440000098,"velocity":0.6299212598425197,"duration":0.1307871416666444},{"name":"A#5","midi":82,"time":499.7226220000098,"velocity":0.6299212598425197,"duration":0.1307871416666444},{"name":"A5","midi":81,"time":499.8615110000098,"velocity":0.6299212598425197,"duration":0.1307871416666444},{"name":"G5","midi":79,"time":500.0004000000098,"velocity":0.6299212598425197,"duration":0.1307871416666444},{"name":"F5","midi":77,"time":500.1392890000098,"velocity":0.6299212598425197,"duration":0.1307871416666444},{"name":"E5","midi":76,"time":500.2781780000098,"velocity":0.6299212598425197,"duration":0.1307871416666444},{"name":"C#5","midi":73,"time":500.55595600000976,"velocity":0.6299212598425197,"duration":0.26273169166665866},{"name":"A5","midi":81,"time":500.83373400000977,"velocity":0.6299212598425197,"duration":0.26273169166665866},{"name":"D5","midi":74,"time":501.1115120000098,"velocity":0.6299212598425197,"duration":0.5266207916666872},{"name":"F#4","midi":66,"time":501.6670680000098,"velocity":0.6299212598425197,"duration":0.26273169166665866},{"name":"F#5","midi":78,"time":501.6670680000098,"velocity":0.6299212598425197,"duration":0.26273169166665866},{"name":"A4","midi":69,"time":501.9448460000098,"velocity":0.6299212598425197,"duration":1.8460662916666593},{"name":"C3","midi":48,"time":507.2226280000098,"velocity":0.3858267716535433,"duration":2.1099553916666878},{"name":"D#3","midi":51,"time":507.2226280000098,"velocity":0.3858267716535433,"duration":2.1099553916666878},{"name":"G3","midi":55,"time":507.2226280000098,"velocity":0.3858267716535433,"duration":2.1099553916666878},{"name":"C3","midi":48,"time":509.44485200000986,"velocity":0.7559055118110236,"duration":2.1099553916666878},{"name":"D#3","midi":51,"time":509.44485200000986,"velocity":0.7559055118110236,"duration":2.1099553916666878},{"name":"G3","midi":55,"time":509.44485200000986,"velocity":0.7559055118110236,"duration":2.1099553916666878},{"name":"A#2","midi":46,"time":511.6670760000099,"velocity":0.7559055118110236,"duration":2.109955391666574},{"name":"F3","midi":53,"time":511.6670760000099,"velocity":0.7559055118110236,"duration":2.109955391666574},{"name":"G#2","midi":44,"time":513.8893000000098,"velocity":0.7559055118110236,"duration":2.1099553916667446},{"name":"D#3","midi":51,"time":513.8893000000098,"velocity":0.7559055118110236,"duration":2.1099553916667446},{"name":"G2","midi":43,"time":516.1115240000099,"velocity":0.7559055118110236,"duration":2.1099553916667446},{"name":"D3","midi":50,"time":516.1115240000099,"velocity":0.7559055118110236,"duration":2.1099553916667446},{"name":"C3","midi":48,"time":518.33374800001,"velocity":0.7559055118110236,"duration":1.0543989916667442},{"name":"G3","midi":55,"time":518.33374800001,"velocity":0.7559055118110236,"duration":1.0543989916667442},{"name":"G#3","midi":56,"time":519.4448600000101,"velocity":0.7559055118110236,"duration":1.0543989916666305},{"name":"D#4","midi":63,"time":519.4448600000101,"velocity":0.7559055118110236,"duration":1.0543989916666305},{"name":"C3","midi":48,"time":520.55597200001,"velocity":0.7559055118110236,"duration":1.0543989916667442},{"name":"G3","midi":55,"time":520.55597200001,"velocity":0.7559055118110236,"duration":1.0543989916667442},{"name":"G3","midi":55,"time":521.66708400001,"velocity":0.7559055118110236,"duration":1.0543989916666305},{"name":"D4","midi":62,"time":521.66708400001,"velocity":0.7559055118110236,"duration":1.0543989916666305},{"name":"C3","midi":48,"time":522.77819600001,"velocity":0.7559055118110236,"duration":1.0543989916667442},{"name":"G3","midi":55,"time":522.77819600001,"velocity":0.7559055118110236,"duration":1.0543989916667442},{"name":"G#3","midi":56,"time":523.88930800001,"velocity":0.7559055118110236,"duration":1.0543989916666305},{"name":"D#4","midi":63,"time":523.88930800001,"velocity":0.7559055118110236,"duration":1.0543989916666305},{"name":"C3","midi":48,"time":525.00042000001,"velocity":0.7559055118110236,"duration":1.0543989916667442},{"name":"G3","midi":55,"time":525.00042000001,"velocity":0.7559055118110236,"duration":1.0543989916667442},{"name":"G3","midi":55,"time":526.11153200001,"velocity":0.7559055118110236,"duration":1.0543989916666305},{"name":"D4","midi":62,"time":526.11153200001,"velocity":0.7559055118110236,"duration":1.0543989916666305},{"name":"D5","midi":74,"time":527.22264400001,"velocity":0.7559055118110236,"duration":0.06828709166666158},{"name":"F5","midi":77,"time":527.3615330000099,"velocity":0.7716535433070866,"duration":0.06828709166666158},{"name":"F#5","midi":78,"time":527.5004220000098,"velocity":0.7874015748031497,"duration":0.06828709166666158},{"name":"G5","midi":79,"time":527.6393110000098,"velocity":0.8031496062992126,"duration":0.06828709166666158},{"name":"C2","midi":36,"time":528.3337560000098,"velocity":0.8818897637795275,"duration":0.2766205916666422},{"name":"G2","midi":43,"time":528.3337560000098,"velocity":0.8818897637795275,"duration":0.2766205916666422},{"name":"C3","midi":48,"time":528.3337560000098,"velocity":0.8818897637795275,"duration":0.2766205916666422},{"name":"G3","midi":55,"time":528.3337560000098,"velocity":0.8818897637795275,"duration":0.2766205916666422},{"name":"F#2","midi":42,"time":528.8893120000098,"velocity":0.8818897637795275,"duration":0.2766205916666422},{"name":"F#3","midi":54,"time":528.8893120000098,"velocity":0.8818897637795275,"duration":0.2766205916666422},{"name":"G2","midi":43,"time":529.4448680000098,"velocity":0.8818897637795275,"duration":0.26273169166665866},{"name":"G3","midi":55,"time":529.4448680000098,"velocity":0.8818897637795275,"duration":0.26273169166665866},{"name":"G2","midi":43,"time":529.7226460000098,"velocity":0.8818897637795275,"duration":0.13773159166669302},{"name":"G3","midi":55,"time":529.7226460000098,"velocity":0.8818897637795275,"duration":0.13773159166669302},{"name":"F#2","midi":42,"time":530.2782020000099,"velocity":0.8818897637795275,"duration":0.26273169166665866},{"name":"F#3","midi":54,"time":530.2782020000099,"velocity":0.8818897637795275,"duration":0.26273169166665866},{"name":"C2","midi":36,"time":530.5559800000099,"velocity":0.8818897637795275,"duration":0.26273169166677235},{"name":"G2","midi":43,"time":530.5559800000099,"velocity":0.8818897637795275,"duration":0.26273169166677235},{"name":"C3","midi":48,"time":530.5559800000099,"velocity":0.8818897637795275,"duration":0.26273169166677235},{"name":"G3","midi":55,"time":530.5559800000099,"velocity":0.8818897637795275,"duration":0.26273169166677235},{"name":"G2","midi":43,"time":530.83375800001,"velocity":0.8818897637795275,"duration":0.26273169166665866},{"name":"G3","midi":55,"time":530.83375800001,"velocity":0.8818897637795275,"duration":0.26273169166665866},{"name":"G2","midi":43,"time":531.11153600001,"velocity":0.8818897637795275,"duration":0.26273169166665866},{"name":"G3","midi":55,"time":531.11153600001,"velocity":0.8818897637795275,"duration":0.26273169166665866},{"name":"G2","midi":43,"time":531.38931400001,"velocity":0.8818897637795275,"duration":0.26273169166665866},{"name":"G3","midi":55,"time":531.38931400001,"velocity":0.8818897637795275,"duration":0.26273169166665866},{"name":"C2","midi":36,"time":531.66709200001,"velocity":0.8818897637795275,"duration":0.26273169166665866},{"name":"G2","midi":43,"time":531.66709200001,"velocity":0.8818897637795275,"duration":0.26273169166665866},{"name":"C3","midi":48,"time":531.66709200001,"velocity":0.8818897637795275,"duration":0.26273169166665866},{"name":"G3","midi":55,"time":531.66709200001,"velocity":0.8818897637795275,"duration":0.26273169166665866},{"name":"G2","midi":43,"time":531.94487000001,"velocity":0.8818897637795275,"duration":0.26273169166665866},{"name":"G3","midi":55,"time":531.94487000001,"velocity":0.8818897637795275,"duration":0.26273169166665866},{"name":"F#2","midi":42,"time":532.22264800001,"velocity":0.8818897637795275,"duration":0.26273169166665866},{"name":"F#3","midi":54,"time":532.22264800001,"velocity":0.8818897637795275,"duration":0.26273169166665866},{"name":"F#2","midi":42,"time":532.5004260000101,"velocity":0.8818897637795275,"duration":0.26273169166665866},{"name":"F#3","midi":54,"time":532.5004260000101,"velocity":0.8818897637795275,"duration":0.26273169166665866},{"name":"C2","midi":36,"time":532.7782040000101,"velocity":0.8818897637795275,"duration":0.2766205916667559},{"name":"G2","midi":43,"time":532.7782040000101,"velocity":0.8818897637795275,"duration":0.2766205916667559},{"name":"C3","midi":48,"time":532.7782040000101,"velocity":0.8818897637795275,"duration":0.2766205916667559},{"name":"G3","midi":55,"time":532.7782040000101,"velocity":0.8818897637795275,"duration":0.2766205916667559},{"name":"F#2","midi":42,"time":533.3337600000102,"velocity":0.8818897637795275,"duration":0.2766205916666422},{"name":"F#3","midi":54,"time":533.3337600000102,"velocity":0.8818897637795275,"duration":0.2766205916666422},{"name":"G2","midi":43,"time":533.8893160000102,"velocity":0.8818897637795275,"duration":0.26273169166665866},{"name":"G3","midi":55,"time":533.8893160000102,"velocity":0.8818897637795275,"duration":0.26273169166665866},{"name":"G2","midi":43,"time":534.1670940000103,"velocity":0.8818897637795275,"duration":0.13773159166669302},{"name":"G3","midi":55,"time":534.1670940000103,"velocity":0.8818897637795275,"duration":0.13773159166669302},{"name":"F#2","midi":42,"time":534.7226500000103,"velocity":0.8818897637795275,"duration":0.26273169166665866},{"name":"F#3","midi":54,"time":534.7226500000103,"velocity":0.8818897637795275,"duration":0.26273169166665866},{"name":"C2","midi":36,"time":535.0004280000103,"velocity":0.8818897637795275,"duration":0.26273169166677235},{"name":"G2","midi":43,"time":535.0004280000103,"velocity":0.8818897637795275,"duration":0.26273169166677235},{"name":"C3","midi":48,"time":535.0004280000103,"velocity":0.8818897637795275,"duration":0.26273169166677235},{"name":"G3","midi":55,"time":535.0004280000103,"velocity":0.8818897637795275,"duration":0.26273169166677235},{"name":"G2","midi":43,"time":535.2782060000104,"velocity":0.8818897637795275,"duration":0.26273169166665866},{"name":"G3","midi":55,"time":535.2782060000104,"velocity":0.8818897637795275,"duration":0.26273169166665866},{"name":"G2","midi":43,"time":535.5559840000104,"velocity":0.8818897637795275,"duration":0.26273169166665866},{"name":"G3","midi":55,"time":535.5559840000104,"velocity":0.8818897637795275,"duration":0.26273169166665866},{"name":"G2","midi":43,"time":535.8337620000104,"velocity":0.8818897637795275,"duration":0.26273169166665866},{"name":"G3","midi":55,"time":535.8337620000104,"velocity":0.8818897637795275,"duration":0.26273169166665866},{"name":"C2","midi":36,"time":536.1115400000105,"velocity":0.8818897637795275,"duration":0.26273169166665866},{"name":"G2","midi":43,"time":536.1115400000105,"velocity":0.8818897637795275,"duration":0.26273169166665866},{"name":"C3","midi":48,"time":536.1115400000105,"velocity":0.8818897637795275,"duration":0.26273169166665866},{"name":"G3","midi":55,"time":536.1115400000105,"velocity":0.8818897637795275,"duration":0.26273169166665866},{"name":"G2","midi":43,"time":536.3893180000105,"velocity":0.8818897637795275,"duration":0.26273169166665866},{"name":"G3","midi":55,"time":536.3893180000105,"velocity":0.8818897637795275,"duration":0.26273169166665866},{"name":"F#2","midi":42,"time":536.6670960000105,"velocity":0.8818897637795275,"duration":0.26273169166665866},{"name":"F#3","midi":54,"time":536.6670960000105,"velocity":0.8818897637795275,"duration":0.26273169166665866},{"name":"F#2","midi":42,"time":536.9448740000105,"velocity":0.8818897637795275,"duration":0.26273169166665866},{"name":"F#3","midi":54,"time":536.9448740000105,"velocity":0.8818897637795275,"duration":0.26273169166665866},{"name":"C2","midi":36,"time":537.2226520000105,"velocity":0.8818897637795275,"duration":0.2766205916667559},{"name":"G2","midi":43,"time":537.2226520000105,"velocity":0.8818897637795275,"duration":0.2766205916667559},{"name":"C3","midi":48,"time":537.2226520000105,"velocity":0.8818897637795275,"duration":0.2766205916667559},{"name":"G3","midi":55,"time":537.2226520000105,"velocity":0.8818897637795275,"duration":0.2766205916667559},{"name":"F#2","midi":42,"time":537.7782080000106,"velocity":0.8818897637795275,"duration":0.2766205916666422},{"name":"F#3","midi":54,"time":537.7782080000106,"velocity":0.8818897637795275,"duration":0.2766205916666422},{"name":"G2","midi":43,"time":538.3337640000107,"velocity":0.8818897637795275,"duration":0.26273169166665866},{"name":"G3","midi":55,"time":538.3337640000107,"velocity":0.8818897637795275,"duration":0.26273169166665866},{"name":"G2","midi":43,"time":538.6115420000107,"velocity":0.8818897637795275,"duration":0.13773159166669302},{"name":"G3","midi":55,"time":538.6115420000107,"velocity":0.8818897637795275,"duration":0.13773159166669302},{"name":"F#2","midi":42,"time":539.1670980000107,"velocity":0.8818897637795275,"duration":0.26273169166665866},{"name":"F#3","midi":54,"time":539.1670980000107,"velocity":0.8818897637795275,"duration":0.26273169166665866},{"name":"C2","midi":36,"time":539.4448760000107,"velocity":0.8818897637795275,"duration":0.26273169166677235},{"name":"G2","midi":43,"time":539.4448760000107,"velocity":0.8818897637795275,"duration":0.26273169166677235},{"name":"C3","midi":48,"time":539.4448760000107,"velocity":0.8818897637795275,"duration":0.26273169166677235},{"name":"G3","midi":55,"time":539.4448760000107,"velocity":0.8818897637795275,"duration":0.26273169166677235},{"name":"G2","midi":43,"time":539.7226540000108,"velocity":0.8818897637795275,"duration":0.26273169166665866},{"name":"G3","midi":55,"time":539.7226540000108,"velocity":0.8818897637795275,"duration":0.26273169166665866},{"name":"G2","midi":43,"time":540.0004320000108,"velocity":0.8818897637795275,"duration":0.26273169166665866},{"name":"G3","midi":55,"time":540.0004320000108,"velocity":0.8818897637795275,"duration":0.26273169166665866},{"name":"G2","midi":43,"time":540.2782100000109,"velocity":0.8818897637795275,"duration":0.26273169166665866},{"name":"G3","midi":55,"time":540.2782100000109,"velocity":0.8818897637795275,"duration":0.26273169166665866},{"name":"C2","midi":36,"time":540.5559880000109,"velocity":0.8818897637795275,"duration":0.26273169166665866},{"name":"G2","midi":43,"time":540.5559880000109,"velocity":0.8818897637795275,"duration":0.26273169166665866},{"name":"C3","midi":48,"time":540.5559880000109,"velocity":0.8818897637795275,"duration":0.26273169166665866},{"name":"G3","midi":55,"time":540.5559880000109,"velocity":0.8818897637795275,"duration":0.26273169166665866},{"name":"G2","midi":43,"time":540.8337660000109,"velocity":0.8818897637795275,"duration":0.26273169166665866},{"name":"G3","midi":55,"time":540.8337660000109,"velocity":0.8818897637795275,"duration":0.26273169166665866},{"name":"F#2","midi":42,"time":541.1115440000109,"velocity":0.8818897637795275,"duration":0.26273169166665866},{"name":"F#3","midi":54,"time":541.1115440000109,"velocity":0.8818897637795275,"duration":0.26273169166665866},{"name":"F#2","midi":42,"time":541.3893220000109,"velocity":0.8818897637795275,"duration":0.26273169166665866},{"name":"F#3","midi":54,"time":541.3893220000109,"velocity":0.8818897637795275,"duration":0.26273169166665866},{"name":"C2","midi":36,"time":541.6671000000109,"velocity":0.8818897637795275,"duration":0.2766205916667559},{"name":"G2","midi":43,"time":541.6671000000109,"velocity":0.8818897637795275,"duration":0.2766205916667559},{"name":"C3","midi":48,"time":541.6671000000109,"velocity":0.8818897637795275,"duration":0.2766205916667559},{"name":"G3","midi":55,"time":541.6671000000109,"velocity":0.8818897637795275,"duration":0.2766205916667559},{"name":"F#2","midi":42,"time":542.222656000011,"velocity":0.8818897637795275,"duration":0.2766205916666422},{"name":"F#3","midi":54,"time":542.222656000011,"velocity":0.8818897637795275,"duration":0.2766205916666422},{"name":"G2","midi":43,"time":542.7782120000111,"velocity":0.8818897637795275,"duration":0.26273169166665866},{"name":"G3","midi":55,"time":542.7782120000111,"velocity":0.8818897637795275,"duration":0.26273169166665866},{"name":"G2","midi":43,"time":543.0559900000111,"velocity":0.8818897637795275,"duration":0.13773159166669302},{"name":"G3","midi":55,"time":543.0559900000111,"velocity":0.8818897637795275,"duration":0.13773159166669302},{"name":"F#2","midi":42,"time":543.6115460000111,"velocity":0.8818897637795275,"duration":0.26273169166665866},{"name":"F#3","midi":54,"time":543.6115460000111,"velocity":0.8818897637795275,"duration":0.26273169166665866},{"name":"C2","midi":36,"time":543.8893240000111,"velocity":0.8818897637795275,"duration":0.26273169166677235},{"name":"G2","midi":43,"time":543.8893240000111,"velocity":0.8818897637795275,"duration":0.26273169166677235},{"name":"C3","midi":48,"time":543.8893240000111,"velocity":0.8818897637795275,"duration":0.26273169166677235},{"name":"G3","midi":55,"time":543.8893240000111,"velocity":0.8818897637795275,"duration":0.26273169166677235},{"name":"G2","midi":43,"time":544.1671020000113,"velocity":0.8818897637795275,"duration":0.26273169166665866},{"name":"G3","midi":55,"time":544.1671020000113,"velocity":0.8818897637795275,"duration":0.26273169166665866},{"name":"G2","midi":43,"time":544.4448800000113,"velocity":0.8818897637795275,"duration":0.26273169166665866},{"name":"G3","midi":55,"time":544.4448800000113,"velocity":0.8818897637795275,"duration":0.26273169166665866},{"name":"F#2","midi":42,"time":544.7226580000113,"velocity":0.8818897637795275,"duration":0.26273169166665866},{"name":"F#3","midi":54,"time":544.7226580000113,"velocity":0.8818897637795275,"duration":0.26273169166665866},{"name":"C2","midi":36,"time":545.0004360000113,"velocity":0.8818897637795275,"duration":0.26273169166665866},{"name":"G2","midi":43,"time":545.0004360000113,"velocity":0.8818897637795275,"duration":0.26273169166665866},{"name":"C3","midi":48,"time":545.0004360000113,"velocity":0.8818897637795275,"duration":0.26273169166665866},{"name":"G3","midi":55,"time":545.0004360000113,"velocity":0.8818897637795275,"duration":0.26273169166665866},{"name":"G2","midi":43,"time":545.2782140000113,"velocity":0.8818897637795275,"duration":0.26273169166665866},{"name":"G3","midi":55,"time":545.2782140000113,"velocity":0.8818897637795275,"duration":0.26273169166665866},{"name":"F#2","midi":42,"time":545.5559920000113,"velocity":0.8818897637795275,"duration":0.26273169166665866},{"name":"F#3","midi":54,"time":545.5559920000113,"velocity":0.8818897637795275,"duration":0.26273169166665866},{"name":"F#2","midi":42,"time":545.8337700000113,"velocity":0.8818897637795275,"duration":0.26273169166665866},{"name":"F#3","midi":54,"time":545.8337700000113,"velocity":0.8818897637795275,"duration":0.26273169166665866},{"name":"C2","midi":36,"time":546.1115480000113,"velocity":0.8818897637795275,"duration":0.2766205916667559},{"name":"G2","midi":43,"time":546.1115480000113,"velocity":0.8818897637795275,"duration":0.2766205916667559},{"name":"C3","midi":48,"time":546.1115480000113,"velocity":0.8818897637795275,"duration":0.2766205916667559},{"name":"G3","midi":55,"time":546.1115480000113,"velocity":0.8818897637795275,"duration":0.2766205916667559},{"name":"F#2","midi":42,"time":546.6671040000115,"velocity":0.8818897637795275,"duration":0.2766205916666422},{"name":"F#3","midi":54,"time":546.6671040000115,"velocity":0.8818897637795275,"duration":0.2766205916666422},{"name":"G2","midi":43,"time":547.2226600000115,"velocity":0.8818897637795275,"duration":0.26273169166665866},{"name":"G3","midi":55,"time":547.2226600000115,"velocity":0.8818897637795275,"duration":0.26273169166665866},{"name":"G2","midi":43,"time":547.5004380000115,"velocity":0.8818897637795275,"duration":0.13773159166669302},{"name":"G3","midi":55,"time":547.5004380000115,"velocity":0.8818897637795275,"duration":0.13773159166669302},{"name":"F#2","midi":42,"time":548.0559940000115,"velocity":0.8818897637795275,"duration":0.26273169166665866},{"name":"F#3","midi":54,"time":548.0559940000115,"velocity":0.8818897637795275,"duration":0.26273169166665866},{"name":"C2","midi":36,"time":548.3337720000115,"velocity":0.8818897637795275,"duration":0.26273169166677235},{"name":"G2","midi":43,"time":548.3337720000115,"velocity":0.8818897637795275,"duration":0.26273169166677235},{"name":"C3","midi":48,"time":548.3337720000115,"velocity":0.8818897637795275,"duration":0.26273169166677235},{"name":"G3","midi":55,"time":548.3337720000115,"velocity":0.8818897637795275,"duration":0.26273169166677235},{"name":"G2","midi":43,"time":548.6115500000117,"velocity":0.8818897637795275,"duration":0.26273169166665866},{"name":"G3","midi":55,"time":548.6115500000117,"velocity":0.8818897637795275,"duration":0.26273169166665866},{"name":"G2","midi":43,"time":548.8893280000117,"velocity":0.8818897637795275,"duration":0.26273169166665866},{"name":"G3","midi":55,"time":548.8893280000117,"velocity":0.8818897637795275,"duration":0.26273169166665866},{"name":"G2","midi":43,"time":549.1671060000117,"velocity":0.8818897637795275,"duration":0.26273169166665866},{"name":"G3","midi":55,"time":549.1671060000117,"velocity":0.8818897637795275,"duration":0.26273169166665866},{"name":"C2","midi":36,"time":549.4448840000117,"velocity":0.8818897637795275,"duration":0.26273169166665866},{"name":"G2","midi":43,"time":549.4448840000117,"velocity":0.8818897637795275,"duration":0.26273169166665866},{"name":"C3","midi":48,"time":549.4448840000117,"velocity":0.8818897637795275,"duration":0.26273169166665866},{"name":"G3","midi":55,"time":549.4448840000117,"velocity":0.8818897637795275,"duration":0.26273169166665866},{"name":"G2","midi":43,"time":549.7226620000117,"velocity":0.8818897637795275,"duration":0.26273169166665866},{"name":"G3","midi":55,"time":549.7226620000117,"velocity":0.8818897637795275,"duration":0.26273169166665866},{"name":"F#2","midi":42,"time":550.0004400000117,"velocity":0.8818897637795275,"duration":0.26273169166665866},{"name":"F#3","midi":54,"time":550.0004400000117,"velocity":0.8818897637795275,"duration":0.26273169166665866},{"name":"F#2","midi":42,"time":550.2782180000117,"velocity":0.8818897637795275,"duration":0.26273169166665866},{"name":"F#3","midi":54,"time":550.2782180000117,"velocity":0.8818897637795275,"duration":0.26273169166665866},{"name":"C2","midi":36,"time":550.5559960000118,"velocity":0.8818897637795275,"duration":0.2766205916667559},{"name":"G2","midi":43,"time":550.5559960000118,"velocity":0.8818897637795275,"duration":0.2766205916667559},{"name":"C3","midi":48,"time":550.5559960000118,"velocity":0.8818897637795275,"duration":0.2766205916667559},{"name":"G3","midi":55,"time":550.5559960000118,"velocity":0.8818897637795275,"duration":0.2766205916667559},{"name":"F#2","midi":42,"time":551.1115520000119,"velocity":0.8818897637795275,"duration":0.2766205916666422},{"name":"F#3","midi":54,"time":551.1115520000119,"velocity":0.8818897637795275,"duration":0.2766205916666422},{"name":"G2","midi":43,"time":551.6671080000119,"velocity":0.8818897637795275,"duration":0.26273169166665866},{"name":"G3","midi":55,"time":551.6671080000119,"velocity":0.8818897637795275,"duration":0.26273169166665866},{"name":"G2","midi":43,"time":551.9448860000119,"velocity":0.8818897637795275,"duration":0.13773159166669302},{"name":"G3","midi":55,"time":551.9448860000119,"velocity":0.8818897637795275,"duration":0.13773159166669302},{"name":"F#2","midi":42,"time":552.500442000012,"velocity":0.8818897637795275,"duration":0.26273169166665866},{"name":"F#3","midi":54,"time":552.500442000012,"velocity":0.8818897637795275,"duration":0.26273169166665866},{"name":"C2","midi":36,"time":552.778220000012,"velocity":0.8818897637795275,"duration":0.26273169166677235},{"name":"G2","midi":43,"time":552.778220000012,"velocity":0.8818897637795275,"duration":0.26273169166677235},{"name":"C3","midi":48,"time":552.778220000012,"velocity":0.8818897637795275,"duration":0.26273169166677235},{"name":"G3","midi":55,"time":552.778220000012,"velocity":0.8818897637795275,"duration":0.26273169166677235},{"name":"G2","midi":43,"time":553.0559980000121,"velocity":0.8818897637795275,"duration":0.26273169166665866},{"name":"G3","midi":55,"time":553.0559980000121,"velocity":0.8818897637795275,"duration":0.26273169166665866},{"name":"G2","midi":43,"time":553.3337760000121,"velocity":0.8818897637795275,"duration":0.26273169166665866},{"name":"G3","midi":55,"time":553.3337760000121,"velocity":0.8818897637795275,"duration":0.26273169166665866},{"name":"G2","midi":43,"time":553.6115540000121,"velocity":0.8818897637795275,"duration":0.26273169166665866},{"name":"G3","midi":55,"time":553.6115540000121,"velocity":0.8818897637795275,"duration":0.26273169166665866},{"name":"C2","midi":36,"time":553.8893320000121,"velocity":0.8818897637795275,"duration":0.26273169166665866},{"name":"G2","midi":43,"time":553.8893320000121,"velocity":0.8818897637795275,"duration":0.26273169166665866},{"name":"C3","midi":48,"time":553.8893320000121,"velocity":0.8818897637795275,"duration":0.26273169166665866},{"name":"G3","midi":55,"time":553.8893320000121,"velocity":0.8818897637795275,"duration":0.26273169166665866},{"name":"G2","midi":43,"time":554.1671100000121,"velocity":0.8818897637795275,"duration":0.26273169166665866},{"name":"G3","midi":55,"time":554.1671100000121,"velocity":0.8818897637795275,"duration":0.26273169166665866},{"name":"F#2","midi":42,"time":554.4448880000122,"velocity":0.8818897637795275,"duration":0.26273169166665866},{"name":"F#3","midi":54,"time":554.4448880000122,"velocity":0.8818897637795275,"duration":0.26273169166665866},{"name":"F#2","midi":42,"time":554.7226660000122,"velocity":0.8818897637795275,"duration":0.26273169166665866},{"name":"F#3","midi":54,"time":554.7226660000122,"velocity":0.8818897637795275,"duration":0.26273169166665866},{"name":"C2","midi":36,"time":555.0004440000122,"velocity":0.8818897637795275,"duration":0.2766205916667559},{"name":"G2","midi":43,"time":555.0004440000122,"velocity":0.8818897637795275,"duration":0.2766205916667559},{"name":"C3","midi":48,"time":555.0004440000122,"velocity":0.8818897637795275,"duration":0.2766205916667559},{"name":"G3","midi":55,"time":555.0004440000122,"velocity":0.8818897637795275,"duration":0.2766205916667559},{"name":"F#2","midi":42,"time":555.5560000000123,"velocity":0.8818897637795275,"duration":0.2766205916666422},{"name":"F#3","midi":54,"time":555.5560000000123,"velocity":0.8818897637795275,"duration":0.2766205916666422},{"name":"G2","midi":43,"time":556.1115560000123,"velocity":0.8818897637795275,"duration":0.26273169166665866},{"name":"G3","midi":55,"time":556.1115560000123,"velocity":0.8818897637795275,"duration":0.26273169166665866},{"name":"G2","midi":43,"time":556.3893340000124,"velocity":0.8818897637795275,"duration":0.13773159166669302},{"name":"G3","midi":55,"time":556.3893340000124,"velocity":0.8818897637795275,"duration":0.13773159166669302},{"name":"F#2","midi":42,"time":556.9448900000124,"velocity":0.8818897637795275,"duration":0.26273169166665866},{"name":"F#3","midi":54,"time":556.9448900000124,"velocity":0.8818897637795275,"duration":0.26273169166665866},{"name":"C2","midi":36,"time":557.2226680000124,"velocity":0.8818897637795275,"duration":0.26273169166677235},{"name":"G2","midi":43,"time":557.2226680000124,"velocity":0.8818897637795275,"duration":0.26273169166677235},{"name":"C3","midi":48,"time":557.2226680000124,"velocity":0.8818897637795275,"duration":0.26273169166677235},{"name":"G3","midi":55,"time":557.2226680000124,"velocity":0.8818897637795275,"duration":0.26273169166677235},{"name":"G2","midi":43,"time":557.5004460000125,"velocity":0.8818897637795275,"duration":0.26273169166665866},{"name":"G3","midi":55,"time":557.5004460000125,"velocity":0.8818897637795275,"duration":0.26273169166665866},{"name":"G2","midi":43,"time":557.7782240000125,"velocity":0.8818897637795275,"duration":0.26273169166665866},{"name":"G3","midi":55,"time":557.7782240000125,"velocity":0.8818897637795275,"duration":0.26273169166665866},{"name":"G2","midi":43,"time":558.0560020000125,"velocity":0.8818897637795275,"duration":0.26273169166665866},{"name":"G3","midi":55,"time":558.0560020000125,"velocity":0.8818897637795275,"duration":0.26273169166665866},{"name":"C2","midi":36,"time":558.3337800000126,"velocity":0.8818897637795275,"duration":0.26273169166665866},{"name":"G2","midi":43,"time":558.3337800000126,"velocity":0.8818897637795275,"duration":0.26273169166665866},{"name":"C3","midi":48,"time":558.3337800000126,"velocity":0.8818897637795275,"duration":0.26273169166665866},{"name":"G3","midi":55,"time":558.3337800000126,"velocity":0.8818897637795275,"duration":0.26273169166665866},{"name":"G2","midi":43,"time":558.6115580000126,"velocity":0.8818897637795275,"duration":0.26273169166665866},{"name":"G3","midi":55,"time":558.6115580000126,"velocity":0.8818897637795275,"duration":0.26273169166665866},{"name":"F#2","midi":42,"time":558.8893360000126,"velocity":0.8818897637795275,"duration":0.26273169166665866},{"name":"F#3","midi":54,"time":558.8893360000126,"velocity":0.8818897637795275,"duration":0.26273169166665866},{"name":"F#2","midi":42,"time":559.1671140000126,"velocity":0.8818897637795275,"duration":0.26273169166665866},{"name":"F#3","midi":54,"time":559.1671140000126,"velocity":0.8818897637795275,"duration":0.26273169166665866},{"name":"C2","midi":36,"time":559.4448920000126,"velocity":0.8818897637795275,"duration":0.2766205916667559},{"name":"G2","midi":43,"time":559.4448920000126,"velocity":0.8818897637795275,"duration":0.2766205916667559},{"name":"C3","midi":48,"time":559.4448920000126,"velocity":0.8818897637795275,"duration":0.2766205916667559},{"name":"G3","midi":55,"time":559.4448920000126,"velocity":0.8818897637795275,"duration":0.2766205916667559},{"name":"F#2","midi":42,"time":560.0004480000127,"velocity":0.8818897637795275,"duration":0.2766205916666422},{"name":"F#3","midi":54,"time":560.0004480000127,"velocity":0.8818897637795275,"duration":0.2766205916666422},{"name":"G2","midi":43,"time":560.5560040000128,"velocity":0.8818897637795275,"duration":0.26273169166665866},{"name":"G3","midi":55,"time":560.5560040000128,"velocity":0.8818897637795275,"duration":0.26273169166665866},{"name":"G2","midi":43,"time":560.8337820000128,"velocity":0.8818897637795275,"duration":0.13773159166669302},{"name":"G3","midi":55,"time":560.8337820000128,"velocity":0.8818897637795275,"duration":0.13773159166669302},{"name":"F#2","midi":42,"time":561.3893380000128,"velocity":0.8818897637795275,"duration":0.26273169166665866},{"name":"F#3","midi":54,"time":561.3893380000128,"velocity":0.8818897637795275,"duration":0.26273169166665866},{"name":"C2","midi":36,"time":561.6671160000128,"velocity":0.8818897637795275,"duration":0.26273169166677235},{"name":"G2","midi":43,"time":561.6671160000128,"velocity":0.8818897637795275,"duration":0.26273169166677235},{"name":"C3","midi":48,"time":561.6671160000128,"velocity":0.8818897637795275,"duration":0.26273169166677235},{"name":"G3","midi":55,"time":561.6671160000128,"velocity":0.8818897637795275,"duration":0.26273169166677235},{"name":"G2","midi":43,"time":561.9448940000129,"velocity":0.8818897637795275,"duration":0.26273169166665866},{"name":"G3","midi":55,"time":561.9448940000129,"velocity":0.8818897637795275,"duration":0.26273169166665866},{"name":"G2","midi":43,"time":562.222672000013,"velocity":0.8818897637795275,"duration":0.26273169166665866},{"name":"G3","midi":55,"time":562.222672000013,"velocity":0.8818897637795275,"duration":0.26273169166665866},{"name":"G2","midi":43,"time":562.500450000013,"velocity":0.8818897637795275,"duration":0.26273169166665866},{"name":"G3","midi":55,"time":562.500450000013,"velocity":0.8818897637795275,"duration":0.26273169166665866},{"name":"C2","midi":36,"time":562.778228000013,"velocity":0.8818897637795275,"duration":0.26273169166665866},{"name":"G2","midi":43,"time":562.778228000013,"velocity":0.8818897637795275,"duration":0.26273169166665866},{"name":"C3","midi":48,"time":562.778228000013,"velocity":0.8818897637795275,"duration":0.26273169166665866},{"name":"G3","midi":55,"time":562.778228000013,"velocity":0.8818897637795275,"duration":0.26273169166665866},{"name":"G2","midi":43,"time":563.056006000013,"velocity":0.8818897637795275,"duration":0.26273169166665866},{"name":"G3","midi":55,"time":563.056006000013,"velocity":0.8818897637795275,"duration":0.26273169166665866},{"name":"F#2","midi":42,"time":563.333784000013,"velocity":0.8818897637795275,"duration":0.26273169166665866},{"name":"F#3","midi":54,"time":563.333784000013,"velocity":0.8818897637795275,"duration":0.26273169166665866},{"name":"F#2","midi":42,"time":563.611562000013,"velocity":0.8818897637795275,"duration":0.26273169166665866},{"name":"F#3","midi":54,"time":563.611562000013,"velocity":0.8818897637795275,"duration":0.26273169166665866},{"name":"C2","midi":36,"time":563.889340000013,"velocity":0.6299212598425197,"duration":0.2766205916667559},{"name":"G2","midi":43,"time":563.889340000013,"velocity":0.6299212598425197,"duration":0.2766205916667559},{"name":"C3","midi":48,"time":563.889340000013,"velocity":0.6299212598425197,"duration":0.2766205916667559},{"name":"G3","midi":55,"time":563.889340000013,"velocity":0.6299212598425197,"duration":0.2766205916667559},{"name":"F#2","midi":42,"time":564.4448960000132,"velocity":0.6299212598425197,"duration":0.2766205916666422},{"name":"F#3","midi":54,"time":564.4448960000132,"velocity":0.6299212598425197,"duration":0.2766205916666422},{"name":"G2","midi":43,"time":565.0004520000132,"velocity":0.6299212598425197,"duration":0.26273169166665866},{"name":"G3","midi":55,"time":565.0004520000132,"velocity":0.6299212598425197,"duration":0.26273169166665866},{"name":"G2","midi":43,"time":565.2782300000132,"velocity":0.6299212598425197,"duration":0.13773159166669302},{"name":"G3","midi":55,"time":565.2782300000132,"velocity":0.6299212598425197,"duration":0.13773159166669302},{"name":"F#2","midi":42,"time":565.8337860000132,"velocity":0.6299212598425197,"duration":0.26273169166665866},{"name":"F#3","midi":54,"time":565.8337860000132,"velocity":0.6299212598425197,"duration":0.26273169166665866},{"name":"C2","midi":36,"time":566.1115640000132,"velocity":0.6299212598425197,"duration":0.26273169166677235},{"name":"G2","midi":43,"time":566.1115640000132,"velocity":0.6299212598425197,"duration":0.26273169166677235},{"name":"C3","midi":48,"time":566.1115640000132,"velocity":0.6299212598425197,"duration":0.26273169166677235},{"name":"G3","midi":55,"time":566.1115640000132,"velocity":0.6299212598425197,"duration":0.26273169166677235},{"name":"G2","midi":43,"time":566.3893420000134,"velocity":0.6299212598425197,"duration":0.26273169166665866},{"name":"G3","midi":55,"time":566.3893420000134,"velocity":0.6299212598425197,"duration":0.26273169166665866},{"name":"G2","midi":43,"time":566.6671200000134,"velocity":0.6299212598425197,"duration":0.26273169166665866},{"name":"G3","midi":55,"time":566.6671200000134,"velocity":0.6299212598425197,"duration":0.26273169166665866},{"name":"G2","midi":43,"time":566.9448980000134,"velocity":0.6299212598425197,"duration":0.26273169166665866},{"name":"G3","midi":55,"time":566.9448980000134,"velocity":0.6299212598425197,"duration":0.26273169166665866},{"name":"C2","midi":36,"time":567.2226760000134,"velocity":0.6299212598425197,"duration":0.26273169166665866},{"name":"G2","midi":43,"time":567.2226760000134,"velocity":0.6299212598425197,"duration":0.26273169166665866},{"name":"C3","midi":48,"time":567.2226760000134,"velocity":0.6299212598425197,"duration":0.26273169166665866},{"name":"G3","midi":55,"time":567.2226760000134,"velocity":0.6299212598425197,"duration":0.26273169166665866},{"name":"G2","midi":43,"time":567.5004540000134,"velocity":0.6299212598425197,"duration":0.26273169166665866},{"name":"G3","midi":55,"time":567.5004540000134,"velocity":0.6299212598425197,"duration":0.26273169166665866},{"name":"F#2","midi":42,"time":567.7782320000134,"velocity":0.6299212598425197,"duration":0.26273169166665866},{"name":"F#3","midi":54,"time":567.7782320000134,"velocity":0.6299212598425197,"duration":0.26273169166665866},{"name":"F#2","midi":42,"time":568.0560100000134,"velocity":0.6299212598425197,"duration":0.26273169166665866},{"name":"F#3","midi":54,"time":568.0560100000134,"velocity":0.6299212598425197,"duration":0.26273169166665866},{"name":"C2","midi":36,"time":568.3337880000134,"velocity":0.6299212598425197,"duration":0.2766205916667559},{"name":"G2","midi":43,"time":568.3337880000134,"velocity":0.6299212598425197,"duration":0.2766205916667559},{"name":"C3","midi":48,"time":568.3337880000134,"velocity":0.6299212598425197,"duration":0.2766205916667559},{"name":"G3","midi":55,"time":568.3337880000134,"velocity":0.6299212598425197,"duration":0.2766205916667559},{"name":"F#2","midi":42,"time":568.8893440000136,"velocity":0.6299212598425197,"duration":0.2766205916666422},{"name":"F#3","midi":54,"time":568.8893440000136,"velocity":0.6299212598425197,"duration":0.2766205916666422},{"name":"G2","midi":43,"time":569.4449000000136,"velocity":0.6299212598425197,"duration":0.26273169166665866},{"name":"G3","midi":55,"time":569.4449000000136,"velocity":0.6299212598425197,"duration":0.26273169166665866},{"name":"G2","midi":43,"time":569.7226780000136,"velocity":0.6299212598425197,"duration":0.13773159166669302},{"name":"G3","midi":55,"time":569.7226780000136,"velocity":0.6299212598425197,"duration":0.13773159166669302},{"name":"F#2","midi":42,"time":570.2782340000136,"velocity":0.6299212598425197,"duration":0.26273169166665866},{"name":"F#3","midi":54,"time":570.2782340000136,"velocity":0.6299212598425197,"duration":0.26273169166665866},{"name":"C2","midi":36,"time":570.5560120000137,"velocity":0.6299212598425197,"duration":0.26273169166677235},{"name":"G2","midi":43,"time":570.5560120000137,"velocity":0.6299212598425197,"duration":0.26273169166677235},{"name":"C3","midi":48,"time":570.5560120000137,"velocity":0.6299212598425197,"duration":0.26273169166677235},{"name":"G3","midi":55,"time":570.5560120000137,"velocity":0.6299212598425197,"duration":0.26273169166677235},{"name":"G2","midi":43,"time":570.8337900000138,"velocity":0.6299212598425197,"duration":0.26273169166665866},{"name":"G3","midi":55,"time":570.8337900000138,"velocity":0.6299212598425197,"duration":0.26273169166665866},{"name":"G2","midi":43,"time":571.1115680000138,"velocity":0.6299212598425197,"duration":0.26273169166665866},{"name":"G3","midi":55,"time":571.1115680000138,"velocity":0.6299212598425197,"duration":0.26273169166665866},{"name":"G2","midi":43,"time":571.3893460000138,"velocity":0.6299212598425197,"duration":0.26273169166665866},{"name":"G3","midi":55,"time":571.3893460000138,"velocity":0.6299212598425197,"duration":0.26273169166665866},{"name":"C2","midi":36,"time":571.6671240000138,"velocity":0.6299212598425197,"duration":0.26273169166665866},{"name":"G2","midi":43,"time":571.6671240000138,"velocity":0.6299212598425197,"duration":0.26273169166665866},{"name":"C3","midi":48,"time":571.6671240000138,"velocity":0.6299212598425197,"duration":0.26273169166665866},{"name":"G3","midi":55,"time":571.6671240000138,"velocity":0.6299212598425197,"duration":0.26273169166665866},{"name":"G2","midi":43,"time":571.9449020000138,"velocity":0.6299212598425197,"duration":0.26273169166665866},{"name":"G3","midi":55,"time":571.9449020000138,"velocity":0.6299212598425197,"duration":0.26273169166665866},{"name":"F#2","midi":42,"time":572.2226800000138,"velocity":0.6299212598425197,"duration":0.26273169166665866},{"name":"F#3","midi":54,"time":572.2226800000138,"velocity":0.6299212598425197,"duration":0.26273169166665866},{"name":"F#2","midi":42,"time":572.5004580000139,"velocity":0.6299212598425197,"duration":0.26273169166665866},{"name":"F#3","midi":54,"time":572.5004580000139,"velocity":0.6299212598425197,"duration":0.26273169166665866},{"name":"C2","midi":36,"time":572.7782360000139,"velocity":0.6299212598425197,"duration":0.2766205916667559},{"name":"G2","midi":43,"time":572.7782360000139,"velocity":0.6299212598425197,"duration":0.2766205916667559},{"name":"C3","midi":48,"time":572.7782360000139,"velocity":0.6299212598425197,"duration":0.2766205916667559},{"name":"G3","midi":55,"time":572.7782360000139,"velocity":0.6299212598425197,"duration":0.2766205916667559},{"name":"F#2","midi":42,"time":573.333792000014,"velocity":0.6299212598425197,"duration":0.2766205916666422},{"name":"F#3","midi":54,"time":573.333792000014,"velocity":0.6299212598425197,"duration":0.2766205916666422},{"name":"G2","midi":43,"time":573.889348000014,"velocity":0.6299212598425197,"duration":0.26273169166665866},{"name":"G3","midi":55,"time":573.889348000014,"velocity":0.6299212598425197,"duration":0.26273169166665866},{"name":"G2","midi":43,"time":574.167126000014,"velocity":0.6299212598425197,"duration":0.13773159166669302},{"name":"G3","midi":55,"time":574.167126000014,"velocity":0.6299212598425197,"duration":0.13773159166669302},{"name":"F#2","midi":42,"time":574.7226820000141,"velocity":0.6299212598425197,"duration":0.26273169166665866},{"name":"F#3","midi":54,"time":574.7226820000141,"velocity":0.6299212598425197,"duration":0.26273169166665866},{"name":"C2","midi":36,"time":575.0004600000141,"velocity":0.6299212598425197,"duration":0.26273169166677235},{"name":"G2","midi":43,"time":575.0004600000141,"velocity":0.6299212598425197,"duration":0.26273169166677235},{"name":"C3","midi":48,"time":575.0004600000141,"velocity":0.6299212598425197,"duration":0.26273169166677235},{"name":"G3","midi":55,"time":575.0004600000141,"velocity":0.6299212598425197,"duration":0.26273169166677235},{"name":"G2","midi":43,"time":575.2782380000142,"velocity":0.6299212598425197,"duration":0.26273169166665866},{"name":"G3","midi":55,"time":575.2782380000142,"velocity":0.6299212598425197,"duration":0.26273169166665866},{"name":"G2","midi":43,"time":575.5560160000142,"velocity":0.6299212598425197,"duration":0.26273169166665866},{"name":"G3","midi":55,"time":575.5560160000142,"velocity":0.6299212598425197,"duration":0.26273169166665866},{"name":"G2","midi":43,"time":575.8337940000142,"velocity":0.6299212598425197,"duration":0.26273169166665866},{"name":"G3","midi":55,"time":575.8337940000142,"velocity":0.6299212598425197,"duration":0.26273169166665866},{"name":"C2","midi":36,"time":576.1115720000142,"velocity":0.6299212598425197,"duration":0.26273169166665866},{"name":"G2","midi":43,"time":576.1115720000142,"velocity":0.6299212598425197,"duration":0.26273169166665866},{"name":"C3","midi":48,"time":576.1115720000142,"velocity":0.6299212598425197,"duration":0.26273169166665866},{"name":"G3","midi":55,"time":576.1115720000142,"velocity":0.6299212598425197,"duration":0.26273169166665866},{"name":"G2","midi":43,"time":576.3893500000142,"velocity":0.6299212598425197,"duration":0.26273169166665866},{"name":"G3","midi":55,"time":576.3893500000142,"velocity":0.6299212598425197,"duration":0.26273169166665866},{"name":"F#2","midi":42,"time":576.6671280000143,"velocity":0.6299212598425197,"duration":0.26273169166665866},{"name":"F#3","midi":54,"time":576.6671280000143,"velocity":0.6299212598425197,"duration":0.26273169166665866},{"name":"F#2","midi":42,"time":576.9449060000143,"velocity":0.6299212598425197,"duration":0.26273169166665866},{"name":"F#3","midi":54,"time":576.9449060000143,"velocity":0.6299212598425197,"duration":0.26273169166665866},{"name":"C2","midi":36,"time":577.2226840000143,"velocity":0.6299212598425197,"duration":0.2766205916667559},{"name":"G2","midi":43,"time":577.2226840000143,"velocity":0.6299212598425197,"duration":0.2766205916667559},{"name":"C3","midi":48,"time":577.2226840000143,"velocity":0.6299212598425197,"duration":0.2766205916667559},{"name":"G3","midi":55,"time":577.2226840000143,"velocity":0.6299212598425197,"duration":0.2766205916667559},{"name":"F#2","midi":42,"time":577.7782400000144,"velocity":0.6299212598425197,"duration":0.2766205916666422},{"name":"F#3","midi":54,"time":577.7782400000144,"velocity":0.6299212598425197,"duration":0.2766205916666422},{"name":"G2","midi":43,"time":578.3337960000144,"velocity":0.6299212598425197,"duration":0.26273169166665866},{"name":"G3","midi":55,"time":578.3337960000144,"velocity":0.6299212598425197,"duration":0.26273169166665866},{"name":"G2","midi":43,"time":578.6115740000145,"velocity":0.6299212598425197,"duration":0.13773159166669302},{"name":"G3","midi":55,"time":578.6115740000145,"velocity":0.6299212598425197,"duration":0.13773159166669302},{"name":"F#2","midi":42,"time":579.1671300000145,"velocity":0.6299212598425197,"duration":0.26273169166665866},{"name":"F#3","midi":54,"time":579.1671300000145,"velocity":0.6299212598425197,"duration":0.26273169166665866},{"name":"C2","midi":36,"time":579.4449080000145,"velocity":0.6299212598425197,"duration":0.26273169166677235},{"name":"G2","midi":43,"time":579.4449080000145,"velocity":0.6299212598425197,"duration":0.26273169166677235},{"name":"C3","midi":48,"time":579.4449080000145,"velocity":0.6299212598425197,"duration":0.26273169166677235},{"name":"G3","midi":55,"time":579.4449080000145,"velocity":0.6299212598425197,"duration":0.26273169166677235},{"name":"G2","midi":43,"time":579.7226860000146,"velocity":0.6299212598425197,"duration":0.26273169166665866},{"name":"G3","midi":55,"time":579.7226860000146,"velocity":0.6299212598425197,"duration":0.26273169166665866},{"name":"G2","midi":43,"time":580.0004640000146,"velocity":0.6299212598425197,"duration":0.26273169166665866},{"name":"G3","midi":55,"time":580.0004640000146,"velocity":0.6299212598425197,"duration":0.26273169166665866},{"name":"G2","midi":43,"time":580.2782420000146,"velocity":0.6299212598425197,"duration":0.26273169166665866},{"name":"G3","midi":55,"time":580.2782420000146,"velocity":0.6299212598425197,"duration":0.26273169166665866},{"name":"C2","midi":36,"time":580.5560200000147,"velocity":0.6299212598425197,"duration":0.26273169166665866},{"name":"G2","midi":43,"time":580.5560200000147,"velocity":0.6299212598425197,"duration":0.26273169166665866},{"name":"C3","midi":48,"time":580.5560200000147,"velocity":0.6299212598425197,"duration":0.26273169166665866},{"name":"G3","midi":55,"time":580.5560200000147,"velocity":0.6299212598425197,"duration":0.26273169166665866},{"name":"G2","midi":43,"time":580.8337980000147,"velocity":0.6299212598425197,"duration":0.26273169166665866},{"name":"G3","midi":55,"time":580.8337980000147,"velocity":0.6299212598425197,"duration":0.26273169166665866},{"name":"F#2","midi":42,"time":581.1115760000147,"velocity":0.6299212598425197,"duration":0.26273169166665866},{"name":"F#3","midi":54,"time":581.1115760000147,"velocity":0.6299212598425197,"duration":0.26273169166665866},{"name":"F#2","midi":42,"time":581.3893540000147,"velocity":0.6299212598425197,"duration":0.26273169166665866},{"name":"F#3","midi":54,"time":581.3893540000147,"velocity":0.6299212598425197,"duration":0.26273169166665866},{"name":"C2","midi":36,"time":581.6671320000147,"velocity":0.5039370078740157,"duration":0.2766205916667559},{"name":"G2","midi":43,"time":581.6671320000147,"velocity":0.5039370078740157,"duration":0.2766205916667559},{"name":"C3","midi":48,"time":581.6671320000147,"velocity":0.5039370078740157,"duration":0.2766205916667559},{"name":"G3","midi":55,"time":581.6671320000147,"velocity":0.5039370078740157,"duration":0.2766205916667559},{"name":"F#2","midi":42,"time":582.2226880000148,"velocity":0.5039370078740157,"duration":0.2766205916666422},{"name":"F#3","midi":54,"time":582.2226880000148,"velocity":0.5039370078740157,"duration":0.2766205916666422},{"name":"G2","midi":43,"time":582.7782440000149,"velocity":0.5039370078740157,"duration":0.26273169166665866},{"name":"G3","midi":55,"time":582.7782440000149,"velocity":0.5039370078740157,"duration":0.26273169166665866},{"name":"G2","midi":43,"time":583.0560220000149,"velocity":0.5039370078740157,"duration":0.13773159166669302},{"name":"G3","midi":55,"time":583.0560220000149,"velocity":0.5039370078740157,"duration":0.13773159166669302},{"name":"F#2","midi":42,"time":583.6115780000149,"velocity":0.5039370078740157,"duration":0.26273169166665866},{"name":"F#3","midi":54,"time":583.6115780000149,"velocity":0.5039370078740157,"duration":0.26273169166665866},{"name":"C2","midi":36,"time":583.8893560000149,"velocity":0.5039370078740157,"duration":0.26273169166677235},{"name":"G2","midi":43,"time":583.8893560000149,"velocity":0.5039370078740157,"duration":0.26273169166677235},{"name":"C3","midi":48,"time":583.8893560000149,"velocity":0.5039370078740157,"duration":0.26273169166677235},{"name":"G3","midi":55,"time":583.8893560000149,"velocity":0.5039370078740157,"duration":0.26273169166677235},{"name":"G2","midi":43,"time":584.167134000015,"velocity":0.5039370078740157,"duration":0.26273169166665866},{"name":"G3","midi":55,"time":584.167134000015,"velocity":0.5039370078740157,"duration":0.26273169166665866},{"name":"G2","midi":43,"time":584.444912000015,"velocity":0.5039370078740157,"duration":0.26273169166665866},{"name":"G3","midi":55,"time":584.444912000015,"velocity":0.5039370078740157,"duration":0.26273169166665866},{"name":"G2","midi":43,"time":584.7226900000151,"velocity":0.5039370078740157,"duration":0.26273169166665866},{"name":"G3","midi":55,"time":584.7226900000151,"velocity":0.5039370078740157,"duration":0.26273169166665866},{"name":"C2","midi":36,"time":585.0004680000151,"velocity":0.5039370078740157,"duration":0.26273169166665866},{"name":"G2","midi":43,"time":585.0004680000151,"velocity":0.5039370078740157,"duration":0.26273169166665866},{"name":"C3","midi":48,"time":585.0004680000151,"velocity":0.5039370078740157,"duration":0.26273169166665866},{"name":"G3","midi":55,"time":585.0004680000151,"velocity":0.5039370078740157,"duration":0.26273169166665866},{"name":"G2","midi":43,"time":585.2782460000151,"velocity":0.5039370078740157,"duration":0.26273169166665866},{"name":"G3","midi":55,"time":585.2782460000151,"velocity":0.5039370078740157,"duration":0.26273169166665866},{"name":"F#2","midi":42,"time":585.5560240000151,"velocity":0.5039370078740157,"duration":0.26273169166665866},{"name":"F#3","midi":54,"time":585.5560240000151,"velocity":0.5039370078740157,"duration":0.26273169166665866},{"name":"F#2","midi":42,"time":585.8338020000151,"velocity":0.5039370078740157,"duration":0.26273169166665866},{"name":"F#3","midi":54,"time":585.8338020000151,"velocity":0.5039370078740157,"duration":0.26273169166665866},{"name":"C2","midi":36,"time":586.1115800000151,"velocity":0.5039370078740157,"duration":0.2766205916667559},{"name":"G2","midi":43,"time":586.1115800000151,"velocity":0.5039370078740157,"duration":0.2766205916667559},{"name":"C3","midi":48,"time":586.1115800000151,"velocity":0.5039370078740157,"duration":0.2766205916667559},{"name":"G3","midi":55,"time":586.1115800000151,"velocity":0.5039370078740157,"duration":0.2766205916667559},{"name":"F#2","midi":42,"time":586.6671360000153,"velocity":0.5039370078740157,"duration":0.2766205916666422},{"name":"F#3","midi":54,"time":586.6671360000153,"velocity":0.5039370078740157,"duration":0.2766205916666422},{"name":"G2","midi":43,"time":587.2226920000153,"velocity":0.5039370078740157,"duration":0.26273169166665866},{"name":"G3","midi":55,"time":587.2226920000153,"velocity":0.5039370078740157,"duration":0.26273169166665866},{"name":"G2","midi":43,"time":587.5004700000153,"velocity":0.5039370078740157,"duration":0.13773159166669302},{"name":"G3","midi":55,"time":587.5004700000153,"velocity":0.5039370078740157,"duration":0.13773159166669302},{"name":"F#2","midi":42,"time":588.0560260000153,"velocity":0.5039370078740157,"duration":0.26273169166665866},{"name":"F#3","midi":54,"time":588.0560260000153,"velocity":0.5039370078740157,"duration":0.26273169166665866},{"name":"C2","midi":36,"time":588.3338040000153,"velocity":0.5039370078740157,"duration":0.26273169166677235},{"name":"G2","midi":43,"time":588.3338040000153,"velocity":0.5039370078740157,"duration":0.26273169166677235},{"name":"C3","midi":48,"time":588.3338040000153,"velocity":0.5039370078740157,"duration":0.26273169166677235},{"name":"G3","midi":55,"time":588.3338040000153,"velocity":0.5039370078740157,"duration":0.26273169166677235},{"name":"G2","midi":43,"time":588.6115820000155,"velocity":0.5039370078740157,"duration":0.26273169166665866},{"name":"G3","midi":55,"time":588.6115820000155,"velocity":0.5039370078740157,"duration":0.26273169166665866},{"name":"G2","midi":43,"time":588.8893600000155,"velocity":0.5039370078740157,"duration":0.26273169166665866},{"name":"G3","midi":55,"time":588.8893600000155,"velocity":0.5039370078740157,"duration":0.26273169166665866},{"name":"G2","midi":43,"time":589.1671380000155,"velocity":0.5039370078740157,"duration":0.26273169166665866},{"name":"G3","midi":55,"time":589.1671380000155,"velocity":0.5039370078740157,"duration":0.26273169166665866},{"name":"C2","midi":36,"time":589.4449160000155,"velocity":0.5039370078740157,"duration":0.26273169166665866},{"name":"G2","midi":43,"time":589.4449160000155,"velocity":0.5039370078740157,"duration":0.26273169166665866},{"name":"C3","midi":48,"time":589.4449160000155,"velocity":0.5039370078740157,"duration":0.26273169166665866},{"name":"G3","midi":55,"time":589.4449160000155,"velocity":0.5039370078740157,"duration":0.26273169166665866},{"name":"G2","midi":43,"time":589.7226940000155,"velocity":0.5039370078740157,"duration":0.26273169166665866},{"name":"G3","midi":55,"time":589.7226940000155,"velocity":0.5039370078740157,"duration":0.26273169166665866},{"name":"F#2","midi":42,"time":590.0004720000155,"velocity":0.5039370078740157,"duration":0.26273169166665866},{"name":"F#3","midi":54,"time":590.0004720000155,"velocity":0.5039370078740157,"duration":0.26273169166665866},{"name":"F#2","midi":42,"time":590.2782500000155,"velocity":0.5039370078740157,"duration":0.26273169166665866},{"name":"F#3","midi":54,"time":590.2782500000155,"velocity":0.5039370078740157,"duration":0.26273169166665866},{"name":"C2","midi":36,"time":590.5560280000155,"velocity":0.5039370078740157,"duration":0.2766205916667559},{"name":"G2","midi":43,"time":590.5560280000155,"velocity":0.5039370078740157,"duration":0.2766205916667559},{"name":"C3","midi":48,"time":590.5560280000155,"velocity":0.5039370078740157,"duration":0.2766205916667559},{"name":"G3","midi":55,"time":590.5560280000155,"velocity":0.5039370078740157,"duration":0.2766205916667559},{"name":"F#2","midi":42,"time":591.1115840000157,"velocity":0.5039370078740157,"duration":0.2766205916666422},{"name":"F#3","midi":54,"time":591.1115840000157,"velocity":0.5039370078740157,"duration":0.2766205916666422},{"name":"G2","midi":43,"time":591.6671400000157,"velocity":0.5039370078740157,"duration":0.26273169166665866},{"name":"G3","midi":55,"time":591.6671400000157,"velocity":0.5039370078740157,"duration":0.26273169166665866},{"name":"G2","midi":43,"time":591.9449180000157,"velocity":0.5039370078740157,"duration":0.13773159166669302},{"name":"G3","midi":55,"time":591.9449180000157,"velocity":0.5039370078740157,"duration":0.13773159166669302},{"name":"F#2","midi":42,"time":592.5004740000157,"velocity":0.5039370078740157,"duration":0.26273169166665866},{"name":"F#3","midi":54,"time":592.5004740000157,"velocity":0.5039370078740157,"duration":0.26273169166665866},{"name":"C2","midi":36,"time":592.7782520000158,"velocity":0.5039370078740157,"duration":0.26273169166677235},{"name":"G2","midi":43,"time":592.7782520000158,"velocity":0.5039370078740157,"duration":0.26273169166677235},{"name":"C3","midi":48,"time":592.7782520000158,"velocity":0.5039370078740157,"duration":0.26273169166677235},{"name":"G3","midi":55,"time":592.7782520000158,"velocity":0.5039370078740157,"duration":0.26273169166677235},{"name":"G2","midi":43,"time":593.0560300000159,"velocity":0.5039370078740157,"duration":0.26273169166665866},{"name":"G3","midi":55,"time":593.0560300000159,"velocity":0.5039370078740157,"duration":0.26273169166665866},{"name":"G2","midi":43,"time":593.3338080000159,"velocity":0.5039370078740157,"duration":0.26273169166665866},{"name":"G3","midi":55,"time":593.3338080000159,"velocity":0.5039370078740157,"duration":0.26273169166665866},{"name":"G2","midi":43,"time":593.6115860000159,"velocity":0.5039370078740157,"duration":0.26273169166665866},{"name":"G3","midi":55,"time":593.6115860000159,"velocity":0.5039370078740157,"duration":0.26273169166665866},{"name":"C2","midi":36,"time":593.8893640000159,"velocity":0.5039370078740157,"duration":0.26273169166665866},{"name":"G2","midi":43,"time":593.8893640000159,"velocity":0.5039370078740157,"duration":0.26273169166665866},{"name":"C3","midi":48,"time":593.8893640000159,"velocity":0.5039370078740157,"duration":0.26273169166665866},{"name":"G3","midi":55,"time":593.8893640000159,"velocity":0.5039370078740157,"duration":0.26273169166665866},{"name":"G2","midi":43,"time":594.1671420000159,"velocity":0.5039370078740157,"duration":0.26273169166665866},{"name":"G3","midi":55,"time":594.1671420000159,"velocity":0.5039370078740157,"duration":0.26273169166665866},{"name":"F#2","midi":42,"time":594.4449200000159,"velocity":0.5039370078740157,"duration":0.26273169166665866},{"name":"F#3","midi":54,"time":594.4449200000159,"velocity":0.5039370078740157,"duration":0.26273169166665866},{"name":"F#2","midi":42,"time":594.722698000016,"velocity":0.5039370078740157,"duration":0.26273169166665866},{"name":"F#3","midi":54,"time":594.722698000016,"velocity":0.5039370078740157,"duration":0.26273169166665866},{"name":"C2","midi":36,"time":595.000476000016,"velocity":0.5039370078740157,"duration":0.2766205916667559},{"name":"G2","midi":43,"time":595.000476000016,"velocity":0.5039370078740157,"duration":0.2766205916667559},{"name":"C3","midi":48,"time":595.000476000016,"velocity":0.5039370078740157,"duration":0.2766205916667559},{"name":"G3","midi":55,"time":595.000476000016,"velocity":0.5039370078740157,"duration":0.2766205916667559},{"name":"F#2","midi":42,"time":595.5560320000161,"velocity":0.5039370078740157,"duration":0.2766205916666422},{"name":"F#3","midi":54,"time":595.5560320000161,"velocity":0.5039370078740157,"duration":0.2766205916666422},{"name":"G2","midi":43,"time":596.1115880000161,"velocity":0.5039370078740157,"duration":0.26273169166665866},{"name":"G3","midi":55,"time":596.1115880000161,"velocity":0.5039370078740157,"duration":0.26273169166665866},{"name":"G2","midi":43,"time":596.3893660000161,"velocity":0.5039370078740157,"duration":0.13773159166669302},{"name":"G3","midi":55,"time":596.3893660000161,"velocity":0.5039370078740157,"duration":0.13773159166669302},{"name":"F#2","midi":42,"time":596.9449220000162,"velocity":0.5039370078740157,"duration":0.26273169166665866},{"name":"F#3","midi":54,"time":596.9449220000162,"velocity":0.5039370078740157,"duration":0.26273169166665866},{"name":"C2","midi":36,"time":597.2227000000162,"velocity":0.5039370078740157,"duration":0.26273169166677235},{"name":"G2","midi":43,"time":597.2227000000162,"velocity":0.5039370078740157,"duration":0.26273169166677235},{"name":"C3","midi":48,"time":597.2227000000162,"velocity":0.5039370078740157,"duration":0.26273169166677235},{"name":"G3","midi":55,"time":597.2227000000162,"velocity":0.5039370078740157,"duration":0.26273169166677235},{"name":"G2","midi":43,"time":597.5004780000163,"velocity":0.5039370078740157,"duration":0.26273169166665866},{"name":"G3","midi":55,"time":597.5004780000163,"velocity":0.5039370078740157,"duration":0.26273169166665866},{"name":"G2","midi":43,"time":597.7782560000163,"velocity":0.5039370078740157,"duration":0.26273169166665866},{"name":"G3","midi":55,"time":597.7782560000163,"velocity":0.5039370078740157,"duration":0.26273169166665866},{"name":"G2","midi":43,"time":598.0560340000163,"velocity":0.5039370078740157,"duration":0.26273169166665866},{"name":"G3","midi":55,"time":598.0560340000163,"velocity":0.5039370078740157,"duration":0.26273169166665866},{"name":"C2","midi":36,"time":598.3338120000163,"velocity":0.5039370078740157,"duration":0.26273169166665866},{"name":"G2","midi":43,"time":598.3338120000163,"velocity":0.5039370078740157,"duration":0.26273169166665866},{"name":"C3","midi":48,"time":598.3338120000163,"velocity":0.5039370078740157,"duration":0.26273169166665866},{"name":"G3","midi":55,"time":598.3338120000163,"velocity":0.5039370078740157,"duration":0.26273169166665866},{"name":"G2","midi":43,"time":598.6115900000163,"velocity":0.5039370078740157,"duration":0.26273169166665866},{"name":"G3","midi":55,"time":598.6115900000163,"velocity":0.5039370078740157,"duration":0.26273169166665866},{"name":"F#2","midi":42,"time":598.8893680000164,"velocity":0.5039370078740157,"duration":0.26273169166665866},{"name":"F#3","midi":54,"time":598.8893680000164,"velocity":0.5039370078740157,"duration":0.26273169166665866},{"name":"F#2","midi":42,"time":599.1671460000164,"velocity":0.5039370078740157,"duration":0.26273169166665866},{"name":"F#3","midi":54,"time":599.1671460000164,"velocity":0.5039370078740157,"duration":0.26273169166665866},{"name":"C2","midi":36,"time":599.4449240000164,"velocity":0.5039370078740157,"duration":0.2766205916667559},{"name":"G2","midi":43,"time":599.4449240000164,"velocity":0.5039370078740157,"duration":0.2766205916667559},{"name":"C3","midi":48,"time":599.4449240000164,"velocity":0.5039370078740157,"duration":0.2766205916667559},{"name":"G3","midi":55,"time":599.4449240000164,"velocity":0.5039370078740157,"duration":0.2766205916667559},{"name":"F#2","midi":42,"time":600.0004800000165,"velocity":0.5039370078740157,"duration":0.2766205916666422},{"name":"F#3","midi":54,"time":600.0004800000165,"velocity":0.5039370078740157,"duration":0.2766205916666422},{"name":"G2","midi":43,"time":600.5560360000165,"velocity":0.5039370078740157,"duration":0.26273169166665866},{"name":"G3","midi":55,"time":600.5560360000165,"velocity":0.5039370078740157,"duration":0.26273169166665866},{"name":"G2","midi":43,"time":600.8338140000166,"velocity":0.5039370078740157,"duration":0.13773159166669302},{"name":"G3","midi":55,"time":600.8338140000166,"velocity":0.5039370078740157,"duration":0.13773159166669302},{"name":"F#2","midi":42,"time":601.3893700000166,"velocity":0.5039370078740157,"duration":0.26273169166665866},{"name":"F#3","midi":54,"time":601.3893700000166,"velocity":0.5039370078740157,"duration":0.26273169166665866},{"name":"C2","midi":36,"time":601.6671480000166,"velocity":0.5039370078740157,"duration":0.26273169166677235},{"name":"G2","midi":43,"time":601.6671480000166,"velocity":0.5039370078740157,"duration":0.26273169166677235},{"name":"C3","midi":48,"time":601.6671480000166,"velocity":0.5039370078740157,"duration":0.26273169166677235},{"name":"G3","midi":55,"time":601.6671480000166,"velocity":0.5039370078740157,"duration":0.26273169166677235},{"name":"G2","midi":43,"time":601.9449260000167,"velocity":0.5039370078740157,"duration":0.26273169166665866},{"name":"G3","midi":55,"time":601.9449260000167,"velocity":0.5039370078740157,"duration":0.26273169166665866},{"name":"G2","midi":43,"time":602.2227040000167,"velocity":0.5039370078740157,"duration":0.26273169166665866},{"name":"G3","midi":55,"time":602.2227040000167,"velocity":0.5039370078740157,"duration":0.26273169166665866},{"name":"G2","midi":43,"time":602.5004820000167,"velocity":0.5039370078740157,"duration":0.26273169166665866},{"name":"G3","midi":55,"time":602.5004820000167,"velocity":0.5039370078740157,"duration":0.26273169166665866},{"name":"C2","midi":36,"time":602.7782600000168,"velocity":0.5039370078740157,"duration":0.26273169166665866},{"name":"G2","midi":43,"time":602.7782600000168,"velocity":0.5039370078740157,"duration":0.26273169166665866},{"name":"C3","midi":48,"time":602.7782600000168,"velocity":0.5039370078740157,"duration":0.26273169166665866},{"name":"G3","midi":55,"time":602.7782600000168,"velocity":0.5039370078740157,"duration":0.26273169166665866},{"name":"G2","midi":43,"time":603.0560380000168,"velocity":0.5039370078740157,"duration":0.26273169166665866},{"name":"G3","midi":55,"time":603.0560380000168,"velocity":0.5039370078740157,"duration":0.26273169166665866},{"name":"F#2","midi":42,"time":603.3338160000168,"velocity":0.5039370078740157,"duration":0.26273169166665866},{"name":"F#3","midi":54,"time":603.3338160000168,"velocity":0.5039370078740157,"duration":0.26273169166665866},{"name":"F#2","midi":42,"time":603.6115940000168,"velocity":0.5039370078740157,"duration":0.26273169166665866},{"name":"F#3","midi":54,"time":603.6115940000168,"velocity":0.5039370078740157,"duration":0.26273169166665866},{"name":"C2","midi":36,"time":603.8893720000168,"velocity":0.5039370078740157,"duration":0.2766205916667559},{"name":"G2","midi":43,"time":603.8893720000168,"velocity":0.5039370078740157,"duration":0.2766205916667559},{"name":"C3","midi":48,"time":603.8893720000168,"velocity":0.5039370078740157,"duration":0.2766205916667559},{"name":"G3","midi":55,"time":603.8893720000168,"velocity":0.5039370078740157,"duration":0.2766205916667559},{"name":"F#2","midi":42,"time":604.444928000017,"velocity":0.5039370078740157,"duration":0.2766205916666422},{"name":"F#3","midi":54,"time":604.444928000017,"velocity":0.5039370078740157,"duration":0.2766205916666422},{"name":"G2","midi":43,"time":605.000484000017,"velocity":0.5039370078740157,"duration":0.26273169166665866},{"name":"G3","midi":55,"time":605.000484000017,"velocity":0.5039370078740157,"duration":0.26273169166665866},{"name":"G2","midi":43,"time":605.278262000017,"velocity":0.5039370078740157,"duration":0.13773159166669302},{"name":"G3","midi":55,"time":605.278262000017,"velocity":0.5039370078740157,"duration":0.13773159166669302},{"name":"F#2","midi":42,"time":605.833818000017,"velocity":0.5039370078740157,"duration":0.26273169166665866},{"name":"F#3","midi":54,"time":605.833818000017,"velocity":0.5039370078740157,"duration":0.26273169166665866},{"name":"C2","midi":36,"time":606.111596000017,"velocity":0.5039370078740157,"duration":0.26273169166677235},{"name":"G2","midi":43,"time":606.111596000017,"velocity":0.5039370078740157,"duration":0.26273169166677235},{"name":"C3","midi":48,"time":606.111596000017,"velocity":0.5039370078740157,"duration":0.26273169166677235},{"name":"G3","midi":55,"time":606.111596000017,"velocity":0.5039370078740157,"duration":0.26273169166677235},{"name":"G2","midi":43,"time":606.3893740000171,"velocity":0.5039370078740157,"duration":0.26273169166665866},{"name":"G3","midi":55,"time":606.3893740000171,"velocity":0.5039370078740157,"duration":0.26273169166665866},{"name":"G2","midi":43,"time":606.6671520000172,"velocity":0.5039370078740157,"duration":0.26273169166665866},{"name":"G3","midi":55,"time":606.6671520000172,"velocity":0.5039370078740157,"duration":0.26273169166665866},{"name":"G2","midi":43,"time":606.9449300000172,"velocity":0.5039370078740157,"duration":0.26273169166665866},{"name":"G3","midi":55,"time":606.9449300000172,"velocity":0.5039370078740157,"duration":0.26273169166665866},{"name":"C2","midi":36,"time":607.2227080000172,"velocity":0.5039370078740157,"duration":0.26273169166665866},{"name":"G2","midi":43,"time":607.2227080000172,"velocity":0.5039370078740157,"duration":0.26273169166665866},{"name":"C3","midi":48,"time":607.2227080000172,"velocity":0.5039370078740157,"duration":0.26273169166665866},{"name":"G3","midi":55,"time":607.2227080000172,"velocity":0.5039370078740157,"duration":0.26273169166665866},{"name":"G2","midi":43,"time":607.5004860000172,"velocity":0.5039370078740157,"duration":0.26273169166665866},{"name":"G3","midi":55,"time":607.5004860000172,"velocity":0.5039370078740157,"duration":0.26273169166665866},{"name":"F#2","midi":42,"time":607.7782640000172,"velocity":0.5039370078740157,"duration":0.26273169166665866},{"name":"F#3","midi":54,"time":607.7782640000172,"velocity":0.5039370078740157,"duration":0.26273169166665866},{"name":"F#2","midi":42,"time":608.0560420000172,"velocity":0.5039370078740157,"duration":0.26273169166665866},{"name":"F#3","midi":54,"time":608.0560420000172,"velocity":0.5039370078740157,"duration":0.26273169166665866},{"name":"C2","midi":36,"time":608.3338200000172,"velocity":0.5039370078740157,"duration":0.2766205916667559},{"name":"G2","midi":43,"time":608.3338200000172,"velocity":0.5039370078740157,"duration":0.2766205916667559},{"name":"C3","midi":48,"time":608.3338200000172,"velocity":0.5039370078740157,"duration":0.2766205916667559},{"name":"G3","midi":55,"time":608.3338200000172,"velocity":0.5039370078740157,"duration":0.2766205916667559},{"name":"F#2","midi":42,"time":608.8893760000174,"velocity":0.5039370078740157,"duration":0.2766205916666422},{"name":"F#3","midi":54,"time":608.8893760000174,"velocity":0.5039370078740157,"duration":0.2766205916666422},{"name":"G2","midi":43,"time":609.4449320000174,"velocity":0.5039370078740157,"duration":0.26273169166665866},{"name":"G3","midi":55,"time":609.4449320000174,"velocity":0.5039370078740157,"duration":0.26273169166665866},{"name":"G2","midi":43,"time":609.7227100000174,"velocity":0.5039370078740157,"duration":0.13773159166669302},{"name":"G3","midi":55,"time":609.7227100000174,"velocity":0.5039370078740157,"duration":0.13773159166669302},{"name":"F#2","midi":42,"time":610.2782660000174,"velocity":0.5039370078740157,"duration":0.26273169166665866},{"name":"F#3","midi":54,"time":610.2782660000174,"velocity":0.5039370078740157,"duration":0.26273169166665866},{"name":"C2","midi":36,"time":610.5560440000174,"velocity":0.5039370078740157,"duration":0.26273169166677235},{"name":"G2","midi":43,"time":610.5560440000174,"velocity":0.5039370078740157,"duration":0.26273169166677235},{"name":"C3","midi":48,"time":610.5560440000174,"velocity":0.5039370078740157,"duration":0.26273169166677235},{"name":"G3","midi":55,"time":610.5560440000174,"velocity":0.5039370078740157,"duration":0.26273169166677235},{"name":"G2","midi":43,"time":610.8338220000176,"velocity":0.5039370078740157,"duration":0.26273169166665866},{"name":"G3","midi":55,"time":610.8338220000176,"velocity":0.5039370078740157,"duration":0.26273169166665866},{"name":"G2","midi":43,"time":611.1116000000176,"velocity":0.5039370078740157,"duration":0.26273169166665866},{"name":"G3","midi":55,"time":611.1116000000176,"velocity":0.5039370078740157,"duration":0.26273169166665866},{"name":"G2","midi":43,"time":611.3893780000176,"velocity":0.5039370078740157,"duration":0.26273169166665866},{"name":"G3","midi":55,"time":611.3893780000176,"velocity":0.5039370078740157,"duration":0.26273169166665866},{"name":"C2","midi":36,"time":611.6671560000176,"velocity":0.5039370078740157,"duration":0.26273169166665866},{"name":"G2","midi":43,"time":611.6671560000176,"velocity":0.5039370078740157,"duration":0.26273169166665866},{"name":"C3","midi":48,"time":611.6671560000176,"velocity":0.5039370078740157,"duration":0.26273169166665866},{"name":"G3","midi":55,"time":611.6671560000176,"velocity":0.5039370078740157,"duration":0.26273169166665866},{"name":"G2","midi":43,"time":611.9449340000176,"velocity":0.5039370078740157,"duration":0.26273169166665866},{"name":"G3","midi":55,"time":611.9449340000176,"velocity":0.5039370078740157,"duration":0.26273169166665866},{"name":"F#2","midi":42,"time":612.2227120000176,"velocity":0.5039370078740157,"duration":0.26273169166665866},{"name":"F#3","midi":54,"time":612.2227120000176,"velocity":0.5039370078740157,"duration":0.26273169166665866},{"name":"F#2","midi":42,"time":612.5004900000176,"velocity":0.5039370078740157,"duration":0.26273169166665866},{"name":"F#3","midi":54,"time":612.5004900000176,"velocity":0.5039370078740157,"duration":0.26273169166665866},{"name":"C2","midi":36,"time":612.7782680000176,"velocity":0.5039370078740157,"duration":0.2766205916667559},{"name":"G2","midi":43,"time":612.7782680000176,"velocity":0.5039370078740157,"duration":0.2766205916667559},{"name":"C3","midi":48,"time":612.7782680000176,"velocity":0.5039370078740157,"duration":0.2766205916667559},{"name":"G3","midi":55,"time":612.7782680000176,"velocity":0.5039370078740157,"duration":0.2766205916667559},{"name":"F#2","midi":42,"time":613.3338240000178,"velocity":0.5039370078740157,"duration":0.2766205916666422},{"name":"F#3","midi":54,"time":613.3338240000178,"velocity":0.5039370078740157,"duration":0.2766205916666422},{"name":"G2","midi":43,"time":613.8893800000178,"velocity":0.5039370078740157,"duration":0.26273169166665866},{"name":"G3","midi":55,"time":613.8893800000178,"velocity":0.5039370078740157,"duration":0.26273169166665866},{"name":"G2","midi":43,"time":614.1671580000178,"velocity":0.5039370078740157,"duration":0.13773159166669302},{"name":"G3","midi":55,"time":614.1671580000178,"velocity":0.5039370078740157,"duration":0.13773159166669302},{"name":"F#2","midi":42,"time":614.7227140000178,"velocity":0.5039370078740157,"duration":0.26273169166665866},{"name":"F#3","midi":54,"time":614.7227140000178,"velocity":0.5039370078740157,"duration":0.26273169166665866},{"name":"C2","midi":36,"time":615.0004920000179,"velocity":0.5039370078740157,"duration":0.26273169166677235},{"name":"G2","midi":43,"time":615.0004920000179,"velocity":0.5039370078740157,"duration":0.26273169166677235},{"name":"C3","midi":48,"time":615.0004920000179,"velocity":0.5039370078740157,"duration":0.26273169166677235},{"name":"G3","midi":55,"time":615.0004920000179,"velocity":0.5039370078740157,"duration":0.26273169166677235},{"name":"G2","midi":43,"time":615.278270000018,"velocity":0.5039370078740157,"duration":0.26273169166665866},{"name":"G3","midi":55,"time":615.278270000018,"velocity":0.5039370078740157,"duration":0.26273169166665866},{"name":"G2","midi":43,"time":615.556048000018,"velocity":0.5039370078740157,"duration":0.26273169166665866},{"name":"G3","midi":55,"time":615.556048000018,"velocity":0.5039370078740157,"duration":0.26273169166665866},{"name":"G2","midi":43,"time":615.833826000018,"velocity":0.5039370078740157,"duration":0.26273169166665866},{"name":"G3","midi":55,"time":615.833826000018,"velocity":0.5039370078740157,"duration":0.26273169166665866},{"name":"C2","midi":36,"time":616.111604000018,"velocity":0.5039370078740157,"duration":0.26273169166665866},{"name":"G2","midi":43,"time":616.111604000018,"velocity":0.5039370078740157,"duration":0.26273169166665866},{"name":"C3","midi":48,"time":616.111604000018,"velocity":0.5039370078740157,"duration":0.26273169166665866},{"name":"G3","midi":55,"time":616.111604000018,"velocity":0.5039370078740157,"duration":0.26273169166665866},{"name":"G2","midi":43,"time":616.389382000018,"velocity":0.5039370078740157,"duration":0.26273169166665866},{"name":"G3","midi":55,"time":616.389382000018,"velocity":0.5039370078740157,"duration":0.26273169166665866},{"name":"F#2","midi":42,"time":616.667160000018,"velocity":0.5039370078740157,"duration":0.26273169166665866},{"name":"F#3","midi":54,"time":616.667160000018,"velocity":0.5039370078740157,"duration":0.26273169166665866},{"name":"F#2","midi":42,"time":616.944938000018,"velocity":0.5039370078740157,"duration":0.26273169166665866},{"name":"F#3","midi":54,"time":616.944938000018,"velocity":0.5039370078740157,"duration":0.26273169166665866},{"name":"C2","midi":36,"time":617.2227160000181,"velocity":0.5039370078740157,"duration":0.2766205916667559},{"name":"G2","midi":43,"time":617.2227160000181,"velocity":0.5039370078740157,"duration":0.2766205916667559},{"name":"C3","midi":48,"time":617.2227160000181,"velocity":0.5039370078740157,"duration":0.2766205916667559},{"name":"G3","midi":55,"time":617.2227160000181,"velocity":0.5039370078740157,"duration":0.2766205916667559},{"name":"F#2","midi":42,"time":617.7782720000182,"velocity":0.5039370078740157,"duration":0.2766205916666422},{"name":"F#3","midi":54,"time":617.7782720000182,"velocity":0.5039370078740157,"duration":0.2766205916666422},{"name":"G2","midi":43,"time":618.3338280000182,"velocity":0.5039370078740157,"duration":0.26273169166665866},{"name":"G3","midi":55,"time":618.3338280000182,"velocity":0.5039370078740157,"duration":0.26273169166665866},{"name":"G2","midi":43,"time":618.6116060000182,"velocity":0.5039370078740157,"duration":0.13773159166669302},{"name":"G3","midi":55,"time":618.6116060000182,"velocity":0.5039370078740157,"duration":0.13773159166669302},{"name":"F#2","midi":42,"time":619.1671620000183,"velocity":0.5039370078740157,"duration":0.26273169166665866},{"name":"F#3","midi":54,"time":619.1671620000183,"velocity":0.5039370078740157,"duration":0.26273169166665866},{"name":"C2","midi":36,"time":619.4449400000183,"velocity":0.5039370078740157,"duration":0.26273169166677235},{"name":"G2","midi":43,"time":619.4449400000183,"velocity":0.5039370078740157,"duration":0.26273169166677235},{"name":"C3","midi":48,"time":619.4449400000183,"velocity":0.5039370078740157,"duration":0.26273169166677235},{"name":"G3","midi":55,"time":619.4449400000183,"velocity":0.5039370078740157,"duration":0.26273169166677235},{"name":"G2","midi":43,"time":619.7227180000184,"velocity":0.5039370078740157,"duration":0.26273169166665866},{"name":"G3","midi":55,"time":619.7227180000184,"velocity":0.5039370078740157,"duration":0.26273169166665866},{"name":"G2","midi":43,"time":620.0004960000184,"velocity":0.5039370078740157,"duration":0.26273169166665866},{"name":"G3","midi":55,"time":620.0004960000184,"velocity":0.5039370078740157,"duration":0.26273169166665866},{"name":"G2","midi":43,"time":620.2782740000184,"velocity":0.5039370078740157,"duration":0.26273169166665866},{"name":"G3","midi":55,"time":620.2782740000184,"velocity":0.5039370078740157,"duration":0.26273169166665866},{"name":"C2","midi":36,"time":620.5560520000184,"velocity":0.5039370078740157,"duration":0.26273169166665866},{"name":"G2","midi":43,"time":620.5560520000184,"velocity":0.5039370078740157,"duration":0.26273169166665866},{"name":"C3","midi":48,"time":620.5560520000184,"velocity":0.5039370078740157,"duration":0.26273169166665866},{"name":"G3","midi":55,"time":620.5560520000184,"velocity":0.5039370078740157,"duration":0.26273169166665866},{"name":"G2","midi":43,"time":620.8338300000185,"velocity":0.5039370078740157,"duration":0.26273169166665866},{"name":"G3","midi":55,"time":620.8338300000185,"velocity":0.5039370078740157,"duration":0.26273169166665866},{"name":"F#2","midi":42,"time":621.1116080000185,"velocity":0.5039370078740157,"duration":0.26273169166665866},{"name":"F#3","midi":54,"time":621.1116080000185,"velocity":0.5039370078740157,"duration":0.26273169166665866},{"name":"F#2","midi":42,"time":621.3893860000185,"velocity":0.5039370078740157,"duration":0.26273169166665866},{"name":"F#3","midi":54,"time":621.3893860000185,"velocity":0.5039370078740157,"duration":0.26273169166665866},{"name":"C2","midi":36,"time":621.6671640000185,"velocity":0.5039370078740157,"duration":0.2766205916667559},{"name":"G2","midi":43,"time":621.6671640000185,"velocity":0.5039370078740157,"duration":0.2766205916667559},{"name":"C3","midi":48,"time":621.6671640000185,"velocity":0.5039370078740157,"duration":0.2766205916667559},{"name":"G3","midi":55,"time":621.6671640000185,"velocity":0.5039370078740157,"duration":0.2766205916667559},{"name":"F#2","midi":42,"time":622.2227200000186,"velocity":0.5039370078740157,"duration":0.2766205916666422},{"name":"F#3","midi":54,"time":622.2227200000186,"velocity":0.5039370078740157,"duration":0.2766205916666422},{"name":"G2","midi":43,"time":622.7782760000186,"velocity":0.5039370078740157,"duration":0.26273169166665866},{"name":"G3","midi":55,"time":622.7782760000186,"velocity":0.5039370078740157,"duration":0.26273169166665866},{"name":"G2","midi":43,"time":623.0560540000187,"velocity":0.5039370078740157,"duration":0.13773159166669302},{"name":"G3","midi":55,"time":623.0560540000187,"velocity":0.5039370078740157,"duration":0.13773159166669302},{"name":"F#2","midi":42,"time":623.6116100000187,"velocity":0.5039370078740157,"duration":0.26273169166665866},{"name":"F#3","midi":54,"time":623.6116100000187,"velocity":0.5039370078740157,"duration":0.26273169166665866},{"name":"C2","midi":36,"time":623.8893880000187,"velocity":0.5039370078740157,"duration":0.26273169166677235},{"name":"G2","midi":43,"time":623.8893880000187,"velocity":0.5039370078740157,"duration":0.26273169166677235},{"name":"C3","midi":48,"time":623.8893880000187,"velocity":0.5039370078740157,"duration":0.26273169166677235},{"name":"G3","midi":55,"time":623.8893880000187,"velocity":0.5039370078740157,"duration":0.26273169166677235},{"name":"G2","midi":43,"time":624.1671660000188,"velocity":0.5039370078740157,"duration":0.26273169166665866},{"name":"G3","midi":55,"time":624.1671660000188,"velocity":0.5039370078740157,"duration":0.26273169166665866},{"name":"G2","midi":43,"time":624.4449440000188,"velocity":0.5039370078740157,"duration":0.26273169166665866},{"name":"G3","midi":55,"time":624.4449440000188,"velocity":0.5039370078740157,"duration":0.26273169166665866},{"name":"G2","midi":43,"time":624.7227220000188,"velocity":0.5039370078740157,"duration":0.26273169166665866},{"name":"G3","midi":55,"time":624.7227220000188,"velocity":0.5039370078740157,"duration":0.26273169166665866},{"name":"C2","midi":36,"time":625.0005000000189,"velocity":0.5039370078740157,"duration":0.26273169166665866},{"name":"G2","midi":43,"time":625.0005000000189,"velocity":0.5039370078740157,"duration":0.26273169166665866},{"name":"C3","midi":48,"time":625.0005000000189,"velocity":0.5039370078740157,"duration":0.26273169166665866},{"name":"G3","midi":55,"time":625.0005000000189,"velocity":0.5039370078740157,"duration":0.26273169166665866},{"name":"G2","midi":43,"time":625.2782780000189,"velocity":0.5039370078740157,"duration":0.26273169166665866},{"name":"G3","midi":55,"time":625.2782780000189,"velocity":0.5039370078740157,"duration":0.26273169166665866},{"name":"F#2","midi":42,"time":625.5560560000189,"velocity":0.5039370078740157,"duration":0.26273169166665866},{"name":"F#3","midi":54,"time":625.5560560000189,"velocity":0.5039370078740157,"duration":0.26273169166665866},{"name":"F#2","midi":42,"time":625.8338340000189,"velocity":0.5039370078740157,"duration":0.26273169166665866},{"name":"F#3","midi":54,"time":625.8338340000189,"velocity":0.5039370078740157,"duration":0.26273169166665866},{"name":"C2","midi":36,"time":626.1116120000189,"velocity":0.5039370078740157,"duration":0.2766205916667559},{"name":"G2","midi":43,"time":626.1116120000189,"velocity":0.5039370078740157,"duration":0.2766205916667559},{"name":"C3","midi":48,"time":626.1116120000189,"velocity":0.5039370078740157,"duration":0.2766205916667559},{"name":"G3","midi":55,"time":626.1116120000189,"velocity":0.5039370078740157,"duration":0.2766205916667559},{"name":"F#2","midi":42,"time":626.667168000019,"velocity":0.5039370078740157,"duration":0.2766205916666422},{"name":"F#3","midi":54,"time":626.667168000019,"velocity":0.5039370078740157,"duration":0.2766205916666422},{"name":"G2","midi":43,"time":627.2227240000191,"velocity":0.5039370078740157,"duration":0.26273169166665866},{"name":"G3","midi":55,"time":627.2227240000191,"velocity":0.5039370078740157,"duration":0.26273169166665866},{"name":"G2","midi":43,"time":627.5005020000191,"velocity":0.5039370078740157,"duration":0.13773159166669302},{"name":"G3","midi":55,"time":627.5005020000191,"velocity":0.5039370078740157,"duration":0.13773159166669302},{"name":"F#2","midi":42,"time":628.0560580000191,"velocity":0.5039370078740157,"duration":0.26273169166665866},{"name":"F#3","midi":54,"time":628.0560580000191,"velocity":0.5039370078740157,"duration":0.26273169166665866},{"name":"C2","midi":36,"time":628.3338360000191,"velocity":0.5039370078740157,"duration":0.26273169166677235},{"name":"G2","midi":43,"time":628.3338360000191,"velocity":0.5039370078740157,"duration":0.26273169166677235},{"name":"C3","midi":48,"time":628.3338360000191,"velocity":0.5039370078740157,"duration":0.26273169166677235},{"name":"G3","midi":55,"time":628.3338360000191,"velocity":0.5039370078740157,"duration":0.26273169166677235},{"name":"G2","midi":43,"time":628.6116140000192,"velocity":0.5039370078740157,"duration":0.26273169166665866},{"name":"G3","midi":55,"time":628.6116140000192,"velocity":0.5039370078740157,"duration":0.26273169166665866},{"name":"G2","midi":43,"time":628.8893920000193,"velocity":0.5039370078740157,"duration":0.26273169166665866},{"name":"G3","midi":55,"time":628.8893920000193,"velocity":0.5039370078740157,"duration":0.26273169166665866},{"name":"G2","midi":43,"time":629.1671700000193,"velocity":0.5039370078740157,"duration":0.26273169166665866},{"name":"G3","midi":55,"time":629.1671700000193,"velocity":0.5039370078740157,"duration":0.26273169166665866},{"name":"C2","midi":36,"time":629.4449480000193,"velocity":0.5039370078740157,"duration":0.26273169166665866},{"name":"G2","midi":43,"time":629.4449480000193,"velocity":0.5039370078740157,"duration":0.26273169166665866},{"name":"C3","midi":48,"time":629.4449480000193,"velocity":0.5039370078740157,"duration":0.26273169166665866},{"name":"G3","midi":55,"time":629.4449480000193,"velocity":0.5039370078740157,"duration":0.26273169166665866},{"name":"G2","midi":43,"time":629.7227260000193,"velocity":0.5039370078740157,"duration":0.26273169166665866},{"name":"G3","midi":55,"time":629.7227260000193,"velocity":0.5039370078740157,"duration":0.26273169166665866},{"name":"F#2","midi":42,"time":630.0005040000193,"velocity":0.5039370078740157,"duration":0.26273169166665866},{"name":"F#3","midi":54,"time":630.0005040000193,"velocity":0.5039370078740157,"duration":0.26273169166665866},{"name":"F#2","midi":42,"time":630.2782820000193,"velocity":0.5039370078740157,"duration":0.26273169166665866},{"name":"F#3","midi":54,"time":630.2782820000193,"velocity":0.5039370078740157,"duration":0.26273169166665866},{"name":"C2","midi":36,"time":630.5560600000193,"velocity":0.5039370078740157,"duration":0.2766205916667559},{"name":"G2","midi":43,"time":630.5560600000193,"velocity":0.5039370078740157,"duration":0.2766205916667559},{"name":"C3","midi":48,"time":630.5560600000193,"velocity":0.5039370078740157,"duration":0.2766205916667559},{"name":"G3","midi":55,"time":630.5560600000193,"velocity":0.5039370078740157,"duration":0.2766205916667559},{"name":"F#2","midi":42,"time":631.1116160000195,"velocity":0.5039370078740157,"duration":0.2766205916666422},{"name":"F#3","midi":54,"time":631.1116160000195,"velocity":0.5039370078740157,"duration":0.2766205916666422},{"name":"G2","midi":43,"time":631.6671720000195,"velocity":0.5039370078740157,"duration":0.26273169166665866},{"name":"G3","midi":55,"time":631.6671720000195,"velocity":0.5039370078740157,"duration":0.26273169166665866},{"name":"G2","midi":43,"time":631.9449500000195,"velocity":0.5039370078740157,"duration":0.13773159166669302},{"name":"G3","midi":55,"time":631.9449500000195,"velocity":0.5039370078740157,"duration":0.13773159166669302},{"name":"F#2","midi":42,"time":632.5005060000195,"velocity":0.5039370078740157,"duration":0.26273169166665866},{"name":"F#3","midi":54,"time":632.5005060000195,"velocity":0.5039370078740157,"duration":0.26273169166665866},{"name":"C2","midi":36,"time":632.7782840000195,"velocity":0.5039370078740157,"duration":0.26273169166677235},{"name":"G2","midi":43,"time":632.7782840000195,"velocity":0.5039370078740157,"duration":0.26273169166677235},{"name":"C3","midi":48,"time":632.7782840000195,"velocity":0.5039370078740157,"duration":0.26273169166677235},{"name":"G3","midi":55,"time":632.7782840000195,"velocity":0.5039370078740157,"duration":0.26273169166677235},{"name":"G2","midi":43,"time":633.0560620000197,"velocity":0.5039370078740157,"duration":0.26273169166665866},{"name":"G3","midi":55,"time":633.0560620000197,"velocity":0.5039370078740157,"duration":0.26273169166665866},{"name":"G2","midi":43,"time":633.3338400000197,"velocity":0.5039370078740157,"duration":0.26273169166665866},{"name":"G3","midi":55,"time":633.3338400000197,"velocity":0.5039370078740157,"duration":0.26273169166665866},{"name":"G2","midi":43,"time":633.6116180000197,"velocity":0.5039370078740157,"duration":0.26273169166665866},{"name":"G3","midi":55,"time":633.6116180000197,"velocity":0.5039370078740157,"duration":0.26273169166665866},{"name":"C2","midi":36,"time":633.8893960000197,"velocity":0.5039370078740157,"duration":0.26273169166665866},{"name":"G2","midi":43,"time":633.8893960000197,"velocity":0.5039370078740157,"duration":0.26273169166665866},{"name":"C3","midi":48,"time":633.8893960000197,"velocity":0.5039370078740157,"duration":0.26273169166665866},{"name":"G3","midi":55,"time":633.8893960000197,"velocity":0.5039370078740157,"duration":0.26273169166665866},{"name":"G2","midi":43,"time":634.1671740000197,"velocity":0.5039370078740157,"duration":0.26273169166665866},{"name":"G3","midi":55,"time":634.1671740000197,"velocity":0.5039370078740157,"duration":0.26273169166665866},{"name":"F#2","midi":42,"time":634.4449520000197,"velocity":0.5039370078740157,"duration":0.26273169166665866},{"name":"F#3","midi":54,"time":634.4449520000197,"velocity":0.5039370078740157,"duration":0.26273169166665866},{"name":"F#2","midi":42,"time":634.7227300000197,"velocity":0.5039370078740157,"duration":0.26273169166665866},{"name":"F#3","midi":54,"time":634.7227300000197,"velocity":0.5039370078740157,"duration":0.26273169166665866},{"name":"F1","midi":29,"time":635.0005080000197,"velocity":0.8818897637795275,"duration":0.5266207916666872},{"name":"F2","midi":41,"time":635.0005080000197,"velocity":0.8818897637795275,"duration":0.5266207916666872},{"name":"F2","midi":41,"time":635.5560640000198,"velocity":0.8818897637795275,"duration":0.5266207916666872},{"name":"C3","midi":48,"time":635.5560640000198,"velocity":0.8818897637795275,"duration":0.5266207916666872},{"name":"F3","midi":53,"time":635.5560640000198,"velocity":0.8818897637795275,"duration":0.5266207916666872},{"name":"F1","midi":29,"time":636.1116200000198,"velocity":0.8818897637795275,"duration":0.5266207916666872},{"name":"F2","midi":41,"time":636.1116200000198,"velocity":0.8818897637795275,"duration":0.5266207916666872},{"name":"F2","midi":41,"time":636.6671760000198,"velocity":0.8818897637795275,"duration":0.5266207916666872},{"name":"C3","midi":48,"time":636.6671760000198,"velocity":0.8818897637795275,"duration":0.5266207916666872},{"name":"F3","midi":53,"time":636.6671760000198,"velocity":0.8818897637795275,"duration":0.5266207916666872},{"name":"G1","midi":31,"time":637.2227320000198,"velocity":0.8818897637795275,"duration":0.5266207916666872},{"name":"G2","midi":43,"time":637.2227320000198,"velocity":0.8818897637795275,"duration":0.5266207916666872},{"name":"G2","midi":43,"time":637.7782880000199,"velocity":0.8818897637795275,"duration":0.5266207916666872},{"name":"D3","midi":50,"time":637.7782880000199,"velocity":0.8818897637795275,"duration":0.5266207916666872},{"name":"G3","midi":55,"time":637.7782880000199,"velocity":0.8818897637795275,"duration":0.5266207916666872},{"name":"G1","midi":31,"time":638.3338440000199,"velocity":0.8818897637795275,"duration":0.5266207916666872},{"name":"G2","midi":43,"time":638.3338440000199,"velocity":0.8818897637795275,"duration":0.5266207916666872},{"name":"G2","midi":43,"time":638.8894000000199,"velocity":0.8818897637795275,"duration":0.5266207916666872},{"name":"D3","midi":50,"time":638.8894000000199,"velocity":0.8818897637795275,"duration":0.5266207916666872},{"name":"G3","midi":55,"time":638.8894000000199,"velocity":0.8818897637795275,"duration":0.5266207916666872},{"name":"G#1","midi":32,"time":639.4449560000199,"velocity":0.8818897637795275,"duration":0.5266207916666872},{"name":"G#2","midi":44,"time":639.4449560000199,"velocity":0.8818897637795275,"duration":0.5266207916666872},{"name":"G#2","midi":44,"time":640.00051200002,"velocity":0.8818897637795275,"duration":0.5266207916666872},{"name":"D#3","midi":51,"time":640.00051200002,"velocity":0.8818897637795275,"duration":0.5266207916666872},{"name":"G#3","midi":56,"time":640.00051200002,"velocity":0.8818897637795275,"duration":0.5266207916666872},{"name":"G#1","midi":32,"time":640.55606800002,"velocity":0.8818897637795275,"duration":0.5266207916666872},{"name":"G#2","midi":44,"time":640.55606800002,"velocity":0.8818897637795275,"duration":0.5266207916666872},{"name":"G#2","midi":44,"time":641.11162400002,"velocity":0.8818897637795275,"duration":0.5266207916666872},{"name":"D#3","midi":51,"time":641.11162400002,"velocity":0.8818897637795275,"duration":0.5266207916666872},{"name":"G#3","midi":56,"time":641.11162400002,"velocity":0.8818897637795275,"duration":0.5266207916666872},{"name":"C2","midi":36,"time":641.66718000002,"velocity":0.8818897637795275,"duration":0.5266207916666872},{"name":"C3","midi":48,"time":641.66718000002,"velocity":0.8818897637795275,"duration":0.5266207916666872},{"name":"C3","midi":48,"time":642.2227360000201,"velocity":0.8818897637795275,"duration":0.5266207916666872},{"name":"G3","midi":55,"time":642.2227360000201,"velocity":0.8818897637795275,"duration":0.5266207916666872},{"name":"C4","midi":60,"time":642.2227360000201,"velocity":0.8818897637795275,"duration":0.5266207916666872},{"name":"C2","midi":36,"time":642.7782920000201,"velocity":0.8818897637795275,"duration":0.5266207916666872},{"name":"C3","midi":48,"time":642.7782920000201,"velocity":0.8818897637795275,"duration":0.5266207916666872},{"name":"C3","midi":48,"time":643.3338480000201,"velocity":0.8818897637795275,"duration":0.5266207916666872},{"name":"G3","midi":55,"time":643.3338480000201,"velocity":0.8818897637795275,"duration":0.5266207916666872},{"name":"C4","midi":60,"time":643.3338480000201,"velocity":0.8818897637795275,"duration":0.5266207916666872},{"name":"F1","midi":29,"time":643.8894040000201,"velocity":0.8818897637795275,"duration":0.5266207916666872},{"name":"F2","midi":41,"time":643.8894040000201,"velocity":0.8818897637795275,"duration":0.5266207916666872},{"name":"F2","midi":41,"time":644.4449600000202,"velocity":0.8818897637795275,"duration":0.5266207916666872},{"name":"C3","midi":48,"time":644.4449600000202,"velocity":0.8818897637795275,"duration":0.5266207916666872},{"name":"F3","midi":53,"time":644.4449600000202,"velocity":0.8818897637795275,"duration":0.5266207916666872},{"name":"F1","midi":29,"time":645.0005160000202,"velocity":0.8818897637795275,"duration":0.5266207916666872},{"name":"F2","midi":41,"time":645.0005160000202,"velocity":0.8818897637795275,"duration":0.5266207916666872},{"name":"F2","midi":41,"time":645.5560720000202,"velocity":0.8818897637795275,"duration":0.5266207916666872},{"name":"C3","midi":48,"time":645.5560720000202,"velocity":0.8818897637795275,"duration":0.5266207916666872},{"name":"F3","midi":53,"time":645.5560720000202,"velocity":0.8818897637795275,"duration":0.5266207916666872},{"name":"G1","midi":31,"time":646.1116280000202,"velocity":0.8818897637795275,"duration":0.5266207916666872},{"name":"G2","midi":43,"time":646.1116280000202,"velocity":0.8818897637795275,"duration":0.5266207916666872},{"name":"G2","midi":43,"time":646.6671840000203,"velocity":0.8818897637795275,"duration":0.5266207916666872},{"name":"D3","midi":50,"time":646.6671840000203,"velocity":0.8818897637795275,"duration":0.5266207916666872},{"name":"G3","midi":55,"time":646.6671840000203,"velocity":0.8818897637795275,"duration":0.5266207916666872},{"name":"G1","midi":31,"time":647.2227400000203,"velocity":0.8818897637795275,"duration":0.5266207916666872},{"name":"G2","midi":43,"time":647.2227400000203,"velocity":0.8818897637795275,"duration":0.5266207916666872},{"name":"G2","midi":43,"time":647.7782960000203,"velocity":0.8818897637795275,"duration":0.5266207916666872},{"name":"D3","midi":50,"time":647.7782960000203,"velocity":0.8818897637795275,"duration":0.5266207916666872},{"name":"G3","midi":55,"time":647.7782960000203,"velocity":0.8818897637795275,"duration":0.5266207916666872},{"name":"G#1","midi":32,"time":648.3338520000203,"velocity":0.8818897637795275,"duration":0.5266207916666872},{"name":"G#2","midi":44,"time":648.3338520000203,"velocity":0.8818897637795275,"duration":0.5266207916666872},{"name":"G#2","midi":44,"time":648.8894080000204,"velocity":0.8818897637795275,"duration":0.5266207916666872},{"name":"D#3","midi":51,"time":648.8894080000204,"velocity":0.8818897637795275,"duration":0.5266207916666872},{"name":"G#3","midi":56,"time":648.8894080000204,"velocity":0.8818897637795275,"duration":0.5266207916666872},{"name":"G#1","midi":32,"time":649.4449640000204,"velocity":0.8818897637795275,"duration":0.5266207916666872},{"name":"G#2","midi":44,"time":649.4449640000204,"velocity":0.8818897637795275,"duration":0.5266207916666872},{"name":"G#2","midi":44,"time":650.0005200000204,"velocity":0.8818897637795275,"duration":0.5266207916666872},{"name":"D#3","midi":51,"time":650.0005200000204,"velocity":0.8818897637795275,"duration":0.5266207916666872},{"name":"G#3","midi":56,"time":650.0005200000204,"velocity":0.8818897637795275,"duration":0.5266207916666872},{"name":"G1","midi":31,"time":650.5560760000204,"velocity":0.8818897637795275,"duration":0.5266207916666872},{"name":"G2","midi":43,"time":650.5560760000204,"velocity":0.8818897637795275,"duration":0.5266207916666872},{"name":"G2","midi":43,"time":651.1116320000204,"velocity":0.8818897637795275,"duration":0.5266207916666872},{"name":"D3","midi":50,"time":651.1116320000204,"velocity":0.8818897637795275,"duration":0.5266207916666872},{"name":"G3","midi":55,"time":651.1116320000204,"velocity":0.8818897637795275,"duration":0.5266207916666872},{"name":"G1","midi":31,"time":651.6671880000205,"velocity":0.8818897637795275,"duration":0.5266207916666872},{"name":"G2","midi":43,"time":651.6671880000205,"velocity":0.8818897637795275,"duration":0.5266207916666872},{"name":"G2","midi":43,"time":652.2227440000205,"velocity":0.8818897637795275,"duration":0.5266207916666872},{"name":"D3","midi":50,"time":652.2227440000205,"velocity":0.8818897637795275,"duration":0.5266207916666872},{"name":"G3","midi":55,"time":652.2227440000205,"velocity":0.8818897637795275,"duration":0.5266207916666872},{"name":"F1","midi":29,"time":652.7783000000205,"velocity":0.8818897637795275,"duration":0.5266207916666872},{"name":"F2","midi":41,"time":652.7783000000205,"velocity":0.8818897637795275,"duration":0.5266207916666872},{"name":"F2","midi":41,"time":653.3338560000205,"velocity":0.8818897637795275,"duration":0.5266207916666872},{"name":"C3","midi":48,"time":653.3338560000205,"velocity":0.8818897637795275,"duration":0.5266207916666872},{"name":"F3","midi":53,"time":653.3338560000205,"velocity":0.8818897637795275,"duration":0.5266207916666872},{"name":"F1","midi":29,"time":653.8894120000206,"velocity":0.8818897637795275,"duration":0.5266207916666872},{"name":"F2","midi":41,"time":653.8894120000206,"velocity":0.8818897637795275,"duration":0.5266207916666872},{"name":"F2","midi":41,"time":654.4449680000206,"velocity":0.8818897637795275,"duration":0.5266207916666872},{"name":"C3","midi":48,"time":654.4449680000206,"velocity":0.8818897637795275,"duration":0.5266207916666872},{"name":"F3","midi":53,"time":654.4449680000206,"velocity":0.8818897637795275,"duration":0.5266207916666872},{"name":"G1","midi":31,"time":655.0005240000206,"velocity":0.8818897637795275,"duration":0.5266207916666872},{"name":"G2","midi":43,"time":655.0005240000206,"velocity":0.8818897637795275,"duration":0.5266207916666872},{"name":"G2","midi":43,"time":655.5560800000206,"velocity":0.8818897637795275,"duration":0.5266207916666872},{"name":"D3","midi":50,"time":655.5560800000206,"velocity":0.8818897637795275,"duration":0.5266207916666872},{"name":"G3","midi":55,"time":655.5560800000206,"velocity":0.8818897637795275,"duration":0.5266207916666872},{"name":"G1","midi":31,"time":656.1116360000207,"velocity":0.8818897637795275,"duration":0.5266207916666872},{"name":"G2","midi":43,"time":656.1116360000207,"velocity":0.8818897637795275,"duration":0.5266207916666872},{"name":"G2","midi":43,"time":656.6671920000207,"velocity":0.8818897637795275,"duration":0.5266207916666872},{"name":"D3","midi":50,"time":656.6671920000207,"velocity":0.8818897637795275,"duration":0.5266207916666872},{"name":"G3","midi":55,"time":656.6671920000207,"velocity":0.8818897637795275,"duration":0.5266207916666872},{"name":"G#1","midi":32,"time":657.2227480000207,"velocity":0.8818897637795275,"duration":0.5266207916666872},{"name":"G#2","midi":44,"time":657.2227480000207,"velocity":0.8818897637795275,"duration":0.5266207916666872},{"name":"G#2","midi":44,"time":657.7783040000207,"velocity":0.8818897637795275,"duration":0.5266207916666872},{"name":"D#3","midi":51,"time":657.7783040000207,"velocity":0.8818897637795275,"duration":0.5266207916666872},{"name":"G#3","midi":56,"time":657.7783040000207,"velocity":0.8818897637795275,"duration":0.5266207916666872},{"name":"G#1","midi":32,"time":658.3338600000208,"velocity":0.8818897637795275,"duration":0.5266207916666872},{"name":"G#2","midi":44,"time":658.3338600000208,"velocity":0.8818897637795275,"duration":0.5266207916666872},{"name":"G#2","midi":44,"time":658.8894160000208,"velocity":0.8818897637795275,"duration":0.5266207916666872},{"name":"D#3","midi":51,"time":658.8894160000208,"velocity":0.8818897637795275,"duration":0.5266207916666872},{"name":"G#3","midi":56,"time":658.8894160000208,"velocity":0.8818897637795275,"duration":0.5266207916666872},{"name":"C2","midi":36,"time":659.4449720000208,"velocity":0.8818897637795275,"duration":0.5266207916666872},{"name":"C3","midi":48,"time":659.4449720000208,"velocity":0.8818897637795275,"duration":0.5266207916666872},{"name":"C3","midi":48,"time":660.0005280000208,"velocity":0.8818897637795275,"duration":0.5266207916666872},{"name":"G3","midi":55,"time":660.0005280000208,"velocity":0.8818897637795275,"duration":0.5266207916666872},{"name":"C4","midi":60,"time":660.0005280000208,"velocity":0.8818897637795275,"duration":0.5266207916666872},{"name":"C2","midi":36,"time":660.5560840000209,"velocity":0.8818897637795275,"duration":0.5266207916666872},{"name":"C3","midi":48,"time":660.5560840000209,"velocity":0.8818897637795275,"duration":0.5266207916666872},{"name":"C3","midi":48,"time":661.1116400000209,"velocity":0.8818897637795275,"duration":0.5266207916666872},{"name":"G3","midi":55,"time":661.1116400000209,"velocity":0.8818897637795275,"duration":0.5266207916666872},{"name":"C4","midi":60,"time":661.1116400000209,"velocity":0.8818897637795275,"duration":0.5266207916666872},{"name":"F1","midi":29,"time":661.6671960000209,"velocity":0.8818897637795275,"duration":0.5266207916666872},{"name":"F2","midi":41,"time":661.6671960000209,"velocity":0.8818897637795275,"duration":0.5266207916666872},{"name":"F2","midi":41,"time":662.2227520000209,"velocity":0.8818897637795275,"duration":0.5266207916666872},{"name":"C3","midi":48,"time":662.2227520000209,"velocity":0.8818897637795275,"duration":0.5266207916666872},{"name":"F3","midi":53,"time":662.2227520000209,"velocity":0.8818897637795275,"duration":0.5266207916666872},{"name":"F1","midi":29,"time":662.778308000021,"velocity":0.8818897637795275,"duration":0.5266207916666872},{"name":"F2","midi":41,"time":662.778308000021,"velocity":0.8818897637795275,"duration":0.5266207916666872},{"name":"F2","midi":41,"time":663.333864000021,"velocity":0.8818897637795275,"duration":0.5266207916666872},{"name":"C3","midi":48,"time":663.333864000021,"velocity":0.8818897637795275,"duration":0.5266207916666872},{"name":"F3","midi":53,"time":663.333864000021,"velocity":0.8818897637795275,"duration":0.5266207916666872},{"name":"G1","midi":31,"time":663.889420000021,"velocity":0.8818897637795275,"duration":0.5266207916666872},{"name":"G2","midi":43,"time":663.889420000021,"velocity":0.8818897637795275,"duration":0.5266207916666872},{"name":"G2","midi":43,"time":664.444976000021,"velocity":0.8818897637795275,"duration":0.5266207916666872},{"name":"D3","midi":50,"time":664.444976000021,"velocity":0.8818897637795275,"duration":0.5266207916666872},{"name":"G3","midi":55,"time":664.444976000021,"velocity":0.8818897637795275,"duration":0.5266207916666872},{"name":"G1","midi":31,"time":665.000532000021,"velocity":0.8818897637795275,"duration":0.5266207916666872},{"name":"G2","midi":43,"time":665.000532000021,"velocity":0.8818897637795275,"duration":0.5266207916666872},{"name":"G2","midi":43,"time":665.5560880000211,"velocity":0.8818897637795275,"duration":0.5266207916666872},{"name":"D3","midi":50,"time":665.5560880000211,"velocity":0.8818897637795275,"duration":0.5266207916666872},{"name":"G3","midi":55,"time":665.5560880000211,"velocity":0.8818897637795275,"duration":0.5266207916666872},{"name":"G#1","midi":32,"time":666.1116440000211,"velocity":0.8818897637795275,"duration":0.5266207916666872},{"name":"G#2","midi":44,"time":666.1116440000211,"velocity":0.8818897637795275,"duration":0.5266207916666872},{"name":"G#2","midi":44,"time":666.6672000000211,"velocity":0.8818897637795275,"duration":0.5266207916666872},{"name":"D#3","midi":51,"time":666.6672000000211,"velocity":0.8818897637795275,"duration":0.5266207916666872},{"name":"G#3","midi":56,"time":666.6672000000211,"velocity":0.8818897637795275,"duration":0.5266207916666872},{"name":"G#1","midi":32,"time":667.2227560000211,"velocity":0.8818897637795275,"duration":0.5266207916666872},{"name":"G#2","midi":44,"time":667.2227560000211,"velocity":0.8818897637795275,"duration":0.5266207916666872},{"name":"G#2","midi":44,"time":667.7783120000212,"velocity":0.8818897637795275,"duration":0.5266207916666872},{"name":"D#3","midi":51,"time":667.7783120000212,"velocity":0.8818897637795275,"duration":0.5266207916666872},{"name":"G#3","midi":56,"time":667.7783120000212,"velocity":0.8818897637795275,"duration":0.5266207916666872},{"name":"G1","midi":31,"time":668.3338680000212,"velocity":0.8818897637795275,"duration":0.5266207916666872},{"name":"G2","midi":43,"time":668.3338680000212,"velocity":0.8818897637795275,"duration":0.5266207916666872},{"name":"G2","midi":43,"time":668.8894240000212,"velocity":0.8818897637795275,"duration":0.5266207916666872},{"name":"D3","midi":50,"time":668.8894240000212,"velocity":0.8818897637795275,"duration":0.5266207916666872},{"name":"G3","midi":55,"time":668.8894240000212,"velocity":0.8818897637795275,"duration":0.5266207916666872},{"name":"G1","midi":31,"time":669.4449800000212,"velocity":0.8818897637795275,"duration":0.5266207916666872},{"name":"G2","midi":43,"time":669.4449800000212,"velocity":0.8818897637795275,"duration":0.5266207916666872},{"name":"G2","midi":43,"time":670.0005360000213,"velocity":0.8818897637795275,"duration":0.5266207916666872},{"name":"D3","midi":50,"time":670.0005360000213,"velocity":0.8818897637795275,"duration":0.5266207916666872},{"name":"G3","midi":55,"time":670.0005360000213,"velocity":0.8818897637795275,"duration":0.5266207916666872},{"name":"C2","midi":36,"time":670.5560920000213,"velocity":0.6299212598425197,"duration":0.2766205916667559},{"name":"G2","midi":43,"time":670.5560920000213,"velocity":0.6299212598425197,"duration":0.2766205916667559},{"name":"C3","midi":48,"time":670.5560920000213,"velocity":0.6299212598425197,"duration":0.2766205916667559},{"name":"G3","midi":55,"time":670.5560920000213,"velocity":0.6299212598425197,"duration":0.2766205916667559},{"name":"F#2","midi":42,"time":671.1116480000214,"velocity":0.6299212598425197,"duration":0.2766205916666422},{"name":"F#3","midi":54,"time":671.1116480000214,"velocity":0.6299212598425197,"duration":0.2766205916666422},{"name":"G2","midi":43,"time":671.6672040000215,"velocity":0.6299212598425197,"duration":0.26273169166665866},{"name":"G3","midi":55,"time":671.6672040000215,"velocity":0.6299212598425197,"duration":0.26273169166665866},{"name":"G2","midi":43,"time":671.9449820000215,"velocity":0.6299212598425197,"duration":0.13773159166669302},{"name":"G3","midi":55,"time":671.9449820000215,"velocity":0.6299212598425197,"duration":0.13773159166669302},{"name":"F#2","midi":42,"time":672.5005380000215,"velocity":0.6299212598425197,"duration":0.26273169166665866},{"name":"F#3","midi":54,"time":672.5005380000215,"velocity":0.6299212598425197,"duration":0.26273169166665866},{"name":"C2","midi":36,"time":672.7783160000215,"velocity":0.6299212598425197,"duration":0.26273169166677235},{"name":"G2","midi":43,"time":672.7783160000215,"velocity":0.6299212598425197,"duration":0.26273169166677235},{"name":"C3","midi":48,"time":672.7783160000215,"velocity":0.6299212598425197,"duration":0.26273169166677235},{"name":"G3","midi":55,"time":672.7783160000215,"velocity":0.6299212598425197,"duration":0.26273169166677235},{"name":"G2","midi":43,"time":673.0560940000216,"velocity":0.6299212598425197,"duration":0.26273169166665866},{"name":"G3","midi":55,"time":673.0560940000216,"velocity":0.6299212598425197,"duration":0.26273169166665866},{"name":"G2","midi":43,"time":673.3338720000216,"velocity":0.6299212598425197,"duration":0.26273169166665866},{"name":"G3","midi":55,"time":673.3338720000216,"velocity":0.6299212598425197,"duration":0.26273169166665866},{"name":"G2","midi":43,"time":673.6116500000217,"velocity":0.6299212598425197,"duration":0.26273169166665866},{"name":"G3","midi":55,"time":673.6116500000217,"velocity":0.6299212598425197,"duration":0.26273169166665866},{"name":"C2","midi":36,"time":673.8894280000217,"velocity":0.6299212598425197,"duration":0.26273169166665866},{"name":"G2","midi":43,"time":673.8894280000217,"velocity":0.6299212598425197,"duration":0.26273169166665866},{"name":"C3","midi":48,"time":673.8894280000217,"velocity":0.6299212598425197,"duration":0.26273169166665866},{"name":"G3","midi":55,"time":673.8894280000217,"velocity":0.6299212598425197,"duration":0.26273169166665866},{"name":"G2","midi":43,"time":674.1672060000217,"velocity":0.6299212598425197,"duration":0.26273169166665866},{"name":"G3","midi":55,"time":674.1672060000217,"velocity":0.6299212598425197,"duration":0.26273169166665866},{"name":"F#2","midi":42,"time":674.4449840000217,"velocity":0.6299212598425197,"duration":0.26273169166665866},{"name":"F#3","midi":54,"time":674.4449840000217,"velocity":0.6299212598425197,"duration":0.26273169166665866},{"name":"F#2","midi":42,"time":674.7227620000217,"velocity":0.6299212598425197,"duration":0.26273169166665866},{"name":"F#3","midi":54,"time":674.7227620000217,"velocity":0.6299212598425197,"duration":0.26273169166665866},{"name":"C2","midi":36,"time":675.0005400000217,"velocity":0.6299212598425197,"duration":0.2766205916667559},{"name":"G2","midi":43,"time":675.0005400000217,"velocity":0.6299212598425197,"duration":0.2766205916667559},{"name":"C3","midi":48,"time":675.0005400000217,"velocity":0.6299212598425197,"duration":0.2766205916667559},{"name":"G3","midi":55,"time":675.0005400000217,"velocity":0.6299212598425197,"duration":0.2766205916667559},{"name":"F#2","midi":42,"time":675.5560960000219,"velocity":0.6299212598425197,"duration":0.2766205916666422},{"name":"F#3","midi":54,"time":675.5560960000219,"velocity":0.6299212598425197,"duration":0.2766205916666422},{"name":"G2","midi":43,"time":676.1116520000219,"velocity":0.6299212598425197,"duration":0.26273169166665866},{"name":"G3","midi":55,"time":676.1116520000219,"velocity":0.6299212598425197,"duration":0.26273169166665866},{"name":"G2","midi":43,"time":676.3894300000219,"velocity":0.6299212598425197,"duration":0.13773159166669302},{"name":"G3","midi":55,"time":676.3894300000219,"velocity":0.6299212598425197,"duration":0.13773159166669302},{"name":"F#2","midi":42,"time":676.9449860000219,"velocity":0.6299212598425197,"duration":0.26273169166665866},{"name":"F#3","midi":54,"time":676.9449860000219,"velocity":0.6299212598425197,"duration":0.26273169166665866},{"name":"C2","midi":36,"time":677.2227640000219,"velocity":0.6299212598425197,"duration":0.26273169166677235},{"name":"G2","midi":43,"time":677.2227640000219,"velocity":0.6299212598425197,"duration":0.26273169166677235},{"name":"C3","midi":48,"time":677.2227640000219,"velocity":0.6299212598425197,"duration":0.26273169166677235},{"name":"G3","midi":55,"time":677.2227640000219,"velocity":0.6299212598425197,"duration":0.26273169166677235},{"name":"G2","midi":43,"time":677.500542000022,"velocity":0.6299212598425197,"duration":0.26273169166665866},{"name":"G3","midi":55,"time":677.500542000022,"velocity":0.6299212598425197,"duration":0.26273169166665866},{"name":"G2","midi":43,"time":677.7783200000221,"velocity":0.6299212598425197,"duration":0.26273169166665866},{"name":"G3","midi":55,"time":677.7783200000221,"velocity":0.6299212598425197,"duration":0.26273169166665866},{"name":"G2","midi":43,"time":678.0560980000221,"velocity":0.6299212598425197,"duration":0.26273169166665866},{"name":"G3","midi":55,"time":678.0560980000221,"velocity":0.6299212598425197,"duration":0.26273169166665866},{"name":"C2","midi":36,"time":678.3338760000221,"velocity":0.6299212598425197,"duration":0.26273169166665866},{"name":"G2","midi":43,"time":678.3338760000221,"velocity":0.6299212598425197,"duration":0.26273169166665866},{"name":"C3","midi":48,"time":678.3338760000221,"velocity":0.6299212598425197,"duration":0.26273169166665866},{"name":"G3","midi":55,"time":678.3338760000221,"velocity":0.6299212598425197,"duration":0.26273169166665866},{"name":"G2","midi":43,"time":678.6116540000221,"velocity":0.6299212598425197,"duration":0.26273169166665866},{"name":"G3","midi":55,"time":678.6116540000221,"velocity":0.6299212598425197,"duration":0.26273169166665866},{"name":"F#2","midi":42,"time":678.8894320000221,"velocity":0.6299212598425197,"duration":0.26273169166665866},{"name":"F#3","midi":54,"time":678.8894320000221,"velocity":0.6299212598425197,"duration":0.26273169166665866},{"name":"F#2","midi":42,"time":679.1672100000221,"velocity":0.6299212598425197,"duration":0.26273169166665866},{"name":"F#3","midi":54,"time":679.1672100000221,"velocity":0.6299212598425197,"duration":0.26273169166665866},{"name":"C2","midi":36,"time":679.4449880000221,"velocity":0.6299212598425197,"duration":0.2766205916667559},{"name":"G2","midi":43,"time":679.4449880000221,"velocity":0.6299212598425197,"duration":0.2766205916667559},{"name":"C3","midi":48,"time":679.4449880000221,"velocity":0.6299212598425197,"duration":0.2766205916667559},{"name":"G3","midi":55,"time":679.4449880000221,"velocity":0.6299212598425197,"duration":0.2766205916667559},{"name":"F#2","midi":42,"time":680.0005440000223,"velocity":0.6299212598425197,"duration":0.2766205916666422},{"name":"F#3","midi":54,"time":680.0005440000223,"velocity":0.6299212598425197,"duration":0.2766205916666422},{"name":"G2","midi":43,"time":680.5561000000223,"velocity":0.6299212598425197,"duration":0.26273169166665866},{"name":"G3","midi":55,"time":680.5561000000223,"velocity":0.6299212598425197,"duration":0.26273169166665866},{"name":"G2","midi":43,"time":680.8338780000223,"velocity":0.6299212598425197,"duration":0.13773159166669302},{"name":"G3","midi":55,"time":680.8338780000223,"velocity":0.6299212598425197,"duration":0.13773159166669302},{"name":"F#2","midi":42,"time":681.3894340000223,"velocity":0.6299212598425197,"duration":0.26273169166665866},{"name":"F#3","midi":54,"time":681.3894340000223,"velocity":0.6299212598425197,"duration":0.26273169166665866},{"name":"C2","midi":36,"time":681.6672120000223,"velocity":0.6299212598425197,"duration":0.26273169166677235},{"name":"G2","midi":43,"time":681.6672120000223,"velocity":0.6299212598425197,"duration":0.26273169166677235},{"name":"C3","midi":48,"time":681.6672120000223,"velocity":0.6299212598425197,"duration":0.26273169166677235},{"name":"G3","midi":55,"time":681.6672120000223,"velocity":0.6299212598425197,"duration":0.26273169166677235},{"name":"G2","midi":43,"time":681.9449900000225,"velocity":0.6299212598425197,"duration":0.26273169166665866},{"name":"G3","midi":55,"time":681.9449900000225,"velocity":0.6299212598425197,"duration":0.26273169166665866},{"name":"G2","midi":43,"time":682.2227680000225,"velocity":0.6299212598425197,"duration":0.26273169166665866},{"name":"G3","midi":55,"time":682.2227680000225,"velocity":0.6299212598425197,"duration":0.26273169166665866},{"name":"G2","midi":43,"time":682.5005460000225,"velocity":0.6299212598425197,"duration":0.26273169166665866},{"name":"G3","midi":55,"time":682.5005460000225,"velocity":0.6299212598425197,"duration":0.26273169166665866},{"name":"C2","midi":36,"time":682.7783240000225,"velocity":0.6299212598425197,"duration":0.26273169166665866},{"name":"G2","midi":43,"time":682.7783240000225,"velocity":0.6299212598425197,"duration":0.26273169166665866},{"name":"C3","midi":48,"time":682.7783240000225,"velocity":0.6299212598425197,"duration":0.26273169166665866},{"name":"G3","midi":55,"time":682.7783240000225,"velocity":0.6299212598425197,"duration":0.26273169166665866},{"name":"G2","midi":43,"time":683.0561020000225,"velocity":0.6299212598425197,"duration":0.26273169166665866},{"name":"G3","midi":55,"time":683.0561020000225,"velocity":0.6299212598425197,"duration":0.26273169166665866},{"name":"F#2","midi":42,"time":683.3338800000225,"velocity":0.6299212598425197,"duration":0.26273169166665866},{"name":"F#3","midi":54,"time":683.3338800000225,"velocity":0.6299212598425197,"duration":0.26273169166665866},{"name":"F#2","midi":42,"time":683.6116580000225,"velocity":0.6299212598425197,"duration":0.26273169166665866},{"name":"F#3","midi":54,"time":683.6116580000225,"velocity":0.6299212598425197,"duration":0.26273169166665866},{"name":"C2","midi":36,"time":683.8894360000226,"velocity":0.6299212598425197,"duration":0.2766205916667559},{"name":"G2","midi":43,"time":683.8894360000226,"velocity":0.6299212598425197,"duration":0.2766205916667559},{"name":"C3","midi":48,"time":683.8894360000226,"velocity":0.6299212598425197,"duration":0.2766205916667559},{"name":"G3","midi":55,"time":683.8894360000226,"velocity":0.6299212598425197,"duration":0.2766205916667559},{"name":"F#2","midi":42,"time":684.4449920000227,"velocity":0.6299212598425197,"duration":0.2766205916666422},{"name":"F#3","midi":54,"time":684.4449920000227,"velocity":0.6299212598425197,"duration":0.2766205916666422},{"name":"G2","midi":43,"time":685.0005480000227,"velocity":0.6299212598425197,"duration":0.26273169166665866},{"name":"G3","midi":55,"time":685.0005480000227,"velocity":0.6299212598425197,"duration":0.26273169166665866},{"name":"G2","midi":43,"time":685.2783260000227,"velocity":0.6299212598425197,"duration":0.13773159166669302},{"name":"G3","midi":55,"time":685.2783260000227,"velocity":0.6299212598425197,"duration":0.13773159166669302},{"name":"F#2","midi":42,"time":685.8338820000228,"velocity":0.6299212598425197,"duration":0.26273169166665866},{"name":"F#3","midi":54,"time":685.8338820000228,"velocity":0.6299212598425197,"duration":0.26273169166665866},{"name":"C2","midi":36,"time":686.1116600000228,"velocity":0.6299212598425197,"duration":0.26273169166677235},{"name":"G2","midi":43,"time":686.1116600000228,"velocity":0.6299212598425197,"duration":0.26273169166677235},{"name":"C3","midi":48,"time":686.1116600000228,"velocity":0.6299212598425197,"duration":0.26273169166677235},{"name":"G3","midi":55,"time":686.1116600000228,"velocity":0.6299212598425197,"duration":0.26273169166677235},{"name":"G2","midi":43,"time":686.3894380000229,"velocity":0.6299212598425197,"duration":0.26273169166665866},{"name":"G3","midi":55,"time":686.3894380000229,"velocity":0.6299212598425197,"duration":0.26273169166665866},{"name":"G2","midi":43,"time":686.6672160000229,"velocity":0.6299212598425197,"duration":0.26273169166665866},{"name":"G3","midi":55,"time":686.6672160000229,"velocity":0.6299212598425197,"duration":0.26273169166665866},{"name":"G2","midi":43,"time":686.9449940000229,"velocity":0.6299212598425197,"duration":0.26273169166665866},{"name":"G3","midi":55,"time":686.9449940000229,"velocity":0.6299212598425197,"duration":0.26273169166665866},{"name":"C2","midi":36,"time":687.2227720000229,"velocity":0.6299212598425197,"duration":0.26273169166665866},{"name":"G2","midi":43,"time":687.2227720000229,"velocity":0.6299212598425197,"duration":0.26273169166665866},{"name":"C3","midi":48,"time":687.2227720000229,"velocity":0.6299212598425197,"duration":0.26273169166665866},{"name":"G3","midi":55,"time":687.2227720000229,"velocity":0.6299212598425197,"duration":0.26273169166665866},{"name":"G2","midi":43,"time":687.5005500000229,"velocity":0.6299212598425197,"duration":0.26273169166665866},{"name":"G3","midi":55,"time":687.5005500000229,"velocity":0.6299212598425197,"duration":0.26273169166665866},{"name":"F#2","midi":42,"time":687.778328000023,"velocity":0.6299212598425197,"duration":0.26273169166665866},{"name":"F#3","midi":54,"time":687.778328000023,"velocity":0.6299212598425197,"duration":0.26273169166665866},{"name":"F#2","midi":42,"time":688.056106000023,"velocity":0.6299212598425197,"duration":0.26273169166665866},{"name":"F#3","midi":54,"time":688.056106000023,"velocity":0.6299212598425197,"duration":0.26273169166665866},{"name":"C2","midi":36,"time":688.333884000023,"velocity":0.6299212598425197,"duration":0.2766205916667559},{"name":"G2","midi":43,"time":688.333884000023,"velocity":0.6299212598425197,"duration":0.2766205916667559},{"name":"C3","midi":48,"time":688.333884000023,"velocity":0.6299212598425197,"duration":0.2766205916667559},{"name":"G3","midi":55,"time":688.333884000023,"velocity":0.6299212598425197,"duration":0.2766205916667559},{"name":"F#2","midi":42,"time":688.8894400000231,"velocity":0.6299212598425197,"duration":0.2766205916666422},{"name":"F#3","midi":54,"time":688.8894400000231,"velocity":0.6299212598425197,"duration":0.2766205916666422},{"name":"G2","midi":43,"time":689.4449960000231,"velocity":0.6299212598425197,"duration":0.26273169166665866},{"name":"G3","midi":55,"time":689.4449960000231,"velocity":0.6299212598425197,"duration":0.26273169166665866},{"name":"G2","midi":43,"time":689.7227740000232,"velocity":0.6299212598425197,"duration":0.13773159166669302},{"name":"G3","midi":55,"time":689.7227740000232,"velocity":0.6299212598425197,"duration":0.13773159166669302},{"name":"F#2","midi":42,"time":690.2783300000232,"velocity":0.6299212598425197,"duration":0.26273169166665866},{"name":"F#3","midi":54,"time":690.2783300000232,"velocity":0.6299212598425197,"duration":0.26273169166665866},{"name":"C2","midi":36,"time":690.5561080000232,"velocity":0.6299212598425197,"duration":0.26273169166677235},{"name":"G2","midi":43,"time":690.5561080000232,"velocity":0.6299212598425197,"duration":0.26273169166677235},{"name":"C3","midi":48,"time":690.5561080000232,"velocity":0.6299212598425197,"duration":0.26273169166677235},{"name":"G3","midi":55,"time":690.5561080000232,"velocity":0.6299212598425197,"duration":0.26273169166677235},{"name":"G2","midi":43,"time":690.8338860000233,"velocity":0.6299212598425197,"duration":0.26273169166665866},{"name":"G3","midi":55,"time":690.8338860000233,"velocity":0.6299212598425197,"duration":0.26273169166665866},{"name":"G2","midi":43,"time":691.1116640000233,"velocity":0.6299212598425197,"duration":0.26273169166665866},{"name":"G3","midi":55,"time":691.1116640000233,"velocity":0.6299212598425197,"duration":0.26273169166665866},{"name":"G2","midi":43,"time":691.3894420000233,"velocity":0.6299212598425197,"duration":0.26273169166665866},{"name":"G3","midi":55,"time":691.3894420000233,"velocity":0.6299212598425197,"duration":0.26273169166665866},{"name":"C2","midi":36,"time":691.6672200000233,"velocity":0.6299212598425197,"duration":0.26273169166665866},{"name":"G2","midi":43,"time":691.6672200000233,"velocity":0.6299212598425197,"duration":0.26273169166665866},{"name":"C3","midi":48,"time":691.6672200000233,"velocity":0.6299212598425197,"duration":0.26273169166665866},{"name":"G3","midi":55,"time":691.6672200000233,"velocity":0.6299212598425197,"duration":0.26273169166665866},{"name":"G2","midi":43,"time":691.9449980000234,"velocity":0.6299212598425197,"duration":0.26273169166665866},{"name":"G3","midi":55,"time":691.9449980000234,"velocity":0.6299212598425197,"duration":0.26273169166665866},{"name":"F#2","midi":42,"time":692.2227760000234,"velocity":0.6299212598425197,"duration":0.26273169166665866},{"name":"F#3","midi":54,"time":692.2227760000234,"velocity":0.6299212598425197,"duration":0.26273169166665866},{"name":"F#2","midi":42,"time":692.5005540000234,"velocity":0.6299212598425197,"duration":0.26273169166665866},{"name":"F#3","midi":54,"time":692.5005540000234,"velocity":0.6299212598425197,"duration":0.26273169166665866},{"name":"C2","midi":36,"time":692.7783320000234,"velocity":0.6299212598425197,"duration":0.2766205916667559},{"name":"G2","midi":43,"time":692.7783320000234,"velocity":0.6299212598425197,"duration":0.2766205916667559},{"name":"C3","midi":48,"time":692.7783320000234,"velocity":0.6299212598425197,"duration":0.2766205916667559},{"name":"G3","midi":55,"time":692.7783320000234,"velocity":0.6299212598425197,"duration":0.2766205916667559},{"name":"F#2","midi":42,"time":693.3338880000235,"velocity":0.6299212598425197,"duration":0.2766205916666422},{"name":"F#3","midi":54,"time":693.3338880000235,"velocity":0.6299212598425197,"duration":0.2766205916666422},{"name":"G2","midi":43,"time":693.8894440000236,"velocity":0.6299212598425197,"duration":0.26273169166665866},{"name":"G3","midi":55,"time":693.8894440000236,"velocity":0.6299212598425197,"duration":0.26273169166665866},{"name":"G2","midi":43,"time":694.1672220000236,"velocity":0.6299212598425197,"duration":0.13773159166669302},{"name":"G3","midi":55,"time":694.1672220000236,"velocity":0.6299212598425197,"duration":0.13773159166669302},{"name":"F#2","midi":42,"time":694.7227780000236,"velocity":0.6299212598425197,"duration":0.26273169166665866},{"name":"F#3","midi":54,"time":694.7227780000236,"velocity":0.6299212598425197,"duration":0.26273169166665866},{"name":"C2","midi":36,"time":695.0005560000236,"velocity":0.6299212598425197,"duration":0.26273169166677235},{"name":"G2","midi":43,"time":695.0005560000236,"velocity":0.6299212598425197,"duration":0.26273169166677235},{"name":"C3","midi":48,"time":695.0005560000236,"velocity":0.6299212598425197,"duration":0.26273169166677235},{"name":"G3","midi":55,"time":695.0005560000236,"velocity":0.6299212598425197,"duration":0.26273169166677235},{"name":"G2","midi":43,"time":695.2783340000237,"velocity":0.6299212598425197,"duration":0.26273169166665866},{"name":"G3","midi":55,"time":695.2783340000237,"velocity":0.6299212598425197,"duration":0.26273169166665866},{"name":"G2","midi":43,"time":695.5561120000237,"velocity":0.6299212598425197,"duration":0.26273169166665866},{"name":"G3","midi":55,"time":695.5561120000237,"velocity":0.6299212598425197,"duration":0.26273169166665866},{"name":"G2","midi":43,"time":695.8338900000238,"velocity":0.6299212598425197,"duration":0.26273169166665866},{"name":"G3","midi":55,"time":695.8338900000238,"velocity":0.6299212598425197,"duration":0.26273169166665866},{"name":"C2","midi":36,"time":696.1116680000238,"velocity":0.6299212598425197,"duration":0.26273169166665866},{"name":"G2","midi":43,"time":696.1116680000238,"velocity":0.6299212598425197,"duration":0.26273169166665866},{"name":"C3","midi":48,"time":696.1116680000238,"velocity":0.6299212598425197,"duration":0.26273169166665866},{"name":"G3","midi":55,"time":696.1116680000238,"velocity":0.6299212598425197,"duration":0.26273169166665866},{"name":"G2","midi":43,"time":696.3894460000238,"velocity":0.6299212598425197,"duration":0.26273169166665866},{"name":"G3","midi":55,"time":696.3894460000238,"velocity":0.6299212598425197,"duration":0.26273169166665866},{"name":"F#2","midi":42,"time":696.6672240000238,"velocity":0.6299212598425197,"duration":0.26273169166665866},{"name":"F#3","midi":54,"time":696.6672240000238,"velocity":0.6299212598425197,"duration":0.26273169166665866},{"name":"F#2","midi":42,"time":696.9450020000238,"velocity":0.6299212598425197,"duration":0.26273169166665866},{"name":"F#3","midi":54,"time":696.9450020000238,"velocity":0.6299212598425197,"duration":0.26273169166665866},{"name":"C2","midi":36,"time":697.2227800000238,"velocity":0.6299212598425197,"duration":0.2766205916667559},{"name":"G2","midi":43,"time":697.2227800000238,"velocity":0.6299212598425197,"duration":0.2766205916667559},{"name":"C3","midi":48,"time":697.2227800000238,"velocity":0.6299212598425197,"duration":0.2766205916667559},{"name":"G3","midi":55,"time":697.2227800000238,"velocity":0.6299212598425197,"duration":0.2766205916667559},{"name":"F#2","midi":42,"time":697.778336000024,"velocity":0.6299212598425197,"duration":0.2766205916666422},{"name":"F#3","midi":54,"time":697.778336000024,"velocity":0.6299212598425197,"duration":0.2766205916666422},{"name":"G2","midi":43,"time":698.333892000024,"velocity":0.6299212598425197,"duration":0.26273169166665866},{"name":"G3","midi":55,"time":698.333892000024,"velocity":0.6299212598425197,"duration":0.26273169166665866},{"name":"G2","midi":43,"time":698.611670000024,"velocity":0.6299212598425197,"duration":0.13773159166669302},{"name":"G3","midi":55,"time":698.611670000024,"velocity":0.6299212598425197,"duration":0.13773159166669302},{"name":"F#2","midi":42,"time":699.167226000024,"velocity":0.6299212598425197,"duration":0.26273169166665866},{"name":"F#3","midi":54,"time":699.167226000024,"velocity":0.6299212598425197,"duration":0.26273169166665866},{"name":"C2","midi":36,"time":699.445004000024,"velocity":0.6299212598425197,"duration":0.26273169166677235},{"name":"G2","midi":43,"time":699.445004000024,"velocity":0.6299212598425197,"duration":0.26273169166677235},{"name":"C3","midi":48,"time":699.445004000024,"velocity":0.6299212598425197,"duration":0.26273169166677235},{"name":"G3","midi":55,"time":699.445004000024,"velocity":0.6299212598425197,"duration":0.26273169166677235},{"name":"G2","midi":43,"time":699.7227820000242,"velocity":0.6299212598425197,"duration":0.26273169166665866},{"name":"G3","midi":55,"time":699.7227820000242,"velocity":0.6299212598425197,"duration":0.26273169166665866},{"name":"G2","midi":43,"time":700.0005600000242,"velocity":0.6299212598425197,"duration":0.26273169166665866},{"name":"G3","midi":55,"time":700.0005600000242,"velocity":0.6299212598425197,"duration":0.26273169166665866},{"name":"G2","midi":43,"time":700.2783380000242,"velocity":0.6299212598425197,"duration":0.26273169166665866},{"name":"G3","midi":55,"time":700.2783380000242,"velocity":0.6299212598425197,"duration":0.26273169166665866},{"name":"C2","midi":36,"time":700.5561160000242,"velocity":0.6299212598425197,"duration":0.26273169166665866},{"name":"G2","midi":43,"time":700.5561160000242,"velocity":0.6299212598425197,"duration":0.26273169166665866},{"name":"C3","midi":48,"time":700.5561160000242,"velocity":0.6299212598425197,"duration":0.26273169166665866},{"name":"G3","midi":55,"time":700.5561160000242,"velocity":0.6299212598425197,"duration":0.26273169166665866},{"name":"G2","midi":43,"time":700.8338940000242,"velocity":0.6299212598425197,"duration":0.26273169166665866},{"name":"G3","midi":55,"time":700.8338940000242,"velocity":0.6299212598425197,"duration":0.26273169166665866},{"name":"F#2","midi":42,"time":701.1116720000242,"velocity":0.6299212598425197,"duration":0.26273169166665866},{"name":"F#3","midi":54,"time":701.1116720000242,"velocity":0.6299212598425197,"duration":0.26273169166665866},{"name":"F#2","midi":42,"time":701.3894500000242,"velocity":0.6299212598425197,"duration":0.26273169166665866},{"name":"F#3","midi":54,"time":701.3894500000242,"velocity":0.6299212598425197,"duration":0.26273169166665866},{"name":"D#3","midi":51,"time":706.1116760000243,"velocity":0.8818897637795275,"duration":0.13078714166670125},{"name":"D3","midi":50,"time":706.2505650000244,"velocity":0.8818897637795275,"duration":0.13078714166670125},{"name":"C3","midi":48,"time":706.3894540000244,"velocity":0.8818897637795275,"duration":0.13078714166670125},{"name":"B2","midi":47,"time":706.5283430000245,"velocity":0.8818897637795275,"duration":0.13078714166670125},{"name":"C3","midi":48,"time":706.6672320000246,"velocity":0.8818897637795275,"duration":0.13078714166670125},{"name":"D3","midi":50,"time":706.8061210000246,"velocity":0.8818897637795275,"duration":0.13078714166670125},{"name":"D#3","midi":51,"time":706.9450100000247,"velocity":0.8818897637795275,"duration":0.13078714166670125},{"name":"G3","midi":55,"time":707.0838990000248,"velocity":0.8818897637795275,"duration":0.13078714166670125},{"name":"D4","midi":62,"time":707.2227880000248,"velocity":0.8818897637795275,"duration":0.13078714166670125},{"name":"C4","midi":60,"time":707.3616770000249,"velocity":0.8818897637795275,"duration":0.13078714166670125},{"name":"B3","midi":59,"time":707.500566000025,"velocity":0.8818897637795275,"duration":0.13078714166670125},{"name":"C4","midi":60,"time":707.639455000025,"velocity":0.8818897637795275,"duration":0.13078714166670125},{"name":"D4","midi":62,"time":707.7783440000251,"velocity":0.8818897637795275,"duration":0.13078714166670125},{"name":"C4","midi":60,"time":707.9172330000251,"velocity":0.8818897637795275,"duration":0.13078714166670125},{"name":"B3","midi":59,"time":708.0561220000252,"velocity":0.8818897637795275,"duration":0.13078714166670125},{"name":"C4","midi":60,"time":708.1950110000253,"velocity":0.8818897637795275,"duration":0.13078714166670125},{"name":"D#4","midi":63,"time":708.3339000000253,"velocity":0.8818897637795275,"duration":0.13078714166670125},{"name":"G4","midi":67,"time":708.4727890000254,"velocity":0.8818897637795275,"duration":0.13078714166670125},{"name":"C4","midi":60,"time":708.6116780000254,"velocity":0.8818897637795275,"duration":0.13078714166670125},{"name":"G4","midi":67,"time":708.7505670000255,"velocity":0.8818897637795275,"duration":0.13078714166670125},{"name":"A#3","midi":58,"time":708.8894560000256,"velocity":0.8818897637795275,"duration":0.13078714166670125},{"name":"G4","midi":67,"time":709.0283450000256,"velocity":0.8818897637795275,"duration":0.13078714166670125},{"name":"G#3","midi":56,"time":709.1672340000257,"velocity":0.8818897637795275,"duration":0.13078714166670125},{"name":"G4","midi":67,"time":709.3061230000258,"velocity":0.8818897637795275,"duration":0.13078714166670125},{"name":"G3","midi":55,"time":709.4450120000258,"velocity":0.8818897637795275,"duration":0.13078714166670125},{"name":"G4","midi":67,"time":709.5839010000259,"velocity":0.8818897637795275,"duration":0.13078714166670125},{"name":"F4","midi":65,"time":709.722790000026,"velocity":0.8818897637795275,"duration":0.13078714166670125},{"name":"D#4","midi":63,"time":709.861679000026,"velocity":0.8818897637795275,"duration":0.13078714166670125},{"name":"D4","midi":62,"time":710.0005680000261,"velocity":0.8818897637795275,"duration":0.13078714166670125},{"name":"C4","midi":60,"time":710.1394570000261,"velocity":0.8818897637795275,"duration":0.13078714166670125},{"name":"G3","midi":55,"time":710.2783460000262,"velocity":0.8818897637795275,"duration":0.13078714166670125},{"name":"B3","midi":59,"time":710.4172350000263,"velocity":0.8818897637795275,"duration":0.13078714166670125},{"name":"D#4","midi":63,"time":710.5561240000263,"velocity":0.8818897637795275,"duration":0.13078714166670125},{"name":"G3","midi":55,"time":710.6950130000264,"velocity":0.8818897637795275,"duration":0.13078714166670125},{"name":"D4","midi":62,"time":710.8339020000265,"velocity":0.8818897637795275,"duration":0.13078714166670125},{"name":"F3","midi":53,"time":710.9727910000265,"velocity":0.8818897637795275,"duration":0.13078714166670125},{"name":"B3","midi":59,"time":711.1116800000266,"velocity":0.8818897637795275,"duration":0.13078714166670125},{"name":"D#3","midi":51,"time":711.2505690000266,"velocity":0.8818897637795275,"duration":0.13078714166670125},{"name":"A3","midi":57,"time":711.3894580000267,"velocity":0.8818897637795275,"duration":0.13078714166670125},{"name":"F3","midi":53,"time":711.5283470000268,"velocity":0.8818897637795275,"duration":0.13078714166670125},{"name":"G3","midi":55,"time":711.6672360000268,"velocity":0.8818897637795275,"duration":0.13078714166670125},{"name":"D3","midi":50,"time":711.8061250000269,"velocity":0.8818897637795275,"duration":0.13078714166670125},{"name":"C3","midi":48,"time":711.945014000027,"velocity":0.8818897637795275,"duration":0.13078714166670125},{"name":"B2","midi":47,"time":712.083903000027,"velocity":0.8818897637795275,"duration":0.13078714166670125},{"name":"C3","midi":48,"time":712.2227920000271,"velocity":0.8818897637795275,"duration":0.13078714166670125},{"name":"D3","midi":50,"time":712.3616810000271,"velocity":0.8818897637795275,"duration":0.13078714166670125},{"name":"D#3","midi":51,"time":712.5005700000272,"velocity":0.8818897637795275,"duration":0.13078714166670125},{"name":"F3","midi":53,"time":712.6394590000273,"velocity":0.8818897637795275,"duration":0.13078714166670125},{"name":"G3","midi":55,"time":712.7783480000273,"velocity":0.8818897637795275,"duration":0.13078714166670125},{"name":"G4","midi":67,"time":712.9172370000274,"velocity":0.8818897637795275,"duration":0.13078714166670125},{"name":"F#3","midi":54,"time":713.0561260000275,"velocity":0.8818897637795275,"duration":0.13078714166670125},{"name":"G4","midi":67,"time":713.1950150000275,"velocity":0.8818897637795275,"duration":0.13078714166670125},{"name":"F3","midi":53,"time":713.3339040000276,"velocity":0.8818897637795275,"duration":0.13078714166670125},{"name":"G4","midi":67,"time":713.4727930000277,"velocity":0.8818897637795275,"duration":0.13078714166670125},{"name":"D#3","midi":51,"time":713.6116820000277,"velocity":0.8818897637795275,"duration":0.13078714166670125},{"name":"G4","midi":67,"time":713.7505710000278,"velocity":0.8818897637795275,"duration":0.13078714166670125},{"name":"D3","midi":50,"time":713.8894600000278,"velocity":0.8818897637795275,"duration":0.13078714166670125},{"name":"G4","midi":67,"time":714.0283490000279,"velocity":0.8818897637795275,"duration":0.13078714166670125},{"name":"C3","midi":48,"time":714.167238000028,"velocity":0.8818897637795275,"duration":0.13078714166670125},{"name":"G4","midi":67,"time":714.306127000028,"velocity":0.8818897637795275,"duration":0.13078714166670125},{"name":"G2","midi":43,"time":714.4450160000281,"velocity":0.8818897637795275,"duration":0.13078714166670125},{"name":"G4","midi":67,"time":714.5839050000282,"velocity":0.8818897637795275,"duration":0.13078714166670125},{"name":"G2","midi":43,"time":714.7227940000282,"velocity":0.8818897637795275,"duration":0.13078714166670125},{"name":"G4","midi":67,"time":714.8616830000283,"velocity":0.8818897637795275,"duration":0.13078714166670125},{"name":"C3","midi":48,"time":719.4450200000283,"velocity":0.8818897637795275,"duration":0.13078714166670125},{"name":"C4","midi":60,"time":719.5839090000284,"velocity":0.8818897637795275,"duration":0.13078714166670125},{"name":"D#4","midi":63,"time":719.7227980000284,"velocity":0.8818897637795275,"duration":0.13078714166670125},{"name":"C4","midi":60,"time":719.8616870000285,"velocity":0.8818897637795275,"duration":0.13078714166670125},{"name":"C3","midi":48,"time":720.0005760000286,"velocity":0.8818897637795275,"duration":0.13078714166670125},{"name":"C3","midi":48,"time":720.4172430000286,"velocity":0.8818897637795275,"duration":0.13078714166670125},{"name":"C3","midi":48,"time":720.8339100000287,"velocity":0.8818897637795275,"duration":0.13078714166670125},{"name":"C3","midi":48,"time":721.2505770000288,"velocity":0.8818897637795275,"duration":0.13078714166670125},{"name":"C3","midi":48,"time":721.6672440000289,"velocity":0.8818897637795275,"duration":0.13078714166670125},{"name":"G1","midi":31,"time":723.611690000029,"velocity":0.6299212598425197,"duration":0.5266207916666872},{"name":"G2","midi":43,"time":723.611690000029,"velocity":0.6299212598425197,"duration":0.5266207916666872},{"name":"G1","midi":31,"time":724.722802000029,"velocity":0.6771653543307087,"duration":0.5266207916666872},{"name":"G2","midi":43,"time":724.722802000029,"velocity":0.6771653543307087,"duration":0.5266207916666872},{"name":"G1","midi":31,"time":725.833914000029,"velocity":0.7401574803149606,"duration":0.5266207916668009},{"name":"G2","midi":43,"time":725.833914000029,"velocity":0.7401574803149606,"duration":0.5266207916668009},{"name":"G1","midi":31,"time":726.9450260000292,"velocity":0.7559055118110236,"duration":0.5266207916666872},{"name":"G2","midi":43,"time":726.9450260000292,"velocity":0.7559055118110236,"duration":0.5266207916666872},{"name":"C2","midi":36,"time":728.6116940000293,"velocity":0.6299212598425197,"duration":0.26273169166665866},{"name":"C3","midi":48,"time":728.6116940000293,"velocity":0.6299212598425197,"duration":0.26273169166665866},{"name":"C2","midi":36,"time":729.1672500000293,"velocity":0.6299212598425197,"duration":0.26273169166665866},{"name":"C3","midi":48,"time":729.1672500000293,"velocity":0.6299212598425197,"duration":0.26273169166665866},{"name":"C2","midi":36,"time":729.7228060000293,"velocity":0.6299212598425197,"duration":0.26273169166665866},{"name":"C3","midi":48,"time":729.7228060000293,"velocity":0.6299212598425197,"duration":0.26273169166665866},{"name":"C2","midi":36,"time":730.2783620000293,"velocity":0.6299212598425197,"duration":0.26273169166665866},{"name":"C3","midi":48,"time":730.2783620000293,"velocity":0.6299212598425197,"duration":0.26273169166665866},{"name":"C2","midi":36,"time":730.8339180000294,"velocity":0.6299212598425197,"duration":0.26273169166665866},{"name":"C3","midi":48,"time":730.8339180000294,"velocity":0.6299212598425197,"duration":0.26273169166665866},{"name":"C2","midi":36,"time":731.3894740000294,"velocity":0.6299212598425197,"duration":0.26273169166665866},{"name":"C3","midi":48,"time":731.3894740000294,"velocity":0.6299212598425197,"duration":0.26273169166665866},{"name":"C2","midi":36,"time":731.9450300000294,"velocity":0.6299212598425197,"duration":0.26273169166665866},{"name":"C3","midi":48,"time":731.9450300000294,"velocity":0.6299212598425197,"duration":0.26273169166665866},{"name":"C2","midi":36,"time":732.5005860000294,"velocity":0.6299212598425197,"duration":0.26273169166665866},{"name":"C3","midi":48,"time":732.5005860000294,"velocity":0.6299212598425197,"duration":0.26273169166665866},{"name":"C2","midi":36,"time":733.0561420000295,"velocity":0.6299212598425197,"duration":0.26273169166665866},{"name":"C3","midi":48,"time":733.0561420000295,"velocity":0.6299212598425197,"duration":0.26273169166665866},{"name":"C2","midi":36,"time":733.6116980000295,"velocity":0.6299212598425197,"duration":0.26273169166665866},{"name":"C3","midi":48,"time":733.6116980000295,"velocity":0.6299212598425197,"duration":0.26273169166665866},{"name":"C2","midi":36,"time":734.1672540000295,"velocity":0.6299212598425197,"duration":0.26273169166665866},{"name":"C3","midi":48,"time":734.1672540000295,"velocity":0.6299212598425197,"duration":0.26273169166665866},{"name":"C2","midi":36,"time":734.7228100000295,"velocity":0.6299212598425197,"duration":0.26273169166665866},{"name":"C3","midi":48,"time":734.7228100000295,"velocity":0.6299212598425197,"duration":0.26273169166665866},{"name":"C2","midi":36,"time":735.2783660000296,"velocity":0.6299212598425197,"duration":0.26273169166665866},{"name":"C3","midi":48,"time":735.2783660000296,"velocity":0.6299212598425197,"duration":0.26273169166665866},{"name":"C2","midi":36,"time":735.8339220000296,"velocity":0.6299212598425197,"duration":0.26273169166665866},{"name":"C3","midi":48,"time":735.8339220000296,"velocity":0.6299212598425197,"duration":0.26273169166665866},{"name":"C2","midi":36,"time":736.3894780000296,"velocity":0.6299212598425197,"duration":0.26273169166665866},{"name":"C3","midi":48,"time":736.3894780000296,"velocity":0.6299212598425197,"duration":0.26273169166665866},{"name":"C2","midi":36,"time":736.9450340000296,"velocity":0.6299212598425197,"duration":0.26273169166665866},{"name":"C3","midi":48,"time":736.9450340000296,"velocity":0.6299212598425197,"duration":0.26273169166665866},{"name":"C2","midi":36,"time":737.5005900000297,"velocity":0.6299212598425197,"duration":0.26273169166665866},{"name":"C3","midi":48,"time":737.5005900000297,"velocity":0.6299212598425197,"duration":0.26273169166665866},{"name":"C2","midi":36,"time":738.0561460000297,"velocity":0.6299212598425197,"duration":0.26273169166665866},{"name":"C3","midi":48,"time":738.0561460000297,"velocity":0.6299212598425197,"duration":0.26273169166665866},{"name":"C2","midi":36,"time":738.6117020000297,"velocity":0.6299212598425197,"duration":0.26273169166665866},{"name":"C3","midi":48,"time":738.6117020000297,"velocity":0.6299212598425197,"duration":0.26273169166665866},{"name":"C2","midi":36,"time":739.1672580000297,"velocity":0.6299212598425197,"duration":0.26273169166665866},{"name":"C3","midi":48,"time":739.1672580000297,"velocity":0.6299212598425197,"duration":0.26273169166665866},{"name":"C2","midi":36,"time":739.7228140000298,"velocity":0.6299212598425197,"duration":0.26273169166665866},{"name":"C3","midi":48,"time":739.7228140000298,"velocity":0.6299212598425197,"duration":0.26273169166665866},{"name":"C2","midi":36,"time":740.2783700000298,"velocity":0.6299212598425197,"duration":0.26273169166665866},{"name":"C3","midi":48,"time":740.2783700000298,"velocity":0.6299212598425197,"duration":0.26273169166665866},{"name":"C2","midi":36,"time":740.8339260000298,"velocity":0.6299212598425197,"duration":0.26273169166665866},{"name":"C3","midi":48,"time":740.8339260000298,"velocity":0.6299212598425197,"duration":0.26273169166665866},{"name":"C2","midi":36,"time":741.3894820000298,"velocity":0.6299212598425197,"duration":0.26273169166665866},{"name":"C3","midi":48,"time":741.3894820000298,"velocity":0.6299212598425197,"duration":0.26273169166665866},{"name":"C2","midi":36,"time":741.9450380000299,"velocity":0.6299212598425197,"duration":0.26273169166665866},{"name":"C3","midi":48,"time":741.9450380000299,"velocity":0.6299212598425197,"duration":0.26273169166665866},{"name":"C2","midi":36,"time":742.5005940000299,"velocity":0.6299212598425197,"duration":0.26273169166665866},{"name":"C3","midi":48,"time":742.5005940000299,"velocity":0.6299212598425197,"duration":0.26273169166665866},{"name":"C2","midi":36,"time":743.0561500000299,"velocity":0.6299212598425197,"duration":0.26273169166665866},{"name":"C3","midi":48,"time":743.0561500000299,"velocity":0.6299212598425197,"duration":0.26273169166665866},{"name":"C2","midi":36,"time":743.6117060000299,"velocity":0.6299212598425197,"duration":0.26273169166665866},{"name":"C3","midi":48,"time":743.6117060000299,"velocity":0.6299212598425197,"duration":0.26273169166665866},{"name":"C2","midi":36,"time":744.16726200003,"velocity":0.6299212598425197,"duration":0.26273169166665866},{"name":"C3","midi":48,"time":744.16726200003,"velocity":0.6299212598425197,"duration":0.26273169166665866},{"name":"C2","midi":36,"time":744.72281800003,"velocity":0.6299212598425197,"duration":0.26273169166665866},{"name":"C3","midi":48,"time":744.72281800003,"velocity":0.6299212598425197,"duration":0.26273169166665866},{"name":"C2","midi":36,"time":745.27837400003,"velocity":0.6299212598425197,"duration":0.26273169166665866},{"name":"C3","midi":48,"time":745.27837400003,"velocity":0.6299212598425197,"duration":0.26273169166665866},{"name":"C2","midi":36,"time":745.83393000003,"velocity":0.6299212598425197,"duration":0.26273169166665866},{"name":"C3","midi":48,"time":745.83393000003,"velocity":0.6299212598425197,"duration":0.26273169166665866},{"name":"C2","midi":36,"time":746.38948600003,"velocity":0.6299212598425197,"duration":0.26273169166665866},{"name":"C3","midi":48,"time":746.38948600003,"velocity":0.6299212598425197,"duration":0.26273169166665866},{"name":"C2","midi":36,"time":746.9450420000301,"velocity":0.6299212598425197,"duration":0.26273169166665866},{"name":"C3","midi":48,"time":746.9450420000301,"velocity":0.6299212598425197,"duration":0.26273169166665866},{"name":"C2","midi":36,"time":747.5005980000301,"velocity":0.6299212598425197,"duration":0.26273169166665866},{"name":"C3","midi":48,"time":747.5005980000301,"velocity":0.6299212598425197,"duration":0.26273169166665866},{"name":"C2","midi":36,"time":748.0561540000301,"velocity":0.6299212598425197,"duration":0.26273169166665866},{"name":"C3","midi":48,"time":748.0561540000301,"velocity":0.6299212598425197,"duration":0.26273169166665866},{"name":"C2","midi":36,"time":748.6117100000301,"velocity":0.6299212598425197,"duration":0.26273169166665866},{"name":"C3","midi":48,"time":748.6117100000301,"velocity":0.6299212598425197,"duration":0.26273169166665866},{"name":"C2","midi":36,"time":749.1672660000302,"velocity":0.6299212598425197,"duration":0.26273169166665866},{"name":"C3","midi":48,"time":749.1672660000302,"velocity":0.6299212598425197,"duration":0.26273169166665866},{"name":"C2","midi":36,"time":749.7228220000302,"velocity":0.6299212598425197,"duration":0.26273169166665866},{"name":"C3","midi":48,"time":749.7228220000302,"velocity":0.6299212598425197,"duration":0.26273169166665866},{"name":"C2","midi":36,"time":750.2783780000302,"velocity":0.6299212598425197,"duration":0.26273169166665866},{"name":"C3","midi":48,"time":750.2783780000302,"velocity":0.6299212598425197,"duration":0.26273169166665866},{"name":"C2","midi":36,"time":750.8339340000302,"velocity":0.6299212598425197,"duration":0.26273169166665866},{"name":"C3","midi":48,"time":750.8339340000302,"velocity":0.6299212598425197,"duration":0.26273169166665866},{"name":"C2","midi":36,"time":751.3894900000303,"velocity":0.6299212598425197,"duration":0.26273169166665866},{"name":"C3","midi":48,"time":751.3894900000303,"velocity":0.6299212598425197,"duration":0.26273169166665866},{"name":"C2","midi":36,"time":751.9450460000303,"velocity":0.6299212598425197,"duration":0.26273169166665866},{"name":"C3","midi":48,"time":751.9450460000303,"velocity":0.6299212598425197,"duration":0.26273169166665866},{"name":"C2","midi":36,"time":752.5006020000303,"velocity":0.6299212598425197,"duration":0.26273169166665866},{"name":"C3","midi":48,"time":752.5006020000303,"velocity":0.6299212598425197,"duration":0.26273169166665866},{"name":"C2","midi":36,"time":753.0561580000303,"velocity":0.6299212598425197,"duration":0.26273169166665866},{"name":"C3","midi":48,"time":753.0561580000303,"velocity":0.6299212598425197,"duration":0.26273169166665866},{"name":"C2","midi":36,"time":753.6117140000304,"velocity":0.6299212598425197,"duration":0.26273169166665866},{"name":"C3","midi":48,"time":753.6117140000304,"velocity":0.6299212598425197,"duration":0.26273169166665866},{"name":"C2","midi":36,"time":754.1672700000304,"velocity":0.6299212598425197,"duration":0.26273169166665866},{"name":"C3","midi":48,"time":754.1672700000304,"velocity":0.6299212598425197,"duration":0.26273169166665866},{"name":"C2","midi":36,"time":754.7228260000304,"velocity":0.6299212598425197,"duration":0.26273169166665866},{"name":"C3","midi":48,"time":754.7228260000304,"velocity":0.6299212598425197,"duration":0.26273169166665866},{"name":"C2","midi":36,"time":755.2783820000304,"velocity":0.6299212598425197,"duration":0.26273169166665866},{"name":"C3","midi":48,"time":755.2783820000304,"velocity":0.6299212598425197,"duration":0.26273169166665866},{"name":"C2","midi":36,"time":755.8339380000305,"velocity":0.6299212598425197,"duration":0.26273169166665866},{"name":"C3","midi":48,"time":755.8339380000305,"velocity":0.6299212598425197,"duration":0.26273169166665866},{"name":"C2","midi":36,"time":756.3894940000305,"velocity":0.6299212598425197,"duration":0.26273169166665866},{"name":"C3","midi":48,"time":756.3894940000305,"velocity":0.6299212598425197,"duration":0.26273169166665866},{"name":"C2","midi":36,"time":756.9450500000305,"velocity":0.6299212598425197,"duration":0.26273169166665866},{"name":"C3","midi":48,"time":756.9450500000305,"velocity":0.6299212598425197,"duration":0.26273169166665866},{"name":"C2","midi":36,"time":757.5006060000305,"velocity":0.6299212598425197,"duration":0.26273169166665866},{"name":"C3","midi":48,"time":757.5006060000305,"velocity":0.6299212598425197,"duration":0.26273169166665866},{"name":"C2","midi":36,"time":758.0561620000306,"velocity":0.6299212598425197,"duration":0.26273169166665866},{"name":"C3","midi":48,"time":758.0561620000306,"velocity":0.6299212598425197,"duration":0.26273169166665866},{"name":"C2","midi":36,"time":758.6117180000306,"velocity":0.6299212598425197,"duration":0.26273169166665866},{"name":"C3","midi":48,"time":758.6117180000306,"velocity":0.6299212598425197,"duration":0.26273169166665866},{"name":"C2","midi":36,"time":759.1672740000306,"velocity":0.6299212598425197,"duration":0.26273169166665866},{"name":"C3","midi":48,"time":759.1672740000306,"velocity":0.6299212598425197,"duration":0.26273169166665866},{"name":"C2","midi":36,"time":759.7228300000306,"velocity":0.6299212598425197,"duration":0.26273169166665866},{"name":"C3","midi":48,"time":759.7228300000306,"velocity":0.6299212598425197,"duration":0.26273169166665866},{"name":"C2","midi":36,"time":760.2783860000307,"velocity":0.6299212598425197,"duration":0.26273169166665866},{"name":"C3","midi":48,"time":760.2783860000307,"velocity":0.6299212598425197,"duration":0.26273169166665866},{"name":"C2","midi":36,"time":760.8339420000307,"velocity":0.6299212598425197,"duration":0.26273169166665866},{"name":"C3","midi":48,"time":760.8339420000307,"velocity":0.6299212598425197,"duration":0.26273169166665866},{"name":"C2","midi":36,"time":761.3894980000307,"velocity":0.6299212598425197,"duration":0.26273169166665866},{"name":"C3","midi":48,"time":761.3894980000307,"velocity":0.6299212598425197,"duration":0.26273169166665866},{"name":"C2","midi":36,"time":761.9450540000307,"velocity":0.6299212598425197,"duration":0.26273169166665866},{"name":"C3","midi":48,"time":761.9450540000307,"velocity":0.6299212598425197,"duration":0.26273169166665866},{"name":"C2","midi":36,"time":762.5006100000307,"velocity":0.6299212598425197,"duration":0.26273169166665866},{"name":"C3","midi":48,"time":762.5006100000307,"velocity":0.6299212598425197,"duration":0.26273169166665866},{"name":"C2","midi":36,"time":763.0561660000308,"velocity":0.6299212598425197,"duration":0.26273169166665866},{"name":"C3","midi":48,"time":763.0561660000308,"velocity":0.6299212598425197,"duration":0.26273169166665866},{"name":"C2","midi":36,"time":763.6117220000308,"velocity":0.6299212598425197,"duration":0.26273169166665866},{"name":"C3","midi":48,"time":763.6117220000308,"velocity":0.6299212598425197,"duration":0.26273169166665866},{"name":"F2","midi":41,"time":764.1672780000308,"velocity":0.7559055118110236,"duration":0.26273169166665866},{"name":"F3","midi":53,"time":764.1672780000308,"velocity":0.7559055118110236,"duration":0.26273169166665866},{"name":"F2","midi":41,"time":764.7228340000308,"velocity":0.7559055118110236,"duration":0.26273169166665866},{"name":"F3","midi":53,"time":764.7228340000308,"velocity":0.7559055118110236,"duration":0.26273169166665866},{"name":"F2","midi":41,"time":765.2783900000309,"velocity":0.7559055118110236,"duration":0.26273169166665866},{"name":"F3","midi":53,"time":765.2783900000309,"velocity":0.7559055118110236,"duration":0.26273169166665866},{"name":"F2","midi":41,"time":765.8339460000309,"velocity":0.7559055118110236,"duration":0.26273169166665866},{"name":"F3","midi":53,"time":765.8339460000309,"velocity":0.7559055118110236,"duration":0.26273169166665866},{"name":"G2","midi":43,"time":766.3895020000309,"velocity":0.7559055118110236,"duration":0.26273169166665866},{"name":"G3","midi":55,"time":766.3895020000309,"velocity":0.7559055118110236,"duration":0.26273169166665866},{"name":"G2","midi":43,"time":766.9450580000309,"velocity":0.7559055118110236,"duration":0.26273169166665866},{"name":"G3","midi":55,"time":766.9450580000309,"velocity":0.7559055118110236,"duration":0.26273169166665866},{"name":"G2","midi":43,"time":767.500614000031,"velocity":0.7559055118110236,"duration":0.26273169166665866},{"name":"G3","midi":55,"time":767.500614000031,"velocity":0.7559055118110236,"duration":0.26273169166665866},{"name":"G2","midi":43,"time":768.056170000031,"velocity":0.7559055118110236,"duration":0.26273169166665866},{"name":"G3","midi":55,"time":768.056170000031,"velocity":0.7559055118110236,"duration":0.26273169166665866},{"name":"G#2","midi":44,"time":768.611726000031,"velocity":0.7559055118110236,"duration":0.26273169166665866},{"name":"G#3","midi":56,"time":768.611726000031,"velocity":0.7559055118110236,"duration":0.26273169166665866},{"name":"G#2","midi":44,"time":769.167282000031,"velocity":0.7559055118110236,"duration":0.26273169166665866},{"name":"G#3","midi":56,"time":769.167282000031,"velocity":0.7559055118110236,"duration":0.26273169166665866},{"name":"G#2","midi":44,"time":769.7228380000311,"velocity":0.7559055118110236,"duration":0.26273169166665866},{"name":"G#3","midi":56,"time":769.7228380000311,"velocity":0.7559055118110236,"duration":0.26273169166665866},{"name":"G#2","midi":44,"time":770.2783940000311,"velocity":0.7559055118110236,"duration":0.26273169166665866},{"name":"G#3","midi":56,"time":770.2783940000311,"velocity":0.7559055118110236,"duration":0.26273169166665866},{"name":"G2","midi":43,"time":770.8339500000311,"velocity":0.7559055118110236,"duration":0.26273169166665866},{"name":"G3","midi":55,"time":770.8339500000311,"velocity":0.7559055118110236,"duration":0.26273169166665866},{"name":"G2","midi":43,"time":771.3895060000311,"velocity":0.7559055118110236,"duration":0.26273169166665866},{"name":"G3","midi":55,"time":771.3895060000311,"velocity":0.7559055118110236,"duration":0.26273169166665866},{"name":"G2","midi":43,"time":771.9450620000312,"velocity":0.7559055118110236,"duration":0.26273169166665866},{"name":"G3","midi":55,"time":771.9450620000312,"velocity":0.7559055118110236,"duration":0.26273169166665866},{"name":"G2","midi":43,"time":772.5006180000312,"velocity":0.7559055118110236,"duration":0.26273169166665866},{"name":"G3","midi":55,"time":772.5006180000312,"velocity":0.7559055118110236,"duration":0.26273169166665866},{"name":"F2","midi":41,"time":773.0561740000312,"velocity":0.7559055118110236,"duration":0.26273169166665866},{"name":"F3","midi":53,"time":773.0561740000312,"velocity":0.7559055118110236,"duration":0.26273169166665866},{"name":"F2","midi":41,"time":773.6117300000312,"velocity":0.7559055118110236,"duration":0.26273169166665866},{"name":"F3","midi":53,"time":773.6117300000312,"velocity":0.7559055118110236,"duration":0.26273169166665866},{"name":"F2","midi":41,"time":774.1672860000313,"velocity":0.7559055118110236,"duration":0.26273169166665866},{"name":"F3","midi":53,"time":774.1672860000313,"velocity":0.7559055118110236,"duration":0.26273169166665866},{"name":"F2","midi":41,"time":774.7228420000313,"velocity":0.7559055118110236,"duration":0.26273169166665866},{"name":"F3","midi":53,"time":774.7228420000313,"velocity":0.7559055118110236,"duration":0.26273169166665866},{"name":"G2","midi":43,"time":775.2783980000313,"velocity":0.7559055118110236,"duration":0.26273169166665866},{"name":"G3","midi":55,"time":775.2783980000313,"velocity":0.7559055118110236,"duration":0.26273169166665866},{"name":"G2","midi":43,"time":775.8339540000313,"velocity":0.7559055118110236,"duration":0.26273169166665866},{"name":"G3","midi":55,"time":775.8339540000313,"velocity":0.7559055118110236,"duration":0.26273169166665866},{"name":"G2","midi":43,"time":776.3895100000314,"velocity":0.7559055118110236,"duration":0.26273169166665866},{"name":"G3","midi":55,"time":776.3895100000314,"velocity":0.7559055118110236,"duration":0.26273169166665866},{"name":"G2","midi":43,"time":776.9450660000314,"velocity":0.7559055118110236,"duration":0.26273169166665866},{"name":"G3","midi":55,"time":776.9450660000314,"velocity":0.7559055118110236,"duration":0.26273169166665866},{"name":"G#2","midi":44,"time":777.5006220000314,"velocity":0.7559055118110236,"duration":0.26273169166665866},{"name":"G#3","midi":56,"time":777.5006220000314,"velocity":0.7559055118110236,"duration":0.26273169166665866},{"name":"G#2","midi":44,"time":778.0561780000314,"velocity":0.7559055118110236,"duration":0.26273169166665866},{"name":"G#3","midi":56,"time":778.0561780000314,"velocity":0.7559055118110236,"duration":0.26273169166665866},{"name":"G#2","midi":44,"time":778.6117340000314,"velocity":0.7559055118110236,"duration":0.26273169166665866},{"name":"G#3","midi":56,"time":778.6117340000314,"velocity":0.7559055118110236,"duration":0.26273169166665866},{"name":"G#2","midi":44,"time":779.1672900000315,"velocity":0.7559055118110236,"duration":0.26273169166665866},{"name":"G#3","midi":56,"time":779.1672900000315,"velocity":0.7559055118110236,"duration":0.26273169166665866},{"name":"G2","midi":43,"time":779.7228460000315,"velocity":0.7559055118110236,"duration":0.26273169166665866},{"name":"G3","midi":55,"time":779.7228460000315,"velocity":0.7559055118110236,"duration":0.26273169166665866},{"name":"G2","midi":43,"time":780.2784020000315,"velocity":0.7559055118110236,"duration":0.26273169166665866},{"name":"G3","midi":55,"time":780.2784020000315,"velocity":0.7559055118110236,"duration":0.26273169166665866},{"name":"G2","midi":43,"time":780.8339580000315,"velocity":0.7559055118110236,"duration":0.26273169166665866},{"name":"G3","midi":55,"time":780.8339580000315,"velocity":0.7559055118110236,"duration":0.26273169166665866},{"name":"G2","midi":43,"time":781.3895140000316,"velocity":0.7559055118110236,"duration":0.26273169166665866},{"name":"G3","midi":55,"time":781.3895140000316,"velocity":0.7559055118110236,"duration":0.26273169166665866},{"name":"C2","midi":36,"time":781.9450700000316,"velocity":0.7559055118110236,"duration":0.26273169166665866},{"name":"C3","midi":48,"time":781.9450700000316,"velocity":0.7559055118110236,"duration":0.26273169166665866},{"name":"C2","midi":36,"time":782.5006260000316,"velocity":0.7559055118110236,"duration":0.26273169166665866},{"name":"C3","midi":48,"time":782.5006260000316,"velocity":0.7559055118110236,"duration":0.26273169166665866},{"name":"C2","midi":36,"time":783.0561820000316,"velocity":0.7559055118110236,"duration":0.26273169166665866},{"name":"C3","midi":48,"time":783.0561820000316,"velocity":0.7559055118110236,"duration":0.26273169166665866},{"name":"C2","midi":36,"time":783.6117380000317,"velocity":0.7559055118110236,"duration":0.26273169166665866},{"name":"C3","midi":48,"time":783.6117380000317,"velocity":0.7559055118110236,"duration":0.26273169166665866},{"name":"C2","midi":36,"time":784.1672940000317,"velocity":0.7559055118110236,"duration":0.26273169166665866},{"name":"C3","midi":48,"time":784.1672940000317,"velocity":0.7559055118110236,"duration":0.26273169166665866},{"name":"C2","midi":36,"time":784.7228500000317,"velocity":0.7559055118110236,"duration":0.26273169166665866},{"name":"C3","midi":48,"time":784.7228500000317,"velocity":0.7559055118110236,"duration":0.26273169166665866},{"name":"C2","midi":36,"time":785.2784060000317,"velocity":0.7559055118110236,"duration":0.26273169166665866},{"name":"C3","midi":48,"time":785.2784060000317,"velocity":0.7559055118110236,"duration":0.26273169166665866},{"name":"C2","midi":36,"time":785.8339620000318,"velocity":0.7559055118110236,"duration":0.26273169166665866},{"name":"C3","midi":48,"time":785.8339620000318,"velocity":0.7559055118110236,"duration":0.26273169166665866},{"name":"C2","midi":36,"time":786.3895180000318,"velocity":0.7559055118110236,"duration":0.26273169166665866},{"name":"C3","midi":48,"time":786.3895180000318,"velocity":0.7559055118110236,"duration":0.26273169166665866},{"name":"C2","midi":36,"time":786.9450740000318,"velocity":0.7559055118110236,"duration":0.26273169166665866},{"name":"C3","midi":48,"time":786.9450740000318,"velocity":0.7559055118110236,"duration":0.26273169166665866},{"name":"C2","midi":36,"time":787.5006300000318,"velocity":0.7559055118110236,"duration":0.26273169166665866},{"name":"C3","midi":48,"time":787.5006300000318,"velocity":0.7559055118110236,"duration":0.26273169166665866},{"name":"C2","midi":36,"time":788.0561860000319,"velocity":0.7559055118110236,"duration":0.26273169166665866},{"name":"C3","midi":48,"time":788.0561860000319,"velocity":0.7559055118110236,"duration":0.26273169166665866},{"name":"C2","midi":36,"time":788.6117420000319,"velocity":0.7559055118110236,"duration":0.26273169166665866},{"name":"C3","midi":48,"time":788.6117420000319,"velocity":0.7559055118110236,"duration":0.26273169166665866},{"name":"C2","midi":36,"time":789.1672980000319,"velocity":0.7559055118110236,"duration":0.26273169166665866},{"name":"C3","midi":48,"time":789.1672980000319,"velocity":0.7559055118110236,"duration":0.26273169166665866},{"name":"C2","midi":36,"time":789.7228540000319,"velocity":0.7559055118110236,"duration":0.26273169166665866},{"name":"C3","midi":48,"time":789.7228540000319,"velocity":0.7559055118110236,"duration":0.26273169166665866},{"name":"C2","midi":36,"time":790.278410000032,"velocity":0.7559055118110236,"duration":0.26273169166665866},{"name":"C3","midi":48,"time":790.278410000032,"velocity":0.7559055118110236,"duration":0.26273169166665866},{"name":"C2","midi":36,"time":790.833966000032,"velocity":0.7559055118110236,"duration":0.26273169166665866},{"name":"C3","midi":48,"time":790.833966000032,"velocity":0.7559055118110236,"duration":0.26273169166665866},{"name":"C2","midi":36,"time":791.389522000032,"velocity":0.7559055118110236,"duration":0.26273169166665866},{"name":"C3","midi":48,"time":791.389522000032,"velocity":0.7559055118110236,"duration":0.26273169166665866},{"name":"C2","midi":36,"time":791.945078000032,"velocity":0.7559055118110236,"duration":0.26273169166665866},{"name":"C3","midi":48,"time":791.945078000032,"velocity":0.7559055118110236,"duration":0.26273169166665866},{"name":"C2","midi":36,"time":792.500634000032,"velocity":0.7559055118110236,"duration":0.26273169166665866},{"name":"C3","midi":48,"time":792.500634000032,"velocity":0.7559055118110236,"duration":0.26273169166665866},{"name":"C2","midi":36,"time":793.0561900000321,"velocity":0.7559055118110236,"duration":0.26273169166665866},{"name":"C3","midi":48,"time":793.0561900000321,"velocity":0.7559055118110236,"duration":0.26273169166665866},{"name":"C2","midi":36,"time":793.6117460000321,"velocity":0.7559055118110236,"duration":0.26273169166665866},{"name":"C3","midi":48,"time":793.6117460000321,"velocity":0.7559055118110236,"duration":0.26273169166665866},{"name":"C2","midi":36,"time":794.1673020000321,"velocity":0.7559055118110236,"duration":0.26273169166665866},{"name":"C3","midi":48,"time":794.1673020000321,"velocity":0.7559055118110236,"duration":0.26273169166665866},{"name":"C2","midi":36,"time":794.7228580000321,"velocity":0.7559055118110236,"duration":0.26273169166665866},{"name":"C3","midi":48,"time":794.7228580000321,"velocity":0.7559055118110236,"duration":0.26273169166665866},{"name":"C2","midi":36,"time":795.2784140000322,"velocity":0.7559055118110236,"duration":0.26273169166665866},{"name":"C3","midi":48,"time":795.2784140000322,"velocity":0.7559055118110236,"duration":0.26273169166665866},{"name":"C2","midi":36,"time":795.8339700000322,"velocity":0.7559055118110236,"duration":0.26273169166665866},{"name":"C3","midi":48,"time":795.8339700000322,"velocity":0.7559055118110236,"duration":0.26273169166665866},{"name":"C2","midi":36,"time":796.3895260000322,"velocity":0.7559055118110236,"duration":0.26273169166665866},{"name":"C3","midi":48,"time":796.3895260000322,"velocity":0.7559055118110236,"duration":0.26273169166665866},{"name":"C2","midi":36,"time":796.9450820000322,"velocity":0.7559055118110236,"duration":0.26273169166665866},{"name":"C3","midi":48,"time":796.9450820000322,"velocity":0.7559055118110236,"duration":0.26273169166665866},{"name":"C2","midi":36,"time":797.5006380000323,"velocity":0.7559055118110236,"duration":0.26273169166665866},{"name":"C3","midi":48,"time":797.5006380000323,"velocity":0.7559055118110236,"duration":0.26273169166665866},{"name":"C2","midi":36,"time":798.0561940000323,"velocity":0.7559055118110236,"duration":0.26273169166665866},{"name":"C3","midi":48,"time":798.0561940000323,"velocity":0.7559055118110236,"duration":0.26273169166665866},{"name":"C2","midi":36,"time":798.6117500000323,"velocity":0.7559055118110236,"duration":0.26273169166665866},{"name":"C3","midi":48,"time":798.6117500000323,"velocity":0.7559055118110236,"duration":0.26273169166665866},{"name":"C2","midi":36,"time":799.1673060000323,"velocity":0.7559055118110236,"duration":0.26273169166665866},{"name":"C3","midi":48,"time":799.1673060000323,"velocity":0.7559055118110236,"duration":0.26273169166665866},{"name":"C2","midi":36,"time":799.7228620000324,"velocity":0.7559055118110236,"duration":0.26273169166665866},{"name":"C3","midi":48,"time":799.7228620000324,"velocity":0.7559055118110236,"duration":0.26273169166665866},{"name":"C2","midi":36,"time":800.2784180000324,"velocity":0.7559055118110236,"duration":0.26273169166665866},{"name":"C3","midi":48,"time":800.2784180000324,"velocity":0.7559055118110236,"duration":0.26273169166665866},{"name":"C2","midi":36,"time":800.8339740000324,"velocity":0.7559055118110236,"duration":0.26273169166665866},{"name":"C3","midi":48,"time":800.8339740000324,"velocity":0.7559055118110236,"duration":0.26273169166665866},{"name":"C2","midi":36,"time":801.3895300000324,"velocity":0.7559055118110236,"duration":0.26273169166665866},{"name":"C3","midi":48,"time":801.3895300000324,"velocity":0.7559055118110236,"duration":0.26273169166665866},{"name":"C2","midi":36,"time":801.9450860000325,"velocity":0.7559055118110236,"duration":0.26273169166665866},{"name":"C3","midi":48,"time":801.9450860000325,"velocity":0.7559055118110236,"duration":0.26273169166665866},{"name":"C2","midi":36,"time":802.5006420000325,"velocity":0.7559055118110236,"duration":0.26273169166665866},{"name":"C3","midi":48,"time":802.5006420000325,"velocity":0.7559055118110236,"duration":0.26273169166665866},{"name":"C2","midi":36,"time":803.0561980000325,"velocity":0.7559055118110236,"duration":0.26273169166665866},{"name":"C3","midi":48,"time":803.0561980000325,"velocity":0.7559055118110236,"duration":0.26273169166665866},{"name":"C2","midi":36,"time":803.6117540000325,"velocity":0.7559055118110236,"duration":0.26273169166665866},{"name":"C3","midi":48,"time":803.6117540000325,"velocity":0.7559055118110236,"duration":0.26273169166665866},{"name":"C2","midi":36,"time":804.1673100000326,"velocity":0.7559055118110236,"duration":0.26273169166665866},{"name":"C3","midi":48,"time":804.1673100000326,"velocity":0.7559055118110236,"duration":0.26273169166665866},{"name":"C2","midi":36,"time":804.7228660000326,"velocity":0.7559055118110236,"duration":0.26273169166665866},{"name":"C3","midi":48,"time":804.7228660000326,"velocity":0.7559055118110236,"duration":0.26273169166665866},{"name":"C2","midi":36,"time":805.2784220000326,"velocity":0.7559055118110236,"duration":0.26273169166665866},{"name":"C3","midi":48,"time":805.2784220000326,"velocity":0.7559055118110236,"duration":0.26273169166665866},{"name":"C2","midi":36,"time":805.8339780000326,"velocity":0.7559055118110236,"duration":0.26273169166665866},{"name":"C3","midi":48,"time":805.8339780000326,"velocity":0.7559055118110236,"duration":0.26273169166665866},{"name":"C2","midi":36,"time":806.3895340000327,"velocity":0.7559055118110236,"duration":0.26273169166665866},{"name":"C3","midi":48,"time":806.3895340000327,"velocity":0.7559055118110236,"duration":0.26273169166665866},{"name":"C2","midi":36,"time":806.9450900000327,"velocity":0.7559055118110236,"duration":0.26273169166665866},{"name":"C3","midi":48,"time":806.9450900000327,"velocity":0.7559055118110236,"duration":0.26273169166665866},{"name":"C2","midi":36,"time":807.5006460000327,"velocity":0.7559055118110236,"duration":0.26273169166665866},{"name":"C3","midi":48,"time":807.5006460000327,"velocity":0.7559055118110236,"duration":0.26273169166665866},{"name":"C2","midi":36,"time":808.0562020000327,"velocity":0.7559055118110236,"duration":0.26273169166665866},{"name":"C3","midi":48,"time":808.0562020000327,"velocity":0.7559055118110236,"duration":0.26273169166665866},{"name":"C2","midi":36,"time":808.6117580000328,"velocity":0.7559055118110236,"duration":0.26273169166665866},{"name":"C3","midi":48,"time":808.6117580000328,"velocity":0.7559055118110236,"duration":0.26273169166665866},{"name":"C2","midi":36,"time":809.1673140000328,"velocity":0.7559055118110236,"duration":0.26273169166665866},{"name":"C3","midi":48,"time":809.1673140000328,"velocity":0.7559055118110236,"duration":0.26273169166665866},{"name":"C2","midi":36,"time":809.7228700000328,"velocity":0.7559055118110236,"duration":0.26273169166665866},{"name":"C3","midi":48,"time":809.7228700000328,"velocity":0.7559055118110236,"duration":0.26273169166665866},{"name":"C2","midi":36,"time":810.2784260000328,"velocity":0.7559055118110236,"duration":0.26273169166665866},{"name":"C3","midi":48,"time":810.2784260000328,"velocity":0.7559055118110236,"duration":0.26273169166665866},{"name":"C2","midi":36,"time":810.8339820000328,"velocity":0.7559055118110236,"duration":0.26273169166665866},{"name":"C3","midi":48,"time":810.8339820000328,"velocity":0.7559055118110236,"duration":0.26273169166665866},{"name":"C2","midi":36,"time":811.3895380000329,"velocity":0.7559055118110236,"duration":0.26273169166665866},{"name":"C3","midi":48,"time":811.3895380000329,"velocity":0.7559055118110236,"duration":0.26273169166665866},{"name":"C2","midi":36,"time":811.9450940000329,"velocity":0.7559055118110236,"duration":0.26273169166665866},{"name":"C3","midi":48,"time":811.9450940000329,"velocity":0.7559055118110236,"duration":0.26273169166665866},{"name":"C2","midi":36,"time":812.5006500000329,"velocity":0.7559055118110236,"duration":0.26273169166665866},{"name":"C3","midi":48,"time":812.5006500000329,"velocity":0.7559055118110236,"duration":0.26273169166665866},{"name":"C2","midi":36,"time":813.056206000033,"velocity":0.7559055118110236,"duration":0.26273169166665866},{"name":"C3","midi":48,"time":813.056206000033,"velocity":0.7559055118110236,"duration":0.26273169166665866},{"name":"C2","midi":36,"time":813.611762000033,"velocity":0.7559055118110236,"duration":0.26273169166665866},{"name":"C3","midi":48,"time":813.611762000033,"velocity":0.7559055118110236,"duration":0.26273169166665866},{"name":"C2","midi":36,"time":814.167318000033,"velocity":0.7559055118110236,"duration":0.26273169166665866},{"name":"C3","midi":48,"time":814.167318000033,"velocity":0.7559055118110236,"duration":0.26273169166665866},{"name":"C2","midi":36,"time":814.722874000033,"velocity":0.7559055118110236,"duration":0.26273169166665866},{"name":"C3","midi":48,"time":814.722874000033,"velocity":0.7559055118110236,"duration":0.26273169166665866},{"name":"C2","midi":36,"time":815.278430000033,"velocity":0.7559055118110236,"duration":0.26273169166665866},{"name":"C3","midi":48,"time":815.278430000033,"velocity":0.7559055118110236,"duration":0.26273169166665866},{"name":"C2","midi":36,"time":815.8339860000331,"velocity":0.7559055118110236,"duration":0.26273169166665866},{"name":"C3","midi":48,"time":815.8339860000331,"velocity":0.7559055118110236,"duration":0.26273169166665866},{"name":"C2","midi":36,"time":816.3895420000331,"velocity":0.7559055118110236,"duration":0.26273169166665866},{"name":"C3","midi":48,"time":816.3895420000331,"velocity":0.7559055118110236,"duration":0.26273169166665866},{"name":"C2","midi":36,"time":816.9450980000331,"velocity":0.7559055118110236,"duration":0.26273169166665866},{"name":"C3","midi":48,"time":816.9450980000331,"velocity":0.7559055118110236,"duration":0.26273169166665866},{"name":"F2","midi":41,"time":817.5006540000331,"velocity":0.7559055118110236,"duration":0.26273169166665866},{"name":"F3","midi":53,"time":817.5006540000331,"velocity":0.7559055118110236,"duration":0.26273169166665866},{"name":"F2","midi":41,"time":818.0562100000332,"velocity":0.7559055118110236,"duration":0.26273169166665866},{"name":"F3","midi":53,"time":818.0562100000332,"velocity":0.7559055118110236,"duration":0.26273169166665866},{"name":"F2","midi":41,"time":818.6117660000332,"velocity":0.7559055118110236,"duration":0.26273169166665866},{"name":"F3","midi":53,"time":818.6117660000332,"velocity":0.7559055118110236,"duration":0.26273169166665866},{"name":"F2","midi":41,"time":819.1673220000332,"velocity":0.7559055118110236,"duration":0.26273169166665866},{"name":"F3","midi":53,"time":819.1673220000332,"velocity":0.7559055118110236,"duration":0.26273169166665866},{"name":"G2","midi":43,"time":819.7228780000332,"velocity":0.7559055118110236,"duration":0.26273169166665866},{"name":"G3","midi":55,"time":819.7228780000332,"velocity":0.7559055118110236,"duration":0.26273169166665866},{"name":"G2","midi":43,"time":820.2784340000333,"velocity":0.7559055118110236,"duration":0.26273169166665866},{"name":"G3","midi":55,"time":820.2784340000333,"velocity":0.7559055118110236,"duration":0.26273169166665866},{"name":"G2","midi":43,"time":820.8339900000333,"velocity":0.7559055118110236,"duration":0.26273169166665866},{"name":"G3","midi":55,"time":820.8339900000333,"velocity":0.7559055118110236,"duration":0.26273169166665866},{"name":"G2","midi":43,"time":821.3895460000333,"velocity":0.7559055118110236,"duration":0.26273169166665866},{"name":"G3","midi":55,"time":821.3895460000333,"velocity":0.7559055118110236,"duration":0.26273169166665866},{"name":"G#2","midi":44,"time":821.9451020000333,"velocity":0.7559055118110236,"duration":0.26273169166665866},{"name":"G#3","midi":56,"time":821.9451020000333,"velocity":0.7559055118110236,"duration":0.26273169166665866},{"name":"G#2","midi":44,"time":822.5006580000334,"velocity":0.7559055118110236,"duration":0.26273169166665866},{"name":"G#3","midi":56,"time":822.5006580000334,"velocity":0.7559055118110236,"duration":0.26273169166665866},{"name":"G#2","midi":44,"time":823.0562140000334,"velocity":0.7559055118110236,"duration":0.26273169166665866},{"name":"G#3","midi":56,"time":823.0562140000334,"velocity":0.7559055118110236,"duration":0.26273169166665866},{"name":"G#2","midi":44,"time":823.6117700000334,"velocity":0.7559055118110236,"duration":0.26273169166665866},{"name":"G#3","midi":56,"time":823.6117700000334,"velocity":0.7559055118110236,"duration":0.26273169166665866},{"name":"G2","midi":43,"time":824.1673260000334,"velocity":0.7559055118110236,"duration":0.26273169166665866},{"name":"G3","midi":55,"time":824.1673260000334,"velocity":0.7559055118110236,"duration":0.26273169166665866},{"name":"G2","midi":43,"time":824.7228820000335,"velocity":0.7559055118110236,"duration":0.26273169166665866},{"name":"G3","midi":55,"time":824.7228820000335,"velocity":0.7559055118110236,"duration":0.26273169166665866},{"name":"G2","midi":43,"time":825.2784380000335,"velocity":0.7559055118110236,"duration":0.26273169166665866},{"name":"G3","midi":55,"time":825.2784380000335,"velocity":0.7559055118110236,"duration":0.26273169166665866},{"name":"G2","midi":43,"time":825.8339940000335,"velocity":0.7559055118110236,"duration":0.26273169166665866},{"name":"G3","midi":55,"time":825.8339940000335,"velocity":0.7559055118110236,"duration":0.26273169166665866},{"name":"F2","midi":41,"time":826.3895500000335,"velocity":0.7559055118110236,"duration":0.26273169166665866},{"name":"F3","midi":53,"time":826.3895500000335,"velocity":0.7559055118110236,"duration":0.26273169166665866},{"name":"F2","midi":41,"time":826.9451060000335,"velocity":0.7559055118110236,"duration":0.26273169166665866},{"name":"F3","midi":53,"time":826.9451060000335,"velocity":0.7559055118110236,"duration":0.26273169166665866},{"name":"F2","midi":41,"time":827.5006620000336,"velocity":0.7559055118110236,"duration":0.26273169166665866},{"name":"F3","midi":53,"time":827.5006620000336,"velocity":0.7559055118110236,"duration":0.26273169166665866},{"name":"F2","midi":41,"time":828.0562180000336,"velocity":0.7559055118110236,"duration":0.26273169166665866},{"name":"F3","midi":53,"time":828.0562180000336,"velocity":0.7559055118110236,"duration":0.26273169166665866},{"name":"G2","midi":43,"time":828.6117740000336,"velocity":0.7559055118110236,"duration":0.26273169166665866},{"name":"G3","midi":55,"time":828.6117740000336,"velocity":0.7559055118110236,"duration":0.26273169166665866},{"name":"G2","midi":43,"time":829.1673300000336,"velocity":0.7559055118110236,"duration":0.26273169166665866},{"name":"G3","midi":55,"time":829.1673300000336,"velocity":0.7559055118110236,"duration":0.26273169166665866},{"name":"G2","midi":43,"time":829.7228860000337,"velocity":0.7559055118110236,"duration":0.26273169166665866},{"name":"G3","midi":55,"time":829.7228860000337,"velocity":0.7559055118110236,"duration":0.26273169166665866},{"name":"G2","midi":43,"time":830.2784420000337,"velocity":0.7559055118110236,"duration":0.26273169166665866},{"name":"G3","midi":55,"time":830.2784420000337,"velocity":0.7559055118110236,"duration":0.26273169166665866},{"name":"G#2","midi":44,"time":830.8339980000337,"velocity":0.7559055118110236,"duration":0.26273169166665866},{"name":"G#3","midi":56,"time":830.8339980000337,"velocity":0.7559055118110236,"duration":0.26273169166665866},{"name":"G#2","midi":44,"time":831.3895540000337,"velocity":0.7559055118110236,"duration":0.26273169166665866},{"name":"G#3","midi":56,"time":831.3895540000337,"velocity":0.7559055118110236,"duration":0.26273169166665866},{"name":"G#2","midi":44,"time":831.9451100000338,"velocity":0.7559055118110236,"duration":0.26273169166665866},{"name":"G#3","midi":56,"time":831.9451100000338,"velocity":0.7559055118110236,"duration":0.26273169166665866},{"name":"G#2","midi":44,"time":832.5006660000338,"velocity":0.7559055118110236,"duration":0.26273169166665866},{"name":"G#3","midi":56,"time":832.5006660000338,"velocity":0.7559055118110236,"duration":0.26273169166665866},{"name":"G2","midi":43,"time":833.0562220000338,"velocity":0.7559055118110236,"duration":0.26273169166665866},{"name":"G3","midi":55,"time":833.0562220000338,"velocity":0.7559055118110236,"duration":0.26273169166665866},{"name":"G2","midi":43,"time":833.6117780000338,"velocity":0.7559055118110236,"duration":0.26273169166665866},{"name":"G3","midi":55,"time":833.6117780000338,"velocity":0.7559055118110236,"duration":0.26273169166665866},{"name":"G2","midi":43,"time":834.1673340000339,"velocity":0.7559055118110236,"duration":0.26273169166665866},{"name":"G3","midi":55,"time":834.1673340000339,"velocity":0.7559055118110236,"duration":0.26273169166665866},{"name":"G2","midi":43,"time":834.7228900000339,"velocity":0.7559055118110236,"duration":0.26273169166665866},{"name":"G3","midi":55,"time":834.7228900000339,"velocity":0.7559055118110236,"duration":0.26273169166665866},{"name":"F2","midi":41,"time":835.2784460000339,"velocity":0.7559055118110236,"duration":0.26273169166665866},{"name":"F3","midi":53,"time":835.2784460000339,"velocity":0.7559055118110236,"duration":0.26273169166665866},{"name":"F2","midi":41,"time":835.8340020000339,"velocity":0.7559055118110236,"duration":0.26273169166665866},{"name":"F3","midi":53,"time":835.8340020000339,"velocity":0.7559055118110236,"duration":0.26273169166665866},{"name":"F2","midi":41,"time":836.389558000034,"velocity":0.7559055118110236,"duration":0.26273169166665866},{"name":"F3","midi":53,"time":836.389558000034,"velocity":0.7559055118110236,"duration":0.26273169166665866},{"name":"F2","midi":41,"time":836.945114000034,"velocity":0.7559055118110236,"duration":0.26273169166665866},{"name":"F3","midi":53,"time":836.945114000034,"velocity":0.7559055118110236,"duration":0.26273169166665866},{"name":"G2","midi":43,"time":837.500670000034,"velocity":0.7559055118110236,"duration":0.26273169166665866},{"name":"G3","midi":55,"time":837.500670000034,"velocity":0.7559055118110236,"duration":0.26273169166665866},{"name":"G2","midi":43,"time":838.056226000034,"velocity":0.7559055118110236,"duration":0.26273169166665866},{"name":"G3","midi":55,"time":838.056226000034,"velocity":0.7559055118110236,"duration":0.26273169166665866},{"name":"G2","midi":43,"time":838.611782000034,"velocity":0.7559055118110236,"duration":0.26273169166665866},{"name":"G3","midi":55,"time":838.611782000034,"velocity":0.7559055118110236,"duration":0.26273169166665866},{"name":"G2","midi":43,"time":839.1673380000341,"velocity":0.7559055118110236,"duration":0.26273169166665866},{"name":"G3","midi":55,"time":839.1673380000341,"velocity":0.7559055118110236,"duration":0.26273169166665866},{"name":"G#2","midi":44,"time":839.7228940000341,"velocity":0.7559055118110236,"duration":0.26273169166665866},{"name":"G#3","midi":56,"time":839.7228940000341,"velocity":0.7559055118110236,"duration":0.26273169166665866},{"name":"G#2","midi":44,"time":840.2784500000341,"velocity":0.7559055118110236,"duration":0.26273169166665866},{"name":"G#3","midi":56,"time":840.2784500000341,"velocity":0.7559055118110236,"duration":0.26273169166665866},{"name":"G#2","midi":44,"time":840.8340060000342,"velocity":0.7559055118110236,"duration":0.26273169166665866},{"name":"G#3","midi":56,"time":840.8340060000342,"velocity":0.7559055118110236,"duration":0.26273169166665866},{"name":"G#2","midi":44,"time":841.3895620000342,"velocity":0.7559055118110236,"duration":0.26273169166665866},{"name":"G#3","midi":56,"time":841.3895620000342,"velocity":0.7559055118110236,"duration":0.26273169166665866},{"name":"G2","midi":43,"time":841.9451180000342,"velocity":0.7559055118110236,"duration":0.26273169166665866},{"name":"G3","midi":55,"time":841.9451180000342,"velocity":0.7559055118110236,"duration":0.26273169166665866},{"name":"G2","midi":43,"time":842.5006740000342,"velocity":0.7559055118110236,"duration":0.26273169166665866},{"name":"G3","midi":55,"time":842.5006740000342,"velocity":0.7559055118110236,"duration":0.26273169166665866},{"name":"G2","midi":43,"time":843.0562300000342,"velocity":0.7559055118110236,"duration":0.26273169166665866},{"name":"G3","midi":55,"time":843.0562300000342,"velocity":0.7559055118110236,"duration":0.26273169166665866},{"name":"G2","midi":43,"time":843.6117860000343,"velocity":0.7559055118110236,"duration":0.26273169166665866},{"name":"G3","midi":55,"time":843.6117860000343,"velocity":0.7559055118110236,"duration":0.26273169166665866},{"name":"F2","midi":41,"time":844.1673420000343,"velocity":0.7559055118110236,"duration":0.26273169166665866},{"name":"F3","midi":53,"time":844.1673420000343,"velocity":0.7559055118110236,"duration":0.26273169166665866},{"name":"F2","midi":41,"time":844.7228980000343,"velocity":0.7559055118110236,"duration":0.26273169166665866},{"name":"F3","midi":53,"time":844.7228980000343,"velocity":0.7559055118110236,"duration":0.26273169166665866},{"name":"F2","midi":41,"time":845.2784540000343,"velocity":0.7559055118110236,"duration":0.26273169166665866},{"name":"F3","midi":53,"time":845.2784540000343,"velocity":0.7559055118110236,"duration":0.26273169166665866},{"name":"F2","midi":41,"time":845.8340100000344,"velocity":0.7559055118110236,"duration":0.26273169166665866},{"name":"F3","midi":53,"time":845.8340100000344,"velocity":0.7559055118110236,"duration":0.26273169166665866},{"name":"G2","midi":43,"time":846.3895660000344,"velocity":0.7559055118110236,"duration":0.26273169166665866},{"name":"G3","midi":55,"time":846.3895660000344,"velocity":0.7559055118110236,"duration":0.26273169166665866},{"name":"G2","midi":43,"time":846.9451220000344,"velocity":0.7559055118110236,"duration":0.26273169166665866},{"name":"G3","midi":55,"time":846.9451220000344,"velocity":0.7559055118110236,"duration":0.26273169166665866},{"name":"G2","midi":43,"time":847.5006780000344,"velocity":0.7559055118110236,"duration":0.26273169166665866},{"name":"G3","midi":55,"time":847.5006780000344,"velocity":0.7559055118110236,"duration":0.26273169166665866},{"name":"G2","midi":43,"time":848.0562340000345,"velocity":0.7559055118110236,"duration":0.26273169166665866},{"name":"G3","midi":55,"time":848.0562340000345,"velocity":0.7559055118110236,"duration":0.26273169166665866},{"name":"G#2","midi":44,"time":848.6117900000345,"velocity":0.7559055118110236,"duration":0.26273169166665866},{"name":"G#3","midi":56,"time":848.6117900000345,"velocity":0.7559055118110236,"duration":0.26273169166665866},{"name":"G#2","midi":44,"time":849.1673460000345,"velocity":0.7559055118110236,"duration":0.26273169166665866},{"name":"G#3","midi":56,"time":849.1673460000345,"velocity":0.7559055118110236,"duration":0.26273169166665866},{"name":"F2","midi":41,"time":849.7229020000345,"velocity":0.7559055118110236,"duration":0.26273169166665866},{"name":"F3","midi":53,"time":849.7229020000345,"velocity":0.7559055118110236,"duration":0.26273169166665866},{"name":"F2","midi":41,"time":850.2784580000346,"velocity":0.7559055118110236,"duration":0.26273169166665866},{"name":"F3","midi":53,"time":850.2784580000346,"velocity":0.7559055118110236,"duration":0.26273169166665866},{"name":"G2","midi":43,"time":850.8340140000346,"velocity":0.7559055118110236,"duration":0.26273169166665866},{"name":"G3","midi":55,"time":850.8340140000346,"velocity":0.7559055118110236,"duration":0.26273169166665866},{"name":"G2","midi":43,"time":851.3895700000346,"velocity":0.7559055118110236,"duration":0.26273169166665866},{"name":"G3","midi":55,"time":851.3895700000346,"velocity":0.7559055118110236,"duration":0.26273169166665866},{"name":"E2","midi":40,"time":857.5006860000345,"velocity":0.8818897637795275,"duration":0.13078714166658756},{"name":"E2","midi":40,"time":857.6395750000345,"velocity":0.8818897637795275,"duration":0.13078714166670125},{"name":"E3","midi":52,"time":857.7784640000345,"velocity":0.8818897637795275,"duration":0.13078714166670125},{"name":"E2","midi":40,"time":857.9173530000346,"velocity":0.8818897637795275,"duration":0.13078714166670125},{"name":"E2","midi":40,"time":858.0562420000347,"velocity":0.8818897637795275,"duration":0.13078714166670125},{"name":"E2","midi":40,"time":858.1951310000347,"velocity":0.8818897637795275,"duration":0.13078714166670125},{"name":"E3","midi":52,"time":858.3340200000348,"velocity":0.8818897637795275,"duration":0.13078714166670125},{"name":"E2","midi":40,"time":858.4729090000349,"velocity":0.8818897637795275,"duration":0.13078714166670125},{"name":"E2","midi":40,"time":858.6117980000349,"velocity":0.8818897637795275,"duration":0.13078714166670125},{"name":"E2","midi":40,"time":858.750687000035,"velocity":0.8818897637795275,"duration":0.13078714166670125},{"name":"E3","midi":52,"time":858.889576000035,"velocity":0.8818897637795275,"duration":0.13078714166670125},{"name":"E2","midi":40,"time":859.0284650000351,"velocity":0.8818897637795275,"duration":0.13078714166670125},{"name":"E2","midi":40,"time":859.1673540000352,"velocity":0.8818897637795275,"duration":0.13078714166670125},{"name":"E2","midi":40,"time":859.3062430000352,"velocity":0.8818897637795275,"duration":0.13078714166670125},{"name":"E3","midi":52,"time":859.4451320000353,"velocity":0.8818897637795275,"duration":0.13078714166670125},{"name":"E2","midi":40,"time":859.5840210000354,"velocity":0.8818897637795275,"duration":0.13078714166670125},{"name":"E2","midi":40,"time":859.7229100000354,"velocity":0.8818897637795275,"duration":0.13078714166670125},{"name":"E2","midi":40,"time":859.8617990000355,"velocity":0.8818897637795275,"duration":0.13078714166670125},{"name":"E3","midi":52,"time":860.0006880000356,"velocity":0.8818897637795275,"duration":0.13078714166670125},{"name":"E2","midi":40,"time":860.1395770000356,"velocity":0.8818897637795275,"duration":0.13078714166670125},{"name":"E2","midi":40,"time":860.2784660000357,"velocity":0.8818897637795275,"duration":0.13078714166670125},{"name":"E2","midi":40,"time":860.4173550000357,"velocity":0.8818897637795275,"duration":0.13078714166670125},{"name":"E3","midi":52,"time":860.5562440000358,"velocity":0.8818897637795275,"duration":0.13078714166670125},{"name":"E2","midi":40,"time":860.6951330000359,"velocity":0.8818897637795275,"duration":0.13078714166670125},{"name":"E2","midi":40,"time":860.8340220000359,"velocity":0.8818897637795275,"duration":0.13078714166670125},{"name":"E2","midi":40,"time":860.972911000036,"velocity":0.8818897637795275,"duration":0.13078714166670125},{"name":"E3","midi":52,"time":861.111800000036,"velocity":0.8818897637795275,"duration":0.13078714166670125},{"name":"E2","midi":40,"time":861.2506890000361,"velocity":0.8818897637795275,"duration":0.13078714166670125},{"name":"E2","midi":40,"time":861.3895780000362,"velocity":0.8818897637795275,"duration":0.13078714166670125},{"name":"E2","midi":40,"time":861.5284670000362,"velocity":0.8818897637795275,"duration":0.13078714166670125},{"name":"E3","midi":52,"time":861.6673560000363,"velocity":0.8818897637795275,"duration":0.13078714166670125},{"name":"E2","midi":40,"time":861.8062450000364,"velocity":0.8818897637795275,"duration":0.13078714166670125},{"name":"F#2","midi":42,"time":861.9451340000364,"velocity":0.8818897637795275,"duration":0.13078714166670125},{"name":"F#2","midi":42,"time":862.0840230000365,"velocity":0.8818897637795275,"duration":0.13078714166670125},{"name":"F#3","midi":54,"time":862.2229120000366,"velocity":0.8818897637795275,"duration":0.13078714166670125},{"name":"F#2","midi":42,"time":862.3618010000366,"velocity":0.8818897637795275,"duration":0.13078714166670125},{"name":"F#2","midi":42,"time":862.5006900000367,"velocity":0.8818897637795275,"duration":0.13078714166670125},{"name":"F#2","midi":42,"time":862.6395790000367,"velocity":0.8818897637795275,"duration":0.13078714166670125},{"name":"F#3","midi":54,"time":862.7784680000368,"velocity":0.8818897637795275,"duration":0.13078714166670125},{"name":"F#2","midi":42,"time":862.9173570000369,"velocity":0.8818897637795275,"duration":0.13078714166670125},{"name":"F#2","midi":42,"time":863.0562460000369,"velocity":0.8818897637795275,"duration":0.13078714166670125},{"name":"F#2","midi":42,"time":863.195135000037,"velocity":0.8818897637795275,"duration":0.13078714166670125},{"name":"F#3","midi":54,"time":863.3340240000371,"velocity":0.8818897637795275,"duration":0.13078714166670125},{"name":"F#2","midi":42,"time":863.4729130000371,"velocity":0.8818897637795275,"duration":0.13078714166670125},{"name":"F#2","midi":42,"time":863.6118020000372,"velocity":0.8818897637795275,"duration":0.13078714166670125},{"name":"F#2","midi":42,"time":863.7506910000372,"velocity":0.8818897637795275,"duration":0.13078714166670125},{"name":"F#3","midi":54,"time":863.8895800000373,"velocity":0.8818897637795275,"duration":0.13078714166670125},{"name":"F#2","midi":42,"time":864.0284690000374,"velocity":0.8818897637795275,"duration":0.13078714166670125},{"name":"F#2","midi":42,"time":864.1673580000374,"velocity":0.8818897637795275,"duration":0.13078714166670125},{"name":"F#2","midi":42,"time":864.3062470000375,"velocity":0.8818897637795275,"duration":0.13078714166670125},{"name":"F#3","midi":54,"time":864.4451360000376,"velocity":0.8818897637795275,"duration":0.13078714166670125},{"name":"F#2","midi":42,"time":864.5840250000376,"velocity":0.8818897637795275,"duration":0.13078714166670125},{"name":"F#2","midi":42,"time":864.7229140000377,"velocity":0.8818897637795275,"duration":0.13078714166670125},{"name":"F#2","midi":42,"time":864.8618030000378,"velocity":0.8818897637795275,"duration":0.13078714166670125},{"name":"F#3","midi":54,"time":865.0006920000378,"velocity":0.8818897637795275,"duration":0.13078714166670125},{"name":"F#2","midi":42,"time":865.1395810000379,"velocity":0.8818897637795275,"duration":0.13078714166670125},{"name":"F#2","midi":42,"time":865.2784700000379,"velocity":0.8818897637795275,"duration":0.13078714166670125},{"name":"F#2","midi":42,"time":865.417359000038,"velocity":0.8818897637795275,"duration":0.13078714166670125},{"name":"F#3","midi":54,"time":865.5562480000381,"velocity":0.8818897637795275,"duration":0.13078714166670125},{"name":"F#2","midi":42,"time":865.6951370000381,"velocity":0.8818897637795275,"duration":0.13078714166670125},{"name":"F#2","midi":42,"time":865.8340260000382,"velocity":0.8818897637795275,"duration":0.13078714166670125},{"name":"F#2","midi":42,"time":865.9729150000383,"velocity":0.8818897637795275,"duration":0.13078714166670125},{"name":"F#3","midi":54,"time":866.1118040000383,"velocity":0.8818897637795275,"duration":0.13078714166670125},{"name":"F#2","midi":42,"time":866.2506930000384,"velocity":0.8818897637795275,"duration":0.13078714166670125},{"name":"E2","midi":40,"time":866.3895820000384,"velocity":0.8818897637795275,"duration":0.13078714166670125},{"name":"E2","midi":40,"time":866.5284710000385,"velocity":0.8818897637795275,"duration":0.13078714166670125},{"name":"E3","midi":52,"time":866.6673600000386,"velocity":0.8818897637795275,"duration":0.13078714166670125},{"name":"E2","midi":40,"time":866.8062490000386,"velocity":0.8818897637795275,"duration":0.13078714166670125},{"name":"E2","midi":40,"time":866.9451380000387,"velocity":0.8818897637795275,"duration":0.13078714166670125},{"name":"E2","midi":40,"time":867.0840270000388,"velocity":0.8818897637795275,"duration":0.13078714166670125},{"name":"E3","midi":52,"time":867.2229160000388,"velocity":0.8818897637795275,"duration":0.13078714166670125},{"name":"E2","midi":40,"time":867.3618050000389,"velocity":0.8818897637795275,"duration":0.13078714166670125},{"name":"E2","midi":40,"time":867.500694000039,"velocity":0.8818897637795275,"duration":0.13078714166670125},{"name":"E2","midi":40,"time":867.639583000039,"velocity":0.8818897637795275,"duration":0.13078714166670125},{"name":"E3","midi":52,"time":867.7784720000391,"velocity":0.8818897637795275,"duration":0.13078714166670125},{"name":"E2","midi":40,"time":867.9173610000391,"velocity":0.8818897637795275,"duration":0.13078714166670125},{"name":"E2","midi":40,"time":868.0562500000392,"velocity":0.8818897637795275,"duration":0.13078714166670125},{"name":"E2","midi":40,"time":868.1951390000393,"velocity":0.8818897637795275,"duration":0.13078714166670125},{"name":"E3","midi":52,"time":868.3340280000393,"velocity":0.8818897637795275,"duration":0.13078714166670125},{"name":"E2","midi":40,"time":868.4729170000394,"velocity":0.8818897637795275,"duration":0.13078714166670125},{"name":"E2","midi":40,"time":868.6118060000395,"velocity":0.8818897637795275,"duration":0.13078714166670125},{"name":"E2","midi":40,"time":868.7506950000395,"velocity":0.8818897637795275,"duration":0.13078714166670125},{"name":"E3","midi":52,"time":868.8895840000396,"velocity":0.8818897637795275,"duration":0.13078714166670125},{"name":"E2","midi":40,"time":869.0284730000396,"velocity":0.8818897637795275,"duration":0.13078714166670125},{"name":"E2","midi":40,"time":869.1673620000397,"velocity":0.8818897637795275,"duration":0.13078714166670125},{"name":"E2","midi":40,"time":869.3062510000398,"velocity":0.8818897637795275,"duration":0.13078714166670125},{"name":"E3","midi":52,"time":869.4451400000398,"velocity":0.8818897637795275,"duration":0.13078714166670125},{"name":"E2","midi":40,"time":869.5840290000399,"velocity":0.8818897637795275,"duration":0.13078714166670125},{"name":"E2","midi":40,"time":869.72291800004,"velocity":0.8818897637795275,"duration":0.13078714166670125},{"name":"E2","midi":40,"time":869.86180700004,"velocity":0.8818897637795275,"duration":0.13078714166670125},{"name":"E3","midi":52,"time":870.0006960000401,"velocity":0.8818897637795275,"duration":0.13078714166670125},{"name":"E2","midi":40,"time":870.1395850000401,"velocity":0.8818897637795275,"duration":0.13078714166670125},{"name":"E2","midi":40,"time":870.2784740000402,"velocity":0.8818897637795275,"duration":0.13078714166670125},{"name":"E2","midi":40,"time":870.4173630000403,"velocity":0.8818897637795275,"duration":0.13078714166670125},{"name":"E3","midi":52,"time":870.5562520000403,"velocity":0.8818897637795275,"duration":0.13078714166670125},{"name":"E2","midi":40,"time":870.6951410000404,"velocity":0.8818897637795275,"duration":0.13078714166670125},{"name":"F#2","midi":42,"time":870.8340300000405,"velocity":0.8818897637795275,"duration":0.13078714166670125},{"name":"F#2","midi":42,"time":870.9729190000405,"velocity":0.8818897637795275,"duration":0.13078714166670125},{"name":"F#3","midi":54,"time":871.1118080000406,"velocity":0.8818897637795275,"duration":0.13078714166670125},{"name":"F#2","midi":42,"time":871.2506970000406,"velocity":0.8818897637795275,"duration":0.13078714166670125},{"name":"F#2","midi":42,"time":871.3895860000407,"velocity":0.8818897637795275,"duration":0.13078714166670125},{"name":"F#2","midi":42,"time":871.5284750000408,"velocity":0.8818897637795275,"duration":0.13078714166670125},{"name":"F#3","midi":54,"time":871.6673640000408,"velocity":0.8818897637795275,"duration":0.13078714166670125},{"name":"F#2","midi":42,"time":871.8062530000409,"velocity":0.8818897637795275,"duration":0.13078714166670125},{"name":"F#2","midi":42,"time":871.945142000041,"velocity":0.8818897637795275,"duration":0.13078714166670125},{"name":"F#2","midi":42,"time":872.084031000041,"velocity":0.8818897637795275,"duration":0.13078714166670125},{"name":"F#3","midi":54,"time":872.2229200000411,"velocity":0.8818897637795275,"duration":0.13078714166670125},{"name":"F#2","midi":42,"time":872.3618090000411,"velocity":0.8818897637795275,"duration":0.13078714166670125},{"name":"F#2","midi":42,"time":872.5006980000412,"velocity":0.8818897637795275,"duration":0.13078714166670125},{"name":"F#2","midi":42,"time":872.6395870000413,"velocity":0.8818897637795275,"duration":0.13078714166670125},{"name":"F#3","midi":54,"time":872.7784760000413,"velocity":0.8818897637795275,"duration":0.13078714166670125},{"name":"F#2","midi":42,"time":872.9173650000414,"velocity":0.8818897637795275,"duration":0.13078714166670125},{"name":"F#2","midi":42,"time":873.0562540000415,"velocity":0.8818897637795275,"duration":0.13078714166670125},{"name":"F#2","midi":42,"time":873.1951430000415,"velocity":0.8818897637795275,"duration":0.13078714166670125},{"name":"F#3","midi":54,"time":873.3340320000416,"velocity":0.8818897637795275,"duration":0.13078714166670125},{"name":"F#2","midi":42,"time":873.4729210000417,"velocity":0.8818897637795275,"duration":0.13078714166670125},{"name":"F#2","midi":42,"time":873.6118100000417,"velocity":0.8818897637795275,"duration":0.13078714166670125},{"name":"F#2","midi":42,"time":873.7506990000418,"velocity":0.8818897637795275,"duration":0.13078714166670125},{"name":"F#3","midi":54,"time":873.8895880000418,"velocity":0.8818897637795275,"duration":0.13078714166670125},{"name":"F#2","midi":42,"time":874.0284770000419,"velocity":0.8818897637795275,"duration":0.13078714166670125},{"name":"F#2","midi":42,"time":874.167366000042,"velocity":0.8818897637795275,"duration":0.13078714166670125},{"name":"F#2","midi":42,"time":874.306255000042,"velocity":0.8818897637795275,"duration":0.13078714166670125},{"name":"F#3","midi":54,"time":874.4451440000421,"velocity":0.8818897637795275,"duration":0.13078714166670125},{"name":"F#2","midi":42,"time":874.5840330000422,"velocity":0.8818897637795275,"duration":0.13078714166670125},{"name":"F#2","midi":42,"time":874.7229220000422,"velocity":0.8818897637795275,"duration":0.13078714166670125},{"name":"F#2","midi":42,"time":874.8618110000423,"velocity":0.8818897637795275,"duration":0.13078714166670125},{"name":"F#3","midi":54,"time":875.0007000000423,"velocity":0.8818897637795275,"duration":0.13078714166670125},{"name":"F#2","midi":42,"time":875.1395890000424,"velocity":0.8818897637795275,"duration":0.13078714166670125},{"name":"E2","midi":40,"time":875.2784780000425,"velocity":0.8818897637795275,"duration":0.13078714166670125},{"name":"E2","midi":40,"time":875.4173670000425,"velocity":0.8818897637795275,"duration":0.13078714166670125},{"name":"E3","midi":52,"time":875.5562560000426,"velocity":0.8818897637795275,"duration":0.13078714166670125},{"name":"E2","midi":40,"time":875.6951450000427,"velocity":0.8818897637795275,"duration":0.13078714166670125},{"name":"E2","midi":40,"time":875.8340340000427,"velocity":0.8818897637795275,"duration":0.13078714166670125},{"name":"E2","midi":40,"time":875.9729230000428,"velocity":0.8818897637795275,"duration":0.13078714166670125},{"name":"E3","midi":52,"time":876.1118120000428,"velocity":0.8818897637795275,"duration":0.13078714166670125},{"name":"E2","midi":40,"time":876.2507010000429,"velocity":0.8818897637795275,"duration":0.13078714166670125},{"name":"E2","midi":40,"time":876.389590000043,"velocity":0.8818897637795275,"duration":0.13078714166670125},{"name":"E2","midi":40,"time":876.528479000043,"velocity":0.8818897637795275,"duration":0.13078714166670125},{"name":"E3","midi":52,"time":876.6673680000431,"velocity":0.8818897637795275,"duration":0.13078714166670125},{"name":"E2","midi":40,"time":876.8062570000432,"velocity":0.8818897637795275,"duration":0.13078714166670125},{"name":"E2","midi":40,"time":876.9451460000432,"velocity":0.8818897637795275,"duration":0.13078714166670125},{"name":"E2","midi":40,"time":877.0840350000433,"velocity":0.8818897637795275,"duration":0.13078714166670125},{"name":"E3","midi":52,"time":877.2229240000433,"velocity":0.8818897637795275,"duration":0.13078714166670125},{"name":"E2","midi":40,"time":877.3618130000434,"velocity":0.8818897637795275,"duration":0.13078714166670125},{"name":"E2","midi":40,"time":877.5007020000435,"velocity":0.8818897637795275,"duration":0.13078714166670125},{"name":"E2","midi":40,"time":877.6395910000435,"velocity":0.8818897637795275,"duration":0.13078714166670125},{"name":"E3","midi":52,"time":877.7784800000436,"velocity":0.8818897637795275,"duration":0.13078714166670125},{"name":"E2","midi":40,"time":877.9173690000437,"velocity":0.8818897637795275,"duration":0.13078714166670125},{"name":"E2","midi":40,"time":878.0562580000437,"velocity":0.8818897637795275,"duration":0.13078714166670125},{"name":"E2","midi":40,"time":878.1951470000438,"velocity":0.8818897637795275,"duration":0.13078714166670125},{"name":"E3","midi":52,"time":878.3340360000439,"velocity":0.8818897637795275,"duration":0.13078714166670125},{"name":"E2","midi":40,"time":878.4729250000439,"velocity":0.8818897637795275,"duration":0.13078714166670125},{"name":"E2","midi":40,"time":878.611814000044,"velocity":0.8818897637795275,"duration":0.13078714166670125},{"name":"E2","midi":40,"time":878.750703000044,"velocity":0.8818897637795275,"duration":0.13078714166670125},{"name":"E3","midi":52,"time":878.8895920000441,"velocity":0.8818897637795275,"duration":0.13078714166670125},{"name":"E2","midi":40,"time":879.0284810000442,"velocity":0.8818897637795275,"duration":0.13078714166670125},{"name":"E2","midi":40,"time":879.1673700000442,"velocity":0.8818897637795275,"duration":0.13078714166670125},{"name":"E2","midi":40,"time":879.3062590000443,"velocity":0.8818897637795275,"duration":0.13078714166670125},{"name":"E3","midi":52,"time":879.4451480000444,"velocity":0.8818897637795275,"duration":0.13078714166670125},{"name":"E2","midi":40,"time":879.5840370000444,"velocity":0.8818897637795275,"duration":0.13078714166670125},{"name":"F#2","midi":42,"time":879.7229260000445,"velocity":0.8818897637795275,"duration":0.13078714166670125},{"name":"F#2","midi":42,"time":879.8618150000445,"velocity":0.8818897637795275,"duration":0.13078714166670125},{"name":"F#3","midi":54,"time":880.0007040000446,"velocity":0.8818897637795275,"duration":0.13078714166670125},{"name":"F#2","midi":42,"time":880.1395930000447,"velocity":0.8818897637795275,"duration":0.13078714166670125},{"name":"F#2","midi":42,"time":880.2784820000447,"velocity":0.8818897637795275,"duration":0.13078714166670125},{"name":"F#2","midi":42,"time":880.4173710000448,"velocity":0.8818897637795275,"duration":0.13078714166670125},{"name":"F#3","midi":54,"time":880.5562600000449,"velocity":0.8818897637795275,"duration":0.13078714166670125},{"name":"F#2","midi":42,"time":880.6951490000449,"velocity":0.8818897637795275,"duration":0.13078714166670125},{"name":"F#2","midi":42,"time":880.834038000045,"velocity":0.8818897637795275,"duration":0.13078714166670125},{"name":"F#2","midi":42,"time":880.972927000045,"velocity":0.8818897637795275,"duration":0.13078714166670125},{"name":"F#3","midi":54,"time":881.1118160000451,"velocity":0.8818897637795275,"duration":0.13078714166670125},{"name":"F#2","midi":42,"time":881.2507050000452,"velocity":0.8818897637795275,"duration":0.13078714166670125},{"name":"F#2","midi":42,"time":881.3895940000452,"velocity":0.8818897637795275,"duration":0.13078714166670125},{"name":"F#2","midi":42,"time":881.5284830000453,"velocity":0.8818897637795275,"duration":0.13078714166670125},{"name":"F#3","midi":54,"time":881.6673720000454,"velocity":0.8818897637795275,"duration":0.13078714166670125},{"name":"F#2","midi":42,"time":881.8062610000454,"velocity":0.8818897637795275,"duration":0.13078714166670125},{"name":"F#2","midi":42,"time":881.9451500000455,"velocity":0.8818897637795275,"duration":0.13078714166670125},{"name":"F#2","midi":42,"time":882.0840390000455,"velocity":0.8818897637795275,"duration":0.13078714166670125},{"name":"F#3","midi":54,"time":882.2229280000456,"velocity":0.8818897637795275,"duration":0.13078714166670125},{"name":"F#2","midi":42,"time":882.3618170000457,"velocity":0.8818897637795275,"duration":0.13078714166670125},{"name":"F#2","midi":42,"time":882.5007060000457,"velocity":0.8818897637795275,"duration":0.13078714166670125},{"name":"F#2","midi":42,"time":882.6395950000458,"velocity":0.8818897637795275,"duration":0.13078714166670125},{"name":"F#3","midi":54,"time":882.7784840000459,"velocity":0.8818897637795275,"duration":0.13078714166670125},{"name":"F#2","midi":42,"time":882.9173730000459,"velocity":0.8818897637795275,"duration":0.13078714166670125},{"name":"F#2","midi":42,"time":883.056262000046,"velocity":0.8818897637795275,"duration":0.13078714166670125},{"name":"F#2","midi":42,"time":883.195151000046,"velocity":0.8818897637795275,"duration":0.13078714166670125},{"name":"F#3","midi":54,"time":883.3340400000461,"velocity":0.8818897637795275,"duration":0.13078714166670125},{"name":"F#2","midi":42,"time":883.4729290000462,"velocity":0.8818897637795275,"duration":0.13078714166670125},{"name":"F#2","midi":42,"time":883.6118180000462,"velocity":0.8818897637795275,"duration":0.13078714166670125},{"name":"F#2","midi":42,"time":883.7507070000463,"velocity":0.8818897637795275,"duration":0.13078714166670125},{"name":"F#3","midi":54,"time":883.8895960000464,"velocity":0.8818897637795275,"duration":0.13078714166670125},{"name":"F#2","midi":42,"time":884.0284850000464,"velocity":0.8818897637795275,"duration":0.13078714166670125},{"name":"E2","midi":40,"time":884.1673740000465,"velocity":0.8818897637795275,"duration":0.13078714166670125},{"name":"E2","midi":40,"time":884.3062630000466,"velocity":0.8818897637795275,"duration":0.13078714166670125},{"name":"E3","midi":52,"time":884.4451520000466,"velocity":0.8818897637795275,"duration":0.13078714166670125},{"name":"E2","midi":40,"time":884.5840410000467,"velocity":0.8818897637795275,"duration":0.13078714166670125},{"name":"E2","midi":40,"time":884.7229300000467,"velocity":0.8818897637795275,"duration":0.13078714166670125},{"name":"E2","midi":40,"time":884.8618190000468,"velocity":0.8818897637795275,"duration":0.13078714166670125},{"name":"E3","midi":52,"time":885.0007080000469,"velocity":0.8818897637795275,"duration":0.13078714166670125},{"name":"E2","midi":40,"time":885.1395970000469,"velocity":0.8818897637795275,"duration":0.13078714166670125},{"name":"E2","midi":40,"time":885.278486000047,"velocity":0.8818897637795275,"duration":0.13078714166670125},{"name":"E2","midi":40,"time":885.4173750000471,"velocity":0.8818897637795275,"duration":0.13078714166670125},{"name":"E3","midi":52,"time":885.5562640000471,"velocity":0.8818897637795275,"duration":0.13078714166670125},{"name":"E2","midi":40,"time":885.6951530000472,"velocity":0.8818897637795275,"duration":0.13078714166670125},{"name":"E2","midi":40,"time":885.8340420000472,"velocity":0.8818897637795275,"duration":0.13078714166670125},{"name":"E2","midi":40,"time":885.9729310000473,"velocity":0.8818897637795275,"duration":0.13078714166670125},{"name":"E3","midi":52,"time":886.1118200000474,"velocity":0.8818897637795275,"duration":0.13078714166670125},{"name":"E2","midi":40,"time":886.2507090000474,"velocity":0.8818897637795275,"duration":0.13078714166670125},{"name":"E2","midi":40,"time":886.3895980000475,"velocity":0.8818897637795275,"duration":0.13078714166670125},{"name":"E2","midi":40,"time":886.5284870000476,"velocity":0.8818897637795275,"duration":0.13078714166670125},{"name":"E3","midi":52,"time":886.6673760000476,"velocity":0.8818897637795275,"duration":0.13078714166670125},{"name":"E2","midi":40,"time":886.8062650000477,"velocity":0.8818897637795275,"duration":0.13078714166670125},{"name":"E2","midi":40,"time":886.9451540000478,"velocity":0.8818897637795275,"duration":0.13078714166670125},{"name":"E2","midi":40,"time":887.0840430000478,"velocity":0.8818897637795275,"duration":0.13078714166670125},{"name":"E3","midi":52,"time":887.2229320000479,"velocity":0.8818897637795275,"duration":0.13078714166670125},{"name":"E2","midi":40,"time":887.3618210000479,"velocity":0.8818897637795275,"duration":0.13078714166670125},{"name":"E2","midi":40,"time":887.500710000048,"velocity":0.8818897637795275,"duration":0.13078714166670125},{"name":"E2","midi":40,"time":887.6395990000481,"velocity":0.8818897637795275,"duration":0.13078714166670125},{"name":"E3","midi":52,"time":887.7784880000481,"velocity":0.8818897637795275,"duration":0.13078714166670125},{"name":"E2","midi":40,"time":887.9173770000482,"velocity":0.8818897637795275,"duration":0.13078714166670125},{"name":"E2","midi":40,"time":888.0562660000483,"velocity":0.8818897637795275,"duration":0.13078714166670125},{"name":"E2","midi":40,"time":888.1951550000483,"velocity":0.8818897637795275,"duration":0.13078714166670125},{"name":"E3","midi":52,"time":888.3340440000484,"velocity":0.8818897637795275,"duration":0.13078714166670125},{"name":"E2","midi":40,"time":888.4729330000484,"velocity":0.8818897637795275,"duration":0.13078714166670125},{"name":"F#2","midi":42,"time":888.6118220000485,"velocity":0.8818897637795275,"duration":0.13078714166670125},{"name":"F#2","midi":42,"time":888.7507110000486,"velocity":0.8818897637795275,"duration":0.13078714166670125},{"name":"F#3","midi":54,"time":888.8896000000486,"velocity":0.8818897637795275,"duration":0.13078714166670125},{"name":"F#2","midi":42,"time":889.0284890000487,"velocity":0.8818897637795275,"duration":0.13078714166670125},{"name":"F#2","midi":42,"time":889.1673780000488,"velocity":0.8818897637795275,"duration":0.13078714166670125},{"name":"F#2","midi":42,"time":889.3062670000488,"velocity":0.8818897637795275,"duration":0.13078714166670125},{"name":"F#3","midi":54,"time":889.4451560000489,"velocity":0.8818897637795275,"duration":0.13078714166670125},{"name":"F#2","midi":42,"time":889.584045000049,"velocity":0.8818897637795275,"duration":0.13078714166670125},{"name":"F#2","midi":42,"time":889.722934000049,"velocity":0.8818897637795275,"duration":0.13078714166670125},{"name":"F#2","midi":42,"time":889.8618230000491,"velocity":0.8818897637795275,"duration":0.13078714166670125},{"name":"F#3","midi":54,"time":890.0007120000491,"velocity":0.8818897637795275,"duration":0.13078714166670125},{"name":"F#2","midi":42,"time":890.1396010000492,"velocity":0.8818897637795275,"duration":0.13078714166670125},{"name":"F#2","midi":42,"time":890.2784900000493,"velocity":0.8818897637795275,"duration":0.13078714166670125},{"name":"F#2","midi":42,"time":890.4173790000493,"velocity":0.8818897637795275,"duration":0.13078714166670125},{"name":"F#3","midi":54,"time":890.5562680000494,"velocity":0.8818897637795275,"duration":0.13078714166670125},{"name":"F#2","midi":42,"time":890.6951570000494,"velocity":0.8818897637795275,"duration":0.13078714166670125},{"name":"F#2","midi":42,"time":890.8340460000495,"velocity":0.8818897637795275,"duration":0.13078714166670125},{"name":"F#2","midi":42,"time":890.9729350000496,"velocity":0.8818897637795275,"duration":0.13078714166670125},{"name":"F#3","midi":54,"time":891.1118240000496,"velocity":0.8818897637795275,"duration":0.13078714166670125},{"name":"F#2","midi":42,"time":891.2507130000497,"velocity":0.8818897637795275,"duration":0.13078714166670125},{"name":"F#2","midi":42,"time":891.3896020000498,"velocity":0.8818897637795275,"duration":0.13078714166670125},{"name":"F#2","midi":42,"time":891.5284910000498,"velocity":0.8818897637795275,"duration":0.13078714166670125},{"name":"F#3","midi":54,"time":891.6673800000499,"velocity":0.8818897637795275,"duration":0.13078714166670125},{"name":"F#2","midi":42,"time":891.80626900005,"velocity":0.8818897637795275,"duration":0.13078714166670125},{"name":"F#2","midi":42,"time":891.94515800005,"velocity":0.8818897637795275,"duration":0.13078714166670125},{"name":"F#2","midi":42,"time":892.0840470000501,"velocity":0.8818897637795275,"duration":0.13078714166670125},{"name":"F#3","midi":54,"time":892.2229360000501,"velocity":0.8818897637795275,"duration":0.13078714166670125},{"name":"F#2","midi":42,"time":892.3618250000502,"velocity":0.8818897637795275,"duration":0.13078714166670125},{"name":"F#2","midi":42,"time":892.5007140000503,"velocity":0.8818897637795275,"duration":0.13078714166670125},{"name":"F#2","midi":42,"time":892.6396030000503,"velocity":0.8818897637795275,"duration":0.13078714166670125},{"name":"F#3","midi":54,"time":892.7784920000504,"velocity":0.8818897637795275,"duration":0.13078714166670125},{"name":"F#2","midi":42,"time":892.9173810000505,"velocity":0.8818897637795275,"duration":0.13078714166670125},{"name":"C#2","midi":37,"time":893.0562700000505,"velocity":0.8818897637795275,"duration":0.13078714166670125},{"name":"C#3","midi":49,"time":893.1951590000506,"velocity":0.8818897637795275,"duration":0.13078714166670125},{"name":"C#2","midi":37,"time":893.3340480000506,"velocity":0.8818897637795275,"duration":0.13078714166670125},{"name":"C#2","midi":37,"time":893.4729370000507,"velocity":0.8818897637795275,"duration":0.13078714166670125},{"name":"C#3","midi":49,"time":893.6118260000508,"velocity":0.8818897637795275,"duration":0.13078714166670125},{"name":"C#2","midi":37,"time":893.7507150000508,"velocity":0.8818897637795275,"duration":0.13078714166670125},{"name":"C#2","midi":37,"time":893.8896040000509,"velocity":0.8818897637795275,"duration":0.13078714166670125},{"name":"C#3","midi":49,"time":894.028493000051,"velocity":0.8818897637795275,"duration":0.13078714166670125},{"name":"C#2","midi":37,"time":894.167382000051,"velocity":0.8818897637795275,"duration":0.13078714166670125},{"name":"C#3","midi":49,"time":894.3062710000511,"velocity":0.8818897637795275,"duration":0.13078714166670125},{"name":"C#2","midi":37,"time":894.4451600000511,"velocity":0.8818897637795275,"duration":0.13078714166670125},{"name":"C#2","midi":37,"time":894.5840490000512,"velocity":0.8818897637795275,"duration":0.13078714166670125},{"name":"D2","midi":38,"time":894.7229380000513,"velocity":0.8818897637795275,"duration":0.13078714166670125},{"name":"D3","midi":50,"time":894.8618270000513,"velocity":0.8818897637795275,"duration":0.13078714166670125},{"name":"D#2","midi":39,"time":895.0007160000514,"velocity":0.8818897637795275,"duration":0.13078714166670125},{"name":"D#3","midi":51,"time":895.1396050000515,"velocity":0.8818897637795275,"duration":0.13078714166670125},{"name":"C2","midi":36,"time":895.2784940000515,"velocity":0.8818897637795275,"duration":0.13078714166658756},{"name":"C2","midi":36,"time":895.4173830000515,"velocity":0.8818897637795275,"duration":0.13078714166670125},{"name":"C3","midi":48,"time":895.5562720000515,"velocity":0.8818897637795275,"duration":0.13078714166670125},{"name":"C2","midi":36,"time":895.6951610000516,"velocity":0.8818897637795275,"duration":0.13078714166670125},{"name":"C2","midi":36,"time":895.8340500000517,"velocity":0.8818897637795275,"duration":0.13078714166670125},{"name":"C2","midi":36,"time":895.9729390000517,"velocity":0.8818897637795275,"duration":0.13078714166670125},{"name":"C3","midi":48,"time":896.1118280000518,"velocity":0.8818897637795275,"duration":0.13078714166670125},{"name":"C2","midi":36,"time":896.2507170000518,"velocity":0.8818897637795275,"duration":0.13078714166670125},{"name":"C2","midi":36,"time":896.3896060000519,"velocity":0.8818897637795275,"duration":0.13078714166670125},{"name":"C2","midi":36,"time":896.528495000052,"velocity":0.8818897637795275,"duration":0.13078714166670125},{"name":"C3","midi":48,"time":896.667384000052,"velocity":0.8818897637795275,"duration":0.13078714166670125},{"name":"C2","midi":36,"time":896.8062730000521,"velocity":0.8818897637795275,"duration":0.13078714166670125},{"name":"C2","midi":36,"time":896.9451620000522,"velocity":0.8818897637795275,"duration":0.13078714166670125},{"name":"C2","midi":36,"time":897.0840510000522,"velocity":0.8818897637795275,"duration":0.13078714166670125},{"name":"C3","midi":48,"time":897.2229400000523,"velocity":0.8818897637795275,"duration":0.13078714166670125},{"name":"C2","midi":36,"time":897.3618290000524,"velocity":0.8818897637795275,"duration":0.13078714166670125},{"name":"C2","midi":36,"time":897.5007180000524,"velocity":0.8818897637795275,"duration":0.13078714166670125},{"name":"C2","midi":36,"time":897.6396070000525,"velocity":0.8818897637795275,"duration":0.13078714166670125},{"name":"C3","midi":48,"time":897.7784960000525,"velocity":0.8818897637795275,"duration":0.13078714166670125},{"name":"C2","midi":36,"time":897.9173850000526,"velocity":0.8818897637795275,"duration":0.13078714166670125},{"name":"C2","midi":36,"time":898.0562740000527,"velocity":0.8818897637795275,"duration":0.13078714166670125},{"name":"C2","midi":36,"time":898.1951630000527,"velocity":0.8818897637795275,"duration":0.13078714166670125},{"name":"C3","midi":48,"time":898.3340520000528,"velocity":0.8818897637795275,"duration":0.13078714166670125},{"name":"C2","midi":36,"time":898.4729410000529,"velocity":0.8818897637795275,"duration":0.13078714166670125},{"name":"C2","midi":36,"time":898.6118300000529,"velocity":0.8818897637795275,"duration":0.13078714166670125},{"name":"C2","midi":36,"time":898.750719000053,"velocity":0.8818897637795275,"duration":0.13078714166670125},{"name":"C3","midi":48,"time":898.889608000053,"velocity":0.8818897637795275,"duration":0.13078714166670125},{"name":"C2","midi":36,"time":899.0284970000531,"velocity":0.8818897637795275,"duration":0.13078714166670125},{"name":"C2","midi":36,"time":899.1673860000532,"velocity":0.8818897637795275,"duration":0.13078714166670125},{"name":"C2","midi":36,"time":899.3062750000532,"velocity":0.8818897637795275,"duration":0.13078714166670125},{"name":"C3","midi":48,"time":899.4451640000533,"velocity":0.8818897637795275,"duration":0.13078714166670125},{"name":"C2","midi":36,"time":899.5840530000534,"velocity":0.8818897637795275,"duration":0.13078714166670125},{"name":"B1","midi":35,"time":899.7229420000534,"velocity":0.8818897637795275,"duration":0.13078714166670125},{"name":"B1","midi":35,"time":899.8618310000535,"velocity":0.8818897637795275,"duration":0.13078714166670125},{"name":"B2","midi":47,"time":900.0007200000535,"velocity":0.8818897637795275,"duration":0.13078714166670125},{"name":"B1","midi":35,"time":900.1396090000536,"velocity":0.8818897637795275,"duration":0.13078714166670125},{"name":"B1","midi":35,"time":900.2784980000537,"velocity":0.8818897637795275,"duration":0.13078714166670125},{"name":"B1","midi":35,"time":900.4173870000537,"velocity":0.8818897637795275,"duration":0.13078714166670125},{"name":"B2","midi":47,"time":900.5562760000538,"velocity":0.8818897637795275,"duration":0.13078714166670125},{"name":"B1","midi":35,"time":900.6951650000539,"velocity":0.8818897637795275,"duration":0.13078714166670125},{"name":"B1","midi":35,"time":900.8340540000539,"velocity":0.8818897637795275,"duration":0.13078714166670125},{"name":"B1","midi":35,"time":900.972943000054,"velocity":0.8818897637795275,"duration":0.13078714166670125},{"name":"B2","midi":47,"time":901.111832000054,"velocity":0.8818897637795275,"duration":0.13078714166670125},{"name":"B1","midi":35,"time":901.2507210000541,"velocity":0.8818897637795275,"duration":0.13078714166670125},{"name":"B1","midi":35,"time":901.3896100000542,"velocity":0.8818897637795275,"duration":0.13078714166670125},{"name":"B1","midi":35,"time":901.5284990000542,"velocity":0.8818897637795275,"duration":0.13078714166670125},{"name":"B2","midi":47,"time":901.6673880000543,"velocity":0.8818897637795275,"duration":0.13078714166670125},{"name":"B1","midi":35,"time":901.8062770000544,"velocity":0.8818897637795275,"duration":0.13078714166670125},{"name":"D2","midi":38,"time":901.9451660000544,"velocity":0.8818897637795275,"duration":0.13078714166670125},{"name":"D2","midi":38,"time":902.0840550000545,"velocity":0.8818897637795275,"duration":0.13078714166670125},{"name":"D3","midi":50,"time":902.2229440000546,"velocity":0.8818897637795275,"duration":0.13078714166670125},{"name":"D2","midi":38,"time":902.3618330000546,"velocity":0.8818897637795275,"duration":0.13078714166670125},{"name":"D2","midi":38,"time":902.5007220000547,"velocity":0.8818897637795275,"duration":0.13078714166670125},{"name":"D2","midi":38,"time":902.6396110000547,"velocity":0.8818897637795275,"duration":0.13078714166670125},{"name":"D3","midi":50,"time":902.7785000000548,"velocity":0.8818897637795275,"duration":0.13078714166670125},{"name":"D2","midi":38,"time":902.9173890000549,"velocity":0.8818897637795275,"duration":0.13078714166670125},{"name":"D2","midi":38,"time":903.0562780000549,"velocity":0.8818897637795275,"duration":0.13078714166670125},{"name":"D2","midi":38,"time":903.195167000055,"velocity":0.8818897637795275,"duration":0.13078714166670125},{"name":"D3","midi":50,"time":903.334056000055,"velocity":0.8818897637795275,"duration":0.13078714166670125},{"name":"D2","midi":38,"time":903.4729450000551,"velocity":0.8818897637795275,"duration":0.13078714166670125},{"name":"D2","midi":38,"time":903.6118340000552,"velocity":0.8818897637795275,"duration":0.13078714166670125},{"name":"D2","midi":38,"time":903.7507230000552,"velocity":0.8818897637795275,"duration":0.13078714166670125},{"name":"D3","midi":50,"time":903.8896120000553,"velocity":0.8818897637795275,"duration":0.13078714166670125},{"name":"D2","midi":38,"time":904.0285010000554,"velocity":0.8818897637795275,"duration":0.13078714166670125},{"name":"C2","midi":36,"time":904.1673900000554,"velocity":0.8818897637795275,"duration":0.13078714166670125},{"name":"C2","midi":36,"time":904.3062790000555,"velocity":0.8818897637795275,"duration":0.13078714166670125},{"name":"C3","midi":48,"time":904.4451680000556,"velocity":0.8818897637795275,"duration":0.13078714166670125},{"name":"C2","midi":36,"time":904.5840570000556,"velocity":0.8818897637795275,"duration":0.13078714166670125},{"name":"C2","midi":36,"time":904.7229460000557,"velocity":0.8818897637795275,"duration":0.13078714166670125},{"name":"C2","midi":36,"time":904.8618350000557,"velocity":0.8818897637795275,"duration":0.13078714166670125},{"name":"C3","midi":48,"time":905.0007240000558,"velocity":0.8818897637795275,"duration":0.13078714166670125},{"name":"C2","midi":36,"time":905.1396130000559,"velocity":0.8818897637795275,"duration":0.13078714166670125},{"name":"C2","midi":36,"time":905.2785020000559,"velocity":0.8818897637795275,"duration":0.13078714166670125},{"name":"C2","midi":36,"time":905.417391000056,"velocity":0.8818897637795275,"duration":0.13078714166670125},{"name":"C3","midi":48,"time":905.5562800000561,"velocity":0.8818897637795275,"duration":0.13078714166670125},{"name":"C2","midi":36,"time":905.6951690000561,"velocity":0.8818897637795275,"duration":0.13078714166670125},{"name":"C2","midi":36,"time":905.8340580000562,"velocity":0.8818897637795275,"duration":0.13078714166670125},{"name":"C2","midi":36,"time":905.9729470000563,"velocity":0.8818897637795275,"duration":0.13078714166670125},{"name":"C3","midi":48,"time":906.1118360000563,"velocity":0.8818897637795275,"duration":0.13078714166670125},{"name":"C2","midi":36,"time":906.2507250000564,"velocity":0.8818897637795275,"duration":0.13078714166670125},{"name":"C2","midi":36,"time":906.3896140000564,"velocity":0.8818897637795275,"duration":0.13078714166670125},{"name":"C2","midi":36,"time":906.5285030000565,"velocity":0.8818897637795275,"duration":0.13078714166670125},{"name":"C3","midi":48,"time":906.6673920000566,"velocity":0.8818897637795275,"duration":0.13078714166670125},{"name":"C2","midi":36,"time":906.8062810000566,"velocity":0.8818897637795275,"duration":0.13078714166670125},{"name":"C2","midi":36,"time":906.9451700000567,"velocity":0.8818897637795275,"duration":0.13078714166670125},{"name":"C2","midi":36,"time":907.0840590000568,"velocity":0.8818897637795275,"duration":0.13078714166670125},{"name":"C3","midi":48,"time":907.2229480000568,"velocity":0.8818897637795275,"duration":0.13078714166670125},{"name":"C2","midi":36,"time":907.3618370000569,"velocity":0.8818897637795275,"duration":0.13078714166670125},{"name":"C2","midi":36,"time":907.5007260000569,"velocity":0.8818897637795275,"duration":0.13078714166670125},{"name":"C2","midi":36,"time":907.639615000057,"velocity":0.8818897637795275,"duration":0.13078714166670125},{"name":"C3","midi":48,"time":907.7785040000571,"velocity":0.8818897637795275,"duration":0.13078714166670125},{"name":"C2","midi":36,"time":907.9173930000571,"velocity":0.8818897637795275,"duration":0.13078714166670125},{"name":"C2","midi":36,"time":908.0562820000572,"velocity":0.8818897637795275,"duration":0.13078714166670125},{"name":"C2","midi":36,"time":908.1951710000573,"velocity":0.8818897637795275,"duration":0.13078714166670125},{"name":"C3","midi":48,"time":908.3340600000573,"velocity":0.8818897637795275,"duration":0.13078714166670125},{"name":"C2","midi":36,"time":908.4729490000574,"velocity":0.8818897637795275,"duration":0.13078714166670125},{"name":"D2","midi":38,"time":908.6118380000574,"velocity":0.8818897637795275,"duration":0.13078714166670125},{"name":"D2","midi":38,"time":908.7507270000575,"velocity":0.8818897637795275,"duration":0.13078714166670125},{"name":"D3","midi":50,"time":908.8896160000576,"velocity":0.8818897637795275,"duration":0.13078714166670125},{"name":"D2","midi":38,"time":909.0285050000576,"velocity":0.8818897637795275,"duration":0.13078714166670125},{"name":"D2","midi":38,"time":909.1673940000577,"velocity":0.8818897637795275,"duration":0.13078714166670125},{"name":"D2","midi":38,"time":909.3062830000578,"velocity":0.8818897637795275,"duration":0.13078714166670125},{"name":"D3","midi":50,"time":909.4451720000578,"velocity":0.8818897637795275,"duration":0.13078714166670125},{"name":"D2","midi":38,"time":909.5840610000579,"velocity":0.8818897637795275,"duration":0.13078714166670125},{"name":"D2","midi":38,"time":909.722950000058,"velocity":0.8818897637795275,"duration":0.13078714166670125},{"name":"D2","midi":38,"time":909.861839000058,"velocity":0.8818897637795275,"duration":0.13078714166670125},{"name":"D3","midi":50,"time":910.0007280000581,"velocity":0.8818897637795275,"duration":0.13078714166670125},{"name":"D2","midi":38,"time":910.1396170000581,"velocity":0.8818897637795275,"duration":0.13078714166670125},{"name":"D2","midi":38,"time":910.2785060000582,"velocity":0.8818897637795275,"duration":0.13078714166670125},{"name":"D2","midi":38,"time":910.4173950000583,"velocity":0.8818897637795275,"duration":0.13078714166670125},{"name":"D3","midi":50,"time":910.5562840000583,"velocity":0.8818897637795275,"duration":0.13078714166670125},{"name":"D2","midi":38,"time":910.6951730000584,"velocity":0.8818897637795275,"duration":0.13078714166670125},{"name":"F#2","midi":42,"time":910.8340620000585,"velocity":0.8818897637795275,"duration":0.13078714166670125},{"name":"F#2","midi":42,"time":910.9729510000585,"velocity":0.8818897637795275,"duration":0.13078714166670125},{"name":"F#3","midi":54,"time":911.1118400000586,"velocity":0.8818897637795275,"duration":0.13078714166670125},{"name":"F#2","midi":42,"time":911.2507290000586,"velocity":0.8818897637795275,"duration":0.13078714166670125},{"name":"F#2","midi":42,"time":911.3896180000587,"velocity":0.8818897637795275,"duration":0.13078714166670125},{"name":"F#2","midi":42,"time":911.5285070000588,"velocity":0.8818897637795275,"duration":0.13078714166670125},{"name":"F#3","midi":54,"time":911.6673960000588,"velocity":0.8818897637795275,"duration":0.13078714166670125},{"name":"F#2","midi":42,"time":911.8062850000589,"velocity":0.8818897637795275,"duration":0.13078714166670125},{"name":"F#2","midi":42,"time":911.945174000059,"velocity":0.8818897637795275,"duration":0.13078714166670125},{"name":"F#2","midi":42,"time":912.084063000059,"velocity":0.8818897637795275,"duration":0.13078714166670125},{"name":"F#3","midi":54,"time":912.2229520000591,"velocity":0.8818897637795275,"duration":0.13078714166670125},{"name":"F#2","midi":42,"time":912.3618410000591,"velocity":0.8818897637795275,"duration":0.13078714166670125},{"name":"F#2","midi":42,"time":912.5007300000592,"velocity":0.8818897637795275,"duration":0.13078714166670125},{"name":"F#2","midi":42,"time":912.6396190000593,"velocity":0.8818897637795275,"duration":0.13078714166670125},{"name":"F#3","midi":54,"time":912.7785080000593,"velocity":0.8818897637795275,"duration":0.13078714166670125},{"name":"F#2","midi":42,"time":912.9173970000594,"velocity":0.8818897637795275,"duration":0.13078714166670125},{"name":"C2","midi":36,"time":913.0562860000595,"velocity":0.8818897637795275,"duration":0.13078714166670125},{"name":"C2","midi":36,"time":913.1951750000595,"velocity":0.8818897637795275,"duration":0.13078714166670125},{"name":"C3","midi":48,"time":913.3340640000596,"velocity":0.8818897637795275,"duration":0.13078714166670125},{"name":"C2","midi":36,"time":913.4729530000596,"velocity":0.8818897637795275,"duration":0.13078714166670125},{"name":"C2","midi":36,"time":913.6118420000597,"velocity":0.8818897637795275,"duration":0.13078714166670125},{"name":"C2","midi":36,"time":913.7507310000598,"velocity":0.8818897637795275,"duration":0.13078714166670125},{"name":"C3","midi":48,"time":913.8896200000598,"velocity":0.8818897637795275,"duration":0.13078714166670125},{"name":"C2","midi":36,"time":914.0285090000599,"velocity":0.8818897637795275,"duration":0.13078714166670125},{"name":"C2","midi":36,"time":914.16739800006,"velocity":0.8818897637795275,"duration":0.13078714166670125},{"name":"C2","midi":36,"time":914.30628700006,"velocity":0.8818897637795275,"duration":0.13078714166670125},{"name":"C3","midi":48,"time":914.4451760000601,"velocity":0.8818897637795275,"duration":0.13078714166670125},{"name":"C2","midi":36,"time":914.5840650000601,"velocity":0.8818897637795275,"duration":0.13078714166670125},{"name":"C2","midi":36,"time":914.7229540000602,"velocity":0.8818897637795275,"duration":0.13078714166670125},{"name":"C2","midi":36,"time":914.8618430000603,"velocity":0.8818897637795275,"duration":0.13078714166670125},{"name":"C3","midi":48,"time":915.0007320000603,"velocity":0.8818897637795275,"duration":0.13078714166670125},{"name":"C2","midi":36,"time":915.1396210000604,"velocity":0.8818897637795275,"duration":0.13078714166670125},{"name":"C2","midi":36,"time":915.2785100000605,"velocity":0.8818897637795275,"duration":0.13078714166670125},{"name":"C2","midi":36,"time":915.4173990000605,"velocity":0.8818897637795275,"duration":0.13078714166670125},{"name":"C3","midi":48,"time":915.5562880000606,"velocity":0.8818897637795275,"duration":0.13078714166670125},{"name":"C2","midi":36,"time":915.6951770000607,"velocity":0.8818897637795275,"duration":0.13078714166670125},{"name":"C2","midi":36,"time":915.8340660000607,"velocity":0.8818897637795275,"duration":0.13078714166670125},{"name":"C2","midi":36,"time":915.9729550000608,"velocity":0.8818897637795275,"duration":0.13078714166670125},{"name":"C3","midi":48,"time":916.1118440000608,"velocity":0.8818897637795275,"duration":0.13078714166670125},{"name":"C2","midi":36,"time":916.2507330000609,"velocity":0.8818897637795275,"duration":0.13078714166670125},{"name":"C2","midi":36,"time":916.389622000061,"velocity":0.8818897637795275,"duration":0.13078714166670125},{"name":"C2","midi":36,"time":916.528511000061,"velocity":0.8818897637795275,"duration":0.13078714166670125},{"name":"C3","midi":48,"time":916.6674000000611,"velocity":0.8818897637795275,"duration":0.13078714166670125},{"name":"C2","midi":36,"time":916.8062890000612,"velocity":0.8818897637795275,"duration":0.13078714166670125},{"name":"C2","midi":36,"time":916.9451780000612,"velocity":0.8818897637795275,"duration":0.13078714166670125},{"name":"C2","midi":36,"time":917.0840670000613,"velocity":0.8818897637795275,"duration":0.13078714166670125},{"name":"C3","midi":48,"time":917.2229560000613,"velocity":0.8818897637795275,"duration":0.13078714166670125},{"name":"C2","midi":36,"time":917.3618450000614,"velocity":0.8818897637795275,"duration":0.13078714166670125},{"name":"B1","midi":35,"time":917.5007340000615,"velocity":0.8818897637795275,"duration":0.13078714166670125},{"name":"B1","midi":35,"time":917.6396230000615,"velocity":0.8818897637795275,"duration":0.13078714166670125},{"name":"B2","midi":47,"time":917.7785120000616,"velocity":0.8818897637795275,"duration":0.13078714166670125},{"name":"B1","midi":35,"time":917.9174010000617,"velocity":0.8818897637795275,"duration":0.13078714166670125},{"name":"B1","midi":35,"time":918.0562900000617,"velocity":0.8818897637795275,"duration":0.13078714166670125},{"name":"B1","midi":35,"time":918.1951790000618,"velocity":0.8818897637795275,"duration":0.13078714166670125},{"name":"B2","midi":47,"time":918.3340680000618,"velocity":0.8818897637795275,"duration":0.13078714166670125},{"name":"B1","midi":35,"time":918.4729570000619,"velocity":0.8818897637795275,"duration":0.13078714166670125},{"name":"B1","midi":35,"time":918.611846000062,"velocity":0.8818897637795275,"duration":0.13078714166670125},{"name":"B1","midi":35,"time":918.750735000062,"velocity":0.8818897637795275,"duration":0.13078714166670125},{"name":"B2","midi":47,"time":918.8896240000621,"velocity":0.8818897637795275,"duration":0.13078714166670125},{"name":"B1","midi":35,"time":919.0285130000622,"velocity":0.8818897637795275,"duration":0.13078714166670125},{"name":"B1","midi":35,"time":919.1674020000622,"velocity":0.8818897637795275,"duration":0.13078714166670125},{"name":"B1","midi":35,"time":919.3062910000623,"velocity":0.8818897637795275,"duration":0.13078714166670125},{"name":"B2","midi":47,"time":919.4451800000624,"velocity":0.8818897637795275,"duration":0.13078714166670125},{"name":"B1","midi":35,"time":919.5840690000624,"velocity":0.8818897637795275,"duration":0.13078714166670125},{"name":"D2","midi":38,"time":919.7229580000625,"velocity":0.8818897637795275,"duration":0.13078714166670125},{"name":"D2","midi":38,"time":919.8618470000625,"velocity":0.8818897637795275,"duration":0.13078714166670125},{"name":"D3","midi":50,"time":920.0007360000626,"velocity":0.8818897637795275,"duration":0.13078714166670125},{"name":"D2","midi":38,"time":920.1396250000627,"velocity":0.8818897637795275,"duration":0.13078714166670125},{"name":"D2","midi":38,"time":920.2785140000627,"velocity":0.8818897637795275,"duration":0.13078714166670125},{"name":"D2","midi":38,"time":920.4174030000628,"velocity":0.8818897637795275,"duration":0.13078714166670125},{"name":"D3","midi":50,"time":920.5562920000629,"velocity":0.8818897637795275,"duration":0.13078714166670125},{"name":"D2","midi":38,"time":920.6951810000629,"velocity":0.8818897637795275,"duration":0.13078714166670125},{"name":"D2","midi":38,"time":920.834070000063,"velocity":0.8818897637795275,"duration":0.13078714166670125},{"name":"D2","midi":38,"time":920.972959000063,"velocity":0.8818897637795275,"duration":0.13078714166670125},{"name":"D3","midi":50,"time":921.1118480000631,"velocity":0.8818897637795275,"duration":0.13078714166670125},{"name":"D2","midi":38,"time":921.2507370000632,"velocity":0.8818897637795275,"duration":0.13078714166670125},{"name":"D2","midi":38,"time":921.3896260000632,"velocity":0.8818897637795275,"duration":0.13078714166670125},{"name":"D2","midi":38,"time":921.5285150000633,"velocity":0.8818897637795275,"duration":0.13078714166670125},{"name":"D3","midi":50,"time":921.6674040000634,"velocity":0.8818897637795275,"duration":0.13078714166670125},{"name":"D2","midi":38,"time":921.8062930000634,"velocity":0.8818897637795275,"duration":0.13078714166670125},{"name":"C2","midi":36,"time":921.9451820000635,"velocity":0.8818897637795275,"duration":0.13078714166670125},{"name":"C2","midi":36,"time":922.0840710000635,"velocity":0.8818897637795275,"duration":0.13078714166670125},{"name":"C3","midi":48,"time":922.2229600000636,"velocity":0.8818897637795275,"duration":0.13078714166670125},{"name":"C2","midi":36,"time":922.3618490000637,"velocity":0.8818897637795275,"duration":0.13078714166670125},{"name":"C2","midi":36,"time":922.5007380000637,"velocity":0.8818897637795275,"duration":0.13078714166670125},{"name":"C2","midi":36,"time":922.6396270000638,"velocity":0.8818897637795275,"duration":0.13078714166670125},{"name":"C3","midi":48,"time":922.7785160000639,"velocity":0.8818897637795275,"duration":0.13078714166670125},{"name":"C2","midi":36,"time":922.9174050000639,"velocity":0.8818897637795275,"duration":0.13078714166670125},{"name":"C2","midi":36,"time":923.056294000064,"velocity":0.8818897637795275,"duration":0.13078714166670125},{"name":"C2","midi":36,"time":923.195183000064,"velocity":0.8818897637795275,"duration":0.13078714166670125},{"name":"C3","midi":48,"time":923.3340720000641,"velocity":0.8818897637795275,"duration":0.13078714166670125},{"name":"C2","midi":36,"time":923.4729610000642,"velocity":0.8818897637795275,"duration":0.13078714166670125},{"name":"C2","midi":36,"time":923.6118500000642,"velocity":0.8818897637795275,"duration":0.13078714166670125},{"name":"C2","midi":36,"time":923.7507390000643,"velocity":0.8818897637795275,"duration":0.13078714166670125},{"name":"C3","midi":48,"time":923.8896280000644,"velocity":0.8818897637795275,"duration":0.13078714166670125},{"name":"C2","midi":36,"time":924.0285170000644,"velocity":0.8818897637795275,"duration":0.13078714166670125},{"name":"C2","midi":36,"time":924.1674060000645,"velocity":0.8818897637795275,"duration":0.13078714166670125},{"name":"C2","midi":36,"time":924.3062950000646,"velocity":0.8818897637795275,"duration":0.13078714166670125},{"name":"C3","midi":48,"time":924.4451840000646,"velocity":0.8818897637795275,"duration":0.13078714166670125},{"name":"C2","midi":36,"time":924.5840730000647,"velocity":0.8818897637795275,"duration":0.13078714166670125},{"name":"C2","midi":36,"time":924.7229620000647,"velocity":0.8818897637795275,"duration":0.13078714166670125},{"name":"C2","midi":36,"time":924.8618510000648,"velocity":0.8818897637795275,"duration":0.13078714166670125},{"name":"C3","midi":48,"time":925.0007400000649,"velocity":0.8818897637795275,"duration":0.13078714166670125},{"name":"C2","midi":36,"time":925.1396290000649,"velocity":0.8818897637795275,"duration":0.13078714166670125},{"name":"C2","midi":36,"time":925.278518000065,"velocity":0.8818897637795275,"duration":0.13078714166670125},{"name":"C2","midi":36,"time":925.417407000065,"velocity":0.8818897637795275,"duration":0.13078714166670125},{"name":"C3","midi":48,"time":925.5562960000651,"velocity":0.8818897637795275,"duration":0.13078714166670125},{"name":"C2","midi":36,"time":925.6951850000652,"velocity":0.8818897637795275,"duration":0.13078714166670125},{"name":"C2","midi":36,"time":925.8340740000652,"velocity":0.8818897637795275,"duration":0.13078714166670125},{"name":"C2","midi":36,"time":925.9729630000653,"velocity":0.8818897637795275,"duration":0.13078714166670125},{"name":"C3","midi":48,"time":926.1118520000654,"velocity":0.8818897637795275,"duration":0.13078714166670125},{"name":"C2","midi":36,"time":926.2507410000654,"velocity":0.8818897637795275,"duration":0.13078714166670125},{"name":"D2","midi":38,"time":926.3896300000655,"velocity":0.8818897637795275,"duration":0.13078714166670125},{"name":"D2","midi":38,"time":926.5285190000656,"velocity":0.8818897637795275,"duration":0.13078714166670125},{"name":"D3","midi":50,"time":926.6674080000656,"velocity":0.8818897637795275,"duration":0.13078714166670125},{"name":"D2","midi":38,"time":926.8062970000657,"velocity":0.8818897637795275,"duration":0.13078714166670125},{"name":"D2","midi":38,"time":926.9451860000657,"velocity":0.8818897637795275,"duration":0.13078714166670125},{"name":"D2","midi":38,"time":927.0840750000658,"velocity":0.8818897637795275,"duration":0.13078714166670125},{"name":"D3","midi":50,"time":927.2229640000659,"velocity":0.8818897637795275,"duration":0.13078714166670125},{"name":"D2","midi":38,"time":927.3618530000659,"velocity":0.8818897637795275,"duration":0.13078714166670125},{"name":"D2","midi":38,"time":927.500742000066,"velocity":0.8818897637795275,"duration":0.13078714166670125},{"name":"D2","midi":38,"time":927.6396310000661,"velocity":0.8818897637795275,"duration":0.13078714166670125},{"name":"D3","midi":50,"time":927.7785200000661,"velocity":0.8818897637795275,"duration":0.13078714166670125},{"name":"D2","midi":38,"time":927.9174090000662,"velocity":0.8818897637795275,"duration":0.13078714166670125},{"name":"D2","midi":38,"time":928.0562980000662,"velocity":0.8818897637795275,"duration":0.13078714166670125},{"name":"D2","midi":38,"time":928.1951870000663,"velocity":0.8818897637795275,"duration":0.13078714166670125},{"name":"D3","midi":50,"time":928.3340760000664,"velocity":0.8818897637795275,"duration":0.13078714166670125},{"name":"D2","midi":38,"time":928.4729650000664,"velocity":0.8818897637795275,"duration":0.13078714166670125},{"name":"F#2","midi":42,"time":928.6118540000665,"velocity":0.8818897637795275,"duration":0.13078714166670125},{"name":"F#2","midi":42,"time":928.7507430000666,"velocity":0.8818897637795275,"duration":0.13078714166670125},{"name":"F#3","midi":54,"time":928.8896320000666,"velocity":0.8818897637795275,"duration":0.13078714166670125},{"name":"F#2","midi":42,"time":929.0285210000667,"velocity":0.8818897637795275,"duration":0.13078714166670125},{"name":"F#2","midi":42,"time":929.1674100000668,"velocity":0.8818897637795275,"duration":0.13078714166670125},{"name":"F#2","midi":42,"time":929.3062990000668,"velocity":0.8818897637795275,"duration":0.13078714166670125},{"name":"F#3","midi":54,"time":929.4451880000669,"velocity":0.8818897637795275,"duration":0.13078714166670125},{"name":"F#2","midi":42,"time":929.5840770000669,"velocity":0.8818897637795275,"duration":0.13078714166670125},{"name":"F#2","midi":42,"time":929.722966000067,"velocity":0.8818897637795275,"duration":0.13078714166670125},{"name":"F#2","midi":42,"time":929.8618550000671,"velocity":0.8818897637795275,"duration":0.13078714166670125},{"name":"F#3","midi":54,"time":930.0007440000671,"velocity":0.8818897637795275,"duration":0.13078714166670125},{"name":"F#2","midi":42,"time":930.1396330000672,"velocity":0.8818897637795275,"duration":0.13078714166670125},{"name":"F#2","midi":42,"time":930.2785220000673,"velocity":0.8818897637795275,"duration":0.13078714166670125},{"name":"F#2","midi":42,"time":930.4174110000673,"velocity":0.8818897637795275,"duration":0.13078714166670125},{"name":"F#3","midi":54,"time":930.5563000000674,"velocity":0.8818897637795275,"duration":0.13078714166670125},{"name":"F#2","midi":42,"time":930.6951890000674,"velocity":0.8818897637795275,"duration":0.13078714166670125},{"name":"C2","midi":36,"time":933.0563020000674,"velocity":0.8818897637795275,"duration":1.0543989916666305},{"name":"C3","midi":48,"time":933.0563020000674,"velocity":0.8818897637795275,"duration":1.0543989916666305},{"name":"C4","midi":60,"time":933.0563020000674,"velocity":0.8818897637795275,"duration":1.0543989916666305},{"name":"C2","midi":36,"time":934.1674140000673,"velocity":0.8818897637795275,"duration":1.0543989916666305},{"name":"C3","midi":48,"time":934.1674140000673,"velocity":0.8818897637795275,"duration":1.0543989916666305},{"name":"G3","midi":55,"time":934.1674140000673,"velocity":0.8818897637795275,"duration":1.0543989916666305},{"name":"C2","midi":36,"time":935.2785260000672,"velocity":0.8818897637795275,"duration":1.0543989916667442},{"name":"C3","midi":48,"time":935.2785260000672,"velocity":0.8818897637795275,"duration":1.0543989916667442},{"name":"C4","midi":60,"time":935.2785260000672,"velocity":0.8818897637795275,"duration":1.0543989916667442},{"name":"C2","midi":36,"time":936.3896380000673,"velocity":0.8818897637795275,"duration":1.0543989916666305},{"name":"C3","midi":48,"time":936.3896380000673,"velocity":0.8818897637795275,"duration":1.0543989916666305},{"name":"G3","midi":55,"time":936.3896380000673,"velocity":0.8818897637795275,"duration":1.0543989916666305},{"name":"A#1","midi":34,"time":937.5007500000672,"velocity":0.8818897637795275,"duration":1.0543989916667442},{"name":"A#2","midi":46,"time":937.5007500000672,"velocity":0.8818897637795275,"duration":1.0543989916667442},{"name":"A#3","midi":58,"time":937.5007500000672,"velocity":0.8818897637795275,"duration":1.0543989916667442},{"name":"A#1","midi":34,"time":938.6118620000673,"velocity":0.8818897637795275,"duration":1.0543989916666305},{"name":"A#2","midi":46,"time":938.6118620000673,"velocity":0.8818897637795275,"duration":1.0543989916666305},{"name":"F3","midi":53,"time":938.6118620000673,"velocity":0.8818897637795275,"duration":1.0543989916666305},{"name":"A#1","midi":34,"time":939.7229740000672,"velocity":0.8818897637795275,"duration":1.0543989916667442},{"name":"A#2","midi":46,"time":939.7229740000672,"velocity":0.8818897637795275,"duration":1.0543989916667442},{"name":"A#3","midi":58,"time":939.7229740000672,"velocity":0.8818897637795275,"duration":1.0543989916667442},{"name":"A#1","midi":34,"time":940.8340860000673,"velocity":0.8818897637795275,"duration":1.0543989916666305},{"name":"A#2","midi":46,"time":940.8340860000673,"velocity":0.8818897637795275,"duration":1.0543989916666305},{"name":"F3","midi":53,"time":940.8340860000673,"velocity":0.8818897637795275,"duration":1.0543989916666305},{"name":"G#1","midi":32,"time":941.9451980000672,"velocity":0.8818897637795275,"duration":1.0543989916667442},{"name":"G#2","midi":44,"time":941.9451980000672,"velocity":0.8818897637795275,"duration":1.0543989916667442},{"name":"G#3","midi":56,"time":941.9451980000672,"velocity":0.8818897637795275,"duration":1.0543989916667442},{"name":"G#1","midi":32,"time":943.0563100000672,"velocity":0.8818897637795275,"duration":1.0543989916666305},{"name":"G#2","midi":44,"time":943.0563100000672,"velocity":0.8818897637795275,"duration":1.0543989916666305},{"name":"D#3","midi":51,"time":943.0563100000672,"velocity":0.8818897637795275,"duration":1.0543989916666305},{"name":"G#1","midi":32,"time":944.1674220000672,"velocity":0.8818897637795275,"duration":1.0543989916667442},{"name":"G#2","midi":44,"time":944.1674220000672,"velocity":0.8818897637795275,"duration":1.0543989916667442},{"name":"G#3","midi":56,"time":944.1674220000672,"velocity":0.8818897637795275,"duration":1.0543989916667442},{"name":"G#1","midi":32,"time":945.2785340000672,"velocity":0.8818897637795275,"duration":1.0543989916666305},{"name":"G#2","midi":44,"time":945.2785340000672,"velocity":0.8818897637795275,"duration":1.0543989916666305},{"name":"D#3","midi":51,"time":945.2785340000672,"velocity":0.8818897637795275,"duration":1.0543989916666305},{"name":"G#1","midi":32,"time":946.3896460000672,"velocity":0.8818897637795275,"duration":1.0543989916667442},{"name":"G#2","midi":44,"time":946.3896460000672,"velocity":0.8818897637795275,"duration":1.0543989916667442},{"name":"G#3","midi":56,"time":946.3896460000672,"velocity":0.8818897637795275,"duration":1.0543989916667442},{"name":"G#1","midi":32,"time":947.5007580000672,"velocity":0.8818897637795275,"duration":1.0543989916666305},{"name":"G#2","midi":44,"time":947.5007580000672,"velocity":0.8818897637795275,"duration":1.0543989916666305},{"name":"D#3","midi":51,"time":947.5007580000672,"velocity":0.8818897637795275,"duration":1.0543989916666305},{"name":"A#1","midi":34,"time":948.6118700000671,"velocity":0.8818897637795275,"duration":1.0543989916667442},{"name":"A#2","midi":46,"time":948.6118700000671,"velocity":0.8818897637795275,"duration":1.0543989916667442},{"name":"A#3","midi":58,"time":948.6118700000671,"velocity":0.8818897637795275,"duration":1.0543989916667442},{"name":"A#1","midi":34,"time":949.7229820000672,"velocity":0.8818897637795275,"duration":1.0543989916666305},{"name":"A#2","midi":46,"time":949.7229820000672,"velocity":0.8818897637795275,"duration":1.0543989916666305},{"name":"F3","midi":53,"time":949.7229820000672,"velocity":0.8818897637795275,"duration":1.0543989916666305},{"name":"C2","midi":36,"time":950.8340940000671,"velocity":0.8818897637795275,"duration":1.0543989916667442},{"name":"C3","midi":48,"time":950.8340940000671,"velocity":0.8818897637795275,"duration":1.0543989916667442},{"name":"C4","midi":60,"time":950.8340940000671,"velocity":0.8818897637795275,"duration":1.0543989916667442},{"name":"C2","midi":36,"time":951.9452060000672,"velocity":0.8818897637795275,"duration":1.0543989916666305},{"name":"C3","midi":48,"time":951.9452060000672,"velocity":0.8818897637795275,"duration":1.0543989916666305},{"name":"G3","midi":55,"time":951.9452060000672,"velocity":0.8818897637795275,"duration":1.0543989916666305},{"name":"C2","midi":36,"time":953.0563180000671,"velocity":0.8818897637795275,"duration":1.0543989916667442},{"name":"C3","midi":48,"time":953.0563180000671,"velocity":0.8818897637795275,"duration":1.0543989916667442},{"name":"C4","midi":60,"time":953.0563180000671,"velocity":0.8818897637795275,"duration":1.0543989916667442},{"name":"C2","midi":36,"time":954.1674300000672,"velocity":0.8818897637795275,"duration":1.0543989916666305},{"name":"C3","midi":48,"time":954.1674300000672,"velocity":0.8818897637795275,"duration":1.0543989916666305},{"name":"G3","midi":55,"time":954.1674300000672,"velocity":0.8818897637795275,"duration":1.0543989916666305},{"name":"A#1","midi":34,"time":955.2785420000671,"velocity":0.8818897637795275,"duration":1.0543989916667442},{"name":"A#2","midi":46,"time":955.2785420000671,"velocity":0.8818897637795275,"duration":1.0543989916667442},{"name":"A#3","midi":58,"time":955.2785420000671,"velocity":0.8818897637795275,"duration":1.0543989916667442},{"name":"A#1","midi":34,"time":956.3896540000671,"velocity":0.8818897637795275,"duration":1.0543989916666305},{"name":"A#2","midi":46,"time":956.3896540000671,"velocity":0.8818897637795275,"duration":1.0543989916666305},{"name":"F3","midi":53,"time":956.3896540000671,"velocity":0.8818897637795275,"duration":1.0543989916666305},{"name":"A#1","midi":34,"time":957.5007660000671,"velocity":0.8818897637795275,"duration":1.0543989916667442},{"name":"A#2","midi":46,"time":957.5007660000671,"velocity":0.8818897637795275,"duration":1.0543989916667442},{"name":"A#3","midi":58,"time":957.5007660000671,"velocity":0.8818897637795275,"duration":1.0543989916667442},{"name":"A#1","midi":34,"time":958.6118780000671,"velocity":0.8818897637795275,"duration":1.0543989916666305},{"name":"A#2","midi":46,"time":958.6118780000671,"velocity":0.8818897637795275,"duration":1.0543989916666305},{"name":"F3","midi":53,"time":958.6118780000671,"velocity":0.8818897637795275,"duration":1.0543989916666305},{"name":"C2","midi":36,"time":959.722990000067,"velocity":0.8818897637795275,"duration":1.0543989916667442},{"name":"C3","midi":48,"time":959.722990000067,"velocity":0.8818897637795275,"duration":1.0543989916667442},{"name":"C4","midi":60,"time":959.722990000067,"velocity":0.8818897637795275,"duration":1.0543989916667442},{"name":"C2","midi":36,"time":960.8341020000671,"velocity":0.8818897637795275,"duration":1.0543989916666305},{"name":"C3","midi":48,"time":960.8341020000671,"velocity":0.8818897637795275,"duration":1.0543989916666305},{"name":"G3","midi":55,"time":960.8341020000671,"velocity":0.8818897637795275,"duration":1.0543989916666305},{"name":"C2","midi":36,"time":961.945214000067,"velocity":0.8818897637795275,"duration":1.0543989916667442},{"name":"C3","midi":48,"time":961.945214000067,"velocity":0.8818897637795275,"duration":1.0543989916667442},{"name":"C4","midi":60,"time":961.945214000067,"velocity":0.8818897637795275,"duration":1.0543989916667442},{"name":"C2","midi":36,"time":963.0563260000671,"velocity":0.8818897637795275,"duration":1.0543989916666305},{"name":"C3","midi":48,"time":963.0563260000671,"velocity":0.8818897637795275,"duration":1.0543989916666305},{"name":"G3","midi":55,"time":963.0563260000671,"velocity":0.8818897637795275,"duration":1.0543989916666305},{"name":"B1","midi":35,"time":964.167438000067,"velocity":0.8818897637795275,"duration":1.0543989916667442},{"name":"B2","midi":47,"time":964.167438000067,"velocity":0.8818897637795275,"duration":1.0543989916667442},{"name":"B3","midi":59,"time":964.167438000067,"velocity":0.8818897637795275,"duration":1.0543989916667442},{"name":"B2","midi":47,"time":965.2785500000671,"velocity":0.8818897637795275,"duration":1.0543989916666305},{"name":"G3","midi":55,"time":965.2785500000671,"velocity":0.8818897637795275,"duration":1.0543989916666305},{"name":"B3","midi":59,"time":965.2785500000671,"velocity":0.8818897637795275,"duration":1.0543989916666305},{"name":"B1","midi":35,"time":966.389662000067,"velocity":0.8818897637795275,"duration":1.0543989916667442},{"name":"B2","midi":47,"time":966.389662000067,"velocity":0.8818897637795275,"duration":1.0543989916667442},{"name":"B3","midi":59,"time":966.389662000067,"velocity":0.8818897637795275,"duration":1.0543989916667442},{"name":"B2","midi":47,"time":967.500774000067,"velocity":0.8818897637795275,"duration":1.0543989916666305},{"name":"G3","midi":55,"time":967.500774000067,"velocity":0.8818897637795275,"duration":1.0543989916666305},{"name":"B3","midi":59,"time":967.500774000067,"velocity":0.8818897637795275,"duration":1.0543989916666305},{"name":"G#1","midi":32,"time":968.611886000067,"velocity":0.8818897637795275,"duration":0.5266207916666872},{"name":"G#2","midi":44,"time":968.611886000067,"velocity":0.8818897637795275,"duration":0.5266207916666872},{"name":"G#3","midi":56,"time":968.611886000067,"velocity":0.8818897637795275,"duration":0.5266207916666872},{"name":"G#1","midi":32,"time":969.167442000067,"velocity":0.8818897637795275,"duration":0.5266207916666872},{"name":"G#2","midi":44,"time":969.167442000067,"velocity":0.8818897637795275,"duration":0.5266207916666872},{"name":"G#3","midi":56,"time":969.167442000067,"velocity":0.8818897637795275,"duration":0.5266207916666872},{"name":"G#1","midi":32,"time":969.722998000067,"velocity":0.8818897637795275,"duration":0.7905098916667157},{"name":"G#2","midi":44,"time":969.722998000067,"velocity":0.8818897637795275,"duration":0.7905098916667157},{"name":"D#3","midi":51,"time":969.722998000067,"velocity":0.8818897637795275,"duration":0.7905098916667157},{"name":"G#3","midi":56,"time":969.722998000067,"velocity":0.8818897637795275,"duration":0.7905098916667157},{"name":"G#1","midi":32,"time":970.5563320000671,"velocity":0.8818897637795275,"duration":0.26273169166665866},{"name":"G#2","midi":44,"time":970.5563320000671,"velocity":0.8818897637795275,"duration":0.26273169166665866},{"name":"D#3","midi":51,"time":970.5563320000671,"velocity":0.8818897637795275,"duration":0.26273169166665866},{"name":"G#3","midi":56,"time":970.5563320000671,"velocity":0.8818897637795275,"duration":0.26273169166665866},{"name":"G#1","midi":32,"time":970.8341100000671,"velocity":0.8818897637795275,"duration":0.5266207916666872},{"name":"G#2","midi":44,"time":970.8341100000671,"velocity":0.8818897637795275,"duration":0.5266207916666872},{"name":"G#3","midi":56,"time":970.8341100000671,"velocity":0.8818897637795275,"duration":0.5266207916666872},{"name":"G#1","midi":32,"time":971.3896660000671,"velocity":0.8818897637795275,"duration":0.5266207916666872},{"name":"G#2","midi":44,"time":971.3896660000671,"velocity":0.8818897637795275,"duration":0.5266207916666872},{"name":"G#3","midi":56,"time":971.3896660000671,"velocity":0.8818897637795275,"duration":0.5266207916666872},{"name":"G#1","midi":32,"time":971.9452220000671,"velocity":0.8818897637795275,"duration":0.7905098916667157},{"name":"G#2","midi":44,"time":971.9452220000671,"velocity":0.8818897637795275,"duration":0.7905098916667157},{"name":"D#3","midi":51,"time":971.9452220000671,"velocity":0.8818897637795275,"duration":0.7905098916667157},{"name":"G#3","midi":56,"time":971.9452220000671,"velocity":0.8818897637795275,"duration":0.7905098916667157},{"name":"G#1","midi":32,"time":972.7785560000672,"velocity":0.8818897637795275,"duration":0.26273169166665866},{"name":"G#2","midi":44,"time":972.7785560000672,"velocity":0.8818897637795275,"duration":0.26273169166665866},{"name":"D#3","midi":51,"time":972.7785560000672,"velocity":0.8818897637795275,"duration":0.26273169166665866},{"name":"G#3","midi":56,"time":972.7785560000672,"velocity":0.8818897637795275,"duration":0.26273169166665866},{"name":"A#1","midi":34,"time":973.0563340000672,"velocity":0.8818897637795275,"duration":0.5266207916666872},{"name":"A#2","midi":46,"time":973.0563340000672,"velocity":0.8818897637795275,"duration":0.5266207916666872},{"name":"A#3","midi":58,"time":973.0563340000672,"velocity":0.8818897637795275,"duration":0.5266207916666872},{"name":"A#1","midi":34,"time":973.6118900000672,"velocity":0.8818897637795275,"duration":0.5266207916666872},{"name":"A#2","midi":46,"time":973.6118900000672,"velocity":0.8818897637795275,"duration":0.5266207916666872},{"name":"A#3","midi":58,"time":973.6118900000672,"velocity":0.8818897637795275,"duration":0.5266207916666872},{"name":"A#1","midi":34,"time":974.1674460000672,"velocity":0.8818897637795275,"duration":0.7905098916667157},{"name":"A#2","midi":46,"time":974.1674460000672,"velocity":0.8818897637795275,"duration":0.7905098916667157},{"name":"F3","midi":53,"time":974.1674460000672,"velocity":0.8818897637795275,"duration":0.7905098916667157},{"name":"A#3","midi":58,"time":974.1674460000672,"velocity":0.8818897637795275,"duration":0.7905098916667157},{"name":"A#1","midi":34,"time":975.0007800000673,"velocity":0.8818897637795275,"duration":0.26273169166665866},{"name":"A#2","midi":46,"time":975.0007800000673,"velocity":0.8818897637795275,"duration":0.26273169166665866},{"name":"F3","midi":53,"time":975.0007800000673,"velocity":0.8818897637795275,"duration":0.26273169166665866},{"name":"A#3","midi":58,"time":975.0007800000673,"velocity":0.8818897637795275,"duration":0.26273169166665866},{"name":"A#1","midi":34,"time":975.2785580000673,"velocity":0.8818897637795275,"duration":0.5266207916666872},{"name":"A#2","midi":46,"time":975.2785580000673,"velocity":0.8818897637795275,"duration":0.5266207916666872},{"name":"A#3","midi":58,"time":975.2785580000673,"velocity":0.8818897637795275,"duration":0.5266207916666872},{"name":"A#1","midi":34,"time":975.8341140000673,"velocity":0.8818897637795275,"duration":0.5266207916666872},{"name":"A#2","midi":46,"time":975.8341140000673,"velocity":0.8818897637795275,"duration":0.5266207916666872},{"name":"A#3","midi":58,"time":975.8341140000673,"velocity":0.8818897637795275,"duration":0.5266207916666872},{"name":"A#1","midi":34,"time":976.3896700000673,"velocity":0.8818897637795275,"duration":0.7905098916667157},{"name":"A#2","midi":46,"time":976.3896700000673,"velocity":0.8818897637795275,"duration":0.7905098916667157},{"name":"F3","midi":53,"time":976.3896700000673,"velocity":0.8818897637795275,"duration":0.7905098916667157},{"name":"A#3","midi":58,"time":976.3896700000673,"velocity":0.8818897637795275,"duration":0.7905098916667157},{"name":"A#1","midi":34,"time":977.2230040000674,"velocity":0.8818897637795275,"duration":0.26273169166665866},{"name":"A#2","midi":46,"time":977.2230040000674,"velocity":0.8818897637795275,"duration":0.26273169166665866},{"name":"F3","midi":53,"time":977.2230040000674,"velocity":0.8818897637795275,"duration":0.26273169166665866},{"name":"A#3","midi":58,"time":977.2230040000674,"velocity":0.8818897637795275,"duration":0.26273169166665866},{"name":"C2","midi":36,"time":977.5007820000674,"velocity":0.8818897637795275,"duration":0.5266207916666872},{"name":"C3","midi":48,"time":977.5007820000674,"velocity":0.8818897637795275,"duration":0.5266207916666872},{"name":"C4","midi":60,"time":977.5007820000674,"velocity":0.8818897637795275,"duration":0.5266207916666872},{"name":"C2","midi":36,"time":978.0563380000674,"velocity":0.8818897637795275,"duration":0.5266207916666872},{"name":"C3","midi":48,"time":978.0563380000674,"velocity":0.8818897637795275,"duration":0.5266207916666872},{"name":"C4","midi":60,"time":978.0563380000674,"velocity":0.8818897637795275,"duration":0.5266207916666872},{"name":"C2","midi":36,"time":978.6118940000674,"velocity":0.8818897637795275,"duration":0.7905098916667157},{"name":"C3","midi":48,"time":978.6118940000674,"velocity":0.8818897637795275,"duration":0.7905098916667157},{"name":"G3","midi":55,"time":978.6118940000674,"velocity":0.8818897637795275,"duration":0.7905098916667157},{"name":"C4","midi":60,"time":978.6118940000674,"velocity":0.8818897637795275,"duration":0.7905098916667157},{"name":"C2","midi":36,"time":979.4452280000675,"velocity":0.8818897637795275,"duration":0.26273169166665866},{"name":"C3","midi":48,"time":979.4452280000675,"velocity":0.8818897637795275,"duration":0.26273169166665866},{"name":"G3","midi":55,"time":979.4452280000675,"velocity":0.8818897637795275,"duration":0.26273169166665866},{"name":"C4","midi":60,"time":979.4452280000675,"velocity":0.8818897637795275,"duration":0.26273169166665866},{"name":"B1","midi":35,"time":979.7230060000675,"velocity":0.8818897637795275,"duration":0.5266207916666872},{"name":"B2","midi":47,"time":979.7230060000675,"velocity":0.8818897637795275,"duration":0.5266207916666872},{"name":"B3","midi":59,"time":979.7230060000675,"velocity":0.8818897637795275,"duration":0.5266207916666872},{"name":"B1","midi":35,"time":980.2785620000675,"velocity":0.8818897637795275,"duration":0.5266207916666872},{"name":"B2","midi":47,"time":980.2785620000675,"velocity":0.8818897637795275,"duration":0.5266207916666872},{"name":"B3","midi":59,"time":980.2785620000675,"velocity":0.8818897637795275,"duration":0.5266207916666872},{"name":"B1","midi":35,"time":980.8341180000675,"velocity":0.8818897637795275,"duration":0.7905098916667157},{"name":"B2","midi":47,"time":980.8341180000675,"velocity":0.8818897637795275,"duration":0.7905098916667157},{"name":"G3","midi":55,"time":980.8341180000675,"velocity":0.8818897637795275,"duration":0.7905098916667157},{"name":"B3","midi":59,"time":980.8341180000675,"velocity":0.8818897637795275,"duration":0.7905098916667157},{"name":"B1","midi":35,"time":981.6674520000676,"velocity":0.8818897637795275,"duration":0.26273169166665866},{"name":"B2","midi":47,"time":981.6674520000676,"velocity":0.8818897637795275,"duration":0.26273169166665866},{"name":"G3","midi":55,"time":981.6674520000676,"velocity":0.8818897637795275,"duration":0.26273169166665866},{"name":"B3","midi":59,"time":981.6674520000676,"velocity":0.8818897637795275,"duration":0.26273169166665866},{"name":"A#1","midi":34,"time":981.9452300000676,"velocity":0.8818897637795275,"duration":0.5266207916666872},{"name":"A#2","midi":46,"time":981.9452300000676,"velocity":0.8818897637795275,"duration":0.5266207916666872},{"name":"A#3","midi":58,"time":981.9452300000676,"velocity":0.8818897637795275,"duration":0.5266207916666872},{"name":"A#1","midi":34,"time":982.5007860000676,"velocity":0.8818897637795275,"duration":0.5266207916666872},{"name":"A#2","midi":46,"time":982.5007860000676,"velocity":0.8818897637795275,"duration":0.5266207916666872},{"name":"A#3","midi":58,"time":982.5007860000676,"velocity":0.8818897637795275,"duration":0.5266207916666872},{"name":"A#1","midi":34,"time":983.0563420000676,"velocity":0.8818897637795275,"duration":0.7905098916667157},{"name":"A#2","midi":46,"time":983.0563420000676,"velocity":0.8818897637795275,"duration":0.7905098916667157},{"name":"F3","midi":53,"time":983.0563420000676,"velocity":0.8818897637795275,"duration":0.7905098916667157},{"name":"A#3","midi":58,"time":983.0563420000676,"velocity":0.8818897637795275,"duration":0.7905098916667157},{"name":"A#1","midi":34,"time":983.8896760000677,"velocity":0.8818897637795275,"duration":0.26273169166665866},{"name":"A#2","midi":46,"time":983.8896760000677,"velocity":0.8818897637795275,"duration":0.26273169166665866},{"name":"F3","midi":53,"time":983.8896760000677,"velocity":0.8818897637795275,"duration":0.26273169166665866},{"name":"A#3","midi":58,"time":983.8896760000677,"velocity":0.8818897637795275,"duration":0.26273169166665866},{"name":"A1","midi":33,"time":984.1674540000677,"velocity":0.8818897637795275,"duration":0.5266207916666872},{"name":"A2","midi":45,"time":984.1674540000677,"velocity":0.8818897637795275,"duration":0.5266207916666872},{"name":"A3","midi":57,"time":984.1674540000677,"velocity":0.8818897637795275,"duration":0.5266207916666872},{"name":"A1","midi":33,"time":984.7230100000677,"velocity":0.8818897637795275,"duration":0.5266207916666872},{"name":"A2","midi":45,"time":984.7230100000677,"velocity":0.8818897637795275,"duration":0.5266207916666872},{"name":"A3","midi":57,"time":984.7230100000677,"velocity":0.8818897637795275,"duration":0.5266207916666872},{"name":"A1","midi":33,"time":985.2785660000677,"velocity":0.8818897637795275,"duration":0.7905098916667157},{"name":"A2","midi":45,"time":985.2785660000677,"velocity":0.8818897637795275,"duration":0.7905098916667157},{"name":"F3","midi":53,"time":985.2785660000677,"velocity":0.8818897637795275,"duration":0.7905098916667157},{"name":"A3","midi":57,"time":985.2785660000677,"velocity":0.8818897637795275,"duration":0.7905098916667157},{"name":"A1","midi":33,"time":986.1119000000677,"velocity":0.8818897637795275,"duration":0.26273169166665866},{"name":"A2","midi":45,"time":986.1119000000677,"velocity":0.8818897637795275,"duration":0.26273169166665866},{"name":"F3","midi":53,"time":986.1119000000677,"velocity":0.8818897637795275,"duration":0.26273169166665866},{"name":"A3","midi":57,"time":986.1119000000677,"velocity":0.8818897637795275,"duration":0.26273169166665866},{"name":"G#1","midi":32,"time":986.3896780000678,"velocity":0.8818897637795275,"duration":0.5266207916666872},{"name":"G#2","midi":44,"time":986.3896780000678,"velocity":0.8818897637795275,"duration":0.5266207916666872},{"name":"G#3","midi":56,"time":986.3896780000678,"velocity":0.8818897637795275,"duration":0.5266207916666872},{"name":"G#1","midi":32,"time":986.9452340000678,"velocity":0.8818897637795275,"duration":0.5266207916666872},{"name":"G#2","midi":44,"time":986.9452340000678,"velocity":0.8818897637795275,"duration":0.5266207916666872},{"name":"G#3","midi":56,"time":986.9452340000678,"velocity":0.8818897637795275,"duration":0.5266207916666872},{"name":"G#1","midi":32,"time":987.5007900000678,"velocity":0.8818897637795275,"duration":0.7905098916667157},{"name":"G#2","midi":44,"time":987.5007900000678,"velocity":0.8818897637795275,"duration":0.7905098916667157},{"name":"D#3","midi":51,"time":987.5007900000678,"velocity":0.8818897637795275,"duration":0.7905098916667157},{"name":"G#3","midi":56,"time":987.5007900000678,"velocity":0.8818897637795275,"duration":0.7905098916667157},{"name":"G#1","midi":32,"time":988.3341240000678,"velocity":0.8818897637795275,"duration":0.26273169166665866},{"name":"G#2","midi":44,"time":988.3341240000678,"velocity":0.8818897637795275,"duration":0.26273169166665866},{"name":"D#3","midi":51,"time":988.3341240000678,"velocity":0.8818897637795275,"duration":0.26273169166665866},{"name":"G#3","midi":56,"time":988.3341240000678,"velocity":0.8818897637795275,"duration":0.26273169166665866},{"name":"G#1","midi":32,"time":988.6119020000679,"velocity":0.8818897637795275,"duration":0.5266207916666872},{"name":"G#2","midi":44,"time":988.6119020000679,"velocity":0.8818897637795275,"duration":0.5266207916666872},{"name":"G#3","midi":56,"time":988.6119020000679,"velocity":0.8818897637795275,"duration":0.5266207916666872},{"name":"G#1","midi":32,"time":989.1674580000679,"velocity":0.8818897637795275,"duration":0.5266207916666872},{"name":"G#2","midi":44,"time":989.1674580000679,"velocity":0.8818897637795275,"duration":0.5266207916666872},{"name":"G#3","midi":56,"time":989.1674580000679,"velocity":0.8818897637795275,"duration":0.5266207916666872},{"name":"G#1","midi":32,"time":989.7230140000679,"velocity":0.8818897637795275,"duration":0.7905098916667157},{"name":"G#2","midi":44,"time":989.7230140000679,"velocity":0.8818897637795275,"duration":0.7905098916667157},{"name":"D#3","midi":51,"time":989.7230140000679,"velocity":0.8818897637795275,"duration":0.7905098916667157},{"name":"G#3","midi":56,"time":989.7230140000679,"velocity":0.8818897637795275,"duration":0.7905098916667157},{"name":"G#1","midi":32,"time":990.5563480000679,"velocity":0.8818897637795275,"duration":0.26273169166665866},{"name":"G#2","midi":44,"time":990.5563480000679,"velocity":0.8818897637795275,"duration":0.26273169166665866},{"name":"D#3","midi":51,"time":990.5563480000679,"velocity":0.8818897637795275,"duration":0.26273169166665866},{"name":"G#3","midi":56,"time":990.5563480000679,"velocity":0.8818897637795275,"duration":0.26273169166665866},{"name":"A#1","midi":34,"time":990.834126000068,"velocity":0.8818897637795275,"duration":0.5266207916666872},{"name":"A#2","midi":46,"time":990.834126000068,"velocity":0.8818897637795275,"duration":0.5266207916666872},{"name":"A#3","midi":58,"time":990.834126000068,"velocity":0.8818897637795275,"duration":0.5266207916666872},{"name":"A#1","midi":34,"time":991.389682000068,"velocity":0.8818897637795275,"duration":0.5266207916666872},{"name":"A#2","midi":46,"time":991.389682000068,"velocity":0.8818897637795275,"duration":0.5266207916666872},{"name":"A#3","midi":58,"time":991.389682000068,"velocity":0.8818897637795275,"duration":0.5266207916666872},{"name":"A#1","midi":34,"time":991.945238000068,"velocity":0.8818897637795275,"duration":0.7905098916667157},{"name":"A#2","midi":46,"time":991.945238000068,"velocity":0.8818897637795275,"duration":0.7905098916667157},{"name":"F3","midi":53,"time":991.945238000068,"velocity":0.8818897637795275,"duration":0.7905098916667157},{"name":"A#3","midi":58,"time":991.945238000068,"velocity":0.8818897637795275,"duration":0.7905098916667157},{"name":"A#1","midi":34,"time":992.778572000068,"velocity":0.8818897637795275,"duration":0.26273169166665866},{"name":"A#2","midi":46,"time":992.778572000068,"velocity":0.8818897637795275,"duration":0.26273169166665866},{"name":"F3","midi":53,"time":992.778572000068,"velocity":0.8818897637795275,"duration":0.26273169166665866},{"name":"A#3","midi":58,"time":992.778572000068,"velocity":0.8818897637795275,"duration":0.26273169166665866},{"name":"A#1","midi":34,"time":993.056350000068,"velocity":0.8818897637795275,"duration":0.5266207916666872},{"name":"A#2","midi":46,"time":993.056350000068,"velocity":0.8818897637795275,"duration":0.5266207916666872},{"name":"A#3","midi":58,"time":993.056350000068,"velocity":0.8818897637795275,"duration":0.5266207916666872},{"name":"A#1","midi":34,"time":993.6119060000681,"velocity":0.8818897637795275,"duration":0.5266207916666872},{"name":"A#2","midi":46,"time":993.6119060000681,"velocity":0.8818897637795275,"duration":0.5266207916666872},{"name":"A#3","midi":58,"time":993.6119060000681,"velocity":0.8818897637795275,"duration":0.5266207916666872},{"name":"A#1","midi":34,"time":994.1674620000681,"velocity":0.8818897637795275,"duration":0.7905098916667157},{"name":"A#2","midi":46,"time":994.1674620000681,"velocity":0.8818897637795275,"duration":0.7905098916667157},{"name":"F3","midi":53,"time":994.1674620000681,"velocity":0.8818897637795275,"duration":0.7905098916667157},{"name":"A#3","midi":58,"time":994.1674620000681,"velocity":0.8818897637795275,"duration":0.7905098916667157},{"name":"A#1","midi":34,"time":995.0007960000681,"velocity":0.8818897637795275,"duration":0.26273169166665866},{"name":"A#2","midi":46,"time":995.0007960000681,"velocity":0.8818897637795275,"duration":0.26273169166665866},{"name":"F3","midi":53,"time":995.0007960000681,"velocity":0.8818897637795275,"duration":0.26273169166665866},{"name":"A#3","midi":58,"time":995.0007960000681,"velocity":0.8818897637795275,"duration":0.26273169166665866},{"name":"C2","midi":36,"time":995.2785740000681,"velocity":0.8818897637795275,"duration":0.5266207916666872},{"name":"C3","midi":48,"time":995.2785740000681,"velocity":0.8818897637795275,"duration":0.5266207916666872},{"name":"C4","midi":60,"time":995.2785740000681,"velocity":0.8818897637795275,"duration":0.5266207916666872},{"name":"C2","midi":36,"time":995.8341300000682,"velocity":0.8818897637795275,"duration":0.5266207916666872},{"name":"C3","midi":48,"time":995.8341300000682,"velocity":0.8818897637795275,"duration":0.5266207916666872},{"name":"C4","midi":60,"time":995.8341300000682,"velocity":0.8818897637795275,"duration":0.5266207916666872},{"name":"C2","midi":36,"time":996.3896860000682,"velocity":0.8818897637795275,"duration":0.7905098916667157},{"name":"C3","midi":48,"time":996.3896860000682,"velocity":0.8818897637795275,"duration":0.7905098916667157},{"name":"G3","midi":55,"time":996.3896860000682,"velocity":0.8818897637795275,"duration":0.7905098916667157},{"name":"C4","midi":60,"time":996.3896860000682,"velocity":0.8818897637795275,"duration":0.7905098916667157},{"name":"C2","midi":36,"time":997.2230200000682,"velocity":0.8818897637795275,"duration":0.26273169166665866},{"name":"C3","midi":48,"time":997.2230200000682,"velocity":0.8818897637795275,"duration":0.26273169166665866},{"name":"G3","midi":55,"time":997.2230200000682,"velocity":0.8818897637795275,"duration":0.26273169166665866},{"name":"C4","midi":60,"time":997.2230200000682,"velocity":0.8818897637795275,"duration":0.26273169166665866},{"name":"C2","midi":36,"time":997.5007980000682,"velocity":0.8818897637795275,"duration":0.5266207916666872},{"name":"C3","midi":48,"time":997.5007980000682,"velocity":0.8818897637795275,"duration":0.5266207916666872},{"name":"C4","midi":60,"time":997.5007980000682,"velocity":0.8818897637795275,"duration":0.5266207916666872},{"name":"C2","midi":36,"time":998.0563540000683,"velocity":0.8818897637795275,"duration":0.5266207916666872},{"name":"C3","midi":48,"time":998.0563540000683,"velocity":0.8818897637795275,"duration":0.5266207916666872},{"name":"C4","midi":60,"time":998.0563540000683,"velocity":0.8818897637795275,"duration":0.5266207916666872},{"name":"C2","midi":36,"time":998.6119100000683,"velocity":0.8818897637795275,"duration":0.7905098916667157},{"name":"C3","midi":48,"time":998.6119100000683,"velocity":0.8818897637795275,"duration":0.7905098916667157},{"name":"G3","midi":55,"time":998.6119100000683,"velocity":0.8818897637795275,"duration":0.7905098916667157},{"name":"C4","midi":60,"time":998.6119100000683,"velocity":0.8818897637795275,"duration":0.7905098916667157},{"name":"C2","midi":36,"time":999.4452440000683,"velocity":0.8818897637795275,"duration":0.26273169166665866},{"name":"C3","midi":48,"time":999.4452440000683,"velocity":0.8818897637795275,"duration":0.26273169166665866},{"name":"G3","midi":55,"time":999.4452440000683,"velocity":0.8818897637795275,"duration":0.26273169166665866},{"name":"C4","midi":60,"time":999.4452440000683,"velocity":0.8818897637795275,"duration":0.26273169166665866},{"name":"C2","midi":36,"time":999.7230220000683,"velocity":0.8818897637795275,"duration":0.5266207916666872},{"name":"C3","midi":48,"time":999.7230220000683,"velocity":0.8818897637795275,"duration":0.5266207916666872},{"name":"C4","midi":60,"time":999.7230220000683,"velocity":0.8818897637795275,"duration":0.5266207916666872},{"name":"C2","midi":36,"time":1000.2785780000684,"velocity":0.8818897637795275,"duration":0.5266207916666872},{"name":"C3","midi":48,"time":1000.2785780000684,"velocity":0.8818897637795275,"duration":0.5266207916666872},{"name":"C4","midi":60,"time":1000.2785780000684,"velocity":0.8818897637795275,"duration":0.5266207916666872},{"name":"C2","midi":36,"time":1000.8341340000684,"velocity":0.8818897637795275,"duration":0.7905098916667157},{"name":"C3","midi":48,"time":1000.8341340000684,"velocity":0.8818897637795275,"duration":0.7905098916667157},{"name":"G3","midi":55,"time":1000.8341340000684,"velocity":0.8818897637795275,"duration":0.7905098916667157},{"name":"C4","midi":60,"time":1000.8341340000684,"velocity":0.8818897637795275,"duration":0.7905098916667157},{"name":"C2","midi":36,"time":1001.6674680000684,"velocity":0.8818897637795275,"duration":0.26273169166665866},{"name":"C3","midi":48,"time":1001.6674680000684,"velocity":0.8818897637795275,"duration":0.26273169166665866},{"name":"G3","midi":55,"time":1001.6674680000684,"velocity":0.8818897637795275,"duration":0.26273169166665866},{"name":"C4","midi":60,"time":1001.6674680000684,"velocity":0.8818897637795275,"duration":0.26273169166665866},{"name":"A#1","midi":34,"time":1001.9452460000684,"velocity":0.8818897637795275,"duration":0.5266207916666872},{"name":"A#2","midi":46,"time":1001.9452460000684,"velocity":0.8818897637795275,"duration":0.5266207916666872},{"name":"A#3","midi":58,"time":1001.9452460000684,"velocity":0.8818897637795275,"duration":0.5266207916666872},{"name":"A#1","midi":34,"time":1002.5008020000685,"velocity":0.8818897637795275,"duration":0.5266207916666872},{"name":"A#2","midi":46,"time":1002.5008020000685,"velocity":0.8818897637795275,"duration":0.5266207916666872},{"name":"A#3","midi":58,"time":1002.5008020000685,"velocity":0.8818897637795275,"duration":0.5266207916666872},{"name":"A#1","midi":34,"time":1003.0563580000685,"velocity":0.8818897637795275,"duration":0.7905098916667157},{"name":"A#2","midi":46,"time":1003.0563580000685,"velocity":0.8818897637795275,"duration":0.7905098916667157},{"name":"F3","midi":53,"time":1003.0563580000685,"velocity":0.8818897637795275,"duration":0.7905098916667157},{"name":"A#3","midi":58,"time":1003.0563580000685,"velocity":0.8818897637795275,"duration":0.7905098916667157},{"name":"A#1","midi":34,"time":1003.8896920000685,"velocity":0.8818897637795275,"duration":0.26273169166665866},{"name":"A#2","midi":46,"time":1003.8896920000685,"velocity":0.8818897637795275,"duration":0.26273169166665866},{"name":"F3","midi":53,"time":1003.8896920000685,"velocity":0.8818897637795275,"duration":0.26273169166665866},{"name":"A#3","midi":58,"time":1003.8896920000685,"velocity":0.8818897637795275,"duration":0.26273169166665866},{"name":"G#1","midi":32,"time":1004.1674700000685,"velocity":0.8818897637795275,"duration":0.5266207916666872},{"name":"G#2","midi":44,"time":1004.1674700000685,"velocity":0.8818897637795275,"duration":0.5266207916666872},{"name":"G#3","midi":56,"time":1004.1674700000685,"velocity":0.8818897637795275,"duration":0.5266207916666872},{"name":"G#1","midi":32,"time":1004.7230260000686,"velocity":0.8818897637795275,"duration":0.5266207916666872},{"name":"G#2","midi":44,"time":1004.7230260000686,"velocity":0.8818897637795275,"duration":0.5266207916666872},{"name":"G#3","midi":56,"time":1004.7230260000686,"velocity":0.8818897637795275,"duration":0.5266207916666872},{"name":"G#1","midi":32,"time":1005.2785820000686,"velocity":0.8818897637795275,"duration":0.7905098916667157},{"name":"G#2","midi":44,"time":1005.2785820000686,"velocity":0.8818897637795275,"duration":0.7905098916667157},{"name":"D#3","midi":51,"time":1005.2785820000686,"velocity":0.8818897637795275,"duration":0.7905098916667157},{"name":"G#3","midi":56,"time":1005.2785820000686,"velocity":0.8818897637795275,"duration":0.7905098916667157},{"name":"G#1","midi":32,"time":1006.1119160000686,"velocity":0.8818897637795275,"duration":0.26273169166665866},{"name":"G#2","midi":44,"time":1006.1119160000686,"velocity":0.8818897637795275,"duration":0.26273169166665866},{"name":"D#3","midi":51,"time":1006.1119160000686,"velocity":0.8818897637795275,"duration":0.26273169166665866},{"name":"G#3","midi":56,"time":1006.1119160000686,"velocity":0.8818897637795275,"duration":0.26273169166665866},{"name":"G#1","midi":32,"time":1006.3896940000686,"velocity":0.8818897637795275,"duration":0.5266207916666872},{"name":"G#2","midi":44,"time":1006.3896940000686,"velocity":0.8818897637795275,"duration":0.5266207916666872},{"name":"G#3","midi":56,"time":1006.3896940000686,"velocity":0.8818897637795275,"duration":0.5266207916666872},{"name":"G#1","midi":32,"time":1006.9452500000687,"velocity":0.8818897637795275,"duration":0.5266207916666872},{"name":"G#2","midi":44,"time":1006.9452500000687,"velocity":0.8818897637795275,"duration":0.5266207916666872},{"name":"G#3","midi":56,"time":1006.9452500000687,"velocity":0.8818897637795275,"duration":0.5266207916666872},{"name":"G#1","midi":32,"time":1007.5008060000687,"velocity":0.8818897637795275,"duration":0.7905098916667157},{"name":"G#2","midi":44,"time":1007.5008060000687,"velocity":0.8818897637795275,"duration":0.7905098916667157},{"name":"D#3","midi":51,"time":1007.5008060000687,"velocity":0.8818897637795275,"duration":0.7905098916667157},{"name":"G#3","midi":56,"time":1007.5008060000687,"velocity":0.8818897637795275,"duration":0.7905098916667157},{"name":"G#1","midi":32,"time":1008.3341400000687,"velocity":0.8818897637795275,"duration":0.26273169166665866},{"name":"G#2","midi":44,"time":1008.3341400000687,"velocity":0.8818897637795275,"duration":0.26273169166665866},{"name":"D#3","midi":51,"time":1008.3341400000687,"velocity":0.8818897637795275,"duration":0.26273169166665866},{"name":"G#3","midi":56,"time":1008.3341400000687,"velocity":0.8818897637795275,"duration":0.26273169166665866},{"name":"A#1","midi":34,"time":1008.6119180000687,"velocity":0.8818897637795275,"duration":0.5266207916666872},{"name":"A#2","midi":46,"time":1008.6119180000687,"velocity":0.8818897637795275,"duration":0.5266207916666872},{"name":"A#3","midi":58,"time":1008.6119180000687,"velocity":0.8818897637795275,"duration":0.5266207916666872},{"name":"A#1","midi":34,"time":1009.1674740000688,"velocity":0.8818897637795275,"duration":0.5266207916666872},{"name":"A#2","midi":46,"time":1009.1674740000688,"velocity":0.8818897637795275,"duration":0.5266207916666872},{"name":"A#3","midi":58,"time":1009.1674740000688,"velocity":0.8818897637795275,"duration":0.5266207916666872},{"name":"A#1","midi":34,"time":1009.7230300000688,"velocity":0.8818897637795275,"duration":0.7905098916667157},{"name":"A#2","midi":46,"time":1009.7230300000688,"velocity":0.8818897637795275,"duration":0.7905098916667157},{"name":"F3","midi":53,"time":1009.7230300000688,"velocity":0.8818897637795275,"duration":0.7905098916667157},{"name":"A#3","midi":58,"time":1009.7230300000688,"velocity":0.8818897637795275,"duration":0.7905098916667157},{"name":"A#1","midi":34,"time":1010.5563640000688,"velocity":0.8818897637795275,"duration":0.26273169166665866},{"name":"A#2","midi":46,"time":1010.5563640000688,"velocity":0.8818897637795275,"duration":0.26273169166665866},{"name":"F3","midi":53,"time":1010.5563640000688,"velocity":0.8818897637795275,"duration":0.26273169166665866},{"name":"A#3","midi":58,"time":1010.5563640000688,"velocity":0.8818897637795275,"duration":0.26273169166665866},{"name":"A#1","midi":34,"time":1010.8341420000688,"velocity":0.8818897637795275,"duration":0.5266207916666872},{"name":"A#2","midi":46,"time":1010.8341420000688,"velocity":0.8818897637795275,"duration":0.5266207916666872},{"name":"A#3","midi":58,"time":1010.8341420000688,"velocity":0.8818897637795275,"duration":0.5266207916666872},{"name":"A#1","midi":34,"time":1011.3896980000688,"velocity":0.8818897637795275,"duration":0.5266207916666872},{"name":"A#2","midi":46,"time":1011.3896980000688,"velocity":0.8818897637795275,"duration":0.5266207916666872},{"name":"A#3","midi":58,"time":1011.3896980000688,"velocity":0.8818897637795275,"duration":0.5266207916666872},{"name":"A#1","midi":34,"time":1011.9452540000689,"velocity":0.8818897637795275,"duration":0.7905098916667157},{"name":"A#2","midi":46,"time":1011.9452540000689,"velocity":0.8818897637795275,"duration":0.7905098916667157},{"name":"F3","midi":53,"time":1011.9452540000689,"velocity":0.8818897637795275,"duration":0.7905098916667157},{"name":"A#3","midi":58,"time":1011.9452540000689,"velocity":0.8818897637795275,"duration":0.7905098916667157},{"name":"A#1","midi":34,"time":1012.7785880000689,"velocity":0.8818897637795275,"duration":0.26273169166665866},{"name":"A#2","midi":46,"time":1012.7785880000689,"velocity":0.8818897637795275,"duration":0.26273169166665866},{"name":"F3","midi":53,"time":1012.7785880000689,"velocity":0.8818897637795275,"duration":0.26273169166665866},{"name":"A#3","midi":58,"time":1012.7785880000689,"velocity":0.8818897637795275,"duration":0.26273169166665866},{"name":"C2","midi":36,"time":1013.0563660000689,"velocity":0.8818897637795275,"duration":0.5266207916666872},{"name":"C3","midi":48,"time":1013.0563660000689,"velocity":0.8818897637795275,"duration":0.5266207916666872},{"name":"C4","midi":60,"time":1013.0563660000689,"velocity":0.8818897637795275,"duration":0.5266207916666872},{"name":"C2","midi":36,"time":1013.611922000069,"velocity":0.8818897637795275,"duration":0.5266207916666872},{"name":"C3","midi":48,"time":1013.611922000069,"velocity":0.8818897637795275,"duration":0.5266207916666872},{"name":"C4","midi":60,"time":1013.611922000069,"velocity":0.8818897637795275,"duration":0.5266207916666872},{"name":"C2","midi":36,"time":1014.167478000069,"velocity":0.8818897637795275,"duration":0.7905098916667157},{"name":"C3","midi":48,"time":1014.167478000069,"velocity":0.8818897637795275,"duration":0.7905098916667157},{"name":"G3","midi":55,"time":1014.167478000069,"velocity":0.8818897637795275,"duration":0.7905098916667157},{"name":"C4","midi":60,"time":1014.167478000069,"velocity":0.8818897637795275,"duration":0.7905098916667157},{"name":"C2","midi":36,"time":1015.000812000069,"velocity":0.8818897637795275,"duration":0.26273169166665866},{"name":"C3","midi":48,"time":1015.000812000069,"velocity":0.8818897637795275,"duration":0.26273169166665866},{"name":"G3","midi":55,"time":1015.000812000069,"velocity":0.8818897637795275,"duration":0.26273169166665866},{"name":"C4","midi":60,"time":1015.000812000069,"velocity":0.8818897637795275,"duration":0.26273169166665866},{"name":"B1","midi":35,"time":1015.278590000069,"velocity":0.8818897637795275,"duration":0.5266207916666872},{"name":"B2","midi":47,"time":1015.278590000069,"velocity":0.8818897637795275,"duration":0.5266207916666872},{"name":"B3","midi":59,"time":1015.278590000069,"velocity":0.8818897637795275,"duration":0.5266207916666872},{"name":"B1","midi":35,"time":1015.834146000069,"velocity":0.8818897637795275,"duration":0.5266207916666872},{"name":"B2","midi":47,"time":1015.834146000069,"velocity":0.8818897637795275,"duration":0.5266207916666872},{"name":"B3","midi":59,"time":1015.834146000069,"velocity":0.8818897637795275,"duration":0.5266207916666872},{"name":"B1","midi":35,"time":1016.3897020000691,"velocity":0.8818897637795275,"duration":0.7905098916667157},{"name":"B2","midi":47,"time":1016.3897020000691,"velocity":0.8818897637795275,"duration":0.7905098916667157},{"name":"G3","midi":55,"time":1016.3897020000691,"velocity":0.8818897637795275,"duration":0.7905098916667157},{"name":"B3","midi":59,"time":1016.3897020000691,"velocity":0.8818897637795275,"duration":0.7905098916667157},{"name":"B1","midi":35,"time":1017.2230360000691,"velocity":0.8818897637795275,"duration":0.26273169166665866},{"name":"B2","midi":47,"time":1017.2230360000691,"velocity":0.8818897637795275,"duration":0.26273169166665866},{"name":"G3","midi":55,"time":1017.2230360000691,"velocity":0.8818897637795275,"duration":0.26273169166665866},{"name":"B3","midi":59,"time":1017.2230360000691,"velocity":0.8818897637795275,"duration":0.26273169166665866},{"name":"A#1","midi":34,"time":1017.5008140000691,"velocity":0.8818897637795275,"duration":0.5266207916666872},{"name":"A#2","midi":46,"time":1017.5008140000691,"velocity":0.8818897637795275,"duration":0.5266207916666872},{"name":"A#3","midi":58,"time":1017.5008140000691,"velocity":0.8818897637795275,"duration":0.5266207916666872},{"name":"A#1","midi":34,"time":1018.0563700000691,"velocity":0.8818897637795275,"duration":0.5266207916666872},{"name":"A#2","midi":46,"time":1018.0563700000691,"velocity":0.8818897637795275,"duration":0.5266207916666872},{"name":"A#3","midi":58,"time":1018.0563700000691,"velocity":0.8818897637795275,"duration":0.5266207916666872},{"name":"A#1","midi":34,"time":1018.6119260000692,"velocity":0.8818897637795275,"duration":0.7905098916667157},{"name":"A#2","midi":46,"time":1018.6119260000692,"velocity":0.8818897637795275,"duration":0.7905098916667157},{"name":"F3","midi":53,"time":1018.6119260000692,"velocity":0.8818897637795275,"duration":0.7905098916667157},{"name":"A#3","midi":58,"time":1018.6119260000692,"velocity":0.8818897637795275,"duration":0.7905098916667157},{"name":"A#1","midi":34,"time":1019.4452600000692,"velocity":0.8818897637795275,"duration":0.26273169166665866},{"name":"A#2","midi":46,"time":1019.4452600000692,"velocity":0.8818897637795275,"duration":0.26273169166665866},{"name":"F3","midi":53,"time":1019.4452600000692,"velocity":0.8818897637795275,"duration":0.26273169166665866},{"name":"A#3","midi":58,"time":1019.4452600000692,"velocity":0.8818897637795275,"duration":0.26273169166665866},{"name":"A1","midi":33,"time":1019.7230380000692,"velocity":0.8818897637795275,"duration":0.5266207916666872},{"name":"A2","midi":45,"time":1019.7230380000692,"velocity":0.8818897637795275,"duration":0.5266207916666872},{"name":"A3","midi":57,"time":1019.7230380000692,"velocity":0.8818897637795275,"duration":0.5266207916666872},{"name":"A1","midi":33,"time":1020.2785940000692,"velocity":0.8818897637795275,"duration":0.5266207916666872},{"name":"A2","midi":45,"time":1020.2785940000692,"velocity":0.8818897637795275,"duration":0.5266207916666872},{"name":"A3","midi":57,"time":1020.2785940000692,"velocity":0.8818897637795275,"duration":0.5266207916666872},{"name":"A1","midi":33,"time":1020.8341500000693,"velocity":0.8818897637795275,"duration":0.7905098916667157},{"name":"A2","midi":45,"time":1020.8341500000693,"velocity":0.8818897637795275,"duration":0.7905098916667157},{"name":"F3","midi":53,"time":1020.8341500000693,"velocity":0.8818897637795275,"duration":0.7905098916667157},{"name":"A3","midi":57,"time":1020.8341500000693,"velocity":0.8818897637795275,"duration":0.7905098916667157},{"name":"A1","midi":33,"time":1021.6674840000693,"velocity":0.8818897637795275,"duration":0.26273169166665866},{"name":"A2","midi":45,"time":1021.6674840000693,"velocity":0.8818897637795275,"duration":0.26273169166665866},{"name":"F3","midi":53,"time":1021.6674840000693,"velocity":0.8818897637795275,"duration":0.26273169166665866},{"name":"A3","midi":57,"time":1021.6674840000693,"velocity":0.8818897637795275,"duration":0.26273169166665866},{"name":"G#1","midi":32,"time":1021.9452620000693,"velocity":0.8818897637795275,"duration":0.5266207916666872},{"name":"G#2","midi":44,"time":1021.9452620000693,"velocity":0.8818897637795275,"duration":0.5266207916666872},{"name":"G#3","midi":56,"time":1021.9452620000693,"velocity":0.8818897637795275,"duration":0.5266207916666872},{"name":"G#1","midi":32,"time":1022.5008180000693,"velocity":0.8818897637795275,"duration":0.5266207916666872},{"name":"G#2","midi":44,"time":1022.5008180000693,"velocity":0.8818897637795275,"duration":0.5266207916666872},{"name":"G#3","midi":56,"time":1022.5008180000693,"velocity":0.8818897637795275,"duration":0.5266207916666872},{"name":"G#1","midi":32,"time":1023.0563740000694,"velocity":0.8818897637795275,"duration":0.7905098916667157},{"name":"G#2","midi":44,"time":1023.0563740000694,"velocity":0.8818897637795275,"duration":0.7905098916667157},{"name":"D#3","midi":51,"time":1023.0563740000694,"velocity":0.8818897637795275,"duration":0.7905098916667157},{"name":"G#3","midi":56,"time":1023.0563740000694,"velocity":0.8818897637795275,"duration":0.7905098916667157},{"name":"G#1","midi":32,"time":1023.8897080000694,"velocity":0.8818897637795275,"duration":0.26273169166677235},{"name":"G#2","midi":44,"time":1023.8897080000694,"velocity":0.8818897637795275,"duration":0.26273169166677235},{"name":"D#3","midi":51,"time":1023.8897080000694,"velocity":0.8818897637795275,"duration":0.26273169166677235},{"name":"G#3","midi":56,"time":1023.8897080000694,"velocity":0.8818897637795275,"duration":0.26273169166677235},{"name":"G#1","midi":32,"time":1024.1674860000694,"velocity":0.8818897637795275,"duration":0.5266207916665735},{"name":"G#2","midi":44,"time":1024.1674860000694,"velocity":0.8818897637795275,"duration":0.5266207916665735},{"name":"G#3","midi":56,"time":1024.1674860000694,"velocity":0.8818897637795275,"duration":0.5266207916665735},{"name":"G#1","midi":32,"time":1024.7230420000692,"velocity":0.8818897637795275,"duration":0.5266207916665735},{"name":"G#2","midi":44,"time":1024.7230420000692,"velocity":0.8818897637795275,"duration":0.5266207916665735},{"name":"G#3","midi":56,"time":1024.7230420000692,"velocity":0.8818897637795275,"duration":0.5266207916665735},{"name":"G#1","midi":32,"time":1025.278598000069,"velocity":0.8818897637795275,"duration":0.7905098916667157},{"name":"G#2","midi":44,"time":1025.278598000069,"velocity":0.8818897637795275,"duration":0.7905098916667157},{"name":"D#3","midi":51,"time":1025.278598000069,"velocity":0.8818897637795275,"duration":0.7905098916667157},{"name":"G#3","midi":56,"time":1025.278598000069,"velocity":0.8818897637795275,"duration":0.7905098916667157},{"name":"G#1","midi":32,"time":1026.1119320000691,"velocity":0.8818897637795275,"duration":0.26273169166665866},{"name":"G#2","midi":44,"time":1026.1119320000691,"velocity":0.8818897637795275,"duration":0.26273169166665866},{"name":"D#3","midi":51,"time":1026.1119320000691,"velocity":0.8818897637795275,"duration":0.26273169166665866},{"name":"G#3","midi":56,"time":1026.1119320000691,"velocity":0.8818897637795275,"duration":0.26273169166665866},{"name":"A#1","midi":34,"time":1026.389710000069,"velocity":0.8818897637795275,"duration":0.5266207916665735},{"name":"A#2","midi":46,"time":1026.389710000069,"velocity":0.8818897637795275,"duration":0.5266207916665735},{"name":"A#3","midi":58,"time":1026.389710000069,"velocity":0.8818897637795275,"duration":0.5266207916665735},{"name":"A#1","midi":34,"time":1026.9452660000688,"velocity":0.8818897637795275,"duration":0.5266207916665735},{"name":"A#2","midi":46,"time":1026.9452660000688,"velocity":0.8818897637795275,"duration":0.5266207916665735},{"name":"A#3","midi":58,"time":1026.9452660000688,"velocity":0.8818897637795275,"duration":0.5266207916665735},{"name":"A#1","midi":34,"time":1027.5008220000686,"velocity":0.8818897637795275,"duration":0.7905098916667157},{"name":"A#2","midi":46,"time":1027.5008220000686,"velocity":0.8818897637795275,"duration":0.7905098916667157},{"name":"F3","midi":53,"time":1027.5008220000686,"velocity":0.8818897637795275,"duration":0.7905098916667157},{"name":"A#3","midi":58,"time":1027.5008220000686,"velocity":0.8818897637795275,"duration":0.7905098916667157},{"name":"A#1","midi":34,"time":1028.3341560000688,"velocity":0.8818897637795275,"duration":0.26273169166665866},{"name":"A#2","midi":46,"time":1028.3341560000688,"velocity":0.8818897637795275,"duration":0.26273169166665866},{"name":"F3","midi":53,"time":1028.3341560000688,"velocity":0.8818897637795275,"duration":0.26273169166665866},{"name":"A#3","midi":58,"time":1028.3341560000688,"velocity":0.8818897637795275,"duration":0.26273169166665866},{"name":"A#1","midi":34,"time":1028.6119340000687,"velocity":0.8818897637795275,"duration":0.5266207916665735},{"name":"A#2","midi":46,"time":1028.6119340000687,"velocity":0.8818897637795275,"duration":0.5266207916665735},{"name":"A#3","midi":58,"time":1028.6119340000687,"velocity":0.8818897637795275,"duration":0.5266207916665735},{"name":"A#1","midi":34,"time":1029.1674900000685,"velocity":0.8818897637795275,"duration":0.5266207916665735},{"name":"A#2","midi":46,"time":1029.1674900000685,"velocity":0.8818897637795275,"duration":0.5266207916665735},{"name":"A#3","midi":58,"time":1029.1674900000685,"velocity":0.8818897637795275,"duration":0.5266207916665735},{"name":"A#1","midi":34,"time":1029.7230460000683,"velocity":0.8818897637795275,"duration":0.7905098916667157},{"name":"A#2","midi":46,"time":1029.7230460000683,"velocity":0.8818897637795275,"duration":0.7905098916667157},{"name":"F3","midi":53,"time":1029.7230460000683,"velocity":0.8818897637795275,"duration":0.7905098916667157},{"name":"A#3","midi":58,"time":1029.7230460000683,"velocity":0.8818897637795275,"duration":0.7905098916667157},{"name":"A#1","midi":34,"time":1030.5563800000684,"velocity":0.8818897637795275,"duration":0.26273169166665866},{"name":"A#2","midi":46,"time":1030.5563800000684,"velocity":0.8818897637795275,"duration":0.26273169166665866},{"name":"F3","midi":53,"time":1030.5563800000684,"velocity":0.8818897637795275,"duration":0.26273169166665866},{"name":"A#3","midi":58,"time":1030.5563800000684,"velocity":0.8818897637795275,"duration":0.26273169166665866},{"name":"C2","midi":36,"time":1030.8341580000683,"velocity":0.8818897637795275,"duration":0.5266207916665735},{"name":"C3","midi":48,"time":1030.8341580000683,"velocity":0.8818897637795275,"duration":0.5266207916665735},{"name":"C4","midi":60,"time":1030.8341580000683,"velocity":0.8818897637795275,"duration":0.5266207916665735},{"name":"C2","midi":36,"time":1031.3897140000681,"velocity":0.8818897637795275,"duration":0.5266207916665735},{"name":"C3","midi":48,"time":1031.3897140000681,"velocity":0.8818897637795275,"duration":0.5266207916665735},{"name":"C4","midi":60,"time":1031.3897140000681,"velocity":0.8818897637795275,"duration":0.5266207916665735},{"name":"C2","midi":36,"time":1031.945270000068,"velocity":0.8818897637795275,"duration":0.7905098916667157},{"name":"C3","midi":48,"time":1031.945270000068,"velocity":0.8818897637795275,"duration":0.7905098916667157},{"name":"G3","midi":55,"time":1031.945270000068,"velocity":0.8818897637795275,"duration":0.7905098916667157},{"name":"C4","midi":60,"time":1031.945270000068,"velocity":0.8818897637795275,"duration":0.7905098916667157},{"name":"C2","midi":36,"time":1032.778604000068,"velocity":0.8818897637795275,"duration":0.26273169166665866},{"name":"C3","midi":48,"time":1032.778604000068,"velocity":0.8818897637795275,"duration":0.26273169166665866},{"name":"G3","midi":55,"time":1032.778604000068,"velocity":0.8818897637795275,"duration":0.26273169166665866},{"name":"C4","midi":60,"time":1032.778604000068,"velocity":0.8818897637795275,"duration":0.26273169166665866},{"name":"C2","midi":36,"time":1033.056382000068,"velocity":0.8818897637795275,"duration":0.5266207916665735},{"name":"C3","midi":48,"time":1033.056382000068,"velocity":0.8818897637795275,"duration":0.5266207916665735},{"name":"C4","midi":60,"time":1033.056382000068,"velocity":0.8818897637795275,"duration":0.5266207916665735},{"name":"C2","midi":36,"time":1033.6119380000678,"velocity":0.8818897637795275,"duration":0.5266207916665735},{"name":"C3","midi":48,"time":1033.6119380000678,"velocity":0.8818897637795275,"duration":0.5266207916665735},{"name":"C4","midi":60,"time":1033.6119380000678,"velocity":0.8818897637795275,"duration":0.5266207916665735},{"name":"C2","midi":36,"time":1034.1674940000676,"velocity":0.8818897637795275,"duration":0.7905098916667157},{"name":"C3","midi":48,"time":1034.1674940000676,"velocity":0.8818897637795275,"duration":0.7905098916667157},{"name":"G3","midi":55,"time":1034.1674940000676,"velocity":0.8818897637795275,"duration":0.7905098916667157},{"name":"C4","midi":60,"time":1034.1674940000676,"velocity":0.8818897637795275,"duration":0.7905098916667157},{"name":"C2","midi":36,"time":1035.0008280000677,"velocity":0.8818897637795275,"duration":0.26273169166665866},{"name":"C3","midi":48,"time":1035.0008280000677,"velocity":0.8818897637795275,"duration":0.26273169166665866},{"name":"G3","midi":55,"time":1035.0008280000677,"velocity":0.8818897637795275,"duration":0.26273169166665866},{"name":"C4","midi":60,"time":1035.0008280000677,"velocity":0.8818897637795275,"duration":0.26273169166665866},{"name":"C2","midi":36,"time":1035.2786060000676,"velocity":0.8818897637795275,"duration":0.5266207916665735},{"name":"C3","midi":48,"time":1035.2786060000676,"velocity":0.8818897637795275,"duration":0.5266207916665735},{"name":"C4","midi":60,"time":1035.2786060000676,"velocity":0.8818897637795275,"duration":0.5266207916665735},{"name":"C2","midi":36,"time":1035.8341620000674,"velocity":0.8818897637795275,"duration":0.5266207916665735},{"name":"C3","midi":48,"time":1035.8341620000674,"velocity":0.8818897637795275,"duration":0.5266207916665735},{"name":"C4","midi":60,"time":1035.8341620000674,"velocity":0.8818897637795275,"duration":0.5266207916665735},{"name":"C2","midi":36,"time":1036.3897180000672,"velocity":0.8818897637795275,"duration":0.7905098916667157},{"name":"C3","midi":48,"time":1036.3897180000672,"velocity":0.8818897637795275,"duration":0.7905098916667157},{"name":"G3","midi":55,"time":1036.3897180000672,"velocity":0.8818897637795275,"duration":0.7905098916667157},{"name":"C4","midi":60,"time":1036.3897180000672,"velocity":0.8818897637795275,"duration":0.7905098916667157},{"name":"C2","midi":36,"time":1037.2230520000674,"velocity":0.8818897637795275,"duration":0.26273169166665866},{"name":"C3","midi":48,"time":1037.2230520000674,"velocity":0.8818897637795275,"duration":0.26273169166665866},{"name":"G3","midi":55,"time":1037.2230520000674,"velocity":0.8818897637795275,"duration":0.26273169166665866},{"name":"C4","midi":60,"time":1037.2230520000674,"velocity":0.8818897637795275,"duration":0.26273169166665866},{"name":"A#1","midi":34,"time":1037.5008300000673,"velocity":0.8818897637795275,"duration":0.5266207916665735},{"name":"A#2","midi":46,"time":1037.5008300000673,"velocity":0.8818897637795275,"duration":0.5266207916665735},{"name":"A#3","midi":58,"time":1037.5008300000673,"velocity":0.8818897637795275,"duration":0.5266207916665735},{"name":"A#1","midi":34,"time":1038.056386000067,"velocity":0.8818897637795275,"duration":0.5266207916665735},{"name":"A#2","midi":46,"time":1038.056386000067,"velocity":0.8818897637795275,"duration":0.5266207916665735},{"name":"A#3","midi":58,"time":1038.056386000067,"velocity":0.8818897637795275,"duration":0.5266207916665735},{"name":"A#1","midi":34,"time":1038.6119420000668,"velocity":0.8818897637795275,"duration":0.7905098916667157},{"name":"A#2","midi":46,"time":1038.6119420000668,"velocity":0.8818897637795275,"duration":0.7905098916667157},{"name":"F3","midi":53,"time":1038.6119420000668,"velocity":0.8818897637795275,"duration":0.7905098916667157},{"name":"A#3","midi":58,"time":1038.6119420000668,"velocity":0.8818897637795275,"duration":0.7905098916667157},{"name":"A#1","midi":34,"time":1039.445276000067,"velocity":0.8818897637795275,"duration":0.26273169166665866},{"name":"A#2","midi":46,"time":1039.445276000067,"velocity":0.8818897637795275,"duration":0.26273169166665866},{"name":"F3","midi":53,"time":1039.445276000067,"velocity":0.8818897637795275,"duration":0.26273169166665866},{"name":"A#3","midi":58,"time":1039.445276000067,"velocity":0.8818897637795275,"duration":0.26273169166665866},{"name":"G#1","midi":32,"time":1039.723054000067,"velocity":0.8818897637795275,"duration":0.5266207916665735},{"name":"G#2","midi":44,"time":1039.723054000067,"velocity":0.8818897637795275,"duration":0.5266207916665735},{"name":"G#3","midi":56,"time":1039.723054000067,"velocity":0.8818897637795275,"duration":0.5266207916665735},{"name":"G#1","midi":32,"time":1040.2786100000667,"velocity":0.8818897637795275,"duration":0.5266207916665735},{"name":"G#2","midi":44,"time":1040.2786100000667,"velocity":0.8818897637795275,"duration":0.5266207916665735},{"name":"G#3","midi":56,"time":1040.2786100000667,"velocity":0.8818897637795275,"duration":0.5266207916665735},{"name":"G#1","midi":32,"time":1040.8341660000665,"velocity":0.8818897637795275,"duration":0.7905098916667157},{"name":"G#2","midi":44,"time":1040.8341660000665,"velocity":0.8818897637795275,"duration":0.7905098916667157},{"name":"D#3","midi":51,"time":1040.8341660000665,"velocity":0.8818897637795275,"duration":0.7905098916667157},{"name":"G#3","midi":56,"time":1040.8341660000665,"velocity":0.8818897637795275,"duration":0.7905098916667157},{"name":"G#1","midi":32,"time":1041.6675000000666,"velocity":0.8818897637795275,"duration":0.26273169166665866},{"name":"G#2","midi":44,"time":1041.6675000000666,"velocity":0.8818897637795275,"duration":0.26273169166665866},{"name":"D#3","midi":51,"time":1041.6675000000666,"velocity":0.8818897637795275,"duration":0.26273169166665866},{"name":"G#3","midi":56,"time":1041.6675000000666,"velocity":0.8818897637795275,"duration":0.26273169166665866},{"name":"G#1","midi":32,"time":1041.9452780000665,"velocity":0.8818897637795275,"duration":0.5266207916665735},{"name":"G#2","midi":44,"time":1041.9452780000665,"velocity":0.8818897637795275,"duration":0.5266207916665735},{"name":"G#3","midi":56,"time":1041.9452780000665,"velocity":0.8818897637795275,"duration":0.5266207916665735},{"name":"G#1","midi":32,"time":1042.5008340000663,"velocity":0.8818897637795275,"duration":0.5266207916665735},{"name":"G#2","midi":44,"time":1042.5008340000663,"velocity":0.8818897637795275,"duration":0.5266207916665735},{"name":"G#3","midi":56,"time":1042.5008340000663,"velocity":0.8818897637795275,"duration":0.5266207916665735},{"name":"G#1","midi":32,"time":1043.0563900000661,"velocity":0.8818897637795275,"duration":0.7905098916667157},{"name":"G#2","midi":44,"time":1043.0563900000661,"velocity":0.8818897637795275,"duration":0.7905098916667157},{"name":"D#3","midi":51,"time":1043.0563900000661,"velocity":0.8818897637795275,"duration":0.7905098916667157},{"name":"G#3","midi":56,"time":1043.0563900000661,"velocity":0.8818897637795275,"duration":0.7905098916667157},{"name":"G#1","midi":32,"time":1043.8897240000663,"velocity":0.8818897637795275,"duration":0.26273169166665866},{"name":"G#2","midi":44,"time":1043.8897240000663,"velocity":0.8818897637795275,"duration":0.26273169166665866},{"name":"D#3","midi":51,"time":1043.8897240000663,"velocity":0.8818897637795275,"duration":0.26273169166665866},{"name":"G#3","midi":56,"time":1043.8897240000663,"velocity":0.8818897637795275,"duration":0.26273169166665866},{"name":"A#1","midi":34,"time":1044.1675020000662,"velocity":0.8818897637795275,"duration":0.5266207916665735},{"name":"A#2","midi":46,"time":1044.1675020000662,"velocity":0.8818897637795275,"duration":0.5266207916665735},{"name":"A#3","midi":58,"time":1044.1675020000662,"velocity":0.8818897637795275,"duration":0.5266207916665735},{"name":"A#1","midi":34,"time":1044.723058000066,"velocity":0.8818897637795275,"duration":0.5266207916665735},{"name":"A#2","midi":46,"time":1044.723058000066,"velocity":0.8818897637795275,"duration":0.5266207916665735},{"name":"A#3","midi":58,"time":1044.723058000066,"velocity":0.8818897637795275,"duration":0.5266207916665735},{"name":"A#1","midi":34,"time":1045.2786140000658,"velocity":0.8818897637795275,"duration":0.7905098916667157},{"name":"A#2","midi":46,"time":1045.2786140000658,"velocity":0.8818897637795275,"duration":0.7905098916667157},{"name":"F3","midi":53,"time":1045.2786140000658,"velocity":0.8818897637795275,"duration":0.7905098916667157},{"name":"A#3","midi":58,"time":1045.2786140000658,"velocity":0.8818897637795275,"duration":0.7905098916667157},{"name":"A#1","midi":34,"time":1046.111948000066,"velocity":0.8818897637795275,"duration":0.26273169166665866},{"name":"A#2","midi":46,"time":1046.111948000066,"velocity":0.8818897637795275,"duration":0.26273169166665866},{"name":"F3","midi":53,"time":1046.111948000066,"velocity":0.8818897637795275,"duration":0.26273169166665866},{"name":"A#3","midi":58,"time":1046.111948000066,"velocity":0.8818897637795275,"duration":0.26273169166665866},{"name":"A#1","midi":34,"time":1046.3897260000658,"velocity":0.8818897637795275,"duration":0.5266207916665735},{"name":"A#2","midi":46,"time":1046.3897260000658,"velocity":0.8818897637795275,"duration":0.5266207916665735},{"name":"A#3","midi":58,"time":1046.3897260000658,"velocity":0.8818897637795275,"duration":0.5266207916665735},{"name":"A#1","midi":34,"time":1046.9452820000656,"velocity":0.8818897637795275,"duration":0.5266207916665735},{"name":"A#2","midi":46,"time":1046.9452820000656,"velocity":0.8818897637795275,"duration":0.5266207916665735},{"name":"A#3","midi":58,"time":1046.9452820000656,"velocity":0.8818897637795275,"duration":0.5266207916665735},{"name":"A#1","midi":34,"time":1047.5008380000654,"velocity":0.8818897637795275,"duration":0.7905098916667157},{"name":"A#2","midi":46,"time":1047.5008380000654,"velocity":0.8818897637795275,"duration":0.7905098916667157},{"name":"F3","midi":53,"time":1047.5008380000654,"velocity":0.8818897637795275,"duration":0.7905098916667157},{"name":"A#3","midi":58,"time":1047.5008380000654,"velocity":0.8818897637795275,"duration":0.7905098916667157},{"name":"A#1","midi":34,"time":1048.3341720000656,"velocity":0.8818897637795275,"duration":0.26273169166665866},{"name":"A#2","midi":46,"time":1048.3341720000656,"velocity":0.8818897637795275,"duration":0.26273169166665866},{"name":"F3","midi":53,"time":1048.3341720000656,"velocity":0.8818897637795275,"duration":0.26273169166665866},{"name":"A#3","midi":58,"time":1048.3341720000656,"velocity":0.8818897637795275,"duration":0.26273169166665866},{"name":"C2","midi":36,"time":1048.6119500000655,"velocity":0.8818897637795275,"duration":0.5266207916665735},{"name":"C3","midi":48,"time":1048.6119500000655,"velocity":0.8818897637795275,"duration":0.5266207916665735},{"name":"C4","midi":60,"time":1048.6119500000655,"velocity":0.8818897637795275,"duration":0.5266207916665735},{"name":"C2","midi":36,"time":1049.1675060000653,"velocity":0.8818897637795275,"duration":0.5266207916665735},{"name":"C3","midi":48,"time":1049.1675060000653,"velocity":0.8818897637795275,"duration":0.5266207916665735},{"name":"C4","midi":60,"time":1049.1675060000653,"velocity":0.8818897637795275,"duration":0.5266207916665735},{"name":"C2","midi":36,"time":1049.723062000065,"velocity":0.8818897637795275,"duration":0.7905098916667157},{"name":"C3","midi":48,"time":1049.723062000065,"velocity":0.8818897637795275,"duration":0.7905098916667157},{"name":"G3","midi":55,"time":1049.723062000065,"velocity":0.8818897637795275,"duration":0.7905098916667157},{"name":"C4","midi":60,"time":1049.723062000065,"velocity":0.8818897637795275,"duration":0.7905098916667157},{"name":"C2","midi":36,"time":1050.5563960000652,"velocity":0.8818897637795275,"duration":0.26273169166665866},{"name":"C3","midi":48,"time":1050.5563960000652,"velocity":0.8818897637795275,"duration":0.26273169166665866},{"name":"G3","midi":55,"time":1050.5563960000652,"velocity":0.8818897637795275,"duration":0.26273169166665866},{"name":"C4","midi":60,"time":1050.5563960000652,"velocity":0.8818897637795275,"duration":0.26273169166665866},{"name":"B1","midi":35,"time":1050.834174000065,"velocity":0.8818897637795275,"duration":0.5266207916665735},{"name":"B2","midi":47,"time":1050.834174000065,"velocity":0.8818897637795275,"duration":0.5266207916665735},{"name":"B3","midi":59,"time":1050.834174000065,"velocity":0.8818897637795275,"duration":0.5266207916665735},{"name":"B1","midi":35,"time":1051.389730000065,"velocity":0.8818897637795275,"duration":0.5266207916665735},{"name":"B2","midi":47,"time":1051.389730000065,"velocity":0.8818897637795275,"duration":0.5266207916665735},{"name":"B3","midi":59,"time":1051.389730000065,"velocity":0.8818897637795275,"duration":0.5266207916665735},{"name":"B1","midi":35,"time":1051.9452860000647,"velocity":0.8818897637795275,"duration":0.7905098916667157},{"name":"B2","midi":47,"time":1051.9452860000647,"velocity":0.8818897637795275,"duration":0.7905098916667157},{"name":"G3","midi":55,"time":1051.9452860000647,"velocity":0.8818897637795275,"duration":0.7905098916667157},{"name":"B3","midi":59,"time":1051.9452860000647,"velocity":0.8818897637795275,"duration":0.7905098916667157},{"name":"B1","midi":35,"time":1052.7786200000648,"velocity":0.8818897637795275,"duration":0.26273169166665866},{"name":"B2","midi":47,"time":1052.7786200000648,"velocity":0.8818897637795275,"duration":0.26273169166665866},{"name":"G3","midi":55,"time":1052.7786200000648,"velocity":0.8818897637795275,"duration":0.26273169166665866},{"name":"B3","midi":59,"time":1052.7786200000648,"velocity":0.8818897637795275,"duration":0.26273169166665866},{"name":"A#1","midi":34,"time":1053.0563980000647,"velocity":0.8818897637795275,"duration":0.5266207916665735},{"name":"A#2","midi":46,"time":1053.0563980000647,"velocity":0.8818897637795275,"duration":0.5266207916665735},{"name":"A#3","midi":58,"time":1053.0563980000647,"velocity":0.8818897637795275,"duration":0.5266207916665735},{"name":"A#1","midi":34,"time":1053.6119540000645,"velocity":0.8818897637795275,"duration":0.5266207916665735},{"name":"A#2","midi":46,"time":1053.6119540000645,"velocity":0.8818897637795275,"duration":0.5266207916665735},{"name":"A#3","midi":58,"time":1053.6119540000645,"velocity":0.8818897637795275,"duration":0.5266207916665735},{"name":"A#1","midi":34,"time":1054.1675100000643,"velocity":0.8818897637795275,"duration":0.7905098916667157},{"name":"A#2","midi":46,"time":1054.1675100000643,"velocity":0.8818897637795275,"duration":0.7905098916667157},{"name":"G3","midi":55,"time":1054.1675100000643,"velocity":0.8818897637795275,"duration":0.7905098916667157},{"name":"A#3","midi":58,"time":1054.1675100000643,"velocity":0.8818897637795275,"duration":0.7905098916667157},{"name":"A#1","midi":34,"time":1055.0008440000645,"velocity":0.8818897637795275,"duration":0.26273169166665866},{"name":"A#2","midi":46,"time":1055.0008440000645,"velocity":0.8818897637795275,"duration":0.26273169166665866},{"name":"G3","midi":55,"time":1055.0008440000645,"velocity":0.8818897637795275,"duration":0.26273169166665866},{"name":"A#3","midi":58,"time":1055.0008440000645,"velocity":0.8818897637795275,"duration":0.26273169166665866},{"name":"A1","midi":33,"time":1055.2786220000644,"velocity":0.8818897637795275,"duration":0.5266207916665735},{"name":"A2","midi":45,"time":1055.2786220000644,"velocity":0.8818897637795275,"duration":0.5266207916665735},{"name":"A3","midi":57,"time":1055.2786220000644,"velocity":0.8818897637795275,"duration":0.5266207916665735},{"name":"A1","midi":33,"time":1055.8341780000642,"velocity":0.8818897637795275,"duration":0.5266207916665735},{"name":"A2","midi":45,"time":1055.8341780000642,"velocity":0.8818897637795275,"duration":0.5266207916665735},{"name":"A3","midi":57,"time":1055.8341780000642,"velocity":0.8818897637795275,"duration":0.5266207916665735},{"name":"A1","midi":33,"time":1056.389734000064,"velocity":0.8818897637795275,"duration":0.7905098916667157},{"name":"A2","midi":45,"time":1056.389734000064,"velocity":0.8818897637795275,"duration":0.7905098916667157},{"name":"F3","midi":53,"time":1056.389734000064,"velocity":0.8818897637795275,"duration":0.7905098916667157},{"name":"A3","midi":57,"time":1056.389734000064,"velocity":0.8818897637795275,"duration":0.7905098916667157},{"name":"A1","midi":33,"time":1057.2230680000641,"velocity":0.8818897637795275,"duration":0.26273169166665866},{"name":"A2","midi":45,"time":1057.2230680000641,"velocity":0.8818897637795275,"duration":0.26273169166665866},{"name":"F3","midi":53,"time":1057.2230680000641,"velocity":0.8818897637795275,"duration":0.26273169166665866},{"name":"A3","midi":57,"time":1057.2230680000641,"velocity":0.8818897637795275,"duration":0.26273169166665866},{"name":"G#1","midi":32,"time":1057.500846000064,"velocity":0.8818897637795275,"duration":0.5266207916665735},{"name":"G#2","midi":44,"time":1057.500846000064,"velocity":0.8818897637795275,"duration":0.5266207916665735},{"name":"G#3","midi":56,"time":1057.500846000064,"velocity":0.8818897637795275,"duration":0.5266207916665735},{"name":"G#1","midi":32,"time":1058.0564020000638,"velocity":0.8818897637795275,"duration":0.5266207916665735},{"name":"G#2","midi":44,"time":1058.0564020000638,"velocity":0.8818897637795275,"duration":0.5266207916665735},{"name":"G#3","midi":56,"time":1058.0564020000638,"velocity":0.8818897637795275,"duration":0.5266207916665735},{"name":"G#1","midi":32,"time":1058.6119580000636,"velocity":0.8818897637795275,"duration":0.7905098916667157},{"name":"G#2","midi":44,"time":1058.6119580000636,"velocity":0.8818897637795275,"duration":0.7905098916667157},{"name":"D#3","midi":51,"time":1058.6119580000636,"velocity":0.8818897637795275,"duration":0.7905098916667157},{"name":"G#3","midi":56,"time":1058.6119580000636,"velocity":0.8818897637795275,"duration":0.7905098916667157},{"name":"G#1","midi":32,"time":1059.4452920000638,"velocity":0.8818897637795275,"duration":0.26273169166665866},{"name":"G#2","midi":44,"time":1059.4452920000638,"velocity":0.8818897637795275,"duration":0.26273169166665866},{"name":"D#3","midi":51,"time":1059.4452920000638,"velocity":0.8818897637795275,"duration":0.26273169166665866},{"name":"G#3","midi":56,"time":1059.4452920000638,"velocity":0.8818897637795275,"duration":0.26273169166665866},{"name":"G#1","midi":32,"time":1059.7230700000637,"velocity":0.8818897637795275,"duration":0.5266207916665735},{"name":"G#2","midi":44,"time":1059.7230700000637,"velocity":0.8818897637795275,"duration":0.5266207916665735},{"name":"G#3","midi":56,"time":1059.7230700000637,"velocity":0.8818897637795275,"duration":0.5266207916665735},{"name":"G#1","midi":32,"time":1060.2786260000635,"velocity":0.8818897637795275,"duration":0.5266207916665735},{"name":"G#2","midi":44,"time":1060.2786260000635,"velocity":0.8818897637795275,"duration":0.5266207916665735},{"name":"G#3","midi":56,"time":1060.2786260000635,"velocity":0.8818897637795275,"duration":0.5266207916665735},{"name":"G#1","midi":32,"time":1060.8341820000633,"velocity":0.8818897637795275,"duration":0.7905098916667157},{"name":"G#2","midi":44,"time":1060.8341820000633,"velocity":0.8818897637795275,"duration":0.7905098916667157},{"name":"D#3","midi":51,"time":1060.8341820000633,"velocity":0.8818897637795275,"duration":0.7905098916667157},{"name":"G#3","midi":56,"time":1060.8341820000633,"velocity":0.8818897637795275,"duration":0.7905098916667157},{"name":"G#1","midi":32,"time":1061.6675160000634,"velocity":0.8818897637795275,"duration":0.26273169166665866},{"name":"G#2","midi":44,"time":1061.6675160000634,"velocity":0.8818897637795275,"duration":0.26273169166665866},{"name":"D#3","midi":51,"time":1061.6675160000634,"velocity":0.8818897637795275,"duration":0.26273169166665866},{"name":"G#3","midi":56,"time":1061.6675160000634,"velocity":0.8818897637795275,"duration":0.26273169166665866},{"name":"A#1","midi":34,"time":1061.9452940000633,"velocity":0.8818897637795275,"duration":0.5266207916665735},{"name":"A#2","midi":46,"time":1061.9452940000633,"velocity":0.8818897637795275,"duration":0.5266207916665735},{"name":"A#3","midi":58,"time":1061.9452940000633,"velocity":0.8818897637795275,"duration":0.5266207916665735},{"name":"A#1","midi":34,"time":1062.500850000063,"velocity":0.8818897637795275,"duration":0.5266207916665735},{"name":"A#2","midi":46,"time":1062.500850000063,"velocity":0.8818897637795275,"duration":0.5266207916665735},{"name":"A#3","midi":58,"time":1062.500850000063,"velocity":0.8818897637795275,"duration":0.5266207916665735},{"name":"A#1","midi":34,"time":1063.056406000063,"velocity":0.8818897637795275,"duration":0.7905098916667157},{"name":"A#2","midi":46,"time":1063.056406000063,"velocity":0.8818897637795275,"duration":0.7905098916667157},{"name":"F3","midi":53,"time":1063.056406000063,"velocity":0.8818897637795275,"duration":0.7905098916667157},{"name":"A#3","midi":58,"time":1063.056406000063,"velocity":0.8818897637795275,"duration":0.7905098916667157},{"name":"A#1","midi":34,"time":1063.889740000063,"velocity":0.8818897637795275,"duration":0.26273169166665866},{"name":"A#2","midi":46,"time":1063.889740000063,"velocity":0.8818897637795275,"duration":0.26273169166665866},{"name":"F3","midi":53,"time":1063.889740000063,"velocity":0.8818897637795275,"duration":0.26273169166665866},{"name":"A#3","midi":58,"time":1063.889740000063,"velocity":0.8818897637795275,"duration":0.26273169166665866},{"name":"A#1","midi":34,"time":1064.167518000063,"velocity":0.8818897637795275,"duration":0.5266207916665735},{"name":"A#2","midi":46,"time":1064.167518000063,"velocity":0.8818897637795275,"duration":0.5266207916665735},{"name":"A#3","midi":58,"time":1064.167518000063,"velocity":0.8818897637795275,"duration":0.5266207916665735},{"name":"A#1","midi":34,"time":1064.7230740000628,"velocity":0.8818897637795275,"duration":0.5266207916665735},{"name":"A#2","midi":46,"time":1064.7230740000628,"velocity":0.8818897637795275,"duration":0.5266207916665735},{"name":"A#3","midi":58,"time":1064.7230740000628,"velocity":0.8818897637795275,"duration":0.5266207916665735},{"name":"A#1","midi":34,"time":1065.2786300000625,"velocity":0.8818897637795275,"duration":0.7905098916667157},{"name":"A#2","midi":46,"time":1065.2786300000625,"velocity":0.8818897637795275,"duration":0.7905098916667157},{"name":"F3","midi":53,"time":1065.2786300000625,"velocity":0.8818897637795275,"duration":0.7905098916667157},{"name":"A#3","midi":58,"time":1065.2786300000625,"velocity":0.8818897637795275,"duration":0.7905098916667157},{"name":"A#1","midi":34,"time":1066.1119640000627,"velocity":0.8818897637795275,"duration":0.26273169166665866},{"name":"A#2","midi":46,"time":1066.1119640000627,"velocity":0.8818897637795275,"duration":0.26273169166665866},{"name":"F3","midi":53,"time":1066.1119640000627,"velocity":0.8818897637795275,"duration":0.26273169166665866},{"name":"A#3","midi":58,"time":1066.1119640000627,"velocity":0.8818897637795275,"duration":0.26273169166665866},{"name":"C2","midi":36,"time":1066.3897420000626,"velocity":0.8818897637795275,"duration":0.5266207916665735},{"name":"C3","midi":48,"time":1066.3897420000626,"velocity":0.8818897637795275,"duration":0.5266207916665735},{"name":"C4","midi":60,"time":1066.3897420000626,"velocity":0.8818897637795275,"duration":0.5266207916665735},{"name":"C2","midi":36,"time":1066.9452980000624,"velocity":0.8818897637795275,"duration":0.5266207916665735},{"name":"C3","midi":48,"time":1066.9452980000624,"velocity":0.8818897637795275,"duration":0.5266207916665735},{"name":"C4","midi":60,"time":1066.9452980000624,"velocity":0.8818897637795275,"duration":0.5266207916665735},{"name":"C2","midi":36,"time":1067.5008540000622,"velocity":0.8818897637795275,"duration":0.7905098916667157},{"name":"C3","midi":48,"time":1067.5008540000622,"velocity":0.8818897637795275,"duration":0.7905098916667157},{"name":"G3","midi":55,"time":1067.5008540000622,"velocity":0.8818897637795275,"duration":0.7905098916667157},{"name":"C4","midi":60,"time":1067.5008540000622,"velocity":0.8818897637795275,"duration":0.7905098916667157},{"name":"C2","midi":36,"time":1068.3341880000623,"velocity":0.8818897637795275,"duration":0.26273169166665866},{"name":"C3","midi":48,"time":1068.3341880000623,"velocity":0.8818897637795275,"duration":0.26273169166665866},{"name":"G3","midi":55,"time":1068.3341880000623,"velocity":0.8818897637795275,"duration":0.26273169166665866},{"name":"C4","midi":60,"time":1068.3341880000623,"velocity":0.8818897637795275,"duration":0.26273169166665866},{"name":"C2","midi":36,"time":1068.6119660000622,"velocity":0.8818897637795275,"duration":0.5266207916665735},{"name":"C3","midi":48,"time":1068.6119660000622,"velocity":0.8818897637795275,"duration":0.5266207916665735},{"name":"C4","midi":60,"time":1068.6119660000622,"velocity":0.8818897637795275,"duration":0.5266207916665735},{"name":"C2","midi":36,"time":1069.167522000062,"velocity":0.8818897637795275,"duration":0.5266207916665735},{"name":"C3","midi":48,"time":1069.167522000062,"velocity":0.8818897637795275,"duration":0.5266207916665735},{"name":"C4","midi":60,"time":1069.167522000062,"velocity":0.8818897637795275,"duration":0.5266207916665735},{"name":"C2","midi":36,"time":1069.7230780000618,"velocity":0.8818897637795275,"duration":0.7905098916667157},{"name":"C3","midi":48,"time":1069.7230780000618,"velocity":0.8818897637795275,"duration":0.7905098916667157},{"name":"G3","midi":55,"time":1069.7230780000618,"velocity":0.8818897637795275,"duration":0.7905098916667157},{"name":"C4","midi":60,"time":1069.7230780000618,"velocity":0.8818897637795275,"duration":0.7905098916667157},{"name":"C2","midi":36,"time":1070.556412000062,"velocity":0.8818897637795275,"duration":0.26273169166665866},{"name":"C3","midi":48,"time":1070.556412000062,"velocity":0.8818897637795275,"duration":0.26273169166665866},{"name":"G3","midi":55,"time":1070.556412000062,"velocity":0.8818897637795275,"duration":0.26273169166665866},{"name":"C4","midi":60,"time":1070.556412000062,"velocity":0.8818897637795275,"duration":0.26273169166665866},{"name":"C2","midi":36,"time":1070.8341900000619,"velocity":0.8818897637795275,"duration":0.5266207916665735},{"name":"C3","midi":48,"time":1070.8341900000619,"velocity":0.8818897637795275,"duration":0.5266207916665735},{"name":"C4","midi":60,"time":1070.8341900000619,"velocity":0.8818897637795275,"duration":0.5266207916665735},{"name":"C2","midi":36,"time":1071.3897460000617,"velocity":0.8818897637795275,"duration":0.5266207916665735},{"name":"C3","midi":48,"time":1071.3897460000617,"velocity":0.8818897637795275,"duration":0.5266207916665735},{"name":"C4","midi":60,"time":1071.3897460000617,"velocity":0.8818897637795275,"duration":0.5266207916665735},{"name":"C2","midi":36,"time":1071.9453020000615,"velocity":0.8818897637795275,"duration":0.7905098916667157},{"name":"C3","midi":48,"time":1071.9453020000615,"velocity":0.8818897637795275,"duration":0.7905098916667157},{"name":"G3","midi":55,"time":1071.9453020000615,"velocity":0.8818897637795275,"duration":0.7905098916667157},{"name":"C4","midi":60,"time":1071.9453020000615,"velocity":0.8818897637795275,"duration":0.7905098916667157},{"name":"C2","midi":36,"time":1072.7786360000616,"velocity":0.8818897637795275,"duration":0.26273169166665866},{"name":"C3","midi":48,"time":1072.7786360000616,"velocity":0.8818897637795275,"duration":0.26273169166665866},{"name":"G3","midi":55,"time":1072.7786360000616,"velocity":0.8818897637795275,"duration":0.26273169166665866},{"name":"C4","midi":60,"time":1072.7786360000616,"velocity":0.8818897637795275,"duration":0.26273169166665866},{"name":"C2","midi":36,"time":1073.0564140000615,"velocity":0.8818897637795275,"duration":0.5266207916665735},{"name":"C3","midi":48,"time":1073.0564140000615,"velocity":0.8818897637795275,"duration":0.5266207916665735},{"name":"C4","midi":60,"time":1073.0564140000615,"velocity":0.8818897637795275,"duration":0.5266207916665735},{"name":"C2","midi":36,"time":1073.6119700000613,"velocity":0.8818897637795275,"duration":0.5266207916665735},{"name":"C3","midi":48,"time":1073.6119700000613,"velocity":0.8818897637795275,"duration":0.5266207916665735},{"name":"C4","midi":60,"time":1073.6119700000613,"velocity":0.8818897637795275,"duration":0.5266207916665735},{"name":"C2","midi":36,"time":1074.1675260000611,"velocity":0.8818897637795275,"duration":0.7905098916667157},{"name":"C3","midi":48,"time":1074.1675260000611,"velocity":0.8818897637795275,"duration":0.7905098916667157},{"name":"G3","midi":55,"time":1074.1675260000611,"velocity":0.8818897637795275,"duration":0.7905098916667157},{"name":"C4","midi":60,"time":1074.1675260000611,"velocity":0.8818897637795275,"duration":0.7905098916667157},{"name":"C2","midi":36,"time":1075.0008600000613,"velocity":0.8818897637795275,"duration":0.26273169166665866},{"name":"C3","midi":48,"time":1075.0008600000613,"velocity":0.8818897637795275,"duration":0.26273169166665866},{"name":"G3","midi":55,"time":1075.0008600000613,"velocity":0.8818897637795275,"duration":0.26273169166665866},{"name":"C4","midi":60,"time":1075.0008600000613,"velocity":0.8818897637795275,"duration":0.26273169166665866},{"name":"G#1","midi":32,"time":1075.2786380000612,"velocity":0.8818897637795275,"duration":0.5266207916665735},{"name":"G#2","midi":44,"time":1075.2786380000612,"velocity":0.8818897637795275,"duration":0.5266207916665735},{"name":"G#3","midi":56,"time":1075.2786380000612,"velocity":0.8818897637795275,"duration":0.5266207916665735},{"name":"G#1","midi":32,"time":1075.834194000061,"velocity":0.8818897637795275,"duration":0.5266207916665735},{"name":"G#2","midi":44,"time":1075.834194000061,"velocity":0.8818897637795275,"duration":0.5266207916665735},{"name":"G#3","midi":56,"time":1075.834194000061,"velocity":0.8818897637795275,"duration":0.5266207916665735},{"name":"G#1","midi":32,"time":1076.3897500000608,"velocity":0.8818897637795275,"duration":0.7905098916667157},{"name":"G#2","midi":44,"time":1076.3897500000608,"velocity":0.8818897637795275,"duration":0.7905098916667157},{"name":"D#3","midi":51,"time":1076.3897500000608,"velocity":0.8818897637795275,"duration":0.7905098916667157},{"name":"G#3","midi":56,"time":1076.3897500000608,"velocity":0.8818897637795275,"duration":0.7905098916667157},{"name":"G#1","midi":32,"time":1077.223084000061,"velocity":0.8818897637795275,"duration":0.26273169166665866},{"name":"G#2","midi":44,"time":1077.223084000061,"velocity":0.8818897637795275,"duration":0.26273169166665866},{"name":"D#3","midi":51,"time":1077.223084000061,"velocity":0.8818897637795275,"duration":0.26273169166665866},{"name":"G#3","midi":56,"time":1077.223084000061,"velocity":0.8818897637795275,"duration":0.26273169166665866},{"name":"G#1","midi":32,"time":1077.5008620000608,"velocity":0.8818897637795275,"duration":0.5266207916665735},{"name":"G#2","midi":44,"time":1077.5008620000608,"velocity":0.8818897637795275,"duration":0.5266207916665735},{"name":"G#3","midi":56,"time":1077.5008620000608,"velocity":0.8818897637795275,"duration":0.5266207916665735},{"name":"G#1","midi":32,"time":1078.0564180000606,"velocity":0.8818897637795275,"duration":0.5266207916665735},{"name":"G#2","midi":44,"time":1078.0564180000606,"velocity":0.8818897637795275,"duration":0.5266207916665735},{"name":"G#3","midi":56,"time":1078.0564180000606,"velocity":0.8818897637795275,"duration":0.5266207916665735},{"name":"G#1","midi":32,"time":1078.6119740000604,"velocity":0.8818897637795275,"duration":0.7905098916667157},{"name":"G#2","midi":44,"time":1078.6119740000604,"velocity":0.8818897637795275,"duration":0.7905098916667157},{"name":"D#3","midi":51,"time":1078.6119740000604,"velocity":0.8818897637795275,"duration":0.7905098916667157},{"name":"G#3","midi":56,"time":1078.6119740000604,"velocity":0.8818897637795275,"duration":0.7905098916667157},{"name":"G#1","midi":32,"time":1079.4453080000605,"velocity":0.8818897637795275,"duration":0.26273169166665866},{"name":"G#2","midi":44,"time":1079.4453080000605,"velocity":0.8818897637795275,"duration":0.26273169166665866},{"name":"D#3","midi":51,"time":1079.4453080000605,"velocity":0.8818897637795275,"duration":0.26273169166665866},{"name":"G#3","midi":56,"time":1079.4453080000605,"velocity":0.8818897637795275,"duration":0.26273169166665866},{"name":"B1","midi":35,"time":1079.7230860000604,"velocity":0.8818897637795275,"duration":0.5266207916665735},{"name":"B2","midi":47,"time":1079.7230860000604,"velocity":0.8818897637795275,"duration":0.5266207916665735},{"name":"B3","midi":59,"time":1079.7230860000604,"velocity":0.8818897637795275,"duration":0.5266207916665735},{"name":"B1","midi":35,"time":1080.2786420000602,"velocity":0.8818897637795275,"duration":0.5266207916665735},{"name":"B2","midi":47,"time":1080.2786420000602,"velocity":0.8818897637795275,"duration":0.5266207916665735},{"name":"B3","midi":59,"time":1080.2786420000602,"velocity":0.8818897637795275,"duration":0.5266207916665735},{"name":"B1","midi":35,"time":1080.83419800006,"velocity":0.8818897637795275,"duration":0.7905098916667157},{"name":"B2","midi":47,"time":1080.83419800006,"velocity":0.8818897637795275,"duration":0.7905098916667157},{"name":"G3","midi":55,"time":1080.83419800006,"velocity":0.8818897637795275,"duration":0.7905098916667157},{"name":"B3","midi":59,"time":1080.83419800006,"velocity":0.8818897637795275,"duration":0.7905098916667157},{"name":"B1","midi":35,"time":1081.6675320000602,"velocity":0.8818897637795275,"duration":0.26273169166665866},{"name":"B2","midi":47,"time":1081.6675320000602,"velocity":0.8818897637795275,"duration":0.26273169166665866},{"name":"G3","midi":55,"time":1081.6675320000602,"velocity":0.8818897637795275,"duration":0.26273169166665866},{"name":"B3","midi":59,"time":1081.6675320000602,"velocity":0.8818897637795275,"duration":0.26273169166665866},{"name":"B1","midi":35,"time":1081.94531000006,"velocity":0.8818897637795275,"duration":0.5266207916665735},{"name":"B2","midi":47,"time":1081.94531000006,"velocity":0.8818897637795275,"duration":0.5266207916665735},{"name":"B3","midi":59,"time":1081.94531000006,"velocity":0.8818897637795275,"duration":0.5266207916665735},{"name":"B1","midi":35,"time":1082.50086600006,"velocity":0.8818897637795275,"duration":0.5266207916665735},{"name":"B2","midi":47,"time":1082.50086600006,"velocity":0.8818897637795275,"duration":0.5266207916665735},{"name":"B3","midi":59,"time":1082.50086600006,"velocity":0.8818897637795275,"duration":0.5266207916665735},{"name":"B1","midi":35,"time":1083.0564220000597,"velocity":0.8818897637795275,"duration":0.7905098916667157},{"name":"B2","midi":47,"time":1083.0564220000597,"velocity":0.8818897637795275,"duration":0.7905098916667157},{"name":"G3","midi":55,"time":1083.0564220000597,"velocity":0.8818897637795275,"duration":0.7905098916667157},{"name":"B3","midi":59,"time":1083.0564220000597,"velocity":0.8818897637795275,"duration":0.7905098916667157},{"name":"B1","midi":35,"time":1083.8897560000598,"velocity":0.8818897637795275,"duration":0.26273169166665866},{"name":"B2","midi":47,"time":1083.8897560000598,"velocity":0.8818897637795275,"duration":0.26273169166665866},{"name":"G3","midi":55,"time":1083.8897560000598,"velocity":0.8818897637795275,"duration":0.26273169166665866},{"name":"B3","midi":59,"time":1083.8897560000598,"velocity":0.8818897637795275,"duration":0.26273169166665866},{"name":"C2","midi":36,"time":1084.1675340000597,"velocity":0.8818897637795275,"duration":0.5266207916665735},{"name":"C3","midi":48,"time":1084.1675340000597,"velocity":0.8818897637795275,"duration":0.5266207916665735},{"name":"C4","midi":60,"time":1084.1675340000597,"velocity":0.8818897637795275,"duration":0.5266207916665735},{"name":"C2","midi":36,"time":1084.7230900000595,"velocity":0.8818897637795275,"duration":0.5266207916665735},{"name":"C3","midi":48,"time":1084.7230900000595,"velocity":0.8818897637795275,"duration":0.5266207916665735},{"name":"C4","midi":60,"time":1084.7230900000595,"velocity":0.8818897637795275,"duration":0.5266207916665735},{"name":"C2","midi":36,"time":1085.2786460000593,"velocity":0.8818897637795275,"duration":0.7905098916667157},{"name":"C3","midi":48,"time":1085.2786460000593,"velocity":0.8818897637795275,"duration":0.7905098916667157},{"name":"G3","midi":55,"time":1085.2786460000593,"velocity":0.8818897637795275,"duration":0.7905098916667157},{"name":"C4","midi":60,"time":1085.2786460000593,"velocity":0.8818897637795275,"duration":0.7905098916667157},{"name":"C2","midi":36,"time":1086.1119800000595,"velocity":0.8818897637795275,"duration":0.26273169166665866},{"name":"C3","midi":48,"time":1086.1119800000595,"velocity":0.8818897637795275,"duration":0.26273169166665866},{"name":"G3","midi":55,"time":1086.1119800000595,"velocity":0.8818897637795275,"duration":0.26273169166665866},{"name":"C4","midi":60,"time":1086.1119800000595,"velocity":0.8818897637795275,"duration":0.26273169166665866},{"name":"B1","midi":35,"time":1086.3897580000594,"velocity":0.8818897637795275,"duration":0.5266207916665735},{"name":"B2","midi":47,"time":1086.3897580000594,"velocity":0.8818897637795275,"duration":0.5266207916665735},{"name":"B3","midi":59,"time":1086.3897580000594,"velocity":0.8818897637795275,"duration":0.5266207916665735},{"name":"B1","midi":35,"time":1086.9453140000592,"velocity":0.8818897637795275,"duration":0.5266207916665735},{"name":"B2","midi":47,"time":1086.9453140000592,"velocity":0.8818897637795275,"duration":0.5266207916665735},{"name":"B3","midi":59,"time":1086.9453140000592,"velocity":0.8818897637795275,"duration":0.5266207916665735},{"name":"B1","midi":35,"time":1087.500870000059,"velocity":0.8818897637795275,"duration":0.7905098916667157},{"name":"B2","midi":47,"time":1087.500870000059,"velocity":0.8818897637795275,"duration":0.7905098916667157},{"name":"G3","midi":55,"time":1087.500870000059,"velocity":0.8818897637795275,"duration":0.7905098916667157},{"name":"B3","midi":59,"time":1087.500870000059,"velocity":0.8818897637795275,"duration":0.7905098916667157},{"name":"B1","midi":35,"time":1088.3342040000591,"velocity":0.8818897637795275,"duration":0.26273169166665866},{"name":"B2","midi":47,"time":1088.3342040000591,"velocity":0.8818897637795275,"duration":0.26273169166665866},{"name":"G3","midi":55,"time":1088.3342040000591,"velocity":0.8818897637795275,"duration":0.26273169166665866},{"name":"B3","midi":59,"time":1088.3342040000591,"velocity":0.8818897637795275,"duration":0.26273169166665866},{"name":"A#1","midi":34,"time":1088.611982000059,"velocity":0.8818897637795275,"duration":0.5266207916665735},{"name":"A#2","midi":46,"time":1088.611982000059,"velocity":0.8818897637795275,"duration":0.5266207916665735},{"name":"A#3","midi":58,"time":1088.611982000059,"velocity":0.8818897637795275,"duration":0.5266207916665735},{"name":"A#1","midi":34,"time":1089.1675380000588,"velocity":0.8818897637795275,"duration":0.5266207916665735},{"name":"A#2","midi":46,"time":1089.1675380000588,"velocity":0.8818897637795275,"duration":0.5266207916665735},{"name":"A#3","midi":58,"time":1089.1675380000588,"velocity":0.8818897637795275,"duration":0.5266207916665735},{"name":"A#1","midi":34,"time":1089.7230940000586,"velocity":0.8818897637795275,"duration":0.7905098916667157},{"name":"A#2","midi":46,"time":1089.7230940000586,"velocity":0.8818897637795275,"duration":0.7905098916667157},{"name":"F3","midi":53,"time":1089.7230940000586,"velocity":0.8818897637795275,"duration":0.7905098916667157},{"name":"A#3","midi":58,"time":1089.7230940000586,"velocity":0.8818897637795275,"duration":0.7905098916667157},{"name":"A#1","midi":34,"time":1090.5564280000588,"velocity":0.8818897637795275,"duration":0.26273169166665866},{"name":"A#2","midi":46,"time":1090.5564280000588,"velocity":0.8818897637795275,"duration":0.26273169166665866},{"name":"F3","midi":53,"time":1090.5564280000588,"velocity":0.8818897637795275,"duration":0.26273169166665866},{"name":"A#3","midi":58,"time":1090.5564280000588,"velocity":0.8818897637795275,"duration":0.26273169166665866},{"name":"A1","midi":33,"time":1090.8342060000587,"velocity":0.8818897637795275,"duration":0.5266207916665735},{"name":"A2","midi":45,"time":1090.8342060000587,"velocity":0.8818897637795275,"duration":0.5266207916665735},{"name":"A3","midi":57,"time":1090.8342060000587,"velocity":0.8818897637795275,"duration":0.5266207916665735},{"name":"A1","midi":33,"time":1091.3897620000585,"velocity":0.8818897637795275,"duration":0.5266207916665735},{"name":"A2","midi":45,"time":1091.3897620000585,"velocity":0.8818897637795275,"duration":0.5266207916665735},{"name":"A3","midi":57,"time":1091.3897620000585,"velocity":0.8818897637795275,"duration":0.5266207916665735},{"name":"A1","midi":33,"time":1091.9453180000583,"velocity":0.8818897637795275,"duration":0.7905098916667157},{"name":"A2","midi":45,"time":1091.9453180000583,"velocity":0.8818897637795275,"duration":0.7905098916667157},{"name":"F3","midi":53,"time":1091.9453180000583,"velocity":0.8818897637795275,"duration":0.7905098916667157},{"name":"A3","midi":57,"time":1091.9453180000583,"velocity":0.8818897637795275,"duration":0.7905098916667157},{"name":"A1","midi":33,"time":1092.7786520000584,"velocity":0.8818897637795275,"duration":0.26273169166665866},{"name":"A2","midi":45,"time":1092.7786520000584,"velocity":0.8818897637795275,"duration":0.26273169166665866},{"name":"F3","midi":53,"time":1092.7786520000584,"velocity":0.8818897637795275,"duration":0.26273169166665866},{"name":"A3","midi":57,"time":1092.7786520000584,"velocity":0.8818897637795275,"duration":0.26273169166665866},{"name":"G#1","midi":32,"time":1093.0564300000583,"velocity":0.8818897637795275,"duration":0.5266207916665735},{"name":"G#2","midi":44,"time":1093.0564300000583,"velocity":0.8818897637795275,"duration":0.5266207916665735},{"name":"G#3","midi":56,"time":1093.0564300000583,"velocity":0.8818897637795275,"duration":0.5266207916665735},{"name":"G#1","midi":32,"time":1093.611986000058,"velocity":0.8818897637795275,"duration":0.5266207916665735},{"name":"G#2","midi":44,"time":1093.611986000058,"velocity":0.8818897637795275,"duration":0.5266207916665735},{"name":"G#3","midi":56,"time":1093.611986000058,"velocity":0.8818897637795275,"duration":0.5266207916665735},{"name":"G#1","midi":32,"time":1094.167542000058,"velocity":0.8818897637795275,"duration":0.7905098916667157},{"name":"G#2","midi":44,"time":1094.167542000058,"velocity":0.8818897637795275,"duration":0.7905098916667157},{"name":"D#3","midi":51,"time":1094.167542000058,"velocity":0.8818897637795275,"duration":0.7905098916667157},{"name":"G#3","midi":56,"time":1094.167542000058,"velocity":0.8818897637795275,"duration":0.7905098916667157},{"name":"G#1","midi":32,"time":1095.000876000058,"velocity":0.8818897637795275,"duration":0.26273169166665866},{"name":"G#2","midi":44,"time":1095.000876000058,"velocity":0.8818897637795275,"duration":0.26273169166665866},{"name":"D#3","midi":51,"time":1095.000876000058,"velocity":0.8818897637795275,"duration":0.26273169166665866},{"name":"G#3","midi":56,"time":1095.000876000058,"velocity":0.8818897637795275,"duration":0.26273169166665866},{"name":"G#1","midi":32,"time":1095.278654000058,"velocity":0.8818897637795275,"duration":0.5266207916665735},{"name":"G#2","midi":44,"time":1095.278654000058,"velocity":0.8818897637795275,"duration":0.5266207916665735},{"name":"G#3","midi":56,"time":1095.278654000058,"velocity":0.8818897637795275,"duration":0.5266207916665735},{"name":"G#1","midi":32,"time":1095.8342100000577,"velocity":0.8818897637795275,"duration":0.5266207916665735},{"name":"G#2","midi":44,"time":1095.8342100000577,"velocity":0.8818897637795275,"duration":0.5266207916665735},{"name":"G#3","midi":56,"time":1095.8342100000577,"velocity":0.8818897637795275,"duration":0.5266207916665735},{"name":"G#1","midi":32,"time":1096.3897660000575,"velocity":0.8818897637795275,"duration":0.7905098916667157},{"name":"G#2","midi":44,"time":1096.3897660000575,"velocity":0.8818897637795275,"duration":0.7905098916667157},{"name":"D#3","midi":51,"time":1096.3897660000575,"velocity":0.8818897637795275,"duration":0.7905098916667157},{"name":"G#3","midi":56,"time":1096.3897660000575,"velocity":0.8818897637795275,"duration":0.7905098916667157},{"name":"G#1","midi":32,"time":1097.2231000000577,"velocity":0.8818897637795275,"duration":0.26273169166665866},{"name":"G#2","midi":44,"time":1097.2231000000577,"velocity":0.8818897637795275,"duration":0.26273169166665866},{"name":"D#3","midi":51,"time":1097.2231000000577,"velocity":0.8818897637795275,"duration":0.26273169166665866},{"name":"G#3","midi":56,"time":1097.2231000000577,"velocity":0.8818897637795275,"duration":0.26273169166665866},{"name":"B1","midi":35,"time":1097.5008780000576,"velocity":0.8818897637795275,"duration":0.5266207916665735},{"name":"B2","midi":47,"time":1097.5008780000576,"velocity":0.8818897637795275,"duration":0.5266207916665735},{"name":"B3","midi":59,"time":1097.5008780000576,"velocity":0.8818897637795275,"duration":0.5266207916665735},{"name":"B1","midi":35,"time":1098.0564340000574,"velocity":0.8818897637795275,"duration":0.5266207916665735},{"name":"B2","midi":47,"time":1098.0564340000574,"velocity":0.8818897637795275,"duration":0.5266207916665735},{"name":"B3","midi":59,"time":1098.0564340000574,"velocity":0.8818897637795275,"duration":0.5266207916665735},{"name":"B1","midi":35,"time":1098.6119900000572,"velocity":0.8818897637795275,"duration":0.7905098916667157},{"name":"B2","midi":47,"time":1098.6119900000572,"velocity":0.8818897637795275,"duration":0.7905098916667157},{"name":"G3","midi":55,"time":1098.6119900000572,"velocity":0.8818897637795275,"duration":0.7905098916667157},{"name":"B3","midi":59,"time":1098.6119900000572,"velocity":0.8818897637795275,"duration":0.7905098916667157},{"name":"B1","midi":35,"time":1099.4453240000573,"velocity":0.8818897637795275,"duration":0.26273169166665866},{"name":"B2","midi":47,"time":1099.4453240000573,"velocity":0.8818897637795275,"duration":0.26273169166665866},{"name":"G3","midi":55,"time":1099.4453240000573,"velocity":0.8818897637795275,"duration":0.26273169166665866},{"name":"B3","midi":59,"time":1099.4453240000573,"velocity":0.8818897637795275,"duration":0.26273169166665866},{"name":"B1","midi":35,"time":1099.7231020000572,"velocity":0.8818897637795275,"duration":0.5266207916665735},{"name":"B2","midi":47,"time":1099.7231020000572,"velocity":0.8818897637795275,"duration":0.5266207916665735},{"name":"B3","midi":59,"time":1099.7231020000572,"velocity":0.8818897637795275,"duration":0.5266207916665735},{"name":"B1","midi":35,"time":1100.278658000057,"velocity":0.8818897637795275,"duration":0.5266207916665735},{"name":"B2","midi":47,"time":1100.278658000057,"velocity":0.8818897637795275,"duration":0.5266207916665735},{"name":"B3","midi":59,"time":1100.278658000057,"velocity":0.8818897637795275,"duration":0.5266207916665735},{"name":"B1","midi":35,"time":1100.8342140000568,"velocity":0.8818897637795275,"duration":0.7905098916667157},{"name":"B2","midi":47,"time":1100.8342140000568,"velocity":0.8818897637795275,"duration":0.7905098916667157},{"name":"G3","midi":55,"time":1100.8342140000568,"velocity":0.8818897637795275,"duration":0.7905098916667157},{"name":"B3","midi":59,"time":1100.8342140000568,"velocity":0.8818897637795275,"duration":0.7905098916667157},{"name":"B1","midi":35,"time":1101.667548000057,"velocity":0.8818897637795275,"duration":0.26273169166665866},{"name":"B2","midi":47,"time":1101.667548000057,"velocity":0.8818897637795275,"duration":0.26273169166665866},{"name":"G3","midi":55,"time":1101.667548000057,"velocity":0.8818897637795275,"duration":0.26273169166665866},{"name":"B3","midi":59,"time":1101.667548000057,"velocity":0.8818897637795275,"duration":0.26273169166665866},{"name":"C2","midi":36,"time":1101.9453260000569,"velocity":0.8818897637795275,"duration":0.5266207916665735},{"name":"C3","midi":48,"time":1101.9453260000569,"velocity":0.8818897637795275,"duration":0.5266207916665735},{"name":"C4","midi":60,"time":1101.9453260000569,"velocity":0.8818897637795275,"duration":0.5266207916665735},{"name":"C2","midi":36,"time":1102.5008820000567,"velocity":0.8818897637795275,"duration":0.5266207916665735},{"name":"C3","midi":48,"time":1102.5008820000567,"velocity":0.8818897637795275,"duration":0.5266207916665735},{"name":"C4","midi":60,"time":1102.5008820000567,"velocity":0.8818897637795275,"duration":0.5266207916665735},{"name":"C2","midi":36,"time":1103.0564380000565,"velocity":0.8818897637795275,"duration":0.7905098916667157},{"name":"C3","midi":48,"time":1103.0564380000565,"velocity":0.8818897637795275,"duration":0.7905098916667157},{"name":"G3","midi":55,"time":1103.0564380000565,"velocity":0.8818897637795275,"duration":0.7905098916667157},{"name":"C4","midi":60,"time":1103.0564380000565,"velocity":0.8818897637795275,"duration":0.7905098916667157},{"name":"C2","midi":36,"time":1103.8897720000566,"velocity":0.8818897637795275,"duration":0.26273169166665866},{"name":"C3","midi":48,"time":1103.8897720000566,"velocity":0.8818897637795275,"duration":0.26273169166665866},{"name":"G3","midi":55,"time":1103.8897720000566,"velocity":0.8818897637795275,"duration":0.26273169166665866},{"name":"C4","midi":60,"time":1103.8897720000566,"velocity":0.8818897637795275,"duration":0.26273169166665866},{"name":"C2","midi":36,"time":1104.1675500000565,"velocity":0.8818897637795275,"duration":0.5266207916665735},{"name":"C3","midi":48,"time":1104.1675500000565,"velocity":0.8818897637795275,"duration":0.5266207916665735},{"name":"C4","midi":60,"time":1104.1675500000565,"velocity":0.8818897637795275,"duration":0.5266207916665735},{"name":"C2","midi":36,"time":1104.7231060000563,"velocity":0.8818897637795275,"duration":0.5266207916665735},{"name":"C3","midi":48,"time":1104.7231060000563,"velocity":0.8818897637795275,"duration":0.5266207916665735},{"name":"C4","midi":60,"time":1104.7231060000563,"velocity":0.8818897637795275,"duration":0.5266207916665735},{"name":"C2","midi":36,"time":1105.278662000056,"velocity":0.8818897637795275,"duration":0.7905098916667157},{"name":"C3","midi":48,"time":1105.278662000056,"velocity":0.8818897637795275,"duration":0.7905098916667157},{"name":"G3","midi":55,"time":1105.278662000056,"velocity":0.8818897637795275,"duration":0.7905098916667157},{"name":"C4","midi":60,"time":1105.278662000056,"velocity":0.8818897637795275,"duration":0.7905098916667157},{"name":"C2","midi":36,"time":1106.1119960000563,"velocity":0.8818897637795275,"duration":0.26273169166665866},{"name":"C3","midi":48,"time":1106.1119960000563,"velocity":0.8818897637795275,"duration":0.26273169166665866},{"name":"G3","midi":55,"time":1106.1119960000563,"velocity":0.8818897637795275,"duration":0.26273169166665866},{"name":"C4","midi":60,"time":1106.1119960000563,"velocity":0.8818897637795275,"duration":0.26273169166665866},{"name":"D2","midi":38,"time":1106.3897740000561,"velocity":0.8818897637795275,"duration":0.5266207916665735},{"name":"D3","midi":50,"time":1106.3897740000561,"velocity":0.8818897637795275,"duration":0.5266207916665735},{"name":"D4","midi":62,"time":1106.3897740000561,"velocity":0.8818897637795275,"duration":0.5266207916665735},{"name":"D2","midi":38,"time":1106.945330000056,"velocity":0.8818897637795275,"duration":0.5266207916665735},{"name":"D3","midi":50,"time":1106.945330000056,"velocity":0.8818897637795275,"duration":0.5266207916665735},{"name":"D4","midi":62,"time":1106.945330000056,"velocity":0.8818897637795275,"duration":0.5266207916665735},{"name":"D2","midi":38,"time":1107.5008860000557,"velocity":0.8818897637795275,"duration":0.7905098916667157},{"name":"D3","midi":50,"time":1107.5008860000557,"velocity":0.8818897637795275,"duration":0.7905098916667157},{"name":"A3","midi":57,"time":1107.5008860000557,"velocity":0.8818897637795275,"duration":0.7905098916667157},{"name":"D4","midi":62,"time":1107.5008860000557,"velocity":0.8818897637795275,"duration":0.7905098916667157},{"name":"D2","midi":38,"time":1108.334220000056,"velocity":0.8818897637795275,"duration":0.26273169166665866},{"name":"D3","midi":50,"time":1108.334220000056,"velocity":0.8818897637795275,"duration":0.26273169166665866},{"name":"A3","midi":57,"time":1108.334220000056,"velocity":0.8818897637795275,"duration":0.26273169166665866},{"name":"D4","midi":62,"time":1108.334220000056,"velocity":0.8818897637795275,"duration":0.26273169166665866},{"name":"D2","midi":38,"time":1108.6119980000558,"velocity":0.8818897637795275,"duration":0.5266207916665735},{"name":"D3","midi":50,"time":1108.6119980000558,"velocity":0.8818897637795275,"duration":0.5266207916665735},{"name":"D4","midi":62,"time":1108.6119980000558,"velocity":0.8818897637795275,"duration":0.5266207916665735},{"name":"D2","midi":38,"time":1109.1675540000556,"velocity":0.8818897637795275,"duration":0.5266207916665735},{"name":"D3","midi":50,"time":1109.1675540000556,"velocity":0.8818897637795275,"duration":0.5266207916665735},{"name":"D4","midi":62,"time":1109.1675540000556,"velocity":0.8818897637795275,"duration":0.5266207916665735},{"name":"D2","midi":38,"time":1109.7231100000554,"velocity":0.8818897637795275,"duration":0.7905098916667157},{"name":"D3","midi":50,"time":1109.7231100000554,"velocity":0.8818897637795275,"duration":0.7905098916667157},{"name":"A3","midi":57,"time":1109.7231100000554,"velocity":0.8818897637795275,"duration":0.7905098916667157},{"name":"D4","midi":62,"time":1109.7231100000554,"velocity":0.8818897637795275,"duration":0.7905098916667157},{"name":"D2","midi":38,"time":1110.5564440000555,"velocity":0.8818897637795275,"duration":0.26273169166665866},{"name":"D3","midi":50,"time":1110.5564440000555,"velocity":0.8818897637795275,"duration":0.26273169166665866},{"name":"A3","midi":57,"time":1110.5564440000555,"velocity":0.8818897637795275,"duration":0.26273169166665866},{"name":"D4","midi":62,"time":1110.5564440000555,"velocity":0.8818897637795275,"duration":0.26273169166665866},{"name":"G#1","midi":32,"time":1110.8342220000554,"velocity":0.8818897637795275,"duration":0.5266207916665735},{"name":"G#2","midi":44,"time":1110.8342220000554,"velocity":0.8818897637795275,"duration":0.5266207916665735},{"name":"G#3","midi":56,"time":1110.8342220000554,"velocity":0.8818897637795275,"duration":0.5266207916665735},{"name":"G#1","midi":32,"time":1111.3897780000552,"velocity":0.8818897637795275,"duration":0.5266207916665735},{"name":"G#2","midi":44,"time":1111.3897780000552,"velocity":0.8818897637795275,"duration":0.5266207916665735},{"name":"G#3","midi":56,"time":1111.3897780000552,"velocity":0.8818897637795275,"duration":0.5266207916665735},{"name":"G#1","midi":32,"time":1111.945334000055,"velocity":0.8818897637795275,"duration":0.7905098916667157},{"name":"G#2","midi":44,"time":1111.945334000055,"velocity":0.8818897637795275,"duration":0.7905098916667157},{"name":"D#3","midi":51,"time":1111.945334000055,"velocity":0.8818897637795275,"duration":0.7905098916667157},{"name":"G#3","midi":56,"time":1111.945334000055,"velocity":0.8818897637795275,"duration":0.7905098916667157},{"name":"G#1","midi":32,"time":1112.7786680000552,"velocity":0.8818897637795275,"duration":0.26273169166665866},{"name":"G#2","midi":44,"time":1112.7786680000552,"velocity":0.8818897637795275,"duration":0.26273169166665866},{"name":"D#3","midi":51,"time":1112.7786680000552,"velocity":0.8818897637795275,"duration":0.26273169166665866},{"name":"G#3","midi":56,"time":1112.7786680000552,"velocity":0.8818897637795275,"duration":0.26273169166665866},{"name":"G#1","midi":32,"time":1113.056446000055,"velocity":0.8818897637795275,"duration":0.5266207916665735},{"name":"G#2","midi":44,"time":1113.056446000055,"velocity":0.8818897637795275,"duration":0.5266207916665735},{"name":"G#3","midi":56,"time":1113.056446000055,"velocity":0.8818897637795275,"duration":0.5266207916665735},{"name":"G#1","midi":32,"time":1113.6120020000549,"velocity":0.8818897637795275,"duration":0.5266207916665735},{"name":"G#2","midi":44,"time":1113.6120020000549,"velocity":0.8818897637795275,"duration":0.5266207916665735},{"name":"G#3","midi":56,"time":1113.6120020000549,"velocity":0.8818897637795275,"duration":0.5266207916665735},{"name":"G#1","midi":32,"time":1114.1675580000547,"velocity":0.8818897637795275,"duration":0.7905098916667157},{"name":"G#2","midi":44,"time":1114.1675580000547,"velocity":0.8818897637795275,"duration":0.7905098916667157},{"name":"D#3","midi":51,"time":1114.1675580000547,"velocity":0.8818897637795275,"duration":0.7905098916667157},{"name":"G#3","midi":56,"time":1114.1675580000547,"velocity":0.8818897637795275,"duration":0.7905098916667157},{"name":"G#1","midi":32,"time":1115.0008920000548,"velocity":0.8818897637795275,"duration":0.26273169166665866},{"name":"G#2","midi":44,"time":1115.0008920000548,"velocity":0.8818897637795275,"duration":0.26273169166665866},{"name":"D#3","midi":51,"time":1115.0008920000548,"velocity":0.8818897637795275,"duration":0.26273169166665866},{"name":"G#3","midi":56,"time":1115.0008920000548,"velocity":0.8818897637795275,"duration":0.26273169166665866},{"name":"B1","midi":35,"time":1115.2786700000547,"velocity":0.8818897637795275,"duration":0.5266207916665735},{"name":"B2","midi":47,"time":1115.2786700000547,"velocity":0.8818897637795275,"duration":0.5266207916665735},{"name":"B3","midi":59,"time":1115.2786700000547,"velocity":0.8818897637795275,"duration":0.5266207916665735},{"name":"B1","midi":35,"time":1115.8342260000545,"velocity":0.8818897637795275,"duration":0.5266207916665735},{"name":"B2","midi":47,"time":1115.8342260000545,"velocity":0.8818897637795275,"duration":0.5266207916665735},{"name":"B3","midi":59,"time":1115.8342260000545,"velocity":0.8818897637795275,"duration":0.5266207916665735},{"name":"B1","midi":35,"time":1116.3897820000543,"velocity":0.8818897637795275,"duration":0.7905098916667157},{"name":"B2","midi":47,"time":1116.3897820000543,"velocity":0.8818897637795275,"duration":0.7905098916667157},{"name":"G3","midi":55,"time":1116.3897820000543,"velocity":0.8818897637795275,"duration":0.7905098916667157},{"name":"B3","midi":59,"time":1116.3897820000543,"velocity":0.8818897637795275,"duration":0.7905098916667157},{"name":"B1","midi":35,"time":1117.2231160000545,"velocity":0.8818897637795275,"duration":0.26273169166665866},{"name":"B2","midi":47,"time":1117.2231160000545,"velocity":0.8818897637795275,"duration":0.26273169166665866},{"name":"G3","midi":55,"time":1117.2231160000545,"velocity":0.8818897637795275,"duration":0.26273169166665866},{"name":"B3","midi":59,"time":1117.2231160000545,"velocity":0.8818897637795275,"duration":0.26273169166665866},{"name":"B1","midi":35,"time":1117.5008940000544,"velocity":0.8818897637795275,"duration":0.5266207916665735},{"name":"B2","midi":47,"time":1117.5008940000544,"velocity":0.8818897637795275,"duration":0.5266207916665735},{"name":"B3","midi":59,"time":1117.5008940000544,"velocity":0.8818897637795275,"duration":0.5266207916665735},{"name":"B1","midi":35,"time":1118.0564500000542,"velocity":0.8818897637795275,"duration":0.5266207916665735},{"name":"B2","midi":47,"time":1118.0564500000542,"velocity":0.8818897637795275,"duration":0.5266207916665735},{"name":"B3","midi":59,"time":1118.0564500000542,"velocity":0.8818897637795275,"duration":0.5266207916665735},{"name":"B1","midi":35,"time":1118.612006000054,"velocity":0.8818897637795275,"duration":0.7905098916667157},{"name":"B2","midi":47,"time":1118.612006000054,"velocity":0.8818897637795275,"duration":0.7905098916667157},{"name":"G3","midi":55,"time":1118.612006000054,"velocity":0.8818897637795275,"duration":0.7905098916667157},{"name":"B3","midi":59,"time":1118.612006000054,"velocity":0.8818897637795275,"duration":0.7905098916667157},{"name":"B1","midi":35,"time":1119.445340000054,"velocity":0.8818897637795275,"duration":0.26273169166665866},{"name":"B2","midi":47,"time":1119.445340000054,"velocity":0.8818897637795275,"duration":0.26273169166665866},{"name":"G3","midi":55,"time":1119.445340000054,"velocity":0.8818897637795275,"duration":0.26273169166665866},{"name":"B3","midi":59,"time":1119.445340000054,"velocity":0.8818897637795275,"duration":0.26273169166665866},{"name":"C2","midi":36,"time":1119.723118000054,"velocity":0.8818897637795275,"duration":0.5266207916665735},{"name":"C3","midi":48,"time":1119.723118000054,"velocity":0.8818897637795275,"duration":0.5266207916665735},{"name":"C4","midi":60,"time":1119.723118000054,"velocity":0.8818897637795275,"duration":0.5266207916665735},{"name":"C2","midi":36,"time":1120.2786740000538,"velocity":0.8818897637795275,"duration":0.5266207916665735},{"name":"C3","midi":48,"time":1120.2786740000538,"velocity":0.8818897637795275,"duration":0.5266207916665735},{"name":"C4","midi":60,"time":1120.2786740000538,"velocity":0.8818897637795275,"duration":0.5266207916665735},{"name":"C2","midi":36,"time":1120.8342300000536,"velocity":0.8818897637795275,"duration":0.7905098916667157},{"name":"C3","midi":48,"time":1120.8342300000536,"velocity":0.8818897637795275,"duration":0.7905098916667157},{"name":"G3","midi":55,"time":1120.8342300000536,"velocity":0.8818897637795275,"duration":0.7905098916667157},{"name":"C4","midi":60,"time":1120.8342300000536,"velocity":0.8818897637795275,"duration":0.7905098916667157},{"name":"C2","midi":36,"time":1121.6675640000537,"velocity":0.8818897637795275,"duration":0.26273169166665866},{"name":"C3","midi":48,"time":1121.6675640000537,"velocity":0.8818897637795275,"duration":0.26273169166665866},{"name":"G3","midi":55,"time":1121.6675640000537,"velocity":0.8818897637795275,"duration":0.26273169166665866},{"name":"C4","midi":60,"time":1121.6675640000537,"velocity":0.8818897637795275,"duration":0.26273169166665866},{"name":"B1","midi":35,"time":1121.9453420000536,"velocity":0.8818897637795275,"duration":0.5266207916665735},{"name":"B2","midi":47,"time":1121.9453420000536,"velocity":0.8818897637795275,"duration":0.5266207916665735},{"name":"B3","midi":59,"time":1121.9453420000536,"velocity":0.8818897637795275,"duration":0.5266207916665735},{"name":"B1","midi":35,"time":1122.5008980000534,"velocity":0.8818897637795275,"duration":0.5266207916665735},{"name":"B2","midi":47,"time":1122.5008980000534,"velocity":0.8818897637795275,"duration":0.5266207916665735},{"name":"B3","midi":59,"time":1122.5008980000534,"velocity":0.8818897637795275,"duration":0.5266207916665735},{"name":"B1","midi":35,"time":1123.0564540000532,"velocity":0.8818897637795275,"duration":0.7905098916667157},{"name":"B2","midi":47,"time":1123.0564540000532,"velocity":0.8818897637795275,"duration":0.7905098916667157},{"name":"G3","midi":55,"time":1123.0564540000532,"velocity":0.8818897637795275,"duration":0.7905098916667157},{"name":"B3","midi":59,"time":1123.0564540000532,"velocity":0.8818897637795275,"duration":0.7905098916667157},{"name":"B1","midi":35,"time":1123.8897880000534,"velocity":0.8818897637795275,"duration":0.26273169166665866},{"name":"B2","midi":47,"time":1123.8897880000534,"velocity":0.8818897637795275,"duration":0.26273169166665866},{"name":"G3","midi":55,"time":1123.8897880000534,"velocity":0.8818897637795275,"duration":0.26273169166665866},{"name":"B3","midi":59,"time":1123.8897880000534,"velocity":0.8818897637795275,"duration":0.26273169166665866},{"name":"A#1","midi":34,"time":1124.1675660000533,"velocity":0.8818897637795275,"duration":0.5266207916665735},{"name":"A#2","midi":46,"time":1124.1675660000533,"velocity":0.8818897637795275,"duration":0.5266207916665735},{"name":"A#3","midi":58,"time":1124.1675660000533,"velocity":0.8818897637795275,"duration":0.5266207916665735},{"name":"A#1","midi":34,"time":1124.723122000053,"velocity":0.8818897637795275,"duration":0.5266207916665735},{"name":"A#2","midi":46,"time":1124.723122000053,"velocity":0.8818897637795275,"duration":0.5266207916665735},{"name":"A#3","midi":58,"time":1124.723122000053,"velocity":0.8818897637795275,"duration":0.5266207916665735},{"name":"A#1","midi":34,"time":1125.2786780000529,"velocity":0.8818897637795275,"duration":0.7905098916667157},{"name":"A#2","midi":46,"time":1125.2786780000529,"velocity":0.8818897637795275,"duration":0.7905098916667157},{"name":"F3","midi":53,"time":1125.2786780000529,"velocity":0.8818897637795275,"duration":0.7905098916667157},{"name":"A#3","midi":58,"time":1125.2786780000529,"velocity":0.8818897637795275,"duration":0.7905098916667157},{"name":"A#1","midi":34,"time":1126.112012000053,"velocity":0.8818897637795275,"duration":0.26273169166665866},{"name":"A#2","midi":46,"time":1126.112012000053,"velocity":0.8818897637795275,"duration":0.26273169166665866},{"name":"F3","midi":53,"time":1126.112012000053,"velocity":0.8818897637795275,"duration":0.26273169166665866},{"name":"A#3","midi":58,"time":1126.112012000053,"velocity":0.8818897637795275,"duration":0.26273169166665866},{"name":"A1","midi":33,"time":1126.389790000053,"velocity":0.8818897637795275,"duration":0.5266207916665735},{"name":"A2","midi":45,"time":1126.389790000053,"velocity":0.8818897637795275,"duration":0.5266207916665735},{"name":"A3","midi":57,"time":1126.389790000053,"velocity":0.8818897637795275,"duration":0.5266207916665735},{"name":"A1","midi":33,"time":1126.9453460000527,"velocity":0.8818897637795275,"duration":0.5266207916665735},{"name":"A2","midi":45,"time":1126.9453460000527,"velocity":0.8818897637795275,"duration":0.5266207916665735},{"name":"A3","midi":57,"time":1126.9453460000527,"velocity":0.8818897637795275,"duration":0.5266207916665735},{"name":"A1","midi":33,"time":1127.5009020000525,"velocity":0.8818897637795275,"duration":0.7905098916667157},{"name":"A2","midi":45,"time":1127.5009020000525,"velocity":0.8818897637795275,"duration":0.7905098916667157},{"name":"F3","midi":53,"time":1127.5009020000525,"velocity":0.8818897637795275,"duration":0.7905098916667157},{"name":"A3","midi":57,"time":1127.5009020000525,"velocity":0.8818897637795275,"duration":0.7905098916667157},{"name":"A1","midi":33,"time":1128.3342360000527,"velocity":0.8818897637795275,"duration":0.26273169166665866},{"name":"A2","midi":45,"time":1128.3342360000527,"velocity":0.8818897637795275,"duration":0.26273169166665866},{"name":"F3","midi":53,"time":1128.3342360000527,"velocity":0.8818897637795275,"duration":0.26273169166665866},{"name":"A3","midi":57,"time":1128.3342360000527,"velocity":0.8818897637795275,"duration":0.26273169166665866},{"name":"G#1","midi":32,"time":1128.6120140000526,"velocity":0.8818897637795275,"duration":0.5266207916665735},{"name":"G#2","midi":44,"time":1128.6120140000526,"velocity":0.8818897637795275,"duration":0.5266207916665735},{"name":"G#3","midi":56,"time":1128.6120140000526,"velocity":0.8818897637795275,"duration":0.5266207916665735},{"name":"G#1","midi":32,"time":1129.1675700000524,"velocity":0.8818897637795275,"duration":0.5266207916665735},{"name":"G#2","midi":44,"time":1129.1675700000524,"velocity":0.8818897637795275,"duration":0.5266207916665735},{"name":"G#3","midi":56,"time":1129.1675700000524,"velocity":0.8818897637795275,"duration":0.5266207916665735},{"name":"G#1","midi":32,"time":1129.7231260000522,"velocity":0.8818897637795275,"duration":0.7905098916667157},{"name":"G#2","midi":44,"time":1129.7231260000522,"velocity":0.8818897637795275,"duration":0.7905098916667157},{"name":"D#3","midi":51,"time":1129.7231260000522,"velocity":0.8818897637795275,"duration":0.7905098916667157},{"name":"G#3","midi":56,"time":1129.7231260000522,"velocity":0.8818897637795275,"duration":0.7905098916667157},{"name":"G#1","midi":32,"time":1130.5564600000523,"velocity":0.8818897637795275,"duration":0.26273169166665866},{"name":"G#2","midi":44,"time":1130.5564600000523,"velocity":0.8818897637795275,"duration":0.26273169166665866},{"name":"D#3","midi":51,"time":1130.5564600000523,"velocity":0.8818897637795275,"duration":0.26273169166665866},{"name":"G#3","midi":56,"time":1130.5564600000523,"velocity":0.8818897637795275,"duration":0.26273169166665866},{"name":"G#1","midi":32,"time":1130.8342380000522,"velocity":0.8818897637795275,"duration":0.5266207916665735},{"name":"G#2","midi":44,"time":1130.8342380000522,"velocity":0.8818897637795275,"duration":0.5266207916665735},{"name":"G#3","midi":56,"time":1130.8342380000522,"velocity":0.8818897637795275,"duration":0.5266207916665735},{"name":"G#1","midi":32,"time":1131.389794000052,"velocity":0.8818897637795275,"duration":0.5266207916665735},{"name":"G#2","midi":44,"time":1131.389794000052,"velocity":0.8818897637795275,"duration":0.5266207916665735},{"name":"G#3","midi":56,"time":1131.389794000052,"velocity":0.8818897637795275,"duration":0.5266207916665735},{"name":"G#1","midi":32,"time":1131.9453500000518,"velocity":0.8818897637795275,"duration":0.7905098916667157},{"name":"G#2","midi":44,"time":1131.9453500000518,"velocity":0.8818897637795275,"duration":0.7905098916667157},{"name":"D#3","midi":51,"time":1131.9453500000518,"velocity":0.8818897637795275,"duration":0.7905098916667157},{"name":"G#3","midi":56,"time":1131.9453500000518,"velocity":0.8818897637795275,"duration":0.7905098916667157},{"name":"G#1","midi":32,"time":1132.778684000052,"velocity":0.8818897637795275,"duration":0.26273169166665866},{"name":"G#2","midi":44,"time":1132.778684000052,"velocity":0.8818897637795275,"duration":0.26273169166665866},{"name":"D#3","midi":51,"time":1132.778684000052,"velocity":0.8818897637795275,"duration":0.26273169166665866},{"name":"G#3","midi":56,"time":1132.778684000052,"velocity":0.8818897637795275,"duration":0.26273169166665866},{"name":"B1","midi":35,"time":1133.0564620000519,"velocity":0.8818897637795275,"duration":0.5266207916665735},{"name":"B2","midi":47,"time":1133.0564620000519,"velocity":0.8818897637795275,"duration":0.5266207916665735},{"name":"B3","midi":59,"time":1133.0564620000519,"velocity":0.8818897637795275,"duration":0.5266207916665735},{"name":"B1","midi":35,"time":1133.6120180000516,"velocity":0.8818897637795275,"duration":0.5266207916665735},{"name":"B2","midi":47,"time":1133.6120180000516,"velocity":0.8818897637795275,"duration":0.5266207916665735},{"name":"B3","midi":59,"time":1133.6120180000516,"velocity":0.8818897637795275,"duration":0.5266207916665735},{"name":"B1","midi":35,"time":1134.1675740000514,"velocity":0.8818897637795275,"duration":0.7905098916667157},{"name":"B2","midi":47,"time":1134.1675740000514,"velocity":0.8818897637795275,"duration":0.7905098916667157},{"name":"G3","midi":55,"time":1134.1675740000514,"velocity":0.8818897637795275,"duration":0.7905098916667157},{"name":"B3","midi":59,"time":1134.1675740000514,"velocity":0.8818897637795275,"duration":0.7905098916667157},{"name":"B1","midi":35,"time":1135.0009080000516,"velocity":0.8818897637795275,"duration":0.26273169166665866},{"name":"B2","midi":47,"time":1135.0009080000516,"velocity":0.8818897637795275,"duration":0.26273169166665866},{"name":"G3","midi":55,"time":1135.0009080000516,"velocity":0.8818897637795275,"duration":0.26273169166665866},{"name":"B3","midi":59,"time":1135.0009080000516,"velocity":0.8818897637795275,"duration":0.26273169166665866},{"name":"B1","midi":35,"time":1135.2786860000515,"velocity":0.8818897637795275,"duration":0.5266207916665735},{"name":"B2","midi":47,"time":1135.2786860000515,"velocity":0.8818897637795275,"duration":0.5266207916665735},{"name":"B3","midi":59,"time":1135.2786860000515,"velocity":0.8818897637795275,"duration":0.5266207916665735},{"name":"B1","midi":35,"time":1135.8342420000513,"velocity":0.8818897637795275,"duration":0.5266207916665735},{"name":"B2","midi":47,"time":1135.8342420000513,"velocity":0.8818897637795275,"duration":0.5266207916665735},{"name":"B3","midi":59,"time":1135.8342420000513,"velocity":0.8818897637795275,"duration":0.5266207916665735},{"name":"B1","midi":35,"time":1136.389798000051,"velocity":0.8818897637795275,"duration":0.7905098916667157},{"name":"B2","midi":47,"time":1136.389798000051,"velocity":0.8818897637795275,"duration":0.7905098916667157},{"name":"G3","midi":55,"time":1136.389798000051,"velocity":0.8818897637795275,"duration":0.7905098916667157},{"name":"B3","midi":59,"time":1136.389798000051,"velocity":0.8818897637795275,"duration":0.7905098916667157},{"name":"B1","midi":35,"time":1137.2231320000512,"velocity":0.8818897637795275,"duration":0.26273169166665866},{"name":"B2","midi":47,"time":1137.2231320000512,"velocity":0.8818897637795275,"duration":0.26273169166665866},{"name":"G3","midi":55,"time":1137.2231320000512,"velocity":0.8818897637795275,"duration":0.26273169166665866},{"name":"B3","midi":59,"time":1137.2231320000512,"velocity":0.8818897637795275,"duration":0.26273169166665866},{"name":"C2","midi":36,"time":1137.5009100000511,"velocity":0.8818897637795275,"duration":0.5266207916665735},{"name":"C3","midi":48,"time":1137.5009100000511,"velocity":0.8818897637795275,"duration":0.5266207916665735},{"name":"C4","midi":60,"time":1137.5009100000511,"velocity":0.8818897637795275,"duration":0.5266207916665735},{"name":"C2","midi":36,"time":1138.056466000051,"velocity":0.8818897637795275,"duration":0.5266207916665735},{"name":"C3","midi":48,"time":1138.056466000051,"velocity":0.8818897637795275,"duration":0.5266207916665735},{"name":"C4","midi":60,"time":1138.056466000051,"velocity":0.8818897637795275,"duration":0.5266207916665735},{"name":"C2","midi":36,"time":1138.6120220000507,"velocity":0.8818897637795275,"duration":0.7905098916667157},{"name":"C3","midi":48,"time":1138.6120220000507,"velocity":0.8818897637795275,"duration":0.7905098916667157},{"name":"G3","midi":55,"time":1138.6120220000507,"velocity":0.8818897637795275,"duration":0.7905098916667157},{"name":"C4","midi":60,"time":1138.6120220000507,"velocity":0.8818897637795275,"duration":0.7905098916667157},{"name":"C2","midi":36,"time":1139.4453560000509,"velocity":0.8818897637795275,"duration":0.26273169166665866},{"name":"C3","midi":48,"time":1139.4453560000509,"velocity":0.8818897637795275,"duration":0.26273169166665866},{"name":"G3","midi":55,"time":1139.4453560000509,"velocity":0.8818897637795275,"duration":0.26273169166665866},{"name":"C4","midi":60,"time":1139.4453560000509,"velocity":0.8818897637795275,"duration":0.26273169166665866},{"name":"C2","midi":36,"time":1139.7231340000508,"velocity":0.8818897637795275,"duration":0.5266207916665735},{"name":"C3","midi":48,"time":1139.7231340000508,"velocity":0.8818897637795275,"duration":0.5266207916665735},{"name":"C4","midi":60,"time":1139.7231340000508,"velocity":0.8818897637795275,"duration":0.5266207916665735},{"name":"C2","midi":36,"time":1140.2786900000506,"velocity":0.8818897637795275,"duration":0.5266207916665735},{"name":"C3","midi":48,"time":1140.2786900000506,"velocity":0.8818897637795275,"duration":0.5266207916665735},{"name":"C4","midi":60,"time":1140.2786900000506,"velocity":0.8818897637795275,"duration":0.5266207916665735},{"name":"C2","midi":36,"time":1140.8342460000504,"velocity":0.8818897637795275,"duration":0.7905098916667157},{"name":"C3","midi":48,"time":1140.8342460000504,"velocity":0.8818897637795275,"duration":0.7905098916667157},{"name":"G3","midi":55,"time":1140.8342460000504,"velocity":0.8818897637795275,"duration":0.7905098916667157},{"name":"C4","midi":60,"time":1140.8342460000504,"velocity":0.8818897637795275,"duration":0.7905098916667157},{"name":"C2","midi":36,"time":1141.6675800000505,"velocity":0.8818897637795275,"duration":0.26273169166665866},{"name":"C3","midi":48,"time":1141.6675800000505,"velocity":0.8818897637795275,"duration":0.26273169166665866},{"name":"G3","midi":55,"time":1141.6675800000505,"velocity":0.8818897637795275,"duration":0.26273169166665866},{"name":"C4","midi":60,"time":1141.6675800000505,"velocity":0.8818897637795275,"duration":0.26273169166665866},{"name":"C2","midi":36,"time":1141.9453580000504,"velocity":0.8818897637795275,"duration":0.5266207916665735},{"name":"C3","midi":48,"time":1141.9453580000504,"velocity":0.8818897637795275,"duration":0.5266207916665735},{"name":"C4","midi":60,"time":1141.9453580000504,"velocity":0.8818897637795275,"duration":0.5266207916665735},{"name":"C2","midi":36,"time":1142.5009140000502,"velocity":0.8818897637795275,"duration":0.5266207916665735},{"name":"C3","midi":48,"time":1142.5009140000502,"velocity":0.8818897637795275,"duration":0.5266207916665735},{"name":"C4","midi":60,"time":1142.5009140000502,"velocity":0.8818897637795275,"duration":0.5266207916665735},{"name":"C2","midi":36,"time":1143.05647000005,"velocity":0.8818897637795275,"duration":0.7905098916667157},{"name":"C3","midi":48,"time":1143.05647000005,"velocity":0.8818897637795275,"duration":0.7905098916667157},{"name":"G3","midi":55,"time":1143.05647000005,"velocity":0.8818897637795275,"duration":0.7905098916667157},{"name":"C4","midi":60,"time":1143.05647000005,"velocity":0.8818897637795275,"duration":0.7905098916667157},{"name":"C2","midi":36,"time":1143.8898040000502,"velocity":0.8818897637795275,"duration":0.26273169166665866},{"name":"C3","midi":48,"time":1143.8898040000502,"velocity":0.8818897637795275,"duration":0.26273169166665866},{"name":"G3","midi":55,"time":1143.8898040000502,"velocity":0.8818897637795275,"duration":0.26273169166665866},{"name":"C4","midi":60,"time":1143.8898040000502,"velocity":0.8818897637795275,"duration":0.26273169166665866},{"name":"F#2","midi":42,"time":1146.3898060000502,"velocity":0.7559055118110236,"duration":2.1099553916667446},{"name":"C#3","midi":49,"time":1146.3898060000502,"velocity":0.7559055118110236,"duration":2.1099553916667446},{"name":"F#3","midi":54,"time":1146.3898060000502,"velocity":0.7559055118110236,"duration":2.1099553916667446},{"name":"C#4","midi":61,"time":1146.3898060000502,"velocity":0.7559055118110236,"duration":2.1099553916667446},{"name":"E2","midi":40,"time":1148.6120300000503,"velocity":0.7559055118110236,"duration":2.1099553916665172},{"name":"B2","midi":47,"time":1148.6120300000503,"velocity":0.7559055118110236,"duration":2.1099553916665172},{"name":"E3","midi":52,"time":1148.6120300000503,"velocity":0.7559055118110236,"duration":2.1099553916665172},{"name":"B3","midi":59,"time":1148.6120300000503,"velocity":0.7559055118110236,"duration":2.1099553916665172},{"name":"D2","midi":38,"time":1150.8342540000501,"velocity":0.7559055118110236,"duration":2.1099553916665172},{"name":"A2","midi":45,"time":1150.8342540000501,"velocity":0.7559055118110236,"duration":2.1099553916665172},{"name":"D3","midi":50,"time":1150.8342540000501,"velocity":0.7559055118110236,"duration":2.1099553916665172},{"name":"A3","midi":57,"time":1150.8342540000501,"velocity":0.7559055118110236,"duration":2.1099553916665172},{"name":"C#2","midi":37,"time":1153.05647800005,"velocity":0.7559055118110236,"duration":2.1099553916665172},{"name":"G#2","midi":44,"time":1153.05647800005,"velocity":0.7559055118110236,"duration":2.1099553916665172},{"name":"C#3","midi":49,"time":1153.05647800005,"velocity":0.7559055118110236,"duration":2.1099553916665172},{"name":"G#3","midi":56,"time":1153.05647800005,"velocity":0.7559055118110236,"duration":2.1099553916665172},{"name":"F#2","midi":42,"time":1155.2787020000499,"velocity":0.7559055118110236,"duration":2.1099553916665172},{"name":"C#3","midi":49,"time":1155.2787020000499,"velocity":0.7559055118110236,"duration":2.1099553916665172},{"name":"F#3","midi":54,"time":1155.2787020000499,"velocity":0.7559055118110236,"duration":2.1099553916665172},{"name":"C#4","midi":61,"time":1155.2787020000499,"velocity":0.7559055118110236,"duration":2.1099553916665172},{"name":"E2","midi":40,"time":1157.5009260000497,"velocity":0.7559055118110236,"duration":2.1099553916665172},{"name":"B2","midi":47,"time":1157.5009260000497,"velocity":0.7559055118110236,"duration":2.1099553916665172},{"name":"E3","midi":52,"time":1157.5009260000497,"velocity":0.7559055118110236,"duration":2.1099553916665172},{"name":"B3","midi":59,"time":1157.5009260000497,"velocity":0.7559055118110236,"duration":2.1099553916665172},{"name":"C#2","midi":37,"time":1159.7231500000496,"velocity":0.7559055118110236,"duration":2.1099553916665172},{"name":"G#2","midi":44,"time":1159.7231500000496,"velocity":0.7559055118110236,"duration":2.1099553916665172},{"name":"C#3","midi":49,"time":1159.7231500000496,"velocity":0.7559055118110236,"duration":2.1099553916665172},{"name":"G#3","midi":56,"time":1159.7231500000496,"velocity":0.7559055118110236,"duration":2.1099553916665172},{"name":"D2","midi":38,"time":1161.9453740000495,"velocity":0.7559055118110236,"duration":2.1099553916665172},{"name":"A2","midi":45,"time":1161.9453740000495,"velocity":0.7559055118110236,"duration":2.1099553916665172},{"name":"D3","midi":50,"time":1161.9453740000495,"velocity":0.7559055118110236,"duration":2.1099553916665172},{"name":"A3","midi":57,"time":1161.9453740000495,"velocity":0.7559055118110236,"duration":2.1099553916665172},{"name":"F#2","midi":42,"time":1164.1675980000493,"velocity":0.7559055118110236,"duration":2.1099553916665172},{"name":"C#3","midi":49,"time":1164.1675980000493,"velocity":0.7559055118110236,"duration":2.1099553916665172},{"name":"F#3","midi":54,"time":1164.1675980000493,"velocity":0.7559055118110236,"duration":2.1099553916665172},{"name":"C#4","midi":61,"time":1164.1675980000493,"velocity":0.7559055118110236,"duration":2.1099553916665172},{"name":"E2","midi":40,"time":1166.3898220000492,"velocity":0.7559055118110236,"duration":2.1099553916665172},{"name":"B2","midi":47,"time":1166.3898220000492,"velocity":0.7559055118110236,"duration":2.1099553916665172},{"name":"E3","midi":52,"time":1166.3898220000492,"velocity":0.7559055118110236,"duration":2.1099553916665172},{"name":"B3","midi":59,"time":1166.3898220000492,"velocity":0.7559055118110236,"duration":2.1099553916665172},{"name":"D2","midi":38,"time":1168.612046000049,"velocity":0.7559055118110236,"duration":2.1099553916665172},{"name":"A2","midi":45,"time":1168.612046000049,"velocity":0.7559055118110236,"duration":2.1099553916665172},{"name":"D3","midi":50,"time":1168.612046000049,"velocity":0.7559055118110236,"duration":2.1099553916665172},{"name":"A3","midi":57,"time":1168.612046000049,"velocity":0.7559055118110236,"duration":2.1099553916665172},{"name":"C#2","midi":37,"time":1170.834270000049,"velocity":0.7559055118110236,"duration":2.1099553916665172},{"name":"G#2","midi":44,"time":1170.834270000049,"velocity":0.7559055118110236,"duration":2.1099553916665172},{"name":"C#3","midi":49,"time":1170.834270000049,"velocity":0.7559055118110236,"duration":2.1099553916665172},{"name":"G#3","midi":56,"time":1170.834270000049,"velocity":0.7559055118110236,"duration":2.1099553916665172},{"name":"F#2","midi":42,"time":1173.0564940000488,"velocity":0.7559055118110236,"duration":2.1099553916665172},{"name":"C#3","midi":49,"time":1173.0564940000488,"velocity":0.7559055118110236,"duration":2.1099553916665172},{"name":"F#3","midi":54,"time":1173.0564940000488,"velocity":0.7559055118110236,"duration":2.1099553916665172},{"name":"C#4","midi":61,"time":1173.0564940000488,"velocity":0.7559055118110236,"duration":2.1099553916665172},{"name":"E2","midi":40,"time":1175.2787180000487,"velocity":0.7559055118110236,"duration":2.1099553916665172},{"name":"B2","midi":47,"time":1175.2787180000487,"velocity":0.7559055118110236,"duration":2.1099553916665172},{"name":"E3","midi":52,"time":1175.2787180000487,"velocity":0.7559055118110236,"duration":2.1099553916665172},{"name":"B3","midi":59,"time":1175.2787180000487,"velocity":0.7559055118110236,"duration":2.1099553916665172},{"name":"C#2","midi":37,"time":1177.5009420000486,"velocity":0.7559055118110236,"duration":2.1099553916665172},{"name":"G#2","midi":44,"time":1177.5009420000486,"velocity":0.7559055118110236,"duration":2.1099553916665172},{"name":"C#3","midi":49,"time":1177.5009420000486,"velocity":0.7559055118110236,"duration":2.1099553916665172},{"name":"G#3","midi":56,"time":1177.5009420000486,"velocity":0.7559055118110236,"duration":2.1099553916665172},{"name":"F#2","midi":42,"time":1179.7231660000484,"velocity":0.7559055118110236,"duration":2.1099553916665172},{"name":"C#3","midi":49,"time":1179.7231660000484,"velocity":0.7559055118110236,"duration":2.1099553916665172},{"name":"F#3","midi":54,"time":1179.7231660000484,"velocity":0.7559055118110236,"duration":2.1099553916665172},{"name":"C#4","midi":61,"time":1179.7231660000484,"velocity":0.7559055118110236,"duration":2.1099553916665172},{"name":"F#2","midi":42,"time":1181.9453900000483,"velocity":0.8818897637795275,"duration":0.2627316916664313},{"name":"F#3","midi":54,"time":1181.9453900000483,"velocity":0.8818897637795275,"duration":0.2627316916664313},{"name":"F#3","midi":54,"time":1182.223168000048,"velocity":0.8818897637795275,"duration":0.26273169166665866},{"name":"F#4","midi":66,"time":1182.223168000048,"velocity":0.8818897637795275,"duration":0.26273169166665866},{"name":"F#2","midi":42,"time":1182.5009460000479,"velocity":0.8818897637795275,"duration":0.26273169166665866},{"name":"F#3","midi":54,"time":1182.5009460000479,"velocity":0.8818897637795275,"duration":0.26273169166665866},{"name":"F#3","midi":54,"time":1182.7787240000478,"velocity":0.8818897637795275,"duration":0.26273169166665866},{"name":"F#4","midi":66,"time":1182.7787240000478,"velocity":0.8818897637795275,"duration":0.26273169166665866},{"name":"F#2","midi":42,"time":1183.0565020000477,"velocity":0.8818897637795275,"duration":0.26273169166665866},{"name":"F#3","midi":54,"time":1183.0565020000477,"velocity":0.8818897637795275,"duration":0.26273169166665866},{"name":"F#3","midi":54,"time":1183.3342800000476,"velocity":0.8818897637795275,"duration":0.26273169166665866},{"name":"F#4","midi":66,"time":1183.3342800000476,"velocity":0.8818897637795275,"duration":0.26273169166665866},{"name":"G#2","midi":44,"time":1183.6120580000475,"velocity":0.8818897637795275,"duration":0.26273169166665866},{"name":"G#3","midi":56,"time":1183.6120580000475,"velocity":0.8818897637795275,"duration":0.26273169166665866},{"name":"G#3","midi":56,"time":1183.8898360000474,"velocity":0.8818897637795275,"duration":0.26273169166665866},{"name":"G#4","midi":68,"time":1183.8898360000474,"velocity":0.8818897637795275,"duration":0.26273169166665866},{"name":"A2","midi":45,"time":1184.1676140000473,"velocity":0.8818897637795275,"duration":0.2627316916664313},{"name":"A3","midi":57,"time":1184.1676140000473,"velocity":0.8818897637795275,"duration":0.2627316916664313},{"name":"A3","midi":57,"time":1184.445392000047,"velocity":0.8818897637795275,"duration":0.26273169166665866},{"name":"A4","midi":69,"time":1184.445392000047,"velocity":0.8818897637795275,"duration":0.26273169166665866},{"name":"A2","midi":45,"time":1184.7231700000468,"velocity":0.8818897637795275,"duration":0.26273169166665866},{"name":"A3","midi":57,"time":1184.7231700000468,"velocity":0.8818897637795275,"duration":0.26273169166665866},{"name":"A3","midi":57,"time":1185.0009480000467,"velocity":0.8818897637795275,"duration":0.26273169166665866},{"name":"A4","midi":69,"time":1185.0009480000467,"velocity":0.8818897637795275,"duration":0.26273169166665866},{"name":"A2","midi":45,"time":1185.2787260000466,"velocity":0.8818897637795275,"duration":0.26273169166665866},{"name":"A3","midi":57,"time":1185.2787260000466,"velocity":0.8818897637795275,"duration":0.26273169166665866},{"name":"A3","midi":57,"time":1185.5565040000465,"velocity":0.8818897637795275,"duration":0.26273169166665866},{"name":"A4","midi":69,"time":1185.5565040000465,"velocity":0.8818897637795275,"duration":0.26273169166665866},{"name":"B2","midi":47,"time":1185.8342820000464,"velocity":0.8818897637795275,"duration":0.26273169166665866},{"name":"B3","midi":59,"time":1185.8342820000464,"velocity":0.8818897637795275,"duration":0.26273169166665866},{"name":"B3","midi":59,"time":1186.1120600000463,"velocity":0.8818897637795275,"duration":0.26273169166665866},{"name":"B4","midi":71,"time":1186.1120600000463,"velocity":0.8818897637795275,"duration":0.26273169166665866},{"name":"C#3","midi":49,"time":1186.3898380000462,"velocity":0.8818897637795275,"duration":0.2627316916664313},{"name":"C#4","midi":61,"time":1186.3898380000462,"velocity":0.8818897637795275,"duration":0.2627316916664313},{"name":"C#4","midi":61,"time":1186.6676160000459,"velocity":0.8818897637795275,"duration":0.26273169166665866},{"name":"C#5","midi":73,"time":1186.6676160000459,"velocity":0.8818897637795275,"duration":0.26273169166665866},{"name":"C#3","midi":49,"time":1186.9453940000458,"velocity":0.8818897637795275,"duration":0.26273169166665866},{"name":"C#4","midi":61,"time":1186.9453940000458,"velocity":0.8818897637795275,"duration":0.26273169166665866},{"name":"C#4","midi":61,"time":1187.2231720000457,"velocity":0.8818897637795275,"duration":0.26273169166665866},{"name":"C#5","midi":73,"time":1187.2231720000457,"velocity":0.8818897637795275,"duration":0.26273169166665866},{"name":"C#3","midi":49,"time":1187.5009500000456,"velocity":0.8818897637795275,"duration":0.26273169166665866},{"name":"C#4","midi":61,"time":1187.5009500000456,"velocity":0.8818897637795275,"duration":0.26273169166665866},{"name":"C#4","midi":61,"time":1187.7787280000455,"velocity":0.8818897637795275,"duration":0.26273169166665866},{"name":"C#5","midi":73,"time":1187.7787280000455,"velocity":0.8818897637795275,"duration":0.26273169166665866},{"name":"E3","midi":52,"time":1188.0565060000454,"velocity":0.8818897637795275,"duration":0.26273169166665866},{"name":"E4","midi":64,"time":1188.0565060000454,"velocity":0.8818897637795275,"duration":0.26273169166665866},{"name":"E4","midi":64,"time":1188.3342840000453,"velocity":0.8818897637795275,"duration":0.26273169166665866},{"name":"E5","midi":76,"time":1188.3342840000453,"velocity":0.8818897637795275,"duration":0.26273169166665866},{"name":"F#3","midi":54,"time":1188.6120620000452,"velocity":0.8818897637795275,"duration":0.2627316916664313},{"name":"F#4","midi":66,"time":1188.6120620000452,"velocity":0.8818897637795275,"duration":0.2627316916664313},{"name":"F#4","midi":66,"time":1188.8898400000448,"velocity":0.8818897637795275,"duration":0.26273169166665866},{"name":"F#5","midi":78,"time":1188.8898400000448,"velocity":0.8818897637795275,"duration":0.26273169166665866},{"name":"F#3","midi":54,"time":1189.1676180000447,"velocity":0.8818897637795275,"duration":0.26273169166665866},{"name":"F#4","midi":66,"time":1189.1676180000447,"velocity":0.8818897637795275,"duration":0.26273169166665866},{"name":"F#4","midi":66,"time":1189.4453960000446,"velocity":0.8818897637795275,"duration":0.26273169166665866},{"name":"F#5","midi":78,"time":1189.4453960000446,"velocity":0.8818897637795275,"duration":0.26273169166665866},{"name":"F#3","midi":54,"time":1189.7231740000445,"velocity":0.8818897637795275,"duration":0.26273169166665866},{"name":"F#4","midi":66,"time":1189.7231740000445,"velocity":0.8818897637795275,"duration":0.26273169166665866},{"name":"F#4","midi":66,"time":1190.0009520000444,"velocity":0.8818897637795275,"duration":0.26273169166665866},{"name":"F#5","midi":78,"time":1190.0009520000444,"velocity":0.8818897637795275,"duration":0.26273169166665866},{"name":"E3","midi":52,"time":1190.2787300000443,"velocity":0.8818897637795275,"duration":0.26273169166665866},{"name":"E4","midi":64,"time":1190.2787300000443,"velocity":0.8818897637795275,"duration":0.26273169166665866},{"name":"E4","midi":64,"time":1190.5565080000442,"velocity":0.8818897637795275,"duration":0.26273169166665866},{"name":"E5","midi":76,"time":1190.5565080000442,"velocity":0.8818897637795275,"duration":0.26273169166665866},{"name":"D2","midi":38,"time":1190.8342860000441,"velocity":0.8818897637795275,"duration":0.2627316916664313},{"name":"D3","midi":50,"time":1190.8342860000441,"velocity":0.8818897637795275,"duration":0.2627316916664313},{"name":"D3","midi":50,"time":1191.1120640000438,"velocity":0.8818897637795275,"duration":0.26273169166665866},{"name":"D4","midi":62,"time":1191.1120640000438,"velocity":0.8818897637795275,"duration":0.26273169166665866},{"name":"D2","midi":38,"time":1191.3898420000437,"velocity":0.8818897637795275,"duration":0.26273169166665866},{"name":"D3","midi":50,"time":1191.3898420000437,"velocity":0.8818897637795275,"duration":0.26273169166665866},{"name":"D3","midi":50,"time":1191.6676200000436,"velocity":0.8818897637795275,"duration":0.26273169166665866},{"name":"D4","midi":62,"time":1191.6676200000436,"velocity":0.8818897637795275,"duration":0.26273169166665866},{"name":"D2","midi":38,"time":1191.9453980000435,"velocity":0.8818897637795275,"duration":0.26273169166665866},{"name":"D3","midi":50,"time":1191.9453980000435,"velocity":0.8818897637795275,"duration":0.26273169166665866},{"name":"D3","midi":50,"time":1192.2231760000434,"velocity":0.8818897637795275,"duration":0.26273169166665866},{"name":"D4","midi":62,"time":1192.2231760000434,"velocity":0.8818897637795275,"duration":0.26273169166665866},{"name":"E2","midi":40,"time":1192.5009540000433,"velocity":0.8818897637795275,"duration":0.26273169166665866},{"name":"E3","midi":52,"time":1192.5009540000433,"velocity":0.8818897637795275,"duration":0.26273169166665866},{"name":"E3","midi":52,"time":1192.7787320000432,"velocity":0.8818897637795275,"duration":0.26273169166665866},{"name":"E4","midi":64,"time":1192.7787320000432,"velocity":0.8818897637795275,"duration":0.26273169166665866},{"name":"A2","midi":45,"time":1193.056510000043,"velocity":0.8818897637795275,"duration":0.2627316916664313},{"name":"A3","midi":57,"time":1193.056510000043,"velocity":0.8818897637795275,"duration":0.2627316916664313},{"name":"A3","midi":57,"time":1193.3342880000428,"velocity":0.8818897637795275,"duration":0.26273169166665866},{"name":"A4","midi":69,"time":1193.3342880000428,"velocity":0.8818897637795275,"duration":0.26273169166665866},{"name":"A2","midi":45,"time":1193.6120660000427,"velocity":0.8818897637795275,"duration":0.26273169166665866},{"name":"A3","midi":57,"time":1193.6120660000427,"velocity":0.8818897637795275,"duration":0.26273169166665866},{"name":"A3","midi":57,"time":1193.8898440000426,"velocity":0.8818897637795275,"duration":0.26273169166665866},{"name":"A4","midi":69,"time":1193.8898440000426,"velocity":0.8818897637795275,"duration":0.26273169166665866},{"name":"A2","midi":45,"time":1194.1676220000425,"velocity":0.8818897637795275,"duration":0.26273169166665866},{"name":"A3","midi":57,"time":1194.1676220000425,"velocity":0.8818897637795275,"duration":0.26273169166665866},{"name":"A3","midi":57,"time":1194.4454000000424,"velocity":0.8818897637795275,"duration":0.26273169166665866},{"name":"A4","midi":69,"time":1194.4454000000424,"velocity":0.8818897637795275,"duration":0.26273169166665866},{"name":"B2","midi":47,"time":1194.7231780000423,"velocity":0.8818897637795275,"duration":0.26273169166665866},{"name":"B3","midi":59,"time":1194.7231780000423,"velocity":0.8818897637795275,"duration":0.26273169166665866},{"name":"B3","midi":59,"time":1195.0009560000422,"velocity":0.8818897637795275,"duration":0.26273169166665866},{"name":"B4","midi":71,"time":1195.0009560000422,"velocity":0.8818897637795275,"duration":0.26273169166665866},{"name":"C#3","midi":49,"time":1195.278734000042,"velocity":0.8818897637795275,"duration":0.2627316916664313},{"name":"C#4","midi":61,"time":1195.278734000042,"velocity":0.8818897637795275,"duration":0.2627316916664313},{"name":"C#4","midi":61,"time":1195.5565120000417,"velocity":0.8818897637795275,"duration":0.26273169166665866},{"name":"C#5","midi":73,"time":1195.5565120000417,"velocity":0.8818897637795275,"duration":0.26273169166665866},{"name":"C#3","midi":49,"time":1195.8342900000416,"velocity":0.8818897637795275,"duration":0.26273169166665866},{"name":"C#4","midi":61,"time":1195.8342900000416,"velocity":0.8818897637795275,"duration":0.26273169166665866},{"name":"C#4","midi":61,"time":1196.1120680000415,"velocity":0.8818897637795275,"duration":0.26273169166665866},{"name":"C#5","midi":73,"time":1196.1120680000415,"velocity":0.8818897637795275,"duration":0.26273169166665866},{"name":"C#3","midi":49,"time":1196.3898460000414,"velocity":0.8818897637795275,"duration":0.26273169166665866},{"name":"C#4","midi":61,"time":1196.3898460000414,"velocity":0.8818897637795275,"duration":0.26273169166665866},{"name":"C#4","midi":61,"time":1196.6676240000413,"velocity":0.8818897637795275,"duration":0.26273169166665866},{"name":"C#5","midi":73,"time":1196.6676240000413,"velocity":0.8818897637795275,"duration":0.26273169166665866},{"name":"C#3","midi":49,"time":1196.9454020000412,"velocity":0.8818897637795275,"duration":0.26273169166665866},{"name":"C#4","midi":61,"time":1196.9454020000412,"velocity":0.8818897637795275,"duration":0.26273169166665866},{"name":"C#4","midi":61,"time":1197.223180000041,"velocity":0.8818897637795275,"duration":0.26273169166665866},{"name":"C#5","midi":73,"time":1197.223180000041,"velocity":0.8818897637795275,"duration":0.26273169166665866},{"name":"C#3","midi":49,"time":1197.500958000041,"velocity":0.8818897637795275,"duration":0.2627316916664313},{"name":"C#4","midi":61,"time":1197.500958000041,"velocity":0.8818897637795275,"duration":0.2627316916664313},{"name":"C#4","midi":61,"time":1197.7787360000407,"velocity":0.8818897637795275,"duration":0.26273169166665866},{"name":"C#5","midi":73,"time":1197.7787360000407,"velocity":0.8818897637795275,"duration":0.26273169166665866},{"name":"C#3","midi":49,"time":1198.0565140000406,"velocity":0.8818897637795275,"duration":0.26273169166665866},{"name":"C#4","midi":61,"time":1198.0565140000406,"velocity":0.8818897637795275,"duration":0.26273169166665866},{"name":"C#4","midi":61,"time":1198.3342920000405,"velocity":0.8818897637795275,"duration":0.26273169166665866},{"name":"C#5","midi":73,"time":1198.3342920000405,"velocity":0.8818897637795275,"duration":0.26273169166665866},{"name":"C#3","midi":49,"time":1198.6120700000404,"velocity":0.8818897637795275,"duration":0.26273169166665866},{"name":"C#4","midi":61,"time":1198.6120700000404,"velocity":0.8818897637795275,"duration":0.26273169166665866},{"name":"C#4","midi":61,"time":1198.8898480000403,"velocity":0.8818897637795275,"duration":0.26273169166665866},{"name":"C#5","midi":73,"time":1198.8898480000403,"velocity":0.8818897637795275,"duration":0.26273169166665866},{"name":"C#3","midi":49,"time":1199.1676260000402,"velocity":0.8818897637795275,"duration":0.26273169166665866},{"name":"C#4","midi":61,"time":1199.1676260000402,"velocity":0.8818897637795275,"duration":0.26273169166665866},{"name":"C#4","midi":61,"time":1199.44540400004,"velocity":0.8818897637795275,"duration":0.26273169166665866},{"name":"C#5","midi":73,"time":1199.44540400004,"velocity":0.8818897637795275,"duration":0.26273169166665866},{"name":"F#2","midi":42,"time":1199.72318200004,"velocity":0.8818897637795275,"duration":0.2627316916664313},{"name":"F#3","midi":54,"time":1199.72318200004,"velocity":0.8818897637795275,"duration":0.2627316916664313},{"name":"F#3","midi":54,"time":1200.0009600000396,"velocity":0.8818897637795275,"duration":0.26273169166665866},{"name":"F#4","midi":66,"time":1200.0009600000396,"velocity":0.8818897637795275,"duration":0.26273169166665866},{"name":"F#2","midi":42,"time":1200.2787380000395,"velocity":0.8818897637795275,"duration":0.26273169166665866},{"name":"F#3","midi":54,"time":1200.2787380000395,"velocity":0.8818897637795275,"duration":0.26273169166665866},{"name":"F#3","midi":54,"time":1200.5565160000394,"velocity":0.8818897637795275,"duration":0.26273169166665866},{"name":"F#4","midi":66,"time":1200.5565160000394,"velocity":0.8818897637795275,"duration":0.26273169166665866},{"name":"F#2","midi":42,"time":1200.8342940000393,"velocity":0.8818897637795275,"duration":0.26273169166665866},{"name":"F#3","midi":54,"time":1200.8342940000393,"velocity":0.8818897637795275,"duration":0.26273169166665866},{"name":"F#3","midi":54,"time":1201.1120720000392,"velocity":0.8818897637795275,"duration":0.26273169166665866},{"name":"F#4","midi":66,"time":1201.1120720000392,"velocity":0.8818897637795275,"duration":0.26273169166665866},{"name":"G#2","midi":44,"time":1201.3898500000391,"velocity":0.8818897637795275,"duration":0.26273169166665866},{"name":"G#3","midi":56,"time":1201.3898500000391,"velocity":0.8818897637795275,"duration":0.26273169166665866},{"name":"G#3","midi":56,"time":1201.667628000039,"velocity":0.8818897637795275,"duration":0.26273169166665866},{"name":"G#4","midi":68,"time":1201.667628000039,"velocity":0.8818897637795275,"duration":0.26273169166665866},{"name":"A2","midi":45,"time":1201.945406000039,"velocity":0.8818897637795275,"duration":0.2627316916664313},{"name":"A3","midi":57,"time":1201.945406000039,"velocity":0.8818897637795275,"duration":0.2627316916664313},{"name":"A3","midi":57,"time":1202.2231840000386,"velocity":0.8818897637795275,"duration":0.26273169166665866},{"name":"A4","midi":69,"time":1202.2231840000386,"velocity":0.8818897637795275,"duration":0.26273169166665866},{"name":"A2","midi":45,"time":1202.5009620000385,"velocity":0.8818897637795275,"duration":0.26273169166665866},{"name":"A3","midi":57,"time":1202.5009620000385,"velocity":0.8818897637795275,"duration":0.26273169166665866},{"name":"A3","midi":57,"time":1202.7787400000384,"velocity":0.8818897637795275,"duration":0.26273169166665866},{"name":"A4","midi":69,"time":1202.7787400000384,"velocity":0.8818897637795275,"duration":0.26273169166665866},{"name":"A2","midi":45,"time":1203.0565180000383,"velocity":0.8818897637795275,"duration":0.26273169166665866},{"name":"A3","midi":57,"time":1203.0565180000383,"velocity":0.8818897637795275,"duration":0.26273169166665866},{"name":"A3","midi":57,"time":1203.3342960000382,"velocity":0.8818897637795275,"duration":0.26273169166665866},{"name":"A4","midi":69,"time":1203.3342960000382,"velocity":0.8818897637795275,"duration":0.26273169166665866},{"name":"B2","midi":47,"time":1203.612074000038,"velocity":0.8818897637795275,"duration":0.26273169166665866},{"name":"B3","midi":59,"time":1203.612074000038,"velocity":0.8818897637795275,"duration":0.26273169166665866},{"name":"B3","midi":59,"time":1203.889852000038,"velocity":0.8818897637795275,"duration":0.26273169166665866},{"name":"B4","midi":71,"time":1203.889852000038,"velocity":0.8818897637795275,"duration":0.26273169166665866},{"name":"C#3","midi":49,"time":1204.167630000038,"velocity":0.8818897637795275,"duration":0.2627316916664313},{"name":"C#4","midi":61,"time":1204.167630000038,"velocity":0.8818897637795275,"duration":0.2627316916664313},{"name":"C#4","midi":61,"time":1204.4454080000376,"velocity":0.8818897637795275,"duration":0.26273169166665866},{"name":"C#5","midi":73,"time":1204.4454080000376,"velocity":0.8818897637795275,"duration":0.26273169166665866},{"name":"C#3","midi":49,"time":1204.7231860000375,"velocity":0.8818897637795275,"duration":0.26273169166665866},{"name":"C#4","midi":61,"time":1204.7231860000375,"velocity":0.8818897637795275,"duration":0.26273169166665866},{"name":"C#4","midi":61,"time":1205.0009640000374,"velocity":0.8818897637795275,"duration":0.26273169166665866},{"name":"C#5","midi":73,"time":1205.0009640000374,"velocity":0.8818897637795275,"duration":0.26273169166665866},{"name":"C#3","midi":49,"time":1205.2787420000373,"velocity":0.8818897637795275,"duration":0.26273169166665866},{"name":"C#4","midi":61,"time":1205.2787420000373,"velocity":0.8818897637795275,"duration":0.26273169166665866},{"name":"C#4","midi":61,"time":1205.5565200000372,"velocity":0.8818897637795275,"duration":0.26273169166665866},{"name":"C#5","midi":73,"time":1205.5565200000372,"velocity":0.8818897637795275,"duration":0.26273169166665866},{"name":"C#3","midi":49,"time":1205.834298000037,"velocity":0.8818897637795275,"duration":0.26273169166665866},{"name":"C#4","midi":61,"time":1205.834298000037,"velocity":0.8818897637795275,"duration":0.26273169166665866},{"name":"C#4","midi":61,"time":1206.112076000037,"velocity":0.8818897637795275,"duration":0.26273169166665866},{"name":"C#5","midi":73,"time":1206.112076000037,"velocity":0.8818897637795275,"duration":0.26273169166665866},{"name":"F#3","midi":54,"time":1206.3898540000368,"velocity":0.8818897637795275,"duration":0.2627316916664313},{"name":"F#4","midi":66,"time":1206.3898540000368,"velocity":0.8818897637795275,"duration":0.2627316916664313},{"name":"F#4","midi":66,"time":1206.6676320000365,"velocity":0.8818897637795275,"duration":0.26273169166665866},{"name":"F#5","midi":78,"time":1206.6676320000365,"velocity":0.8818897637795275,"duration":0.26273169166665866},{"name":"F#3","midi":54,"time":1206.9454100000364,"velocity":0.8818897637795275,"duration":0.26273169166665866},{"name":"F#4","midi":66,"time":1206.9454100000364,"velocity":0.8818897637795275,"duration":0.26273169166665866},{"name":"F#4","midi":66,"time":1207.2231880000363,"velocity":0.8818897637795275,"duration":0.26273169166665866},{"name":"F#5","midi":78,"time":1207.2231880000363,"velocity":0.8818897637795275,"duration":0.26273169166665866},{"name":"F#3","midi":54,"time":1207.5009660000362,"velocity":0.8818897637795275,"duration":0.26273169166665866},{"name":"F#4","midi":66,"time":1207.5009660000362,"velocity":0.8818897637795275,"duration":0.26273169166665866},{"name":"F#4","midi":66,"time":1207.778744000036,"velocity":0.8818897637795275,"duration":0.26273169166665866},{"name":"F#5","midi":78,"time":1207.778744000036,"velocity":0.8818897637795275,"duration":0.26273169166665866},{"name":"E3","midi":52,"time":1208.056522000036,"velocity":0.8818897637795275,"duration":0.26273169166665866},{"name":"E4","midi":64,"time":1208.056522000036,"velocity":0.8818897637795275,"duration":0.26273169166665866},{"name":"E4","midi":64,"time":1208.334300000036,"velocity":0.8818897637795275,"duration":0.26273169166665866},{"name":"E5","midi":76,"time":1208.334300000036,"velocity":0.8818897637795275,"duration":0.26273169166665866},{"name":"D2","midi":38,"time":1208.6120780000358,"velocity":0.8818897637795275,"duration":0.2627316916664313},{"name":"D3","midi":50,"time":1208.6120780000358,"velocity":0.8818897637795275,"duration":0.2627316916664313},{"name":"D3","midi":50,"time":1208.8898560000355,"velocity":0.8818897637795275,"duration":0.26273169166665866},{"name":"D4","midi":62,"time":1208.8898560000355,"velocity":0.8818897637795275,"duration":0.26273169166665866},{"name":"D2","midi":38,"time":1209.1676340000354,"velocity":0.8818897637795275,"duration":0.26273169166665866},{"name":"D3","midi":50,"time":1209.1676340000354,"velocity":0.8818897637795275,"duration":0.26273169166665866},{"name":"D3","midi":50,"time":1209.4454120000353,"velocity":0.8818897637795275,"duration":0.26273169166665866},{"name":"D4","midi":62,"time":1209.4454120000353,"velocity":0.8818897637795275,"duration":0.26273169166665866},{"name":"D2","midi":38,"time":1209.7231900000352,"velocity":0.8818897637795275,"duration":0.26273169166665866},{"name":"D3","midi":50,"time":1209.7231900000352,"velocity":0.8818897637795275,"duration":0.26273169166665866},{"name":"D3","midi":50,"time":1210.000968000035,"velocity":0.8818897637795275,"duration":0.26273169166665866},{"name":"D4","midi":62,"time":1210.000968000035,"velocity":0.8818897637795275,"duration":0.26273169166665866},{"name":"E2","midi":40,"time":1210.278746000035,"velocity":0.8818897637795275,"duration":0.26273169166665866},{"name":"E3","midi":52,"time":1210.278746000035,"velocity":0.8818897637795275,"duration":0.26273169166665866},{"name":"E3","midi":52,"time":1210.5565240000349,"velocity":0.8818897637795275,"duration":0.26273169166665866},{"name":"E4","midi":64,"time":1210.5565240000349,"velocity":0.8818897637795275,"duration":0.26273169166665866},{"name":"A1","midi":33,"time":1210.8343020000348,"velocity":0.8818897637795275,"duration":0.2627316916664313},{"name":"A2","midi":45,"time":1210.8343020000348,"velocity":0.8818897637795275,"duration":0.2627316916664313},{"name":"A2","midi":45,"time":1211.1120800000344,"velocity":0.8818897637795275,"duration":0.26273169166665866},{"name":"A3","midi":57,"time":1211.1120800000344,"velocity":0.8818897637795275,"duration":0.26273169166665866},{"name":"A1","midi":33,"time":1211.3898580000343,"velocity":0.8818897637795275,"duration":0.26273169166665866},{"name":"A2","midi":45,"time":1211.3898580000343,"velocity":0.8818897637795275,"duration":0.26273169166665866},{"name":"A2","midi":45,"time":1211.6676360000342,"velocity":0.8818897637795275,"duration":0.26273169166665866},{"name":"A3","midi":57,"time":1211.6676360000342,"velocity":0.8818897637795275,"duration":0.26273169166665866},{"name":"A1","midi":33,"time":1211.9454140000341,"velocity":0.8818897637795275,"duration":0.26273169166665866},{"name":"A2","midi":45,"time":1211.9454140000341,"velocity":0.8818897637795275,"duration":0.26273169166665866},{"name":"A2","midi":45,"time":1212.223192000034,"velocity":0.8818897637795275,"duration":0.26273169166665866},{"name":"A3","midi":57,"time":1212.223192000034,"velocity":0.8818897637795275,"duration":0.26273169166665866},{"name":"B1","midi":35,"time":1212.500970000034,"velocity":0.8818897637795275,"duration":0.26273169166665866},{"name":"B2","midi":47,"time":1212.500970000034,"velocity":0.8818897637795275,"duration":0.26273169166665866},{"name":"B2","midi":47,"time":1212.7787480000338,"velocity":0.8818897637795275,"duration":0.26273169166665866},{"name":"B3","midi":59,"time":1212.7787480000338,"velocity":0.8818897637795275,"duration":0.26273169166665866},{"name":"C#2","midi":37,"time":1213.0565260000337,"velocity":0.8818897637795275,"duration":0.2627316916664313},{"name":"C#3","midi":49,"time":1213.0565260000337,"velocity":0.8818897637795275,"duration":0.2627316916664313},{"name":"C#3","midi":49,"time":1213.3343040000334,"velocity":0.8818897637795275,"duration":0.26273169166665866},{"name":"C#4","midi":61,"time":1213.3343040000334,"velocity":0.8818897637795275,"duration":0.26273169166665866},{"name":"C#2","midi":37,"time":1213.6120820000333,"velocity":0.8818897637795275,"duration":0.26273169166665866},{"name":"C#3","midi":49,"time":1213.6120820000333,"velocity":0.8818897637795275,"duration":0.26273169166665866},{"name":"C#3","midi":49,"time":1213.8898600000332,"velocity":0.8818897637795275,"duration":0.26273169166665866},{"name":"C#4","midi":61,"time":1213.8898600000332,"velocity":0.8818897637795275,"duration":0.26273169166665866},{"name":"C#2","midi":37,"time":1214.167638000033,"velocity":0.8818897637795275,"duration":0.26273169166665866},{"name":"C#3","midi":49,"time":1214.167638000033,"velocity":0.8818897637795275,"duration":0.26273169166665866},{"name":"C#3","midi":49,"time":1214.445416000033,"velocity":0.8818897637795275,"duration":0.26273169166665866},{"name":"C#4","midi":61,"time":1214.445416000033,"velocity":0.8818897637795275,"duration":0.26273169166665866},{"name":"C#2","midi":37,"time":1214.723194000033,"velocity":0.8818897637795275,"duration":0.26273169166665866},{"name":"C#3","midi":49,"time":1214.723194000033,"velocity":0.8818897637795275,"duration":0.26273169166665866},{"name":"C#3","midi":49,"time":1215.0009720000328,"velocity":0.8818897637795275,"duration":0.26273169166665866},{"name":"C#4","midi":61,"time":1215.0009720000328,"velocity":0.8818897637795275,"duration":0.26273169166665866},{"name":"C#2","midi":37,"time":1215.2787500000327,"velocity":0.8818897637795275,"duration":0.2627316916664313},{"name":"C#3","midi":49,"time":1215.2787500000327,"velocity":0.8818897637795275,"duration":0.2627316916664313},{"name":"C#3","midi":49,"time":1215.5565280000324,"velocity":0.8818897637795275,"duration":0.26273169166665866},{"name":"C#4","midi":61,"time":1215.5565280000324,"velocity":0.8818897637795275,"duration":0.26273169166665866},{"name":"C#2","midi":37,"time":1215.8343060000323,"velocity":0.8818897637795275,"duration":0.26273169166665866},{"name":"C#3","midi":49,"time":1215.8343060000323,"velocity":0.8818897637795275,"duration":0.26273169166665866},{"name":"C#3","midi":49,"time":1216.1120840000322,"velocity":0.8818897637795275,"duration":0.26273169166665866},{"name":"C#4","midi":61,"time":1216.1120840000322,"velocity":0.8818897637795275,"duration":0.26273169166665866},{"name":"C#2","midi":37,"time":1216.389862000032,"velocity":0.8818897637795275,"duration":0.26273169166665866},{"name":"C#3","midi":49,"time":1216.389862000032,"velocity":0.8818897637795275,"duration":0.26273169166665866},{"name":"C#3","midi":49,"time":1216.667640000032,"velocity":0.8818897637795275,"duration":0.26273169166665866},{"name":"C#4","midi":61,"time":1216.667640000032,"velocity":0.8818897637795275,"duration":0.26273169166665866},{"name":"C#2","midi":37,"time":1216.9454180000319,"velocity":0.8818897637795275,"duration":0.26273169166665866},{"name":"C#3","midi":49,"time":1216.9454180000319,"velocity":0.8818897637795275,"duration":0.26273169166665866},{"name":"C#3","midi":49,"time":1217.2231960000317,"velocity":0.8818897637795275,"duration":0.26273169166665866},{"name":"C#4","midi":61,"time":1217.2231960000317,"velocity":0.8818897637795275,"duration":0.26273169166665866},{"name":"F#2","midi":42,"time":1217.5009740000316,"velocity":0.8818897637795275,"duration":0.2627316916664313},{"name":"F#3","midi":54,"time":1217.5009740000316,"velocity":0.8818897637795275,"duration":0.2627316916664313},{"name":"F#3","midi":54,"time":1217.7787520000313,"velocity":0.8818897637795275,"duration":0.26273169166665866},{"name":"F#4","midi":66,"time":1217.7787520000313,"velocity":0.8818897637795275,"duration":0.26273169166665866},{"name":"F#2","midi":42,"time":1218.0565300000312,"velocity":0.8818897637795275,"duration":0.26273169166665866},{"name":"F#3","midi":54,"time":1218.0565300000312,"velocity":0.8818897637795275,"duration":0.26273169166665866},{"name":"F#3","midi":54,"time":1218.3343080000311,"velocity":0.8818897637795275,"duration":0.26273169166665866},{"name":"F#4","midi":66,"time":1218.3343080000311,"velocity":0.8818897637795275,"duration":0.26273169166665866},{"name":"F#2","midi":42,"time":1218.612086000031,"velocity":0.8818897637795275,"duration":0.26273169166665866},{"name":"F#3","midi":54,"time":1218.612086000031,"velocity":0.8818897637795275,"duration":0.26273169166665866},{"name":"F#3","midi":54,"time":1218.889864000031,"velocity":0.8818897637795275,"duration":0.26273169166665866},{"name":"F#4","midi":66,"time":1218.889864000031,"velocity":0.8818897637795275,"duration":0.26273169166665866},{"name":"G#2","midi":44,"time":1219.1676420000308,"velocity":0.8818897637795275,"duration":0.26273169166665866},{"name":"G#3","midi":56,"time":1219.1676420000308,"velocity":0.8818897637795275,"duration":0.26273169166665866},{"name":"G#3","midi":56,"time":1219.4454200000307,"velocity":0.8818897637795275,"duration":0.26273169166665866},{"name":"G#4","midi":68,"time":1219.4454200000307,"velocity":0.8818897637795275,"duration":0.26273169166665866},{"name":"A2","midi":45,"time":1219.7231980000306,"velocity":0.8818897637795275,"duration":0.2627316916664313},{"name":"A3","midi":57,"time":1219.7231980000306,"velocity":0.8818897637795275,"duration":0.2627316916664313},{"name":"A3","midi":57,"time":1220.0009760000303,"velocity":0.8818897637795275,"duration":0.26273169166665866},{"name":"A4","midi":69,"time":1220.0009760000303,"velocity":0.8818897637795275,"duration":0.26273169166665866},{"name":"A2","midi":45,"time":1220.2787540000302,"velocity":0.8818897637795275,"duration":0.26273169166665866},{"name":"A3","midi":57,"time":1220.2787540000302,"velocity":0.8818897637795275,"duration":0.26273169166665866},{"name":"A3","midi":57,"time":1220.55653200003,"velocity":0.8818897637795275,"duration":0.26273169166665866},{"name":"A4","midi":69,"time":1220.55653200003,"velocity":0.8818897637795275,"duration":0.26273169166665866},{"name":"A2","midi":45,"time":1220.83431000003,"velocity":0.8818897637795275,"duration":0.26273169166665866},{"name":"A3","midi":57,"time":1220.83431000003,"velocity":0.8818897637795275,"duration":0.26273169166665866},{"name":"A3","midi":57,"time":1221.1120880000299,"velocity":0.8818897637795275,"duration":0.26273169166665866},{"name":"A4","midi":69,"time":1221.1120880000299,"velocity":0.8818897637795275,"duration":0.26273169166665866},{"name":"A2","midi":45,"time":1221.3898660000298,"velocity":0.8818897637795275,"duration":0.26273169166665866},{"name":"A3","midi":57,"time":1221.3898660000298,"velocity":0.8818897637795275,"duration":0.26273169166665866},{"name":"A3","midi":57,"time":1221.6676440000297,"velocity":0.8818897637795275,"duration":0.26273169166665866},{"name":"A4","midi":69,"time":1221.6676440000297,"velocity":0.8818897637795275,"duration":0.26273169166665866},{"name":"G#2","midi":44,"time":1221.9454220000296,"velocity":0.8818897637795275,"duration":0.2627316916664313},{"name":"G#3","midi":56,"time":1221.9454220000296,"velocity":0.8818897637795275,"duration":0.2627316916664313},{"name":"G#3","midi":56,"time":1222.2232000000292,"velocity":0.8818897637795275,"duration":0.26273169166665866},{"name":"G#4","midi":68,"time":1222.2232000000292,"velocity":0.8818897637795275,"duration":0.26273169166665866},{"name":"G#2","midi":44,"time":1222.5009780000291,"velocity":0.8818897637795275,"duration":0.26273169166665866},{"name":"G#3","midi":56,"time":1222.5009780000291,"velocity":0.8818897637795275,"duration":0.26273169166665866},{"name":"G#3","midi":56,"time":1222.778756000029,"velocity":0.8818897637795275,"duration":0.26273169166665866},{"name":"G#4","midi":68,"time":1222.778756000029,"velocity":0.8818897637795275,"duration":0.26273169166665866},{"name":"G#2","midi":44,"time":1223.056534000029,"velocity":0.8818897637795275,"duration":0.26273169166665866},{"name":"G#3","midi":56,"time":1223.056534000029,"velocity":0.8818897637795275,"duration":0.26273169166665866},{"name":"G#3","midi":56,"time":1223.3343120000288,"velocity":0.8818897637795275,"duration":0.26273169166665866},{"name":"G#4","midi":68,"time":1223.3343120000288,"velocity":0.8818897637795275,"duration":0.26273169166665866},{"name":"G#2","midi":44,"time":1223.6120900000287,"velocity":0.8818897637795275,"duration":0.26273169166665866},{"name":"G#3","midi":56,"time":1223.6120900000287,"velocity":0.8818897637795275,"duration":0.26273169166665866},{"name":"G#3","midi":56,"time":1223.8898680000286,"velocity":0.8818897637795275,"duration":0.26273169166665866},{"name":"G#4","midi":68,"time":1223.8898680000286,"velocity":0.8818897637795275,"duration":0.26273169166665866},{"name":"G2","midi":43,"time":1224.1676460000285,"velocity":0.8818897637795275,"duration":0.2627316916664313},{"name":"G3","midi":55,"time":1224.1676460000285,"velocity":0.8818897637795275,"duration":0.2627316916664313},{"name":"G3","midi":55,"time":1224.4454240000282,"velocity":0.8818897637795275,"duration":0.26273169166665866},{"name":"G4","midi":67,"time":1224.4454240000282,"velocity":0.8818897637795275,"duration":0.26273169166665866},{"name":"G2","midi":43,"time":1224.723202000028,"velocity":0.8818897637795275,"duration":0.26273169166665866},{"name":"G3","midi":55,"time":1224.723202000028,"velocity":0.8818897637795275,"duration":0.26273169166665866},{"name":"G3","midi":55,"time":1225.000980000028,"velocity":0.8818897637795275,"duration":0.26273169166665866},{"name":"G4","midi":67,"time":1225.000980000028,"velocity":0.8818897637795275,"duration":0.26273169166665866},{"name":"G2","midi":43,"time":1225.278758000028,"velocity":0.8818897637795275,"duration":0.26273169166665866},{"name":"G3","midi":55,"time":1225.278758000028,"velocity":0.8818897637795275,"duration":0.26273169166665866},{"name":"G3","midi":55,"time":1225.5565360000278,"velocity":0.8818897637795275,"duration":0.26273169166665866},{"name":"G4","midi":67,"time":1225.5565360000278,"velocity":0.8818897637795275,"duration":0.26273169166665866},{"name":"G2","midi":43,"time":1225.8343140000277,"velocity":0.8818897637795275,"duration":0.26273169166665866},{"name":"G3","midi":55,"time":1225.8343140000277,"velocity":0.8818897637795275,"duration":0.26273169166665866},{"name":"G3","midi":55,"time":1226.1120920000276,"velocity":0.8818897637795275,"duration":0.26273169166665866},{"name":"G4","midi":67,"time":1226.1120920000276,"velocity":0.8818897637795275,"duration":0.26273169166665866},{"name":"F#2","midi":42,"time":1226.3898700000275,"velocity":0.8818897637795275,"duration":0.2627316916664313},{"name":"F#3","midi":54,"time":1226.3898700000275,"velocity":0.8818897637795275,"duration":0.2627316916664313},{"name":"F#3","midi":54,"time":1226.6676480000272,"velocity":0.8818897637795275,"duration":0.26273169166665866},{"name":"F#4","midi":66,"time":1226.6676480000272,"velocity":0.8818897637795275,"duration":0.26273169166665866},{"name":"F#2","midi":42,"time":1226.945426000027,"velocity":0.8818897637795275,"duration":0.26273169166665866},{"name":"F#3","midi":54,"time":1226.945426000027,"velocity":0.8818897637795275,"duration":0.26273169166665866},{"name":"F#3","midi":54,"time":1227.223204000027,"velocity":0.8818897637795275,"duration":0.26273169166665866},{"name":"F#4","midi":66,"time":1227.223204000027,"velocity":0.8818897637795275,"duration":0.26273169166665866},{"name":"F#2","midi":42,"time":1227.5009820000269,"velocity":0.8818897637795275,"duration":0.26273169166665866},{"name":"F#3","midi":54,"time":1227.5009820000269,"velocity":0.8818897637795275,"duration":0.26273169166665866},{"name":"F#3","midi":54,"time":1227.7787600000268,"velocity":0.8818897637795275,"duration":0.26273169166665866},{"name":"F#4","midi":66,"time":1227.7787600000268,"velocity":0.8818897637795275,"duration":0.26273169166665866},{"name":"F#2","midi":42,"time":1228.0565380000266,"velocity":0.8818897637795275,"duration":0.26273169166665866},{"name":"F#3","midi":54,"time":1228.0565380000266,"velocity":0.8818897637795275,"duration":0.26273169166665866},{"name":"F#3","midi":54,"time":1228.3343160000265,"velocity":0.8818897637795275,"duration":0.26273169166665866},{"name":"F#4","midi":66,"time":1228.3343160000265,"velocity":0.8818897637795275,"duration":0.26273169166665866},{"name":"A2","midi":45,"time":1228.6120940000264,"velocity":0.8818897637795275,"duration":0.2627316916664313},{"name":"A3","midi":57,"time":1228.6120940000264,"velocity":0.8818897637795275,"duration":0.2627316916664313},{"name":"A3","midi":57,"time":1228.8898720000261,"velocity":0.8818897637795275,"duration":0.26273169166665866},{"name":"A4","midi":69,"time":1228.8898720000261,"velocity":0.8818897637795275,"duration":0.26273169166665866},{"name":"A2","midi":45,"time":1229.167650000026,"velocity":0.8818897637795275,"duration":0.26273169166665866},{"name":"A3","midi":57,"time":1229.167650000026,"velocity":0.8818897637795275,"duration":0.26273169166665866},{"name":"A3","midi":57,"time":1229.445428000026,"velocity":0.8818897637795275,"duration":0.26273169166665866},{"name":"A4","midi":69,"time":1229.445428000026,"velocity":0.8818897637795275,"duration":0.26273169166665866},{"name":"A2","midi":45,"time":1229.7232060000258,"velocity":0.8818897637795275,"duration":0.26273169166665866},{"name":"A3","midi":57,"time":1229.7232060000258,"velocity":0.8818897637795275,"duration":0.26273169166665866},{"name":"A3","midi":57,"time":1230.0009840000257,"velocity":0.8818897637795275,"duration":0.26273169166665866},{"name":"A4","midi":69,"time":1230.0009840000257,"velocity":0.8818897637795275,"duration":0.26273169166665866},{"name":"A2","midi":45,"time":1230.2787620000256,"velocity":0.8818897637795275,"duration":0.26273169166665866},{"name":"A3","midi":57,"time":1230.2787620000256,"velocity":0.8818897637795275,"duration":0.26273169166665866},{"name":"A3","midi":57,"time":1230.5565400000255,"velocity":0.8818897637795275,"duration":0.26273169166665866},{"name":"A4","midi":69,"time":1230.5565400000255,"velocity":0.8818897637795275,"duration":0.26273169166665866},{"name":"C#4","midi":61,"time":1230.8343180000254,"velocity":0.8818897637795275,"duration":0.2627316916664313},{"name":"C#5","midi":73,"time":1230.8343180000254,"velocity":0.8818897637795275,"duration":0.2627316916664313},{"name":"C#5","midi":73,"time":1231.112096000025,"velocity":0.8818897637795275,"duration":0.26273169166665866},{"name":"C#6","midi":85,"time":1231.112096000025,"velocity":0.8818897637795275,"duration":0.26273169166665866},{"name":"C#4","midi":61,"time":1231.389874000025,"velocity":0.8818897637795275,"duration":0.26273169166665866},{"name":"C#5","midi":73,"time":1231.389874000025,"velocity":0.8818897637795275,"duration":0.26273169166665866},{"name":"C#5","midi":73,"time":1231.6676520000249,"velocity":0.8818897637795275,"duration":0.26273169166665866},{"name":"C#6","midi":85,"time":1231.6676520000249,"velocity":0.8818897637795275,"duration":0.26273169166665866},{"name":"C#4","midi":61,"time":1231.9454300000248,"velocity":0.8818897637795275,"duration":0.26273169166665866},{"name":"C#5","midi":73,"time":1231.9454300000248,"velocity":0.8818897637795275,"duration":0.26273169166665866},{"name":"C#5","midi":73,"time":1232.2232080000247,"velocity":0.8818897637795275,"duration":0.26273169166665866},{"name":"C#6","midi":85,"time":1232.2232080000247,"velocity":0.8818897637795275,"duration":0.26273169166665866},{"name":"C#4","midi":61,"time":1232.5009860000246,"velocity":0.8818897637795275,"duration":0.26273169166665866},{"name":"C#5","midi":73,"time":1232.5009860000246,"velocity":0.8818897637795275,"duration":0.26273169166665866},{"name":"C#5","midi":73,"time":1232.7787640000245,"velocity":0.8818897637795275,"duration":0.26273169166665866},{"name":"C#6","midi":85,"time":1232.7787640000245,"velocity":0.8818897637795275,"duration":0.26273169166665866},{"name":"C#4","midi":61,"time":1233.0565420000244,"velocity":0.8818897637795275,"duration":0.2627316916664313},{"name":"C#5","midi":73,"time":1233.0565420000244,"velocity":0.8818897637795275,"duration":0.2627316916664313},{"name":"C#5","midi":73,"time":1233.334320000024,"velocity":0.8818897637795275,"duration":0.26273169166665866},{"name":"C#6","midi":85,"time":1233.334320000024,"velocity":0.8818897637795275,"duration":0.26273169166665866},{"name":"C#4","midi":61,"time":1233.612098000024,"velocity":0.8818897637795275,"duration":0.26273169166665866},{"name":"C#5","midi":73,"time":1233.612098000024,"velocity":0.8818897637795275,"duration":0.26273169166665866},{"name":"C#5","midi":73,"time":1233.8898760000238,"velocity":0.8818897637795275,"duration":0.26273169166665866},{"name":"C#6","midi":85,"time":1233.8898760000238,"velocity":0.8818897637795275,"duration":0.26273169166665866},{"name":"C#4","midi":61,"time":1234.1676540000237,"velocity":0.8818897637795275,"duration":0.26273169166665866},{"name":"C#5","midi":73,"time":1234.1676540000237,"velocity":0.8818897637795275,"duration":0.26273169166665866},{"name":"C#5","midi":73,"time":1234.4454320000236,"velocity":0.8818897637795275,"duration":0.26273169166665866},{"name":"C#6","midi":85,"time":1234.4454320000236,"velocity":0.8818897637795275,"duration":0.26273169166665866},{"name":"C#4","midi":61,"time":1234.7232100000235,"velocity":0.8818897637795275,"duration":0.26273169166665866},{"name":"C#5","midi":73,"time":1234.7232100000235,"velocity":0.8818897637795275,"duration":0.26273169166665866},{"name":"C#5","midi":73,"time":1235.0009880000234,"velocity":0.8818897637795275,"duration":0.26273169166665866},{"name":"C#6","midi":85,"time":1235.0009880000234,"velocity":0.8818897637795275,"duration":0.26273169166665866},{"name":"F#2","midi":42,"time":1235.2787660000233,"velocity":0.8818897637795275,"duration":0.2627316916664313},{"name":"F#3","midi":54,"time":1235.2787660000233,"velocity":0.8818897637795275,"duration":0.2627316916664313},{"name":"F#3","midi":54,"time":1235.556544000023,"velocity":0.8818897637795275,"duration":0.26273169166665866},{"name":"F#4","midi":66,"time":1235.556544000023,"velocity":0.8818897637795275,"duration":0.26273169166665866},{"name":"F#2","midi":42,"time":1235.834322000023,"velocity":0.8818897637795275,"duration":0.26273169166665866},{"name":"F#3","midi":54,"time":1235.834322000023,"velocity":0.8818897637795275,"duration":0.26273169166665866},{"name":"F#3","midi":54,"time":1236.1121000000228,"velocity":0.8818897637795275,"duration":0.26273169166665866},{"name":"F#4","midi":66,"time":1236.1121000000228,"velocity":0.8818897637795275,"duration":0.26273169166665866},{"name":"F#2","midi":42,"time":1236.3898780000227,"velocity":0.8818897637795275,"duration":0.26273169166665866},{"name":"F#3","midi":54,"time":1236.3898780000227,"velocity":0.8818897637795275,"duration":0.26273169166665866},{"name":"F#3","midi":54,"time":1236.6676560000226,"velocity":0.8818897637795275,"duration":0.26273169166665866},{"name":"F#4","midi":66,"time":1236.6676560000226,"velocity":0.8818897637795275,"duration":0.26273169166665866},{"name":"G#2","midi":44,"time":1236.9454340000225,"velocity":0.8818897637795275,"duration":0.26273169166665866},{"name":"G#3","midi":56,"time":1236.9454340000225,"velocity":0.8818897637795275,"duration":0.26273169166665866},{"name":"G#3","midi":56,"time":1237.2232120000224,"velocity":0.8818897637795275,"duration":0.26273169166665866},{"name":"G#4","midi":68,"time":1237.2232120000224,"velocity":0.8818897637795275,"duration":0.26273169166665866},{"name":"A1","midi":33,"time":1237.5009900000223,"velocity":0.8818897637795275,"duration":0.2627316916664313},{"name":"A2","midi":45,"time":1237.5009900000223,"velocity":0.8818897637795275,"duration":0.2627316916664313},{"name":"A2","midi":45,"time":1237.778768000022,"velocity":0.8818897637795275,"duration":0.26273169166665866},{"name":"A3","midi":57,"time":1237.778768000022,"velocity":0.8818897637795275,"duration":0.26273169166665866},{"name":"A1","midi":33,"time":1238.0565460000219,"velocity":0.8818897637795275,"duration":0.26273169166665866},{"name":"A2","midi":45,"time":1238.0565460000219,"velocity":0.8818897637795275,"duration":0.26273169166665866},{"name":"A2","midi":45,"time":1238.3343240000218,"velocity":0.8818897637795275,"duration":0.26273169166665866},{"name":"A3","midi":57,"time":1238.3343240000218,"velocity":0.8818897637795275,"duration":0.26273169166665866},{"name":"A1","midi":33,"time":1238.6121020000217,"velocity":0.8818897637795275,"duration":0.26273169166665866},{"name":"A2","midi":45,"time":1238.6121020000217,"velocity":0.8818897637795275,"duration":0.26273169166665866},{"name":"A2","midi":45,"time":1238.8898800000215,"velocity":0.8818897637795275,"duration":0.26273169166665866},{"name":"A3","midi":57,"time":1238.8898800000215,"velocity":0.8818897637795275,"duration":0.26273169166665866},{"name":"B1","midi":35,"time":1239.1676580000214,"velocity":0.8818897637795275,"duration":0.26273169166665866},{"name":"B2","midi":47,"time":1239.1676580000214,"velocity":0.8818897637795275,"duration":0.26273169166665866},{"name":"B2","midi":47,"time":1239.4454360000213,"velocity":0.8818897637795275,"duration":0.26273169166665866},{"name":"B3","midi":59,"time":1239.4454360000213,"velocity":0.8818897637795275,"duration":0.26273169166665866},{"name":"C#2","midi":37,"time":1239.7232140000212,"velocity":0.8818897637795275,"duration":0.2627316916664313},{"name":"C#3","midi":49,"time":1239.7232140000212,"velocity":0.8818897637795275,"duration":0.2627316916664313},{"name":"C#3","midi":49,"time":1240.000992000021,"velocity":0.8818897637795275,"duration":0.26273169166665866},{"name":"C#4","midi":61,"time":1240.000992000021,"velocity":0.8818897637795275,"duration":0.26273169166665866},{"name":"C#2","midi":37,"time":1240.2787700000208,"velocity":0.8818897637795275,"duration":0.26273169166665866},{"name":"C#3","midi":49,"time":1240.2787700000208,"velocity":0.8818897637795275,"duration":0.26273169166665866},{"name":"C#3","midi":49,"time":1240.5565480000207,"velocity":0.8818897637795275,"duration":0.26273169166665866},{"name":"C#4","midi":61,"time":1240.5565480000207,"velocity":0.8818897637795275,"duration":0.26273169166665866},{"name":"C#2","midi":37,"time":1240.8343260000206,"velocity":0.8818897637795275,"duration":0.26273169166665866},{"name":"C#3","midi":49,"time":1240.8343260000206,"velocity":0.8818897637795275,"duration":0.26273169166665866},{"name":"C#3","midi":49,"time":1241.1121040000205,"velocity":0.8818897637795275,"duration":0.26273169166665866},{"name":"C#4","midi":61,"time":1241.1121040000205,"velocity":0.8818897637795275,"duration":0.26273169166665866},{"name":"E2","midi":40,"time":1241.3898820000204,"velocity":0.8818897637795275,"duration":0.26273169166665866},{"name":"E3","midi":52,"time":1241.3898820000204,"velocity":0.8818897637795275,"duration":0.26273169166665866},{"name":"E3","midi":52,"time":1241.6676600000203,"velocity":0.8818897637795275,"duration":0.26273169166665866},{"name":"E4","midi":64,"time":1241.6676600000203,"velocity":0.8818897637795275,"duration":0.26273169166665866},{"name":"F#2","midi":42,"time":1241.9454380000202,"velocity":0.8818897637795275,"duration":0.2627316916664313},{"name":"F#3","midi":54,"time":1241.9454380000202,"velocity":0.8818897637795275,"duration":0.2627316916664313},{"name":"F#3","midi":54,"time":1242.2232160000199,"velocity":0.8818897637795275,"duration":0.26273169166665866},{"name":"F#4","midi":66,"time":1242.2232160000199,"velocity":0.8818897637795275,"duration":0.26273169166665866},{"name":"F#2","midi":42,"time":1242.5009940000198,"velocity":0.8818897637795275,"duration":0.26273169166665866},{"name":"F#3","midi":54,"time":1242.5009940000198,"velocity":0.8818897637795275,"duration":0.26273169166665866},{"name":"F#3","midi":54,"time":1242.7787720000197,"velocity":0.8818897637795275,"duration":0.26273169166665866},{"name":"F#4","midi":66,"time":1242.7787720000197,"velocity":0.8818897637795275,"duration":0.26273169166665866},{"name":"F#2","midi":42,"time":1243.0565500000196,"velocity":0.8818897637795275,"duration":0.26273169166665866},{"name":"F#3","midi":54,"time":1243.0565500000196,"velocity":0.8818897637795275,"duration":0.26273169166665866},{"name":"F#3","midi":54,"time":1243.3343280000195,"velocity":0.8818897637795275,"duration":0.26273169166665866},{"name":"F#4","midi":66,"time":1243.3343280000195,"velocity":0.8818897637795275,"duration":0.26273169166665866},{"name":"E2","midi":40,"time":1243.6121060000194,"velocity":0.8818897637795275,"duration":0.26273169166665866},{"name":"E3","midi":52,"time":1243.6121060000194,"velocity":0.8818897637795275,"duration":0.26273169166665866},{"name":"E3","midi":52,"time":1243.8898840000193,"velocity":0.8818897637795275,"duration":0.26273169166665866},{"name":"E4","midi":64,"time":1243.8898840000193,"velocity":0.8818897637795275,"duration":0.26273169166665866},{"name":"D2","midi":38,"time":1244.1676620000192,"velocity":0.8818897637795275,"duration":0.2627316916664313},{"name":"D3","midi":50,"time":1244.1676620000192,"velocity":0.8818897637795275,"duration":0.2627316916664313},{"name":"D3","midi":50,"time":1244.4454400000188,"velocity":0.8818897637795275,"duration":0.26273169166665866},{"name":"D4","midi":62,"time":1244.4454400000188,"velocity":0.8818897637795275,"duration":0.26273169166665866},{"name":"D2","midi":38,"time":1244.7232180000187,"velocity":0.8818897637795275,"duration":0.26273169166665866},{"name":"D3","midi":50,"time":1244.7232180000187,"velocity":0.8818897637795275,"duration":0.26273169166665866},{"name":"D3","midi":50,"time":1245.0009960000186,"velocity":0.8818897637795275,"duration":0.26273169166665866},{"name":"D4","midi":62,"time":1245.0009960000186,"velocity":0.8818897637795275,"duration":0.26273169166665866},{"name":"D2","midi":38,"time":1245.2787740000185,"velocity":0.8818897637795275,"duration":0.26273169166665866},{"name":"D3","midi":50,"time":1245.2787740000185,"velocity":0.8818897637795275,"duration":0.26273169166665866},{"name":"D3","midi":50,"time":1245.5565520000184,"velocity":0.8818897637795275,"duration":0.26273169166665866},{"name":"D4","midi":62,"time":1245.5565520000184,"velocity":0.8818897637795275,"duration":0.26273169166665866},{"name":"E2","midi":40,"time":1245.8343300000183,"velocity":0.8818897637795275,"duration":0.26273169166665866},{"name":"E3","midi":52,"time":1245.8343300000183,"velocity":0.8818897637795275,"duration":0.26273169166665866},{"name":"E3","midi":52,"time":1246.1121080000182,"velocity":0.8818897637795275,"duration":0.26273169166665866},{"name":"E4","midi":64,"time":1246.1121080000182,"velocity":0.8818897637795275,"duration":0.26273169166665866},{"name":"A1","midi":33,"time":1246.3898860000181,"velocity":0.8818897637795275,"duration":0.2627316916664313},{"name":"A2","midi":45,"time":1246.3898860000181,"velocity":0.8818897637795275,"duration":0.2627316916664313},{"name":"A2","midi":45,"time":1246.6676640000178,"velocity":0.8818897637795275,"duration":0.26273169166665866},{"name":"A3","midi":57,"time":1246.6676640000178,"velocity":0.8818897637795275,"duration":0.26273169166665866},{"name":"A1","midi":33,"time":1246.9454420000177,"velocity":0.8818897637795275,"duration":0.26273169166665866},{"name":"A2","midi":45,"time":1246.9454420000177,"velocity":0.8818897637795275,"duration":0.26273169166665866},{"name":"A2","midi":45,"time":1247.2232200000176,"velocity":0.8818897637795275,"duration":0.26273169166665866},{"name":"A3","midi":57,"time":1247.2232200000176,"velocity":0.8818897637795275,"duration":0.26273169166665866},{"name":"A1","midi":33,"time":1247.5009980000175,"velocity":0.8818897637795275,"duration":0.26273169166665866},{"name":"A2","midi":45,"time":1247.5009980000175,"velocity":0.8818897637795275,"duration":0.26273169166665866},{"name":"A2","midi":45,"time":1247.7787760000174,"velocity":0.8818897637795275,"duration":0.26273169166665866},{"name":"A3","midi":57,"time":1247.7787760000174,"velocity":0.8818897637795275,"duration":0.26273169166665866},{"name":"B1","midi":35,"time":1248.0565540000173,"velocity":0.8818897637795275,"duration":0.26273169166665866},{"name":"B2","midi":47,"time":1248.0565540000173,"velocity":0.8818897637795275,"duration":0.26273169166665866},{"name":"B2","midi":47,"time":1248.3343320000172,"velocity":0.8818897637795275,"duration":0.26273169166665866},{"name":"B3","midi":59,"time":1248.3343320000172,"velocity":0.8818897637795275,"duration":0.26273169166665866},{"name":"C#2","midi":37,"time":1248.612110000017,"velocity":0.8818897637795275,"duration":0.2627316916664313},{"name":"C#3","midi":49,"time":1248.612110000017,"velocity":0.8818897637795275,"duration":0.2627316916664313},{"name":"C#3","midi":49,"time":1248.8898880000168,"velocity":0.8818897637795275,"duration":0.26273169166665866},{"name":"C#4","midi":61,"time":1248.8898880000168,"velocity":0.8818897637795275,"duration":0.26273169166665866},{"name":"C#2","midi":37,"time":1249.1676660000167,"velocity":0.8818897637795275,"duration":0.26273169166665866},{"name":"C#3","midi":49,"time":1249.1676660000167,"velocity":0.8818897637795275,"duration":0.26273169166665866},{"name":"C#3","midi":49,"time":1249.4454440000166,"velocity":0.8818897637795275,"duration":0.26273169166665866},{"name":"C#4","midi":61,"time":1249.4454440000166,"velocity":0.8818897637795275,"duration":0.26273169166665866},{"name":"C#2","midi":37,"time":1249.7232220000164,"velocity":0.8818897637795275,"duration":0.26273169166665866},{"name":"C#3","midi":49,"time":1249.7232220000164,"velocity":0.8818897637795275,"duration":0.26273169166665866},{"name":"C#3","midi":49,"time":1250.0010000000163,"velocity":0.8818897637795275,"duration":0.26273169166665866},{"name":"C#4","midi":61,"time":1250.0010000000163,"velocity":0.8818897637795275,"duration":0.26273169166665866},{"name":"C#2","midi":37,"time":1250.2787780000162,"velocity":0.8818897637795275,"duration":0.26273169166665866},{"name":"C#3","midi":49,"time":1250.2787780000162,"velocity":0.8818897637795275,"duration":0.26273169166665866},{"name":"C#3","midi":49,"time":1250.5565560000161,"velocity":0.8818897637795275,"duration":0.26273169166665866},{"name":"C#4","midi":61,"time":1250.5565560000161,"velocity":0.8818897637795275,"duration":0.26273169166665866},{"name":"C#2","midi":37,"time":1250.834334000016,"velocity":0.8818897637795275,"duration":0.2627316916664313},{"name":"C#3","midi":49,"time":1250.834334000016,"velocity":0.8818897637795275,"duration":0.2627316916664313},{"name":"C#3","midi":49,"time":1251.1121120000157,"velocity":0.8818897637795275,"duration":0.26273169166665866},{"name":"C#4","midi":61,"time":1251.1121120000157,"velocity":0.8818897637795275,"duration":0.26273169166665866},{"name":"C#2","midi":37,"time":1251.3898900000156,"velocity":0.8818897637795275,"duration":0.26273169166665866},{"name":"C#3","midi":49,"time":1251.3898900000156,"velocity":0.8818897637795275,"duration":0.26273169166665866},{"name":"C#3","midi":49,"time":1251.6676680000155,"velocity":0.8818897637795275,"duration":0.26273169166665866},{"name":"C#4","midi":61,"time":1251.6676680000155,"velocity":0.8818897637795275,"duration":0.26273169166665866},{"name":"B2","midi":47,"time":1251.9454460000154,"velocity":0.8818897637795275,"duration":0.08217599166664513},{"name":"B3","midi":59,"time":1251.9454460000154,"velocity":0.8818897637795275,"duration":0.08217599166664513},{"name":"C#3","midi":49,"time":1252.0287794000153,"velocity":0.8818897637795275,"duration":0.1817131083332697},{"name":"C#4","midi":61,"time":1252.0287794000153,"velocity":0.8818897637795275,"duration":0.1817131083332697},{"name":"B2","midi":47,"time":1252.2232240000153,"velocity":0.8818897637795275,"duration":0.26273169166665866},{"name":"B3","midi":59,"time":1252.2232240000153,"velocity":0.8818897637795275,"duration":0.26273169166665866},{"name":"A2","midi":45,"time":1252.5010020000152,"velocity":0.8818897637795275,"duration":0.26273169166665866},{"name":"A3","midi":57,"time":1252.5010020000152,"velocity":0.8818897637795275,"duration":0.26273169166665866},{"name":"G#2","midi":44,"time":1252.778780000015,"velocity":0.8818897637795275,"duration":0.26273169166665866},{"name":"G#3","midi":56,"time":1252.778780000015,"velocity":0.8818897637795275,"duration":0.26273169166665866},{"name":"F#2","midi":42,"time":1253.056558000015,"velocity":0.8818897637795275,"duration":0.2627316916664313},{"name":"F#3","midi":54,"time":1253.056558000015,"velocity":0.8818897637795275,"duration":0.2627316916664313},{"name":"F#3","midi":54,"time":1253.3343360000147,"velocity":0.8818897637795275,"duration":0.26273169166665866},{"name":"F#4","midi":66,"time":1253.3343360000147,"velocity":0.8818897637795275,"duration":0.26273169166665866},{"name":"F#2","midi":42,"time":1253.6121140000146,"velocity":0.8818897637795275,"duration":0.26273169166665866},{"name":"F#3","midi":54,"time":1253.6121140000146,"velocity":0.8818897637795275,"duration":0.26273169166665866},{"name":"F#3","midi":54,"time":1253.8898920000145,"velocity":0.8818897637795275,"duration":0.26273169166665866},{"name":"F#4","midi":66,"time":1253.8898920000145,"velocity":0.8818897637795275,"duration":0.26273169166665866},{"name":"F#2","midi":42,"time":1254.1676700000144,"velocity":0.8818897637795275,"duration":0.26273169166665866},{"name":"F#3","midi":54,"time":1254.1676700000144,"velocity":0.8818897637795275,"duration":0.26273169166665866},{"name":"F#3","midi":54,"time":1254.4454480000143,"velocity":0.8818897637795275,"duration":0.26273169166665866},{"name":"F#4","midi":66,"time":1254.4454480000143,"velocity":0.8818897637795275,"duration":0.26273169166665866},{"name":"G#2","midi":44,"time":1254.7232260000142,"velocity":0.8818897637795275,"duration":0.26273169166665866},{"name":"G#3","midi":56,"time":1254.7232260000142,"velocity":0.8818897637795275,"duration":0.26273169166665866},{"name":"G#3","midi":56,"time":1255.001004000014,"velocity":0.8818897637795275,"duration":0.26273169166665866},{"name":"G#4","midi":68,"time":1255.001004000014,"velocity":0.8818897637795275,"duration":0.26273169166665866},{"name":"A2","midi":45,"time":1255.278782000014,"velocity":0.8818897637795275,"duration":0.2627316916664313},{"name":"A3","midi":57,"time":1255.278782000014,"velocity":0.8818897637795275,"duration":0.2627316916664313},{"name":"A3","midi":57,"time":1255.5565600000136,"velocity":0.8818897637795275,"duration":0.26273169166665866},{"name":"A4","midi":69,"time":1255.5565600000136,"velocity":0.8818897637795275,"duration":0.26273169166665866},{"name":"A2","midi":45,"time":1255.8343380000135,"velocity":0.8818897637795275,"duration":0.26273169166665866},{"name":"A3","midi":57,"time":1255.8343380000135,"velocity":0.8818897637795275,"duration":0.26273169166665866},{"name":"A3","midi":57,"time":1256.1121160000134,"velocity":0.8818897637795275,"duration":0.26273169166665866},{"name":"A4","midi":69,"time":1256.1121160000134,"velocity":0.8818897637795275,"duration":0.26273169166665866},{"name":"A2","midi":45,"time":1256.3898940000133,"velocity":0.8818897637795275,"duration":0.26273169166665866},{"name":"A3","midi":57,"time":1256.3898940000133,"velocity":0.8818897637795275,"duration":0.26273169166665866},{"name":"A3","midi":57,"time":1256.6676720000132,"velocity":0.8818897637795275,"duration":0.26273169166665866},{"name":"A4","midi":69,"time":1256.6676720000132,"velocity":0.8818897637795275,"duration":0.26273169166665866},{"name":"G#2","midi":44,"time":1256.9454500000131,"velocity":0.8818897637795275,"duration":0.26273169166665866},{"name":"G#3","midi":56,"time":1256.9454500000131,"velocity":0.8818897637795275,"duration":0.26273169166665866},{"name":"G#3","midi":56,"time":1257.223228000013,"velocity":0.8818897637795275,"duration":0.26273169166665866},{"name":"G#4","midi":68,"time":1257.223228000013,"velocity":0.8818897637795275,"duration":0.26273169166665866},{"name":"G#3","midi":56,"time":1257.501006000013,"velocity":0.8818897637795275,"duration":0.2627316916664313},{"name":"G#4","midi":68,"time":1257.501006000013,"velocity":0.8818897637795275,"duration":0.2627316916664313},{"name":"G#4","midi":68,"time":1257.7787840000126,"velocity":0.8818897637795275,"duration":0.26273169166665866},{"name":"D#5","midi":75,"time":1257.7787840000126,"velocity":0.8818897637795275,"duration":0.26273169166665866},{"name":"G#3","midi":56,"time":1258.0565620000125,"velocity":0.8818897637795275,"duration":0.26273169166665866},{"name":"G#4","midi":68,"time":1258.0565620000125,"velocity":0.8818897637795275,"duration":0.26273169166665866},{"name":"G#4","midi":68,"time":1258.3343400000124,"velocity":0.8818897637795275,"duration":0.26273169166665866},{"name":"D#5","midi":75,"time":1258.3343400000124,"velocity":0.8818897637795275,"duration":0.26273169166665866},{"name":"G#3","midi":56,"time":1258.6121180000123,"velocity":0.8818897637795275,"duration":0.26273169166665866},{"name":"G#4","midi":68,"time":1258.6121180000123,"velocity":0.8818897637795275,"duration":0.26273169166665866},{"name":"G#4","midi":68,"time":1258.8898960000122,"velocity":0.8818897637795275,"duration":0.26273169166665866},{"name":"D#5","midi":75,"time":1258.8898960000122,"velocity":0.8818897637795275,"duration":0.26273169166665866},{"name":"G#3","midi":56,"time":1259.167674000012,"velocity":0.8818897637795275,"duration":0.26273169166665866},{"name":"G#4","midi":68,"time":1259.167674000012,"velocity":0.8818897637795275,"duration":0.26273169166665866},{"name":"G#4","midi":68,"time":1259.445452000012,"velocity":0.8818897637795275,"duration":0.26273169166665866},{"name":"D#5","midi":75,"time":1259.445452000012,"velocity":0.8818897637795275,"duration":0.26273169166665866},{"name":"G3","midi":55,"time":1259.7232300000119,"velocity":0.8818897637795275,"duration":0.2627316916664313},{"name":"G4","midi":67,"time":1259.7232300000119,"velocity":0.8818897637795275,"duration":0.2627316916664313},{"name":"G4","midi":67,"time":1260.0010080000116,"velocity":0.8818897637795275,"duration":0.26273169166665866},{"name":"D5","midi":74,"time":1260.0010080000116,"velocity":0.8818897637795275,"duration":0.26273169166665866},{"name":"G3","midi":55,"time":1260.2787860000115,"velocity":0.8818897637795275,"duration":0.26273169166665866},{"name":"G4","midi":67,"time":1260.2787860000115,"velocity":0.8818897637795275,"duration":0.26273169166665866},{"name":"G4","midi":67,"time":1260.5565640000113,"velocity":0.8818897637795275,"duration":0.26273169166665866},{"name":"D5","midi":74,"time":1260.5565640000113,"velocity":0.8818897637795275,"duration":0.26273169166665866},{"name":"G3","midi":55,"time":1260.8343420000112,"velocity":0.8818897637795275,"duration":0.26273169166665866},{"name":"G4","midi":67,"time":1260.8343420000112,"velocity":0.8818897637795275,"duration":0.26273169166665866},{"name":"G4","midi":67,"time":1261.1121200000111,"velocity":0.8818897637795275,"duration":0.26273169166665866},{"name":"D5","midi":74,"time":1261.1121200000111,"velocity":0.8818897637795275,"duration":0.26273169166665866},{"name":"G3","midi":55,"time":1261.389898000011,"velocity":0.8818897637795275,"duration":0.26273169166665866},{"name":"G4","midi":67,"time":1261.389898000011,"velocity":0.8818897637795275,"duration":0.26273169166665866},{"name":"G4","midi":67,"time":1261.667676000011,"velocity":0.8818897637795275,"duration":0.26273169166665866},{"name":"D5","midi":74,"time":1261.667676000011,"velocity":0.8818897637795275,"duration":0.26273169166665866},{"name":"F#2","midi":42,"time":1261.9454540000108,"velocity":0.8818897637795275,"duration":0.2627316916664313},{"name":"F#3","midi":54,"time":1261.9454540000108,"velocity":0.8818897637795275,"duration":0.2627316916664313},{"name":"F#3","midi":54,"time":1262.2232320000105,"velocity":0.8818897637795275,"duration":0.26273169166665866},{"name":"F#4","midi":66,"time":1262.2232320000105,"velocity":0.8818897637795275,"duration":0.26273169166665866},{"name":"F#2","midi":42,"time":1262.5010100000104,"velocity":0.8818897637795275,"duration":0.26273169166665866},{"name":"F#3","midi":54,"time":1262.5010100000104,"velocity":0.8818897637795275,"duration":0.26273169166665866},{"name":"F#3","midi":54,"time":1262.7787880000103,"velocity":0.8818897637795275,"duration":0.26273169166665866},{"name":"F#4","midi":66,"time":1262.7787880000103,"velocity":0.8818897637795275,"duration":0.26273169166665866},{"name":"F#2","midi":42,"time":1263.0565660000102,"velocity":0.8818897637795275,"duration":0.26273169166665866},{"name":"F#3","midi":54,"time":1263.0565660000102,"velocity":0.8818897637795275,"duration":0.26273169166665866},{"name":"F#3","midi":54,"time":1263.33434400001,"velocity":0.8818897637795275,"duration":0.26273169166665866},{"name":"F#4","midi":66,"time":1263.33434400001,"velocity":0.8818897637795275,"duration":0.26273169166665866},{"name":"F#2","midi":42,"time":1263.61212200001,"velocity":0.8818897637795275,"duration":0.26273169166665866},{"name":"F#3","midi":54,"time":1263.61212200001,"velocity":0.8818897637795275,"duration":0.26273169166665866},{"name":"F#3","midi":54,"time":1263.88990000001,"velocity":0.8818897637795275,"duration":0.26273169166665866},{"name":"F#4","midi":66,"time":1263.88990000001,"velocity":0.8818897637795275,"duration":0.26273169166665866},{"name":"A2","midi":45,"time":1264.1676780000098,"velocity":0.8818897637795275,"duration":0.2627316916664313},{"name":"A3","midi":57,"time":1264.1676780000098,"velocity":0.8818897637795275,"duration":0.2627316916664313},{"name":"A3","midi":57,"time":1264.4454560000095,"velocity":0.8818897637795275,"duration":0.26273169166665866},{"name":"A4","midi":69,"time":1264.4454560000095,"velocity":0.8818897637795275,"duration":0.26273169166665866},{"name":"A2","midi":45,"time":1264.7232340000094,"velocity":0.8818897637795275,"duration":0.26273169166665866},{"name":"A3","midi":57,"time":1264.7232340000094,"velocity":0.8818897637795275,"duration":0.26273169166665866},{"name":"A3","midi":57,"time":1265.0010120000093,"velocity":0.8818897637795275,"duration":0.26273169166665866},{"name":"A4","midi":69,"time":1265.0010120000093,"velocity":0.8818897637795275,"duration":0.26273169166665866},{"name":"A2","midi":45,"time":1265.2787900000092,"velocity":0.8818897637795275,"duration":0.26273169166665866},{"name":"A3","midi":57,"time":1265.2787900000092,"velocity":0.8818897637795275,"duration":0.26273169166665866},{"name":"A3","midi":57,"time":1265.556568000009,"velocity":0.8818897637795275,"duration":0.26273169166665866},{"name":"A4","midi":69,"time":1265.556568000009,"velocity":0.8818897637795275,"duration":0.26273169166665866},{"name":"B2","midi":47,"time":1265.834346000009,"velocity":0.8818897637795275,"duration":0.26273169166665866},{"name":"B3","midi":59,"time":1265.834346000009,"velocity":0.8818897637795275,"duration":0.26273169166665866},{"name":"B3","midi":59,"time":1266.1121240000089,"velocity":0.8818897637795275,"duration":0.26273169166665866},{"name":"B4","midi":71,"time":1266.1121240000089,"velocity":0.8818897637795275,"duration":0.26273169166665866},{"name":"C#2","midi":37,"time":1266.3899020000088,"velocity":0.8818897637795275,"duration":0.2627316916664313},{"name":"C#3","midi":49,"time":1266.3899020000088,"velocity":0.8818897637795275,"duration":0.2627316916664313},{"name":"C#3","midi":49,"time":1266.6676800000084,"velocity":0.8818897637795275,"duration":0.26273169166665866},{"name":"C#4","midi":61,"time":1266.6676800000084,"velocity":0.8818897637795275,"duration":0.26273169166665866},{"name":"C#2","midi":37,"time":1266.9454580000083,"velocity":0.8818897637795275,"duration":0.26273169166665866},{"name":"C#3","midi":49,"time":1266.9454580000083,"velocity":0.8818897637795275,"duration":0.26273169166665866},{"name":"C#3","midi":49,"time":1267.2232360000082,"velocity":0.8818897637795275,"duration":0.26273169166665866},{"name":"C#4","midi":61,"time":1267.2232360000082,"velocity":0.8818897637795275,"duration":0.26273169166665866},{"name":"C#2","midi":37,"time":1267.5010140000081,"velocity":0.8818897637795275,"duration":0.26273169166665866},{"name":"C#3","midi":49,"time":1267.5010140000081,"velocity":0.8818897637795275,"duration":0.26273169166665866},{"name":"C#3","midi":49,"time":1267.778792000008,"velocity":0.8818897637795275,"duration":0.26273169166665866},{"name":"C#4","midi":61,"time":1267.778792000008,"velocity":0.8818897637795275,"duration":0.26273169166665866},{"name":"C#2","midi":37,"time":1268.056570000008,"velocity":0.8818897637795275,"duration":0.26273169166665866},{"name":"C#3","midi":49,"time":1268.056570000008,"velocity":0.8818897637795275,"duration":0.26273169166665866},{"name":"C#3","midi":49,"time":1268.3343480000078,"velocity":0.8818897637795275,"duration":0.26273169166665866},{"name":"C#4","midi":61,"time":1268.3343480000078,"velocity":0.8818897637795275,"duration":0.26273169166665866},{"name":"C#2","midi":37,"time":1268.6121260000077,"velocity":0.8818897637795275,"duration":0.2627316916664313},{"name":"C#3","midi":49,"time":1268.6121260000077,"velocity":0.8818897637795275,"duration":0.2627316916664313},{"name":"C#3","midi":49,"time":1268.8899040000074,"velocity":0.8818897637795275,"duration":0.26273169166665866},{"name":"C#4","midi":61,"time":1268.8899040000074,"velocity":0.8818897637795275,"duration":0.26273169166665866},{"name":"C#2","midi":37,"time":1269.1676820000073,"velocity":0.8818897637795275,"duration":0.26273169166665866},{"name":"C#3","midi":49,"time":1269.1676820000073,"velocity":0.8818897637795275,"duration":0.26273169166665866},{"name":"C#3","midi":49,"time":1269.4454600000072,"velocity":0.8818897637795275,"duration":0.26273169166665866},{"name":"C#4","midi":61,"time":1269.4454600000072,"velocity":0.8818897637795275,"duration":0.26273169166665866},{"name":"B2","midi":47,"time":1269.723238000007,"velocity":0.8818897637795275,"duration":0.08217599166664513},{"name":"B3","midi":59,"time":1269.723238000007,"velocity":0.8818897637795275,"duration":0.08217599166664513},{"name":"C#3","midi":49,"time":1269.806571400007,"velocity":0.8818897637795275,"duration":0.1817131083332697},{"name":"C#4","midi":61,"time":1269.806571400007,"velocity":0.8818897637795275,"duration":0.1817131083332697},{"name":"B2","midi":47,"time":1270.001016000007,"velocity":0.8818897637795275,"duration":0.26273169166665866},{"name":"B3","midi":59,"time":1270.001016000007,"velocity":0.8818897637795275,"duration":0.26273169166665866},{"name":"A2","midi":45,"time":1270.2787940000069,"velocity":0.8818897637795275,"duration":0.26273169166665866},{"name":"A3","midi":57,"time":1270.2787940000069,"velocity":0.8818897637795275,"duration":0.26273169166665866},{"name":"G#2","midi":44,"time":1270.5565720000068,"velocity":0.8818897637795275,"duration":0.26273169166665866},{"name":"G#3","midi":56,"time":1270.5565720000068,"velocity":0.8818897637795275,"duration":0.26273169166665866},{"name":"F#2","midi":42,"time":1270.8343500000067,"velocity":0.8818897637795275,"duration":0.5266207916665735},{"name":"F#3","midi":54,"time":1270.8343500000067,"velocity":0.8818897637795275,"duration":0.5266207916665735},{"name":"F#2","midi":42,"time":1271.3899060000065,"velocity":0.8818897637795275,"duration":0.5266207916665735},{"name":"C#3","midi":49,"time":1271.3899060000065,"velocity":0.8818897637795275,"duration":0.5266207916665735},{"name":"F#3","midi":54,"time":1271.3899060000065,"velocity":0.8818897637795275,"duration":0.5266207916665735},{"name":"F#2","midi":42,"time":1271.9454620000063,"velocity":0.8818897637795275,"duration":0.5266207916665735},{"name":"F#3","midi":54,"time":1271.9454620000063,"velocity":0.8818897637795275,"duration":0.5266207916665735},{"name":"F#2","midi":42,"time":1272.501018000006,"velocity":0.8818897637795275,"duration":0.5266207916665735},{"name":"C#3","midi":49,"time":1272.501018000006,"velocity":0.8818897637795275,"duration":0.5266207916665735},{"name":"F#3","midi":54,"time":1272.501018000006,"velocity":0.8818897637795275,"duration":0.5266207916665735},{"name":"D2","midi":38,"time":1273.0565740000059,"velocity":0.8818897637795275,"duration":0.5266207916665735},{"name":"D3","midi":50,"time":1273.0565740000059,"velocity":0.8818897637795275,"duration":0.5266207916665735},{"name":"D2","midi":38,"time":1273.6121300000057,"velocity":0.8818897637795275,"duration":0.5266207916665735},{"name":"A2","midi":45,"time":1273.6121300000057,"velocity":0.8818897637795275,"duration":0.5266207916665735},{"name":"D3","midi":50,"time":1273.6121300000057,"velocity":0.8818897637795275,"duration":0.5266207916665735},{"name":"D2","midi":38,"time":1274.1676860000055,"velocity":0.8818897637795275,"duration":0.5266207916665735},{"name":"D3","midi":50,"time":1274.1676860000055,"velocity":0.8818897637795275,"duration":0.5266207916665735},{"name":"D2","midi":38,"time":1274.7232420000053,"velocity":0.8818897637795275,"duration":0.5266207916665735},{"name":"A2","midi":45,"time":1274.7232420000053,"velocity":0.8818897637795275,"duration":0.5266207916665735},{"name":"D3","midi":50,"time":1274.7232420000053,"velocity":0.8818897637795275,"duration":0.5266207916665735},{"name":"E2","midi":40,"time":1275.278798000005,"velocity":0.8818897637795275,"duration":0.5266207916665735},{"name":"E3","midi":52,"time":1275.278798000005,"velocity":0.8818897637795275,"duration":0.5266207916665735},{"name":"E2","midi":40,"time":1275.8343540000049,"velocity":0.8818897637795275,"duration":0.5266207916665735},{"name":"B2","midi":47,"time":1275.8343540000049,"velocity":0.8818897637795275,"duration":0.5266207916665735},{"name":"E3","midi":52,"time":1275.8343540000049,"velocity":0.8818897637795275,"duration":0.5266207916665735},{"name":"E2","midi":40,"time":1276.3899100000046,"velocity":0.8818897637795275,"duration":0.5266207916665735},{"name":"E3","midi":52,"time":1276.3899100000046,"velocity":0.8818897637795275,"duration":0.5266207916665735},{"name":"E2","midi":40,"time":1276.9454660000044,"velocity":0.8818897637795275,"duration":0.5266207916665735},{"name":"B2","midi":47,"time":1276.9454660000044,"velocity":0.8818897637795275,"duration":0.5266207916665735},{"name":"E3","midi":52,"time":1276.9454660000044,"velocity":0.8818897637795275,"duration":0.5266207916665735},{"name":"E2","midi":40,"time":1277.5010220000042,"velocity":0.8818897637795275,"duration":0.5266207916665735},{"name":"E3","midi":52,"time":1277.5010220000042,"velocity":0.8818897637795275,"duration":0.5266207916665735},{"name":"E2","midi":40,"time":1278.056578000004,"velocity":0.8818897637795275,"duration":0.5266207916665735},{"name":"B2","midi":47,"time":1278.056578000004,"velocity":0.8818897637795275,"duration":0.5266207916665735},{"name":"E3","midi":52,"time":1278.056578000004,"velocity":0.8818897637795275,"duration":0.5266207916665735},{"name":"E2","midi":40,"time":1278.6121340000038,"velocity":0.8818897637795275,"duration":0.5266207916665735},{"name":"E3","midi":52,"time":1278.6121340000038,"velocity":0.8818897637795275,"duration":0.5266207916665735},{"name":"E2","midi":40,"time":1279.1676900000036,"velocity":0.8818897637795275,"duration":0.5266207916665735},{"name":"B2","midi":47,"time":1279.1676900000036,"velocity":0.8818897637795275,"duration":0.5266207916665735},{"name":"E3","midi":52,"time":1279.1676900000036,"velocity":0.8818897637795275,"duration":0.5266207916665735},{"name":"F#2","midi":42,"time":1279.7232460000034,"velocity":0.8818897637795275,"duration":0.5266207916665735},{"name":"F#3","midi":54,"time":1279.7232460000034,"velocity":0.8818897637795275,"duration":0.5266207916665735},{"name":"F#2","midi":42,"time":1280.2788020000032,"velocity":0.8818897637795275,"duration":0.5266207916665735},{"name":"C#3","midi":49,"time":1280.2788020000032,"velocity":0.8818897637795275,"duration":0.5266207916665735},{"name":"F#3","midi":54,"time":1280.2788020000032,"velocity":0.8818897637795275,"duration":0.5266207916665735},{"name":"F#2","midi":42,"time":1280.834358000003,"velocity":0.8818897637795275,"duration":0.5266207916665735},{"name":"F#3","midi":54,"time":1280.834358000003,"velocity":0.8818897637795275,"duration":0.5266207916665735},{"name":"F#2","midi":42,"time":1281.3899140000028,"velocity":0.8818897637795275,"duration":0.5266207916665735},{"name":"C#3","midi":49,"time":1281.3899140000028,"velocity":0.8818897637795275,"duration":0.5266207916665735},{"name":"F#3","midi":54,"time":1281.3899140000028,"velocity":0.8818897637795275,"duration":0.5266207916665735},{"name":"E2","midi":40,"time":1281.9454700000026,"velocity":0.8818897637795275,"duration":0.5266207916665735},{"name":"E3","midi":52,"time":1281.9454700000026,"velocity":0.8818897637795275,"duration":0.5266207916665735},{"name":"E2","midi":40,"time":1282.5010260000024,"velocity":0.8818897637795275,"duration":0.5266207916665735},{"name":"B2","midi":47,"time":1282.5010260000024,"velocity":0.8818897637795275,"duration":0.5266207916665735},{"name":"E3","midi":52,"time":1282.5010260000024,"velocity":0.8818897637795275,"duration":0.5266207916665735},{"name":"E2","midi":40,"time":1283.0565820000022,"velocity":0.8818897637795275,"duration":0.5266207916665735},{"name":"E3","midi":52,"time":1283.0565820000022,"velocity":0.8818897637795275,"duration":0.5266207916665735},{"name":"E2","midi":40,"time":1283.612138000002,"velocity":0.8818897637795275,"duration":0.5266207916665735},{"name":"B2","midi":47,"time":1283.612138000002,"velocity":0.8818897637795275,"duration":0.5266207916665735},{"name":"E3","midi":52,"time":1283.612138000002,"velocity":0.8818897637795275,"duration":0.5266207916665735},{"name":"C#2","midi":37,"time":1284.1676940000018,"velocity":0.8818897637795275,"duration":0.5266207916665735},{"name":"C#3","midi":49,"time":1284.1676940000018,"velocity":0.8818897637795275,"duration":0.5266207916665735},{"name":"C#2","midi":37,"time":1284.7232500000016,"velocity":0.8818897637795275,"duration":0.5266207916665735},{"name":"G#2","midi":44,"time":1284.7232500000016,"velocity":0.8818897637795275,"duration":0.5266207916665735},{"name":"C#3","midi":49,"time":1284.7232500000016,"velocity":0.8818897637795275,"duration":0.5266207916665735},{"name":"C#2","midi":37,"time":1285.2788060000014,"velocity":0.8818897637795275,"duration":0.5266207916665735},{"name":"C#3","midi":49,"time":1285.2788060000014,"velocity":0.8818897637795275,"duration":0.5266207916665735},{"name":"C#2","midi":37,"time":1285.8343620000012,"velocity":0.8818897637795275,"duration":0.5266207916665735},{"name":"G#2","midi":44,"time":1285.8343620000012,"velocity":0.8818897637795275,"duration":0.5266207916665735},{"name":"C#3","midi":49,"time":1285.8343620000012,"velocity":0.8818897637795275,"duration":0.5266207916665735},{"name":"F#2","midi":42,"time":1286.389918000001,"velocity":0.8818897637795275,"duration":0.5266207916665735},{"name":"F#3","midi":54,"time":1286.389918000001,"velocity":0.8818897637795275,"duration":0.5266207916665735},{"name":"F#2","midi":42,"time":1286.9454740000008,"velocity":0.8818897637795275,"duration":0.5266207916665735},{"name":"C#3","midi":49,"time":1286.9454740000008,"velocity":0.8818897637795275,"duration":0.5266207916665735},{"name":"F#3","midi":54,"time":1286.9454740000008,"velocity":0.8818897637795275,"duration":0.5266207916665735},{"name":"F#2","midi":42,"time":1287.5010300000006,"velocity":0.8818897637795275,"duration":0.5266207916665735},{"name":"F#3","midi":54,"time":1287.5010300000006,"velocity":0.8818897637795275,"duration":0.5266207916665735},{"name":"F#2","midi":42,"time":1288.0565860000004,"velocity":0.8818897637795275,"duration":0.5266207916665735},{"name":"C#3","midi":49,"time":1288.0565860000004,"velocity":0.8818897637795275,"duration":0.5266207916665735},{"name":"F#3","midi":54,"time":1288.0565860000004,"velocity":0.8818897637795275,"duration":0.5266207916665735},{"name":"F#2","midi":42,"time":1288.6121420000002,"velocity":0.8818897637795275,"duration":2.1099553916665172},{"name":"C#3","midi":49,"time":1288.6121420000002,"velocity":0.8818897637795275,"duration":2.1099553916665172},{"name":"F#3","midi":54,"time":1288.6121420000002,"velocity":0.8818897637795275,"duration":2.1099553916665172},{"name":"C#4","midi":61,"time":1288.6121420000002,"velocity":0.8818897637795275,"duration":2.1099553916665172},{"name":"E2","midi":40,"time":1290.834366,"velocity":0.8818897637795275,"duration":2.1099553916665172},{"name":"B2","midi":47,"time":1290.834366,"velocity":0.8818897637795275,"duration":2.1099553916665172},{"name":"E3","midi":52,"time":1290.834366,"velocity":0.8818897637795275,"duration":2.1099553916665172},{"name":"B3","midi":59,"time":1290.834366,"velocity":0.8818897637795275,"duration":2.1099553916665172},{"name":"D2","midi":38,"time":1293.05659,"velocity":0.8818897637795275,"duration":2.1099553916665172},{"name":"A2","midi":45,"time":1293.05659,"velocity":0.8818897637795275,"duration":2.1099553916665172},{"name":"F#3","midi":54,"time":1293.05659,"velocity":0.8818897637795275,"duration":2.1099553916665172},{"name":"C#4","midi":61,"time":1293.05659,"velocity":0.8818897637795275,"duration":2.1099553916665172},{"name":"C#2","midi":37,"time":1295.2788139999998,"velocity":0.8818897637795275,"duration":2.1099553916665172},{"name":"G#2","midi":44,"time":1295.2788139999998,"velocity":0.8818897637795275,"duration":2.1099553916665172},{"name":"G#3","midi":56,"time":1295.2788139999998,"velocity":0.8818897637795275,"duration":2.1099553916665172},{"name":"F#2","midi":42,"time":1297.5010379999997,"velocity":0.8818897637795275,"duration":2.1099553916665172},{"name":"C#3","midi":49,"time":1297.5010379999997,"velocity":0.8818897637795275,"duration":2.1099553916665172},{"name":"F#3","midi":54,"time":1297.5010379999997,"velocity":0.8818897637795275,"duration":2.1099553916665172},{"name":"C#4","midi":61,"time":1297.5010379999997,"velocity":0.8818897637795275,"duration":2.1099553916665172},{"name":"E2","midi":40,"time":1299.7232619999995,"velocity":0.8818897637795275,"duration":2.1099553916665172},{"name":"B2","midi":47,"time":1299.7232619999995,"velocity":0.8818897637795275,"duration":2.1099553916665172},{"name":"E3","midi":52,"time":1299.7232619999995,"velocity":0.8818897637795275,"duration":2.1099553916665172},{"name":"B3","midi":59,"time":1299.7232619999995,"velocity":0.8818897637795275,"duration":2.1099553916665172},{"name":"C#2","midi":37,"time":1301.9454859999994,"velocity":0.8818897637795275,"duration":2.1099553916665172},{"name":"G#2","midi":44,"time":1301.9454859999994,"velocity":0.8818897637795275,"duration":2.1099553916665172},{"name":"C#3","midi":49,"time":1301.9454859999994,"velocity":0.8818897637795275,"duration":2.1099553916665172},{"name":"F#2","midi":42,"time":1304.1677099999993,"velocity":0.8818897637795275,"duration":2.1099553916665172},{"name":"C#3","midi":49,"time":1304.1677099999993,"velocity":0.8818897637795275,"duration":2.1099553916665172},{"name":"F#3","midi":54,"time":1304.1677099999993,"velocity":0.8818897637795275,"duration":2.1099553916665172},{"name":"C#4","midi":61,"time":1304.1677099999993,"velocity":0.8818897637795275,"duration":2.1099553916665172},{"name":"F#3","midi":54,"time":1306.3899339999991,"velocity":0.8818897637795275,"duration":6.332180991666519}],"controlChanges":{"64":[{"number":64,"time":0.0023148166666666667,"value":1},{"number":64,"time":2.2233814083333336,"value":0},{"number":64,"time":2.224538816666667,"value":1},{"number":64,"time":4.445605408333334,"value":0},{"number":64,"time":4.446762816666667,"value":1},{"number":64,"time":6.6678294083333345,"value":0},{"number":64,"time":6.668986816666668,"value":1},{"number":64,"time":8.890053408333333,"value":0},{"number":64,"time":8.891210816666666,"value":1},{"number":64,"time":11.112277408333332,"value":0},{"number":64,"time":11.113434816666665,"value":1},{"number":64,"time":13.334501408333333,"value":0},{"number":64,"time":13.335658816666665,"value":1},{"number":64,"time":15.55672540833333,"value":0},{"number":64,"time":20.002330816666664,"value":1},{"number":64,"time":22.223397408333316,"value":0},{"number":64,"time":22.22455481666665,"value":1},{"number":64,"time":23.33450940833331,"value":0},{"number":64,"time":24.446778816666644,"value":1},{"number":64,"time":26.667845408333296,"value":0},{"number":64,"time":26.66900281666663,"value":1},{"number":64,"time":28.890069408333282,"value":0},{"number":64,"time":28.891226816666617,"value":1},{"number":64,"time":31.11229340833327,"value":0},{"number":64,"time":31.113450816666603,"value":1},{"number":64,"time":33.334517408333255,"value":0},{"number":64,"time":33.33567481666659,"value":1},{"number":64,"time":35.55674140833324,"value":0},{"number":64,"time":35.55789881666657,"value":1},{"number":64,"time":37.77896540833322,"value":0},{"number":64,"time":37.780122816666555,"value":1},{"number":64,"time":40.001189408333204,"value":0},{"number":64,"time":40.00234681666654,"value":1},{"number":64,"time":42.22341340833319,"value":0},{"number":64,"time":42.22457081666652,"value":1},{"number":64,"time":44.44563740833317,"value":0},{"number":64,"time":44.446794816666504,"value":1},{"number":64,"time":46.66786140833315,"value":0},{"number":64,"time":46.66901881666649,"value":1},{"number":64,"time":48.890085408333135,"value":0},{"number":64,"time":48.89124281666647,"value":1},{"number":64,"time":51.11230940833312,"value":0},{"number":64,"time":51.11346681666645,"value":1},{"number":64,"time":53.3345334083331,"value":0},{"number":64,"time":53.335690816666435,"value":1},{"number":64,"time":55.556757408333084,"value":0},{"number":64,"time":55.55791481666642,"value":1},{"number":64,"time":57.77898140833307,"value":0},{"number":64,"time":57.7801388166664,"value":1},{"number":64,"time":60.00120540833305,"value":0},{"number":64,"time":60.002362816666384,"value":1},{"number":64,"time":62.22342940833303,"value":0},{"number":64,"time":62.22458681666637,"value":1},{"number":64,"time":64.44565340833303,"value":0},{"number":64,"time":64.44681081666636,"value":1},{"number":64,"time":66.66787740833311,"value":0},{"number":64,"time":66.66903481666644,"value":1},{"number":64,"time":68.8901014083332,"value":0},{"number":64,"time":68.89125881666652,"value":1},{"number":64,"time":71.11232540833328,"value":0},{"number":64,"time":71.1134828166666,"value":1},{"number":64,"time":73.33454940833336,"value":0},{"number":64,"time":73.33570681666669,"value":1},{"number":64,"time":75.55677340833344,"value":0},{"number":64,"time":75.55793081666677,"value":1},{"number":64,"time":77.77899740833352,"value":0},{"number":64,"time":77.78015481666685,"value":1},{"number":64,"time":80.0012214083336,"value":0},{"number":64,"time":80.00237881666693,"value":1},{"number":64,"time":82.22344540833369,"value":0},{"number":64,"time":82.22460281666702,"value":1},{"number":64,"time":84.44566940833377,"value":0},{"number":64,"time":84.4468268166671,"value":1},{"number":64,"time":86.66789340833385,"value":0},{"number":64,"time":86.66905081666718,"value":1},{"number":64,"time":88.89011740833394,"value":0},{"number":64,"time":88.89127481666726,"value":1},{"number":64,"time":91.11234140833402,"value":0},{"number":64,"time":91.11349881666735,"value":1},{"number":64,"time":93.3345654083341,"value":0},{"number":64,"time":93.33572281666743,"value":1},{"number":64,"time":95.5567894083341,"value":0},{"number":64,"time":95.55794681666742,"value":1},{"number":64,"time":97.77901340833412,"value":0},{"number":64,"time":97.78017081666745,"value":1},{"number":64,"time":100.00123740833415,"value":0},{"number":64,"time":100.00239481666748,"value":1},{"number":64,"time":102.22346140833417,"value":0},{"number":64,"time":102.2246188166675,"value":1},{"number":64,"time":104.4456854083342,"value":0},{"number":64,"time":104.44684281666753,"value":1},{"number":64,"time":106.66790940833422,"value":0},{"number":64,"time":106.66906681666755,"value":1},{"number":64,"time":108.89013340833425,"value":0},{"number":64,"time":108.89129081666758,"value":1},{"number":64,"time":111.11235740833428,"value":0},{"number":64,"time":111.1135148166676,"value":1},{"number":64,"time":113.3345814083343,"value":0},{"number":64,"time":113.33573881666763,"value":1},{"number":64,"time":115.55680540833434,"value":0},{"number":64,"time":115.55796281666767,"value":1},{"number":64,"time":117.77902940833438,"value":0},{"number":64,"time":117.78018681666771,"value":1},{"number":64,"time":120.00125340833442,"value":0},{"number":64,"time":120.00241081666775,"value":1},{"number":64,"time":122.22347740833446,"value":0},{"number":64,"time":122.22463481666779,"value":1},{"number":64,"time":124.4457014083345,"value":0},{"number":64,"time":124.44685881666783,"value":1},{"number":64,"time":126.66792540833454,"value":0},{"number":64,"time":126.66908281666787,"value":1},{"number":64,"time":128.89014940833454,"value":0},{"number":64,"time":128.89130681666788,"value":1},{"number":64,"time":131.11237340833458,"value":0},{"number":64,"time":131.11353081666792,"value":1},{"number":64,"time":133.3345974083346,"value":0},{"number":64,"time":133.33575481666793,"value":1},{"number":64,"time":135.55682140833457,"value":0},{"number":64,"time":135.5579788166679,"value":1},{"number":64,"time":137.77904540833458,"value":0},{"number":64,"time":137.78020281666792,"value":1},{"number":64,"time":140.00126940833457,"value":0},{"number":64,"time":140.0024268166679,"value":1},{"number":64,"time":142.22349340833455,"value":0},{"number":64,"time":142.2246508166679,"value":1},{"number":64,"time":144.44571740833456,"value":0},{"number":64,"time":144.4468748166679,"value":1},{"number":64,"time":146.66794140833466,"value":0},{"number":64,"time":146.669098816668,"value":1},{"number":64,"time":148.89016540833475,"value":0},{"number":64,"time":148.8913228166681,"value":1},{"number":64,"time":151.11238940833485,"value":0},{"number":64,"time":151.1135468166682,"value":1},{"number":64,"time":153.33461340833495,"value":0},{"number":64,"time":153.3357708166683,"value":1},{"number":64,"time":155.55683740833504,"value":0},{"number":64,"time":155.55799481666838,"value":1},{"number":64,"time":157.77906140833514,"value":0},{"number":64,"time":157.78021881666848,"value":1},{"number":64,"time":160.00128540833524,"value":0},{"number":64,"time":160.00244281666858,"value":1},{"number":64,"time":162.22350940833533,"value":0},{"number":64,"time":162.22466681666867,"value":1},{"number":64,"time":164.44573340833543,"value":0},{"number":64,"time":164.44689081666877,"value":1},{"number":64,"time":166.66795740833552,"value":0},{"number":64,"time":166.66911481666887,"value":1},{"number":64,"time":168.89018140833562,"value":0},{"number":64,"time":168.89133881666896,"value":1},{"number":64,"time":171.11240540833572,"value":0},{"number":64,"time":171.11356281666906,"value":1},{"number":64,"time":173.33462940833581,"value":0},{"number":64,"time":173.33578681666916,"value":1},{"number":64,"time":175.5568534083359,"value":0},{"number":64,"time":175.55801081666925,"value":1},{"number":64,"time":177.779077408336,"value":0},{"number":64,"time":177.78023481666935,"value":1},{"number":64,"time":180.0013014083361,"value":0},{"number":64,"time":180.00245881666945,"value":1},{"number":64,"time":182.22352540833612,"value":0},{"number":64,"time":182.22468281666946,"value":1},{"number":64,"time":184.44574940833613,"value":0},{"number":64,"time":184.44690681666947,"value":1},{"number":64,"time":189.44575340833626,"value":0},{"number":64,"time":189.4469108166696,"value":1},{"number":64,"time":191.11242140833627,"value":0},{"number":64,"time":191.11357881666962,"value":1},{"number":64,"time":192.7790894083363,"value":0},{"number":64,"time":192.7790894083363,"value":0},{"number":64,"time":192.78024681666963,"value":1},{"number":64,"time":194.4457574083363,"value":0},{"number":64,"time":194.44691481666965,"value":1},{"number":64,"time":196.11242540833632,"value":0},{"number":64,"time":196.11358281666966,"value":1},{"number":64,"time":197.77909340833634,"value":0},{"number":64,"time":197.78025081666968,"value":1},{"number":64,"time":199.44576140833635,"value":0},{"number":64,"time":199.44576140833635,"value":0},{"number":64,"time":199.4469188166697,"value":1},{"number":64,"time":201.11242940833637,"value":0},{"number":64,"time":201.1135868166697,"value":1},{"number":64,"time":202.77909740833638,"value":0},{"number":64,"time":202.78025481666972,"value":1},{"number":64,"time":204.4457654083364,"value":0},{"number":64,"time":204.44692281666974,"value":1},{"number":64,"time":206.11243340833641,"value":0},{"number":64,"time":206.11243340833641,"value":0},{"number":64,"time":206.11359081666976,"value":1},{"number":64,"time":207.77910140833643,"value":0},{"number":64,"time":207.78025881666977,"value":1},{"number":64,"time":209.44576940833645,"value":0},{"number":64,"time":209.4469268166698,"value":1},{"number":64,"time":211.11243740833646,"value":0},{"number":64,"time":211.1135948166698,"value":1},{"number":64,"time":212.77910540833648,"value":0},{"number":64,"time":212.77910540833648,"value":0},{"number":64,"time":212.78026281666982,"value":1},{"number":64,"time":214.4457734083365,"value":0},{"number":64,"time":214.44693081666983,"value":1},{"number":64,"time":216.1124414083365,"value":0},{"number":64,"time":216.11359881666985,"value":1},{"number":64,"time":217.77910940833652,"value":0},{"number":64,"time":217.78026681666987,"value":1},{"number":64,"time":219.44577740833654,"value":0},{"number":64,"time":219.44693481666988,"value":1},{"number":64,"time":221.11244540833655,"value":0},{"number":64,"time":221.1136028166699,"value":1},{"number":64,"time":222.77911340833657,"value":0},{"number":64,"time":222.7802708166699,"value":1},{"number":64,"time":224.4457814083366,"value":0},{"number":64,"time":224.44693881666993,"value":1},{"number":64,"time":226.1124494083366,"value":0},{"number":64,"time":226.11360681666994,"value":1},{"number":64,"time":227.77911740833662,"value":0},{"number":64,"time":227.78027481666996,"value":1},{"number":64,"time":229.44578540833663,"value":0},{"number":64,"time":229.44694281666997,"value":1},{"number":64,"time":231.11245340833665,"value":0},{"number":64,"time":231.11361081667,"value":1},{"number":64,"time":232.77912140833666,"value":0},{"number":64,"time":232.77912140833666,"value":0},{"number":64,"time":232.78027881667,"value":1},{"number":64,"time":232.78027881667,"value":1},{"number":64,"time":234.44578940833668,"value":0},{"number":64,"time":234.44694681667002,"value":1},{"number":64,"time":236.1124574083367,"value":0},{"number":64,"time":236.11361481667004,"value":1},{"number":64,"time":237.7791254083367,"value":0},{"number":64,"time":237.78028281667005,"value":1},{"number":64,"time":239.44579340833673,"value":0},{"number":64,"time":239.44695081667007,"value":1},{"number":64,"time":241.11246140833674,"value":0},{"number":64,"time":241.11361881667008,"value":1},{"number":64,"time":242.77912940833676,"value":0},{"number":64,"time":242.7802868166701,"value":1},{"number":64,"time":244.44579740833677,"value":0},{"number":64,"time":244.44695481667011,"value":1},{"number":64,"time":246.1124654083368,"value":0},{"number":64,"time":246.11362281667013,"value":1},{"number":64,"time":247.7791334083368,"value":0},{"number":64,"time":247.78029081667015,"value":1},{"number":64,"time":249.44580140833682,"value":0},{"number":64,"time":249.44695881667016,"value":1},{"number":64,"time":251.11246940833684,"value":0},{"number":64,"time":251.11362681667018,"value":1},{"number":64,"time":252.77913740833685,"value":0},{"number":64,"time":252.7802948166702,"value":1},{"number":64,"time":254.44580540833687,"value":0},{"number":64,"time":254.4469628166702,"value":1},{"number":64,"time":256.1124734083369,"value":0},{"number":64,"time":256.1136308166702,"value":1},{"number":64,"time":257.7791414083369,"value":0},{"number":64,"time":257.7802988166702,"value":1},{"number":64,"time":259.4458094083369,"value":0},{"number":64,"time":259.4469668166702,"value":1},{"number":64,"time":261.11247740833693,"value":0},{"number":64,"time":261.11363481667024,"value":1},{"number":64,"time":262.77914540833694,"value":0},{"number":64,"time":262.78030281667026,"value":1},{"number":64,"time":264.44581340833696,"value":0},{"number":64,"time":264.4469708166703,"value":1},{"number":64,"time":266.112481408337,"value":0},{"number":64,"time":266.1136388166703,"value":1},{"number":64,"time":269.44581740833706,"value":0},{"number":64,"time":306.1136708166717,"value":1},{"number":64,"time":307.2236254083384,"value":0},{"number":64,"time":307.22478281667173,"value":1},{"number":64,"time":308.33473740833847,"value":0},{"number":64,"time":315.002566816672,"value":1},{"number":64,"time":316.11252140833875,"value":0},{"number":64,"time":316.11367881667206,"value":1},{"number":64,"time":317.2236334083388,"value":0},{"number":64,"time":323.89146281667234,"value":1},{"number":64,"time":325.001417408339,"value":0},{"number":64,"time":326.1136868166724,"value":1},{"number":64,"time":327.22364140833906,"value":0},{"number":64,"time":328.3359108166724,"value":1},{"number":64,"time":329.4458654083391,"value":0},{"number":64,"time":330.55813481667246,"value":1},{"number":64,"time":331.66808940833914,"value":0},{"number":64,"time":349.16926081667253,"value":1},{"number":64,"time":350.55699340833894,"value":0},{"number":64,"time":365.2803848166728,"value":1},{"number":64,"time":366.1125614083395,"value":0},{"number":64,"time":377.22483881667335,"value":1},{"number":64,"time":379.44590540834014,"value":0},{"number":64,"time":379.44706281667345,"value":1},{"number":64,"time":381.66812940834023,"value":0},{"number":64,"time":381.66928681667355,"value":1},{"number":64,"time":383.89035340834033,"value":0},{"number":64,"time":383.89151081667364,"value":1},{"number":64,"time":386.1125774083404,"value":0},{"number":64,"time":386.11373481667374,"value":1},{"number":64,"time":388.3348014083405,"value":0},{"number":64,"time":388.33595881667384,"value":1},{"number":64,"time":390.5570254083406,"value":0},{"number":64,"time":390.55818281667393,"value":1},{"number":64,"time":392.7792494083407,"value":0},{"number":64,"time":392.78040681667403,"value":1},{"number":64,"time":395.0014734083408,"value":0},{"number":64,"time":395.0026308166741,"value":1},{"number":64,"time":397.2236974083409,"value":0},{"number":64,"time":397.2248548166742,"value":1},{"number":64,"time":399.445921408341,"value":0},{"number":64,"time":403.89152681667446,"value":1},{"number":64,"time":405.00148140834114,"value":0},{"number":64,"time":406.1137508166745,"value":1},{"number":64,"time":407.2237054083412,"value":0},{"number":64,"time":412.7804228166747,"value":1},{"number":64,"time":415.00148940834146,"value":0},{"number":64,"time":415.00264681667477,"value":1},{"number":64,"time":417.22371340834155,"value":0},{"number":64,"time":417.22487081667487,"value":1},{"number":64,"time":419.44593740834165,"value":0},{"number":64,"time":419.44709481667496,"value":1},{"number":64,"time":421.66816140834175,"value":0},{"number":64,"time":421.66931881667506,"value":1},{"number":64,"time":423.89038540834184,"value":0},{"number":64,"time":423.89154281667516,"value":1},{"number":64,"time":426.11260940834194,"value":0},{"number":64,"time":426.11376681667525,"value":1},{"number":64,"time":428.33483340834204,"value":0},{"number":64,"time":428.33599081667535,"value":1},{"number":64,"time":430.5570574083421,"value":0},{"number":64,"time":430.5582148166754,"value":1},{"number":64,"time":432.7792814083421,"value":0},{"number":64,"time":432.7804388166754,"value":1},{"number":64,"time":435.00150540834215,"value":0},{"number":64,"time":435.00266281667547,"value":1},{"number":64,"time":437.2237294083422,"value":0},{"number":64,"time":437.2248868166755,"value":1},{"number":64,"time":439.44595340834223,"value":0},{"number":64,"time":439.44711081667555,"value":1},{"number":64,"time":441.6681774083423,"value":0},{"number":64,"time":441.6693348166756,"value":1},{"number":64,"time":443.8904014083423,"value":0},{"number":64,"time":443.8915588166756,"value":1},{"number":64,"time":446.11262540834235,"value":0},{"number":64,"time":446.11378281667567,"value":1},{"number":64,"time":448.3348494083424,"value":0},{"number":64,"time":448.3360068166757,"value":1},{"number":64,"time":450.5570734083425,"value":0},{"number":64,"time":450.5582308166758,"value":1},{"number":64,"time":452.7792974083426,"value":0},{"number":64,"time":452.7792974083426,"value":0},{"number":64,"time":452.7804548166759,"value":1},{"number":64,"time":455.0015214083427,"value":0},{"number":64,"time":455.0015214083427,"value":0},{"number":64,"time":455.002678816676,"value":1},{"number":64,"time":457.2237454083428,"value":0},{"number":64,"time":457.2249028166761,"value":1},{"number":64,"time":459.4459694083429,"value":0},{"number":64,"time":459.4471268166762,"value":1},{"number":64,"time":461.668193408343,"value":0},{"number":64,"time":461.6693508166763,"value":1},{"number":64,"time":463.89041740834307,"value":0},{"number":64,"time":463.8915748166764,"value":1},{"number":64,"time":466.11264140834317,"value":0},{"number":64,"time":470.55708940834336,"value":0},{"number":64,"time":509.44716681667654,"value":1},{"number":64,"time":511.6682334083432,"value":0},{"number":64,"time":511.6693908166765,"value":1},{"number":64,"time":513.8904574083432,"value":0},{"number":64,"time":513.8916148166766,"value":1},{"number":64,"time":516.1126814083433,"value":0},{"number":64,"time":516.1138388166767,"value":1},{"number":64,"time":518.3349054083434,"value":0},{"number":64,"time":518.3360628166768,"value":1},{"number":64,"time":520.5571294083434,"value":0},{"number":64,"time":520.5582868166767,"value":1},{"number":64,"time":522.7793534083434,"value":0},{"number":64,"time":522.7805108166767,"value":1},{"number":64,"time":525.0015774083433,"value":0},{"number":64,"time":525.0027348166767,"value":1},{"number":64,"time":527.2238014083433,"value":0},{"number":64,"time":528.3360708166764,"value":1},{"number":64,"time":530.5571374083432,"value":0},{"number":64,"time":530.5582948166766,"value":1},{"number":64,"time":532.7793614083434,"value":0},{"number":64,"time":532.7805188166768,"value":1},{"number":64,"time":535.0015854083437,"value":0},{"number":64,"time":535.002742816677,"value":1},{"number":64,"time":537.2238094083439,"value":0},{"number":64,"time":537.2249668166772,"value":1},{"number":64,"time":539.4460334083441,"value":0},{"number":64,"time":539.4471908166774,"value":1},{"number":64,"time":541.6682574083443,"value":0},{"number":64,"time":541.6682574083443,"value":0},{"number":64,"time":541.6694148166777,"value":1},{"number":64,"time":543.8904814083445,"value":0},{"number":64,"time":543.8904814083445,"value":0},{"number":64,"time":543.8916388166779,"value":1},{"number":64,"time":546.1127054083447,"value":0},{"number":64,"time":546.1138628166781,"value":1},{"number":64,"time":548.3349294083449,"value":0},{"number":64,"time":548.3360868166783,"value":1},{"number":64,"time":550.5571534083451,"value":0},{"number":64,"time":550.5571534083451,"value":0},{"number":64,"time":550.5583108166785,"value":1},{"number":64,"time":552.7793774083453,"value":0},{"number":64,"time":552.7805348166787,"value":1},{"number":64,"time":555.0016014083456,"value":0},{"number":64,"time":555.0027588166789,"value":1},{"number":64,"time":557.2238254083458,"value":0},{"number":64,"time":557.2249828166791,"value":1},{"number":64,"time":559.446049408346,"value":0},{"number":64,"time":559.446049408346,"value":0},{"number":64,"time":559.4472068166793,"value":1},{"number":64,"time":561.6682734083462,"value":0},{"number":64,"time":561.6694308166796,"value":1},{"number":64,"time":563.8904974083464,"value":0},{"number":64,"time":563.8916548166798,"value":1},{"number":64,"time":566.1127214083466,"value":0},{"number":64,"time":566.11387881668,"value":1},{"number":64,"time":568.3349454083468,"value":0},{"number":64,"time":568.3361028166802,"value":1},{"number":64,"time":570.557169408347,"value":0},{"number":64,"time":570.5583268166804,"value":1},{"number":64,"time":572.7793934083472,"value":0},{"number":64,"time":572.7805508166806,"value":1},{"number":64,"time":575.0016174083474,"value":0},{"number":64,"time":575.0027748166808,"value":1},{"number":64,"time":577.2238414083477,"value":0},{"number":64,"time":577.224998816681,"value":1},{"number":64,"time":579.4460654083479,"value":0},{"number":64,"time":579.4472228166812,"value":1},{"number":64,"time":581.6682894083481,"value":0},{"number":64,"time":581.6694468166814,"value":1},{"number":64,"time":583.8905134083483,"value":0},{"number":64,"time":583.8916708166817,"value":1},{"number":64,"time":586.1127374083485,"value":0},{"number":64,"time":586.1138948166819,"value":1},{"number":64,"time":588.3349614083487,"value":0},{"number":64,"time":588.3361188166821,"value":1},{"number":64,"time":590.5571854083489,"value":0},{"number":64,"time":590.5583428166823,"value":1},{"number":64,"time":592.7794094083491,"value":0},{"number":64,"time":592.7805668166825,"value":1},{"number":64,"time":595.0016334083493,"value":0},{"number":64,"time":595.0027908166827,"value":1},{"number":64,"time":597.2238574083495,"value":0},{"number":64,"time":597.2250148166829,"value":1},{"number":64,"time":599.4460814083498,"value":0},{"number":64,"time":599.4472388166831,"value":1},{"number":64,"time":601.66830540835,"value":0},{"number":64,"time":601.6694628166833,"value":1},{"number":64,"time":603.8905294083502,"value":0},{"number":64,"time":603.8916868166835,"value":1},{"number":64,"time":606.1127534083504,"value":0},{"number":64,"time":606.1139108166838,"value":1},{"number":64,"time":608.3349774083506,"value":0},{"number":64,"time":608.336134816684,"value":1},{"number":64,"time":610.5572014083508,"value":0},{"number":64,"time":610.5583588166842,"value":1},{"number":64,"time":612.779425408351,"value":0},{"number":64,"time":612.7805828166844,"value":1},{"number":64,"time":615.0016494083512,"value":0},{"number":64,"time":615.0028068166846,"value":1},{"number":64,"time":617.2238734083514,"value":0},{"number":64,"time":617.2250308166848,"value":1},{"number":64,"time":619.4460974083516,"value":0},{"number":64,"time":619.447254816685,"value":1},{"number":64,"time":621.6683214083519,"value":0},{"number":64,"time":621.6694788166852,"value":1},{"number":64,"time":623.8905454083521,"value":0},{"number":64,"time":623.8917028166854,"value":1},{"number":64,"time":626.1127694083523,"value":0},{"number":64,"time":626.1139268166856,"value":1},{"number":64,"time":628.3349934083525,"value":0},{"number":64,"time":628.3361508166859,"value":1},{"number":64,"time":630.5572174083527,"value":0},{"number":64,"time":630.5583748166861,"value":1},{"number":64,"time":632.7794414083529,"value":0},{"number":64,"time":632.7805988166863,"value":1},{"number":64,"time":635.0016654083531,"value":0},{"number":64,"time":635.0028228166865,"value":1},{"number":64,"time":637.2238894083532,"value":0},{"number":64,"time":637.2250468166866,"value":1},{"number":64,"time":639.4461134083533,"value":0},{"number":64,"time":639.4472708166867,"value":1},{"number":64,"time":641.6683374083534,"value":0},{"number":64,"time":641.6694948166868,"value":1},{"number":64,"time":643.8905614083535,"value":0},{"number":64,"time":643.8905614083535,"value":0},{"number":64,"time":643.8917188166869,"value":1},{"number":64,"time":646.1127854083536,"value":0},{"number":64,"time":646.113942816687,"value":1},{"number":64,"time":648.3350094083537,"value":0},{"number":64,"time":648.3350094083537,"value":0},{"number":64,"time":648.3361668166871,"value":1},{"number":64,"time":650.5572334083538,"value":0},{"number":64,"time":650.5583908166872,"value":1},{"number":64,"time":652.7794574083539,"value":0},{"number":64,"time":652.7806148166873,"value":1},{"number":64,"time":655.001681408354,"value":0},{"number":64,"time":655.0028388166874,"value":1},{"number":64,"time":657.2239054083541,"value":0},{"number":64,"time":657.2250628166875,"value":1},{"number":64,"time":659.4461294083542,"value":0},{"number":64,"time":659.4472868166876,"value":1},{"number":64,"time":661.6683534083543,"value":0},{"number":64,"time":661.6683534083543,"value":0},{"number":64,"time":661.6695108166876,"value":1},{"number":64,"time":663.8905774083544,"value":0},{"number":64,"time":663.8917348166877,"value":1},{"number":64,"time":666.1128014083545,"value":0},{"number":64,"time":666.1128014083545,"value":0},{"number":64,"time":666.1139588166878,"value":1},{"number":64,"time":668.3350254083546,"value":0},{"number":64,"time":668.3361828166879,"value":1},{"number":64,"time":670.5572494083547,"value":0},{"number":64,"time":670.558406816688,"value":1},{"number":64,"time":672.7794734083549,"value":0},{"number":64,"time":672.7806308166882,"value":1},{"number":64,"time":675.0016974083551,"value":0},{"number":64,"time":675.0028548166885,"value":1},{"number":64,"time":677.2239214083553,"value":0},{"number":64,"time":677.2250788166887,"value":1},{"number":64,"time":679.4461454083555,"value":0},{"number":64,"time":679.4461454083555,"value":0},{"number":64,"time":679.4473028166889,"value":1},{"number":64,"time":681.6683694083557,"value":0},{"number":64,"time":681.6695268166891,"value":1},{"number":64,"time":683.8905934083559,"value":0},{"number":64,"time":683.8917508166893,"value":1},{"number":64,"time":686.1128174083561,"value":0},{"number":64,"time":686.1139748166895,"value":1},{"number":64,"time":688.3350414083563,"value":0},{"number":64,"time":688.3361988166897,"value":1},{"number":64,"time":690.5572654083566,"value":0},{"number":64,"time":690.5584228166899,"value":1},{"number":64,"time":692.7794894083568,"value":0},{"number":64,"time":692.7806468166901,"value":1},{"number":64,"time":695.001713408357,"value":0},{"number":64,"time":695.0028708166903,"value":1},{"number":64,"time":697.2239374083572,"value":0},{"number":64,"time":697.2250948166906,"value":1},{"number":64,"time":699.4461614083574,"value":0},{"number":64,"time":699.4473188166908,"value":1},{"number":64,"time":701.6683854083576,"value":0},{"number":64,"time":723.8917828166956,"value":1},{"number":64,"time":726.1128494083624,"value":0},{"number":64,"time":726.1140068166958,"value":1},{"number":64,"time":728.6128514083626,"value":0},{"number":64,"time":857.5030008167012,"value":1},{"number":64,"time":859.7240674083688,"value":0},{"number":64,"time":859.7252248167022,"value":1},{"number":64,"time":861.9462914083698,"value":0},{"number":64,"time":861.9474488167032,"value":1},{"number":64,"time":864.1685154083708,"value":0},{"number":64,"time":864.1696728167042,"value":1},{"number":64,"time":866.3907394083718,"value":0},{"number":64,"time":866.3918968167052,"value":1},{"number":64,"time":868.6129634083728,"value":0},{"number":64,"time":868.6141208167062,"value":1},{"number":64,"time":870.8351874083738,"value":0},{"number":64,"time":870.8363448167072,"value":1},{"number":64,"time":873.0574114083748,"value":0},{"number":64,"time":873.0585688167082,"value":1},{"number":64,"time":875.2796354083758,"value":0},{"number":64,"time":875.2807928167092,"value":1},{"number":64,"time":877.5018594083768,"value":0},{"number":64,"time":877.5030168167102,"value":1},{"number":64,"time":879.7240834083779,"value":0},{"number":64,"time":879.7252408167112,"value":1},{"number":64,"time":881.9463074083789,"value":0},{"number":64,"time":881.9474648167122,"value":1},{"number":64,"time":884.1685314083799,"value":0},{"number":64,"time":884.1685314083799,"value":0},{"number":64,"time":884.1696888167132,"value":1},{"number":64,"time":886.3907554083809,"value":0},{"number":64,"time":886.3919128167142,"value":1},{"number":64,"time":888.6129794083819,"value":0},{"number":64,"time":888.6141368167152,"value":1},{"number":64,"time":890.8352034083829,"value":0},{"number":64,"time":890.8363608167163,"value":1},{"number":64,"time":893.0574274083839,"value":0},{"number":64,"time":895.2808088167181,"value":1},{"number":64,"time":897.5018754083858,"value":0},{"number":64,"time":897.5030328167192,"value":1},{"number":64,"time":899.7240994083868,"value":0},{"number":64,"time":899.7252568167202,"value":1},{"number":64,"time":901.9463234083878,"value":0},{"number":64,"time":901.9474808167212,"value":1},{"number":64,"time":904.1685474083888,"value":0},{"number":64,"time":904.1697048167222,"value":1},{"number":64,"time":906.3907714083898,"value":0},{"number":64,"time":906.3919288167232,"value":1},{"number":64,"time":908.6129954083908,"value":0},{"number":64,"time":908.6129954083908,"value":0},{"number":64,"time":908.6141528167242,"value":1},{"number":64,"time":910.8352194083918,"value":0},{"number":64,"time":910.8363768167252,"value":1},{"number":64,"time":913.0574434083928,"value":0},{"number":64,"time":913.0586008167262,"value":1},{"number":64,"time":915.2796674083938,"value":0},{"number":64,"time":915.2808248167272,"value":1},{"number":64,"time":917.5018914083948,"value":0},{"number":64,"time":917.5030488167282,"value":1},{"number":64,"time":919.7241154083958,"value":0},{"number":64,"time":919.7252728167292,"value":1},{"number":64,"time":921.9463394083969,"value":0},{"number":64,"time":921.9463394083969,"value":0},{"number":64,"time":921.9474968167302,"value":1},{"number":64,"time":924.1685634083979,"value":0},{"number":64,"time":924.1697208167312,"value":1},{"number":64,"time":926.3907874083989,"value":0},{"number":64,"time":926.3907874083989,"value":0},{"number":64,"time":926.3919448167322,"value":1},{"number":64,"time":928.6130114083999,"value":0},{"number":64,"time":928.6141688167332,"value":1},{"number":64,"time":930.8352354084008,"value":0},{"number":64,"time":933.058616816734,"value":1},{"number":64,"time":935.2796834084006,"value":0},{"number":64,"time":935.280840816734,"value":1},{"number":64,"time":937.5019074084006,"value":0},{"number":64,"time":937.503064816734,"value":1},{"number":64,"time":939.7241314084006,"value":0},{"number":64,"time":939.725288816734,"value":1},{"number":64,"time":941.9463554084006,"value":0},{"number":64,"time":941.9475128167339,"value":1},{"number":64,"time":944.1685794084005,"value":0},{"number":64,"time":944.1697368167339,"value":1},{"number":64,"time":946.3908034084005,"value":0},{"number":64,"time":946.3919608167339,"value":1},{"number":64,"time":948.6130274084005,"value":0},{"number":64,"time":948.6141848167339,"value":1},{"number":64,"time":950.8352514084005,"value":0},{"number":64,"time":950.8364088167339,"value":1},{"number":64,"time":953.0574754084005,"value":0},{"number":64,"time":953.0586328167338,"value":1},{"number":64,"time":955.2796994084005,"value":0},{"number":64,"time":955.2808568167338,"value":1},{"number":64,"time":957.5019234084004,"value":0},{"number":64,"time":957.5030808167338,"value":1},{"number":64,"time":959.7241474084004,"value":0},{"number":64,"time":959.7253048167338,"value":1},{"number":64,"time":961.9463714084004,"value":0},{"number":64,"time":961.9475288167338,"value":1},{"number":64,"time":964.1685954084004,"value":0},{"number":64,"time":964.1697528167338,"value":1},{"number":64,"time":966.3908194084004,"value":0},{"number":64,"time":966.3919768167337,"value":1},{"number":64,"time":968.6130434084004,"value":0},{"number":64,"time":968.6142008167337,"value":1},{"number":64,"time":970.8352674084005,"value":0},{"number":64,"time":970.8364248167338,"value":1},{"number":64,"time":973.0574914084006,"value":0},{"number":64,"time":973.0586488167339,"value":1},{"number":64,"time":975.2797154084006,"value":0},{"number":64,"time":975.280872816734,"value":1},{"number":64,"time":977.5019394084007,"value":0},{"number":64,"time":977.5030968167341,"value":1},{"number":64,"time":979.7241634084008,"value":0},{"number":64,"time":979.7253208167342,"value":1},{"number":64,"time":981.9463874084009,"value":0},{"number":64,"time":981.9475448167343,"value":1},{"number":64,"time":984.168611408401,"value":0},{"number":64,"time":984.1697688167344,"value":1},{"number":64,"time":986.3908354084011,"value":0},{"number":64,"time":986.3919928167345,"value":1},{"number":64,"time":988.6130594084012,"value":0},{"number":64,"time":988.6142168167346,"value":1},{"number":64,"time":990.8352834084013,"value":0},{"number":64,"time":990.8364408167347,"value":1},{"number":64,"time":993.0575074084014,"value":0},{"number":64,"time":993.0586648167348,"value":1},{"number":64,"time":995.2797314084015,"value":0},{"number":64,"time":995.2808888167349,"value":1},{"number":64,"time":997.5019554084016,"value":0},{"number":64,"time":997.503112816735,"value":1},{"number":64,"time":999.7241794084017,"value":0},{"number":64,"time":999.7253368167351,"value":1},{"number":64,"time":1001.9464034084018,"value":0},{"number":64,"time":1001.9475608167352,"value":1},{"number":64,"time":1004.1686274084019,"value":0},{"number":64,"time":1004.1686274084019,"value":0},{"number":64,"time":1004.1697848167353,"value":1},{"number":64,"time":1006.390851408402,"value":0},{"number":64,"time":1006.3920088167354,"value":1},{"number":64,"time":1008.6130754084021,"value":0},{"number":64,"time":1008.6142328167355,"value":1},{"number":64,"time":1010.8352994084022,"value":0},{"number":64,"time":1010.8364568167356,"value":1},{"number":64,"time":1013.0575234084023,"value":0},{"number":64,"time":1013.0586808167357,"value":1},{"number":64,"time":1015.2797474084024,"value":0},{"number":64,"time":1015.2809048167358,"value":1},{"number":64,"time":1017.5019714084025,"value":0},{"number":64,"time":1017.5031288167359,"value":1},{"number":64,"time":1019.7241954084026,"value":0},{"number":64,"time":1019.725352816736,"value":1},{"number":64,"time":1021.9464194084027,"value":0},{"number":64,"time":1021.947576816736,"value":1},{"number":64,"time":1024.1686434084027,"value":0},{"number":64,"time":1024.169800816736,"value":1},{"number":64,"time":1026.3908674084023,"value":0},{"number":64,"time":1026.3920248167356,"value":1},{"number":64,"time":1028.613091408402,"value":0},{"number":64,"time":1028.6142488167352,"value":1},{"number":64,"time":1030.8353154084016,"value":0},{"number":64,"time":1030.8364728167348,"value":1},{"number":64,"time":1033.0575394084012,"value":0},{"number":64,"time":1033.0586968167345,"value":1},{"number":64,"time":1035.2797634084009,"value":0},{"number":64,"time":1035.2809208167341,"value":1},{"number":64,"time":1037.5019874084005,"value":0},{"number":64,"time":1037.5031448167338,"value":1},{"number":64,"time":1039.7242114084002,"value":0},{"number":64,"time":1039.7253688167334,"value":1},{"number":64,"time":1041.9464354083998,"value":0},{"number":64,"time":1041.947592816733,"value":1},{"number":64,"time":1044.1686594083994,"value":0},{"number":64,"time":1044.1698168167327,"value":1},{"number":64,"time":1046.390883408399,"value":0},{"number":64,"time":1046.3920408167323,"value":1},{"number":64,"time":1048.6131074083987,"value":0},{"number":64,"time":1048.614264816732,"value":1},{"number":64,"time":1050.8353314083984,"value":0},{"number":64,"time":1050.8364888167316,"value":1},{"number":64,"time":1053.057555408398,"value":0},{"number":64,"time":1053.0587128167313,"value":1},{"number":64,"time":1055.2797794083976,"value":0},{"number":64,"time":1055.280936816731,"value":1},{"number":64,"time":1057.5020034083973,"value":0},{"number":64,"time":1057.5031608167305,"value":1},{"number":64,"time":1059.724227408397,"value":0},{"number":64,"time":1059.7253848167302,"value":1},{"number":64,"time":1061.9464514083966,"value":0},{"number":64,"time":1061.9476088167298,"value":1},{"number":64,"time":1064.1686754083962,"value":0},{"number":64,"time":1064.1698328167295,"value":1},{"number":64,"time":1066.3908994083959,"value":0},{"number":64,"time":1066.392056816729,"value":1},{"number":64,"time":1068.6131234083955,"value":0},{"number":64,"time":1068.6142808167288,"value":1},{"number":64,"time":1070.8353474083951,"value":0},{"number":64,"time":1070.8353474083951,"value":0},{"number":64,"time":1070.8365048167284,"value":1},{"number":64,"time":1073.0575714083948,"value":0},{"number":64,"time":1073.058728816728,"value":1},{"number":64,"time":1075.2797954083944,"value":0},{"number":64,"time":1075.2809528167277,"value":1},{"number":64,"time":1077.502019408394,"value":0},{"number":64,"time":1077.5031768167273,"value":1},{"number":64,"time":1079.7242434083937,"value":0},{"number":64,"time":1079.725400816727,"value":1},{"number":64,"time":1081.9464674083933,"value":0},{"number":64,"time":1081.9476248167266,"value":1},{"number":64,"time":1084.168691408393,"value":0},{"number":64,"time":1084.1698488167262,"value":1},{"number":64,"time":1086.3909154083926,"value":0},{"number":64,"time":1086.3920728167259,"value":1},{"number":64,"time":1088.6131394083923,"value":0},{"number":64,"time":1088.6142968167255,"value":1},{"number":64,"time":1090.835363408392,"value":0},{"number":64,"time":1090.8365208167252,"value":1},{"number":64,"time":1093.0575874083916,"value":0},{"number":64,"time":1093.0575874083916,"value":0},{"number":64,"time":1093.0587448167248,"value":1},{"number":64,"time":1095.2798114083912,"value":0},{"number":64,"time":1095.2809688167245,"value":1},{"number":64,"time":1097.5020354083908,"value":0},{"number":64,"time":1097.503192816724,"value":1},{"number":64,"time":1099.7242594083905,"value":0},{"number":64,"time":1099.7254168167237,"value":1},{"number":64,"time":1101.9464834083901,"value":0},{"number":64,"time":1101.9476408167234,"value":1},{"number":64,"time":1104.1687074083898,"value":0},{"number":64,"time":1104.1687074083898,"value":0},{"number":64,"time":1104.169864816723,"value":1},{"number":64,"time":1106.3909314083894,"value":0},{"number":64,"time":1106.3920888167227,"value":1},{"number":64,"time":1108.613155408389,"value":0},{"number":64,"time":1108.6143128167223,"value":1},{"number":64,"time":1110.8353794083887,"value":0},{"number":64,"time":1110.836536816722,"value":1},{"number":64,"time":1113.0576034083883,"value":0},{"number":64,"time":1113.0587608167216,"value":1},{"number":64,"time":1115.279827408388,"value":0},{"number":64,"time":1115.2809848167212,"value":1},{"number":64,"time":1117.5020514083876,"value":0},{"number":64,"time":1117.5032088167209,"value":1},{"number":64,"time":1119.7242754083873,"value":0},{"number":64,"time":1119.7254328167205,"value":1},{"number":64,"time":1121.946499408387,"value":0},{"number":64,"time":1121.9476568167202,"value":1},{"number":64,"time":1124.1687234083865,"value":0},{"number":64,"time":1124.1698808167198,"value":1},{"number":64,"time":1126.3909474083862,"value":0},{"number":64,"time":1126.3921048167194,"value":1},{"number":64,"time":1128.6131714083858,"value":0},{"number":64,"time":1128.614328816719,"value":1},{"number":64,"time":1130.8353954083855,"value":0},{"number":64,"time":1130.8365528167187,"value":1},{"number":64,"time":1133.057619408385,"value":0},{"number":64,"time":1133.0587768167184,"value":1},{"number":64,"time":1135.2798434083847,"value":0},{"number":64,"time":1135.281000816718,"value":1},{"number":64,"time":1137.5020674083844,"value":0},{"number":64,"time":1137.5032248167176,"value":1},{"number":64,"time":1139.724291408384,"value":0},{"number":64,"time":1139.7254488167173,"value":1},{"number":64,"time":1141.9465154083837,"value":0},{"number":64,"time":1141.947672816717,"value":1},{"number":64,"time":1144.1687394083835,"value":0},{"number":64,"time":1146.392120816717,"value":1},{"number":64,"time":1148.6131874083835,"value":0},{"number":64,"time":1148.6143448167168,"value":1},{"number":64,"time":1150.8354114083834,"value":0},{"number":64,"time":1150.8365688167166,"value":1},{"number":64,"time":1153.0576354083832,"value":0},{"number":64,"time":1153.0587928167165,"value":1},{"number":64,"time":1155.2798594083831,"value":0},{"number":64,"time":1155.2810168167164,"value":1},{"number":64,"time":1157.502083408383,"value":0},{"number":64,"time":1157.5032408167162,"value":1},{"number":64,"time":1159.7243074083829,"value":0},{"number":64,"time":1159.725464816716,"value":1},{"number":64,"time":1161.9465314083827,"value":0},{"number":64,"time":1161.947688816716,"value":1},{"number":64,"time":1164.1687554083826,"value":0},{"number":64,"time":1164.1699128167159,"value":1},{"number":64,"time":1166.3909794083825,"value":0},{"number":64,"time":1166.3921368167157,"value":1},{"number":64,"time":1168.6132034083823,"value":0},{"number":64,"time":1168.6143608167156,"value":1},{"number":64,"time":1170.8354274083822,"value":0},{"number":64,"time":1170.8365848167155,"value":1},{"number":64,"time":1173.057651408382,"value":0},{"number":64,"time":1173.0588088167153,"value":1},{"number":64,"time":1175.279875408382,"value":0},{"number":64,"time":1175.2810328167152,"value":1},{"number":64,"time":1177.5020994083818,"value":0},{"number":64,"time":1177.503256816715,"value":1},{"number":64,"time":1179.7243234083817,"value":0},{"number":64,"time":1179.725480816715,"value":1},{"number":64,"time":1181.9465474083815,"value":0},{"number":64,"time":1181.9477048167148,"value":1},{"number":64,"time":1184.1687714083805,"value":0},{"number":64,"time":1184.1699288167138,"value":1},{"number":64,"time":1186.3909954083795,"value":0},{"number":64,"time":1186.3921528167127,"value":1},{"number":64,"time":1188.6132194083784,"value":0},{"number":64,"time":1188.6143768167117,"value":1},{"number":64,"time":1190.8354434083774,"value":0},{"number":64,"time":1190.8366008167106,"value":1},{"number":64,"time":1193.0576674083763,"value":0},{"number":64,"time":1193.0588248167096,"value":1},{"number":64,"time":1195.2798914083753,"value":0},{"number":64,"time":1195.2810488167086,"value":1},{"number":64,"time":1197.5021154083743,"value":0},{"number":64,"time":1197.5032728167075,"value":1},{"number":64,"time":1199.7243394083732,"value":0},{"number":64,"time":1199.7254968167065,"value":1},{"number":64,"time":1201.9465634083722,"value":0},{"number":64,"time":1201.9477208167054,"value":1},{"number":64,"time":1204.1687874083711,"value":0},{"number":64,"time":1204.1699448167044,"value":1},{"number":64,"time":1206.39101140837,"value":0},{"number":64,"time":1206.3921688167034,"value":1},{"number":64,"time":1208.613235408369,"value":0},{"number":64,"time":1208.6143928167023,"value":1},{"number":64,"time":1210.835459408368,"value":0},{"number":64,"time":1210.8366168167013,"value":1},{"number":64,"time":1213.057683408367,"value":0},{"number":64,"time":1213.0588408167002,"value":1},{"number":64,"time":1215.279907408366,"value":0},{"number":64,"time":1215.2810648166992,"value":1},{"number":64,"time":1217.502131408365,"value":0},{"number":64,"time":1217.5032888166982,"value":1},{"number":64,"time":1219.7243554083639,"value":0},{"number":64,"time":1219.7255128166971,"value":1},{"number":64,"time":1221.9465794083628,"value":0},{"number":64,"time":1221.947736816696,"value":1},{"number":64,"time":1224.1688034083618,"value":0},{"number":64,"time":1224.169960816695,"value":1},{"number":64,"time":1226.3910274083607,"value":0},{"number":64,"time":1226.392184816694,"value":1},{"number":64,"time":1228.6132514083597,"value":0},{"number":64,"time":1228.614408816693,"value":1},{"number":64,"time":1230.8354754083587,"value":0},{"number":64,"time":1230.836632816692,"value":1},{"number":64,"time":1233.0576994083576,"value":0},{"number":64,"time":1233.0588568166909,"value":1},{"number":64,"time":1235.2799234083566,"value":0},{"number":64,"time":1235.2810808166898,"value":1},{"number":64,"time":1237.5021474083555,"value":0},{"number":64,"time":1237.5033048166888,"value":1},{"number":64,"time":1239.7243714083545,"value":0},{"number":64,"time":1239.7255288166878,"value":1},{"number":64,"time":1241.9465954083535,"value":0},{"number":64,"time":1241.9477528166867,"value":1},{"number":64,"time":1244.1688194083524,"value":0},{"number":64,"time":1244.1699768166857,"value":1},{"number":64,"time":1246.3910434083514,"value":0},{"number":64,"time":1246.3922008166846,"value":1},{"number":64,"time":1248.6132674083503,"value":0},{"number":64,"time":1248.6144248166836,"value":1},{"number":64,"time":1250.8354914083493,"value":0},{"number":64,"time":1250.8366488166826,"value":1},{"number":64,"time":1253.0577154083483,"value":0},{"number":64,"time":1253.0588728166815,"value":1},{"number":64,"time":1255.2799394083472,"value":0},{"number":64,"time":1255.2810968166805,"value":1},{"number":64,"time":1257.5021634083462,"value":0},{"number":64,"time":1257.5033208166794,"value":1},{"number":64,"time":1259.7243874083451,"value":0},{"number":64,"time":1259.7255448166784,"value":1},{"number":64,"time":1261.946611408344,"value":0},{"number":64,"time":1261.9477688166774,"value":1},{"number":64,"time":1264.168835408343,"value":0},{"number":64,"time":1264.1699928166763,"value":1},{"number":64,"time":1266.391059408342,"value":0},{"number":64,"time":1266.3922168166753,"value":1},{"number":64,"time":1268.613283408341,"value":0},{"number":64,"time":1268.6144408166742,"value":1},{"number":64,"time":1270.83550740834,"value":0},{"number":64,"time":1270.8366648166732,"value":1},{"number":64,"time":1273.0577314083391,"value":0},{"number":64,"time":1273.0588888166724,"value":1},{"number":64,"time":1275.2799554083383,"value":0},{"number":64,"time":1275.2811128166716,"value":1},{"number":64,"time":1277.5021794083375,"value":0},{"number":64,"time":1277.5033368166708,"value":1},{"number":64,"time":1279.7244034083367,"value":0},{"number":64,"time":1279.72556081667,"value":1},{"number":64,"time":1281.9466274083359,"value":0},{"number":64,"time":1281.9477848166691,"value":1},{"number":64,"time":1284.168851408335,"value":0},{"number":64,"time":1284.1700088166683,"value":1},{"number":64,"time":1286.3910754083342,"value":0},{"number":64,"time":1286.3922328166675,"value":1},{"number":64,"time":1288.6132994083334,"value":0},{"number":64,"time":1288.6144568166667,"value":1},{"number":64,"time":1290.8355234083333,"value":0},{"number":64,"time":1290.8366808166666,"value":1},{"number":64,"time":1293.0577474083332,"value":0},{"number":64,"time":1293.0589048166664,"value":1},{"number":64,"time":1295.279971408333,"value":0},{"number":64,"time":1295.2811288166663,"value":1},{"number":64,"time":1297.502195408333,"value":0},{"number":64,"time":1297.5033528166662,"value":1},{"number":64,"time":1299.7244194083328,"value":0},{"number":64,"time":1299.725576816666,"value":1},{"number":64,"time":1301.9466434083326,"value":0},{"number":64,"time":1301.947800816666,"value":1},{"number":64,"time":1304.1688674083325,"value":0},{"number":64,"time":1304.1700248166658,"value":1},{"number":64,"time":1306.3910914083324,"value":0},{"number":64,"time":1306.3922488166656,"value":1},{"number":64,"time":1308.6133154083323,"value":0}]},"id":1,"channelNumber":0,"isPercussion":false},{"startTime":216.111284,"duration":1288.499873391631,"length":3399,"notes":[{"name":"G#5","midi":80,"time":216.111284,"velocity":0.7559055118110236,"duration":0.26273169166665866},{"name":"G#6","midi":92,"time":216.111284,"velocity":0.7559055118110236,"duration":0.26273169166665866},{"name":"A#5","midi":82,"time":216.389062,"velocity":0.7559055118110236,"duration":2.6377335916666595},{"name":"A#6","midi":94,"time":216.389062,"velocity":0.7559055118110236,"duration":2.6377335916666595},{"name":"C6","midi":84,"time":219.166842,"velocity":0.7559055118110236,"duration":0.26273169166665866},{"name":"C7","midi":96,"time":219.166842,"velocity":0.7559055118110236,"duration":0.26273169166665866},{"name":"C#6","midi":85,"time":219.44462,"velocity":0.7559055118110236,"duration":0.7905098916666589},{"name":"C#7","midi":97,"time":219.44462,"velocity":0.7559055118110236,"duration":0.7905098916666589},{"name":"C6","midi":84,"time":220.27795399999997,"velocity":0.7559055118110236,"duration":0.7905098916666589},{"name":"C7","midi":96,"time":220.27795399999997,"velocity":0.7559055118110236,"duration":0.7905098916666589},{"name":"A#5","midi":82,"time":221.11128799999994,"velocity":0.7559055118110236,"duration":0.3946762416666729},{"name":"A#6","midi":94,"time":221.11128799999994,"velocity":0.7559055118110236,"duration":0.3946762416666729},{"name":"C6","midi":84,"time":221.52795499999996,"velocity":0.7559055118110236,"duration":0.26273169166665866},{"name":"C7","midi":96,"time":221.52795499999996,"velocity":0.7559055118110236,"duration":0.26273169166665866},{"name":"A#5","midi":82,"time":221.80573299999995,"velocity":0.7559055118110236,"duration":0.13078714166667282},{"name":"A#6","midi":94,"time":221.80573299999995,"velocity":0.7559055118110236,"duration":0.13078714166667282},{"name":"G#5","midi":80,"time":221.94462199999995,"velocity":0.7559055118110236,"duration":0.26273169166665866},{"name":"G#6","midi":92,"time":221.94462199999995,"velocity":0.7559055118110236,"duration":0.26273169166665866},{"name":"F#5","midi":78,"time":222.22239999999994,"velocity":0.7559055118110236,"duration":0.26273169166665866},{"name":"F#6","midi":90,"time":222.22239999999994,"velocity":0.7559055118110236,"duration":0.26273169166665866},{"name":"F5","midi":77,"time":222.50017799999992,"velocity":0.7559055118110236,"duration":0.26273169166665866},{"name":"F6","midi":89,"time":222.50017799999992,"velocity":0.7559055118110236,"duration":0.26273169166665866},{"name":"E5","midi":76,"time":222.7779559999999,"velocity":0.7559055118110236,"duration":1.054398991666659},{"name":"E6","midi":88,"time":222.7779559999999,"velocity":0.7559055118110236,"duration":1.054398991666659},{"name":"E4","midi":64,"time":223.8890679999999,"velocity":0.7559055118110236,"duration":0.13078714166667282},{"name":"E5","midi":76,"time":223.8890679999999,"velocity":0.7559055118110236,"duration":0.13078714166667282},{"name":"E4","midi":64,"time":224.0279569999999,"velocity":0.7559055118110236,"duration":0.13078714166667282},{"name":"E5","midi":76,"time":224.0279569999999,"velocity":0.7559055118110236,"duration":0.13078714166667282},{"name":"E4","midi":64,"time":224.1668459999999,"velocity":0.7559055118110236,"duration":0.13078714166667282},{"name":"E5","midi":76,"time":224.1668459999999,"velocity":0.7559055118110236,"duration":0.13078714166667282},{"name":"E4","midi":64,"time":224.3057349999999,"velocity":0.7559055118110236,"duration":0.13078714166667282},{"name":"E5","midi":76,"time":224.3057349999999,"velocity":0.7559055118110236,"duration":0.13078714166667282},{"name":"A#5","midi":82,"time":224.44462399999992,"velocity":0.7559055118110236,"duration":1.054398991666659},{"name":"A#6","midi":94,"time":224.44462399999992,"velocity":0.7559055118110236,"duration":1.054398991666659},{"name":"E5","midi":76,"time":225.5557359999999,"velocity":0.7559055118110236,"duration":0.5266207916666588},{"name":"E6","midi":88,"time":225.5557359999999,"velocity":0.7559055118110236,"duration":0.5266207916666588},{"name":"D#5","midi":75,"time":226.1112919999999,"velocity":0.7559055118110236,"duration":1.318288091666659},{"name":"D#6","midi":87,"time":226.1112919999999,"velocity":0.7559055118110236,"duration":1.318288091666659},{"name":"D#5","midi":75,"time":227.5001819999999,"velocity":0.7559055118110236,"duration":0.5266207916666588},{"name":"D#6","midi":87,"time":227.5001819999999,"velocity":0.7559055118110236,"duration":0.5266207916666588},{"name":"E5","midi":76,"time":228.0557379999999,"velocity":0.7559055118110236,"duration":0.13078714166667282},{"name":"E6","midi":88,"time":228.0557379999999,"velocity":0.7559055118110236,"duration":0.13078714166667282},{"name":"D#5","midi":75,"time":228.1946269999999,"velocity":0.7559055118110236,"duration":0.13078714166667282},{"name":"D#6","midi":87,"time":228.1946269999999,"velocity":0.7559055118110236,"duration":0.13078714166667282},{"name":"C#5","midi":73,"time":228.33351599999992,"velocity":0.7559055118110236,"duration":0.26273169166665866},{"name":"C#6","midi":85,"time":228.33351599999992,"velocity":0.7559055118110236,"duration":0.26273169166665866},{"name":"A#4","midi":70,"time":228.6112939999999,"velocity":0.7559055118110236,"duration":0.26273169166665866},{"name":"A#5","midi":82,"time":228.6112939999999,"velocity":0.7559055118110236,"duration":0.26273169166665866},{"name":"C#5","midi":73,"time":228.88907199999989,"velocity":0.7559055118110236,"duration":0.26273169166665866},{"name":"C#6","midi":85,"time":228.88907199999989,"velocity":0.7559055118110236,"duration":0.26273169166665866},{"name":"D#5","midi":75,"time":229.16684999999987,"velocity":0.7559055118110236,"duration":0.26273169166665866},{"name":"D#6","midi":87,"time":229.16684999999987,"velocity":0.7559055118110236,"duration":0.26273169166665866},{"name":"C#5","midi":73,"time":229.44462799999985,"velocity":0.7559055118110236,"duration":0.5266207916666588},{"name":"C#6","midi":85,"time":229.44462799999985,"velocity":0.7559055118110236,"duration":0.5266207916666588},{"name":"A#4","midi":70,"time":230.00018399999985,"velocity":0.7559055118110236,"duration":1.054398991666659},{"name":"A#5","midi":82,"time":230.00018399999985,"velocity":0.7559055118110236,"duration":1.054398991666659},{"name":"D#4","midi":63,"time":231.11129599999984,"velocity":0.7559055118110236,"duration":0.26273169166665866},{"name":"D#5","midi":75,"time":231.11129599999984,"velocity":0.7559055118110236,"duration":0.26273169166665866},{"name":"F4","midi":65,"time":231.38907399999982,"velocity":0.7559055118110236,"duration":0.26273169166665866},{"name":"F5","midi":77,"time":231.38907399999982,"velocity":0.7559055118110236,"duration":0.26273169166665866},{"name":"G#4","midi":68,"time":231.6668519999998,"velocity":0.7559055118110236,"duration":0.26273169166665866},{"name":"G#5","midi":80,"time":231.6668519999998,"velocity":0.7559055118110236,"duration":0.26273169166665866},{"name":"A#4","midi":70,"time":231.9446299999998,"velocity":0.7559055118110236,"duration":0.26273169166665866},{"name":"A#5","midi":82,"time":231.9446299999998,"velocity":0.7559055118110236,"duration":0.26273169166665866},{"name":"C#5","midi":73,"time":232.22240799999977,"velocity":0.7559055118110236,"duration":0.26273169166665866},{"name":"C#6","midi":85,"time":232.22240799999977,"velocity":0.7559055118110236,"duration":0.26273169166665866},{"name":"D#5","midi":75,"time":232.50018599999976,"velocity":0.7559055118110236,"duration":0.26273169166665866},{"name":"D#6","midi":87,"time":232.50018599999976,"velocity":0.7559055118110236,"duration":0.26273169166665866},{"name":"A#4","midi":70,"time":232.77796399999974,"velocity":0.7559055118110236,"duration":0.2627316916666871},{"name":"A#5","midi":82,"time":232.77796399999974,"velocity":0.7559055118110236,"duration":0.2627316916666871},{"name":"C#5","midi":73,"time":233.05574199999975,"velocity":0.7559055118110236,"duration":0.26273169166665866},{"name":"C#6","midi":85,"time":233.05574199999975,"velocity":0.7559055118110236,"duration":0.26273169166665866},{"name":"D#5","midi":75,"time":233.33351999999974,"velocity":0.7559055118110236,"duration":0.26273169166665866},{"name":"D#6","midi":87,"time":233.33351999999974,"velocity":0.7559055118110236,"duration":0.26273169166665866},{"name":"E5","midi":76,"time":233.61129799999972,"velocity":0.7559055118110236,"duration":0.26273169166665866},{"name":"E6","midi":88,"time":233.61129799999972,"velocity":0.7559055118110236,"duration":0.26273169166665866},{"name":"F5","midi":77,"time":233.8890759999997,"velocity":0.7559055118110236,"duration":0.26273169166665866},{"name":"F6","midi":89,"time":233.8890759999997,"velocity":0.7559055118110236,"duration":0.26273169166665866},{"name":"G#5","midi":80,"time":234.1668539999997,"velocity":0.7559055118110236,"duration":0.26273169166665866},{"name":"G#6","midi":92,"time":234.1668539999997,"velocity":0.7559055118110236,"duration":0.26273169166665866},{"name":"A#5","midi":82,"time":234.44463199999967,"velocity":0.7559055118110236,"duration":0.1747686583333632},{"name":"A#6","midi":94,"time":234.44463199999967,"velocity":0.7559055118110236,"duration":0.1747686583333632},{"name":"C#6","midi":85,"time":234.62981733333302,"velocity":0.7559055118110236,"duration":0.17476865833333477},{"name":"C#7","midi":97,"time":234.62981733333302,"velocity":0.7559055118110236,"duration":0.17476865833333477},{"name":"A#5","midi":82,"time":234.81500266666635,"velocity":0.7559055118110236,"duration":0.17476865833333477},{"name":"A#6","midi":94,"time":234.81500266666635,"velocity":0.7559055118110236,"duration":0.17476865833333477},{"name":"G#5","midi":80,"time":235.00018799999967,"velocity":0.7559055118110236,"duration":0.17476865833333477},{"name":"G#6","midi":92,"time":235.00018799999967,"velocity":0.7559055118110236,"duration":0.17476865833333477},{"name":"B5","midi":83,"time":235.185373333333,"velocity":0.7559055118110236,"duration":0.17476865833333477},{"name":"B6","midi":95,"time":235.185373333333,"velocity":0.7559055118110236,"duration":0.17476865833333477},{"name":"G#5","midi":80,"time":235.3705586666663,"velocity":0.7559055118110236,"duration":0.17476865833333477},{"name":"G#6","midi":92,"time":235.3705586666663,"velocity":0.7559055118110236,"duration":0.17476865833333477},{"name":"F#5","midi":78,"time":235.55574399999963,"velocity":0.7559055118110236,"duration":0.17476865833333477},{"name":"F#6","midi":90,"time":235.55574399999963,"velocity":0.7559055118110236,"duration":0.17476865833333477},{"name":"A5","midi":81,"time":235.74092933333296,"velocity":0.7559055118110236,"duration":0.17476865833333477},{"name":"A6","midi":93,"time":235.74092933333296,"velocity":0.7559055118110236,"duration":0.17476865833333477},{"name":"F#5","midi":78,"time":235.92611466666628,"velocity":0.7559055118110236,"duration":0.17476865833333477},{"name":"F#6","midi":90,"time":235.92611466666628,"velocity":0.7559055118110236,"duration":0.17476865833333477},{"name":"E5","midi":76,"time":236.1112999999996,"velocity":0.7559055118110236,"duration":1.0543989916666874},{"name":"E6","midi":88,"time":236.1112999999996,"velocity":0.7559055118110236,"duration":1.0543989916666874},{"name":"E4","midi":64,"time":237.22241199999962,"velocity":0.7559055118110236,"duration":0.13078714166667282},{"name":"E5","midi":76,"time":237.22241199999962,"velocity":0.7559055118110236,"duration":0.13078714166667282},{"name":"E4","midi":64,"time":237.36130099999963,"velocity":0.7559055118110236,"duration":0.13078714166667282},{"name":"E5","midi":76,"time":237.36130099999963,"velocity":0.7559055118110236,"duration":0.13078714166667282},{"name":"E4","midi":64,"time":237.50018999999963,"velocity":0.7559055118110236,"duration":0.13078714166667282},{"name":"E5","midi":76,"time":237.50018999999963,"velocity":0.7559055118110236,"duration":0.13078714166667282},{"name":"E4","midi":64,"time":237.63907899999964,"velocity":0.7559055118110236,"duration":0.13078714166667282},{"name":"E5","midi":76,"time":237.63907899999964,"velocity":0.7559055118110236,"duration":0.13078714166667282},{"name":"A#5","midi":82,"time":237.77796799999965,"velocity":0.7559055118110236,"duration":1.0543989916666874},{"name":"A#6","midi":94,"time":237.77796799999965,"velocity":0.7559055118110236,"duration":1.0543989916666874},{"name":"E5","midi":76,"time":238.88907999999967,"velocity":0.7559055118110236,"duration":0.5266207916666588},{"name":"E6","midi":88,"time":238.88907999999967,"velocity":0.7559055118110236,"duration":0.5266207916666588},{"name":"F5","midi":77,"time":239.44463599999966,"velocity":0.7559055118110236,"duration":0.2627316916666871},{"name":"F6","midi":89,"time":239.44463599999966,"velocity":0.7559055118110236,"duration":0.2627316916666871},{"name":"C5","midi":72,"time":239.72241399999967,"velocity":0.7559055118110236,"duration":0.26273169166665866},{"name":"C6","midi":84,"time":239.72241399999967,"velocity":0.7559055118110236,"duration":0.26273169166665866},{"name":"F5","midi":77,"time":240.00019199999966,"velocity":0.7559055118110236,"duration":0.26273169166665866},{"name":"F6","midi":89,"time":240.00019199999966,"velocity":0.7559055118110236,"duration":0.26273169166665866},{"name":"A5","midi":81,"time":240.27796999999964,"velocity":0.7559055118110236,"duration":0.26273169166665866},{"name":"A6","midi":93,"time":240.27796999999964,"velocity":0.7559055118110236,"duration":0.26273169166665866},{"name":"F5","midi":77,"time":240.55574799999962,"velocity":0.7559055118110236,"duration":0.26273169166665866},{"name":"F6","midi":89,"time":240.55574799999962,"velocity":0.7559055118110236,"duration":0.26273169166665866},{"name":"A5","midi":81,"time":240.8335259999996,"velocity":0.7559055118110236,"duration":0.26273169166665866},{"name":"A6","midi":93,"time":240.8335259999996,"velocity":0.7559055118110236,"duration":0.26273169166665866},{"name":"C6","midi":84,"time":241.1113039999996,"velocity":0.7559055118110236,"duration":0.2627316916666871},{"name":"C7","midi":96,"time":241.1113039999996,"velocity":0.7559055118110236,"duration":0.2627316916666871},{"name":"F5","midi":77,"time":241.3890819999996,"velocity":0.7559055118110236,"duration":0.26273169166665866},{"name":"F6","midi":89,"time":241.3890819999996,"velocity":0.7559055118110236,"duration":0.26273169166665866},{"name":"C6","midi":84,"time":241.6668599999996,"velocity":0.7559055118110236,"duration":0.26273169166665866},{"name":"C7","midi":96,"time":241.6668599999996,"velocity":0.7559055118110236,"duration":0.26273169166665866},{"name":"D#6","midi":87,"time":241.94463799999957,"velocity":0.7559055118110236,"duration":0.7905098916666589},{"name":"D#7","midi":99,"time":241.94463799999957,"velocity":0.7559055118110236,"duration":0.7905098916666589},{"name":"C#5","midi":73,"time":242.77797199999955,"velocity":0.7559055118110236,"duration":0.2627316916666871},{"name":"C#6","midi":85,"time":242.77797199999955,"velocity":0.7559055118110236,"duration":0.2627316916666871},{"name":"F5","midi":77,"time":243.05574999999956,"velocity":0.7559055118110236,"duration":0.26273169166665866},{"name":"F6","midi":89,"time":243.05574999999956,"velocity":0.7559055118110236,"duration":0.26273169166665866},{"name":"C#6","midi":85,"time":243.33352799999955,"velocity":0.7559055118110236,"duration":0.26273169166665866},{"name":"C#7","midi":97,"time":243.33352799999955,"velocity":0.7559055118110236,"duration":0.26273169166665866},{"name":"C#5","midi":73,"time":243.61130599999953,"velocity":0.7559055118110236,"duration":0.26273169166665866},{"name":"C#6","midi":85,"time":243.61130599999953,"velocity":0.7559055118110236,"duration":0.26273169166665866},{"name":"F5","midi":77,"time":243.8890839999995,"velocity":0.7559055118110236,"duration":0.26273169166665866},{"name":"F6","midi":89,"time":243.8890839999995,"velocity":0.7559055118110236,"duration":0.26273169166665866},{"name":"C#6","midi":85,"time":244.1668619999995,"velocity":0.7559055118110236,"duration":0.26273169166665866},{"name":"C#7","midi":97,"time":244.1668619999995,"velocity":0.7559055118110236,"duration":0.26273169166665866},{"name":"C#5","midi":73,"time":244.44463999999948,"velocity":0.7559055118110236,"duration":0.2627316916666871},{"name":"C#6","midi":85,"time":244.44463999999948,"velocity":0.7559055118110236,"duration":0.2627316916666871},{"name":"F5","midi":77,"time":244.7224179999995,"velocity":0.7559055118110236,"duration":0.26273169166665866},{"name":"F6","midi":89,"time":244.7224179999995,"velocity":0.7559055118110236,"duration":0.26273169166665866},{"name":"C6","midi":84,"time":245.00019599999948,"velocity":0.7559055118110236,"duration":0.26273169166665866},{"name":"C7","midi":96,"time":245.00019599999948,"velocity":0.7559055118110236,"duration":0.26273169166665866},{"name":"C#5","midi":73,"time":245.27797399999946,"velocity":0.7559055118110236,"duration":0.26273169166665866},{"name":"C#6","midi":85,"time":245.27797399999946,"velocity":0.7559055118110236,"duration":0.26273169166665866},{"name":"F5","midi":77,"time":245.55575199999944,"velocity":0.7559055118110236,"duration":0.26273169166665866},{"name":"F6","midi":89,"time":245.55575199999944,"velocity":0.7559055118110236,"duration":0.26273169166665866},{"name":"A#5","midi":82,"time":245.83352999999943,"velocity":0.7559055118110236,"duration":0.26273169166665866},{"name":"A#6","midi":94,"time":245.83352999999943,"velocity":0.7559055118110236,"duration":0.26273169166665866},{"name":"A#4","midi":70,"time":246.1113079999994,"velocity":0.7559055118110236,"duration":0.2627316916666871},{"name":"A#5","midi":82,"time":246.1113079999994,"velocity":0.7559055118110236,"duration":0.2627316916666871},{"name":"C#5","midi":73,"time":246.38908599999942,"velocity":0.7559055118110236,"duration":0.26273169166665866},{"name":"C#6","midi":85,"time":246.38908599999942,"velocity":0.7559055118110236,"duration":0.26273169166665866},{"name":"G#5","midi":80,"time":246.6668639999994,"velocity":0.7559055118110236,"duration":0.26273169166665866},{"name":"G#6","midi":92,"time":246.6668639999994,"velocity":0.7559055118110236,"duration":0.26273169166665866},{"name":"A#4","midi":70,"time":246.9446419999994,"velocity":0.7559055118110236,"duration":0.26273169166665866},{"name":"A#5","midi":82,"time":246.9446419999994,"velocity":0.7559055118110236,"duration":0.26273169166665866},{"name":"C#5","midi":73,"time":247.22241999999937,"velocity":0.7559055118110236,"duration":0.26273169166665866},{"name":"C#6","midi":85,"time":247.22241999999937,"velocity":0.7559055118110236,"duration":0.26273169166665866},{"name":"G5","midi":79,"time":247.50019799999936,"velocity":0.7559055118110236,"duration":0.26273169166665866},{"name":"G6","midi":91,"time":247.50019799999936,"velocity":0.7559055118110236,"duration":0.26273169166665866},{"name":"A#4","midi":70,"time":247.77797599999934,"velocity":0.7559055118110236,"duration":0.2627316916666871},{"name":"A#5","midi":82,"time":247.77797599999934,"velocity":0.7559055118110236,"duration":0.2627316916666871},{"name":"C#5","midi":73,"time":248.05575399999935,"velocity":0.7559055118110236,"duration":0.26273169166665866},{"name":"C#6","midi":85,"time":248.05575399999935,"velocity":0.7559055118110236,"duration":0.26273169166665866},{"name":"F#5","midi":78,"time":248.33353199999934,"velocity":0.7559055118110236,"duration":0.26273169166665866},{"name":"F#6","midi":90,"time":248.33353199999934,"velocity":0.7559055118110236,"duration":0.26273169166665866},{"name":"A#4","midi":70,"time":248.61130999999932,"velocity":0.7559055118110236,"duration":0.26273169166665866},{"name":"A#5","midi":82,"time":248.61130999999932,"velocity":0.7559055118110236,"duration":0.26273169166665866},{"name":"C#5","midi":73,"time":248.8890879999993,"velocity":0.7559055118110236,"duration":0.26273169166665866},{"name":"C#6","midi":85,"time":248.8890879999993,"velocity":0.7559055118110236,"duration":0.26273169166665866},{"name":"F5","midi":77,"time":249.1668659999993,"velocity":0.7559055118110236,"duration":0.26273169166665866},{"name":"F6","midi":89,"time":249.1668659999993,"velocity":0.7559055118110236,"duration":0.26273169166665866},{"name":"E5","midi":76,"time":249.44464399999927,"velocity":0.7559055118110236,"duration":1.0543989916666874},{"name":"E6","midi":88,"time":249.44464399999927,"velocity":0.7559055118110236,"duration":1.0543989916666874},{"name":"E4","midi":64,"time":250.5557559999993,"velocity":0.7559055118110236,"duration":0.13078714166667282},{"name":"E5","midi":76,"time":250.5557559999993,"velocity":0.7559055118110236,"duration":0.13078714166667282},{"name":"E4","midi":64,"time":250.6946449999993,"velocity":0.7559055118110236,"duration":0.13078714166667282},{"name":"E5","midi":76,"time":250.6946449999993,"velocity":0.7559055118110236,"duration":0.13078714166667282},{"name":"E4","midi":64,"time":250.8335339999993,"velocity":0.7559055118110236,"duration":0.13078714166667282},{"name":"E5","midi":76,"time":250.8335339999993,"velocity":0.7559055118110236,"duration":0.13078714166667282},{"name":"E4","midi":64,"time":250.9724229999993,"velocity":0.7559055118110236,"duration":0.13078714166667282},{"name":"E5","midi":76,"time":250.9724229999993,"velocity":0.7559055118110236,"duration":0.13078714166667282},{"name":"A#5","midi":82,"time":251.11131199999932,"velocity":0.7559055118110236,"duration":1.054398991666659},{"name":"A#6","midi":94,"time":251.11131199999932,"velocity":0.7559055118110236,"duration":1.054398991666659},{"name":"E5","midi":76,"time":252.2224239999993,"velocity":0.7559055118110236,"duration":0.5266207916666588},{"name":"E6","midi":88,"time":252.2224239999993,"velocity":0.7559055118110236,"duration":0.5266207916666588},{"name":"F#5","midi":78,"time":252.7779799999993,"velocity":0.7559055118110236,"duration":0.26273169166665866},{"name":"F#6","midi":90,"time":252.7779799999993,"velocity":0.7559055118110236,"duration":0.26273169166665866},{"name":"B4","midi":71,"time":253.0557579999993,"velocity":0.7559055118110236,"duration":0.26273169166665866},{"name":"B5","midi":83,"time":253.0557579999993,"velocity":0.7559055118110236,"duration":0.26273169166665866},{"name":"E5","midi":76,"time":253.33353599999927,"velocity":0.7559055118110236,"duration":0.26273169166665866},{"name":"E6","midi":88,"time":253.33353599999927,"velocity":0.7559055118110236,"duration":0.26273169166665866},{"name":"G5","midi":79,"time":253.61131399999925,"velocity":0.7559055118110236,"duration":0.26273169166665866},{"name":"G6","midi":91,"time":253.61131399999925,"velocity":0.7559055118110236,"duration":0.26273169166665866},{"name":"B4","midi":71,"time":253.88909199999924,"velocity":0.7559055118110236,"duration":0.26273169166665866},{"name":"B5","midi":83,"time":253.88909199999924,"velocity":0.7559055118110236,"duration":0.26273169166665866},{"name":"C#6","midi":85,"time":254.16686999999922,"velocity":0.7559055118110236,"duration":0.26273169166665866},{"name":"C#7","midi":97,"time":254.16686999999922,"velocity":0.7559055118110236,"duration":0.26273169166665866},{"name":"D#6","midi":87,"time":254.4446479999992,"velocity":0.7559055118110236,"duration":0.7905098916666873},{"name":"D#7","midi":99,"time":254.4446479999992,"velocity":0.7559055118110236,"duration":0.7905098916666873},{"name":"C#6","midi":85,"time":255.2779819999992,"velocity":0.7559055118110236,"duration":0.7905098916666589},{"name":"C#7","midi":97,"time":255.2779819999992,"velocity":0.7559055118110236,"duration":0.7905098916666589},{"name":"C6","midi":84,"time":256.1113159999992,"velocity":0.7559055118110236,"duration":0.2627316916666018},{"name":"C7","midi":96,"time":256.1113159999992,"velocity":0.7559055118110236,"duration":0.2627316916666018},{"name":"F5","midi":77,"time":256.38909399999915,"velocity":0.7559055118110236,"duration":0.26273169166665866},{"name":"F6","midi":89,"time":256.38909399999915,"velocity":0.7559055118110236,"duration":0.26273169166665866},{"name":"A#5","midi":82,"time":256.66687199999916,"velocity":0.7559055118110236,"duration":0.5266207916666872},{"name":"A#6","midi":94,"time":256.66687199999916,"velocity":0.7559055118110236,"duration":0.5266207916666872},{"name":"G#5","midi":80,"time":257.2224279999992,"velocity":0.7559055118110236,"duration":0.5266207916666872},{"name":"G#6","midi":92,"time":257.2224279999992,"velocity":0.7559055118110236,"duration":0.5266207916666872},{"name":"G5","midi":79,"time":257.7779839999992,"velocity":0.7559055118110236,"duration":0.5266207916666303},{"name":"G6","midi":91,"time":257.7779839999992,"velocity":0.7559055118110236,"duration":0.5266207916666303},{"name":"F5","midi":77,"time":258.3335399999992,"velocity":0.7559055118110236,"duration":0.5266207916666872},{"name":"F6","midi":89,"time":258.3335399999992,"velocity":0.7559055118110236,"duration":0.5266207916666872},{"name":"D#5","midi":75,"time":258.8890959999992,"velocity":0.7559055118110236,"duration":0.5266207916666872},{"name":"D#6","midi":87,"time":258.8890959999992,"velocity":0.7559055118110236,"duration":0.5266207916666872},{"name":"C#5","midi":73,"time":259.4446519999992,"velocity":0.7559055118110236,"duration":0.5266207916666303},{"name":"C#6","midi":85,"time":259.4446519999992,"velocity":0.7559055118110236,"duration":0.5266207916666303},{"name":"B4","midi":71,"time":260.0002079999992,"velocity":0.7559055118110236,"duration":0.5266207916666872},{"name":"B5","midi":83,"time":260.0002079999992,"velocity":0.7559055118110236,"duration":0.5266207916666872},{"name":"A4","midi":69,"time":260.5557639999992,"velocity":0.7559055118110236,"duration":0.5266207916666872},{"name":"A5","midi":81,"time":260.5557639999992,"velocity":0.7559055118110236,"duration":0.5266207916666872},{"name":"G#4","midi":68,"time":261.11131999999924,"velocity":0.7559055118110236,"duration":0.5266207916666303},{"name":"G#5","midi":80,"time":261.11131999999924,"velocity":0.7559055118110236,"duration":0.5266207916666303},{"name":"F#4","midi":66,"time":261.6668759999992,"velocity":0.7559055118110236,"duration":0.5266207916666872},{"name":"F#5","midi":78,"time":261.6668759999992,"velocity":0.7559055118110236,"duration":0.5266207916666872},{"name":"E4","midi":64,"time":262.22243199999923,"velocity":0.7559055118110236,"duration":0.5266207916666872},{"name":"E5","midi":76,"time":262.22243199999923,"velocity":0.7559055118110236,"duration":0.5266207916666872},{"name":"F4","midi":65,"time":262.77798799999925,"velocity":0.7559055118110236,"duration":1.5821771916666307},{"name":"F5","midi":77,"time":262.77798799999925,"velocity":0.7559055118110236,"duration":1.5821771916666307},{"name":"D#4","midi":63,"time":264.4446559999992,"velocity":0.7559055118110236,"duration":0.790509891666602},{"name":"D#5","midi":75,"time":264.4446559999992,"velocity":0.7559055118110236,"duration":0.790509891666602},{"name":"F4","midi":65,"time":265.27798999999914,"velocity":0.7559055118110236,"duration":0.7905098916666589},{"name":"F5","midi":77,"time":265.27798999999914,"velocity":0.7559055118110236,"duration":0.7905098916666589},{"name":"F5","midi":77,"time":266.1113239999991,"velocity":0.7559055118110236,"duration":1.0543989916666305},{"name":"F6","midi":89,"time":266.1113239999991,"velocity":0.7559055118110236,"duration":1.0543989916666305},{"name":"D#5","midi":75,"time":267.2224359999991,"velocity":0.7559055118110236,"duration":1.0543989916666874},{"name":"D#6","midi":87,"time":267.2224359999991,"velocity":0.7559055118110236,"duration":1.0543989916666874},{"name":"F5","midi":77,"time":268.33354799999915,"velocity":0.7559055118110236,"duration":1.0543989916666874},{"name":"F6","midi":89,"time":268.33354799999915,"velocity":0.7559055118110236,"duration":1.0543989916666874},{"name":"G5","midi":79,"time":286.1113399999992,"velocity":0.7559055118110236,"duration":0.1307871416666444},{"name":"F5","midi":77,"time":286.2502289999992,"velocity":0.7559055118110236,"duration":0.0648148666666657},{"name":"G5","midi":79,"time":286.31967349999917,"velocity":0.7559055118110236,"duration":0.0648148666666657},{"name":"G5","midi":79,"time":286.38911799999914,"velocity":0.7559055118110236,"duration":0.1307871416666444},{"name":"F5","midi":77,"time":286.52800699999915,"velocity":0.7559055118110236,"duration":0.1307871416666444},{"name":"E5","midi":76,"time":286.66689599999916,"velocity":0.7559055118110236,"duration":0.1307871416666444},{"name":"D5","midi":74,"time":286.80578499999916,"velocity":0.7559055118110236,"duration":0.1307871416666444},{"name":"C#5","midi":73,"time":286.94467399999917,"velocity":0.7559055118110236,"duration":0.1307871416666444},{"name":"A#4","midi":70,"time":287.0835629999992,"velocity":0.7559055118110236,"duration":0.1307871416666444},{"name":"A4","midi":69,"time":287.2224519999992,"velocity":0.7559055118110236,"duration":0.26273169166665866},{"name":"E5","midi":76,"time":287.5002299999992,"velocity":0.7559055118110236,"duration":0.26273169166665866},{"name":"D5","midi":74,"time":287.7780079999992,"velocity":0.7559055118110236,"duration":0.26273169166665866},{"name":"D5","midi":74,"time":288.33356399999917,"velocity":0.8818897637795275,"duration":0.1307871416666444},{"name":"A4","midi":69,"time":288.6113419999991,"velocity":0.8818897637795275,"duration":0.1307871416666444},{"name":"A#4","midi":70,"time":288.8891199999991,"velocity":0.8818897637795275,"duration":0.1307871416666444},{"name":"G4","midi":67,"time":289.16689799999904,"velocity":0.8818897637795275,"duration":0.1307871416666444},{"name":"G4","midi":67,"time":289.444675999999,"velocity":0.8818897637795275,"duration":0.06828709166666158},{"name":"A4","midi":69,"time":289.51412049999897,"velocity":0.8818897637795275,"duration":0.0648148666666657},{"name":"D5","midi":74,"time":289.72245399999895,"velocity":0.8818897637795275,"duration":0.1307871416666444},{"name":"A4","midi":69,"time":290.0002319999989,"velocity":0.8818897637795275,"duration":0.1307871416666444},{"name":"G4","midi":67,"time":290.1391209999989,"velocity":0.8818897637795275,"duration":0.1307871416666444},{"name":"F4","midi":65,"time":290.2780099999989,"velocity":0.8818897637795275,"duration":0.26273169166665866},{"name":"F4","midi":65,"time":290.5557879999989,"velocity":0.8818897637795275,"duration":0.084490808333328},{"name":"E4","midi":64,"time":290.64143621666557,"velocity":0.8818897637795275,"duration":0.17939829166664367},{"name":"G4","midi":67,"time":290.8335659999989,"velocity":0.8818897637795275,"duration":0.1307871416666444},{"name":"F4","midi":65,"time":291.11134399999884,"velocity":0.8818897637795275,"duration":0.1307871416666444},{"name":"E4","midi":64,"time":291.25023299999884,"velocity":0.8818897637795275,"duration":0.1307871416666444},{"name":"C#4","midi":61,"time":291.38912199999885,"velocity":0.8818897637795275,"duration":0.26273169166665866},{"name":"D4","midi":62,"time":291.66689999999886,"velocity":0.8818897637795275,"duration":0.26273169166665866},{"name":"A#4","midi":70,"time":291.9446779999989,"velocity":0.8818897637795275,"duration":0.1307871416666444},{"name":"A4","midi":69,"time":292.22245599999883,"velocity":0.8818897637795275,"duration":0.1307871416666444},{"name":"G4","midi":67,"time":292.36134499999883,"velocity":0.8818897637795275,"duration":0.1307871416666444},{"name":"A4","midi":69,"time":292.50023399999884,"velocity":0.8818897637795275,"duration":0.26273169166665866},{"name":"E4","midi":64,"time":292.77801199999885,"velocity":0.8818897637795275,"duration":0.1307871416666444},{"name":"C#4","midi":61,"time":293.0557899999988,"velocity":0.8818897637795275,"duration":0.1307871416666444},{"name":"A#4","midi":70,"time":293.33356799999876,"velocity":0.8818897637795275,"duration":0.1307871416666444},{"name":"A4","midi":69,"time":293.47245699999877,"velocity":0.8818897637795275,"duration":0.1307871416666444},{"name":"G4","midi":67,"time":293.6113459999988,"velocity":0.8818897637795275,"duration":0.26273169166665866},{"name":"A4","midi":69,"time":293.8891239999988,"velocity":0.8818897637795275,"duration":0.26273169166665866},{"name":"D5","midi":74,"time":294.1669019999988,"velocity":0.8818897637795275,"duration":0.1307871416666444},{"name":"F5","midi":77,"time":294.44467999999875,"velocity":0.8818897637795275,"duration":0.1307871416666444},{"name":"E5","midi":76,"time":294.58356899999876,"velocity":0.8818897637795275,"duration":0.1307871416666444},{"name":"D5","midi":74,"time":294.72245799999877,"velocity":0.8818897637795275,"duration":0.26273169166665866},{"name":"F5","midi":77,"time":295.0002359999988,"velocity":0.8818897637795275,"duration":0.1307871416666444},{"name":"D5","midi":74,"time":295.27801399999873,"velocity":0.8818897637795275,"duration":0.08680562500001088},{"name":"F5","midi":77,"time":295.3706066666654,"velocity":0.8818897637795275,"duration":0.08680562500001088},{"name":"D5","midi":74,"time":295.4631993333321,"velocity":0.8818897637795275,"duration":0.08680562500001088},{"name":"A#4","midi":70,"time":295.5557919999988,"velocity":0.8818897637795275,"duration":0.1307871416666444},{"name":"G4","midi":67,"time":295.6946809999988,"velocity":0.8818897637795275,"duration":0.1307871416666444},{"name":"E4","midi":64,"time":295.8335699999988,"velocity":0.8818897637795275,"duration":0.26273169166665866},{"name":"A4","midi":69,"time":296.1113479999988,"velocity":0.8818897637795275,"duration":0.1307871416666444},{"name":"A#4","midi":70,"time":296.3891259999988,"velocity":0.8818897637795275,"duration":0.1307871416666444},{"name":"A4","midi":69,"time":296.66690399999874,"velocity":0.8818897637795275,"duration":0.3946762416666729},{"name":"C5","midi":72,"time":297.08357099999876,"velocity":0.8818897637795275,"duration":0.0648148666666657},{"name":"C#5","midi":73,"time":297.15301549999873,"velocity":0.8818897637795275,"duration":0.0648148666666657},{"name":"D5","midi":74,"time":297.2224599999987,"velocity":0.8818897637795275,"duration":0.1307871416666444},{"name":"A4","midi":69,"time":297.50023799999866,"velocity":0.8818897637795275,"duration":0.1307871416666444},{"name":"A#4","midi":70,"time":297.7780159999986,"velocity":0.8818897637795275,"duration":0.1307871416666444},{"name":"G4","midi":67,"time":298.05579399999857,"velocity":0.8818897637795275,"duration":0.1307871416666444},{"name":"G4","midi":67,"time":298.3335719999985,"velocity":0.8818897637795275,"duration":0.06828709166666158},{"name":"A4","midi":69,"time":298.4030164999985,"velocity":0.8818897637795275,"duration":0.0648148666666657},{"name":"D5","midi":74,"time":298.6113499999985,"velocity":0.8818897637795275,"duration":0.1307871416666444},{"name":"A4","midi":69,"time":298.88912799999844,"velocity":0.8818897637795275,"duration":0.1307871416666444},{"name":"G4","midi":67,"time":299.02801699999844,"velocity":0.8818897637795275,"duration":0.1307871416666444},{"name":"F4","midi":65,"time":299.16690599999845,"velocity":0.8818897637795275,"duration":0.26273169166665866},{"name":"F4","midi":65,"time":299.44468399999846,"velocity":0.8818897637795275,"duration":0.084490808333328},{"name":"E4","midi":64,"time":299.5303322166651,"velocity":0.8818897637795275,"duration":0.17939829166664367},{"name":"G4","midi":67,"time":299.7224619999984,"velocity":0.8818897637795275,"duration":0.1307871416666444},{"name":"F4","midi":65,"time":300.00023999999837,"velocity":0.8818897637795275,"duration":0.1307871416666444},{"name":"E4","midi":64,"time":300.1391289999984,"velocity":0.8818897637795275,"duration":0.1307871416666444},{"name":"C#4","midi":61,"time":300.2780179999984,"velocity":0.8818897637795275,"duration":0.26273169166665866},{"name":"D4","midi":62,"time":300.5557959999984,"velocity":0.8818897637795275,"duration":0.26273169166665866},{"name":"A#4","midi":70,"time":300.8335739999984,"velocity":0.8818897637795275,"duration":0.1307871416666444},{"name":"A4","midi":69,"time":301.11135199999836,"velocity":0.8818897637795275,"duration":0.1307871416666444},{"name":"G4","midi":67,"time":301.25024099999837,"velocity":0.8818897637795275,"duration":0.1307871416666444},{"name":"A4","midi":69,"time":301.3891299999984,"velocity":0.8818897637795275,"duration":0.26273169166665866},{"name":"E4","midi":64,"time":301.6669079999984,"velocity":0.8818897637795275,"duration":0.1307871416666444},{"name":"C#4","midi":61,"time":301.94468599999834,"velocity":0.8818897637795275,"duration":0.1307871416666444},{"name":"A#4","midi":70,"time":302.2224639999983,"velocity":0.8818897637795275,"duration":0.1307871416666444},{"name":"A4","midi":69,"time":302.3613529999983,"velocity":0.8818897637795275,"duration":0.1307871416666444},{"name":"G4","midi":67,"time":302.5002419999983,"velocity":0.8818897637795275,"duration":0.26273169166665866},{"name":"A4","midi":69,"time":302.7780199999983,"velocity":0.8818897637795275,"duration":0.26273169166665866},{"name":"D5","midi":74,"time":303.05579799999833,"velocity":0.8818897637795275,"duration":0.1307871416666444},{"name":"F5","midi":77,"time":303.3335759999983,"velocity":0.8818897637795275,"duration":0.1307871416666444},{"name":"E5","midi":76,"time":303.4724649999983,"velocity":0.8818897637795275,"duration":0.1307871416666444},{"name":"D5","midi":74,"time":303.6113539999983,"velocity":0.8818897637795275,"duration":0.26273169166665866},{"name":"A4","midi":69,"time":303.8891319999983,"velocity":0.8818897637795275,"duration":0.06828709166666158},{"name":"A#4","midi":70,"time":303.9585764999983,"velocity":0.8818897637795275,"duration":0.0648148666666657},{"name":"A#4","midi":70,"time":304.16690999999827,"velocity":0.8818897637795275,"duration":0.1307871416666444},{"name":"A4","midi":69,"time":304.3057989999983,"velocity":0.8818897637795275,"duration":0.1307871416666444},{"name":"G4","midi":67,"time":304.4446879999983,"velocity":0.8818897637795275,"duration":0.1307871416666444},{"name":"F4","midi":65,"time":304.5835769999983,"velocity":0.8818897637795275,"duration":0.1307871416666444},{"name":"E4","midi":64,"time":304.7224659999983,"velocity":0.8818897637795275,"duration":0.26273169166665866},{"name":"C#4","midi":61,"time":305.0002439999983,"velocity":0.8818897637795275,"duration":0.26273169166665866},{"name":"A4","midi":69,"time":305.2780219999983,"velocity":0.8818897637795275,"duration":0.26273169166665866},{"name":"D4","midi":62,"time":305.5557999999983,"velocity":0.8818897637795275,"duration":0.26273169166665866},{"name":"D5","midi":74,"time":306.1113559999983,"velocity":0.8818897637795275,"duration":0.26273169166665866},{"name":"D5","midi":74,"time":306.3891339999983,"velocity":0.8818897637795275,"duration":0.1307871416666444},{"name":"C6","midi":84,"time":306.5280229999983,"velocity":0.8818897637795275,"duration":0.1307871416666444},{"name":"A#5","midi":82,"time":306.6669119999983,"velocity":0.8818897637795275,"duration":0.1307871416666444},{"name":"A5","midi":81,"time":306.8058009999983,"velocity":0.8818897637795275,"duration":0.1307871416666444},{"name":"G5","midi":79,"time":306.94468999999833,"velocity":0.8818897637795275,"duration":0.1307871416666444},{"name":"F5","midi":77,"time":307.08357899999834,"velocity":0.8818897637795275,"duration":0.1307871416666444},{"name":"D5","midi":74,"time":307.22246799999834,"velocity":0.8818897637795275,"duration":0.26273169166665866},{"name":"D5","midi":74,"time":307.50024599999836,"velocity":0.8818897637795275,"duration":0.1307871416666444},{"name":"C6","midi":84,"time":307.63913499999836,"velocity":0.8818897637795275,"duration":0.1307871416666444},{"name":"A#5","midi":82,"time":307.77802399999837,"velocity":0.8818897637795275,"duration":0.1307871416666444},{"name":"A5","midi":81,"time":307.9169129999984,"velocity":0.8818897637795275,"duration":0.1307871416666444},{"name":"G5","midi":79,"time":308.0558019999984,"velocity":0.8818897637795275,"duration":0.1307871416666444},{"name":"F5","midi":77,"time":308.1946909999984,"velocity":0.8818897637795275,"duration":0.1307871416666444},{"name":"D5","midi":74,"time":308.3335799999984,"velocity":0.8818897637795275,"duration":0.26273169166665866},{"name":"D5","midi":74,"time":308.6113579999984,"velocity":0.8818897637795275,"duration":0.1307871416666444},{"name":"A5","midi":81,"time":308.7502469999984,"velocity":0.8818897637795275,"duration":0.1307871416666444},{"name":"G5","midi":79,"time":308.8891359999984,"velocity":0.8818897637795275,"duration":0.1307871416666444},{"name":"F5","midi":77,"time":309.0280249999984,"velocity":0.8818897637795275,"duration":0.1307871416666444},{"name":"E5","midi":76,"time":309.1669139999984,"velocity":0.8818897637795275,"duration":0.1307871416666444},{"name":"D5","midi":74,"time":309.30580299999843,"velocity":0.8818897637795275,"duration":0.1307871416666444},{"name":"A4","midi":69,"time":309.44469199999844,"velocity":0.8818897637795275,"duration":0.26273169166665866},{"name":"D5","midi":74,"time":309.72246999999845,"velocity":0.8818897637795275,"duration":0.1307871416666444},{"name":"F5","midi":77,"time":309.86135899999846,"velocity":0.8818897637795275,"duration":0.26273169166665866},{"name":"E5","midi":76,"time":310.13913699999847,"velocity":0.8818897637795275,"duration":0.1307871416666444},{"name":"D5","midi":74,"time":310.2780259999985,"velocity":0.8818897637795275,"duration":0.1307871416666444},{"name":"C5","midi":72,"time":310.4169149999985,"velocity":0.8818897637795275,"duration":0.1307871416666444},{"name":"D5","midi":74,"time":315.00025199999845,"velocity":0.8818897637795275,"duration":0.26273169166665866},{"name":"D5","midi":74,"time":315.27802999999847,"velocity":0.8818897637795275,"duration":0.1307871416666444},{"name":"C6","midi":84,"time":315.4169189999985,"velocity":0.8818897637795275,"duration":0.1307871416666444},{"name":"A#5","midi":82,"time":315.5558079999985,"velocity":0.8818897637795275,"duration":0.1307871416666444},{"name":"A5","midi":81,"time":315.6946969999985,"velocity":0.8818897637795275,"duration":0.1307871416666444},{"name":"G5","midi":79,"time":315.8335859999985,"velocity":0.8818897637795275,"duration":0.1307871416666444},{"name":"F5","midi":77,"time":315.9724749999985,"velocity":0.8818897637795275,"duration":0.1307871416666444},{"name":"D5","midi":74,"time":316.1113639999985,"velocity":0.8818897637795275,"duration":0.26273169166665866},{"name":"D5","midi":74,"time":316.3891419999985,"velocity":0.8818897637795275,"duration":0.1307871416666444},{"name":"C6","midi":84,"time":316.5280309999985,"velocity":0.8818897637795275,"duration":0.1307871416666444},{"name":"A#5","midi":82,"time":316.6669199999985,"velocity":0.8818897637795275,"duration":0.1307871416666444},{"name":"A5","midi":81,"time":316.80580899999853,"velocity":0.8818897637795275,"duration":0.1307871416666444},{"name":"G5","midi":79,"time":316.94469799999854,"velocity":0.8818897637795275,"duration":0.1307871416666444},{"name":"F5","midi":77,"time":317.08358699999854,"velocity":0.8818897637795275,"duration":0.1307871416666444},{"name":"D5","midi":74,"time":317.22247599999855,"velocity":0.8818897637795275,"duration":0.26273169166665866},{"name":"D5","midi":74,"time":317.50025399999856,"velocity":0.8818897637795275,"duration":0.1307871416666444},{"name":"A5","midi":81,"time":317.63914299999857,"velocity":0.8818897637795275,"duration":0.1307871416666444},{"name":"G5","midi":79,"time":317.7780319999986,"velocity":0.8818897637795275,"duration":0.1307871416666444},{"name":"F5","midi":77,"time":317.9169209999986,"velocity":0.8818897637795275,"duration":0.1307871416666444},{"name":"E5","midi":76,"time":318.0558099999986,"velocity":0.8818897637795275,"duration":0.1307871416666444},{"name":"D5","midi":74,"time":318.1946989999986,"velocity":0.8818897637795275,"duration":0.1307871416666444},{"name":"A4","midi":69,"time":318.3335879999986,"velocity":0.8818897637795275,"duration":0.26273169166665866},{"name":"D5","midi":74,"time":318.6113659999986,"velocity":0.8818897637795275,"duration":0.1307871416666444},{"name":"F5","midi":77,"time":318.7502549999986,"velocity":0.8818897637795275,"duration":0.26273169166665866},{"name":"E5","midi":76,"time":319.02803299999863,"velocity":0.8818897637795275,"duration":0.1307871416666444},{"name":"D5","midi":74,"time":319.16692199999864,"velocity":0.8818897637795275,"duration":0.1307871416666444},{"name":"C5","midi":72,"time":319.30581099999864,"velocity":0.8818897637795275,"duration":0.1307871416666444},{"name":"F5","midi":77,"time":319.44469999999865,"velocity":0.8818897637795275,"duration":0.1307871416666444},{"name":"F6","midi":89,"time":319.44469999999865,"velocity":0.8818897637795275,"duration":0.1307871416666444},{"name":"D5","midi":74,"time":319.58358899999865,"velocity":0.8818897637795275,"duration":0.1307871416666444},{"name":"D6","midi":86,"time":319.58358899999865,"velocity":0.8818897637795275,"duration":0.1307871416666444},{"name":"G5","midi":79,"time":319.72247799999866,"velocity":0.8818897637795275,"duration":0.1307871416666444},{"name":"G6","midi":91,"time":319.72247799999866,"velocity":0.8818897637795275,"duration":0.1307871416666444},{"name":"D5","midi":74,"time":319.86136699999867,"velocity":0.8818897637795275,"duration":0.1307871416666444},{"name":"D6","midi":86,"time":319.86136699999867,"velocity":0.8818897637795275,"duration":0.1307871416666444},{"name":"A5","midi":81,"time":320.00025599999867,"velocity":0.8818897637795275,"duration":0.1307871416666444},{"name":"A6","midi":93,"time":320.00025599999867,"velocity":0.8818897637795275,"duration":0.1307871416666444},{"name":"D5","midi":74,"time":320.1391449999987,"velocity":0.8818897637795275,"duration":0.1307871416666444},{"name":"D6","midi":86,"time":320.1391449999987,"velocity":0.8818897637795275,"duration":0.1307871416666444},{"name":"F5","midi":77,"time":320.2780339999987,"velocity":0.8818897637795275,"duration":0.1307871416666444},{"name":"F6","midi":89,"time":320.2780339999987,"velocity":0.8818897637795275,"duration":0.1307871416666444},{"name":"D5","midi":74,"time":320.4169229999987,"velocity":0.8818897637795275,"duration":0.1307871416666444},{"name":"D6","midi":86,"time":320.4169229999987,"velocity":0.8818897637795275,"duration":0.1307871416666444},{"name":"F5","midi":77,"time":320.5558119999987,"velocity":0.8818897637795275,"duration":0.1307871416666444},{"name":"F6","midi":89,"time":320.5558119999987,"velocity":0.8818897637795275,"duration":0.1307871416666444},{"name":"D5","midi":74,"time":320.6947009999987,"velocity":0.8818897637795275,"duration":0.1307871416666444},{"name":"D6","midi":86,"time":320.6947009999987,"velocity":0.8818897637795275,"duration":0.1307871416666444},{"name":"G5","midi":79,"time":320.8335899999987,"velocity":0.8818897637795275,"duration":0.1307871416666444},{"name":"G6","midi":91,"time":320.8335899999987,"velocity":0.8818897637795275,"duration":0.1307871416666444},{"name":"D5","midi":74,"time":320.9724789999987,"velocity":0.8818897637795275,"duration":0.1307871416666444},{"name":"D6","midi":86,"time":320.9724789999987,"velocity":0.8818897637795275,"duration":0.1307871416666444},{"name":"A5","midi":81,"time":321.1113679999987,"velocity":0.8818897637795275,"duration":0.1307871416666444},{"name":"A6","midi":93,"time":321.1113679999987,"velocity":0.8818897637795275,"duration":0.1307871416666444},{"name":"D5","midi":74,"time":321.2502569999987,"velocity":0.8818897637795275,"duration":0.1307871416666444},{"name":"D6","midi":86,"time":321.2502569999987,"velocity":0.8818897637795275,"duration":0.1307871416666444},{"name":"D6","midi":86,"time":321.38914599999873,"velocity":0.8818897637795275,"duration":0.13773159166669302},{"name":"D7","midi":98,"time":321.38914599999873,"velocity":0.8818897637795275,"duration":0.13773159166669302},{"name":"D5","midi":74,"time":324.44470399999875,"velocity":0.6299212598425197,"duration":0.13773159166669302},{"name":"D5","midi":74,"time":324.72248199999876,"velocity":0.6299212598425197,"duration":0.13773159166669302},{"name":"D5","midi":74,"time":325.0002599999988,"velocity":0.6929133858267716,"duration":0.13773159166669302},{"name":"D5","midi":74,"time":325.2780379999988,"velocity":0.7559055118110236,"duration":0.13773159166669302},{"name":"D6","midi":86,"time":325.2780379999988,"velocity":0.7559055118110236,"duration":0.13773159166669302},{"name":"D5","midi":74,"time":325.5558159999988,"velocity":0.8188976377952756,"duration":0.13773159166669302},{"name":"D6","midi":86,"time":325.5558159999988,"velocity":0.8188976377952756,"duration":0.13773159166669302},{"name":"D5","midi":74,"time":325.8335939999988,"velocity":0.8818897637795275,"duration":0.13773159166669302},{"name":"D6","midi":86,"time":325.8335939999988,"velocity":0.8818897637795275,"duration":0.13773159166669302},{"name":"C#5","midi":73,"time":326.66692799999885,"velocity":0.6299212598425197,"duration":0.13773159166669302},{"name":"C#5","midi":73,"time":326.94470599999886,"velocity":0.6299212598425197,"duration":0.13773159166669302},{"name":"C#5","midi":73,"time":327.2224839999989,"velocity":0.6929133858267716,"duration":0.13773159166669302},{"name":"C#5","midi":73,"time":327.5002619999989,"velocity":0.7559055118110236,"duration":0.13773159166669302},{"name":"C#6","midi":85,"time":327.5002619999989,"velocity":0.7559055118110236,"duration":0.13773159166669302},{"name":"C#5","midi":73,"time":327.7780399999989,"velocity":0.8188976377952756,"duration":0.13773159166669302},{"name":"C#6","midi":85,"time":327.7780399999989,"velocity":0.8188976377952756,"duration":0.13773159166669302},{"name":"C#5","midi":73,"time":328.0558179999989,"velocity":0.8818897637795275,"duration":0.13773159166669302},{"name":"C#6","midi":85,"time":328.0558179999989,"velocity":0.8818897637795275,"duration":0.13773159166669302},{"name":"D5","midi":74,"time":328.88915199999894,"velocity":0.6299212598425197,"duration":0.13773159166669302},{"name":"D5","midi":74,"time":329.16692999999896,"velocity":0.6299212598425197,"duration":0.13773159166669302},{"name":"D5","midi":74,"time":329.44470799999897,"velocity":0.6929133858267716,"duration":0.13773159166669302},{"name":"D5","midi":74,"time":329.722485999999,"velocity":0.7559055118110236,"duration":0.13773159166669302},{"name":"D6","midi":86,"time":329.722485999999,"velocity":0.7559055118110236,"duration":0.13773159166669302},{"name":"D5","midi":74,"time":330.000263999999,"velocity":0.8188976377952756,"duration":0.13773159166669302},{"name":"D6","midi":86,"time":330.000263999999,"velocity":0.8188976377952756,"duration":0.13773159166669302},{"name":"D5","midi":74,"time":330.278041999999,"velocity":0.8818897637795275,"duration":0.13773159166669302},{"name":"D6","midi":86,"time":330.278041999999,"velocity":0.8818897637795275,"duration":0.13773159166669302},{"name":"C#5","midi":73,"time":331.11137599999904,"velocity":0.6299212598425197,"duration":0.13773159166669302},{"name":"C#5","midi":73,"time":331.38915399999905,"velocity":0.6299212598425197,"duration":0.13773159166669302},{"name":"C#5","midi":73,"time":331.66693199999906,"velocity":0.6929133858267716,"duration":0.13773159166669302},{"name":"C#5","midi":73,"time":331.9447099999991,"velocity":0.7559055118110236,"duration":0.13773159166669302},{"name":"C#6","midi":85,"time":331.9447099999991,"velocity":0.7559055118110236,"duration":0.13773159166669302},{"name":"C#5","midi":73,"time":332.2224879999991,"velocity":0.8188976377952756,"duration":0.13773159166669302},{"name":"C#6","midi":85,"time":332.2224879999991,"velocity":0.8188976377952756,"duration":0.13773159166669302},{"name":"C#5","midi":73,"time":332.5002659999991,"velocity":0.8818897637795275,"duration":0.13773159166669302},{"name":"C#6","midi":85,"time":332.5002659999991,"velocity":0.8818897637795275,"duration":0.13773159166669302},{"name":"D1","midi":26,"time":332.7780439999991,"velocity":0.7559055118110236,"duration":0.1307871416666444},{"name":"A1","midi":33,"time":332.9169329999991,"velocity":0.7559055118110236,"duration":0.1307871416666444},{"name":"G#1","midi":32,"time":333.0558219999991,"velocity":0.7637795275590551,"duration":0.1307871416666444},{"name":"G1","midi":31,"time":333.19471099999913,"velocity":0.7637795275590551,"duration":0.1307871416666444},{"name":"D2","midi":38,"time":333.33359999999914,"velocity":0.7716535433070866,"duration":0.1307871416666444},{"name":"C#2","midi":37,"time":333.47248899999914,"velocity":0.7716535433070866,"duration":0.1307871416666444},{"name":"C2","midi":36,"time":333.61137799999915,"velocity":0.7795275590551181,"duration":0.1307871416666444},{"name":"G2","midi":43,"time":333.75026699999916,"velocity":0.7795275590551181,"duration":0.1307871416666444},{"name":"F#2","midi":42,"time":333.88915599999916,"velocity":0.7874015748031497,"duration":0.1307871416666444},{"name":"F2","midi":41,"time":334.02804499999917,"velocity":0.7874015748031497,"duration":0.1307871416666444},{"name":"D2","midi":38,"time":334.1669339999992,"velocity":0.7952755905511811,"duration":0.1307871416666444},{"name":"C2","midi":36,"time":334.3058229999992,"velocity":0.7952755905511811,"duration":0.1307871416666444},{"name":"A1","midi":33,"time":334.4447119999992,"velocity":0.8031496062992126,"duration":0.1307871416666444},{"name":"C2","midi":36,"time":334.5836009999992,"velocity":0.8031496062992126,"duration":0.1307871416666444},{"name":"A1","midi":33,"time":334.7224899999992,"velocity":0.8110236220472441,"duration":0.1307871416666444},{"name":"E1","midi":28,"time":334.8613789999992,"velocity":0.8110236220472441,"duration":0.1307871416666444},{"name":"D1","midi":26,"time":335.0002679999992,"velocity":0.8188976377952756,"duration":0.1307871416666444},{"name":"A1","midi":33,"time":335.1391569999992,"velocity":0.8188976377952756,"duration":0.1307871416666444},{"name":"G#1","midi":32,"time":335.2780459999992,"velocity":0.8267716535433071,"duration":0.1307871416666444},{"name":"G1","midi":31,"time":335.4169349999992,"velocity":0.8267716535433071,"duration":0.1307871416666444},{"name":"D2","midi":38,"time":335.55582399999923,"velocity":0.8346456692913385,"duration":0.1307871416666444},{"name":"C#2","midi":37,"time":335.69471299999924,"velocity":0.8346456692913385,"duration":0.1307871416666444},{"name":"C2","midi":36,"time":335.83360199999925,"velocity":0.84251968503937,"duration":0.1307871416666444},{"name":"G2","midi":43,"time":335.97249099999925,"velocity":0.84251968503937,"duration":0.1307871416666444},{"name":"F#2","midi":42,"time":336.11137999999926,"velocity":0.8503937007874016,"duration":0.1307871416666444},{"name":"F2","midi":41,"time":336.25026899999926,"velocity":0.8503937007874016,"duration":0.1307871416666444},{"name":"D2","midi":38,"time":336.38915799999927,"velocity":0.8582677165354331,"duration":0.1307871416666444},{"name":"C2","midi":36,"time":336.5280469999993,"velocity":0.8582677165354331,"duration":0.1307871416666444},{"name":"A1","midi":33,"time":336.6669359999993,"velocity":0.8661417322834646,"duration":0.1307871416666444},{"name":"C2","midi":36,"time":336.8058249999993,"velocity":0.8661417322834646,"duration":0.1307871416666444},{"name":"A1","midi":33,"time":336.9447139999993,"velocity":0.8740157480314961,"duration":0.1307871416666444},{"name":"E1","midi":28,"time":337.0836029999993,"velocity":0.8740157480314961,"duration":0.1307871416666444},{"name":"D1","midi":26,"time":337.2224919999993,"velocity":0.7559055118110236,"duration":0.1307871416666444},{"name":"A1","midi":33,"time":337.3613809999993,"velocity":0.7559055118110236,"duration":0.1307871416666444},{"name":"G#1","midi":32,"time":337.5002699999993,"velocity":0.7637795275590551,"duration":0.1307871416666444},{"name":"G1","midi":31,"time":337.6391589999993,"velocity":0.7637795275590551,"duration":0.1307871416666444},{"name":"D2","midi":38,"time":337.77804799999933,"velocity":0.7716535433070866,"duration":0.1307871416666444},{"name":"C#2","midi":37,"time":337.91693699999934,"velocity":0.7716535433070866,"duration":0.1307871416666444},{"name":"C2","midi":36,"time":338.05582599999934,"velocity":0.7795275590551181,"duration":0.1307871416666444},{"name":"G2","midi":43,"time":338.19471499999935,"velocity":0.7795275590551181,"duration":0.1307871416666444},{"name":"F#2","midi":42,"time":338.33360399999935,"velocity":0.7874015748031497,"duration":0.1307871416666444},{"name":"F2","midi":41,"time":338.47249299999936,"velocity":0.7874015748031497,"duration":0.1307871416666444},{"name":"D2","midi":38,"time":338.61138199999937,"velocity":0.7952755905511811,"duration":0.1307871416666444},{"name":"C2","midi":36,"time":338.7502709999994,"velocity":0.7952755905511811,"duration":0.1307871416666444},{"name":"A1","midi":33,"time":338.8891599999994,"velocity":0.8031496062992126,"duration":0.1307871416666444},{"name":"C2","midi":36,"time":339.0280489999994,"velocity":0.8031496062992126,"duration":0.1307871416666444},{"name":"A1","midi":33,"time":339.1669379999994,"velocity":0.8110236220472441,"duration":0.1307871416666444},{"name":"E1","midi":28,"time":339.3058269999994,"velocity":0.8110236220472441,"duration":0.1307871416666444},{"name":"D1","midi":26,"time":339.4447159999994,"velocity":0.8188976377952756,"duration":0.1307871416666444},{"name":"A1","midi":33,"time":339.5836049999994,"velocity":0.8188976377952756,"duration":0.1307871416666444},{"name":"G#1","midi":32,"time":339.7224939999994,"velocity":0.8267716535433071,"duration":0.1307871416666444},{"name":"G1","midi":31,"time":339.8613829999994,"velocity":0.8267716535433071,"duration":0.1307871416666444},{"name":"D2","midi":38,"time":340.0002719999994,"velocity":0.8346456692913385,"duration":0.1307871416666444},{"name":"C#2","midi":37,"time":340.13916099999943,"velocity":0.8346456692913385,"duration":0.1307871416666444},{"name":"C2","midi":36,"time":340.27804999999944,"velocity":0.84251968503937,"duration":0.1307871416666444},{"name":"G2","midi":43,"time":340.41693899999945,"velocity":0.84251968503937,"duration":0.1307871416666444},{"name":"F#2","midi":42,"time":340.55582799999945,"velocity":0.8503937007874016,"duration":0.1307871416666444},{"name":"F2","midi":41,"time":340.69471699999946,"velocity":0.8503937007874016,"duration":0.1307871416666444},{"name":"D2","midi":38,"time":340.83360599999946,"velocity":0.8582677165354331,"duration":0.1307871416666444},{"name":"C2","midi":36,"time":340.97249499999947,"velocity":0.8582677165354331,"duration":0.1307871416666444},{"name":"A1","midi":33,"time":341.1113839999995,"velocity":0.8661417322834646,"duration":0.1307871416666444},{"name":"C2","midi":36,"time":341.2502729999995,"velocity":0.8661417322834646,"duration":0.1307871416666444},{"name":"A1","midi":33,"time":341.3891619999995,"velocity":0.8740157480314961,"duration":0.1307871416666444},{"name":"E1","midi":28,"time":341.5280509999995,"velocity":0.8740157480314961,"duration":0.1307871416666444},{"name":"D1","midi":26,"time":341.6669399999995,"velocity":0.8818897637795275,"duration":0.1307871416666444},{"name":"A1","midi":33,"time":341.8058289999995,"velocity":0.8818897637795275,"duration":0.1307871416666444},{"name":"G#1","midi":32,"time":341.9447179999995,"velocity":0.8740157480314961,"duration":0.1307871416666444},{"name":"G1","midi":31,"time":342.0836069999995,"velocity":0.8661417322834646,"duration":0.1307871416666444},{"name":"D2","midi":38,"time":342.2224959999995,"velocity":0.8582677165354331,"duration":0.1307871416666444},{"name":"C#2","midi":37,"time":342.36138499999953,"velocity":0.8503937007874016,"duration":0.1307871416666444},{"name":"C2","midi":36,"time":342.50027399999954,"velocity":0.84251968503937,"duration":0.1307871416666444},{"name":"G2","midi":43,"time":342.63916299999954,"velocity":0.8346456692913385,"duration":0.1307871416666444},{"name":"F#2","midi":42,"time":342.77805199999955,"velocity":0.8267716535433071,"duration":0.1307871416666444},{"name":"F2","midi":41,"time":342.91694099999955,"velocity":0.8188976377952756,"duration":0.1307871416666444},{"name":"D2","midi":38,"time":343.05582999999956,"velocity":0.8110236220472441,"duration":0.1307871416666444},{"name":"C2","midi":36,"time":343.19471899999957,"velocity":0.8031496062992126,"duration":0.1307871416666444},{"name":"A1","midi":33,"time":343.3336079999996,"velocity":0.7952755905511811,"duration":0.1307871416666444},{"name":"C2","midi":36,"time":343.4724969999996,"velocity":0.7874015748031497,"duration":0.1307871416666444},{"name":"A1","midi":33,"time":343.6113859999996,"velocity":0.7795275590551181,"duration":0.1307871416666444},{"name":"E1","midi":28,"time":343.7502749999996,"velocity":0.7716535433070866,"duration":0.1307871416666444},{"name":"D1","midi":26,"time":343.8891639999996,"velocity":0.7637795275590551,"duration":0.1307871416666444},{"name":"A1","midi":33,"time":344.0280529999996,"velocity":0.7559055118110236,"duration":0.1307871416666444},{"name":"G#1","midi":32,"time":344.1669419999996,"velocity":0.7480314960629921,"duration":0.1307871416666444},{"name":"G1","midi":31,"time":344.3058309999996,"velocity":0.7401574803149606,"duration":0.1307871416666444},{"name":"D2","midi":38,"time":344.4447199999996,"velocity":0.7322834645669292,"duration":0.1307871416666444},{"name":"C#2","midi":37,"time":344.5836089999996,"velocity":0.7244094488188977,"duration":0.1307871416666444},{"name":"C2","midi":36,"time":344.72249799999963,"velocity":0.7165354330708661,"duration":0.1307871416666444},{"name":"G2","midi":43,"time":344.86138699999964,"velocity":0.7086614173228346,"duration":0.1307871416666444},{"name":"F#2","midi":42,"time":345.00027599999964,"velocity":0.7007874015748031,"duration":0.1307871416666444},{"name":"F2","midi":41,"time":345.13916499999965,"velocity":0.6929133858267716,"duration":0.1307871416666444},{"name":"D2","midi":38,"time":345.27805399999966,"velocity":0.6850393700787402,"duration":0.1307871416666444},{"name":"C2","midi":36,"time":345.41694299999966,"velocity":0.6771653543307087,"duration":0.1307871416666444},{"name":"A1","midi":33,"time":345.55583199999967,"velocity":0.6692913385826772,"duration":0.1307871416666444},{"name":"C2","midi":36,"time":345.6947209999997,"velocity":0.6614173228346457,"duration":0.1307871416666444},{"name":"A1","midi":33,"time":345.8336099999997,"velocity":0.6535433070866141,"duration":0.1307871416666444},{"name":"E1","midi":28,"time":345.9724989999997,"velocity":0.6456692913385826,"duration":0.1307871416666444},{"name":"D1","midi":26,"time":346.1113879999997,"velocity":0.6377952755905512,"duration":0.1307871416666444},{"name":"A1","midi":33,"time":346.2502769999997,"velocity":0.6299212598425197,"duration":0.1307871416666444},{"name":"G#1","midi":32,"time":346.3891659999997,"velocity":0.6220472440944882,"duration":0.1307871416666444},{"name":"G1","midi":31,"time":346.5280549999997,"velocity":0.6141732283464567,"duration":0.1307871416666444},{"name":"D2","midi":38,"time":346.6669439999997,"velocity":0.6062992125984252,"duration":0.1307871416666444},{"name":"C#2","midi":37,"time":346.8058329999997,"velocity":0.5984251968503937,"duration":0.1307871416666444},{"name":"C2","midi":36,"time":346.94472199999973,"velocity":0.5905511811023622,"duration":0.1307871416666444},{"name":"G2","midi":43,"time":347.08361099999973,"velocity":0.5826771653543307,"duration":0.1307871416666444},{"name":"F#2","midi":42,"time":347.22249999999974,"velocity":0.5748031496062992,"duration":0.1307871416666444},{"name":"F2","midi":41,"time":347.36138899999975,"velocity":0.5669291338582677,"duration":0.1307871416666444},{"name":"D2","midi":38,"time":347.50027799999975,"velocity":0.5590551181102362,"duration":0.1307871416666444},{"name":"C2","midi":36,"time":347.63916699999976,"velocity":0.5511811023622047,"duration":0.1307871416666444},{"name":"A1","midi":33,"time":347.77805599999976,"velocity":0.5433070866141733,"duration":0.1307871416666444},{"name":"C2","midi":36,"time":347.91694499999977,"velocity":0.5354330708661418,"duration":0.1307871416666444},{"name":"A1","midi":33,"time":348.0558339999998,"velocity":0.5275590551181102,"duration":0.1307871416666444},{"name":"E1","midi":28,"time":348.1947229999998,"velocity":0.5196850393700787,"duration":0.1307871416666444},{"name":"D1","midi":26,"time":348.3336119999998,"velocity":0.5118110236220472,"duration":0.1307871416666444},{"name":"A1","midi":33,"time":348.4725009999998,"velocity":0.5039370078740157,"duration":0.1307871416666444},{"name":"G#1","midi":32,"time":348.6113899999998,"velocity":0.49606299212598426,"duration":0.1307871416666444},{"name":"G1","midi":31,"time":348.7502789999998,"velocity":0.4881889763779528,"duration":0.1307871416666444},{"name":"D2","midi":38,"time":348.8891679999998,"velocity":0.48031496062992124,"duration":0.1307871416666444},{"name":"C#2","midi":37,"time":349.0280569999998,"velocity":0.47244094488188976,"duration":0.1307871416666444},{"name":"C2","midi":36,"time":349.1669459999998,"velocity":0.4645669291338583,"duration":0.1307871416666444},{"name":"G2","midi":43,"time":349.30583499999983,"velocity":0.4566929133858268,"duration":0.1307871416666444},{"name":"F#2","midi":42,"time":349.44472399999984,"velocity":0.44881889763779526,"duration":0.1307871416666444},{"name":"F2","midi":41,"time":349.58361299999984,"velocity":0.4409448818897638,"duration":0.1307871416666444},{"name":"D2","midi":38,"time":349.72250199999985,"velocity":0.4330708661417323,"duration":0.1307871416666444},{"name":"C2","midi":36,"time":349.86139099999986,"velocity":0.4251968503937008,"duration":0.1307871416666444},{"name":"A1","midi":33,"time":350.00027999999986,"velocity":0.41732283464566927,"duration":0.1307871416666444},{"name":"C2","midi":36,"time":350.13916899999987,"velocity":0.4094488188976378,"duration":0.1307871416666444},{"name":"A1","midi":33,"time":350.2780579999999,"velocity":0.4015748031496063,"duration":0.1307871416666444},{"name":"E1","midi":28,"time":350.4169469999999,"velocity":0.3858267716535433,"duration":0.1307871416666444},{"name":"A2","midi":45,"time":357.22250799999983,"velocity":0.6299212598425197,"duration":0.5266207916666872},{"name":"E3","midi":52,"time":357.22250799999983,"velocity":0.6299212598425197,"duration":0.5266207916666872},{"name":"A3","midi":57,"time":357.22250799999983,"velocity":0.6299212598425197,"duration":0.5266207916666872},{"name":"A1","midi":33,"time":357.77806399999986,"velocity":0.6929133858267716,"duration":0.5266207916666872},{"name":"A2","midi":45,"time":357.77806399999986,"velocity":0.6929133858267716,"duration":0.5266207916666872},{"name":"A1","midi":33,"time":358.3336199999999,"velocity":0.7559055118110236,"duration":0.5266207916666872},{"name":"A2","midi":45,"time":358.3336199999999,"velocity":0.7559055118110236,"duration":0.5266207916666872},{"name":"A1","midi":33,"time":358.8891759999999,"velocity":0.8188976377952756,"duration":0.26273169166665866},{"name":"A2","midi":45,"time":358.8891759999999,"velocity":0.8188976377952756,"duration":0.26273169166665866},{"name":"A2","midi":45,"time":359.1669539999999,"velocity":0.8503937007874016,"duration":0.1307871416666444},{"name":"E3","midi":52,"time":359.1669539999999,"velocity":0.8503937007874016,"duration":0.1307871416666444},{"name":"A3","midi":57,"time":359.1669539999999,"velocity":0.8503937007874016,"duration":0.1307871416666444},{"name":"A2","midi":45,"time":359.3058429999999,"velocity":0.8661417322834646,"duration":0.1307871416666444},{"name":"E3","midi":52,"time":359.3058429999999,"velocity":0.8661417322834646,"duration":0.1307871416666444},{"name":"A3","midi":57,"time":359.3058429999999,"velocity":0.8661417322834646,"duration":0.1307871416666444},{"name":"F3","midi":53,"time":359.44473199999993,"velocity":0.8818897637795275,"duration":0.5266207916666303},{"name":"D3","midi":50,"time":360.0002879999999,"velocity":0.8818897637795275,"duration":0.26273169166665866},{"name":"A2","midi":45,"time":360.2780659999999,"velocity":0.8818897637795275,"duration":0.26273169166665866},{"name":"C3","midi":48,"time":360.5558439999999,"velocity":0.8818897637795275,"duration":0.1307871416666444},{"name":"D3","midi":50,"time":360.6947329999999,"velocity":0.8818897637795275,"duration":0.1307871416666444},{"name":"F3","midi":53,"time":360.9725109999999,"velocity":0.8818897637795275,"duration":0.3946762416666729},{"name":"D3","midi":50,"time":361.3891779999999,"velocity":0.8818897637795275,"duration":0.26273169166665866},{"name":"E3","midi":52,"time":363.8891799999999,"velocity":0.8818897637795275,"duration":0.1307871416666444},{"name":"C#3","midi":49,"time":364.0280689999999,"velocity":0.8818897637795275,"duration":0.1307871416666444},{"name":"F3","midi":53,"time":364.1669579999999,"velocity":0.8818897637795275,"duration":0.1307871416666444},{"name":"G3","midi":55,"time":364.3058469999999,"velocity":0.8818897637795275,"duration":0.1307871416666444},{"name":"A3","midi":57,"time":364.7225139999999,"velocity":0.8818897637795275,"duration":0.1307871416666444},{"name":"G3","midi":55,"time":364.8614029999999,"velocity":0.8818897637795275,"duration":0.1307871416666444},{"name":"A#3","midi":58,"time":365.0002919999999,"velocity":0.8818897637795275,"duration":0.1307871416666444},{"name":"C4","midi":60,"time":365.1391809999999,"velocity":0.8818897637795275,"duration":0.1307871416666444},{"name":"A#3","midi":58,"time":365.2780699999999,"velocity":0.8818897637795275,"duration":0.0648148666666657},{"name":"A#3","midi":58,"time":365.3475144999999,"velocity":0.8818897637795275,"duration":0.0648148666666657},{"name":"A#3","midi":58,"time":365.41695899999985,"velocity":0.8818897637795275,"duration":0.0648148666666657},{"name":"A#3","midi":58,"time":365.4864034999998,"velocity":0.8818897637795275,"duration":0.0648148666666657},{"name":"A#3","midi":58,"time":365.5558479999998,"velocity":0.8818897637795275,"duration":0.0648148666666657},{"name":"A#3","midi":58,"time":365.6252924999998,"velocity":0.8818897637795275,"duration":0.0648148666666657},{"name":"A#3","midi":58,"time":365.69473699999975,"velocity":0.8818897637795275,"duration":0.03356484166664586},{"name":"A#3","midi":58,"time":365.7641814999997,"velocity":0.8818897637795275,"duration":0.03356484166664586},{"name":"A#3","midi":58,"time":365.8336259999997,"velocity":0.8818897637795275,"duration":0.03356484166664586},{"name":"A#3","midi":58,"time":365.90307049999967,"velocity":0.8818897637795275,"duration":0.03356484166664586},{"name":"A#3","midi":58,"time":365.97251499999965,"velocity":0.8818897637795275,"duration":0.03356484166664586},{"name":"A#3","midi":58,"time":366.0419594999996,"velocity":0.8818897637795275,"duration":0.03356484166664586},{"name":"A3","midi":57,"time":366.1114039999996,"velocity":0.8818897637795275,"duration":0.26273169166665866},{"name":"A2","midi":45,"time":366.3891819999996,"velocity":0.8818897637795275,"duration":0.1307871416666444},{"name":"G3","midi":55,"time":366.5280709999996,"velocity":0.8818897637795275,"duration":0.3946762416666729},{"name":"F3","midi":53,"time":366.94473799999963,"velocity":0.8818897637795275,"duration":0.1307871416666444},{"name":"G3","midi":55,"time":367.08362699999964,"velocity":0.8818897637795275,"duration":0.26273169166665866},{"name":"G#3","midi":56,"time":367.36140499999965,"velocity":0.8818897637795275,"duration":0.1307871416666444},{"name":"G3","midi":55,"time":367.50029399999966,"velocity":0.8818897637795275,"duration":0.1307871416666444},{"name":"F3","midi":53,"time":367.63918299999966,"velocity":0.8818897637795275,"duration":0.1307871416666444},{"name":"G3","midi":55,"time":367.77807199999967,"velocity":0.8818897637795275,"duration":0.13773159166669302},{"name":"A3","midi":57,"time":368.0558499999997,"velocity":0.8818897637795275,"duration":0.13773159166669302},{"name":"F2","midi":41,"time":368.3336279999997,"velocity":0.8818897637795275,"duration":0.3946762416666729},{"name":"F1","midi":29,"time":368.7502949999997,"velocity":0.8818897637795275,"duration":0.3946762416666729},{"name":"F2","midi":41,"time":369.5836289999997,"velocity":0.8818897637795275,"duration":0.3946762416666729},{"name":"A#2","midi":46,"time":370.0002959999997,"velocity":0.8818897637795275,"duration":0.3946762416666729},{"name":"D3","midi":50,"time":370.4169629999997,"velocity":0.8818897637795275,"duration":0.1307871416666444},{"name":"C3","midi":48,"time":370.55585199999973,"velocity":0.8818897637795275,"duration":0.26273169166665866},{"name":"A#3","midi":58,"time":370.83362999999974,"velocity":0.8818897637795275,"duration":0.26273169166665866},{"name":"A3","midi":57,"time":371.11140799999976,"velocity":0.8818897637795275,"duration":0.26273169166665866},{"name":"A#3","midi":58,"time":371.38918599999977,"velocity":0.8818897637795275,"duration":0.0648148666666657},{"name":"A3","midi":57,"time":371.45863049999974,"velocity":0.8818897637795275,"duration":0.0648148666666657},{"name":"G3","midi":55,"time":371.5280749999997,"velocity":0.8818897637795275,"duration":0.1307871416666444},{"name":"F3","midi":53,"time":371.6669639999997,"velocity":0.8818897637795275,"duration":0.26273169166665866},{"name":"F2","midi":41,"time":371.94474199999974,"velocity":0.8818897637795275,"duration":0.26273169166665866},{"name":"G3","midi":55,"time":372.22251999999975,"velocity":0.8818897637795275,"duration":0.26273169166665866},{"name":"G2","midi":43,"time":372.50029799999976,"velocity":0.8818897637795275,"duration":0.26273169166665866},{"name":"A3","midi":57,"time":372.77807599999977,"velocity":0.8818897637795275,"duration":0.26273169166665866},{"name":"A2","midi":45,"time":373.0558539999998,"velocity":0.8818897637795275,"duration":0.26273169166665866},{"name":"C#3","midi":49,"time":373.3336319999998,"velocity":0.8818897637795275,"duration":0.26273169166665866},{"name":"A2","midi":45,"time":373.6114099999998,"velocity":0.8818897637795275,"duration":0.26273169166665866},{"name":"E3","midi":52,"time":373.8891879999998,"velocity":0.8818897637795275,"duration":0.26273169166665866},{"name":"C#3","midi":49,"time":374.16696599999983,"velocity":0.8818897637795275,"duration":0.26273169166665866},{"name":"C4","midi":60,"time":374.44474399999984,"velocity":0.8818897637795275,"duration":0.26273169166665866},{"name":"A#3","midi":58,"time":374.72252199999986,"velocity":0.8818897637795275,"duration":0.0648148666666657},{"name":"C4","midi":60,"time":374.79196649999983,"velocity":0.8818897637795275,"duration":0.0648148666666657},{"name":"A#3","midi":58,"time":374.8614109999998,"velocity":0.8818897637795275,"duration":0.1307871416666444},{"name":"A3","midi":57,"time":375.0002999999998,"velocity":0.8818897637795275,"duration":0.3946762416666729},{"name":"A2","midi":45,"time":375.41696699999983,"velocity":0.8818897637795275,"duration":0.6585653416666446},{"name":"A3","midi":57,"time":376.6669679999998,"velocity":0.8818897637795275,"duration":0.26273169166665866},{"name":"C4","midi":60,"time":376.94474599999984,"velocity":0.8818897637795275,"duration":0.1307871416666444},{"name":"A3","midi":57,"time":377.08363499999984,"velocity":0.8818897637795275,"duration":0.1307871416666444},{"name":"E3","midi":52,"time":381.6669719999998,"velocity":0.8818897637795275,"duration":0.0648148666666657},{"name":"B3","midi":59,"time":381.7364164999998,"velocity":0.8818897637795275,"duration":0.0648148666666657},{"name":"E3","midi":52,"time":382.0836389999998,"velocity":0.8818897637795275,"duration":0.0648148666666657},{"name":"B3","midi":59,"time":382.15308349999975,"velocity":0.8818897637795275,"duration":0.0648148666666657},{"name":"A2","midi":45,"time":382.50030599999974,"velocity":0.8818897637795275,"duration":0.1307871416666444},{"name":"C3","midi":48,"time":382.63919499999975,"velocity":0.8818897637795275,"duration":0.1307871416666444},{"name":"D3","midi":50,"time":382.77808399999975,"velocity":0.8818897637795275,"duration":0.1307871416666444},{"name":"A2","midi":45,"time":382.91697299999976,"velocity":0.8818897637795275,"duration":0.1307871416666444},{"name":"C3","midi":48,"time":383.05586199999976,"velocity":0.8818897637795275,"duration":0.1307871416666444},{"name":"D3","midi":50,"time":383.19475099999977,"velocity":0.8818897637795275,"duration":0.1307871416666444},{"name":"F3","midi":53,"time":383.3336399999998,"velocity":0.8818897637795275,"duration":0.04282410833332051},{"name":"E3","midi":52,"time":383.3799363333331,"velocity":0.8818897637795275,"duration":0.04282410833332051},{"name":"D3","midi":50,"time":383.4262326666664,"velocity":0.8818897637795275,"duration":0.04282410833332051},{"name":"C3","midi":48,"time":383.4725289999997,"velocity":0.8818897637795275,"duration":0.19675941666667995},{"name":"A2","midi":45,"time":383.68086249999976,"velocity":0.8818897637795275,"duration":0.19675941666667995},{"name":"A#2","midi":46,"time":383.8891959999998,"velocity":0.8818897637795275,"duration":0.2627316916666018},{"name":"A#2","midi":46,"time":384.16697399999975,"velocity":0.8818897637795275,"duration":0.1307871416666444},{"name":"A#2","midi":46,"time":384.30586299999976,"velocity":0.8818897637795275,"duration":0.3946762416666729},{"name":"B2","midi":47,"time":384.7225299999998,"velocity":0.8818897637795275,"duration":0.26273169166665866},{"name":"C3","midi":48,"time":385.0003079999998,"velocity":0.8818897637795275,"duration":0.26273169166665866},{"name":"B2","midi":47,"time":385.2780859999998,"velocity":0.8818897637795275,"duration":0.26273169166665866},{"name":"A#2","midi":46,"time":385.5558639999998,"velocity":0.8818897637795275,"duration":0.26273169166665866},{"name":"A2","midi":45,"time":385.8336419999998,"velocity":0.8818897637795275,"duration":0.26273169166665866},{"name":"F3","midi":53,"time":386.11141999999984,"velocity":0.8818897637795275,"duration":0.2627316916666018},{"name":"F3","midi":53,"time":386.3891979999998,"velocity":0.8818897637795275,"duration":0.1307871416666444},{"name":"F3","midi":53,"time":386.5280869999998,"velocity":0.8818897637795275,"duration":0.1307871416666444},{"name":"F3","midi":53,"time":386.80586499999976,"velocity":0.8818897637795275,"duration":0.1307871416666444},{"name":"G3","midi":55,"time":387.0836429999997,"velocity":0.8818897637795275,"duration":0.26273169166665866},{"name":"F3","midi":53,"time":387.3614209999997,"velocity":0.8818897637795275,"duration":0.1307871416666444},{"name":"G3","midi":55,"time":387.50030999999973,"velocity":0.8818897637795275,"duration":0.1307871416666444},{"name":"A3","midi":57,"time":387.63919899999973,"velocity":0.8818897637795275,"duration":0.1307871416666444},{"name":"F3","midi":53,"time":387.77808799999974,"velocity":0.8818897637795275,"duration":0.26273169166665866},{"name":"C3","midi":48,"time":388.05586599999975,"velocity":0.8818897637795275,"duration":0.1307871416666444},{"name":"D3","midi":50,"time":388.19475499999976,"velocity":0.8818897637795275,"duration":0.1307871416666444},{"name":"F3","midi":53,"time":388.33364399999977,"velocity":0.8818897637795275,"duration":0.2627316916666018},{"name":"F3","midi":53,"time":388.6114219999997,"velocity":0.8818897637795275,"duration":0.1307871416666444},{"name":"F3","midi":53,"time":388.7503109999997,"velocity":0.8818897637795275,"duration":0.1307871416666444},{"name":"G3","midi":55,"time":389.0280889999997,"velocity":0.8818897637795275,"duration":0.1307871416666444},{"name":"G#3","midi":56,"time":389.30586699999964,"velocity":0.8818897637795275,"duration":0.26273169166665866},{"name":"G3","midi":55,"time":389.58364499999965,"velocity":0.8818897637795275,"duration":0.1307871416666444},{"name":"F3","midi":53,"time":389.72253399999965,"velocity":0.8818897637795275,"duration":0.1307871416666444},{"name":"D3","midi":50,"time":389.86142299999966,"velocity":0.8818897637795275,"duration":0.1307871416666444},{"name":"F3","midi":53,"time":390.00031199999967,"velocity":0.8818897637795275,"duration":0.1307871416666444},{"name":"G3","midi":55,"time":390.1392009999997,"velocity":0.8818897637795275,"duration":0.1307871416666444},{"name":"F3","midi":53,"time":390.2780899999997,"velocity":0.8818897637795275,"duration":0.08680562500001088},{"name":"E3","midi":52,"time":390.37068266666637,"velocity":0.8818897637795275,"duration":0.08680562500001088},{"name":"D3","midi":50,"time":390.46327533333306,"velocity":0.8818897637795275,"duration":0.08680562500001088},{"name":"E3","midi":52,"time":390.55586799999975,"velocity":0.8818897637795275,"duration":0.2627316916666018},{"name":"E3","midi":52,"time":390.8336459999997,"velocity":0.8818897637795275,"duration":0.1307871416666444},{"name":"E3","midi":52,"time":390.9725349999997,"velocity":0.8818897637795275,"duration":0.1307871416666444},{"name":"F3","midi":53,"time":391.25031299999966,"velocity":0.8818897637795275,"duration":0.1307871416666444},{"name":"G3","midi":55,"time":391.5280909999996,"velocity":0.8818897637795275,"duration":0.1307871416666444},{"name":"A3","midi":57,"time":391.8058689999996,"velocity":0.8818897637795275,"duration":0.1307871416666444},{"name":"G3","midi":55,"time":392.08364699999953,"velocity":0.8818897637795275,"duration":0.26273169166665866},{"name":"F3","midi":53,"time":392.36142499999954,"velocity":0.8818897637795275,"duration":0.1307871416666444},{"name":"E3","midi":52,"time":392.50031399999955,"velocity":0.8818897637795275,"duration":0.1307871416666444},{"name":"C#3","midi":49,"time":392.63920299999955,"velocity":0.8818897637795275,"duration":0.1307871416666444},{"name":"A3","midi":57,"time":392.77809199999956,"velocity":0.8818897637795275,"duration":0.1307871416666444},{"name":"A3","midi":57,"time":393.0558699999995,"velocity":0.8818897637795275,"duration":0.1307871416666444},{"name":"G3","midi":55,"time":393.33364799999947,"velocity":0.8818897637795275,"duration":0.1307871416666444},{"name":"G3","midi":55,"time":393.4725369999995,"velocity":0.8818897637795275,"duration":0.1307871416666444},{"name":"F3","midi":53,"time":393.6114259999995,"velocity":0.8818897637795275,"duration":0.1307871416666444},{"name":"G3","midi":55,"time":393.7503149999995,"velocity":0.8818897637795275,"duration":0.26273169166665866},{"name":"G3","midi":55,"time":394.0280929999995,"velocity":0.8818897637795275,"duration":0.3946762416666729},{"name":"F3","midi":53,"time":394.4447599999995,"velocity":0.8818897637795275,"duration":0.26273169166665866},{"name":"E3","midi":52,"time":394.72253799999953,"velocity":0.8818897637795275,"duration":0.26273169166665866},{"name":"D5","midi":74,"time":395.00031599999954,"velocity":0.8818897637795275,"duration":0.2627316916666018},{"name":"D5","midi":74,"time":395.2780939999995,"velocity":0.8818897637795275,"duration":0.1307871416666444},{"name":"C6","midi":84,"time":395.4169829999995,"velocity":0.8818897637795275,"duration":0.1307871416666444},{"name":"A#5","midi":82,"time":395.5558719999995,"velocity":0.8818897637795275,"duration":0.1307871416666444},{"name":"A5","midi":81,"time":395.6947609999995,"velocity":0.8818897637795275,"duration":0.1307871416666444},{"name":"G5","midi":79,"time":395.8336499999995,"velocity":0.8818897637795275,"duration":0.1307871416666444},{"name":"F5","midi":77,"time":395.97253899999953,"velocity":0.8818897637795275,"duration":0.1307871416666444},{"name":"D5","midi":74,"time":396.11142799999953,"velocity":0.8818897637795275,"duration":0.26273169166665866},{"name":"D5","midi":74,"time":396.38920599999955,"velocity":0.8818897637795275,"duration":0.1307871416666444},{"name":"C6","midi":84,"time":396.52809499999955,"velocity":0.8818897637795275,"duration":0.1307871416666444},{"name":"A#5","midi":82,"time":396.66698399999956,"velocity":0.8818897637795275,"duration":0.1307871416666444},{"name":"A5","midi":81,"time":396.80587299999956,"velocity":0.8818897637795275,"duration":0.1307871416666444},{"name":"G5","midi":79,"time":396.94476199999957,"velocity":0.8818897637795275,"duration":0.1307871416666444},{"name":"F5","midi":77,"time":397.0836509999996,"velocity":0.8818897637795275,"duration":0.1307871416666444},{"name":"D5","midi":74,"time":397.2225399999996,"velocity":0.8818897637795275,"duration":0.2627316916666018},{"name":"D5","midi":74,"time":397.50031799999954,"velocity":0.8818897637795275,"duration":0.1307871416666444},{"name":"A5","midi":81,"time":397.63920699999954,"velocity":0.8818897637795275,"duration":0.1307871416666444},{"name":"G5","midi":79,"time":397.77809599999955,"velocity":0.8818897637795275,"duration":0.1307871416666444},{"name":"F5","midi":77,"time":397.91698499999956,"velocity":0.8818897637795275,"duration":0.1307871416666444},{"name":"E5","midi":76,"time":398.05587399999956,"velocity":0.8818897637795275,"duration":0.1307871416666444},{"name":"D5","midi":74,"time":398.19476299999957,"velocity":0.8818897637795275,"duration":0.1307871416666444},{"name":"A4","midi":69,"time":398.3336519999996,"velocity":0.8818897637795275,"duration":0.26273169166665866},{"name":"D5","midi":74,"time":398.6114299999996,"velocity":0.8818897637795275,"duration":0.1307871416666444},{"name":"F5","midi":77,"time":398.7503189999996,"velocity":0.8818897637795275,"duration":0.26273169166665866},{"name":"E5","midi":76,"time":399.0280969999996,"velocity":0.8818897637795275,"duration":0.1307871416666444},{"name":"D5","midi":74,"time":399.1669859999996,"velocity":0.8818897637795275,"duration":0.1307871416666444},{"name":"C5","midi":72,"time":399.3058749999996,"velocity":0.8818897637795275,"duration":0.1307871416666444},{"name":"F5","midi":77,"time":399.4447639999996,"velocity":0.8818897637795275,"duration":0.1307871416666444},{"name":"F6","midi":89,"time":399.4447639999996,"velocity":0.8818897637795275,"duration":0.1307871416666444},{"name":"D5","midi":74,"time":399.58365299999963,"velocity":0.8818897637795275,"duration":0.1307871416666444},{"name":"D6","midi":86,"time":399.58365299999963,"velocity":0.8818897637795275,"duration":0.1307871416666444},{"name":"G5","midi":79,"time":399.72254199999963,"velocity":0.8818897637795275,"duration":0.1307871416666444},{"name":"G6","midi":91,"time":399.72254199999963,"velocity":0.8818897637795275,"duration":0.1307871416666444},{"name":"D5","midi":74,"time":399.86143099999964,"velocity":0.8818897637795275,"duration":0.1307871416666444},{"name":"D6","midi":86,"time":399.86143099999964,"velocity":0.8818897637795275,"duration":0.1307871416666444},{"name":"A5","midi":81,"time":400.00031999999965,"velocity":0.8818897637795275,"duration":0.1307871416666444},{"name":"A6","midi":93,"time":400.00031999999965,"velocity":0.8818897637795275,"duration":0.1307871416666444},{"name":"D5","midi":74,"time":400.13920899999965,"velocity":0.8818897637795275,"duration":0.1307871416666444},{"name":"D6","midi":86,"time":400.13920899999965,"velocity":0.8818897637795275,"duration":0.1307871416666444},{"name":"F5","midi":77,"time":400.27809799999966,"velocity":0.8818897637795275,"duration":0.1307871416666444},{"name":"F6","midi":89,"time":400.27809799999966,"velocity":0.8818897637795275,"duration":0.1307871416666444},{"name":"D5","midi":74,"time":400.41698699999966,"velocity":0.8818897637795275,"duration":0.1307871416666444},{"name":"D6","midi":86,"time":400.41698699999966,"velocity":0.8818897637795275,"duration":0.1307871416666444},{"name":"F5","midi":77,"time":400.55587599999967,"velocity":0.8818897637795275,"duration":0.1307871416666444},{"name":"F6","midi":89,"time":400.55587599999967,"velocity":0.8818897637795275,"duration":0.1307871416666444},{"name":"D5","midi":74,"time":400.6947649999997,"velocity":0.8818897637795275,"duration":0.1307871416666444},{"name":"D6","midi":86,"time":400.6947649999997,"velocity":0.8818897637795275,"duration":0.1307871416666444},{"name":"G5","midi":79,"time":400.8336539999997,"velocity":0.8818897637795275,"duration":0.1307871416666444},{"name":"G6","midi":91,"time":400.8336539999997,"velocity":0.8818897637795275,"duration":0.1307871416666444},{"name":"D5","midi":74,"time":400.9725429999997,"velocity":0.8818897637795275,"duration":0.1307871416666444},{"name":"D6","midi":86,"time":400.9725429999997,"velocity":0.8818897637795275,"duration":0.1307871416666444},{"name":"A5","midi":81,"time":401.1114319999997,"velocity":0.8818897637795275,"duration":0.1307871416666444},{"name":"A6","midi":93,"time":401.1114319999997,"velocity":0.8818897637795275,"duration":0.1307871416666444},{"name":"D5","midi":74,"time":401.2503209999997,"velocity":0.8818897637795275,"duration":0.1307871416666444},{"name":"D6","midi":86,"time":401.2503209999997,"velocity":0.8818897637795275,"duration":0.1307871416666444},{"name":"D6","midi":86,"time":401.3892099999997,"velocity":0.8818897637795275,"duration":0.13773159166669302},{"name":"D7","midi":98,"time":401.3892099999997,"velocity":0.8818897637795275,"duration":0.13773159166669302},{"name":"D5","midi":74,"time":404.4447679999998,"velocity":0.6299212598425197,"duration":0.13773159166669302},{"name":"D5","midi":74,"time":404.7225459999998,"velocity":0.6299212598425197,"duration":0.13773159166669302},{"name":"D5","midi":74,"time":405.0003239999998,"velocity":0.6929133858267716,"duration":0.13773159166669302},{"name":"D5","midi":74,"time":405.2781019999998,"velocity":0.7559055118110236,"duration":0.13773159166669302},{"name":"D6","midi":86,"time":405.2781019999998,"velocity":0.7559055118110236,"duration":0.13773159166669302},{"name":"D5","midi":74,"time":405.55587999999983,"velocity":0.8188976377952756,"duration":0.13773159166669302},{"name":"D6","midi":86,"time":405.55587999999983,"velocity":0.8188976377952756,"duration":0.13773159166669302},{"name":"D5","midi":74,"time":405.83365799999984,"velocity":0.8818897637795275,"duration":0.13773159166669302},{"name":"D6","midi":86,"time":405.83365799999984,"velocity":0.8818897637795275,"duration":0.13773159166669302},{"name":"C#5","midi":73,"time":406.6669919999999,"velocity":0.6299212598425197,"duration":0.13773159166669302},{"name":"C#5","midi":73,"time":406.9447699999999,"velocity":0.6299212598425197,"duration":0.13773159166669302},{"name":"C#5","midi":73,"time":407.2225479999999,"velocity":0.6929133858267716,"duration":0.13773159166669302},{"name":"C#5","midi":73,"time":407.5003259999999,"velocity":0.7559055118110236,"duration":0.13773159166669302},{"name":"C#6","midi":85,"time":407.5003259999999,"velocity":0.7559055118110236,"duration":0.13773159166669302},{"name":"C#5","midi":73,"time":407.7781039999999,"velocity":0.8188976377952756,"duration":0.13773159166669302},{"name":"C#6","midi":85,"time":407.7781039999999,"velocity":0.8188976377952756,"duration":0.13773159166669302},{"name":"C#5","midi":73,"time":408.05588199999994,"velocity":0.8818897637795275,"duration":0.13773159166669302},{"name":"C#6","midi":85,"time":408.05588199999994,"velocity":0.8818897637795275,"duration":0.13773159166669302},{"name":"F3","midi":53,"time":413.333664,"velocity":0.7559055118110236,"duration":0.1307871416666444},{"name":"E3","midi":52,"time":413.61144199999995,"velocity":0.7559055118110236,"duration":0.1307871416666444},{"name":"F3","midi":53,"time":413.8892199999999,"velocity":0.7559055118110236,"duration":0.5266207916666872},{"name":"D3","midi":50,"time":414.44477599999993,"velocity":0.7559055118110236,"duration":0.26273169166665866},{"name":"E3","midi":52,"time":414.72255399999995,"velocity":0.7559055118110236,"duration":0.26273169166665866},{"name":"F3","midi":53,"time":415.00033199999996,"velocity":0.7559055118110236,"duration":0.1307871416666444},{"name":"D3","midi":50,"time":415.2781099999999,"velocity":0.7559055118110236,"duration":0.1307871416666444},{"name":"C3","midi":48,"time":415.55588799999987,"velocity":0.7559055118110236,"duration":0.1307871416666444},{"name":"G#2","midi":44,"time":415.8336659999998,"velocity":0.7559055118110236,"duration":0.084490808333328},{"name":"A2","midi":45,"time":415.91931421666646,"velocity":0.7559055118110236,"duration":0.4432873916666722},{"name":"D2","midi":38,"time":416.3892219999998,"velocity":0.7559055118110236,"duration":0.26273169166665866},{"name":"F2","midi":41,"time":416.6669999999998,"velocity":0.7559055118110236,"duration":0.26273169166665866},{"name":"G2","midi":43,"time":416.9447779999998,"velocity":0.7559055118110236,"duration":0.26273169166665866},{"name":"G2","midi":43,"time":417.2225559999998,"velocity":0.7559055118110236,"duration":0.5266207916666303},{"name":"G2","midi":43,"time":417.7781119999998,"velocity":0.7559055118110236,"duration":0.1307871416666444},{"name":"F2","midi":41,"time":418.05588999999975,"velocity":0.7559055118110236,"duration":0.1307871416666444},{"name":"G2","midi":43,"time":418.3336679999997,"velocity":0.7559055118110236,"duration":0.5266207916666872},{"name":"G2","midi":43,"time":418.88922399999973,"velocity":0.7559055118110236,"duration":0.26273169166665866},{"name":"F2","midi":41,"time":419.16700199999974,"velocity":0.7559055118110236,"duration":0.26273169166665866},{"name":"G2","midi":43,"time":419.44477999999975,"velocity":0.7559055118110236,"duration":0.1307871416666444},{"name":"F2","midi":41,"time":419.7225579999997,"velocity":0.7559055118110236,"duration":0.1307871416666444},{"name":"A2","midi":45,"time":420.00033599999966,"velocity":0.7559055118110236,"duration":0.26273169166665866},{"name":"G2","midi":43,"time":420.2781139999997,"velocity":0.7559055118110236,"duration":0.26273169166665866},{"name":"G2","midi":43,"time":420.83366999999964,"velocity":0.7559055118110236,"duration":0.26273169166665866},{"name":"F2","midi":41,"time":421.11144799999965,"velocity":0.7559055118110236,"duration":0.5266207916666872},{"name":"A#2","midi":46,"time":422.22255999999965,"velocity":0.7559055118110236,"duration":0.1307871416666444},{"name":"A2","midi":45,"time":422.5003379999996,"velocity":0.7559055118110236,"duration":0.1307871416666444},{"name":"A#2","midi":46,"time":422.77811599999956,"velocity":0.7559055118110236,"duration":0.1307871416666444},{"name":"A#2","midi":46,"time":423.3336719999995,"velocity":0.7559055118110236,"duration":0.26273169166665866},{"name":"B2","midi":47,"time":423.61144999999954,"velocity":0.7559055118110236,"duration":0.26273169166665866},{"name":"C3","midi":48,"time":423.88922799999955,"velocity":0.7559055118110236,"duration":0.1307871416666444},{"name":"A2","midi":45,"time":424.1670059999995,"velocity":0.7559055118110236,"duration":0.1307871416666444},{"name":"G2","midi":43,"time":424.44478399999946,"velocity":0.7559055118110236,"duration":0.26273169166665866},{"name":"F2","midi":41,"time":424.72256199999947,"velocity":0.7559055118110236,"duration":0.1307871416666444},{"name":"G2","midi":43,"time":425.27811799999944,"velocity":0.7559055118110236,"duration":0.26273169166665866},{"name":"F2","midi":41,"time":425.55589599999945,"velocity":0.7559055118110236,"duration":0.26273169166665866},{"name":"E2","midi":40,"time":425.83367399999946,"velocity":0.7559055118110236,"duration":0.26273169166665866},{"name":"C#2","midi":37,"time":426.1114519999995,"velocity":0.7559055118110236,"duration":0.1307871416666444},{"name":"D2","midi":38,"time":426.38922999999943,"velocity":0.7559055118110236,"duration":0.1307871416666444},{"name":"E2","midi":40,"time":426.6670079999994,"velocity":0.7559055118110236,"duration":0.5266207916666872},{"name":"F2","midi":41,"time":427.2225639999994,"velocity":0.7559055118110236,"duration":0.1307871416666444},{"name":"D2","midi":38,"time":427.50034199999936,"velocity":0.7559055118110236,"duration":0.1307871416666444},{"name":"C#2","midi":37,"time":427.7781199999993,"velocity":0.7559055118110236,"duration":0.1307871416666444},{"name":"A1","midi":33,"time":428.0558979999993,"velocity":0.7559055118110236,"duration":0.1307871416666444},{"name":"C#2","midi":37,"time":428.33367599999923,"velocity":0.7559055118110236,"duration":0.1307871416666444},{"name":"B1","midi":35,"time":428.6114539999992,"velocity":0.7559055118110236,"duration":0.1307871416666444},{"name":"C#2","midi":37,"time":428.88923199999914,"velocity":0.7559055118110236,"duration":0.08680562500001088},{"name":"B1","midi":35,"time":428.98182466666583,"velocity":0.7559055118110236,"duration":0.08680562500001088},{"name":"C#2","midi":37,"time":429.0744173333325,"velocity":0.7559055118110236,"duration":0.35069472499998255},{"name":"D2","midi":38,"time":429.44478799999916,"velocity":0.7559055118110236,"duration":0.2766205916666422},{"name":"D5","midi":74,"time":448.33369199999913,"velocity":0.7559055118110236,"duration":0.26273169166665866},{"name":"D5","midi":74,"time":448.61146999999914,"velocity":0.7559055118110236,"duration":0.1307871416666444},{"name":"C6","midi":84,"time":448.75035899999915,"velocity":0.7559055118110236,"duration":0.1307871416666444},{"name":"A#5","midi":82,"time":448.88924799999916,"velocity":0.7559055118110236,"duration":0.1307871416666444},{"name":"A5","midi":81,"time":449.02813699999916,"velocity":0.7559055118110236,"duration":0.1307871416666444},{"name":"G5","midi":79,"time":449.16702599999917,"velocity":0.7559055118110236,"duration":0.1307871416666444},{"name":"F5","midi":77,"time":449.3059149999992,"velocity":0.7559055118110236,"duration":0.1307871416666444},{"name":"D5","midi":74,"time":449.4448039999992,"velocity":0.7559055118110236,"duration":0.26273169166665866},{"name":"D5","midi":74,"time":449.7225819999992,"velocity":0.7559055118110236,"duration":0.1307871416666444},{"name":"C6","midi":84,"time":449.8614709999992,"velocity":0.7559055118110236,"duration":0.1307871416666444},{"name":"A#5","midi":82,"time":450.0003599999992,"velocity":0.7559055118110236,"duration":0.1307871416666444},{"name":"A5","midi":81,"time":450.1392489999992,"velocity":0.7559055118110236,"duration":0.1307871416666444},{"name":"G5","midi":79,"time":450.2781379999992,"velocity":0.7559055118110236,"duration":0.1307871416666444},{"name":"F5","midi":77,"time":450.4170269999992,"velocity":0.7559055118110236,"duration":0.1307871416666444},{"name":"D5","midi":74,"time":450.55591599999923,"velocity":0.7559055118110236,"duration":0.2627316916666018},{"name":"D5","midi":74,"time":450.8336939999992,"velocity":0.7559055118110236,"duration":0.1307871416666444},{"name":"A5","midi":81,"time":450.9725829999992,"velocity":0.7559055118110236,"duration":0.1307871416666444},{"name":"G5","midi":79,"time":451.1114719999992,"velocity":0.7559055118110236,"duration":0.1307871416666444},{"name":"F5","midi":77,"time":451.2503609999992,"velocity":0.7559055118110236,"duration":0.1307871416666444},{"name":"E5","midi":76,"time":451.3892499999992,"velocity":0.7559055118110236,"duration":0.1307871416666444},{"name":"D5","midi":74,"time":451.5281389999992,"velocity":0.7559055118110236,"duration":0.1307871416666444},{"name":"A4","midi":69,"time":451.6670279999992,"velocity":0.7559055118110236,"duration":0.26273169166665866},{"name":"D5","midi":74,"time":451.94480599999923,"velocity":0.7559055118110236,"duration":0.1307871416666444},{"name":"F5","midi":77,"time":452.08369499999924,"velocity":0.7559055118110236,"duration":0.26273169166665866},{"name":"E5","midi":76,"time":452.36147299999925,"velocity":0.7559055118110236,"duration":0.1307871416666444},{"name":"D5","midi":74,"time":452.50036199999926,"velocity":0.7559055118110236,"duration":0.1307871416666444},{"name":"C5","midi":72,"time":452.63925099999926,"velocity":0.7559055118110236,"duration":0.1307871416666444},{"name":"D5","midi":74,"time":452.77813999999927,"velocity":0.7559055118110236,"duration":0.2627316916666018},{"name":"D5","midi":74,"time":453.0559179999992,"velocity":0.7559055118110236,"duration":0.1307871416666444},{"name":"C6","midi":84,"time":453.19480699999923,"velocity":0.7559055118110236,"duration":0.1307871416666444},{"name":"A#5","midi":82,"time":453.33369599999924,"velocity":0.7559055118110236,"duration":0.1307871416666444},{"name":"A5","midi":81,"time":453.47258499999924,"velocity":0.7559055118110236,"duration":0.1307871416666444},{"name":"G5","midi":79,"time":453.61147399999925,"velocity":0.7559055118110236,"duration":0.1307871416666444},{"name":"F5","midi":77,"time":453.75036299999925,"velocity":0.7559055118110236,"duration":0.1307871416666444},{"name":"D5","midi":74,"time":453.88925199999926,"velocity":0.7559055118110236,"duration":0.26273169166665866},{"name":"D5","midi":74,"time":454.1670299999993,"velocity":0.7559055118110236,"duration":0.1307871416666444},{"name":"C6","midi":84,"time":454.3059189999993,"velocity":0.7559055118110236,"duration":0.1307871416666444},{"name":"A#5","midi":82,"time":454.4448079999993,"velocity":0.7559055118110236,"duration":0.1307871416666444},{"name":"A5","midi":81,"time":454.5836969999993,"velocity":0.7559055118110236,"duration":0.1307871416666444},{"name":"G5","midi":79,"time":454.7225859999993,"velocity":0.7559055118110236,"duration":0.1307871416666444},{"name":"F5","midi":77,"time":454.8614749999993,"velocity":0.7559055118110236,"duration":0.1307871416666444},{"name":"D5","midi":74,"time":457.2225879999993,"velocity":0.7559055118110236,"duration":0.26273169166665866},{"name":"D5","midi":74,"time":457.5003659999993,"velocity":0.7559055118110236,"duration":0.1307871416666444},{"name":"C6","midi":84,"time":457.6392549999993,"velocity":0.7559055118110236,"duration":0.1307871416666444},{"name":"A#5","midi":82,"time":457.7781439999993,"velocity":0.7559055118110236,"duration":0.1307871416666444},{"name":"A5","midi":81,"time":457.9170329999993,"velocity":0.7559055118110236,"duration":0.1307871416666444},{"name":"G5","midi":79,"time":458.0559219999993,"velocity":0.7559055118110236,"duration":0.1307871416666444},{"name":"F5","midi":77,"time":458.19481099999933,"velocity":0.7559055118110236,"duration":0.1307871416666444},{"name":"D5","midi":74,"time":458.33369999999934,"velocity":0.7559055118110236,"duration":0.26273169166665866},{"name":"D5","midi":74,"time":458.61147799999935,"velocity":0.7559055118110236,"duration":0.1307871416666444},{"name":"C6","midi":84,"time":458.75036699999936,"velocity":0.7559055118110236,"duration":0.1307871416666444},{"name":"A#5","midi":82,"time":458.88925599999936,"velocity":0.7559055118110236,"duration":0.1307871416666444},{"name":"A5","midi":81,"time":459.02814499999937,"velocity":0.7559055118110236,"duration":0.1307871416666444},{"name":"G5","midi":79,"time":459.1670339999994,"velocity":0.7559055118110236,"duration":0.1307871416666444},{"name":"F5","midi":77,"time":459.3059229999994,"velocity":0.7559055118110236,"duration":0.1307871416666444},{"name":"D5","midi":74,"time":459.4448119999994,"velocity":0.7559055118110236,"duration":0.2627316916666018},{"name":"D5","midi":74,"time":459.72258999999934,"velocity":0.7559055118110236,"duration":0.1307871416666444},{"name":"A5","midi":81,"time":459.86147899999935,"velocity":0.7559055118110236,"duration":0.1307871416666444},{"name":"G5","midi":79,"time":460.00036799999936,"velocity":0.7559055118110236,"duration":0.1307871416666444},{"name":"F5","midi":77,"time":460.13925699999936,"velocity":0.7559055118110236,"duration":0.1307871416666444},{"name":"E5","midi":76,"time":460.27814599999937,"velocity":0.7559055118110236,"duration":0.1307871416666444},{"name":"D5","midi":74,"time":460.4170349999994,"velocity":0.7559055118110236,"duration":0.1307871416666444},{"name":"A4","midi":69,"time":460.5559239999994,"velocity":0.7559055118110236,"duration":0.26273169166665866},{"name":"D5","midi":74,"time":460.8337019999994,"velocity":0.7559055118110236,"duration":0.1307871416666444},{"name":"F5","midi":77,"time":460.9725909999994,"velocity":0.7559055118110236,"duration":0.26273169166665866},{"name":"E5","midi":76,"time":461.2503689999994,"velocity":0.7559055118110236,"duration":0.1307871416666444},{"name":"D5","midi":74,"time":461.3892579999994,"velocity":0.7559055118110236,"duration":0.1307871416666444},{"name":"C5","midi":72,"time":461.5281469999994,"velocity":0.7559055118110236,"duration":0.1307871416666444},{"name":"F5","midi":77,"time":461.6670359999994,"velocity":0.7559055118110236,"duration":0.1307871416666444},{"name":"F6","midi":89,"time":461.6670359999994,"velocity":0.7559055118110236,"duration":0.1307871416666444},{"name":"D5","midi":74,"time":461.80592499999943,"velocity":0.7559055118110236,"duration":0.1307871416666444},{"name":"D6","midi":86,"time":461.80592499999943,"velocity":0.7559055118110236,"duration":0.1307871416666444},{"name":"G5","midi":79,"time":461.94481399999944,"velocity":0.7559055118110236,"duration":0.1307871416666444},{"name":"G6","midi":91,"time":461.94481399999944,"velocity":0.7559055118110236,"duration":0.1307871416666444},{"name":"D5","midi":74,"time":462.08370299999945,"velocity":0.7559055118110236,"duration":0.1307871416666444},{"name":"D6","midi":86,"time":462.08370299999945,"velocity":0.7559055118110236,"duration":0.1307871416666444},{"name":"A5","midi":81,"time":462.22259199999945,"velocity":0.7559055118110236,"duration":0.1307871416666444},{"name":"A6","midi":93,"time":462.22259199999945,"velocity":0.7559055118110236,"duration":0.1307871416666444},{"name":"D5","midi":74,"time":462.36148099999946,"velocity":0.7559055118110236,"duration":0.1307871416666444},{"name":"D6","midi":86,"time":462.36148099999946,"velocity":0.7559055118110236,"duration":0.1307871416666444},{"name":"F5","midi":77,"time":462.50036999999946,"velocity":0.7559055118110236,"duration":0.1307871416666444},{"name":"F6","midi":89,"time":462.50036999999946,"velocity":0.7559055118110236,"duration":0.1307871416666444},{"name":"D5","midi":74,"time":462.63925899999947,"velocity":0.7559055118110236,"duration":0.1307871416666444},{"name":"D6","midi":86,"time":462.63925899999947,"velocity":0.7559055118110236,"duration":0.1307871416666444},{"name":"F5","midi":77,"time":462.7781479999995,"velocity":0.7559055118110236,"duration":0.1307871416666444},{"name":"F6","midi":89,"time":462.7781479999995,"velocity":0.7559055118110236,"duration":0.1307871416666444},{"name":"D5","midi":74,"time":462.9170369999995,"velocity":0.7559055118110236,"duration":0.1307871416666444},{"name":"D6","midi":86,"time":462.9170369999995,"velocity":0.7559055118110236,"duration":0.1307871416666444},{"name":"G5","midi":79,"time":463.0559259999995,"velocity":0.7559055118110236,"duration":0.1307871416666444},{"name":"G6","midi":91,"time":463.0559259999995,"velocity":0.7559055118110236,"duration":0.1307871416666444},{"name":"D5","midi":74,"time":463.1948149999995,"velocity":0.7559055118110236,"duration":0.1307871416666444},{"name":"D6","midi":86,"time":463.1948149999995,"velocity":0.7559055118110236,"duration":0.1307871416666444},{"name":"A5","midi":81,"time":463.3337039999995,"velocity":0.7559055118110236,"duration":0.1307871416666444},{"name":"A6","midi":93,"time":463.3337039999995,"velocity":0.7559055118110236,"duration":0.1307871416666444},{"name":"D5","midi":74,"time":463.4725929999995,"velocity":0.7559055118110236,"duration":0.1307871416666444},{"name":"D6","midi":86,"time":463.4725929999995,"velocity":0.7559055118110236,"duration":0.1307871416666444},{"name":"D6","midi":86,"time":463.6114819999995,"velocity":0.7559055118110236,"duration":0.13773159166669302},{"name":"D7","midi":98,"time":463.6114819999995,"velocity":0.7559055118110236,"duration":0.13773159166669302},{"name":"F4","midi":65,"time":463.8892599999995,"velocity":0.7559055118110236,"duration":0.2627316916666018},{"name":"F4","midi":65,"time":464.1670379999995,"velocity":0.7559055118110236,"duration":0.1307871416666444},{"name":"F4","midi":65,"time":464.3059269999995,"velocity":0.7559055118110236,"duration":0.1307871416666444},{"name":"D4","midi":62,"time":464.4448159999995,"velocity":0.7559055118110236,"duration":0.26273169166665866},{"name":"E4","midi":64,"time":464.7225939999995,"velocity":0.7559055118110236,"duration":0.26273169166665866},{"name":"A4","midi":69,"time":465.0003719999995,"velocity":0.7559055118110236,"duration":0.1307871416666444},{"name":"C5","midi":72,"time":465.1392609999995,"velocity":0.7559055118110236,"duration":0.1307871416666444},{"name":"D5","midi":74,"time":465.2781499999995,"velocity":0.7559055118110236,"duration":0.1307871416666444},{"name":"C5","midi":72,"time":465.41703899999953,"velocity":0.7559055118110236,"duration":0.1307871416666444},{"name":"D5","midi":74,"time":465.55592799999954,"velocity":0.7559055118110236,"duration":0.26273169166665866},{"name":"E5","midi":76,"time":465.83370599999955,"velocity":0.7559055118110236,"duration":0.26273169166665866},{"name":"G#1","midi":32,"time":466.11148399999956,"velocity":0.7559055118110236,"duration":0.26273169166665866},{"name":"G#2","midi":44,"time":466.11148399999956,"velocity":0.7559055118110236,"duration":0.26273169166665866},{"name":"G#1","midi":32,"time":466.3892619999996,"velocity":0.7559055118110236,"duration":0.26273169166665866},{"name":"G#2","midi":44,"time":466.3892619999996,"velocity":0.7559055118110236,"duration":0.26273169166665866},{"name":"G#1","midi":32,"time":466.6670399999996,"velocity":0.7559055118110236,"duration":0.13773159166669302},{"name":"G#2","midi":44,"time":466.6670399999996,"velocity":0.7559055118110236,"duration":0.13773159166669302},{"name":"G#3","midi":56,"time":466.6670399999996,"velocity":0.7559055118110236,"duration":0.13773159166669302},{"name":"G#1","midi":32,"time":466.9448179999996,"velocity":0.7559055118110236,"duration":0.13773159166669302},{"name":"G#2","midi":44,"time":466.9448179999996,"velocity":0.7559055118110236,"duration":0.13773159166669302},{"name":"G#3","midi":56,"time":466.9448179999996,"velocity":0.7559055118110236,"duration":0.13773159166669302},{"name":"G#1","midi":32,"time":467.2225959999996,"velocity":0.7559055118110236,"duration":0.13773159166669302},{"name":"G#2","midi":44,"time":467.2225959999996,"velocity":0.7559055118110236,"duration":0.13773159166669302},{"name":"G#3","midi":56,"time":467.2225959999996,"velocity":0.7559055118110236,"duration":0.13773159166669302},{"name":"F5","midi":77,"time":467.5003739999996,"velocity":0.7559055118110236,"duration":0.13773159166669302},{"name":"F6","midi":89,"time":467.5003739999996,"velocity":0.7559055118110236,"duration":0.13773159166669302},{"name":"E5","midi":76,"time":467.77815199999964,"velocity":0.7559055118110236,"duration":0.13773159166669302},{"name":"E6","midi":88,"time":467.77815199999964,"velocity":0.7559055118110236,"duration":0.13773159166669302},{"name":"D5","midi":74,"time":468.05592999999965,"velocity":0.7559055118110236,"duration":0.13773159166669302},{"name":"D6","midi":86,"time":468.05592999999965,"velocity":0.7559055118110236,"duration":0.13773159166669302},{"name":"G1","midi":31,"time":468.33370799999966,"velocity":0.7559055118110236,"duration":0.26273169166665866},{"name":"G2","midi":43,"time":468.33370799999966,"velocity":0.7559055118110236,"duration":0.26273169166665866},{"name":"G1","midi":31,"time":468.6114859999997,"velocity":0.7559055118110236,"duration":0.26273169166665866},{"name":"G2","midi":43,"time":468.6114859999997,"velocity":0.7559055118110236,"duration":0.26273169166665866},{"name":"G1","midi":31,"time":468.8892639999997,"velocity":0.7559055118110236,"duration":0.13773159166669302},{"name":"G2","midi":43,"time":468.8892639999997,"velocity":0.7559055118110236,"duration":0.13773159166669302},{"name":"G3","midi":55,"time":468.8892639999997,"velocity":0.7559055118110236,"duration":0.13773159166669302},{"name":"G1","midi":31,"time":469.1670419999997,"velocity":0.7559055118110236,"duration":0.13773159166669302},{"name":"G2","midi":43,"time":469.1670419999997,"velocity":0.7559055118110236,"duration":0.13773159166669302},{"name":"G3","midi":55,"time":469.1670419999997,"velocity":0.7559055118110236,"duration":0.13773159166669302},{"name":"G2","midi":43,"time":469.4448199999997,"velocity":0.7559055118110236,"duration":0.13773159166669302},{"name":"G3","midi":55,"time":469.4448199999997,"velocity":0.7559055118110236,"duration":0.13773159166669302},{"name":"F5","midi":77,"time":469.7225979999997,"velocity":0.7559055118110236,"duration":0.13773159166669302},{"name":"F6","midi":89,"time":469.7225979999997,"velocity":0.7559055118110236,"duration":0.13773159166669302},{"name":"E5","midi":76,"time":470.00037599999973,"velocity":0.7559055118110236,"duration":0.13773159166669302},{"name":"E6","midi":88,"time":470.00037599999973,"velocity":0.7559055118110236,"duration":0.13773159166669302},{"name":"D5","midi":74,"time":470.27815399999974,"velocity":0.7559055118110236,"duration":0.13773159166669302},{"name":"D6","midi":86,"time":470.27815399999974,"velocity":0.7559055118110236,"duration":0.13773159166669302},{"name":"G#1","midi":32,"time":470.55593199999976,"velocity":0.7559055118110236,"duration":0.26273169166665866},{"name":"G#2","midi":44,"time":470.55593199999976,"velocity":0.7559055118110236,"duration":0.26273169166665866},{"name":"G#1","midi":32,"time":470.83370999999977,"velocity":0.7559055118110236,"duration":0.26273169166665866},{"name":"G#2","midi":44,"time":470.83370999999977,"velocity":0.7559055118110236,"duration":0.26273169166665866},{"name":"G#1","midi":32,"time":471.1114879999998,"velocity":0.7559055118110236,"duration":0.13773159166669302},{"name":"G#2","midi":44,"time":471.1114879999998,"velocity":0.7559055118110236,"duration":0.13773159166669302},{"name":"G#3","midi":56,"time":471.1114879999998,"velocity":0.7559055118110236,"duration":0.13773159166669302},{"name":"G#1","midi":32,"time":471.3892659999998,"velocity":0.7559055118110236,"duration":0.13773159166669302},{"name":"G#2","midi":44,"time":471.3892659999998,"velocity":0.7559055118110236,"duration":0.13773159166669302},{"name":"G#3","midi":56,"time":471.3892659999998,"velocity":0.7559055118110236,"duration":0.13773159166669302},{"name":"G#1","midi":32,"time":471.6670439999998,"velocity":0.7559055118110236,"duration":0.13773159166669302},{"name":"G#2","midi":44,"time":471.6670439999998,"velocity":0.7559055118110236,"duration":0.13773159166669302},{"name":"G#3","midi":56,"time":471.6670439999998,"velocity":0.7559055118110236,"duration":0.13773159166669302},{"name":"F5","midi":77,"time":471.9448219999998,"velocity":0.7559055118110236,"duration":0.13773159166669302},{"name":"F6","midi":89,"time":471.9448219999998,"velocity":0.7559055118110236,"duration":0.13773159166669302},{"name":"E5","midi":76,"time":472.22259999999983,"velocity":0.7559055118110236,"duration":0.13773159166669302},{"name":"E6","midi":88,"time":472.22259999999983,"velocity":0.7559055118110236,"duration":0.13773159166669302},{"name":"D5","midi":74,"time":472.50037799999984,"velocity":0.7559055118110236,"duration":0.13773159166669302},{"name":"D6","midi":86,"time":472.50037799999984,"velocity":0.7559055118110236,"duration":0.13773159166669302},{"name":"G1","midi":31,"time":472.77815599999985,"velocity":0.7559055118110236,"duration":0.26273169166665866},{"name":"G2","midi":43,"time":472.77815599999985,"velocity":0.7559055118110236,"duration":0.26273169166665866},{"name":"G1","midi":31,"time":473.05593399999987,"velocity":0.7559055118110236,"duration":0.26273169166665866},{"name":"G2","midi":43,"time":473.05593399999987,"velocity":0.7559055118110236,"duration":0.26273169166665866},{"name":"G1","midi":31,"time":473.3337119999999,"velocity":0.7559055118110236,"duration":0.13773159166669302},{"name":"G2","midi":43,"time":473.3337119999999,"velocity":0.7559055118110236,"duration":0.13773159166669302},{"name":"G3","midi":55,"time":473.3337119999999,"velocity":0.7559055118110236,"duration":0.13773159166669302},{"name":"G1","midi":31,"time":473.6114899999999,"velocity":0.7559055118110236,"duration":0.13773159166669302},{"name":"G2","midi":43,"time":473.6114899999999,"velocity":0.7559055118110236,"duration":0.13773159166669302},{"name":"G3","midi":55,"time":473.6114899999999,"velocity":0.7559055118110236,"duration":0.13773159166669302},{"name":"G2","midi":43,"time":473.8892679999999,"velocity":0.7559055118110236,"duration":0.13773159166669302},{"name":"G3","midi":55,"time":473.8892679999999,"velocity":0.7559055118110236,"duration":0.13773159166669302},{"name":"F5","midi":77,"time":474.1670459999999,"velocity":0.7559055118110236,"duration":0.13773159166669302},{"name":"F6","midi":89,"time":474.1670459999999,"velocity":0.7559055118110236,"duration":0.13773159166669302},{"name":"E5","midi":76,"time":474.4448239999999,"velocity":0.7559055118110236,"duration":0.13773159166669302},{"name":"E6","midi":88,"time":474.4448239999999,"velocity":0.7559055118110236,"duration":0.13773159166669302},{"name":"D5","midi":74,"time":474.72260199999994,"velocity":0.7559055118110236,"duration":0.13773159166669302},{"name":"D6","midi":86,"time":474.72260199999994,"velocity":0.7559055118110236,"duration":0.13773159166669302},{"name":"D1","midi":26,"time":475.00037999999995,"velocity":0.7559055118110236,"duration":0.1307871416666444},{"name":"A1","midi":33,"time":475.13926899999996,"velocity":0.7559055118110236,"duration":0.1307871416666444},{"name":"G#1","midi":32,"time":475.27815799999996,"velocity":0.7559055118110236,"duration":0.1307871416666444},{"name":"G1","midi":31,"time":475.41704699999997,"velocity":0.7559055118110236,"duration":0.1307871416666444},{"name":"D2","midi":38,"time":475.555936,"velocity":0.7637795275590551,"duration":0.1307871416666444},{"name":"C#2","midi":37,"time":475.694825,"velocity":0.7637795275590551,"duration":0.1307871416666444},{"name":"C2","midi":36,"time":475.833714,"velocity":0.7637795275590551,"duration":0.1307871416666444},{"name":"G2","midi":43,"time":475.972603,"velocity":0.7637795275590551,"duration":0.1307871416666444},{"name":"F#2","midi":42,"time":476.111492,"velocity":0.7716535433070866,"duration":0.1307871416666444},{"name":"F2","midi":41,"time":476.250381,"velocity":0.7716535433070866,"duration":0.1307871416666444},{"name":"D2","midi":38,"time":476.38927,"velocity":0.7716535433070866,"duration":0.1307871416666444},{"name":"C2","midi":36,"time":476.528159,"velocity":0.7716535433070866,"duration":0.1307871416666444},{"name":"A1","midi":33,"time":476.667048,"velocity":0.7795275590551181,"duration":0.1307871416666444},{"name":"C2","midi":36,"time":476.80593700000003,"velocity":0.7795275590551181,"duration":0.1307871416666444},{"name":"A1","midi":33,"time":476.94482600000003,"velocity":0.7795275590551181,"duration":0.1307871416666444},{"name":"E1","midi":28,"time":477.08371500000004,"velocity":0.7795275590551181,"duration":0.1307871416666444},{"name":"D1","midi":26,"time":477.22260400000005,"velocity":0.7874015748031497,"duration":0.1307871416666444},{"name":"A1","midi":33,"time":477.36149300000005,"velocity":0.7874015748031497,"duration":0.1307871416666444},{"name":"G#1","midi":32,"time":477.50038200000006,"velocity":0.7874015748031497,"duration":0.1307871416666444},{"name":"G1","midi":31,"time":477.63927100000006,"velocity":0.7874015748031497,"duration":0.1307871416666444},{"name":"D2","midi":38,"time":477.77816000000007,"velocity":0.7952755905511811,"duration":0.1307871416666444},{"name":"C#2","midi":37,"time":477.9170490000001,"velocity":0.7952755905511811,"duration":0.1307871416666444},{"name":"C2","midi":36,"time":478.0559380000001,"velocity":0.7952755905511811,"duration":0.1307871416666444},{"name":"G2","midi":43,"time":478.1948270000001,"velocity":0.7952755905511811,"duration":0.1307871416666444},{"name":"F#2","midi":42,"time":478.3337160000001,"velocity":0.8031496062992126,"duration":0.1307871416666444},{"name":"F2","midi":41,"time":478.4726050000001,"velocity":0.8031496062992126,"duration":0.1307871416666444},{"name":"D2","midi":38,"time":478.6114940000001,"velocity":0.8031496062992126,"duration":0.1307871416666444},{"name":"C2","midi":36,"time":478.7503830000001,"velocity":0.8031496062992126,"duration":0.1307871416666444},{"name":"A1","midi":33,"time":478.8892720000001,"velocity":0.8110236220472441,"duration":0.1307871416666444},{"name":"C2","midi":36,"time":479.0281610000001,"velocity":0.8110236220472441,"duration":0.1307871416666444},{"name":"A1","midi":33,"time":479.16705000000013,"velocity":0.8110236220472441,"duration":0.1307871416666444},{"name":"E1","midi":28,"time":479.30593900000014,"velocity":0.8110236220472441,"duration":0.1307871416666444},{"name":"D1","midi":26,"time":479.44482800000014,"velocity":0.8188976377952756,"duration":0.1307871416666444},{"name":"A1","midi":33,"time":479.58371700000015,"velocity":0.8188976377952756,"duration":0.1307871416666444},{"name":"G#1","midi":32,"time":479.72260600000016,"velocity":0.8188976377952756,"duration":0.1307871416666444},{"name":"G1","midi":31,"time":479.86149500000016,"velocity":0.8188976377952756,"duration":0.1307871416666444},{"name":"D2","midi":38,"time":480.00038400000017,"velocity":0.8267716535433071,"duration":0.1307871416666444},{"name":"C#2","midi":37,"time":480.1392730000002,"velocity":0.8267716535433071,"duration":0.1307871416666444},{"name":"C2","midi":36,"time":480.2781620000002,"velocity":0.8267716535433071,"duration":0.1307871416666444},{"name":"G2","midi":43,"time":480.4170510000002,"velocity":0.8267716535433071,"duration":0.1307871416666444},{"name":"F#2","midi":42,"time":480.5559400000002,"velocity":0.8346456692913385,"duration":0.1307871416666444},{"name":"F2","midi":41,"time":480.6948290000002,"velocity":0.8346456692913385,"duration":0.1307871416666444},{"name":"D2","midi":38,"time":480.8337180000002,"velocity":0.8346456692913385,"duration":0.1307871416666444},{"name":"C2","midi":36,"time":480.9726070000002,"velocity":0.8346456692913385,"duration":0.1307871416666444},{"name":"A1","midi":33,"time":481.1114960000002,"velocity":0.84251968503937,"duration":0.1307871416666444},{"name":"C2","midi":36,"time":481.2503850000002,"velocity":0.84251968503937,"duration":0.1307871416666444},{"name":"A1","midi":33,"time":481.3892740000002,"velocity":0.84251968503937,"duration":0.1307871416666444},{"name":"E1","midi":28,"time":481.52816300000023,"velocity":0.84251968503937,"duration":0.1307871416666444},{"name":"D1","midi":26,"time":481.66705200000024,"velocity":0.8503937007874016,"duration":0.1307871416666444},{"name":"A1","midi":33,"time":481.80594100000025,"velocity":0.8503937007874016,"duration":0.1307871416666444},{"name":"G#1","midi":32,"time":481.94483000000025,"velocity":0.8503937007874016,"duration":0.1307871416666444},{"name":"G1","midi":31,"time":482.08371900000026,"velocity":0.8503937007874016,"duration":0.1307871416666444},{"name":"D2","midi":38,"time":482.22260800000026,"velocity":0.8582677165354331,"duration":0.1307871416666444},{"name":"C#2","midi":37,"time":482.36149700000027,"velocity":0.8582677165354331,"duration":0.1307871416666444},{"name":"C2","midi":36,"time":482.5003860000003,"velocity":0.8582677165354331,"duration":0.1307871416666444},{"name":"G2","midi":43,"time":482.6392750000003,"velocity":0.8582677165354331,"duration":0.1307871416666444},{"name":"F#2","midi":42,"time":482.7781640000003,"velocity":0.8661417322834646,"duration":0.1307871416666444},{"name":"F2","midi":41,"time":482.9170530000003,"velocity":0.8661417322834646,"duration":0.1307871416666444},{"name":"D2","midi":38,"time":483.0559420000003,"velocity":0.8661417322834646,"duration":0.1307871416666444},{"name":"C2","midi":36,"time":483.1948310000003,"velocity":0.8661417322834646,"duration":0.1307871416666444},{"name":"A1","midi":33,"time":483.3337200000003,"velocity":0.8740157480314961,"duration":0.1307871416666444},{"name":"C2","midi":36,"time":483.4726090000003,"velocity":0.8740157480314961,"duration":0.1307871416666444},{"name":"A1","midi":33,"time":483.6114980000003,"velocity":0.8740157480314961,"duration":0.1307871416666444},{"name":"E1","midi":28,"time":483.75038700000033,"velocity":0.8740157480314961,"duration":0.1307871416666444},{"name":"D#4","midi":63,"time":522.5004180000003,"velocity":0.8818897637795275,"duration":0.06828709166666158},{"name":"F4","midi":65,"time":522.6393070000003,"velocity":0.8818897637795275,"duration":0.06828709166666158},{"name":"G4","midi":67,"time":522.7781960000002,"velocity":0.8818897637795275,"duration":0.06828709166666158},{"name":"F4","midi":65,"time":522.9170850000002,"velocity":0.8818897637795275,"duration":0.06828709166666158},{"name":"D#4","midi":63,"time":523.0559740000001,"velocity":0.8818897637795275,"duration":0.06828709166666158},{"name":"D4","midi":62,"time":523.194863,"velocity":0.8818897637795275,"duration":0.06828709166666158},{"name":"C4","midi":60,"time":523.333752,"velocity":0.8818897637795275,"duration":0.06828709166666158},{"name":"G4","midi":67,"time":523.472641,"velocity":0.8818897637795275,"duration":0.06828709166666158},{"name":"F4","midi":65,"time":523.6115299999999,"velocity":0.8818897637795275,"duration":0.06828709166666158},{"name":"G4","midi":67,"time":523.7504189999999,"velocity":0.8818897637795275,"duration":0.06828709166666158},{"name":"G#4","midi":68,"time":523.8893079999998,"velocity":0.8818897637795275,"duration":0.06828709166666158},{"name":"G4","midi":67,"time":524.0281969999998,"velocity":0.8818897637795275,"duration":0.06828709166666158},{"name":"F4","midi":65,"time":524.1670859999997,"velocity":0.8818897637795275,"duration":0.06828709166666158},{"name":"D#4","midi":63,"time":524.3059749999996,"velocity":0.8818897637795275,"duration":0.13078714166670125},{"name":"D4","midi":62,"time":524.4448639999997,"velocity":0.8818897637795275,"duration":0.06828709166666158},{"name":"G#4","midi":68,"time":524.5837529999997,"velocity":0.8818897637795275,"duration":0.06828709166666158},{"name":"G4","midi":67,"time":524.7226419999996,"velocity":0.8818897637795275,"duration":0.06828709166666158},{"name":"F#4","midi":66,"time":524.8615309999996,"velocity":0.8818897637795275,"duration":0.06828709166666158},{"name":"G4","midi":67,"time":525.0004199999995,"velocity":0.8818897637795275,"duration":0.06828709166666158},{"name":"F4","midi":65,"time":525.1393089999995,"velocity":0.8818897637795275,"duration":0.06828709166666158},{"name":"D#4","midi":63,"time":525.2781979999994,"velocity":0.8818897637795275,"duration":0.06828709166666158},{"name":"D4","midi":62,"time":525.4170869999994,"velocity":0.8818897637795275,"duration":0.06828709166666158},{"name":"C4","midi":60,"time":525.5559759999993,"velocity":0.8818897637795275,"duration":0.06828709166666158},{"name":"G4","midi":67,"time":525.6948649999993,"velocity":0.8818897637795275,"duration":0.06828709166666158},{"name":"F4","midi":65,"time":525.8337539999992,"velocity":0.8818897637795275,"duration":0.06828709166666158},{"name":"D#4","midi":63,"time":525.9726429999992,"velocity":0.8818897637795275,"duration":0.06828709166666158},{"name":"F4","midi":65,"time":526.1115319999991,"velocity":0.8818897637795275,"duration":0.0648148666666657},{"name":"D#4","midi":63,"time":526.1809764999991,"velocity":0.8818897637795275,"duration":0.0648148666666657},{"name":"D4","midi":62,"time":526.2504209999992,"velocity":0.8818897637795275,"duration":0.0648148666666657},{"name":"C4","midi":60,"time":526.3198654999992,"velocity":0.8818897637795275,"duration":0.0648148666666657},{"name":"D4","midi":62,"time":526.3893099999992,"velocity":0.8818897637795275,"duration":0.0648148666666657},{"name":"G#3","midi":56,"time":526.4587544999993,"velocity":0.8818897637795275,"duration":0.0648148666666657},{"name":"G3","midi":55,"time":526.5281989999993,"velocity":0.8818897637795275,"duration":0.0648148666666657},{"name":"B3","midi":59,"time":526.5976434999993,"velocity":0.8818897637795275,"duration":0.0648148666666657},{"name":"D4","midi":62,"time":526.6670879999994,"velocity":0.8818897637795275,"duration":0.0648148666666657},{"name":"B4","midi":71,"time":526.7365324999994,"velocity":0.8818897637795275,"duration":0.0648148666666657},{"name":"C5","midi":72,"time":526.8059769999994,"velocity":0.8818897637795275,"duration":0.0648148666666657},{"name":"B4","midi":71,"time":526.8754214999994,"velocity":0.8818897637795275,"duration":0.0648148666666657},{"name":"C5","midi":72,"time":526.9448659999995,"velocity":0.8818897637795275,"duration":0.0648148666666657},{"name":"B4","midi":71,"time":527.0143104999995,"velocity":0.8818897637795275,"duration":0.0648148666666657},{"name":"C5","midi":72,"time":527.0837549999995,"velocity":0.8818897637795275,"duration":0.0648148666666657},{"name":"B4","midi":71,"time":527.1531994999996,"velocity":0.8818897637795275,"duration":0.0648148666666657},{"name":"B4","midi":71,"time":527.2226439999996,"velocity":0.8818897637795275,"duration":0.0648148666666657},{"name":"C5","midi":72,"time":527.2920884999996,"velocity":0.8818897637795275,"duration":0.0648148666666657},{"name":"B4","midi":71,"time":527.3615329999997,"velocity":0.8818897637795275,"duration":0.0648148666666657},{"name":"C5","midi":72,"time":527.4309774999997,"velocity":0.8818897637795275,"duration":0.0648148666666657},{"name":"B4","midi":71,"time":527.5004219999997,"velocity":0.8818897637795275,"duration":0.0648148666666657},{"name":"C5","midi":72,"time":527.5698664999998,"velocity":0.8818897637795275,"duration":0.0648148666666657},{"name":"B4","midi":71,"time":527.6393109999998,"velocity":0.8818897637795275,"duration":0.0648148666666657},{"name":"C5","midi":72,"time":527.7087554999998,"velocity":0.8818897637795275,"duration":0.0648148666666657},{"name":"F4","midi":65,"time":527.7781999999999,"velocity":0.8818897637795275,"duration":0.0648148666666657},{"name":"G4","midi":67,"time":527.8476444999999,"velocity":0.8818897637795275,"duration":0.0648148666666657},{"name":"G#4","midi":68,"time":527.9170889999999,"velocity":0.8818897637795275,"duration":0.0648148666666657},{"name":"F4","midi":65,"time":527.9865335,"velocity":0.8818897637795275,"duration":0.0648148666666657},{"name":"G4","midi":67,"time":528.055978,"velocity":0.8818897637795275,"duration":0.0648148666666657},{"name":"D4","midi":62,"time":528.1254225,"velocity":0.8818897637795275,"duration":0.0648148666666657},{"name":"G3","midi":55,"time":528.194867,"velocity":0.8818897637795275,"duration":0.13078714166670125},{"name":"C2","midi":36,"time":528.3337560000001,"velocity":0.8818897637795275,"duration":0.2766205916666422},{"name":"C3","midi":48,"time":528.3337560000001,"velocity":0.8818897637795275,"duration":0.2766205916666422},{"name":"C2","midi":36,"time":528.8893120000001,"velocity":0.8818897637795275,"duration":0.2766205916666422},{"name":"C3","midi":48,"time":528.8893120000001,"velocity":0.8818897637795275,"duration":0.2766205916666422},{"name":"C2","midi":36,"time":529.4448680000002,"velocity":0.8818897637795275,"duration":0.26273169166665866},{"name":"C3","midi":48,"time":529.4448680000002,"velocity":0.8818897637795275,"duration":0.26273169166665866},{"name":"C2","midi":36,"time":529.7226460000002,"velocity":0.8818897637795275,"duration":0.13773159166669302},{"name":"C3","midi":48,"time":529.7226460000002,"velocity":0.8818897637795275,"duration":0.13773159166669302},{"name":"C2","midi":36,"time":530.2782020000002,"velocity":0.8818897637795275,"duration":0.26273169166665866},{"name":"C3","midi":48,"time":530.2782020000002,"velocity":0.8818897637795275,"duration":0.26273169166665866},{"name":"C2","midi":36,"time":530.5559800000002,"velocity":0.8818897637795275,"duration":0.26273169166677235},{"name":"C3","midi":48,"time":530.5559800000002,"velocity":0.8818897637795275,"duration":0.26273169166677235},{"name":"C2","midi":36,"time":530.8337580000003,"velocity":0.8818897637795275,"duration":0.26273169166665866},{"name":"C3","midi":48,"time":530.8337580000003,"velocity":0.8818897637795275,"duration":0.26273169166665866},{"name":"C2","midi":36,"time":531.1115360000003,"velocity":0.8818897637795275,"duration":0.26273169166665866},{"name":"C3","midi":48,"time":531.1115360000003,"velocity":0.8818897637795275,"duration":0.26273169166665866},{"name":"C2","midi":36,"time":531.3893140000004,"velocity":0.8818897637795275,"duration":0.26273169166665866},{"name":"C3","midi":48,"time":531.3893140000004,"velocity":0.8818897637795275,"duration":0.26273169166665866},{"name":"C2","midi":36,"time":531.6670920000004,"velocity":0.8818897637795275,"duration":0.26273169166665866},{"name":"C3","midi":48,"time":531.6670920000004,"velocity":0.8818897637795275,"duration":0.26273169166665866},{"name":"C2","midi":36,"time":531.9448700000004,"velocity":0.8818897637795275,"duration":0.26273169166665866},{"name":"C3","midi":48,"time":531.9448700000004,"velocity":0.8818897637795275,"duration":0.26273169166665866},{"name":"B1","midi":35,"time":532.2226480000004,"velocity":0.8818897637795275,"duration":0.26273169166665866},{"name":"B2","midi":47,"time":532.2226480000004,"velocity":0.8818897637795275,"duration":0.26273169166665866},{"name":"B1","midi":35,"time":532.5004260000004,"velocity":0.8818897637795275,"duration":0.26273169166665866},{"name":"B2","midi":47,"time":532.5004260000004,"velocity":0.8818897637795275,"duration":0.26273169166665866},{"name":"C2","midi":36,"time":532.7782040000004,"velocity":0.8818897637795275,"duration":0.2766205916667559},{"name":"C3","midi":48,"time":532.7782040000004,"velocity":0.8818897637795275,"duration":0.2766205916667559},{"name":"C2","midi":36,"time":533.3337600000006,"velocity":0.8818897637795275,"duration":0.2766205916666422},{"name":"C3","midi":48,"time":533.3337600000006,"velocity":0.8818897637795275,"duration":0.2766205916666422},{"name":"C2","midi":36,"time":533.8893160000006,"velocity":0.8818897637795275,"duration":0.26273169166665866},{"name":"C3","midi":48,"time":533.8893160000006,"velocity":0.8818897637795275,"duration":0.26273169166665866},{"name":"C2","midi":36,"time":534.1670940000006,"velocity":0.8818897637795275,"duration":0.13773159166669302},{"name":"C3","midi":48,"time":534.1670940000006,"velocity":0.8818897637795275,"duration":0.13773159166669302},{"name":"C2","midi":36,"time":534.7226500000006,"velocity":0.8818897637795275,"duration":0.26273169166665866},{"name":"C3","midi":48,"time":534.7226500000006,"velocity":0.8818897637795275,"duration":0.26273169166665866},{"name":"C2","midi":36,"time":535.0004280000006,"velocity":0.8818897637795275,"duration":0.26273169166677235},{"name":"C3","midi":48,"time":535.0004280000006,"velocity":0.8818897637795275,"duration":0.26273169166677235},{"name":"C2","midi":36,"time":535.2782060000008,"velocity":0.8818897637795275,"duration":0.26273169166665866},{"name":"C3","midi":48,"time":535.2782060000008,"velocity":0.8818897637795275,"duration":0.26273169166665866},{"name":"C2","midi":36,"time":535.5559840000008,"velocity":0.8818897637795275,"duration":0.26273169166665866},{"name":"C3","midi":48,"time":535.5559840000008,"velocity":0.8818897637795275,"duration":0.26273169166665866},{"name":"C2","midi":36,"time":535.8337620000008,"velocity":0.8818897637795275,"duration":0.26273169166665866},{"name":"C3","midi":48,"time":535.8337620000008,"velocity":0.8818897637795275,"duration":0.26273169166665866},{"name":"C2","midi":36,"time":536.1115400000008,"velocity":0.8818897637795275,"duration":0.26273169166665866},{"name":"C3","midi":48,"time":536.1115400000008,"velocity":0.8818897637795275,"duration":0.26273169166665866},{"name":"C2","midi":36,"time":536.3893180000008,"velocity":0.8818897637795275,"duration":0.26273169166665866},{"name":"C3","midi":48,"time":536.3893180000008,"velocity":0.8818897637795275,"duration":0.26273169166665866},{"name":"B1","midi":35,"time":536.6670960000008,"velocity":0.8818897637795275,"duration":0.26273169166665866},{"name":"B2","midi":47,"time":536.6670960000008,"velocity":0.8818897637795275,"duration":0.26273169166665866},{"name":"B1","midi":35,"time":536.9448740000008,"velocity":0.8818897637795275,"duration":0.26273169166665866},{"name":"B2","midi":47,"time":536.9448740000008,"velocity":0.8818897637795275,"duration":0.26273169166665866},{"name":"C2","midi":36,"time":537.2226520000008,"velocity":0.8818897637795275,"duration":0.2766205916667559},{"name":"C3","midi":48,"time":537.2226520000008,"velocity":0.8818897637795275,"duration":0.2766205916667559},{"name":"C2","midi":36,"time":537.778208000001,"velocity":0.8818897637795275,"duration":0.2766205916666422},{"name":"C3","midi":48,"time":537.778208000001,"velocity":0.8818897637795275,"duration":0.2766205916666422},{"name":"C2","midi":36,"time":538.333764000001,"velocity":0.8818897637795275,"duration":0.26273169166665866},{"name":"C3","midi":48,"time":538.333764000001,"velocity":0.8818897637795275,"duration":0.26273169166665866},{"name":"C2","midi":36,"time":538.611542000001,"velocity":0.8818897637795275,"duration":0.13773159166669302},{"name":"C3","midi":48,"time":538.611542000001,"velocity":0.8818897637795275,"duration":0.13773159166669302},{"name":"C2","midi":36,"time":539.167098000001,"velocity":0.8818897637795275,"duration":0.26273169166665866},{"name":"C3","midi":48,"time":539.167098000001,"velocity":0.8818897637795275,"duration":0.26273169166665866},{"name":"C2","midi":36,"time":539.444876000001,"velocity":0.8818897637795275,"duration":0.26273169166677235},{"name":"C3","midi":48,"time":539.444876000001,"velocity":0.8818897637795275,"duration":0.26273169166677235},{"name":"C2","midi":36,"time":539.7226540000012,"velocity":0.8818897637795275,"duration":0.26273169166665866},{"name":"C3","midi":48,"time":539.7226540000012,"velocity":0.8818897637795275,"duration":0.26273169166665866},{"name":"C2","midi":36,"time":540.0004320000012,"velocity":0.8818897637795275,"duration":0.26273169166665866},{"name":"C3","midi":48,"time":540.0004320000012,"velocity":0.8818897637795275,"duration":0.26273169166665866},{"name":"C2","midi":36,"time":540.2782100000012,"velocity":0.8818897637795275,"duration":0.26273169166665866},{"name":"C3","midi":48,"time":540.2782100000012,"velocity":0.8818897637795275,"duration":0.26273169166665866},{"name":"C2","midi":36,"time":540.5559880000012,"velocity":0.8818897637795275,"duration":0.26273169166665866},{"name":"C3","midi":48,"time":540.5559880000012,"velocity":0.8818897637795275,"duration":0.26273169166665866},{"name":"C2","midi":36,"time":540.8337660000012,"velocity":0.8818897637795275,"duration":0.26273169166665866},{"name":"C3","midi":48,"time":540.8337660000012,"velocity":0.8818897637795275,"duration":0.26273169166665866},{"name":"B1","midi":35,"time":541.1115440000012,"velocity":0.8818897637795275,"duration":0.26273169166665866},{"name":"B2","midi":47,"time":541.1115440000012,"velocity":0.8818897637795275,"duration":0.26273169166665866},{"name":"B1","midi":35,"time":541.3893220000012,"velocity":0.8818897637795275,"duration":0.26273169166665866},{"name":"B2","midi":47,"time":541.3893220000012,"velocity":0.8818897637795275,"duration":0.26273169166665866},{"name":"C2","midi":36,"time":541.6671000000013,"velocity":0.8818897637795275,"duration":0.2766205916667559},{"name":"C3","midi":48,"time":541.6671000000013,"velocity":0.8818897637795275,"duration":0.2766205916667559},{"name":"C2","midi":36,"time":542.2226560000014,"velocity":0.8818897637795275,"duration":0.2766205916666422},{"name":"C3","midi":48,"time":542.2226560000014,"velocity":0.8818897637795275,"duration":0.2766205916666422},{"name":"C2","midi":36,"time":542.7782120000014,"velocity":0.8818897637795275,"duration":0.26273169166665866},{"name":"C3","midi":48,"time":542.7782120000014,"velocity":0.8818897637795275,"duration":0.26273169166665866},{"name":"C2","midi":36,"time":543.0559900000014,"velocity":0.8818897637795275,"duration":0.13773159166669302},{"name":"C3","midi":48,"time":543.0559900000014,"velocity":0.8818897637795275,"duration":0.13773159166669302},{"name":"C2","midi":36,"time":543.6115460000015,"velocity":0.8818897637795275,"duration":0.26273169166665866},{"name":"C3","midi":48,"time":543.6115460000015,"velocity":0.8818897637795275,"duration":0.26273169166665866},{"name":"C2","midi":36,"time":543.8893240000015,"velocity":0.8818897637795275,"duration":0.26273169166677235},{"name":"C3","midi":48,"time":543.8893240000015,"velocity":0.8818897637795275,"duration":0.26273169166677235},{"name":"C2","midi":36,"time":544.1671020000016,"velocity":0.8818897637795275,"duration":0.26273169166665866},{"name":"C3","midi":48,"time":544.1671020000016,"velocity":0.8818897637795275,"duration":0.26273169166665866},{"name":"C2","midi":36,"time":544.4448800000016,"velocity":0.8818897637795275,"duration":0.26273169166665866},{"name":"C3","midi":48,"time":544.4448800000016,"velocity":0.8818897637795275,"duration":0.26273169166665866},{"name":"C2","midi":36,"time":544.7226580000016,"velocity":0.8818897637795275,"duration":0.26273169166665866},{"name":"C3","midi":48,"time":544.7226580000016,"velocity":0.8818897637795275,"duration":0.26273169166665866},{"name":"C2","midi":36,"time":545.0004360000016,"velocity":0.8818897637795275,"duration":0.26273169166665866},{"name":"C3","midi":48,"time":545.0004360000016,"velocity":0.8818897637795275,"duration":0.26273169166665866},{"name":"C2","midi":36,"time":545.2782140000016,"velocity":0.8818897637795275,"duration":0.26273169166665866},{"name":"C3","midi":48,"time":545.2782140000016,"velocity":0.8818897637795275,"duration":0.26273169166665866},{"name":"B1","midi":35,"time":545.5559920000017,"velocity":0.8818897637795275,"duration":0.26273169166665866},{"name":"B2","midi":47,"time":545.5559920000017,"velocity":0.8818897637795275,"duration":0.26273169166665866},{"name":"B1","midi":35,"time":545.8337700000017,"velocity":0.8818897637795275,"duration":0.26273169166665866},{"name":"B2","midi":47,"time":545.8337700000017,"velocity":0.8818897637795275,"duration":0.26273169166665866},{"name":"C2","midi":36,"time":546.1115480000017,"velocity":0.8818897637795275,"duration":0.2766205916667559},{"name":"C3","midi":48,"time":546.1115480000017,"velocity":0.8818897637795275,"duration":0.2766205916667559},{"name":"C2","midi":36,"time":546.6671040000018,"velocity":0.8818897637795275,"duration":0.2766205916666422},{"name":"C3","midi":48,"time":546.6671040000018,"velocity":0.8818897637795275,"duration":0.2766205916666422},{"name":"C2","midi":36,"time":547.2226600000018,"velocity":0.8818897637795275,"duration":0.26273169166665866},{"name":"C3","midi":48,"time":547.2226600000018,"velocity":0.8818897637795275,"duration":0.26273169166665866},{"name":"C2","midi":36,"time":547.5004380000019,"velocity":0.8818897637795275,"duration":0.13773159166669302},{"name":"C3","midi":48,"time":547.5004380000019,"velocity":0.8818897637795275,"duration":0.13773159166669302},{"name":"C2","midi":36,"time":548.0559940000019,"velocity":0.8818897637795275,"duration":0.26273169166665866},{"name":"C3","midi":48,"time":548.0559940000019,"velocity":0.8818897637795275,"duration":0.26273169166665866},{"name":"C2","midi":36,"time":548.3337720000019,"velocity":0.8818897637795275,"duration":0.26273169166677235},{"name":"C3","midi":48,"time":548.3337720000019,"velocity":0.8818897637795275,"duration":0.26273169166677235},{"name":"C2","midi":36,"time":548.611550000002,"velocity":0.8818897637795275,"duration":0.26273169166665866},{"name":"C3","midi":48,"time":548.611550000002,"velocity":0.8818897637795275,"duration":0.26273169166665866},{"name":"C2","midi":36,"time":548.889328000002,"velocity":0.8818897637795275,"duration":0.26273169166665866},{"name":"C3","midi":48,"time":548.889328000002,"velocity":0.8818897637795275,"duration":0.26273169166665866},{"name":"C2","midi":36,"time":549.167106000002,"velocity":0.8818897637795275,"duration":0.26273169166665866},{"name":"C3","midi":48,"time":549.167106000002,"velocity":0.8818897637795275,"duration":0.26273169166665866},{"name":"C2","midi":36,"time":549.444884000002,"velocity":0.8818897637795275,"duration":0.26273169166665866},{"name":"C3","midi":48,"time":549.444884000002,"velocity":0.8818897637795275,"duration":0.26273169166665866},{"name":"C2","midi":36,"time":549.7226620000021,"velocity":0.8818897637795275,"duration":0.26273169166665866},{"name":"C3","midi":48,"time":549.7226620000021,"velocity":0.8818897637795275,"duration":0.26273169166665866},{"name":"B1","midi":35,"time":550.0004400000021,"velocity":0.8818897637795275,"duration":0.26273169166665866},{"name":"B2","midi":47,"time":550.0004400000021,"velocity":0.8818897637795275,"duration":0.26273169166665866},{"name":"B1","midi":35,"time":550.2782180000021,"velocity":0.8818897637795275,"duration":0.26273169166665866},{"name":"B2","midi":47,"time":550.2782180000021,"velocity":0.8818897637795275,"duration":0.26273169166665866},{"name":"C2","midi":36,"time":550.5559960000021,"velocity":0.8818897637795275,"duration":0.2766205916667559},{"name":"C3","midi":48,"time":550.5559960000021,"velocity":0.8818897637795275,"duration":0.2766205916667559},{"name":"C2","midi":36,"time":551.1115520000022,"velocity":0.8818897637795275,"duration":0.2766205916666422},{"name":"C3","midi":48,"time":551.1115520000022,"velocity":0.8818897637795275,"duration":0.2766205916666422},{"name":"C2","midi":36,"time":551.6671080000023,"velocity":0.8818897637795275,"duration":0.26273169166665866},{"name":"C3","midi":48,"time":551.6671080000023,"velocity":0.8818897637795275,"duration":0.26273169166665866},{"name":"C2","midi":36,"time":551.9448860000023,"velocity":0.8818897637795275,"duration":0.13773159166669302},{"name":"C3","midi":48,"time":551.9448860000023,"velocity":0.8818897637795275,"duration":0.13773159166669302},{"name":"C2","midi":36,"time":552.5004420000023,"velocity":0.8818897637795275,"duration":0.26273169166665866},{"name":"C3","midi":48,"time":552.5004420000023,"velocity":0.8818897637795275,"duration":0.26273169166665866},{"name":"C2","midi":36,"time":552.7782200000023,"velocity":0.8818897637795275,"duration":0.26273169166677235},{"name":"C3","midi":48,"time":552.7782200000023,"velocity":0.8818897637795275,"duration":0.26273169166677235},{"name":"C2","midi":36,"time":553.0559980000024,"velocity":0.8818897637795275,"duration":0.26273169166665866},{"name":"C3","midi":48,"time":553.0559980000024,"velocity":0.8818897637795275,"duration":0.26273169166665866},{"name":"C2","midi":36,"time":553.3337760000024,"velocity":0.8818897637795275,"duration":0.26273169166665866},{"name":"C3","midi":48,"time":553.3337760000024,"velocity":0.8818897637795275,"duration":0.26273169166665866},{"name":"C2","midi":36,"time":553.6115540000025,"velocity":0.8818897637795275,"duration":0.26273169166665866},{"name":"C3","midi":48,"time":553.6115540000025,"velocity":0.8818897637795275,"duration":0.26273169166665866},{"name":"C2","midi":36,"time":553.8893320000025,"velocity":0.8818897637795275,"duration":0.26273169166665866},{"name":"C3","midi":48,"time":553.8893320000025,"velocity":0.8818897637795275,"duration":0.26273169166665866},{"name":"C2","midi":36,"time":554.1671100000025,"velocity":0.8818897637795275,"duration":0.26273169166665866},{"name":"C3","midi":48,"time":554.1671100000025,"velocity":0.8818897637795275,"duration":0.26273169166665866},{"name":"B1","midi":35,"time":554.4448880000025,"velocity":0.8818897637795275,"duration":0.26273169166665866},{"name":"B2","midi":47,"time":554.4448880000025,"velocity":0.8818897637795275,"duration":0.26273169166665866},{"name":"B1","midi":35,"time":554.7226660000025,"velocity":0.8818897637795275,"duration":0.26273169166665866},{"name":"B2","midi":47,"time":554.7226660000025,"velocity":0.8818897637795275,"duration":0.26273169166665866},{"name":"C2","midi":36,"time":555.0004440000025,"velocity":0.8818897637795275,"duration":0.2766205916667559},{"name":"C3","midi":48,"time":555.0004440000025,"velocity":0.8818897637795275,"duration":0.2766205916667559},{"name":"C2","midi":36,"time":555.5560000000027,"velocity":0.8818897637795275,"duration":0.2766205916666422},{"name":"C3","midi":48,"time":555.5560000000027,"velocity":0.8818897637795275,"duration":0.2766205916666422},{"name":"C2","midi":36,"time":556.1115560000027,"velocity":0.8818897637795275,"duration":0.26273169166665866},{"name":"C3","midi":48,"time":556.1115560000027,"velocity":0.8818897637795275,"duration":0.26273169166665866},{"name":"C2","midi":36,"time":556.3893340000027,"velocity":0.8818897637795275,"duration":0.13773159166669302},{"name":"C3","midi":48,"time":556.3893340000027,"velocity":0.8818897637795275,"duration":0.13773159166669302},{"name":"C2","midi":36,"time":556.9448900000027,"velocity":0.8818897637795275,"duration":0.26273169166665866},{"name":"C3","midi":48,"time":556.9448900000027,"velocity":0.8818897637795275,"duration":0.26273169166665866},{"name":"C2","midi":36,"time":557.2226680000027,"velocity":0.8818897637795275,"duration":0.26273169166677235},{"name":"C3","midi":48,"time":557.2226680000027,"velocity":0.8818897637795275,"duration":0.26273169166677235},{"name":"C2","midi":36,"time":557.5004460000029,"velocity":0.8818897637795275,"duration":0.26273169166665866},{"name":"C3","midi":48,"time":557.5004460000029,"velocity":0.8818897637795275,"duration":0.26273169166665866},{"name":"C2","midi":36,"time":557.7782240000029,"velocity":0.8818897637795275,"duration":0.26273169166665866},{"name":"C3","midi":48,"time":557.7782240000029,"velocity":0.8818897637795275,"duration":0.26273169166665866},{"name":"C2","midi":36,"time":558.0560020000029,"velocity":0.8818897637795275,"duration":0.26273169166665866},{"name":"C3","midi":48,"time":558.0560020000029,"velocity":0.8818897637795275,"duration":0.26273169166665866},{"name":"C2","midi":36,"time":558.3337800000029,"velocity":0.8818897637795275,"duration":0.26273169166665866},{"name":"C3","midi":48,"time":558.3337800000029,"velocity":0.8818897637795275,"duration":0.26273169166665866},{"name":"C2","midi":36,"time":558.6115580000029,"velocity":0.8818897637795275,"duration":0.26273169166665866},{"name":"C3","midi":48,"time":558.6115580000029,"velocity":0.8818897637795275,"duration":0.26273169166665866},{"name":"B1","midi":35,"time":558.8893360000029,"velocity":0.8818897637795275,"duration":0.26273169166665866},{"name":"B2","midi":47,"time":558.8893360000029,"velocity":0.8818897637795275,"duration":0.26273169166665866},{"name":"B1","midi":35,"time":559.1671140000029,"velocity":0.8818897637795275,"duration":0.26273169166665866},{"name":"B2","midi":47,"time":559.1671140000029,"velocity":0.8818897637795275,"duration":0.26273169166665866},{"name":"C2","midi":36,"time":559.4448920000029,"velocity":0.8818897637795275,"duration":0.2766205916667559},{"name":"C3","midi":48,"time":559.4448920000029,"velocity":0.8818897637795275,"duration":0.2766205916667559},{"name":"C2","midi":36,"time":560.0004480000031,"velocity":0.8818897637795275,"duration":0.2766205916666422},{"name":"C3","midi":48,"time":560.0004480000031,"velocity":0.8818897637795275,"duration":0.2766205916666422},{"name":"C2","midi":36,"time":560.5560040000031,"velocity":0.8818897637795275,"duration":0.26273169166665866},{"name":"C3","midi":48,"time":560.5560040000031,"velocity":0.8818897637795275,"duration":0.26273169166665866},{"name":"C2","midi":36,"time":560.8337820000031,"velocity":0.8818897637795275,"duration":0.13773159166669302},{"name":"C3","midi":48,"time":560.8337820000031,"velocity":0.8818897637795275,"duration":0.13773159166669302},{"name":"C2","midi":36,"time":561.3893380000031,"velocity":0.8818897637795275,"duration":0.26273169166665866},{"name":"C3","midi":48,"time":561.3893380000031,"velocity":0.8818897637795275,"duration":0.26273169166665866},{"name":"C2","midi":36,"time":561.6671160000031,"velocity":0.8818897637795275,"duration":0.26273169166677235},{"name":"C3","midi":48,"time":561.6671160000031,"velocity":0.8818897637795275,"duration":0.26273169166677235},{"name":"C2","midi":36,"time":561.9448940000033,"velocity":0.8818897637795275,"duration":0.26273169166665866},{"name":"C3","midi":48,"time":561.9448940000033,"velocity":0.8818897637795275,"duration":0.26273169166665866},{"name":"C2","midi":36,"time":562.2226720000033,"velocity":0.8818897637795275,"duration":0.26273169166665866},{"name":"C3","midi":48,"time":562.2226720000033,"velocity":0.8818897637795275,"duration":0.26273169166665866},{"name":"C2","midi":36,"time":562.5004500000033,"velocity":0.8818897637795275,"duration":0.26273169166665866},{"name":"C3","midi":48,"time":562.5004500000033,"velocity":0.8818897637795275,"duration":0.26273169166665866},{"name":"C2","midi":36,"time":562.7782280000033,"velocity":0.8818897637795275,"duration":0.26273169166665866},{"name":"C3","midi":48,"time":562.7782280000033,"velocity":0.8818897637795275,"duration":0.26273169166665866},{"name":"C2","midi":36,"time":563.0560060000033,"velocity":0.8818897637795275,"duration":0.26273169166665866},{"name":"C3","midi":48,"time":563.0560060000033,"velocity":0.8818897637795275,"duration":0.26273169166665866},{"name":"B1","midi":35,"time":563.3337840000033,"velocity":0.8818897637795275,"duration":0.26273169166665866},{"name":"B2","midi":47,"time":563.3337840000033,"velocity":0.8818897637795275,"duration":0.26273169166665866},{"name":"B1","midi":35,"time":563.6115620000033,"velocity":0.8818897637795275,"duration":0.26273169166665866},{"name":"B2","midi":47,"time":563.6115620000033,"velocity":0.8818897637795275,"duration":0.26273169166665866},{"name":"C2","midi":36,"time":563.8893400000034,"velocity":0.6299212598425197,"duration":0.2766205916667559},{"name":"C3","midi":48,"time":563.8893400000034,"velocity":0.6299212598425197,"duration":0.2766205916667559},{"name":"C2","midi":36,"time":564.4448960000035,"velocity":0.6299212598425197,"duration":0.2766205916666422},{"name":"C3","midi":48,"time":564.4448960000035,"velocity":0.6299212598425197,"duration":0.2766205916666422},{"name":"C2","midi":36,"time":565.0004520000035,"velocity":0.6299212598425197,"duration":0.26273169166665866},{"name":"C3","midi":48,"time":565.0004520000035,"velocity":0.6299212598425197,"duration":0.26273169166665866},{"name":"C2","midi":36,"time":565.2782300000035,"velocity":0.6299212598425197,"duration":0.13773159166669302},{"name":"C3","midi":48,"time":565.2782300000035,"velocity":0.6299212598425197,"duration":0.13773159166669302},{"name":"C2","midi":36,"time":565.8337860000036,"velocity":0.6299212598425197,"duration":0.26273169166665866},{"name":"C3","midi":48,"time":565.8337860000036,"velocity":0.6299212598425197,"duration":0.26273169166665866},{"name":"C2","midi":36,"time":566.1115640000036,"velocity":0.6299212598425197,"duration":0.26273169166677235},{"name":"C3","midi":48,"time":566.1115640000036,"velocity":0.6299212598425197,"duration":0.26273169166677235},{"name":"C2","midi":36,"time":566.3893420000037,"velocity":0.6299212598425197,"duration":0.26273169166665866},{"name":"C3","midi":48,"time":566.3893420000037,"velocity":0.6299212598425197,"duration":0.26273169166665866},{"name":"C2","midi":36,"time":566.6671200000037,"velocity":0.6299212598425197,"duration":0.26273169166665866},{"name":"C3","midi":48,"time":566.6671200000037,"velocity":0.6299212598425197,"duration":0.26273169166665866},{"name":"C2","midi":36,"time":566.9448980000037,"velocity":0.6299212598425197,"duration":0.26273169166665866},{"name":"C3","midi":48,"time":566.9448980000037,"velocity":0.6299212598425197,"duration":0.26273169166665866},{"name":"C2","midi":36,"time":567.2226760000037,"velocity":0.6299212598425197,"duration":0.26273169166665866},{"name":"C3","midi":48,"time":567.2226760000037,"velocity":0.6299212598425197,"duration":0.26273169166665866},{"name":"C2","midi":36,"time":567.5004540000037,"velocity":0.6299212598425197,"duration":0.26273169166665866},{"name":"C3","midi":48,"time":567.5004540000037,"velocity":0.6299212598425197,"duration":0.26273169166665866},{"name":"B1","midi":35,"time":567.7782320000038,"velocity":0.6299212598425197,"duration":0.26273169166665866},{"name":"B2","midi":47,"time":567.7782320000038,"velocity":0.6299212598425197,"duration":0.26273169166665866},{"name":"B1","midi":35,"time":568.0560100000038,"velocity":0.6299212598425197,"duration":0.26273169166665866},{"name":"B2","midi":47,"time":568.0560100000038,"velocity":0.6299212598425197,"duration":0.26273169166665866},{"name":"C2","midi":36,"time":568.3337880000038,"velocity":0.6299212598425197,"duration":0.2766205916667559},{"name":"C3","midi":48,"time":568.3337880000038,"velocity":0.6299212598425197,"duration":0.2766205916667559},{"name":"C2","midi":36,"time":568.8893440000039,"velocity":0.6299212598425197,"duration":0.2766205916666422},{"name":"C3","midi":48,"time":568.8893440000039,"velocity":0.6299212598425197,"duration":0.2766205916666422},{"name":"C2","midi":36,"time":569.4449000000039,"velocity":0.6299212598425197,"duration":0.26273169166665866},{"name":"C3","midi":48,"time":569.4449000000039,"velocity":0.6299212598425197,"duration":0.26273169166665866},{"name":"C2","midi":36,"time":569.722678000004,"velocity":0.6299212598425197,"duration":0.13773159166669302},{"name":"C3","midi":48,"time":569.722678000004,"velocity":0.6299212598425197,"duration":0.13773159166669302},{"name":"C2","midi":36,"time":570.278234000004,"velocity":0.6299212598425197,"duration":0.26273169166665866},{"name":"C3","midi":48,"time":570.278234000004,"velocity":0.6299212598425197,"duration":0.26273169166665866},{"name":"C2","midi":36,"time":570.556012000004,"velocity":0.6299212598425197,"duration":0.26273169166677235},{"name":"C3","midi":48,"time":570.556012000004,"velocity":0.6299212598425197,"duration":0.26273169166677235},{"name":"C2","midi":36,"time":570.8337900000041,"velocity":0.6299212598425197,"duration":0.26273169166665866},{"name":"C3","midi":48,"time":570.8337900000041,"velocity":0.6299212598425197,"duration":0.26273169166665866},{"name":"C2","midi":36,"time":571.1115680000041,"velocity":0.6299212598425197,"duration":0.26273169166665866},{"name":"C3","midi":48,"time":571.1115680000041,"velocity":0.6299212598425197,"duration":0.26273169166665866},{"name":"C2","midi":36,"time":571.3893460000041,"velocity":0.6299212598425197,"duration":0.26273169166665866},{"name":"C3","midi":48,"time":571.3893460000041,"velocity":0.6299212598425197,"duration":0.26273169166665866},{"name":"C2","midi":36,"time":571.6671240000042,"velocity":0.6299212598425197,"duration":0.26273169166665866},{"name":"C3","midi":48,"time":571.6671240000042,"velocity":0.6299212598425197,"duration":0.26273169166665866},{"name":"C2","midi":36,"time":571.9449020000042,"velocity":0.6299212598425197,"duration":0.26273169166665866},{"name":"C3","midi":48,"time":571.9449020000042,"velocity":0.6299212598425197,"duration":0.26273169166665866},{"name":"B1","midi":35,"time":572.2226800000042,"velocity":0.6299212598425197,"duration":0.26273169166665866},{"name":"B2","midi":47,"time":572.2226800000042,"velocity":0.6299212598425197,"duration":0.26273169166665866},{"name":"B1","midi":35,"time":572.5004580000042,"velocity":0.6299212598425197,"duration":0.26273169166665866},{"name":"B2","midi":47,"time":572.5004580000042,"velocity":0.6299212598425197,"duration":0.26273169166665866},{"name":"C2","midi":36,"time":572.7782360000042,"velocity":0.6299212598425197,"duration":0.2766205916667559},{"name":"C3","midi":48,"time":572.7782360000042,"velocity":0.6299212598425197,"duration":0.2766205916667559},{"name":"C2","midi":36,"time":573.3337920000043,"velocity":0.6299212598425197,"duration":0.2766205916666422},{"name":"C3","midi":48,"time":573.3337920000043,"velocity":0.6299212598425197,"duration":0.2766205916666422},{"name":"C2","midi":36,"time":573.8893480000044,"velocity":0.6299212598425197,"duration":0.26273169166665866},{"name":"C3","midi":48,"time":573.8893480000044,"velocity":0.6299212598425197,"duration":0.26273169166665866},{"name":"C2","midi":36,"time":574.1671260000044,"velocity":0.6299212598425197,"duration":0.13773159166669302},{"name":"C3","midi":48,"time":574.1671260000044,"velocity":0.6299212598425197,"duration":0.13773159166669302},{"name":"C2","midi":36,"time":574.7226820000044,"velocity":0.6299212598425197,"duration":0.26273169166665866},{"name":"C3","midi":48,"time":574.7226820000044,"velocity":0.6299212598425197,"duration":0.26273169166665866},{"name":"C2","midi":36,"time":575.0004600000044,"velocity":0.6299212598425197,"duration":0.26273169166677235},{"name":"C3","midi":48,"time":575.0004600000044,"velocity":0.6299212598425197,"duration":0.26273169166677235},{"name":"C2","midi":36,"time":575.2782380000045,"velocity":0.6299212598425197,"duration":0.26273169166665866},{"name":"C3","midi":48,"time":575.2782380000045,"velocity":0.6299212598425197,"duration":0.26273169166665866},{"name":"C2","midi":36,"time":575.5560160000045,"velocity":0.6299212598425197,"duration":0.26273169166665866},{"name":"C3","midi":48,"time":575.5560160000045,"velocity":0.6299212598425197,"duration":0.26273169166665866},{"name":"C2","midi":36,"time":575.8337940000046,"velocity":0.6299212598425197,"duration":0.26273169166665866},{"name":"C3","midi":48,"time":575.8337940000046,"velocity":0.6299212598425197,"duration":0.26273169166665866},{"name":"C2","midi":36,"time":576.1115720000046,"velocity":0.6299212598425197,"duration":0.26273169166665866},{"name":"C3","midi":48,"time":576.1115720000046,"velocity":0.6299212598425197,"duration":0.26273169166665866},{"name":"C2","midi":36,"time":576.3893500000046,"velocity":0.6299212598425197,"duration":0.26273169166665866},{"name":"C3","midi":48,"time":576.3893500000046,"velocity":0.6299212598425197,"duration":0.26273169166665866},{"name":"B1","midi":35,"time":576.6671280000046,"velocity":0.6299212598425197,"duration":0.26273169166665866},{"name":"B2","midi":47,"time":576.6671280000046,"velocity":0.6299212598425197,"duration":0.26273169166665866},{"name":"B1","midi":35,"time":576.9449060000046,"velocity":0.6299212598425197,"duration":0.26273169166665866},{"name":"B2","midi":47,"time":576.9449060000046,"velocity":0.6299212598425197,"duration":0.26273169166665866},{"name":"C2","midi":36,"time":577.2226840000046,"velocity":0.6299212598425197,"duration":0.2766205916667559},{"name":"C3","midi":48,"time":577.2226840000046,"velocity":0.6299212598425197,"duration":0.2766205916667559},{"name":"C2","midi":36,"time":577.7782400000048,"velocity":0.6299212598425197,"duration":0.2766205916666422},{"name":"C3","midi":48,"time":577.7782400000048,"velocity":0.6299212598425197,"duration":0.2766205916666422},{"name":"C2","midi":36,"time":578.3337960000048,"velocity":0.6299212598425197,"duration":0.26273169166665866},{"name":"C3","midi":48,"time":578.3337960000048,"velocity":0.6299212598425197,"duration":0.26273169166665866},{"name":"C2","midi":36,"time":578.6115740000048,"velocity":0.6299212598425197,"duration":0.13773159166669302},{"name":"C3","midi":48,"time":578.6115740000048,"velocity":0.6299212598425197,"duration":0.13773159166669302},{"name":"C2","midi":36,"time":579.1671300000048,"velocity":0.6299212598425197,"duration":0.26273169166665866},{"name":"C3","midi":48,"time":579.1671300000048,"velocity":0.6299212598425197,"duration":0.26273169166665866},{"name":"C2","midi":36,"time":579.4449080000048,"velocity":0.6299212598425197,"duration":0.26273169166677235},{"name":"C3","midi":48,"time":579.4449080000048,"velocity":0.6299212598425197,"duration":0.26273169166677235},{"name":"C2","midi":36,"time":579.722686000005,"velocity":0.6299212598425197,"duration":0.26273169166665866},{"name":"C3","midi":48,"time":579.722686000005,"velocity":0.6299212598425197,"duration":0.26273169166665866},{"name":"C2","midi":36,"time":580.000464000005,"velocity":0.6299212598425197,"duration":0.26273169166665866},{"name":"C3","midi":48,"time":580.000464000005,"velocity":0.6299212598425197,"duration":0.26273169166665866},{"name":"C2","midi":36,"time":580.278242000005,"velocity":0.6299212598425197,"duration":0.26273169166665866},{"name":"C3","midi":48,"time":580.278242000005,"velocity":0.6299212598425197,"duration":0.26273169166665866},{"name":"C2","midi":36,"time":580.556020000005,"velocity":0.6299212598425197,"duration":0.26273169166665866},{"name":"C3","midi":48,"time":580.556020000005,"velocity":0.6299212598425197,"duration":0.26273169166665866},{"name":"C2","midi":36,"time":580.833798000005,"velocity":0.6299212598425197,"duration":0.26273169166665866},{"name":"C3","midi":48,"time":580.833798000005,"velocity":0.6299212598425197,"duration":0.26273169166665866},{"name":"B1","midi":35,"time":581.111576000005,"velocity":0.6299212598425197,"duration":0.26273169166665866},{"name":"B2","midi":47,"time":581.111576000005,"velocity":0.6299212598425197,"duration":0.26273169166665866},{"name":"B1","midi":35,"time":581.389354000005,"velocity":0.6299212598425197,"duration":0.26273169166665866},{"name":"B2","midi":47,"time":581.389354000005,"velocity":0.6299212598425197,"duration":0.26273169166665866},{"name":"C2","midi":36,"time":581.667132000005,"velocity":0.6299212598425197,"duration":0.2766205916667559},{"name":"C3","midi":48,"time":581.667132000005,"velocity":0.6299212598425197,"duration":0.2766205916667559},{"name":"C2","midi":36,"time":582.2226880000052,"velocity":0.6299212598425197,"duration":0.2766205916666422},{"name":"C3","midi":48,"time":582.2226880000052,"velocity":0.6299212598425197,"duration":0.2766205916666422},{"name":"C2","midi":36,"time":582.7782440000052,"velocity":0.6299212598425197,"duration":0.26273169166665866},{"name":"C3","midi":48,"time":582.7782440000052,"velocity":0.6299212598425197,"duration":0.26273169166665866},{"name":"C2","midi":36,"time":583.0560220000052,"velocity":0.6299212598425197,"duration":0.13773159166669302},{"name":"C3","midi":48,"time":583.0560220000052,"velocity":0.6299212598425197,"duration":0.13773159166669302},{"name":"C2","midi":36,"time":583.6115780000052,"velocity":0.6299212598425197,"duration":0.26273169166665866},{"name":"C3","midi":48,"time":583.6115780000052,"velocity":0.6299212598425197,"duration":0.26273169166665866},{"name":"C2","midi":36,"time":583.8893560000053,"velocity":0.6299212598425197,"duration":0.26273169166677235},{"name":"C3","midi":48,"time":583.8893560000053,"velocity":0.6299212598425197,"duration":0.26273169166677235},{"name":"C2","midi":36,"time":584.1671340000054,"velocity":0.6299212598425197,"duration":0.26273169166665866},{"name":"C3","midi":48,"time":584.1671340000054,"velocity":0.6299212598425197,"duration":0.26273169166665866},{"name":"C2","midi":36,"time":584.4449120000054,"velocity":0.6299212598425197,"duration":0.26273169166665866},{"name":"C3","midi":48,"time":584.4449120000054,"velocity":0.6299212598425197,"duration":0.26273169166665866},{"name":"C2","midi":36,"time":584.7226900000054,"velocity":0.6299212598425197,"duration":0.26273169166665866},{"name":"C3","midi":48,"time":584.7226900000054,"velocity":0.6299212598425197,"duration":0.26273169166665866},{"name":"C2","midi":36,"time":585.0004680000054,"velocity":0.6299212598425197,"duration":0.26273169166665866},{"name":"C3","midi":48,"time":585.0004680000054,"velocity":0.6299212598425197,"duration":0.26273169166665866},{"name":"C2","midi":36,"time":585.2782460000054,"velocity":0.6299212598425197,"duration":0.26273169166665866},{"name":"C3","midi":48,"time":585.2782460000054,"velocity":0.6299212598425197,"duration":0.26273169166665866},{"name":"B1","midi":35,"time":585.5560240000054,"velocity":0.6299212598425197,"duration":0.26273169166665866},{"name":"B2","midi":47,"time":585.5560240000054,"velocity":0.6299212598425197,"duration":0.26273169166665866},{"name":"B1","midi":35,"time":585.8338020000054,"velocity":0.6299212598425197,"duration":0.26273169166665866},{"name":"B2","midi":47,"time":585.8338020000054,"velocity":0.6299212598425197,"duration":0.26273169166665866},{"name":"C2","midi":36,"time":586.1115800000055,"velocity":0.6299212598425197,"duration":0.2766205916667559},{"name":"C3","midi":48,"time":586.1115800000055,"velocity":0.6299212598425197,"duration":0.2766205916667559},{"name":"C2","midi":36,"time":586.6671360000056,"velocity":0.6299212598425197,"duration":0.2766205916666422},{"name":"C3","midi":48,"time":586.6671360000056,"velocity":0.6299212598425197,"duration":0.2766205916666422},{"name":"C2","midi":36,"time":587.2226920000056,"velocity":0.6299212598425197,"duration":0.26273169166665866},{"name":"C3","midi":48,"time":587.2226920000056,"velocity":0.6299212598425197,"duration":0.26273169166665866},{"name":"C2","midi":36,"time":587.5004700000056,"velocity":0.6299212598425197,"duration":0.13773159166669302},{"name":"C3","midi":48,"time":587.5004700000056,"velocity":0.6299212598425197,"duration":0.13773159166669302},{"name":"C2","midi":36,"time":588.0560260000057,"velocity":0.6299212598425197,"duration":0.26273169166665866},{"name":"C3","midi":48,"time":588.0560260000057,"velocity":0.6299212598425197,"duration":0.26273169166665866},{"name":"C2","midi":36,"time":588.3338040000057,"velocity":0.6299212598425197,"duration":0.26273169166677235},{"name":"C3","midi":48,"time":588.3338040000057,"velocity":0.6299212598425197,"duration":0.26273169166677235},{"name":"C2","midi":36,"time":588.6115820000058,"velocity":0.6299212598425197,"duration":0.26273169166665866},{"name":"C3","midi":48,"time":588.6115820000058,"velocity":0.6299212598425197,"duration":0.26273169166665866},{"name":"C2","midi":36,"time":588.8893600000058,"velocity":0.6299212598425197,"duration":0.26273169166665866},{"name":"C3","midi":48,"time":588.8893600000058,"velocity":0.6299212598425197,"duration":0.26273169166665866},{"name":"C2","midi":36,"time":589.1671380000058,"velocity":0.6299212598425197,"duration":0.26273169166665866},{"name":"C3","midi":48,"time":589.1671380000058,"velocity":0.6299212598425197,"duration":0.26273169166665866},{"name":"C2","midi":36,"time":589.4449160000058,"velocity":0.6299212598425197,"duration":0.26273169166665866},{"name":"C3","midi":48,"time":589.4449160000058,"velocity":0.6299212598425197,"duration":0.26273169166665866},{"name":"C2","midi":36,"time":589.7226940000058,"velocity":0.6299212598425197,"duration":0.26273169166665866},{"name":"C3","midi":48,"time":589.7226940000058,"velocity":0.6299212598425197,"duration":0.26273169166665866},{"name":"B1","midi":35,"time":590.0004720000059,"velocity":0.6299212598425197,"duration":0.26273169166665866},{"name":"B2","midi":47,"time":590.0004720000059,"velocity":0.6299212598425197,"duration":0.26273169166665866},{"name":"B1","midi":35,"time":590.2782500000059,"velocity":0.6299212598425197,"duration":0.26273169166665866},{"name":"B2","midi":47,"time":590.2782500000059,"velocity":0.6299212598425197,"duration":0.26273169166665866},{"name":"C2","midi":36,"time":590.5560280000059,"velocity":0.6299212598425197,"duration":0.2766205916667559},{"name":"C3","midi":48,"time":590.5560280000059,"velocity":0.6299212598425197,"duration":0.2766205916667559},{"name":"C2","midi":36,"time":591.111584000006,"velocity":0.6299212598425197,"duration":0.2766205916666422},{"name":"C3","midi":48,"time":591.111584000006,"velocity":0.6299212598425197,"duration":0.2766205916666422},{"name":"C2","midi":36,"time":591.667140000006,"velocity":0.6299212598425197,"duration":0.26273169166665866},{"name":"C3","midi":48,"time":591.667140000006,"velocity":0.6299212598425197,"duration":0.26273169166665866},{"name":"C2","midi":36,"time":591.944918000006,"velocity":0.6299212598425197,"duration":0.13773159166669302},{"name":"C3","midi":48,"time":591.944918000006,"velocity":0.6299212598425197,"duration":0.13773159166669302},{"name":"C2","midi":36,"time":592.5004740000061,"velocity":0.6299212598425197,"duration":0.26273169166665866},{"name":"C3","midi":48,"time":592.5004740000061,"velocity":0.6299212598425197,"duration":0.26273169166665866},{"name":"C2","midi":36,"time":592.7782520000061,"velocity":0.6299212598425197,"duration":0.26273169166677235},{"name":"C3","midi":48,"time":592.7782520000061,"velocity":0.6299212598425197,"duration":0.26273169166677235},{"name":"C2","midi":36,"time":593.0560300000062,"velocity":0.6299212598425197,"duration":0.26273169166665866},{"name":"C3","midi":48,"time":593.0560300000062,"velocity":0.6299212598425197,"duration":0.26273169166665866},{"name":"C2","midi":36,"time":593.3338080000062,"velocity":0.6299212598425197,"duration":0.26273169166665866},{"name":"C3","midi":48,"time":593.3338080000062,"velocity":0.6299212598425197,"duration":0.26273169166665866},{"name":"C2","midi":36,"time":593.6115860000062,"velocity":0.6299212598425197,"duration":0.26273169166665866},{"name":"C3","midi":48,"time":593.6115860000062,"velocity":0.6299212598425197,"duration":0.26273169166665866},{"name":"C2","midi":36,"time":593.8893640000063,"velocity":0.6299212598425197,"duration":0.26273169166665866},{"name":"C3","midi":48,"time":593.8893640000063,"velocity":0.6299212598425197,"duration":0.26273169166665866},{"name":"C2","midi":36,"time":594.1671420000063,"velocity":0.6299212598425197,"duration":0.26273169166665866},{"name":"C3","midi":48,"time":594.1671420000063,"velocity":0.6299212598425197,"duration":0.26273169166665866},{"name":"B1","midi":35,"time":594.4449200000063,"velocity":0.6299212598425197,"duration":0.26273169166665866},{"name":"B2","midi":47,"time":594.4449200000063,"velocity":0.6299212598425197,"duration":0.26273169166665866},{"name":"B1","midi":35,"time":594.7226980000063,"velocity":0.6299212598425197,"duration":0.26273169166665866},{"name":"B2","midi":47,"time":594.7226980000063,"velocity":0.6299212598425197,"duration":0.26273169166665866},{"name":"C2","midi":36,"time":595.0004760000063,"velocity":0.6299212598425197,"duration":0.2766205916667559},{"name":"C3","midi":48,"time":595.0004760000063,"velocity":0.6299212598425197,"duration":0.2766205916667559},{"name":"C2","midi":36,"time":595.5560320000064,"velocity":0.6299212598425197,"duration":0.2766205916666422},{"name":"C3","midi":48,"time":595.5560320000064,"velocity":0.6299212598425197,"duration":0.2766205916666422},{"name":"C2","midi":36,"time":596.1115880000065,"velocity":0.6299212598425197,"duration":0.26273169166665866},{"name":"C3","midi":48,"time":596.1115880000065,"velocity":0.6299212598425197,"duration":0.26273169166665866},{"name":"C2","midi":36,"time":596.3893660000065,"velocity":0.6299212598425197,"duration":0.13773159166669302},{"name":"C3","midi":48,"time":596.3893660000065,"velocity":0.6299212598425197,"duration":0.13773159166669302},{"name":"C2","midi":36,"time":596.9449220000065,"velocity":0.6299212598425197,"duration":0.26273169166665866},{"name":"C3","midi":48,"time":596.9449220000065,"velocity":0.6299212598425197,"duration":0.26273169166665866},{"name":"C2","midi":36,"time":597.2227000000065,"velocity":0.6299212598425197,"duration":0.26273169166677235},{"name":"C3","midi":48,"time":597.2227000000065,"velocity":0.6299212598425197,"duration":0.26273169166677235},{"name":"C2","midi":36,"time":597.5004780000066,"velocity":0.6299212598425197,"duration":0.26273169166665866},{"name":"C3","midi":48,"time":597.5004780000066,"velocity":0.6299212598425197,"duration":0.26273169166665866},{"name":"C2","midi":36,"time":597.7782560000066,"velocity":0.6299212598425197,"duration":0.26273169166665866},{"name":"C3","midi":48,"time":597.7782560000066,"velocity":0.6299212598425197,"duration":0.26273169166665866},{"name":"C2","midi":36,"time":598.0560340000067,"velocity":0.6299212598425197,"duration":0.26273169166665866},{"name":"C3","midi":48,"time":598.0560340000067,"velocity":0.6299212598425197,"duration":0.26273169166665866},{"name":"C2","midi":36,"time":598.3338120000067,"velocity":0.6299212598425197,"duration":0.26273169166665866},{"name":"C3","midi":48,"time":598.3338120000067,"velocity":0.6299212598425197,"duration":0.26273169166665866},{"name":"C2","midi":36,"time":598.6115900000067,"velocity":0.6299212598425197,"duration":0.26273169166665866},{"name":"C3","midi":48,"time":598.6115900000067,"velocity":0.6299212598425197,"duration":0.26273169166665866},{"name":"B1","midi":35,"time":598.8893680000067,"velocity":0.6299212598425197,"duration":0.26273169166665866},{"name":"B2","midi":47,"time":598.8893680000067,"velocity":0.6299212598425197,"duration":0.26273169166665866},{"name":"B1","midi":35,"time":599.1671460000067,"velocity":0.6299212598425197,"duration":0.26273169166665866},{"name":"B2","midi":47,"time":599.1671460000067,"velocity":0.6299212598425197,"duration":0.26273169166665866},{"name":"C2","midi":36,"time":599.4449240000067,"velocity":0.6299212598425197,"duration":0.2766205916667559},{"name":"C3","midi":48,"time":599.4449240000067,"velocity":0.6299212598425197,"duration":0.2766205916667559},{"name":"C2","midi":36,"time":600.0004800000069,"velocity":0.6299212598425197,"duration":0.2766205916666422},{"name":"C3","midi":48,"time":600.0004800000069,"velocity":0.6299212598425197,"duration":0.2766205916666422},{"name":"C2","midi":36,"time":600.5560360000069,"velocity":0.6299212598425197,"duration":0.26273169166665866},{"name":"C3","midi":48,"time":600.5560360000069,"velocity":0.6299212598425197,"duration":0.26273169166665866},{"name":"C2","midi":36,"time":600.8338140000069,"velocity":0.6299212598425197,"duration":0.13773159166669302},{"name":"C3","midi":48,"time":600.8338140000069,"velocity":0.6299212598425197,"duration":0.13773159166669302},{"name":"C2","midi":36,"time":601.3893700000069,"velocity":0.6299212598425197,"duration":0.26273169166665866},{"name":"C3","midi":48,"time":601.3893700000069,"velocity":0.6299212598425197,"duration":0.26273169166665866},{"name":"C2","midi":36,"time":601.6671480000069,"velocity":0.6299212598425197,"duration":0.26273169166677235},{"name":"C3","midi":48,"time":601.6671480000069,"velocity":0.6299212598425197,"duration":0.26273169166677235},{"name":"C2","midi":36,"time":601.9449260000071,"velocity":0.5590551181102362,"duration":0.26273169166665866},{"name":"C3","midi":48,"time":601.9449260000071,"velocity":0.5590551181102362,"duration":0.26273169166665866},{"name":"C2","midi":36,"time":602.2227040000071,"velocity":0.4881889763779528,"duration":0.26273169166665866},{"name":"C3","midi":48,"time":602.2227040000071,"velocity":0.4881889763779528,"duration":0.26273169166665866},{"name":"C2","midi":36,"time":602.5004820000071,"velocity":0.41732283464566927,"duration":0.26273169166665866},{"name":"C3","midi":48,"time":602.5004820000071,"velocity":0.41732283464566927,"duration":0.26273169166665866},{"name":"C2","midi":36,"time":602.7782600000071,"velocity":0.3464566929133858,"duration":0.26273169166665866},{"name":"C3","midi":48,"time":602.7782600000071,"velocity":0.3464566929133858,"duration":0.26273169166665866},{"name":"C2","midi":36,"time":603.0560380000071,"velocity":0.2755905511811024,"duration":0.26273169166665866},{"name":"C3","midi":48,"time":603.0560380000071,"velocity":0.2755905511811024,"duration":0.26273169166665866},{"name":"B1","midi":35,"time":603.3338160000071,"velocity":0.2047244094488189,"duration":0.26273169166665866},{"name":"B2","midi":47,"time":603.3338160000071,"velocity":0.2047244094488189,"duration":0.26273169166665866},{"name":"B1","midi":35,"time":603.6115940000071,"velocity":0.12598425196850394,"duration":0.26273169166665866},{"name":"B2","midi":47,"time":603.6115940000071,"velocity":0.12598425196850394,"duration":0.26273169166665866},{"name":"F#5","midi":78,"time":603.8893720000071,"velocity":0.6299212598425197,"duration":0.26273169166665866},{"name":"F#6","midi":90,"time":603.8893720000071,"velocity":0.6299212598425197,"duration":0.26273169166665866},{"name":"F#5","midi":78,"time":604.4449280000072,"velocity":0.6299212598425197,"duration":0.26273169166665866},{"name":"F#6","midi":90,"time":604.4449280000072,"velocity":0.6299212598425197,"duration":0.26273169166665866},{"name":"F#5","midi":78,"time":605.0004840000072,"velocity":0.6299212598425197,"duration":1.0543989916666305},{"name":"F#6","midi":90,"time":605.0004840000072,"velocity":0.6299212598425197,"duration":1.0543989916666305},{"name":"G5","midi":79,"time":606.1115960000071,"velocity":0.6299212598425197,"duration":0.26273169166665866},{"name":"C6","midi":84,"time":606.1115960000071,"velocity":0.6299212598425197,"duration":0.26273169166665866},{"name":"G6","midi":91,"time":606.1115960000071,"velocity":0.6299212598425197,"duration":0.26273169166665866},{"name":"C7","midi":96,"time":606.1115960000071,"velocity":0.6299212598425197,"duration":0.26273169166665866},{"name":"D#5","midi":75,"time":606.6671520000071,"velocity":0.6299212598425197,"duration":0.26273169166665866},{"name":"G5","midi":79,"time":606.6671520000071,"velocity":0.6299212598425197,"duration":0.26273169166665866},{"name":"D#6","midi":87,"time":606.6671520000071,"velocity":0.6299212598425197,"duration":0.26273169166665866},{"name":"G6","midi":91,"time":606.6671520000071,"velocity":0.6299212598425197,"duration":0.26273169166665866},{"name":"C5","midi":72,"time":607.2227080000072,"velocity":0.6299212598425197,"duration":0.26273169166665866},{"name":"D#5","midi":75,"time":607.2227080000072,"velocity":0.6299212598425197,"duration":0.26273169166665866},{"name":"C6","midi":84,"time":607.2227080000072,"velocity":0.6299212598425197,"duration":0.26273169166665866},{"name":"D#6","midi":87,"time":607.2227080000072,"velocity":0.6299212598425197,"duration":0.26273169166665866},{"name":"G4","midi":67,"time":607.7782640000072,"velocity":0.6299212598425197,"duration":0.26273169166665866},{"name":"C5","midi":72,"time":607.7782640000072,"velocity":0.6299212598425197,"duration":0.26273169166665866},{"name":"G5","midi":79,"time":607.7782640000072,"velocity":0.6299212598425197,"duration":0.26273169166665866},{"name":"C6","midi":84,"time":607.7782640000072,"velocity":0.6299212598425197,"duration":0.26273169166665866},{"name":"B4","midi":71,"time":608.3338200000072,"velocity":0.6299212598425197,"duration":0.26273169166665866},{"name":"B5","midi":83,"time":608.3338200000072,"velocity":0.6299212598425197,"duration":0.26273169166665866},{"name":"C5","midi":72,"time":608.8893760000072,"velocity":0.6299212598425197,"duration":0.26273169166665866},{"name":"C6","midi":84,"time":608.8893760000072,"velocity":0.6299212598425197,"duration":0.26273169166665866},{"name":"D5","midi":74,"time":609.4449320000073,"velocity":0.6299212598425197,"duration":1.0543989916666305},{"name":"D6","midi":86,"time":609.4449320000073,"velocity":0.6299212598425197,"duration":1.0543989916666305},{"name":"C5","midi":72,"time":610.5560440000072,"velocity":0.6299212598425197,"duration":0.26273169166665866},{"name":"C6","midi":84,"time":610.5560440000072,"velocity":0.6299212598425197,"duration":0.26273169166665866},{"name":"G4","midi":67,"time":611.1116000000072,"velocity":0.6299212598425197,"duration":0.26273169166665866},{"name":"G5","midi":79,"time":611.1116000000072,"velocity":0.6299212598425197,"duration":0.26273169166665866},{"name":"D#4","midi":63,"time":611.6671560000073,"velocity":0.6299212598425197,"duration":0.26273169166665866},{"name":"D#5","midi":75,"time":611.6671560000073,"velocity":0.6299212598425197,"duration":0.26273169166665866},{"name":"C4","midi":60,"time":612.2227120000073,"velocity":0.6299212598425197,"duration":0.26273169166665866},{"name":"C5","midi":72,"time":612.2227120000073,"velocity":0.6299212598425197,"duration":0.26273169166665866},{"name":"F#4","midi":66,"time":612.7782680000073,"velocity":0.6299212598425197,"duration":0.26273169166665866},{"name":"F#5","midi":78,"time":612.7782680000073,"velocity":0.6299212598425197,"duration":0.26273169166665866},{"name":"G4","midi":67,"time":613.3338240000073,"velocity":0.6299212598425197,"duration":0.26273169166665866},{"name":"G5","midi":79,"time":613.3338240000073,"velocity":0.6299212598425197,"duration":0.26273169166665866},{"name":"G#4","midi":68,"time":613.8893800000073,"velocity":0.6299212598425197,"duration":1.0543989916666305},{"name":"G#5","midi":80,"time":613.8893800000073,"velocity":0.6299212598425197,"duration":1.0543989916666305},{"name":"G4","midi":67,"time":615.0004920000073,"velocity":0.6299212598425197,"duration":0.26273169166665866},{"name":"G5","midi":79,"time":615.0004920000073,"velocity":0.6299212598425197,"duration":0.26273169166665866},{"name":"C4","midi":60,"time":617.7782720000073,"velocity":0.6299212598425197,"duration":0.26273169166665866},{"name":"C5","midi":72,"time":617.7782720000073,"velocity":0.6299212598425197,"duration":0.26273169166665866},{"name":"G4","midi":67,"time":618.3338280000073,"velocity":0.6299212598425197,"duration":0.26273169166665866},{"name":"G5","midi":79,"time":618.3338280000073,"velocity":0.6299212598425197,"duration":0.26273169166665866},{"name":"C5","midi":72,"time":618.8893840000073,"velocity":0.6299212598425197,"duration":0.26273169166665866},{"name":"C6","midi":84,"time":618.8893840000073,"velocity":0.6299212598425197,"duration":0.26273169166665866},{"name":"D#5","midi":75,"time":619.4449400000074,"velocity":0.6299212598425197,"duration":1.0543989916666305},{"name":"D#6","midi":87,"time":619.4449400000074,"velocity":0.6299212598425197,"duration":1.0543989916666305},{"name":"A#5","midi":82,"time":620.5560520000073,"velocity":0.6299212598425197,"duration":1.0543989916666305},{"name":"A#6","midi":94,"time":620.5560520000073,"velocity":0.6299212598425197,"duration":1.0543989916666305},{"name":"A5","midi":81,"time":621.6671640000072,"velocity":0.6299212598425197,"duration":0.26273169166665866},{"name":"A6","midi":93,"time":621.6671640000072,"velocity":0.6299212598425197,"duration":0.26273169166665866},{"name":"G5","midi":79,"time":622.2227200000073,"velocity":0.6299212598425197,"duration":0.26273169166665866},{"name":"G6","midi":91,"time":622.2227200000073,"velocity":0.6299212598425197,"duration":0.26273169166665866},{"name":"A5","midi":81,"time":622.7782760000073,"velocity":0.6299212598425197,"duration":1.0543989916666305},{"name":"A6","midi":93,"time":622.7782760000073,"velocity":0.6299212598425197,"duration":1.0543989916666305},{"name":"C6","midi":84,"time":623.8893880000072,"velocity":0.6299212598425197,"duration":0.26273169166665866},{"name":"C7","midi":96,"time":623.8893880000072,"velocity":0.6299212598425197,"duration":0.26273169166665866},{"name":"G5","midi":79,"time":624.4449440000072,"velocity":0.6299212598425197,"duration":0.26273169166665866},{"name":"G6","midi":91,"time":624.4449440000072,"velocity":0.6299212598425197,"duration":0.26273169166665866},{"name":"D#5","midi":75,"time":625.0005000000073,"velocity":0.6299212598425197,"duration":0.26273169166665866},{"name":"D#6","midi":87,"time":625.0005000000073,"velocity":0.6299212598425197,"duration":0.26273169166665866},{"name":"C5","midi":72,"time":625.5560560000073,"velocity":0.6299212598425197,"duration":0.26273169166665866},{"name":"C6","midi":84,"time":625.5560560000073,"velocity":0.6299212598425197,"duration":0.26273169166665866},{"name":"D5","midi":74,"time":626.1116120000073,"velocity":0.6299212598425197,"duration":0.26273169166665866},{"name":"D6","midi":86,"time":626.1116120000073,"velocity":0.6299212598425197,"duration":0.26273169166665866},{"name":"D#5","midi":75,"time":626.6671680000073,"velocity":0.6299212598425197,"duration":0.26273169166665866},{"name":"D#6","midi":87,"time":626.6671680000073,"velocity":0.6299212598425197,"duration":0.26273169166665866},{"name":"F#5","midi":78,"time":627.2227240000074,"velocity":0.6299212598425197,"duration":1.0543989916666305},{"name":"F#6","midi":90,"time":627.2227240000074,"velocity":0.6299212598425197,"duration":1.0543989916666305},{"name":"G5","midi":79,"time":628.3338360000073,"velocity":0.6299212598425197,"duration":0.26273169166665866},{"name":"G6","midi":91,"time":628.3338360000073,"velocity":0.6299212598425197,"duration":0.26273169166665866},{"name":"D#5","midi":75,"time":628.8893920000073,"velocity":0.6299212598425197,"duration":0.26273169166665866},{"name":"D#6","midi":87,"time":628.8893920000073,"velocity":0.6299212598425197,"duration":0.26273169166665866},{"name":"C5","midi":72,"time":629.4449480000073,"velocity":0.6299212598425197,"duration":0.26273169166665866},{"name":"C6","midi":84,"time":629.4449480000073,"velocity":0.6299212598425197,"duration":0.26273169166665866},{"name":"G4","midi":67,"time":630.0005040000074,"velocity":0.6299212598425197,"duration":0.26273169166665866},{"name":"G5","midi":79,"time":630.0005040000074,"velocity":0.6299212598425197,"duration":0.26273169166665866},{"name":"D5","midi":74,"time":630.5560600000074,"velocity":0.6299212598425197,"duration":0.26273169166665866},{"name":"D6","midi":86,"time":630.5560600000074,"velocity":0.6299212598425197,"duration":0.26273169166665866},{"name":"D#5","midi":75,"time":631.1116160000074,"velocity":0.6299212598425197,"duration":0.26273169166665866},{"name":"D#6","midi":87,"time":631.1116160000074,"velocity":0.6299212598425197,"duration":0.26273169166665866},{"name":"F5","midi":77,"time":631.6671720000074,"velocity":0.6299212598425197,"duration":1.0543989916666305},{"name":"F6","midi":89,"time":631.6671720000074,"velocity":0.6299212598425197,"duration":1.0543989916666305},{"name":"D#5","midi":75,"time":632.7782840000074,"velocity":0.6299212598425197,"duration":0.26273169166665866},{"name":"D#6","midi":87,"time":632.7782840000074,"velocity":0.6299212598425197,"duration":0.26273169166665866},{"name":"C2","midi":36,"time":641.6671800000074,"velocity":0.6299212598425197,"duration":0.5266207916666872},{"name":"C3","midi":48,"time":641.6671800000074,"velocity":0.6299212598425197,"duration":0.5266207916666872},{"name":"A#1","midi":34,"time":642.2227360000074,"velocity":0.6299212598425197,"duration":0.13773159166669302},{"name":"A#2","midi":46,"time":642.2227360000074,"velocity":0.6299212598425197,"duration":0.13773159166669302},{"name":"D2","midi":38,"time":642.5005140000075,"velocity":0.6299212598425197,"duration":0.13773159166669302},{"name":"D3","midi":50,"time":642.5005140000075,"velocity":0.6299212598425197,"duration":0.13773159166669302},{"name":"C2","midi":36,"time":642.7782920000075,"velocity":0.6299212598425197,"duration":1.0543989916666305},{"name":"C3","midi":48,"time":642.7782920000075,"velocity":0.6299212598425197,"duration":1.0543989916666305},{"name":"F2","midi":41,"time":653.0560780000075,"velocity":0.8818897637795275,"duration":0.26273169166665866},{"name":"G#2","midi":44,"time":653.3338560000075,"velocity":0.8818897637795275,"duration":0.26273169166665866},{"name":"C3","midi":48,"time":653.6116340000075,"velocity":0.8818897637795275,"duration":0.26273169166665866},{"name":"E3","midi":52,"time":653.8894120000075,"velocity":0.8818897637795275,"duration":0.13078714166670125},{"name":"F3","midi":53,"time":654.0283010000076,"velocity":0.8818897637795275,"duration":0.3946762416666161},{"name":"C3","midi":48,"time":654.4449680000075,"velocity":0.8818897637795275,"duration":0.5266207916666872},{"name":"B2","midi":47,"time":655.0005240000075,"velocity":0.8818897637795275,"duration":0.13773159166669302},{"name":"C3","midi":48,"time":655.2783020000076,"velocity":0.8818897637795275,"duration":0.13773159166669302},{"name":"D3","midi":50,"time":655.5560800000076,"velocity":0.8818897637795275,"duration":0.5266207916666872},{"name":"B2","midi":47,"time":656.1116360000076,"velocity":0.8818897637795275,"duration":0.13773159166669302},{"name":"G2","midi":43,"time":656.3894140000076,"velocity":0.8818897637795275,"duration":0.13773159166669302},{"name":"B2","midi":47,"time":656.6671920000076,"velocity":0.8818897637795275,"duration":0.26273169166665866},{"name":"D3","midi":50,"time":656.9449700000076,"velocity":0.8818897637795275,"duration":0.26273169166665866},{"name":"D#3","midi":51,"time":657.2227480000076,"velocity":0.8818897637795275,"duration":0.5266207916666872},{"name":"D3","midi":50,"time":657.7783040000077,"velocity":0.8818897637795275,"duration":0.13773159166669302},{"name":"C3","midi":48,"time":658.0560820000077,"velocity":0.8818897637795275,"duration":0.13773159166669302},{"name":"A#3","midi":58,"time":658.3338600000077,"velocity":0.8818897637795275,"duration":0.13078714166670125},{"name":"C4","midi":60,"time":658.4727490000078,"velocity":0.8818897637795275,"duration":0.3946762416666161},{"name":"A#3","midi":58,"time":658.8894160000077,"velocity":0.8818897637795275,"duration":0.26273169166665866},{"name":"G#3","midi":56,"time":659.1671940000077,"velocity":0.8818897637795275,"duration":0.26273169166665866},{"name":"G3","midi":55,"time":659.4449720000077,"velocity":0.8818897637795275,"duration":0.5266207916666872},{"name":"F3","midi":53,"time":660.0005280000078,"velocity":0.8818897637795275,"duration":0.13773159166669302},{"name":"G#3","midi":56,"time":660.2783060000078,"velocity":0.8818897637795275,"duration":0.13773159166669302},{"name":"G3","midi":55,"time":660.5560840000078,"velocity":0.8818897637795275,"duration":1.0543989916666305},{"name":"F2","midi":41,"time":661.9449740000077,"velocity":0.8818897637795275,"duration":0.26273169166665866},{"name":"G#2","midi":44,"time":662.2227520000077,"velocity":0.8818897637795275,"duration":0.26273169166665866},{"name":"C3","midi":48,"time":662.5005300000078,"velocity":0.8818897637795275,"duration":0.26273169166665866},{"name":"E3","midi":52,"time":662.7783080000078,"velocity":0.8818897637795275,"duration":0.13078714166670125},{"name":"F3","midi":53,"time":662.9171970000078,"velocity":0.8818897637795275,"duration":0.3946762416666161},{"name":"C3","midi":48,"time":663.3338640000078,"velocity":0.8818897637795275,"duration":0.5266207916666872},{"name":"B2","midi":47,"time":663.8894200000078,"velocity":0.8818897637795275,"duration":0.13773159166669302},{"name":"C3","midi":48,"time":664.1671980000078,"velocity":0.8818897637795275,"duration":0.13773159166669302},{"name":"D3","midi":50,"time":664.4449760000078,"velocity":0.8818897637795275,"duration":0.5266207916666872},{"name":"B2","midi":47,"time":665.0005320000079,"velocity":0.8818897637795275,"duration":0.13773159166669302},{"name":"G2","midi":43,"time":665.2783100000079,"velocity":0.8818897637795275,"duration":0.13773159166669302},{"name":"B2","midi":47,"time":665.5560880000079,"velocity":0.8818897637795275,"duration":0.26273169166665866},{"name":"D3","midi":50,"time":665.8338660000079,"velocity":0.8818897637795275,"duration":0.26273169166665866},{"name":"D#3","midi":51,"time":666.1116440000079,"velocity":0.8818897637795275,"duration":0.5266207916666872},{"name":"D3","midi":50,"time":666.6672000000079,"velocity":0.8818897637795275,"duration":0.13773159166669302},{"name":"C3","midi":48,"time":666.944978000008,"velocity":0.8818897637795275,"duration":0.13773159166669302},{"name":"C4","midi":60,"time":728.889472000008,"velocity":0.8818897637795275,"duration":0.13773159166669302},{"name":"G4","midi":67,"time":729.167250000008,"velocity":0.8818897637795275,"duration":0.13773159166669302},{"name":"C5","midi":72,"time":729.445028000008,"velocity":0.8818897637795275,"duration":0.13773159166669302},{"name":"D#5","midi":75,"time":729.7228060000081,"velocity":0.8818897637795275,"duration":0.5266207916666872},{"name":"C5","midi":72,"time":730.2783620000081,"velocity":0.8818897637795275,"duration":0.5266207916666872},{"name":"B4","midi":71,"time":730.8339180000081,"velocity":0.8818897637795275,"duration":0.13773159166669302},{"name":"C5","midi":72,"time":731.1116960000081,"velocity":0.8818897637795275,"duration":0.13773159166669302},{"name":"D5","midi":74,"time":731.3894740000081,"velocity":0.8818897637795275,"duration":0.5266207916666872},{"name":"C5","midi":72,"time":731.9450300000082,"velocity":0.8818897637795275,"duration":0.13773159166669302},{"name":"G4","midi":67,"time":732.2228080000082,"velocity":0.8818897637795275,"duration":0.13773159166669302},{"name":"D#4","midi":63,"time":732.5005860000082,"velocity":0.8818897637795275,"duration":0.13773159166669302},{"name":"C4","midi":60,"time":732.7783640000082,"velocity":0.8818897637795275,"duration":0.13773159166669302},{"name":"D4","midi":62,"time":733.0561420000082,"velocity":0.8818897637795275,"duration":0.13773159166669302},{"name":"D#4","midi":63,"time":733.3339200000082,"velocity":0.8818897637795275,"duration":0.13773159166669302},{"name":"F#4","midi":66,"time":733.6116980000082,"velocity":0.8818897637795275,"duration":0.5266207916666872},{"name":"G4","midi":67,"time":734.1672540000083,"velocity":0.8818897637795275,"duration":0.13773159166669302},{"name":"D#4","midi":63,"time":734.4450320000083,"velocity":0.8818897637795275,"duration":0.13773159166669302},{"name":"C4","midi":60,"time":734.7228100000083,"velocity":0.8818897637795275,"duration":0.13773159166669302},{"name":"G3","midi":55,"time":735.0005880000083,"velocity":0.8818897637795275,"duration":0.13773159166669302},{"name":"B3","midi":59,"time":735.2783660000083,"velocity":0.8818897637795275,"duration":0.13773159166669302},{"name":"C4","midi":60,"time":735.5561440000083,"velocity":0.8818897637795275,"duration":0.13773159166669302},{"name":"D4","midi":62,"time":735.8339220000083,"velocity":0.8818897637795275,"duration":0.5266207916666872},{"name":"C4","midi":60,"time":736.3894780000084,"velocity":0.8818897637795275,"duration":0.2766205916666422},{"name":"C4","midi":60,"time":737.7783680000083,"velocity":0.8818897637795275,"duration":0.13773159166669302},{"name":"G4","midi":67,"time":738.0561460000083,"velocity":0.8818897637795275,"duration":0.13773159166669302},{"name":"C5","midi":72,"time":738.3339240000083,"velocity":0.8818897637795275,"duration":0.13773159166669302},{"name":"D#5","midi":75,"time":738.6117020000083,"velocity":0.8818897637795275,"duration":0.5266207916666872},{"name":"A5","midi":81,"time":739.1672580000084,"velocity":0.8818897637795275,"duration":0.11805564999997387},{"name":"A#5","midi":82,"time":739.2864710583417,"velocity":0.8818897637795275,"duration":0.4120373666667092},{"name":"A4","midi":69,"time":739.7228140000084,"velocity":0.8818897637795275,"duration":0.13773159166669302},{"name":"A5","midi":81,"time":739.7228140000084,"velocity":0.8818897637795275,"duration":0.13773159166669302},{"name":"G4","midi":67,"time":740.0005920000084,"velocity":0.8818897637795275,"duration":0.13773159166669302},{"name":"G5","midi":79,"time":740.0005920000084,"velocity":0.8818897637795275,"duration":0.13773159166669302},{"name":"A4","midi":69,"time":740.2783700000084,"velocity":0.8818897637795275,"duration":0.5266207916666872},{"name":"A5","midi":81,"time":740.2783700000084,"velocity":0.8818897637795275,"duration":0.5266207916666872},{"name":"A#4","midi":70,"time":740.8339260000084,"velocity":0.8818897637795275,"duration":0.13773159166669302},{"name":"A#5","midi":82,"time":740.8339260000084,"velocity":0.8818897637795275,"duration":0.13773159166669302},{"name":"G4","midi":67,"time":741.1117040000084,"velocity":0.8818897637795275,"duration":0.13773159166669302},{"name":"G5","midi":79,"time":741.1117040000084,"velocity":0.8818897637795275,"duration":0.13773159166669302},{"name":"D#4","midi":63,"time":741.3894820000085,"velocity":0.8818897637795275,"duration":0.13773159166669302},{"name":"D#5","midi":75,"time":741.3894820000085,"velocity":0.8818897637795275,"duration":0.13773159166669302},{"name":"C4","midi":60,"time":741.6672600000085,"velocity":0.8818897637795275,"duration":0.13773159166669302},{"name":"C5","midi":72,"time":741.6672600000085,"velocity":0.8818897637795275,"duration":0.13773159166669302},{"name":"D4","midi":62,"time":741.9450380000085,"velocity":0.8818897637795275,"duration":0.13773159166669302},{"name":"D5","midi":74,"time":741.9450380000085,"velocity":0.8818897637795275,"duration":0.13773159166669302},{"name":"D#4","midi":63,"time":742.2228160000085,"velocity":0.8818897637795275,"duration":0.13773159166669302},{"name":"D#5","midi":75,"time":742.2228160000085,"velocity":0.8818897637795275,"duration":0.13773159166669302},{"name":"F#4","midi":66,"time":742.5005940000085,"velocity":0.8818897637795275,"duration":0.5266207916666872},{"name":"F#5","midi":78,"time":742.5005940000085,"velocity":0.8818897637795275,"duration":0.5266207916666872},{"name":"G4","midi":67,"time":743.0561500000085,"velocity":0.8818897637795275,"duration":0.13773159166669302},{"name":"G5","midi":79,"time":743.0561500000085,"velocity":0.8818897637795275,"duration":0.13773159166669302},{"name":"D#4","midi":63,"time":743.3339280000085,"velocity":0.8818897637795275,"duration":0.13773159166669302},{"name":"D#5","midi":75,"time":743.3339280000085,"velocity":0.8818897637795275,"duration":0.13773159166669302},{"name":"C4","midi":60,"time":743.6117060000086,"velocity":0.8818897637795275,"duration":0.13773159166669302},{"name":"C5","midi":72,"time":743.6117060000086,"velocity":0.8818897637795275,"duration":0.13773159166669302},{"name":"G3","midi":55,"time":743.8894840000086,"velocity":0.8818897637795275,"duration":0.13773159166669302},{"name":"G4","midi":67,"time":743.8894840000086,"velocity":0.8818897637795275,"duration":0.13773159166669302},{"name":"B3","midi":59,"time":744.1672620000086,"velocity":0.8818897637795275,"duration":0.13773159166669302},{"name":"B4","midi":71,"time":744.1672620000086,"velocity":0.8818897637795275,"duration":0.13773159166669302},{"name":"C4","midi":60,"time":744.4450400000086,"velocity":0.8818897637795275,"duration":0.13773159166669302},{"name":"C5","midi":72,"time":744.4450400000086,"velocity":0.8818897637795275,"duration":0.13773159166669302},{"name":"D4","midi":62,"time":744.7228180000086,"velocity":0.8818897637795275,"duration":0.5266207916666872},{"name":"D5","midi":74,"time":744.7228180000086,"velocity":0.8818897637795275,"duration":0.5266207916666872},{"name":"C4","midi":60,"time":745.2783740000086,"velocity":0.8818897637795275,"duration":0.2766205916666422},{"name":"C5","midi":72,"time":745.2783740000086,"velocity":0.8818897637795275,"duration":0.2766205916666422},{"name":"C3","midi":48,"time":746.6672640000086,"velocity":0.8818897637795275,"duration":0.13773159166669302},{"name":"C4","midi":60,"time":746.6672640000086,"velocity":0.8818897637795275,"duration":0.13773159166669302},{"name":"G3","midi":55,"time":746.9450420000086,"velocity":0.8818897637795275,"duration":0.13773159166669302},{"name":"G4","midi":67,"time":746.9450420000086,"velocity":0.8818897637795275,"duration":0.13773159166669302},{"name":"C4","midi":60,"time":747.2228200000086,"velocity":0.8818897637795275,"duration":0.13773159166669302},{"name":"C5","midi":72,"time":747.2228200000086,"velocity":0.8818897637795275,"duration":0.13773159166669302},{"name":"D#4","midi":63,"time":747.5005980000086,"velocity":0.8818897637795275,"duration":0.5266207916666872},{"name":"D#5","midi":75,"time":747.5005980000086,"velocity":0.8818897637795275,"duration":0.5266207916666872},{"name":"C4","midi":60,"time":748.0561540000086,"velocity":0.8818897637795275,"duration":0.5266207916666872},{"name":"C5","midi":72,"time":748.0561540000086,"velocity":0.8818897637795275,"duration":0.5266207916666872},{"name":"B3","midi":59,"time":748.6117100000087,"velocity":0.8818897637795275,"duration":0.13773159166669302},{"name":"B4","midi":71,"time":748.6117100000087,"velocity":0.8818897637795275,"duration":0.13773159166669302},{"name":"C4","midi":60,"time":748.8894880000087,"velocity":0.8818897637795275,"duration":0.13773159166669302},{"name":"C5","midi":72,"time":748.8894880000087,"velocity":0.8818897637795275,"duration":0.13773159166669302},{"name":"D4","midi":62,"time":749.1672660000087,"velocity":0.8818897637795275,"duration":0.5266207916666872},{"name":"D5","midi":74,"time":749.1672660000087,"velocity":0.8818897637795275,"duration":0.5266207916666872},{"name":"C4","midi":60,"time":749.7228220000087,"velocity":0.8818897637795275,"duration":0.13773159166669302},{"name":"C5","midi":72,"time":749.7228220000087,"velocity":0.8818897637795275,"duration":0.13773159166669302},{"name":"G3","midi":55,"time":750.0006000000087,"velocity":0.8818897637795275,"duration":0.13773159166669302},{"name":"G4","midi":67,"time":750.0006000000087,"velocity":0.8818897637795275,"duration":0.13773159166669302},{"name":"D#3","midi":51,"time":750.2783780000087,"velocity":0.8818897637795275,"duration":0.13773159166669302},{"name":"D#4","midi":63,"time":750.2783780000087,"velocity":0.8818897637795275,"duration":0.13773159166669302},{"name":"C3","midi":48,"time":750.5561560000087,"velocity":0.8818897637795275,"duration":0.13773159166669302},{"name":"C4","midi":60,"time":750.5561560000087,"velocity":0.8818897637795275,"duration":0.13773159166669302},{"name":"D3","midi":50,"time":750.8339340000088,"velocity":0.8818897637795275,"duration":0.13773159166669302},{"name":"D4","midi":62,"time":750.8339340000088,"velocity":0.8818897637795275,"duration":0.13773159166669302},{"name":"D#3","midi":51,"time":751.1117120000088,"velocity":0.8818897637795275,"duration":0.13773159166669302},{"name":"D#4","midi":63,"time":751.1117120000088,"velocity":0.8818897637795275,"duration":0.13773159166669302},{"name":"F#3","midi":54,"time":751.3894900000088,"velocity":0.8818897637795275,"duration":0.5266207916666872},{"name":"F#4","midi":66,"time":751.3894900000088,"velocity":0.8818897637795275,"duration":0.5266207916666872},{"name":"G3","midi":55,"time":751.9450460000088,"velocity":0.8818897637795275,"duration":0.13773159166669302},{"name":"G4","midi":67,"time":751.9450460000088,"velocity":0.8818897637795275,"duration":0.13773159166669302},{"name":"D#3","midi":51,"time":752.2228240000088,"velocity":0.8818897637795275,"duration":0.13773159166669302},{"name":"D#4","midi":63,"time":752.2228240000088,"velocity":0.8818897637795275,"duration":0.13773159166669302},{"name":"C3","midi":48,"time":752.5006020000088,"velocity":0.8818897637795275,"duration":0.13773159166669302},{"name":"C4","midi":60,"time":752.5006020000088,"velocity":0.8818897637795275,"duration":0.13773159166669302},{"name":"G2","midi":43,"time":752.7783800000088,"velocity":0.8818897637795275,"duration":0.13773159166669302},{"name":"G3","midi":55,"time":752.7783800000088,"velocity":0.8818897637795275,"duration":0.13773159166669302},{"name":"B3","midi":59,"time":753.0561580000088,"velocity":0.8818897637795275,"duration":0.13773159166669302},{"name":"B4","midi":71,"time":753.0561580000088,"velocity":0.8818897637795275,"duration":0.13773159166669302},{"name":"C4","midi":60,"time":753.3339360000089,"velocity":0.8818897637795275,"duration":0.13773159166669302},{"name":"C5","midi":72,"time":753.3339360000089,"velocity":0.8818897637795275,"duration":0.13773159166669302},{"name":"D4","midi":62,"time":753.6117140000089,"velocity":0.8818897637795275,"duration":0.5266207916666872},{"name":"D5","midi":74,"time":753.6117140000089,"velocity":0.8818897637795275,"duration":0.5266207916666872},{"name":"C4","midi":60,"time":754.1672700000089,"velocity":0.8818897637795275,"duration":0.2766205916666422},{"name":"C5","midi":72,"time":754.1672700000089,"velocity":0.8818897637795275,"duration":0.2766205916666422},{"name":"C3","midi":48,"time":755.5561600000088,"velocity":0.8818897637795275,"duration":0.13773159166669302},{"name":"C4","midi":60,"time":755.5561600000088,"velocity":0.8818897637795275,"duration":0.13773159166669302},{"name":"G3","midi":55,"time":755.8339380000089,"velocity":0.8818897637795275,"duration":0.13773159166669302},{"name":"G4","midi":67,"time":755.8339380000089,"velocity":0.8818897637795275,"duration":0.13773159166669302},{"name":"C4","midi":60,"time":756.1117160000089,"velocity":0.8818897637795275,"duration":0.13773159166669302},{"name":"C5","midi":72,"time":756.1117160000089,"velocity":0.8818897637795275,"duration":0.13773159166669302},{"name":"D#4","midi":63,"time":756.3894940000089,"velocity":0.8818897637795275,"duration":0.5266207916666872},{"name":"D#5","midi":75,"time":756.3894940000089,"velocity":0.8818897637795275,"duration":0.5266207916666872},{"name":"A#4","midi":70,"time":756.9450500000089,"velocity":0.8818897637795275,"duration":0.5266207916666872},{"name":"A#5","midi":82,"time":756.9450500000089,"velocity":0.8818897637795275,"duration":0.5266207916666872},{"name":"A4","midi":69,"time":757.5006060000089,"velocity":0.8818897637795275,"duration":0.13773159166669302},{"name":"A5","midi":81,"time":757.5006060000089,"velocity":0.8818897637795275,"duration":0.13773159166669302},{"name":"G4","midi":67,"time":757.7783840000089,"velocity":0.8818897637795275,"duration":0.13773159166669302},{"name":"G5","midi":79,"time":757.7783840000089,"velocity":0.8818897637795275,"duration":0.13773159166669302},{"name":"A4","midi":69,"time":758.056162000009,"velocity":0.8818897637795275,"duration":0.5266207916666872},{"name":"A5","midi":81,"time":758.056162000009,"velocity":0.8818897637795275,"duration":0.5266207916666872},{"name":"A#4","midi":70,"time":758.611718000009,"velocity":0.8818897637795275,"duration":0.13773159166669302},{"name":"A#5","midi":82,"time":758.611718000009,"velocity":0.8818897637795275,"duration":0.13773159166669302},{"name":"G4","midi":67,"time":758.889496000009,"velocity":0.8818897637795275,"duration":0.13773159166669302},{"name":"G5","midi":79,"time":758.889496000009,"velocity":0.8818897637795275,"duration":0.13773159166669302},{"name":"D#4","midi":63,"time":759.167274000009,"velocity":0.8818897637795275,"duration":0.13773159166669302},{"name":"D#5","midi":75,"time":759.167274000009,"velocity":0.8818897637795275,"duration":0.13773159166669302},{"name":"C4","midi":60,"time":759.445052000009,"velocity":0.8818897637795275,"duration":0.13773159166669302},{"name":"C5","midi":72,"time":759.445052000009,"velocity":0.8818897637795275,"duration":0.13773159166669302},{"name":"D4","midi":62,"time":759.722830000009,"velocity":0.8818897637795275,"duration":0.13773159166669302},{"name":"D5","midi":74,"time":759.722830000009,"velocity":0.8818897637795275,"duration":0.13773159166669302},{"name":"D#4","midi":63,"time":760.000608000009,"velocity":0.8818897637795275,"duration":0.13773159166669302},{"name":"D#5","midi":75,"time":760.000608000009,"velocity":0.8818897637795275,"duration":0.13773159166669302},{"name":"F#4","midi":66,"time":760.278386000009,"velocity":0.8818897637795275,"duration":0.5266207916666872},{"name":"F#5","midi":78,"time":760.278386000009,"velocity":0.8818897637795275,"duration":0.5266207916666872},{"name":"G4","midi":67,"time":760.8339420000091,"velocity":0.8818897637795275,"duration":0.13773159166669302},{"name":"G5","midi":79,"time":760.8339420000091,"velocity":0.8818897637795275,"duration":0.13773159166669302},{"name":"D#4","midi":63,"time":761.1117200000091,"velocity":0.8818897637795275,"duration":0.13773159166669302},{"name":"D#5","midi":75,"time":761.1117200000091,"velocity":0.8818897637795275,"duration":0.13773159166669302},{"name":"C4","midi":60,"time":761.3894980000091,"velocity":0.8818897637795275,"duration":0.13773159166669302},{"name":"C5","midi":72,"time":761.3894980000091,"velocity":0.8818897637795275,"duration":0.13773159166669302},{"name":"G3","midi":55,"time":761.6672760000091,"velocity":0.8818897637795275,"duration":0.13773159166669302},{"name":"G4","midi":67,"time":761.6672760000091,"velocity":0.8818897637795275,"duration":0.13773159166669302},{"name":"B3","midi":59,"time":761.9450540000091,"velocity":0.8818897637795275,"duration":0.13773159166669302},{"name":"B4","midi":71,"time":761.9450540000091,"velocity":0.8818897637795275,"duration":0.13773159166669302},{"name":"C4","midi":60,"time":762.2228320000091,"velocity":0.8818897637795275,"duration":0.13773159166669302},{"name":"C5","midi":72,"time":762.2228320000091,"velocity":0.8818897637795275,"duration":0.13773159166669302},{"name":"D4","midi":62,"time":762.5006100000091,"velocity":0.8818897637795275,"duration":0.5266207916666872},{"name":"D5","midi":74,"time":762.5006100000091,"velocity":0.8818897637795275,"duration":0.5266207916666872},{"name":"C4","midi":60,"time":763.0561660000092,"velocity":0.8818897637795275,"duration":0.2766205916666422},{"name":"C5","midi":72,"time":763.0561660000092,"velocity":0.8818897637795275,"duration":0.2766205916666422},{"name":"F3","midi":53,"time":764.4450560000091,"velocity":0.8818897637795275,"duration":0.13773159166669302},{"name":"F4","midi":65,"time":764.4450560000091,"velocity":0.8818897637795275,"duration":0.13773159166669302},{"name":"G#3","midi":56,"time":764.7228340000091,"velocity":0.8818897637795275,"duration":0.13773159166669302},{"name":"G#4","midi":68,"time":764.7228340000091,"velocity":0.8818897637795275,"duration":0.13773159166669302},{"name":"C4","midi":60,"time":765.0006120000091,"velocity":0.8818897637795275,"duration":0.13773159166669302},{"name":"C5","midi":72,"time":765.0006120000091,"velocity":0.8818897637795275,"duration":0.13773159166669302},{"name":"F4","midi":65,"time":765.2783900000092,"velocity":0.8818897637795275,"duration":0.5266207916666872},{"name":"F5","midi":77,"time":765.2783900000092,"velocity":0.8818897637795275,"duration":0.5266207916666872},{"name":"C4","midi":60,"time":765.8339460000092,"velocity":0.8818897637795275,"duration":0.5266207916666872},{"name":"C5","midi":72,"time":765.8339460000092,"velocity":0.8818897637795275,"duration":0.5266207916666872},{"name":"B3","midi":59,"time":766.3895020000092,"velocity":0.8818897637795275,"duration":0.13773159166669302},{"name":"B4","midi":71,"time":766.3895020000092,"velocity":0.8818897637795275,"duration":0.13773159166669302},{"name":"C4","midi":60,"time":766.6672800000092,"velocity":0.8818897637795275,"duration":0.13773159166669302},{"name":"C5","midi":72,"time":766.6672800000092,"velocity":0.8818897637795275,"duration":0.13773159166669302},{"name":"D4","midi":62,"time":766.9450580000092,"velocity":0.8818897637795275,"duration":0.17476865833327793},{"name":"D5","midi":74,"time":766.9450580000092,"velocity":0.8818897637795275,"duration":0.17476865833327793},{"name":"D#4","midi":63,"time":767.1302433333425,"velocity":0.8818897637795275,"duration":0.17476865833327793},{"name":"D#5","midi":75,"time":767.1302433333425,"velocity":0.8818897637795275,"duration":0.17476865833327793},{"name":"D4","midi":62,"time":767.3154286666758,"velocity":0.8818897637795275,"duration":0.17476865833327793},{"name":"D5","midi":74,"time":767.3154286666758,"velocity":0.8818897637795275,"duration":0.17476865833327793},{"name":"B3","midi":59,"time":767.500614000009,"velocity":0.8818897637795275,"duration":0.13773159166669302},{"name":"B4","midi":71,"time":767.500614000009,"velocity":0.8818897637795275,"duration":0.13773159166669302},{"name":"G3","midi":55,"time":767.778392000009,"velocity":0.8818897637795275,"duration":0.13773159166669302},{"name":"G4","midi":67,"time":767.778392000009,"velocity":0.8818897637795275,"duration":0.13773159166669302},{"name":"B3","midi":59,"time":768.056170000009,"velocity":0.8818897637795275,"duration":0.13773159166669302},{"name":"B4","midi":71,"time":768.056170000009,"velocity":0.8818897637795275,"duration":0.13773159166669302},{"name":"D4","midi":62,"time":768.3339480000091,"velocity":0.8818897637795275,"duration":0.13773159166669302},{"name":"D5","midi":74,"time":768.3339480000091,"velocity":0.8818897637795275,"duration":0.13773159166669302},{"name":"D#4","midi":63,"time":768.6117260000091,"velocity":0.8818897637795275,"duration":0.5266207916666872},{"name":"D#5","midi":75,"time":768.6117260000091,"velocity":0.8818897637795275,"duration":0.5266207916666872},{"name":"D4","midi":62,"time":769.1672820000091,"velocity":0.8818897637795275,"duration":0.13773159166669302},{"name":"D5","midi":74,"time":769.1672820000091,"velocity":0.8818897637795275,"duration":0.13773159166669302},{"name":"C4","midi":60,"time":769.4450600000091,"velocity":0.8818897637795275,"duration":0.13773159166669302},{"name":"C5","midi":72,"time":769.4450600000091,"velocity":0.8818897637795275,"duration":0.13773159166669302},{"name":"C5","midi":72,"time":769.7228380000091,"velocity":0.8818897637795275,"duration":0.5266207916666872},{"name":"C6","midi":84,"time":769.7228380000091,"velocity":0.8818897637795275,"duration":0.5266207916666872},{"name":"A#4","midi":70,"time":770.2783940000091,"velocity":0.8818897637795275,"duration":0.13773159166669302},{"name":"A#5","midi":82,"time":770.2783940000091,"velocity":0.8818897637795275,"duration":0.13773159166669302},{"name":"G#4","midi":68,"time":770.5561720000092,"velocity":0.8818897637795275,"duration":0.13773159166669302},{"name":"G#5","midi":80,"time":770.5561720000092,"velocity":0.8818897637795275,"duration":0.13773159166669302},{"name":"G4","midi":67,"time":770.8339500000092,"velocity":0.8818897637795275,"duration":0.5266207916666872},{"name":"G5","midi":79,"time":770.8339500000092,"velocity":0.8818897637795275,"duration":0.5266207916666872},{"name":"F4","midi":65,"time":771.3895060000092,"velocity":0.8818897637795275,"duration":0.13773159166669302},{"name":"F5","midi":77,"time":771.3895060000092,"velocity":0.8818897637795275,"duration":0.13773159166669302},{"name":"G#4","midi":68,"time":771.6672840000092,"velocity":0.8818897637795275,"duration":0.13773159166669302},{"name":"G#5","midi":80,"time":771.6672840000092,"velocity":0.8818897637795275,"duration":0.13773159166669302},{"name":"G4","midi":67,"time":771.9450620000092,"velocity":0.8818897637795275,"duration":1.0543989916666305},{"name":"G5","midi":79,"time":771.9450620000092,"velocity":0.8818897637795275,"duration":1.0543989916666305},{"name":"F3","midi":53,"time":773.3339520000092,"velocity":0.8818897637795275,"duration":0.13773159166669302},{"name":"F4","midi":65,"time":773.3339520000092,"velocity":0.8818897637795275,"duration":0.13773159166669302},{"name":"G#3","midi":56,"time":773.6117300000092,"velocity":0.8818897637795275,"duration":0.13773159166669302},{"name":"G#4","midi":68,"time":773.6117300000092,"velocity":0.8818897637795275,"duration":0.13773159166669302},{"name":"C4","midi":60,"time":773.8895080000092,"velocity":0.8818897637795275,"duration":0.13773159166669302},{"name":"C5","midi":72,"time":773.8895080000092,"velocity":0.8818897637795275,"duration":0.13773159166669302},{"name":"F4","midi":65,"time":774.1672860000092,"velocity":0.8818897637795275,"duration":0.5266207916666872},{"name":"F5","midi":77,"time":774.1672860000092,"velocity":0.8818897637795275,"duration":0.5266207916666872},{"name":"C4","midi":60,"time":774.7228420000092,"velocity":0.8818897637795275,"duration":0.5266207916666872},{"name":"C5","midi":72,"time":774.7228420000092,"velocity":0.8818897637795275,"duration":0.5266207916666872},{"name":"B3","midi":59,"time":775.2783980000092,"velocity":0.8818897637795275,"duration":0.13773159166669302},{"name":"B4","midi":71,"time":775.2783980000092,"velocity":0.8818897637795275,"duration":0.13773159166669302},{"name":"C4","midi":60,"time":775.5561760000093,"velocity":0.8818897637795275,"duration":0.13773159166669302},{"name":"C5","midi":72,"time":775.5561760000093,"velocity":0.8818897637795275,"duration":0.13773159166669302},{"name":"D4","midi":62,"time":775.8339540000093,"velocity":0.8818897637795275,"duration":0.17476865833327793},{"name":"D5","midi":74,"time":775.8339540000093,"velocity":0.8818897637795275,"duration":0.17476865833327793},{"name":"D#4","midi":63,"time":776.0191393333425,"velocity":0.8818897637795275,"duration":0.17476865833327793},{"name":"D#5","midi":75,"time":776.0191393333425,"velocity":0.8818897637795275,"duration":0.17476865833327793},{"name":"D4","midi":62,"time":776.2043246666758,"velocity":0.8818897637795275,"duration":0.17476865833327793},{"name":"D5","midi":74,"time":776.2043246666758,"velocity":0.8818897637795275,"duration":0.17476865833327793},{"name":"B3","midi":59,"time":776.3895100000091,"velocity":0.8818897637795275,"duration":0.13773159166669302},{"name":"B4","midi":71,"time":776.3895100000091,"velocity":0.8818897637795275,"duration":0.13773159166669302},{"name":"G3","midi":55,"time":776.6672880000091,"velocity":0.8818897637795275,"duration":0.13773159166669302},{"name":"G4","midi":67,"time":776.6672880000091,"velocity":0.8818897637795275,"duration":0.13773159166669302},{"name":"B3","midi":59,"time":776.9450660000091,"velocity":0.8818897637795275,"duration":0.13773159166669302},{"name":"B4","midi":71,"time":776.9450660000091,"velocity":0.8818897637795275,"duration":0.13773159166669302},{"name":"D4","midi":62,"time":777.2228440000091,"velocity":0.8818897637795275,"duration":0.13773159166669302},{"name":"D5","midi":74,"time":777.2228440000091,"velocity":0.8818897637795275,"duration":0.13773159166669302},{"name":"D#4","midi":63,"time":777.5006220000091,"velocity":0.8818897637795275,"duration":0.5266207916666872},{"name":"D#5","midi":75,"time":777.5006220000091,"velocity":0.8818897637795275,"duration":0.5266207916666872},{"name":"D4","midi":62,"time":778.0561780000091,"velocity":0.8818897637795275,"duration":0.13773159166669302},{"name":"D5","midi":74,"time":778.0561780000091,"velocity":0.8818897637795275,"duration":0.13773159166669302},{"name":"C4","midi":60,"time":778.3339560000092,"velocity":0.8818897637795275,"duration":0.13773159166669302},{"name":"C5","midi":72,"time":778.3339560000092,"velocity":0.8818897637795275,"duration":0.13773159166669302},{"name":"C5","midi":72,"time":778.6117340000092,"velocity":0.8818897637795275,"duration":0.5266207916666872},{"name":"C6","midi":84,"time":778.6117340000092,"velocity":0.8818897637795275,"duration":0.5266207916666872},{"name":"D5","midi":74,"time":779.1672900000092,"velocity":0.8818897637795275,"duration":0.13773159166669302},{"name":"D6","midi":86,"time":779.1672900000092,"velocity":0.8818897637795275,"duration":0.13773159166669302},{"name":"D#5","midi":75,"time":779.4450680000092,"velocity":0.8818897637795275,"duration":0.13773159166669302},{"name":"D#6","midi":87,"time":779.4450680000092,"velocity":0.8818897637795275,"duration":0.13773159166669302},{"name":"D5","midi":74,"time":779.7228460000092,"velocity":0.8818897637795275,"duration":0.13773159166669302},{"name":"D6","midi":86,"time":779.7228460000092,"velocity":0.8818897637795275,"duration":0.13773159166669302},{"name":"C5","midi":72,"time":780.0006240000092,"velocity":0.8818897637795275,"duration":0.13773159166669302},{"name":"C6","midi":84,"time":780.0006240000092,"velocity":0.8818897637795275,"duration":0.13773159166669302},{"name":"B4","midi":71,"time":780.2784020000092,"velocity":0.8818897637795275,"duration":0.13773159166669302},{"name":"B5","midi":83,"time":780.2784020000092,"velocity":0.8818897637795275,"duration":0.13773159166669302},{"name":"G#4","midi":68,"time":780.5561800000092,"velocity":0.8818897637795275,"duration":0.13773159166669302},{"name":"G#5","midi":80,"time":780.5561800000092,"velocity":0.8818897637795275,"duration":0.13773159166669302},{"name":"G4","midi":67,"time":780.8339580000093,"velocity":0.8818897637795275,"duration":1.0543989916666305},{"name":"G5","midi":79,"time":780.8339580000093,"velocity":0.8818897637795275,"duration":1.0543989916666305},{"name":"C3","midi":48,"time":782.2228480000092,"velocity":0.8818897637795275,"duration":0.13773159166669302},{"name":"C4","midi":60,"time":782.2228480000092,"velocity":0.8818897637795275,"duration":0.13773159166669302},{"name":"G3","midi":55,"time":782.5006260000092,"velocity":0.8818897637795275,"duration":0.13773159166669302},{"name":"G4","midi":67,"time":782.5006260000092,"velocity":0.8818897637795275,"duration":0.13773159166669302},{"name":"C4","midi":60,"time":782.7784040000092,"velocity":0.8818897637795275,"duration":0.13773159166669302},{"name":"C5","midi":72,"time":782.7784040000092,"velocity":0.8818897637795275,"duration":0.13773159166669302},{"name":"D#4","midi":63,"time":783.0561820000092,"velocity":0.8818897637795275,"duration":0.5266207916666872},{"name":"D#5","midi":75,"time":783.0561820000092,"velocity":0.8818897637795275,"duration":0.5266207916666872},{"name":"C4","midi":60,"time":783.6117380000093,"velocity":0.8818897637795275,"duration":0.5266207916666872},{"name":"C5","midi":72,"time":783.6117380000093,"velocity":0.8818897637795275,"duration":0.5266207916666872},{"name":"B3","midi":59,"time":784.1672940000093,"velocity":0.8818897637795275,"duration":0.13773159166669302},{"name":"B4","midi":71,"time":784.1672940000093,"velocity":0.8818897637795275,"duration":0.13773159166669302},{"name":"C4","midi":60,"time":784.4450720000093,"velocity":0.8818897637795275,"duration":0.13773159166669302},{"name":"C5","midi":72,"time":784.4450720000093,"velocity":0.8818897637795275,"duration":0.13773159166669302},{"name":"D4","midi":62,"time":784.7228500000093,"velocity":0.8818897637795275,"duration":0.5266207916666872},{"name":"D5","midi":74,"time":784.7228500000093,"velocity":0.8818897637795275,"duration":0.5266207916666872},{"name":"C4","midi":60,"time":785.2784060000093,"velocity":0.8818897637795275,"duration":0.13773159166669302},{"name":"C5","midi":72,"time":785.2784060000093,"velocity":0.8818897637795275,"duration":0.13773159166669302},{"name":"G3","midi":55,"time":785.5561840000094,"velocity":0.8818897637795275,"duration":0.13773159166669302},{"name":"G4","midi":67,"time":785.5561840000094,"velocity":0.8818897637795275,"duration":0.13773159166669302},{"name":"D#3","midi":51,"time":785.8339620000094,"velocity":0.8818897637795275,"duration":0.13773159166669302},{"name":"D#4","midi":63,"time":785.8339620000094,"velocity":0.8818897637795275,"duration":0.13773159166669302},{"name":"C3","midi":48,"time":786.1117400000094,"velocity":0.8818897637795275,"duration":0.13773159166669302},{"name":"C4","midi":60,"time":786.1117400000094,"velocity":0.8818897637795275,"duration":0.13773159166669302},{"name":"D3","midi":50,"time":786.3895180000094,"velocity":0.8818897637795275,"duration":0.13773159166669302},{"name":"D4","midi":62,"time":786.3895180000094,"velocity":0.8818897637795275,"duration":0.13773159166669302},{"name":"D#3","midi":51,"time":786.6672960000094,"velocity":0.8818897637795275,"duration":0.13773159166669302},{"name":"D#4","midi":63,"time":786.6672960000094,"velocity":0.8818897637795275,"duration":0.13773159166669302},{"name":"F#3","midi":54,"time":786.9450740000094,"velocity":0.8818897637795275,"duration":0.5266207916666872},{"name":"F#4","midi":66,"time":786.9450740000094,"velocity":0.8818897637795275,"duration":0.5266207916666872},{"name":"G3","midi":55,"time":787.5006300000094,"velocity":0.8818897637795275,"duration":0.13773159166669302},{"name":"G4","midi":67,"time":787.5006300000094,"velocity":0.8818897637795275,"duration":0.13773159166669302},{"name":"D#3","midi":51,"time":787.7784080000094,"velocity":0.8818897637795275,"duration":0.13773159166669302},{"name":"D#4","midi":63,"time":787.7784080000094,"velocity":0.8818897637795275,"duration":0.13773159166669302},{"name":"C3","midi":48,"time":788.0561860000095,"velocity":0.8818897637795275,"duration":0.13773159166669302},{"name":"C4","midi":60,"time":788.0561860000095,"velocity":0.8818897637795275,"duration":0.13773159166669302},{"name":"G2","midi":43,"time":788.3339640000095,"velocity":0.8818897637795275,"duration":0.13773159166669302},{"name":"G3","midi":55,"time":788.3339640000095,"velocity":0.8818897637795275,"duration":0.13773159166669302},{"name":"B2","midi":47,"time":788.6117420000095,"velocity":0.8818897637795275,"duration":0.13773159166669302},{"name":"B3","midi":59,"time":788.6117420000095,"velocity":0.8818897637795275,"duration":0.13773159166669302},{"name":"C3","midi":48,"time":788.8895200000095,"velocity":0.8818897637795275,"duration":0.13773159166669302},{"name":"C4","midi":60,"time":788.8895200000095,"velocity":0.8818897637795275,"duration":0.13773159166669302},{"name":"D3","midi":50,"time":789.1672980000095,"velocity":0.8818897637795275,"duration":0.5266207916666872},{"name":"D4","midi":62,"time":789.1672980000095,"velocity":0.8818897637795275,"duration":0.5266207916666872},{"name":"C3","midi":48,"time":789.7228540000095,"velocity":0.8818897637795275,"duration":0.5266207916666872},{"name":"C4","midi":60,"time":789.7228540000095,"velocity":0.8818897637795275,"duration":0.5266207916666872},{"name":"C3","midi":48,"time":791.1117440000096,"velocity":0.8818897637795275,"duration":0.13773159166669302},{"name":"C4","midi":60,"time":791.1117440000096,"velocity":0.8818897637795275,"duration":0.13773159166669302},{"name":"G3","midi":55,"time":791.3895220000096,"velocity":0.8818897637795275,"duration":0.13773159166669302},{"name":"G4","midi":67,"time":791.3895220000096,"velocity":0.8818897637795275,"duration":0.13773159166669302},{"name":"C4","midi":60,"time":791.6673000000096,"velocity":0.8818897637795275,"duration":0.13773159166669302},{"name":"C5","midi":72,"time":791.6673000000096,"velocity":0.8818897637795275,"duration":0.13773159166669302},{"name":"D#4","midi":63,"time":791.9450780000096,"velocity":0.8818897637795275,"duration":0.46064851666665163},{"name":"D#5","midi":75,"time":791.9450780000096,"velocity":0.8818897637795275,"duration":0.46064851666665163},{"name":"A4","midi":69,"time":792.4311895000096,"velocity":0.8818897637795275,"duration":0.0648148666666657},{"name":"A5","midi":81,"time":792.4311895000096,"velocity":0.8818897637795275,"duration":0.0648148666666657},{"name":"A#4","midi":70,"time":792.5006340000097,"velocity":0.8818897637795275,"duration":0.5266207916666872},{"name":"A#5","midi":82,"time":792.5006340000097,"velocity":0.8818897637795275,"duration":0.5266207916666872},{"name":"A4","midi":69,"time":793.0561900000097,"velocity":0.8818897637795275,"duration":0.13773159166669302},{"name":"A5","midi":81,"time":793.0561900000097,"velocity":0.8818897637795275,"duration":0.13773159166669302},{"name":"G4","midi":67,"time":793.3339680000097,"velocity":0.8818897637795275,"duration":0.13773159166669302},{"name":"G5","midi":79,"time":793.3339680000097,"velocity":0.8818897637795275,"duration":0.13773159166669302},{"name":"A4","midi":69,"time":793.6117460000097,"velocity":0.8818897637795275,"duration":0.5266207916666872},{"name":"A5","midi":81,"time":793.6117460000097,"velocity":0.8818897637795275,"duration":0.5266207916666872},{"name":"A#4","midi":70,"time":794.1673020000097,"velocity":0.8818897637795275,"duration":0.13773159166669302},{"name":"A#5","midi":82,"time":794.1673020000097,"velocity":0.8818897637795275,"duration":0.13773159166669302},{"name":"G4","midi":67,"time":794.4450800000097,"velocity":0.8818897637795275,"duration":0.13773159166669302},{"name":"G5","midi":79,"time":794.4450800000097,"velocity":0.8818897637795275,"duration":0.13773159166669302},{"name":"D#4","midi":63,"time":794.7228580000098,"velocity":0.8818897637795275,"duration":0.13773159166669302},{"name":"D#5","midi":75,"time":794.7228580000098,"velocity":0.8818897637795275,"duration":0.13773159166669302},{"name":"C4","midi":60,"time":795.0006360000098,"velocity":0.8818897637795275,"duration":0.13773159166669302},{"name":"C5","midi":72,"time":795.0006360000098,"velocity":0.8818897637795275,"duration":0.13773159166669302},{"name":"D4","midi":62,"time":795.2784140000098,"velocity":0.8818897637795275,"duration":0.13773159166669302},{"name":"D5","midi":74,"time":795.2784140000098,"velocity":0.8818897637795275,"duration":0.13773159166669302},{"name":"D#4","midi":63,"time":795.5561920000098,"velocity":0.8818897637795275,"duration":0.13773159166669302},{"name":"D#5","midi":75,"time":795.5561920000098,"velocity":0.8818897637795275,"duration":0.13773159166669302},{"name":"F#4","midi":66,"time":795.8339700000098,"velocity":0.8818897637795275,"duration":0.5266207916666872},{"name":"F#5","midi":78,"time":795.8339700000098,"velocity":0.8818897637795275,"duration":0.5266207916666872},{"name":"G4","midi":67,"time":796.3895260000098,"velocity":0.8818897637795275,"duration":0.13773159166669302},{"name":"G5","midi":79,"time":796.3895260000098,"velocity":0.8818897637795275,"duration":0.13773159166669302},{"name":"D#4","midi":63,"time":796.6673040000098,"velocity":0.8818897637795275,"duration":0.13773159166669302},{"name":"D#5","midi":75,"time":796.6673040000098,"velocity":0.8818897637795275,"duration":0.13773159166669302},{"name":"C4","midi":60,"time":796.9450820000098,"velocity":0.8818897637795275,"duration":0.13773159166669302},{"name":"C5","midi":72,"time":796.9450820000098,"velocity":0.8818897637795275,"duration":0.13773159166669302},{"name":"G3","midi":55,"time":797.2228600000099,"velocity":0.8818897637795275,"duration":0.13773159166669302},{"name":"G4","midi":67,"time":797.2228600000099,"velocity":0.8818897637795275,"duration":0.13773159166669302},{"name":"B3","midi":59,"time":797.5006380000099,"velocity":0.8818897637795275,"duration":0.13773159166669302},{"name":"B4","midi":71,"time":797.5006380000099,"velocity":0.8818897637795275,"duration":0.13773159166669302},{"name":"C4","midi":60,"time":797.7784160000099,"velocity":0.8818897637795275,"duration":0.13773159166669302},{"name":"C5","midi":72,"time":797.7784160000099,"velocity":0.8818897637795275,"duration":0.13773159166669302},{"name":"D4","midi":62,"time":798.0561940000099,"velocity":0.8818897637795275,"duration":0.5266207916666872},{"name":"D5","midi":74,"time":798.0561940000099,"velocity":0.8818897637795275,"duration":0.5266207916666872},{"name":"C4","midi":60,"time":798.6117500000099,"velocity":0.8818897637795275,"duration":0.5266207916666872},{"name":"C5","midi":72,"time":798.6117500000099,"velocity":0.8818897637795275,"duration":0.5266207916666872},{"name":"C3","midi":48,"time":800.00064000001,"velocity":0.8818897637795275,"duration":0.13773159166669302},{"name":"C4","midi":60,"time":800.00064000001,"velocity":0.8818897637795275,"duration":0.13773159166669302},{"name":"G3","midi":55,"time":800.27841800001,"velocity":0.8818897637795275,"duration":0.13773159166669302},{"name":"G4","midi":67,"time":800.27841800001,"velocity":0.8818897637795275,"duration":0.13773159166669302},{"name":"C4","midi":60,"time":800.55619600001,"velocity":0.8818897637795275,"duration":0.13773159166669302},{"name":"C5","midi":72,"time":800.55619600001,"velocity":0.8818897637795275,"duration":0.13773159166669302},{"name":"D#4","midi":63,"time":800.83397400001,"velocity":0.8818897637795275,"duration":0.5266207916666872},{"name":"D#5","midi":75,"time":800.83397400001,"velocity":0.8818897637795275,"duration":0.5266207916666872},{"name":"C4","midi":60,"time":801.38953000001,"velocity":0.8818897637795275,"duration":0.5266207916666872},{"name":"C5","midi":72,"time":801.38953000001,"velocity":0.8818897637795275,"duration":0.5266207916666872},{"name":"G4","midi":67,"time":801.38953000001,"velocity":0.8818897637795275,"duration":0.5266207916666872},{"name":"G5","midi":79,"time":801.38953000001,"velocity":0.8818897637795275,"duration":0.5266207916666872},{"name":"B3","midi":59,"time":801.9450860000101,"velocity":0.8818897637795275,"duration":0.13773159166669302},{"name":"F#4","midi":66,"time":801.9450860000101,"velocity":0.8818897637795275,"duration":0.13773159166669302},{"name":"B4","midi":71,"time":801.9450860000101,"velocity":0.8818897637795275,"duration":0.13773159166669302},{"name":"F#5","midi":78,"time":801.9450860000101,"velocity":0.8818897637795275,"duration":0.13773159166669302},{"name":"C4","midi":60,"time":802.2228640000101,"velocity":0.8818897637795275,"duration":0.13773159166669302},{"name":"D#4","midi":63,"time":802.2228640000101,"velocity":0.8818897637795275,"duration":0.13773159166669302},{"name":"C5","midi":72,"time":802.2228640000101,"velocity":0.8818897637795275,"duration":0.13773159166669302},{"name":"D#5","midi":75,"time":802.2228640000101,"velocity":0.8818897637795275,"duration":0.13773159166669302},{"name":"D4","midi":62,"time":802.5006420000101,"velocity":0.8818897637795275,"duration":0.5266207916666872},{"name":"F#4","midi":66,"time":802.5006420000101,"velocity":0.8818897637795275,"duration":0.5266207916666872},{"name":"D5","midi":74,"time":802.5006420000101,"velocity":0.8818897637795275,"duration":0.5266207916666872},{"name":"F#5","midi":78,"time":802.5006420000101,"velocity":0.8818897637795275,"duration":0.5266207916666872},{"name":"C4","midi":60,"time":803.0561980000101,"velocity":0.8818897637795275,"duration":0.13773159166669302},{"name":"G4","midi":67,"time":803.0561980000101,"velocity":0.8818897637795275,"duration":0.13773159166669302},{"name":"C5","midi":72,"time":803.0561980000101,"velocity":0.8818897637795275,"duration":0.13773159166669302},{"name":"G5","midi":79,"time":803.0561980000101,"velocity":0.8818897637795275,"duration":0.13773159166669302},{"name":"G3","midi":55,"time":803.3339760000101,"velocity":0.8818897637795275,"duration":0.13773159166669302},{"name":"D#4","midi":63,"time":803.3339760000101,"velocity":0.8818897637795275,"duration":0.13773159166669302},{"name":"G4","midi":67,"time":803.3339760000101,"velocity":0.8818897637795275,"duration":0.13773159166669302},{"name":"D#5","midi":75,"time":803.3339760000101,"velocity":0.8818897637795275,"duration":0.13773159166669302},{"name":"D#3","midi":51,"time":803.6117540000101,"velocity":0.8818897637795275,"duration":0.13773159166669302},{"name":"C4","midi":60,"time":803.6117540000101,"velocity":0.8818897637795275,"duration":0.13773159166669302},{"name":"D#4","midi":63,"time":803.6117540000101,"velocity":0.8818897637795275,"duration":0.13773159166669302},{"name":"C5","midi":72,"time":803.6117540000101,"velocity":0.8818897637795275,"duration":0.13773159166669302},{"name":"C3","midi":48,"time":803.8895320000101,"velocity":0.8818897637795275,"duration":0.13773159166669302},{"name":"G3","midi":55,"time":803.8895320000101,"velocity":0.8818897637795275,"duration":0.13773159166669302},{"name":"C4","midi":60,"time":803.8895320000101,"velocity":0.8818897637795275,"duration":0.13773159166669302},{"name":"G4","midi":67,"time":803.8895320000101,"velocity":0.8818897637795275,"duration":0.13773159166669302},{"name":"B2","midi":47,"time":804.1673100000102,"velocity":0.8818897637795275,"duration":0.13773159166669302},{"name":"D3","midi":50,"time":804.1673100000102,"velocity":0.8818897637795275,"duration":0.13773159166669302},{"name":"B3","midi":59,"time":804.1673100000102,"velocity":0.8818897637795275,"duration":0.13773159166669302},{"name":"D4","midi":62,"time":804.1673100000102,"velocity":0.8818897637795275,"duration":0.13773159166669302},{"name":"C3","midi":48,"time":804.4450880000102,"velocity":0.8818897637795275,"duration":0.13773159166669302},{"name":"D#3","midi":51,"time":804.4450880000102,"velocity":0.8818897637795275,"duration":0.13773159166669302},{"name":"C4","midi":60,"time":804.4450880000102,"velocity":0.8818897637795275,"duration":0.13773159166669302},{"name":"D#4","midi":63,"time":804.4450880000102,"velocity":0.8818897637795275,"duration":0.13773159166669302},{"name":"D3","midi":50,"time":804.7228660000102,"velocity":0.8818897637795275,"duration":0.5266207916666872},{"name":"F#3","midi":54,"time":804.7228660000102,"velocity":0.8818897637795275,"duration":0.5266207916666872},{"name":"D4","midi":62,"time":804.7228660000102,"velocity":0.8818897637795275,"duration":0.5266207916666872},{"name":"F#4","midi":66,"time":804.7228660000102,"velocity":0.8818897637795275,"duration":0.5266207916666872},{"name":"D#3","midi":51,"time":805.2784220000102,"velocity":0.8818897637795275,"duration":0.13773159166669302},{"name":"G3","midi":55,"time":805.2784220000102,"velocity":0.8818897637795275,"duration":0.13773159166669302},{"name":"D#4","midi":63,"time":805.2784220000102,"velocity":0.8818897637795275,"duration":0.13773159166669302},{"name":"G4","midi":67,"time":805.2784220000102,"velocity":0.8818897637795275,"duration":0.13773159166669302},{"name":"C3","midi":48,"time":805.5562000000102,"velocity":0.8818897637795275,"duration":0.13773159166669302},{"name":"D#3","midi":51,"time":805.5562000000102,"velocity":0.8818897637795275,"duration":0.13773159166669302},{"name":"C4","midi":60,"time":805.5562000000102,"velocity":0.8818897637795275,"duration":0.13773159166669302},{"name":"D#4","midi":63,"time":805.5562000000102,"velocity":0.8818897637795275,"duration":0.13773159166669302},{"name":"G2","midi":43,"time":805.8339780000102,"velocity":0.8818897637795275,"duration":0.13773159166669302},{"name":"C3","midi":48,"time":805.8339780000102,"velocity":0.8818897637795275,"duration":0.13773159166669302},{"name":"G3","midi":55,"time":805.8339780000102,"velocity":0.8818897637795275,"duration":0.13773159166669302},{"name":"C4","midi":60,"time":805.8339780000102,"velocity":0.8818897637795275,"duration":0.13773159166669302},{"name":"D#2","midi":39,"time":806.1117560000102,"velocity":0.8818897637795275,"duration":0.13773159166669302},{"name":"G2","midi":43,"time":806.1117560000102,"velocity":0.8818897637795275,"duration":0.13773159166669302},{"name":"D#3","midi":51,"time":806.1117560000102,"velocity":0.8818897637795275,"duration":0.13773159166669302},{"name":"G3","midi":55,"time":806.1117560000102,"velocity":0.8818897637795275,"duration":0.13773159166669302},{"name":"F#3","midi":54,"time":806.3895340000103,"velocity":0.8818897637795275,"duration":0.13773159166669302},{"name":"B3","midi":59,"time":806.3895340000103,"velocity":0.8818897637795275,"duration":0.13773159166669302},{"name":"F#4","midi":66,"time":806.3895340000103,"velocity":0.8818897637795275,"duration":0.13773159166669302},{"name":"B4","midi":71,"time":806.3895340000103,"velocity":0.8818897637795275,"duration":0.13773159166669302},{"name":"G3","midi":55,"time":806.6673120000103,"velocity":0.8818897637795275,"duration":0.13773159166669302},{"name":"C4","midi":60,"time":806.6673120000103,"velocity":0.8818897637795275,"duration":0.13773159166669302},{"name":"G4","midi":67,"time":806.6673120000103,"velocity":0.8818897637795275,"duration":0.13773159166669302},{"name":"C5","midi":72,"time":806.6673120000103,"velocity":0.8818897637795275,"duration":0.13773159166669302},{"name":"G#3","midi":56,"time":806.9450900000103,"velocity":0.8818897637795275,"duration":0.5266207916666872},{"name":"D4","midi":62,"time":806.9450900000103,"velocity":0.8818897637795275,"duration":0.5266207916666872},{"name":"G#4","midi":68,"time":806.9450900000103,"velocity":0.8818897637795275,"duration":0.5266207916666872},{"name":"D5","midi":74,"time":806.9450900000103,"velocity":0.8818897637795275,"duration":0.5266207916666872},{"name":"G3","midi":55,"time":807.5006460000103,"velocity":0.8818897637795275,"duration":0.5266207916666872},{"name":"C4","midi":60,"time":807.5006460000103,"velocity":0.8818897637795275,"duration":0.5266207916666872},{"name":"G4","midi":67,"time":807.5006460000103,"velocity":0.8818897637795275,"duration":0.5266207916666872},{"name":"C5","midi":72,"time":807.5006460000103,"velocity":0.8818897637795275,"duration":0.5266207916666872},{"name":"C3","midi":48,"time":808.8895360000104,"velocity":0.8818897637795275,"duration":0.13773159166669302},{"name":"C4","midi":60,"time":808.8895360000104,"velocity":0.8818897637795275,"duration":0.13773159166669302},{"name":"G3","midi":55,"time":809.1673140000104,"velocity":0.8818897637795275,"duration":0.13773159166669302},{"name":"G4","midi":67,"time":809.1673140000104,"velocity":0.8818897637795275,"duration":0.13773159166669302},{"name":"C4","midi":60,"time":809.4450920000104,"velocity":0.8818897637795275,"duration":0.13773159166669302},{"name":"C5","midi":72,"time":809.4450920000104,"velocity":0.8818897637795275,"duration":0.13773159166669302},{"name":"D#4","midi":63,"time":809.7228700000104,"velocity":0.8818897637795275,"duration":0.5266207916666872},{"name":"D#5","midi":75,"time":809.7228700000104,"velocity":0.8818897637795275,"duration":0.5266207916666872},{"name":"A#4","midi":70,"time":810.2784260000104,"velocity":0.8818897637795275,"duration":0.5266207916666872},{"name":"D#5","midi":75,"time":810.2784260000104,"velocity":0.8818897637795275,"duration":0.5266207916666872},{"name":"A#5","midi":82,"time":810.2784260000104,"velocity":0.8818897637795275,"duration":0.5266207916666872},{"name":"D#6","midi":87,"time":810.2784260000104,"velocity":0.8818897637795275,"duration":0.5266207916666872},{"name":"A4","midi":69,"time":810.8339820000105,"velocity":0.8818897637795275,"duration":0.13773159166669302},{"name":"D5","midi":74,"time":810.8339820000105,"velocity":0.8818897637795275,"duration":0.13773159166669302},{"name":"A5","midi":81,"time":810.8339820000105,"velocity":0.8818897637795275,"duration":0.13773159166669302},{"name":"D6","midi":86,"time":810.8339820000105,"velocity":0.8818897637795275,"duration":0.13773159166669302},{"name":"G4","midi":67,"time":811.1117600000105,"velocity":0.8818897637795275,"duration":0.13773159166669302},{"name":"C5","midi":72,"time":811.1117600000105,"velocity":0.8818897637795275,"duration":0.13773159166669302},{"name":"G5","midi":79,"time":811.1117600000105,"velocity":0.8818897637795275,"duration":0.13773159166669302},{"name":"C6","midi":84,"time":811.1117600000105,"velocity":0.8818897637795275,"duration":0.13773159166669302},{"name":"A4","midi":69,"time":811.3895380000105,"velocity":0.8818897637795275,"duration":0.5266207916666872},{"name":"D5","midi":74,"time":811.3895380000105,"velocity":0.8818897637795275,"duration":0.5266207916666872},{"name":"A5","midi":81,"time":811.3895380000105,"velocity":0.8818897637795275,"duration":0.5266207916666872},{"name":"D6","midi":86,"time":811.3895380000105,"velocity":0.8818897637795275,"duration":0.5266207916666872},{"name":"A#4","midi":70,"time":811.9450940000105,"velocity":0.8818897637795275,"duration":0.13773159166669302},{"name":"D#5","midi":75,"time":811.9450940000105,"velocity":0.8818897637795275,"duration":0.13773159166669302},{"name":"A#5","midi":82,"time":811.9450940000105,"velocity":0.8818897637795275,"duration":0.13773159166669302},{"name":"D#6","midi":87,"time":811.9450940000105,"velocity":0.8818897637795275,"duration":0.13773159166669302},{"name":"G4","midi":67,"time":812.2228720000105,"velocity":0.8818897637795275,"duration":0.13773159166669302},{"name":"C5","midi":72,"time":812.2228720000105,"velocity":0.8818897637795275,"duration":0.13773159166669302},{"name":"G5","midi":79,"time":812.2228720000105,"velocity":0.8818897637795275,"duration":0.13773159166669302},{"name":"C6","midi":84,"time":812.2228720000105,"velocity":0.8818897637795275,"duration":0.13773159166669302},{"name":"D#4","midi":63,"time":812.5006500000105,"velocity":0.8818897637795275,"duration":0.13773159166669302},{"name":"G4","midi":67,"time":812.5006500000105,"velocity":0.8818897637795275,"duration":0.13773159166669302},{"name":"D#5","midi":75,"time":812.5006500000105,"velocity":0.8818897637795275,"duration":0.13773159166669302},{"name":"G5","midi":79,"time":812.5006500000105,"velocity":0.8818897637795275,"duration":0.13773159166669302},{"name":"C4","midi":60,"time":812.7784280000105,"velocity":0.8818897637795275,"duration":0.13773159166669302},{"name":"D#4","midi":63,"time":812.7784280000105,"velocity":0.8818897637795275,"duration":0.13773159166669302},{"name":"C5","midi":72,"time":812.7784280000105,"velocity":0.8818897637795275,"duration":0.13773159166669302},{"name":"D#5","midi":75,"time":812.7784280000105,"velocity":0.8818897637795275,"duration":0.13773159166669302},{"name":"D4","midi":62,"time":813.0562060000105,"velocity":0.8818897637795275,"duration":0.13773159166669302},{"name":"F#4","midi":66,"time":813.0562060000105,"velocity":0.8818897637795275,"duration":0.13773159166669302},{"name":"D5","midi":74,"time":813.0562060000105,"velocity":0.8818897637795275,"duration":0.13773159166669302},{"name":"F#5","midi":78,"time":813.0562060000105,"velocity":0.8818897637795275,"duration":0.13773159166669302},{"name":"D#4","midi":63,"time":813.3339840000106,"velocity":0.8818897637795275,"duration":0.13773159166669302},{"name":"G4","midi":67,"time":813.3339840000106,"velocity":0.8818897637795275,"duration":0.13773159166669302},{"name":"D#5","midi":75,"time":813.3339840000106,"velocity":0.8818897637795275,"duration":0.13773159166669302},{"name":"G5","midi":79,"time":813.3339840000106,"velocity":0.8818897637795275,"duration":0.13773159166669302},{"name":"F#4","midi":66,"time":813.6117620000106,"velocity":0.8818897637795275,"duration":0.5266207916666872},{"name":"B4","midi":71,"time":813.6117620000106,"velocity":0.8818897637795275,"duration":0.5266207916666872},{"name":"F#5","midi":78,"time":813.6117620000106,"velocity":0.8818897637795275,"duration":0.5266207916666872},{"name":"B5","midi":83,"time":813.6117620000106,"velocity":0.8818897637795275,"duration":0.5266207916666872},{"name":"G4","midi":67,"time":814.1673180000106,"velocity":0.8818897637795275,"duration":0.13773159166669302},{"name":"C5","midi":72,"time":814.1673180000106,"velocity":0.8818897637795275,"duration":0.13773159166669302},{"name":"G5","midi":79,"time":814.1673180000106,"velocity":0.8818897637795275,"duration":0.13773159166669302},{"name":"C6","midi":84,"time":814.1673180000106,"velocity":0.8818897637795275,"duration":0.13773159166669302},{"name":"D#4","midi":63,"time":814.4450960000106,"velocity":0.8818897637795275,"duration":0.13773159166669302},{"name":"G4","midi":67,"time":814.4450960000106,"velocity":0.8818897637795275,"duration":0.13773159166669302},{"name":"D#5","midi":75,"time":814.4450960000106,"velocity":0.8818897637795275,"duration":0.13773159166669302},{"name":"G5","midi":79,"time":814.4450960000106,"velocity":0.8818897637795275,"duration":0.13773159166669302},{"name":"C4","midi":60,"time":814.7228740000106,"velocity":0.8818897637795275,"duration":0.13773159166669302},{"name":"D#4","midi":63,"time":814.7228740000106,"velocity":0.8818897637795275,"duration":0.13773159166669302},{"name":"C5","midi":72,"time":814.7228740000106,"velocity":0.8818897637795275,"duration":0.13773159166669302},{"name":"D#5","midi":75,"time":814.7228740000106,"velocity":0.8818897637795275,"duration":0.13773159166669302},{"name":"G3","midi":55,"time":815.0006520000106,"velocity":0.8818897637795275,"duration":0.13773159166669302},{"name":"C4","midi":60,"time":815.0006520000106,"velocity":0.8818897637795275,"duration":0.13773159166669302},{"name":"G4","midi":67,"time":815.0006520000106,"velocity":0.8818897637795275,"duration":0.13773159166669302},{"name":"C5","midi":72,"time":815.0006520000106,"velocity":0.8818897637795275,"duration":0.13773159166669302},{"name":"B3","midi":59,"time":815.2784300000106,"velocity":0.8818897637795275,"duration":0.13773159166669302},{"name":"D4","midi":62,"time":815.2784300000106,"velocity":0.8818897637795275,"duration":0.13773159166669302},{"name":"B4","midi":71,"time":815.2784300000106,"velocity":0.8818897637795275,"duration":0.13773159166669302},{"name":"D5","midi":74,"time":815.2784300000106,"velocity":0.8818897637795275,"duration":0.13773159166669302},{"name":"C4","midi":60,"time":815.5562080000107,"velocity":0.8818897637795275,"duration":0.13773159166669302},{"name":"D#4","midi":63,"time":815.5562080000107,"velocity":0.8818897637795275,"duration":0.13773159166669302},{"name":"C5","midi":72,"time":815.5562080000107,"velocity":0.8818897637795275,"duration":0.13773159166669302},{"name":"D#5","midi":75,"time":815.5562080000107,"velocity":0.8818897637795275,"duration":0.13773159166669302},{"name":"D4","midi":62,"time":815.8339860000107,"velocity":0.8818897637795275,"duration":0.5266207916666872},{"name":"F4","midi":65,"time":815.8339860000107,"velocity":0.8818897637795275,"duration":0.5266207916666872},{"name":"D5","midi":74,"time":815.8339860000107,"velocity":0.8818897637795275,"duration":0.5266207916666872},{"name":"F5","midi":77,"time":815.8339860000107,"velocity":0.8818897637795275,"duration":0.5266207916666872},{"name":"C4","midi":60,"time":816.3895420000107,"velocity":0.8818897637795275,"duration":0.5266207916666872},{"name":"D#4","midi":63,"time":816.3895420000107,"velocity":0.8818897637795275,"duration":0.5266207916666872},{"name":"C5","midi":72,"time":816.3895420000107,"velocity":0.8818897637795275,"duration":0.5266207916666872},{"name":"D#5","midi":75,"time":816.3895420000107,"velocity":0.8818897637795275,"duration":0.5266207916666872},{"name":"F3","midi":53,"time":817.7784320000108,"velocity":0.8818897637795275,"duration":0.13773159166669302},{"name":"F4","midi":65,"time":817.7784320000108,"velocity":0.8818897637795275,"duration":0.13773159166669302},{"name":"G#3","midi":56,"time":818.0562100000108,"velocity":0.8818897637795275,"duration":0.13773159166669302},{"name":"G#4","midi":68,"time":818.0562100000108,"velocity":0.8818897637795275,"duration":0.13773159166669302},{"name":"C4","midi":60,"time":818.3339880000108,"velocity":0.8818897637795275,"duration":0.13773159166669302},{"name":"C5","midi":72,"time":818.3339880000108,"velocity":0.8818897637795275,"duration":0.13773159166669302},{"name":"F4","midi":65,"time":818.6117660000108,"velocity":0.8818897637795275,"duration":0.5266207916666872},{"name":"F5","midi":77,"time":818.6117660000108,"velocity":0.8818897637795275,"duration":0.5266207916666872},{"name":"C4","midi":60,"time":819.1673220000108,"velocity":0.8818897637795275,"duration":0.5266207916666872},{"name":"C5","midi":72,"time":819.1673220000108,"velocity":0.8818897637795275,"duration":0.5266207916666872},{"name":"B3","midi":59,"time":819.7228780000108,"velocity":0.8818897637795275,"duration":0.13773159166669302},{"name":"B4","midi":71,"time":819.7228780000108,"velocity":0.8818897637795275,"duration":0.13773159166669302},{"name":"C4","midi":60,"time":820.0006560000108,"velocity":0.8818897637795275,"duration":0.13773159166669302},{"name":"C5","midi":72,"time":820.0006560000108,"velocity":0.8818897637795275,"duration":0.13773159166669302},{"name":"D4","midi":62,"time":820.2784340000109,"velocity":0.8818897637795275,"duration":0.5266207916666872},{"name":"D5","midi":74,"time":820.2784340000109,"velocity":0.8818897637795275,"duration":0.5266207916666872},{"name":"B3","midi":59,"time":820.8339900000109,"velocity":0.8818897637795275,"duration":0.13773159166669302},{"name":"B4","midi":71,"time":820.8339900000109,"velocity":0.8818897637795275,"duration":0.13773159166669302},{"name":"G3","midi":55,"time":821.1117680000109,"velocity":0.8818897637795275,"duration":0.13773159166669302},{"name":"G4","midi":67,"time":821.1117680000109,"velocity":0.8818897637795275,"duration":0.13773159166669302},{"name":"B3","midi":59,"time":821.3895460000109,"velocity":0.8818897637795275,"duration":0.13773159166669302},{"name":"B4","midi":71,"time":821.3895460000109,"velocity":0.8818897637795275,"duration":0.13773159166669302},{"name":"D4","midi":62,"time":821.6673240000109,"velocity":0.8818897637795275,"duration":0.13773159166669302},{"name":"D5","midi":74,"time":821.6673240000109,"velocity":0.8818897637795275,"duration":0.13773159166669302},{"name":"D#4","midi":63,"time":821.9451020000109,"velocity":0.8818897637795275,"duration":0.5266207916666872},{"name":"D#5","midi":75,"time":821.9451020000109,"velocity":0.8818897637795275,"duration":0.5266207916666872},{"name":"D4","midi":62,"time":822.500658000011,"velocity":0.8818897637795275,"duration":0.13773159166669302},{"name":"D5","midi":74,"time":822.500658000011,"velocity":0.8818897637795275,"duration":0.13773159166669302},{"name":"C4","midi":60,"time":822.778436000011,"velocity":0.8818897637795275,"duration":0.13773159166669302},{"name":"C5","midi":72,"time":822.778436000011,"velocity":0.8818897637795275,"duration":0.13773159166669302},{"name":"C5","midi":72,"time":823.056214000011,"velocity":0.8818897637795275,"duration":0.5266207916666872},{"name":"C6","midi":84,"time":823.056214000011,"velocity":0.8818897637795275,"duration":0.5266207916666872},{"name":"A#4","midi":70,"time":823.611770000011,"velocity":0.8818897637795275,"duration":0.13773159166669302},{"name":"A#5","midi":82,"time":823.611770000011,"velocity":0.8818897637795275,"duration":0.13773159166669302},{"name":"G#4","midi":68,"time":823.889548000011,"velocity":0.8818897637795275,"duration":0.13773159166669302},{"name":"G#5","midi":80,"time":823.889548000011,"velocity":0.8818897637795275,"duration":0.13773159166669302},{"name":"G4","midi":67,"time":824.167326000011,"velocity":0.8818897637795275,"duration":0.5266207916666872},{"name":"G5","midi":79,"time":824.167326000011,"velocity":0.8818897637795275,"duration":0.5266207916666872},{"name":"F4","midi":65,"time":824.722882000011,"velocity":0.8818897637795275,"duration":0.13773159166669302},{"name":"F5","midi":77,"time":824.722882000011,"velocity":0.8818897637795275,"duration":0.13773159166669302},{"name":"G#4","midi":68,"time":825.0006600000111,"velocity":0.8818897637795275,"duration":0.13773159166669302},{"name":"G#5","midi":80,"time":825.0006600000111,"velocity":0.8818897637795275,"duration":0.13773159166669302},{"name":"G4","midi":67,"time":825.2784380000111,"velocity":0.8818897637795275,"duration":1.0543989916666305},{"name":"G5","midi":79,"time":825.2784380000111,"velocity":0.8818897637795275,"duration":1.0543989916666305},{"name":"F3","midi":53,"time":826.667328000011,"velocity":0.8818897637795275,"duration":0.13773159166669302},{"name":"F4","midi":65,"time":826.667328000011,"velocity":0.8818897637795275,"duration":0.13773159166669302},{"name":"G#3","midi":56,"time":826.945106000011,"velocity":0.8818897637795275,"duration":0.13773159166669302},{"name":"G#4","midi":68,"time":826.945106000011,"velocity":0.8818897637795275,"duration":0.13773159166669302},{"name":"C4","midi":60,"time":827.222884000011,"velocity":0.8818897637795275,"duration":0.13773159166669302},{"name":"C5","midi":72,"time":827.222884000011,"velocity":0.8818897637795275,"duration":0.13773159166669302},{"name":"F4","midi":65,"time":827.5006620000111,"velocity":0.8818897637795275,"duration":0.5266207916666872},{"name":"F5","midi":77,"time":827.5006620000111,"velocity":0.8818897637795275,"duration":0.5266207916666872},{"name":"C4","midi":60,"time":828.0562180000111,"velocity":0.8818897637795275,"duration":0.5266207916666872},{"name":"C5","midi":72,"time":828.0562180000111,"velocity":0.8818897637795275,"duration":0.5266207916666872},{"name":"B3","midi":59,"time":828.6117740000111,"velocity":0.8818897637795275,"duration":0.13773159166669302},{"name":"B4","midi":71,"time":828.6117740000111,"velocity":0.8818897637795275,"duration":0.13773159166669302},{"name":"C4","midi":60,"time":828.8895520000111,"velocity":0.8818897637795275,"duration":0.13773159166669302},{"name":"C5","midi":72,"time":828.8895520000111,"velocity":0.8818897637795275,"duration":0.13773159166669302},{"name":"D4","midi":62,"time":829.1673300000111,"velocity":0.8818897637795275,"duration":0.5266207916666872},{"name":"D5","midi":74,"time":829.1673300000111,"velocity":0.8818897637795275,"duration":0.5266207916666872},{"name":"B3","midi":59,"time":829.7228860000112,"velocity":0.8818897637795275,"duration":0.13773159166669302},{"name":"B4","midi":71,"time":829.7228860000112,"velocity":0.8818897637795275,"duration":0.13773159166669302},{"name":"G3","midi":55,"time":830.0006640000112,"velocity":0.8818897637795275,"duration":0.13773159166669302},{"name":"G4","midi":67,"time":830.0006640000112,"velocity":0.8818897637795275,"duration":0.13773159166669302},{"name":"B3","midi":59,"time":830.2784420000112,"velocity":0.8818897637795275,"duration":0.13773159166669302},{"name":"B4","midi":71,"time":830.2784420000112,"velocity":0.8818897637795275,"duration":0.13773159166669302},{"name":"D4","midi":62,"time":830.5562200000112,"velocity":0.8818897637795275,"duration":0.13773159166669302},{"name":"D5","midi":74,"time":830.5562200000112,"velocity":0.8818897637795275,"duration":0.13773159166669302},{"name":"D#4","midi":63,"time":830.8339980000112,"velocity":0.8818897637795275,"duration":0.5266207916666872},{"name":"D#5","midi":75,"time":830.8339980000112,"velocity":0.8818897637795275,"duration":0.5266207916666872},{"name":"D4","midi":62,"time":831.3895540000112,"velocity":0.8818897637795275,"duration":0.13773159166669302},{"name":"D5","midi":74,"time":831.3895540000112,"velocity":0.8818897637795275,"duration":0.13773159166669302},{"name":"C4","midi":60,"time":831.6673320000112,"velocity":0.8818897637795275,"duration":0.13773159166669302},{"name":"C5","midi":72,"time":831.6673320000112,"velocity":0.8818897637795275,"duration":0.13773159166669302},{"name":"C5","midi":72,"time":831.9451100000113,"velocity":0.8818897637795275,"duration":0.5266207916666872},{"name":"C6","midi":84,"time":831.9451100000113,"velocity":0.8818897637795275,"duration":0.5266207916666872},{"name":"D5","midi":74,"time":832.5006660000113,"velocity":0.8818897637795275,"duration":0.13773159166669302},{"name":"D6","midi":86,"time":832.5006660000113,"velocity":0.8818897637795275,"duration":0.13773159166669302},{"name":"D#5","midi":75,"time":832.7784440000113,"velocity":0.8818897637795275,"duration":0.13773159166669302},{"name":"D#6","midi":87,"time":832.7784440000113,"velocity":0.8818897637795275,"duration":0.13773159166669302},{"name":"D5","midi":74,"time":833.0562220000113,"velocity":0.8818897637795275,"duration":0.13773159166669302},{"name":"D6","midi":86,"time":833.0562220000113,"velocity":0.8818897637795275,"duration":0.13773159166669302},{"name":"C5","midi":72,"time":833.3340000000113,"velocity":0.8818897637795275,"duration":0.13773159166669302},{"name":"C6","midi":84,"time":833.3340000000113,"velocity":0.8818897637795275,"duration":0.13773159166669302},{"name":"B4","midi":71,"time":833.6117780000113,"velocity":0.8818897637795275,"duration":0.13773159166669302},{"name":"B5","midi":83,"time":833.6117780000113,"velocity":0.8818897637795275,"duration":0.13773159166669302},{"name":"G#4","midi":68,"time":833.8895560000113,"velocity":0.8818897637795275,"duration":0.13773159166669302},{"name":"G#5","midi":80,"time":833.8895560000113,"velocity":0.8818897637795275,"duration":0.13773159166669302},{"name":"G4","midi":67,"time":834.1673340000114,"velocity":0.8818897637795275,"duration":1.0543989916666305},{"name":"G5","midi":79,"time":834.1673340000114,"velocity":0.8818897637795275,"duration":1.0543989916666305},{"name":"F3","midi":53,"time":835.5562240000113,"velocity":0.8818897637795275,"duration":0.13773159166669302},{"name":"F4","midi":65,"time":835.5562240000113,"velocity":0.8818897637795275,"duration":0.13773159166669302},{"name":"G#3","midi":56,"time":835.8340020000113,"velocity":0.8818897637795275,"duration":0.13773159166669302},{"name":"G#4","midi":68,"time":835.8340020000113,"velocity":0.8818897637795275,"duration":0.13773159166669302},{"name":"C4","midi":60,"time":836.1117800000113,"velocity":0.8818897637795275,"duration":0.13773159166669302},{"name":"C5","midi":72,"time":836.1117800000113,"velocity":0.8818897637795275,"duration":0.13773159166669302},{"name":"F4","midi":65,"time":836.3895580000113,"velocity":0.8818897637795275,"duration":0.5266207916666872},{"name":"F5","midi":77,"time":836.3895580000113,"velocity":0.8818897637795275,"duration":0.5266207916666872},{"name":"C4","midi":60,"time":836.9451140000114,"velocity":0.8818897637795275,"duration":0.5266207916666872},{"name":"C5","midi":72,"time":836.9451140000114,"velocity":0.8818897637795275,"duration":0.5266207916666872},{"name":"B3","midi":59,"time":837.5006700000114,"velocity":0.8818897637795275,"duration":0.13773159166669302},{"name":"B4","midi":71,"time":837.5006700000114,"velocity":0.8818897637795275,"duration":0.13773159166669302},{"name":"C4","midi":60,"time":837.7784480000114,"velocity":0.8818897637795275,"duration":0.13773159166669302},{"name":"C5","midi":72,"time":837.7784480000114,"velocity":0.8818897637795275,"duration":0.13773159166669302},{"name":"D4","midi":62,"time":838.0562260000114,"velocity":0.8818897637795275,"duration":0.17476865833327793},{"name":"D5","midi":74,"time":838.0562260000114,"velocity":0.8818897637795275,"duration":0.17476865833327793},{"name":"D#4","midi":63,"time":838.2414113333447,"velocity":0.8818897637795275,"duration":0.17476865833327793},{"name":"D#5","midi":75,"time":838.2414113333447,"velocity":0.8818897637795275,"duration":0.17476865833327793},{"name":"D4","midi":62,"time":838.4265966666779,"velocity":0.8818897637795275,"duration":0.17476865833327793},{"name":"D5","midi":74,"time":838.4265966666779,"velocity":0.8818897637795275,"duration":0.17476865833327793},{"name":"B3","midi":59,"time":838.6117820000112,"velocity":0.8818897637795275,"duration":0.13773159166669302},{"name":"B4","midi":71,"time":838.6117820000112,"velocity":0.8818897637795275,"duration":0.13773159166669302},{"name":"G3","midi":55,"time":838.8895600000112,"velocity":0.8818897637795275,"duration":0.13773159166669302},{"name":"G4","midi":67,"time":838.8895600000112,"velocity":0.8818897637795275,"duration":0.13773159166669302},{"name":"B3","midi":59,"time":839.1673380000112,"velocity":0.8818897637795275,"duration":0.13773159166669302},{"name":"B4","midi":71,"time":839.1673380000112,"velocity":0.8818897637795275,"duration":0.13773159166669302},{"name":"D4","midi":62,"time":839.4451160000112,"velocity":0.8818897637795275,"duration":0.13773159166669302},{"name":"D5","midi":74,"time":839.4451160000112,"velocity":0.8818897637795275,"duration":0.13773159166669302},{"name":"D#4","midi":63,"time":839.7228940000113,"velocity":0.8818897637795275,"duration":0.5266207916666872},{"name":"D#5","midi":75,"time":839.7228940000113,"velocity":0.8818897637795275,"duration":0.5266207916666872},{"name":"D4","midi":62,"time":840.2784500000113,"velocity":0.8818897637795275,"duration":0.13773159166669302},{"name":"D5","midi":74,"time":840.2784500000113,"velocity":0.8818897637795275,"duration":0.13773159166669302},{"name":"C4","midi":60,"time":840.5562280000113,"velocity":0.8818897637795275,"duration":0.13773159166669302},{"name":"C5","midi":72,"time":840.5562280000113,"velocity":0.8818897637795275,"duration":0.13773159166669302},{"name":"C5","midi":72,"time":840.8340060000113,"velocity":0.8818897637795275,"duration":0.5266207916666872},{"name":"C6","midi":84,"time":840.8340060000113,"velocity":0.8818897637795275,"duration":0.5266207916666872},{"name":"A#4","midi":70,"time":841.3895620000113,"velocity":0.8818897637795275,"duration":0.13773159166669302},{"name":"A#5","midi":82,"time":841.3895620000113,"velocity":0.8818897637795275,"duration":0.13773159166669302},{"name":"G#4","midi":68,"time":841.6673400000113,"velocity":0.8818897637795275,"duration":0.13773159166669302},{"name":"G#5","midi":80,"time":841.6673400000113,"velocity":0.8818897637795275,"duration":0.13773159166669302},{"name":"G4","midi":67,"time":841.9451180000113,"velocity":0.8818897637795275,"duration":0.5266207916666872},{"name":"G5","midi":79,"time":841.9451180000113,"velocity":0.8818897637795275,"duration":0.5266207916666872},{"name":"F4","midi":65,"time":842.5006740000114,"velocity":0.8818897637795275,"duration":0.13773159166669302},{"name":"F5","midi":77,"time":842.5006740000114,"velocity":0.8818897637795275,"duration":0.13773159166669302},{"name":"G#4","midi":68,"time":842.7784520000114,"velocity":0.8818897637795275,"duration":0.13773159166669302},{"name":"G#5","midi":80,"time":842.7784520000114,"velocity":0.8818897637795275,"duration":0.13773159166669302},{"name":"G4","midi":67,"time":843.0562300000114,"velocity":0.8818897637795275,"duration":1.0543989916666305},{"name":"G5","midi":79,"time":843.0562300000114,"velocity":0.8818897637795275,"duration":1.0543989916666305},{"name":"F3","midi":53,"time":844.4451200000113,"velocity":0.8818897637795275,"duration":0.13773159166669302},{"name":"F4","midi":65,"time":844.4451200000113,"velocity":0.8818897637795275,"duration":0.13773159166669302},{"name":"G#3","midi":56,"time":844.7228980000114,"velocity":0.8818897637795275,"duration":0.13773159166669302},{"name":"G#4","midi":68,"time":844.7228980000114,"velocity":0.8818897637795275,"duration":0.13773159166669302},{"name":"C4","midi":60,"time":845.0006760000114,"velocity":0.8818897637795275,"duration":0.13773159166669302},{"name":"C5","midi":72,"time":845.0006760000114,"velocity":0.8818897637795275,"duration":0.13773159166669302},{"name":"F4","midi":65,"time":845.2784540000114,"velocity":0.8818897637795275,"duration":0.46064851666665163},{"name":"F5","midi":77,"time":845.2784540000114,"velocity":0.8818897637795275,"duration":0.46064851666665163},{"name":"G4","midi":67,"time":845.7645655000114,"velocity":0.8818897637795275,"duration":0.0648148666666657},{"name":"G5","midi":79,"time":845.7645655000114,"velocity":0.8818897637795275,"duration":0.0648148666666657},{"name":"G#4","midi":68,"time":845.8340100000114,"velocity":0.8818897637795275,"duration":0.5266207916666872},{"name":"G#5","midi":80,"time":845.8340100000114,"velocity":0.8818897637795275,"duration":0.5266207916666872},{"name":"G4","midi":67,"time":846.3895660000114,"velocity":0.8818897637795275,"duration":0.13773159166669302},{"name":"G5","midi":79,"time":846.3895660000114,"velocity":0.8818897637795275,"duration":0.13773159166669302},{"name":"F4","midi":65,"time":846.6673440000114,"velocity":0.8818897637795275,"duration":0.13773159166669302},{"name":"F5","midi":77,"time":846.6673440000114,"velocity":0.8818897637795275,"duration":0.13773159166669302},{"name":"D4","midi":62,"time":846.9451220000115,"velocity":0.8818897637795275,"duration":0.17476865833327793},{"name":"D5","midi":74,"time":846.9451220000115,"velocity":0.8818897637795275,"duration":0.17476865833327793},{"name":"D#4","midi":63,"time":847.1303073333447,"velocity":0.8818897637795275,"duration":0.17476865833327793},{"name":"D#5","midi":75,"time":847.1303073333447,"velocity":0.8818897637795275,"duration":0.17476865833327793},{"name":"D4","midi":62,"time":847.315492666678,"velocity":0.8818897637795275,"duration":0.17476865833327793},{"name":"D5","midi":74,"time":847.315492666678,"velocity":0.8818897637795275,"duration":0.17476865833327793},{"name":"B3","midi":59,"time":847.5006780000112,"velocity":0.8818897637795275,"duration":0.26273169166665866},{"name":"B4","midi":71,"time":847.5006780000112,"velocity":0.8818897637795275,"duration":0.26273169166665866},{"name":"D4","midi":62,"time":848.0562340000113,"velocity":0.8818897637795275,"duration":0.11805564999997387},{"name":"D5","midi":74,"time":848.0562340000113,"velocity":0.8818897637795275,"duration":0.11805564999997387},{"name":"D#4","midi":63,"time":848.1754470583446,"velocity":0.8818897637795275,"duration":0.14814826666668068},{"name":"D#5","midi":75,"time":848.1754470583446,"velocity":0.8818897637795275,"duration":0.14814826666668068},{"name":"D4","midi":62,"time":848.3340120000113,"velocity":0.8818897637795275,"duration":0.26273169166665866},{"name":"D5","midi":74,"time":848.3340120000113,"velocity":0.8818897637795275,"duration":0.26273169166665866},{"name":"C4","midi":60,"time":848.6117900000113,"velocity":0.8818897637795275,"duration":0.26273169166665866},{"name":"C5","midi":72,"time":848.6117900000113,"velocity":0.8818897637795275,"duration":0.26273169166665866},{"name":"B3","midi":59,"time":848.8895680000113,"velocity":0.8818897637795275,"duration":0.26273169166665866},{"name":"B4","midi":71,"time":848.8895680000113,"velocity":0.8818897637795275,"duration":0.26273169166665866},{"name":"C4","midi":60,"time":849.1673460000113,"velocity":0.8818897637795275,"duration":0.26273169166665866},{"name":"C5","midi":72,"time":849.1673460000113,"velocity":0.8818897637795275,"duration":0.26273169166665866},{"name":"D4","midi":62,"time":849.4451240000113,"velocity":0.8818897637795275,"duration":0.26273169166665866},{"name":"D5","midi":74,"time":849.4451240000113,"velocity":0.8818897637795275,"duration":0.26273169166665866},{"name":"D#4","midi":63,"time":849.7229020000113,"velocity":0.8818897637795275,"duration":0.2766205916666422},{"name":"D#5","midi":75,"time":849.7229020000113,"velocity":0.8818897637795275,"duration":0.2766205916666422},{"name":"C4","midi":60,"time":850.2784580000114,"velocity":0.8818897637795275,"duration":0.2766205916666422},{"name":"C5","midi":72,"time":850.2784580000114,"velocity":0.8818897637795275,"duration":0.2766205916666422},{"name":"B3","midi":59,"time":850.8340140000114,"velocity":0.8818897637795275,"duration":0.26273169166665866},{"name":"B4","midi":71,"time":850.8340140000114,"velocity":0.8818897637795275,"duration":0.26273169166665866},{"name":"C4","midi":60,"time":851.1117920000114,"velocity":0.8818897637795275,"duration":0.26273169166665866},{"name":"C5","midi":72,"time":851.1117920000114,"velocity":0.8818897637795275,"duration":0.26273169166665866},{"name":"D4","midi":62,"time":851.3895700000114,"velocity":0.8818897637795275,"duration":0.2766205916666422},{"name":"D5","midi":74,"time":851.3895700000114,"velocity":0.8818897637795275,"duration":0.2766205916666422},{"name":"C4","midi":60,"time":851.9451260000114,"velocity":0.8818897637795275,"duration":0.2766205916666422},{"name":"C5","midi":72,"time":851.9451260000114,"velocity":0.8818897637795275,"duration":0.2766205916666422},{"name":"C5","midi":72,"time":852.5006820000115,"velocity":0.8818897637795275,"duration":0.2766205916666422},{"name":"C6","midi":84,"time":852.5006820000115,"velocity":0.8818897637795275,"duration":0.2766205916666422},{"name":"C#1","midi":25,"time":875.2784780000115,"velocity":0.8818897637795275,"duration":4.221068191666632},{"name":"C#2","midi":37,"time":875.2784780000115,"velocity":0.8818897637795275,"duration":4.221068191666632},{"name":"C#3","midi":49,"time":875.2784780000115,"velocity":0.8818897637795275,"duration":4.221068191666632},{"name":"D#1","midi":27,"time":879.7229260000115,"velocity":0.8818897637795275,"duration":4.221068191666632},{"name":"D#2","midi":39,"time":879.7229260000115,"velocity":0.8818897637795275,"duration":4.221068191666632},{"name":"D#3","midi":51,"time":879.7229260000115,"velocity":0.8818897637795275,"duration":4.221068191666632},{"name":"C#1","midi":25,"time":884.1673740000115,"velocity":0.8818897637795275,"duration":4.221068191666632},{"name":"C#2","midi":37,"time":884.1673740000115,"velocity":0.8818897637795275,"duration":4.221068191666632},{"name":"C#3","midi":49,"time":884.1673740000115,"velocity":0.8818897637795275,"duration":4.221068191666632},{"name":"D#1","midi":27,"time":888.6118220000114,"velocity":0.8818897637795275,"duration":4.221068191666632},{"name":"D#2","midi":39,"time":888.6118220000114,"velocity":0.8818897637795275,"duration":4.221068191666632},{"name":"D#3","midi":51,"time":888.6118220000114,"velocity":0.8818897637795275,"duration":4.221068191666632},{"name":"G3","midi":55,"time":933.3340800000115,"velocity":0.6299212598425197,"duration":0.26273169166665866},{"name":"G4","midi":67,"time":933.3340800000115,"velocity":0.6299212598425197,"duration":0.26273169166665866},{"name":"F#3","midi":54,"time":933.8896360000115,"velocity":0.6299212598425197,"duration":0.26273169166665866},{"name":"F#4","midi":66,"time":933.8896360000115,"velocity":0.6299212598425197,"duration":0.26273169166665866},{"name":"G3","midi":55,"time":934.4451920000115,"velocity":0.6299212598425197,"duration":0.26273169166665866},{"name":"G4","midi":67,"time":934.4451920000115,"velocity":0.6299212598425197,"duration":0.26273169166665866},{"name":"F#3","midi":54,"time":935.0007480000115,"velocity":0.6299212598425197,"duration":0.26273169166665866},{"name":"F#4","midi":66,"time":935.0007480000115,"velocity":0.6299212598425197,"duration":0.26273169166665866},{"name":"G3","midi":55,"time":935.5563040000116,"velocity":0.6299212598425197,"duration":0.26273169166665866},{"name":"G4","midi":67,"time":935.5563040000116,"velocity":0.6299212598425197,"duration":0.26273169166665866},{"name":"F#3","midi":54,"time":936.1118600000116,"velocity":0.6299212598425197,"duration":0.26273169166665866},{"name":"F#4","midi":66,"time":936.1118600000116,"velocity":0.6299212598425197,"duration":0.26273169166665866},{"name":"G3","midi":55,"time":936.6674160000116,"velocity":0.6299212598425197,"duration":0.26273169166665866},{"name":"G4","midi":67,"time":936.6674160000116,"velocity":0.6299212598425197,"duration":0.26273169166665866},{"name":"F#3","midi":54,"time":937.2229720000116,"velocity":0.6299212598425197,"duration":0.26273169166665866},{"name":"F#4","midi":66,"time":937.2229720000116,"velocity":0.6299212598425197,"duration":0.26273169166665866},{"name":"G3","midi":55,"time":937.7785280000116,"velocity":0.6299212598425197,"duration":0.26273169166665866},{"name":"G4","midi":67,"time":937.7785280000116,"velocity":0.6299212598425197,"duration":0.26273169166665866},{"name":"F#3","midi":54,"time":938.3340840000117,"velocity":0.6299212598425197,"duration":0.26273169166665866},{"name":"F#4","midi":66,"time":938.3340840000117,"velocity":0.6299212598425197,"duration":0.26273169166665866},{"name":"G3","midi":55,"time":938.8896400000117,"velocity":0.6299212598425197,"duration":0.26273169166665866},{"name":"G4","midi":67,"time":938.8896400000117,"velocity":0.6299212598425197,"duration":0.26273169166665866},{"name":"F#3","midi":54,"time":939.4451960000117,"velocity":0.6299212598425197,"duration":0.26273169166665866},{"name":"F#4","midi":66,"time":939.4451960000117,"velocity":0.6299212598425197,"duration":0.26273169166665866},{"name":"G3","midi":55,"time":940.0007520000117,"velocity":0.6299212598425197,"duration":0.26273169166665866},{"name":"G4","midi":67,"time":940.0007520000117,"velocity":0.6299212598425197,"duration":0.26273169166665866},{"name":"F#3","midi":54,"time":940.5563080000118,"velocity":0.6299212598425197,"duration":0.26273169166665866},{"name":"F#4","midi":66,"time":940.5563080000118,"velocity":0.6299212598425197,"duration":0.26273169166665866},{"name":"G3","midi":55,"time":941.1118640000118,"velocity":0.6299212598425197,"duration":0.26273169166665866},{"name":"G4","midi":67,"time":941.1118640000118,"velocity":0.6299212598425197,"duration":0.26273169166665866},{"name":"F#3","midi":54,"time":941.6674200000118,"velocity":0.6299212598425197,"duration":0.26273169166665866},{"name":"F#4","midi":66,"time":941.6674200000118,"velocity":0.6299212598425197,"duration":0.26273169166665866},{"name":"G3","midi":55,"time":942.2229760000118,"velocity":0.6299212598425197,"duration":0.26273169166665866},{"name":"G4","midi":67,"time":942.2229760000118,"velocity":0.6299212598425197,"duration":0.26273169166665866},{"name":"F#3","midi":54,"time":942.7785320000119,"velocity":0.6299212598425197,"duration":0.26273169166665866},{"name":"F#4","midi":66,"time":942.7785320000119,"velocity":0.6299212598425197,"duration":0.26273169166665866},{"name":"G3","midi":55,"time":943.3340880000119,"velocity":0.6299212598425197,"duration":0.26273169166665866},{"name":"G4","midi":67,"time":943.3340880000119,"velocity":0.6299212598425197,"duration":0.26273169166665866},{"name":"F#3","midi":54,"time":943.8896440000119,"velocity":0.6299212598425197,"duration":0.26273169166665866},{"name":"F#4","midi":66,"time":943.8896440000119,"velocity":0.6299212598425197,"duration":0.26273169166665866},{"name":"G3","midi":55,"time":944.4452000000119,"velocity":0.6299212598425197,"duration":0.26273169166665866},{"name":"G4","midi":67,"time":944.4452000000119,"velocity":0.6299212598425197,"duration":0.26273169166665866},{"name":"F#3","midi":54,"time":945.000756000012,"velocity":0.6299212598425197,"duration":0.26273169166665866},{"name":"F#4","midi":66,"time":945.000756000012,"velocity":0.6299212598425197,"duration":0.26273169166665866},{"name":"G3","midi":55,"time":945.556312000012,"velocity":0.6299212598425197,"duration":0.26273169166665866},{"name":"G4","midi":67,"time":945.556312000012,"velocity":0.6299212598425197,"duration":0.26273169166665866},{"name":"F#3","midi":54,"time":946.111868000012,"velocity":0.6299212598425197,"duration":0.26273169166665866},{"name":"F#4","midi":66,"time":946.111868000012,"velocity":0.6299212598425197,"duration":0.26273169166665866},{"name":"G3","midi":55,"time":946.667424000012,"velocity":0.6299212598425197,"duration":0.26273169166665866},{"name":"G4","midi":67,"time":946.667424000012,"velocity":0.6299212598425197,"duration":0.26273169166665866},{"name":"F#3","midi":54,"time":947.2229800000121,"velocity":0.6299212598425197,"duration":0.26273169166665866},{"name":"F#4","midi":66,"time":947.2229800000121,"velocity":0.6299212598425197,"duration":0.26273169166665866},{"name":"G3","midi":55,"time":947.7785360000121,"velocity":0.6299212598425197,"duration":0.26273169166665866},{"name":"G4","midi":67,"time":947.7785360000121,"velocity":0.6299212598425197,"duration":0.26273169166665866},{"name":"F#3","midi":54,"time":948.3340920000121,"velocity":0.6299212598425197,"duration":0.26273169166665866},{"name":"F#4","midi":66,"time":948.3340920000121,"velocity":0.6299212598425197,"duration":0.26273169166665866},{"name":"G3","midi":55,"time":948.8896480000121,"velocity":0.6299212598425197,"duration":0.26273169166665866},{"name":"G4","midi":67,"time":948.8896480000121,"velocity":0.6299212598425197,"duration":0.26273169166665866},{"name":"F#3","midi":54,"time":949.4452040000122,"velocity":0.6299212598425197,"duration":0.26273169166665866},{"name":"F#4","midi":66,"time":949.4452040000122,"velocity":0.6299212598425197,"duration":0.26273169166665866},{"name":"G3","midi":55,"time":950.0007600000122,"velocity":0.6299212598425197,"duration":0.26273169166665866},{"name":"G4","midi":67,"time":950.0007600000122,"velocity":0.6299212598425197,"duration":0.26273169166665866},{"name":"F#3","midi":54,"time":950.5563160000122,"velocity":0.6299212598425197,"duration":0.26273169166665866},{"name":"F#4","midi":66,"time":950.5563160000122,"velocity":0.6299212598425197,"duration":0.26273169166665866},{"name":"G3","midi":55,"time":951.1118720000122,"velocity":0.6299212598425197,"duration":0.26273169166665866},{"name":"G4","midi":67,"time":951.1118720000122,"velocity":0.6299212598425197,"duration":0.26273169166665866},{"name":"F#3","midi":54,"time":951.6674280000123,"velocity":0.6299212598425197,"duration":0.26273169166665866},{"name":"F#4","midi":66,"time":951.6674280000123,"velocity":0.6299212598425197,"duration":0.26273169166665866},{"name":"G3","midi":55,"time":952.2229840000123,"velocity":0.6299212598425197,"duration":0.26273169166665866},{"name":"G4","midi":67,"time":952.2229840000123,"velocity":0.6299212598425197,"duration":0.26273169166665866},{"name":"F#3","midi":54,"time":952.7785400000123,"velocity":0.6299212598425197,"duration":0.26273169166665866},{"name":"F#4","midi":66,"time":952.7785400000123,"velocity":0.6299212598425197,"duration":0.26273169166665866},{"name":"G3","midi":55,"time":953.3340960000123,"velocity":0.6299212598425197,"duration":0.26273169166665866},{"name":"G4","midi":67,"time":953.3340960000123,"velocity":0.6299212598425197,"duration":0.26273169166665866},{"name":"F#3","midi":54,"time":953.8896520000123,"velocity":0.6299212598425197,"duration":0.26273169166665866},{"name":"F#4","midi":66,"time":953.8896520000123,"velocity":0.6299212598425197,"duration":0.26273169166665866},{"name":"G3","midi":55,"time":954.4452080000124,"velocity":0.6299212598425197,"duration":0.26273169166665866},{"name":"G4","midi":67,"time":954.4452080000124,"velocity":0.6299212598425197,"duration":0.26273169166665866},{"name":"F#3","midi":54,"time":955.0007640000124,"velocity":0.6299212598425197,"duration":0.26273169166665866},{"name":"F#4","midi":66,"time":955.0007640000124,"velocity":0.6299212598425197,"duration":0.26273169166665866},{"name":"G3","midi":55,"time":955.5563200000124,"velocity":0.6299212598425197,"duration":0.26273169166665866},{"name":"G4","midi":67,"time":955.5563200000124,"velocity":0.6299212598425197,"duration":0.26273169166665866},{"name":"F#3","midi":54,"time":956.1118760000124,"velocity":0.6299212598425197,"duration":0.26273169166665866},{"name":"F#4","midi":66,"time":956.1118760000124,"velocity":0.6299212598425197,"duration":0.26273169166665866},{"name":"G3","midi":55,"time":956.6674320000125,"velocity":0.6299212598425197,"duration":0.26273169166665866},{"name":"G4","midi":67,"time":956.6674320000125,"velocity":0.6299212598425197,"duration":0.26273169166665866},{"name":"F#3","midi":54,"time":957.2229880000125,"velocity":0.6299212598425197,"duration":0.26273169166665866},{"name":"F#4","midi":66,"time":957.2229880000125,"velocity":0.6299212598425197,"duration":0.26273169166665866},{"name":"G3","midi":55,"time":957.7785440000125,"velocity":0.6299212598425197,"duration":0.26273169166665866},{"name":"G4","midi":67,"time":957.7785440000125,"velocity":0.6299212598425197,"duration":0.26273169166665866},{"name":"F#3","midi":54,"time":958.3341000000125,"velocity":0.6299212598425197,"duration":0.26273169166665866},{"name":"F#4","midi":66,"time":958.3341000000125,"velocity":0.6299212598425197,"duration":0.26273169166665866},{"name":"G3","midi":55,"time":958.8896560000126,"velocity":0.6299212598425197,"duration":0.26273169166665866},{"name":"G4","midi":67,"time":958.8896560000126,"velocity":0.6299212598425197,"duration":0.26273169166665866},{"name":"F#3","midi":54,"time":959.4452120000126,"velocity":0.6299212598425197,"duration":0.26273169166665866},{"name":"F#4","midi":66,"time":959.4452120000126,"velocity":0.6299212598425197,"duration":0.26273169166665866},{"name":"G#3","midi":56,"time":971.1118880000125,"velocity":0.8818897637795275,"duration":0.26273169166665866},{"name":"G#3","midi":56,"time":971.3896660000125,"velocity":0.8818897637795275,"duration":0.26273169166665866},{"name":"G#3","midi":56,"time":971.6674440000126,"velocity":0.8818897637795275,"duration":0.26273169166665866},{"name":"G#3","midi":56,"time":971.9452220000126,"velocity":0.8818897637795275,"duration":0.26273169166665866},{"name":"G#3","midi":56,"time":972.2230000000126,"velocity":0.8818897637795275,"duration":0.26273169166665866},{"name":"G#4","midi":68,"time":972.5007780000126,"velocity":0.8818897637795275,"duration":0.26273169166665866},{"name":"G#3","midi":56,"time":972.7785560000126,"velocity":0.8818897637795275,"duration":0.26273169166665866},{"name":"A#3","midi":58,"time":975.5563360000126,"velocity":0.8818897637795275,"duration":0.26273169166665866},{"name":"A#3","midi":58,"time":975.8341140000126,"velocity":0.8818897637795275,"duration":0.26273169166665866},{"name":"A#3","midi":58,"time":976.1118920000126,"velocity":0.8818897637795275,"duration":0.26273169166665866},{"name":"A#3","midi":58,"time":976.3896700000126,"velocity":0.8818897637795275,"duration":0.26273169166665866},{"name":"A#3","midi":58,"time":976.6674480000127,"velocity":0.8818897637795275,"duration":0.26273169166665866},{"name":"A#4","midi":70,"time":976.9452260000127,"velocity":0.8818897637795275,"duration":0.26273169166665866},{"name":"A#3","midi":58,"time":977.2230040000127,"velocity":0.8818897637795275,"duration":0.26273169166665866},{"name":"C4","midi":60,"time":977.7785600000127,"velocity":0.8818897637795275,"duration":0.26273169166665866},{"name":"C4","midi":60,"time":978.0563380000127,"velocity":0.8818897637795275,"duration":0.26273169166665866},{"name":"C4","midi":60,"time":978.3341160000127,"velocity":0.8818897637795275,"duration":0.26273169166665866},{"name":"C4","midi":60,"time":978.6118940000127,"velocity":0.8818897637795275,"duration":0.26273169166665866},{"name":"C4","midi":60,"time":978.8896720000128,"velocity":0.8818897637795275,"duration":0.26273169166665866},{"name":"C5","midi":72,"time":979.1674500000128,"velocity":0.8818897637795275,"duration":0.26273169166665866},{"name":"C4","midi":60,"time":979.4452280000128,"velocity":0.8818897637795275,"duration":0.26273169166665866},{"name":"B3","midi":59,"time":980.0007840000128,"velocity":0.8818897637795275,"duration":0.26273169166665866},{"name":"B3","midi":59,"time":980.2785620000128,"velocity":0.8818897637795275,"duration":0.26273169166665866},{"name":"B3","midi":59,"time":980.5563400000128,"velocity":0.8818897637795275,"duration":0.26273169166665866},{"name":"B3","midi":59,"time":980.8341180000128,"velocity":0.8818897637795275,"duration":0.26273169166665866},{"name":"B3","midi":59,"time":981.1118960000128,"velocity":0.8818897637795275,"duration":0.26273169166665866},{"name":"B4","midi":71,"time":981.3896740000129,"velocity":0.8818897637795275,"duration":0.26273169166665866},{"name":"B3","midi":59,"time":981.6674520000129,"velocity":0.8818897637795275,"duration":0.26273169166665866},{"name":"A#3","midi":58,"time":982.2230080000129,"velocity":0.8818897637795275,"duration":0.26273169166665866},{"name":"A#3","midi":58,"time":982.5007860000129,"velocity":0.8818897637795275,"duration":0.26273169166665866},{"name":"A#3","midi":58,"time":982.7785640000129,"velocity":0.8818897637795275,"duration":0.26273169166665866},{"name":"A#3","midi":58,"time":983.0563420000129,"velocity":0.8818897637795275,"duration":0.26273169166665866},{"name":"A#3","midi":58,"time":983.334120000013,"velocity":0.8818897637795275,"duration":0.26273169166665866},{"name":"A#4","midi":70,"time":983.611898000013,"velocity":0.8818897637795275,"duration":0.26273169166665866},{"name":"A#3","midi":58,"time":983.889676000013,"velocity":0.8818897637795275,"duration":0.26273169166665866},{"name":"A3","midi":57,"time":984.445232000013,"velocity":0.8818897637795275,"duration":0.26273169166665866},{"name":"A3","midi":57,"time":984.723010000013,"velocity":0.8818897637795275,"duration":0.26273169166665866},{"name":"A3","midi":57,"time":985.000788000013,"velocity":0.8818897637795275,"duration":0.26273169166665866},{"name":"A3","midi":57,"time":985.278566000013,"velocity":0.8818897637795275,"duration":0.26273169166665866},{"name":"A3","midi":57,"time":985.556344000013,"velocity":0.8818897637795275,"duration":0.26273169166665866},{"name":"A4","midi":69,"time":985.834122000013,"velocity":0.8818897637795275,"duration":0.26273169166665866},{"name":"A3","midi":57,"time":986.1119000000131,"velocity":0.8818897637795275,"duration":0.26273169166665866},{"name":"G#3","midi":56,"time":988.0563460000131,"velocity":0.8818897637795275,"duration":0.26273169166665866},{"name":"G#3","midi":56,"time":988.3341240000132,"velocity":0.8818897637795275,"duration":0.26273169166665866},{"name":"G#3","midi":56,"time":988.8896800000132,"velocity":0.8818897637795275,"duration":0.26273169166665866},{"name":"G#3","midi":56,"time":989.1674580000132,"velocity":0.8818897637795275,"duration":0.26273169166665866},{"name":"G#3","midi":56,"time":989.4452360000132,"velocity":0.8818897637795275,"duration":0.26273169166665866},{"name":"G#3","midi":56,"time":989.7230140000132,"velocity":0.8818897637795275,"duration":0.26273169166665866},{"name":"G#3","midi":56,"time":990.0007920000132,"velocity":0.8818897637795275,"duration":0.26273169166665866},{"name":"G#4","midi":68,"time":990.2785700000132,"velocity":0.8818897637795275,"duration":0.26273169166665866},{"name":"G#3","midi":56,"time":990.5563480000133,"velocity":0.8818897637795275,"duration":0.26273169166665866},{"name":"A#3","midi":58,"time":993.3341280000133,"velocity":0.8818897637795275,"duration":0.26273169166665866},{"name":"A#3","midi":58,"time":993.6119060000133,"velocity":0.8818897637795275,"duration":0.26273169166665866},{"name":"A#3","midi":58,"time":993.8896840000133,"velocity":0.8818897637795275,"duration":0.26273169166665866},{"name":"A#3","midi":58,"time":994.1674620000133,"velocity":0.8818897637795275,"duration":0.26273169166665866},{"name":"A#3","midi":58,"time":994.4452400000133,"velocity":0.8818897637795275,"duration":0.26273169166665866},{"name":"A#4","midi":70,"time":994.7230180000133,"velocity":0.8818897637795275,"duration":0.26273169166665866},{"name":"A#3","midi":58,"time":995.0007960000133,"velocity":0.8818897637795275,"duration":0.26273169166665866},{"name":"C4","midi":60,"time":997.7785760000133,"velocity":0.8818897637795275,"duration":0.26273169166665866},{"name":"C4","midi":60,"time":998.0563540000134,"velocity":0.8818897637795275,"duration":0.26273169166665866},{"name":"C4","midi":60,"time":998.3341320000134,"velocity":0.8818897637795275,"duration":0.26273169166665866},{"name":"C4","midi":60,"time":998.6119100000134,"velocity":0.8818897637795275,"duration":0.26273169166665866},{"name":"C4","midi":60,"time":998.8896880000134,"velocity":0.8818897637795275,"duration":0.26273169166665866},{"name":"C5","midi":72,"time":999.1674660000134,"velocity":0.8818897637795275,"duration":0.26273169166665866},{"name":"C4","midi":60,"time":999.4452440000134,"velocity":0.8818897637795275,"duration":0.26273169166665866},{"name":"A#3","midi":58,"time":1002.2230240000134,"velocity":0.8818897637795275,"duration":0.26273169166665866},{"name":"A#3","midi":58,"time":1002.5008020000134,"velocity":0.8818897637795275,"duration":0.26273169166665866},{"name":"A#3","midi":58,"time":1002.7785800000134,"velocity":0.8818897637795275,"duration":0.26273169166665866},{"name":"A#3","midi":58,"time":1003.0563580000135,"velocity":0.8818897637795275,"duration":0.26273169166665866},{"name":"A#3","midi":58,"time":1003.3341360000135,"velocity":0.8818897637795275,"duration":0.26273169166665866},{"name":"A#4","midi":70,"time":1003.6119140000135,"velocity":0.8818897637795275,"duration":0.26273169166665866},{"name":"A#3","midi":58,"time":1003.8896920000135,"velocity":0.8818897637795275,"duration":0.26273169166665866},{"name":"G#3","midi":56,"time":1006.6674720000135,"velocity":0.8818897637795275,"duration":0.26273169166665866},{"name":"G#3","midi":56,"time":1006.9452500000135,"velocity":0.8818897637795275,"duration":0.26273169166665866},{"name":"G#3","midi":56,"time":1007.2230280000135,"velocity":0.8818897637795275,"duration":0.26273169166665866},{"name":"G#3","midi":56,"time":1007.5008060000135,"velocity":0.8818897637795275,"duration":0.26273169166665866},{"name":"G#3","midi":56,"time":1007.7785840000136,"velocity":0.8818897637795275,"duration":0.26273169166665866},{"name":"G#4","midi":68,"time":1008.0563620000136,"velocity":0.8818897637795275,"duration":0.26273169166665866},{"name":"G#3","midi":56,"time":1008.3341400000136,"velocity":0.8818897637795275,"duration":0.26273169166665866},{"name":"A#3","midi":58,"time":1011.1119200000136,"velocity":0.8818897637795275,"duration":0.26273169166665866},{"name":"A#3","midi":58,"time":1011.3896980000136,"velocity":0.8818897637795275,"duration":0.26273169166665866},{"name":"A#3","midi":58,"time":1011.6674760000136,"velocity":0.8818897637795275,"duration":0.26273169166665866},{"name":"A#3","midi":58,"time":1011.9452540000136,"velocity":0.8818897637795275,"duration":0.26273169166665866},{"name":"A#3","midi":58,"time":1012.2230320000136,"velocity":0.8818897637795275,"duration":0.26273169166665866},{"name":"A#4","midi":70,"time":1012.5008100000136,"velocity":0.8818897637795275,"duration":0.26273169166665866},{"name":"A#3","midi":58,"time":1012.7785880000137,"velocity":0.8818897637795275,"duration":0.26273169166665866},{"name":"C4","midi":60,"time":1013.3341440000137,"velocity":0.8818897637795275,"duration":0.26273169166665866},{"name":"C4","midi":60,"time":1013.6119220000137,"velocity":0.8818897637795275,"duration":0.26273169166665866},{"name":"C4","midi":60,"time":1013.8897000000137,"velocity":0.8818897637795275,"duration":0.26273169166665866},{"name":"C4","midi":60,"time":1014.1674780000137,"velocity":0.8818897637795275,"duration":0.26273169166665866},{"name":"C4","midi":60,"time":1014.4452560000137,"velocity":0.8818897637795275,"duration":0.26273169166665866},{"name":"C5","midi":72,"time":1014.7230340000137,"velocity":0.8818897637795275,"duration":0.26273169166665866},{"name":"C4","midi":60,"time":1015.0008120000138,"velocity":0.8818897637795275,"duration":0.26273169166665866},{"name":"B3","midi":59,"time":1015.5563680000138,"velocity":0.8818897637795275,"duration":0.26273169166665866},{"name":"B3","midi":59,"time":1015.8341460000138,"velocity":0.8818897637795275,"duration":0.26273169166665866},{"name":"B3","midi":59,"time":1016.1119240000138,"velocity":0.8818897637795275,"duration":0.26273169166665866},{"name":"B3","midi":59,"time":1016.3897020000138,"velocity":0.8818897637795275,"duration":0.26273169166665866},{"name":"B3","midi":59,"time":1016.6674800000138,"velocity":0.8818897637795275,"duration":0.26273169166665866},{"name":"B4","midi":71,"time":1016.9452580000138,"velocity":0.8818897637795275,"duration":0.26273169166665866},{"name":"B3","midi":59,"time":1017.2230360000138,"velocity":0.8818897637795275,"duration":0.26273169166665866},{"name":"A#3","midi":58,"time":1017.7785920000139,"velocity":0.8818897637795275,"duration":0.26273169166665866},{"name":"A#3","midi":58,"time":1018.0563700000139,"velocity":0.8818897637795275,"duration":0.26273169166665866},{"name":"A#3","midi":58,"time":1018.3341480000139,"velocity":0.8818897637795275,"duration":0.26273169166665866},{"name":"A#3","midi":58,"time":1018.6119260000139,"velocity":0.8818897637795275,"duration":0.26273169166665866},{"name":"A#3","midi":58,"time":1018.8897040000139,"velocity":0.8818897637795275,"duration":0.26273169166665866},{"name":"A#4","midi":70,"time":1019.1674820000139,"velocity":0.8818897637795275,"duration":0.26273169166665866},{"name":"A#3","midi":58,"time":1019.445260000014,"velocity":0.8818897637795275,"duration":0.26273169166665866},{"name":"A3","midi":57,"time":1020.000816000014,"velocity":0.8818897637795275,"duration":0.26273169166665866},{"name":"A3","midi":57,"time":1020.278594000014,"velocity":0.8818897637795275,"duration":0.26273169166665866},{"name":"A3","midi":57,"time":1020.556372000014,"velocity":0.8818897637795275,"duration":0.26273169166665866},{"name":"A3","midi":57,"time":1020.834150000014,"velocity":0.8818897637795275,"duration":0.26273169166665866},{"name":"A3","midi":57,"time":1021.111928000014,"velocity":0.8818897637795275,"duration":0.26273169166665866},{"name":"A4","midi":69,"time":1021.389706000014,"velocity":0.8818897637795275,"duration":0.26273169166665866},{"name":"A3","midi":57,"time":1021.667484000014,"velocity":0.8818897637795275,"duration":0.26273169166665866},{"name":"G#3","midi":56,"time":1023.6119300000141,"velocity":0.8818897637795275,"duration":0.26273169166665866},{"name":"G#3","midi":56,"time":1023.8897080000141,"velocity":0.8818897637795275,"duration":0.26273169166677235},{"name":"G#3","midi":56,"time":1024.4452640000143,"velocity":0.8818897637795275,"duration":0.26273169166665866},{"name":"G#3","midi":56,"time":1024.7230420000142,"velocity":0.8818897637795275,"duration":0.26273169166665866},{"name":"G#3","midi":56,"time":1025.000820000014,"velocity":0.8818897637795275,"duration":0.26273169166665866},{"name":"G#3","midi":56,"time":1025.278598000014,"velocity":0.8818897637795275,"duration":0.26273169166665866},{"name":"G#3","midi":56,"time":1025.5563760000139,"velocity":0.8818897637795275,"duration":0.26273169166665866},{"name":"G#4","midi":68,"time":1025.8341540000138,"velocity":0.8818897637795275,"duration":0.26273169166665866},{"name":"G#3","midi":56,"time":1026.1119320000137,"velocity":0.8818897637795275,"duration":0.26273169166665866},{"name":"A#3","midi":58,"time":1028.8897120000138,"velocity":0.8818897637795275,"duration":0.26273169166665866},{"name":"A#3","midi":58,"time":1029.1674900000137,"velocity":0.8818897637795275,"duration":0.26273169166665866},{"name":"A#3","midi":58,"time":1029.4452680000136,"velocity":0.8818897637795275,"duration":0.26273169166665866},{"name":"A#3","midi":58,"time":1029.7230460000135,"velocity":0.8818897637795275,"duration":0.26273169166665866},{"name":"A#3","midi":58,"time":1030.0008240000134,"velocity":0.8818897637795275,"duration":0.26273169166665866},{"name":"A#4","midi":70,"time":1030.2786020000133,"velocity":0.8818897637795275,"duration":0.26273169166665866},{"name":"A#3","midi":58,"time":1030.5563800000132,"velocity":0.8818897637795275,"duration":0.26273169166665866},{"name":"C4","midi":60,"time":1033.3341600000133,"velocity":0.8818897637795275,"duration":0.26273169166665866},{"name":"C4","midi":60,"time":1033.6119380000132,"velocity":0.8818897637795275,"duration":0.26273169166665866},{"name":"C4","midi":60,"time":1033.889716000013,"velocity":0.8818897637795275,"duration":0.26273169166665866},{"name":"C4","midi":60,"time":1034.167494000013,"velocity":0.8818897637795275,"duration":0.26273169166665866},{"name":"C4","midi":60,"time":1034.445272000013,"velocity":0.8818897637795275,"duration":0.26273169166665866},{"name":"C5","midi":72,"time":1034.7230500000128,"velocity":0.8818897637795275,"duration":0.26273169166665866},{"name":"C4","midi":60,"time":1035.0008280000127,"velocity":0.8818897637795275,"duration":0.26273169166665866},{"name":"A#3","midi":58,"time":1037.7786080000128,"velocity":0.8818897637795275,"duration":0.26273169166665866},{"name":"A#3","midi":58,"time":1038.0563860000127,"velocity":0.8818897637795275,"duration":0.26273169166665866},{"name":"A#3","midi":58,"time":1038.3341640000126,"velocity":0.8818897637795275,"duration":0.26273169166665866},{"name":"A#3","midi":58,"time":1038.6119420000125,"velocity":0.8818897637795275,"duration":0.26273169166665866},{"name":"A#3","midi":58,"time":1038.8897200000124,"velocity":0.8818897637795275,"duration":0.26273169166665866},{"name":"A#4","midi":70,"time":1039.1674980000123,"velocity":0.8818897637795275,"duration":0.26273169166665866},{"name":"A#3","midi":58,"time":1039.4452760000122,"velocity":0.8818897637795275,"duration":0.26273169166665866},{"name":"G#3","midi":56,"time":1042.2230560000123,"velocity":0.8818897637795275,"duration":0.26273169166665866},{"name":"G#3","midi":56,"time":1042.5008340000122,"velocity":0.8818897637795275,"duration":0.26273169166665866},{"name":"G#3","midi":56,"time":1042.7786120000121,"velocity":0.8818897637795275,"duration":0.26273169166665866},{"name":"G#3","midi":56,"time":1043.056390000012,"velocity":0.8818897637795275,"duration":0.26273169166665866},{"name":"G#3","midi":56,"time":1043.334168000012,"velocity":0.8818897637795275,"duration":0.26273169166665866},{"name":"G#4","midi":68,"time":1043.6119460000118,"velocity":0.8818897637795275,"duration":0.26273169166665866},{"name":"G#3","midi":56,"time":1043.8897240000117,"velocity":0.8818897637795275,"duration":0.26273169166665866},{"name":"A#3","midi":58,"time":1046.6675040000118,"velocity":0.8818897637795275,"duration":0.26273169166665866},{"name":"A#3","midi":58,"time":1046.9452820000117,"velocity":0.8818897637795275,"duration":0.26273169166665866},{"name":"A#3","midi":58,"time":1047.2230600000116,"velocity":0.8818897637795275,"duration":0.26273169166665866},{"name":"A#3","midi":58,"time":1047.5008380000115,"velocity":0.8818897637795275,"duration":0.26273169166665866},{"name":"A#3","midi":58,"time":1047.7786160000114,"velocity":0.8818897637795275,"duration":0.26273169166665866},{"name":"A#4","midi":70,"time":1048.0563940000113,"velocity":0.8818897637795275,"duration":0.26273169166665866},{"name":"A#3","midi":58,"time":1048.3341720000112,"velocity":0.8818897637795275,"duration":0.26273169166665866},{"name":"C4","midi":60,"time":1048.8897280000112,"velocity":0.8818897637795275,"duration":0.26273169166665866},{"name":"C4","midi":60,"time":1049.1675060000111,"velocity":0.8818897637795275,"duration":0.26273169166665866},{"name":"C4","midi":60,"time":1049.445284000011,"velocity":0.8818897637795275,"duration":0.26273169166665866},{"name":"C4","midi":60,"time":1049.723062000011,"velocity":0.8818897637795275,"duration":0.26273169166665866},{"name":"C4","midi":60,"time":1050.0008400000108,"velocity":0.8818897637795275,"duration":0.26273169166665866},{"name":"C5","midi":72,"time":1050.2786180000107,"velocity":0.8818897637795275,"duration":0.26273169166665866},{"name":"C4","midi":60,"time":1050.5563960000106,"velocity":0.8818897637795275,"duration":0.26273169166665866},{"name":"B3","midi":59,"time":1051.1119520000107,"velocity":0.8818897637795275,"duration":0.26273169166665866},{"name":"B3","midi":59,"time":1051.3897300000106,"velocity":0.8818897637795275,"duration":0.26273169166665866},{"name":"B3","midi":59,"time":1051.6675080000105,"velocity":0.8818897637795275,"duration":0.26273169166665866},{"name":"B3","midi":59,"time":1051.9452860000104,"velocity":0.8818897637795275,"duration":0.26273169166665866},{"name":"B3","midi":59,"time":1052.2230640000103,"velocity":0.8818897637795275,"duration":0.26273169166665866},{"name":"B4","midi":71,"time":1052.5008420000102,"velocity":0.8818897637795275,"duration":0.26273169166665866},{"name":"B3","midi":59,"time":1052.77862000001,"velocity":0.8818897637795275,"duration":0.26273169166665866},{"name":"A#3","midi":58,"time":1053.33417600001,"velocity":0.8818897637795275,"duration":0.26273169166665866},{"name":"A#3","midi":58,"time":1053.61195400001,"velocity":0.8818897637795275,"duration":0.26273169166665866},{"name":"A#3","midi":58,"time":1053.8897320000099,"velocity":0.8818897637795275,"duration":0.26273169166665866},{"name":"A#3","midi":58,"time":1054.1675100000098,"velocity":0.8818897637795275,"duration":0.26273169166665866},{"name":"A#3","midi":58,"time":1054.4452880000097,"velocity":0.8818897637795275,"duration":0.26273169166665866},{"name":"A#4","midi":70,"time":1054.7230660000096,"velocity":0.8818897637795275,"duration":0.26273169166665866},{"name":"A#3","midi":58,"time":1055.0008440000095,"velocity":0.8818897637795275,"duration":0.26273169166665866},{"name":"A3","midi":57,"time":1055.5564000000095,"velocity":0.8818897637795275,"duration":0.26273169166665866},{"name":"A3","midi":57,"time":1055.8341780000094,"velocity":0.8818897637795275,"duration":0.26273169166665866},{"name":"A3","midi":57,"time":1056.1119560000093,"velocity":0.8818897637795275,"duration":0.26273169166665866},{"name":"A3","midi":57,"time":1056.3897340000092,"velocity":0.8818897637795275,"duration":0.26273169166665866},{"name":"A3","midi":57,"time":1056.667512000009,"velocity":0.8818897637795275,"duration":0.26273169166665866},{"name":"A4","midi":69,"time":1056.945290000009,"velocity":0.8818897637795275,"duration":0.26273169166665866},{"name":"A3","midi":57,"time":1057.2230680000089,"velocity":0.8818897637795275,"duration":0.26273169166665866},{"name":"G#3","midi":56,"time":1060.000848000009,"velocity":0.8818897637795275,"duration":0.26273169166665866},{"name":"G#3","midi":56,"time":1060.278626000009,"velocity":0.8818897637795275,"duration":0.26273169166665866},{"name":"G#3","midi":56,"time":1060.5564040000088,"velocity":0.8818897637795275,"duration":0.26273169166665866},{"name":"G#3","midi":56,"time":1060.8341820000087,"velocity":0.8818897637795275,"duration":0.26273169166665866},{"name":"G#3","midi":56,"time":1061.1119600000086,"velocity":0.8818897637795275,"duration":0.26273169166665866},{"name":"G#4","midi":68,"time":1061.3897380000085,"velocity":0.8818897637795275,"duration":0.26273169166665866},{"name":"G#3","midi":56,"time":1061.6675160000084,"velocity":0.8818897637795275,"duration":0.26273169166665866},{"name":"A#3","midi":58,"time":1064.4452960000085,"velocity":0.8818897637795275,"duration":0.26273169166665866},{"name":"A#3","midi":58,"time":1064.7230740000084,"velocity":0.8818897637795275,"duration":0.26273169166665866},{"name":"A#3","midi":58,"time":1065.0008520000083,"velocity":0.8818897637795275,"duration":0.26273169166665866},{"name":"A#3","midi":58,"time":1065.2786300000082,"velocity":0.8818897637795275,"duration":0.26273169166665866},{"name":"A#3","midi":58,"time":1065.556408000008,"velocity":0.8818897637795275,"duration":0.26273169166665866},{"name":"A#4","midi":70,"time":1065.834186000008,"velocity":0.8818897637795275,"duration":0.26273169166665866},{"name":"A#3","midi":58,"time":1066.111964000008,"velocity":0.8818897637795275,"duration":0.26273169166665866},{"name":"C4","midi":60,"time":1068.889744000008,"velocity":0.8818897637795275,"duration":0.26273169166665866},{"name":"C4","midi":60,"time":1069.167522000008,"velocity":0.8818897637795275,"duration":0.26273169166665866},{"name":"C4","midi":60,"time":1069.4453000000078,"velocity":0.8818897637795275,"duration":0.26273169166665866},{"name":"C4","midi":60,"time":1069.7230780000077,"velocity":0.8818897637795275,"duration":0.26273169166665866},{"name":"C4","midi":60,"time":1070.0008560000076,"velocity":0.8818897637795275,"duration":0.26273169166665866},{"name":"C5","midi":72,"time":1070.2786340000075,"velocity":0.8818897637795275,"duration":0.26273169166665866},{"name":"C4","midi":60,"time":1070.5564120000074,"velocity":0.8818897637795275,"duration":0.26273169166665866},{"name":"C4","midi":60,"time":1073.3341920000075,"velocity":0.8818897637795275,"duration":0.26273169166665866},{"name":"C4","midi":60,"time":1073.6119700000074,"velocity":0.8818897637795275,"duration":0.26273169166665866},{"name":"C4","midi":60,"time":1073.8897480000073,"velocity":0.8818897637795275,"duration":0.26273169166665866},{"name":"C4","midi":60,"time":1074.1675260000072,"velocity":0.8818897637795275,"duration":0.26273169166665866},{"name":"C4","midi":60,"time":1074.4453040000071,"velocity":0.8818897637795275,"duration":0.26273169166665866},{"name":"C5","midi":72,"time":1074.723082000007,"velocity":0.8818897637795275,"duration":0.26273169166665866},{"name":"C4","midi":60,"time":1075.000860000007,"velocity":0.8818897637795275,"duration":0.26273169166665866},{"name":"F#5","midi":78,"time":1155.278702000007,"velocity":0.3858267716535433,"duration":0.13773159166657933},{"name":"F#5","midi":78,"time":1155.5564800000068,"velocity":0.4094488188976378,"duration":0.13773159166657933},{"name":"F#5","midi":78,"time":1155.8342580000067,"velocity":0.4409448818897638,"duration":0.13773159166657933},{"name":"F#5","midi":78,"time":1156.1120360000066,"velocity":0.47244094488188976,"duration":0.13773159166657933},{"name":"F#5","midi":78,"time":1156.3898140000065,"velocity":0.5039370078740157,"duration":0.13773159166657933},{"name":"F#5","midi":78,"time":1156.6675920000064,"velocity":0.5354330708661418,"duration":0.13773159166657933},{"name":"F#5","midi":78,"time":1156.9453700000063,"velocity":0.5669291338582677,"duration":0.13078714166658756},{"name":"F#5","midi":78,"time":1157.084259000006,"velocity":0.5826771653543307,"duration":0.13078714166658756},{"name":"F#5","midi":78,"time":1157.223148000006,"velocity":0.5984251968503937,"duration":0.13773159166657933},{"name":"E5","midi":76,"time":1157.5009260000058,"velocity":0.6299212598425197,"duration":0.13773159166657933},{"name":"E5","midi":76,"time":1157.7787040000057,"velocity":0.6299212598425197,"duration":0.13773159166657933},{"name":"E5","midi":76,"time":1158.0564820000056,"velocity":0.6299212598425197,"duration":0.13773159166657933},{"name":"E5","midi":76,"time":1158.3342600000055,"velocity":0.6299212598425197,"duration":0.13773159166657933},{"name":"E5","midi":76,"time":1158.6120380000054,"velocity":0.6299212598425197,"duration":0.13773159166657933},{"name":"E5","midi":76,"time":1158.8898160000053,"velocity":0.6299212598425197,"duration":0.13773159166657933},{"name":"E5","midi":76,"time":1159.1675940000052,"velocity":0.6299212598425197,"duration":0.13078714166658756},{"name":"E5","midi":76,"time":1159.306483000005,"velocity":0.6299212598425197,"duration":0.13078714166658756},{"name":"E5","midi":76,"time":1159.445372000005,"velocity":0.6299212598425197,"duration":0.13773159166657933},{"name":"C#5","midi":73,"time":1159.7231500000048,"velocity":0.6299212598425197,"duration":0.13773159166657933},{"name":"C#5","midi":73,"time":1160.0009280000047,"velocity":0.6299212598425197,"duration":0.13773159166657933},{"name":"C#5","midi":73,"time":1160.2787060000046,"velocity":0.6299212598425197,"duration":0.13773159166657933},{"name":"C#5","midi":73,"time":1160.5564840000045,"velocity":0.6299212598425197,"duration":0.13773159166657933},{"name":"C#5","midi":73,"time":1160.8342620000044,"velocity":0.6299212598425197,"duration":0.13773159166657933},{"name":"C#5","midi":73,"time":1161.1120400000043,"velocity":0.6299212598425197,"duration":0.13773159166657933},{"name":"C#5","midi":73,"time":1161.3898180000042,"velocity":0.6299212598425197,"duration":0.13078714166658756},{"name":"C#5","midi":73,"time":1161.528707000004,"velocity":0.6299212598425197,"duration":0.13078714166658756},{"name":"C#5","midi":73,"time":1161.6675960000039,"velocity":0.6299212598425197,"duration":0.13773159166657933},{"name":"D5","midi":74,"time":1161.9453740000038,"velocity":0.6299212598425197,"duration":0.13773159166657933},{"name":"D5","midi":74,"time":1162.2231520000037,"velocity":0.6299212598425197,"duration":0.13773159166657933},{"name":"D5","midi":74,"time":1162.5009300000036,"velocity":0.6299212598425197,"duration":0.13773159166657933},{"name":"D5","midi":74,"time":1162.7787080000035,"velocity":0.6299212598425197,"duration":0.13773159166657933},{"name":"D5","midi":74,"time":1163.0564860000034,"velocity":0.6299212598425197,"duration":0.13773159166657933},{"name":"D5","midi":74,"time":1163.3342640000033,"velocity":0.6299212598425197,"duration":0.13773159166657933},{"name":"D5","midi":74,"time":1163.6120420000032,"velocity":0.6299212598425197,"duration":0.13078714166658756},{"name":"D5","midi":74,"time":1163.750931000003,"velocity":0.6299212598425197,"duration":0.13078714166658756},{"name":"D5","midi":74,"time":1163.8898200000028,"velocity":0.6299212598425197,"duration":0.13773159166657933},{"name":"F#5","midi":78,"time":1164.1675980000027,"velocity":0.6299212598425197,"duration":0.13773159166657933},{"name":"F#5","midi":78,"time":1164.4453760000026,"velocity":0.6299212598425197,"duration":0.13773159166657933},{"name":"F#5","midi":78,"time":1164.7231540000025,"velocity":0.6299212598425197,"duration":0.13773159166657933},{"name":"F#5","midi":78,"time":1165.0009320000024,"velocity":0.6299212598425197,"duration":0.13773159166657933},{"name":"F#5","midi":78,"time":1165.2787100000023,"velocity":0.6299212598425197,"duration":0.13773159166657933},{"name":"F#5","midi":78,"time":1165.5564880000022,"velocity":0.6299212598425197,"duration":0.13773159166657933},{"name":"F#5","midi":78,"time":1165.8342660000021,"velocity":0.6299212598425197,"duration":0.13078714166658756},{"name":"F#5","midi":78,"time":1165.973155000002,"velocity":0.6299212598425197,"duration":0.13078714166658756},{"name":"F#5","midi":78,"time":1166.1120440000018,"velocity":0.6299212598425197,"duration":0.13773159166657933},{"name":"E5","midi":76,"time":1166.3898220000017,"velocity":0.6299212598425197,"duration":0.13773159166657933},{"name":"E5","midi":76,"time":1166.6676000000016,"velocity":0.6299212598425197,"duration":0.13773159166657933},{"name":"E5","midi":76,"time":1166.9453780000015,"velocity":0.6299212598425197,"duration":0.13773159166657933},{"name":"E5","midi":76,"time":1167.2231560000014,"velocity":0.6299212598425197,"duration":0.13773159166657933},{"name":"E5","midi":76,"time":1167.5009340000013,"velocity":0.6299212598425197,"duration":0.13773159166657933},{"name":"E5","midi":76,"time":1167.7787120000012,"velocity":0.6299212598425197,"duration":0.13773159166657933},{"name":"E5","midi":76,"time":1168.056490000001,"velocity":0.6299212598425197,"duration":0.13078714166658756},{"name":"E5","midi":76,"time":1168.195379000001,"velocity":0.6299212598425197,"duration":0.13078714166658756},{"name":"E5","midi":76,"time":1168.3342680000007,"velocity":0.6299212598425197,"duration":0.13773159166657933},{"name":"D5","midi":74,"time":1168.6120460000006,"velocity":0.6299212598425197,"duration":0.13773159166657933},{"name":"D5","midi":74,"time":1168.8898240000005,"velocity":0.6299212598425197,"duration":0.13773159166657933},{"name":"D5","midi":74,"time":1169.1676020000004,"velocity":0.6299212598425197,"duration":0.13773159166657933},{"name":"D5","midi":74,"time":1169.4453800000003,"velocity":0.6299212598425197,"duration":0.13773159166657933},{"name":"D5","midi":74,"time":1169.7231580000002,"velocity":0.6299212598425197,"duration":0.13773159166657933},{"name":"D5","midi":74,"time":1170.0009360000001,"velocity":0.6299212598425197,"duration":0.13773159166657933},{"name":"D5","midi":74,"time":1170.278714,"velocity":0.6299212598425197,"duration":0.13078714166658756},{"name":"D5","midi":74,"time":1170.4176029999999,"velocity":0.6299212598425197,"duration":0.13078714166658756},{"name":"D5","midi":74,"time":1170.5564919999997,"velocity":0.6299212598425197,"duration":0.13773159166657933},{"name":"C#5","midi":73,"time":1170.8342699999996,"velocity":0.6299212598425197,"duration":0.13773159166657933},{"name":"C#5","midi":73,"time":1171.1120479999995,"velocity":0.6299212598425197,"duration":0.13773159166657933},{"name":"C#5","midi":73,"time":1171.3898259999994,"velocity":0.6299212598425197,"duration":0.13773159166657933},{"name":"C#5","midi":73,"time":1171.6676039999993,"velocity":0.6299212598425197,"duration":0.13773159166657933},{"name":"C#5","midi":73,"time":1171.9453819999992,"velocity":0.6299212598425197,"duration":0.13773159166657933},{"name":"C#5","midi":73,"time":1172.223159999999,"velocity":0.6299212598425197,"duration":0.13773159166657933},{"name":"C#5","midi":73,"time":1172.500937999999,"velocity":0.6299212598425197,"duration":0.13078714166658756},{"name":"C#5","midi":73,"time":1172.6398269999988,"velocity":0.6299212598425197,"duration":0.13078714166658756},{"name":"C#5","midi":73,"time":1172.7787159999987,"velocity":0.6299212598425197,"duration":0.13773159166657933},{"name":"F#5","midi":78,"time":1173.0564939999986,"velocity":0.6299212598425197,"duration":0.13773159166657933},{"name":"F#5","midi":78,"time":1173.3342719999985,"velocity":0.6299212598425197,"duration":0.13773159166657933},{"name":"F#5","midi":78,"time":1173.6120499999984,"velocity":0.6299212598425197,"duration":0.13773159166657933},{"name":"F#5","midi":78,"time":1173.8898279999983,"velocity":0.6299212598425197,"duration":0.13773159166657933},{"name":"F#5","midi":78,"time":1174.1676059999982,"velocity":0.6299212598425197,"duration":0.13773159166657933},{"name":"F#5","midi":78,"time":1174.445383999998,"velocity":0.6299212598425197,"duration":0.13773159166657933},{"name":"F#5","midi":78,"time":1174.723161999998,"velocity":0.6299212598425197,"duration":0.13078714166658756},{"name":"F#5","midi":78,"time":1174.8620509999978,"velocity":0.6299212598425197,"duration":0.13078714166658756},{"name":"F#5","midi":78,"time":1175.0009399999976,"velocity":0.6299212598425197,"duration":0.13773159166657933},{"name":"E5","midi":76,"time":1175.2787179999975,"velocity":0.6299212598425197,"duration":0.13773159166657933},{"name":"E5","midi":76,"time":1175.5564959999974,"velocity":0.6299212598425197,"duration":0.13773159166657933},{"name":"E5","midi":76,"time":1175.8342739999973,"velocity":0.6299212598425197,"duration":0.13773159166657933},{"name":"E5","midi":76,"time":1176.1120519999972,"velocity":0.6299212598425197,"duration":0.13773159166657933},{"name":"E5","midi":76,"time":1176.3898299999971,"velocity":0.6299212598425197,"duration":0.13773159166657933},{"name":"E5","midi":76,"time":1176.667607999997,"velocity":0.6299212598425197,"duration":0.13773159166657933},{"name":"E5","midi":76,"time":1176.945385999997,"velocity":0.6299212598425197,"duration":0.13078714166658756},{"name":"E5","midi":76,"time":1177.0842749999968,"velocity":0.6299212598425197,"duration":0.13078714166658756},{"name":"E5","midi":76,"time":1177.2231639999966,"velocity":0.6299212598425197,"duration":0.13773159166657933},{"name":"C#5","midi":73,"time":1177.5009419999965,"velocity":0.6299212598425197,"duration":0.13773159166657933},{"name":"C#5","midi":73,"time":1177.7787199999964,"velocity":0.6299212598425197,"duration":0.13773159166657933},{"name":"C#5","midi":73,"time":1178.0564979999963,"velocity":0.6299212598425197,"duration":0.13773159166657933},{"name":"C#5","midi":73,"time":1178.3342759999962,"velocity":0.6299212598425197,"duration":0.13773159166657933},{"name":"C#5","midi":73,"time":1178.612053999996,"velocity":0.6299212598425197,"duration":0.13773159166657933},{"name":"C#5","midi":73,"time":1178.889831999996,"velocity":0.6299212598425197,"duration":0.13773159166657933},{"name":"C#5","midi":73,"time":1179.1676099999959,"velocity":0.6299212598425197,"duration":0.13078714166658756},{"name":"C#5","midi":73,"time":1179.3064989999957,"velocity":0.6299212598425197,"duration":0.13078714166658756},{"name":"C#5","midi":73,"time":1179.4453879999955,"velocity":0.6299212598425197,"duration":0.13773159166657933},{"name":"A4","midi":69,"time":1181.9453899999955,"velocity":0.8818897637795275,"duration":0.7905098916667157},{"name":"F#5","midi":78,"time":1181.9453899999955,"velocity":0.8818897637795275,"duration":0.7905098916667157},{"name":"A5","midi":81,"time":1181.9453899999955,"velocity":0.8818897637795275,"duration":0.7905098916667157},{"name":"F#4","midi":66,"time":1182.7787239999957,"velocity":0.8818897637795275,"duration":0.5266207916665735},{"name":"C#5","midi":73,"time":1182.7787239999957,"velocity":0.8818897637795275,"duration":0.5266207916665735},{"name":"F#5","midi":78,"time":1182.7787239999957,"velocity":0.8818897637795275,"duration":0.5266207916665735},{"name":"G#4","midi":68,"time":1183.3342799999955,"velocity":0.8818897637795275,"duration":0.26273169166665866},{"name":"E5","midi":76,"time":1183.3342799999955,"velocity":0.8818897637795275,"duration":0.26273169166665866},{"name":"G#5","midi":80,"time":1183.3342799999955,"velocity":0.8818897637795275,"duration":0.26273169166665866},{"name":"A4","midi":69,"time":1183.6120579999954,"velocity":0.8818897637795275,"duration":0.13078714166658756},{"name":"E5","midi":76,"time":1183.6120579999954,"velocity":0.8818897637795275,"duration":0.13078714166658756},{"name":"A5","midi":81,"time":1183.6120579999954,"velocity":0.8818897637795275,"duration":0.13078714166658756},{"name":"B4","midi":71,"time":1183.7509469999952,"velocity":0.8818897637795275,"duration":0.13078714166658756},{"name":"F#5","midi":78,"time":1183.7509469999952,"velocity":0.8818897637795275,"duration":0.13078714166658756},{"name":"B5","midi":83,"time":1183.7509469999952,"velocity":0.8818897637795275,"duration":0.13078714166658756},{"name":"A4","midi":69,"time":1183.889835999995,"velocity":0.8818897637795275,"duration":0.13078714166658756},{"name":"E5","midi":76,"time":1183.889835999995,"velocity":0.8818897637795275,"duration":0.13078714166658756},{"name":"A5","midi":81,"time":1183.889835999995,"velocity":0.8818897637795275,"duration":0.13078714166658756},{"name":"G#4","midi":68,"time":1184.028724999995,"velocity":0.8818897637795275,"duration":0.13078714166658756},{"name":"E5","midi":76,"time":1184.028724999995,"velocity":0.8818897637795275,"duration":0.13078714166658756},{"name":"G#5","midi":80,"time":1184.028724999995,"velocity":0.8818897637795275,"duration":0.13078714166658756},{"name":"A4","midi":69,"time":1184.1676139999947,"velocity":0.8818897637795275,"duration":0.5266207916665735},{"name":"E5","midi":76,"time":1184.1676139999947,"velocity":0.8818897637795275,"duration":0.5266207916665735},{"name":"A5","midi":81,"time":1184.1676139999947,"velocity":0.8818897637795275,"duration":0.5266207916665735},{"name":"E4","midi":64,"time":1184.7231699999945,"velocity":0.8818897637795275,"duration":0.5266207916665735},{"name":"A4","midi":69,"time":1184.7231699999945,"velocity":0.8818897637795275,"duration":0.5266207916665735},{"name":"C#5","midi":73,"time":1184.7231699999945,"velocity":0.8818897637795275,"duration":0.5266207916665735},{"name":"E5","midi":76,"time":1184.7231699999945,"velocity":0.8818897637795275,"duration":0.5266207916665735},{"name":"C#5","midi":73,"time":1185.2787259999943,"velocity":0.8818897637795275,"duration":0.26273169166665866},{"name":"E5","midi":76,"time":1185.2787259999943,"velocity":0.8818897637795275,"duration":0.26273169166665866},{"name":"C#6","midi":85,"time":1185.2787259999943,"velocity":0.8818897637795275,"duration":0.26273169166665866},{"name":"B4","midi":71,"time":1185.5565039999942,"velocity":0.8818897637795275,"duration":0.26273169166665866},{"name":"E5","midi":76,"time":1185.5565039999942,"velocity":0.8818897637795275,"duration":0.26273169166665866},{"name":"B5","midi":83,"time":1185.5565039999942,"velocity":0.8818897637795275,"duration":0.26273169166665866},{"name":"A4","midi":69,"time":1185.8342819999941,"velocity":0.8818897637795275,"duration":0.26273169166665866},{"name":"E5","midi":76,"time":1185.8342819999941,"velocity":0.8818897637795275,"duration":0.26273169166665866},{"name":"A5","midi":81,"time":1185.8342819999941,"velocity":0.8818897637795275,"duration":0.26273169166665866},{"name":"B4","midi":71,"time":1186.112059999994,"velocity":0.8818897637795275,"duration":0.26273169166665866},{"name":"E5","midi":76,"time":1186.112059999994,"velocity":0.8818897637795275,"duration":0.26273169166665866},{"name":"B5","midi":83,"time":1186.112059999994,"velocity":0.8818897637795275,"duration":0.26273169166665866},{"name":"G#4","midi":68,"time":1186.389837999994,"velocity":0.8818897637795275,"duration":0.3946762416665024},{"name":"F5","midi":77,"time":1186.389837999994,"velocity":0.8818897637795275,"duration":0.3946762416665024},{"name":"G#5","midi":80,"time":1186.389837999994,"velocity":0.8818897637795275,"duration":0.3946762416665024},{"name":"C#4","midi":61,"time":1186.8065049999936,"velocity":0.8818897637795275,"duration":0.39467624166672977},{"name":"F4","midi":65,"time":1186.8065049999936,"velocity":0.8818897637795275,"duration":0.39467624166672977},{"name":"F5","midi":77,"time":1186.8065049999936,"velocity":0.8818897637795275,"duration":0.39467624166672977},{"name":"D5","midi":74,"time":1187.2231719999936,"velocity":0.8818897637795275,"duration":0.26273169166665866},{"name":"B5","midi":83,"time":1187.2231719999936,"velocity":0.8818897637795275,"duration":0.26273169166665866},{"name":"D6","midi":86,"time":1187.2231719999936,"velocity":0.8818897637795275,"duration":0.26273169166665866},{"name":"G#4","midi":68,"time":1187.5009499999935,"velocity":0.8818897637795275,"duration":0.5266207916665735},{"name":"C#5","midi":73,"time":1187.5009499999935,"velocity":0.8818897637795275,"duration":0.5266207916665735},{"name":"G#5","midi":80,"time":1187.5009499999935,"velocity":0.8818897637795275,"duration":0.5266207916665735},{"name":"C#6","midi":85,"time":1187.5009499999935,"velocity":0.8818897637795275,"duration":0.5266207916665735},{"name":"G#4","midi":68,"time":1188.0565059999933,"velocity":0.8818897637795275,"duration":0.5266207916665735},{"name":"B4","midi":71,"time":1188.0565059999933,"velocity":0.8818897637795275,"duration":0.5266207916665735},{"name":"G#5","midi":80,"time":1188.0565059999933,"velocity":0.8818897637795275,"duration":0.5266207916665735},{"name":"B5","midi":83,"time":1188.0565059999933,"velocity":0.8818897637795275,"duration":0.5266207916665735},{"name":"A4","midi":69,"time":1188.612061999993,"velocity":0.8818897637795275,"duration":1.0543989916664032},{"name":"F#5","midi":78,"time":1188.612061999993,"velocity":0.8818897637795275,"duration":1.0543989916664032},{"name":"A5","midi":81,"time":1188.612061999993,"velocity":0.8818897637795275,"duration":1.0543989916664032},{"name":"B4","midi":71,"time":1189.723173999993,"velocity":0.8818897637795275,"duration":0.5266207916665735},{"name":"E5","midi":76,"time":1189.723173999993,"velocity":0.8818897637795275,"duration":0.5266207916665735},{"name":"B5","midi":83,"time":1189.723173999993,"velocity":0.8818897637795275,"duration":0.5266207916665735},{"name":"C#5","midi":73,"time":1190.2787299999927,"velocity":0.8818897637795275,"duration":0.5266207916665735},{"name":"E5","midi":76,"time":1190.2787299999927,"velocity":0.8818897637795275,"duration":0.5266207916665735},{"name":"C#6","midi":85,"time":1190.2787299999927,"velocity":0.8818897637795275,"duration":0.5266207916665735},{"name":"F#4","midi":66,"time":1190.8342859999925,"velocity":0.8818897637795275,"duration":1.0543989916664032},{"name":"D5","midi":74,"time":1190.8342859999925,"velocity":0.8818897637795275,"duration":1.0543989916664032},{"name":"F#5","midi":78,"time":1190.8342859999925,"velocity":0.8818897637795275,"duration":1.0543989916664032},{"name":"G#4","midi":68,"time":1191.9453979999923,"velocity":0.8818897637795275,"duration":0.26273169166665866},{"name":"G#5","midi":80,"time":1191.9453979999923,"velocity":0.8818897637795275,"duration":0.26273169166665866},{"name":"G#3","midi":56,"time":1192.2231759999922,"velocity":0.8818897637795275,"duration":0.26273169166665866},{"name":"G#4","midi":68,"time":1192.2231759999922,"velocity":0.8818897637795275,"duration":0.26273169166665866},{"name":"A4","midi":69,"time":1192.5009539999921,"velocity":0.8818897637795275,"duration":0.26273169166665866},{"name":"A5","midi":81,"time":1192.5009539999921,"velocity":0.8818897637795275,"duration":0.26273169166665866},{"name":"A3","midi":57,"time":1192.778731999992,"velocity":0.8818897637795275,"duration":0.26273169166665866},{"name":"A4","midi":69,"time":1192.778731999992,"velocity":0.8818897637795275,"duration":0.26273169166665866},{"name":"A4","midi":69,"time":1193.056509999992,"velocity":0.8818897637795275,"duration":0.7905098916664883},{"name":"E5","midi":76,"time":1193.056509999992,"velocity":0.8818897637795275,"duration":0.7905098916664883},{"name":"A5","midi":81,"time":1193.056509999992,"velocity":0.8818897637795275,"duration":0.7905098916664883},{"name":"E4","midi":64,"time":1193.8898439999919,"velocity":0.8818897637795275,"duration":0.26273169166665866},{"name":"A4","midi":69,"time":1193.8898439999919,"velocity":0.8818897637795275,"duration":0.26273169166665866},{"name":"C#5","midi":73,"time":1193.8898439999919,"velocity":0.8818897637795275,"duration":0.26273169166665866},{"name":"E5","midi":76,"time":1193.8898439999919,"velocity":0.8818897637795275,"duration":0.26273169166665866},{"name":"C#5","midi":73,"time":1194.1676219999918,"velocity":0.8818897637795275,"duration":0.26273169166665866},{"name":"E5","midi":76,"time":1194.1676219999918,"velocity":0.8818897637795275,"duration":0.26273169166665866},{"name":"C#6","midi":85,"time":1194.1676219999918,"velocity":0.8818897637795275,"duration":0.26273169166665866},{"name":"B4","midi":71,"time":1194.4453999999917,"velocity":0.8818897637795275,"duration":0.26273169166665866},{"name":"E5","midi":76,"time":1194.4453999999917,"velocity":0.8818897637795275,"duration":0.26273169166665866},{"name":"B5","midi":83,"time":1194.4453999999917,"velocity":0.8818897637795275,"duration":0.26273169166665866},{"name":"A4","midi":69,"time":1194.7231779999915,"velocity":0.8818897637795275,"duration":0.26273169166665866},{"name":"E5","midi":76,"time":1194.7231779999915,"velocity":0.8818897637795275,"duration":0.26273169166665866},{"name":"A5","midi":81,"time":1194.7231779999915,"velocity":0.8818897637795275,"duration":0.26273169166665866},{"name":"B4","midi":71,"time":1195.0009559999914,"velocity":0.8818897637795275,"duration":0.26273169166665866},{"name":"E5","midi":76,"time":1195.0009559999914,"velocity":0.8818897637795275,"duration":0.26273169166665866},{"name":"B5","midi":83,"time":1195.0009559999914,"velocity":0.8818897637795275,"duration":0.26273169166665866},{"name":"G#4","midi":68,"time":1195.2787339999913,"velocity":0.8818897637795275,"duration":0.5266207916665735},{"name":"G#5","midi":80,"time":1195.2787339999913,"velocity":0.8818897637795275,"duration":0.5266207916665735},{"name":"F4","midi":65,"time":1195.8342899999911,"velocity":0.8818897637795275,"duration":0.5266207916665735},{"name":"F5","midi":77,"time":1195.8342899999911,"velocity":0.8818897637795275,"duration":0.5266207916665735},{"name":"F#4","midi":66,"time":1196.389845999991,"velocity":0.8818897637795275,"duration":0.26273169166665866},{"name":"F#5","midi":78,"time":1196.389845999991,"velocity":0.8818897637795275,"duration":0.26273169166665866},{"name":"G#4","midi":68,"time":1196.6676239999908,"velocity":0.8818897637795275,"duration":0.26273169166665866},{"name":"G#5","midi":80,"time":1196.6676239999908,"velocity":0.8818897637795275,"duration":0.26273169166665866},{"name":"A4","midi":69,"time":1196.9454019999907,"velocity":0.8818897637795275,"duration":0.26273169166665866},{"name":"A5","midi":81,"time":1196.9454019999907,"velocity":0.8818897637795275,"duration":0.26273169166665866},{"name":"B4","midi":71,"time":1197.2231799999906,"velocity":0.8818897637795275,"duration":0.26273169166665866},{"name":"B5","midi":83,"time":1197.2231799999906,"velocity":0.8818897637795275,"duration":0.26273169166665866},{"name":"C#4","midi":61,"time":1197.5009579999905,"velocity":0.8818897637795275,"duration":1.0543989916664032},{"name":"C#5","midi":73,"time":1197.5009579999905,"velocity":0.8818897637795275,"duration":1.0543989916664032},{"name":"C#6","midi":85,"time":1197.5009579999905,"velocity":0.8818897637795275,"duration":1.0543989916664032},{"name":"F4","midi":65,"time":1198.6120699999904,"velocity":0.8818897637795275,"duration":1.0543989916666305},{"name":"F5","midi":77,"time":1198.6120699999904,"velocity":0.8818897637795275,"duration":1.0543989916666305},{"name":"F6","midi":89,"time":1198.6120699999904,"velocity":0.8818897637795275,"duration":1.0543989916666305},{"name":"F#4","midi":66,"time":1199.7231819999904,"velocity":0.8818897637795275,"duration":1.5821771916664602},{"name":"F#5","midi":78,"time":1199.7231819999904,"velocity":0.8818897637795275,"duration":1.5821771916664602},{"name":"F#4","midi":66,"time":1201.3898499999902,"velocity":0.8818897637795275,"duration":0.26273169166665866},{"name":"F#5","midi":78,"time":1201.3898499999902,"velocity":0.8818897637795275,"duration":0.26273169166665866},{"name":"G#4","midi":68,"time":1201.6676279999901,"velocity":0.8818897637795275,"duration":0.26273169166665866},{"name":"G#5","midi":80,"time":1201.6676279999901,"velocity":0.8818897637795275,"duration":0.26273169166665866},{"name":"A4","midi":69,"time":1201.94540599999,"velocity":0.8818897637795275,"duration":0.7905098916664883},{"name":"A5","midi":81,"time":1201.94540599999,"velocity":0.8818897637795275,"duration":0.7905098916664883},{"name":"E4","midi":64,"time":1202.77873999999,"velocity":0.8818897637795275,"duration":0.7905098916667157},{"name":"E5","midi":76,"time":1202.77873999999,"velocity":0.8818897637795275,"duration":0.7905098916667157},{"name":"E4","midi":64,"time":1203.6120739999901,"velocity":0.8818897637795275,"duration":0.26273169166665866},{"name":"E5","midi":76,"time":1203.6120739999901,"velocity":0.8818897637795275,"duration":0.26273169166665866},{"name":"D4","midi":62,"time":1203.88985199999,"velocity":0.8818897637795275,"duration":0.26273169166665866},{"name":"D5","midi":74,"time":1203.88985199999,"velocity":0.8818897637795275,"duration":0.26273169166665866},{"name":"C#4","midi":61,"time":1204.16762999999,"velocity":0.8818897637795275,"duration":0.7905098916664883},{"name":"C#5","midi":73,"time":1204.16762999999,"velocity":0.8818897637795275,"duration":0.7905098916664883},{"name":"C#5","midi":73,"time":1205.0009639999898,"velocity":0.8818897637795275,"duration":0.5266207916665735},{"name":"C#6","midi":85,"time":1205.0009639999898,"velocity":0.8818897637795275,"duration":0.5266207916665735},{"name":"A4","midi":69,"time":1205.5565199999896,"velocity":0.8818897637795275,"duration":0.26273169166665866},{"name":"A5","midi":81,"time":1205.5565199999896,"velocity":0.8818897637795275,"duration":0.26273169166665866},{"name":"C#5","midi":73,"time":1205.8342979999895,"velocity":0.8818897637795275,"duration":0.26273169166665866},{"name":"C#6","midi":85,"time":1205.8342979999895,"velocity":0.8818897637795275,"duration":0.26273169166665866},{"name":"E5","midi":76,"time":1206.1120759999894,"velocity":0.8818897637795275,"duration":0.26273169166665866},{"name":"E6","midi":88,"time":1206.1120759999894,"velocity":0.8818897637795275,"duration":0.26273169166665866},{"name":"F#5","midi":78,"time":1206.3898539999893,"velocity":0.8818897637795275,"duration":1.0543989916664032},{"name":"F#6","midi":90,"time":1206.3898539999893,"velocity":0.8818897637795275,"duration":1.0543989916664032},{"name":"F#5","midi":78,"time":1207.5009659999891,"velocity":0.8818897637795275,"duration":0.5266207916665735},{"name":"F#6","midi":90,"time":1207.5009659999891,"velocity":0.8818897637795275,"duration":0.5266207916665735},{"name":"E5","midi":76,"time":1208.056521999989,"velocity":0.8818897637795275,"duration":0.26273169166665866},{"name":"E6","midi":88,"time":1208.056521999989,"velocity":0.8818897637795275,"duration":0.26273169166665866},{"name":"F#5","midi":78,"time":1208.3342999999888,"velocity":0.8818897637795275,"duration":0.13078714166658756},{"name":"F#6","midi":90,"time":1208.3342999999888,"velocity":0.8818897637795275,"duration":0.13078714166658756},{"name":"E5","midi":76,"time":1208.4731889999887,"velocity":0.8818897637795275,"duration":0.13078714166658756},{"name":"E6","midi":88,"time":1208.4731889999887,"velocity":0.8818897637795275,"duration":0.13078714166658756},{"name":"D5","midi":74,"time":1208.6120779999885,"velocity":0.8818897637795275,"duration":1.0543989916664032},{"name":"D6","midi":86,"time":1208.6120779999885,"velocity":0.8818897637795275,"duration":1.0543989916664032},{"name":"F#4","midi":66,"time":1209.7231899999883,"velocity":0.8818897637795275,"duration":0.26273169166665866},{"name":"F#5","midi":78,"time":1209.7231899999883,"velocity":0.8818897637795275,"duration":0.26273169166665866},{"name":"A4","midi":69,"time":1210.0009679999882,"velocity":0.8818897637795275,"duration":0.26273169166665866},{"name":"A5","midi":81,"time":1210.0009679999882,"velocity":0.8818897637795275,"duration":0.26273169166665866},{"name":"D5","midi":74,"time":1210.2787459999881,"velocity":0.8818897637795275,"duration":0.26273169166665866},{"name":"D6","midi":86,"time":1210.2787459999881,"velocity":0.8818897637795275,"duration":0.26273169166665866},{"name":"F#5","midi":78,"time":1210.556523999988,"velocity":0.8818897637795275,"duration":0.26273169166665866},{"name":"F#6","midi":90,"time":1210.556523999988,"velocity":0.8818897637795275,"duration":0.26273169166665866},{"name":"E5","midi":76,"time":1210.834301999988,"velocity":0.8818897637795275,"duration":0.2627316916664313},{"name":"E6","midi":88,"time":1210.834301999988,"velocity":0.8818897637795275,"duration":0.2627316916664313},{"name":"G#5","midi":80,"time":1211.1120799999876,"velocity":0.8818897637795275,"duration":0.26273169166665866},{"name":"G#6","midi":92,"time":1211.1120799999876,"velocity":0.8818897637795275,"duration":0.26273169166665866},{"name":"A5","midi":81,"time":1211.3898579999875,"velocity":0.8818897637795275,"duration":0.26273169166665866},{"name":"A6","midi":93,"time":1211.3898579999875,"velocity":0.8818897637795275,"duration":0.26273169166665866},{"name":"G#5","midi":80,"time":1211.6676359999874,"velocity":0.8818897637795275,"duration":0.26273169166665866},{"name":"G#6","midi":92,"time":1211.6676359999874,"velocity":0.8818897637795275,"duration":0.26273169166665866},{"name":"A5","midi":81,"time":1212.5009699999873,"velocity":0.8818897637795275,"duration":0.26273169166665866},{"name":"A6","midi":93,"time":1212.5009699999873,"velocity":0.8818897637795275,"duration":0.26273169166665866},{"name":"B5","midi":83,"time":1212.7787479999872,"velocity":0.8818897637795275,"duration":0.26273169166665866},{"name":"B6","midi":95,"time":1212.7787479999872,"velocity":0.8818897637795275,"duration":0.26273169166665866},{"name":"C#6","midi":85,"time":1213.0565259999871,"velocity":0.8818897637795275,"duration":2.1099553916665172},{"name":"C#7","midi":97,"time":1213.0565259999871,"velocity":0.8818897637795275,"duration":2.1099553916665172},{"name":"C#5","midi":73,"time":1215.278749999987,"velocity":0.8818897637795275,"duration":0.13773159166657933},{"name":"C#6","midi":85,"time":1215.278749999987,"velocity":0.8818897637795275,"duration":0.13773159166657933},{"name":"C#5","midi":73,"time":1215.5565279999869,"velocity":0.8818897637795275,"duration":0.13773159166657933},{"name":"C#6","midi":85,"time":1215.5565279999869,"velocity":0.8818897637795275,"duration":0.13773159166657933},{"name":"C#5","midi":73,"time":1215.8343059999868,"velocity":0.8818897637795275,"duration":0.13078714166658756},{"name":"C#6","midi":85,"time":1215.8343059999868,"velocity":0.8818897637795275,"duration":0.13078714166658756},{"name":"C#5","midi":73,"time":1215.9731949999866,"velocity":0.8818897637795275,"duration":0.13078714166658756},{"name":"C#6","midi":85,"time":1215.9731949999866,"velocity":0.8818897637795275,"duration":0.13078714166658756},{"name":"C#5","midi":73,"time":1216.1120839999865,"velocity":0.8818897637795275,"duration":0.13078714166658756},{"name":"C#6","midi":85,"time":1216.1120839999865,"velocity":0.8818897637795275,"duration":0.13078714166658756},{"name":"C#5","midi":73,"time":1216.2509729999863,"velocity":0.8818897637795275,"duration":0.13078714166658756},{"name":"C#6","midi":85,"time":1216.2509729999863,"velocity":0.8818897637795275,"duration":0.13078714166658756},{"name":"C#5","midi":73,"time":1216.5287509999862,"velocity":0.8818897637795275,"duration":0.13078714166658756},{"name":"C#6","midi":85,"time":1216.5287509999862,"velocity":0.8818897637795275,"duration":0.13078714166658756},{"name":"C#5","midi":73,"time":1216.806528999986,"velocity":0.8818897637795275,"duration":0.13078714166658756},{"name":"C#6","midi":85,"time":1216.806528999986,"velocity":0.8818897637795275,"duration":0.13078714166658756},{"name":"C#5","midi":73,"time":1216.945417999986,"velocity":0.8818897637795275,"duration":0.13078714166658756},{"name":"C#6","midi":85,"time":1216.945417999986,"velocity":0.8818897637795275,"duration":0.13078714166658756},{"name":"C#5","midi":73,"time":1217.0843069999858,"velocity":0.8818897637795275,"duration":0.13078714166658756},{"name":"C#6","midi":85,"time":1217.0843069999858,"velocity":0.8818897637795275,"duration":0.13078714166658756},{"name":"C#5","midi":73,"time":1217.2231959999856,"velocity":0.8818897637795275,"duration":0.26273169166665866},{"name":"C#6","midi":85,"time":1217.2231959999856,"velocity":0.8818897637795275,"duration":0.26273169166665866},{"name":"F#4","midi":66,"time":1217.5009739999855,"velocity":0.8818897637795275,"duration":1.3182880916665454},{"name":"F#5","midi":78,"time":1217.5009739999855,"velocity":0.8818897637795275,"duration":1.3182880916665454},{"name":"C#4","midi":61,"time":1218.8898639999854,"velocity":0.8818897637795275,"duration":0.26273169166665866},{"name":"C#5","midi":73,"time":1218.8898639999854,"velocity":0.8818897637795275,"duration":0.26273169166665866},{"name":"F#4","midi":66,"time":1219.1676419999853,"velocity":0.8818897637795275,"duration":0.26273169166665866},{"name":"F#5","midi":78,"time":1219.1676419999853,"velocity":0.8818897637795275,"duration":0.26273169166665866},{"name":"G#4","midi":68,"time":1219.4454199999852,"velocity":0.8818897637795275,"duration":0.26273169166665866},{"name":"G#5","midi":80,"time":1219.4454199999852,"velocity":0.8818897637795275,"duration":0.26273169166665866},{"name":"A4","midi":69,"time":1219.7231979999851,"velocity":0.8818897637795275,"duration":0.7905098916664883},{"name":"A5","midi":81,"time":1219.7231979999851,"velocity":0.8818897637795275,"duration":0.7905098916664883},{"name":"C#5","midi":73,"time":1220.556531999985,"velocity":0.8818897637795275,"duration":0.7905098916667157},{"name":"C#6","midi":85,"time":1220.556531999985,"velocity":0.8818897637795275,"duration":0.7905098916667157},{"name":"A4","midi":69,"time":1221.3898659999852,"velocity":0.8818897637795275,"duration":0.26273169166665866},{"name":"A5","midi":81,"time":1221.3898659999852,"velocity":0.8818897637795275,"duration":0.26273169166665866},{"name":"E4","midi":64,"time":1221.667643999985,"velocity":0.8818897637795275,"duration":0.26273169166665866},{"name":"E5","midi":76,"time":1221.667643999985,"velocity":0.8818897637795275,"duration":0.26273169166665866},{"name":"D#4","midi":63,"time":1221.945421999985,"velocity":0.8818897637795275,"duration":0.7905098916664883},{"name":"D#5","midi":75,"time":1221.945421999985,"velocity":0.8818897637795275,"duration":0.7905098916664883},{"name":"B3","midi":59,"time":1222.778755999985,"velocity":0.8818897637795275,"duration":0.26273169166665866},{"name":"B4","midi":71,"time":1222.778755999985,"velocity":0.8818897637795275,"duration":0.26273169166665866},{"name":"B3","midi":59,"time":1223.0565339999848,"velocity":0.8818897637795275,"duration":0.2766205916666422},{"name":"B4","midi":71,"time":1223.0565339999848,"velocity":0.8818897637795275,"duration":0.2766205916666422},{"name":"D#4","midi":63,"time":1223.6120899999848,"velocity":0.8818897637795275,"duration":0.5266207916665735},{"name":"D#5","midi":75,"time":1223.6120899999848,"velocity":0.8818897637795275,"duration":0.5266207916665735},{"name":"D4","midi":62,"time":1224.1676459999846,"velocity":0.8818897637795275,"duration":1.0543989916664032},{"name":"D5","midi":74,"time":1224.1676459999846,"velocity":0.8818897637795275,"duration":1.0543989916664032},{"name":"D5","midi":74,"time":1225.2787579999845,"velocity":0.8818897637795275,"duration":0.4155095916667051},{"name":"D6","midi":86,"time":1225.2787579999845,"velocity":0.8818897637795275,"duration":0.4155095916667051},{"name":"E5","midi":76,"time":1226.1120919999846,"velocity":0.8818897637795275,"duration":0.26273169166665866},{"name":"E6","midi":88,"time":1226.1120919999846,"velocity":0.8818897637795275,"duration":0.26273169166665866},{"name":"F#5","midi":78,"time":1226.3898699999845,"velocity":0.8818897637795275,"duration":1.0543989916664032},{"name":"F#6","midi":90,"time":1226.3898699999845,"velocity":0.8818897637795275,"duration":1.0543989916664032},{"name":"F#4","midi":66,"time":1227.5009819999843,"velocity":0.8818897637795275,"duration":0.39467624166672977},{"name":"F#5","midi":78,"time":1227.5009819999843,"velocity":0.8818897637795275,"duration":0.39467624166672977},{"name":"A4","midi":69,"time":1227.9176489999843,"velocity":0.8818897637795275,"duration":0.20717609166672446},{"name":"A5","midi":81,"time":1227.9176489999843,"velocity":0.8818897637795275,"duration":0.20717609166672446},{"name":"E5","midi":76,"time":1228.3343159999843,"velocity":0.8818897637795275,"duration":0.26273169166665866},{"name":"E6","midi":88,"time":1228.3343159999843,"velocity":0.8818897637795275,"duration":0.26273169166665866},{"name":"F#5","midi":78,"time":1228.6120939999842,"velocity":0.8818897637795275,"duration":0.7905098916664883},{"name":"F#6","midi":90,"time":1228.6120939999842,"velocity":0.8818897637795275,"duration":0.7905098916664883},{"name":"A4","midi":69,"time":1229.445427999984,"velocity":0.8818897637795275,"duration":0.5266207916665735},{"name":"A5","midi":81,"time":1229.445427999984,"velocity":0.8818897637795275,"duration":0.5266207916665735},{"name":"F#4","midi":66,"time":1230.0009839999839,"velocity":0.8818897637795275,"duration":0.26273169166665866},{"name":"F#5","midi":78,"time":1230.0009839999839,"velocity":0.8818897637795275,"duration":0.26273169166665866},{"name":"A4","midi":69,"time":1230.2787619999838,"velocity":0.8818897637795275,"duration":0.26273169166665866},{"name":"A5","midi":81,"time":1230.2787619999838,"velocity":0.8818897637795275,"duration":0.26273169166665866},{"name":"C5","midi":72,"time":1230.5565399999837,"velocity":0.8818897637795275,"duration":0.26273169166665866},{"name":"C6","midi":84,"time":1230.5565399999837,"velocity":0.8818897637795275,"duration":0.26273169166665866},{"name":"C#5","midi":73,"time":1230.8343179999836,"velocity":0.8818897637795275,"duration":2.1099553916665172},{"name":"C#6","midi":85,"time":1230.8343179999836,"velocity":0.8818897637795275,"duration":2.1099553916665172},{"name":"B4","midi":71,"time":1233.0565419999834,"velocity":0.8818897637795275,"duration":0.13773159166657933},{"name":"B5","midi":83,"time":1233.0565419999834,"velocity":0.8818897637795275,"duration":0.13773159166657933},{"name":"B4","midi":71,"time":1233.3343199999833,"velocity":0.8818897637795275,"duration":0.13773159166657933},{"name":"B5","midi":83,"time":1233.3343199999833,"velocity":0.8818897637795275,"duration":0.13773159166657933},{"name":"B4","midi":71,"time":1233.6120979999832,"velocity":0.8818897637795275,"duration":0.13078714166658756},{"name":"B5","midi":83,"time":1233.6120979999832,"velocity":0.8818897637795275,"duration":0.13078714166658756},{"name":"B4","midi":71,"time":1233.750986999983,"velocity":0.8818897637795275,"duration":0.13078714166658756},{"name":"B5","midi":83,"time":1233.750986999983,"velocity":0.8818897637795275,"duration":0.13078714166658756},{"name":"B4","midi":71,"time":1233.889875999983,"velocity":0.8818897637795275,"duration":0.13078714166658756},{"name":"B5","midi":83,"time":1233.889875999983,"velocity":0.8818897637795275,"duration":0.13078714166658756},{"name":"B4","midi":71,"time":1234.0287649999827,"velocity":0.8818897637795275,"duration":0.13078714166658756},{"name":"B5","midi":83,"time":1234.0287649999827,"velocity":0.8818897637795275,"duration":0.13078714166658756},{"name":"B4","midi":71,"time":1234.3065429999826,"velocity":0.8818897637795275,"duration":0.13078714166658756},{"name":"B5","midi":83,"time":1234.3065429999826,"velocity":0.8818897637795275,"duration":0.13078714166658756},{"name":"B4","midi":71,"time":1234.5843209999825,"velocity":0.8818897637795275,"duration":0.13078714166658756},{"name":"B5","midi":83,"time":1234.5843209999825,"velocity":0.8818897637795275,"duration":0.13078714166658756},{"name":"B4","midi":71,"time":1234.7232099999824,"velocity":0.8818897637795275,"duration":0.13078714166658756},{"name":"B5","midi":83,"time":1234.7232099999824,"velocity":0.8818897637795275,"duration":0.13078714166658756},{"name":"B4","midi":71,"time":1234.8620989999822,"velocity":0.8818897637795275,"duration":0.13078714166658756},{"name":"B5","midi":83,"time":1234.8620989999822,"velocity":0.8818897637795275,"duration":0.13078714166658756},{"name":"B4","midi":71,"time":1235.000987999982,"velocity":0.8818897637795275,"duration":0.26273169166665866},{"name":"B5","midi":83,"time":1235.000987999982,"velocity":0.8818897637795275,"duration":0.26273169166665866},{"name":"F#3","midi":54,"time":1235.556543999982,"velocity":0.8818897637795275,"duration":0.13773159166657933},{"name":"F#4","midi":66,"time":1235.556543999982,"velocity":0.8818897637795275,"duration":0.13773159166657933},{"name":"A3","midi":57,"time":1235.834321999982,"velocity":0.8818897637795275,"duration":0.13773159166657933},{"name":"A4","midi":69,"time":1235.834321999982,"velocity":0.8818897637795275,"duration":0.13773159166657933},{"name":"C#4","midi":61,"time":1236.1120999999819,"velocity":0.8818897637795275,"duration":0.13773159166657933},{"name":"C#5","midi":73,"time":1236.1120999999819,"velocity":0.8818897637795275,"duration":0.13773159166657933},{"name":"B3","midi":59,"time":1236.3898779999818,"velocity":0.8818897637795275,"duration":0.5266207916665735},{"name":"B4","midi":71,"time":1236.3898779999818,"velocity":0.8818897637795275,"duration":0.5266207916665735},{"name":"A3","midi":57,"time":1236.9454339999816,"velocity":0.8818897637795275,"duration":0.5266207916665735},{"name":"A4","midi":69,"time":1236.9454339999816,"velocity":0.8818897637795275,"duration":0.5266207916665735},{"name":"G#3","midi":56,"time":1237.5009899999814,"velocity":0.8818897637795275,"duration":0.2627316916664313},{"name":"G#4","midi":68,"time":1237.5009899999814,"velocity":0.8818897637795275,"duration":0.2627316916664313},{"name":"F#3","midi":54,"time":1237.778767999981,"velocity":0.8818897637795275,"duration":0.26273169166665866},{"name":"F#4","midi":66,"time":1237.778767999981,"velocity":0.8818897637795275,"duration":0.26273169166665866},{"name":"G#3","midi":56,"time":1238.056545999981,"velocity":0.8818897637795275,"duration":0.5266207916665735},{"name":"G#4","midi":68,"time":1238.056545999981,"velocity":0.8818897637795275,"duration":0.5266207916665735},{"name":"A3","midi":57,"time":1238.6121019999807,"velocity":0.8818897637795275,"duration":0.26273169166665866},{"name":"A4","midi":69,"time":1238.6121019999807,"velocity":0.8818897637795275,"duration":0.26273169166665866},{"name":"B3","midi":59,"time":1238.8898799999806,"velocity":0.8818897637795275,"duration":0.26273169166665866},{"name":"B4","midi":71,"time":1238.8898799999806,"velocity":0.8818897637795275,"duration":0.26273169166665866},{"name":"G#3","midi":56,"time":1239.1676579999805,"velocity":0.8818897637795275,"duration":0.26273169166665866},{"name":"G#4","midi":68,"time":1239.1676579999805,"velocity":0.8818897637795275,"duration":0.26273169166665866},{"name":"F3","midi":53,"time":1239.4454359999804,"velocity":0.8818897637795275,"duration":0.26273169166665866},{"name":"F4","midi":65,"time":1239.4454359999804,"velocity":0.8818897637795275,"duration":0.26273169166665866},{"name":"C#3","midi":49,"time":1239.7232139999803,"velocity":0.8818897637795275,"duration":0.27662059166641484},{"name":"C#4","midi":61,"time":1239.7232139999803,"velocity":0.8818897637795275,"duration":0.27662059166641484},{"name":"A3","midi":57,"time":1240.00099199998,"velocity":0.8818897637795275,"duration":0.13773159166657933},{"name":"A4","midi":69,"time":1240.00099199998,"velocity":0.8818897637795275,"duration":0.13773159166657933},{"name":"G#3","midi":56,"time":1240.2787699999799,"velocity":0.8818897637795275,"duration":0.5266207916665735},{"name":"G#4","midi":68,"time":1240.2787699999799,"velocity":0.8818897637795275,"duration":0.5266207916665735},{"name":"A3","midi":57,"time":1240.8343259999797,"velocity":0.8818897637795275,"duration":0.13773159166657933},{"name":"A4","midi":69,"time":1240.8343259999797,"velocity":0.8818897637795275,"duration":0.13773159166657933},{"name":"G#3","midi":56,"time":1241.1121039999796,"velocity":0.8818897637795275,"duration":0.13773159166657933},{"name":"G#4","midi":68,"time":1241.1121039999796,"velocity":0.8818897637795275,"duration":0.13773159166657933},{"name":"C#3","midi":49,"time":1241.3898819999795,"velocity":0.8818897637795275,"duration":0.26273169166665866},{"name":"C#4","midi":61,"time":1241.3898819999795,"velocity":0.8818897637795275,"duration":0.26273169166665866},{"name":"A2","midi":45,"time":1241.6676599999794,"velocity":0.8818897637795275,"duration":0.26273169166665866},{"name":"A3","midi":57,"time":1241.6676599999794,"velocity":0.8818897637795275,"duration":0.26273169166665866},{"name":"B2","midi":47,"time":1241.9454379999793,"velocity":0.8818897637795275,"duration":0.13773159166657933},{"name":"B3","midi":59,"time":1241.9454379999793,"velocity":0.8818897637795275,"duration":0.13773159166657933},{"name":"C#3","midi":49,"time":1242.2232159999792,"velocity":0.8818897637795275,"duration":0.13773159166657933},{"name":"C#4","midi":61,"time":1242.2232159999792,"velocity":0.8818897637795275,"duration":0.13773159166657933},{"name":"E3","midi":52,"time":1242.500993999979,"velocity":0.8818897637795275,"duration":0.5266207916665735},{"name":"E4","midi":64,"time":1242.500993999979,"velocity":0.8818897637795275,"duration":0.5266207916665735},{"name":"F#3","midi":54,"time":1243.0565499999789,"velocity":0.8818897637795275,"duration":0.5266207916665735},{"name":"F#4","midi":66,"time":1243.0565499999789,"velocity":0.8818897637795275,"duration":0.5266207916665735},{"name":"F#4","midi":66,"time":1244.4454399999788,"velocity":0.8818897637795275,"duration":0.13773159166657933},{"name":"F#5","midi":78,"time":1244.4454399999788,"velocity":0.8818897637795275,"duration":0.13773159166657933},{"name":"C#5","midi":73,"time":1244.7232179999787,"velocity":0.8818897637795275,"duration":0.13773159166657933},{"name":"C#6","midi":85,"time":1244.7232179999787,"velocity":0.8818897637795275,"duration":0.13773159166657933},{"name":"F#5","midi":78,"time":1245.0009959999786,"velocity":0.8818897637795275,"duration":0.13773159166657933},{"name":"F#6","midi":90,"time":1245.0009959999786,"velocity":0.8818897637795275,"duration":0.13773159166657933},{"name":"A5","midi":81,"time":1245.2787739999785,"velocity":0.8818897637795275,"duration":0.5266207916665735},{"name":"A6","midi":93,"time":1245.2787739999785,"velocity":0.8818897637795275,"duration":0.5266207916665735},{"name":"E5","midi":76,"time":1245.8343299999783,"velocity":0.8818897637795275,"duration":0.5266207916665735},{"name":"E6","midi":88,"time":1245.8343299999783,"velocity":0.8818897637795275,"duration":0.5266207916665735},{"name":"A4","midi":69,"time":1246.389885999978,"velocity":0.8818897637795275,"duration":0.13773159166657933},{"name":"A5","midi":81,"time":1246.389885999978,"velocity":0.8818897637795275,"duration":0.13773159166657933},{"name":"B4","midi":71,"time":1246.667663999978,"velocity":0.8818897637795275,"duration":0.13773159166657933},{"name":"B5","midi":83,"time":1246.667663999978,"velocity":0.8818897637795275,"duration":0.13773159166657933},{"name":"C#5","midi":73,"time":1246.945441999978,"velocity":0.8818897637795275,"duration":0.5266207916665735},{"name":"C#6","midi":85,"time":1246.945441999978,"velocity":0.8818897637795275,"duration":0.5266207916665735},{"name":"D5","midi":74,"time":1247.5009979999777,"velocity":0.8818897637795275,"duration":0.13773159166657933},{"name":"D6","midi":86,"time":1247.5009979999777,"velocity":0.8818897637795275,"duration":0.13773159166657933},{"name":"E5","midi":76,"time":1247.7787759999776,"velocity":0.8818897637795275,"duration":0.13773159166657933},{"name":"E6","midi":88,"time":1247.7787759999776,"velocity":0.8818897637795275,"duration":0.13773159166657933},{"name":"C#5","midi":73,"time":1248.0565539999775,"velocity":0.8818897637795275,"duration":0.13773159166657933},{"name":"C#6","midi":85,"time":1248.0565539999775,"velocity":0.8818897637795275,"duration":0.13773159166657933},{"name":"B4","midi":71,"time":1248.3343319999774,"velocity":0.8818897637795275,"duration":0.13773159166657933},{"name":"B5","midi":83,"time":1248.3343319999774,"velocity":0.8818897637795275,"duration":0.13773159166657933},{"name":"A4","midi":69,"time":1248.6121099999773,"velocity":0.8818897637795275,"duration":0.2627316916664313},{"name":"A5","midi":81,"time":1248.6121099999773,"velocity":0.8818897637795275,"duration":0.2627316916664313},{"name":"G#4","midi":68,"time":1248.889887999977,"velocity":0.8818897637795275,"duration":0.26273169166665866},{"name":"G#5","midi":80,"time":1248.889887999977,"velocity":0.8818897637795275,"duration":0.26273169166665866},{"name":"A4","midi":69,"time":1249.1676659999769,"velocity":0.8818897637795275,"duration":0.5266207916665735},{"name":"A5","midi":81,"time":1249.1676659999769,"velocity":0.8818897637795275,"duration":0.5266207916665735},{"name":"G#4","midi":68,"time":1249.7232219999767,"velocity":0.8818897637795275,"duration":0.2766205916666422},{"name":"G#5","midi":80,"time":1249.7232219999767,"velocity":0.8818897637795275,"duration":0.2766205916666422},{"name":"F#4","midi":66,"time":1250.0009999999766,"velocity":0.8818897637795275,"duration":0.13773159166657933},{"name":"F#5","midi":78,"time":1250.0009999999766,"velocity":0.8818897637795275,"duration":0.13773159166657933},{"name":"C#4","midi":61,"time":1250.2787779999765,"velocity":0.8818897637795275,"duration":0.2766205916666422},{"name":"C#5","midi":73,"time":1250.2787779999765,"velocity":0.8818897637795275,"duration":0.2766205916666422},{"name":"F#4","midi":66,"time":1250.5565559999764,"velocity":0.8818897637795275,"duration":0.13773159166657933},{"name":"F#5","midi":78,"time":1250.5565559999764,"velocity":0.8818897637795275,"duration":0.13773159166657933},{"name":"G#4","midi":68,"time":1250.8343339999763,"velocity":0.8818897637795275,"duration":0.27662059166641484},{"name":"G#5","midi":80,"time":1250.8343339999763,"velocity":0.8818897637795275,"duration":0.27662059166641484},{"name":"F#4","midi":66,"time":1251.112111999976,"velocity":0.8818897637795275,"duration":0.13773159166657933},{"name":"F#5","midi":78,"time":1251.112111999976,"velocity":0.8818897637795275,"duration":0.13773159166657933},{"name":"A4","midi":69,"time":1251.3898899999758,"velocity":0.8818897637795275,"duration":0.5266207916665735},{"name":"A5","midi":81,"time":1251.3898899999758,"velocity":0.8818897637795275,"duration":0.5266207916665735},{"name":"F#4","midi":66,"time":1251.9454459999756,"velocity":0.8818897637795275,"duration":0.2766205916666422},{"name":"F#5","midi":78,"time":1251.9454459999756,"velocity":0.8818897637795275,"duration":0.2766205916666422},{"name":"F#3","midi":54,"time":1253.3343359999756,"velocity":0.8818897637795275,"duration":0.26273169166665866},{"name":"F#4","midi":66,"time":1253.3343359999756,"velocity":0.8818897637795275,"duration":0.26273169166665866},{"name":"A3","midi":57,"time":1253.6121139999755,"velocity":0.8818897637795275,"duration":0.26273169166665866},{"name":"A4","midi":69,"time":1253.6121139999755,"velocity":0.8818897637795275,"duration":0.26273169166665866},{"name":"B3","midi":59,"time":1253.8898919999754,"velocity":0.8818897637795275,"duration":0.26273169166665866},{"name":"B4","midi":71,"time":1253.8898919999754,"velocity":0.8818897637795275,"duration":0.26273169166665866},{"name":"C#4","midi":61,"time":1254.1676699999753,"velocity":0.8818897637795275,"duration":0.5266207916665735},{"name":"C#5","midi":73,"time":1254.1676699999753,"velocity":0.8818897637795275,"duration":0.5266207916665735},{"name":"D#4","midi":63,"time":1254.723225999975,"velocity":0.8818897637795275,"duration":0.0648148666666657},{"name":"D#5","midi":75,"time":1254.723225999975,"velocity":0.8818897637795275,"duration":0.0648148666666657},{"name":"E4","midi":64,"time":1254.792670499975,"velocity":0.8818897637795275,"duration":0.09722230000011223},{"name":"E5","midi":76,"time":1254.792670499975,"velocity":0.8818897637795275,"duration":0.09722230000011223},{"name":"D#4","midi":63,"time":1254.896837249975,"velocity":0.8818897637795275,"duration":0.36111140000002706},{"name":"D#5","midi":75,"time":1254.896837249975,"velocity":0.8818897637795275,"duration":0.36111140000002706},{"name":"C#4","midi":61,"time":1255.278781999975,"velocity":0.8818897637795275,"duration":0.06481486666643832},{"name":"C#5","midi":73,"time":1255.278781999975,"velocity":0.8818897637795275,"duration":0.06481486666643832},{"name":"D#4","midi":63,"time":1255.3482264999748,"velocity":0.8818897637795275,"duration":0.09722230000011223},{"name":"D#5","midi":75,"time":1255.3482264999748,"velocity":0.8818897637795275,"duration":0.09722230000011223},{"name":"C#4","midi":61,"time":1255.4523932499749,"velocity":0.8818897637795275,"duration":0.36111140000002706},{"name":"C#5","midi":73,"time":1255.4523932499749,"velocity":0.8818897637795275,"duration":0.09722230000011223},{"name":"C#5","midi":73,"time":1255.556559999975,"velocity":0.8818897637795275,"duration":0.26273169166665866},{"name":"B3","midi":59,"time":1255.8343379999749,"velocity":0.8818897637795275,"duration":0.26273169166665866},{"name":"B4","midi":71,"time":1255.8343379999749,"velocity":0.8818897637795275,"duration":0.26273169166665866},{"name":"A3","midi":57,"time":1256.1121159999748,"velocity":0.8818897637795275,"duration":0.26273169166665866},{"name":"A4","midi":69,"time":1256.1121159999748,"velocity":0.8818897637795275,"duration":0.26273169166665866},{"name":"A3","midi":57,"time":1256.3898939999747,"velocity":0.8818897637795275,"duration":0.0648148666666657},{"name":"A4","midi":69,"time":1256.3898939999747,"velocity":0.8818897637795275,"duration":0.0648148666666657},{"name":"B3","midi":59,"time":1256.4593384999746,"velocity":0.8818897637795275,"duration":0.09722230000011223},{"name":"B4","midi":71,"time":1256.4593384999746,"velocity":0.8818897637795275,"duration":0.09722230000011223},{"name":"A3","midi":57,"time":1256.5635052499747,"velocity":0.8818897637795275,"duration":0.36111140000002706},{"name":"A4","midi":69,"time":1256.5635052499747,"velocity":0.8818897637795275,"duration":0.36111140000002706},{"name":"G#3","midi":56,"time":1256.9454499999747,"velocity":0.8818897637795275,"duration":0.26273169166665866},{"name":"G#4","midi":68,"time":1256.9454499999747,"velocity":0.8818897637795275,"duration":0.26273169166665866},{"name":"G3","midi":55,"time":1257.2232279999746,"velocity":0.8818897637795275,"duration":0.26273169166665866},{"name":"G4","midi":67,"time":1257.2232279999746,"velocity":0.8818897637795275,"duration":0.26273169166665866},{"name":"G#3","midi":56,"time":1257.5010059999745,"velocity":0.8818897637795275,"duration":1.0543989916664032},{"name":"G#4","midi":68,"time":1257.5010059999745,"velocity":0.8818897637795275,"duration":1.0543989916664032},{"name":"G#3","midi":56,"time":1258.6121179999743,"velocity":0.8818897637795275,"duration":0.26273169166665866},{"name":"G#4","midi":68,"time":1258.6121179999743,"velocity":0.8818897637795275,"duration":0.26273169166665866},{"name":"A3","midi":57,"time":1258.8898959999742,"velocity":0.8818897637795275,"duration":0.26273169166665866},{"name":"A4","midi":69,"time":1258.8898959999742,"velocity":0.8818897637795275,"duration":0.26273169166665866},{"name":"F#3","midi":54,"time":1259.167673999974,"velocity":0.8818897637795275,"duration":0.2766205916666422},{"name":"F#4","midi":66,"time":1259.167673999974,"velocity":0.8818897637795275,"duration":0.2766205916666422},{"name":"C#4","midi":61,"time":1259.445451999974,"velocity":0.8818897637795275,"duration":0.13773159166657933},{"name":"C#5","midi":73,"time":1259.445451999974,"velocity":0.8818897637795275,"duration":0.13773159166657933},{"name":"B3","midi":59,"time":1259.723229999974,"velocity":0.8818897637795275,"duration":0.5266207916665735},{"name":"B4","midi":71,"time":1259.723229999974,"velocity":0.8818897637795275,"duration":0.5266207916665735},{"name":"D4","midi":62,"time":1260.2787859999737,"velocity":0.8818897637795275,"duration":0.26273169166665866},{"name":"D5","midi":74,"time":1260.2787859999737,"velocity":0.8818897637795275,"duration":0.26273169166665866},{"name":"C#4","midi":61,"time":1260.5565639999736,"velocity":0.8818897637795275,"duration":0.26273169166665866},{"name":"C#5","midi":73,"time":1260.5565639999736,"velocity":0.8818897637795275,"duration":0.26273169166665866},{"name":"F4","midi":65,"time":1261.1121199999736,"velocity":0.8818897637795275,"duration":0.26273169166665866},{"name":"F5","midi":77,"time":1261.1121199999736,"velocity":0.8818897637795275,"duration":0.26273169166665866},{"name":"F#4","midi":66,"time":1261.3898979999735,"velocity":0.8818897637795275,"duration":0.5266207916665735},{"name":"F#5","midi":78,"time":1261.3898979999735,"velocity":0.8818897637795275,"duration":0.5266207916665735},{"name":"F#3","midi":54,"time":1262.2232319999735,"velocity":0.8818897637795275,"duration":0.13773159166657933},{"name":"F#4","midi":66,"time":1262.2232319999735,"velocity":0.8818897637795275,"duration":0.13773159166657933},{"name":"C#3","midi":49,"time":1262.5010099999733,"velocity":0.8818897637795275,"duration":0.13773159166657933},{"name":"C#4","midi":61,"time":1262.5010099999733,"velocity":0.8818897637795275,"duration":0.13773159166657933},{"name":"F#3","midi":54,"time":1262.7787879999732,"velocity":0.8818897637795275,"duration":0.13773159166657933},{"name":"F#4","midi":66,"time":1262.7787879999732,"velocity":0.8818897637795275,"duration":0.13773159166657933},{"name":"A3","midi":57,"time":1263.0565659999731,"velocity":0.8818897637795275,"duration":0.5266207916665735},{"name":"A4","midi":69,"time":1263.0565659999731,"velocity":0.8818897637795275,"duration":0.5266207916665735},{"name":"B3","midi":59,"time":1263.612121999973,"velocity":0.8818897637795275,"duration":0.26273169166665866},{"name":"B4","midi":71,"time":1263.612121999973,"velocity":0.8818897637795275,"duration":0.26273169166665866},{"name":"A3","midi":57,"time":1263.8898999999728,"velocity":0.8818897637795275,"duration":0.26273169166665866},{"name":"A4","midi":69,"time":1263.8898999999728,"velocity":0.8818897637795275,"duration":0.26273169166665866},{"name":"G#3","midi":56,"time":1264.1676779999727,"velocity":0.8818897637795275,"duration":0.5266207916665735},{"name":"G#4","midi":68,"time":1264.1676779999727,"velocity":0.8818897637795275,"duration":0.5266207916665735},{"name":"D4","midi":62,"time":1264.7232339999725,"velocity":0.8818897637795275,"duration":0.26273169166665866},{"name":"D5","midi":74,"time":1264.7232339999725,"velocity":0.8818897637795275,"duration":0.26273169166665866},{"name":"C#4","midi":61,"time":1265.0010119999724,"velocity":0.8818897637795275,"duration":0.26273169166665866},{"name":"C#5","midi":73,"time":1265.0010119999724,"velocity":0.8818897637795275,"duration":0.26273169166665866},{"name":"A4","midi":69,"time":1265.2787899999723,"velocity":0.8818897637795275,"duration":0.5266207916665735},{"name":"A5","midi":81,"time":1265.2787899999723,"velocity":0.8818897637795275,"duration":0.5266207916665735},{"name":"G#4","midi":68,"time":1265.8343459999721,"velocity":0.8818897637795275,"duration":1.0543989916666305},{"name":"G#5","midi":80,"time":1265.8343459999721,"velocity":0.8818897637795275,"duration":1.0543989916666305},{"name":"E5","midi":76,"time":1266.9454579999722,"velocity":0.8818897637795275,"duration":0.0648148666666657},{"name":"E6","midi":88,"time":1266.9454579999722,"velocity":0.8818897637795275,"duration":0.0648148666666657},{"name":"D5","midi":74,"time":1267.014902499972,"velocity":0.8818897637795275,"duration":0.0648148666666657},{"name":"D6","midi":86,"time":1267.014902499972,"velocity":0.8818897637795275,"duration":0.0648148666666657},{"name":"C#5","midi":73,"time":1267.084346999972,"velocity":0.8818897637795275,"duration":0.0648148666666657},{"name":"C#6","midi":85,"time":1267.084346999972,"velocity":0.8818897637795275,"duration":0.0648148666666657},{"name":"B4","midi":71,"time":1267.153791499972,"velocity":0.8818897637795275,"duration":0.0648148666666657},{"name":"B5","midi":83,"time":1267.153791499972,"velocity":0.8818897637795275,"duration":0.0648148666666657},{"name":"A4","midi":69,"time":1267.2232359999718,"velocity":0.8818897637795275,"duration":0.0648148666666657},{"name":"A5","midi":81,"time":1267.2232359999718,"velocity":0.8818897637795275,"duration":0.0648148666666657},{"name":"G#4","midi":68,"time":1267.2926804999718,"velocity":0.8818897637795275,"duration":0.0648148666666657},{"name":"G#5","midi":80,"time":1267.2926804999718,"velocity":0.8818897637795275,"duration":0.0648148666666657},{"name":"F#4","midi":66,"time":1267.3621249999717,"velocity":0.8818897637795275,"duration":0.0648148666666657},{"name":"F#5","midi":78,"time":1267.3621249999717,"velocity":0.8818897637795275,"duration":0.0648148666666657},{"name":"E4","midi":64,"time":1267.4315694999716,"velocity":0.8818897637795275,"duration":0.0648148666666657},{"name":"E5","midi":76,"time":1267.4315694999716,"velocity":0.8818897637795275,"duration":0.0648148666666657},{"name":"F#4","midi":66,"time":1267.5010139999715,"velocity":0.8818897637795275,"duration":0.26273169166665866},{"name":"F#5","midi":78,"time":1267.5010139999715,"velocity":0.8818897637795275,"duration":0.26273169166665866},{"name":"G#4","midi":68,"time":1267.7787919999714,"velocity":0.8818897637795275,"duration":0.26273169166665866},{"name":"G#5","midi":80,"time":1267.7787919999714,"velocity":0.8818897637795275,"duration":0.26273169166665866},{"name":"E4","midi":64,"time":1268.0565699999713,"velocity":0.8818897637795275,"duration":0.26273169166665866},{"name":"E5","midi":76,"time":1268.0565699999713,"velocity":0.8818897637795275,"duration":0.26273169166665866},{"name":"D4","midi":62,"time":1268.3343479999712,"velocity":0.8818897637795275,"duration":0.26273169166665866},{"name":"D5","midi":74,"time":1268.3343479999712,"velocity":0.8818897637795275,"duration":0.26273169166665866},{"name":"C#4","midi":61,"time":1268.612125999971,"velocity":0.8818897637795275,"duration":1.0543989916664032},{"name":"C#5","midi":73,"time":1268.612125999971,"velocity":0.8818897637795275,"duration":1.0543989916664032},{"name":"F#3","midi":54,"time":1269.723237999971,"velocity":0.8818897637795275,"duration":1.0543989916666305},{"name":"F#4","midi":66,"time":1269.723237999971,"velocity":0.8818897637795275,"duration":1.0543989916666305},{"name":"C#5","midi":73,"time":1270.834349999971,"velocity":0.8818897637795275,"duration":0.5266207916665735},{"name":"F#5","midi":78,"time":1270.834349999971,"velocity":0.8818897637795275,"duration":0.5266207916665735},{"name":"C#5","midi":73,"time":1271.3899059999708,"velocity":0.8818897637795275,"duration":0.5266207916665735},{"name":"F#5","midi":78,"time":1271.3899059999708,"velocity":0.8818897637795275,"duration":0.5266207916665735},{"name":"C#5","midi":73,"time":1271.9454619999706,"velocity":0.8818897637795275,"duration":0.26273169166665866},{"name":"F#5","midi":78,"time":1271.9454619999706,"velocity":0.8818897637795275,"duration":0.26273169166665866},{"name":"C#5","midi":73,"time":1272.2232399999705,"velocity":0.8818897637795275,"duration":0.26273169166665866},{"name":"F#5","midi":78,"time":1272.2232399999705,"velocity":0.8818897637795275,"duration":0.26273169166665866},{"name":"C#5","midi":73,"time":1272.5010179999704,"velocity":0.8818897637795275,"duration":0.5266207916665735},{"name":"F#5","midi":78,"time":1272.5010179999704,"velocity":0.8818897637795275,"duration":0.5266207916665735},{"name":"A4","midi":69,"time":1273.0565739999702,"velocity":0.8818897637795275,"duration":0.5266207916665735},{"name":"D5","midi":74,"time":1273.0565739999702,"velocity":0.8818897637795275,"duration":0.5266207916665735},{"name":"A4","midi":69,"time":1273.61212999997,"velocity":0.8818897637795275,"duration":0.5266207916665735},{"name":"D5","midi":74,"time":1273.61212999997,"velocity":0.8818897637795275,"duration":0.5266207916665735},{"name":"A4","midi":69,"time":1274.1676859999698,"velocity":0.8818897637795275,"duration":0.26273169166665866},{"name":"D5","midi":74,"time":1274.1676859999698,"velocity":0.8818897637795275,"duration":0.26273169166665866},{"name":"A4","midi":69,"time":1274.4454639999697,"velocity":0.8818897637795275,"duration":0.26273169166665866},{"name":"D5","midi":74,"time":1274.4454639999697,"velocity":0.8818897637795275,"duration":0.26273169166665866},{"name":"A4","midi":69,"time":1274.7232419999696,"velocity":0.8818897637795275,"duration":0.5266207916665735},{"name":"D5","midi":74,"time":1274.7232419999696,"velocity":0.8818897637795275,"duration":0.5266207916665735},{"name":"G#4","midi":68,"time":1275.2787979999694,"velocity":0.8818897637795275,"duration":0.5266207916665735},{"name":"C#5","midi":73,"time":1275.2787979999694,"velocity":0.8818897637795275,"duration":0.5266207916665735},{"name":"G#4","midi":68,"time":1275.8343539999692,"velocity":0.8818897637795275,"duration":0.5266207916665735},{"name":"C#5","midi":73,"time":1275.8343539999692,"velocity":0.8818897637795275,"duration":0.5266207916665735},{"name":"G#4","midi":68,"time":1276.389909999969,"velocity":0.8818897637795275,"duration":0.26273169166665866},{"name":"C#5","midi":73,"time":1276.389909999969,"velocity":0.8818897637795275,"duration":0.26273169166665866},{"name":"G#4","midi":68,"time":1276.6676879999688,"velocity":0.8818897637795275,"duration":0.26273169166665866},{"name":"C#5","midi":73,"time":1276.6676879999688,"velocity":0.8818897637795275,"duration":0.26273169166665866},{"name":"B4","midi":71,"time":1276.9454659999687,"velocity":0.8818897637795275,"duration":0.5266207916665735},{"name":"E5","midi":76,"time":1276.9454659999687,"velocity":0.8818897637795275,"duration":0.5266207916665735},{"name":"B4","midi":71,"time":1277.5010219999685,"velocity":0.8818897637795275,"duration":0.5266207916665735},{"name":"B4","midi":71,"time":1278.0565779999683,"velocity":0.8818897637795275,"duration":0.5266207916665735},{"name":"D5","midi":74,"time":1278.6121339999681,"velocity":0.8818897637795275,"duration":0.26273169166665866},{"name":"D5","midi":74,"time":1278.889911999968,"velocity":0.8818897637795275,"duration":0.26273169166665866},{"name":"C#5","midi":73,"time":1279.167689999968,"velocity":0.8818897637795275,"duration":0.5266207916665735},{"name":"F#5","midi":78,"time":1279.7232459999677,"velocity":0.8818897637795275,"duration":0.2627316916664313},{"name":"F#5","midi":78,"time":1280.0010239999674,"velocity":0.8818897637795275,"duration":0.26273169166665866},{"name":"F#5","midi":78,"time":1280.2788019999673,"velocity":0.8818897637795275,"duration":0.26273169166665866},{"name":"F#5","midi":78,"time":1280.5565799999672,"velocity":0.8818897637795275,"duration":0.26273169166665866},{"name":"F#5","midi":78,"time":1280.834357999967,"velocity":0.8818897637795275,"duration":0.26273169166665866},{"name":"F#5","midi":78,"time":1281.112135999967,"velocity":0.8818897637795275,"duration":0.26273169166665866},{"name":"A5","midi":81,"time":1281.389913999967,"velocity":0.8818897637795275,"duration":0.13078714166658756},{"name":"A5","midi":81,"time":1281.5288029999667,"velocity":0.8818897637795275,"duration":0.13078714166658756},{"name":"G#5","midi":80,"time":1281.6676919999666,"velocity":0.8818897637795275,"duration":0.26273169166665866},{"name":"E5","midi":76,"time":1281.9454699999665,"velocity":0.8818897637795275,"duration":0.2627316916664313},{"name":"E5","midi":76,"time":1282.2232479999661,"velocity":0.8818897637795275,"duration":0.26273169166665866},{"name":"E5","midi":76,"time":1282.501025999966,"velocity":0.8818897637795275,"duration":0.26273169166665866},{"name":"E5","midi":76,"time":1282.778803999966,"velocity":0.8818897637795275,"duration":0.26273169166665866},{"name":"E5","midi":76,"time":1283.0565819999658,"velocity":0.8818897637795275,"duration":0.26273169166665866},{"name":"E5","midi":76,"time":1283.3343599999657,"velocity":0.8818897637795275,"duration":0.26273169166665866},{"name":"G#5","midi":80,"time":1283.6121379999656,"velocity":0.8818897637795275,"duration":0.13078714166658756},{"name":"G#5","midi":80,"time":1283.7510269999655,"velocity":0.8818897637795275,"duration":0.13078714166658756},{"name":"A5","midi":81,"time":1283.8899159999653,"velocity":0.8818897637795275,"duration":0.26273169166665866},{"name":"D5","midi":74,"time":1284.1676939999652,"velocity":0.8818897637795275,"duration":0.5266207916665735},{"name":"E5","midi":76,"time":1284.723249999965,"velocity":0.8818897637795275,"duration":0.5266207916665735},{"name":"C#5","midi":73,"time":1285.2788059999648,"velocity":0.8818897637795275,"duration":0.5266207916665735},{"name":"F#5","midi":78,"time":1285.8343619999646,"velocity":0.8818897637795275,"duration":0.26273169166665866},{"name":"G#5","midi":80,"time":1286.1121399999645,"velocity":0.8818897637795275,"duration":0.26273169166665866},{"name":"A5","midi":81,"time":1286.3899179999644,"velocity":0.8818897637795275,"duration":2.1099553916665172}],"controlChanges":{"7":[{"number":7,"time":0,"value":1}],"10":[{"number":10,"time":0,"value":0.5039370078740157}],"64":[{"number":64,"time":231.1136108166665,"value":1},{"number":64,"time":232.77912140833308,"value":0},{"number":64,"time":232.78027881666642,"value":1},{"number":64,"time":234.445789408333,"value":0},{"number":64,"time":234.44694681666635,"value":1},{"number":64,"time":236.11245740833294,"value":0},{"number":64,"time":236.11361481666628,"value":1},{"number":64,"time":237.779125408333,"value":0},{"number":64,"time":237.78028281666633,"value":1},{"number":64,"time":239.445793408333,"value":0},{"number":64,"time":239.44695081666634,"value":1},{"number":64,"time":241.11246140833293,"value":0},{"number":64,"time":241.11361881666627,"value":1},{"number":64,"time":242.7791294083329,"value":0},{"number":64,"time":242.78028681666623,"value":1},{"number":64,"time":244.44579740833282,"value":0},{"number":64,"time":244.44695481666616,"value":1},{"number":64,"time":246.11246540833275,"value":0},{"number":64,"time":246.1136228166661,"value":1},{"number":64,"time":247.77913340833268,"value":0},{"number":64,"time":247.78029081666602,"value":1},{"number":64,"time":249.4458014083326,"value":0},{"number":64,"time":252.78029481666596,"value":1},{"number":64,"time":254.44580540833255,"value":0},{"number":64,"time":254.4469628166659,"value":1},{"number":64,"time":256.1124734083325,"value":0},{"number":64,"time":256.1136308166658,"value":1},{"number":64,"time":257.7791414083325,"value":0},{"number":64,"time":257.78029881666583,"value":1},{"number":64,"time":259.44580940833254,"value":0},{"number":64,"time":259.44696681666585,"value":1},{"number":64,"time":261.11247740833255,"value":0},{"number":64,"time":261.11363481666586,"value":1},{"number":64,"time":262.77914540833257,"value":0},{"number":64,"time":262.7803028166659,"value":1},{"number":64,"time":264.4458134083325,"value":0},{"number":64,"time":264.44697081666584,"value":1},{"number":64,"time":266.1124814083324,"value":0},{"number":64,"time":266.11363881666574,"value":1},{"number":64,"time":269.4458174083325,"value":0},{"number":64,"time":357.2248228166665,"value":1},{"number":64,"time":359.44588940833324,"value":0},{"number":64,"time":365.2803848166666,"value":1},{"number":64,"time":366.1125614083329,"value":0},{"number":64,"time":381.6692868166665,"value":1},{"number":64,"time":383.8903534083331,"value":0},{"number":64,"time":383.8915108166664,"value":1},{"number":64,"time":386.11257740833315,"value":0},{"number":64,"time":386.11373481666647,"value":1},{"number":64,"time":388.3348014083331,"value":0},{"number":64,"time":388.3359588166664,"value":1},{"number":64,"time":390.55702540833306,"value":0},{"number":64,"time":390.5581828166664,"value":1},{"number":64,"time":392.7792494083329,"value":0},{"number":64,"time":392.7804068166662,"value":1},{"number":64,"time":395.00147340833286,"value":0},{"number":64,"time":395.00263081666617,"value":1},{"number":64,"time":397.2236974083329,"value":0},{"number":64,"time":397.2248548166662,"value":1},{"number":64,"time":399.44592140833294,"value":0},{"number":64,"time":399.44707881666625,"value":1},{"number":64,"time":401.6681454083331,"value":0},{"number":64,"time":404.44708281666647,"value":1},{"number":64,"time":406.1125934083332,"value":0},{"number":64,"time":406.66930681666656,"value":1},{"number":64,"time":408.3348174083333,"value":0},{"number":64,"time":412.78042281666666,"value":1},{"number":64,"time":415.00148940833327,"value":0},{"number":64,"time":415.0026468166666,"value":1},{"number":64,"time":417.22371340833314,"value":0},{"number":64,"time":417.22487081666645,"value":1},{"number":64,"time":419.44593740833307,"value":0},{"number":64,"time":419.4470948166664,"value":1},{"number":64,"time":421.668161408333,"value":0},{"number":64,"time":421.6693188166663,"value":1},{"number":64,"time":423.89038540833286,"value":0},{"number":64,"time":423.8915428166662,"value":1},{"number":64,"time":426.1126094083328,"value":0},{"number":64,"time":426.1137668166661,"value":1},{"number":64,"time":428.33483340833254,"value":0},{"number":64,"time":428.33599081666586,"value":1},{"number":64,"time":430.55705740833247,"value":0},{"number":64,"time":448.3360068166658,"value":1},{"number":64,"time":450.55707340833254,"value":0},{"number":64,"time":450.55823081666585,"value":1},{"number":64,"time":452.7792974083326,"value":0},{"number":64,"time":452.7804548166659,"value":1},{"number":64,"time":455.0015214083326,"value":0},{"number":64,"time":455.0015214083326,"value":0},{"number":64,"time":457.224902816666,"value":1},{"number":64,"time":459.4459694083327,"value":0},{"number":64,"time":459.447126816666,"value":1},{"number":64,"time":461.66819340833274,"value":0},{"number":64,"time":461.66935081666605,"value":1},{"number":64,"time":463.89041740833284,"value":0},{"number":64,"time":463.89157481666615,"value":1},{"number":64,"time":466.1126414083329,"value":0},{"number":64,"time":467.5026888166663,"value":1},{"number":64,"time":468.334865408333,"value":0},{"number":64,"time":469.7249128166664,"value":1},{"number":64,"time":470.55708940833307,"value":0},{"number":64,"time":470.55708940833307,"value":0},{"number":64,"time":471.9471368166665,"value":1},{"number":64,"time":472.77931340833317,"value":0},{"number":64,"time":474.1693608166666,"value":1},{"number":64,"time":475.00153740833326,"value":0},{"number":64,"time":528.3360708166667,"value":1},{"number":64,"time":530.5571374083336,"value":0},{"number":64,"time":530.558294816667,"value":1},{"number":64,"time":532.7793614083338,"value":0},{"number":64,"time":532.7805188166672,"value":1},{"number":64,"time":535.001585408334,"value":0},{"number":64,"time":535.0027428166674,"value":1},{"number":64,"time":537.2238094083342,"value":0},{"number":64,"time":537.2249668166676,"value":1},{"number":64,"time":539.4460334083344,"value":0},{"number":64,"time":539.4471908166678,"value":1},{"number":64,"time":541.6682574083346,"value":0},{"number":64,"time":541.6682574083346,"value":0},{"number":64,"time":541.669414816668,"value":1},{"number":64,"time":543.8904814083348,"value":0},{"number":64,"time":543.8904814083348,"value":0},{"number":64,"time":543.8916388166682,"value":1},{"number":64,"time":546.112705408335,"value":0},{"number":64,"time":546.1138628166684,"value":1},{"number":64,"time":548.3349294083353,"value":0},{"number":64,"time":548.3360868166686,"value":1},{"number":64,"time":550.5571534083355,"value":0},{"number":64,"time":550.5571534083355,"value":0},{"number":64,"time":550.5583108166688,"value":1},{"number":64,"time":552.7793774083357,"value":0},{"number":64,"time":552.780534816669,"value":1},{"number":64,"time":555.0016014083359,"value":0},{"number":64,"time":555.0027588166693,"value":1},{"number":64,"time":557.2238254083361,"value":0},{"number":64,"time":557.2249828166695,"value":1},{"number":64,"time":559.4460494083363,"value":0},{"number":64,"time":559.4460494083363,"value":0},{"number":64,"time":559.4472068166697,"value":1},{"number":64,"time":561.6682734083365,"value":0},{"number":64,"time":561.6694308166699,"value":1},{"number":64,"time":563.8904974083367,"value":0},{"number":64,"time":563.8916548166701,"value":1},{"number":64,"time":566.1127214083369,"value":0},{"number":64,"time":566.1138788166703,"value":1},{"number":64,"time":568.3349454083371,"value":0},{"number":64,"time":568.3361028166705,"value":1},{"number":64,"time":570.5571694083374,"value":0},{"number":64,"time":570.5583268166707,"value":1},{"number":64,"time":572.7793934083376,"value":0},{"number":64,"time":572.7805508166709,"value":1},{"number":64,"time":575.0016174083378,"value":0},{"number":64,"time":575.0027748166711,"value":1},{"number":64,"time":577.223841408338,"value":0},{"number":64,"time":577.2249988166714,"value":1},{"number":64,"time":579.4460654083382,"value":0},{"number":64,"time":579.4472228166716,"value":1},{"number":64,"time":581.6682894083384,"value":0},{"number":64,"time":581.6694468166718,"value":1},{"number":64,"time":583.8905134083386,"value":0},{"number":64,"time":583.891670816672,"value":1},{"number":64,"time":586.1127374083388,"value":0},{"number":64,"time":586.1138948166722,"value":1},{"number":64,"time":588.334961408339,"value":0},{"number":64,"time":588.3361188166724,"value":1},{"number":64,"time":590.5571854083393,"value":0},{"number":64,"time":590.5583428166726,"value":1},{"number":64,"time":592.7794094083395,"value":0},{"number":64,"time":592.7805668166728,"value":1},{"number":64,"time":595.0016334083397,"value":0},{"number":64,"time":595.002790816673,"value":1},{"number":64,"time":597.2238574083399,"value":0},{"number":64,"time":597.2250148166733,"value":1},{"number":64,"time":599.4460814083401,"value":0},{"number":64,"time":599.4472388166735,"value":1},{"number":64,"time":601.6683054083403,"value":0},{"number":64,"time":601.6694628166737,"value":1},{"number":64,"time":603.8905294083405,"value":0},{"number":64,"time":971.1142028166792,"value":1},{"number":64,"time":973.057491408346,"value":0},{"number":64,"time":975.5586508166792,"value":1},{"number":64,"time":977.5019394083461,"value":0},{"number":64,"time":977.7808748166793,"value":1},{"number":64,"time":979.7241634083462,"value":0},{"number":64,"time":980.0030988166794,"value":1},{"number":64,"time":981.9463874083463,"value":0},{"number":64,"time":982.2253228166795,"value":1},{"number":64,"time":984.1686114083464,"value":0},{"number":64,"time":984.4475468166796,"value":1},{"number":64,"time":986.3908354083464,"value":0},{"number":64,"time":988.0586608166798,"value":1},{"number":64,"time":988.6130594083465,"value":0},{"number":64,"time":988.8919948166798,"value":1},{"number":64,"time":990.8352834083466,"value":0},{"number":64,"time":993.3364428166799,"value":1},{"number":64,"time":995.2797314083467,"value":0},{"number":64,"time":997.78089081668,"value":1},{"number":64,"time":999.7241794083468,"value":0},{"number":64,"time":1002.22533881668,"value":1},{"number":64,"time":1004.1686274083469,"value":0},{"number":64,"time":1006.6697868166801,"value":1},{"number":64,"time":1008.613075408347,"value":0},{"number":64,"time":1011.1142348166802,"value":1},{"number":64,"time":1013.057523408347,"value":0},{"number":64,"time":1013.3364588166803,"value":1},{"number":64,"time":1015.2797474083471,"value":0},{"number":64,"time":1015.5586828166804,"value":1},{"number":64,"time":1017.5019714083472,"value":0},{"number":64,"time":1017.7809068166805,"value":1},{"number":64,"time":1019.7241954083473,"value":0},{"number":64,"time":1020.0031308166806,"value":1},{"number":64,"time":1021.9464194083474,"value":0},{"number":64,"time":1023.6142448166808,"value":1},{"number":64,"time":1024.1686434083476,"value":0},{"number":64,"time":1024.447578816681,"value":1},{"number":64,"time":1026.390867408347,"value":0},{"number":64,"time":1028.8920268166805,"value":1},{"number":64,"time":1030.8353154083466,"value":0},{"number":64,"time":1033.33647481668,"value":1},{"number":64,"time":1035.279763408346,"value":0},{"number":64,"time":1037.7809228166795,"value":1},{"number":64,"time":1039.7242114083456,"value":0},{"number":64,"time":1042.225370816679,"value":1},{"number":64,"time":1044.168659408345,"value":0},{"number":64,"time":1046.6698188166786,"value":1},{"number":64,"time":1048.6131074083446,"value":0},{"number":64,"time":1048.892042816678,"value":1},{"number":64,"time":1050.835331408344,"value":0},{"number":64,"time":1051.1142668166774,"value":1},{"number":64,"time":1053.0575554083434,"value":0},{"number":64,"time":1053.3364908166768,"value":1},{"number":64,"time":1055.2797794083428,"value":0},{"number":64,"time":1055.5587148166762,"value":1},{"number":64,"time":1057.5020034083423,"value":0},{"number":64,"time":1060.0031628166757,"value":1},{"number":64,"time":1061.9464514083418,"value":0},{"number":64,"time":1064.4476108166753,"value":1},{"number":64,"time":1066.3908994083413,"value":0},{"number":64,"time":1068.8920588166748,"value":1},{"number":64,"time":1070.8353474083408,"value":0},{"number":64,"time":1070.8353474083408,"value":0},{"number":64,"time":1073.3365068166743,"value":1},{"number":64,"time":1075.2797954083403,"value":0},{"number":64,"time":1093.0575874083404,"value":0},{"number":64,"time":1181.9477048166623,"value":1},{"number":64,"time":1184.168771408328,"value":0},{"number":64,"time":1184.1699288166612,"value":1},{"number":64,"time":1186.3909954083272,"value":0},{"number":64,"time":1186.3921528166604,"value":1},{"number":64,"time":1188.6132194083264,"value":0},{"number":64,"time":1188.6143768166596,"value":1},{"number":64,"time":1190.8354434083258,"value":0},{"number":64,"time":1190.836600816659,"value":1},{"number":64,"time":1193.0576674083252,"value":0},{"number":64,"time":1193.0588248166584,"value":1},{"number":64,"time":1195.2798914083246,"value":0},{"number":64,"time":1195.2810488166579,"value":1},{"number":64,"time":1197.5021154083238,"value":0},{"number":64,"time":1197.503272816657,"value":1},{"number":64,"time":1199.7243394083237,"value":0},{"number":64,"time":1199.725496816657,"value":1},{"number":64,"time":1201.9465634083233,"value":0},{"number":64,"time":1201.9477208166566,"value":1},{"number":64,"time":1204.1687874083232,"value":0},{"number":64,"time":1204.1699448166564,"value":1},{"number":64,"time":1206.3910114083226,"value":0},{"number":64,"time":1206.3921688166558,"value":1},{"number":64,"time":1208.6132354083218,"value":0},{"number":64,"time":1208.614392816655,"value":1},{"number":64,"time":1210.8354594083212,"value":0},{"number":64,"time":1210.8366168166544,"value":1},{"number":64,"time":1213.0576834083204,"value":0},{"number":64,"time":1213.0588408166536,"value":1},{"number":64,"time":1215.2799074083202,"value":0},{"number":64,"time":1215.2810648166535,"value":1},{"number":64,"time":1217.5021314083187,"value":0},{"number":64,"time":1217.503288816652,"value":1},{"number":64,"time":1219.7243554083184,"value":0},{"number":64,"time":1219.7255128166516,"value":1},{"number":64,"time":1221.9465794083183,"value":0},{"number":64,"time":1221.9477368166515,"value":1},{"number":64,"time":1224.168803408318,"value":0},{"number":64,"time":1224.1699608166512,"value":1},{"number":64,"time":1226.3910274083178,"value":0},{"number":64,"time":1226.392184816651,"value":1},{"number":64,"time":1228.6132514083174,"value":0},{"number":64,"time":1228.6144088166507,"value":1},{"number":64,"time":1230.8354754083168,"value":0},{"number":64,"time":1230.83663281665,"value":1},{"number":64,"time":1233.0576994083167,"value":0},{"number":64,"time":1233.05885681665,"value":1},{"number":64,"time":1235.2799234083154,"value":0},{"number":64,"time":1235.2810808166487,"value":1},{"number":64,"time":1237.5021474083146,"value":0},{"number":64,"time":1237.5033048166479,"value":1},{"number":64,"time":1239.7243714083136,"value":0},{"number":64,"time":1239.7255288166468,"value":1},{"number":64,"time":1241.9465954083125,"value":0},{"number":64,"time":1241.9477528166458,"value":1},{"number":64,"time":1244.1688194083122,"value":0},{"number":64,"time":1244.1699768166454,"value":1},{"number":64,"time":1246.3910434083114,"value":0},{"number":64,"time":1246.3922008166446,"value":1},{"number":64,"time":1248.6132674083105,"value":0},{"number":64,"time":1248.6144248166438,"value":1},{"number":64,"time":1250.8354914083095,"value":0},{"number":64,"time":1250.8366488166428,"value":1},{"number":64,"time":1253.057715408309,"value":0},{"number":64,"time":1253.0588728166422,"value":1},{"number":64,"time":1255.2799394083083,"value":0},{"number":64,"time":1255.2810968166416,"value":1},{"number":64,"time":1257.5021634083078,"value":0},{"number":64,"time":1257.503320816641,"value":1},{"number":64,"time":1259.7243874083072,"value":0},{"number":64,"time":1259.7255448166404,"value":1},{"number":64,"time":1261.9466114083068,"value":0},{"number":64,"time":1261.94776881664,"value":1},{"number":64,"time":1264.168835408306,"value":0},{"number":64,"time":1264.1699928166393,"value":1},{"number":64,"time":1266.3910594083054,"value":0},{"number":64,"time":1266.3922168166387,"value":1},{"number":64,"time":1268.6132834083044,"value":0},{"number":64,"time":1268.6144408166376,"value":1},{"number":64,"time":1270.8355074083042,"value":0},{"number":64,"time":1270.8366648166375,"value":1},{"number":64,"time":1273.0577314083034,"value":0},{"number":64,"time":1273.0588888166367,"value":1},{"number":64,"time":1275.2799554083026,"value":0},{"number":64,"time":1275.2811128166359,"value":1},{"number":64,"time":1277.5021794083018,"value":0},{"number":64,"time":1277.503336816635,"value":1},{"number":64,"time":1279.724403408301,"value":0},{"number":64,"time":1279.7255608166342,"value":1},{"number":64,"time":1281.9466274082997,"value":0},{"number":64,"time":1281.947784816633,"value":1},{"number":64,"time":1284.1688514082985,"value":0},{"number":64,"time":1284.1700088166317,"value":1},{"number":64,"time":1286.3910754082976,"value":0},{"number":64,"time":1286.392232816631,"value":1},{"number":64,"time":1288.6132994082975,"value":0}],"91":[{"number":91,"time":0,"value":0}],"93":[{"number":93,"time":0,"value":0}],"121":[{"number":121,"time":0,"value":0}]},"id":2,"instrumentNumber":0,"instrument":"acoustic grand piano","instrumentFamily":"piano","channelNumber":1,"isPercussion":false},{"startTime":564.4448960000001,"duration":1270.8193036916093,"length":2239,"notes":[{"name":"C4","midi":60,"time":564.4448960000001,"velocity":0.8818897637795275,"duration":0.26273169166665866},{"name":"C5","midi":72,"time":564.4448960000001,"velocity":0.8818897637795275,"duration":0.26273169166665866},{"name":"G4","midi":67,"time":565.0004520000001,"velocity":0.8818897637795275,"duration":0.26273169166665866},{"name":"G5","midi":79,"time":565.0004520000001,"velocity":0.8818897637795275,"duration":0.26273169166665866},{"name":"C5","midi":72,"time":565.5560080000001,"velocity":0.8818897637795275,"duration":0.26273169166665866},{"name":"C6","midi":84,"time":565.5560080000001,"velocity":0.8818897637795275,"duration":0.26273169166665866},{"name":"D#5","midi":75,"time":566.1115640000002,"velocity":0.8818897637795275,"duration":1.0543989916666305},{"name":"D#6","midi":87,"time":566.1115640000002,"velocity":0.8818897637795275,"duration":1.0543989916666305},{"name":"C5","midi":72,"time":567.2226760000001,"velocity":0.8818897637795275,"duration":1.0543989916666305},{"name":"C6","midi":84,"time":567.2226760000001,"velocity":0.8818897637795275,"duration":1.0543989916666305},{"name":"B4","midi":71,"time":568.333788,"velocity":0.8818897637795275,"duration":0.26273169166665866},{"name":"B5","midi":83,"time":568.333788,"velocity":0.8818897637795275,"duration":0.26273169166665866},{"name":"C5","midi":72,"time":568.889344,"velocity":0.8818897637795275,"duration":0.26273169166665866},{"name":"C6","midi":84,"time":568.889344,"velocity":0.8818897637795275,"duration":0.26273169166665866},{"name":"D5","midi":74,"time":569.4449000000001,"velocity":0.8818897637795275,"duration":1.0543989916666305},{"name":"D6","midi":86,"time":569.4449000000001,"velocity":0.8818897637795275,"duration":1.0543989916666305},{"name":"C5","midi":72,"time":570.556012,"velocity":0.8818897637795275,"duration":0.26273169166665866},{"name":"C6","midi":84,"time":570.556012,"velocity":0.8818897637795275,"duration":0.26273169166665866},{"name":"G4","midi":67,"time":571.111568,"velocity":0.8818897637795275,"duration":0.26273169166665866},{"name":"G5","midi":79,"time":571.111568,"velocity":0.8818897637795275,"duration":0.26273169166665866},{"name":"D#4","midi":63,"time":571.6671240000001,"velocity":0.8818897637795275,"duration":0.26273169166665866},{"name":"D#5","midi":75,"time":571.6671240000001,"velocity":0.8818897637795275,"duration":0.26273169166665866},{"name":"C4","midi":60,"time":572.2226800000001,"velocity":0.8818897637795275,"duration":0.26273169166665866},{"name":"C5","midi":72,"time":572.2226800000001,"velocity":0.8818897637795275,"duration":0.26273169166665866},{"name":"D4","midi":62,"time":572.7782360000001,"velocity":0.8818897637795275,"duration":0.26273169166665866},{"name":"D5","midi":74,"time":572.7782360000001,"velocity":0.8818897637795275,"duration":0.26273169166665866},{"name":"D#4","midi":63,"time":573.3337920000001,"velocity":0.8818897637795275,"duration":0.26273169166665866},{"name":"D#5","midi":75,"time":573.3337920000001,"velocity":0.8818897637795275,"duration":0.26273169166665866},{"name":"F#4","midi":66,"time":573.8893480000002,"velocity":0.8818897637795275,"duration":1.0543989916666305},{"name":"F#5","midi":78,"time":573.8893480000002,"velocity":0.8818897637795275,"duration":1.0543989916666305},{"name":"G4","midi":67,"time":575.0004600000001,"velocity":0.8818897637795275,"duration":0.26273169166665866},{"name":"G5","midi":79,"time":575.0004600000001,"velocity":0.8818897637795275,"duration":0.26273169166665866},{"name":"D#4","midi":63,"time":575.5560160000001,"velocity":0.8818897637795275,"duration":0.26273169166665866},{"name":"D#5","midi":75,"time":575.5560160000001,"velocity":0.8818897637795275,"duration":0.26273169166665866},{"name":"C4","midi":60,"time":576.1115720000001,"velocity":0.8818897637795275,"duration":0.26273169166665866},{"name":"C5","midi":72,"time":576.1115720000001,"velocity":0.8818897637795275,"duration":0.26273169166665866},{"name":"G3","midi":55,"time":576.6671280000002,"velocity":0.8818897637795275,"duration":0.26273169166665866},{"name":"G4","midi":67,"time":576.6671280000002,"velocity":0.8818897637795275,"duration":0.26273169166665866},{"name":"B3","midi":59,"time":577.2226840000002,"velocity":0.8818897637795275,"duration":0.26273169166665866},{"name":"B4","midi":71,"time":577.2226840000002,"velocity":0.8818897637795275,"duration":0.26273169166665866},{"name":"C4","midi":60,"time":577.7782400000002,"velocity":0.8818897637795275,"duration":0.26273169166665866},{"name":"C5","midi":72,"time":577.7782400000002,"velocity":0.8818897637795275,"duration":0.26273169166665866},{"name":"D4","midi":62,"time":578.3337960000002,"velocity":0.8818897637795275,"duration":1.0543989916666305},{"name":"D5","midi":74,"time":578.3337960000002,"velocity":0.8818897637795275,"duration":1.0543989916666305},{"name":"C4","midi":60,"time":579.4449080000002,"velocity":0.8818897637795275,"duration":0.2766205916666422},{"name":"C5","midi":72,"time":579.4449080000002,"velocity":0.8818897637795275,"duration":0.2766205916666422},{"name":"C4","midi":60,"time":582.2226880000002,"velocity":0.8818897637795275,"duration":0.26273169166665866},{"name":"C5","midi":72,"time":582.2226880000002,"velocity":0.8818897637795275,"duration":0.26273169166665866},{"name":"G4","midi":67,"time":582.7782440000002,"velocity":0.8818897637795275,"duration":0.26273169166665866},{"name":"G5","midi":79,"time":582.7782440000002,"velocity":0.8818897637795275,"duration":0.26273169166665866},{"name":"C5","midi":72,"time":583.3338000000002,"velocity":0.8818897637795275,"duration":0.26273169166665866},{"name":"C6","midi":84,"time":583.3338000000002,"velocity":0.8818897637795275,"duration":0.26273169166665866},{"name":"D#5","midi":75,"time":583.8893560000002,"velocity":0.8818897637795275,"duration":1.0543989916666305},{"name":"D#6","midi":87,"time":583.8893560000002,"velocity":0.8818897637795275,"duration":1.0543989916666305},{"name":"A#5","midi":82,"time":585.0004680000002,"velocity":0.8818897637795275,"duration":1.0543989916666305},{"name":"A#6","midi":94,"time":585.0004680000002,"velocity":0.8818897637795275,"duration":1.0543989916666305},{"name":"A5","midi":81,"time":586.1115800000001,"velocity":0.8818897637795275,"duration":0.26273169166665866},{"name":"A6","midi":93,"time":586.1115800000001,"velocity":0.8818897637795275,"duration":0.26273169166665866},{"name":"G5","midi":79,"time":586.6671360000001,"velocity":0.8818897637795275,"duration":0.26273169166665866},{"name":"G6","midi":91,"time":586.6671360000001,"velocity":0.8818897637795275,"duration":0.26273169166665866},{"name":"A5","midi":81,"time":587.2226920000002,"velocity":0.8818897637795275,"duration":1.0543989916666305},{"name":"A6","midi":93,"time":587.2226920000002,"velocity":0.8818897637795275,"duration":1.0543989916666305},{"name":"A#5","midi":82,"time":588.3338040000001,"velocity":0.8818897637795275,"duration":0.26273169166665866},{"name":"A#6","midi":94,"time":588.3338040000001,"velocity":0.8818897637795275,"duration":0.26273169166665866},{"name":"G5","midi":79,"time":588.8893600000001,"velocity":0.8818897637795275,"duration":0.26273169166665866},{"name":"G6","midi":91,"time":588.8893600000001,"velocity":0.8818897637795275,"duration":0.26273169166665866},{"name":"D#5","midi":75,"time":589.4449160000001,"velocity":0.8818897637795275,"duration":0.26273169166665866},{"name":"D#6","midi":87,"time":589.4449160000001,"velocity":0.8818897637795275,"duration":0.26273169166665866},{"name":"C5","midi":72,"time":590.0004720000002,"velocity":0.8818897637795275,"duration":0.26273169166665866},{"name":"C6","midi":84,"time":590.0004720000002,"velocity":0.8818897637795275,"duration":0.26273169166665866},{"name":"D5","midi":74,"time":590.5560280000002,"velocity":0.8818897637795275,"duration":0.26273169166665866},{"name":"D6","midi":86,"time":590.5560280000002,"velocity":0.8818897637795275,"duration":0.26273169166665866},{"name":"D#5","midi":75,"time":591.1115840000002,"velocity":0.8818897637795275,"duration":0.26273169166665866},{"name":"D#6","midi":87,"time":591.1115840000002,"velocity":0.8818897637795275,"duration":0.26273169166665866},{"name":"F#5","midi":78,"time":591.6671400000002,"velocity":0.8818897637795275,"duration":1.0543989916666305},{"name":"F#6","midi":90,"time":591.6671400000002,"velocity":0.8818897637795275,"duration":1.0543989916666305},{"name":"G5","midi":79,"time":592.7782520000002,"velocity":0.8818897637795275,"duration":0.26273169166665866},{"name":"G6","midi":91,"time":592.7782520000002,"velocity":0.8818897637795275,"duration":0.26273169166665866},{"name":"D#5","midi":75,"time":593.3338080000002,"velocity":0.8818897637795275,"duration":0.26273169166665866},{"name":"D#6","midi":87,"time":593.3338080000002,"velocity":0.8818897637795275,"duration":0.26273169166665866},{"name":"C5","midi":72,"time":593.8893640000002,"velocity":0.8818897637795275,"duration":0.26273169166665866},{"name":"C6","midi":84,"time":593.8893640000002,"velocity":0.8818897637795275,"duration":0.26273169166665866},{"name":"G4","midi":67,"time":594.4449200000003,"velocity":0.8818897637795275,"duration":0.26273169166665866},{"name":"G5","midi":79,"time":594.4449200000003,"velocity":0.8818897637795275,"duration":0.26273169166665866},{"name":"B4","midi":71,"time":595.0004760000003,"velocity":0.8818897637795275,"duration":0.2766205916666422},{"name":"B5","midi":83,"time":595.0004760000003,"velocity":0.8818897637795275,"duration":0.2766205916666422},{"name":"C5","midi":72,"time":595.5560320000003,"velocity":0.8818897637795275,"duration":0.2766205916666422},{"name":"C6","midi":84,"time":595.5560320000003,"velocity":0.8818897637795275,"duration":0.2766205916666422},{"name":"D5","midi":74,"time":596.1115880000003,"velocity":0.8818897637795275,"duration":1.0543989916666305},{"name":"D6","midi":86,"time":596.1115880000003,"velocity":0.8818897637795275,"duration":1.0543989916666305},{"name":"C5","midi":72,"time":597.2227000000003,"velocity":0.8818897637795275,"duration":0.2766205916666422},{"name":"C6","midi":84,"time":597.2227000000003,"velocity":0.8818897637795275,"duration":0.2766205916666422},{"name":"C4","midi":60,"time":600.0004800000003,"velocity":0.8818897637795275,"duration":0.26273169166665866},{"name":"C5","midi":72,"time":600.0004800000003,"velocity":0.8818897637795275,"duration":0.26273169166665866},{"name":"G4","midi":67,"time":600.5560360000003,"velocity":0.8818897637795275,"duration":0.26273169166665866},{"name":"G5","midi":79,"time":600.5560360000003,"velocity":0.8818897637795275,"duration":0.26273169166665866},{"name":"C5","midi":72,"time":601.1115920000003,"velocity":0.8818897637795275,"duration":0.26273169166665866},{"name":"C6","midi":84,"time":601.1115920000003,"velocity":0.8818897637795275,"duration":0.26273169166665866},{"name":"D#5","midi":75,"time":601.6671480000003,"velocity":0.8818897637795275,"duration":1.0543989916666305},{"name":"D#6","midi":87,"time":601.6671480000003,"velocity":0.8818897637795275,"duration":1.0543989916666305},{"name":"C5","midi":72,"time":602.7782600000003,"velocity":0.8818897637795275,"duration":1.0543989916666305},{"name":"G5","midi":79,"time":602.7782600000003,"velocity":0.8818897637795275,"duration":1.0543989916666305},{"name":"C6","midi":84,"time":602.7782600000003,"velocity":0.8818897637795275,"duration":1.0543989916666305},{"name":"G6","midi":91,"time":602.7782600000003,"velocity":0.8818897637795275,"duration":1.0543989916666305},{"name":"B4","midi":71,"time":603.8893720000002,"velocity":0.8818897637795275,"duration":0.26273169166665866},{"name":"B5","midi":83,"time":603.8893720000002,"velocity":0.8818897637795275,"duration":0.26273169166665866},{"name":"C5","midi":72,"time":604.4449280000002,"velocity":0.8818897637795275,"duration":0.26273169166665866},{"name":"C6","midi":84,"time":604.4449280000002,"velocity":0.8818897637795275,"duration":0.26273169166665866},{"name":"D5","midi":74,"time":605.0004840000003,"velocity":0.8818897637795275,"duration":1.0543989916666305},{"name":"D6","midi":86,"time":605.0004840000003,"velocity":0.8818897637795275,"duration":1.0543989916666305},{"name":"D#5","midi":75,"time":606.1115960000002,"velocity":0.8818897637795275,"duration":0.26273169166665866},{"name":"D#6","midi":87,"time":606.1115960000002,"velocity":0.8818897637795275,"duration":0.26273169166665866},{"name":"C5","midi":72,"time":606.6671520000002,"velocity":0.8818897637795275,"duration":0.26273169166665866},{"name":"C6","midi":84,"time":606.6671520000002,"velocity":0.8818897637795275,"duration":0.26273169166665866},{"name":"G4","midi":67,"time":607.2227080000002,"velocity":0.8818897637795275,"duration":0.26273169166665866},{"name":"G5","midi":79,"time":607.2227080000002,"velocity":0.8818897637795275,"duration":0.26273169166665866},{"name":"D#4","midi":63,"time":607.7782640000003,"velocity":0.8818897637795275,"duration":0.26273169166665866},{"name":"D#5","midi":75,"time":607.7782640000003,"velocity":0.8818897637795275,"duration":0.26273169166665866},{"name":"D5","midi":74,"time":608.3338200000003,"velocity":0.8818897637795275,"duration":0.26273169166665866},{"name":"D6","midi":86,"time":608.3338200000003,"velocity":0.8818897637795275,"duration":0.26273169166665866},{"name":"D#5","midi":75,"time":608.8893760000003,"velocity":0.8818897637795275,"duration":0.26273169166665866},{"name":"D#6","midi":87,"time":608.8893760000003,"velocity":0.8818897637795275,"duration":0.26273169166665866},{"name":"F#5","midi":78,"time":609.4449320000003,"velocity":0.8818897637795275,"duration":1.0543989916666305},{"name":"F#6","midi":90,"time":609.4449320000003,"velocity":0.8818897637795275,"duration":1.0543989916666305},{"name":"G5","midi":79,"time":610.5560440000003,"velocity":0.8818897637795275,"duration":0.26273169166665866},{"name":"G6","midi":91,"time":610.5560440000003,"velocity":0.8818897637795275,"duration":0.26273169166665866},{"name":"D#5","midi":75,"time":611.1116000000003,"velocity":0.8818897637795275,"duration":0.26273169166665866},{"name":"D#6","midi":87,"time":611.1116000000003,"velocity":0.8818897637795275,"duration":0.26273169166665866},{"name":"C5","midi":72,"time":611.6671560000003,"velocity":0.8818897637795275,"duration":0.26273169166665866},{"name":"C6","midi":84,"time":611.6671560000003,"velocity":0.8818897637795275,"duration":0.26273169166665866},{"name":"G4","midi":67,"time":612.2227120000003,"velocity":0.8818897637795275,"duration":0.26273169166665866},{"name":"G5","midi":79,"time":612.2227120000003,"velocity":0.8818897637795275,"duration":0.26273169166665866},{"name":"B4","midi":71,"time":612.7782680000004,"velocity":0.8818897637795275,"duration":0.2766205916666422},{"name":"B5","midi":83,"time":612.7782680000004,"velocity":0.8818897637795275,"duration":0.2766205916666422},{"name":"C5","midi":72,"time":613.3338240000004,"velocity":0.8818897637795275,"duration":0.2766205916666422},{"name":"C6","midi":84,"time":613.3338240000004,"velocity":0.8818897637795275,"duration":0.2766205916666422},{"name":"D5","midi":74,"time":613.8893800000004,"velocity":0.8818897637795275,"duration":1.0543989916666305},{"name":"D6","midi":86,"time":613.8893800000004,"velocity":0.8818897637795275,"duration":1.0543989916666305},{"name":"C5","midi":72,"time":615.0004920000003,"velocity":0.8818897637795275,"duration":0.2766205916666422},{"name":"C6","midi":84,"time":615.0004920000003,"velocity":0.8818897637795275,"duration":0.2766205916666422},{"name":"D#5","midi":75,"time":620.5560520000004,"velocity":0.8818897637795275,"duration":1.0543989916666305},{"name":"D#6","midi":87,"time":620.5560520000004,"velocity":0.8818897637795275,"duration":1.0543989916666305},{"name":"D#7","midi":99,"time":620.5560520000004,"velocity":0.8818897637795275,"duration":1.0543989916666305},{"name":"D6","midi":86,"time":621.6671640000003,"velocity":0.8818897637795275,"duration":0.26273169166665866},{"name":"D7","midi":98,"time":621.6671640000003,"velocity":0.8818897637795275,"duration":0.26273169166665866},{"name":"C6","midi":84,"time":622.2227200000003,"velocity":0.8818897637795275,"duration":0.26273169166665866},{"name":"C7","midi":96,"time":622.2227200000003,"velocity":0.8818897637795275,"duration":0.26273169166665866},{"name":"D6","midi":86,"time":622.7782760000003,"velocity":0.8818897637795275,"duration":1.0543989916666305},{"name":"D7","midi":98,"time":622.7782760000003,"velocity":0.8818897637795275,"duration":1.0543989916666305},{"name":"D#6","midi":87,"time":623.8893880000003,"velocity":0.8818897637795275,"duration":0.26273169166665866},{"name":"D#7","midi":99,"time":623.8893880000003,"velocity":0.8818897637795275,"duration":0.26273169166665866},{"name":"C6","midi":84,"time":624.4449440000003,"velocity":0.8818897637795275,"duration":0.26273169166665866},{"name":"C7","midi":96,"time":624.4449440000003,"velocity":0.8818897637795275,"duration":0.26273169166665866},{"name":"G5","midi":79,"time":625.0005000000003,"velocity":0.8818897637795275,"duration":0.26273169166665866},{"name":"G6","midi":91,"time":625.0005000000003,"velocity":0.8818897637795275,"duration":0.26273169166665866},{"name":"D#5","midi":75,"time":625.5560560000004,"velocity":0.8818897637795275,"duration":0.26273169166665866},{"name":"D#6","midi":87,"time":625.5560560000004,"velocity":0.8818897637795275,"duration":0.26273169166665866},{"name":"F#5","midi":78,"time":626.1116120000004,"velocity":0.8818897637795275,"duration":0.26273169166665866},{"name":"F#6","midi":90,"time":626.1116120000004,"velocity":0.8818897637795275,"duration":0.26273169166665866},{"name":"G5","midi":79,"time":626.6671680000004,"velocity":0.8818897637795275,"duration":0.26273169166665866},{"name":"G6","midi":91,"time":626.6671680000004,"velocity":0.8818897637795275,"duration":0.26273169166665866},{"name":"B5","midi":83,"time":627.2227240000004,"velocity":0.8818897637795275,"duration":1.0543989916666305},{"name":"B6","midi":95,"time":627.2227240000004,"velocity":0.8818897637795275,"duration":1.0543989916666305},{"name":"C6","midi":84,"time":628.3338360000004,"velocity":0.8818897637795275,"duration":0.26273169166665866},{"name":"C7","midi":96,"time":628.3338360000004,"velocity":0.8818897637795275,"duration":0.26273169166665866},{"name":"G5","midi":79,"time":628.8893920000004,"velocity":0.8818897637795275,"duration":0.26273169166665866},{"name":"G6","midi":91,"time":628.8893920000004,"velocity":0.8818897637795275,"duration":0.26273169166665866},{"name":"D#5","midi":75,"time":629.4449480000004,"velocity":0.8818897637795275,"duration":0.26273169166665866},{"name":"D#6","midi":87,"time":629.4449480000004,"velocity":0.8818897637795275,"duration":0.26273169166665866},{"name":"C5","midi":72,"time":630.0005040000004,"velocity":0.8818897637795275,"duration":0.26273169166665866},{"name":"C6","midi":84,"time":630.0005040000004,"velocity":0.8818897637795275,"duration":0.26273169166665866},{"name":"B4","midi":71,"time":630.5560600000005,"velocity":0.8818897637795275,"duration":0.2766205916666422},{"name":"B5","midi":83,"time":630.5560600000005,"velocity":0.8818897637795275,"duration":0.2766205916666422},{"name":"C5","midi":72,"time":631.1116160000005,"velocity":0.8818897637795275,"duration":0.2766205916666422},{"name":"C6","midi":84,"time":631.1116160000005,"velocity":0.8818897637795275,"duration":0.2766205916666422},{"name":"D5","midi":74,"time":631.6671720000005,"velocity":0.8818897637795275,"duration":1.0543989916666305},{"name":"D6","midi":86,"time":631.6671720000005,"velocity":0.8818897637795275,"duration":1.0543989916666305},{"name":"C5","midi":72,"time":632.7782840000004,"velocity":0.8818897637795275,"duration":0.26273169166665866},{"name":"C6","midi":84,"time":632.7782840000004,"velocity":0.8818897637795275,"duration":0.26273169166665866},{"name":"C2","midi":36,"time":633.3338400000005,"velocity":0.5039370078740157,"duration":0.13078714166658756},{"name":"C3","midi":48,"time":633.3338400000005,"velocity":0.5039370078740157,"duration":0.13078714166658756},{"name":"C2","midi":36,"time":633.4727290000004,"velocity":0.5354330708661418,"duration":0.13078714166670125},{"name":"C3","midi":48,"time":633.4727290000004,"velocity":0.5354330708661418,"duration":0.13078714166670125},{"name":"C2","midi":36,"time":633.6116180000005,"velocity":0.5669291338582677,"duration":0.13078714166670125},{"name":"C3","midi":48,"time":633.6116180000005,"velocity":0.5669291338582677,"duration":0.13078714166670125},{"name":"C2","midi":36,"time":633.7505070000005,"velocity":0.6062992125984252,"duration":0.13078714166670125},{"name":"C3","midi":48,"time":633.7505070000005,"velocity":0.6062992125984252,"duration":0.13078714166670125},{"name":"C2","midi":36,"time":633.8893960000006,"velocity":0.6377952755905512,"duration":0.13078714166670125},{"name":"C3","midi":48,"time":633.8893960000006,"velocity":0.6377952755905512,"duration":0.13078714166670125},{"name":"C2","midi":36,"time":634.0282850000007,"velocity":0.6692913385826772,"duration":0.13078714166670125},{"name":"C3","midi":48,"time":634.0282850000007,"velocity":0.6692913385826772,"duration":0.13078714166670125},{"name":"C2","midi":36,"time":634.1671740000007,"velocity":0.7086614173228346,"duration":0.13078714166670125},{"name":"C3","midi":48,"time":634.1671740000007,"velocity":0.7086614173228346,"duration":0.13078714166670125},{"name":"C2","midi":36,"time":634.3060630000008,"velocity":0.7401574803149606,"duration":0.13078714166670125},{"name":"C3","midi":48,"time":634.3060630000008,"velocity":0.7401574803149606,"duration":0.13078714166670125},{"name":"C2","midi":36,"time":634.4449520000009,"velocity":0.7716535433070866,"duration":0.13078714166670125},{"name":"C3","midi":48,"time":634.4449520000009,"velocity":0.7716535433070866,"duration":0.13078714166670125},{"name":"C2","midi":36,"time":634.5838410000009,"velocity":0.8110236220472441,"duration":0.13078714166670125},{"name":"C3","midi":48,"time":634.5838410000009,"velocity":0.8110236220472441,"duration":0.13078714166670125},{"name":"C2","midi":36,"time":634.722730000001,"velocity":0.84251968503937,"duration":0.13078714166670125},{"name":"C3","midi":48,"time":634.722730000001,"velocity":0.84251968503937,"duration":0.13078714166670125},{"name":"C2","midi":36,"time":634.861619000001,"velocity":0.8818897637795275,"duration":0.13078714166670125},{"name":"C3","midi":48,"time":634.861619000001,"velocity":0.8818897637795275,"duration":0.13078714166670125},{"name":"F1","midi":29,"time":635.278286000001,"velocity":0.8818897637795275,"duration":0.26273169166665866},{"name":"F2","midi":41,"time":635.278286000001,"velocity":0.8818897637795275,"duration":0.26273169166665866},{"name":"F3","midi":53,"time":635.278286000001,"velocity":0.8818897637795275,"duration":0.26273169166665866},{"name":"G#1","midi":32,"time":635.556064000001,"velocity":0.8818897637795275,"duration":0.26273169166665866},{"name":"G#2","midi":44,"time":635.556064000001,"velocity":0.8818897637795275,"duration":0.26273169166665866},{"name":"G#3","midi":56,"time":635.556064000001,"velocity":0.8818897637795275,"duration":0.26273169166665866},{"name":"C2","midi":36,"time":635.833842000001,"velocity":0.8818897637795275,"duration":0.26273169166665866},{"name":"C3","midi":48,"time":635.833842000001,"velocity":0.8818897637795275,"duration":0.26273169166665866},{"name":"E1","midi":28,"time":636.111620000001,"velocity":0.8818897637795275,"duration":0.13078714166670125},{"name":"E2","midi":40,"time":636.111620000001,"velocity":0.8818897637795275,"duration":0.13078714166670125},{"name":"E3","midi":52,"time":636.111620000001,"velocity":0.8818897637795275,"duration":0.13078714166670125},{"name":"F1","midi":29,"time":636.2505090000011,"velocity":0.8818897637795275,"duration":0.3946762416666161},{"name":"F2","midi":41,"time":636.2505090000011,"velocity":0.8818897637795275,"duration":0.3946762416666161},{"name":"F3","midi":53,"time":636.2505090000011,"velocity":0.8818897637795275,"duration":0.3946762416666161},{"name":"C1","midi":24,"time":636.6671760000011,"velocity":0.8818897637795275,"duration":0.5266207916666872},{"name":"C2","midi":36,"time":636.6671760000011,"velocity":0.8818897637795275,"duration":0.5266207916666872},{"name":"C3","midi":48,"time":636.6671760000011,"velocity":0.8818897637795275,"duration":0.5266207916666872},{"name":"B0","midi":23,"time":637.2227320000011,"velocity":0.8818897637795275,"duration":0.13773159166669302},{"name":"B1","midi":35,"time":637.2227320000011,"velocity":0.8818897637795275,"duration":0.13773159166669302},{"name":"B2","midi":47,"time":637.2227320000011,"velocity":0.8818897637795275,"duration":0.13773159166669302},{"name":"C1","midi":24,"time":637.5005100000011,"velocity":0.8818897637795275,"duration":0.13773159166669302},{"name":"C2","midi":36,"time":637.5005100000011,"velocity":0.8818897637795275,"duration":0.13773159166669302},{"name":"C3","midi":48,"time":637.5005100000011,"velocity":0.8818897637795275,"duration":0.13773159166669302},{"name":"D1","midi":26,"time":637.7782880000011,"velocity":0.8818897637795275,"duration":0.5266207916666872},{"name":"D2","midi":38,"time":637.7782880000011,"velocity":0.8818897637795275,"duration":0.5266207916666872},{"name":"D3","midi":50,"time":637.7782880000011,"velocity":0.8818897637795275,"duration":0.5266207916666872},{"name":"B0","midi":23,"time":638.3338440000011,"velocity":0.8818897637795275,"duration":0.13773159166669302},{"name":"B1","midi":35,"time":638.3338440000011,"velocity":0.8818897637795275,"duration":0.13773159166669302},{"name":"B2","midi":47,"time":638.3338440000011,"velocity":0.8818897637795275,"duration":0.13773159166669302},{"name":"G1","midi":31,"time":638.6116220000011,"velocity":0.8818897637795275,"duration":0.13773159166669302},{"name":"G2","midi":43,"time":638.6116220000011,"velocity":0.8818897637795275,"duration":0.13773159166669302},{"name":"B0","midi":23,"time":638.8894000000012,"velocity":0.8818897637795275,"duration":0.26273169166665866},{"name":"B1","midi":35,"time":638.8894000000012,"velocity":0.8818897637795275,"duration":0.26273169166665866},{"name":"B2","midi":47,"time":638.8894000000012,"velocity":0.8818897637795275,"duration":0.26273169166665866},{"name":"D1","midi":26,"time":639.1671780000012,"velocity":0.8818897637795275,"duration":0.26273169166665866},{"name":"D2","midi":38,"time":639.1671780000012,"velocity":0.8818897637795275,"duration":0.26273169166665866},{"name":"D3","midi":50,"time":639.1671780000012,"velocity":0.8818897637795275,"duration":0.26273169166665866},{"name":"D#1","midi":27,"time":639.4449560000012,"velocity":0.8818897637795275,"duration":0.5266207916666872},{"name":"D#2","midi":39,"time":639.4449560000012,"velocity":0.8818897637795275,"duration":0.5266207916666872},{"name":"D#3","midi":51,"time":639.4449560000012,"velocity":0.8818897637795275,"duration":0.5266207916666872},{"name":"D1","midi":26,"time":640.0005120000012,"velocity":0.8818897637795275,"duration":0.13773159166669302},{"name":"D2","midi":38,"time":640.0005120000012,"velocity":0.8818897637795275,"duration":0.13773159166669302},{"name":"D3","midi":50,"time":640.0005120000012,"velocity":0.8818897637795275,"duration":0.13773159166669302},{"name":"C1","midi":24,"time":640.2782900000012,"velocity":0.8818897637795275,"duration":0.13773159166669302},{"name":"C2","midi":36,"time":640.2782900000012,"velocity":0.8818897637795275,"duration":0.13773159166669302},{"name":"C3","midi":48,"time":640.2782900000012,"velocity":0.8818897637795275,"duration":0.13773159166669302},{"name":"A#1","midi":34,"time":640.5560680000012,"velocity":0.8818897637795275,"duration":0.13078714166670125},{"name":"A#2","midi":46,"time":640.5560680000012,"velocity":0.8818897637795275,"duration":0.13078714166670125},{"name":"A#3","midi":58,"time":640.5560680000012,"velocity":0.8818897637795275,"duration":0.13078714166670125},{"name":"C2","midi":36,"time":640.6949570000013,"velocity":0.8818897637795275,"duration":0.3946762416666161},{"name":"C3","midi":48,"time":640.6949570000013,"velocity":0.8818897637795275,"duration":0.3946762416666161},{"name":"C4","midi":60,"time":640.6949570000013,"velocity":0.8818897637795275,"duration":0.3946762416666161},{"name":"A#1","midi":34,"time":641.1116240000013,"velocity":0.8818897637795275,"duration":0.26273169166665866},{"name":"A#2","midi":46,"time":641.1116240000013,"velocity":0.8818897637795275,"duration":0.26273169166665866},{"name":"A#3","midi":58,"time":641.1116240000013,"velocity":0.8818897637795275,"duration":0.26273169166665866},{"name":"G#1","midi":32,"time":641.3894020000013,"velocity":0.8818897637795275,"duration":0.26273169166665866},{"name":"G#2","midi":44,"time":641.3894020000013,"velocity":0.8818897637795275,"duration":0.26273169166665866},{"name":"G#3","midi":56,"time":641.3894020000013,"velocity":0.8818897637795275,"duration":0.26273169166665866},{"name":"G1","midi":31,"time":641.6671800000013,"velocity":0.8818897637795275,"duration":0.5266207916666872},{"name":"G2","midi":43,"time":641.6671800000013,"velocity":0.8818897637795275,"duration":0.5266207916666872},{"name":"G3","midi":55,"time":641.6671800000013,"velocity":0.8818897637795275,"duration":0.5266207916666872},{"name":"F1","midi":29,"time":642.2227360000013,"velocity":0.8818897637795275,"duration":0.13773159166669302},{"name":"F2","midi":41,"time":642.2227360000013,"velocity":0.8818897637795275,"duration":0.13773159166669302},{"name":"F3","midi":53,"time":642.2227360000013,"velocity":0.8818897637795275,"duration":0.13773159166669302},{"name":"G#1","midi":32,"time":642.5005140000013,"velocity":0.8818897637795275,"duration":0.13773159166669302},{"name":"G#2","midi":44,"time":642.5005140000013,"velocity":0.8818897637795275,"duration":0.13773159166669302},{"name":"G#3","midi":56,"time":642.5005140000013,"velocity":0.8818897637795275,"duration":0.13773159166669302},{"name":"G1","midi":31,"time":642.7782920000013,"velocity":0.8818897637795275,"duration":1.0543989916666305},{"name":"G2","midi":43,"time":642.7782920000013,"velocity":0.8818897637795275,"duration":1.0543989916666305},{"name":"F1","midi":29,"time":644.1671820000013,"velocity":0.8818897637795275,"duration":0.26273169166665866},{"name":"F2","midi":41,"time":644.1671820000013,"velocity":0.8818897637795275,"duration":0.26273169166665866},{"name":"F3","midi":53,"time":644.1671820000013,"velocity":0.8818897637795275,"duration":0.26273169166665866},{"name":"G#1","midi":32,"time":644.4449600000013,"velocity":0.8818897637795275,"duration":0.26273169166665866},{"name":"G#2","midi":44,"time":644.4449600000013,"velocity":0.8818897637795275,"duration":0.26273169166665866},{"name":"G#3","midi":56,"time":644.4449600000013,"velocity":0.8818897637795275,"duration":0.26273169166665866},{"name":"C2","midi":36,"time":644.7227380000013,"velocity":0.8818897637795275,"duration":0.26273169166665866},{"name":"C3","midi":48,"time":644.7227380000013,"velocity":0.8818897637795275,"duration":0.26273169166665866},{"name":"E1","midi":28,"time":645.0005160000013,"velocity":0.8818897637795275,"duration":0.13078714166670125},{"name":"E2","midi":40,"time":645.0005160000013,"velocity":0.8818897637795275,"duration":0.13078714166670125},{"name":"E3","midi":52,"time":645.0005160000013,"velocity":0.8818897637795275,"duration":0.13078714166670125},{"name":"F1","midi":29,"time":645.1394050000014,"velocity":0.8818897637795275,"duration":0.3946762416666161},{"name":"F2","midi":41,"time":645.1394050000014,"velocity":0.8818897637795275,"duration":0.3946762416666161},{"name":"F3","midi":53,"time":645.1394050000014,"velocity":0.8818897637795275,"duration":0.3946762416666161},{"name":"C1","midi":24,"time":645.5560720000013,"velocity":0.8818897637795275,"duration":0.5266207916666872},{"name":"C2","midi":36,"time":645.5560720000013,"velocity":0.8818897637795275,"duration":0.5266207916666872},{"name":"C3","midi":48,"time":645.5560720000013,"velocity":0.8818897637795275,"duration":0.5266207916666872},{"name":"B0","midi":23,"time":646.1116280000014,"velocity":0.8818897637795275,"duration":0.13773159166669302},{"name":"B1","midi":35,"time":646.1116280000014,"velocity":0.8818897637795275,"duration":0.13773159166669302},{"name":"B2","midi":47,"time":646.1116280000014,"velocity":0.8818897637795275,"duration":0.13773159166669302},{"name":"C1","midi":24,"time":646.3894060000014,"velocity":0.8818897637795275,"duration":0.13773159166669302},{"name":"C2","midi":36,"time":646.3894060000014,"velocity":0.8818897637795275,"duration":0.13773159166669302},{"name":"C3","midi":48,"time":646.3894060000014,"velocity":0.8818897637795275,"duration":0.13773159166669302},{"name":"D1","midi":26,"time":646.6671840000014,"velocity":0.8818897637795275,"duration":0.5266207916666872},{"name":"D2","midi":38,"time":646.6671840000014,"velocity":0.8818897637795275,"duration":0.5266207916666872},{"name":"D3","midi":50,"time":646.6671840000014,"velocity":0.8818897637795275,"duration":0.5266207916666872},{"name":"B0","midi":23,"time":647.2227400000014,"velocity":0.8818897637795275,"duration":0.13773159166669302},{"name":"B1","midi":35,"time":647.2227400000014,"velocity":0.8818897637795275,"duration":0.13773159166669302},{"name":"B2","midi":47,"time":647.2227400000014,"velocity":0.8818897637795275,"duration":0.13773159166669302},{"name":"G1","midi":31,"time":647.5005180000014,"velocity":0.8818897637795275,"duration":0.13773159166669302},{"name":"G2","midi":43,"time":647.5005180000014,"velocity":0.8818897637795275,"duration":0.13773159166669302},{"name":"B0","midi":23,"time":647.7782960000014,"velocity":0.8818897637795275,"duration":0.26273169166665866},{"name":"B1","midi":35,"time":647.7782960000014,"velocity":0.8818897637795275,"duration":0.26273169166665866},{"name":"B2","midi":47,"time":647.7782960000014,"velocity":0.8818897637795275,"duration":0.26273169166665866},{"name":"D1","midi":26,"time":648.0560740000014,"velocity":0.8818897637795275,"duration":0.26273169166665866},{"name":"D2","midi":38,"time":648.0560740000014,"velocity":0.8818897637795275,"duration":0.26273169166665866},{"name":"D3","midi":50,"time":648.0560740000014,"velocity":0.8818897637795275,"duration":0.26273169166665866},{"name":"D#2","midi":39,"time":648.3338520000015,"velocity":0.8818897637795275,"duration":0.5266207916666872},{"name":"D#3","midi":51,"time":648.3338520000015,"velocity":0.8818897637795275,"duration":0.5266207916666872},{"name":"D2","midi":38,"time":648.8894080000015,"velocity":0.8818897637795275,"duration":0.13773159166669302},{"name":"D3","midi":50,"time":648.8894080000015,"velocity":0.8818897637795275,"duration":0.13773159166669302},{"name":"C2","midi":36,"time":649.1671860000015,"velocity":0.8818897637795275,"duration":0.13773159166669302},{"name":"C3","midi":48,"time":649.1671860000015,"velocity":0.8818897637795275,"duration":0.13773159166669302},{"name":"A#1","midi":34,"time":649.4449640000015,"velocity":0.8818897637795275,"duration":0.13078714166670125},{"name":"A#2","midi":46,"time":649.4449640000015,"velocity":0.8818897637795275,"duration":0.13078714166670125},{"name":"A#3","midi":58,"time":649.4449640000015,"velocity":0.8818897637795275,"duration":0.13078714166670125},{"name":"C2","midi":36,"time":649.5838530000016,"velocity":0.8818897637795275,"duration":0.3946762416666161},{"name":"C3","midi":48,"time":649.5838530000016,"velocity":0.8818897637795275,"duration":0.3946762416666161},{"name":"C4","midi":60,"time":649.5838530000016,"velocity":0.8818897637795275,"duration":0.3946762416666161},{"name":"D2","midi":38,"time":650.0005200000015,"velocity":0.8818897637795275,"duration":0.26273169166665866},{"name":"D3","midi":50,"time":650.0005200000015,"velocity":0.8818897637795275,"duration":0.26273169166665866},{"name":"D4","midi":62,"time":650.0005200000015,"velocity":0.8818897637795275,"duration":0.26273169166665866},{"name":"D#2","midi":39,"time":650.2782980000015,"velocity":0.8818897637795275,"duration":0.26273169166665866},{"name":"D#3","midi":51,"time":650.2782980000015,"velocity":0.8818897637795275,"duration":0.26273169166665866},{"name":"D#4","midi":63,"time":650.2782980000015,"velocity":0.8818897637795275,"duration":0.26273169166665866},{"name":"D2","midi":38,"time":650.5560760000016,"velocity":0.8818897637795275,"duration":0.26273169166665866},{"name":"D3","midi":50,"time":650.5560760000016,"velocity":0.8818897637795275,"duration":0.26273169166665866},{"name":"D4","midi":62,"time":650.5560760000016,"velocity":0.8818897637795275,"duration":0.26273169166665866},{"name":"C2","midi":36,"time":650.8338540000016,"velocity":0.8818897637795275,"duration":0.26273169166665866},{"name":"C3","midi":48,"time":650.8338540000016,"velocity":0.8818897637795275,"duration":0.26273169166665866},{"name":"C4","midi":60,"time":650.8338540000016,"velocity":0.8818897637795275,"duration":0.26273169166665866},{"name":"A#1","midi":34,"time":651.1116320000016,"velocity":0.8818897637795275,"duration":0.26273169166665866},{"name":"A#2","midi":46,"time":651.1116320000016,"velocity":0.8818897637795275,"duration":0.26273169166665866},{"name":"A#3","midi":58,"time":651.1116320000016,"velocity":0.8818897637795275,"duration":0.26273169166665866},{"name":"G#1","midi":32,"time":651.3894100000016,"velocity":0.8818897637795275,"duration":0.26273169166665866},{"name":"G#2","midi":44,"time":651.3894100000016,"velocity":0.8818897637795275,"duration":0.26273169166665866},{"name":"G#3","midi":56,"time":651.3894100000016,"velocity":0.8818897637795275,"duration":0.26273169166665866},{"name":"F1","midi":29,"time":651.6671880000016,"velocity":0.8818897637795275,"duration":0.13078714166670125},{"name":"F2","midi":41,"time":651.6671880000016,"velocity":0.8818897637795275,"duration":0.13078714166670125},{"name":"F3","midi":53,"time":651.6671880000016,"velocity":0.8818897637795275,"duration":0.13078714166670125},{"name":"G1","midi":31,"time":651.8060770000017,"velocity":0.8818897637795275,"duration":0.9224544416666731},{"name":"G2","midi":43,"time":651.8060770000017,"velocity":0.8818897637795275,"duration":0.9224544416666731},{"name":"G3","midi":55,"time":651.8060770000017,"velocity":0.8818897637795275,"duration":0.9224544416666731},{"name":"F3","midi":53,"time":653.0560780000017,"velocity":0.8818897637795275,"duration":0.26273169166665866},{"name":"F4","midi":65,"time":653.0560780000017,"velocity":0.8818897637795275,"duration":0.26273169166665866},{"name":"G#3","midi":56,"time":653.3338560000017,"velocity":0.8818897637795275,"duration":0.26273169166665866},{"name":"G#4","midi":68,"time":653.3338560000017,"velocity":0.8818897637795275,"duration":0.26273169166665866},{"name":"C4","midi":60,"time":653.6116340000017,"velocity":0.8818897637795275,"duration":0.26273169166665866},{"name":"C5","midi":72,"time":653.6116340000017,"velocity":0.8818897637795275,"duration":0.26273169166665866},{"name":"E4","midi":64,"time":653.8894120000017,"velocity":0.8818897637795275,"duration":0.13078714166670125},{"name":"E5","midi":76,"time":653.8894120000017,"velocity":0.8818897637795275,"duration":0.13078714166670125},{"name":"F4","midi":65,"time":654.0283010000018,"velocity":0.8818897637795275,"duration":0.3946762416666161},{"name":"F5","midi":77,"time":654.0283010000018,"velocity":0.8818897637795275,"duration":0.3946762416666161},{"name":"C4","midi":60,"time":654.4449680000017,"velocity":0.8818897637795275,"duration":0.5266207916666872},{"name":"C5","midi":72,"time":654.4449680000017,"velocity":0.8818897637795275,"duration":0.5266207916666872},{"name":"B3","midi":59,"time":655.0005240000017,"velocity":0.8818897637795275,"duration":0.13773159166669302},{"name":"B4","midi":71,"time":655.0005240000017,"velocity":0.8818897637795275,"duration":0.13773159166669302},{"name":"C4","midi":60,"time":655.2783020000018,"velocity":0.8818897637795275,"duration":0.13773159166669302},{"name":"C5","midi":72,"time":655.2783020000018,"velocity":0.8818897637795275,"duration":0.13773159166669302},{"name":"D4","midi":62,"time":655.5560800000018,"velocity":0.8818897637795275,"duration":0.5266207916666872},{"name":"D5","midi":74,"time":655.5560800000018,"velocity":0.8818897637795275,"duration":0.5266207916666872},{"name":"B3","midi":59,"time":656.1116360000018,"velocity":0.8818897637795275,"duration":0.13773159166669302},{"name":"B4","midi":71,"time":656.1116360000018,"velocity":0.8818897637795275,"duration":0.13773159166669302},{"name":"G3","midi":55,"time":656.3894140000018,"velocity":0.8818897637795275,"duration":0.13773159166669302},{"name":"G4","midi":67,"time":656.3894140000018,"velocity":0.8818897637795275,"duration":0.13773159166669302},{"name":"B3","midi":59,"time":656.6671920000018,"velocity":0.8818897637795275,"duration":0.26273169166665866},{"name":"B4","midi":71,"time":656.6671920000018,"velocity":0.8818897637795275,"duration":0.26273169166665866},{"name":"D4","midi":62,"time":656.9449700000018,"velocity":0.8818897637795275,"duration":0.26273169166665866},{"name":"D5","midi":74,"time":656.9449700000018,"velocity":0.8818897637795275,"duration":0.26273169166665866},{"name":"D#4","midi":63,"time":657.2227480000018,"velocity":0.8818897637795275,"duration":0.5266207916666872},{"name":"D#5","midi":75,"time":657.2227480000018,"velocity":0.8818897637795275,"duration":0.5266207916666872},{"name":"D4","midi":62,"time":657.7783040000019,"velocity":0.8818897637795275,"duration":0.13773159166669302},{"name":"D5","midi":74,"time":657.7783040000019,"velocity":0.8818897637795275,"duration":0.13773159166669302},{"name":"C4","midi":60,"time":658.0560820000019,"velocity":0.8818897637795275,"duration":0.13773159166669302},{"name":"C5","midi":72,"time":658.0560820000019,"velocity":0.8818897637795275,"duration":0.13773159166669302},{"name":"A#4","midi":70,"time":658.3338600000019,"velocity":0.8818897637795275,"duration":0.13078714166670125},{"name":"A#5","midi":82,"time":658.3338600000019,"velocity":0.8818897637795275,"duration":0.13078714166670125},{"name":"C5","midi":72,"time":658.472749000002,"velocity":0.8818897637795275,"duration":0.3946762416666161},{"name":"C6","midi":84,"time":658.472749000002,"velocity":0.8818897637795275,"duration":0.3946762416666161},{"name":"A#4","midi":70,"time":658.8894160000019,"velocity":0.8818897637795275,"duration":0.26273169166665866},{"name":"A#5","midi":82,"time":658.8894160000019,"velocity":0.8818897637795275,"duration":0.26273169166665866},{"name":"G#4","midi":68,"time":659.1671940000019,"velocity":0.8818897637795275,"duration":0.26273169166665866},{"name":"G#5","midi":80,"time":659.1671940000019,"velocity":0.8818897637795275,"duration":0.26273169166665866},{"name":"G4","midi":67,"time":659.4449720000019,"velocity":0.8818897637795275,"duration":0.5266207916666872},{"name":"G5","midi":79,"time":659.4449720000019,"velocity":0.8818897637795275,"duration":0.5266207916666872},{"name":"F4","midi":65,"time":660.000528000002,"velocity":0.8818897637795275,"duration":0.13773159166669302},{"name":"F5","midi":77,"time":660.000528000002,"velocity":0.8818897637795275,"duration":0.13773159166669302},{"name":"G#4","midi":68,"time":660.278306000002,"velocity":0.8818897637795275,"duration":0.13773159166669302},{"name":"G#5","midi":80,"time":660.278306000002,"velocity":0.8818897637795275,"duration":0.13773159166669302},{"name":"G4","midi":67,"time":660.556084000002,"velocity":0.8818897637795275,"duration":1.0543989916666305},{"name":"G5","midi":79,"time":660.556084000002,"velocity":0.8818897637795275,"duration":1.0543989916666305},{"name":"F3","midi":53,"time":661.9449740000019,"velocity":0.8818897637795275,"duration":0.26273169166665866},{"name":"F4","midi":65,"time":661.9449740000019,"velocity":0.8818897637795275,"duration":0.26273169166665866},{"name":"G#3","midi":56,"time":662.222752000002,"velocity":0.8818897637795275,"duration":0.26273169166665866},{"name":"G#4","midi":68,"time":662.222752000002,"velocity":0.8818897637795275,"duration":0.26273169166665866},{"name":"C4","midi":60,"time":662.500530000002,"velocity":0.8818897637795275,"duration":0.26273169166665866},{"name":"C5","midi":72,"time":662.500530000002,"velocity":0.8818897637795275,"duration":0.26273169166665866},{"name":"E4","midi":64,"time":662.778308000002,"velocity":0.8818897637795275,"duration":0.13078714166670125},{"name":"E5","midi":76,"time":662.778308000002,"velocity":0.8818897637795275,"duration":0.13078714166670125},{"name":"F4","midi":65,"time":662.917197000002,"velocity":0.8818897637795275,"duration":0.3946762416666161},{"name":"F5","midi":77,"time":662.917197000002,"velocity":0.8818897637795275,"duration":0.3946762416666161},{"name":"C4","midi":60,"time":663.333864000002,"velocity":0.8818897637795275,"duration":0.5266207916666872},{"name":"C5","midi":72,"time":663.333864000002,"velocity":0.8818897637795275,"duration":0.5266207916666872},{"name":"B3","midi":59,"time":663.889420000002,"velocity":0.8818897637795275,"duration":0.13773159166669302},{"name":"B4","midi":71,"time":663.889420000002,"velocity":0.8818897637795275,"duration":0.13773159166669302},{"name":"C4","midi":60,"time":664.167198000002,"velocity":0.8818897637795275,"duration":0.13773159166669302},{"name":"C5","midi":72,"time":664.167198000002,"velocity":0.8818897637795275,"duration":0.13773159166669302},{"name":"D4","midi":62,"time":664.444976000002,"velocity":0.8818897637795275,"duration":0.5266207916666872},{"name":"D5","midi":74,"time":664.444976000002,"velocity":0.8818897637795275,"duration":0.5266207916666872},{"name":"B3","midi":59,"time":665.0005320000021,"velocity":0.8818897637795275,"duration":0.13773159166669302},{"name":"B4","midi":71,"time":665.0005320000021,"velocity":0.8818897637795275,"duration":0.13773159166669302},{"name":"G3","midi":55,"time":665.2783100000021,"velocity":0.8818897637795275,"duration":0.13773159166669302},{"name":"G4","midi":67,"time":665.2783100000021,"velocity":0.8818897637795275,"duration":0.13773159166669302},{"name":"B3","midi":59,"time":665.5560880000021,"velocity":0.8818897637795275,"duration":0.26273169166665866},{"name":"B4","midi":71,"time":665.5560880000021,"velocity":0.8818897637795275,"duration":0.26273169166665866},{"name":"D4","midi":62,"time":665.8338660000021,"velocity":0.8818897637795275,"duration":0.26273169166665866},{"name":"D5","midi":74,"time":665.8338660000021,"velocity":0.8818897637795275,"duration":0.26273169166665866},{"name":"D#4","midi":63,"time":666.1116440000021,"velocity":0.8818897637795275,"duration":0.5266207916666872},{"name":"D#5","midi":75,"time":666.1116440000021,"velocity":0.8818897637795275,"duration":0.5266207916666872},{"name":"D4","midi":62,"time":666.6672000000021,"velocity":0.8818897637795275,"duration":0.13773159166669302},{"name":"D5","midi":74,"time":666.6672000000021,"velocity":0.8818897637795275,"duration":0.13773159166669302},{"name":"C4","midi":60,"time":666.9449780000022,"velocity":0.8818897637795275,"duration":0.13773159166669302},{"name":"C5","midi":72,"time":666.9449780000022,"velocity":0.8818897637795275,"duration":0.13773159166669302},{"name":"A#3","midi":58,"time":667.2227560000022,"velocity":0.8818897637795275,"duration":0.13078714166670125},{"name":"A#4","midi":70,"time":667.2227560000022,"velocity":0.8818897637795275,"duration":0.13078714166670125},{"name":"A#5","midi":82,"time":667.2227560000022,"velocity":0.8818897637795275,"duration":0.13078714166670125},{"name":"C4","midi":60,"time":667.3616450000022,"velocity":0.8818897637795275,"duration":0.3946762416666161},{"name":"C5","midi":72,"time":667.3616450000022,"velocity":0.8818897637795275,"duration":0.3946762416666161},{"name":"C6","midi":84,"time":667.3616450000022,"velocity":0.8818897637795275,"duration":0.3946762416666161},{"name":"D4","midi":62,"time":667.7783120000022,"velocity":0.8818897637795275,"duration":0.26273169166665866},{"name":"D5","midi":74,"time":667.7783120000022,"velocity":0.8818897637795275,"duration":0.26273169166665866},{"name":"D6","midi":86,"time":667.7783120000022,"velocity":0.8818897637795275,"duration":0.26273169166665866},{"name":"D#4","midi":63,"time":668.0560900000022,"velocity":0.8818897637795275,"duration":0.26273169166665866},{"name":"D#5","midi":75,"time":668.0560900000022,"velocity":0.8818897637795275,"duration":0.26273169166665866},{"name":"D#6","midi":87,"time":668.0560900000022,"velocity":0.8818897637795275,"duration":0.26273169166665866},{"name":"D4","midi":62,"time":668.3338680000022,"velocity":0.8818897637795275,"duration":0.26273169166665866},{"name":"D5","midi":74,"time":668.3338680000022,"velocity":0.8818897637795275,"duration":0.26273169166665866},{"name":"D6","midi":86,"time":668.3338680000022,"velocity":0.8818897637795275,"duration":0.26273169166665866},{"name":"C4","midi":60,"time":668.6116460000022,"velocity":0.8818897637795275,"duration":0.26273169166665866},{"name":"C5","midi":72,"time":668.6116460000022,"velocity":0.8818897637795275,"duration":0.26273169166665866},{"name":"C6","midi":84,"time":668.6116460000022,"velocity":0.8818897637795275,"duration":0.26273169166665866},{"name":"A#3","midi":58,"time":668.8894240000022,"velocity":0.8818897637795275,"duration":0.26273169166665866},{"name":"A#4","midi":70,"time":668.8894240000022,"velocity":0.8818897637795275,"duration":0.26273169166665866},{"name":"A#5","midi":82,"time":668.8894240000022,"velocity":0.8818897637795275,"duration":0.26273169166665866},{"name":"G#3","midi":56,"time":669.1672020000022,"velocity":0.8818897637795275,"duration":0.26273169166665866},{"name":"G#4","midi":68,"time":669.1672020000022,"velocity":0.8818897637795275,"duration":0.26273169166665866},{"name":"G#5","midi":80,"time":669.1672020000022,"velocity":0.8818897637795275,"duration":0.26273169166665866},{"name":"F3","midi":53,"time":669.4449800000023,"velocity":0.8818897637795275,"duration":0.13078714166670125},{"name":"F4","midi":65,"time":669.4449800000023,"velocity":0.8818897637795275,"duration":0.13078714166670125},{"name":"F5","midi":77,"time":669.4449800000023,"velocity":0.8818897637795275,"duration":0.13078714166670125},{"name":"G3","midi":55,"time":669.5838690000023,"velocity":0.8818897637795275,"duration":0.9224544416666731},{"name":"G4","midi":67,"time":669.5838690000023,"velocity":0.8818897637795275,"duration":0.9224544416666731},{"name":"G5","midi":79,"time":669.5838690000023,"velocity":0.8818897637795275,"duration":0.9224544416666731},{"name":"D#5","midi":75,"time":688.3338840000023,"velocity":0.8818897637795275,"duration":0.5266207916666872},{"name":"D#5","midi":75,"time":688.8894400000023,"velocity":0.8818897637795275,"duration":0.13773159166669302},{"name":"D#5","midi":75,"time":689.1672180000023,"velocity":0.8818897637795275,"duration":0.13773159166669302},{"name":"D#5","midi":75,"time":689.7227740000023,"velocity":0.8818897637795275,"duration":0.26273169166665866},{"name":"D#5","midi":75,"time":690.2783300000024,"velocity":0.8818897637795275,"duration":0.5266207916666872},{"name":"C5","midi":72,"time":690.8338860000024,"velocity":0.8818897637795275,"duration":0.26273169166665866},{"name":"C5","midi":72,"time":691.3894420000024,"velocity":0.8818897637795275,"duration":1.318288091666659},{"name":"D#5","midi":75,"time":692.7783320000024,"velocity":0.8818897637795275,"duration":0.5266207916666872},{"name":"D#5","midi":75,"time":693.3338880000024,"velocity":0.8818897637795275,"duration":0.13773159166669302},{"name":"D#5","midi":75,"time":693.6116660000024,"velocity":0.8818897637795275,"duration":0.13773159166669302},{"name":"F5","midi":77,"time":694.1672220000024,"velocity":0.8818897637795275,"duration":0.26273169166665866},{"name":"F#5","midi":78,"time":694.7227780000024,"velocity":0.8818897637795275,"duration":0.5266207916666872},{"name":"F5","midi":77,"time":695.2783340000025,"velocity":0.8818897637795275,"duration":0.26273169166665866},{"name":"D#5","midi":75,"time":695.5561120000025,"velocity":0.8818897637795275,"duration":0.26273169166665866},{"name":"C5","midi":72,"time":695.8338900000025,"velocity":0.8818897637795275,"duration":0.26273169166665866},{"name":"D#5","midi":75,"time":696.1116680000025,"velocity":0.8818897637795275,"duration":0.26273169166665866},{"name":"F5","midi":77,"time":696.3894460000025,"velocity":0.8818897637795275,"duration":0.13773159166669302},{"name":"D#5","midi":75,"time":697.2227800000026,"velocity":0.8818897637795275,"duration":0.5266207916666872},{"name":"D#5","midi":75,"time":697.7783360000026,"velocity":0.8818897637795275,"duration":0.13773159166669302},{"name":"D#5","midi":75,"time":698.0561140000026,"velocity":0.8818897637795275,"duration":0.13773159166669302},{"name":"F5","midi":77,"time":698.6116700000026,"velocity":0.8818897637795275,"duration":0.26273169166665866},{"name":"F#5","midi":78,"time":699.1672260000026,"velocity":0.8818897637795275,"duration":0.26273169166665866},{"name":"G5","midi":79,"time":699.7227820000027,"velocity":0.8818897637795275,"duration":0.26273169166665866},{"name":"A#5","midi":82,"time":700.2783380000027,"velocity":0.8818897637795275,"duration":0.26273169166665866},{"name":"G5","midi":79,"time":700.8338940000027,"velocity":0.8818897637795275,"duration":0.7905098916667157},{"name":"C6","midi":84,"time":701.6672280000028,"velocity":0.8818897637795275,"duration":0.26273169166665866},{"name":"C6","midi":84,"time":702.2227840000028,"velocity":0.8818897637795275,"duration":0.26273169166665866},{"name":"C6","midi":84,"time":702.7783400000028,"velocity":0.8818897637795275,"duration":0.26273169166665866},{"name":"G5","midi":79,"time":703.0561180000028,"velocity":0.8818897637795275,"duration":0.26273169166665866},{"name":"C6","midi":84,"time":703.3338960000028,"velocity":0.8818897637795275,"duration":0.26273169166665866},{"name":"A#5","midi":82,"time":703.6116740000028,"velocity":0.8818897637795275,"duration":2.3738444916666595},{"name":"C3","midi":48,"time":728.8894720000028,"velocity":0.8818897637795275,"duration":0.13773159166669302},{"name":"G3","midi":55,"time":729.1672500000028,"velocity":0.8818897637795275,"duration":0.13773159166669302},{"name":"C4","midi":60,"time":729.4450280000028,"velocity":0.8818897637795275,"duration":0.13773159166669302},{"name":"D#4","midi":63,"time":729.7228060000028,"velocity":0.8818897637795275,"duration":0.5266207916666872},{"name":"C4","midi":60,"time":730.2783620000029,"velocity":0.8818897637795275,"duration":0.5266207916666872},{"name":"B3","midi":59,"time":730.8339180000029,"velocity":0.8818897637795275,"duration":0.13773159166669302},{"name":"C4","midi":60,"time":731.1116960000029,"velocity":0.8818897637795275,"duration":0.13773159166669302},{"name":"D4","midi":62,"time":731.3894740000029,"velocity":0.8818897637795275,"duration":0.5266207916666872},{"name":"C4","midi":60,"time":731.9450300000029,"velocity":0.8818897637795275,"duration":0.13773159166669302},{"name":"G3","midi":55,"time":732.2228080000029,"velocity":0.8818897637795275,"duration":0.13773159166669302},{"name":"D#3","midi":51,"time":732.500586000003,"velocity":0.8818897637795275,"duration":0.13773159166669302},{"name":"C3","midi":48,"time":732.778364000003,"velocity":0.8818897637795275,"duration":0.13773159166669302},{"name":"D3","midi":50,"time":733.056142000003,"velocity":0.8818897637795275,"duration":0.13773159166669302},{"name":"D#3","midi":51,"time":733.333920000003,"velocity":0.8818897637795275,"duration":0.13773159166669302},{"name":"F#3","midi":54,"time":733.611698000003,"velocity":0.8818897637795275,"duration":0.5266207916666872},{"name":"G3","midi":55,"time":734.167254000003,"velocity":0.8818897637795275,"duration":0.13773159166669302},{"name":"D#3","midi":51,"time":734.445032000003,"velocity":0.8818897637795275,"duration":0.13773159166669302},{"name":"C3","midi":48,"time":734.722810000003,"velocity":0.8818897637795275,"duration":0.13773159166669302},{"name":"G2","midi":43,"time":735.0005880000031,"velocity":0.8818897637795275,"duration":0.13773159166669302},{"name":"B2","midi":47,"time":735.2783660000031,"velocity":0.8818897637795275,"duration":0.13773159166669302},{"name":"C3","midi":48,"time":735.5561440000031,"velocity":0.8818897637795275,"duration":0.13773159166669302},{"name":"D3","midi":50,"time":735.8339220000031,"velocity":0.8818897637795275,"duration":0.5266207916666872},{"name":"C3","midi":48,"time":736.3894780000031,"velocity":0.8818897637795275,"duration":0.2766205916666422},{"name":"C3","midi":48,"time":737.7783680000031,"velocity":0.8818897637795275,"duration":0.13773159166669302},{"name":"G3","midi":55,"time":738.0561460000031,"velocity":0.8818897637795275,"duration":0.13773159166669302},{"name":"C4","midi":60,"time":738.3339240000031,"velocity":0.8818897637795275,"duration":0.13773159166669302},{"name":"D#4","midi":63,"time":738.6117020000031,"velocity":0.8818897637795275,"duration":0.5266207916666872},{"name":"A4","midi":69,"time":739.1672580000031,"velocity":0.8818897637795275,"duration":0.11805564999997387},{"name":"A#4","midi":70,"time":739.2864710583365,"velocity":0.8818897637795275,"duration":0.4120373666667092},{"name":"G4","midi":67,"time":748.0561540000032,"velocity":0.8818897637795275,"duration":0.5266207916666872},{"name":"G5","midi":79,"time":748.0561540000032,"velocity":0.8818897637795275,"duration":0.5266207916666872},{"name":"F#4","midi":66,"time":748.6117100000032,"velocity":0.8818897637795275,"duration":0.13773159166669302},{"name":"F#5","midi":78,"time":748.6117100000032,"velocity":0.8818897637795275,"duration":0.13773159166669302},{"name":"D#4","midi":63,"time":748.8894880000032,"velocity":0.8818897637795275,"duration":0.13773159166669302},{"name":"D#5","midi":75,"time":748.8894880000032,"velocity":0.8818897637795275,"duration":0.13773159166669302},{"name":"F#4","midi":66,"time":749.1672660000032,"velocity":0.8818897637795275,"duration":0.5266207916666872},{"name":"F#5","midi":78,"time":749.1672660000032,"velocity":0.8818897637795275,"duration":0.5266207916666872},{"name":"G4","midi":67,"time":749.7228220000032,"velocity":0.8818897637795275,"duration":0.13773159166669302},{"name":"G5","midi":79,"time":749.7228220000032,"velocity":0.8818897637795275,"duration":0.13773159166669302},{"name":"D#4","midi":63,"time":750.0006000000033,"velocity":0.8818897637795275,"duration":0.13773159166669302},{"name":"D#5","midi":75,"time":750.0006000000033,"velocity":0.8818897637795275,"duration":0.13773159166669302},{"name":"C4","midi":60,"time":750.2783780000033,"velocity":0.8818897637795275,"duration":0.13773159166669302},{"name":"C5","midi":72,"time":750.2783780000033,"velocity":0.8818897637795275,"duration":0.13773159166669302},{"name":"G3","midi":55,"time":750.5561560000033,"velocity":0.8818897637795275,"duration":0.13773159166669302},{"name":"G4","midi":67,"time":750.5561560000033,"velocity":0.8818897637795275,"duration":0.13773159166669302},{"name":"B3","midi":59,"time":750.8339340000033,"velocity":0.8818897637795275,"duration":0.13773159166669302},{"name":"B4","midi":71,"time":750.8339340000033,"velocity":0.8818897637795275,"duration":0.13773159166669302},{"name":"C4","midi":60,"time":751.1117120000033,"velocity":0.8818897637795275,"duration":0.13773159166669302},{"name":"C5","midi":72,"time":751.1117120000033,"velocity":0.8818897637795275,"duration":0.13773159166669302},{"name":"D4","midi":62,"time":751.3894900000033,"velocity":0.8818897637795275,"duration":0.5266207916666872},{"name":"D5","midi":74,"time":751.3894900000033,"velocity":0.8818897637795275,"duration":0.5266207916666872},{"name":"D#4","midi":63,"time":751.9450460000033,"velocity":0.8818897637795275,"duration":0.13773159166669302},{"name":"D#5","midi":75,"time":751.9450460000033,"velocity":0.8818897637795275,"duration":0.13773159166669302},{"name":"C4","midi":60,"time":752.2228240000034,"velocity":0.8818897637795275,"duration":0.13773159166669302},{"name":"C5","midi":72,"time":752.2228240000034,"velocity":0.8818897637795275,"duration":0.13773159166669302},{"name":"G3","midi":55,"time":752.5006020000034,"velocity":0.8818897637795275,"duration":0.13773159166669302},{"name":"G4","midi":67,"time":752.5006020000034,"velocity":0.8818897637795275,"duration":0.13773159166669302},{"name":"D#3","midi":51,"time":752.7783800000034,"velocity":0.8818897637795275,"duration":0.13773159166669302},{"name":"D#4","midi":63,"time":752.7783800000034,"velocity":0.8818897637795275,"duration":0.13773159166669302},{"name":"F#3","midi":54,"time":753.0561580000034,"velocity":0.8818897637795275,"duration":0.13773159166669302},{"name":"F#4","midi":66,"time":753.0561580000034,"velocity":0.8818897637795275,"duration":0.13773159166669302},{"name":"G3","midi":55,"time":753.3339360000034,"velocity":0.8818897637795275,"duration":0.13773159166669302},{"name":"G4","midi":67,"time":753.3339360000034,"velocity":0.8818897637795275,"duration":0.13773159166669302},{"name":"G#3","midi":56,"time":753.6117140000034,"velocity":0.8818897637795275,"duration":0.5266207916666872},{"name":"G#4","midi":68,"time":753.6117140000034,"velocity":0.8818897637795275,"duration":0.5266207916666872},{"name":"G3","midi":55,"time":754.1672700000034,"velocity":0.8818897637795275,"duration":0.2766205916666422},{"name":"G4","midi":67,"time":754.1672700000034,"velocity":0.8818897637795275,"duration":0.2766205916666422},{"name":"D#5","midi":75,"time":756.9450500000034,"velocity":0.8818897637795275,"duration":0.5266207916666872},{"name":"D#6","midi":87,"time":756.9450500000034,"velocity":0.8818897637795275,"duration":0.5266207916666872},{"name":"D5","midi":74,"time":757.5006060000035,"velocity":0.8818897637795275,"duration":0.13773159166669302},{"name":"D6","midi":86,"time":757.5006060000035,"velocity":0.8818897637795275,"duration":0.13773159166669302},{"name":"C5","midi":72,"time":757.7783840000035,"velocity":0.8818897637795275,"duration":0.13773159166669302},{"name":"C6","midi":84,"time":757.7783840000035,"velocity":0.8818897637795275,"duration":0.13773159166669302},{"name":"D5","midi":74,"time":758.0561620000035,"velocity":0.8818897637795275,"duration":0.5266207916666872},{"name":"D6","midi":86,"time":758.0561620000035,"velocity":0.8818897637795275,"duration":0.5266207916666872},{"name":"D#5","midi":75,"time":758.6117180000035,"velocity":0.8818897637795275,"duration":0.13773159166669302},{"name":"D#6","midi":87,"time":758.6117180000035,"velocity":0.8818897637795275,"duration":0.13773159166669302},{"name":"C5","midi":72,"time":758.8894960000035,"velocity":0.8818897637795275,"duration":0.13773159166669302},{"name":"C6","midi":84,"time":758.8894960000035,"velocity":0.8818897637795275,"duration":0.13773159166669302},{"name":"G4","midi":67,"time":759.1672740000035,"velocity":0.8818897637795275,"duration":0.13773159166669302},{"name":"G5","midi":79,"time":759.1672740000035,"velocity":0.8818897637795275,"duration":0.13773159166669302},{"name":"D#4","midi":63,"time":759.4450520000036,"velocity":0.8818897637795275,"duration":0.13773159166669302},{"name":"D#5","midi":75,"time":759.4450520000036,"velocity":0.8818897637795275,"duration":0.13773159166669302},{"name":"F#4","midi":66,"time":759.7228300000036,"velocity":0.8818897637795275,"duration":0.13773159166669302},{"name":"F#5","midi":78,"time":759.7228300000036,"velocity":0.8818897637795275,"duration":0.13773159166669302},{"name":"G4","midi":67,"time":760.0006080000036,"velocity":0.8818897637795275,"duration":0.13773159166669302},{"name":"G5","midi":79,"time":760.0006080000036,"velocity":0.8818897637795275,"duration":0.13773159166669302},{"name":"B4","midi":71,"time":760.2783860000036,"velocity":0.8818897637795275,"duration":0.5266207916666872},{"name":"B5","midi":83,"time":760.2783860000036,"velocity":0.8818897637795275,"duration":0.5266207916666872},{"name":"C5","midi":72,"time":760.8339420000036,"velocity":0.8818897637795275,"duration":0.13773159166669302},{"name":"C6","midi":84,"time":760.8339420000036,"velocity":0.8818897637795275,"duration":0.13773159166669302},{"name":"G4","midi":67,"time":761.1117200000036,"velocity":0.8818897637795275,"duration":0.13773159166669302},{"name":"G5","midi":79,"time":761.1117200000036,"velocity":0.8818897637795275,"duration":0.13773159166669302},{"name":"D#4","midi":63,"time":761.3894980000036,"velocity":0.8818897637795275,"duration":0.13773159166669302},{"name":"D#5","midi":75,"time":761.3894980000036,"velocity":0.8818897637795275,"duration":0.13773159166669302},{"name":"C4","midi":60,"time":761.6672760000037,"velocity":0.8818897637795275,"duration":0.13773159166669302},{"name":"C5","midi":72,"time":761.6672760000037,"velocity":0.8818897637795275,"duration":0.13773159166669302},{"name":"D4","midi":62,"time":761.9450540000037,"velocity":0.8818897637795275,"duration":0.13773159166669302},{"name":"D5","midi":74,"time":761.9450540000037,"velocity":0.8818897637795275,"duration":0.13773159166669302},{"name":"D#4","midi":63,"time":762.2228320000037,"velocity":0.8818897637795275,"duration":0.13773159166669302},{"name":"D#5","midi":75,"time":762.2228320000037,"velocity":0.8818897637795275,"duration":0.13773159166669302},{"name":"F4","midi":65,"time":762.5006100000037,"velocity":0.8818897637795275,"duration":0.5266207916666872},{"name":"F5","midi":77,"time":762.5006100000037,"velocity":0.8818897637795275,"duration":0.5266207916666872},{"name":"D#4","midi":63,"time":763.0561660000037,"velocity":0.8818897637795275,"duration":0.2766205916666422},{"name":"D#5","midi":75,"time":763.0561660000037,"velocity":0.8818897637795275,"duration":0.2766205916666422},{"name":"G5","midi":79,"time":781.9450700000037,"velocity":0.6299212598425197,"duration":1.0543989916666305},{"name":"G6","midi":91,"time":781.9450700000037,"velocity":0.6299212598425197,"duration":1.0543989916666305},{"name":"C5","midi":72,"time":783.0561820000037,"velocity":0.6299212598425197,"duration":0.5266207916666872},{"name":"C6","midi":84,"time":783.0561820000037,"velocity":0.6299212598425197,"duration":0.5266207916666872},{"name":"G5","midi":79,"time":783.6117380000037,"velocity":0.6299212598425197,"duration":0.5266207916666872},{"name":"G6","midi":91,"time":783.6117380000037,"velocity":0.6299212598425197,"duration":0.5266207916666872},{"name":"F#5","midi":78,"time":784.1672940000037,"velocity":0.6299212598425197,"duration":1.0543989916666305},{"name":"F#6","midi":90,"time":784.1672940000037,"velocity":0.6299212598425197,"duration":1.0543989916666305},{"name":"C5","midi":72,"time":785.2784060000037,"velocity":0.6299212598425197,"duration":0.5266207916666872},{"name":"C6","midi":84,"time":785.2784060000037,"velocity":0.6299212598425197,"duration":0.5266207916666872},{"name":"F#5","midi":78,"time":785.8339620000037,"velocity":0.6299212598425197,"duration":0.5266207916666872},{"name":"F#6","midi":90,"time":785.8339620000037,"velocity":0.6299212598425197,"duration":0.5266207916666872},{"name":"F5","midi":77,"time":786.3895180000037,"velocity":0.6299212598425197,"duration":1.0543989916666305},{"name":"F6","midi":89,"time":786.3895180000037,"velocity":0.6299212598425197,"duration":1.0543989916666305},{"name":"C5","midi":72,"time":787.5006300000036,"velocity":0.6299212598425197,"duration":0.5266207916666872},{"name":"C6","midi":84,"time":787.5006300000036,"velocity":0.6299212598425197,"duration":0.5266207916666872},{"name":"F5","midi":77,"time":788.0561860000037,"velocity":0.6299212598425197,"duration":0.5266207916666872},{"name":"F6","midi":89,"time":788.0561860000037,"velocity":0.6299212598425197,"duration":0.5266207916666872},{"name":"D#5","midi":75,"time":788.6117420000037,"velocity":0.6299212598425197,"duration":1.0543989916666305},{"name":"D#6","midi":87,"time":788.6117420000037,"velocity":0.6299212598425197,"duration":1.0543989916666305},{"name":"C5","midi":72,"time":789.7228540000036,"velocity":0.6299212598425197,"duration":0.5266207916666872},{"name":"C6","midi":84,"time":789.7228540000036,"velocity":0.6299212598425197,"duration":0.5266207916666872},{"name":"D#5","midi":75,"time":790.2784100000036,"velocity":0.6299212598425197,"duration":0.5266207916666872},{"name":"D#6","midi":87,"time":790.2784100000036,"velocity":0.6299212598425197,"duration":0.5266207916666872},{"name":"G5","midi":79,"time":790.8339660000037,"velocity":0.6299212598425197,"duration":1.0543989916666305},{"name":"G6","midi":91,"time":790.8339660000037,"velocity":0.6299212598425197,"duration":1.0543989916666305},{"name":"C5","midi":72,"time":791.9450780000036,"velocity":0.6299212598425197,"duration":0.5266207916666872},{"name":"C6","midi":84,"time":791.9450780000036,"velocity":0.6299212598425197,"duration":0.5266207916666872},{"name":"G5","midi":79,"time":792.5006340000036,"velocity":0.6299212598425197,"duration":0.5266207916666872},{"name":"G6","midi":91,"time":792.5006340000036,"velocity":0.6299212598425197,"duration":0.5266207916666872},{"name":"F#5","midi":78,"time":793.0561900000037,"velocity":0.6299212598425197,"duration":1.0543989916666305},{"name":"F#6","midi":90,"time":793.0561900000037,"velocity":0.6299212598425197,"duration":1.0543989916666305},{"name":"C5","midi":72,"time":794.1673020000036,"velocity":0.6299212598425197,"duration":0.5266207916666872},{"name":"C6","midi":84,"time":794.1673020000036,"velocity":0.6299212598425197,"duration":0.5266207916666872},{"name":"F#5","midi":78,"time":794.7228580000036,"velocity":0.6299212598425197,"duration":0.5266207916666872},{"name":"F#6","midi":90,"time":794.7228580000036,"velocity":0.6299212598425197,"duration":0.5266207916666872},{"name":"F5","midi":77,"time":795.2784140000036,"velocity":0.6299212598425197,"duration":1.0543989916666305},{"name":"F6","midi":89,"time":795.2784140000036,"velocity":0.6299212598425197,"duration":1.0543989916666305},{"name":"C5","midi":72,"time":796.3895260000036,"velocity":0.6299212598425197,"duration":0.5266207916666872},{"name":"C6","midi":84,"time":796.3895260000036,"velocity":0.6299212598425197,"duration":0.5266207916666872},{"name":"F5","midi":77,"time":796.9450820000036,"velocity":0.6299212598425197,"duration":0.5266207916666872},{"name":"F6","midi":89,"time":796.9450820000036,"velocity":0.6299212598425197,"duration":0.5266207916666872},{"name":"D#5","midi":75,"time":797.5006380000036,"velocity":0.6299212598425197,"duration":1.0543989916666305},{"name":"D#6","midi":87,"time":797.5006380000036,"velocity":0.6299212598425197,"duration":1.0543989916666305},{"name":"C5","midi":72,"time":798.6117500000036,"velocity":0.6299212598425197,"duration":0.5266207916666872},{"name":"C6","midi":84,"time":798.6117500000036,"velocity":0.6299212598425197,"duration":0.5266207916666872},{"name":"D#5","midi":75,"time":799.1673060000036,"velocity":0.6299212598425197,"duration":0.5266207916666872},{"name":"D#6","midi":87,"time":799.1673060000036,"velocity":0.6299212598425197,"duration":0.5266207916666872},{"name":"G5","midi":79,"time":799.7228620000036,"velocity":0.6299212598425197,"duration":1.0543989916666305},{"name":"G6","midi":91,"time":799.7228620000036,"velocity":0.6299212598425197,"duration":1.0543989916666305},{"name":"C5","midi":72,"time":800.8339740000035,"velocity":0.6299212598425197,"duration":0.5266207916666872},{"name":"C6","midi":84,"time":800.8339740000035,"velocity":0.6299212598425197,"duration":0.5266207916666872},{"name":"G5","midi":79,"time":801.3895300000036,"velocity":0.6299212598425197,"duration":0.5266207916666872},{"name":"G6","midi":91,"time":801.3895300000036,"velocity":0.6299212598425197,"duration":0.5266207916666872},{"name":"F#5","midi":78,"time":801.9450860000036,"velocity":0.6299212598425197,"duration":1.0543989916666305},{"name":"F#6","midi":90,"time":801.9450860000036,"velocity":0.6299212598425197,"duration":1.0543989916666305},{"name":"C5","midi":72,"time":803.0561980000035,"velocity":0.6299212598425197,"duration":0.5266207916666872},{"name":"C6","midi":84,"time":803.0561980000035,"velocity":0.6299212598425197,"duration":0.5266207916666872},{"name":"F#5","midi":78,"time":803.6117540000035,"velocity":0.6299212598425197,"duration":0.5266207916666872},{"name":"F#6","midi":90,"time":803.6117540000035,"velocity":0.6299212598425197,"duration":0.5266207916666872},{"name":"F5","midi":77,"time":804.1673100000036,"velocity":0.6299212598425197,"duration":1.0543989916666305},{"name":"F6","midi":89,"time":804.1673100000036,"velocity":0.6299212598425197,"duration":1.0543989916666305},{"name":"C5","midi":72,"time":805.2784220000035,"velocity":0.6299212598425197,"duration":0.5266207916666872},{"name":"C6","midi":84,"time":805.2784220000035,"velocity":0.6299212598425197,"duration":0.5266207916666872},{"name":"F5","midi":77,"time":805.8339780000035,"velocity":0.6299212598425197,"duration":0.5266207916666872},{"name":"F6","midi":89,"time":805.8339780000035,"velocity":0.6299212598425197,"duration":0.5266207916666872},{"name":"D#5","midi":75,"time":806.3895340000036,"velocity":0.6299212598425197,"duration":1.0543989916666305},{"name":"D#6","midi":87,"time":806.3895340000036,"velocity":0.6299212598425197,"duration":1.0543989916666305},{"name":"C5","midi":72,"time":807.5006460000035,"velocity":0.6299212598425197,"duration":0.5266207916666872},{"name":"C6","midi":84,"time":807.5006460000035,"velocity":0.6299212598425197,"duration":0.5266207916666872},{"name":"D#5","midi":75,"time":808.0562020000035,"velocity":0.6299212598425197,"duration":0.5266207916666872},{"name":"D#6","midi":87,"time":808.0562020000035,"velocity":0.6299212598425197,"duration":0.5266207916666872},{"name":"G5","midi":79,"time":808.6117580000035,"velocity":0.6299212598425197,"duration":1.0543989916666305},{"name":"G6","midi":91,"time":808.6117580000035,"velocity":0.6299212598425197,"duration":1.0543989916666305},{"name":"C5","midi":72,"time":809.7228700000035,"velocity":0.6299212598425197,"duration":0.5266207916666872},{"name":"C6","midi":84,"time":809.7228700000035,"velocity":0.6299212598425197,"duration":0.5266207916666872},{"name":"G5","midi":79,"time":810.2784260000035,"velocity":0.6299212598425197,"duration":0.5266207916666872},{"name":"G6","midi":91,"time":810.2784260000035,"velocity":0.6299212598425197,"duration":0.5266207916666872},{"name":"F#5","midi":78,"time":810.8339820000035,"velocity":0.6299212598425197,"duration":1.0543989916666305},{"name":"F#6","midi":90,"time":810.8339820000035,"velocity":0.6299212598425197,"duration":1.0543989916666305},{"name":"C5","midi":72,"time":811.9450940000035,"velocity":0.6299212598425197,"duration":0.5266207916666872},{"name":"C6","midi":84,"time":811.9450940000035,"velocity":0.6299212598425197,"duration":0.5266207916666872},{"name":"F#5","midi":78,"time":812.5006500000035,"velocity":0.6299212598425197,"duration":0.5266207916666872},{"name":"F#6","midi":90,"time":812.5006500000035,"velocity":0.6299212598425197,"duration":0.5266207916666872},{"name":"F5","midi":77,"time":813.0562060000035,"velocity":0.6299212598425197,"duration":1.0543989916666305},{"name":"F6","midi":89,"time":813.0562060000035,"velocity":0.6299212598425197,"duration":1.0543989916666305},{"name":"C5","midi":72,"time":814.1673180000034,"velocity":0.6299212598425197,"duration":0.5266207916666872},{"name":"C6","midi":84,"time":814.1673180000034,"velocity":0.6299212598425197,"duration":0.5266207916666872},{"name":"F5","midi":77,"time":814.7228740000035,"velocity":0.6299212598425197,"duration":0.5266207916666872},{"name":"F6","midi":89,"time":814.7228740000035,"velocity":0.6299212598425197,"duration":0.5266207916666872},{"name":"D#5","midi":75,"time":815.2784300000035,"velocity":0.6299212598425197,"duration":1.0543989916666305},{"name":"D#6","midi":87,"time":815.2784300000035,"velocity":0.6299212598425197,"duration":1.0543989916666305},{"name":"C5","midi":72,"time":816.3895420000034,"velocity":0.6299212598425197,"duration":0.5266207916666872},{"name":"C6","midi":84,"time":816.3895420000034,"velocity":0.6299212598425197,"duration":0.5266207916666872},{"name":"D#5","midi":75,"time":816.9450980000034,"velocity":0.6299212598425197,"duration":0.5266207916666872},{"name":"D#6","midi":87,"time":816.9450980000034,"velocity":0.6299212598425197,"duration":0.5266207916666872},{"name":"F5","midi":77,"time":817.5006540000035,"velocity":0.6299212598425197,"duration":1.318288091666659},{"name":"F6","midi":89,"time":817.5006540000035,"velocity":0.6299212598425197,"duration":1.318288091666659},{"name":"F5","midi":77,"time":818.8895440000034,"velocity":0.6299212598425197,"duration":0.26273169166665866},{"name":"F6","midi":89,"time":818.8895440000034,"velocity":0.6299212598425197,"duration":0.26273169166665866},{"name":"C5","midi":72,"time":819.1673220000034,"velocity":0.6299212598425197,"duration":0.26273169166665866},{"name":"C6","midi":84,"time":819.1673220000034,"velocity":0.6299212598425197,"duration":0.26273169166665866},{"name":"F5","midi":77,"time":819.4451000000034,"velocity":0.6299212598425197,"duration":0.26273169166665866},{"name":"F6","midi":89,"time":819.4451000000034,"velocity":0.6299212598425197,"duration":0.26273169166665866},{"name":"G5","midi":79,"time":819.7228780000034,"velocity":0.6299212598425197,"duration":1.318288091666659},{"name":"G6","midi":91,"time":819.7228780000034,"velocity":0.6299212598425197,"duration":1.318288091666659},{"name":"G5","midi":79,"time":821.1117680000034,"velocity":0.6299212598425197,"duration":0.26273169166665866},{"name":"G6","midi":91,"time":821.1117680000034,"velocity":0.6299212598425197,"duration":0.26273169166665866},{"name":"D5","midi":74,"time":821.3895460000034,"velocity":0.6299212598425197,"duration":0.26273169166665866},{"name":"D6","midi":86,"time":821.3895460000034,"velocity":0.6299212598425197,"duration":0.26273169166665866},{"name":"G5","midi":79,"time":821.6673240000034,"velocity":0.6299212598425197,"duration":0.26273169166665866},{"name":"G6","midi":91,"time":821.6673240000034,"velocity":0.6299212598425197,"duration":0.26273169166665866},{"name":"G#5","midi":80,"time":821.9451020000034,"velocity":0.6299212598425197,"duration":1.318288091666659},{"name":"G#6","midi":92,"time":821.9451020000034,"velocity":0.6299212598425197,"duration":1.318288091666659},{"name":"G#5","midi":80,"time":823.3339920000034,"velocity":0.6299212598425197,"duration":0.26273169166665866},{"name":"G#6","midi":92,"time":823.3339920000034,"velocity":0.6299212598425197,"duration":0.26273169166665866},{"name":"D5","midi":74,"time":823.6117700000034,"velocity":0.6299212598425197,"duration":0.26273169166665866},{"name":"D6","midi":86,"time":823.6117700000034,"velocity":0.6299212598425197,"duration":0.26273169166665866},{"name":"G#5","midi":80,"time":823.8895480000034,"velocity":0.6299212598425197,"duration":0.26273169166665866},{"name":"G#6","midi":92,"time":823.8895480000034,"velocity":0.6299212598425197,"duration":0.26273169166665866},{"name":"G5","midi":79,"time":824.1673260000034,"velocity":0.6299212598425197,"duration":1.318288091666659},{"name":"G6","midi":91,"time":824.1673260000034,"velocity":0.6299212598425197,"duration":1.318288091666659},{"name":"G5","midi":79,"time":825.5562160000034,"velocity":0.6299212598425197,"duration":0.26273169166665866},{"name":"G6","midi":91,"time":825.5562160000034,"velocity":0.6299212598425197,"duration":0.26273169166665866},{"name":"D5","midi":74,"time":825.8339940000034,"velocity":0.6299212598425197,"duration":0.26273169166665866},{"name":"D6","midi":86,"time":825.8339940000034,"velocity":0.6299212598425197,"duration":0.26273169166665866},{"name":"G5","midi":79,"time":826.1117720000034,"velocity":0.6299212598425197,"duration":0.26273169166665866},{"name":"G6","midi":91,"time":826.1117720000034,"velocity":0.6299212598425197,"duration":0.26273169166665866},{"name":"F5","midi":77,"time":826.3895500000034,"velocity":0.6299212598425197,"duration":1.318288091666659},{"name":"F6","midi":89,"time":826.3895500000034,"velocity":0.6299212598425197,"duration":1.318288091666659},{"name":"F5","midi":77,"time":827.7784400000033,"velocity":0.6299212598425197,"duration":0.26273169166665866},{"name":"F6","midi":89,"time":827.7784400000033,"velocity":0.6299212598425197,"duration":0.26273169166665866},{"name":"C5","midi":72,"time":828.0562180000034,"velocity":0.6299212598425197,"duration":0.26273169166665866},{"name":"C6","midi":84,"time":828.0562180000034,"velocity":0.6299212598425197,"duration":0.26273169166665866},{"name":"F5","midi":77,"time":828.3339960000034,"velocity":0.6299212598425197,"duration":0.26273169166665866},{"name":"F6","midi":89,"time":828.3339960000034,"velocity":0.6299212598425197,"duration":0.26273169166665866},{"name":"G5","midi":79,"time":828.6117740000034,"velocity":0.6299212598425197,"duration":1.318288091666659},{"name":"G6","midi":91,"time":828.6117740000034,"velocity":0.6299212598425197,"duration":1.318288091666659},{"name":"G5","midi":79,"time":830.0006640000033,"velocity":0.6299212598425197,"duration":0.26273169166665866},{"name":"G6","midi":91,"time":830.0006640000033,"velocity":0.6299212598425197,"duration":0.26273169166665866},{"name":"D5","midi":74,"time":830.2784420000033,"velocity":0.6299212598425197,"duration":0.26273169166665866},{"name":"D6","midi":86,"time":830.2784420000033,"velocity":0.6299212598425197,"duration":0.26273169166665866},{"name":"G5","midi":79,"time":830.5562200000033,"velocity":0.6299212598425197,"duration":0.26273169166665866},{"name":"G6","midi":91,"time":830.5562200000033,"velocity":0.6299212598425197,"duration":0.26273169166665866},{"name":"G#5","midi":80,"time":830.8339980000034,"velocity":0.6299212598425197,"duration":1.318288091666659},{"name":"G#6","midi":92,"time":830.8339980000034,"velocity":0.6299212598425197,"duration":1.318288091666659},{"name":"G#5","midi":80,"time":832.2228880000033,"velocity":0.6299212598425197,"duration":0.26273169166665866},{"name":"G#6","midi":92,"time":832.2228880000033,"velocity":0.6299212598425197,"duration":0.26273169166665866},{"name":"D5","midi":74,"time":832.5006660000033,"velocity":0.6299212598425197,"duration":0.26273169166665866},{"name":"D6","midi":86,"time":832.5006660000033,"velocity":0.6299212598425197,"duration":0.26273169166665866},{"name":"G#5","midi":80,"time":832.7784440000033,"velocity":0.6299212598425197,"duration":0.26273169166665866},{"name":"G#6","midi":92,"time":832.7784440000033,"velocity":0.6299212598425197,"duration":0.26273169166665866},{"name":"B5","midi":83,"time":833.0562220000033,"velocity":0.6299212598425197,"duration":1.318288091666659},{"name":"B6","midi":95,"time":833.0562220000033,"velocity":0.6299212598425197,"duration":1.318288091666659},{"name":"B5","midi":83,"time":834.4451120000033,"velocity":0.6299212598425197,"duration":0.26273169166665866},{"name":"B6","midi":95,"time":834.4451120000033,"velocity":0.6299212598425197,"duration":0.26273169166665866},{"name":"G5","midi":79,"time":834.7228900000033,"velocity":0.6299212598425197,"duration":0.26273169166665866},{"name":"G6","midi":91,"time":834.7228900000033,"velocity":0.6299212598425197,"duration":0.26273169166665866},{"name":"B5","midi":83,"time":835.0006680000033,"velocity":0.6299212598425197,"duration":0.26273169166665866},{"name":"B6","midi":95,"time":835.0006680000033,"velocity":0.6299212598425197,"duration":0.26273169166665866},{"name":"G5","midi":79,"time":895.2784940000033,"velocity":0.7559055118110236,"duration":1.0543989916666305},{"name":"G6","midi":91,"time":895.2784940000033,"velocity":0.7559055118110236,"duration":1.0543989916666305},{"name":"C5","midi":72,"time":896.3896060000033,"velocity":0.7559055118110236,"duration":0.5266207916666872},{"name":"C6","midi":84,"time":896.3896060000033,"velocity":0.7559055118110236,"duration":0.5266207916666872},{"name":"G5","midi":79,"time":896.9451620000033,"velocity":0.7559055118110236,"duration":0.5266207916666872},{"name":"G6","midi":91,"time":896.9451620000033,"velocity":0.7559055118110236,"duration":0.5266207916666872},{"name":"F#5","midi":78,"time":897.5007180000033,"velocity":0.7559055118110236,"duration":1.0543989916666305},{"name":"F#6","midi":90,"time":897.5007180000033,"velocity":0.7559055118110236,"duration":1.0543989916666305},{"name":"C5","midi":72,"time":898.6118300000032,"velocity":0.7559055118110236,"duration":0.5266207916666872},{"name":"C6","midi":84,"time":898.6118300000032,"velocity":0.7559055118110236,"duration":0.5266207916666872},{"name":"F#5","midi":78,"time":899.1673860000033,"velocity":0.7559055118110236,"duration":0.5266207916666872},{"name":"F#6","midi":90,"time":899.1673860000033,"velocity":0.7559055118110236,"duration":0.5266207916666872},{"name":"F5","midi":77,"time":899.7229420000033,"velocity":0.7559055118110236,"duration":1.0543989916666305},{"name":"F6","midi":89,"time":899.7229420000033,"velocity":0.7559055118110236,"duration":1.0543989916666305},{"name":"C5","midi":72,"time":900.8340540000032,"velocity":0.7559055118110236,"duration":0.5266207916666872},{"name":"C6","midi":84,"time":900.8340540000032,"velocity":0.7559055118110236,"duration":0.5266207916666872},{"name":"F5","midi":77,"time":901.3896100000032,"velocity":0.7559055118110236,"duration":0.5266207916666872},{"name":"F6","midi":89,"time":901.3896100000032,"velocity":0.7559055118110236,"duration":0.5266207916666872},{"name":"D#5","midi":75,"time":901.9451660000033,"velocity":0.7559055118110236,"duration":1.0543989916666305},{"name":"D#6","midi":87,"time":901.9451660000033,"velocity":0.7559055118110236,"duration":1.0543989916666305},{"name":"C5","midi":72,"time":903.0562780000032,"velocity":0.7559055118110236,"duration":0.5266207916666872},{"name":"C6","midi":84,"time":903.0562780000032,"velocity":0.7559055118110236,"duration":0.5266207916666872},{"name":"D#5","midi":75,"time":903.6118340000032,"velocity":0.7559055118110236,"duration":0.5266207916666872},{"name":"D#6","midi":87,"time":903.6118340000032,"velocity":0.7559055118110236,"duration":0.5266207916666872},{"name":"G5","midi":79,"time":904.1673900000033,"velocity":0.7559055118110236,"duration":1.0543989916666305},{"name":"G6","midi":91,"time":904.1673900000033,"velocity":0.7559055118110236,"duration":1.0543989916666305},{"name":"C5","midi":72,"time":905.2785020000032,"velocity":0.7559055118110236,"duration":0.5266207916666872},{"name":"C6","midi":84,"time":905.2785020000032,"velocity":0.7559055118110236,"duration":0.5266207916666872},{"name":"G5","midi":79,"time":905.8340580000032,"velocity":0.7559055118110236,"duration":0.5266207916666872},{"name":"G6","midi":91,"time":905.8340580000032,"velocity":0.7559055118110236,"duration":0.5266207916666872},{"name":"F#5","midi":78,"time":906.3896140000032,"velocity":0.7559055118110236,"duration":1.0543989916666305},{"name":"F#6","midi":90,"time":906.3896140000032,"velocity":0.7559055118110236,"duration":1.0543989916666305},{"name":"C5","midi":72,"time":907.5007260000032,"velocity":0.7559055118110236,"duration":0.5266207916666872},{"name":"C6","midi":84,"time":907.5007260000032,"velocity":0.7559055118110236,"duration":0.5266207916666872},{"name":"F#5","midi":78,"time":908.0562820000032,"velocity":0.7559055118110236,"duration":0.5266207916666872},{"name":"F#6","midi":90,"time":908.0562820000032,"velocity":0.7559055118110236,"duration":0.5266207916666872},{"name":"F5","midi":77,"time":908.6118380000032,"velocity":0.7559055118110236,"duration":1.0543989916666305},{"name":"F6","midi":89,"time":908.6118380000032,"velocity":0.7559055118110236,"duration":1.0543989916666305},{"name":"C5","midi":72,"time":909.7229500000032,"velocity":0.7559055118110236,"duration":0.5266207916666872},{"name":"C6","midi":84,"time":909.7229500000032,"velocity":0.7559055118110236,"duration":0.5266207916666872},{"name":"F5","midi":77,"time":910.2785060000032,"velocity":0.7559055118110236,"duration":0.5266207916666872},{"name":"F6","midi":89,"time":910.2785060000032,"velocity":0.7559055118110236,"duration":0.5266207916666872},{"name":"D#5","midi":75,"time":910.8340620000032,"velocity":0.7559055118110236,"duration":1.0543989916666305},{"name":"D#6","midi":87,"time":910.8340620000032,"velocity":0.7559055118110236,"duration":1.0543989916666305},{"name":"C5","midi":72,"time":911.9451740000031,"velocity":0.7559055118110236,"duration":0.5266207916666872},{"name":"C6","midi":84,"time":911.9451740000031,"velocity":0.7559055118110236,"duration":0.5266207916666872},{"name":"D#5","midi":75,"time":912.5007300000032,"velocity":0.7559055118110236,"duration":0.5266207916666872},{"name":"D#6","midi":87,"time":912.5007300000032,"velocity":0.7559055118110236,"duration":0.5266207916666872},{"name":"G5","midi":79,"time":913.0562860000032,"velocity":0.7559055118110236,"duration":1.0543989916666305},{"name":"G6","midi":91,"time":913.0562860000032,"velocity":0.7559055118110236,"duration":1.0543989916666305},{"name":"C5","midi":72,"time":914.1673980000031,"velocity":0.7559055118110236,"duration":0.5266207916666872},{"name":"C6","midi":84,"time":914.1673980000031,"velocity":0.7559055118110236,"duration":0.5266207916666872},{"name":"G5","midi":79,"time":914.7229540000031,"velocity":0.7559055118110236,"duration":0.5266207916666872},{"name":"G6","midi":91,"time":914.7229540000031,"velocity":0.7559055118110236,"duration":0.5266207916666872},{"name":"F#5","midi":78,"time":915.2785100000032,"velocity":0.7559055118110236,"duration":1.0543989916666305},{"name":"F#6","midi":90,"time":915.2785100000032,"velocity":0.7559055118110236,"duration":1.0543989916666305},{"name":"C5","midi":72,"time":916.3896220000031,"velocity":0.7559055118110236,"duration":0.5266207916666872},{"name":"C6","midi":84,"time":916.3896220000031,"velocity":0.7559055118110236,"duration":0.5266207916666872},{"name":"F#5","midi":78,"time":916.9451780000031,"velocity":0.7559055118110236,"duration":0.5266207916666872},{"name":"F#6","midi":90,"time":916.9451780000031,"velocity":0.7559055118110236,"duration":0.5266207916666872},{"name":"F5","midi":77,"time":917.5007340000031,"velocity":0.7559055118110236,"duration":1.0543989916666305},{"name":"F6","midi":89,"time":917.5007340000031,"velocity":0.7559055118110236,"duration":1.0543989916666305},{"name":"C5","midi":72,"time":918.6118460000031,"velocity":0.7559055118110236,"duration":0.5266207916666872},{"name":"C6","midi":84,"time":918.6118460000031,"velocity":0.7559055118110236,"duration":0.5266207916666872},{"name":"F5","midi":77,"time":919.1674020000031,"velocity":0.7559055118110236,"duration":0.5266207916666872},{"name":"F6","midi":89,"time":919.1674020000031,"velocity":0.7559055118110236,"duration":0.5266207916666872},{"name":"D#5","midi":75,"time":919.7229580000031,"velocity":0.7559055118110236,"duration":1.0543989916666305},{"name":"D#6","midi":87,"time":919.7229580000031,"velocity":0.7559055118110236,"duration":1.0543989916666305},{"name":"C5","midi":72,"time":920.8340700000031,"velocity":0.7559055118110236,"duration":0.5266207916666872},{"name":"C6","midi":84,"time":920.8340700000031,"velocity":0.7559055118110236,"duration":0.5266207916666872},{"name":"D#5","midi":75,"time":921.3896260000031,"velocity":0.7559055118110236,"duration":0.5266207916666872},{"name":"D#6","midi":87,"time":921.3896260000031,"velocity":0.7559055118110236,"duration":0.5266207916666872},{"name":"G5","midi":79,"time":921.9451820000031,"velocity":0.7559055118110236,"duration":1.0543989916666305},{"name":"G6","midi":91,"time":921.9451820000031,"velocity":0.7559055118110236,"duration":1.0543989916666305},{"name":"C5","midi":72,"time":923.056294000003,"velocity":0.7559055118110236,"duration":0.5266207916666872},{"name":"C6","midi":84,"time":923.056294000003,"velocity":0.7559055118110236,"duration":0.5266207916666872},{"name":"G5","midi":79,"time":923.6118500000031,"velocity":0.7559055118110236,"duration":0.5266207916666872},{"name":"G6","midi":91,"time":923.6118500000031,"velocity":0.7559055118110236,"duration":0.5266207916666872},{"name":"F#5","midi":78,"time":924.1674060000031,"velocity":0.7559055118110236,"duration":1.0543989916666305},{"name":"F#6","midi":90,"time":924.1674060000031,"velocity":0.7559055118110236,"duration":1.0543989916666305},{"name":"C5","midi":72,"time":925.278518000003,"velocity":0.7559055118110236,"duration":0.5266207916666872},{"name":"C6","midi":84,"time":925.278518000003,"velocity":0.7559055118110236,"duration":0.5266207916666872},{"name":"F#5","midi":78,"time":925.834074000003,"velocity":0.7559055118110236,"duration":0.5266207916666872},{"name":"F#6","midi":90,"time":925.834074000003,"velocity":0.7559055118110236,"duration":0.5266207916666872},{"name":"F5","midi":77,"time":926.3896300000031,"velocity":0.7559055118110236,"duration":1.0543989916666305},{"name":"F6","midi":89,"time":926.3896300000031,"velocity":0.7559055118110236,"duration":1.0543989916666305},{"name":"C5","midi":72,"time":927.500742000003,"velocity":0.7559055118110236,"duration":0.5266207916666872},{"name":"C6","midi":84,"time":927.500742000003,"velocity":0.7559055118110236,"duration":0.5266207916666872},{"name":"F5","midi":77,"time":928.056298000003,"velocity":0.7559055118110236,"duration":0.5266207916666872},{"name":"F6","midi":89,"time":928.056298000003,"velocity":0.7559055118110236,"duration":0.5266207916666872},{"name":"D#5","midi":75,"time":928.6118540000031,"velocity":0.7559055118110236,"duration":1.0543989916666305},{"name":"D#6","midi":87,"time":928.6118540000031,"velocity":0.7559055118110236,"duration":1.0543989916666305},{"name":"C5","midi":72,"time":929.722966000003,"velocity":0.7559055118110236,"duration":0.5266207916666872},{"name":"C6","midi":84,"time":929.722966000003,"velocity":0.7559055118110236,"duration":0.5266207916666872},{"name":"D#5","midi":75,"time":930.278522000003,"velocity":0.7559055118110236,"duration":0.5266207916666872},{"name":"D#6","midi":87,"time":930.278522000003,"velocity":0.7559055118110236,"duration":0.5266207916666872},{"name":"C2","midi":36,"time":933.056302000003,"velocity":0.6299212598425197,"duration":0.26273169166665866},{"name":"C3","midi":48,"time":933.056302000003,"velocity":0.6299212598425197,"duration":0.26273169166665866},{"name":"C2","midi":36,"time":933.611858000003,"velocity":0.6299212598425197,"duration":0.26273169166665866},{"name":"C3","midi":48,"time":933.611858000003,"velocity":0.6299212598425197,"duration":0.26273169166665866},{"name":"C2","midi":36,"time":934.1674140000031,"velocity":0.6299212598425197,"duration":0.26273169166665866},{"name":"C3","midi":48,"time":934.1674140000031,"velocity":0.6299212598425197,"duration":0.26273169166665866},{"name":"C2","midi":36,"time":934.7229700000031,"velocity":0.6299212598425197,"duration":0.26273169166665866},{"name":"C3","midi":48,"time":934.7229700000031,"velocity":0.6299212598425197,"duration":0.26273169166665866},{"name":"C2","midi":36,"time":935.2785260000031,"velocity":0.6299212598425197,"duration":0.26273169166665866},{"name":"C3","midi":48,"time":935.2785260000031,"velocity":0.6299212598425197,"duration":0.26273169166665866},{"name":"C2","midi":36,"time":935.8340820000031,"velocity":0.6299212598425197,"duration":0.26273169166665866},{"name":"C3","midi":48,"time":935.8340820000031,"velocity":0.6299212598425197,"duration":0.26273169166665866},{"name":"C2","midi":36,"time":936.3896380000032,"velocity":0.6299212598425197,"duration":0.26273169166665866},{"name":"C3","midi":48,"time":936.3896380000032,"velocity":0.6299212598425197,"duration":0.26273169166665866},{"name":"C2","midi":36,"time":936.9451940000032,"velocity":0.6299212598425197,"duration":0.26273169166665866},{"name":"C3","midi":48,"time":936.9451940000032,"velocity":0.6299212598425197,"duration":0.26273169166665866},{"name":"C2","midi":36,"time":937.5007500000032,"velocity":0.6299212598425197,"duration":0.26273169166665866},{"name":"C3","midi":48,"time":937.5007500000032,"velocity":0.6299212598425197,"duration":0.26273169166665866},{"name":"C2","midi":36,"time":938.0563060000032,"velocity":0.6299212598425197,"duration":0.26273169166665866},{"name":"C3","midi":48,"time":938.0563060000032,"velocity":0.6299212598425197,"duration":0.26273169166665866},{"name":"C2","midi":36,"time":938.6118620000033,"velocity":0.6299212598425197,"duration":0.26273169166665866},{"name":"C3","midi":48,"time":938.6118620000033,"velocity":0.6299212598425197,"duration":0.26273169166665866},{"name":"C2","midi":36,"time":939.1674180000033,"velocity":0.6299212598425197,"duration":0.26273169166665866},{"name":"C3","midi":48,"time":939.1674180000033,"velocity":0.6299212598425197,"duration":0.26273169166665866},{"name":"C2","midi":36,"time":939.7229740000033,"velocity":0.6299212598425197,"duration":0.26273169166665866},{"name":"C3","midi":48,"time":939.7229740000033,"velocity":0.6299212598425197,"duration":0.26273169166665866},{"name":"C2","midi":36,"time":940.2785300000033,"velocity":0.6299212598425197,"duration":0.26273169166665866},{"name":"C3","midi":48,"time":940.2785300000033,"velocity":0.6299212598425197,"duration":0.26273169166665866},{"name":"C2","midi":36,"time":940.8340860000034,"velocity":0.6299212598425197,"duration":0.26273169166665866},{"name":"C3","midi":48,"time":940.8340860000034,"velocity":0.6299212598425197,"duration":0.26273169166665866},{"name":"C2","midi":36,"time":941.3896420000034,"velocity":0.6299212598425197,"duration":0.26273169166665866},{"name":"C3","midi":48,"time":941.3896420000034,"velocity":0.6299212598425197,"duration":0.26273169166665866},{"name":"C2","midi":36,"time":941.9451980000034,"velocity":0.6299212598425197,"duration":0.26273169166665866},{"name":"C3","midi":48,"time":941.9451980000034,"velocity":0.6299212598425197,"duration":0.26273169166665866},{"name":"C2","midi":36,"time":942.5007540000034,"velocity":0.6299212598425197,"duration":0.26273169166665866},{"name":"C3","midi":48,"time":942.5007540000034,"velocity":0.6299212598425197,"duration":0.26273169166665866},{"name":"C2","midi":36,"time":943.0563100000035,"velocity":0.6299212598425197,"duration":0.26273169166665866},{"name":"C3","midi":48,"time":943.0563100000035,"velocity":0.6299212598425197,"duration":0.26273169166665866},{"name":"C2","midi":36,"time":943.6118660000035,"velocity":0.6299212598425197,"duration":0.26273169166665866},{"name":"C3","midi":48,"time":943.6118660000035,"velocity":0.6299212598425197,"duration":0.26273169166665866},{"name":"C2","midi":36,"time":944.1674220000035,"velocity":0.6299212598425197,"duration":0.26273169166665866},{"name":"C3","midi":48,"time":944.1674220000035,"velocity":0.6299212598425197,"duration":0.26273169166665866},{"name":"C2","midi":36,"time":944.7229780000035,"velocity":0.6299212598425197,"duration":0.26273169166665866},{"name":"C3","midi":48,"time":944.7229780000035,"velocity":0.6299212598425197,"duration":0.26273169166665866},{"name":"C2","midi":36,"time":945.2785340000036,"velocity":0.6299212598425197,"duration":0.26273169166665866},{"name":"C3","midi":48,"time":945.2785340000036,"velocity":0.6299212598425197,"duration":0.26273169166665866},{"name":"C2","midi":36,"time":945.8340900000036,"velocity":0.6299212598425197,"duration":0.26273169166665866},{"name":"C3","midi":48,"time":945.8340900000036,"velocity":0.6299212598425197,"duration":0.26273169166665866},{"name":"C2","midi":36,"time":946.3896460000036,"velocity":0.6299212598425197,"duration":0.26273169166665866},{"name":"C3","midi":48,"time":946.3896460000036,"velocity":0.6299212598425197,"duration":0.26273169166665866},{"name":"C2","midi":36,"time":946.9452020000036,"velocity":0.6299212598425197,"duration":0.26273169166665866},{"name":"C3","midi":48,"time":946.9452020000036,"velocity":0.6299212598425197,"duration":0.26273169166665866},{"name":"C2","midi":36,"time":947.5007580000037,"velocity":0.6299212598425197,"duration":0.26273169166665866},{"name":"C3","midi":48,"time":947.5007580000037,"velocity":0.6299212598425197,"duration":0.26273169166665866},{"name":"C2","midi":36,"time":948.0563140000037,"velocity":0.6299212598425197,"duration":0.26273169166665866},{"name":"C3","midi":48,"time":948.0563140000037,"velocity":0.6299212598425197,"duration":0.26273169166665866},{"name":"C2","midi":36,"time":948.6118700000037,"velocity":0.6299212598425197,"duration":0.26273169166665866},{"name":"C3","midi":48,"time":948.6118700000037,"velocity":0.6299212598425197,"duration":0.26273169166665866},{"name":"C2","midi":36,"time":949.1674260000037,"velocity":0.6299212598425197,"duration":0.26273169166665866},{"name":"C3","midi":48,"time":949.1674260000037,"velocity":0.6299212598425197,"duration":0.26273169166665866},{"name":"C2","midi":36,"time":949.7229820000038,"velocity":0.6299212598425197,"duration":0.26273169166665866},{"name":"C3","midi":48,"time":949.7229820000038,"velocity":0.6299212598425197,"duration":0.26273169166665866},{"name":"C2","midi":36,"time":950.2785380000038,"velocity":0.6299212598425197,"duration":0.26273169166665866},{"name":"C3","midi":48,"time":950.2785380000038,"velocity":0.6299212598425197,"duration":0.26273169166665866},{"name":"C2","midi":36,"time":950.8340940000038,"velocity":0.6299212598425197,"duration":0.26273169166665866},{"name":"C3","midi":48,"time":950.8340940000038,"velocity":0.6299212598425197,"duration":0.26273169166665866},{"name":"C2","midi":36,"time":951.3896500000038,"velocity":0.6299212598425197,"duration":0.26273169166665866},{"name":"C3","midi":48,"time":951.3896500000038,"velocity":0.6299212598425197,"duration":0.26273169166665866},{"name":"C2","midi":36,"time":951.9452060000039,"velocity":0.6299212598425197,"duration":0.26273169166665866},{"name":"C3","midi":48,"time":951.9452060000039,"velocity":0.6299212598425197,"duration":0.26273169166665866},{"name":"C2","midi":36,"time":952.5007620000039,"velocity":0.6299212598425197,"duration":0.26273169166665866},{"name":"C3","midi":48,"time":952.5007620000039,"velocity":0.6299212598425197,"duration":0.26273169166665866},{"name":"C2","midi":36,"time":953.0563180000039,"velocity":0.6299212598425197,"duration":0.26273169166665866},{"name":"C3","midi":48,"time":953.0563180000039,"velocity":0.6299212598425197,"duration":0.26273169166665866},{"name":"C2","midi":36,"time":953.6118740000039,"velocity":0.6299212598425197,"duration":0.26273169166665866},{"name":"C3","midi":48,"time":953.6118740000039,"velocity":0.6299212598425197,"duration":0.26273169166665866},{"name":"C2","midi":36,"time":954.167430000004,"velocity":0.6299212598425197,"duration":0.26273169166665866},{"name":"C3","midi":48,"time":954.167430000004,"velocity":0.6299212598425197,"duration":0.26273169166665866},{"name":"C2","midi":36,"time":954.722986000004,"velocity":0.6299212598425197,"duration":0.26273169166665866},{"name":"C3","midi":48,"time":954.722986000004,"velocity":0.6299212598425197,"duration":0.26273169166665866},{"name":"C2","midi":36,"time":955.278542000004,"velocity":0.6299212598425197,"duration":0.26273169166665866},{"name":"C3","midi":48,"time":955.278542000004,"velocity":0.6299212598425197,"duration":0.26273169166665866},{"name":"C2","midi":36,"time":955.834098000004,"velocity":0.6299212598425197,"duration":0.26273169166665866},{"name":"C3","midi":48,"time":955.834098000004,"velocity":0.6299212598425197,"duration":0.26273169166665866},{"name":"C2","midi":36,"time":956.389654000004,"velocity":0.6299212598425197,"duration":0.26273169166665866},{"name":"C3","midi":48,"time":956.389654000004,"velocity":0.6299212598425197,"duration":0.26273169166665866},{"name":"C2","midi":36,"time":956.9452100000041,"velocity":0.6299212598425197,"duration":0.26273169166665866},{"name":"C3","midi":48,"time":956.9452100000041,"velocity":0.6299212598425197,"duration":0.26273169166665866},{"name":"C2","midi":36,"time":957.5007660000041,"velocity":0.6299212598425197,"duration":0.26273169166665866},{"name":"C3","midi":48,"time":957.5007660000041,"velocity":0.6299212598425197,"duration":0.26273169166665866},{"name":"C2","midi":36,"time":958.0563220000041,"velocity":0.6299212598425197,"duration":0.26273169166665866},{"name":"C3","midi":48,"time":958.0563220000041,"velocity":0.6299212598425197,"duration":0.26273169166665866},{"name":"C2","midi":36,"time":958.6118780000041,"velocity":0.6299212598425197,"duration":0.26273169166665866},{"name":"C3","midi":48,"time":958.6118780000041,"velocity":0.6299212598425197,"duration":0.26273169166665866},{"name":"C2","midi":36,"time":959.1674340000042,"velocity":0.6299212598425197,"duration":0.26273169166665866},{"name":"C3","midi":48,"time":959.1674340000042,"velocity":0.6299212598425197,"duration":0.26273169166665866},{"name":"G#1","midi":32,"time":971.1118880000041,"velocity":0.8818897637795275,"duration":0.26273169166665866},{"name":"G#2","midi":44,"time":971.1118880000041,"velocity":0.8818897637795275,"duration":0.26273169166665866},{"name":"G#1","midi":32,"time":971.3896660000041,"velocity":0.8818897637795275,"duration":0.26273169166665866},{"name":"G#2","midi":44,"time":971.3896660000041,"velocity":0.8818897637795275,"duration":0.26273169166665866},{"name":"G#1","midi":32,"time":971.6674440000041,"velocity":0.8818897637795275,"duration":0.26273169166665866},{"name":"G#2","midi":44,"time":971.6674440000041,"velocity":0.8818897637795275,"duration":0.26273169166665866},{"name":"G#1","midi":32,"time":971.9452220000042,"velocity":0.8818897637795275,"duration":0.26273169166665866},{"name":"G#2","midi":44,"time":971.9452220000042,"velocity":0.8818897637795275,"duration":0.26273169166665866},{"name":"G#1","midi":32,"time":972.2230000000042,"velocity":0.8818897637795275,"duration":0.26273169166665866},{"name":"G#2","midi":44,"time":972.2230000000042,"velocity":0.8818897637795275,"duration":0.26273169166665866},{"name":"G#2","midi":44,"time":972.5007780000042,"velocity":0.8818897637795275,"duration":0.26273169166665866},{"name":"G#3","midi":56,"time":972.5007780000042,"velocity":0.8818897637795275,"duration":0.26273169166665866},{"name":"G#1","midi":32,"time":972.7785560000042,"velocity":0.8818897637795275,"duration":0.26273169166665866},{"name":"G#2","midi":44,"time":972.7785560000042,"velocity":0.8818897637795275,"duration":0.26273169166665866},{"name":"A#1","midi":34,"time":975.5563360000042,"velocity":0.8818897637795275,"duration":0.26273169166665866},{"name":"A#2","midi":46,"time":975.5563360000042,"velocity":0.8818897637795275,"duration":0.26273169166665866},{"name":"A#1","midi":34,"time":975.8341140000042,"velocity":0.8818897637795275,"duration":0.26273169166665866},{"name":"A#2","midi":46,"time":975.8341140000042,"velocity":0.8818897637795275,"duration":0.26273169166665866},{"name":"A#1","midi":34,"time":976.1118920000042,"velocity":0.8818897637795275,"duration":0.26273169166665866},{"name":"A#2","midi":46,"time":976.1118920000042,"velocity":0.8818897637795275,"duration":0.26273169166665866},{"name":"A#1","midi":34,"time":976.3896700000042,"velocity":0.8818897637795275,"duration":0.26273169166665866},{"name":"A#2","midi":46,"time":976.3896700000042,"velocity":0.8818897637795275,"duration":0.26273169166665866},{"name":"A#1","midi":34,"time":976.6674480000042,"velocity":0.8818897637795275,"duration":0.26273169166665866},{"name":"A#2","midi":46,"time":976.6674480000042,"velocity":0.8818897637795275,"duration":0.26273169166665866},{"name":"A#2","midi":46,"time":976.9452260000043,"velocity":0.8818897637795275,"duration":0.26273169166665866},{"name":"A#3","midi":58,"time":976.9452260000043,"velocity":0.8818897637795275,"duration":0.26273169166665866},{"name":"A#1","midi":34,"time":977.2230040000043,"velocity":0.8818897637795275,"duration":0.26273169166665866},{"name":"A#2","midi":46,"time":977.2230040000043,"velocity":0.8818897637795275,"duration":0.26273169166665866},{"name":"C2","midi":36,"time":977.7785600000043,"velocity":0.8818897637795275,"duration":0.26273169166665866},{"name":"C3","midi":48,"time":977.7785600000043,"velocity":0.8818897637795275,"duration":0.26273169166665866},{"name":"C2","midi":36,"time":978.0563380000043,"velocity":0.8818897637795275,"duration":0.26273169166665866},{"name":"C3","midi":48,"time":978.0563380000043,"velocity":0.8818897637795275,"duration":0.26273169166665866},{"name":"C2","midi":36,"time":978.3341160000043,"velocity":0.8818897637795275,"duration":0.26273169166665866},{"name":"C3","midi":48,"time":978.3341160000043,"velocity":0.8818897637795275,"duration":0.26273169166665866},{"name":"C2","midi":36,"time":978.6118940000043,"velocity":0.8818897637795275,"duration":0.26273169166665866},{"name":"C3","midi":48,"time":978.6118940000043,"velocity":0.8818897637795275,"duration":0.26273169166665866},{"name":"C2","midi":36,"time":978.8896720000043,"velocity":0.8818897637795275,"duration":0.26273169166665866},{"name":"C3","midi":48,"time":978.8896720000043,"velocity":0.8818897637795275,"duration":0.26273169166665866},{"name":"C3","midi":48,"time":979.1674500000044,"velocity":0.8818897637795275,"duration":0.26273169166665866},{"name":"C4","midi":60,"time":979.1674500000044,"velocity":0.8818897637795275,"duration":0.26273169166665866},{"name":"C2","midi":36,"time":979.4452280000044,"velocity":0.8818897637795275,"duration":0.26273169166665866},{"name":"C3","midi":48,"time":979.4452280000044,"velocity":0.8818897637795275,"duration":0.26273169166665866},{"name":"B1","midi":35,"time":980.0007840000044,"velocity":0.8818897637795275,"duration":0.26273169166665866},{"name":"B2","midi":47,"time":980.0007840000044,"velocity":0.8818897637795275,"duration":0.26273169166665866},{"name":"B1","midi":35,"time":980.2785620000044,"velocity":0.8818897637795275,"duration":0.26273169166665866},{"name":"B2","midi":47,"time":980.2785620000044,"velocity":0.8818897637795275,"duration":0.26273169166665866},{"name":"B1","midi":35,"time":980.5563400000044,"velocity":0.8818897637795275,"duration":0.26273169166665866},{"name":"B2","midi":47,"time":980.5563400000044,"velocity":0.8818897637795275,"duration":0.26273169166665866},{"name":"B1","midi":35,"time":980.8341180000044,"velocity":0.8818897637795275,"duration":0.26273169166665866},{"name":"B2","midi":47,"time":980.8341180000044,"velocity":0.8818897637795275,"duration":0.26273169166665866},{"name":"B1","midi":35,"time":981.1118960000044,"velocity":0.8818897637795275,"duration":0.26273169166665866},{"name":"B2","midi":47,"time":981.1118960000044,"velocity":0.8818897637795275,"duration":0.26273169166665866},{"name":"B2","midi":47,"time":981.3896740000044,"velocity":0.8818897637795275,"duration":0.26273169166665866},{"name":"B3","midi":59,"time":981.3896740000044,"velocity":0.8818897637795275,"duration":0.26273169166665866},{"name":"B1","midi":35,"time":981.6674520000045,"velocity":0.8818897637795275,"duration":0.26273169166665866},{"name":"B2","midi":47,"time":981.6674520000045,"velocity":0.8818897637795275,"duration":0.26273169166665866},{"name":"A#1","midi":34,"time":982.2230080000045,"velocity":0.8818897637795275,"duration":0.26273169166665866},{"name":"A#2","midi":46,"time":982.2230080000045,"velocity":0.8818897637795275,"duration":0.26273169166665866},{"name":"A#1","midi":34,"time":982.5007860000045,"velocity":0.8818897637795275,"duration":0.26273169166665866},{"name":"A#2","midi":46,"time":982.5007860000045,"velocity":0.8818897637795275,"duration":0.26273169166665866},{"name":"A#1","midi":34,"time":982.7785640000045,"velocity":0.8818897637795275,"duration":0.26273169166665866},{"name":"A#2","midi":46,"time":982.7785640000045,"velocity":0.8818897637795275,"duration":0.26273169166665866},{"name":"A#1","midi":34,"time":983.0563420000045,"velocity":0.8818897637795275,"duration":0.26273169166665866},{"name":"A#2","midi":46,"time":983.0563420000045,"velocity":0.8818897637795275,"duration":0.26273169166665866},{"name":"A#1","midi":34,"time":983.3341200000045,"velocity":0.8818897637795275,"duration":0.26273169166665866},{"name":"A#2","midi":46,"time":983.3341200000045,"velocity":0.8818897637795275,"duration":0.26273169166665866},{"name":"A#2","midi":46,"time":983.6118980000045,"velocity":0.8818897637795275,"duration":0.26273169166665866},{"name":"A#3","midi":58,"time":983.6118980000045,"velocity":0.8818897637795275,"duration":0.26273169166665866},{"name":"A#1","midi":34,"time":983.8896760000046,"velocity":0.8818897637795275,"duration":0.26273169166665866},{"name":"A#2","midi":46,"time":983.8896760000046,"velocity":0.8818897637795275,"duration":0.26273169166665866},{"name":"A1","midi":33,"time":984.4452320000046,"velocity":0.8818897637795275,"duration":0.26273169166665866},{"name":"A2","midi":45,"time":984.4452320000046,"velocity":0.8818897637795275,"duration":0.26273169166665866},{"name":"A1","midi":33,"time":984.7230100000046,"velocity":0.8818897637795275,"duration":0.26273169166665866},{"name":"A2","midi":45,"time":984.7230100000046,"velocity":0.8818897637795275,"duration":0.26273169166665866},{"name":"A1","midi":33,"time":985.0007880000046,"velocity":0.8818897637795275,"duration":0.26273169166665866},{"name":"A2","midi":45,"time":985.0007880000046,"velocity":0.8818897637795275,"duration":0.26273169166665866},{"name":"A1","midi":33,"time":985.2785660000046,"velocity":0.8818897637795275,"duration":0.26273169166665866},{"name":"A2","midi":45,"time":985.2785660000046,"velocity":0.8818897637795275,"duration":0.26273169166665866},{"name":"A1","midi":33,"time":985.5563440000046,"velocity":0.8818897637795275,"duration":0.26273169166665866},{"name":"A2","midi":45,"time":985.5563440000046,"velocity":0.8818897637795275,"duration":0.26273169166665866},{"name":"A2","midi":45,"time":985.8341220000046,"velocity":0.8818897637795275,"duration":0.26273169166665866},{"name":"A3","midi":57,"time":985.8341220000046,"velocity":0.8818897637795275,"duration":0.26273169166665866},{"name":"A1","midi":33,"time":986.1119000000047,"velocity":0.8818897637795275,"duration":0.26273169166665866},{"name":"A2","midi":45,"time":986.1119000000047,"velocity":0.8818897637795275,"duration":0.26273169166665866},{"name":"G#1","midi":32,"time":988.0563460000047,"velocity":0.8818897637795275,"duration":0.26273169166665866},{"name":"G#2","midi":44,"time":988.0563460000047,"velocity":0.8818897637795275,"duration":0.26273169166665866},{"name":"G#1","midi":32,"time":988.3341240000047,"velocity":0.8818897637795275,"duration":0.26273169166665866},{"name":"G#2","midi":44,"time":988.3341240000047,"velocity":0.8818897637795275,"duration":0.26273169166665866},{"name":"G#1","midi":32,"time":988.8896800000048,"velocity":0.8818897637795275,"duration":0.26273169166665866},{"name":"G#2","midi":44,"time":988.8896800000048,"velocity":0.8818897637795275,"duration":0.26273169166665866},{"name":"G#1","midi":32,"time":989.1674580000048,"velocity":0.8818897637795275,"duration":0.26273169166665866},{"name":"G#2","midi":44,"time":989.1674580000048,"velocity":0.8818897637795275,"duration":0.26273169166665866},{"name":"G#1","midi":32,"time":989.4452360000048,"velocity":0.8818897637795275,"duration":0.26273169166665866},{"name":"G#2","midi":44,"time":989.4452360000048,"velocity":0.8818897637795275,"duration":0.26273169166665866},{"name":"G#1","midi":32,"time":989.7230140000048,"velocity":0.8818897637795275,"duration":0.26273169166665866},{"name":"G#2","midi":44,"time":989.7230140000048,"velocity":0.8818897637795275,"duration":0.26273169166665866},{"name":"G#1","midi":32,"time":990.0007920000048,"velocity":0.8818897637795275,"duration":0.26273169166665866},{"name":"G#2","midi":44,"time":990.0007920000048,"velocity":0.8818897637795275,"duration":0.26273169166665866},{"name":"G#2","midi":44,"time":990.2785700000048,"velocity":0.8818897637795275,"duration":0.26273169166665866},{"name":"G#3","midi":56,"time":990.2785700000048,"velocity":0.8818897637795275,"duration":0.26273169166665866},{"name":"G#1","midi":32,"time":990.5563480000048,"velocity":0.8818897637795275,"duration":0.26273169166665866},{"name":"G#2","midi":44,"time":990.5563480000048,"velocity":0.8818897637795275,"duration":0.26273169166665866},{"name":"A#1","midi":34,"time":993.3341280000049,"velocity":0.8818897637795275,"duration":0.26273169166665866},{"name":"A#2","midi":46,"time":993.3341280000049,"velocity":0.8818897637795275,"duration":0.26273169166665866},{"name":"A#1","midi":34,"time":993.6119060000049,"velocity":0.8818897637795275,"duration":0.26273169166665866},{"name":"A#2","midi":46,"time":993.6119060000049,"velocity":0.8818897637795275,"duration":0.26273169166665866},{"name":"A#1","midi":34,"time":993.8896840000049,"velocity":0.8818897637795275,"duration":0.26273169166665866},{"name":"A#2","midi":46,"time":993.8896840000049,"velocity":0.8818897637795275,"duration":0.26273169166665866},{"name":"A#1","midi":34,"time":994.1674620000049,"velocity":0.8818897637795275,"duration":0.26273169166665866},{"name":"A#2","midi":46,"time":994.1674620000049,"velocity":0.8818897637795275,"duration":0.26273169166665866},{"name":"A#1","midi":34,"time":994.4452400000049,"velocity":0.8818897637795275,"duration":0.26273169166665866},{"name":"A#2","midi":46,"time":994.4452400000049,"velocity":0.8818897637795275,"duration":0.26273169166665866},{"name":"A#2","midi":46,"time":994.7230180000049,"velocity":0.8818897637795275,"duration":0.26273169166665866},{"name":"A#3","midi":58,"time":994.7230180000049,"velocity":0.8818897637795275,"duration":0.26273169166665866},{"name":"A#1","midi":34,"time":995.0007960000049,"velocity":0.8818897637795275,"duration":0.26273169166665866},{"name":"A#2","midi":46,"time":995.0007960000049,"velocity":0.8818897637795275,"duration":0.26273169166665866},{"name":"C2","midi":36,"time":997.7785760000049,"velocity":0.8818897637795275,"duration":0.26273169166665866},{"name":"C3","midi":48,"time":997.7785760000049,"velocity":0.8818897637795275,"duration":0.26273169166665866},{"name":"C2","midi":36,"time":998.056354000005,"velocity":0.8818897637795275,"duration":0.26273169166665866},{"name":"C3","midi":48,"time":998.056354000005,"velocity":0.8818897637795275,"duration":0.26273169166665866},{"name":"C2","midi":36,"time":998.334132000005,"velocity":0.8818897637795275,"duration":0.26273169166665866},{"name":"C3","midi":48,"time":998.334132000005,"velocity":0.8818897637795275,"duration":0.26273169166665866},{"name":"C2","midi":36,"time":998.611910000005,"velocity":0.8818897637795275,"duration":0.26273169166665866},{"name":"C3","midi":48,"time":998.611910000005,"velocity":0.8818897637795275,"duration":0.26273169166665866},{"name":"C2","midi":36,"time":998.889688000005,"velocity":0.8818897637795275,"duration":0.26273169166665866},{"name":"C3","midi":48,"time":998.889688000005,"velocity":0.8818897637795275,"duration":0.26273169166665866},{"name":"C3","midi":48,"time":999.167466000005,"velocity":0.8818897637795275,"duration":0.26273169166665866},{"name":"C4","midi":60,"time":999.167466000005,"velocity":0.8818897637795275,"duration":0.26273169166665866},{"name":"C2","midi":36,"time":999.445244000005,"velocity":0.8818897637795275,"duration":0.26273169166665866},{"name":"C3","midi":48,"time":999.445244000005,"velocity":0.8818897637795275,"duration":0.26273169166665866},{"name":"A#1","midi":34,"time":1002.223024000005,"velocity":0.8818897637795275,"duration":0.26273169166665866},{"name":"A#2","midi":46,"time":1002.223024000005,"velocity":0.8818897637795275,"duration":0.26273169166665866},{"name":"A#1","midi":34,"time":1002.500802000005,"velocity":0.8818897637795275,"duration":0.26273169166665866},{"name":"A#2","midi":46,"time":1002.500802000005,"velocity":0.8818897637795275,"duration":0.26273169166665866},{"name":"A#1","midi":34,"time":1002.778580000005,"velocity":0.8818897637795275,"duration":0.26273169166665866},{"name":"A#2","midi":46,"time":1002.778580000005,"velocity":0.8818897637795275,"duration":0.26273169166665866},{"name":"A#1","midi":34,"time":1003.056358000005,"velocity":0.8818897637795275,"duration":0.26273169166665866},{"name":"A#2","midi":46,"time":1003.056358000005,"velocity":0.8818897637795275,"duration":0.26273169166665866},{"name":"A#1","midi":34,"time":1003.3341360000051,"velocity":0.8818897637795275,"duration":0.26273169166665866},{"name":"A#2","midi":46,"time":1003.3341360000051,"velocity":0.8818897637795275,"duration":0.26273169166665866},{"name":"A#2","midi":46,"time":1003.6119140000051,"velocity":0.8818897637795275,"duration":0.26273169166665866},{"name":"A#3","midi":58,"time":1003.6119140000051,"velocity":0.8818897637795275,"duration":0.26273169166665866},{"name":"A#1","midi":34,"time":1003.8896920000051,"velocity":0.8818897637795275,"duration":0.26273169166665866},{"name":"A#2","midi":46,"time":1003.8896920000051,"velocity":0.8818897637795275,"duration":0.26273169166665866},{"name":"G#1","midi":32,"time":1006.6674720000051,"velocity":0.8818897637795275,"duration":0.26273169166665866},{"name":"G#2","midi":44,"time":1006.6674720000051,"velocity":0.8818897637795275,"duration":0.26273169166665866},{"name":"G#1","midi":32,"time":1006.9452500000051,"velocity":0.8818897637795275,"duration":0.26273169166665866},{"name":"G#2","midi":44,"time":1006.9452500000051,"velocity":0.8818897637795275,"duration":0.26273169166665866},{"name":"G#1","midi":32,"time":1007.2230280000051,"velocity":0.8818897637795275,"duration":0.26273169166665866},{"name":"G#2","midi":44,"time":1007.2230280000051,"velocity":0.8818897637795275,"duration":0.26273169166665866},{"name":"G#1","midi":32,"time":1007.5008060000051,"velocity":0.8818897637795275,"duration":0.26273169166665866},{"name":"G#2","midi":44,"time":1007.5008060000051,"velocity":0.8818897637795275,"duration":0.26273169166665866},{"name":"G#1","midi":32,"time":1007.7785840000051,"velocity":0.8818897637795275,"duration":0.26273169166665866},{"name":"G#2","midi":44,"time":1007.7785840000051,"velocity":0.8818897637795275,"duration":0.26273169166665866},{"name":"G#2","midi":44,"time":1008.0563620000052,"velocity":0.8818897637795275,"duration":0.26273169166665866},{"name":"G#3","midi":56,"time":1008.0563620000052,"velocity":0.8818897637795275,"duration":0.26273169166665866},{"name":"G#1","midi":32,"time":1008.3341400000052,"velocity":0.8818897637795275,"duration":0.26273169166665866},{"name":"G#2","midi":44,"time":1008.3341400000052,"velocity":0.8818897637795275,"duration":0.26273169166665866},{"name":"A#1","midi":34,"time":1011.1119200000052,"velocity":0.8818897637795275,"duration":0.26273169166665866},{"name":"A#2","midi":46,"time":1011.1119200000052,"velocity":0.8818897637795275,"duration":0.26273169166665866},{"name":"A#1","midi":34,"time":1011.3896980000052,"velocity":0.8818897637795275,"duration":0.26273169166665866},{"name":"A#2","midi":46,"time":1011.3896980000052,"velocity":0.8818897637795275,"duration":0.26273169166665866},{"name":"A#1","midi":34,"time":1011.6674760000052,"velocity":0.8818897637795275,"duration":0.26273169166665866},{"name":"A#2","midi":46,"time":1011.6674760000052,"velocity":0.8818897637795275,"duration":0.26273169166665866},{"name":"A#1","midi":34,"time":1011.9452540000052,"velocity":0.8818897637795275,"duration":0.26273169166665866},{"name":"A#2","midi":46,"time":1011.9452540000052,"velocity":0.8818897637795275,"duration":0.26273169166665866},{"name":"A#1","midi":34,"time":1012.2230320000052,"velocity":0.8818897637795275,"duration":0.26273169166665866},{"name":"A#2","midi":46,"time":1012.2230320000052,"velocity":0.8818897637795275,"duration":0.26273169166665866},{"name":"A#2","midi":46,"time":1012.5008100000052,"velocity":0.8818897637795275,"duration":0.26273169166665866},{"name":"A#3","midi":58,"time":1012.5008100000052,"velocity":0.8818897637795275,"duration":0.26273169166665866},{"name":"A#1","midi":34,"time":1012.7785880000052,"velocity":0.8818897637795275,"duration":0.26273169166665866},{"name":"A#2","midi":46,"time":1012.7785880000052,"velocity":0.8818897637795275,"duration":0.26273169166665866},{"name":"C2","midi":36,"time":1013.3341440000053,"velocity":0.8818897637795275,"duration":0.26273169166665866},{"name":"C3","midi":48,"time":1013.3341440000053,"velocity":0.8818897637795275,"duration":0.26273169166665866},{"name":"C2","midi":36,"time":1013.6119220000053,"velocity":0.8818897637795275,"duration":0.26273169166665866},{"name":"C3","midi":48,"time":1013.6119220000053,"velocity":0.8818897637795275,"duration":0.26273169166665866},{"name":"C2","midi":36,"time":1013.8897000000053,"velocity":0.8818897637795275,"duration":0.26273169166665866},{"name":"C3","midi":48,"time":1013.8897000000053,"velocity":0.8818897637795275,"duration":0.26273169166665866},{"name":"C2","midi":36,"time":1014.1674780000053,"velocity":0.8818897637795275,"duration":0.26273169166665866},{"name":"C3","midi":48,"time":1014.1674780000053,"velocity":0.8818897637795275,"duration":0.26273169166665866},{"name":"C2","midi":36,"time":1014.4452560000053,"velocity":0.8818897637795275,"duration":0.26273169166665866},{"name":"C3","midi":48,"time":1014.4452560000053,"velocity":0.8818897637795275,"duration":0.26273169166665866},{"name":"C3","midi":48,"time":1014.7230340000053,"velocity":0.8818897637795275,"duration":0.26273169166665866},{"name":"C4","midi":60,"time":1014.7230340000053,"velocity":0.8818897637795275,"duration":0.26273169166665866},{"name":"C2","midi":36,"time":1015.0008120000053,"velocity":0.8818897637795275,"duration":0.26273169166665866},{"name":"C3","midi":48,"time":1015.0008120000053,"velocity":0.8818897637795275,"duration":0.26273169166665866},{"name":"B1","midi":35,"time":1015.5563680000054,"velocity":0.8818897637795275,"duration":0.26273169166665866},{"name":"B2","midi":47,"time":1015.5563680000054,"velocity":0.8818897637795275,"duration":0.26273169166665866},{"name":"B1","midi":35,"time":1015.8341460000054,"velocity":0.8818897637795275,"duration":0.26273169166665866},{"name":"B2","midi":47,"time":1015.8341460000054,"velocity":0.8818897637795275,"duration":0.26273169166665866},{"name":"B1","midi":35,"time":1016.1119240000054,"velocity":0.8818897637795275,"duration":0.26273169166665866},{"name":"B2","midi":47,"time":1016.1119240000054,"velocity":0.8818897637795275,"duration":0.26273169166665866},{"name":"B1","midi":35,"time":1016.3897020000054,"velocity":0.8818897637795275,"duration":0.26273169166665866},{"name":"B2","midi":47,"time":1016.3897020000054,"velocity":0.8818897637795275,"duration":0.26273169166665866},{"name":"B1","midi":35,"time":1016.6674800000054,"velocity":0.8818897637795275,"duration":0.26273169166665866},{"name":"B2","midi":47,"time":1016.6674800000054,"velocity":0.8818897637795275,"duration":0.26273169166665866},{"name":"B2","midi":47,"time":1016.9452580000054,"velocity":0.8818897637795275,"duration":0.26273169166665866},{"name":"B3","midi":59,"time":1016.9452580000054,"velocity":0.8818897637795275,"duration":0.26273169166665866},{"name":"B1","midi":35,"time":1017.2230360000054,"velocity":0.8818897637795275,"duration":0.26273169166665866},{"name":"B2","midi":47,"time":1017.2230360000054,"velocity":0.8818897637795275,"duration":0.26273169166665866},{"name":"A#1","midi":34,"time":1017.7785920000055,"velocity":0.8818897637795275,"duration":0.26273169166665866},{"name":"A#2","midi":46,"time":1017.7785920000055,"velocity":0.8818897637795275,"duration":0.26273169166665866},{"name":"A#1","midi":34,"time":1018.0563700000055,"velocity":0.8818897637795275,"duration":0.26273169166665866},{"name":"A#2","midi":46,"time":1018.0563700000055,"velocity":0.8818897637795275,"duration":0.26273169166665866},{"name":"A#1","midi":34,"time":1018.3341480000055,"velocity":0.8818897637795275,"duration":0.26273169166665866},{"name":"A#2","midi":46,"time":1018.3341480000055,"velocity":0.8818897637795275,"duration":0.26273169166665866},{"name":"A#1","midi":34,"time":1018.6119260000055,"velocity":0.8818897637795275,"duration":0.26273169166665866},{"name":"A#2","midi":46,"time":1018.6119260000055,"velocity":0.8818897637795275,"duration":0.26273169166665866},{"name":"A#1","midi":34,"time":1018.8897040000055,"velocity":0.8818897637795275,"duration":0.26273169166665866},{"name":"A#2","midi":46,"time":1018.8897040000055,"velocity":0.8818897637795275,"duration":0.26273169166665866},{"name":"A#2","midi":46,"time":1019.1674820000055,"velocity":0.8818897637795275,"duration":0.26273169166665866},{"name":"A#3","midi":58,"time":1019.1674820000055,"velocity":0.8818897637795275,"duration":0.26273169166665866},{"name":"A#1","midi":34,"time":1019.4452600000055,"velocity":0.8818897637795275,"duration":0.26273169166665866},{"name":"A#2","midi":46,"time":1019.4452600000055,"velocity":0.8818897637795275,"duration":0.26273169166665866},{"name":"A1","midi":33,"time":1020.0008160000056,"velocity":0.8818897637795275,"duration":0.26273169166665866},{"name":"A2","midi":45,"time":1020.0008160000056,"velocity":0.8818897637795275,"duration":0.26273169166665866},{"name":"A1","midi":33,"time":1020.2785940000056,"velocity":0.8818897637795275,"duration":0.26273169166665866},{"name":"A2","midi":45,"time":1020.2785940000056,"velocity":0.8818897637795275,"duration":0.26273169166665866},{"name":"A1","midi":33,"time":1020.5563720000056,"velocity":0.8818897637795275,"duration":0.26273169166665866},{"name":"A2","midi":45,"time":1020.5563720000056,"velocity":0.8818897637795275,"duration":0.26273169166665866},{"name":"A1","midi":33,"time":1020.8341500000056,"velocity":0.8818897637795275,"duration":0.26273169166665866},{"name":"A2","midi":45,"time":1020.8341500000056,"velocity":0.8818897637795275,"duration":0.26273169166665866},{"name":"A1","midi":33,"time":1021.1119280000056,"velocity":0.8818897637795275,"duration":0.26273169166665866},{"name":"A2","midi":45,"time":1021.1119280000056,"velocity":0.8818897637795275,"duration":0.26273169166665866},{"name":"A2","midi":45,"time":1021.3897060000056,"velocity":0.8818897637795275,"duration":0.26273169166665866},{"name":"A3","midi":57,"time":1021.3897060000056,"velocity":0.8818897637795275,"duration":0.26273169166665866},{"name":"A1","midi":33,"time":1021.6674840000056,"velocity":0.8818897637795275,"duration":0.26273169166665866},{"name":"A2","midi":45,"time":1021.6674840000056,"velocity":0.8818897637795275,"duration":0.26273169166665866},{"name":"G#1","midi":32,"time":1023.6119300000057,"velocity":0.8818897637795275,"duration":0.26273169166665866},{"name":"G#2","midi":44,"time":1023.6119300000057,"velocity":0.8818897637795275,"duration":0.26273169166665866},{"name":"G#1","midi":32,"time":1023.8897080000057,"velocity":0.8818897637795275,"duration":0.26273169166677235},{"name":"G#2","midi":44,"time":1023.8897080000057,"velocity":0.8818897637795275,"duration":0.26273169166677235},{"name":"G#1","midi":32,"time":1024.4452640000059,"velocity":0.8818897637795275,"duration":0.26273169166665866},{"name":"G#2","midi":44,"time":1024.4452640000059,"velocity":0.8818897637795275,"duration":0.26273169166665866},{"name":"G#1","midi":32,"time":1024.7230420000058,"velocity":0.8818897637795275,"duration":0.26273169166665866},{"name":"G#2","midi":44,"time":1024.7230420000058,"velocity":0.8818897637795275,"duration":0.26273169166665866},{"name":"G#1","midi":32,"time":1025.0008200000057,"velocity":0.8818897637795275,"duration":0.26273169166665866},{"name":"G#2","midi":44,"time":1025.0008200000057,"velocity":0.8818897637795275,"duration":0.26273169166665866},{"name":"G#1","midi":32,"time":1025.2785980000056,"velocity":0.8818897637795275,"duration":0.26273169166665866},{"name":"G#2","midi":44,"time":1025.2785980000056,"velocity":0.8818897637795275,"duration":0.26273169166665866},{"name":"G#1","midi":32,"time":1025.5563760000055,"velocity":0.8818897637795275,"duration":0.26273169166665866},{"name":"G#2","midi":44,"time":1025.5563760000055,"velocity":0.8818897637795275,"duration":0.26273169166665866},{"name":"G#2","midi":44,"time":1025.8341540000054,"velocity":0.8818897637795275,"duration":0.26273169166665866},{"name":"G#3","midi":56,"time":1025.8341540000054,"velocity":0.8818897637795275,"duration":0.26273169166665866},{"name":"G#1","midi":32,"time":1026.1119320000053,"velocity":0.8818897637795275,"duration":0.26273169166665866},{"name":"G#2","midi":44,"time":1026.1119320000053,"velocity":0.8818897637795275,"duration":0.26273169166665866},{"name":"A#1","midi":34,"time":1028.8897120000054,"velocity":0.8818897637795275,"duration":0.26273169166665866},{"name":"A#2","midi":46,"time":1028.8897120000054,"velocity":0.8818897637795275,"duration":0.26273169166665866},{"name":"A#1","midi":34,"time":1029.1674900000053,"velocity":0.8818897637795275,"duration":0.26273169166665866},{"name":"A#2","midi":46,"time":1029.1674900000053,"velocity":0.8818897637795275,"duration":0.26273169166665866},{"name":"A#1","midi":34,"time":1029.4452680000052,"velocity":0.8818897637795275,"duration":0.26273169166665866},{"name":"A#2","midi":46,"time":1029.4452680000052,"velocity":0.8818897637795275,"duration":0.26273169166665866},{"name":"A#1","midi":34,"time":1029.723046000005,"velocity":0.8818897637795275,"duration":0.26273169166665866},{"name":"A#2","midi":46,"time":1029.723046000005,"velocity":0.8818897637795275,"duration":0.26273169166665866},{"name":"A#1","midi":34,"time":1030.000824000005,"velocity":0.8818897637795275,"duration":0.26273169166665866},{"name":"A#2","midi":46,"time":1030.000824000005,"velocity":0.8818897637795275,"duration":0.26273169166665866},{"name":"A#2","midi":46,"time":1030.2786020000049,"velocity":0.8818897637795275,"duration":0.26273169166665866},{"name":"A#3","midi":58,"time":1030.2786020000049,"velocity":0.8818897637795275,"duration":0.26273169166665866},{"name":"A#1","midi":34,"time":1030.5563800000048,"velocity":0.8818897637795275,"duration":0.26273169166665866},{"name":"A#2","midi":46,"time":1030.5563800000048,"velocity":0.8818897637795275,"duration":0.26273169166665866},{"name":"C2","midi":36,"time":1033.3341600000049,"velocity":0.8818897637795275,"duration":0.26273169166665866},{"name":"C3","midi":48,"time":1033.3341600000049,"velocity":0.8818897637795275,"duration":0.26273169166665866},{"name":"C2","midi":36,"time":1033.6119380000048,"velocity":0.8818897637795275,"duration":0.26273169166665866},{"name":"C3","midi":48,"time":1033.6119380000048,"velocity":0.8818897637795275,"duration":0.26273169166665866},{"name":"C2","midi":36,"time":1033.8897160000047,"velocity":0.8818897637795275,"duration":0.26273169166665866},{"name":"C3","midi":48,"time":1033.8897160000047,"velocity":0.8818897637795275,"duration":0.26273169166665866},{"name":"C2","midi":36,"time":1034.1674940000046,"velocity":0.8818897637795275,"duration":0.26273169166665866},{"name":"C3","midi":48,"time":1034.1674940000046,"velocity":0.8818897637795275,"duration":0.26273169166665866},{"name":"C2","midi":36,"time":1034.4452720000045,"velocity":0.8818897637795275,"duration":0.26273169166665866},{"name":"C3","midi":48,"time":1034.4452720000045,"velocity":0.8818897637795275,"duration":0.26273169166665866},{"name":"C3","midi":48,"time":1034.7230500000044,"velocity":0.8818897637795275,"duration":0.26273169166665866},{"name":"C4","midi":60,"time":1034.7230500000044,"velocity":0.8818897637795275,"duration":0.26273169166665866},{"name":"C2","midi":36,"time":1035.0008280000043,"velocity":0.8818897637795275,"duration":0.26273169166665866},{"name":"C3","midi":48,"time":1035.0008280000043,"velocity":0.8818897637795275,"duration":0.26273169166665866},{"name":"A#1","midi":34,"time":1037.7786080000044,"velocity":0.8818897637795275,"duration":0.26273169166665866},{"name":"A#2","midi":46,"time":1037.7786080000044,"velocity":0.8818897637795275,"duration":0.26273169166665866},{"name":"A#1","midi":34,"time":1038.0563860000043,"velocity":0.8818897637795275,"duration":0.26273169166665866},{"name":"A#2","midi":46,"time":1038.0563860000043,"velocity":0.8818897637795275,"duration":0.26273169166665866},{"name":"A#1","midi":34,"time":1038.3341640000042,"velocity":0.8818897637795275,"duration":0.26273169166665866},{"name":"A#2","midi":46,"time":1038.3341640000042,"velocity":0.8818897637795275,"duration":0.26273169166665866},{"name":"A#1","midi":34,"time":1038.611942000004,"velocity":0.8818897637795275,"duration":0.26273169166665866},{"name":"A#2","midi":46,"time":1038.611942000004,"velocity":0.8818897637795275,"duration":0.26273169166665866},{"name":"A#1","midi":34,"time":1038.889720000004,"velocity":0.8818897637795275,"duration":0.26273169166665866},{"name":"A#2","midi":46,"time":1038.889720000004,"velocity":0.8818897637795275,"duration":0.26273169166665866},{"name":"A#2","midi":46,"time":1039.167498000004,"velocity":0.8818897637795275,"duration":0.26273169166665866},{"name":"A#3","midi":58,"time":1039.167498000004,"velocity":0.8818897637795275,"duration":0.26273169166665866},{"name":"A#1","midi":34,"time":1039.4452760000038,"velocity":0.8818897637795275,"duration":0.26273169166665866},{"name":"A#2","midi":46,"time":1039.4452760000038,"velocity":0.8818897637795275,"duration":0.26273169166665866},{"name":"G#1","midi":32,"time":1042.223056000004,"velocity":0.8818897637795275,"duration":0.26273169166665866},{"name":"G#2","midi":44,"time":1042.223056000004,"velocity":0.8818897637795275,"duration":0.26273169166665866},{"name":"G#1","midi":32,"time":1042.5008340000038,"velocity":0.8818897637795275,"duration":0.26273169166665866},{"name":"G#2","midi":44,"time":1042.5008340000038,"velocity":0.8818897637795275,"duration":0.26273169166665866},{"name":"G#1","midi":32,"time":1042.7786120000037,"velocity":0.8818897637795275,"duration":0.26273169166665866},{"name":"G#2","midi":44,"time":1042.7786120000037,"velocity":0.8818897637795275,"duration":0.26273169166665866},{"name":"G#1","midi":32,"time":1043.0563900000036,"velocity":0.8818897637795275,"duration":0.26273169166665866},{"name":"G#2","midi":44,"time":1043.0563900000036,"velocity":0.8818897637795275,"duration":0.26273169166665866},{"name":"G#1","midi":32,"time":1043.3341680000035,"velocity":0.8818897637795275,"duration":0.26273169166665866},{"name":"G#2","midi":44,"time":1043.3341680000035,"velocity":0.8818897637795275,"duration":0.26273169166665866},{"name":"G#2","midi":44,"time":1043.6119460000034,"velocity":0.8818897637795275,"duration":0.26273169166665866},{"name":"G#3","midi":56,"time":1043.6119460000034,"velocity":0.8818897637795275,"duration":0.26273169166665866},{"name":"G#1","midi":32,"time":1043.8897240000033,"velocity":0.8818897637795275,"duration":0.26273169166665866},{"name":"G#2","midi":44,"time":1043.8897240000033,"velocity":0.8818897637795275,"duration":0.26273169166665866},{"name":"A#1","midi":34,"time":1046.6675040000034,"velocity":0.8818897637795275,"duration":0.26273169166665866},{"name":"A#2","midi":46,"time":1046.6675040000034,"velocity":0.8818897637795275,"duration":0.26273169166665866},{"name":"A#1","midi":34,"time":1046.9452820000033,"velocity":0.8818897637795275,"duration":0.26273169166665866},{"name":"A#2","midi":46,"time":1046.9452820000033,"velocity":0.8818897637795275,"duration":0.26273169166665866},{"name":"A#1","midi":34,"time":1047.2230600000032,"velocity":0.8818897637795275,"duration":0.26273169166665866},{"name":"A#2","midi":46,"time":1047.2230600000032,"velocity":0.8818897637795275,"duration":0.26273169166665866},{"name":"A#1","midi":34,"time":1047.5008380000031,"velocity":0.8818897637795275,"duration":0.26273169166665866},{"name":"A#2","midi":46,"time":1047.5008380000031,"velocity":0.8818897637795275,"duration":0.26273169166665866},{"name":"A#1","midi":34,"time":1047.778616000003,"velocity":0.8818897637795275,"duration":0.26273169166665866},{"name":"A#2","midi":46,"time":1047.778616000003,"velocity":0.8818897637795275,"duration":0.26273169166665866},{"name":"A#2","midi":46,"time":1048.056394000003,"velocity":0.8818897637795275,"duration":0.26273169166665866},{"name":"A#3","midi":58,"time":1048.056394000003,"velocity":0.8818897637795275,"duration":0.26273169166665866},{"name":"A#1","midi":34,"time":1048.3341720000028,"velocity":0.8818897637795275,"duration":0.26273169166665866},{"name":"A#2","midi":46,"time":1048.3341720000028,"velocity":0.8818897637795275,"duration":0.26273169166665866},{"name":"C2","midi":36,"time":1048.8897280000028,"velocity":0.8818897637795275,"duration":0.26273169166665866},{"name":"C3","midi":48,"time":1048.8897280000028,"velocity":0.8818897637795275,"duration":0.26273169166665866},{"name":"C2","midi":36,"time":1049.1675060000027,"velocity":0.8818897637795275,"duration":0.26273169166665866},{"name":"C3","midi":48,"time":1049.1675060000027,"velocity":0.8818897637795275,"duration":0.26273169166665866},{"name":"C2","midi":36,"time":1049.4452840000026,"velocity":0.8818897637795275,"duration":0.26273169166665866},{"name":"C3","midi":48,"time":1049.4452840000026,"velocity":0.8818897637795275,"duration":0.26273169166665866},{"name":"C2","midi":36,"time":1049.7230620000025,"velocity":0.8818897637795275,"duration":0.26273169166665866},{"name":"C3","midi":48,"time":1049.7230620000025,"velocity":0.8818897637795275,"duration":0.26273169166665866},{"name":"C2","midi":36,"time":1050.0008400000024,"velocity":0.8818897637795275,"duration":0.26273169166665866},{"name":"C3","midi":48,"time":1050.0008400000024,"velocity":0.8818897637795275,"duration":0.26273169166665866},{"name":"C3","midi":48,"time":1050.2786180000023,"velocity":0.8818897637795275,"duration":0.26273169166665866},{"name":"C4","midi":60,"time":1050.2786180000023,"velocity":0.8818897637795275,"duration":0.26273169166665866},{"name":"C2","midi":36,"time":1050.5563960000022,"velocity":0.8818897637795275,"duration":0.26273169166665866},{"name":"C3","midi":48,"time":1050.5563960000022,"velocity":0.8818897637795275,"duration":0.26273169166665866},{"name":"B1","midi":35,"time":1051.1119520000022,"velocity":0.8818897637795275,"duration":0.26273169166665866},{"name":"B2","midi":47,"time":1051.1119520000022,"velocity":0.8818897637795275,"duration":0.26273169166665866},{"name":"B1","midi":35,"time":1051.3897300000021,"velocity":0.8818897637795275,"duration":0.26273169166665866},{"name":"B2","midi":47,"time":1051.3897300000021,"velocity":0.8818897637795275,"duration":0.26273169166665866},{"name":"B1","midi":35,"time":1051.667508000002,"velocity":0.8818897637795275,"duration":0.26273169166665866},{"name":"B2","midi":47,"time":1051.667508000002,"velocity":0.8818897637795275,"duration":0.26273169166665866},{"name":"B1","midi":35,"time":1051.945286000002,"velocity":0.8818897637795275,"duration":0.26273169166665866},{"name":"B2","midi":47,"time":1051.945286000002,"velocity":0.8818897637795275,"duration":0.26273169166665866},{"name":"B1","midi":35,"time":1052.2230640000018,"velocity":0.8818897637795275,"duration":0.26273169166665866},{"name":"B2","midi":47,"time":1052.2230640000018,"velocity":0.8818897637795275,"duration":0.26273169166665866},{"name":"B2","midi":47,"time":1052.5008420000017,"velocity":0.8818897637795275,"duration":0.26273169166665866},{"name":"B3","midi":59,"time":1052.5008420000017,"velocity":0.8818897637795275,"duration":0.26273169166665866},{"name":"B1","midi":35,"time":1052.7786200000016,"velocity":0.8818897637795275,"duration":0.26273169166665866},{"name":"B2","midi":47,"time":1052.7786200000016,"velocity":0.8818897637795275,"duration":0.26273169166665866},{"name":"A#1","midi":34,"time":1053.3341760000017,"velocity":0.8818897637795275,"duration":0.26273169166665866},{"name":"A#2","midi":46,"time":1053.3341760000017,"velocity":0.8818897637795275,"duration":0.26273169166665866},{"name":"A#1","midi":34,"time":1053.6119540000016,"velocity":0.8818897637795275,"duration":0.26273169166665866},{"name":"A#2","midi":46,"time":1053.6119540000016,"velocity":0.8818897637795275,"duration":0.26273169166665866},{"name":"A#1","midi":34,"time":1053.8897320000015,"velocity":0.8818897637795275,"duration":0.26273169166665866},{"name":"A#2","midi":46,"time":1053.8897320000015,"velocity":0.8818897637795275,"duration":0.26273169166665866},{"name":"A#1","midi":34,"time":1054.1675100000014,"velocity":0.8818897637795275,"duration":0.26273169166665866},{"name":"A#2","midi":46,"time":1054.1675100000014,"velocity":0.8818897637795275,"duration":0.26273169166665866},{"name":"A#1","midi":34,"time":1054.4452880000013,"velocity":0.8818897637795275,"duration":0.26273169166665866},{"name":"A#2","midi":46,"time":1054.4452880000013,"velocity":0.8818897637795275,"duration":0.26273169166665866},{"name":"A#2","midi":46,"time":1054.7230660000012,"velocity":0.8818897637795275,"duration":0.26273169166665866},{"name":"A#3","midi":58,"time":1054.7230660000012,"velocity":0.8818897637795275,"duration":0.26273169166665866},{"name":"A#1","midi":34,"time":1055.000844000001,"velocity":0.8818897637795275,"duration":0.26273169166665866},{"name":"A#2","midi":46,"time":1055.000844000001,"velocity":0.8818897637795275,"duration":0.26273169166665866},{"name":"A1","midi":33,"time":1055.556400000001,"velocity":0.8818897637795275,"duration":0.26273169166665866},{"name":"A2","midi":45,"time":1055.556400000001,"velocity":0.8818897637795275,"duration":0.26273169166665866},{"name":"A1","midi":33,"time":1055.834178000001,"velocity":0.8818897637795275,"duration":0.26273169166665866},{"name":"A2","midi":45,"time":1055.834178000001,"velocity":0.8818897637795275,"duration":0.26273169166665866},{"name":"A1","midi":33,"time":1056.1119560000009,"velocity":0.8818897637795275,"duration":0.26273169166665866},{"name":"A2","midi":45,"time":1056.1119560000009,"velocity":0.8818897637795275,"duration":0.26273169166665866},{"name":"A1","midi":33,"time":1056.3897340000008,"velocity":0.8818897637795275,"duration":0.26273169166665866},{"name":"A2","midi":45,"time":1056.3897340000008,"velocity":0.8818897637795275,"duration":0.26273169166665866},{"name":"A1","midi":33,"time":1056.6675120000007,"velocity":0.8818897637795275,"duration":0.26273169166665866},{"name":"A2","midi":45,"time":1056.6675120000007,"velocity":0.8818897637795275,"duration":0.26273169166665866},{"name":"A2","midi":45,"time":1056.9452900000006,"velocity":0.8818897637795275,"duration":0.26273169166665866},{"name":"A3","midi":57,"time":1056.9452900000006,"velocity":0.8818897637795275,"duration":0.26273169166665866},{"name":"A1","midi":33,"time":1057.2230680000005,"velocity":0.8818897637795275,"duration":0.26273169166665866},{"name":"A2","midi":45,"time":1057.2230680000005,"velocity":0.8818897637795275,"duration":0.26273169166665866},{"name":"G#1","midi":32,"time":1060.0008480000006,"velocity":0.8818897637795275,"duration":0.26273169166665866},{"name":"G#2","midi":44,"time":1060.0008480000006,"velocity":0.8818897637795275,"duration":0.26273169166665866},{"name":"G#1","midi":32,"time":1060.2786260000005,"velocity":0.8818897637795275,"duration":0.26273169166665866},{"name":"G#2","midi":44,"time":1060.2786260000005,"velocity":0.8818897637795275,"duration":0.26273169166665866},{"name":"G#1","midi":32,"time":1060.5564040000004,"velocity":0.8818897637795275,"duration":0.26273169166665866},{"name":"G#2","midi":44,"time":1060.5564040000004,"velocity":0.8818897637795275,"duration":0.26273169166665866},{"name":"G#1","midi":32,"time":1060.8341820000003,"velocity":0.8818897637795275,"duration":0.26273169166665866},{"name":"G#2","midi":44,"time":1060.8341820000003,"velocity":0.8818897637795275,"duration":0.26273169166665866},{"name":"G#1","midi":32,"time":1061.1119600000002,"velocity":0.8818897637795275,"duration":0.26273169166665866},{"name":"G#2","midi":44,"time":1061.1119600000002,"velocity":0.8818897637795275,"duration":0.26273169166665866},{"name":"G#2","midi":44,"time":1061.389738,"velocity":0.8818897637795275,"duration":0.26273169166665866},{"name":"G#3","midi":56,"time":1061.389738,"velocity":0.8818897637795275,"duration":0.26273169166665866},{"name":"G#1","midi":32,"time":1061.667516,"velocity":0.8818897637795275,"duration":0.26273169166665866},{"name":"G#2","midi":44,"time":1061.667516,"velocity":0.8818897637795275,"duration":0.26273169166665866},{"name":"A#1","midi":34,"time":1064.445296,"velocity":0.8818897637795275,"duration":0.26273169166665866},{"name":"A#2","midi":46,"time":1064.445296,"velocity":0.8818897637795275,"duration":0.26273169166665866},{"name":"A#1","midi":34,"time":1064.723074,"velocity":0.8818897637795275,"duration":0.26273169166665866},{"name":"A#2","midi":46,"time":1064.723074,"velocity":0.8818897637795275,"duration":0.26273169166665866},{"name":"A#1","midi":34,"time":1065.000852,"velocity":0.8818897637795275,"duration":0.26273169166665866},{"name":"A#2","midi":46,"time":1065.000852,"velocity":0.8818897637795275,"duration":0.26273169166665866},{"name":"A#1","midi":34,"time":1065.2786299999998,"velocity":0.8818897637795275,"duration":0.26273169166665866},{"name":"A#2","midi":46,"time":1065.2786299999998,"velocity":0.8818897637795275,"duration":0.26273169166665866},{"name":"A#1","midi":34,"time":1065.5564079999997,"velocity":0.8818897637795275,"duration":0.26273169166665866},{"name":"A#2","midi":46,"time":1065.5564079999997,"velocity":0.8818897637795275,"duration":0.26273169166665866},{"name":"A#2","midi":46,"time":1065.8341859999996,"velocity":0.8818897637795275,"duration":0.26273169166665866},{"name":"A#3","midi":58,"time":1065.8341859999996,"velocity":0.8818897637795275,"duration":0.26273169166665866},{"name":"A#1","midi":34,"time":1066.1119639999995,"velocity":0.8818897637795275,"duration":0.26273169166665866},{"name":"A#2","midi":46,"time":1066.1119639999995,"velocity":0.8818897637795275,"duration":0.26273169166665866},{"name":"C2","midi":36,"time":1068.8897439999996,"velocity":0.8818897637795275,"duration":0.26273169166665866},{"name":"C3","midi":48,"time":1068.8897439999996,"velocity":0.8818897637795275,"duration":0.26273169166665866},{"name":"C2","midi":36,"time":1069.1675219999995,"velocity":0.8818897637795275,"duration":0.26273169166665866},{"name":"C3","midi":48,"time":1069.1675219999995,"velocity":0.8818897637795275,"duration":0.26273169166665866},{"name":"C2","midi":36,"time":1069.4452999999994,"velocity":0.8818897637795275,"duration":0.26273169166665866},{"name":"C3","midi":48,"time":1069.4452999999994,"velocity":0.8818897637795275,"duration":0.26273169166665866},{"name":"C2","midi":36,"time":1069.7230779999993,"velocity":0.8818897637795275,"duration":0.26273169166665866},{"name":"C3","midi":48,"time":1069.7230779999993,"velocity":0.8818897637795275,"duration":0.26273169166665866},{"name":"C2","midi":36,"time":1070.0008559999992,"velocity":0.8818897637795275,"duration":0.26273169166665866},{"name":"C3","midi":48,"time":1070.0008559999992,"velocity":0.8818897637795275,"duration":0.26273169166665866},{"name":"C3","midi":48,"time":1070.278633999999,"velocity":0.8818897637795275,"duration":0.26273169166665866},{"name":"C4","midi":60,"time":1070.278633999999,"velocity":0.8818897637795275,"duration":0.26273169166665866},{"name":"C2","midi":36,"time":1070.556411999999,"velocity":0.8818897637795275,"duration":0.26273169166665866},{"name":"C3","midi":48,"time":1070.556411999999,"velocity":0.8818897637795275,"duration":0.26273169166665866},{"name":"C2","midi":36,"time":1073.3341919999991,"velocity":0.8818897637795275,"duration":0.26273169166665866},{"name":"C3","midi":48,"time":1073.3341919999991,"velocity":0.8818897637795275,"duration":0.26273169166665866},{"name":"C2","midi":36,"time":1073.611969999999,"velocity":0.8818897637795275,"duration":0.26273169166665866},{"name":"C3","midi":48,"time":1073.611969999999,"velocity":0.8818897637795275,"duration":0.26273169166665866},{"name":"C2","midi":36,"time":1073.889747999999,"velocity":0.8818897637795275,"duration":0.26273169166665866},{"name":"C3","midi":48,"time":1073.889747999999,"velocity":0.8818897637795275,"duration":0.26273169166665866},{"name":"C2","midi":36,"time":1074.1675259999988,"velocity":0.8818897637795275,"duration":0.26273169166665866},{"name":"C3","midi":48,"time":1074.1675259999988,"velocity":0.8818897637795275,"duration":0.26273169166665866},{"name":"C2","midi":36,"time":1074.4453039999987,"velocity":0.8818897637795275,"duration":0.26273169166665866},{"name":"C3","midi":48,"time":1074.4453039999987,"velocity":0.8818897637795275,"duration":0.26273169166665866},{"name":"C3","midi":48,"time":1074.7230819999986,"velocity":0.8818897637795275,"duration":0.26273169166665866},{"name":"C4","midi":60,"time":1074.7230819999986,"velocity":0.8818897637795275,"duration":0.26273169166665866},{"name":"C2","midi":36,"time":1075.0008599999985,"velocity":0.8818897637795275,"duration":0.26273169166665866},{"name":"C3","midi":48,"time":1075.0008599999985,"velocity":0.8818897637795275,"duration":0.26273169166665866},{"name":"G#2","midi":44,"time":1075.5564159999985,"velocity":0.8818897637795275,"duration":0.26273169166665866},{"name":"G#2","midi":44,"time":1075.8341939999984,"velocity":0.8818897637795275,"duration":0.26273169166665866},{"name":"G#2","midi":44,"time":1076.1119719999983,"velocity":0.8818897637795275,"duration":0.26273169166665866},{"name":"G#2","midi":44,"time":1076.3897499999982,"velocity":0.8818897637795275,"duration":0.26273169166665866},{"name":"G#2","midi":44,"time":1076.6675279999981,"velocity":0.8818897637795275,"duration":0.26273169166665866},{"name":"G#3","midi":56,"time":1076.945305999998,"velocity":0.8818897637795275,"duration":0.26273169166665866},{"name":"G#2","midi":44,"time":1077.223083999998,"velocity":0.8818897637795275,"duration":0.26273169166665866},{"name":"G#2","midi":44,"time":1077.778639999998,"velocity":0.8818897637795275,"duration":0.26273169166665866},{"name":"G#2","midi":44,"time":1078.0564179999978,"velocity":0.8818897637795275,"duration":0.26273169166665866},{"name":"G#2","midi":44,"time":1078.3341959999977,"velocity":0.8818897637795275,"duration":0.26273169166665866},{"name":"G#2","midi":44,"time":1078.6119739999976,"velocity":0.8818897637795275,"duration":0.26273169166665866},{"name":"G#2","midi":44,"time":1078.8897519999975,"velocity":0.8818897637795275,"duration":0.26273169166665866},{"name":"G#3","midi":56,"time":1079.1675299999974,"velocity":0.8818897637795275,"duration":0.26273169166665866},{"name":"G#2","midi":44,"time":1079.4453079999973,"velocity":0.8818897637795275,"duration":0.26273169166665866},{"name":"B2","midi":47,"time":1082.2230879999975,"velocity":0.8818897637795275,"duration":0.26273169166665866},{"name":"B2","midi":47,"time":1082.5008659999974,"velocity":0.8818897637795275,"duration":0.26273169166665866},{"name":"B2","midi":47,"time":1082.7786439999973,"velocity":0.8818897637795275,"duration":0.26273169166665866},{"name":"B2","midi":47,"time":1083.0564219999972,"velocity":0.8818897637795275,"duration":0.26273169166665866},{"name":"B2","midi":47,"time":1083.334199999997,"velocity":0.8818897637795275,"duration":0.26273169166665866},{"name":"B3","midi":59,"time":1083.611977999997,"velocity":0.8818897637795275,"duration":0.26273169166665866},{"name":"B2","midi":47,"time":1083.8897559999969,"velocity":0.8818897637795275,"duration":0.26273169166665866},{"name":"C3","midi":48,"time":1084.4453119999969,"velocity":0.8818897637795275,"duration":0.26273169166665866},{"name":"C3","midi":48,"time":1084.7230899999968,"velocity":0.8818897637795275,"duration":0.26273169166665866},{"name":"C3","midi":48,"time":1085.0008679999967,"velocity":0.8818897637795275,"duration":0.26273169166665866},{"name":"C3","midi":48,"time":1085.2786459999966,"velocity":0.8818897637795275,"duration":0.26273169166665866},{"name":"C3","midi":48,"time":1085.5564239999965,"velocity":0.8818897637795275,"duration":0.26273169166665866},{"name":"C4","midi":60,"time":1085.8342019999964,"velocity":0.8818897637795275,"duration":0.26273169166665866},{"name":"C3","midi":48,"time":1086.1119799999963,"velocity":0.8818897637795275,"duration":0.26273169166665866},{"name":"B2","midi":47,"time":1086.6675359999963,"velocity":0.8818897637795275,"duration":0.26273169166665866},{"name":"B2","midi":47,"time":1086.9453139999962,"velocity":0.8818897637795275,"duration":0.26273169166665866},{"name":"B2","midi":47,"time":1087.223091999996,"velocity":0.8818897637795275,"duration":0.26273169166665866},{"name":"B2","midi":47,"time":1087.500869999996,"velocity":0.8818897637795275,"duration":0.26273169166665866},{"name":"B2","midi":47,"time":1087.7786479999959,"velocity":0.8818897637795275,"duration":0.26273169166665866},{"name":"B3","midi":59,"time":1088.0564259999958,"velocity":0.8818897637795275,"duration":0.26273169166665866},{"name":"B2","midi":47,"time":1088.3342039999957,"velocity":0.8818897637795275,"duration":0.26273169166665866},{"name":"A#2","midi":46,"time":1088.8897599999957,"velocity":0.8818897637795275,"duration":0.26273169166665866},{"name":"A#2","midi":46,"time":1089.1675379999956,"velocity":0.8818897637795275,"duration":0.26273169166665866},{"name":"A#2","midi":46,"time":1089.4453159999955,"velocity":0.8818897637795275,"duration":0.26273169166665866},{"name":"A#2","midi":46,"time":1089.7230939999954,"velocity":0.8818897637795275,"duration":0.26273169166665866},{"name":"A#2","midi":46,"time":1090.0008719999953,"velocity":0.8818897637795275,"duration":0.26273169166665866},{"name":"A#3","midi":58,"time":1090.2786499999952,"velocity":0.8818897637795275,"duration":0.26273169166665866},{"name":"A#2","midi":46,"time":1090.556427999995,"velocity":0.8818897637795275,"duration":0.26273169166665866},{"name":"A2","midi":45,"time":1091.1119839999951,"velocity":0.8818897637795275,"duration":0.26273169166665866},{"name":"A2","midi":45,"time":1091.389761999995,"velocity":0.8818897637795275,"duration":0.26273169166665866},{"name":"A2","midi":45,"time":1091.667539999995,"velocity":0.8818897637795275,"duration":0.26273169166665866},{"name":"A2","midi":45,"time":1091.9453179999948,"velocity":0.8818897637795275,"duration":0.26273169166665866},{"name":"A2","midi":45,"time":1092.2230959999947,"velocity":0.8818897637795275,"duration":0.26273169166665866},{"name":"A3","midi":57,"time":1092.5008739999946,"velocity":0.8818897637795275,"duration":0.26273169166665866},{"name":"A2","midi":45,"time":1092.7786519999945,"velocity":0.8818897637795275,"duration":0.26273169166665866},{"name":"G#2","midi":44,"time":1093.3342079999945,"velocity":0.8818897637795275,"duration":0.26273169166665866},{"name":"G#2","midi":44,"time":1093.6119859999944,"velocity":0.8818897637795275,"duration":0.26273169166665866},{"name":"G#2","midi":44,"time":1093.8897639999943,"velocity":0.8818897637795275,"duration":0.26273169166665866},{"name":"G#2","midi":44,"time":1094.1675419999942,"velocity":0.8818897637795275,"duration":0.26273169166665866},{"name":"G#2","midi":44,"time":1094.4453199999941,"velocity":0.8818897637795275,"duration":0.26273169166665866},{"name":"G#3","midi":56,"time":1094.723097999994,"velocity":0.8818897637795275,"duration":0.26273169166665866},{"name":"G#2","midi":44,"time":1095.000875999994,"velocity":0.8818897637795275,"duration":0.26273169166665866},{"name":"G#2","midi":44,"time":1095.556431999994,"velocity":0.8818897637795275,"duration":0.26273169166665866},{"name":"G#2","midi":44,"time":1095.8342099999938,"velocity":0.8818897637795275,"duration":0.26273169166665866},{"name":"G#2","midi":44,"time":1096.1119879999937,"velocity":0.8818897637795275,"duration":0.26273169166665866},{"name":"G#2","midi":44,"time":1096.3897659999936,"velocity":0.8818897637795275,"duration":0.26273169166665866},{"name":"G#2","midi":44,"time":1096.6675439999935,"velocity":0.8818897637795275,"duration":0.26273169166665866},{"name":"G#3","midi":56,"time":1096.9453219999934,"velocity":0.8818897637795275,"duration":0.26273169166665866},{"name":"G#2","midi":44,"time":1097.2230999999933,"velocity":0.8818897637795275,"duration":0.26273169166665866},{"name":"B2","midi":47,"time":1100.0008799999935,"velocity":0.8818897637795275,"duration":0.26273169166665866},{"name":"B2","midi":47,"time":1100.2786579999934,"velocity":0.8818897637795275,"duration":0.26273169166665866},{"name":"B2","midi":47,"time":1100.5564359999933,"velocity":0.8818897637795275,"duration":0.26273169166665866},{"name":"B2","midi":47,"time":1100.8342139999932,"velocity":0.8818897637795275,"duration":0.26273169166665866},{"name":"B2","midi":47,"time":1101.111991999993,"velocity":0.8818897637795275,"duration":0.26273169166665866},{"name":"B3","midi":59,"time":1101.389769999993,"velocity":0.8818897637795275,"duration":0.26273169166665866},{"name":"B2","midi":47,"time":1101.6675479999928,"velocity":0.8818897637795275,"duration":0.26273169166665866},{"name":"C3","midi":48,"time":1102.2231039999929,"velocity":0.8818897637795275,"duration":0.26273169166665866},{"name":"C3","midi":48,"time":1102.5008819999928,"velocity":0.8818897637795275,"duration":0.26273169166665866},{"name":"C3","midi":48,"time":1102.7786599999927,"velocity":0.8818897637795275,"duration":0.26273169166665866},{"name":"C3","midi":48,"time":1103.0564379999926,"velocity":0.8818897637795275,"duration":0.26273169166665866},{"name":"C3","midi":48,"time":1103.3342159999925,"velocity":0.8818897637795275,"duration":0.26273169166665866},{"name":"C4","midi":60,"time":1103.6119939999924,"velocity":0.8818897637795275,"duration":0.26273169166665866},{"name":"C3","midi":48,"time":1103.8897719999923,"velocity":0.8818897637795275,"duration":0.26273169166665866},{"name":"C3","midi":48,"time":1104.4453279999923,"velocity":0.8818897637795275,"duration":0.26273169166665866},{"name":"C3","midi":48,"time":1104.7231059999922,"velocity":0.8818897637795275,"duration":0.26273169166665866},{"name":"C3","midi":48,"time":1105.000883999992,"velocity":0.8818897637795275,"duration":0.26273169166665866},{"name":"C3","midi":48,"time":1105.278661999992,"velocity":0.8818897637795275,"duration":0.26273169166665866},{"name":"C3","midi":48,"time":1105.5564399999919,"velocity":0.8818897637795275,"duration":0.26273169166665866},{"name":"C4","midi":60,"time":1105.8342179999918,"velocity":0.8818897637795275,"duration":0.26273169166665866},{"name":"C3","midi":48,"time":1106.1119959999917,"velocity":0.8818897637795275,"duration":0.26273169166665866},{"name":"D3","midi":50,"time":1107.5008859999916,"velocity":0.8818897637795275,"duration":0.26273169166665866},{"name":"D3","midi":50,"time":1107.7786639999915,"velocity":0.8818897637795275,"duration":0.7905098916667157},{"name":"D3","midi":50,"time":1108.8897759999916,"velocity":0.8818897637795275,"duration":0.26273169166665866},{"name":"D3","midi":50,"time":1109.1675539999915,"velocity":0.8818897637795275,"duration":0.26273169166665866},{"name":"D3","midi":50,"time":1109.4453319999914,"velocity":0.8818897637795275,"duration":0.26273169166665866},{"name":"D3","midi":50,"time":1109.7231099999913,"velocity":0.8818897637795275,"duration":0.26273169166665866},{"name":"D3","midi":50,"time":1110.0008879999912,"velocity":0.8818897637795275,"duration":0.26273169166665866},{"name":"D4","midi":62,"time":1110.278665999991,"velocity":0.8818897637795275,"duration":0.26273169166665866},{"name":"D3","midi":50,"time":1110.556443999991,"velocity":0.8818897637795275,"duration":0.26273169166665866},{"name":"G#2","midi":44,"time":1111.111999999991,"velocity":0.8818897637795275,"duration":0.26273169166665866},{"name":"G#2","midi":44,"time":1111.3897779999909,"velocity":0.8818897637795275,"duration":0.26273169166665866},{"name":"G#2","midi":44,"time":1111.6675559999908,"velocity":0.8818897637795275,"duration":0.26273169166665866},{"name":"G#2","midi":44,"time":1111.9453339999907,"velocity":0.8818897637795275,"duration":0.26273169166665866},{"name":"G#2","midi":44,"time":1112.2231119999906,"velocity":0.8818897637795275,"duration":0.26273169166665866},{"name":"G#3","midi":56,"time":1112.5008899999905,"velocity":0.8818897637795275,"duration":0.26273169166665866},{"name":"G#2","midi":44,"time":1112.7786679999904,"velocity":0.8818897637795275,"duration":0.26273169166665866},{"name":"G#2","midi":44,"time":1113.3342239999904,"velocity":0.8818897637795275,"duration":0.26273169166665866},{"name":"G#2","midi":44,"time":1113.6120019999903,"velocity":0.8818897637795275,"duration":0.26273169166665866},{"name":"G#2","midi":44,"time":1113.8897799999902,"velocity":0.8818897637795275,"duration":0.26273169166665866},{"name":"G#2","midi":44,"time":1114.16755799999,"velocity":0.8818897637795275,"duration":0.26273169166665866},{"name":"G#2","midi":44,"time":1114.44533599999,"velocity":0.8818897637795275,"duration":0.26273169166665866},{"name":"G#3","midi":56,"time":1114.72311399999,"velocity":0.8818897637795275,"duration":0.26273169166665866},{"name":"G#2","midi":44,"time":1115.0008919999898,"velocity":0.8818897637795275,"duration":0.26273169166665866},{"name":"B2","midi":47,"time":1115.5564479999898,"velocity":0.8818897637795275,"duration":0.26273169166665866},{"name":"B2","midi":47,"time":1115.8342259999897,"velocity":0.8818897637795275,"duration":0.26273169166665866},{"name":"B2","midi":47,"time":1116.1120039999896,"velocity":0.8818897637795275,"duration":0.26273169166665866},{"name":"B2","midi":47,"time":1116.3897819999895,"velocity":0.8818897637795275,"duration":0.26273169166665866},{"name":"B2","midi":47,"time":1116.6675599999894,"velocity":0.8818897637795275,"duration":0.26273169166665866},{"name":"B3","midi":59,"time":1116.9453379999893,"velocity":0.8818897637795275,"duration":0.26273169166665866},{"name":"B2","midi":47,"time":1117.2231159999892,"velocity":0.8818897637795275,"duration":0.26273169166665866},{"name":"B2","midi":47,"time":1117.7786719999892,"velocity":0.8818897637795275,"duration":0.26273169166665866},{"name":"B2","midi":47,"time":1118.0564499999891,"velocity":0.8818897637795275,"duration":0.26273169166665866},{"name":"B2","midi":47,"time":1118.334227999989,"velocity":0.8818897637795275,"duration":0.26273169166665866},{"name":"B2","midi":47,"time":1118.612005999989,"velocity":0.8818897637795275,"duration":0.26273169166665866},{"name":"B2","midi":47,"time":1118.8897839999888,"velocity":0.8818897637795275,"duration":0.26273169166665866},{"name":"B3","midi":59,"time":1119.1675619999887,"velocity":0.8818897637795275,"duration":0.26273169166665866},{"name":"B2","midi":47,"time":1119.4453399999886,"velocity":0.8818897637795275,"duration":0.26273169166665866},{"name":"C3","midi":48,"time":1120.0008959999886,"velocity":0.8818897637795275,"duration":0.26273169166665866},{"name":"C3","midi":48,"time":1120.2786739999885,"velocity":0.8818897637795275,"duration":0.26273169166665866},{"name":"C3","midi":48,"time":1120.5564519999884,"velocity":0.8818897637795275,"duration":0.26273169166665866},{"name":"C3","midi":48,"time":1120.8342299999883,"velocity":0.8818897637795275,"duration":0.26273169166665866},{"name":"C3","midi":48,"time":1121.1120079999882,"velocity":0.8818897637795275,"duration":0.26273169166665866},{"name":"C4","midi":60,"time":1121.3897859999881,"velocity":0.8818897637795275,"duration":0.26273169166665866},{"name":"C3","midi":48,"time":1121.667563999988,"velocity":0.8818897637795275,"duration":0.26273169166665866},{"name":"B2","midi":47,"time":1122.223119999988,"velocity":0.8818897637795275,"duration":0.26273169166665866},{"name":"B2","midi":47,"time":1122.500897999988,"velocity":0.8818897637795275,"duration":0.26273169166665866},{"name":"B2","midi":47,"time":1122.7786759999879,"velocity":0.8818897637795275,"duration":0.26273169166665866},{"name":"B2","midi":47,"time":1123.0564539999878,"velocity":0.8818897637795275,"duration":0.26273169166665866},{"name":"B2","midi":47,"time":1123.3342319999877,"velocity":0.8818897637795275,"duration":0.26273169166665866},{"name":"B3","midi":59,"time":1123.6120099999875,"velocity":0.8818897637795275,"duration":0.26273169166665866},{"name":"B2","midi":47,"time":1123.8897879999874,"velocity":0.8818897637795275,"duration":0.26273169166665866},{"name":"A#2","midi":46,"time":1124.4453439999875,"velocity":0.8818897637795275,"duration":0.26273169166665866},{"name":"A#2","midi":46,"time":1124.7231219999874,"velocity":0.8818897637795275,"duration":0.26273169166665866},{"name":"A#2","midi":46,"time":1125.0008999999873,"velocity":0.8818897637795275,"duration":0.26273169166665866},{"name":"A#2","midi":46,"time":1125.2786779999872,"velocity":0.8818897637795275,"duration":0.26273169166665866},{"name":"A#2","midi":46,"time":1125.556455999987,"velocity":0.8818897637795275,"duration":0.26273169166665866},{"name":"A#3","midi":58,"time":1125.834233999987,"velocity":0.8818897637795275,"duration":0.26273169166665866},{"name":"A#2","midi":46,"time":1126.1120119999869,"velocity":0.8818897637795275,"duration":0.26273169166665866},{"name":"A2","midi":45,"time":1126.6675679999869,"velocity":0.8818897637795275,"duration":0.26273169166665866},{"name":"A2","midi":45,"time":1126.9453459999868,"velocity":0.8818897637795275,"duration":0.26273169166665866},{"name":"A2","midi":45,"time":1127.2231239999867,"velocity":0.8818897637795275,"duration":0.26273169166665866},{"name":"A2","midi":45,"time":1127.5009019999866,"velocity":0.8818897637795275,"duration":0.26273169166665866},{"name":"A2","midi":45,"time":1127.7786799999865,"velocity":0.8818897637795275,"duration":0.26273169166665866},{"name":"A3","midi":57,"time":1128.0564579999864,"velocity":0.8818897637795275,"duration":0.26273169166665866},{"name":"A2","midi":45,"time":1128.3342359999863,"velocity":0.8818897637795275,"duration":0.26273169166665866},{"name":"G#2","midi":44,"time":1128.8897919999863,"velocity":0.8818897637795275,"duration":0.26273169166665866},{"name":"G#2","midi":44,"time":1129.1675699999862,"velocity":0.8818897637795275,"duration":0.26273169166665866},{"name":"G#2","midi":44,"time":1129.445347999986,"velocity":0.8818897637795275,"duration":0.26273169166665866},{"name":"G#2","midi":44,"time":1129.723125999986,"velocity":0.8818897637795275,"duration":0.26273169166665866},{"name":"G#2","midi":44,"time":1130.000903999986,"velocity":0.8818897637795275,"duration":0.26273169166665866},{"name":"G#3","midi":56,"time":1130.2786819999858,"velocity":0.8818897637795275,"duration":0.26273169166665866},{"name":"G#2","midi":44,"time":1130.5564599999857,"velocity":0.8818897637795275,"duration":0.26273169166665866},{"name":"G#2","midi":44,"time":1131.1120159999857,"velocity":0.8818897637795275,"duration":0.26273169166665866},{"name":"G#2","midi":44,"time":1131.3897939999856,"velocity":0.8818897637795275,"duration":0.26273169166665866},{"name":"G#2","midi":44,"time":1131.6675719999855,"velocity":0.8818897637795275,"duration":0.26273169166665866},{"name":"G#2","midi":44,"time":1131.9453499999854,"velocity":0.8818897637795275,"duration":0.26273169166665866},{"name":"G#2","midi":44,"time":1132.2231279999853,"velocity":0.8818897637795275,"duration":0.26273169166665866},{"name":"G#3","midi":56,"time":1132.5009059999852,"velocity":0.8818897637795275,"duration":0.26273169166665866},{"name":"G#2","midi":44,"time":1132.778683999985,"velocity":0.8818897637795275,"duration":0.26273169166665866},{"name":"B2","midi":47,"time":1133.3342399999851,"velocity":0.8818897637795275,"duration":0.26273169166665866},{"name":"B2","midi":47,"time":1133.612017999985,"velocity":0.8818897637795275,"duration":0.26273169166665866},{"name":"B2","midi":47,"time":1133.889795999985,"velocity":0.8818897637795275,"duration":0.26273169166665866},{"name":"B2","midi":47,"time":1134.1675739999848,"velocity":0.8818897637795275,"duration":0.26273169166665866},{"name":"B2","midi":47,"time":1134.4453519999847,"velocity":0.8818897637795275,"duration":0.26273169166665866},{"name":"B3","midi":59,"time":1134.7231299999846,"velocity":0.8818897637795275,"duration":0.26273169166665866},{"name":"B2","midi":47,"time":1135.0009079999845,"velocity":0.8818897637795275,"duration":0.26273169166665866},{"name":"B2","midi":47,"time":1135.5564639999845,"velocity":0.8818897637795275,"duration":0.26273169166665866},{"name":"B2","midi":47,"time":1135.8342419999844,"velocity":0.8818897637795275,"duration":0.26273169166665866},{"name":"B2","midi":47,"time":1136.1120199999843,"velocity":0.8818897637795275,"duration":0.26273169166665866},{"name":"B2","midi":47,"time":1136.3897979999842,"velocity":0.8818897637795275,"duration":0.26273169166665866},{"name":"B2","midi":47,"time":1136.6675759999841,"velocity":0.8818897637795275,"duration":0.26273169166665866},{"name":"B3","midi":59,"time":1136.945353999984,"velocity":0.8818897637795275,"duration":0.26273169166665866},{"name":"B2","midi":47,"time":1137.223131999984,"velocity":0.8818897637795275,"duration":0.26273169166665866},{"name":"C3","midi":48,"time":1138.6120219999839,"velocity":0.8818897637795275,"duration":0.26273169166665866},{"name":"C3","midi":48,"time":1138.8897999999838,"velocity":0.8818897637795275,"duration":0.7905098916667157},{"name":"C3","midi":48,"time":1140.0009119999838,"velocity":0.8818897637795275,"duration":0.26273169166665866},{"name":"C3","midi":48,"time":1140.2786899999837,"velocity":0.8818897637795275,"duration":0.26273169166665866},{"name":"C3","midi":48,"time":1140.5564679999836,"velocity":0.8818897637795275,"duration":0.26273169166665866},{"name":"C3","midi":48,"time":1140.8342459999835,"velocity":0.8818897637795275,"duration":0.26273169166665866},{"name":"C3","midi":48,"time":1141.1120239999834,"velocity":0.8818897637795275,"duration":0.26273169166665866},{"name":"C4","midi":60,"time":1141.3898019999833,"velocity":0.8818897637795275,"duration":0.26273169166665866},{"name":"C3","midi":48,"time":1141.6675799999832,"velocity":0.8818897637795275,"duration":0.26273169166665866},{"name":"C3","midi":48,"time":1143.0564699999832,"velocity":0.8818897637795275,"duration":0.26273169166665866},{"name":"C3","midi":48,"time":1143.334247999983,"velocity":0.8818897637795275,"duration":0.7905098916667157},{"name":"F#2","midi":42,"time":1164.1675979999832,"velocity":0.6299212598425197,"duration":2.1099553916667446},{"name":"C#3","midi":49,"time":1164.1675979999832,"velocity":0.6299212598425197,"duration":2.1099553916667446},{"name":"A3","midi":57,"time":1164.1675979999832,"velocity":0.6299212598425197,"duration":2.1099553916667446},{"name":"E2","midi":40,"time":1166.3898219999833,"velocity":0.6299212598425197,"duration":2.1099553916667446},{"name":"B2","midi":47,"time":1166.3898219999833,"velocity":0.6299212598425197,"duration":2.1099553916667446},{"name":"G#3","midi":56,"time":1166.3898219999833,"velocity":0.6299212598425197,"duration":2.1099553916667446},{"name":"D2","midi":38,"time":1168.6120459999834,"velocity":0.6299212598425197,"duration":2.1099553916667446},{"name":"A2","midi":45,"time":1168.6120459999834,"velocity":0.6299212598425197,"duration":2.1099553916667446},{"name":"F#3","midi":54,"time":1168.6120459999834,"velocity":0.6299212598425197,"duration":2.1099553916667446},{"name":"C#2","midi":37,"time":1170.8342699999835,"velocity":0.6299212598425197,"duration":2.1099553916667446},{"name":"G#2","midi":44,"time":1170.8342699999835,"velocity":0.6299212598425197,"duration":2.1099553916667446},{"name":"G#3","midi":56,"time":1170.8342699999835,"velocity":0.6299212598425197,"duration":2.1099553916667446},{"name":"C#4","midi":61,"time":1170.8342699999835,"velocity":0.6299212598425197,"duration":2.1099553916667446},{"name":"F#2","midi":42,"time":1173.0564939999836,"velocity":0.6299212598425197,"duration":2.1099553916667446},{"name":"C#3","midi":49,"time":1173.0564939999836,"velocity":0.6299212598425197,"duration":2.1099553916667446},{"name":"A3","midi":57,"time":1173.0564939999836,"velocity":0.6299212598425197,"duration":2.1099553916667446},{"name":"E2","midi":40,"time":1175.2787179999837,"velocity":0.6299212598425197,"duration":2.1099553916667446},{"name":"B2","midi":47,"time":1175.2787179999837,"velocity":0.6299212598425197,"duration":2.1099553916667446},{"name":"G#3","midi":56,"time":1175.2787179999837,"velocity":0.6299212598425197,"duration":2.1099553916667446},{"name":"C#2","midi":37,"time":1177.5009419999838,"velocity":0.6299212598425197,"duration":2.1099553916667446},{"name":"G#2","midi":44,"time":1177.5009419999838,"velocity":0.6299212598425197,"duration":2.1099553916667446},{"name":"G#3","midi":56,"time":1177.5009419999838,"velocity":0.6299212598425197,"duration":2.1099553916667446},{"name":"C#4","midi":61,"time":1177.5009419999838,"velocity":0.6299212598425197,"duration":2.1099553916667446},{"name":"F#1","midi":30,"time":1180.834277999984,"velocity":0.6299212598425197,"duration":0.13078714166681493},{"name":"F#2","midi":42,"time":1180.834277999984,"velocity":0.6299212598425197,"duration":0.13078714166681493},{"name":"F#3","midi":54,"time":1180.834277999984,"velocity":0.6299212598425197,"duration":0.13078714166681493},{"name":"F#1","midi":30,"time":1180.973166999984,"velocity":0.6614173228346457,"duration":0.26273169166665866},{"name":"F#2","midi":42,"time":1180.973166999984,"velocity":0.6614173228346457,"duration":0.26273169166665866},{"name":"F#3","midi":54,"time":1180.973166999984,"velocity":0.6614173228346457,"duration":0.26273169166665866},{"name":"F#1","midi":30,"time":1181.2509449999839,"velocity":0.7244094488188977,"duration":0.26273169166665866},{"name":"F#2","midi":42,"time":1181.2509449999839,"velocity":0.7244094488188977,"duration":0.26273169166665866},{"name":"F#3","midi":54,"time":1181.2509449999839,"velocity":0.7244094488188977,"duration":0.26273169166665866},{"name":"F#1","midi":30,"time":1181.6676119999838,"velocity":0.8188976377952756,"duration":0.13078714166658756},{"name":"F#2","midi":42,"time":1181.6676119999838,"velocity":0.8188976377952756,"duration":0.13078714166658756},{"name":"F#3","midi":54,"time":1181.6676119999838,"velocity":0.8188976377952756,"duration":0.13078714166658756},{"name":"F#1","midi":30,"time":1181.8065009999837,"velocity":0.8503937007874016,"duration":0.13078714166658756},{"name":"F#2","midi":42,"time":1181.8065009999837,"velocity":0.8503937007874016,"duration":0.13078714166658756},{"name":"F#3","midi":54,"time":1181.8065009999837,"velocity":0.8503937007874016,"duration":0.13078714166658756},{"name":"F#2","midi":42,"time":1181.9453899999835,"velocity":0.8818897637795275,"duration":0.2627316916664313},{"name":"F#3","midi":54,"time":1181.9453899999835,"velocity":0.8818897637795275,"duration":0.2627316916664313},{"name":"F#3","midi":54,"time":1182.2231679999832,"velocity":0.8818897637795275,"duration":0.26273169166665866},{"name":"F#4","midi":66,"time":1182.2231679999832,"velocity":0.8818897637795275,"duration":0.26273169166665866},{"name":"F#2","midi":42,"time":1182.500945999983,"velocity":0.8818897637795275,"duration":0.26273169166665866},{"name":"F#3","midi":54,"time":1182.500945999983,"velocity":0.8818897637795275,"duration":0.26273169166665866},{"name":"F#3","midi":54,"time":1182.778723999983,"velocity":0.8818897637795275,"duration":0.26273169166665866},{"name":"F#4","midi":66,"time":1182.778723999983,"velocity":0.8818897637795275,"duration":0.26273169166665866},{"name":"F#2","midi":42,"time":1183.0565019999829,"velocity":0.8818897637795275,"duration":0.26273169166665866},{"name":"F#3","midi":54,"time":1183.0565019999829,"velocity":0.8818897637795275,"duration":0.26273169166665866},{"name":"F#3","midi":54,"time":1183.3342799999828,"velocity":0.8818897637795275,"duration":0.26273169166665866},{"name":"F#4","midi":66,"time":1183.3342799999828,"velocity":0.8818897637795275,"duration":0.26273169166665866},{"name":"G#2","midi":44,"time":1183.6120579999827,"velocity":0.8818897637795275,"duration":0.26273169166665866},{"name":"G#3","midi":56,"time":1183.6120579999827,"velocity":0.8818897637795275,"duration":0.26273169166665866},{"name":"G#3","midi":56,"time":1183.8898359999826,"velocity":0.8818897637795275,"duration":0.26273169166665866},{"name":"G#4","midi":68,"time":1183.8898359999826,"velocity":0.8818897637795275,"duration":0.26273169166665866},{"name":"A2","midi":45,"time":1184.1676139999824,"velocity":0.8818897637795275,"duration":0.2627316916664313},{"name":"A3","midi":57,"time":1184.1676139999824,"velocity":0.8818897637795275,"duration":0.2627316916664313},{"name":"A3","midi":57,"time":1184.4453919999821,"velocity":0.8818897637795275,"duration":0.26273169166665866},{"name":"A4","midi":69,"time":1184.4453919999821,"velocity":0.8818897637795275,"duration":0.26273169166665866},{"name":"A2","midi":45,"time":1184.723169999982,"velocity":0.8818897637795275,"duration":0.26273169166665866},{"name":"A3","midi":57,"time":1184.723169999982,"velocity":0.8818897637795275,"duration":0.26273169166665866},{"name":"A3","midi":57,"time":1185.000947999982,"velocity":0.8818897637795275,"duration":0.26273169166665866},{"name":"A4","midi":69,"time":1185.000947999982,"velocity":0.8818897637795275,"duration":0.26273169166665866},{"name":"A2","midi":45,"time":1185.2787259999818,"velocity":0.8818897637795275,"duration":0.26273169166665866},{"name":"A3","midi":57,"time":1185.2787259999818,"velocity":0.8818897637795275,"duration":0.26273169166665866},{"name":"A3","midi":57,"time":1185.5565039999817,"velocity":0.8818897637795275,"duration":0.26273169166665866},{"name":"A4","midi":69,"time":1185.5565039999817,"velocity":0.8818897637795275,"duration":0.26273169166665866},{"name":"B2","midi":47,"time":1185.8342819999816,"velocity":0.8818897637795275,"duration":0.26273169166665866},{"name":"B3","midi":59,"time":1185.8342819999816,"velocity":0.8818897637795275,"duration":0.26273169166665866},{"name":"B3","midi":59,"time":1186.1120599999815,"velocity":0.8818897637795275,"duration":0.26273169166665866},{"name":"B4","midi":71,"time":1186.1120599999815,"velocity":0.8818897637795275,"duration":0.26273169166665866},{"name":"C#3","midi":49,"time":1186.3898379999814,"velocity":0.8818897637795275,"duration":0.2627316916664313},{"name":"C#4","midi":61,"time":1186.3898379999814,"velocity":0.8818897637795275,"duration":0.2627316916664313},{"name":"C#4","midi":61,"time":1186.667615999981,"velocity":0.8818897637795275,"duration":0.26273169166665866},{"name":"C#5","midi":73,"time":1186.667615999981,"velocity":0.8818897637795275,"duration":0.26273169166665866},{"name":"C#3","midi":49,"time":1186.945393999981,"velocity":0.8818897637795275,"duration":0.26273169166665866},{"name":"C#4","midi":61,"time":1186.945393999981,"velocity":0.8818897637795275,"duration":0.26273169166665866},{"name":"C#4","midi":61,"time":1187.2231719999809,"velocity":0.8818897637795275,"duration":0.26273169166665866},{"name":"C#5","midi":73,"time":1187.2231719999809,"velocity":0.8818897637795275,"duration":0.26273169166665866},{"name":"C#3","midi":49,"time":1187.5009499999808,"velocity":0.8818897637795275,"duration":0.26273169166665866},{"name":"C#4","midi":61,"time":1187.5009499999808,"velocity":0.8818897637795275,"duration":0.26273169166665866},{"name":"C#4","midi":61,"time":1187.7787279999807,"velocity":0.8818897637795275,"duration":0.26273169166665866},{"name":"C#5","midi":73,"time":1187.7787279999807,"velocity":0.8818897637795275,"duration":0.26273169166665866},{"name":"E3","midi":52,"time":1188.0565059999806,"velocity":0.8818897637795275,"duration":0.26273169166665866},{"name":"E4","midi":64,"time":1188.0565059999806,"velocity":0.8818897637795275,"duration":0.26273169166665866},{"name":"E4","midi":64,"time":1188.3342839999805,"velocity":0.8818897637795275,"duration":0.26273169166665866},{"name":"E5","midi":76,"time":1188.3342839999805,"velocity":0.8818897637795275,"duration":0.26273169166665866},{"name":"F#3","midi":54,"time":1188.6120619999804,"velocity":0.8818897637795275,"duration":0.3946762416665024},{"name":"F#4","midi":66,"time":1188.6120619999804,"velocity":0.8818897637795275,"duration":0.3946762416665024},{"name":"F#3","midi":54,"time":1189.02872899998,"velocity":0.8818897637795275,"duration":0.26273169166665866},{"name":"F#4","midi":66,"time":1189.02872899998,"velocity":0.8818897637795275,"duration":0.26273169166665866},{"name":"F#3","midi":54,"time":1189.44539599998,"velocity":0.8818897637795275,"duration":0.26273169166665866},{"name":"F#4","midi":66,"time":1189.44539599998,"velocity":0.8818897637795275,"duration":0.26273169166665866},{"name":"F#3","midi":54,"time":1189.72317399998,"velocity":0.8818897637795275,"duration":0.5266207916665735},{"name":"F#4","midi":66,"time":1189.72317399998,"velocity":0.8818897637795275,"duration":0.5266207916665735},{"name":"E3","midi":52,"time":1190.2787299999798,"velocity":0.8818897637795275,"duration":0.5266207916665735},{"name":"E4","midi":64,"time":1190.2787299999798,"velocity":0.8818897637795275,"duration":0.5266207916665735},{"name":"D2","midi":38,"time":1190.8342859999796,"velocity":0.8818897637795275,"duration":0.2627316916664313},{"name":"D3","midi":50,"time":1190.8342859999796,"velocity":0.8818897637795275,"duration":0.2627316916664313},{"name":"D3","midi":50,"time":1191.1120639999792,"velocity":0.8818897637795275,"duration":0.26273169166665866},{"name":"D4","midi":62,"time":1191.1120639999792,"velocity":0.8818897637795275,"duration":0.26273169166665866},{"name":"D2","midi":38,"time":1191.3898419999791,"velocity":0.8818897637795275,"duration":0.26273169166665866},{"name":"D3","midi":50,"time":1191.3898419999791,"velocity":0.8818897637795275,"duration":0.26273169166665866},{"name":"D3","midi":50,"time":1191.667619999979,"velocity":0.8818897637795275,"duration":0.26273169166665866},{"name":"D4","midi":62,"time":1191.667619999979,"velocity":0.8818897637795275,"duration":0.26273169166665866},{"name":"D2","midi":38,"time":1191.945397999979,"velocity":0.8818897637795275,"duration":0.26273169166665866},{"name":"D3","midi":50,"time":1191.945397999979,"velocity":0.8818897637795275,"duration":0.26273169166665866},{"name":"D3","midi":50,"time":1192.2231759999788,"velocity":0.8818897637795275,"duration":0.26273169166665866},{"name":"D4","midi":62,"time":1192.2231759999788,"velocity":0.8818897637795275,"duration":0.26273169166665866},{"name":"E2","midi":40,"time":1192.5009539999787,"velocity":0.8818897637795275,"duration":0.26273169166665866},{"name":"E3","midi":52,"time":1192.5009539999787,"velocity":0.8818897637795275,"duration":0.26273169166665866},{"name":"E3","midi":52,"time":1192.7787319999786,"velocity":0.8818897637795275,"duration":0.26273169166665866},{"name":"E4","midi":64,"time":1192.7787319999786,"velocity":0.8818897637795275,"duration":0.26273169166665866},{"name":"A2","midi":45,"time":1193.0565099999785,"velocity":0.8818897637795275,"duration":0.2627316916664313},{"name":"A3","midi":57,"time":1193.0565099999785,"velocity":0.8818897637795275,"duration":0.2627316916664313},{"name":"A3","midi":57,"time":1193.3342879999782,"velocity":0.8818897637795275,"duration":0.26273169166665866},{"name":"A4","midi":69,"time":1193.3342879999782,"velocity":0.8818897637795275,"duration":0.26273169166665866},{"name":"A2","midi":45,"time":1193.612065999978,"velocity":0.8818897637795275,"duration":0.26273169166665866},{"name":"A3","midi":57,"time":1193.612065999978,"velocity":0.8818897637795275,"duration":0.26273169166665866},{"name":"A3","midi":57,"time":1193.889843999978,"velocity":0.8818897637795275,"duration":0.26273169166665866},{"name":"A4","midi":69,"time":1193.889843999978,"velocity":0.8818897637795275,"duration":0.26273169166665866},{"name":"A2","midi":45,"time":1194.1676219999779,"velocity":0.8818897637795275,"duration":0.26273169166665866},{"name":"A3","midi":57,"time":1194.1676219999779,"velocity":0.8818897637795275,"duration":0.26273169166665866},{"name":"A3","midi":57,"time":1194.4453999999778,"velocity":0.8818897637795275,"duration":0.26273169166665866},{"name":"A4","midi":69,"time":1194.4453999999778,"velocity":0.8818897637795275,"duration":0.26273169166665866},{"name":"B2","midi":47,"time":1194.7231779999777,"velocity":0.8818897637795275,"duration":0.26273169166665866},{"name":"B3","midi":59,"time":1194.7231779999777,"velocity":0.8818897637795275,"duration":0.26273169166665866},{"name":"B3","midi":59,"time":1195.0009559999776,"velocity":0.8818897637795275,"duration":0.26273169166665866},{"name":"B4","midi":71,"time":1195.0009559999776,"velocity":0.8818897637795275,"duration":0.26273169166665866},{"name":"C#3","midi":49,"time":1195.2787339999775,"velocity":0.8818897637795275,"duration":0.2627316916664313},{"name":"C#4","midi":61,"time":1195.2787339999775,"velocity":0.8818897637795275,"duration":0.2627316916664313},{"name":"C#4","midi":61,"time":1195.5565119999771,"velocity":0.8818897637795275,"duration":0.26273169166665866},{"name":"C#5","midi":73,"time":1195.5565119999771,"velocity":0.8818897637795275,"duration":0.26273169166665866},{"name":"C#3","midi":49,"time":1195.834289999977,"velocity":0.8818897637795275,"duration":0.26273169166665866},{"name":"C#4","midi":61,"time":1195.834289999977,"velocity":0.8818897637795275,"duration":0.26273169166665866},{"name":"C#4","midi":61,"time":1196.112067999977,"velocity":0.8818897637795275,"duration":0.26273169166665866},{"name":"C#5","midi":73,"time":1196.112067999977,"velocity":0.8818897637795275,"duration":0.26273169166665866},{"name":"C#3","midi":49,"time":1196.3898459999768,"velocity":0.8818897637795275,"duration":0.26273169166665866},{"name":"C#4","midi":61,"time":1196.3898459999768,"velocity":0.8818897637795275,"duration":0.26273169166665866},{"name":"C#4","midi":61,"time":1196.6676239999767,"velocity":0.8818897637795275,"duration":0.26273169166665866},{"name":"C#5","midi":73,"time":1196.6676239999767,"velocity":0.8818897637795275,"duration":0.26273169166665866},{"name":"C#3","midi":49,"time":1196.9454019999766,"velocity":0.8818897637795275,"duration":0.26273169166665866},{"name":"C#4","midi":61,"time":1196.9454019999766,"velocity":0.8818897637795275,"duration":0.26273169166665866},{"name":"C#4","midi":61,"time":1197.2231799999765,"velocity":0.8818897637795275,"duration":0.26273169166665866},{"name":"C#5","midi":73,"time":1197.2231799999765,"velocity":0.8818897637795275,"duration":0.26273169166665866},{"name":"C#3","midi":49,"time":1197.5009579999764,"velocity":0.8818897637795275,"duration":0.2627316916664313},{"name":"C#4","midi":61,"time":1197.5009579999764,"velocity":0.8818897637795275,"duration":0.2627316916664313},{"name":"C#4","midi":61,"time":1197.778735999976,"velocity":0.8818897637795275,"duration":0.26273169166665866},{"name":"C#5","midi":73,"time":1197.778735999976,"velocity":0.8818897637795275,"duration":0.26273169166665866},{"name":"C#3","midi":49,"time":1198.056513999976,"velocity":0.8818897637795275,"duration":0.26273169166665866},{"name":"C#4","midi":61,"time":1198.056513999976,"velocity":0.8818897637795275,"duration":0.26273169166665866},{"name":"C#4","midi":61,"time":1198.334291999976,"velocity":0.8818897637795275,"duration":0.26273169166665866},{"name":"C#5","midi":73,"time":1198.334291999976,"velocity":0.8818897637795275,"duration":0.26273169166665866},{"name":"C#3","midi":49,"time":1198.6120699999758,"velocity":0.8818897637795275,"duration":0.26273169166665866},{"name":"C#4","midi":61,"time":1198.6120699999758,"velocity":0.8818897637795275,"duration":0.26273169166665866},{"name":"C#5","midi":73,"time":1198.6120699999758,"velocity":0.8818897637795275,"duration":0.26273169166665866},{"name":"B2","midi":47,"time":1198.8898479999757,"velocity":0.8818897637795275,"duration":0.26273169166665866},{"name":"B3","midi":59,"time":1198.8898479999757,"velocity":0.8818897637795275,"duration":0.26273169166665866},{"name":"B4","midi":71,"time":1198.8898479999757,"velocity":0.8818897637795275,"duration":0.26273169166665866},{"name":"A2","midi":45,"time":1199.1676259999756,"velocity":0.8818897637795275,"duration":0.26273169166665866},{"name":"A3","midi":57,"time":1199.1676259999756,"velocity":0.8818897637795275,"duration":0.26273169166665866},{"name":"A4","midi":69,"time":1199.1676259999756,"velocity":0.8818897637795275,"duration":0.26273169166665866},{"name":"G#2","midi":44,"time":1199.4454039999755,"velocity":0.8818897637795275,"duration":0.26273169166665866},{"name":"G#3","midi":56,"time":1199.4454039999755,"velocity":0.8818897637795275,"duration":0.26273169166665866},{"name":"G#4","midi":68,"time":1199.4454039999755,"velocity":0.8818897637795275,"duration":0.26273169166665866},{"name":"F#2","midi":42,"time":1199.7231819999754,"velocity":0.8818897637795275,"duration":0.2627316916664313},{"name":"F#3","midi":54,"time":1199.7231819999754,"velocity":0.8818897637795275,"duration":0.2627316916664313},{"name":"F#3","midi":54,"time":1200.000959999975,"velocity":0.8818897637795275,"duration":0.26273169166665866},{"name":"F#4","midi":66,"time":1200.000959999975,"velocity":0.8818897637795275,"duration":0.26273169166665866},{"name":"F#2","midi":42,"time":1200.278737999975,"velocity":0.8818897637795275,"duration":0.26273169166665866},{"name":"F#3","midi":54,"time":1200.278737999975,"velocity":0.8818897637795275,"duration":0.26273169166665866},{"name":"F#3","midi":54,"time":1200.5565159999749,"velocity":0.8818897637795275,"duration":0.26273169166665866},{"name":"F#4","midi":66,"time":1200.5565159999749,"velocity":0.8818897637795275,"duration":0.26273169166665866},{"name":"F#2","midi":42,"time":1200.8342939999748,"velocity":0.8818897637795275,"duration":0.26273169166665866},{"name":"F#3","midi":54,"time":1200.8342939999748,"velocity":0.8818897637795275,"duration":0.26273169166665866},{"name":"F#3","midi":54,"time":1201.1120719999747,"velocity":0.8818897637795275,"duration":0.26273169166665866},{"name":"F#4","midi":66,"time":1201.1120719999747,"velocity":0.8818897637795275,"duration":0.26273169166665866},{"name":"G#2","midi":44,"time":1201.3898499999746,"velocity":0.8818897637795275,"duration":0.26273169166665866},{"name":"G#3","midi":56,"time":1201.3898499999746,"velocity":0.8818897637795275,"duration":0.26273169166665866},{"name":"G#3","midi":56,"time":1201.6676279999745,"velocity":0.8818897637795275,"duration":0.26273169166665866},{"name":"G#4","midi":68,"time":1201.6676279999745,"velocity":0.8818897637795275,"duration":0.26273169166665866},{"name":"A2","midi":45,"time":1201.9454059999744,"velocity":0.8818897637795275,"duration":0.2627316916664313},{"name":"A3","midi":57,"time":1201.9454059999744,"velocity":0.8818897637795275,"duration":0.2627316916664313},{"name":"A3","midi":57,"time":1202.223183999974,"velocity":0.8818897637795275,"duration":0.26273169166665866},{"name":"A4","midi":69,"time":1202.223183999974,"velocity":0.8818897637795275,"duration":0.26273169166665866},{"name":"A2","midi":45,"time":1202.500961999974,"velocity":0.8818897637795275,"duration":0.26273169166665866},{"name":"A3","midi":57,"time":1202.500961999974,"velocity":0.8818897637795275,"duration":0.26273169166665866},{"name":"A3","midi":57,"time":1202.7787399999738,"velocity":0.8818897637795275,"duration":0.26273169166665866},{"name":"A4","midi":69,"time":1202.7787399999738,"velocity":0.8818897637795275,"duration":0.26273169166665866},{"name":"A2","midi":45,"time":1203.0565179999737,"velocity":0.8818897637795275,"duration":0.26273169166665866},{"name":"A3","midi":57,"time":1203.0565179999737,"velocity":0.8818897637795275,"duration":0.26273169166665866},{"name":"A3","midi":57,"time":1203.3342959999736,"velocity":0.8818897637795275,"duration":0.26273169166665866},{"name":"A4","midi":69,"time":1203.3342959999736,"velocity":0.8818897637795275,"duration":0.26273169166665866},{"name":"B2","midi":47,"time":1203.6120739999735,"velocity":0.8818897637795275,"duration":0.26273169166665866},{"name":"B3","midi":59,"time":1203.6120739999735,"velocity":0.8818897637795275,"duration":0.26273169166665866},{"name":"B3","midi":59,"time":1203.8898519999734,"velocity":0.8818897637795275,"duration":0.26273169166665866},{"name":"B4","midi":71,"time":1203.8898519999734,"velocity":0.8818897637795275,"duration":0.26273169166665866},{"name":"C#3","midi":49,"time":1204.1676299999733,"velocity":0.8818897637795275,"duration":0.2627316916664313},{"name":"C#4","midi":61,"time":1204.1676299999733,"velocity":0.8818897637795275,"duration":0.2627316916664313},{"name":"C#4","midi":61,"time":1204.445407999973,"velocity":0.8818897637795275,"duration":0.26273169166665866},{"name":"C#5","midi":73,"time":1204.445407999973,"velocity":0.8818897637795275,"duration":0.26273169166665866},{"name":"C#3","midi":49,"time":1204.7231859999729,"velocity":0.8818897637795275,"duration":0.26273169166665866},{"name":"C#4","midi":61,"time":1204.7231859999729,"velocity":0.8818897637795275,"duration":0.26273169166665866},{"name":"C#4","midi":61,"time":1205.0009639999728,"velocity":0.8818897637795275,"duration":0.26273169166665866},{"name":"C#5","midi":73,"time":1205.0009639999728,"velocity":0.8818897637795275,"duration":0.26273169166665866},{"name":"C#3","midi":49,"time":1205.2787419999727,"velocity":0.8818897637795275,"duration":0.26273169166665866},{"name":"C#4","midi":61,"time":1205.2787419999727,"velocity":0.8818897637795275,"duration":0.26273169166665866},{"name":"C#4","midi":61,"time":1205.5565199999726,"velocity":0.8818897637795275,"duration":0.26273169166665866},{"name":"C#5","midi":73,"time":1205.5565199999726,"velocity":0.8818897637795275,"duration":0.26273169166665866},{"name":"C#3","midi":49,"time":1205.8342979999725,"velocity":0.8818897637795275,"duration":0.26273169166665866},{"name":"C#4","midi":61,"time":1205.8342979999725,"velocity":0.8818897637795275,"duration":0.26273169166665866},{"name":"C#4","midi":61,"time":1206.1120759999724,"velocity":0.8818897637795275,"duration":0.26273169166665866},{"name":"C#5","midi":73,"time":1206.1120759999724,"velocity":0.8818897637795275,"duration":0.26273169166665866},{"name":"F#4","midi":66,"time":1206.3898539999723,"velocity":0.8818897637795275,"duration":0.3946762416665024},{"name":"F#5","midi":78,"time":1206.3898539999723,"velocity":0.8818897637795275,"duration":0.3946762416665024},{"name":"F#4","midi":66,"time":1206.806520999972,"velocity":0.8818897637795275,"duration":0.39467624166672977},{"name":"F#5","midi":78,"time":1206.806520999972,"velocity":0.8818897637795275,"duration":0.39467624166672977},{"name":"F#4","midi":66,"time":1207.223187999972,"velocity":0.8818897637795275,"duration":0.26273169166665866},{"name":"F#5","midi":78,"time":1207.223187999972,"velocity":0.8818897637795275,"duration":0.26273169166665866},{"name":"F#4","midi":66,"time":1207.5009659999719,"velocity":0.8818897637795275,"duration":0.5266207916665735},{"name":"F#5","midi":78,"time":1207.5009659999719,"velocity":0.8818897637795275,"duration":0.5266207916665735},{"name":"E4","midi":64,"time":1208.0565219999717,"velocity":0.8818897637795275,"duration":0.5266207916665735},{"name":"E5","midi":76,"time":1208.0565219999717,"velocity":0.8818897637795275,"duration":0.5266207916665735},{"name":"D2","midi":38,"time":1208.6120779999715,"velocity":0.8818897637795275,"duration":0.2627316916664313},{"name":"D3","midi":50,"time":1208.6120779999715,"velocity":0.8818897637795275,"duration":0.2627316916664313},{"name":"D3","midi":50,"time":1208.8898559999711,"velocity":0.8818897637795275,"duration":0.26273169166665866},{"name":"D4","midi":62,"time":1208.8898559999711,"velocity":0.8818897637795275,"duration":0.26273169166665866},{"name":"D2","midi":38,"time":1209.167633999971,"velocity":0.8818897637795275,"duration":0.26273169166665866},{"name":"D3","midi":50,"time":1209.167633999971,"velocity":0.8818897637795275,"duration":0.26273169166665866},{"name":"D3","midi":50,"time":1209.445411999971,"velocity":0.8818897637795275,"duration":0.26273169166665866},{"name":"D4","midi":62,"time":1209.445411999971,"velocity":0.8818897637795275,"duration":0.26273169166665866},{"name":"D2","midi":38,"time":1209.7231899999708,"velocity":0.8818897637795275,"duration":0.26273169166665866},{"name":"D3","midi":50,"time":1209.7231899999708,"velocity":0.8818897637795275,"duration":0.26273169166665866},{"name":"D3","midi":50,"time":1210.0009679999707,"velocity":0.8818897637795275,"duration":0.26273169166665866},{"name":"D4","midi":62,"time":1210.0009679999707,"velocity":0.8818897637795275,"duration":0.26273169166665866},{"name":"E2","midi":40,"time":1210.2787459999706,"velocity":0.8818897637795275,"duration":0.26273169166665866},{"name":"E3","midi":52,"time":1210.2787459999706,"velocity":0.8818897637795275,"duration":0.26273169166665866},{"name":"E3","midi":52,"time":1210.5565239999705,"velocity":0.8818897637795275,"duration":0.26273169166665866},{"name":"E4","midi":64,"time":1210.5565239999705,"velocity":0.8818897637795275,"duration":0.26273169166665866},{"name":"A1","midi":33,"time":1210.8343019999704,"velocity":0.8818897637795275,"duration":0.2627316916664313},{"name":"A2","midi":45,"time":1210.8343019999704,"velocity":0.8818897637795275,"duration":0.2627316916664313},{"name":"A2","midi":45,"time":1211.11207999997,"velocity":0.8818897637795275,"duration":0.26273169166665866},{"name":"A3","midi":57,"time":1211.11207999997,"velocity":0.8818897637795275,"duration":0.26273169166665866},{"name":"A1","midi":33,"time":1211.38985799997,"velocity":0.8818897637795275,"duration":0.26273169166665866},{"name":"A2","midi":45,"time":1211.38985799997,"velocity":0.8818897637795275,"duration":0.26273169166665866},{"name":"A2","midi":45,"time":1211.66763599997,"velocity":0.8818897637795275,"duration":0.26273169166665866},{"name":"A3","midi":57,"time":1211.66763599997,"velocity":0.8818897637795275,"duration":0.26273169166665866},{"name":"A1","midi":33,"time":1211.9454139999698,"velocity":0.8818897637795275,"duration":0.26273169166665866},{"name":"A2","midi":45,"time":1211.9454139999698,"velocity":0.8818897637795275,"duration":0.26273169166665866},{"name":"A2","midi":45,"time":1212.2231919999697,"velocity":0.8818897637795275,"duration":0.26273169166665866},{"name":"A3","midi":57,"time":1212.2231919999697,"velocity":0.8818897637795275,"duration":0.26273169166665866},{"name":"B1","midi":35,"time":1212.5009699999696,"velocity":0.8818897637795275,"duration":0.26273169166665866},{"name":"B2","midi":47,"time":1212.5009699999696,"velocity":0.8818897637795275,"duration":0.26273169166665866},{"name":"B2","midi":47,"time":1212.7787479999695,"velocity":0.8818897637795275,"duration":0.26273169166665866},{"name":"B3","midi":59,"time":1212.7787479999695,"velocity":0.8818897637795275,"duration":0.26273169166665866},{"name":"C#2","midi":37,"time":1213.0565259999694,"velocity":0.8818897637795275,"duration":0.2627316916664313},{"name":"C#3","midi":49,"time":1213.0565259999694,"velocity":0.8818897637795275,"duration":0.2627316916664313},{"name":"C#3","midi":49,"time":1213.334303999969,"velocity":0.8818897637795275,"duration":0.26273169166665866},{"name":"C#4","midi":61,"time":1213.334303999969,"velocity":0.8818897637795275,"duration":0.26273169166665866},{"name":"C#2","midi":37,"time":1213.612081999969,"velocity":0.8818897637795275,"duration":0.26273169166665866},{"name":"C#3","midi":49,"time":1213.612081999969,"velocity":0.8818897637795275,"duration":0.26273169166665866},{"name":"C#3","midi":49,"time":1213.8898599999688,"velocity":0.8818897637795275,"duration":0.26273169166665866},{"name":"C#4","midi":61,"time":1213.8898599999688,"velocity":0.8818897637795275,"duration":0.26273169166665866},{"name":"C#2","midi":37,"time":1214.1676379999687,"velocity":0.8818897637795275,"duration":0.26273169166665866},{"name":"C#3","midi":49,"time":1214.1676379999687,"velocity":0.8818897637795275,"duration":0.26273169166665866},{"name":"C#3","midi":49,"time":1214.4454159999686,"velocity":0.8818897637795275,"duration":0.26273169166665866},{"name":"C#4","midi":61,"time":1214.4454159999686,"velocity":0.8818897637795275,"duration":0.26273169166665866},{"name":"C#2","midi":37,"time":1214.7231939999685,"velocity":0.8818897637795275,"duration":0.26273169166665866},{"name":"C#3","midi":49,"time":1214.7231939999685,"velocity":0.8818897637795275,"duration":0.26273169166665866},{"name":"C#3","midi":49,"time":1215.0009719999684,"velocity":0.8818897637795275,"duration":0.26273169166665866},{"name":"C#4","midi":61,"time":1215.0009719999684,"velocity":0.8818897637795275,"duration":0.26273169166665866},{"name":"C#2","midi":37,"time":1215.2787499999683,"velocity":0.8818897637795275,"duration":0.2627316916664313},{"name":"C#3","midi":49,"time":1215.2787499999683,"velocity":0.8818897637795275,"duration":0.2627316916664313},{"name":"C#3","midi":49,"time":1215.556527999968,"velocity":0.8818897637795275,"duration":0.26273169166665866},{"name":"C#4","midi":61,"time":1215.556527999968,"velocity":0.8818897637795275,"duration":0.26273169166665866},{"name":"C#2","midi":37,"time":1215.834305999968,"velocity":0.8818897637795275,"duration":0.26273169166665866},{"name":"C#3","midi":49,"time":1215.834305999968,"velocity":0.8818897637795275,"duration":0.26273169166665866},{"name":"C#3","midi":49,"time":1216.1120839999678,"velocity":0.8818897637795275,"duration":0.26273169166665866},{"name":"C#4","midi":61,"time":1216.1120839999678,"velocity":0.8818897637795275,"duration":0.26273169166665866},{"name":"C#2","midi":37,"time":1216.3898619999677,"velocity":0.8818897637795275,"duration":0.26273169166665866},{"name":"C#3","midi":49,"time":1216.3898619999677,"velocity":0.8818897637795275,"duration":0.26273169166665866},{"name":"C#3","midi":49,"time":1216.6676399999676,"velocity":0.8818897637795275,"duration":0.26273169166665866},{"name":"C#4","midi":61,"time":1216.6676399999676,"velocity":0.8818897637795275,"duration":0.26273169166665866},{"name":"C#2","midi":37,"time":1216.9454179999675,"velocity":0.8818897637795275,"duration":0.26273169166665866},{"name":"C#3","midi":49,"time":1216.9454179999675,"velocity":0.8818897637795275,"duration":0.26273169166665866},{"name":"C#3","midi":49,"time":1217.2231959999674,"velocity":0.8818897637795275,"duration":0.26273169166665866},{"name":"C#4","midi":61,"time":1217.2231959999674,"velocity":0.8818897637795275,"duration":0.26273169166665866},{"name":"F#2","midi":42,"time":1217.5009739999673,"velocity":0.8818897637795275,"duration":0.2627316916664313},{"name":"F#3","midi":54,"time":1217.5009739999673,"velocity":0.8818897637795275,"duration":0.2627316916664313},{"name":"F#3","midi":54,"time":1217.778751999967,"velocity":0.8818897637795275,"duration":0.26273169166665866},{"name":"F#4","midi":66,"time":1217.778751999967,"velocity":0.8818897637795275,"duration":0.26273169166665866},{"name":"F#2","midi":42,"time":1218.0565299999669,"velocity":0.8818897637795275,"duration":0.26273169166665866},{"name":"F#3","midi":54,"time":1218.0565299999669,"velocity":0.8818897637795275,"duration":0.26273169166665866},{"name":"F#3","midi":54,"time":1218.3343079999668,"velocity":0.8818897637795275,"duration":0.26273169166665866},{"name":"F#4","midi":66,"time":1218.3343079999668,"velocity":0.8818897637795275,"duration":0.26273169166665866},{"name":"F#2","midi":42,"time":1218.6120859999667,"velocity":0.8818897637795275,"duration":0.26273169166665866},{"name":"F#3","midi":54,"time":1218.6120859999667,"velocity":0.8818897637795275,"duration":0.26273169166665866},{"name":"F#3","midi":54,"time":1218.8898639999666,"velocity":0.8818897637795275,"duration":0.26273169166665866},{"name":"F#4","midi":66,"time":1218.8898639999666,"velocity":0.8818897637795275,"duration":0.26273169166665866},{"name":"G#2","midi":44,"time":1219.1676419999665,"velocity":0.8818897637795275,"duration":0.26273169166665866},{"name":"G#3","midi":56,"time":1219.1676419999665,"velocity":0.8818897637795275,"duration":0.26273169166665866},{"name":"G#3","midi":56,"time":1219.4454199999664,"velocity":0.8818897637795275,"duration":0.26273169166665866},{"name":"G#4","midi":68,"time":1219.4454199999664,"velocity":0.8818897637795275,"duration":0.26273169166665866},{"name":"A2","midi":45,"time":1219.7231979999663,"velocity":0.8818897637795275,"duration":0.2627316916664313},{"name":"A3","midi":57,"time":1219.7231979999663,"velocity":0.8818897637795275,"duration":0.2627316916664313},{"name":"A3","midi":57,"time":1220.000975999966,"velocity":0.8818897637795275,"duration":0.26273169166665866},{"name":"A4","midi":69,"time":1220.000975999966,"velocity":0.8818897637795275,"duration":0.26273169166665866},{"name":"A2","midi":45,"time":1220.2787539999658,"velocity":0.8818897637795275,"duration":0.26273169166665866},{"name":"A3","midi":57,"time":1220.2787539999658,"velocity":0.8818897637795275,"duration":0.26273169166665866},{"name":"A3","midi":57,"time":1220.5565319999657,"velocity":0.8818897637795275,"duration":0.26273169166665866},{"name":"A4","midi":69,"time":1220.5565319999657,"velocity":0.8818897637795275,"duration":0.26273169166665866},{"name":"A2","midi":45,"time":1220.8343099999656,"velocity":0.8818897637795275,"duration":0.26273169166665866},{"name":"A3","midi":57,"time":1220.8343099999656,"velocity":0.8818897637795275,"duration":0.26273169166665866},{"name":"A3","midi":57,"time":1221.1120879999655,"velocity":0.8818897637795275,"duration":0.26273169166665866},{"name":"A4","midi":69,"time":1221.1120879999655,"velocity":0.8818897637795275,"duration":0.26273169166665866},{"name":"A2","midi":45,"time":1221.3898659999654,"velocity":0.8818897637795275,"duration":0.26273169166665866},{"name":"A3","midi":57,"time":1221.3898659999654,"velocity":0.8818897637795275,"duration":0.26273169166665866},{"name":"A3","midi":57,"time":1221.6676439999653,"velocity":0.8818897637795275,"duration":0.26273169166665866},{"name":"A4","midi":69,"time":1221.6676439999653,"velocity":0.8818897637795275,"duration":0.26273169166665866},{"name":"G#2","midi":44,"time":1221.9454219999652,"velocity":0.8818897637795275,"duration":0.2627316916664313},{"name":"G#3","midi":56,"time":1221.9454219999652,"velocity":0.8818897637795275,"duration":0.2627316916664313},{"name":"G#3","midi":56,"time":1222.223199999965,"velocity":0.8818897637795275,"duration":0.26273169166665866},{"name":"G#4","midi":68,"time":1222.223199999965,"velocity":0.8818897637795275,"duration":0.26273169166665866},{"name":"G#2","midi":44,"time":1222.5009779999648,"velocity":0.8818897637795275,"duration":0.26273169166665866},{"name":"G#3","midi":56,"time":1222.5009779999648,"velocity":0.8818897637795275,"duration":0.26273169166665866},{"name":"G#3","midi":56,"time":1222.7787559999647,"velocity":0.8818897637795275,"duration":0.26273169166665866},{"name":"G#4","midi":68,"time":1222.7787559999647,"velocity":0.8818897637795275,"duration":0.26273169166665866},{"name":"G#2","midi":44,"time":1223.0565339999646,"velocity":0.8818897637795275,"duration":0.26273169166665866},{"name":"G#3","midi":56,"time":1223.0565339999646,"velocity":0.8818897637795275,"duration":0.26273169166665866},{"name":"G#3","midi":56,"time":1223.3343119999645,"velocity":0.8818897637795275,"duration":0.26273169166665866},{"name":"G#4","midi":68,"time":1223.3343119999645,"velocity":0.8818897637795275,"duration":0.26273169166665866},{"name":"G#2","midi":44,"time":1223.6120899999644,"velocity":0.8818897637795275,"duration":0.26273169166665866},{"name":"G#3","midi":56,"time":1223.6120899999644,"velocity":0.8818897637795275,"duration":0.26273169166665866},{"name":"G#3","midi":56,"time":1223.8898679999643,"velocity":0.8818897637795275,"duration":0.26273169166665866},{"name":"G#4","midi":68,"time":1223.8898679999643,"velocity":0.8818897637795275,"duration":0.26273169166665866},{"name":"G2","midi":43,"time":1224.1676459999642,"velocity":0.8818897637795275,"duration":0.2627316916664313},{"name":"G3","midi":55,"time":1224.1676459999642,"velocity":0.8818897637795275,"duration":0.2627316916664313},{"name":"G3","midi":55,"time":1224.4454239999639,"velocity":0.8818897637795275,"duration":0.26273169166665866},{"name":"G4","midi":67,"time":1224.4454239999639,"velocity":0.8818897637795275,"duration":0.26273169166665866},{"name":"G2","midi":43,"time":1224.7232019999637,"velocity":0.8818897637795275,"duration":0.26273169166665866},{"name":"G3","midi":55,"time":1224.7232019999637,"velocity":0.8818897637795275,"duration":0.26273169166665866},{"name":"G3","midi":55,"time":1225.0009799999636,"velocity":0.8818897637795275,"duration":0.26273169166665866},{"name":"G4","midi":67,"time":1225.0009799999636,"velocity":0.8818897637795275,"duration":0.26273169166665866},{"name":"G2","midi":43,"time":1225.2787579999635,"velocity":0.8818897637795275,"duration":0.26273169166665866},{"name":"G3","midi":55,"time":1225.2787579999635,"velocity":0.8818897637795275,"duration":0.26273169166665866},{"name":"G3","midi":55,"time":1225.5565359999634,"velocity":0.8818897637795275,"duration":0.26273169166665866},{"name":"G4","midi":67,"time":1225.5565359999634,"velocity":0.8818897637795275,"duration":0.26273169166665866},{"name":"G2","midi":43,"time":1225.8343139999633,"velocity":0.8818897637795275,"duration":0.26273169166665866},{"name":"G3","midi":55,"time":1225.8343139999633,"velocity":0.8818897637795275,"duration":0.26273169166665866},{"name":"G3","midi":55,"time":1226.1120919999632,"velocity":0.8818897637795275,"duration":0.26273169166665866},{"name":"G4","midi":67,"time":1226.1120919999632,"velocity":0.8818897637795275,"duration":0.26273169166665866},{"name":"F#2","midi":42,"time":1226.3898699999631,"velocity":0.8818897637795275,"duration":0.2627316916664313},{"name":"F#3","midi":54,"time":1226.3898699999631,"velocity":0.8818897637795275,"duration":0.2627316916664313},{"name":"F#3","midi":54,"time":1226.6676479999628,"velocity":0.8818897637795275,"duration":0.26273169166665866},{"name":"F#4","midi":66,"time":1226.6676479999628,"velocity":0.8818897637795275,"duration":0.26273169166665866},{"name":"F#2","midi":42,"time":1226.9454259999627,"velocity":0.8818897637795275,"duration":0.26273169166665866},{"name":"F#3","midi":54,"time":1226.9454259999627,"velocity":0.8818897637795275,"duration":0.26273169166665866},{"name":"F#3","midi":54,"time":1227.2232039999626,"velocity":0.8818897637795275,"duration":0.26273169166665866},{"name":"F#4","midi":66,"time":1227.2232039999626,"velocity":0.8818897637795275,"duration":0.26273169166665866},{"name":"F#2","midi":42,"time":1227.5009819999625,"velocity":0.8818897637795275,"duration":0.26273169166665866},{"name":"F#3","midi":54,"time":1227.5009819999625,"velocity":0.8818897637795275,"duration":0.26273169166665866},{"name":"F#3","midi":54,"time":1227.7787599999624,"velocity":0.8818897637795275,"duration":0.26273169166665866},{"name":"F#4","midi":66,"time":1227.7787599999624,"velocity":0.8818897637795275,"duration":0.26273169166665866},{"name":"F#2","midi":42,"time":1228.0565379999623,"velocity":0.8818897637795275,"duration":0.26273169166665866},{"name":"F#3","midi":54,"time":1228.0565379999623,"velocity":0.8818897637795275,"duration":0.26273169166665866},{"name":"F#3","midi":54,"time":1228.3343159999622,"velocity":0.8818897637795275,"duration":0.26273169166665866},{"name":"F#4","midi":66,"time":1228.3343159999622,"velocity":0.8818897637795275,"duration":0.26273169166665866},{"name":"A2","midi":45,"time":1228.612093999962,"velocity":0.8818897637795275,"duration":0.2627316916664313},{"name":"A3","midi":57,"time":1228.612093999962,"velocity":0.8818897637795275,"duration":0.2627316916664313},{"name":"A3","midi":57,"time":1228.8898719999618,"velocity":0.8818897637795275,"duration":0.26273169166665866},{"name":"A4","midi":69,"time":1228.8898719999618,"velocity":0.8818897637795275,"duration":0.26273169166665866},{"name":"A2","midi":45,"time":1229.1676499999617,"velocity":0.8818897637795275,"duration":0.26273169166665866},{"name":"A3","midi":57,"time":1229.1676499999617,"velocity":0.8818897637795275,"duration":0.26273169166665866},{"name":"A3","midi":57,"time":1229.4454279999616,"velocity":0.8818897637795275,"duration":0.26273169166665866},{"name":"A4","midi":69,"time":1229.4454279999616,"velocity":0.8818897637795275,"duration":0.26273169166665866},{"name":"A2","midi":45,"time":1229.7232059999615,"velocity":0.8818897637795275,"duration":0.26273169166665866},{"name":"A3","midi":57,"time":1229.7232059999615,"velocity":0.8818897637795275,"duration":0.26273169166665866},{"name":"A3","midi":57,"time":1230.0009839999614,"velocity":0.8818897637795275,"duration":0.26273169166665866},{"name":"A4","midi":69,"time":1230.0009839999614,"velocity":0.8818897637795275,"duration":0.26273169166665866},{"name":"A2","midi":45,"time":1230.2787619999613,"velocity":0.8818897637795275,"duration":0.26273169166665866},{"name":"A3","midi":57,"time":1230.2787619999613,"velocity":0.8818897637795275,"duration":0.26273169166665866},{"name":"A3","midi":57,"time":1230.5565399999612,"velocity":0.8818897637795275,"duration":0.26273169166665866},{"name":"A4","midi":69,"time":1230.5565399999612,"velocity":0.8818897637795275,"duration":0.26273169166665866},{"name":"C#4","midi":61,"time":1230.834317999961,"velocity":0.8818897637795275,"duration":0.2627316916664313},{"name":"C#5","midi":73,"time":1230.834317999961,"velocity":0.8818897637795275,"duration":0.2627316916664313},{"name":"C#5","midi":73,"time":1231.1120959999607,"velocity":0.8818897637795275,"duration":0.26273169166665866},{"name":"C#6","midi":85,"time":1231.1120959999607,"velocity":0.8818897637795275,"duration":0.26273169166665866},{"name":"C#4","midi":61,"time":1231.3898739999606,"velocity":0.8818897637795275,"duration":0.26273169166665866},{"name":"C#5","midi":73,"time":1231.3898739999606,"velocity":0.8818897637795275,"duration":0.26273169166665866},{"name":"C#5","midi":73,"time":1231.6676519999605,"velocity":0.8818897637795275,"duration":0.26273169166665866},{"name":"C#6","midi":85,"time":1231.6676519999605,"velocity":0.8818897637795275,"duration":0.26273169166665866},{"name":"C#4","midi":61,"time":1231.9454299999604,"velocity":0.8818897637795275,"duration":0.26273169166665866},{"name":"C#5","midi":73,"time":1231.9454299999604,"velocity":0.8818897637795275,"duration":0.26273169166665866},{"name":"C#5","midi":73,"time":1232.2232079999603,"velocity":0.8818897637795275,"duration":0.26273169166665866},{"name":"C#6","midi":85,"time":1232.2232079999603,"velocity":0.8818897637795275,"duration":0.26273169166665866},{"name":"C#4","midi":61,"time":1232.5009859999602,"velocity":0.8818897637795275,"duration":0.26273169166665866},{"name":"C#5","midi":73,"time":1232.5009859999602,"velocity":0.8818897637795275,"duration":0.26273169166665866},{"name":"C#5","midi":73,"time":1232.7787639999601,"velocity":0.8818897637795275,"duration":0.26273169166665866},{"name":"C#6","midi":85,"time":1232.7787639999601,"velocity":0.8818897637795275,"duration":0.26273169166665866},{"name":"C#4","midi":61,"time":1233.05654199996,"velocity":0.8818897637795275,"duration":0.2627316916664313},{"name":"C#5","midi":73,"time":1233.05654199996,"velocity":0.8818897637795275,"duration":0.2627316916664313},{"name":"C#5","midi":73,"time":1233.3343199999597,"velocity":0.8818897637795275,"duration":0.26273169166665866},{"name":"C#6","midi":85,"time":1233.3343199999597,"velocity":0.8818897637795275,"duration":0.26273169166665866},{"name":"C#4","midi":61,"time":1233.6120979999596,"velocity":0.8818897637795275,"duration":0.26273169166665866},{"name":"C#5","midi":73,"time":1233.6120979999596,"velocity":0.8818897637795275,"duration":0.26273169166665866},{"name":"C#5","midi":73,"time":1233.8898759999595,"velocity":0.8818897637795275,"duration":0.26273169166665866},{"name":"C#6","midi":85,"time":1233.8898759999595,"velocity":0.8818897637795275,"duration":0.26273169166665866},{"name":"B1","midi":35,"time":1234.1676539999594,"velocity":0.8818897637795275,"duration":0.08217599166664513},{"name":"B2","midi":47,"time":1234.1676539999594,"velocity":0.8818897637795275,"duration":0.08217599166664513},{"name":"B3","midi":59,"time":1234.1676539999594,"velocity":0.8818897637795275,"duration":0.08217599166664513},{"name":"C#2","midi":37,"time":1234.2509873999593,"velocity":0.8818897637795275,"duration":0.1817131083332697},{"name":"C#3","midi":49,"time":1234.2509873999593,"velocity":0.8818897637795275,"duration":0.1817131083332697},{"name":"C#4","midi":61,"time":1234.2509873999593,"velocity":0.8818897637795275,"duration":0.1817131083332697},{"name":"B1","midi":35,"time":1234.4454319999593,"velocity":0.8818897637795275,"duration":0.26273169166665866},{"name":"B2","midi":47,"time":1234.4454319999593,"velocity":0.8818897637795275,"duration":0.26273169166665866},{"name":"B3","midi":59,"time":1234.4454319999593,"velocity":0.8818897637795275,"duration":0.26273169166665866},{"name":"A1","midi":33,"time":1234.7232099999592,"velocity":0.8818897637795275,"duration":0.26273169166665866},{"name":"A2","midi":45,"time":1234.7232099999592,"velocity":0.8818897637795275,"duration":0.26273169166665866},{"name":"A3","midi":57,"time":1234.7232099999592,"velocity":0.8818897637795275,"duration":0.26273169166665866},{"name":"G#1","midi":32,"time":1235.000987999959,"velocity":0.8818897637795275,"duration":0.26273169166665866},{"name":"G#2","midi":44,"time":1235.000987999959,"velocity":0.8818897637795275,"duration":0.26273169166665866},{"name":"G#3","midi":56,"time":1235.000987999959,"velocity":0.8818897637795275,"duration":0.26273169166665866},{"name":"F#2","midi":42,"time":1235.278765999959,"velocity":0.8818897637795275,"duration":0.2627316916664313},{"name":"F#3","midi":54,"time":1235.278765999959,"velocity":0.8818897637795275,"duration":0.2627316916664313},{"name":"F#3","midi":54,"time":1235.5565439999586,"velocity":0.8818897637795275,"duration":0.26273169166665866},{"name":"F#4","midi":66,"time":1235.5565439999586,"velocity":0.8818897637795275,"duration":0.26273169166665866},{"name":"F#2","midi":42,"time":1235.8343219999585,"velocity":0.8818897637795275,"duration":0.26273169166665866},{"name":"F#3","midi":54,"time":1235.8343219999585,"velocity":0.8818897637795275,"duration":0.26273169166665866},{"name":"F#3","midi":54,"time":1236.1120999999584,"velocity":0.8818897637795275,"duration":0.26273169166665866},{"name":"F#4","midi":66,"time":1236.1120999999584,"velocity":0.8818897637795275,"duration":0.26273169166665866},{"name":"F#2","midi":42,"time":1236.3898779999583,"velocity":0.8818897637795275,"duration":0.26273169166665866},{"name":"F#3","midi":54,"time":1236.3898779999583,"velocity":0.8818897637795275,"duration":0.26273169166665866},{"name":"F#3","midi":54,"time":1236.6676559999582,"velocity":0.8818897637795275,"duration":0.26273169166665866},{"name":"F#4","midi":66,"time":1236.6676559999582,"velocity":0.8818897637795275,"duration":0.26273169166665866},{"name":"G#2","midi":44,"time":1236.9454339999581,"velocity":0.8818897637795275,"duration":0.26273169166665866},{"name":"G#3","midi":56,"time":1236.9454339999581,"velocity":0.8818897637795275,"duration":0.26273169166665866},{"name":"G#3","midi":56,"time":1237.223211999958,"velocity":0.8818897637795275,"duration":0.26273169166665866},{"name":"G#4","midi":68,"time":1237.223211999958,"velocity":0.8818897637795275,"duration":0.26273169166665866},{"name":"A1","midi":33,"time":1237.500989999958,"velocity":0.8818897637795275,"duration":0.2627316916664313},{"name":"A2","midi":45,"time":1237.500989999958,"velocity":0.8818897637795275,"duration":0.2627316916664313},{"name":"A2","midi":45,"time":1237.7787679999576,"velocity":0.8818897637795275,"duration":0.26273169166665866},{"name":"A3","midi":57,"time":1237.7787679999576,"velocity":0.8818897637795275,"duration":0.26273169166665866},{"name":"A1","midi":33,"time":1238.0565459999575,"velocity":0.8818897637795275,"duration":0.26273169166665866},{"name":"A2","midi":45,"time":1238.0565459999575,"velocity":0.8818897637795275,"duration":0.26273169166665866},{"name":"A2","midi":45,"time":1238.3343239999574,"velocity":0.8818897637795275,"duration":0.26273169166665866},{"name":"A3","midi":57,"time":1238.3343239999574,"velocity":0.8818897637795275,"duration":0.26273169166665866},{"name":"A1","midi":33,"time":1238.6121019999573,"velocity":0.8818897637795275,"duration":0.26273169166665866},{"name":"A2","midi":45,"time":1238.6121019999573,"velocity":0.8818897637795275,"duration":0.26273169166665866},{"name":"A2","midi":45,"time":1238.8898799999572,"velocity":0.8818897637795275,"duration":0.26273169166665866},{"name":"A3","midi":57,"time":1238.8898799999572,"velocity":0.8818897637795275,"duration":0.26273169166665866},{"name":"B1","midi":35,"time":1239.167657999957,"velocity":0.8818897637795275,"duration":0.26273169166665866},{"name":"B2","midi":47,"time":1239.167657999957,"velocity":0.8818897637795275,"duration":0.26273169166665866},{"name":"B2","midi":47,"time":1239.445435999957,"velocity":0.8818897637795275,"duration":0.26273169166665866},{"name":"B3","midi":59,"time":1239.445435999957,"velocity":0.8818897637795275,"duration":0.26273169166665866},{"name":"C#2","midi":37,"time":1239.723213999957,"velocity":0.8818897637795275,"duration":0.2627316916664313},{"name":"C#3","midi":49,"time":1239.723213999957,"velocity":0.8818897637795275,"duration":0.2627316916664313},{"name":"C#3","midi":49,"time":1240.0009919999566,"velocity":0.8818897637795275,"duration":0.26273169166665866},{"name":"C#4","midi":61,"time":1240.0009919999566,"velocity":0.8818897637795275,"duration":0.26273169166665866},{"name":"C#2","midi":37,"time":1240.2787699999565,"velocity":0.8818897637795275,"duration":0.26273169166665866},{"name":"C#3","midi":49,"time":1240.2787699999565,"velocity":0.8818897637795275,"duration":0.26273169166665866},{"name":"C#3","midi":49,"time":1240.5565479999564,"velocity":0.8818897637795275,"duration":0.26273169166665866},{"name":"C#4","midi":61,"time":1240.5565479999564,"velocity":0.8818897637795275,"duration":0.26273169166665866},{"name":"C#2","midi":37,"time":1240.8343259999563,"velocity":0.8818897637795275,"duration":0.26273169166665866},{"name":"C#3","midi":49,"time":1240.8343259999563,"velocity":0.8818897637795275,"duration":0.26273169166665866},{"name":"C#3","midi":49,"time":1241.1121039999562,"velocity":0.8818897637795275,"duration":0.26273169166665866},{"name":"C#4","midi":61,"time":1241.1121039999562,"velocity":0.8818897637795275,"duration":0.26273169166665866},{"name":"E2","midi":40,"time":1241.389881999956,"velocity":0.8818897637795275,"duration":0.26273169166665866},{"name":"E3","midi":52,"time":1241.389881999956,"velocity":0.8818897637795275,"duration":0.26273169166665866},{"name":"E3","midi":52,"time":1241.667659999956,"velocity":0.8818897637795275,"duration":0.26273169166665866},{"name":"E4","midi":64,"time":1241.667659999956,"velocity":0.8818897637795275,"duration":0.26273169166665866},{"name":"F#2","midi":42,"time":1241.9454379999559,"velocity":0.8818897637795275,"duration":0.3946762416665024},{"name":"F#3","midi":54,"time":1241.9454379999559,"velocity":0.8818897637795275,"duration":0.3946762416665024},{"name":"F#4","midi":66,"time":1241.9454379999559,"velocity":0.8818897637795275,"duration":0.3946762416665024},{"name":"F#2","midi":42,"time":1242.3621049999556,"velocity":0.8818897637795275,"duration":0.39467624166672977},{"name":"F#3","midi":54,"time":1242.3621049999556,"velocity":0.8818897637795275,"duration":0.39467624166672977},{"name":"F#4","midi":66,"time":1242.3621049999556,"velocity":0.8818897637795275,"duration":0.39467624166672977},{"name":"F#2","midi":42,"time":1242.7787719999556,"velocity":0.8818897637795275,"duration":0.26273169166665866},{"name":"F#3","midi":54,"time":1242.7787719999556,"velocity":0.8818897637795275,"duration":0.26273169166665866},{"name":"F#4","midi":66,"time":1242.7787719999556,"velocity":0.8818897637795275,"duration":0.26273169166665866},{"name":"F#2","midi":42,"time":1243.0565499999555,"velocity":0.8818897637795275,"duration":0.5266207916665735},{"name":"F#3","midi":54,"time":1243.0565499999555,"velocity":0.8818897637795275,"duration":0.5266207916665735},{"name":"F#4","midi":66,"time":1243.0565499999555,"velocity":0.8818897637795275,"duration":0.5266207916665735},{"name":"E2","midi":40,"time":1243.6121059999552,"velocity":0.8818897637795275,"duration":0.5266207916665735},{"name":"E3","midi":52,"time":1243.6121059999552,"velocity":0.8818897637795275,"duration":0.5266207916665735},{"name":"E4","midi":64,"time":1243.6121059999552,"velocity":0.8818897637795275,"duration":0.5266207916665735},{"name":"D2","midi":38,"time":1244.167661999955,"velocity":0.8818897637795275,"duration":0.2627316916664313},{"name":"D3","midi":50,"time":1244.167661999955,"velocity":0.8818897637795275,"duration":0.2627316916664313},{"name":"D3","midi":50,"time":1244.4454399999547,"velocity":0.8818897637795275,"duration":0.26273169166665866},{"name":"D4","midi":62,"time":1244.4454399999547,"velocity":0.8818897637795275,"duration":0.26273169166665866},{"name":"D2","midi":38,"time":1244.7232179999546,"velocity":0.8818897637795275,"duration":0.26273169166665866},{"name":"D3","midi":50,"time":1244.7232179999546,"velocity":0.8818897637795275,"duration":0.26273169166665866},{"name":"D3","midi":50,"time":1245.0009959999545,"velocity":0.8818897637795275,"duration":0.26273169166665866},{"name":"D4","midi":62,"time":1245.0009959999545,"velocity":0.8818897637795275,"duration":0.26273169166665866},{"name":"D2","midi":38,"time":1245.2787739999544,"velocity":0.8818897637795275,"duration":0.26273169166665866},{"name":"D3","midi":50,"time":1245.2787739999544,"velocity":0.8818897637795275,"duration":0.26273169166665866},{"name":"D3","midi":50,"time":1245.5565519999543,"velocity":0.8818897637795275,"duration":0.26273169166665866},{"name":"D4","midi":62,"time":1245.5565519999543,"velocity":0.8818897637795275,"duration":0.26273169166665866},{"name":"E2","midi":40,"time":1245.8343299999542,"velocity":0.8818897637795275,"duration":0.26273169166665866},{"name":"E3","midi":52,"time":1245.8343299999542,"velocity":0.8818897637795275,"duration":0.26273169166665866},{"name":"E3","midi":52,"time":1246.112107999954,"velocity":0.8818897637795275,"duration":0.26273169166665866},{"name":"E4","midi":64,"time":1246.112107999954,"velocity":0.8818897637795275,"duration":0.26273169166665866},{"name":"A1","midi":33,"time":1246.389885999954,"velocity":0.8818897637795275,"duration":0.2627316916664313},{"name":"A2","midi":45,"time":1246.389885999954,"velocity":0.8818897637795275,"duration":0.2627316916664313},{"name":"A2","midi":45,"time":1246.6676639999537,"velocity":0.8818897637795275,"duration":0.26273169166665866},{"name":"A3","midi":57,"time":1246.6676639999537,"velocity":0.8818897637795275,"duration":0.26273169166665866},{"name":"A1","midi":33,"time":1246.9454419999536,"velocity":0.8818897637795275,"duration":0.26273169166665866},{"name":"A2","midi":45,"time":1246.9454419999536,"velocity":0.8818897637795275,"duration":0.26273169166665866},{"name":"A2","midi":45,"time":1247.2232199999535,"velocity":0.8818897637795275,"duration":0.26273169166665866},{"name":"A3","midi":57,"time":1247.2232199999535,"velocity":0.8818897637795275,"duration":0.26273169166665866},{"name":"A1","midi":33,"time":1247.5009979999534,"velocity":0.8818897637795275,"duration":0.26273169166665866},{"name":"A2","midi":45,"time":1247.5009979999534,"velocity":0.8818897637795275,"duration":0.26273169166665866},{"name":"A2","midi":45,"time":1247.7787759999533,"velocity":0.8818897637795275,"duration":0.26273169166665866},{"name":"A3","midi":57,"time":1247.7787759999533,"velocity":0.8818897637795275,"duration":0.26273169166665866},{"name":"B1","midi":35,"time":1248.0565539999532,"velocity":0.8818897637795275,"duration":0.26273169166665866},{"name":"B2","midi":47,"time":1248.0565539999532,"velocity":0.8818897637795275,"duration":0.26273169166665866},{"name":"B2","midi":47,"time":1248.334331999953,"velocity":0.8818897637795275,"duration":0.26273169166665866},{"name":"B3","midi":59,"time":1248.334331999953,"velocity":0.8818897637795275,"duration":0.26273169166665866},{"name":"C#2","midi":37,"time":1248.612109999953,"velocity":0.8818897637795275,"duration":0.2627316916664313},{"name":"C#3","midi":49,"time":1248.612109999953,"velocity":0.8818897637795275,"duration":0.2627316916664313},{"name":"C#3","midi":49,"time":1248.8898879999526,"velocity":0.8818897637795275,"duration":0.26273169166665866},{"name":"C#4","midi":61,"time":1248.8898879999526,"velocity":0.8818897637795275,"duration":0.26273169166665866},{"name":"C#2","midi":37,"time":1249.1676659999525,"velocity":0.8818897637795275,"duration":0.26273169166665866},{"name":"C#3","midi":49,"time":1249.1676659999525,"velocity":0.8818897637795275,"duration":0.26273169166665866},{"name":"C#3","midi":49,"time":1249.4454439999524,"velocity":0.8818897637795275,"duration":0.26273169166665866},{"name":"C#4","midi":61,"time":1249.4454439999524,"velocity":0.8818897637795275,"duration":0.26273169166665866},{"name":"C#2","midi":37,"time":1249.7232219999523,"velocity":0.8818897637795275,"duration":0.26273169166665866},{"name":"C#3","midi":49,"time":1249.7232219999523,"velocity":0.8818897637795275,"duration":0.26273169166665866},{"name":"C#3","midi":49,"time":1250.0009999999522,"velocity":0.8818897637795275,"duration":0.26273169166665866},{"name":"C#4","midi":61,"time":1250.0009999999522,"velocity":0.8818897637795275,"duration":0.26273169166665866},{"name":"C#2","midi":37,"time":1250.2787779999521,"velocity":0.8818897637795275,"duration":0.26273169166665866},{"name":"C#3","midi":49,"time":1250.2787779999521,"velocity":0.8818897637795275,"duration":0.26273169166665866},{"name":"C#3","midi":49,"time":1250.556555999952,"velocity":0.8818897637795275,"duration":0.26273169166665866},{"name":"C#4","midi":61,"time":1250.556555999952,"velocity":0.8818897637795275,"duration":0.26273169166665866},{"name":"C#2","midi":37,"time":1250.834333999952,"velocity":0.8818897637795275,"duration":0.2627316916664313},{"name":"C#3","midi":49,"time":1250.834333999952,"velocity":0.8818897637795275,"duration":0.2627316916664313},{"name":"C#3","midi":49,"time":1251.1121119999516,"velocity":0.8818897637795275,"duration":0.26273169166665866},{"name":"C#4","midi":61,"time":1251.1121119999516,"velocity":0.8818897637795275,"duration":0.26273169166665866},{"name":"C#2","midi":37,"time":1251.3898899999515,"velocity":0.8818897637795275,"duration":0.26273169166665866},{"name":"C#3","midi":49,"time":1251.3898899999515,"velocity":0.8818897637795275,"duration":0.26273169166665866},{"name":"C#3","midi":49,"time":1251.6676679999514,"velocity":0.8818897637795275,"duration":0.26273169166665866},{"name":"C#4","midi":61,"time":1251.6676679999514,"velocity":0.8818897637795275,"duration":0.26273169166665866},{"name":"B2","midi":47,"time":1251.9454459999513,"velocity":0.8818897637795275,"duration":0.08217599166664513},{"name":"B3","midi":59,"time":1251.9454459999513,"velocity":0.8818897637795275,"duration":0.08217599166664513},{"name":"C#3","midi":49,"time":1252.0287793999512,"velocity":0.8818897637795275,"duration":0.1817131083332697},{"name":"C#4","midi":61,"time":1252.0287793999512,"velocity":0.8818897637795275,"duration":0.1817131083332697},{"name":"B2","midi":47,"time":1252.2232239999512,"velocity":0.8818897637795275,"duration":0.26273169166665866},{"name":"B3","midi":59,"time":1252.2232239999512,"velocity":0.8818897637795275,"duration":0.26273169166665866},{"name":"A2","midi":45,"time":1252.501001999951,"velocity":0.8818897637795275,"duration":0.26273169166665866},{"name":"A3","midi":57,"time":1252.501001999951,"velocity":0.8818897637795275,"duration":0.26273169166665866},{"name":"G#2","midi":44,"time":1252.778779999951,"velocity":0.8818897637795275,"duration":0.26273169166665866},{"name":"G#3","midi":56,"time":1252.778779999951,"velocity":0.8818897637795275,"duration":0.26273169166665866},{"name":"F#2","midi":42,"time":1253.0565579999509,"velocity":0.8818897637795275,"duration":0.2627316916664313},{"name":"F#3","midi":54,"time":1253.0565579999509,"velocity":0.8818897637795275,"duration":0.2627316916664313},{"name":"F#3","midi":54,"time":1253.3343359999506,"velocity":0.8818897637795275,"duration":0.26273169166665866},{"name":"F#4","midi":66,"time":1253.3343359999506,"velocity":0.8818897637795275,"duration":0.26273169166665866},{"name":"F#2","midi":42,"time":1253.6121139999505,"velocity":0.8818897637795275,"duration":0.26273169166665866},{"name":"F#3","midi":54,"time":1253.6121139999505,"velocity":0.8818897637795275,"duration":0.26273169166665866},{"name":"F#3","midi":54,"time":1253.8898919999504,"velocity":0.8818897637795275,"duration":0.26273169166665866},{"name":"F#4","midi":66,"time":1253.8898919999504,"velocity":0.8818897637795275,"duration":0.26273169166665866},{"name":"F#2","midi":42,"time":1254.1676699999502,"velocity":0.8818897637795275,"duration":0.26273169166665866},{"name":"F#3","midi":54,"time":1254.1676699999502,"velocity":0.8818897637795275,"duration":0.26273169166665866},{"name":"F#3","midi":54,"time":1254.4454479999501,"velocity":0.8818897637795275,"duration":0.26273169166665866},{"name":"F#4","midi":66,"time":1254.4454479999501,"velocity":0.8818897637795275,"duration":0.26273169166665866},{"name":"G#2","midi":44,"time":1254.72322599995,"velocity":0.8818897637795275,"duration":0.26273169166665866},{"name":"G#3","midi":56,"time":1254.72322599995,"velocity":0.8818897637795275,"duration":0.26273169166665866},{"name":"G#3","midi":56,"time":1255.00100399995,"velocity":0.8818897637795275,"duration":0.26273169166665866},{"name":"G#4","midi":68,"time":1255.00100399995,"velocity":0.8818897637795275,"duration":0.26273169166665866},{"name":"A2","midi":45,"time":1255.2787819999498,"velocity":0.8818897637795275,"duration":0.2627316916664313},{"name":"A3","midi":57,"time":1255.2787819999498,"velocity":0.8818897637795275,"duration":0.2627316916664313},{"name":"A3","midi":57,"time":1255.5565599999495,"velocity":0.8818897637795275,"duration":0.26273169166665866},{"name":"A4","midi":69,"time":1255.5565599999495,"velocity":0.8818897637795275,"duration":0.26273169166665866},{"name":"A2","midi":45,"time":1255.8343379999494,"velocity":0.8818897637795275,"duration":0.26273169166665866},{"name":"A3","midi":57,"time":1255.8343379999494,"velocity":0.8818897637795275,"duration":0.26273169166665866},{"name":"A3","midi":57,"time":1256.1121159999493,"velocity":0.8818897637795275,"duration":0.26273169166665866},{"name":"A4","midi":69,"time":1256.1121159999493,"velocity":0.8818897637795275,"duration":0.26273169166665866},{"name":"A2","midi":45,"time":1256.3898939999492,"velocity":0.8818897637795275,"duration":0.26273169166665866},{"name":"A3","midi":57,"time":1256.3898939999492,"velocity":0.8818897637795275,"duration":0.26273169166665866},{"name":"A3","midi":57,"time":1256.667671999949,"velocity":0.8818897637795275,"duration":0.26273169166665866},{"name":"A4","midi":69,"time":1256.667671999949,"velocity":0.8818897637795275,"duration":0.26273169166665866},{"name":"G#2","midi":44,"time":1256.945449999949,"velocity":0.8818897637795275,"duration":0.26273169166665866},{"name":"G#3","midi":56,"time":1256.945449999949,"velocity":0.8818897637795275,"duration":0.26273169166665866},{"name":"G#3","midi":56,"time":1257.223227999949,"velocity":0.8818897637795275,"duration":0.26273169166665866},{"name":"G#4","midi":68,"time":1257.223227999949,"velocity":0.8818897637795275,"duration":0.26273169166665866},{"name":"G#3","midi":56,"time":1257.5010059999488,"velocity":0.8818897637795275,"duration":0.2627316916664313},{"name":"G#4","midi":68,"time":1257.5010059999488,"velocity":0.8818897637795275,"duration":0.2627316916664313},{"name":"G#4","midi":68,"time":1257.7787839999485,"velocity":0.8818897637795275,"duration":0.26273169166665866},{"name":"D#5","midi":75,"time":1257.7787839999485,"velocity":0.8818897637795275,"duration":0.26273169166665866},{"name":"G#3","midi":56,"time":1258.0565619999484,"velocity":0.8818897637795275,"duration":0.26273169166665866},{"name":"G#4","midi":68,"time":1258.0565619999484,"velocity":0.8818897637795275,"duration":0.26273169166665866},{"name":"G#4","midi":68,"time":1258.3343399999483,"velocity":0.8818897637795275,"duration":0.26273169166665866},{"name":"D#5","midi":75,"time":1258.3343399999483,"velocity":0.8818897637795275,"duration":0.26273169166665866},{"name":"G#3","midi":56,"time":1258.6121179999482,"velocity":0.8818897637795275,"duration":0.26273169166665866},{"name":"G#4","midi":68,"time":1258.6121179999482,"velocity":0.8818897637795275,"duration":0.26273169166665866},{"name":"G#4","midi":68,"time":1258.889895999948,"velocity":0.8818897637795275,"duration":0.26273169166665866},{"name":"D#5","midi":75,"time":1258.889895999948,"velocity":0.8818897637795275,"duration":0.26273169166665866},{"name":"G#3","midi":56,"time":1259.167673999948,"velocity":0.8818897637795275,"duration":0.26273169166665866},{"name":"G#4","midi":68,"time":1259.167673999948,"velocity":0.8818897637795275,"duration":0.26273169166665866},{"name":"G#4","midi":68,"time":1259.4454519999479,"velocity":0.8818897637795275,"duration":0.26273169166665866},{"name":"D#5","midi":75,"time":1259.4454519999479,"velocity":0.8818897637795275,"duration":0.26273169166665866},{"name":"G3","midi":55,"time":1259.7232299999478,"velocity":0.8818897637795275,"duration":0.2627316916664313},{"name":"G4","midi":67,"time":1259.7232299999478,"velocity":0.8818897637795275,"duration":0.2627316916664313},{"name":"G4","midi":67,"time":1260.0010079999474,"velocity":0.8818897637795275,"duration":0.26273169166665866},{"name":"D5","midi":74,"time":1260.0010079999474,"velocity":0.8818897637795275,"duration":0.26273169166665866},{"name":"G3","midi":55,"time":1260.2787859999473,"velocity":0.8818897637795275,"duration":0.26273169166665866},{"name":"G4","midi":67,"time":1260.2787859999473,"velocity":0.8818897637795275,"duration":0.26273169166665866},{"name":"G4","midi":67,"time":1260.5565639999472,"velocity":0.8818897637795275,"duration":0.26273169166665866},{"name":"D5","midi":74,"time":1260.5565639999472,"velocity":0.8818897637795275,"duration":0.26273169166665866},{"name":"G3","midi":55,"time":1260.8343419999471,"velocity":0.8818897637795275,"duration":0.26273169166665866},{"name":"G4","midi":67,"time":1260.8343419999471,"velocity":0.8818897637795275,"duration":0.26273169166665866},{"name":"G4","midi":67,"time":1261.112119999947,"velocity":0.8818897637795275,"duration":0.26273169166665866},{"name":"D5","midi":74,"time":1261.112119999947,"velocity":0.8818897637795275,"duration":0.26273169166665866},{"name":"G3","midi":55,"time":1261.389897999947,"velocity":0.8818897637795275,"duration":0.26273169166665866},{"name":"G4","midi":67,"time":1261.389897999947,"velocity":0.8818897637795275,"duration":0.26273169166665866},{"name":"G4","midi":67,"time":1261.6676759999468,"velocity":0.8818897637795275,"duration":0.26273169166665866},{"name":"D5","midi":74,"time":1261.6676759999468,"velocity":0.8818897637795275,"duration":0.26273169166665866},{"name":"F#2","midi":42,"time":1261.9454539999467,"velocity":0.8818897637795275,"duration":0.2627316916664313},{"name":"F#3","midi":54,"time":1261.9454539999467,"velocity":0.8818897637795275,"duration":0.2627316916664313},{"name":"F#3","midi":54,"time":1262.2232319999464,"velocity":0.8818897637795275,"duration":0.26273169166665866},{"name":"F#4","midi":66,"time":1262.2232319999464,"velocity":0.8818897637795275,"duration":0.26273169166665866},{"name":"F#2","midi":42,"time":1262.5010099999463,"velocity":0.8818897637795275,"duration":0.26273169166665866},{"name":"F#3","midi":54,"time":1262.5010099999463,"velocity":0.8818897637795275,"duration":0.26273169166665866},{"name":"F#3","midi":54,"time":1262.7787879999462,"velocity":0.8818897637795275,"duration":0.26273169166665866},{"name":"F#4","midi":66,"time":1262.7787879999462,"velocity":0.8818897637795275,"duration":0.26273169166665866},{"name":"F#2","midi":42,"time":1263.056565999946,"velocity":0.8818897637795275,"duration":0.26273169166665866},{"name":"F#3","midi":54,"time":1263.056565999946,"velocity":0.8818897637795275,"duration":0.26273169166665866},{"name":"F#3","midi":54,"time":1263.334343999946,"velocity":0.8818897637795275,"duration":0.26273169166665866},{"name":"F#4","midi":66,"time":1263.334343999946,"velocity":0.8818897637795275,"duration":0.26273169166665866},{"name":"F#2","midi":42,"time":1263.6121219999459,"velocity":0.8818897637795275,"duration":0.26273169166665866},{"name":"F#3","midi":54,"time":1263.6121219999459,"velocity":0.8818897637795275,"duration":0.26273169166665866},{"name":"F#3","midi":54,"time":1263.8898999999458,"velocity":0.8818897637795275,"duration":0.26273169166665866},{"name":"F#4","midi":66,"time":1263.8898999999458,"velocity":0.8818897637795275,"duration":0.26273169166665866},{"name":"A2","midi":45,"time":1264.1676779999457,"velocity":0.8818897637795275,"duration":0.2627316916664313},{"name":"A3","midi":57,"time":1264.1676779999457,"velocity":0.8818897637795275,"duration":0.2627316916664313},{"name":"A3","midi":57,"time":1264.4454559999454,"velocity":0.8818897637795275,"duration":0.26273169166665866},{"name":"A4","midi":69,"time":1264.4454559999454,"velocity":0.8818897637795275,"duration":0.26273169166665866},{"name":"A2","midi":45,"time":1264.7232339999453,"velocity":0.8818897637795275,"duration":0.26273169166665866},{"name":"A3","midi":57,"time":1264.7232339999453,"velocity":0.8818897637795275,"duration":0.26273169166665866},{"name":"A3","midi":57,"time":1265.0010119999451,"velocity":0.8818897637795275,"duration":0.26273169166665866},{"name":"A4","midi":69,"time":1265.0010119999451,"velocity":0.8818897637795275,"duration":0.26273169166665866},{"name":"A2","midi":45,"time":1265.278789999945,"velocity":0.8818897637795275,"duration":0.26273169166665866},{"name":"A3","midi":57,"time":1265.278789999945,"velocity":0.8818897637795275,"duration":0.26273169166665866},{"name":"A3","midi":57,"time":1265.556567999945,"velocity":0.8818897637795275,"duration":0.26273169166665866},{"name":"A4","midi":69,"time":1265.556567999945,"velocity":0.8818897637795275,"duration":0.26273169166665866},{"name":"B2","midi":47,"time":1265.8343459999448,"velocity":0.8818897637795275,"duration":0.26273169166665866},{"name":"B3","midi":59,"time":1265.8343459999448,"velocity":0.8818897637795275,"duration":0.26273169166665866},{"name":"B3","midi":59,"time":1266.1121239999447,"velocity":0.8818897637795275,"duration":0.26273169166665866},{"name":"B4","midi":71,"time":1266.1121239999447,"velocity":0.8818897637795275,"duration":0.26273169166665866},{"name":"C#2","midi":37,"time":1266.3899019999446,"velocity":0.8818897637795275,"duration":0.2627316916664313},{"name":"C#3","midi":49,"time":1266.3899019999446,"velocity":0.8818897637795275,"duration":0.2627316916664313},{"name":"C#3","midi":49,"time":1266.6676799999443,"velocity":0.8818897637795275,"duration":0.26273169166665866},{"name":"C#4","midi":61,"time":1266.6676799999443,"velocity":0.8818897637795275,"duration":0.26273169166665866},{"name":"C#2","midi":37,"time":1266.9454579999442,"velocity":0.8818897637795275,"duration":0.26273169166665866},{"name":"C#3","midi":49,"time":1266.9454579999442,"velocity":0.8818897637795275,"duration":0.26273169166665866},{"name":"C#3","midi":49,"time":1267.223235999944,"velocity":0.8818897637795275,"duration":0.26273169166665866},{"name":"C#4","midi":61,"time":1267.223235999944,"velocity":0.8818897637795275,"duration":0.26273169166665866},{"name":"C#2","midi":37,"time":1267.501013999944,"velocity":0.8818897637795275,"duration":0.26273169166665866},{"name":"C#3","midi":49,"time":1267.501013999944,"velocity":0.8818897637795275,"duration":0.26273169166665866},{"name":"C#3","midi":49,"time":1267.778791999944,"velocity":0.8818897637795275,"duration":0.26273169166665866},{"name":"C#4","midi":61,"time":1267.778791999944,"velocity":0.8818897637795275,"duration":0.26273169166665866},{"name":"C#2","midi":37,"time":1268.0565699999438,"velocity":0.8818897637795275,"duration":0.26273169166665866},{"name":"C#3","midi":49,"time":1268.0565699999438,"velocity":0.8818897637795275,"duration":0.26273169166665866},{"name":"C#3","midi":49,"time":1268.3343479999437,"velocity":0.8818897637795275,"duration":0.26273169166665866},{"name":"C#4","midi":61,"time":1268.3343479999437,"velocity":0.8818897637795275,"duration":0.26273169166665866},{"name":"C#2","midi":37,"time":1268.6121259999436,"velocity":0.8818897637795275,"duration":0.2627316916664313},{"name":"C#3","midi":49,"time":1268.6121259999436,"velocity":0.8818897637795275,"duration":0.2627316916664313},{"name":"C#3","midi":49,"time":1268.8899039999433,"velocity":0.8818897637795275,"duration":0.26273169166665866},{"name":"C#4","midi":61,"time":1268.8899039999433,"velocity":0.8818897637795275,"duration":0.26273169166665866},{"name":"C#2","midi":37,"time":1269.1676819999432,"velocity":0.8818897637795275,"duration":0.26273169166665866},{"name":"C#3","midi":49,"time":1269.1676819999432,"velocity":0.8818897637795275,"duration":0.26273169166665866},{"name":"C#3","midi":49,"time":1269.445459999943,"velocity":0.8818897637795275,"duration":0.26273169166665866},{"name":"C#4","midi":61,"time":1269.445459999943,"velocity":0.8818897637795275,"duration":0.26273169166665866},{"name":"B2","midi":47,"time":1269.723237999943,"velocity":0.8818897637795275,"duration":0.08217599166664513},{"name":"B3","midi":59,"time":1269.723237999943,"velocity":0.8818897637795275,"duration":0.08217599166664513},{"name":"C#3","midi":49,"time":1269.8065713999429,"velocity":0.8818897637795275,"duration":0.1817131083332697},{"name":"C#4","midi":61,"time":1269.8065713999429,"velocity":0.8818897637795275,"duration":0.1817131083332697},{"name":"B2","midi":47,"time":1270.0010159999429,"velocity":0.8818897637795275,"duration":0.26273169166665866},{"name":"B3","midi":59,"time":1270.0010159999429,"velocity":0.8818897637795275,"duration":0.26273169166665866},{"name":"A2","midi":45,"time":1270.2787939999428,"velocity":0.8818897637795275,"duration":0.26273169166665866},{"name":"A3","midi":57,"time":1270.2787939999428,"velocity":0.8818897637795275,"duration":0.26273169166665866},{"name":"G#2","midi":44,"time":1270.5565719999427,"velocity":0.8818897637795275,"duration":0.26273169166665866},{"name":"G#3","midi":56,"time":1270.5565719999427,"velocity":0.8818897637795275,"duration":0.26273169166665866}],"controlChanges":{"7":[{"number":7,"time":0,"value":1}],"10":[{"number":10,"time":0,"value":0.5039370078740157}],"64":[{"number":64,"time":633.3361548166671,"value":1},{"number":64,"time":635.0016654083344,"value":0},{"number":64,"time":643.8905614083346,"value":0},{"number":64,"time":971.1142028166707,"value":1},{"number":64,"time":973.0574914083376,"value":0},{"number":64,"time":975.5586508166708,"value":1},{"number":64,"time":977.5019394083376,"value":0},{"number":64,"time":977.7808748166709,"value":1},{"number":64,"time":979.7241634083377,"value":0},{"number":64,"time":980.003098816671,"value":1},{"number":64,"time":981.9463874083378,"value":0},{"number":64,"time":982.2253228166711,"value":1},{"number":64,"time":984.1686114083379,"value":0},{"number":64,"time":984.4475468166712,"value":1},{"number":64,"time":986.390835408338,"value":0},{"number":64,"time":988.0586608166714,"value":1},{"number":64,"time":988.6130594083381,"value":0},{"number":64,"time":988.8919948166714,"value":1},{"number":64,"time":990.8352834083382,"value":0},{"number":64,"time":993.3364428166715,"value":1},{"number":64,"time":995.2797314083383,"value":0},{"number":64,"time":997.7808908166716,"value":1},{"number":64,"time":999.7241794083384,"value":0},{"number":64,"time":1002.2253388166716,"value":1},{"number":64,"time":1004.1686274083385,"value":0},{"number":64,"time":1006.6697868166717,"value":1},{"number":64,"time":1008.6130754083385,"value":0},{"number":64,"time":1011.1142348166718,"value":1},{"number":64,"time":1013.0575234083386,"value":0},{"number":64,"time":1013.3364588166719,"value":1},{"number":64,"time":1015.2797474083387,"value":0},{"number":64,"time":1015.558682816672,"value":1},{"number":64,"time":1017.5019714083388,"value":0},{"number":64,"time":1017.7809068166721,"value":1},{"number":64,"time":1019.7241954083389,"value":0},{"number":64,"time":1020.0031308166722,"value":1},{"number":64,"time":1021.946419408339,"value":0},{"number":64,"time":1023.6142448166723,"value":1},{"number":64,"time":1024.1686434083392,"value":0},{"number":64,"time":1024.4475788166726,"value":1},{"number":64,"time":1026.3908674083386,"value":0},{"number":64,"time":1028.8920268166721,"value":1},{"number":64,"time":1030.8353154083381,"value":0},{"number":64,"time":1033.3364748166716,"value":1},{"number":64,"time":1035.2797634083377,"value":0},{"number":64,"time":1037.7809228166711,"value":1},{"number":64,"time":1039.7242114083372,"value":0},{"number":64,"time":1042.2253708166706,"value":1},{"number":64,"time":1044.1686594083367,"value":0},{"number":64,"time":1046.6698188166702,"value":1},{"number":64,"time":1048.6131074083362,"value":0},{"number":64,"time":1048.8920428166696,"value":1},{"number":64,"time":1050.8353314083356,"value":0},{"number":64,"time":1051.114266816669,"value":1},{"number":64,"time":1053.057555408335,"value":0},{"number":64,"time":1053.3364908166684,"value":1},{"number":64,"time":1055.2797794083344,"value":0},{"number":64,"time":1055.5587148166678,"value":1},{"number":64,"time":1057.5020034083338,"value":0},{"number":64,"time":1060.0031628166673,"value":1},{"number":64,"time":1061.9464514083334,"value":0},{"number":64,"time":1064.4476108166668,"value":1},{"number":64,"time":1066.3908994083329,"value":0},{"number":64,"time":1068.8920588166663,"value":1},{"number":64,"time":1070.8353474083324,"value":0},{"number":64,"time":1070.8353474083324,"value":0},{"number":64,"time":1073.3365068166659,"value":1},{"number":64,"time":1075.279795408332,"value":0},{"number":64,"time":1075.5587308166653,"value":1},{"number":64,"time":1077.5020194083313,"value":0},{"number":64,"time":1077.7809548166647,"value":1},{"number":64,"time":1079.7242434083307,"value":0},{"number":64,"time":1082.2254028166642,"value":1},{"number":64,"time":1084.1686914083302,"value":0},{"number":64,"time":1084.4476268166636,"value":1},{"number":64,"time":1086.3909154083296,"value":0},{"number":64,"time":1086.669850816663,"value":1},{"number":64,"time":1088.613139408329,"value":0},{"number":64,"time":1088.6142968166623,"value":1},{"number":64,"time":1090.8353634083285,"value":0},{"number":64,"time":1090.8365208166617,"value":1},{"number":64,"time":1093.057587408328,"value":0},{"number":64,"time":1093.057587408328,"value":0},{"number":64,"time":1093.3365228166613,"value":1},{"number":64,"time":1095.2798114083273,"value":0},{"number":64,"time":1095.5587468166607,"value":1},{"number":64,"time":1097.5020354083267,"value":0},{"number":64,"time":1100.0031948166602,"value":1},{"number":64,"time":1101.9464834083262,"value":0},{"number":64,"time":1102.2254188166596,"value":1},{"number":64,"time":1104.1687074083256,"value":0},{"number":64,"time":1104.1687074083256,"value":0},{"number":64,"time":1104.447642816659,"value":1},{"number":64,"time":1106.390931408325,"value":0},{"number":64,"time":1107.5032008166584,"value":1},{"number":64,"time":1108.613155408325,"value":0},{"number":64,"time":1108.8920908166583,"value":1},{"number":64,"time":1110.8353794083243,"value":0},{"number":64,"time":1111.1143148166577,"value":1},{"number":64,"time":1113.0576034083238,"value":0},{"number":64,"time":1113.3365388166571,"value":1},{"number":64,"time":1115.2798274083232,"value":0},{"number":64,"time":1115.5587628166566,"value":1},{"number":64,"time":1117.5020514083226,"value":0},{"number":64,"time":1117.780986816656,"value":1},{"number":64,"time":1119.724275408322,"value":0},{"number":64,"time":1120.0032108166554,"value":1},{"number":64,"time":1121.9464994083214,"value":0},{"number":64,"time":1122.2254348166548,"value":1},{"number":64,"time":1124.1687234083208,"value":0},{"number":64,"time":1124.4476588166542,"value":1},{"number":64,"time":1126.3909474083202,"value":0},{"number":64,"time":1126.6698828166536,"value":1},{"number":64,"time":1128.6131714083197,"value":0},{"number":64,"time":1128.892106816653,"value":1},{"number":64,"time":1130.835395408319,"value":0},{"number":64,"time":1131.1143308166525,"value":1},{"number":64,"time":1133.0576194083185,"value":0},{"number":64,"time":1133.3365548166519,"value":1},{"number":64,"time":1135.279843408318,"value":0},{"number":64,"time":1135.5587788166513,"value":1},{"number":64,"time":1137.5020674083173,"value":0},{"number":64,"time":1138.6143368166506,"value":1},{"number":64,"time":1139.7242914083172,"value":0},{"number":64,"time":1140.0032268166506,"value":1},{"number":64,"time":1141.9465154083166,"value":0},{"number":64,"time":1143.05878481665,"value":1},{"number":64,"time":1144.1687394083165,"value":0},{"number":64,"time":1180.8365928166506,"value":1},{"number":64,"time":1181.9465474083167,"value":0},{"number":64,"time":1181.94770481665,"value":1},{"number":64,"time":1184.1687714083157,"value":0},{"number":64,"time":1184.169928816649,"value":1},{"number":64,"time":1186.3909954083147,"value":0},{"number":64,"time":1186.392152816648,"value":1},{"number":64,"time":1188.6132194083136,"value":0},{"number":64,"time":1188.6143768166469,"value":1},{"number":64,"time":1190.8354434083128,"value":0},{"number":64,"time":1190.836600816646,"value":1},{"number":64,"time":1193.0576674083118,"value":0},{"number":64,"time":1193.058824816645,"value":1},{"number":64,"time":1195.2798914083107,"value":0},{"number":64,"time":1195.281048816644,"value":1},{"number":64,"time":1197.5021154083097,"value":0},{"number":64,"time":1197.503272816643,"value":1},{"number":64,"time":1199.7243394083087,"value":0},{"number":64,"time":1199.725496816642,"value":1},{"number":64,"time":1201.9465634083076,"value":0},{"number":64,"time":1201.9477208166409,"value":1},{"number":64,"time":1204.1687874083066,"value":0},{"number":64,"time":1204.1699448166398,"value":1},{"number":64,"time":1206.3910114083055,"value":0},{"number":64,"time":1206.3921688166388,"value":1},{"number":64,"time":1208.6132354083047,"value":0},{"number":64,"time":1208.614392816638,"value":1},{"number":64,"time":1210.8354594083037,"value":0},{"number":64,"time":1210.836616816637,"value":1},{"number":64,"time":1213.0576834083026,"value":0},{"number":64,"time":1213.058840816636,"value":1},{"number":64,"time":1215.2799074083016,"value":0},{"number":64,"time":1215.2810648166349,"value":1},{"number":64,"time":1217.5021314083006,"value":0},{"number":64,"time":1217.5032888166338,"value":1},{"number":64,"time":1219.7243554082995,"value":0},{"number":64,"time":1219.7255128166328,"value":1},{"number":64,"time":1221.9465794082985,"value":0},{"number":64,"time":1221.9477368166317,"value":1},{"number":64,"time":1224.1688034082974,"value":0},{"number":64,"time":1224.1699608166307,"value":1},{"number":64,"time":1226.3910274082964,"value":0},{"number":64,"time":1226.3921848166297,"value":1},{"number":64,"time":1228.6132514082954,"value":0},{"number":64,"time":1228.6144088166286,"value":1},{"number":64,"time":1230.8354754082943,"value":0},{"number":64,"time":1230.8366328166276,"value":1},{"number":64,"time":1233.0576994082933,"value":0},{"number":64,"time":1233.0588568166265,"value":1},{"number":64,"time":1235.2799234082922,"value":0},{"number":64,"time":1235.2810808166255,"value":1},{"number":64,"time":1237.5021474082912,"value":0},{"number":64,"time":1237.5033048166244,"value":1},{"number":64,"time":1239.7243714082902,"value":0},{"number":64,"time":1239.7255288166234,"value":1},{"number":64,"time":1241.946595408289,"value":0},{"number":64,"time":1241.9477528166224,"value":1},{"number":64,"time":1244.1688194082883,"value":0},{"number":64,"time":1244.1699768166216,"value":1},{"number":64,"time":1246.3910434082873,"value":0},{"number":64,"time":1246.3922008166205,"value":1},{"number":64,"time":1248.6132674082862,"value":0},{"number":64,"time":1248.6144248166195,"value":1},{"number":64,"time":1250.8354914082852,"value":0},{"number":64,"time":1250.8366488166184,"value":1},{"number":64,"time":1253.0577154082841,"value":0},{"number":64,"time":1253.0588728166174,"value":1},{"number":64,"time":1255.279939408283,"value":0},{"number":64,"time":1255.2810968166164,"value":1},{"number":64,"time":1257.502163408282,"value":0},{"number":64,"time":1257.5033208166153,"value":1},{"number":64,"time":1259.724387408281,"value":0},{"number":64,"time":1259.7255448166143,"value":1},{"number":64,"time":1261.94661140828,"value":0},{"number":64,"time":1261.9477688166132,"value":1},{"number":64,"time":1264.168835408279,"value":0},{"number":64,"time":1264.1699928166122,"value":1},{"number":64,"time":1266.391059408278,"value":0},{"number":64,"time":1266.3922168166112,"value":1},{"number":64,"time":1268.6132834082769,"value":0},{"number":64,"time":1268.61444081661,"value":1},{"number":64,"time":1270.835507408276,"value":0}],"91":[{"number":91,"time":0,"value":0}],"93":[{"number":93,"time":0,"value":0}],"121":[{"number":121,"time":0,"value":0}]},"id":3,"instrumentNumber":0,"instrument":"acoustic grand piano","instrumentFamily":"piano","channelNumber":2,"isPercussion":false}]}
